<?xml version="1.0" encoding="UTF-8" standalone="no"?>
<!DOCTYPE svg PUBLIC "-//W3C//DTD SVG 1.1//EN"
 "http://www.w3.org/Graphics/SVG/1.1/DTD/svg11.dtd">
<!-- Generated by graphviz version 8.1.0 (20230707.0739)
 -->
<!-- Title: dab&#45;pwm&#45;configuration.X/mcc_generated_files/adc/adc1.h Pages: 1 -->
<svg width="1067pt" height="212pt"
 viewBox="0.00 0.00 1066.50 212.00" xmlns="http://www.w3.org/2000/svg" xmlns:xlink="http://www.w3.org/1999/xlink">
<g id="graph0" class="graph" transform="scale(1 1) rotate(0) translate(4 208)">
<title>dab&#45;pwm&#45;configuration.X/mcc_generated_files/adc/adc1.h</title>
<!-- Node1 -->
<g id="Node000001" class="node">
<title>Node1</title>
<g id="a_Node000001"><a xlink:title="This is the generated driver header file for the ADC1 driver.">
<polygon fill="#999999" stroke="#666666" points="592,-204 465,-204 465,-160 592,-160 592,-204"/>
<text text-anchor="start" x="473" y="-190.5" font-family="Helvetica,sans-Serif" font-size="10.00">dab&#45;pwm&#45;configuration.X</text>
<text text-anchor="start" x="473" y="-178.5" font-family="Helvetica,sans-Serif" font-size="10.00">/mcc_generated_files/adc</text>
<text text-anchor="middle" x="528.5" y="-166.5" font-family="Helvetica,sans-Serif" font-size="10.00">/adc1.h</text>
</a>
</g>
</g>
<!-- Node2 -->
<g id="Node000002" class="node">
<title>Node2</title>
<g id="a_Node000002"><a xlink:href="a00059.html" target="_top" xlink:title="This is the generated driver source file for ADC1 driver.">
<polygon fill="white" stroke="#666666" points="127,-124 0,-124 0,-80 127,-80 127,-124"/>
<text text-anchor="start" x="8" y="-110.5" font-family="Helvetica,sans-Serif" font-size="10.00">dab&#45;pwm&#45;configuration.X</text>
<text text-anchor="start" x="8" y="-98.5" font-family="Helvetica,sans-Serif" font-size="10.00">/mcc_generated_files/adc</text>
<text text-anchor="middle" x="63.5" y="-86.5" font-family="Helvetica,sans-Serif" font-size="10.00">/src/adc1.c</text>
</a>
</g>
</g>
<!-- Node1&#45;&gt;Node2 -->
<g id="edge1_Node000001_Node000002" class="edge">
<title>Node1&#45;&gt;Node2</title>
<g id="a_edge1_Node000001_Node000002"><a xlink:title=" ">
<path fill="none" stroke="#63b8ff" d="M453.83,-173.32C374.36,-164.41 245.21,-147.83 135.5,-124 132.83,-123.42 130.11,-122.79 127.37,-122.13"/>
<polygon fill="#63b8ff" stroke="#63b8ff" points="453.38,-176.9 463.71,-174.52 454.16,-169.94 453.38,-176.9"/>
</a>
</g>
</g>
<!-- Node3 -->
<g id="Node000003" class="node">
<title>Node3</title>
<g id="a_Node000003"><a xlink:href="a00188.html" target="_top" xlink:title="This is the generated driver header file for the System driver.">
<polygon fill="white" stroke="#666666" points="288.25,-124 144.75,-124 144.75,-80 288.25,-80 288.25,-124"/>
<text text-anchor="start" x="152.75" y="-110.5" font-family="Helvetica,sans-Serif" font-size="10.00">dab&#45;pwm&#45;configuration.X</text>
<text text-anchor="start" x="152.75" y="-98.5" font-family="Helvetica,sans-Serif" font-size="10.00">/mcc_generated_files/system</text>
<text text-anchor="middle" x="216.5" y="-86.5" font-family="Helvetica,sans-Serif" font-size="10.00">/src/system.c</text>
</a>
</g>
</g>
<!-- Node1&#45;&gt;Node3 -->
<g id="edge2_Node000001_Node000003" class="edge">
<title>Node1&#45;&gt;Node3</title>
<g id="a_edge2_Node000001_Node000003"><a xlink:title=" ">
<path fill="none" stroke="#63b8ff" d="M454.1,-162.88C408.8,-151.78 349.77,-137.22 297.5,-124 294.54,-123.25 291.53,-122.48 288.48,-121.71"/>
<polygon fill="#63b8ff" stroke="#63b8ff" points="453.17,-166.5 463.72,-165.48 454.84,-159.7 453.17,-166.5"/>
</a>
</g>
</g>
<!-- Node4 -->
<g id="Node000004" class="node">
<title>Node4</title>
<g id="a_Node000004"><a xlink:href="a00281.html" target="_top" xlink:title="Contains current sensor initialization and calibration evaluation.">
<polygon fill="white" stroke="#666666" points="442.5,-124 306.5,-124 306.5,-80 442.5,-80 442.5,-124"/>
<text text-anchor="start" x="314.5" y="-110.5" font-family="Helvetica,sans-Serif" font-size="10.00">dab&#45;pwm&#45;configuration.X</text>
<text text-anchor="start" x="314.5" y="-98.5" font-family="Helvetica,sans-Serif" font-size="10.00">/sources/device/dev_current</text>
<text text-anchor="middle" x="374.5" y="-86.5" font-family="Helvetica,sans-Serif" font-size="10.00">_sensor.c</text>
</a>
</g>
</g>
<!-- Node1&#45;&gt;Node4 -->
<g id="edge3_Node000001_Node000004" class="edge">
<title>Node1&#45;&gt;Node4</title>
<g id="a_edge3_Node000001_Node000004"><a xlink:title=" ">
<path fill="none" stroke="#63b8ff" d="M476.77,-154.8C457.27,-144.92 435.34,-133.81 416.8,-124.42"/>
<polygon fill="#63b8ff" stroke="#63b8ff" points="474.92,-158.29 485.42,-159.69 478.08,-152.05 474.92,-158.29"/>
</a>
</g>
</g>
<!-- Node5 -->
<g id="Node000005" class="node">
<title>Node5</title>
<g id="a_Node000005"><a xlink:href="a00308_source.html" target="_top" xlink:title=" ">
<polygon fill="white" stroke="#666666" points="596.5,-118 460.5,-118 460.5,-86 596.5,-86 596.5,-118"/>
<text text-anchor="start" x="468.5" y="-104.5" font-family="Helvetica,sans-Serif" font-size="10.00">dab&#45;pwm&#45;configuration.X</text>
<text text-anchor="middle" x="528.5" y="-92.5" font-family="Helvetica,sans-Serif" font-size="10.00">/sources/device/dev_temp.h</text>
</a>
</g>
</g>
<!-- Node1&#45;&gt;Node5 -->
<g id="edge4_Node000001_Node000005" class="edge">
<title>Node1&#45;&gt;Node5</title>
<g id="a_edge4_Node000001_Node000005"><a xlink:title=" ">
<path fill="none" stroke="#63b8ff" d="M528.5,-148.96C528.5,-138.28 528.5,-126.88 528.5,-118.11"/>
<polygon fill="#63b8ff" stroke="#63b8ff" points="525,-148.69 528.5,-158.69 532,-148.69 525,-148.69"/>
</a>
</g>
</g>
<!-- Node11 -->
<g id="Node000011" class="node">
<title>Node11</title>
<g id="a_Node000011"><a xlink:href="a00371.html" target="_top" xlink:title="Contains Control loop interrupt Callback that acquires the ADC raw data and process it in the control...">
<polygon fill="white" stroke="#666666" points="736,-124 615,-124 615,-80 736,-80 736,-124"/>
<text text-anchor="start" x="623" y="-110.5" font-family="Helvetica,sans-Serif" font-size="10.00">dab&#45;pwm&#45;configuration.X</text>
<text text-anchor="start" x="623" y="-98.5" font-family="Helvetica,sans-Serif" font-size="10.00">/sources/device/pwrctrl</text>
<text text-anchor="middle" x="675.5" y="-86.5" font-family="Helvetica,sans-Serif" font-size="10.00">/dev_pwrctrl_isr.c</text>
</a>
</g>
</g>
<!-- Node1&#45;&gt;Node11 -->
<g id="edge10_Node000001_Node000011" class="edge">
<title>Node1&#45;&gt;Node11</title>
<g id="a_edge10_Node000001_Node000011"><a xlink:title=" ">
<path fill="none" stroke="#63b8ff" d="M578.13,-154.66C596.68,-144.82 617.51,-133.77 635.13,-124.42"/>
<polygon fill="#63b8ff" stroke="#63b8ff" points="576.86,-151.91 569.67,-159.69 580.14,-158.09 576.86,-151.91"/>
</a>
</g>
</g>
<!-- Node12 -->
<g id="Node000012" class="node">
<title>Node12</title>
<g id="a_Node000012"><a xlink:href="a00377.html" target="_top" xlink:title="Contains some of the functions used in the interrupt service routine of control loop.">
<polygon fill="white" stroke="#666666" points="892.62,-124 754.38,-124 754.38,-80 892.62,-80 892.62,-124"/>
<text text-anchor="start" x="762.38" y="-110.5" font-family="Helvetica,sans-Serif" font-size="10.00">dab&#45;pwm&#45;configuration.X</text>
<text text-anchor="start" x="762.38" y="-98.5" font-family="Helvetica,sans-Serif" font-size="10.00">/sources/device/pwrctrl</text>
<text text-anchor="middle" x="823.5" y="-86.5" font-family="Helvetica,sans-Serif" font-size="10.00">/dev_pwrctrl_isr_extension.c</text>
</a>
</g>
</g>
<!-- Node1&#45;&gt;Node12 -->
<g id="edge11_Node000001_Node000012" class="edge">
<title>Node1&#45;&gt;Node12</title>
<g id="a_edge11_Node000001_Node000012"><a xlink:title=" ">
<path fill="none" stroke="#63b8ff" d="M602.55,-161.67C644.51,-150.69 697.96,-136.64 745.5,-124 748.35,-123.24 751.25,-122.47 754.18,-121.69"/>
<polygon fill="#63b8ff" stroke="#63b8ff" points="601.93,-158.47 593.15,-164.39 603.71,-165.25 601.93,-158.47"/>
</a>
</g>
</g>
<!-- Node13 -->
<g id="Node000013" class="node">
<title>Node13</title>
<g id="a_Node000013"><a xlink:href="a00398_source.html" target="_top" xlink:title=" ">
<polygon fill="white" stroke="#666666" points="1058.5,-124 910.5,-124 910.5,-80 1058.5,-80 1058.5,-124"/>
<text text-anchor="start" x="918.5" y="-110.5" font-family="Helvetica,sans-Serif" font-size="10.00">dab&#45;pwm&#45;configuration.X</text>
<text text-anchor="start" x="918.5" y="-98.5" font-family="Helvetica,sans-Serif" font-size="10.00">/sources/driver/mcc_extension</text>
<text text-anchor="middle" x="984.5" y="-86.5" font-family="Helvetica,sans-Serif" font-size="10.00">/drv_custom_config_adc.h</text>
</a>
</g>
</g>
<!-- Node1&#45;&gt;Node13 -->
<g id="edge12_Node000001_Node000013" class="edge">
<title>Node1&#45;&gt;Node13</title>
<g id="a_edge12_Node000001_Node000013"><a xlink:title=" ">
<path fill="none" stroke="#63b8ff" d="M603,-171.76C678.56,-161.89 798.69,-144.81 901.5,-124 904.41,-123.41 907.38,-122.78 910.37,-122.13"/>
<polygon fill="#63b8ff" stroke="#63b8ff" points="602.65,-168.41 593.19,-173.16 603.55,-175.35 602.65,-168.41"/>
</a>
</g>
</g>
<!-- Node6 -->
<g id="Node000006" class="node">
<title>Node6</title>
<g id="a_Node000006"><a xlink:href="a00041_source.html" target="_top" xlink:title=" ">
<polygon fill="white" stroke="#666666" points="303,-38 182,-38 182,-6 303,-6 303,-38"/>
<text text-anchor="start" x="190" y="-24.5" font-family="Helvetica,sans-Serif" font-size="10.00">dab&#45;pwm&#45;configuration.X</text>
<text text-anchor="middle" x="242.5" y="-12.5" font-family="Helvetica,sans-Serif" font-size="10.00">/main.c</text>
</a>
</g>
</g>
<!-- Node5&#45;&gt;Node6 -->
<g id="edge5_Node000005_Node000006" class="edge">
<title>Node5&#45;&gt;Node6</title>
<g id="a_edge5_Node000005_Node000006"><a xlink:title=" ">
<path fill="none" stroke="#63b8ff" d="M461.74,-82.73C458.28,-81.8 454.85,-80.89 451.5,-80 389.4,-63.55 373.36,-61.36 311.5,-44 305.23,-42.24 298.66,-40.33 292.17,-38.4"/>
<polygon fill="#63b8ff" stroke="#63b8ff" points="460.61,-86.32 471.17,-85.54 462.43,-79.56 460.61,-86.32"/>
</a>
</g>
</g>
<!-- Node7 -->
<g id="Node000007" class="node">
<title>Node7</title>
<g id="a_Node000007"><a xlink:href="a00044_source.html" target="_top" xlink:title=" ">
<polygon fill="white" stroke="#666666" points="442,-38 321,-38 321,-6 442,-6 442,-38"/>
<text text-anchor="start" x="329" y="-24.5" font-family="Helvetica,sans-Serif" font-size="10.00">dab&#45;pwm&#45;configuration.X</text>
<text text-anchor="middle" x="381.5" y="-12.5" font-family="Helvetica,sans-Serif" font-size="10.00">/main_tasks.c</text>
</a>
</g>
</g>
<!-- Node5&#45;&gt;Node7 -->
<g id="edge6_Node000005_Node000007" class="edge">
<title>Node5&#45;&gt;Node7</title>
<g id="a_edge6_Node000005_Node000007"><a xlink:title=" ">
<path fill="none" stroke="#63b8ff" d="M489.95,-80.55C465.07,-67.34 433.22,-50.44 410.48,-38.38"/>
<polygon fill="#63b8ff" stroke="#63b8ff" points="487.98,-83.99 498.46,-85.59 491.26,-77.81 487.98,-83.99"/>
</a>
</g>
</g>
<!-- Node8 -->
<g id="Node000008" class="node">
<title>Node8</title>
<g id="a_Node000008"><a xlink:href="a00245_source.html" target="_top" xlink:title=" ">
<polygon fill="white" stroke="#666666" points="597.25,-44 459.75,-44 459.75,0 597.25,0 597.25,-44"/>
<text text-anchor="start" x="467.75" y="-30.5" font-family="Helvetica,sans-Serif" font-size="10.00">dab&#45;pwm&#45;configuration.X</text>
<text text-anchor="start" x="467.75" y="-18.5" font-family="Helvetica,sans-Serif" font-size="10.00">/sources/app/app_PBV_dab</text>
<text text-anchor="middle" x="528.5" y="-6.5" font-family="Helvetica,sans-Serif" font-size="10.00">_frame_map.c</text>
</a>
</g>
</g>
<!-- Node5&#45;&gt;Node8 -->
<g id="edge7_Node000005_Node000008" class="edge">
<title>Node5&#45;&gt;Node8</title>
<g id="a_edge7_Node000005_Node000008"><a xlink:title=" ">
<path fill="none" stroke="#63b8ff" d="M528.5,-74.71C528.5,-64.8 528.5,-53.67 528.5,-44.28"/>
<polygon fill="#63b8ff" stroke="#63b8ff" points="525,-74.59 528.5,-84.59 532,-74.59 525,-74.59"/>
</a>
</g>
</g>
<!-- Node9 -->
<g id="Node000009" class="node">
<title>Node9</title>
<g id="a_Node000009"><a xlink:href="a00305_source.html" target="_top" xlink:title=" ">
<polygon fill="white" stroke="#666666" points="751.5,-38 615.5,-38 615.5,-6 751.5,-6 751.5,-38"/>
<text text-anchor="start" x="623.5" y="-24.5" font-family="Helvetica,sans-Serif" font-size="10.00">dab&#45;pwm&#45;configuration.X</text>
<text text-anchor="middle" x="683.5" y="-12.5" font-family="Helvetica,sans-Serif" font-size="10.00">/sources/device/dev_temp.c</text>
</a>
</g>
</g>
<!-- Node5&#45;&gt;Node9 -->
<g id="edge8_Node000005_Node000009" class="edge">
<title>Node5&#45;&gt;Node9</title>
<g id="a_edge8_Node000005_Node000009"><a xlink:title=" ">
<path fill="none" stroke="#63b8ff" d="M568.8,-80.72C595.09,-67.49 628.86,-50.5 652.94,-38.38"/>
<polygon fill="#63b8ff" stroke="#63b8ff" points="567.48,-77.97 560.12,-85.59 570.63,-84.22 567.48,-77.97"/>
</a>
</g>
</g>
<!-- Node10 -->
<g id="Node000010" class="node">
<title>Node10</title>
<g id="a_Node000010"><a xlink:href="a00311.html" target="_top" xlink:title="Contains fault functions including the fault handler, fault object initialization and fault execution...">
<polygon fill="white" stroke="#666666" points="891,-44 770,-44 770,0 891,0 891,-44"/>
<text text-anchor="start" x="778" y="-30.5" font-family="Helvetica,sans-Serif" font-size="10.00">dab&#45;pwm&#45;configuration.X</text>
<text text-anchor="start" x="778" y="-18.5" font-family="Helvetica,sans-Serif" font-size="10.00">/sources/device/fault</text>
<text text-anchor="middle" x="830.5" y="-6.5" font-family="Helvetica,sans-Serif" font-size="10.00">/dev_fault.c</text>
</a>
</g>
</g>
<!-- Node5&#45;&gt;Node10 -->
<g id="edge9_Node000005_Node000010" class="edge">
<title>Node5&#45;&gt;Node10</title>
<g id="a_edge9_Node000005_Node000010"><a xlink:title=" ">
<path fill="none" stroke="#63b8ff" d="M595.56,-82.79C599.26,-81.84 602.92,-80.9 606.5,-80 674.67,-62.86 692.58,-62.11 760.5,-44 763.56,-43.18 766.7,-42.33 769.86,-41.44"/>
<polygon fill="#63b8ff" stroke="#63b8ff" points="594.89,-79.61 586.1,-85.52 596.66,-86.38 594.89,-79.61"/>
</a>
</g>
</g>
<!-- Node14 -->
<g id="Node000014" class="node">
<title>Node14</title>
<g id="a_Node000014"><a xlink:href="a00413_source.html" target="_top" xlink:title=" ">
<polygon fill="white" stroke="#666666" points="1058.5,-44 910.5,-44 910.5,0 1058.5,0 1058.5,-44"/>
<text text-anchor="start" x="918.5" y="-30.5" font-family="Helvetica,sans-Serif" font-size="10.00">dab&#45;pwm&#45;configuration.X</text>
<text text-anchor="start" x="918.5" y="-18.5" font-family="Helvetica,sans-Serif" font-size="10.00">/sources/driver/mcc_extension</text>
<text text-anchor="middle" x="984.5" y="-6.5" font-family="Helvetica,sans-Serif" font-size="10.00">/mcc_custom_config.c</text>
</a>
</g>
</g>
<!-- Node13&#45;&gt;Node14 -->
<g id="edge13_Node000013_Node000014" class="edge">
<title>Node13&#45;&gt;Node14</title>
<g id="a_edge13_Node000013_Node000014"><a xlink:title=" ">
<path fill="none" stroke="#63b8ff" d="M984.5,-68.82C984.5,-60.54 984.5,-51.85 984.5,-44.29"/>
<polygon fill="#63b8ff" stroke="#63b8ff" points="981,-68.69 984.5,-78.69 988,-68.69 981,-68.69"/>
</a>
</g>
</g>
</g>
</svg>
