<?xml version="1.0" encoding="UTF-8" standalone="no"?>
<!DOCTYPE svg PUBLIC "-//W3C//DTD SVG 1.1//EN"
 "http://www.w3.org/Graphics/SVG/1.1/DTD/svg11.dtd">
<!-- Generated by graphviz version 8.1.0 (20230707.0739)
 -->
<!-- Title: dab&#45;pwm&#45;configuration.X/mcc_generated_files/adc/src/adc1.c Pages: 1 -->
<svg width="333pt" height="232pt"
 viewBox="0.00 0.00 333.00 232.00" xmlns="http://www.w3.org/2000/svg" xmlns:xlink="http://www.w3.org/1999/xlink">

<svg id="main" version="1.1" xmlns="http://www.w3.org/2000/svg" xmlns:xlink="http://www.w3.org/1999/xlink" xml:space="preserve" onload="init(evt)">
<style type="text/css"><![CDATA[
.node, .edge {opacity: 0.7;}
.node.selected, .edge.selected {opacity: 1;}
.edge:hover path { stroke: red; }
.edge:hover polygon { stroke: red; fill: red; }
]]></style>
<script type="application/ecmascript" xlink:href="svg.min.js"/>
<svg id="graph" class="graph">
<g id="graph0" class="graph" transform="scale(1 1) rotate(0) translate(4 228)">
<title>dab&#45;pwm&#45;configuration.X/mcc_generated_files/adc/src/adc1.c</title>
<!-- Node1 -->
<g id="Node000001" class="node">
<title>Node1</title>
<g id="a_Node000001"><a xlink:title="This is the generated driver source file for ADC1 driver.">
<polygon fill="#999999" stroke="#666666" points="128.88,-224 1.87,-224 1.87,-180 128.88,-180 128.88,-224"/>
<text text-anchor="start" x="9.88" y="-210.5" font-family="Helvetica,sans-Serif" font-size="10.00">dab&#45;pwm&#45;configuration.X</text>
<text text-anchor="start" x="9.88" y="-198.5" font-family="Helvetica,sans-Serif" font-size="10.00">/mcc_generated_files/adc</text>
<text text-anchor="middle" x="65.38" y="-186.5" font-family="Helvetica,sans-Serif" font-size="10.00">/src/adc1.c</text>
</a>
</g>
</g>
<!-- Node2 -->
<g id="Node000002" class="node">
<title>Node2</title>
<g id="a_Node000002"><a xlink:title=" ">
<polygon fill="#e0e0e0" stroke="#999999" points="55.62,-144 5.12,-144 5.12,-124 55.62,-124 55.62,-144"/>
<text text-anchor="middle" x="30.38" y="-130.5" font-family="Helvetica,sans-Serif" font-size="10.00">stddef.h</text>
</a>
</g>
</g>
<!-- Node1&#45;&gt;Node2 -->
<g id="edge1_Node000001_Node000002" class="edge">
<title>Node1&#45;&gt;Node2</title>
<g id="a_edge1_Node000001_Node000002"><a xlink:title=" ">
<path fill="none" stroke="#63b8ff" d="M54.11,-179.75C49.72,-171.47 44.72,-162.06 40.45,-154.01"/>
<polygon fill="#63b8ff" stroke="#63b8ff" points="43.15,-152.61 35.37,-145.42 36.96,-155.89 43.15,-152.61"/>
</a>
</g>
</g>
<!-- Node3 -->
<g id="Node000003" class="node">
<title>Node3</title>
<g id="a_Node000003"><a xlink:href="a00047.html" target="_top" xlink:title="This is the generated driver header file for the ADC1 driver.">
<polygon fill="white" stroke="#666666" points="127.5,-144 73.25,-144 73.25,-124 127.5,-124 127.5,-144"/>
<text text-anchor="middle" x="100.38" y="-130.5" font-family="Helvetica,sans-Serif" font-size="10.00">../adc1.h</text>
</a>
</g>
</g>
<!-- Node1&#45;&gt;Node3 -->
<g id="edge2_Node000001_Node000003" class="edge">
<title>Node1&#45;&gt;Node3</title>
<g id="a_edge2_Node000001_Node000003"><a xlink:title=" ">
<path fill="none" stroke="#63b8ff" d="M76.64,-179.75C81.03,-171.47 86.03,-162.06 90.3,-154.01"/>
<polygon fill="#63b8ff" stroke="#63b8ff" points="93.79,-155.89 95.38,-145.42 87.6,-152.61 93.79,-155.89"/>
</a>
</g>
</g>
<!-- Node4 -->
<g id="Node000004" class="node">
<title>Node4</title>
<g id="a_Node000004"><a xlink:title=" ">
<polygon fill="#e0e0e0" stroke="#999999" points="34.75,-88 0,-88 0,-68 34.75,-68 34.75,-88"/>
<text text-anchor="middle" x="17.38" y="-74.5" font-family="Helvetica,sans-Serif" font-size="10.00">xc.h</text>
</a>
</g>
</g>
<!-- Node3&#45;&gt;Node4 -->
<g id="edge3_Node000003_Node000004" class="edge">
<title>Node3&#45;&gt;Node4</title>
<g id="a_edge3_Node000003_Node000004"><a xlink:title=" ">
<path fill="none" stroke="#63b8ff" d="M85.92,-123.59C73.5,-115.51 55.35,-103.71 40.85,-94.27"/>
<polygon fill="#63b8ff" stroke="#63b8ff" points="43.24,-91 32.95,-88.48 39.42,-96.87 43.24,-91"/>
</a>
</g>
</g>
<!-- Node5 -->
<g id="Node000005" class="node">
<title>Node5</title>
<g id="a_Node000005"><a xlink:title=" ">
<polygon fill="#e0e0e0" stroke="#999999" points="58.25,-26 2.5,-26 2.5,-6 58.25,-6 58.25,-26"/>
<text text-anchor="middle" x="30.38" y="-12.5" font-family="Helvetica,sans-Serif" font-size="10.00">stdbool.h</text>
</a>
</g>
</g>
<!-- Node3&#45;&gt;Node5 -->
<g id="edge4_Node000003_Node000005" class="edge">
<title>Node3&#45;&gt;Node5</title>
<g id="a_edge4_Node000003_Node000005"><a xlink:title=" ">
<path fill="none" stroke="#63b8ff" d="M94.65,-123.51C83.05,-104.29 56.63,-60.5 41.52,-35.47"/>
<polygon fill="#63b8ff" stroke="#63b8ff" points="44.15,-34.05 35.99,-27.3 38.16,-37.67 44.15,-34.05"/>
</a>
</g>
</g>
<!-- Node6 -->
<g id="Node000006" class="node">
<title>Node6</title>
<g id="a_Node000006"><a xlink:title=" ">
<polygon fill="#e0e0e0" stroke="#999999" points="124.5,-26 76.25,-26 76.25,-6 124.5,-6 124.5,-26"/>
<text text-anchor="middle" x="100.38" y="-12.5" font-family="Helvetica,sans-Serif" font-size="10.00">stdint.h</text>
</a>
</g>
</g>
<!-- Node3&#45;&gt;Node6 -->
<g id="edge5_Node000003_Node000006" class="edge">
<title>Node3&#45;&gt;Node6</title>
<g id="a_edge5_Node000003_Node000006"><a xlink:title=" ">
<path fill="none" stroke="#63b8ff" d="M100.38,-123.51C100.38,-104.72 100.38,-62.44 100.38,-37.16"/>
<polygon fill="#63b8ff" stroke="#63b8ff" points="103.88,-37.3 100.38,-27.3 96.88,-37.3 103.88,-37.3"/>
</a>
</g>
</g>
<!-- Node7 -->
<g id="Node000007" class="node">
<title>Node7</title>
<g id="a_Node000007"><a xlink:href="a00056.html" target="_top" xlink:title="This is the generated driver types header file for the ADC driver.">
<polygon fill="white" stroke="#666666" points="325,-26 255.75,-26 255.75,-6 325,-6 325,-26"/>
<text text-anchor="middle" x="290.38" y="-12.5" font-family="Helvetica,sans-Serif" font-size="10.00">adc_types.h</text>
</a>
</g>
</g>
<!-- Node3&#45;&gt;Node7 -->
<g id="edge6_Node000003_Node000007" class="edge">
<title>Node3&#45;&gt;Node7</title>
<g id="a_edge6_Node000003_Node000007"><a xlink:title=" ">
<path fill="none" stroke="#63b8ff" d="M127.9,-126.19C153.06,-119.15 190.62,-106.57 219.38,-88 242.14,-73.29 263.45,-50.26 276.66,-34.44"/>
<polygon fill="#63b8ff" stroke="#63b8ff" points="279.87,-37.04 283.46,-27.08 274.44,-32.63 279.87,-37.04"/>
</a>
</g>
</g>
<!-- Node8 -->
<g id="Node000008" class="node">
<title>Node8</title>
<g id="a_Node000008"><a xlink:href="a00053_source.html" target="_top" xlink:title=" ">
<polygon fill="white" stroke="#666666" points="210.38,-88 128.38,-88 128.38,-68 210.38,-68 210.38,-88"/>
<text text-anchor="middle" x="169.38" y="-74.5" font-family="Helvetica,sans-Serif" font-size="10.00">adc_interface.h</text>
</a>
</g>
</g>
<!-- Node3&#45;&gt;Node8 -->
<g id="edge7_Node000003_Node000008" class="edge">
<title>Node3&#45;&gt;Node8</title>
<g id="a_edge7_Node000003_Node000008"><a xlink:title=" ">
<path fill="none" stroke="#63b8ff" d="M112.39,-123.59C122.49,-115.7 137.12,-104.24 149.04,-94.92"/>
<polygon fill="#63b8ff" stroke="#63b8ff" points="150.78,-97.22 156.49,-88.3 146.46,-91.71 150.78,-97.22"/>
</a>
</g>
</g>
<!-- Node8&#45;&gt;Node5 -->
<g id="edge9_Node000008_Node000005" class="edge">
<title>Node8&#45;&gt;Node5</title>
<g id="a_edge9_Node000008_Node000005"><a xlink:title=" ">
<path fill="none" stroke="#63b8ff" d="M147.66,-67.62C124.6,-57.67 87.96,-41.85 61.76,-30.55"/>
<polygon fill="#63b8ff" stroke="#63b8ff" points="63.51,-27.06 52.94,-26.31 60.74,-33.49 63.51,-27.06"/>
</a>
</g>
</g>
<!-- Node8&#45;&gt;Node6 -->
<g id="edge8_Node000008_Node000006" class="edge">
<title>Node8&#45;&gt;Node6</title>
<g id="a_edge8_Node000008_Node000006"><a xlink:title=" ">
<path fill="none" stroke="#63b8ff" d="M158.59,-67.62C148,-58.41 131.62,-44.17 118.93,-33.14"/>
<polygon fill="#63b8ff" stroke="#63b8ff" points="121.7,-30.03 111.85,-26.11 117.1,-35.32 121.7,-30.03"/>
</a>
</g>
</g>
<!-- Node8&#45;&gt;Node7 -->
<g id="edge10_Node000008_Node000007" class="edge">
<title>Node8&#45;&gt;Node7</title>
<g id="a_edge10_Node000008_Node000007"><a xlink:title=" ">
<path fill="none" stroke="#63b8ff" d="M188.28,-67.62C207.99,-57.85 239.13,-42.41 261.83,-31.15"/>
<polygon fill="#63b8ff" stroke="#63b8ff" points="263.2,-33.89 270.6,-26.31 260.09,-27.62 263.2,-33.89"/>
</a>
</g>
</g>
<!-- Node9 -->
<g id="Node000009" class="node">
<title>Node9</title>
<g id="a_Node000009"><a xlink:href="a00155_source.html" target="_top" xlink:title=" ">
<polygon fill="white" stroke="#666666" points="238.12,-32 142.62,-32 142.62,0 238.12,0 238.12,-32"/>
<text text-anchor="start" x="150.62" y="-18.5" font-family="Helvetica,sans-Serif" font-size="10.00">../system/interrupt</text>
<text text-anchor="middle" x="190.38" y="-6.5" font-family="Helvetica,sans-Serif" font-size="10.00">_types.h</text>
</a>
</g>
</g>
<!-- Node8&#45;&gt;Node9 -->
<g id="edge11_Node000008_Node000009" class="edge">
<title>Node8&#45;&gt;Node9</title>
<g id="a_edge11_Node000008_Node000009"><a xlink:title=" ">
<path fill="none" stroke="#63b8ff" d="M172.66,-67.62C175.02,-60.88 178.32,-51.43 181.44,-42.52"/>
<polygon fill="#63b8ff" stroke="#63b8ff" points="185.08,-43.74 185.08,-33.14 178.47,-41.42 185.08,-43.74"/>
</a>
</g>
</g>
</g>
</svg>
</svg>

<style type='text/css'>
<![CDATA[
[data-mouse-over-selected='false'] { opacity: 0.7; }
[data-mouse-over-selected='true']  { opacity: 1.0; }
]]>
</style>
<script type="application/ecmascript"><![CDATA[
document.addEventListener('DOMContentLoaded', (event) => {
  highlightEdges();
  highlightAdjacentNodes();
});
]]></script>
</svg>
