<?xml version="1.0" encoding="UTF-8" standalone="no"?>
<!DOCTYPE svg PUBLIC "-//W3C//DTD SVG 1.1//EN"
 "http://www.w3.org/Graphics/SVG/1.1/DTD/svg11.dtd">
<!-- Generated by graphviz version 8.1.0 (20230707.0739)
 -->
<!-- Title: dab&#45;pwm&#45;configuration.X/mcc_generated_files/cmp/cmp1.h Pages: 1 -->
<!--zoomable 212 -->

<svg id="main" version="1.1" xmlns="http://www.w3.org/2000/svg" xmlns:xlink="http://www.w3.org/1999/xlink" xml:space="preserve" onload="init(evt)">
<style type="text/css"><![CDATA[
.node, .edge {opacity: 0.7;}
.node.selected, .edge.selected {opacity: 1;}
.edge:hover path { stroke: red; }
.edge:hover polygon { stroke: red; fill: red; }
]]></style>

<defs>
  <circle id="rim" cx="0" cy="0" r="7"/>
  <circle id="rim2" cx="0" cy="0" r="3.5"/>
  <g id="zoomPlus">
    <use xlink:href="#rim" fill="#404040"><set attributeName="fill" to="#808080" begin="zoomplus.mouseover" end="zoomplus.mouseout"/></use>
    <path d="M-4,0h8M0,-4v8" fill="none" stroke="white" stroke-width="1.5" pointer-events="none"/>
  </g>
  <g id="zoomMin">
    <use xlink:href="#rim" fill="#404040"><set attributeName="fill" to="#808080" begin="zoomminus.mouseover" end="zoomminus.mouseout"/></use>
    <path d="M-4,0h8" fill="none" stroke="white" stroke-width="1.5" pointer-events="none"/>
  </g>
  <g id="arrowUp" transform="translate(30 24)">
    <use xlink:href="#rim"/>
    <path pointer-events="none" fill="none" stroke="white" stroke-width="1.5" d="M0,-3.0v7 M-2.5,-0.5L0,-3.0L2.5,-0.5"/>
  </g>
  <g id="arrowRight" transform="rotate(90) translate(36 -43)">
    <use xlink:href="#rim"/>
    <path pointer-events="none" fill="none" stroke="white" stroke-width="1.5" d="M0,-3.0v7 M-2.5,-0.5L0,-3.0L2.5,-0.5"/>
  </g>
  <g id="arrowDown" transform="rotate(180) translate(-30 -48)">
    <use xlink:href="#rim"/>
    <path pointer-events="none" fill="none" stroke="white" stroke-width="1.5" d="M0,-3.0v7 M-2.5,-0.5L0,-3.0L2.5,-0.5"/>
  </g>
  <g id="arrowLeft" transform="rotate(270) translate(-36 17)">
    <use xlink:href="#rim"/>
    <path pointer-events="none" fill="none" stroke="white" stroke-width="1.5" d="M0,-3.0v7 M-2.5,-0.5L0,-3.0L2.5,-0.5"/>
  </g>
  <g id="resetDef">
    <use xlink:href="#rim2" fill="#404040"><set attributeName="fill" to="#808080" begin="reset.mouseover" end="reset.mouseout"/></use>
  </g>
</defs>
<script type="application/ecmascript">
var viewWidth = 1147;
var viewHeight = 212;
var sectionId = 'dynsection-1';
</script>
<script type="application/ecmascript" xlink:href="svg.min.js"/>
<svg id="graph" class="graph">
<g id="viewport">
<title>dab&#45;pwm&#45;configuration.X/mcc_generated_files/cmp/cmp1.h</title>
<!-- Node1 -->
<g id="Node000001" class="node">
<title>Node1</title>
<g id="a_Node000001"><a xlink:title="This is the generated driver header file for the CMP1 driver.">
<polygon fill="#999999" stroke="#666666" points="335,-204 205,-204 205,-160 335,-160 335,-204"/>
<text text-anchor="start" x="213" y="-190.5" font-family="Helvetica,sans-Serif" font-size="10.00">dab&#45;pwm&#45;configuration.X</text>
<text text-anchor="start" x="213" y="-178.5" font-family="Helvetica,sans-Serif" font-size="10.00">/mcc_generated_files/cmp</text>
<text text-anchor="middle" x="270" y="-166.5" font-family="Helvetica,sans-Serif" font-size="10.00">/cmp1.h</text>
</a>
</g>
</g>
<!-- Node2 -->
<g id="Node000002" class="node">
<title>Node2</title>
<g id="a_Node000002"><a xlink:href="a00101.html" target="_top" xlink:title="This is the generated driver source file for CMP1 driver.">
<polygon fill="white" stroke="#666666" points="130,-124 0,-124 0,-80 130,-80 130,-124"/>
<text text-anchor="start" x="8" y="-110.5" font-family="Helvetica,sans-Serif" font-size="10.00">dab&#45;pwm&#45;configuration.X</text>
<text text-anchor="start" x="8" y="-98.5" font-family="Helvetica,sans-Serif" font-size="10.00">/mcc_generated_files/cmp</text>
<text text-anchor="middle" x="65" y="-86.5" font-family="Helvetica,sans-Serif" font-size="10.00">/src/cmp1.c</text>
</a>
</g>
</g>
<!-- Node1&#45;&gt;Node2 -->
<g id="edge1_Node000001_Node000002" class="edge">
<title>Node1&#45;&gt;Node2</title>
<g id="a_edge1_Node000001_Node000002"><a xlink:title=" ">
<path fill="none" stroke="#63b8ff" d="M203.7,-155.78C177.07,-145.64 146.69,-134.08 121.16,-124.37"/>
<polygon fill="#63b8ff" stroke="#63b8ff" points="202.12,-159.3 212.71,-159.58 204.61,-152.76 202.12,-159.3"/>
</a>
</g>
</g>
<!-- Node3 -->
<g id="Node000003" class="node">
<title>Node3</title>
<g id="a_Node000003"><a xlink:href="a00191.html" target="_top" xlink:title="This is the generated driver header file for the System driver.">
<polygon fill="white" stroke="#666666" points="291.75,-124 148.25,-124 148.25,-80 291.75,-80 291.75,-124"/>
<text text-anchor="start" x="156.25" y="-110.5" font-family="Helvetica,sans-Serif" font-size="10.00">dab&#45;pwm&#45;configuration.X</text>
<text text-anchor="start" x="156.25" y="-98.5" font-family="Helvetica,sans-Serif" font-size="10.00">/mcc_generated_files/system</text>
<text text-anchor="middle" x="220" y="-86.5" font-family="Helvetica,sans-Serif" font-size="10.00">/src/system.c</text>
</a>
</g>
</g>
<!-- Node1&#45;&gt;Node3 -->
<g id="edge2_Node000001_Node000003" class="edge">
<title>Node1&#45;&gt;Node3</title>
<g id="a_edge2_Node000001_Node000003"><a xlink:title=" ">
<path fill="none" stroke="#63b8ff" d="M250.45,-150.5C244.83,-141.74 238.83,-132.37 233.65,-124.29"/>
<polygon fill="#63b8ff" stroke="#63b8ff" points="247.99,-152.16 256.34,-158.69 253.89,-148.38 247.99,-152.16"/>
</a>
</g>
</g>
<!-- Node4 -->
<g id="Node000004" class="node">
<title>Node4</title>
<g id="a_Node000004"><a xlink:href="a00314.html" target="_top" xlink:title="Contains fault functions including the fault handler, fault object initialization and fault execution...">
<polygon fill="white" stroke="#666666" points="286.5,-44 165.5,-44 165.5,0 286.5,0 286.5,-44"/>
<text text-anchor="start" x="173.5" y="-30.5" font-family="Helvetica,sans-Serif" font-size="10.00">dab&#45;pwm&#45;configuration.X</text>
<text text-anchor="start" x="173.5" y="-18.5" font-family="Helvetica,sans-Serif" font-size="10.00">/sources/device/fault</text>
<text text-anchor="middle" x="226" y="-6.5" font-family="Helvetica,sans-Serif" font-size="10.00">/dev_fault.c</text>
</a>
</g>
</g>
<!-- Node1&#45;&gt;Node4 -->
<g id="edge3_Node000001_Node000004" class="edge">
<title>Node1&#45;&gt;Node4</title>
<g id="a_edge3_Node000001_Node000004"><a xlink:title=" ">
<path fill="none" stroke="#63b8ff" d="M291.04,-150.53C302.47,-129.96 312.19,-102.55 301,-80 293.73,-65.35 280.7,-53.45 267.51,-44.38"/>
<polygon fill="#63b8ff" stroke="#63b8ff" points="287.67,-148.36 285.56,-158.74 293.68,-151.94 287.67,-148.36"/>
</a>
</g>
</g>
<!-- Node5 -->
<g id="Node000005" class="node">
<title>Node5</title>
<g id="a_Node000005"><a xlink:href="a00317_source.html" target="_top" xlink:title=" ">
<polygon fill="white" stroke="#666666" points="633.5,-124 512.5,-124 512.5,-80 633.5,-80 633.5,-124"/>
<text text-anchor="start" x="520.5" y="-110.5" font-family="Helvetica,sans-Serif" font-size="10.00">dab&#45;pwm&#45;configuration.X</text>
<text text-anchor="start" x="520.5" y="-98.5" font-family="Helvetica,sans-Serif" font-size="10.00">/sources/device/fault</text>
<text text-anchor="middle" x="573" y="-86.5" font-family="Helvetica,sans-Serif" font-size="10.00">/dev_fault.h</text>
</a>
</g>
</g>
<!-- Node1&#45;&gt;Node5 -->
<g id="edge4_Node000001_Node000005" class="edge">
<title>Node1&#45;&gt;Node5</title>
<g id="a_edge4_Node000001_Node000005"><a xlink:title=" ">
<path fill="none" stroke="#63b8ff" d="M345.76,-161.5C397.16,-148.27 464.21,-131.01 512.13,-118.67"/>
<polygon fill="#63b8ff" stroke="#63b8ff" points="345.19,-158.29 336.37,-164.17 346.93,-165.07 345.19,-158.29"/>
</a>
</g>
</g>
<!-- Node5&#45;&gt;Node4 -->
<g id="edge7_Node000005_Node000004" class="edge">
<title>Node5&#45;&gt;Node4</title>
<g id="a_edge7_Node000005_Node000004"><a xlink:title=" ">
<path fill="none" stroke="#63b8ff" d="M501.57,-88.25C445.17,-77.73 364.64,-61.7 295,-44 292.33,-43.32 289.61,-42.6 286.87,-41.86"/>
<polygon fill="#63b8ff" stroke="#63b8ff" points="500.69,-91.83 511.16,-90.22 501.97,-84.95 500.69,-91.83"/>
</a>
</g>
</g>
<!-- Node5&#45;&gt;Node5 -->
<g id="edge8_Node000005_Node000005" class="edge">
<title>Node5&#45;&gt;Node5</title>
<g id="a_edge8_Node000005_Node000005"><a xlink:title=" ">
<path fill="none" stroke="#63b8ff" d="M644.03,-112.69C648.68,-110.2 651.5,-106.64 651.5,-102 651.5,-94.58 644.29,-89.91 633.89,-88"/>
<polygon fill="#63b8ff" stroke="#63b8ff" points="643.31,-109.57 634.89,-116 645.48,-116.22 643.31,-109.57"/>
</a>
</g>
</g>
<!-- Node6 -->
<g id="Node000006" class="node">
<title>Node6</title>
<g id="a_Node000006"><a xlink:href="a00044_source.html" target="_top" xlink:title=" ">
<polygon fill="white" stroke="#666666" points="425.5,-38 304.5,-38 304.5,-6 425.5,-6 425.5,-38"/>
<text text-anchor="start" x="312.5" y="-24.5" font-family="Helvetica,sans-Serif" font-size="10.00">dab&#45;pwm&#45;configuration.X</text>
<text text-anchor="middle" x="365" y="-12.5" font-family="Helvetica,sans-Serif" font-size="10.00">/main.c</text>
</a>
</g>
</g>
<!-- Node5&#45;&gt;Node6 -->
<g id="edge5_Node000005_Node000006" class="edge">
<title>Node5&#45;&gt;Node6</title>
<g id="a_edge5_Node000005_Node000006"><a xlink:title=" ">
<path fill="none" stroke="#63b8ff" d="M505.9,-75.84C473.06,-63.52 434.6,-49.1 406.16,-38.43"/>
<polygon fill="#63b8ff" stroke="#63b8ff" points="504.3,-79.35 514.89,-79.58 506.75,-72.79 504.3,-79.35"/>
</a>
</g>
</g>
<!-- Node7 -->
<g id="Node000007" class="node">
<title>Node7</title>
<g id="a_Node000007"><a xlink:href="a00047_source.html" target="_top" xlink:title=" ">
<polygon fill="white" stroke="#666666" points="564.5,-38 443.5,-38 443.5,-6 564.5,-6 564.5,-38"/>
<text text-anchor="start" x="451.5" y="-24.5" font-family="Helvetica,sans-Serif" font-size="10.00">dab&#45;pwm&#45;configuration.X</text>
<text text-anchor="middle" x="504" y="-12.5" font-family="Helvetica,sans-Serif" font-size="10.00">/main_tasks.c</text>
</a>
</g>
</g>
<!-- Node5&#45;&gt;Node7 -->
<g id="edge6_Node000005_Node000007" class="edge">
<title>Node5&#45;&gt;Node7</title>
<g id="a_edge6_Node000005_Node000007"><a xlink:title=" ">
<path fill="none" stroke="#63b8ff" d="M547.03,-71.64C536.92,-60.22 525.78,-47.62 517.37,-38.11"/>
<polygon fill="#63b8ff" stroke="#63b8ff" points="543.9,-73.52 553.15,-78.69 549.14,-68.88 543.9,-73.52"/>
</a>
</g>
</g>
<!-- Node8 -->
<g id="Node000008" class="node">
<title>Node8</title>
<g id="a_Node000008"><a xlink:href="a00359.html" target="_top" xlink:title="Contains power control initialization including control loop initialization and start&#45;up initializati...">
<polygon fill="white" stroke="#666666" points="703.5,-44 582.5,-44 582.5,0 703.5,0 703.5,-44"/>
<text text-anchor="start" x="590.5" y="-30.5" font-family="Helvetica,sans-Serif" font-size="10.00">dab&#45;pwm&#45;configuration.X</text>
<text text-anchor="start" x="590.5" y="-18.5" font-family="Helvetica,sans-Serif" font-size="10.00">/sources/device/pwrctrl</text>
<text text-anchor="middle" x="643" y="-6.5" font-family="Helvetica,sans-Serif" font-size="10.00">/dev_pwrctrl.c</text>
</a>
</g>
</g>
<!-- Node5&#45;&gt;Node8 -->
<g id="edge9_Node000005_Node000008" class="edge">
<title>Node5&#45;&gt;Node8</title>
<g id="a_edge9_Node000005_Node000008"><a xlink:title=" ">
<path fill="none" stroke="#63b8ff" d="M599.37,-71.62C607.52,-62.53 616.34,-52.71 623.9,-44.29"/>
<polygon fill="#63b8ff" stroke="#63b8ff" points="597.2,-68.91 593.13,-78.69 602.41,-73.58 597.2,-68.91"/>
</a>
</g>
</g>
<!-- Node9 -->
<g id="Node000009" class="node">
<title>Node9</title>
<g id="a_Node000009"><a xlink:href="a00371.html" target="_top" xlink:title="Contains Control loop interrupt Callback that acquires the ADC raw data and process it in the control...">
<polygon fill="white" stroke="#666666" points="842.5,-44 721.5,-44 721.5,0 842.5,0 842.5,-44"/>
<text text-anchor="start" x="729.5" y="-30.5" font-family="Helvetica,sans-Serif" font-size="10.00">dab&#45;pwm&#45;configuration.X</text>
<text text-anchor="start" x="729.5" y="-18.5" font-family="Helvetica,sans-Serif" font-size="10.00">/sources/device/pwrctrl</text>
<text text-anchor="middle" x="782" y="-6.5" font-family="Helvetica,sans-Serif" font-size="10.00">/dev_pwrctrl_isr.c</text>
</a>
</g>
</g>
<!-- Node5&#45;&gt;Node9 -->
<g id="edge10_Node000005_Node000009" class="edge">
<title>Node5&#45;&gt;Node9</title>
<g id="a_edge10_Node000005_Node000009"><a xlink:title=" ">
<path fill="none" stroke="#63b8ff" d="M640.59,-75.78C667.75,-65.64 698.72,-54.08 724.74,-44.37"/>
<polygon fill="#63b8ff" stroke="#63b8ff" points="639.53,-72.81 631.39,-79.58 641.98,-79.37 639.53,-72.81"/>
</a>
</g>
</g>
<!-- Node10 -->
<g id="Node000010" class="node">
<title>Node10</title>
<g id="a_Node000010"><a xlink:href="a00377.html" target="_top" xlink:title="Contains some of the functions used in the interrupt service routine of control loop.">
<polygon fill="white" stroke="#666666" points="999.12,-44 860.88,-44 860.88,0 999.12,0 999.12,-44"/>
<text text-anchor="start" x="868.88" y="-30.5" font-family="Helvetica,sans-Serif" font-size="10.00">dab&#45;pwm&#45;configuration.X</text>
<text text-anchor="start" x="868.88" y="-18.5" font-family="Helvetica,sans-Serif" font-size="10.00">/sources/device/pwrctrl</text>
<text text-anchor="middle" x="930" y="-6.5" font-family="Helvetica,sans-Serif" font-size="10.00">/dev_pwrctrl_isr_extension.c</text>
</a>
</g>
</g>
<!-- Node5&#45;&gt;Node10 -->
<g id="edge11_Node000005_Node000010" class="edge">
<title>Node5&#45;&gt;Node10</title>
<g id="a_edge11_Node000005_Node000010"><a xlink:title=" ">
<path fill="none" stroke="#63b8ff" d="M644.54,-87.64C701.06,-76.78 781.83,-60.6 852,-44 854.87,-43.32 857.79,-42.61 860.73,-41.89"/>
<polygon fill="#63b8ff" stroke="#63b8ff" points="644.08,-84.36 634.92,-89.67 645.4,-91.23 644.08,-84.36"/>
</a>
</g>
</g>
<!-- Node11 -->
<g id="Node000011" class="node">
<title>Node11</title>
<g id="a_Node000011"><a xlink:href="a00386.html" target="_top" xlink:title="Contains power control state machine functions that is executed every 100us.">
<polygon fill="white" stroke="#666666" points="1138.5,-44 1017.5,-44 1017.5,0 1138.5,0 1138.5,-44"/>
<text text-anchor="start" x="1025.5" y="-30.5" font-family="Helvetica,sans-Serif" font-size="10.00">dab&#45;pwm&#45;configuration.X</text>
<text text-anchor="start" x="1025.5" y="-18.5" font-family="Helvetica,sans-Serif" font-size="10.00">/sources/device/pwrctrl</text>
<text text-anchor="middle" x="1078" y="-6.5" font-family="Helvetica,sans-Serif" font-size="10.00">/dev_pwrctrl_sm.c</text>
</a>
</g>
</g>
<!-- Node5&#45;&gt;Node11 -->
<g id="edge12_Node000005_Node000011" class="edge">
<title>Node5&#45;&gt;Node11</title>
<g id="a_edge12_Node000005_Node000011"><a xlink:title=" ">
<path fill="none" stroke="#63b8ff" d="M644.45,-95.2C731.14,-87.34 881.4,-71.1 1008,-44 1010.98,-43.36 1014.01,-42.66 1017.07,-41.91"/>
<polygon fill="#63b8ff" stroke="#63b8ff" points="644.34,-91.78 634.69,-96.16 644.96,-98.76 644.34,-91.78"/>
</a>
</g>
</g>
</g>
</svg>

<g id="navigator" transform="translate(0 0)" fill="#404254">
  <rect fill="#f2f5e9" fill-opacity="0.5" stroke="#606060" stroke-width=".5" x="0" y="0" width="60" height="60"/>
  <use id="zoomplus" xlink:href="#zoomPlus" x="17" y="9" onmousedown="handleZoom(evt,'in')"/>
  <use id="zoomminus" xlink:href="#zoomMin" x="42" y="9" onmousedown="handleZoom(evt,'out')"/>
  <use id="reset" xlink:href="#resetDef" x="30" y="36" onmousedown="handleReset()"/>
   <use id="arrowup" xlink:href="#arrowUp" x="0" y="0" onmousedown="handlePan(0,-1)"/>
  <use id="arrowright" xlink:href="#arrowRight" x="0" y="0" onmousedown="handlePan(1,0)"/>
  <use id="arrowdown" xlink:href="#arrowDown" x="0" y="0" onmousedown="handlePan(0,1)"/>
  <use id="arrowleft" xlink:href="#arrowLeft" x="0" y="0" onmousedown="handlePan(-1,0)"/>
</g>
<svg viewBox="0 0 15 15" width="100%" height="30px" preserveAspectRatio="xMaxYMin meet">
 <g id="arrow_out" transform="scale(0.3 0.3)">
  <a xlink:href="a00091_org.svg" target="_base">
   <rect id="button" ry="5" rx="5" y="6" x="6" height="38" width="38"
        fill="#f2f5e9" fill-opacity="0.5" stroke="#606060" stroke-width="1.0"/>
   <path id="arrow"
     d="M 11.500037,31.436501 C 11.940474,20.09759 22.043105,11.32322 32.158766,21.979434 L 37.068811,17.246167 C 37.068811,17.246167 37.088388,32 37.088388,32 L 22.160133,31.978069 C 22.160133,31.978069 26.997745,27.140456 26.997745,27.140456 C 18.528582,18.264221 13.291696,25.230495 11.500037,31.436501 z"
     style="fill:#404040;"/>
  </a>
 </g>
</svg>

<style type='text/css'>
<![CDATA[
[data-mouse-over-selected='false'] { opacity: 0.7; }
[data-mouse-over-selected='true']  { opacity: 1.0; }
]]>
</style>
<script type="application/ecmascript"><![CDATA[
document.addEventListener('DOMContentLoaded', (event) => {
  highlightEdges();
  highlightAdjacentNodes();
});
]]></script>
</svg>
