<?xml version="1.0" encoding="UTF-8" standalone="no"?>
<!DOCTYPE svg PUBLIC "-//W3C//DTD SVG 1.1//EN"
 "http://www.w3.org/Graphics/SVG/1.1/DTD/svg11.dtd">
<!-- Generated by graphviz version 8.1.0 (20230707.0739)
 -->
<!-- Title: dab&#45;pwm&#45;configuration.X/mcc_generated_files/can/can_types.h Pages: 1 -->
<svg width="465pt" height="292pt"
 viewBox="0.00 0.00 465.25 292.00" xmlns="http://www.w3.org/2000/svg" xmlns:xlink="http://www.w3.org/1999/xlink">

<svg id="main" version="1.1" xmlns="http://www.w3.org/2000/svg" xmlns:xlink="http://www.w3.org/1999/xlink" xml:space="preserve" onload="init(evt)">
<style type="text/css"><![CDATA[
.node, .edge {opacity: 0.7;}
.node.selected, .edge.selected {opacity: 1;}
.edge:hover path { stroke: red; }
.edge:hover polygon { stroke: red; fill: red; }
]]></style>
<script type="application/ecmascript" xlink:href="svg.min.js"/>
<svg id="graph" class="graph">
<g id="graph0" class="graph" transform="scale(1 1) rotate(0) translate(4 288)">
<title>dab&#45;pwm&#45;configuration.X/mcc_generated_files/can/can_types.h</title>
<!-- Node1 -->
<g id="Node000001" class="node">
<title>Node1</title>
<g id="a_Node000001"><a xlink:title="This is the generated driver types header file for the CAN driver using CCL.">
<polygon fill="#999999" stroke="#666666" points="365.25,-284 238.25,-284 238.25,-240 365.25,-240 365.25,-284"/>
<text text-anchor="start" x="246.25" y="-270.5" font-family="Helvetica,sans-Serif" font-size="10.00">dab&#45;pwm&#45;configuration.X</text>
<text text-anchor="start" x="246.25" y="-258.5" font-family="Helvetica,sans-Serif" font-size="10.00">/mcc_generated_files/can</text>
<text text-anchor="middle" x="301.75" y="-246.5" font-family="Helvetica,sans-Serif" font-size="10.00">/can_types.h</text>
</a>
</g>
</g>
<!-- Node2 -->
<g id="Node000002" class="node">
<title>Node2</title>
<g id="a_Node000002"><a xlink:href="a00065.html" target="_top" xlink:title="This is the generated driver header file for the CAN1 driver using CCL.">
<polygon fill="white" stroke="#666666" points="300.25,-124 173.25,-124 173.25,-80 300.25,-80 300.25,-124"/>
<text text-anchor="start" x="181.25" y="-110.5" font-family="Helvetica,sans-Serif" font-size="10.00">dab&#45;pwm&#45;configuration.X</text>
<text text-anchor="start" x="181.25" y="-98.5" font-family="Helvetica,sans-Serif" font-size="10.00">/mcc_generated_files/can</text>
<text text-anchor="middle" x="236.75" y="-86.5" font-family="Helvetica,sans-Serif" font-size="10.00">/can1.h</text>
</a>
</g>
</g>
<!-- Node1&#45;&gt;Node2 -->
<g id="edge1_Node000001_Node000002" class="edge">
<title>Node1&#45;&gt;Node2</title>
<g id="a_edge1_Node000001_Node000002"><a xlink:title=" ">
<path fill="none" stroke="#63b8ff" d="M252.97,-233.03C243.2,-225 234.26,-215.29 228.75,-204 216.41,-178.71 222.62,-145.58 229.01,-124.29"/>
<polygon fill="#63b8ff" stroke="#63b8ff" points="250.62,-236.41 260.7,-239.67 254.86,-230.83 250.62,-236.41"/>
</a>
</g>
</g>
<!-- Node3 -->
<g id="Node000003" class="node">
<title>Node3</title>
<g id="a_Node000003"><a xlink:href="a00077.html" target="_top" xlink:title="This is the generated driver source file for CAN1 driver using CCL.">
<polygon fill="white" stroke="#666666" points="457.25,-44 330.25,-44 330.25,0 457.25,0 457.25,-44"/>
<text text-anchor="start" x="338.25" y="-30.5" font-family="Helvetica,sans-Serif" font-size="10.00">dab&#45;pwm&#45;configuration.X</text>
<text text-anchor="start" x="338.25" y="-18.5" font-family="Helvetica,sans-Serif" font-size="10.00">/mcc_generated_files/can</text>
<text text-anchor="middle" x="393.75" y="-6.5" font-family="Helvetica,sans-Serif" font-size="10.00">/src/can1.c</text>
</a>
</g>
</g>
<!-- Node1&#45;&gt;Node3 -->
<g id="edge7_Node000001_Node000003" class="edge">
<title>Node1&#45;&gt;Node3</title>
<g id="a_edge7_Node000001_Node000003"><a xlink:title=" ">
<path fill="none" stroke="#63b8ff" d="M349.09,-233.08C359.12,-224.96 368.54,-215.21 374.75,-204 403.32,-152.46 400.35,-79.95 396.63,-44.38"/>
<polygon fill="#63b8ff" stroke="#63b8ff" points="347.45,-230.69 341.58,-239.51 351.67,-236.27 347.45,-230.69"/>
</a>
</g>
</g>
<!-- Node6 -->
<g id="Node000006" class="node">
<title>Node6</title>
<g id="a_Node000006"><a xlink:href="a00071_source.html" target="_top" xlink:title=" ">
<polygon fill="white" stroke="#666666" points="365.25,-204 238.25,-204 238.25,-160 365.25,-160 365.25,-204"/>
<text text-anchor="start" x="246.25" y="-190.5" font-family="Helvetica,sans-Serif" font-size="10.00">dab&#45;pwm&#45;configuration.X</text>
<text text-anchor="start" x="246.25" y="-178.5" font-family="Helvetica,sans-Serif" font-size="10.00">/mcc_generated_files/can</text>
<text text-anchor="middle" x="301.75" y="-166.5" font-family="Helvetica,sans-Serif" font-size="10.00">/can_interface.h</text>
</a>
</g>
</g>
<!-- Node1&#45;&gt;Node6 -->
<g id="edge5_Node000001_Node000006" class="edge">
<title>Node1&#45;&gt;Node6</title>
<g id="a_edge5_Node000001_Node000006"><a xlink:title=" ">
<path fill="none" stroke="#63b8ff" d="M301.75,-228.82C301.75,-220.54 301.75,-211.85 301.75,-204.29"/>
<polygon fill="#63b8ff" stroke="#63b8ff" points="298.25,-228.69 301.75,-238.69 305.25,-228.69 298.25,-228.69"/>
</a>
</g>
</g>
<!-- Node2&#45;&gt;Node3 -->
<g id="edge2_Node000002_Node000003" class="edge">
<title>Node2&#45;&gt;Node3</title>
<g id="a_edge2_Node000002_Node000003"><a xlink:title=" ">
<path fill="none" stroke="#63b8ff" d="M289.49,-74.8C309.37,-64.92 331.73,-53.81 350.63,-44.42"/>
<polygon fill="#63b8ff" stroke="#63b8ff" points="288.05,-72.1 280.65,-79.69 291.16,-78.37 288.05,-72.1"/>
</a>
</g>
</g>
<!-- Node4 -->
<g id="Node000004" class="node">
<title>Node4</title>
<g id="a_Node000004"><a xlink:href="a00191.html" target="_top" xlink:title="This is the generated driver header file for the System driver.">
<polygon fill="white" stroke="#666666" points="143.5,-44 0,-44 0,0 143.5,0 143.5,-44"/>
<text text-anchor="start" x="8" y="-30.5" font-family="Helvetica,sans-Serif" font-size="10.00">dab&#45;pwm&#45;configuration.X</text>
<text text-anchor="start" x="8" y="-18.5" font-family="Helvetica,sans-Serif" font-size="10.00">/mcc_generated_files/system</text>
<text text-anchor="middle" x="71.75" y="-6.5" font-family="Helvetica,sans-Serif" font-size="10.00">/src/system.c</text>
</a>
</g>
</g>
<!-- Node2&#45;&gt;Node4 -->
<g id="edge3_Node000002_Node000004" class="edge">
<title>Node2&#45;&gt;Node4</title>
<g id="a_edge3_Node000002_Node000004"><a xlink:title=" ">
<path fill="none" stroke="#63b8ff" d="M181.9,-75.07C160.86,-65.13 137.11,-53.9 117.07,-44.42"/>
<polygon fill="#63b8ff" stroke="#63b8ff" points="180.13,-78.58 190.66,-79.69 183.12,-72.25 180.13,-78.58"/>
</a>
</g>
</g>
<!-- Node5 -->
<g id="Node000005" class="node">
<title>Node5</title>
<g id="a_Node000005"><a xlink:href="a00236_source.html" target="_top" xlink:title=" ">
<polygon fill="white" stroke="#666666" points="311.88,-38 161.62,-38 161.62,-6 311.88,-6 311.88,-38"/>
<text text-anchor="start" x="169.62" y="-24.5" font-family="Helvetica,sans-Serif" font-size="10.00">dab&#45;pwm&#45;configuration.X</text>
<text text-anchor="middle" x="236.75" y="-12.5" font-family="Helvetica,sans-Serif" font-size="10.00">/sources/app/app_PBV_CAN.c</text>
</a>
</g>
</g>
<!-- Node2&#45;&gt;Node5 -->
<g id="edge4_Node000002_Node000005" class="edge">
<title>Node2&#45;&gt;Node5</title>
<g id="a_edge4_Node000002_Node000005"><a xlink:title=" ">
<path fill="none" stroke="#63b8ff" d="M236.75,-68.96C236.75,-58.28 236.75,-46.88 236.75,-38.11"/>
<polygon fill="#63b8ff" stroke="#63b8ff" points="233.25,-68.69 236.75,-78.69 240.25,-68.69 233.25,-68.69"/>
</a>
</g>
</g>
<!-- Node6&#45;&gt;Node2 -->
<g id="edge6_Node000006_Node000002" class="edge">
<title>Node6&#45;&gt;Node2</title>
<g id="a_edge6_Node000006_Node000002"><a xlink:title=" ">
<path fill="none" stroke="#63b8ff" d="M277.03,-151.34C269.53,-142.33 261.44,-132.63 254.49,-124.29"/>
<polygon fill="#63b8ff" stroke="#63b8ff" points="274.9,-153.24 283.99,-158.69 280.28,-148.76 274.9,-153.24"/>
</a>
</g>
</g>
</g>
</svg>
</svg>

<style type='text/css'>
<![CDATA[
[data-mouse-over-selected='false'] { opacity: 0.7; }
[data-mouse-over-selected='true']  { opacity: 1.0; }
]]>
</style>
<script type="application/ecmascript"><![CDATA[
document.addEventListener('DOMContentLoaded', (event) => {
  highlightEdges();
  highlightAdjacentNodes();
});
]]></script>
</svg>
