<?xml version="1.0" encoding="UTF-8" standalone="no"?>
<!DOCTYPE svg PUBLIC "-//W3C//DTD SVG 1.1//EN"
 "http://www.w3.org/Graphics/SVG/1.1/DTD/svg11.dtd">
<!-- Generated by graphviz version 8.1.0 (20230707.0739)
 -->
<!-- Title: dab&#45;pwm&#45;configuration.X/mcc_generated_files/can/can1.h Pages: 1 -->
<svg width="237pt" height="220pt"
 viewBox="0.00 0.00 236.64 220.00" xmlns="http://www.w3.org/2000/svg" xmlns:xlink="http://www.w3.org/1999/xlink">
<g id="graph0" class="graph" transform="scale(1 1) rotate(0) translate(4 216)">
<title>dab&#45;pwm&#45;configuration.X/mcc_generated_files/can/can1.h</title>
<!-- Node1 -->
<g id="Node000001" class="node">
<title>Node1</title>
<g id="a_Node000001"><a xlink:title="This is the generated driver header file for the CAN1 driver using CCL.">
<polygon fill="#999999" stroke="#666666" points="194.88,-212 67.88,-212 67.88,-168 194.88,-168 194.88,-212"/>
<text text-anchor="start" x="75.88" y="-198.5" font-family="Helvetica,sans-Serif" font-size="10.00">dab&#45;pwm&#45;configuration.X</text>
<text text-anchor="start" x="75.88" y="-186.5" font-family="Helvetica,sans-Serif" font-size="10.00">/mcc_generated_files/can</text>
<text text-anchor="middle" x="131.38" y="-174.5" font-family="Helvetica,sans-Serif" font-size="10.00">/can1.h</text>
</a>
</g>
</g>
<!-- Node2 -->
<g id="Node000002" class="node">
<title>Node2</title>
<g id="a_Node000002"><a xlink:title=" ">
<polygon fill="#e0e0e0" stroke="#999999" points="34.75,-132 0,-132 0,-112 34.75,-112 34.75,-132"/>
<text text-anchor="middle" x="17.38" y="-118.5" font-family="Helvetica,sans-Serif" font-size="10.00">xc.h</text>
</a>
</g>
</g>
<!-- Node1&#45;&gt;Node2 -->
<g id="edge1_Node000001_Node000002" class="edge">
<title>Node1&#45;&gt;Node2</title>
<g id="a_edge1_Node000001_Node000002"><a xlink:title=" ">
<path fill="none" stroke="#63b8ff" d="M94.36,-167.57C77.51,-157.81 57.99,-146.51 42.82,-137.73"/>
<polygon fill="#63b8ff" stroke="#63b8ff" points="44.96,-134.35 34.55,-132.37 41.45,-140.4 44.96,-134.35"/>
</a>
</g>
</g>
<!-- Node3 -->
<g id="Node000003" class="node">
<title>Node3</title>
<g id="a_Node000003"><a xlink:title=" ">
<polygon fill="#e0e0e0" stroke="#999999" points="212.25,-76 156.5,-76 156.5,-56 212.25,-56 212.25,-76"/>
<text text-anchor="middle" x="184.38" y="-62.5" font-family="Helvetica,sans-Serif" font-size="10.00">stdbool.h</text>
</a>
</g>
</g>
<!-- Node1&#45;&gt;Node3 -->
<g id="edge2_Node000001_Node000003" class="edge">
<title>Node1&#45;&gt;Node3</title>
<g id="a_edge2_Node000001_Node000003"><a xlink:title=" ">
<path fill="none" stroke="#63b8ff" d="M156.33,-167.63C165.97,-157.84 175.96,-145.43 181.38,-132 187.13,-117.72 187.61,-100.22 186.8,-86.98"/>
<polygon fill="#63b8ff" stroke="#63b8ff" points="190.21,-86.87 185.8,-77.23 183.24,-87.51 190.21,-86.87"/>
</a>
</g>
</g>
<!-- Node4 -->
<g id="Node000004" class="node">
<title>Node4</title>
<g id="a_Node000004"><a xlink:title=" ">
<polygon fill="#e0e0e0" stroke="#999999" points="152.5,-20 104.25,-20 104.25,0 152.5,0 152.5,-20"/>
<text text-anchor="middle" x="128.38" y="-6.5" font-family="Helvetica,sans-Serif" font-size="10.00">stdint.h</text>
</a>
</g>
</g>
<!-- Node1&#45;&gt;Node4 -->
<g id="edge3_Node000001_Node000004" class="edge">
<title>Node1&#45;&gt;Node4</title>
<g id="a_edge3_Node000001_Node000004"><a xlink:title=" ">
<path fill="none" stroke="#63b8ff" d="M163.55,-167.65C198.6,-141.63 246.55,-96.15 221.38,-56 208.64,-35.68 183.84,-24.31 163.05,-18.09"/>
<polygon fill="#63b8ff" stroke="#63b8ff" points="164.2,-14.5 153.63,-15.28 162.38,-21.26 164.2,-14.5"/>
</a>
</g>
</g>
<!-- Node5 -->
<g id="Node000005" class="node">
<title>Node5</title>
<g id="a_Node000005"><a xlink:href="a00071.html" target="_top" xlink:title="This is the generated driver types header file for the CAN driver using CCL.">
<polygon fill="white" stroke="#666666" points="100,-76 30.75,-76 30.75,-56 100,-56 100,-76"/>
<text text-anchor="middle" x="65.38" y="-62.5" font-family="Helvetica,sans-Serif" font-size="10.00">can_types.h</text>
</a>
</g>
</g>
<!-- Node1&#45;&gt;Node5 -->
<g id="edge4_Node000001_Node000005" class="edge">
<title>Node1&#45;&gt;Node5</title>
<g id="a_edge4_Node000001_Node000005"><a xlink:title=" ">
<path fill="none" stroke="#63b8ff" d="M108.18,-167.59C98.61,-157.62 88.19,-145.07 81.38,-132 74.05,-117.96 69.99,-100.44 67.79,-87.14"/>
<polygon fill="#63b8ff" stroke="#63b8ff" points="71.13,-86.73 66.26,-77.32 64.2,-87.71 71.13,-86.73"/>
</a>
</g>
</g>
<!-- Node6 -->
<g id="Node000006" class="node">
<title>Node6</title>
<g id="a_Node000006"><a xlink:href="a00068_source.html" target="_top" xlink:title=" ">
<polygon fill="white" stroke="#666666" points="172.38,-132 90.38,-132 90.38,-112 172.38,-112 172.38,-132"/>
<text text-anchor="middle" x="131.38" y="-118.5" font-family="Helvetica,sans-Serif" font-size="10.00">can_interface.h</text>
</a>
</g>
</g>
<!-- Node1&#45;&gt;Node6 -->
<g id="edge6_Node000001_Node000006" class="edge">
<title>Node1&#45;&gt;Node6</title>
<g id="a_edge6_Node000001_Node000006"><a xlink:title=" ">
<path fill="none" stroke="#63b8ff" d="M131.38,-167.75C131.38,-159.94 131.38,-151.11 131.38,-143.38"/>
<polygon fill="#63b8ff" stroke="#63b8ff" points="134.88,-143.42 131.38,-133.42 127.88,-143.42 134.88,-143.42"/>
</a>
</g>
</g>
<!-- Node5&#45;&gt;Node4 -->
<g id="edge5_Node000005_Node000004" class="edge">
<title>Node5&#45;&gt;Node4</title>
<g id="a_edge5_Node000005_Node000004"><a xlink:title=" ">
<path fill="none" stroke="#63b8ff" d="M76.35,-55.59C85.47,-47.77 98.67,-36.46 109.48,-27.19"/>
<polygon fill="#63b8ff" stroke="#63b8ff" points="111.21,-29.46 116.53,-20.3 106.66,-24.15 111.21,-29.46"/>
</a>
</g>
</g>
<!-- Node6&#45;&gt;Node3 -->
<g id="edge7_Node000006_Node000003" class="edge">
<title>Node6&#45;&gt;Node3</title>
<g id="a_edge7_Node000006_Node000003"><a xlink:title=" ">
<path fill="none" stroke="#63b8ff" d="M140.61,-111.59C148.05,-104.01 158.73,-93.13 167.67,-84.02"/>
<polygon fill="#63b8ff" stroke="#63b8ff" points="169.74,-86.89 174.25,-77.3 164.75,-81.98 169.74,-86.89"/>
</a>
</g>
</g>
<!-- Node6&#45;&gt;Node4 -->
<g id="edge8_Node000006_Node000004" class="edge">
<title>Node6&#45;&gt;Node4</title>
<g id="a_edge8_Node000006_Node000004"><a xlink:title=" ">
<path fill="none" stroke="#63b8ff" d="M131.12,-111.62C130.64,-93.92 129.58,-55.24 128.93,-31.32"/>
<polygon fill="#63b8ff" stroke="#63b8ff" points="132.4,-31.26 128.63,-21.35 125.4,-31.45 132.4,-31.26"/>
</a>
</g>
</g>
<!-- Node6&#45;&gt;Node5 -->
<g id="edge9_Node000006_Node000005" class="edge">
<title>Node6&#45;&gt;Node5</title>
<g id="a_edge9_Node000006_Node000005"><a xlink:title=" ">
<path fill="none" stroke="#63b8ff" d="M119.88,-111.59C110.32,-103.77 96.5,-92.46 85.17,-83.19"/>
<polygon fill="#63b8ff" stroke="#63b8ff" points="87.7,-79.92 77.74,-76.3 83.26,-85.34 87.7,-79.92"/>
</a>
</g>
</g>
</g>
</svg>
