<?xml version="1.0" encoding="UTF-8" standalone="no"?>
<!DOCTYPE svg PUBLIC "-//W3C//DTD SVG 1.1//EN"
 "http://www.w3.org/Graphics/SVG/1.1/DTD/svg11.dtd">
<!-- Generated by graphviz version 8.1.0 (20230707.0739)
 -->
<!-- Title: dspic33ck&#45;dab.X/mcc_generated_files/can/can_types.h Pages: 1 -->
<svg width="399pt" height="292pt"
 viewBox="0.00 0.00 399.38 292.00" xmlns="http://www.w3.org/2000/svg" xmlns:xlink="http://www.w3.org/1999/xlink">
<g id="graph0" class="graph" transform="scale(1 1) rotate(0) translate(4 288)">
<title>dspic33ck&#45;dab.X/mcc_generated_files/can/can_types.h</title>
<!-- Node1 -->
<g id="Node000001" class="node">
<title>Node1</title>
<g id="a_Node000001"><a xlink:title="This is the generated driver types header file for the CAN driver using CCL.">
<polygon fill="#999999" stroke="#666666" points="308.38,-284 199.38,-284 199.38,-240 308.38,-240 308.38,-284"/>
<text text-anchor="start" x="207.38" y="-270.5" font-family="Helvetica,sans-Serif" font-size="10.00">dspic33ck&#45;dab.X/mcc</text>
<text text-anchor="start" x="207.38" y="-258.5" font-family="Helvetica,sans-Serif" font-size="10.00">_generated_files/can</text>
<text text-anchor="middle" x="253.88" y="-246.5" font-family="Helvetica,sans-Serif" font-size="10.00">/can_types.h</text>
</a>
</g>
</g>
<!-- Node2 -->
<g id="Node000002" class="node">
<title>Node2</title>
<g id="a_Node000002"><a xlink:href="a00083.html" target="_top" xlink:title="This is the generated driver header file for the CAN1 driver using CCL.">
<polygon fill="white" stroke="#666666" points="256.38,-124 147.38,-124 147.38,-80 256.38,-80 256.38,-124"/>
<text text-anchor="start" x="155.38" y="-110.5" font-family="Helvetica,sans-Serif" font-size="10.00">dspic33ck&#45;dab.X/mcc</text>
<text text-anchor="start" x="155.38" y="-98.5" font-family="Helvetica,sans-Serif" font-size="10.00">_generated_files/can</text>
<text text-anchor="middle" x="201.88" y="-86.5" font-family="Helvetica,sans-Serif" font-size="10.00">/can1.h</text>
</a>
</g>
</g>
<!-- Node1&#45;&gt;Node2 -->
<g id="edge1_Node000001_Node000002" class="edge">
<title>Node1&#45;&gt;Node2</title>
<g id="a_edge1_Node000001_Node000002"><a xlink:title=" ">
<path fill="none" stroke="#63b8ff" d="M211.5,-232.51C202.75,-224.41 194.72,-214.81 189.88,-204 178.39,-178.38 185.8,-145.62 193.06,-124.48"/>
<polygon fill="#63b8ff" stroke="#63b8ff" points="208.81,-235.66 218.68,-239.51 213.36,-230.35 208.81,-235.66"/>
</a>
</g>
</g>
<!-- Node3 -->
<g id="Node000003" class="node">
<title>Node3</title>
<g id="a_Node000003"><a xlink:href="a00095.html" target="_top" xlink:title="This is the generated driver source file for CAN1 driver using CCL.">
<polygon fill="white" stroke="#666666" points="391.38,-44 282.38,-44 282.38,0 391.38,0 391.38,-44"/>
<text text-anchor="start" x="290.38" y="-30.5" font-family="Helvetica,sans-Serif" font-size="10.00">dspic33ck&#45;dab.X/mcc</text>
<text text-anchor="start" x="290.38" y="-18.5" font-family="Helvetica,sans-Serif" font-size="10.00">_generated_files/can</text>
<text text-anchor="middle" x="336.88" y="-6.5" font-family="Helvetica,sans-Serif" font-size="10.00">/src/can1.c</text>
</a>
</g>
</g>
<!-- Node1&#45;&gt;Node3 -->
<g id="edge7_Node000001_Node000003" class="edge">
<title>Node1&#45;&gt;Node3</title>
<g id="a_edge7_Node000001_Node000003"><a xlink:title=" ">
<path fill="none" stroke="#63b8ff" d="M294.95,-232.59C303.92,-224.41 312.36,-214.74 317.88,-204 344.69,-151.71 342.57,-79.85 339.41,-44.47"/>
<polygon fill="#63b8ff" stroke="#63b8ff" points="292.97,-230.53 287.63,-239.68 297.51,-235.85 292.97,-230.53"/>
</a>
</g>
</g>
<!-- Node6 -->
<g id="Node000006" class="node">
<title>Node6</title>
<g id="a_Node000006"><a xlink:href="a00089_source.html" target="_top" xlink:title=" ">
<polygon fill="white" stroke="#666666" points="308.38,-204 199.38,-204 199.38,-160 308.38,-160 308.38,-204"/>
<text text-anchor="start" x="207.38" y="-190.5" font-family="Helvetica,sans-Serif" font-size="10.00">dspic33ck&#45;dab.X/mcc</text>
<text text-anchor="start" x="207.38" y="-178.5" font-family="Helvetica,sans-Serif" font-size="10.00">_generated_files/can</text>
<text text-anchor="middle" x="253.88" y="-166.5" font-family="Helvetica,sans-Serif" font-size="10.00">/can_interface.h</text>
</a>
</g>
</g>
<!-- Node1&#45;&gt;Node6 -->
<g id="edge5_Node000001_Node000006" class="edge">
<title>Node1&#45;&gt;Node6</title>
<g id="a_edge5_Node000001_Node000006"><a xlink:title=" ">
<path fill="none" stroke="#63b8ff" d="M253.88,-228.82C253.88,-220.54 253.88,-211.85 253.88,-204.29"/>
<polygon fill="#63b8ff" stroke="#63b8ff" points="250.38,-228.69 253.88,-238.69 257.38,-228.69 250.38,-228.69"/>
</a>
</g>
</g>
<!-- Node2&#45;&gt;Node3 -->
<g id="edge2_Node000002_Node000003" class="edge">
<title>Node2&#45;&gt;Node3</title>
<g id="a_edge2_Node000002_Node000003"><a xlink:title=" ">
<path fill="none" stroke="#63b8ff" d="M247.96,-74.37C264.95,-64.55 283.96,-53.57 300.03,-44.29"/>
<polygon fill="#63b8ff" stroke="#63b8ff" points="246.67,-71.65 239.76,-79.69 250.17,-77.71 246.67,-71.65"/>
</a>
</g>
</g>
<!-- Node4 -->
<g id="Node000004" class="node">
<title>Node4</title>
<g id="a_Node000004"><a xlink:href="a00209.html" target="_top" xlink:title="This is the generated driver header file for the System driver.">
<polygon fill="white" stroke="#666666" points="121.75,-44 0,-44 0,0 121.75,0 121.75,-44"/>
<text text-anchor="start" x="8" y="-30.5" font-family="Helvetica,sans-Serif" font-size="10.00">dspic33ck&#45;dab.X/mcc</text>
<text text-anchor="start" x="8" y="-18.5" font-family="Helvetica,sans-Serif" font-size="10.00">_generated_files/system</text>
<text text-anchor="middle" x="60.88" y="-6.5" font-family="Helvetica,sans-Serif" font-size="10.00">/src/system.c</text>
</a>
</g>
</g>
<!-- Node2&#45;&gt;Node4 -->
<g id="edge3_Node000002_Node000004" class="edge">
<title>Node2&#45;&gt;Node4</title>
<g id="a_edge3_Node000002_Node000004"><a xlink:title=" ">
<path fill="none" stroke="#63b8ff" d="M153.74,-74.37C135.99,-64.55 116.14,-53.57 99.36,-44.29"/>
<polygon fill="#63b8ff" stroke="#63b8ff" points="151.9,-77.91 162.35,-79.69 155.29,-71.78 151.9,-77.91"/>
</a>
</g>
</g>
<!-- Node5 -->
<g id="Node000005" class="node">
<title>Node5</title>
<g id="a_Node000005"><a xlink:href="a00254_source.html" target="_top" xlink:title=" ">
<polygon fill="white" stroke="#666666" points="264.25,-38 139.5,-38 139.5,-6 264.25,-6 264.25,-38"/>
<text text-anchor="start" x="147.5" y="-24.5" font-family="Helvetica,sans-Serif" font-size="10.00">dspic33ck&#45;dab.X/sources</text>
<text text-anchor="middle" x="201.88" y="-12.5" font-family="Helvetica,sans-Serif" font-size="10.00">/comm/PBV_CAN.c</text>
</a>
</g>
</g>
<!-- Node2&#45;&gt;Node5 -->
<g id="edge4_Node000002_Node000005" class="edge">
<title>Node2&#45;&gt;Node5</title>
<g id="a_edge4_Node000002_Node000005"><a xlink:title=" ">
<path fill="none" stroke="#63b8ff" d="M201.88,-68.96C201.88,-58.28 201.88,-46.88 201.88,-38.11"/>
<polygon fill="#63b8ff" stroke="#63b8ff" points="198.38,-68.69 201.88,-78.69 205.38,-68.69 198.38,-68.69"/>
</a>
</g>
</g>
<!-- Node6&#45;&gt;Node2 -->
<g id="edge6_Node000006_Node000002" class="edge">
<title>Node6&#45;&gt;Node2</title>
<g id="a_edge6_Node000006_Node000002"><a xlink:title=" ">
<path fill="none" stroke="#63b8ff" d="M233.73,-150.78C227.83,-141.93 221.51,-132.45 216.07,-124.29"/>
<polygon fill="#63b8ff" stroke="#63b8ff" points="231.21,-152.31 239.67,-158.69 237.03,-148.42 231.21,-152.31"/>
</a>
</g>
</g>
</g>
</svg>
