<?xml version="1.0" encoding="UTF-8" standalone="no"?>
<!DOCTYPE svg PUBLIC "-//W3C//DTD SVG 1.1//EN"
 "http://www.w3.org/Graphics/SVG/1.1/DTD/svg11.dtd">
<!-- Generated by graphviz version 8.1.0 (20230707.0739)
 -->
<!-- Title: dab&#45;pwm&#45;configuration.X/dcdt/dab_pspo/dcdt_generated_code/dab_pspo_dcdt.h Pages: 1 -->
<svg width="703pt" height="212pt"
 viewBox="0.00 0.00 703.00 212.00" xmlns="http://www.w3.org/2000/svg" xmlns:xlink="http://www.w3.org/1999/xlink">
<g id="graph0" class="graph" transform="scale(1 1) rotate(0) translate(4 208)">
<title>dab&#45;pwm&#45;configuration.X/dcdt/dab_pspo/dcdt_generated_code/dab_pspo_dcdt.h</title>
<!-- Node1 -->
<g id="Node000001" class="node">
<title>Node1</title>
<g id="a_Node000001"><a xlink:title="Generated by the Microchip Digital Compensator Design Tool (DCDT), contains system summaries and digi...">
<polygon fill="#999999" stroke="#666666" points="414.75,-204 262.25,-204 262.25,-160 414.75,-160 414.75,-204"/>
<text text-anchor="start" x="270.25" y="-190.5" font-family="Helvetica,sans-Serif" font-size="10.00">dab&#45;pwm&#45;configuration.X</text>
<text text-anchor="start" x="270.25" y="-178.5" font-family="Helvetica,sans-Serif" font-size="10.00">/dcdt/dab_pspo/dcdt_generated</text>
<text text-anchor="middle" x="338.5" y="-166.5" font-family="Helvetica,sans-Serif" font-size="10.00">_code/dab_pspo_dcdt.h</text>
</a>
</g>
</g>
<!-- Node2 -->
<g id="Node000002" class="node">
<title>Node2</title>
<g id="a_Node000002"><a xlink:href="a00344.html" target="_top" xlink:title="Contains public functions and data types relevant for DCDT file interface.">
<polygon fill="white" stroke="#666666" points="399,-124 278,-124 278,-80 399,-80 399,-124"/>
<text text-anchor="start" x="286" y="-110.5" font-family="Helvetica,sans-Serif" font-size="10.00">dab&#45;pwm&#45;configuration.X</text>
<text text-anchor="start" x="286" y="-98.5" font-family="Helvetica,sans-Serif" font-size="10.00">/sources/device/pwrctrl</text>
<text text-anchor="middle" x="338.5" y="-86.5" font-family="Helvetica,sans-Serif" font-size="10.00">/dcdt/dev_pwrctrl_dcdt.h</text>
</a>
</g>
</g>
<!-- Node1&#45;&gt;Node2 -->
<g id="edge1_Node000001_Node000002" class="edge">
<title>Node1&#45;&gt;Node2</title>
<g id="a_edge1_Node000001_Node000002"><a xlink:title=" ">
<path fill="none" stroke="#63b8ff" d="M338.5,-148.82C338.5,-140.54 338.5,-131.85 338.5,-124.29"/>
<polygon fill="#63b8ff" stroke="#63b8ff" points="335,-148.69 338.5,-158.69 342,-148.69 335,-148.69"/>
</a>
</g>
</g>
<!-- Node3 -->
<g id="Node000003" class="node">
<title>Node3</title>
<g id="a_Node000003"><a xlink:href="a00341.html" target="_top" xlink:title="Contains individual DCDT control loop initialization functions.">
<polygon fill="white" stroke="#666666" points="121,-44 0,-44 0,0 121,0 121,-44"/>
<text text-anchor="start" x="8" y="-30.5" font-family="Helvetica,sans-Serif" font-size="10.00">dab&#45;pwm&#45;configuration.X</text>
<text text-anchor="start" x="8" y="-18.5" font-family="Helvetica,sans-Serif" font-size="10.00">/sources/device/pwrctrl</text>
<text text-anchor="middle" x="60.5" y="-6.5" font-family="Helvetica,sans-Serif" font-size="10.00">/dcdt/dev_pwrctrl_dcdt.c</text>
</a>
</g>
</g>
<!-- Node2&#45;&gt;Node3 -->
<g id="edge2_Node000002_Node000003" class="edge">
<title>Node2&#45;&gt;Node3</title>
<g id="a_edge2_Node000002_Node000003"><a xlink:title=" ">
<path fill="none" stroke="#63b8ff" d="M266.99,-82.05C226.55,-71.2 175.11,-57.16 129.5,-44 126.85,-43.24 124.15,-42.45 121.42,-41.65"/>
<polygon fill="#63b8ff" stroke="#63b8ff" points="265.99,-85.67 276.55,-84.88 267.8,-78.91 265.99,-85.67"/>
</a>
</g>
</g>
<!-- Node4 -->
<g id="Node000004" class="node">
<title>Node4</title>
<g id="a_Node000004"><a xlink:href="a00359.html" target="_top" xlink:title="Contains power control initialization including control loop initialization and start&#45;up initializati...">
<polygon fill="white" stroke="#666666" points="260,-44 139,-44 139,0 260,0 260,-44"/>
<text text-anchor="start" x="147" y="-30.5" font-family="Helvetica,sans-Serif" font-size="10.00">dab&#45;pwm&#45;configuration.X</text>
<text text-anchor="start" x="147" y="-18.5" font-family="Helvetica,sans-Serif" font-size="10.00">/sources/device/pwrctrl</text>
<text text-anchor="middle" x="199.5" y="-6.5" font-family="Helvetica,sans-Serif" font-size="10.00">/dev_pwrctrl.c</text>
</a>
</g>
</g>
<!-- Node2&#45;&gt;Node4 -->
<g id="edge3_Node000002_Node000004" class="edge">
<title>Node2&#45;&gt;Node4</title>
<g id="a_edge3_Node000002_Node000004"><a xlink:title=" ">
<path fill="none" stroke="#63b8ff" d="M291.05,-74.37C273.55,-64.55 253.98,-53.57 237.44,-44.29"/>
<polygon fill="#63b8ff" stroke="#63b8ff" points="289.08,-77.84 299.52,-79.69 292.51,-71.74 289.08,-77.84"/>
</a>
</g>
</g>
<!-- Node5 -->
<g id="Node000005" class="node">
<title>Node5</title>
<g id="a_Node000005"><a xlink:href="a00371.html" target="_top" xlink:title="Contains Control loop interrupt Callback that acquires the ADC raw data and process it in the control...">
<polygon fill="white" stroke="#666666" points="399,-44 278,-44 278,0 399,0 399,-44"/>
<text text-anchor="start" x="286" y="-30.5" font-family="Helvetica,sans-Serif" font-size="10.00">dab&#45;pwm&#45;configuration.X</text>
<text text-anchor="start" x="286" y="-18.5" font-family="Helvetica,sans-Serif" font-size="10.00">/sources/device/pwrctrl</text>
<text text-anchor="middle" x="338.5" y="-6.5" font-family="Helvetica,sans-Serif" font-size="10.00">/dev_pwrctrl_isr.c</text>
</a>
</g>
</g>
<!-- Node2&#45;&gt;Node5 -->
<g id="edge4_Node000002_Node000005" class="edge">
<title>Node2&#45;&gt;Node5</title>
<g id="a_edge4_Node000002_Node000005"><a xlink:title=" ">
<path fill="none" stroke="#63b8ff" d="M338.5,-68.82C338.5,-60.54 338.5,-51.85 338.5,-44.29"/>
<polygon fill="#63b8ff" stroke="#63b8ff" points="335,-68.69 338.5,-78.69 342,-68.69 335,-68.69"/>
</a>
</g>
</g>
<!-- Node6 -->
<g id="Node000006" class="node">
<title>Node6</title>
<g id="a_Node000006"><a xlink:href="a00377.html" target="_top" xlink:title="Contains some of the functions used in the interrupt service routine of control loop.">
<polygon fill="white" stroke="#666666" points="555.62,-44 417.38,-44 417.38,0 555.62,0 555.62,-44"/>
<text text-anchor="start" x="425.38" y="-30.5" font-family="Helvetica,sans-Serif" font-size="10.00">dab&#45;pwm&#45;configuration.X</text>
<text text-anchor="start" x="425.38" y="-18.5" font-family="Helvetica,sans-Serif" font-size="10.00">/sources/device/pwrctrl</text>
<text text-anchor="middle" x="486.5" y="-6.5" font-family="Helvetica,sans-Serif" font-size="10.00">/dev_pwrctrl_isr_extension.c</text>
</a>
</g>
</g>
<!-- Node2&#45;&gt;Node6 -->
<g id="edge5_Node000002_Node000006" class="edge">
<title>Node2&#45;&gt;Node6</title>
<g id="a_edge5_Node000002_Node000006"><a xlink:title=" ">
<path fill="none" stroke="#63b8ff" d="M388.47,-74.66C407.15,-64.82 428.11,-53.77 445.85,-44.42"/>
<polygon fill="#63b8ff" stroke="#63b8ff" points="387.16,-71.93 379.94,-79.69 390.42,-78.12 387.16,-71.93"/>
</a>
</g>
</g>
<!-- Node7 -->
<g id="Node000007" class="node">
<title>Node7</title>
<g id="a_Node000007"><a xlink:href="a00386.html" target="_top" xlink:title="Contains power control state machine functions that is executed every 100us.">
<polygon fill="white" stroke="#666666" points="695,-44 574,-44 574,0 695,0 695,-44"/>
<text text-anchor="start" x="582" y="-30.5" font-family="Helvetica,sans-Serif" font-size="10.00">dab&#45;pwm&#45;configuration.X</text>
<text text-anchor="start" x="582" y="-18.5" font-family="Helvetica,sans-Serif" font-size="10.00">/sources/device/pwrctrl</text>
<text text-anchor="middle" x="634.5" y="-6.5" font-family="Helvetica,sans-Serif" font-size="10.00">/dev_pwrctrl_sm.c</text>
</a>
</g>
</g>
<!-- Node2&#45;&gt;Node7 -->
<g id="edge6_Node000002_Node000007" class="edge">
<title>Node2&#45;&gt;Node7</title>
<g id="a_edge6_Node000002_Node000007"><a xlink:title=" ">
<path fill="none" stroke="#63b8ff" d="M409.57,-83.93C454.19,-73.01 512.86,-58.25 564.5,-44 567.56,-43.16 570.69,-42.28 573.84,-41.38"/>
<polygon fill="#63b8ff" stroke="#63b8ff" points="409.01,-80.71 400.12,-86.48 410.67,-87.51 409.01,-80.71"/>
</a>
</g>
</g>
</g>
</svg>
