<?xml version="1.0" encoding="UTF-8" standalone="no"?>
<!DOCTYPE svg PUBLIC "-//W3C//DTD SVG 1.1//EN"
 "http://www.w3.org/Graphics/SVG/1.1/DTD/svg11.dtd">
<!-- Generated by graphviz version 8.1.0 (20230707.0739)
 -->
<!-- Title: dab&#45;pwm&#45;configuration.X/mcc_generated_files/adc/adc_types.h Pages: 1 -->
<svg width="1124pt" height="372pt"
 viewBox="0.00 0.00 1123.88 372.00" xmlns="http://www.w3.org/2000/svg" xmlns:xlink="http://www.w3.org/1999/xlink">
<g id="graph0" class="graph" transform="scale(1 1) rotate(0) translate(4 368)">
<title>dab&#45;pwm&#45;configuration.X/mcc_generated_files/adc/adc_types.h</title>
<!-- Node1 -->
<g id="Node000001" class="node">
<title>Node1</title>
<g id="a_Node000001"><a xlink:title="This is the generated driver types header file for the ADC driver.">
<polygon fill="#999999" stroke="#666666" points="916.25,-364 789.25,-364 789.25,-320 916.25,-320 916.25,-364"/>
<text text-anchor="start" x="797.25" y="-350.5" font-family="Helvetica,sans-Serif" font-size="10.00">dab&#45;pwm&#45;configuration.X</text>
<text text-anchor="start" x="797.25" y="-338.5" font-family="Helvetica,sans-Serif" font-size="10.00">/mcc_generated_files/adc</text>
<text text-anchor="middle" x="852.75" y="-326.5" font-family="Helvetica,sans-Serif" font-size="10.00">/adc_types.h</text>
</a>
</g>
</g>
<!-- Node2 -->
<g id="Node000002" class="node">
<title>Node2</title>
<g id="a_Node000002"><a xlink:href="a00050.html" target="_top" xlink:title="This is the generated driver header file for the ADC1 driver.">
<polygon fill="white" stroke="#666666" points="778.25,-204 651.25,-204 651.25,-160 778.25,-160 778.25,-204"/>
<text text-anchor="start" x="659.25" y="-190.5" font-family="Helvetica,sans-Serif" font-size="10.00">dab&#45;pwm&#45;configuration.X</text>
<text text-anchor="start" x="659.25" y="-178.5" font-family="Helvetica,sans-Serif" font-size="10.00">/mcc_generated_files/adc</text>
<text text-anchor="middle" x="714.75" y="-166.5" font-family="Helvetica,sans-Serif" font-size="10.00">/adc1.h</text>
</a>
</g>
</g>
<!-- Node1&#45;&gt;Node2 -->
<g id="edge1_Node000001_Node000002" class="edge">
<title>Node1&#45;&gt;Node2</title>
<g id="a_edge1_Node000001_Node000002"><a xlink:title=" ">
<path fill="none" stroke="#63b8ff" d="M779.36,-318.91C762.13,-310.52 745.41,-299.17 733.75,-284 716.03,-260.94 713.17,-226.3 713.44,-204.17"/>
<polygon fill="#63b8ff" stroke="#63b8ff" points="777.41,-322.32 787.96,-323.27 780.31,-315.95 777.41,-322.32"/>
</a>
</g>
</g>
<!-- Node12 -->
<g id="Node000012" class="node">
<title>Node12</title>
<g id="a_Node000012"><a xlink:href="a00371.html" target="_top" xlink:title="Contains Control loop interrupt Callback that acquires the ADC raw data and process it in the control...">
<polygon fill="white" stroke="#666666" points="959.25,-124 838.25,-124 838.25,-80 959.25,-80 959.25,-124"/>
<text text-anchor="start" x="846.25" y="-110.5" font-family="Helvetica,sans-Serif" font-size="10.00">dab&#45;pwm&#45;configuration.X</text>
<text text-anchor="start" x="846.25" y="-98.5" font-family="Helvetica,sans-Serif" font-size="10.00">/sources/device/pwrctrl</text>
<text text-anchor="middle" x="898.75" y="-86.5" font-family="Helvetica,sans-Serif" font-size="10.00">/dev_pwrctrl_isr.c</text>
</a>
</g>
</g>
<!-- Node1&#45;&gt;Node12 -->
<g id="edge17_Node000001_Node000012" class="edge">
<title>Node1&#45;&gt;Node12</title>
<g id="a_edge17_Node000001_Node000012"><a xlink:title=" ">
<path fill="none" stroke="#63b8ff" d="M869.14,-309.79C872.84,-301.59 876.37,-292.63 878.75,-284 894.25,-227.77 897.8,-158.58 898.57,-124.31"/>
<polygon fill="#63b8ff" stroke="#63b8ff" points="865.56,-308.15 864.43,-318.69 871.89,-311.16 865.56,-308.15"/>
</a>
</g>
</g>
<!-- Node13 -->
<g id="Node000013" class="node">
<title>Node13</title>
<g id="a_Node000013"><a xlink:href="a00377.html" target="_top" xlink:title="Contains some of the functions used in the interrupt service routine of control loop.">
<polygon fill="white" stroke="#666666" points="1115.88,-124 977.62,-124 977.62,-80 1115.88,-80 1115.88,-124"/>
<text text-anchor="start" x="985.62" y="-110.5" font-family="Helvetica,sans-Serif" font-size="10.00">dab&#45;pwm&#45;configuration.X</text>
<text text-anchor="start" x="985.62" y="-98.5" font-family="Helvetica,sans-Serif" font-size="10.00">/sources/device/pwrctrl</text>
<text text-anchor="middle" x="1046.75" y="-86.5" font-family="Helvetica,sans-Serif" font-size="10.00">/dev_pwrctrl_isr_extension.c</text>
</a>
</g>
</g>
<!-- Node1&#45;&gt;Node13 -->
<g id="edge18_Node000001_Node000013" class="edge">
<title>Node1&#45;&gt;Node13</title>
<g id="a_edge18_Node000001_Node000013"><a xlink:title=" ">
<path fill="none" stroke="#63b8ff" d="M876.91,-311.37C916.56,-262.72 994.52,-167.07 1029.29,-124.42"/>
<polygon fill="#63b8ff" stroke="#63b8ff" points="873.57,-308.92 869.97,-318.88 879,-313.34 873.57,-308.92"/>
</a>
</g>
</g>
<!-- Node16 -->
<g id="Node000016" class="node">
<title>Node16</title>
<g id="a_Node000016"><a xlink:href="a00056_source.html" target="_top" xlink:title=" ">
<polygon fill="white" stroke="#666666" points="870.25,-284 743.25,-284 743.25,-240 870.25,-240 870.25,-284"/>
<text text-anchor="start" x="751.25" y="-270.5" font-family="Helvetica,sans-Serif" font-size="10.00">dab&#45;pwm&#45;configuration.X</text>
<text text-anchor="start" x="751.25" y="-258.5" font-family="Helvetica,sans-Serif" font-size="10.00">/mcc_generated_files/adc</text>
<text text-anchor="middle" x="806.75" y="-246.5" font-family="Helvetica,sans-Serif" font-size="10.00">/adc_interface.h</text>
</a>
</g>
</g>
<!-- Node1&#45;&gt;Node16 -->
<g id="edge15_Node000001_Node000016" class="edge">
<title>Node1&#45;&gt;Node16</title>
<g id="a_edge15_Node000001_Node000016"><a xlink:title=" ">
<path fill="none" stroke="#63b8ff" d="M834.6,-310.22C829.48,-301.54 824.02,-292.28 819.3,-284.29"/>
<polygon fill="#63b8ff" stroke="#63b8ff" points="832.09,-311.85 840.18,-318.69 838.12,-308.29 832.09,-311.85"/>
</a>
</g>
</g>
<!-- Node3 -->
<g id="Node000003" class="node">
<title>Node3</title>
<g id="a_Node000003"><a xlink:href="a00062.html" target="_top" xlink:title="This is the generated driver source file for ADC1 driver.">
<polygon fill="white" stroke="#666666" points="820.25,-124 693.25,-124 693.25,-80 820.25,-80 820.25,-124"/>
<text text-anchor="start" x="701.25" y="-110.5" font-family="Helvetica,sans-Serif" font-size="10.00">dab&#45;pwm&#45;configuration.X</text>
<text text-anchor="start" x="701.25" y="-98.5" font-family="Helvetica,sans-Serif" font-size="10.00">/mcc_generated_files/adc</text>
<text text-anchor="middle" x="756.75" y="-86.5" font-family="Helvetica,sans-Serif" font-size="10.00">/src/adc1.c</text>
</a>
</g>
</g>
<!-- Node2&#45;&gt;Node3 -->
<g id="edge2_Node000002_Node000003" class="edge">
<title>Node2&#45;&gt;Node3</title>
<g id="a_edge2_Node000002_Node000003"><a xlink:title=" ">
<path fill="none" stroke="#63b8ff" d="M731.32,-150.22C736,-141.54 740.98,-132.28 745.29,-124.29"/>
<polygon fill="#63b8ff" stroke="#63b8ff" points="727.89,-148.22 726.23,-158.69 734.05,-151.54 727.89,-148.22"/>
</a>
</g>
</g>
<!-- Node4 -->
<g id="Node000004" class="node">
<title>Node4</title>
<g id="a_Node000004"><a xlink:href="a00191.html" target="_top" xlink:title="This is the generated driver header file for the System driver.">
<polygon fill="white" stroke="#666666" points="200.5,-124 57,-124 57,-80 200.5,-80 200.5,-124"/>
<text text-anchor="start" x="65" y="-110.5" font-family="Helvetica,sans-Serif" font-size="10.00">dab&#45;pwm&#45;configuration.X</text>
<text text-anchor="start" x="65" y="-98.5" font-family="Helvetica,sans-Serif" font-size="10.00">/mcc_generated_files/system</text>
<text text-anchor="middle" x="128.75" y="-86.5" font-family="Helvetica,sans-Serif" font-size="10.00">/src/system.c</text>
</a>
</g>
</g>
<!-- Node2&#45;&gt;Node4 -->
<g id="edge3_Node000002_Node000004" class="edge">
<title>Node2&#45;&gt;Node4</title>
<g id="a_edge3_Node000002_Node000004"><a xlink:title=" ">
<path fill="none" stroke="#63b8ff" d="M640.16,-175.89C541.2,-168.36 361.31,-152.06 209.75,-124 206.75,-123.44 203.7,-122.84 200.62,-122.2"/>
<polygon fill="#63b8ff" stroke="#63b8ff" points="639.71,-179.44 649.95,-176.7 640.24,-172.46 639.71,-179.44"/>
</a>
</g>
</g>
<!-- Node5 -->
<g id="Node000005" class="node">
<title>Node5</title>
<g id="a_Node000005"><a xlink:href="a00284.html" target="_top" xlink:title="Contains current sensor initialization and calibration evaluation.">
<polygon fill="white" stroke="#666666" points="354.75,-124 218.75,-124 218.75,-80 354.75,-80 354.75,-124"/>
<text text-anchor="start" x="226.75" y="-110.5" font-family="Helvetica,sans-Serif" font-size="10.00">dab&#45;pwm&#45;configuration.X</text>
<text text-anchor="start" x="226.75" y="-98.5" font-family="Helvetica,sans-Serif" font-size="10.00">/sources/device/dev_current</text>
<text text-anchor="middle" x="286.75" y="-86.5" font-family="Helvetica,sans-Serif" font-size="10.00">_sensor.c</text>
</a>
</g>
</g>
<!-- Node2&#45;&gt;Node5 -->
<g id="edge4_Node000002_Node000005" class="edge">
<title>Node2&#45;&gt;Node5</title>
<g id="a_edge4_Node000002_Node000005"><a xlink:title=" ">
<path fill="none" stroke="#63b8ff" d="M640.29,-171.23C568.95,-161.32 458.44,-144.54 363.75,-124 360.91,-123.38 358.01,-122.73 355.09,-122.04"/>
<polygon fill="#63b8ff" stroke="#63b8ff" points="639.58,-174.8 649.96,-172.7 640.53,-167.87 639.58,-174.8"/>
</a>
</g>
</g>
<!-- Node6 -->
<g id="Node000006" class="node">
<title>Node6</title>
<g id="a_Node000006"><a xlink:href="a00311_source.html" target="_top" xlink:title=" ">
<polygon fill="white" stroke="#666666" points="508.75,-118 372.75,-118 372.75,-86 508.75,-86 508.75,-118"/>
<text text-anchor="start" x="380.75" y="-104.5" font-family="Helvetica,sans-Serif" font-size="10.00">dab&#45;pwm&#45;configuration.X</text>
<text text-anchor="middle" x="440.75" y="-92.5" font-family="Helvetica,sans-Serif" font-size="10.00">/sources/device/dev_temp.h</text>
</a>
</g>
</g>
<!-- Node2&#45;&gt;Node6 -->
<g id="edge5_Node000002_Node000006" class="edge">
<title>Node2&#45;&gt;Node6</title>
<g id="a_edge5_Node000002_Node000006"><a xlink:title=" ">
<path fill="none" stroke="#63b8ff" d="M640.36,-159.82C594.46,-146.76 536.62,-130.29 495.03,-118.45"/>
<polygon fill="#63b8ff" stroke="#63b8ff" points="639.28,-163.44 649.85,-162.81 641.2,-156.71 639.28,-163.44"/>
</a>
</g>
</g>
<!-- Node2&#45;&gt;Node12 -->
<g id="edge11_Node000002_Node000012" class="edge">
<title>Node2&#45;&gt;Node12</title>
<g id="a_edge11_Node000002_Node000012"><a xlink:title=" ">
<path fill="none" stroke="#63b8ff" d="M774.96,-155.47C798.66,-145.43 825.56,-134.03 848.21,-124.42"/>
<polygon fill="#63b8ff" stroke="#63b8ff" points="773.87,-152.56 766.03,-159.69 776.6,-159.01 773.87,-152.56"/>
</a>
</g>
</g>
<!-- Node2&#45;&gt;Node13 -->
<g id="edge12_Node000002_Node000013" class="edge">
<title>Node2&#45;&gt;Node13</title>
<g id="a_edge12_Node000002_Node000013"><a xlink:title=" ">
<path fill="none" stroke="#63b8ff" d="M789.09,-165.03C839.59,-154 907.84,-138.71 967.75,-124 970.92,-123.22 974.16,-122.41 977.43,-121.59"/>
<polygon fill="#63b8ff" stroke="#63b8ff" points="788.62,-161.77 779.59,-167.32 790.11,-168.61 788.62,-161.77"/>
</a>
</g>
</g>
<!-- Node14 -->
<g id="Node000014" class="node">
<title>Node14</title>
<g id="a_Node000014"><a xlink:href="a00398.html" target="_top" xlink:title="Contains ADC initialization that was not supported by MCC generated code.">
<polygon fill="white" stroke="#666666" points="674.75,-124 526.75,-124 526.75,-80 674.75,-80 674.75,-124"/>
<text text-anchor="start" x="534.75" y="-110.5" font-family="Helvetica,sans-Serif" font-size="10.00">dab&#45;pwm&#45;configuration.X</text>
<text text-anchor="start" x="534.75" y="-98.5" font-family="Helvetica,sans-Serif" font-size="10.00">/sources/driver/mcc_extension</text>
<text text-anchor="middle" x="600.75" y="-86.5" font-family="Helvetica,sans-Serif" font-size="10.00">/drv_custom_config_adc.h</text>
</a>
</g>
</g>
<!-- Node2&#45;&gt;Node14 -->
<g id="edge13_Node000002_Node000014" class="edge">
<title>Node2&#45;&gt;Node14</title>
<g id="a_edge13_Node000002_Node000014"><a xlink:title=" ">
<path fill="none" stroke="#63b8ff" d="M674.63,-153.55C660.59,-143.95 645.05,-133.31 631.86,-124.29"/>
<polygon fill="#63b8ff" stroke="#63b8ff" points="672.37,-156.93 682.6,-159.69 676.32,-151.15 672.37,-156.93"/>
</a>
</g>
</g>
<!-- Node7 -->
<g id="Node000007" class="node">
<title>Node7</title>
<g id="a_Node000007"><a xlink:href="a00044_source.html" target="_top" xlink:title=" ">
<polygon fill="white" stroke="#666666" points="570.25,-38 449.25,-38 449.25,-6 570.25,-6 570.25,-38"/>
<text text-anchor="start" x="457.25" y="-24.5" font-family="Helvetica,sans-Serif" font-size="10.00">dab&#45;pwm&#45;configuration.X</text>
<text text-anchor="middle" x="509.75" y="-12.5" font-family="Helvetica,sans-Serif" font-size="10.00">/main.c</text>
</a>
</g>
</g>
<!-- Node6&#45;&gt;Node7 -->
<g id="edge6_Node000006_Node000007" class="edge">
<title>Node6&#45;&gt;Node7</title>
<g id="a_edge6_Node000006_Node000007"><a xlink:title=" ">
<path fill="none" stroke="#63b8ff" d="M461.37,-77.69C472.62,-64.97 486.23,-49.59 496.15,-38.38"/>
<polygon fill="#63b8ff" stroke="#63b8ff" points="459.39,-74.78 455.38,-84.59 464.63,-79.42 459.39,-74.78"/>
</a>
</g>
</g>
<!-- Node8 -->
<g id="Node000008" class="node">
<title>Node8</title>
<g id="a_Node000008"><a xlink:href="a00047_source.html" target="_top" xlink:title=" ">
<polygon fill="white" stroke="#666666" points="709.25,-38 588.25,-38 588.25,-6 709.25,-6 709.25,-38"/>
<text text-anchor="start" x="596.25" y="-24.5" font-family="Helvetica,sans-Serif" font-size="10.00">dab&#45;pwm&#45;configuration.X</text>
<text text-anchor="middle" x="648.75" y="-12.5" font-family="Helvetica,sans-Serif" font-size="10.00">/main_tasks.c</text>
</a>
</g>
</g>
<!-- Node6&#45;&gt;Node8 -->
<g id="edge7_Node000006_Node000008" class="edge">
<title>Node6&#45;&gt;Node8</title>
<g id="a_edge7_Node000006_Node000008"><a xlink:title=" ">
<path fill="none" stroke="#63b8ff" d="M492.05,-81.76C527.7,-68.39 574.58,-50.82 607.74,-38.38"/>
<polygon fill="#63b8ff" stroke="#63b8ff" points="490.98,-78.8 482.84,-85.59 493.44,-85.36 490.98,-78.8"/>
</a>
</g>
</g>
<!-- Node9 -->
<g id="Node000009" class="node">
<title>Node9</title>
<g id="a_Node000009"><a xlink:href="a00248_source.html" target="_top" xlink:title=" ">
<polygon fill="white" stroke="#666666" points="137.5,-44 0,-44 0,0 137.5,0 137.5,-44"/>
<text text-anchor="start" x="8" y="-30.5" font-family="Helvetica,sans-Serif" font-size="10.00">dab&#45;pwm&#45;configuration.X</text>
<text text-anchor="start" x="8" y="-18.5" font-family="Helvetica,sans-Serif" font-size="10.00">/sources/app/app_PBV_dab</text>
<text text-anchor="middle" x="68.75" y="-6.5" font-family="Helvetica,sans-Serif" font-size="10.00">_frame_map.c</text>
</a>
</g>
</g>
<!-- Node6&#45;&gt;Node9 -->
<g id="edge8_Node000006_Node000009" class="edge">
<title>Node6&#45;&gt;Node9</title>
<g id="a_edge8_Node000006_Node000009"><a xlink:title=" ">
<path fill="none" stroke="#63b8ff" d="M376.2,-82.88C372,-81.86 367.82,-80.89 363.75,-80 268.25,-59.11 242.29,-64.73 146.75,-44 143.87,-43.38 140.94,-42.71 137.99,-42.02"/>
<polygon fill="#63b8ff" stroke="#63b8ff" points="375.1,-86.47 385.65,-85.5 376.81,-79.68 375.1,-86.47"/>
</a>
</g>
</g>
<!-- Node10 -->
<g id="Node000010" class="node">
<title>Node10</title>
<g id="a_Node000010"><a xlink:href="a00308_source.html" target="_top" xlink:title=" ">
<polygon fill="white" stroke="#666666" points="291.75,-38 155.75,-38 155.75,-6 291.75,-6 291.75,-38"/>
<text text-anchor="start" x="163.75" y="-24.5" font-family="Helvetica,sans-Serif" font-size="10.00">dab&#45;pwm&#45;configuration.X</text>
<text text-anchor="middle" x="223.75" y="-12.5" font-family="Helvetica,sans-Serif" font-size="10.00">/sources/device/dev_temp.c</text>
</a>
</g>
</g>
<!-- Node6&#45;&gt;Node10 -->
<g id="edge9_Node000006_Node000010" class="edge">
<title>Node6&#45;&gt;Node10</title>
<g id="a_edge9_Node000006_Node000010"><a xlink:title=" ">
<path fill="none" stroke="#63b8ff" d="M387.71,-81.93C350.46,-68.55 301.28,-50.87 266.53,-38.38"/>
<polygon fill="#63b8ff" stroke="#63b8ff" points="386.28,-85.5 396.88,-85.59 388.65,-78.91 386.28,-85.5"/>
</a>
</g>
</g>
<!-- Node11 -->
<g id="Node000011" class="node">
<title>Node11</title>
<g id="a_Node000011"><a xlink:href="a00314.html" target="_top" xlink:title="Contains fault functions including the fault handler, fault object initialization and fault execution...">
<polygon fill="white" stroke="#666666" points="431.25,-44 310.25,-44 310.25,0 431.25,0 431.25,-44"/>
<text text-anchor="start" x="318.25" y="-30.5" font-family="Helvetica,sans-Serif" font-size="10.00">dab&#45;pwm&#45;configuration.X</text>
<text text-anchor="start" x="318.25" y="-18.5" font-family="Helvetica,sans-Serif" font-size="10.00">/sources/device/fault</text>
<text text-anchor="middle" x="370.75" y="-6.5" font-family="Helvetica,sans-Serif" font-size="10.00">/dev_fault.c</text>
</a>
</g>
</g>
<!-- Node6&#45;&gt;Node11 -->
<g id="edge10_Node000006_Node000011" class="edge">
<title>Node6&#45;&gt;Node11</title>
<g id="a_edge10_Node000006_Node000011"><a xlink:title=" ">
<path fill="none" stroke="#63b8ff" d="M419.73,-77.57C410.23,-67 399.1,-54.59 389.85,-44.28"/>
<polygon fill="#63b8ff" stroke="#63b8ff" points="416.64,-79.48 425.92,-84.59 421.85,-74.81 416.64,-79.48"/>
</a>
</g>
</g>
<!-- Node15 -->
<g id="Node000015" class="node">
<title>Node15</title>
<g id="a_Node000015"><a xlink:href="a00413_source.html" target="_top" xlink:title=" ">
<polygon fill="white" stroke="#666666" points="875.75,-44 727.75,-44 727.75,0 875.75,0 875.75,-44"/>
<text text-anchor="start" x="735.75" y="-30.5" font-family="Helvetica,sans-Serif" font-size="10.00">dab&#45;pwm&#45;configuration.X</text>
<text text-anchor="start" x="735.75" y="-18.5" font-family="Helvetica,sans-Serif" font-size="10.00">/sources/driver/mcc_extension</text>
<text text-anchor="middle" x="801.75" y="-6.5" font-family="Helvetica,sans-Serif" font-size="10.00">/mcc_custom_config.c</text>
</a>
</g>
</g>
<!-- Node14&#45;&gt;Node15 -->
<g id="edge14_Node000014_Node000015" class="edge">
<title>Node14&#45;&gt;Node15</title>
<g id="a_edge14_Node000014_Node000015"><a xlink:title=" ">
<path fill="none" stroke="#63b8ff" d="M666.1,-75.64C692.13,-65.54 721.77,-54.04 746.68,-44.37"/>
<polygon fill="#63b8ff" stroke="#63b8ff" points="665,-72.7 656.94,-79.58 667.53,-79.23 665,-72.7"/>
</a>
</g>
</g>
<!-- Node16&#45;&gt;Node2 -->
<g id="edge16_Node000016_Node000002" class="edge">
<title>Node16&#45;&gt;Node2</title>
<g id="a_edge16_Node000016_Node000002"><a xlink:title=" ">
<path fill="none" stroke="#63b8ff" d="M773.4,-232.72C762.33,-223.34 750.2,-213.06 739.86,-204.29"/>
<polygon fill="#63b8ff" stroke="#63b8ff" points="770.72,-235.89 780.61,-239.69 775.25,-230.55 770.72,-235.89"/>
</a>
</g>
</g>
</g>
</svg>
