<?xml version="1.0" encoding="UTF-8" standalone="no"?>
<!DOCTYPE svg PUBLIC "-//W3C//DTD SVG 1.1//EN"
 "http://www.w3.org/Graphics/SVG/1.1/DTD/svg11.dtd">
<!-- Generated by graphviz version 8.1.0 (20230707.0739)
 -->
<!-- Title: dspic33ck&#45;dab.X/mcc_generated_files/adc/adc_types.h Pages: 1 -->
<svg width="1018pt" height="440pt"
 viewBox="0.00 0.00 1017.62 440.00" xmlns="http://www.w3.org/2000/svg" xmlns:xlink="http://www.w3.org/1999/xlink">
<g id="graph0" class="graph" transform="scale(1 1) rotate(0) translate(4 436)">
<title>dspic33ck&#45;dab.X/mcc_generated_files/adc/adc_types.h</title>
<!-- Node1 -->
<g id="Node000001" class="node">
<title>Node1</title>
<g id="a_Node000001"><a xlink:title="This is the generated driver types header file for the ADC driver.">
<polygon fill="#999999" stroke="#666666" points="696,-432 587,-432 587,-388 696,-388 696,-432"/>
<text text-anchor="start" x="595" y="-418.5" font-family="Helvetica,sans-Serif" font-size="10.00">dspic33ck&#45;dab.X/mcc</text>
<text text-anchor="start" x="595" y="-406.5" font-family="Helvetica,sans-Serif" font-size="10.00">_generated_files/adc</text>
<text text-anchor="middle" x="641.5" y="-394.5" font-family="Helvetica,sans-Serif" font-size="10.00">/adc_types.h</text>
</a>
</g>
</g>
<!-- Node2 -->
<g id="Node000002" class="node">
<title>Node2</title>
<g id="a_Node000002"><a xlink:href="a00056.html" target="_top" xlink:title="This is the generated driver header file for the ADC1 driver.">
<polygon fill="white" stroke="#666666" points="613,-272 504,-272 504,-228 613,-228 613,-272"/>
<text text-anchor="start" x="512" y="-258.5" font-family="Helvetica,sans-Serif" font-size="10.00">dspic33ck&#45;dab.X/mcc</text>
<text text-anchor="start" x="512" y="-246.5" font-family="Helvetica,sans-Serif" font-size="10.00">_generated_files/adc</text>
<text text-anchor="middle" x="558.5" y="-234.5" font-family="Helvetica,sans-Serif" font-size="10.00">/adc1.h</text>
</a>
</g>
</g>
<!-- Node1&#45;&gt;Node2 -->
<g id="edge1_Node000001_Node000002" class="edge">
<title>Node1&#45;&gt;Node2</title>
<g id="a_edge1_Node000001_Node000002"><a xlink:title=" ">
<path fill="none" stroke="#63b8ff" d="M601.57,-380.75C592.39,-372.46 583.56,-362.72 577.5,-352 563.45,-327.15 559.54,-293.91 558.58,-272.47"/>
<polygon fill="#63b8ff" stroke="#63b8ff" points="598.78,-383.82 608.66,-387.63 603.31,-378.49 598.78,-383.82"/>
</a>
</g>
</g>
<!-- Node17 -->
<g id="Node000017" class="node">
<title>Node17</title>
<g id="a_Node000017"><a xlink:href="a00455.html" target="_top" xlink:title="Contains some of the functions used in the interrupt service routine of control loop.">
<polygon fill="white" stroke="#666666" points="1009.62,-186 859.38,-186 859.38,-154 1009.62,-154 1009.62,-186"/>
<text text-anchor="start" x="867.38" y="-172.5" font-family="Helvetica,sans-Serif" font-size="10.00">dspic33ck&#45;dab.X/sources</text>
<text text-anchor="middle" x="934.5" y="-160.5" font-family="Helvetica,sans-Serif" font-size="10.00">/pwrctrl/pwrctrl_isr_extension.c</text>
</a>
</g>
</g>
<!-- Node1&#45;&gt;Node17 -->
<g id="edge19_Node000001_Node000017" class="edge">
<title>Node1&#45;&gt;Node17</title>
<g id="a_edge19_Node000001_Node000017"><a xlink:title=" ">
<path fill="none" stroke="#63b8ff" d="M676.09,-380.9C738.37,-330.32 867.36,-225.53 915.68,-186.29"/>
<polygon fill="#63b8ff" stroke="#63b8ff" points="674.31,-378.65 668.76,-387.67 678.73,-384.08 674.31,-378.65"/>
</a>
</g>
</g>
<!-- Node18 -->
<g id="Node000018" class="node">
<title>Node18</title>
<g id="a_Node000018"><a xlink:href="a00062_source.html" target="_top" xlink:title=" ">
<polygon fill="white" stroke="#666666" points="696,-352 587,-352 587,-308 696,-308 696,-352"/>
<text text-anchor="start" x="595" y="-338.5" font-family="Helvetica,sans-Serif" font-size="10.00">dspic33ck&#45;dab.X/mcc</text>
<text text-anchor="start" x="595" y="-326.5" font-family="Helvetica,sans-Serif" font-size="10.00">_generated_files/adc</text>
<text text-anchor="middle" x="641.5" y="-314.5" font-family="Helvetica,sans-Serif" font-size="10.00">/adc_interface.h</text>
</a>
</g>
</g>
<!-- Node1&#45;&gt;Node18 -->
<g id="edge17_Node000001_Node000018" class="edge">
<title>Node1&#45;&gt;Node18</title>
<g id="a_edge17_Node000001_Node000018"><a xlink:title=" ">
<path fill="none" stroke="#63b8ff" d="M641.5,-376.82C641.5,-368.54 641.5,-359.85 641.5,-352.29"/>
<polygon fill="#63b8ff" stroke="#63b8ff" points="638,-376.69 641.5,-386.69 645,-376.69 638,-376.69"/>
</a>
</g>
</g>
<!-- Node3 -->
<g id="Node000003" class="node">
<title>Node3</title>
<g id="a_Node000003"><a xlink:href="a00068.html" target="_top" xlink:title="This is the generated driver source file for ADC1 driver.">
<polygon fill="white" stroke="#666666" points="109,-192 0,-192 0,-148 109,-148 109,-192"/>
<text text-anchor="start" x="8" y="-178.5" font-family="Helvetica,sans-Serif" font-size="10.00">dspic33ck&#45;dab.X/mcc</text>
<text text-anchor="start" x="8" y="-166.5" font-family="Helvetica,sans-Serif" font-size="10.00">_generated_files/adc</text>
<text text-anchor="middle" x="54.5" y="-154.5" font-family="Helvetica,sans-Serif" font-size="10.00">/src/adc1.c</text>
</a>
</g>
</g>
<!-- Node2&#45;&gt;Node3 -->
<g id="edge2_Node000002_Node000003" class="edge">
<title>Node2&#45;&gt;Node3</title>
<g id="a_edge2_Node000002_Node000003"><a xlink:title=" ">
<path fill="none" stroke="#63b8ff" d="M492.85,-244.5C406.08,-237.64 248.84,-222.08 117.5,-192 114.8,-191.38 112.06,-190.7 109.3,-189.96"/>
<polygon fill="#63b8ff" stroke="#63b8ff" points="492.35,-248.04 502.59,-245.33 492.89,-241.07 492.35,-248.04"/>
</a>
</g>
</g>
<!-- Node4 -->
<g id="Node000004" class="node">
<title>Node4</title>
<g id="a_Node000004"><a xlink:href="a00197.html" target="_top" xlink:title="This is the generated driver header file for the System driver.">
<polygon fill="white" stroke="#666666" points="248.38,-192 126.62,-192 126.62,-148 248.38,-148 248.38,-192"/>
<text text-anchor="start" x="134.62" y="-178.5" font-family="Helvetica,sans-Serif" font-size="10.00">dspic33ck&#45;dab.X/mcc</text>
<text text-anchor="start" x="134.62" y="-166.5" font-family="Helvetica,sans-Serif" font-size="10.00">_generated_files/system</text>
<text text-anchor="middle" x="187.5" y="-154.5" font-family="Helvetica,sans-Serif" font-size="10.00">/src/system.c</text>
</a>
</g>
</g>
<!-- Node2&#45;&gt;Node4 -->
<g id="edge3_Node000002_Node000004" class="edge">
<title>Node2&#45;&gt;Node4</title>
<g id="a_edge3_Node000002_Node000004"><a xlink:title=" ">
<path fill="none" stroke="#63b8ff" d="M493.09,-238.64C431.83,-228.46 337.93,-211.62 257.5,-192 254.66,-191.31 251.77,-190.57 248.86,-189.8"/>
<polygon fill="#63b8ff" stroke="#63b8ff" points="492.32,-242.22 502.76,-240.4 493.46,-235.32 492.32,-242.22"/>
</a>
</g>
</g>
<!-- Node5 -->
<g id="Node000005" class="node">
<title>Node5</title>
<g id="a_Node000005"><a xlink:href="a00293.html" target="_top" xlink:title="Contains current sensor initialization and calibration evaluation.">
<polygon fill="white" stroke="#666666" points="408.12,-186 266.88,-186 266.88,-154 408.12,-154 408.12,-186"/>
<text text-anchor="start" x="274.88" y="-172.5" font-family="Helvetica,sans-Serif" font-size="10.00">dspic33ck&#45;dab.X/sources</text>
<text text-anchor="middle" x="337.5" y="-160.5" font-family="Helvetica,sans-Serif" font-size="10.00">/device/dev_current_sensor.c</text>
</a>
</g>
</g>
<!-- Node2&#45;&gt;Node5 -->
<g id="edge4_Node000002_Node000005" class="edge">
<title>Node2&#45;&gt;Node5</title>
<g id="a_edge4_Node000002_Node000005"><a xlink:title=" ">
<path fill="none" stroke="#63b8ff" d="M493.62,-226.1C457.49,-213.35 413.47,-197.81 381.39,-186.49"/>
<polygon fill="#63b8ff" stroke="#63b8ff" points="491.99,-229.59 502.59,-229.62 494.32,-222.99 491.99,-229.59"/>
</a>
</g>
</g>
<!-- Node6 -->
<g id="Node000006" class="node">
<title>Node6</title>
<g id="a_Node000006"><a xlink:href="a00320.html" target="_top" xlink:title="Contains temperature initialization and execution functions.">
<polygon fill="white" stroke="#666666" points="550.88,-186 426.12,-186 426.12,-154 550.88,-154 550.88,-186"/>
<text text-anchor="start" x="434.12" y="-172.5" font-family="Helvetica,sans-Serif" font-size="10.00">dspic33ck&#45;dab.X/sources</text>
<text text-anchor="middle" x="488.5" y="-160.5" font-family="Helvetica,sans-Serif" font-size="10.00">/device/dev_temp.h</text>
</a>
</g>
</g>
<!-- Node2&#45;&gt;Node6 -->
<g id="edge5_Node000002_Node000006" class="edge">
<title>Node2&#45;&gt;Node6</title>
<g id="a_edge5_Node000002_Node000006"><a xlink:title=" ">
<path fill="none" stroke="#63b8ff" d="M532.15,-219.64C521.9,-208.22 510.6,-195.62 502.06,-186.11"/>
<polygon fill="#63b8ff" stroke="#63b8ff" points="529.09,-221.58 538.37,-226.69 534.3,-216.91 529.09,-221.58"/>
</a>
</g>
</g>
<!-- Node14 -->
<g id="Node000014" class="node">
<title>Node14</title>
<g id="a_Node000014"><a xlink:href="a00323.html" target="_top" xlink:title="Contains ADC initialization that was not supported by MCC generated code.">
<polygon fill="white" stroke="#666666" points="697.75,-192 569.25,-192 569.25,-148 697.75,-148 697.75,-192"/>
<text text-anchor="start" x="577.25" y="-178.5" font-family="Helvetica,sans-Serif" font-size="10.00">dspic33ck&#45;dab.X/sources</text>
<text text-anchor="start" x="577.25" y="-166.5" font-family="Helvetica,sans-Serif" font-size="10.00">/driver/mcc_extension</text>
<text text-anchor="middle" x="633.5" y="-154.5" font-family="Helvetica,sans-Serif" font-size="10.00">/drv_custom_config_adc.h</text>
</a>
</g>
</g>
<!-- Node2&#45;&gt;Node14 -->
<g id="edge13_Node000002_Node000014" class="edge">
<title>Node2&#45;&gt;Node14</title>
<g id="a_edge13_Node000002_Node000014"><a xlink:title=" ">
<path fill="none" stroke="#63b8ff" d="M586.49,-219.89C595.29,-210.74 604.85,-200.8 613.03,-192.29"/>
<polygon fill="#63b8ff" stroke="#63b8ff" points="584.4,-217.05 579.99,-226.69 589.45,-221.9 584.4,-217.05"/>
</a>
</g>
</g>
<!-- Node16 -->
<g id="Node000016" class="node">
<title>Node16</title>
<g id="a_Node000016"><a xlink:href="a00449.html" target="_top" xlink:title="Contains Control loop interrupt Callback that acquires the ADC raw data and process it in the control...">
<polygon fill="white" stroke="#666666" points="840.88,-186 716.12,-186 716.12,-154 840.88,-154 840.88,-186"/>
<text text-anchor="start" x="724.12" y="-172.5" font-family="Helvetica,sans-Serif" font-size="10.00">dspic33ck&#45;dab.X/sources</text>
<text text-anchor="middle" x="778.5" y="-160.5" font-family="Helvetica,sans-Serif" font-size="10.00">/pwrctrl/pwrctrl_isr.c</text>
</a>
</g>
</g>
<!-- Node2&#45;&gt;Node16 -->
<g id="edge15_Node000002_Node000016" class="edge">
<title>Node2&#45;&gt;Node16</title>
<g id="a_edge15_Node000002_Node000016"><a xlink:title=" ">
<path fill="none" stroke="#63b8ff" d="M623.37,-226C659.32,-213.25 703.06,-197.75 734.92,-186.45"/>
<polygon fill="#63b8ff" stroke="#63b8ff" points="622.7,-222.88 614.45,-229.52 625.04,-229.48 622.7,-222.88"/>
</a>
</g>
</g>
<!-- Node2&#45;&gt;Node17 -->
<g id="edge16_Node000002_Node000017" class="edge">
<title>Node2&#45;&gt;Node17</title>
<g id="a_edge16_Node000002_Node000017"><a xlink:title=" ">
<path fill="none" stroke="#63b8ff" d="M624.05,-237.11C683.15,-226.16 772.37,-209.07 849.5,-192 857.22,-190.29 865.31,-188.41 873.3,-186.5"/>
<polygon fill="#63b8ff" stroke="#63b8ff" points="623.57,-233.82 614.37,-239.08 624.84,-240.7 623.57,-233.82"/>
</a>
</g>
</g>
<!-- Node7 -->
<g id="Node000007" class="node">
<title>Node7</title>
<g id="a_Node000007"><a xlink:href="a00053_source.html" target="_top" xlink:title=" ">
<polygon fill="white" stroke="#666666" points="337.12,-106 225.88,-106 225.88,-74 337.12,-74 337.12,-106"/>
<text text-anchor="start" x="233.88" y="-92.5" font-family="Helvetica,sans-Serif" font-size="10.00">dspic33ck&#45;dab.X/main</text>
<text text-anchor="middle" x="281.5" y="-80.5" font-family="Helvetica,sans-Serif" font-size="10.00">_tasks.c</text>
</a>
</g>
</g>
<!-- Node6&#45;&gt;Node7 -->
<g id="edge6_Node000006_Node000007" class="edge">
<title>Node6&#45;&gt;Node7</title>
<g id="a_edge6_Node000006_Node000007"><a xlink:title=" ">
<path fill="none" stroke="#63b8ff" d="M437.45,-149.76C401.97,-136.39 355.32,-118.82 322.31,-106.38"/>
<polygon fill="#63b8ff" stroke="#63b8ff" points="436.01,-153.34 446.6,-153.59 438.48,-146.79 436.01,-153.34"/>
</a>
</g>
</g>
<!-- Node8 -->
<g id="Node000008" class="node">
<title>Node8</title>
<g id="a_Node000008"><a xlink:href="a00317_source.html" target="_top" xlink:title=" ">
<polygon fill="white" stroke="#666666" points="479.88,-106 355.12,-106 355.12,-74 479.88,-74 479.88,-106"/>
<text text-anchor="start" x="363.12" y="-92.5" font-family="Helvetica,sans-Serif" font-size="10.00">dspic33ck&#45;dab.X/sources</text>
<text text-anchor="middle" x="417.5" y="-80.5" font-family="Helvetica,sans-Serif" font-size="10.00">/device/dev_temp.c</text>
</a>
</g>
</g>
<!-- Node6&#45;&gt;Node8 -->
<g id="edge7_Node000006_Node000008" class="edge">
<title>Node6&#45;&gt;Node8</title>
<g id="a_edge7_Node000006_Node000008"><a xlink:title=" ">
<path fill="none" stroke="#63b8ff" d="M467.28,-145.69C455.71,-132.97 441.7,-117.59 431.5,-106.38"/>
<polygon fill="#63b8ff" stroke="#63b8ff" points="464.15,-147.55 473.47,-152.59 469.33,-142.84 464.15,-147.55"/>
</a>
</g>
</g>
<!-- Node9 -->
<g id="Node000009" class="node">
<title>Node9</title>
<g id="a_Node000009"><a xlink:href="a00290.html" target="_top" xlink:title="Contains h files that are part of device layer.">
<polygon fill="white" stroke="#666666" points="622.88,-106 498.12,-106 498.12,-74 622.88,-74 622.88,-106"/>
<text text-anchor="start" x="506.12" y="-92.5" font-family="Helvetica,sans-Serif" font-size="10.00">dspic33ck&#45;dab.X/sources</text>
<text text-anchor="middle" x="560.5" y="-80.5" font-family="Helvetica,sans-Serif" font-size="10.00">/device/device.h</text>
</a>
</g>
</g>
<!-- Node6&#45;&gt;Node9 -->
<g id="edge8_Node000006_Node000009" class="edge">
<title>Node6&#45;&gt;Node9</title>
<g id="a_edge8_Node000006_Node000009"><a xlink:title=" ">
<path fill="none" stroke="#63b8ff" d="M510.02,-145.69C521.75,-132.97 535.96,-117.59 546.3,-106.38"/>
<polygon fill="#63b8ff" stroke="#63b8ff" points="507.94,-142.87 503.72,-152.59 513.08,-147.62 507.94,-142.87"/>
</a>
</g>
</g>
<!-- Node10 -->
<g id="Node000010" class="node">
<title>Node10</title>
<g id="a_Node000010"><a xlink:href="a00050_source.html" target="_top" xlink:title=" ">
<polygon fill="white" stroke="#666666" points="388.25,-26 268.75,-26 268.75,-6 388.25,-6 388.25,-26"/>
<text text-anchor="middle" x="328.5" y="-12.5" font-family="Helvetica,sans-Serif" font-size="10.00">dspic33ck&#45;dab.X/main.c</text>
</a>
</g>
</g>
<!-- Node9&#45;&gt;Node10 -->
<g id="edge9_Node000009_Node000010" class="edge">
<title>Node9&#45;&gt;Node10</title>
<g id="a_edge9_Node000009_Node000010"><a xlink:title=" ">
<path fill="none" stroke="#63b8ff" d="M500.43,-70.36C455.12,-56.3 394.85,-37.59 359.02,-26.47"/>
<polygon fill="#63b8ff" stroke="#63b8ff" points="499.14,-73.93 509.73,-73.55 501.22,-67.25 499.14,-73.93"/>
</a>
</g>
</g>
<!-- Node11 -->
<g id="Node000011" class="node">
<title>Node11</title>
<g id="a_Node000011"><a xlink:href="a00254_source.html" target="_top" xlink:title=" ">
<polygon fill="white" stroke="#666666" points="558.38,-32 406.62,-32 406.62,0 558.38,0 558.38,-32"/>
<text text-anchor="start" x="414.62" y="-18.5" font-family="Helvetica,sans-Serif" font-size="10.00">dspic33ck&#45;dab.X/sources</text>
<text text-anchor="middle" x="482.5" y="-6.5" font-family="Helvetica,sans-Serif" font-size="10.00">/comm/PBV_dab_frame_map.c</text>
</a>
</g>
</g>
<!-- Node9&#45;&gt;Node11 -->
<g id="edge10_Node000009_Node000011" class="edge">
<title>Node9&#45;&gt;Node11</title>
<g id="a_edge10_Node000009_Node000011"><a xlink:title=" ">
<path fill="none" stroke="#63b8ff" d="M536.09,-66.46C524.12,-55.42 510.02,-42.4 499.29,-32.5"/>
<polygon fill="#63b8ff" stroke="#63b8ff" points="533.24,-68.52 542.96,-72.73 537.98,-63.38 533.24,-68.52"/>
</a>
</g>
</g>
<!-- Node12 -->
<g id="Node000012" class="node">
<title>Node12</title>
<g id="a_Node000012"><a xlink:href="a00350.html" target="_top" xlink:title="Contains fault functions including the fault handler, fault object initialization and fault execution...">
<polygon fill="white" stroke="#666666" points="700.88,-32 576.12,-32 576.12,0 700.88,0 700.88,-32"/>
<text text-anchor="start" x="584.12" y="-18.5" font-family="Helvetica,sans-Serif" font-size="10.00">dspic33ck&#45;dab.X/sources</text>
<text text-anchor="middle" x="638.5" y="-6.5" font-family="Helvetica,sans-Serif" font-size="10.00">/fault/fault.c</text>
</a>
</g>
</g>
<!-- Node9&#45;&gt;Node12 -->
<g id="edge11_Node000009_Node000012" class="edge">
<title>Node9&#45;&gt;Node12</title>
<g id="a_edge11_Node000009_Node000012"><a xlink:title=" ">
<path fill="none" stroke="#63b8ff" d="M584.91,-66.46C596.88,-55.42 610.98,-42.4 621.71,-32.5"/>
<polygon fill="#63b8ff" stroke="#63b8ff" points="583.02,-63.38 578.04,-72.73 587.76,-68.52 583.02,-63.38"/>
</a>
</g>
</g>
<!-- Node13 -->
<g id="Node000013" class="node">
<title>Node13</title>
<g id="a_Node000013"><a xlink:href="a00464.html" target="_top" xlink:title="Contains power control state machine functions that is executed every 100us.">
<polygon fill="white" stroke="#666666" points="843.88,-32 719.12,-32 719.12,0 843.88,0 843.88,-32"/>
<text text-anchor="start" x="727.12" y="-18.5" font-family="Helvetica,sans-Serif" font-size="10.00">dspic33ck&#45;dab.X/sources</text>
<text text-anchor="middle" x="781.5" y="-6.5" font-family="Helvetica,sans-Serif" font-size="10.00">/pwrctrl/pwrctrl_sm.c</text>
</a>
</g>
</g>
<!-- Node9&#45;&gt;Node13 -->
<g id="edge12_Node000009_Node000013" class="edge">
<title>Node9&#45;&gt;Node13</title>
<g id="a_edge12_Node000009_Node000013"><a xlink:title=" ">
<path fill="none" stroke="#63b8ff" d="M618.29,-70.17C654.37,-58.42 700.25,-43.47 734.17,-32.42"/>
<polygon fill="#63b8ff" stroke="#63b8ff" points="617.33,-67.13 608.91,-73.55 619.5,-73.78 617.33,-67.13"/>
</a>
</g>
</g>
<!-- Node15 -->
<g id="Node000015" class="node">
<title>Node15</title>
<g id="a_Node000015"><a xlink:href="a00338_source.html" target="_top" xlink:title=" ">
<polygon fill="white" stroke="#666666" points="765.88,-112 641.12,-112 641.12,-68 765.88,-68 765.88,-112"/>
<text text-anchor="start" x="649.12" y="-98.5" font-family="Helvetica,sans-Serif" font-size="10.00">dspic33ck&#45;dab.X/sources</text>
<text text-anchor="start" x="649.12" y="-86.5" font-family="Helvetica,sans-Serif" font-size="10.00">/driver/mcc_extension</text>
<text text-anchor="middle" x="703.5" y="-74.5" font-family="Helvetica,sans-Serif" font-size="10.00">/mcc_custom_config.c</text>
</a>
</g>
</g>
<!-- Node14&#45;&gt;Node15 -->
<g id="edge14_Node000014_Node000015" class="edge">
<title>Node14&#45;&gt;Node15</title>
<g id="a_edge14_Node000014_Node000015"><a xlink:title=" ">
<path fill="none" stroke="#63b8ff" d="M659.87,-139.62C668.02,-130.53 676.84,-120.71 684.4,-112.29"/>
<polygon fill="#63b8ff" stroke="#63b8ff" points="657.7,-136.91 653.63,-146.69 662.91,-141.58 657.7,-136.91"/>
</a>
</g>
</g>
<!-- Node18&#45;&gt;Node2 -->
<g id="edge18_Node000018_Node000002" class="edge">
<title>Node18&#45;&gt;Node2</title>
<g id="a_edge18_Node000018_Node000002"><a xlink:title=" ">
<path fill="none" stroke="#63b8ff" d="M610.82,-300.17C601,-290.94 590.3,-280.88 581.15,-272.29"/>
<polygon fill="#63b8ff" stroke="#63b8ff" points="608.14,-302.39 617.82,-306.69 612.93,-297.29 608.14,-302.39"/>
</a>
</g>
</g>
</g>
</svg>
