<?xml version="1.0" encoding="UTF-8" standalone="no"?>
<!DOCTYPE svg PUBLIC "-//W3C//DTD SVG 1.1//EN"
 "http://www.w3.org/Graphics/SVG/1.1/DTD/svg11.dtd">
<!-- Generated by graphviz version 8.1.0 (20230707.0739)
 -->
<!-- Title: dspic33ck&#45;dab.X/mcc_generated_files/adc/adc1.h Pages: 1 -->
<svg width="1018pt" height="280pt"
 viewBox="0.00 0.00 1017.62 280.00" xmlns="http://www.w3.org/2000/svg" xmlns:xlink="http://www.w3.org/1999/xlink">
<g id="graph0" class="graph" transform="scale(1 1) rotate(0) translate(4 276)">
<title>dspic33ck&#45;dab.X/mcc_generated_files/adc/adc1.h</title>
<!-- Node1 -->
<g id="Node000001" class="node">
<title>Node1</title>
<g id="a_Node000001"><a xlink:title="This is the generated driver header file for the ADC1 driver.">
<polygon fill="#999999" stroke="#666666" points="543,-272 434,-272 434,-228 543,-228 543,-272"/>
<text text-anchor="start" x="442" y="-258.5" font-family="Helvetica,sans-Serif" font-size="10.00">dspic33ck&#45;dab.X/mcc</text>
<text text-anchor="start" x="442" y="-246.5" font-family="Helvetica,sans-Serif" font-size="10.00">_generated_files/adc</text>
<text text-anchor="middle" x="488.5" y="-234.5" font-family="Helvetica,sans-Serif" font-size="10.00">/adc1.h</text>
</a>
</g>
</g>
<!-- Node2 -->
<g id="Node000002" class="node">
<title>Node2</title>
<g id="a_Node000002"><a xlink:href="a00095.html" target="_top" xlink:title="This is the generated driver source file for ADC1 driver.">
<polygon fill="white" stroke="#666666" points="109,-192 0,-192 0,-148 109,-148 109,-192"/>
<text text-anchor="start" x="8" y="-178.5" font-family="Helvetica,sans-Serif" font-size="10.00">dspic33ck&#45;dab.X/mcc</text>
<text text-anchor="start" x="8" y="-166.5" font-family="Helvetica,sans-Serif" font-size="10.00">_generated_files/adc</text>
<text text-anchor="middle" x="54.5" y="-154.5" font-family="Helvetica,sans-Serif" font-size="10.00">/src/adc1.c</text>
</a>
</g>
</g>
<!-- Node1&#45;&gt;Node2 -->
<g id="edge1_Node000001_Node000002" class="edge">
<title>Node1&#45;&gt;Node2</title>
<g id="a_edge1_Node000001_Node000002"><a xlink:title=" ">
<path fill="none" stroke="#63b8ff" d="M422.92,-242.32C348.27,-233.94 223,-217.49 117.5,-192 114.81,-191.35 112.07,-190.64 109.32,-189.88"/>
<polygon fill="#63b8ff" stroke="#63b8ff" points="422.23,-245.88 432.56,-243.5 423,-238.92 422.23,-245.88"/>
</a>
</g>
</g>
<!-- Node3 -->
<g id="Node000003" class="node">
<title>Node3</title>
<g id="a_Node000003"><a xlink:href="a00224.html" target="_top" xlink:title="This is the generated driver header file for the System driver.">
<polygon fill="white" stroke="#666666" points="248.38,-192 126.62,-192 126.62,-148 248.38,-148 248.38,-192"/>
<text text-anchor="start" x="134.62" y="-178.5" font-family="Helvetica,sans-Serif" font-size="10.00">dspic33ck&#45;dab.X/mcc</text>
<text text-anchor="start" x="134.62" y="-166.5" font-family="Helvetica,sans-Serif" font-size="10.00">_generated_files/system</text>
<text text-anchor="middle" x="187.5" y="-154.5" font-family="Helvetica,sans-Serif" font-size="10.00">/src/system.c</text>
</a>
</g>
</g>
<!-- Node1&#45;&gt;Node3 -->
<g id="edge2_Node000001_Node000003" class="edge">
<title>Node1&#45;&gt;Node3</title>
<g id="a_edge2_Node000001_Node000003"><a xlink:title=" ">
<path fill="none" stroke="#63b8ff" d="M423.18,-233.79C376.8,-222.77 313.14,-207.2 257.5,-192 254.56,-191.2 251.56,-190.36 248.53,-189.5"/>
<polygon fill="#63b8ff" stroke="#63b8ff" points="422.16,-237.39 432.69,-236.28 423.77,-230.57 422.16,-237.39"/>
</a>
</g>
</g>
<!-- Node4 -->
<g id="Node000004" class="node">
<title>Node4</title>
<g id="a_Node000004"><a xlink:href="a00320.html" target="_top" xlink:title="Contains current sensor initialization and calibration evaluation.">
<polygon fill="white" stroke="#666666" points="408.12,-186 266.88,-186 266.88,-154 408.12,-154 408.12,-186"/>
<text text-anchor="start" x="274.88" y="-172.5" font-family="Helvetica,sans-Serif" font-size="10.00">dspic33ck&#45;dab.X/sources</text>
<text text-anchor="middle" x="337.5" y="-160.5" font-family="Helvetica,sans-Serif" font-size="10.00">/device/dev_current_sensor.c</text>
</a>
</g>
</g>
<!-- Node1&#45;&gt;Node4 -->
<g id="edge3_Node000001_Node000004" class="edge">
<title>Node1&#45;&gt;Node4</title>
<g id="a_edge3_Node000001_Node000004"><a xlink:title=" ">
<path fill="none" stroke="#63b8ff" d="M437.47,-222.64C414.1,-210.57 387.22,-196.68 367.22,-186.35"/>
<polygon fill="#63b8ff" stroke="#63b8ff" points="435.75,-226.21 446.24,-227.69 438.96,-219.99 435.75,-226.21"/>
</a>
</g>
</g>
<!-- Node5 -->
<g id="Node000005" class="node">
<title>Node5</title>
<g id="a_Node000005"><a xlink:href="a00347.html" target="_top" xlink:title="Contains temperature initialization and execution functions.">
<polygon fill="white" stroke="#666666" points="550.88,-186 426.12,-186 426.12,-154 550.88,-154 550.88,-186"/>
<text text-anchor="start" x="434.12" y="-172.5" font-family="Helvetica,sans-Serif" font-size="10.00">dspic33ck&#45;dab.X/sources</text>
<text text-anchor="middle" x="488.5" y="-160.5" font-family="Helvetica,sans-Serif" font-size="10.00">/device/dev_temp.h</text>
</a>
</g>
</g>
<!-- Node1&#45;&gt;Node5 -->
<g id="edge4_Node000001_Node000005" class="edge">
<title>Node1&#45;&gt;Node5</title>
<g id="a_edge4_Node000001_Node000005"><a xlink:title=" ">
<path fill="none" stroke="#63b8ff" d="M488.5,-216.96C488.5,-206.28 488.5,-194.88 488.5,-186.11"/>
<polygon fill="#63b8ff" stroke="#63b8ff" points="485,-216.69 488.5,-226.69 492,-216.69 485,-216.69"/>
</a>
</g>
</g>
<!-- Node14 -->
<g id="Node000014" class="node">
<title>Node14</title>
<g id="a_Node000014"><a xlink:href="a00350.html" target="_top" xlink:title="Contains ADC initialization that was not supported by MCC generated code.">
<polygon fill="white" stroke="#666666" points="697.75,-192 569.25,-192 569.25,-148 697.75,-148 697.75,-192"/>
<text text-anchor="start" x="577.25" y="-178.5" font-family="Helvetica,sans-Serif" font-size="10.00">dspic33ck&#45;dab.X/sources</text>
<text text-anchor="start" x="577.25" y="-166.5" font-family="Helvetica,sans-Serif" font-size="10.00">/driver/mcc_extension</text>
<text text-anchor="middle" x="633.5" y="-154.5" font-family="Helvetica,sans-Serif" font-size="10.00">/drv_custom_config_adc.h</text>
</a>
</g>
</g>
<!-- Node1&#45;&gt;Node14 -->
<g id="edge13_Node000001_Node000014" class="edge">
<title>Node1&#45;&gt;Node14</title>
<g id="a_edge13_Node000001_Node000014"><a xlink:title=" ">
<path fill="none" stroke="#63b8ff" d="M537.71,-222.53C555.94,-212.72 576.38,-201.73 593.67,-192.42"/>
<polygon fill="#63b8ff" stroke="#63b8ff" points="536.27,-219.87 529.12,-227.69 539.59,-226.03 536.27,-219.87"/>
</a>
</g>
</g>
<!-- Node16 -->
<g id="Node000016" class="node">
<title>Node16</title>
<g id="a_Node000016"><a xlink:href="a00479.html" target="_top" xlink:title="Contains Control loop interrupt Callback that acquires the ADC raw data and process it in the control...">
<polygon fill="white" stroke="#666666" points="840.88,-186 716.12,-186 716.12,-154 840.88,-154 840.88,-186"/>
<text text-anchor="start" x="724.12" y="-172.5" font-family="Helvetica,sans-Serif" font-size="10.00">dspic33ck&#45;dab.X/sources</text>
<text text-anchor="middle" x="778.5" y="-160.5" font-family="Helvetica,sans-Serif" font-size="10.00">/pwrctrl/pwrctrl_isr.c</text>
</a>
</g>
</g>
<!-- Node1&#45;&gt;Node16 -->
<g id="edge15_Node000001_Node000016" class="edge">
<title>Node1&#45;&gt;Node16</title>
<g id="a_edge15_Node000001_Node000016"><a xlink:title=" ">
<path fill="none" stroke="#63b8ff" d="M553.68,-232.47C597.07,-221.34 655.3,-206.16 706.5,-192 712.9,-190.23 719.61,-188.33 726.25,-186.43"/>
<polygon fill="#63b8ff" stroke="#63b8ff" points="553.08,-229.26 544.26,-235.13 554.82,-236.04 553.08,-229.26"/>
</a>
</g>
</g>
<!-- Node17 -->
<g id="Node000017" class="node">
<title>Node17</title>
<g id="a_Node000017"><a xlink:href="a00485.html" target="_top" xlink:title="Contains some of the functions used in the interrupt service routine of control loop.">
<polygon fill="white" stroke="#666666" points="1009.62,-186 859.38,-186 859.38,-154 1009.62,-154 1009.62,-186"/>
<text text-anchor="start" x="867.38" y="-172.5" font-family="Helvetica,sans-Serif" font-size="10.00">dspic33ck&#45;dab.X/sources</text>
<text text-anchor="middle" x="934.5" y="-160.5" font-family="Helvetica,sans-Serif" font-size="10.00">/pwrctrl/pwrctrl_isr_extension.c</text>
</a>
</g>
</g>
<!-- Node1&#45;&gt;Node17 -->
<g id="edge16_Node000001_Node000017" class="edge">
<title>Node1&#45;&gt;Node17</title>
<g id="a_edge16_Node000001_Node000017"><a xlink:title=" ">
<path fill="none" stroke="#63b8ff" d="M554.29,-240.34C626.88,-230.38 747.01,-212.71 849.5,-192 857.69,-190.34 866.29,-188.43 874.74,-186.45"/>
<polygon fill="#63b8ff" stroke="#63b8ff" points="553.93,-236.99 544.5,-241.81 554.88,-243.93 553.93,-236.99"/>
</a>
</g>
</g>
<!-- Node6 -->
<g id="Node000006" class="node">
<title>Node6</title>
<g id="a_Node000006"><a xlink:href="a00080_source.html" target="_top" xlink:title=" ">
<polygon fill="white" stroke="#666666" points="265.12,-106 153.88,-106 153.88,-74 265.12,-74 265.12,-106"/>
<text text-anchor="start" x="161.88" y="-92.5" font-family="Helvetica,sans-Serif" font-size="10.00">dspic33ck&#45;dab.X/main</text>
<text text-anchor="middle" x="209.5" y="-80.5" font-family="Helvetica,sans-Serif" font-size="10.00">_tasks.c</text>
</a>
</g>
</g>
<!-- Node5&#45;&gt;Node6 -->
<g id="edge5_Node000005_Node000006" class="edge">
<title>Node5&#45;&gt;Node6</title>
<g id="a_edge5_Node000005_Node000006"><a xlink:title=" ">
<path fill="none" stroke="#63b8ff" d="M427.04,-150.65C423.82,-149.74 420.62,-148.85 417.5,-148 354.29,-130.7 337.49,-130.08 274.5,-112 268.46,-110.27 262.13,-108.35 255.9,-106.4"/>
<polygon fill="#63b8ff" stroke="#63b8ff" points="425.8,-154.23 436.38,-153.61 427.73,-147.5 425.8,-154.23"/>
</a>
</g>
</g>
<!-- Node7 -->
<g id="Node000007" class="node">
<title>Node7</title>
<g id="a_Node000007"><a xlink:href="a00326.html" target="_top" xlink:title="Contains fan initialization and execution functions.">
<polygon fill="white" stroke="#666666" points="407.88,-106 283.12,-106 283.12,-74 407.88,-74 407.88,-106"/>
<text text-anchor="start" x="291.12" y="-92.5" font-family="Helvetica,sans-Serif" font-size="10.00">dspic33ck&#45;dab.X/sources</text>
<text text-anchor="middle" x="345.5" y="-80.5" font-family="Helvetica,sans-Serif" font-size="10.00">/device/dev_fan.c</text>
</a>
</g>
</g>
<!-- Node5&#45;&gt;Node7 -->
<g id="edge6_Node000005_Node000007" class="edge">
<title>Node5&#45;&gt;Node7</title>
<g id="a_edge6_Node000005_Node000007"><a xlink:title=" ">
<path fill="none" stroke="#63b8ff" d="M450.68,-148.37C426.52,-135.19 395.71,-118.39 373.69,-106.38"/>
<polygon fill="#63b8ff" stroke="#63b8ff" points="448.79,-151.87 459.25,-153.59 452.14,-145.73 448.79,-151.87"/>
</a>
</g>
</g>
<!-- Node8 -->
<g id="Node000008" class="node">
<title>Node8</title>
<g id="a_Node000008"><a xlink:href="a00344_source.html" target="_top" xlink:title=" ">
<polygon fill="white" stroke="#666666" points="550.88,-106 426.12,-106 426.12,-74 550.88,-74 550.88,-106"/>
<text text-anchor="start" x="434.12" y="-92.5" font-family="Helvetica,sans-Serif" font-size="10.00">dspic33ck&#45;dab.X/sources</text>
<text text-anchor="middle" x="488.5" y="-80.5" font-family="Helvetica,sans-Serif" font-size="10.00">/device/dev_temp.c</text>
</a>
</g>
</g>
<!-- Node5&#45;&gt;Node8 -->
<g id="edge7_Node000005_Node000008" class="edge">
<title>Node5&#45;&gt;Node8</title>
<g id="a_edge7_Node000005_Node000008"><a xlink:title=" ">
<path fill="none" stroke="#63b8ff" d="M488.5,-142.74C488.5,-130.65 488.5,-116.73 488.5,-106.38"/>
<polygon fill="#63b8ff" stroke="#63b8ff" points="485,-142.59 488.5,-152.59 492,-142.59 485,-142.59"/>
</a>
</g>
</g>
<!-- Node9 -->
<g id="Node000009" class="node">
<title>Node9</title>
<g id="a_Node000009"><a xlink:href="a00317.html" target="_top" xlink:title="Contains h files that are part of device layer.">
<polygon fill="white" stroke="#666666" points="693.88,-106 569.12,-106 569.12,-74 693.88,-74 693.88,-106"/>
<text text-anchor="start" x="577.12" y="-92.5" font-family="Helvetica,sans-Serif" font-size="10.00">dspic33ck&#45;dab.X/sources</text>
<text text-anchor="middle" x="631.5" y="-80.5" font-family="Helvetica,sans-Serif" font-size="10.00">/device/device.h</text>
</a>
</g>
</g>
<!-- Node5&#45;&gt;Node9 -->
<g id="edge8_Node000005_Node000009" class="edge">
<title>Node5&#45;&gt;Node9</title>
<g id="a_edge8_Node000005_Node000009"><a xlink:title=" ">
<path fill="none" stroke="#63b8ff" d="M526.32,-148.37C550.48,-135.19 581.29,-118.39 603.31,-106.38"/>
<polygon fill="#63b8ff" stroke="#63b8ff" points="524.86,-145.73 517.75,-153.59 528.21,-151.87 524.86,-145.73"/>
</a>
</g>
</g>
<!-- Node10 -->
<g id="Node000010" class="node">
<title>Node10</title>
<g id="a_Node000010"><a xlink:href="a00077_source.html" target="_top" xlink:title=" ">
<polygon fill="white" stroke="#666666" points="459.25,-26 339.75,-26 339.75,-6 459.25,-6 459.25,-26"/>
<text text-anchor="middle" x="399.5" y="-12.5" font-family="Helvetica,sans-Serif" font-size="10.00">dspic33ck&#45;dab.X/main.c</text>
</a>
</g>
</g>
<!-- Node9&#45;&gt;Node10 -->
<g id="edge9_Node000009_Node000010" class="edge">
<title>Node9&#45;&gt;Node10</title>
<g id="a_edge9_Node000009_Node000010"><a xlink:title=" ">
<path fill="none" stroke="#63b8ff" d="M571.43,-70.36C526.12,-56.3 465.85,-37.59 430.02,-26.47"/>
<polygon fill="#63b8ff" stroke="#63b8ff" points="570.14,-73.93 580.73,-73.55 572.22,-67.25 570.14,-73.93"/>
</a>
</g>
</g>
<!-- Node11 -->
<g id="Node000011" class="node">
<title>Node11</title>
<g id="a_Node000011"><a xlink:href="a00281_source.html" target="_top" xlink:title=" ">
<polygon fill="white" stroke="#666666" points="629.38,-32 477.62,-32 477.62,0 629.38,0 629.38,-32"/>
<text text-anchor="start" x="485.62" y="-18.5" font-family="Helvetica,sans-Serif" font-size="10.00">dspic33ck&#45;dab.X/sources</text>
<text text-anchor="middle" x="553.5" y="-6.5" font-family="Helvetica,sans-Serif" font-size="10.00">/comm/PBV_dab_frame_map.c</text>
</a>
</g>
</g>
<!-- Node9&#45;&gt;Node11 -->
<g id="edge10_Node000009_Node000011" class="edge">
<title>Node9&#45;&gt;Node11</title>
<g id="a_edge10_Node000009_Node000011"><a xlink:title=" ">
<path fill="none" stroke="#63b8ff" d="M607.09,-66.46C595.12,-55.42 581.02,-42.4 570.29,-32.5"/>
<polygon fill="#63b8ff" stroke="#63b8ff" points="604.24,-68.52 613.96,-72.73 608.98,-63.38 604.24,-68.52"/>
</a>
</g>
</g>
<!-- Node12 -->
<g id="Node000012" class="node">
<title>Node12</title>
<g id="a_Node000012"><a xlink:href="a00377.html" target="_top" xlink:title="Contains fault functions including the fault handler, fault object initialization and fault execution...">
<polygon fill="white" stroke="#666666" points="771.88,-32 647.12,-32 647.12,0 771.88,0 771.88,-32"/>
<text text-anchor="start" x="655.12" y="-18.5" font-family="Helvetica,sans-Serif" font-size="10.00">dspic33ck&#45;dab.X/sources</text>
<text text-anchor="middle" x="709.5" y="-6.5" font-family="Helvetica,sans-Serif" font-size="10.00">/fault/fault.c</text>
</a>
</g>
</g>
<!-- Node9&#45;&gt;Node12 -->
<g id="edge11_Node000009_Node000012" class="edge">
<title>Node9&#45;&gt;Node12</title>
<g id="a_edge11_Node000009_Node000012"><a xlink:title=" ">
<path fill="none" stroke="#63b8ff" d="M655.91,-66.46C667.88,-55.42 681.98,-42.4 692.71,-32.5"/>
<polygon fill="#63b8ff" stroke="#63b8ff" points="654.02,-63.38 649.04,-72.73 658.76,-68.52 654.02,-63.38"/>
</a>
</g>
</g>
<!-- Node13 -->
<g id="Node000013" class="node">
<title>Node13</title>
<g id="a_Node000013"><a xlink:href="a00494.html" target="_top" xlink:title="Contains power control state machine functions that is executed every 100us.">
<polygon fill="white" stroke="#666666" points="914.88,-32 790.12,-32 790.12,0 914.88,0 914.88,-32"/>
<text text-anchor="start" x="798.12" y="-18.5" font-family="Helvetica,sans-Serif" font-size="10.00">dspic33ck&#45;dab.X/sources</text>
<text text-anchor="middle" x="852.5" y="-6.5" font-family="Helvetica,sans-Serif" font-size="10.00">/pwrctrl/pwrctrl_sm.c</text>
</a>
</g>
</g>
<!-- Node9&#45;&gt;Node13 -->
<g id="edge12_Node000009_Node000013" class="edge">
<title>Node9&#45;&gt;Node13</title>
<g id="a_edge12_Node000009_Node000013"><a xlink:title=" ">
<path fill="none" stroke="#63b8ff" d="M689.29,-70.17C725.37,-58.42 771.25,-43.47 805.17,-32.42"/>
<polygon fill="#63b8ff" stroke="#63b8ff" points="688.33,-67.13 679.91,-73.55 690.5,-73.78 688.33,-67.13"/>
</a>
</g>
</g>
<!-- Node15 -->
<g id="Node000015" class="node">
<title>Node15</title>
<g id="a_Node000015"><a xlink:href="a00365_source.html" target="_top" xlink:title=" ">
<polygon fill="white" stroke="#666666" points="836.88,-112 712.12,-112 712.12,-68 836.88,-68 836.88,-112"/>
<text text-anchor="start" x="720.12" y="-98.5" font-family="Helvetica,sans-Serif" font-size="10.00">dspic33ck&#45;dab.X/sources</text>
<text text-anchor="start" x="720.12" y="-86.5" font-family="Helvetica,sans-Serif" font-size="10.00">/driver/mcc_extension</text>
<text text-anchor="middle" x="774.5" y="-74.5" font-family="Helvetica,sans-Serif" font-size="10.00">/mcc_custom_config.c</text>
</a>
</g>
</g>
<!-- Node14&#45;&gt;Node15 -->
<g id="edge14_Node000014_Node000015" class="edge">
<title>Node14&#45;&gt;Node15</title>
<g id="a_edge14_Node000014_Node000015"><a xlink:title=" ">
<path fill="none" stroke="#63b8ff" d="M681.64,-142.37C699.38,-132.55 719.24,-121.57 736.02,-112.29"/>
<polygon fill="#63b8ff" stroke="#63b8ff" points="680.08,-139.78 673.03,-147.69 683.47,-145.91 680.08,-139.78"/>
</a>
</g>
</g>
</g>
</svg>
