<?xml version="1.0" encoding="UTF-8" standalone="no"?>
<!DOCTYPE svg PUBLIC "-//W3C//DTD SVG 1.1//EN"
 "http://www.w3.org/Graphics/SVG/1.1/DTD/svg11.dtd">
<!-- Generated by graphviz version 8.1.0 (20230707.0739)
 -->
<!-- Title: dspic33ck&#45;dab.X/mcc_generated_files/can/can1.h Pages: 1 -->
<svg width="399pt" height="132pt"
 viewBox="0.00 0.00 398.88 132.00" xmlns="http://www.w3.org/2000/svg" xmlns:xlink="http://www.w3.org/1999/xlink">
<g id="graph0" class="graph" transform="scale(1 1) rotate(0) translate(4 128)">
<title>dspic33ck&#45;dab.X/mcc_generated_files/can/can1.h</title>
<!-- Node1 -->
<g id="Node000001" class="node">
<title>Node1</title>
<g id="a_Node000001"><a xlink:title="This is the generated driver header file for the CAN1 driver using CCL.">
<polygon fill="#999999" stroke="#666666" points="242,-124 133,-124 133,-80 242,-80 242,-124"/>
<text text-anchor="start" x="141" y="-110.5" font-family="Helvetica,sans-Serif" font-size="10.00">dspic33ck&#45;dab.X/mcc</text>
<text text-anchor="start" x="141" y="-98.5" font-family="Helvetica,sans-Serif" font-size="10.00">_generated_files/can</text>
<text text-anchor="middle" x="187.5" y="-86.5" font-family="Helvetica,sans-Serif" font-size="10.00">/can1.h</text>
</a>
</g>
</g>
<!-- Node2 -->
<g id="Node000002" class="node">
<title>Node2</title>
<g id="a_Node000002"><a xlink:href="a00095.html" target="_top" xlink:title="This is the generated driver source file for CAN1 driver using CCL.">
<polygon fill="white" stroke="#666666" points="109,-44 0,-44 0,0 109,0 109,-44"/>
<text text-anchor="start" x="8" y="-30.5" font-family="Helvetica,sans-Serif" font-size="10.00">dspic33ck&#45;dab.X/mcc</text>
<text text-anchor="start" x="8" y="-18.5" font-family="Helvetica,sans-Serif" font-size="10.00">_generated_files/can</text>
<text text-anchor="middle" x="54.5" y="-6.5" font-family="Helvetica,sans-Serif" font-size="10.00">/src/can1.c</text>
</a>
</g>
</g>
<!-- Node1&#45;&gt;Node2 -->
<g id="edge1_Node000001_Node000002" class="edge">
<title>Node1&#45;&gt;Node2</title>
<g id="a_edge1_Node000001_Node000002"><a xlink:title=" ">
<path fill="none" stroke="#63b8ff" d="M142.09,-74.37C125.36,-64.55 106.63,-53.57 90.8,-44.29"/>
<polygon fill="#63b8ff" stroke="#63b8ff" points="139.76,-77.65 150.16,-79.69 143.3,-71.61 139.76,-77.65"/>
</a>
</g>
</g>
<!-- Node3 -->
<g id="Node000003" class="node">
<title>Node3</title>
<g id="a_Node000003"><a xlink:href="a00209.html" target="_top" xlink:title="This is the generated driver header file for the System driver.">
<polygon fill="white" stroke="#666666" points="248.38,-44 126.62,-44 126.62,0 248.38,0 248.38,-44"/>
<text text-anchor="start" x="134.62" y="-30.5" font-family="Helvetica,sans-Serif" font-size="10.00">dspic33ck&#45;dab.X/mcc</text>
<text text-anchor="start" x="134.62" y="-18.5" font-family="Helvetica,sans-Serif" font-size="10.00">_generated_files/system</text>
<text text-anchor="middle" x="187.5" y="-6.5" font-family="Helvetica,sans-Serif" font-size="10.00">/src/system.c</text>
</a>
</g>
</g>
<!-- Node1&#45;&gt;Node3 -->
<g id="edge2_Node000001_Node000003" class="edge">
<title>Node1&#45;&gt;Node3</title>
<g id="a_edge2_Node000001_Node000003"><a xlink:title=" ">
<path fill="none" stroke="#63b8ff" d="M187.5,-68.82C187.5,-60.54 187.5,-51.85 187.5,-44.29"/>
<polygon fill="#63b8ff" stroke="#63b8ff" points="184,-68.69 187.5,-78.69 191,-68.69 184,-68.69"/>
</a>
</g>
</g>
<!-- Node4 -->
<g id="Node000004" class="node">
<title>Node4</title>
<g id="a_Node000004"><a xlink:href="a00254_source.html" target="_top" xlink:title=" ">
<polygon fill="white" stroke="#666666" points="390.88,-38 266.12,-38 266.12,-6 390.88,-6 390.88,-38"/>
<text text-anchor="start" x="274.12" y="-24.5" font-family="Helvetica,sans-Serif" font-size="10.00">dspic33ck&#45;dab.X/sources</text>
<text text-anchor="middle" x="328.5" y="-12.5" font-family="Helvetica,sans-Serif" font-size="10.00">/comm/PBV_CAN.c</text>
</a>
</g>
</g>
<!-- Node1&#45;&gt;Node4 -->
<g id="edge3_Node000001_Node000004" class="edge">
<title>Node1&#45;&gt;Node4</title>
<g id="a_edge3_Node000001_Node000004"><a xlink:title=" ">
<path fill="none" stroke="#63b8ff" d="M235.45,-74.48C257.2,-62.44 282.16,-48.64 300.75,-38.35"/>
<polygon fill="#63b8ff" stroke="#63b8ff" points="234.08,-71.78 227.03,-79.69 237.47,-77.91 234.08,-71.78"/>
</a>
</g>
</g>
</g>
</svg>
