<?xml version="1.0" encoding="UTF-8" standalone="no"?>
<!DOCTYPE svg PUBLIC "-//W3C//DTD SVG 1.1//EN"
 "http://www.w3.org/Graphics/SVG/1.1/DTD/svg11.dtd">
<!-- Generated by graphviz version 8.1.0 (20230707.0739)
 -->
<!-- Title: dab&#45;pwm&#45;configuration.X/mcc_generated_files/crc/crc.h Pages: 1 -->
<svg width="468pt" height="120pt"
 viewBox="0.00 0.00 468.12 120.00" xmlns="http://www.w3.org/2000/svg" xmlns:xlink="http://www.w3.org/1999/xlink">
<g id="graph0" class="graph" transform="scale(1 1) rotate(0) translate(4 116)">
<title>dab&#45;pwm&#45;configuration.X/mcc_generated_files/crc/crc.h</title>
<!-- Node1 -->
<g id="Node000001" class="node">
<title>Node1</title>
<g id="a_Node000001"><a xlink:title="This is the generated driver header file for the CRC driver.">
<polygon fill="#999999" stroke="#666666" points="289.12,-112 139.62,-112 139.62,-80 289.12,-80 289.12,-112"/>
<text text-anchor="start" x="147.62" y="-98.5" font-family="Helvetica,sans-Serif" font-size="10.00">dab&#45;pwm&#45;configuration.X</text>
<text text-anchor="middle" x="214.38" y="-86.5" font-family="Helvetica,sans-Serif" font-size="10.00">/mcc_generated_files/crc/crc.h</text>
</a>
</g>
</g>
<!-- Node2 -->
<g id="Node000002" class="node">
<title>Node2</title>
<g id="a_Node000002"><a xlink:href="a00164_source.html" target="_top" xlink:title=" ">
<polygon fill="white" stroke="#666666" points="124.75,-44 0,-44 0,0 124.75,0 124.75,-44"/>
<text text-anchor="start" x="8" y="-30.5" font-family="Helvetica,sans-Serif" font-size="10.00">dab&#45;pwm&#45;configuration.X</text>
<text text-anchor="start" x="8" y="-18.5" font-family="Helvetica,sans-Serif" font-size="10.00">/mcc_generated_files/crc</text>
<text text-anchor="middle" x="62.38" y="-6.5" font-family="Helvetica,sans-Serif" font-size="10.00">/src/crc.c</text>
</a>
</g>
</g>
<!-- Node1&#45;&gt;Node2 -->
<g id="edge1_Node000001_Node000002" class="edge">
<title>Node1&#45;&gt;Node2</title>
<g id="a_edge1_Node000001_Node000002"><a xlink:title=" ">
<path fill="none" stroke="#63b8ff" d="M171.98,-74.92C151.94,-65.43 128,-54.09 107.61,-44.43"/>
<polygon fill="#63b8ff" stroke="#63b8ff" points="170.23,-78.44 180.77,-79.55 173.23,-72.11 170.23,-78.44"/>
</a>
</g>
</g>
<!-- Node3 -->
<g id="Node000003" class="node">
<title>Node3</title>
<g id="a_Node000003"><a xlink:href="a00236.html" target="_top" xlink:title="This is the generated driver header file for the System driver.">
<polygon fill="white" stroke="#666666" points="286.12,-44 142.62,-44 142.62,0 286.12,0 286.12,-44"/>
<text text-anchor="start" x="150.62" y="-30.5" font-family="Helvetica,sans-Serif" font-size="10.00">dab&#45;pwm&#45;configuration.X</text>
<text text-anchor="start" x="150.62" y="-18.5" font-family="Helvetica,sans-Serif" font-size="10.00">/mcc_generated_files/system</text>
<text text-anchor="middle" x="214.38" y="-6.5" font-family="Helvetica,sans-Serif" font-size="10.00">/src/system.c</text>
</a>
</g>
</g>
<!-- Node1&#45;&gt;Node3 -->
<g id="edge2_Node000001_Node000003" class="edge">
<title>Node1&#45;&gt;Node3</title>
<g id="a_edge2_Node000001_Node000003"><a xlink:title=" ">
<path fill="none" stroke="#63b8ff" d="M214.38,-68.94C214.38,-60.84 214.38,-52 214.38,-44.26"/>
<polygon fill="#63b8ff" stroke="#63b8ff" points="210.88,-68.73 214.38,-78.73 217.88,-68.73 210.88,-68.73"/>
</a>
</g>
</g>
<!-- Node4 -->
<g id="Node000004" class="node">
<title>Node4</title>
<g id="a_Node000004"><a xlink:href="a00305_source.html" target="_top" xlink:title=" ">
<polygon fill="white" stroke="#666666" points="460.12,-38 304.62,-38 304.62,-6 460.12,-6 460.12,-38"/>
<text text-anchor="start" x="312.62" y="-24.5" font-family="Helvetica,sans-Serif" font-size="10.00">dab&#45;pwm&#45;configuration.X</text>
<text text-anchor="middle" x="382.38" y="-12.5" font-family="Helvetica,sans-Serif" font-size="10.00">/sources/app/app_PBV_UART.c</text>
</a>
</g>
</g>
<!-- Node1&#45;&gt;Node4 -->
<g id="edge3_Node000001_Node000004" class="edge">
<title>Node1&#45;&gt;Node4</title>
<g id="a_edge3_Node000001_Node000004"><a xlink:title=" ">
<path fill="none" stroke="#63b8ff" d="M260.44,-75.26C287.52,-63.65 321.27,-49.19 346.39,-38.42"/>
<polygon fill="#63b8ff" stroke="#63b8ff" points="259.23,-72.4 251.42,-79.55 261.99,-78.83 259.23,-72.4"/>
</a>
</g>
</g>
</g>
</svg>
