<?xml version="1.0" encoding="UTF-8" standalone="no"?>
<!DOCTYPE svg PUBLIC "-//W3C//DTD SVG 1.1//EN"
 "http://www.w3.org/Graphics/SVG/1.1/DTD/svg11.dtd">
<!-- Generated by graphviz version 8.1.0 (20230707.0739)
 -->
<!-- Title: dab&#45;pwm&#45;configuration.X/mcc_generated_files/adc/adc_types.h Pages: 1 -->
<svg width="899pt" height="372pt"
 viewBox="0.00 0.00 899.00 372.00" xmlns="http://www.w3.org/2000/svg" xmlns:xlink="http://www.w3.org/1999/xlink">
<g id="graph0" class="graph" transform="scale(1 1) rotate(0) translate(4 368)">
<title>dab&#45;pwm&#45;configuration.X/mcc_generated_files/adc/adc_types.h</title>
<!-- Node1 -->
<g id="Node000001" class="node">
<title>Node1</title>
<g id="a_Node000001"><a xlink:title="This is the generated driver types header file for the ADC driver.">
<polygon fill="#999999" stroke="#666666" points="559,-364 432,-364 432,-320 559,-320 559,-364"/>
<text text-anchor="start" x="440" y="-350.5" font-family="Helvetica,sans-Serif" font-size="10.00">dab&#45;pwm&#45;configuration.X</text>
<text text-anchor="start" x="440" y="-338.5" font-family="Helvetica,sans-Serif" font-size="10.00">/mcc_generated_files/adc</text>
<text text-anchor="middle" x="495.5" y="-326.5" font-family="Helvetica,sans-Serif" font-size="10.00">/adc_types.h</text>
</a>
</g>
</g>
<!-- Node2 -->
<g id="Node000002" class="node">
<title>Node2</title>
<g id="a_Node000002"><a xlink:href="a00089.html" target="_top" xlink:title="This is the generated driver header file for the ADC1 driver.">
<polygon fill="white" stroke="#666666" points="467,-204 340,-204 340,-160 467,-160 467,-204"/>
<text text-anchor="start" x="348" y="-190.5" font-family="Helvetica,sans-Serif" font-size="10.00">dab&#45;pwm&#45;configuration.X</text>
<text text-anchor="start" x="348" y="-178.5" font-family="Helvetica,sans-Serif" font-size="10.00">/mcc_generated_files/adc</text>
<text text-anchor="middle" x="403.5" y="-166.5" font-family="Helvetica,sans-Serif" font-size="10.00">/adc1.h</text>
</a>
</g>
</g>
<!-- Node1&#45;&gt;Node2 -->
<g id="edge1_Node000001_Node000002" class="edge">
<title>Node1&#45;&gt;Node2</title>
<g id="a_edge1_Node000001_Node000002"><a xlink:title=" ">
<path fill="none" stroke="#63b8ff" d="M449.39,-313.18C439.13,-304.98 429.29,-295.16 422.5,-284 407.56,-259.46 403.9,-225.84 403.24,-204.27"/>
<polygon fill="#63b8ff" stroke="#63b8ff" points="446.95,-316.48 457.05,-319.68 451.16,-310.88 446.95,-316.48"/>
</a>
</g>
</g>
<!-- Node12 -->
<g id="Node000012" class="node">
<title>Node12</title>
<g id="a_Node000012"><a xlink:href="a00419_source.html" target="_top" xlink:title=" ">
<polygon fill="white" stroke="#666666" points="736,-124 615,-124 615,-80 736,-80 736,-124"/>
<text text-anchor="start" x="623" y="-110.5" font-family="Helvetica,sans-Serif" font-size="10.00">dab&#45;pwm&#45;configuration.X</text>
<text text-anchor="start" x="623" y="-98.5" font-family="Helvetica,sans-Serif" font-size="10.00">/sources/device/pwrctrl</text>
<text text-anchor="middle" x="675.5" y="-86.5" font-family="Helvetica,sans-Serif" font-size="10.00">/dev_pwrctrl_isr.c</text>
</a>
</g>
</g>
<!-- Node1&#45;&gt;Node12 -->
<g id="edge14_Node000001_Node000012" class="edge">
<title>Node1&#45;&gt;Node12</title>
<g id="a_edge14_Node000001_Node000012"><a xlink:title=" ">
<path fill="none" stroke="#63b8ff" d="M536.64,-313.19C547.72,-304.59 559.2,-294.58 568.5,-284 613.44,-232.86 649.69,-160.17 666.06,-124.47"/>
<polygon fill="#63b8ff" stroke="#63b8ff" points="534.79,-310.96 528.89,-319.76 538.99,-316.55 534.79,-310.96"/>
</a>
</g>
</g>
<!-- Node13 -->
<g id="Node000013" class="node">
<title>Node13</title>
<g id="a_Node000013"><a xlink:href="a00095_source.html" target="_top" xlink:title=" ">
<polygon fill="white" stroke="#666666" points="559,-284 432,-284 432,-240 559,-240 559,-284"/>
<text text-anchor="start" x="440" y="-270.5" font-family="Helvetica,sans-Serif" font-size="10.00">dab&#45;pwm&#45;configuration.X</text>
<text text-anchor="start" x="440" y="-258.5" font-family="Helvetica,sans-Serif" font-size="10.00">/mcc_generated_files/adc</text>
<text text-anchor="middle" x="495.5" y="-246.5" font-family="Helvetica,sans-Serif" font-size="10.00">/adc_interface.h</text>
</a>
</g>
</g>
<!-- Node1&#45;&gt;Node13 -->
<g id="edge12_Node000001_Node000013" class="edge">
<title>Node1&#45;&gt;Node13</title>
<g id="a_edge12_Node000001_Node000013"><a xlink:title=" ">
<path fill="none" stroke="#63b8ff" d="M495.5,-308.82C495.5,-300.54 495.5,-291.85 495.5,-284.29"/>
<polygon fill="#63b8ff" stroke="#63b8ff" points="492,-308.69 495.5,-318.69 499,-308.69 492,-308.69"/>
</a>
</g>
</g>
<!-- Node3 -->
<g id="Node000003" class="node">
<title>Node3</title>
<g id="a_Node000003"><a xlink:href="a00101.html" target="_top" xlink:title="This is the generated driver source file for ADC1 driver.">
<polygon fill="white" stroke="#666666" points="127,-124 0,-124 0,-80 127,-80 127,-124"/>
<text text-anchor="start" x="8" y="-110.5" font-family="Helvetica,sans-Serif" font-size="10.00">dab&#45;pwm&#45;configuration.X</text>
<text text-anchor="start" x="8" y="-98.5" font-family="Helvetica,sans-Serif" font-size="10.00">/mcc_generated_files/adc</text>
<text text-anchor="middle" x="63.5" y="-86.5" font-family="Helvetica,sans-Serif" font-size="10.00">/src/adc1.c</text>
</a>
</g>
</g>
<!-- Node2&#45;&gt;Node3 -->
<g id="edge2_Node000002_Node000003" class="edge">
<title>Node2&#45;&gt;Node3</title>
<g id="a_edge2_Node000002_Node000003"><a xlink:title=" ">
<path fill="none" stroke="#63b8ff" d="M329.06,-166.71C275.09,-155.97 200.48,-140.36 135.5,-124 132.85,-123.33 130.15,-122.63 127.42,-121.91"/>
<polygon fill="#63b8ff" stroke="#63b8ff" points="328.08,-170.28 338.57,-168.79 329.44,-163.41 328.08,-170.28"/>
</a>
</g>
</g>
<!-- Node4 -->
<g id="Node000004" class="node">
<title>Node4</title>
<g id="a_Node000004"><a xlink:href="a00236.html" target="_top" xlink:title="This is the generated driver header file for the System driver.">
<polygon fill="white" stroke="#666666" points="288.25,-124 144.75,-124 144.75,-80 288.25,-80 288.25,-124"/>
<text text-anchor="start" x="152.75" y="-110.5" font-family="Helvetica,sans-Serif" font-size="10.00">dab&#45;pwm&#45;configuration.X</text>
<text text-anchor="start" x="152.75" y="-98.5" font-family="Helvetica,sans-Serif" font-size="10.00">/mcc_generated_files/system</text>
<text text-anchor="middle" x="216.5" y="-86.5" font-family="Helvetica,sans-Serif" font-size="10.00">/src/system.c</text>
</a>
</g>
</g>
<!-- Node2&#45;&gt;Node4 -->
<g id="edge3_Node000002_Node000004" class="edge">
<title>Node2&#45;&gt;Node4</title>
<g id="a_edge3_Node000002_Node000004"><a xlink:title=" ">
<path fill="none" stroke="#63b8ff" d="M342.3,-155.47C318.22,-145.43 290.89,-134.03 267.86,-124.42"/>
<polygon fill="#63b8ff" stroke="#63b8ff" points="340.82,-159.07 351.4,-159.69 343.52,-152.61 340.82,-159.07"/>
</a>
</g>
</g>
<!-- Node5 -->
<g id="Node000005" class="node">
<title>Node5</title>
<g id="a_Node000005"><a xlink:href="a00329_source.html" target="_top" xlink:title=" ">
<polygon fill="white" stroke="#666666" points="442.5,-124 306.5,-124 306.5,-80 442.5,-80 442.5,-124"/>
<text text-anchor="start" x="314.5" y="-110.5" font-family="Helvetica,sans-Serif" font-size="10.00">dab&#45;pwm&#45;configuration.X</text>
<text text-anchor="start" x="314.5" y="-98.5" font-family="Helvetica,sans-Serif" font-size="10.00">/sources/device/dev_current</text>
<text text-anchor="middle" x="374.5" y="-86.5" font-family="Helvetica,sans-Serif" font-size="10.00">_sensor.c</text>
</a>
</g>
</g>
<!-- Node2&#45;&gt;Node5 -->
<g id="edge4_Node000002_Node000005" class="edge">
<title>Node2&#45;&gt;Node5</title>
<g id="a_edge4_Node000002_Node000005"><a xlink:title=" ">
<path fill="none" stroke="#63b8ff" d="M391.74,-149.38C388.61,-140.94 385.29,-132.02 382.41,-124.29"/>
<polygon fill="#63b8ff" stroke="#63b8ff" points="388.81,-150.53 395.58,-158.69 395.37,-148.09 388.81,-150.53"/>
</a>
</g>
</g>
<!-- Node6 -->
<g id="Node000006" class="node">
<title>Node6</title>
<g id="a_Node000006"><a xlink:href="a00356_source.html" target="_top" xlink:title=" ">
<polygon fill="white" stroke="#666666" points="596.5,-118 460.5,-118 460.5,-86 596.5,-86 596.5,-118"/>
<text text-anchor="start" x="468.5" y="-104.5" font-family="Helvetica,sans-Serif" font-size="10.00">dab&#45;pwm&#45;configuration.X</text>
<text text-anchor="middle" x="528.5" y="-92.5" font-family="Helvetica,sans-Serif" font-size="10.00">/sources/device/dev_temp.h</text>
</a>
</g>
</g>
<!-- Node2&#45;&gt;Node6 -->
<g id="edge5_Node000002_Node000006" class="edge">
<title>Node2&#45;&gt;Node6</title>
<g id="a_edge5_Node000002_Node000006"><a xlink:title=" ">
<path fill="none" stroke="#63b8ff" d="M446.78,-153.99C465.89,-142.07 487.64,-128.5 503.9,-118.35"/>
<polygon fill="#63b8ff" stroke="#63b8ff" points="445.29,-151.42 438.66,-159.69 448.99,-157.36 445.29,-151.42"/>
</a>
</g>
</g>
<!-- Node2&#45;&gt;Node12 -->
<g id="edge11_Node000002_Node000012" class="edge">
<title>Node2&#45;&gt;Node12</title>
<g id="a_edge11_Node000002_Node000012"><a xlink:title=" ">
<path fill="none" stroke="#63b8ff" d="M477.78,-160.35C515.99,-149.65 563.29,-136.29 605.5,-124 608.55,-123.11 611.66,-122.2 614.81,-121.27"/>
<polygon fill="#63b8ff" stroke="#63b8ff" points="476.95,-157.23 468.26,-163.3 478.83,-163.97 476.95,-157.23"/>
</a>
</g>
</g>
<!-- Node7 -->
<g id="Node000007" class="node">
<title>Node7</title>
<g id="a_Node000007"><a xlink:href="a00083_source.html" target="_top" xlink:title=" ">
<polygon fill="white" stroke="#666666" points="303,-38 182,-38 182,-6 303,-6 303,-38"/>
<text text-anchor="start" x="190" y="-24.5" font-family="Helvetica,sans-Serif" font-size="10.00">dab&#45;pwm&#45;configuration.X</text>
<text text-anchor="middle" x="242.5" y="-12.5" font-family="Helvetica,sans-Serif" font-size="10.00">/main.c</text>
</a>
</g>
</g>
<!-- Node6&#45;&gt;Node7 -->
<g id="edge6_Node000006_Node000007" class="edge">
<title>Node6&#45;&gt;Node7</title>
<g id="a_edge6_Node000006_Node000007"><a xlink:title=" ">
<path fill="none" stroke="#63b8ff" d="M461.74,-82.73C458.28,-81.8 454.85,-80.89 451.5,-80 389.4,-63.55 373.36,-61.36 311.5,-44 305.23,-42.24 298.66,-40.33 292.17,-38.4"/>
<polygon fill="#63b8ff" stroke="#63b8ff" points="460.61,-86.32 471.17,-85.54 462.43,-79.56 460.61,-86.32"/>
</a>
</g>
</g>
<!-- Node8 -->
<g id="Node000008" class="node">
<title>Node8</title>
<g id="a_Node000008"><a xlink:href="a00086_source.html" target="_top" xlink:title=" ">
<polygon fill="white" stroke="#666666" points="442,-38 321,-38 321,-6 442,-6 442,-38"/>
<text text-anchor="start" x="329" y="-24.5" font-family="Helvetica,sans-Serif" font-size="10.00">dab&#45;pwm&#45;configuration.X</text>
<text text-anchor="middle" x="381.5" y="-12.5" font-family="Helvetica,sans-Serif" font-size="10.00">/main_tasks.c</text>
</a>
</g>
</g>
<!-- Node6&#45;&gt;Node8 -->
<g id="edge7_Node000006_Node000008" class="edge">
<title>Node6&#45;&gt;Node8</title>
<g id="a_edge7_Node000006_Node000008"><a xlink:title=" ">
<path fill="none" stroke="#63b8ff" d="M489.95,-80.55C465.07,-67.34 433.22,-50.44 410.48,-38.38"/>
<polygon fill="#63b8ff" stroke="#63b8ff" points="487.98,-83.99 498.46,-85.59 491.26,-77.81 487.98,-83.99"/>
</a>
</g>
</g>
<!-- Node9 -->
<g id="Node000009" class="node">
<title>Node9</title>
<g id="a_Node000009"><a xlink:href="a00293_source.html" target="_top" xlink:title=" ">
<polygon fill="white" stroke="#666666" points="597.25,-44 459.75,-44 459.75,0 597.25,0 597.25,-44"/>
<text text-anchor="start" x="467.75" y="-30.5" font-family="Helvetica,sans-Serif" font-size="10.00">dab&#45;pwm&#45;configuration.X</text>
<text text-anchor="start" x="467.75" y="-18.5" font-family="Helvetica,sans-Serif" font-size="10.00">/sources/app/app_PBV_dab</text>
<text text-anchor="middle" x="528.5" y="-6.5" font-family="Helvetica,sans-Serif" font-size="10.00">_frame_map.c</text>
</a>
</g>
</g>
<!-- Node6&#45;&gt;Node9 -->
<g id="edge8_Node000006_Node000009" class="edge">
<title>Node6&#45;&gt;Node9</title>
<g id="a_edge8_Node000006_Node000009"><a xlink:title=" ">
<path fill="none" stroke="#63b8ff" d="M528.5,-74.71C528.5,-64.8 528.5,-53.67 528.5,-44.28"/>
<polygon fill="#63b8ff" stroke="#63b8ff" points="525,-74.59 528.5,-84.59 532,-74.59 525,-74.59"/>
</a>
</g>
</g>
<!-- Node10 -->
<g id="Node000010" class="node">
<title>Node10</title>
<g id="a_Node000010"><a xlink:href="a00353_source.html" target="_top" xlink:title=" ">
<polygon fill="white" stroke="#666666" points="751.5,-38 615.5,-38 615.5,-6 751.5,-6 751.5,-38"/>
<text text-anchor="start" x="623.5" y="-24.5" font-family="Helvetica,sans-Serif" font-size="10.00">dab&#45;pwm&#45;configuration.X</text>
<text text-anchor="middle" x="683.5" y="-12.5" font-family="Helvetica,sans-Serif" font-size="10.00">/sources/device/dev_temp.c</text>
</a>
</g>
</g>
<!-- Node6&#45;&gt;Node10 -->
<g id="edge9_Node000006_Node000010" class="edge">
<title>Node6&#45;&gt;Node10</title>
<g id="a_edge9_Node000006_Node000010"><a xlink:title=" ">
<path fill="none" stroke="#63b8ff" d="M568.8,-80.72C595.09,-67.49 628.86,-50.5 652.94,-38.38"/>
<polygon fill="#63b8ff" stroke="#63b8ff" points="567.48,-77.97 560.12,-85.59 570.63,-84.22 567.48,-77.97"/>
</a>
</g>
</g>
<!-- Node11 -->
<g id="Node000011" class="node">
<title>Node11</title>
<g id="a_Node000011"><a xlink:href="a00359_source.html" target="_top" xlink:title=" ">
<polygon fill="white" stroke="#666666" points="891,-44 770,-44 770,0 891,0 891,-44"/>
<text text-anchor="start" x="778" y="-30.5" font-family="Helvetica,sans-Serif" font-size="10.00">dab&#45;pwm&#45;configuration.X</text>
<text text-anchor="start" x="778" y="-18.5" font-family="Helvetica,sans-Serif" font-size="10.00">/sources/device/fault</text>
<text text-anchor="middle" x="830.5" y="-6.5" font-family="Helvetica,sans-Serif" font-size="10.00">/dev_fault.c</text>
</a>
</g>
</g>
<!-- Node6&#45;&gt;Node11 -->
<g id="edge10_Node000006_Node000011" class="edge">
<title>Node6&#45;&gt;Node11</title>
<g id="a_edge10_Node000006_Node000011"><a xlink:title=" ">
<path fill="none" stroke="#63b8ff" d="M595.56,-82.79C599.26,-81.84 602.92,-80.9 606.5,-80 674.67,-62.86 692.58,-62.11 760.5,-44 763.56,-43.18 766.7,-42.33 769.86,-41.44"/>
<polygon fill="#63b8ff" stroke="#63b8ff" points="594.89,-79.61 586.1,-85.52 596.66,-86.38 594.89,-79.61"/>
</a>
</g>
</g>
<!-- Node13&#45;&gt;Node2 -->
<g id="edge13_Node000013_Node000002" class="edge">
<title>Node13&#45;&gt;Node2</title>
<g id="a_edge13_Node000013_Node000002"><a xlink:title=" ">
<path fill="none" stroke="#63b8ff" d="M462.15,-232.72C451.08,-223.34 438.95,-213.06 428.61,-204.29"/>
<polygon fill="#63b8ff" stroke="#63b8ff" points="459.47,-235.89 469.36,-239.69 464,-230.55 459.47,-235.89"/>
</a>
</g>
</g>
</g>
</svg>
