<?xml version="1.0" encoding="UTF-8" standalone="no"?>
<!DOCTYPE svg PUBLIC "-//W3C//DTD SVG 1.1//EN"
 "http://www.w3.org/Graphics/SVG/1.1/DTD/svg11.dtd">
<!-- Generated by graphviz version 8.1.0 (20230707.0739)
 -->
<!-- Title: dspic33ck&#45;dab.X/mcc_generated_files/crc/crc_types.h Pages: 1 -->
<svg width="399pt" height="280pt"
 viewBox="0.00 0.00 398.88 280.00" xmlns="http://www.w3.org/2000/svg" xmlns:xlink="http://www.w3.org/1999/xlink">

<svg id="main" version="1.1" xmlns="http://www.w3.org/2000/svg" xmlns:xlink="http://www.w3.org/1999/xlink" xml:space="preserve" onload="init(evt)">
<style type="text/css"><![CDATA[
.node, .edge {opacity: 0.7;}
.node.selected, .edge.selected {opacity: 1;}
.edge:hover path { stroke: red; }
.edge:hover polygon { stroke: red; fill: red; }
]]></style>
<script type="application/ecmascript" xlink:href="svg.min.js"/>
<svg id="graph" class="graph">
<g id="graph0" class="graph" transform="scale(1 1) rotate(0) translate(4 276)">
<title>dspic33ck&#45;dab.X/mcc_generated_files/crc/crc_types.h</title>
<!-- Node1 -->
<g id="Node000001" class="node">
<title>Node1</title>
<g id="a_Node000001"><a xlink:title="This is the generated driver types header file for the CRC driver.">
<polygon fill="#999999" stroke="#666666" points="242,-272 133,-272 133,-228 242,-228 242,-272"/>
<text text-anchor="start" x="141" y="-258.5" font-family="Helvetica,sans-Serif" font-size="10.00">dspic33ck&#45;dab.X/mcc</text>
<text text-anchor="start" x="141" y="-246.5" font-family="Helvetica,sans-Serif" font-size="10.00">_generated_files/crc</text>
<text text-anchor="middle" x="187.5" y="-234.5" font-family="Helvetica,sans-Serif" font-size="10.00">/crc_types.h</text>
</a>
</g>
</g>
<!-- Node2 -->
<g id="Node000002" class="node">
<title>Node2</title>
<g id="a_Node000002"><a xlink:href="a00146.html" target="_top" xlink:title="This is the generated driver header file for the CRC driver.">
<polygon fill="white" stroke="#666666" points="251.38,-112 123.62,-112 123.62,-80 251.38,-80 251.38,-112"/>
<text text-anchor="start" x="131.62" y="-98.5" font-family="Helvetica,sans-Serif" font-size="10.00">dspic33ck&#45;dab.X/mcc</text>
<text text-anchor="middle" x="187.5" y="-86.5" font-family="Helvetica,sans-Serif" font-size="10.00">_generated_files/crc/crc.h</text>
</a>
</g>
</g>
<!-- Node1&#45;&gt;Node2 -->
<g id="edge1_Node000001_Node000002" class="edge">
<title>Node1&#45;&gt;Node2</title>
<g id="a_edge1_Node000001_Node000002"><a xlink:title=" ">
<path fill="none" stroke="#63b8ff" d="M172.96,-217.45C169.88,-209.33 167.08,-200.48 165.5,-192 161.92,-172.78 161.55,-167.15 165.5,-148 168.11,-135.35 174.02,-121.97 179.05,-112.09"/>
<polygon fill="#63b8ff" stroke="#63b8ff" points="170.09,-218.68 177.1,-226.63 176.57,-216.04 170.09,-218.68"/>
</a>
</g>
</g>
<!-- Node6 -->
<g id="Node000006" class="node">
<title>Node6</title>
<g id="a_Node000006"><a xlink:href="a00149_source.html" target="_top" xlink:title=" ">
<polygon fill="white" stroke="#666666" points="284,-192 175,-192 175,-148 284,-148 284,-192"/>
<text text-anchor="start" x="183" y="-178.5" font-family="Helvetica,sans-Serif" font-size="10.00">dspic33ck&#45;dab.X/mcc</text>
<text text-anchor="start" x="183" y="-166.5" font-family="Helvetica,sans-Serif" font-size="10.00">_generated_files/crc</text>
<text text-anchor="middle" x="229.5" y="-154.5" font-family="Helvetica,sans-Serif" font-size="10.00">/crc_interface.h</text>
</a>
</g>
</g>
<!-- Node1&#45;&gt;Node6 -->
<g id="edge5_Node000001_Node000006" class="edge">
<title>Node1&#45;&gt;Node6</title>
<g id="a_edge5_Node000001_Node000006"><a xlink:title=" ">
<path fill="none" stroke="#63b8ff" d="M204.07,-218.22C208.75,-209.54 213.73,-200.28 218.04,-192.29"/>
<polygon fill="#63b8ff" stroke="#63b8ff" points="200.64,-216.22 198.98,-226.69 206.8,-219.54 200.64,-216.22"/>
</a>
</g>
</g>
<!-- Node3 -->
<g id="Node000003" class="node">
<title>Node3</title>
<g id="a_Node000003"><a xlink:href="a00155_source.html" target="_top" xlink:title=" ">
<polygon fill="white" stroke="#666666" points="109,-44 0,-44 0,0 109,0 109,-44"/>
<text text-anchor="start" x="8" y="-30.5" font-family="Helvetica,sans-Serif" font-size="10.00">dspic33ck&#45;dab.X/mcc</text>
<text text-anchor="start" x="8" y="-18.5" font-family="Helvetica,sans-Serif" font-size="10.00">_generated_files/crc</text>
<text text-anchor="middle" x="54.5" y="-6.5" font-family="Helvetica,sans-Serif" font-size="10.00">/src/crc.c</text>
</a>
</g>
</g>
<!-- Node2&#45;&gt;Node3 -->
<g id="edge2_Node000002_Node000003" class="edge">
<title>Node2&#45;&gt;Node3</title>
<g id="a_edge2_Node000002_Node000003"><a xlink:title=" ">
<path fill="none" stroke="#63b8ff" d="M149.68,-74.53C132.3,-65.12 111.68,-53.95 94.08,-44.43"/>
<polygon fill="#63b8ff" stroke="#63b8ff" points="147.51,-77.87 157.97,-79.55 150.84,-71.72 147.51,-77.87"/>
</a>
</g>
</g>
<!-- Node4 -->
<g id="Node000004" class="node">
<title>Node4</title>
<g id="a_Node000004"><a xlink:href="a00227.html" target="_top" xlink:title="This is the generated driver header file for the System driver.">
<polygon fill="white" stroke="#666666" points="248.38,-44 126.62,-44 126.62,0 248.38,0 248.38,-44"/>
<text text-anchor="start" x="134.62" y="-30.5" font-family="Helvetica,sans-Serif" font-size="10.00">dspic33ck&#45;dab.X/mcc</text>
<text text-anchor="start" x="134.62" y="-18.5" font-family="Helvetica,sans-Serif" font-size="10.00">_generated_files/system</text>
<text text-anchor="middle" x="187.5" y="-6.5" font-family="Helvetica,sans-Serif" font-size="10.00">/src/system.c</text>
</a>
</g>
</g>
<!-- Node2&#45;&gt;Node4 -->
<g id="edge3_Node000002_Node000004" class="edge">
<title>Node2&#45;&gt;Node4</title>
<g id="a_edge3_Node000002_Node000004"><a xlink:title=" ">
<path fill="none" stroke="#63b8ff" d="M187.5,-68.94C187.5,-60.84 187.5,-52 187.5,-44.26"/>
<polygon fill="#63b8ff" stroke="#63b8ff" points="184,-68.73 187.5,-78.73 191,-68.73 184,-68.73"/>
</a>
</g>
</g>
<!-- Node5 -->
<g id="Node000005" class="node">
<title>Node5</title>
<g id="a_Node000005"><a xlink:href="a00296_source.html" target="_top" xlink:title=" ">
<polygon fill="white" stroke="#666666" points="390.88,-38 266.12,-38 266.12,-6 390.88,-6 390.88,-38"/>
<text text-anchor="start" x="274.12" y="-24.5" font-family="Helvetica,sans-Serif" font-size="10.00">dspic33ck&#45;dab.X/sources</text>
<text text-anchor="middle" x="328.5" y="-12.5" font-family="Helvetica,sans-Serif" font-size="10.00">/comm/PBV_UART.c</text>
</a>
</g>
</g>
<!-- Node2&#45;&gt;Node5 -->
<g id="edge4_Node000002_Node000005" class="edge">
<title>Node2&#45;&gt;Node5</title>
<g id="a_edge4_Node000002_Node000005"><a xlink:title=" ">
<path fill="none" stroke="#63b8ff" d="M227.37,-74.64C249.89,-63.14 277.59,-49 298.3,-38.42"/>
<polygon fill="#63b8ff" stroke="#63b8ff" points="226.06,-71.89 218.75,-79.55 229.25,-78.12 226.06,-71.89"/>
</a>
</g>
</g>
<!-- Node6&#45;&gt;Node2 -->
<g id="edge6_Node000006_Node000002" class="edge">
<title>Node6&#45;&gt;Node2</title>
<g id="a_edge6_Node000006_Node000002"><a xlink:title=" ">
<path fill="none" stroke="#63b8ff" d="M211.74,-138.55C206.41,-129.42 200.8,-119.81 196.32,-112.13"/>
<polygon fill="#63b8ff" stroke="#63b8ff" points="209.06,-139.91 217.13,-146.79 215.11,-136.39 209.06,-139.91"/>
</a>
</g>
</g>
</g>
</svg>
</svg>

<style type='text/css'>
<![CDATA[
[data-mouse-over-selected='false'] { opacity: 0.7; }
[data-mouse-over-selected='true']  { opacity: 1.0; }
]]>
</style>
<script type="application/ecmascript"><![CDATA[
document.addEventListener('DOMContentLoaded', (event) => {
  highlightEdges();
  highlightAdjacentNodes();
});
]]></script>
</svg>
