<?xml version="1.0" encoding="UTF-8" standalone="no"?>
<!DOCTYPE svg PUBLIC "-//W3C//DTD SVG 1.1//EN"
 "http://www.w3.org/Graphics/SVG/1.1/DTD/svg11.dtd">
<!-- Generated by graphviz version 8.1.0 (20230707.0739)
 -->
<!-- Title: dspic33ck&#45;dab.X/mcc_generated_files/pwm/sccp3.h Pages: 1 -->
<svg width="764pt" height="268pt"
 viewBox="0.00 0.00 764.25 268.00" xmlns="http://www.w3.org/2000/svg" xmlns:xlink="http://www.w3.org/1999/xlink">
<g id="graph0" class="graph" transform="scale(1 1) rotate(0) translate(4 264)">
<title>dspic33ck&#45;dab.X/mcc_generated_files/pwm/sccp3.h</title>
<!-- Node1 -->
<g id="Node000001" class="node">
<title>Node1</title>
<g id="a_Node000001"><a xlink:title="This is the generated driver header file for the SCCP3 driver.">
<polygon fill="#999999" stroke="#666666" points="243.75,-260 134,-260 134,-216 243.75,-216 243.75,-260"/>
<text text-anchor="start" x="142" y="-246.5" font-family="Helvetica,sans-Serif" font-size="10.00">dspic33ck&#45;dab.X/mcc</text>
<text text-anchor="start" x="142" y="-234.5" font-family="Helvetica,sans-Serif" font-size="10.00">_generated_files/pwm</text>
<text text-anchor="middle" x="188.88" y="-222.5" font-family="Helvetica,sans-Serif" font-size="10.00">/sccp3.h</text>
</a>
</g>
</g>
<!-- Node2 -->
<g id="Node000002" class="node">
<title>Node2</title>
<g id="a_Node000002"><a xlink:href="a00149.html" target="_top" xlink:title="This is the generated driver source file for SCCP3 driver.">
<polygon fill="white" stroke="#666666" points="109.75,-180 0,-180 0,-136 109.75,-136 109.75,-180"/>
<text text-anchor="start" x="8" y="-166.5" font-family="Helvetica,sans-Serif" font-size="10.00">dspic33ck&#45;dab.X/mcc</text>
<text text-anchor="start" x="8" y="-154.5" font-family="Helvetica,sans-Serif" font-size="10.00">_generated_files/pwm</text>
<text text-anchor="middle" x="54.88" y="-142.5" font-family="Helvetica,sans-Serif" font-size="10.00">/src/sccp3.c</text>
</a>
</g>
</g>
<!-- Node1&#45;&gt;Node2 -->
<g id="edge1_Node000001_Node000002" class="edge">
<title>Node1&#45;&gt;Node2</title>
<g id="a_edge1_Node000001_Node000002"><a xlink:title=" ">
<path fill="none" stroke="#63b8ff" d="M143.13,-210.37C126.26,-200.55 107.39,-189.57 91.45,-180.29"/>
<polygon fill="#63b8ff" stroke="#63b8ff" points="140.86,-213.68 151.26,-215.69 144.38,-207.63 140.86,-213.68"/>
</a>
</g>
</g>
<!-- Node3 -->
<g id="Node000003" class="node">
<title>Node3</title>
<g id="a_Node000003"><a xlink:href="a00209.html" target="_top" xlink:title="This is the generated driver header file for the System driver.">
<polygon fill="white" stroke="#666666" points="249.75,-180 128,-180 128,-136 249.75,-136 249.75,-180"/>
<text text-anchor="start" x="136" y="-166.5" font-family="Helvetica,sans-Serif" font-size="10.00">dspic33ck&#45;dab.X/mcc</text>
<text text-anchor="start" x="136" y="-154.5" font-family="Helvetica,sans-Serif" font-size="10.00">_generated_files/system</text>
<text text-anchor="middle" x="188.88" y="-142.5" font-family="Helvetica,sans-Serif" font-size="10.00">/src/system.c</text>
</a>
</g>
</g>
<!-- Node1&#45;&gt;Node3 -->
<g id="edge2_Node000001_Node000003" class="edge">
<title>Node1&#45;&gt;Node3</title>
<g id="a_edge2_Node000001_Node000003"><a xlink:title=" ">
<path fill="none" stroke="#63b8ff" d="M188.88,-204.82C188.88,-196.54 188.88,-187.85 188.88,-180.29"/>
<polygon fill="#63b8ff" stroke="#63b8ff" points="185.38,-204.69 188.88,-214.69 192.38,-204.69 185.38,-204.69"/>
</a>
</g>
</g>
<!-- Node4 -->
<g id="Node000004" class="node">
<title>Node4</title>
<g id="a_Node000004"><a xlink:href="a00314.html" target="_top" xlink:title="fan device driver">
<polygon fill="white" stroke="#666666" points="392.25,-174 267.5,-174 267.5,-142 392.25,-142 392.25,-174"/>
<text text-anchor="start" x="275.5" y="-160.5" font-family="Helvetica,sans-Serif" font-size="10.00">dspic33ck&#45;dab.X/sources</text>
<text text-anchor="middle" x="329.88" y="-148.5" font-family="Helvetica,sans-Serif" font-size="10.00">/device/dev_fan.h</text>
</a>
</g>
</g>
<!-- Node1&#45;&gt;Node4 -->
<g id="edge3_Node000001_Node000004" class="edge">
<title>Node1&#45;&gt;Node4</title>
<g id="a_edge3_Node000001_Node000004"><a xlink:title=" ">
<path fill="none" stroke="#63b8ff" d="M236.82,-210.48C258.58,-198.44 283.53,-184.64 302.12,-174.35"/>
<polygon fill="#63b8ff" stroke="#63b8ff" points="235.46,-207.78 228.4,-215.69 238.85,-213.91 235.46,-207.78"/>
</a>
</g>
</g>
<!-- Node5 -->
<g id="Node000005" class="node">
<title>Node5</title>
<g id="a_Node000005"><a xlink:href="a00065_source.html" target="_top" xlink:title=" ">
<polygon fill="white" stroke="#666666" points="249.5,-100 138.25,-100 138.25,-68 249.5,-68 249.5,-100"/>
<text text-anchor="start" x="146.25" y="-86.5" font-family="Helvetica,sans-Serif" font-size="10.00">dspic33ck&#45;dab.X/main</text>
<text text-anchor="middle" x="193.88" y="-74.5" font-family="Helvetica,sans-Serif" font-size="10.00">_tasks.c</text>
</a>
</g>
</g>
<!-- Node4&#45;&gt;Node5 -->
<g id="edge4_Node000004_Node000005" class="edge">
<title>Node4&#45;&gt;Node5</title>
<g id="a_edge4_Node000004_Node000005"><a xlink:title=" ">
<path fill="none" stroke="#63b8ff" d="M291.13,-136.49C269.46,-125.01 242.89,-110.95 223,-100.42"/>
<polygon fill="#63b8ff" stroke="#63b8ff" points="289.22,-139.97 299.7,-141.55 292.5,-133.78 289.22,-139.97"/>
</a>
</g>
</g>
<!-- Node6 -->
<g id="Node000006" class="node">
<title>Node6</title>
<g id="a_Node000006"><a xlink:href="a00311.html" target="_top" xlink:title="Contains fan initialization and execution functions.">
<polygon fill="white" stroke="#666666" points="392.25,-100 267.5,-100 267.5,-68 392.25,-68 392.25,-100"/>
<text text-anchor="start" x="275.5" y="-86.5" font-family="Helvetica,sans-Serif" font-size="10.00">dspic33ck&#45;dab.X/sources</text>
<text text-anchor="middle" x="329.88" y="-74.5" font-family="Helvetica,sans-Serif" font-size="10.00">/device/dev_fan.c</text>
</a>
</g>
</g>
<!-- Node4&#45;&gt;Node6 -->
<g id="edge5_Node000004_Node000006" class="edge">
<title>Node4&#45;&gt;Node6</title>
<g id="a_edge5_Node000004_Node000006"><a xlink:title=" ">
<path fill="none" stroke="#63b8ff" d="M329.88,-130.82C329.88,-120.55 329.88,-109.12 329.88,-100.25"/>
<polygon fill="#63b8ff" stroke="#63b8ff" points="326.38,-130.73 329.88,-140.73 333.38,-130.73 326.38,-130.73"/>
</a>
</g>
</g>
<!-- Node7 -->
<g id="Node000007" class="node">
<title>Node7</title>
<g id="a_Node000007"><a xlink:href="a00302.html" target="_top" xlink:title="Contains h files that are part of device layer.">
<polygon fill="white" stroke="#666666" points="535.25,-100 410.5,-100 410.5,-68 535.25,-68 535.25,-100"/>
<text text-anchor="start" x="418.5" y="-86.5" font-family="Helvetica,sans-Serif" font-size="10.00">dspic33ck&#45;dab.X/sources</text>
<text text-anchor="middle" x="472.88" y="-74.5" font-family="Helvetica,sans-Serif" font-size="10.00">/device/device.h</text>
</a>
</g>
</g>
<!-- Node4&#45;&gt;Node7 -->
<g id="edge6_Node000004_Node000007" class="edge">
<title>Node4&#45;&gt;Node7</title>
<g id="a_edge6_Node000004_Node000007"><a xlink:title=" ">
<path fill="none" stroke="#63b8ff" d="M370.31,-136.64C393.15,-125.14 421.24,-111 442.25,-100.42"/>
<polygon fill="#63b8ff" stroke="#63b8ff" points="368.91,-133.93 361.55,-141.55 372.06,-140.18 368.91,-133.93"/>
</a>
</g>
</g>
<!-- Node8 -->
<g id="Node000008" class="node">
<title>Node8</title>
<g id="a_Node000008"><a xlink:href="a00062_source.html" target="_top" xlink:title=" ">
<polygon fill="white" stroke="#666666" points="300.62,-26 181.12,-26 181.12,-6 300.62,-6 300.62,-26"/>
<text text-anchor="middle" x="240.88" y="-12.5" font-family="Helvetica,sans-Serif" font-size="10.00">dspic33ck&#45;dab.X/main.c</text>
</a>
</g>
</g>
<!-- Node7&#45;&gt;Node8 -->
<g id="edge7_Node000007_Node000008" class="edge">
<title>Node7&#45;&gt;Node8</title>
<g id="a_edge7_Node000007_Node000008"><a xlink:title=" ">
<path fill="none" stroke="#63b8ff" d="M407.98,-64.54C364.45,-52.16 308.93,-36.36 274.13,-26.46"/>
<polygon fill="#63b8ff" stroke="#63b8ff" points="406.91,-68.16 417.48,-67.53 408.82,-61.42 406.91,-68.16"/>
</a>
</g>
</g>
<!-- Node9 -->
<g id="Node000009" class="node">
<title>Node9</title>
<g id="a_Node000009"><a xlink:href="a00266_source.html" target="_top" xlink:title=" ">
<polygon fill="white" stroke="#666666" points="470.75,-32 319,-32 319,0 470.75,0 470.75,-32"/>
<text text-anchor="start" x="327" y="-18.5" font-family="Helvetica,sans-Serif" font-size="10.00">dspic33ck&#45;dab.X/sources</text>
<text text-anchor="middle" x="394.88" y="-6.5" font-family="Helvetica,sans-Serif" font-size="10.00">/comm/PBV_dab_frame_map.c</text>
</a>
</g>
</g>
<!-- Node7&#45;&gt;Node9 -->
<g id="edge8_Node000007_Node000009" class="edge">
<title>Node7&#45;&gt;Node9</title>
<g id="a_edge8_Node000007_Node000009"><a xlink:title=" ">
<path fill="none" stroke="#63b8ff" d="M446.4,-60.6C435.46,-51.34 423.04,-40.83 413.14,-32.45"/>
<polygon fill="#63b8ff" stroke="#63b8ff" points="443.89,-63.9 453.78,-67.69 448.41,-58.56 443.89,-63.9"/>
</a>
</g>
</g>
<!-- Node10 -->
<g id="Node000010" class="node">
<title>Node10</title>
<g id="a_Node000010"><a xlink:href="a00362.html" target="_top" xlink:title="Contains fault functions including the fault handler, fault object initialization and fault execution...">
<polygon fill="white" stroke="#666666" points="613.25,-32 488.5,-32 488.5,0 613.25,0 613.25,-32"/>
<text text-anchor="start" x="496.5" y="-18.5" font-family="Helvetica,sans-Serif" font-size="10.00">dspic33ck&#45;dab.X/sources</text>
<text text-anchor="middle" x="550.88" y="-6.5" font-family="Helvetica,sans-Serif" font-size="10.00">/fault/fault.c</text>
</a>
</g>
</g>
<!-- Node7&#45;&gt;Node10 -->
<g id="edge9_Node000007_Node000010" class="edge">
<title>Node7&#45;&gt;Node10</title>
<g id="a_edge9_Node000007_Node000010"><a xlink:title=" ">
<path fill="none" stroke="#63b8ff" d="M499.35,-60.6C510.29,-51.34 522.71,-40.83 532.61,-32.45"/>
<polygon fill="#63b8ff" stroke="#63b8ff" points="497.34,-58.56 491.97,-67.69 501.86,-63.9 497.34,-58.56"/>
</a>
</g>
</g>
<!-- Node11 -->
<g id="Node000011" class="node">
<title>Node11</title>
<g id="a_Node000011"><a xlink:href="a00476.html" target="_top" xlink:title="Contains power control state machine functions that is executed every 100us.">
<polygon fill="white" stroke="#666666" points="756.25,-32 631.5,-32 631.5,0 756.25,0 756.25,-32"/>
<text text-anchor="start" x="639.5" y="-18.5" font-family="Helvetica,sans-Serif" font-size="10.00">dspic33ck&#45;dab.X/sources</text>
<text text-anchor="middle" x="693.88" y="-6.5" font-family="Helvetica,sans-Serif" font-size="10.00">/pwrctrl/pwrctrl_sm.c</text>
</a>
</g>
</g>
<!-- Node7&#45;&gt;Node11 -->
<g id="edge10_Node000007_Node000011" class="edge">
<title>Node7&#45;&gt;Node11</title>
<g id="a_edge10_Node000007_Node000011"><a xlink:title=" ">
<path fill="none" stroke="#63b8ff" d="M534.91,-64.47C568.67,-54.39 609.96,-42.06 642,-32.49"/>
<polygon fill="#63b8ff" stroke="#63b8ff" points="534.27,-61.31 525.69,-67.53 536.27,-68.02 534.27,-61.31"/>
</a>
</g>
</g>
</g>
</svg>
