<?xml version="1.0" encoding="UTF-8" standalone="no"?>
<!DOCTYPE svg PUBLIC "-//W3C//DTD SVG 1.1//EN"
 "http://www.w3.org/Graphics/SVG/1.1/DTD/svg11.dtd">
<!-- Generated by graphviz version 8.1.0 (20230707.0739)
 -->
<!-- Title: dab&#45;pwm&#45;configuration.X/mcc_generated_files/pwm/src/sccp3.c Pages: 1 -->
<svg width="260pt" height="220pt"
 viewBox="0.00 0.00 259.62 220.00" xmlns="http://www.w3.org/2000/svg" xmlns:xlink="http://www.w3.org/1999/xlink">

<svg id="main" version="1.1" xmlns="http://www.w3.org/2000/svg" xmlns:xlink="http://www.w3.org/1999/xlink" xml:space="preserve" onload="init(evt)">
<style type="text/css"><![CDATA[
.node, .edge {opacity: 0.7;}
.node.selected, .edge.selected {opacity: 1;}
.edge:hover path { stroke: red; }
.edge:hover polygon { stroke: red; fill: red; }
]]></style>
<script type="application/ecmascript" xlink:href="svg.min.js"/>
<svg id="graph" class="graph">
<g id="graph0" class="graph" transform="scale(1 1) rotate(0) translate(4 216)">
<title>dab&#45;pwm&#45;configuration.X/mcc_generated_files/pwm/src/sccp3.c</title>
<!-- Node1 -->
<g id="Node000001" class="node">
<title>Node1</title>
<g id="a_Node000001"><a xlink:title="This is the generated driver source file for SCCP3 driver.">
<polygon fill="#999999" stroke="#666666" points="131.5,-212 0,-212 0,-168 131.5,-168 131.5,-212"/>
<text text-anchor="start" x="8" y="-198.5" font-family="Helvetica,sans-Serif" font-size="10.00">dab&#45;pwm&#45;configuration.X</text>
<text text-anchor="start" x="8" y="-186.5" font-family="Helvetica,sans-Serif" font-size="10.00">/mcc_generated_files/pwm</text>
<text text-anchor="middle" x="65.75" y="-174.5" font-family="Helvetica,sans-Serif" font-size="10.00">/src/sccp3.c</text>
</a>
</g>
</g>
<!-- Node2 -->
<g id="Node000002" class="node">
<title>Node2</title>
<g id="a_Node000002"><a xlink:title=" ">
<polygon fill="#e0e0e0" stroke="#999999" points="38.12,-132 3.38,-132 3.38,-112 38.12,-112 38.12,-132"/>
<text text-anchor="middle" x="20.75" y="-118.5" font-family="Helvetica,sans-Serif" font-size="10.00">xc.h</text>
</a>
</g>
</g>
<!-- Node1&#45;&gt;Node2 -->
<g id="edge1_Node000001_Node000002" class="edge">
<title>Node1&#45;&gt;Node2</title>
<g id="a_edge1_Node000001_Node000002"><a xlink:title=" ">
<path fill="none" stroke="#63b8ff" d="M51.26,-167.75C45.49,-159.29 38.91,-149.64 33.34,-141.47"/>
<polygon fill="#63b8ff" stroke="#63b8ff" points="35.7,-139.71 27.17,-133.42 29.91,-143.65 35.7,-139.71"/>
</a>
</g>
</g>
<!-- Node3 -->
<g id="Node000003" class="node">
<title>Node3</title>
<g id="a_Node000003"><a xlink:title=" ">
<polygon fill="#e0e0e0" stroke="#999999" points="129,-20 78.5,-20 78.5,0 129,0 129,-20"/>
<text text-anchor="middle" x="103.75" y="-6.5" font-family="Helvetica,sans-Serif" font-size="10.00">stddef.h</text>
</a>
</g>
</g>
<!-- Node1&#45;&gt;Node3 -->
<g id="edge2_Node000001_Node000003" class="edge">
<title>Node1&#45;&gt;Node3</title>
<g id="a_edge2_Node000001_Node000003"><a xlink:title=" ">
<path fill="none" stroke="#63b8ff" d="M70.33,-167.53C77.75,-132.78 92.29,-64.7 99.49,-30.95"/>
<polygon fill="#63b8ff" stroke="#63b8ff" points="103.12,-31.7 101.79,-21.19 96.28,-30.24 103.12,-31.7"/>
</a>
</g>
</g>
<!-- Node4 -->
<g id="Node000004" class="node">
<title>Node4</title>
<g id="a_Node000004"><a xlink:href="a00125.html" target="_top" xlink:title="This is the generated driver header file for the SCCP3 driver.">
<polygon fill="white" stroke="#666666" points="178.5,-132 119,-132 119,-112 178.5,-112 178.5,-132"/>
<text text-anchor="middle" x="148.75" y="-118.5" font-family="Helvetica,sans-Serif" font-size="10.00">../sccp3.h</text>
</a>
</g>
</g>
<!-- Node1&#45;&gt;Node4 -->
<g id="edge3_Node000001_Node000004" class="edge">
<title>Node1&#45;&gt;Node4</title>
<g id="a_edge3_Node000001_Node000004"><a xlink:title=" ">
<path fill="none" stroke="#63b8ff" d="M92.47,-167.75C104.17,-158.45 117.67,-147.71 128.52,-139.09"/>
<polygon fill="#63b8ff" stroke="#63b8ff" points="130.26,-141.38 135.9,-132.42 125.9,-135.9 130.26,-141.38"/>
</a>
</g>
</g>
<!-- Node4&#45;&gt;Node3 -->
<g id="edge4_Node000004_Node000003" class="edge">
<title>Node4&#45;&gt;Node3</title>
<g id="a_edge4_Node000004_Node000003"><a xlink:title=" ">
<path fill="none" stroke="#63b8ff" d="M142.48,-111.69C136.73,-102.82 128.29,-88.94 122.75,-76 116.45,-61.27 111.47,-43.8 108.2,-30.69"/>
<polygon fill="#63b8ff" stroke="#63b8ff" points="111.39,-29.99 105.67,-21.07 104.58,-31.6 111.39,-29.99"/>
</a>
</g>
</g>
<!-- Node5 -->
<g id="Node000005" class="node">
<title>Node5</title>
<g id="a_Node000005"><a xlink:href="a00119_source.html" target="_top" xlink:title=" ">
<polygon fill="white" stroke="#666666" points="218,-76 131.5,-76 131.5,-56 218,-56 218,-76"/>
<text text-anchor="middle" x="174.75" y="-62.5" font-family="Helvetica,sans-Serif" font-size="10.00">pwm_interface.h</text>
</a>
</g>
</g>
<!-- Node4&#45;&gt;Node5 -->
<g id="edge5_Node000004_Node000005" class="edge">
<title>Node4&#45;&gt;Node5</title>
<g id="a_edge5_Node000004_Node000005"><a xlink:title=" ">
<path fill="none" stroke="#63b8ff" d="M153.28,-111.59C156.67,-104.55 161.43,-94.67 165.6,-86"/>
<polygon fill="#63b8ff" stroke="#63b8ff" points="169.09,-87.83 170.27,-77.3 162.78,-84.79 169.09,-87.83"/>
</a>
</g>
</g>
<!-- Node6 -->
<g id="Node000006" class="node">
<title>Node6</title>
<g id="a_Node000006"><a xlink:href="a00122.html" target="_top" xlink:title="This is the generated driver types header file for the PWM driver.">
<polygon fill="white" stroke="#666666" points="251.62,-20 177.88,-20 177.88,0 251.62,0 251.62,-20"/>
<text text-anchor="middle" x="214.75" y="-6.5" font-family="Helvetica,sans-Serif" font-size="10.00">pwm_types.h</text>
</a>
</g>
</g>
<!-- Node4&#45;&gt;Node6 -->
<g id="edge8_Node000004_Node000006" class="edge">
<title>Node4&#45;&gt;Node6</title>
<g id="a_edge8_Node000004_Node000006"><a xlink:title=" ">
<path fill="none" stroke="#63b8ff" d="M178.66,-112.13C196.01,-105.28 216.43,-93.87 226.75,-76 234.81,-62.04 230.41,-43.84 224.8,-30.24"/>
<polygon fill="#63b8ff" stroke="#63b8ff" points="227.66,-29.08 220.26,-21.5 221.31,-32.04 227.66,-29.08"/>
</a>
</g>
</g>
<!-- Node5&#45;&gt;Node3 -->
<g id="edge6_Node000005_Node000003" class="edge">
<title>Node5&#45;&gt;Node3</title>
<g id="a_edge6_Node000005_Node000003"><a xlink:title=" ">
<path fill="none" stroke="#63b8ff" d="M162.38,-55.59C152,-47.7 136.94,-36.24 124.68,-26.92"/>
<polygon fill="#63b8ff" stroke="#63b8ff" points="127.05,-23.57 116.98,-20.3 122.82,-29.14 127.05,-23.57"/>
</a>
</g>
</g>
<!-- Node5&#45;&gt;Node6 -->
<g id="edge7_Node000005_Node000006" class="edge">
<title>Node5&#45;&gt;Node6</title>
<g id="a_edge7_Node000005_Node000006"><a xlink:title=" ">
<path fill="none" stroke="#63b8ff" d="M181.72,-55.59C187.17,-48.24 194.9,-37.8 201.52,-28.87"/>
<polygon fill="#63b8ff" stroke="#63b8ff" points="204.72,-31.42 207.86,-21.3 199.1,-27.25 204.72,-31.42"/>
</a>
</g>
</g>
</g>
</svg>
</svg>

<style type='text/css'>
<![CDATA[
[data-mouse-over-selected='false'] { opacity: 0.7; }
[data-mouse-over-selected='true']  { opacity: 1.0; }
]]>
</style>
<script type="application/ecmascript"><![CDATA[
document.addEventListener('DOMContentLoaded', (event) => {
  highlightEdges();
  highlightAdjacentNodes();
});
]]></script>
</svg>
