<?xml version="1.0" encoding="UTF-8" standalone="no"?>
<!DOCTYPE svg PUBLIC "-//W3C//DTD SVG 1.1//EN"
 "http://www.w3.org/Graphics/SVG/1.1/DTD/svg11.dtd">
<!-- Generated by graphviz version 8.1.0 (20230707.0739)
 -->
<!-- Title: dspic33ck&#45;dab.X/mcc_generated_files/cmp/cmp3.h Pages: 1 -->
<svg width="132pt" height="164pt"
 viewBox="0.00 0.00 132.12 164.00" xmlns="http://www.w3.org/2000/svg" xmlns:xlink="http://www.w3.org/1999/xlink">
<g id="graph0" class="graph" transform="scale(1 1) rotate(0) translate(4 160)">
<title>dspic33ck&#45;dab.X/mcc_generated_files/cmp/cmp3.h</title>
<!-- Node1 -->
<g id="Node000001" class="node">
<title>Node1</title>
<g id="a_Node000001"><a xlink:title="This is the generated driver header file for the CMP3 driver.">
<polygon fill="#999999" stroke="#666666" points="115.75,-156 6.75,-156 6.75,-112 115.75,-112 115.75,-156"/>
<text text-anchor="start" x="14.75" y="-142.5" font-family="Helvetica,sans-Serif" font-size="10.00">dspic33ck&#45;dab.X/mcc</text>
<text text-anchor="start" x="14.75" y="-130.5" font-family="Helvetica,sans-Serif" font-size="10.00">_generated_files/cmp</text>
<text text-anchor="middle" x="61.25" y="-118.5" font-family="Helvetica,sans-Serif" font-size="10.00">/cmp3.h</text>
</a>
</g>
</g>
<!-- Node2 -->
<g id="Node000002" class="node">
<title>Node2</title>
<g id="a_Node000002"><a xlink:title=" ">
<polygon fill="#e0e0e0" stroke="#999999" points="50.5,-20 0,-20 0,0 50.5,0 50.5,-20"/>
<text text-anchor="middle" x="25.25" y="-6.5" font-family="Helvetica,sans-Serif" font-size="10.00">stddef.h</text>
</a>
</g>
</g>
<!-- Node1&#45;&gt;Node2 -->
<g id="edge1_Node000001_Node000002" class="edge">
<title>Node1&#45;&gt;Node2</title>
<g id="a_edge1_Node000001_Node000002"><a xlink:title=" ">
<path fill="none" stroke="#63b8ff" d="M34.72,-111.67C24.74,-101.97 14.53,-89.61 9.25,-76 3.47,-61.1 8.52,-43.45 14.43,-30.31"/>
<polygon fill="#63b8ff" stroke="#63b8ff" points="18,-31.99 19.37,-21.49 11.75,-28.85 18,-31.99"/>
</a>
</g>
</g>
<!-- Node3 -->
<g id="Node000003" class="node">
<title>Node3</title>
<g id="a_Node000003"><a xlink:title=" ">
<polygon fill="#e0e0e0" stroke="#999999" points="124.12,-20 68.38,-20 68.38,0 124.12,0 124.12,-20"/>
<text text-anchor="middle" x="96.25" y="-6.5" font-family="Helvetica,sans-Serif" font-size="10.00">stdbool.h</text>
</a>
</g>
</g>
<!-- Node1&#45;&gt;Node3 -->
<g id="edge2_Node000001_Node000003" class="edge">
<title>Node1&#45;&gt;Node3</title>
<g id="a_edge2_Node000001_Node000003"><a xlink:title=" ">
<path fill="none" stroke="#63b8ff" d="M87.78,-111.67C97.76,-101.97 107.97,-89.61 113.25,-76 119.1,-60.9 113.6,-43.05 107.35,-29.88"/>
<polygon fill="#63b8ff" stroke="#63b8ff" points="110.14,-28.67 102.37,-21.47 103.95,-31.94 110.14,-28.67"/>
</a>
</g>
</g>
<!-- Node4 -->
<g id="Node000004" class="node">
<title>Node4</title>
<g id="a_Node000004"><a xlink:href="a00104_source.html" target="_top" xlink:title=" ">
<polygon fill="white" stroke="#666666" points="103.75,-76 18.75,-76 18.75,-56 103.75,-56 103.75,-76"/>
<text text-anchor="middle" x="61.25" y="-62.5" font-family="Helvetica,sans-Serif" font-size="10.00">cmp_interface.h</text>
</a>
</g>
</g>
<!-- Node1&#45;&gt;Node4 -->
<g id="edge3_Node000001_Node000004" class="edge">
<title>Node1&#45;&gt;Node4</title>
<g id="a_edge3_Node000001_Node000004"><a xlink:title=" ">
<path fill="none" stroke="#63b8ff" d="M61.25,-111.75C61.25,-103.94 61.25,-95.11 61.25,-87.38"/>
<polygon fill="#63b8ff" stroke="#63b8ff" points="64.75,-87.42 61.25,-77.42 57.75,-87.42 64.75,-87.42"/>
</a>
</g>
</g>
<!-- Node4&#45;&gt;Node2 -->
<g id="edge5_Node000004_Node000002" class="edge">
<title>Node4&#45;&gt;Node2</title>
<g id="a_edge5_Node000004_Node000002"><a xlink:title=" ">
<path fill="none" stroke="#63b8ff" d="M54.98,-55.59C50.18,-48.39 43.41,-38.23 37.54,-29.43"/>
<polygon fill="#63b8ff" stroke="#63b8ff" points="39.91,-27.68 31.45,-21.3 34.08,-31.56 39.91,-27.68"/>
</a>
</g>
</g>
<!-- Node4&#45;&gt;Node3 -->
<g id="edge4_Node000004_Node000003" class="edge">
<title>Node4&#45;&gt;Node3</title>
<g id="a_edge4_Node000004_Node000003"><a xlink:title=" ">
<path fill="none" stroke="#63b8ff" d="M67.35,-55.59C72.01,-48.39 78.6,-38.23 84.3,-29.43"/>
<polygon fill="#63b8ff" stroke="#63b8ff" points="87.72,-31.59 90.22,-21.3 81.85,-27.79 87.72,-31.59"/>
</a>
</g>
</g>
</g>
</svg>
