<?xml version="1.0" encoding="UTF-8" standalone="no"?>
<!DOCTYPE svg PUBLIC "-//W3C//DTD SVG 1.1//EN"
 "http://www.w3.org/Graphics/SVG/1.1/DTD/svg11.dtd">
<!-- Generated by graphviz version 8.1.0 (20230707.0739)
 -->
<!-- Title: dspic33ck&#45;dab.X/mcc_generated_files/pwm_hs/pwm.h Pages: 1 -->
<svg width="980pt" height="212pt"
 viewBox="0.00 0.00 980.25 212.00" xmlns="http://www.w3.org/2000/svg" xmlns:xlink="http://www.w3.org/1999/xlink">
<g id="graph0" class="graph" transform="scale(1 1) rotate(0) translate(4 208)">
<title>dspic33ck&#45;dab.X/mcc_generated_files/pwm_hs/pwm.h</title>
<!-- Node1 -->
<g id="Node000001" class="node">
<title>Node1</title>
<g id="a_Node000001"><a xlink:title="This is the generated driver header file for the PWM driver.">
<polygon fill="#999999" stroke="#666666" points="535.75,-204 426,-204 426,-160 535.75,-160 535.75,-204"/>
<text text-anchor="start" x="434" y="-190.5" font-family="Helvetica,sans-Serif" font-size="10.00">dspic33ck&#45;dab.X/mcc</text>
<text text-anchor="start" x="434" y="-178.5" font-family="Helvetica,sans-Serif" font-size="10.00">_generated_files/pwm</text>
<text text-anchor="middle" x="480.88" y="-166.5" font-family="Helvetica,sans-Serif" font-size="10.00">_hs/pwm.h</text>
</a>
</g>
</g>
<!-- Node2 -->
<g id="Node000002" class="node">
<title>Node2</title>
<g id="a_Node000002"><a xlink:href="a00185.html" target="_top" xlink:title="This is the generated driver source file for PWM driver.">
<polygon fill="white" stroke="#666666" points="109.75,-124 0,-124 0,-80 109.75,-80 109.75,-124"/>
<text text-anchor="start" x="8" y="-110.5" font-family="Helvetica,sans-Serif" font-size="10.00">dspic33ck&#45;dab.X/mcc</text>
<text text-anchor="start" x="8" y="-98.5" font-family="Helvetica,sans-Serif" font-size="10.00">_generated_files/pwm</text>
<text text-anchor="middle" x="54.88" y="-86.5" font-family="Helvetica,sans-Serif" font-size="10.00">_hs/src/pwm.c</text>
</a>
</g>
</g>
<!-- Node1&#45;&gt;Node2 -->
<g id="edge1_Node000001_Node000002" class="edge">
<title>Node1&#45;&gt;Node2</title>
<g id="a_edge1_Node000001_Node000002"><a xlink:title=" ">
<path fill="none" stroke="#63b8ff" d="M414.89,-173.85C341.85,-165.18 220.94,-148.61 118.88,-124 116.03,-123.31 113.14,-122.56 110.22,-121.76"/>
<polygon fill="#63b8ff" stroke="#63b8ff" points="414.41,-177.43 424.75,-175.12 415.23,-170.48 414.41,-177.43"/>
</a>
</g>
</g>
<!-- Node3 -->
<g id="Node000003" class="node">
<title>Node3</title>
<g id="a_Node000003"><a xlink:href="a00230.html" target="_top" xlink:title="This is the generated driver header file for the System driver.">
<polygon fill="white" stroke="#666666" points="249.75,-124 128,-124 128,-80 249.75,-80 249.75,-124"/>
<text text-anchor="start" x="136" y="-110.5" font-family="Helvetica,sans-Serif" font-size="10.00">dspic33ck&#45;dab.X/mcc</text>
<text text-anchor="start" x="136" y="-98.5" font-family="Helvetica,sans-Serif" font-size="10.00">_generated_files/system</text>
<text text-anchor="middle" x="188.88" y="-86.5" font-family="Helvetica,sans-Serif" font-size="10.00">/src/system.c</text>
</a>
</g>
</g>
<!-- Node1&#45;&gt;Node3 -->
<g id="edge2_Node000001_Node000003" class="edge">
<title>Node1&#45;&gt;Node3</title>
<g id="a_edge2_Node000001_Node000003"><a xlink:title=" ">
<path fill="none" stroke="#63b8ff" d="M414.89,-164.8C370.64,-153.75 311.11,-138.54 258.88,-124 255.94,-123.18 252.94,-122.34 249.92,-121.47"/>
<polygon fill="#63b8ff" stroke="#63b8ff" points="413.97,-168.42 424.52,-167.44 415.66,-161.63 413.97,-168.42"/>
</a>
</g>
</g>
<!-- Node4 -->
<g id="Node000004" class="node">
<title>Node4</title>
<g id="a_Node000004"><a xlink:href="a00359.html" target="_top" xlink:title="Contains PWM initialization that was not supported by MCC generated code.">
<polygon fill="white" stroke="#666666" points="400.38,-124 267.38,-124 267.38,-80 400.38,-80 400.38,-124"/>
<text text-anchor="start" x="275.38" y="-110.5" font-family="Helvetica,sans-Serif" font-size="10.00">dspic33ck&#45;dab.X/sources</text>
<text text-anchor="start" x="275.38" y="-98.5" font-family="Helvetica,sans-Serif" font-size="10.00">/driver/mcc_extension</text>
<text text-anchor="middle" x="333.88" y="-86.5" font-family="Helvetica,sans-Serif" font-size="10.00">/drv_custom_config_pwm.h</text>
</a>
</g>
</g>
<!-- Node1&#45;&gt;Node4 -->
<g id="edge3_Node000001_Node000004" class="edge">
<title>Node1&#45;&gt;Node4</title>
<g id="a_edge3_Node000001_Node000004"><a xlink:title=" ">
<path fill="none" stroke="#63b8ff" d="M431.24,-154.66C412.69,-144.82 391.87,-133.77 374.25,-124.42"/>
<polygon fill="#63b8ff" stroke="#63b8ff" points="429.23,-158.09 439.71,-159.69 432.51,-151.91 429.23,-158.09"/>
</a>
</g>
</g>
<!-- Node6 -->
<g id="Node000006" class="node">
<title>Node6</title>
<g id="a_Node000006"><a xlink:href="a00383.html" target="_top" xlink:title="Contains fault functions including the fault handler, fault object initialization and fault execution...">
<polygon fill="white" stroke="#666666" points="543.25,-118 418.5,-118 418.5,-86 543.25,-86 543.25,-118"/>
<text text-anchor="start" x="426.5" y="-104.5" font-family="Helvetica,sans-Serif" font-size="10.00">dspic33ck&#45;dab.X/sources</text>
<text text-anchor="middle" x="480.88" y="-92.5" font-family="Helvetica,sans-Serif" font-size="10.00">/fault/fault.c</text>
</a>
</g>
</g>
<!-- Node1&#45;&gt;Node6 -->
<g id="edge5_Node000001_Node000006" class="edge">
<title>Node1&#45;&gt;Node6</title>
<g id="a_edge5_Node000001_Node000006"><a xlink:title=" ">
<path fill="none" stroke="#63b8ff" d="M480.88,-148.96C480.88,-138.28 480.88,-126.88 480.88,-118.11"/>
<polygon fill="#63b8ff" stroke="#63b8ff" points="477.38,-148.69 480.88,-158.69 484.38,-148.69 477.38,-148.69"/>
</a>
</g>
</g>
<!-- Node7 -->
<g id="Node000007" class="node">
<title>Node7</title>
<g id="a_Node000007"><a xlink:href="a00467.html" target="_top" xlink:title="Contains power control initialization including control loop initialization and start&#45;up initializati...">
<polygon fill="white" stroke="#666666" points="686.25,-118 561.5,-118 561.5,-86 686.25,-86 686.25,-118"/>
<text text-anchor="start" x="569.5" y="-104.5" font-family="Helvetica,sans-Serif" font-size="10.00">dspic33ck&#45;dab.X/sources</text>
<text text-anchor="middle" x="623.88" y="-92.5" font-family="Helvetica,sans-Serif" font-size="10.00">/pwrctrl/pwrctrl.c</text>
</a>
</g>
</g>
<!-- Node1&#45;&gt;Node7 -->
<g id="edge6_Node000001_Node000007" class="edge">
<title>Node1&#45;&gt;Node7</title>
<g id="a_edge6_Node000001_Node000007"><a xlink:title=" ">
<path fill="none" stroke="#63b8ff" d="M529.5,-154.48C551.56,-142.44 576.88,-128.64 595.73,-118.35"/>
<polygon fill="#63b8ff" stroke="#63b8ff" points="528.05,-151.82 520.95,-159.69 531.41,-157.97 528.05,-151.82"/>
</a>
</g>
</g>
<!-- Node8 -->
<g id="Node000008" class="node">
<title>Node8</title>
<g id="a_Node000008"><a xlink:href="a00494.html" target="_top" xlink:title="Contains DAB control phase calculation between primary and secondary, and the PWM distribution.">
<polygon fill="white" stroke="#666666" points="829.25,-118 704.5,-118 704.5,-86 829.25,-86 829.25,-118"/>
<text text-anchor="start" x="712.5" y="-104.5" font-family="Helvetica,sans-Serif" font-size="10.00">dspic33ck&#45;dab.X/sources</text>
<text text-anchor="middle" x="766.88" y="-92.5" font-family="Helvetica,sans-Serif" font-size="10.00">/pwrctrl/pwrctrl_pwm.c</text>
</a>
</g>
</g>
<!-- Node1&#45;&gt;Node8 -->
<g id="edge7_Node000001_Node000008" class="edge">
<title>Node1&#45;&gt;Node8</title>
<g id="a_edge7_Node000001_Node000008"><a xlink:title=" ">
<path fill="none" stroke="#63b8ff" d="M546.42,-163.97C588.83,-152.84 645.2,-137.86 694.88,-124 701.27,-122.22 707.98,-120.31 714.61,-118.4"/>
<polygon fill="#63b8ff" stroke="#63b8ff" points="545.74,-160.79 536.95,-166.71 547.51,-167.56 545.74,-160.79"/>
</a>
</g>
</g>
<!-- Node9 -->
<g id="Node000009" class="node">
<title>Node9</title>
<g id="a_Node000009"><a xlink:href="a00500.html" target="_top" xlink:title="Contains power control state machine functions that is executed every 100us.">
<polygon fill="white" stroke="#666666" points="972.25,-118 847.5,-118 847.5,-86 972.25,-86 972.25,-118"/>
<text text-anchor="start" x="855.5" y="-104.5" font-family="Helvetica,sans-Serif" font-size="10.00">dspic33ck&#45;dab.X/sources</text>
<text text-anchor="middle" x="909.88" y="-92.5" font-family="Helvetica,sans-Serif" font-size="10.00">/pwrctrl/pwrctrl_sm.c</text>
</a>
</g>
</g>
<!-- Node1&#45;&gt;Node9 -->
<g id="edge8_Node000001_Node000009" class="edge">
<title>Node1&#45;&gt;Node9</title>
<g id="a_edge8_Node000001_Node000009"><a xlink:title=" ">
<path fill="none" stroke="#63b8ff" d="M546.73,-173C618.72,-163.68 737.25,-146.61 837.88,-124 844.99,-122.4 852.44,-120.5 859.73,-118.5"/>
<polygon fill="#63b8ff" stroke="#63b8ff" points="546.49,-169.63 537.02,-174.38 547.38,-176.58 546.49,-169.63"/>
</a>
</g>
</g>
<!-- Node5 -->
<g id="Node000005" class="node">
<title>Node5</title>
<g id="a_Node000005"><a xlink:href="a00371_source.html" target="_top" xlink:title=" ">
<polygon fill="white" stroke="#666666" points="396.25,-44 271.5,-44 271.5,0 396.25,0 396.25,-44"/>
<text text-anchor="start" x="279.5" y="-30.5" font-family="Helvetica,sans-Serif" font-size="10.00">dspic33ck&#45;dab.X/sources</text>
<text text-anchor="start" x="279.5" y="-18.5" font-family="Helvetica,sans-Serif" font-size="10.00">/driver/mcc_extension</text>
<text text-anchor="middle" x="333.88" y="-6.5" font-family="Helvetica,sans-Serif" font-size="10.00">/mcc_custom_config.c</text>
</a>
</g>
</g>
<!-- Node4&#45;&gt;Node5 -->
<g id="edge4_Node000004_Node000005" class="edge">
<title>Node4&#45;&gt;Node5</title>
<g id="a_edge4_Node000004_Node000005"><a xlink:title=" ">
<path fill="none" stroke="#63b8ff" d="M333.88,-68.82C333.88,-60.54 333.88,-51.85 333.88,-44.29"/>
<polygon fill="#63b8ff" stroke="#63b8ff" points="330.38,-68.69 333.88,-78.69 337.38,-68.69 330.38,-68.69"/>
</a>
</g>
</g>
</g>
</svg>
