<?xml version="1.0" encoding="UTF-8" standalone="no"?>
<!DOCTYPE svg PUBLIC "-//W3C//DTD SVG 1.1//EN"
 "http://www.w3.org/Graphics/SVG/1.1/DTD/svg11.dtd">
<!-- Generated by graphviz version 8.1.0 (20230707.0739)
 -->
<!-- Title: dspic33ck&#45;dab.X/mcc_generated_files/clc/src/clc1.c Pages: 1 -->
<svg width="280pt" height="164pt"
 viewBox="0.00 0.00 279.88 164.00" xmlns="http://www.w3.org/2000/svg" xmlns:xlink="http://www.w3.org/1999/xlink">
<g id="graph0" class="graph" transform="scale(1 1) rotate(0) translate(4 160)">
<title>dspic33ck&#45;dab.X/mcc_generated_files/clc/src/clc1.c</title>
<!-- Node1 -->
<g id="Node000001" class="node">
<title>Node1</title>
<g id="a_Node000001"><a xlink:title="This is the generated driver source file for CLC1 driver.">
<polygon fill="#999999" stroke="#666666" points="131.88,-156 22.88,-156 22.88,-112 131.88,-112 131.88,-156"/>
<text text-anchor="start" x="30.88" y="-142.5" font-family="Helvetica,sans-Serif" font-size="10.00">dspic33ck&#45;dab.X/mcc</text>
<text text-anchor="start" x="30.88" y="-130.5" font-family="Helvetica,sans-Serif" font-size="10.00">_generated_files/clc</text>
<text text-anchor="middle" x="77.38" y="-118.5" font-family="Helvetica,sans-Serif" font-size="10.00">/src/clc1.c</text>
</a>
</g>
</g>
<!-- Node2 -->
<g id="Node000002" class="node">
<title>Node2</title>
<g id="a_Node000002"><a xlink:title=" ">
<polygon fill="#e0e0e0" stroke="#999999" points="68.62,-76 18.12,-76 18.12,-56 68.62,-56 68.62,-76"/>
<text text-anchor="middle" x="43.38" y="-62.5" font-family="Helvetica,sans-Serif" font-size="10.00">stddef.h</text>
</a>
</g>
</g>
<!-- Node1&#45;&gt;Node2 -->
<g id="edge1_Node000001_Node000002" class="edge">
<title>Node1&#45;&gt;Node2</title>
<g id="a_edge1_Node000001_Node000002"><a xlink:title=" ">
<path fill="none" stroke="#63b8ff" d="M66.43,-111.75C62.16,-103.47 57.31,-94.06 53.17,-86.01"/>
<polygon fill="#63b8ff" stroke="#63b8ff" points="55.92,-84.71 48.23,-77.42 49.7,-87.91 55.92,-84.71"/>
</a>
</g>
</g>
<!-- Node3 -->
<g id="Node000003" class="node">
<title>Node3</title>
<g id="a_Node000003"><a xlink:href="a00119.html" target="_top" xlink:title="This is the generated driver header file for the CLC1 driver.">
<polygon fill="white" stroke="#666666" points="138,-76 86.75,-76 86.75,-56 138,-56 138,-76"/>
<text text-anchor="middle" x="112.38" y="-62.5" font-family="Helvetica,sans-Serif" font-size="10.00">../clc1.h</text>
</a>
</g>
</g>
<!-- Node1&#45;&gt;Node3 -->
<g id="edge2_Node000001_Node000003" class="edge">
<title>Node1&#45;&gt;Node3</title>
<g id="a_edge2_Node000001_Node000003"><a xlink:title=" ">
<path fill="none" stroke="#63b8ff" d="M88.64,-111.75C93.03,-103.47 98.03,-94.06 102.3,-86.01"/>
<polygon fill="#63b8ff" stroke="#63b8ff" points="105.79,-87.89 107.38,-77.42 99.6,-84.61 105.79,-87.89"/>
</a>
</g>
</g>
<!-- Node4 -->
<g id="Node000004" class="node">
<title>Node4</title>
<g id="a_Node000004"><a xlink:title=" ">
<polygon fill="#e0e0e0" stroke="#999999" points="34.75,-20 0,-20 0,0 34.75,0 34.75,-20"/>
<text text-anchor="middle" x="17.38" y="-6.5" font-family="Helvetica,sans-Serif" font-size="10.00">xc.h</text>
</a>
</g>
</g>
<!-- Node3&#45;&gt;Node4 -->
<g id="edge3_Node000003_Node000004" class="edge">
<title>Node3&#45;&gt;Node4</title>
<g id="a_edge3_Node000003_Node000004"><a xlink:title=" ">
<path fill="none" stroke="#63b8ff" d="M95.83,-55.59C81.34,-47.36 60.05,-35.26 43.3,-25.74"/>
<polygon fill="#63b8ff" stroke="#63b8ff" points="45.48,-22.38 35.05,-20.48 42.02,-28.46 45.48,-22.38"/>
</a>
</g>
</g>
<!-- Node5 -->
<g id="Node000005" class="node">
<title>Node5</title>
<g id="a_Node000005"><a xlink:title=" ">
<polygon fill="#e0e0e0" stroke="#999999" points="101.5,-20 53.25,-20 53.25,0 101.5,0 101.5,-20"/>
<text text-anchor="middle" x="77.38" y="-6.5" font-family="Helvetica,sans-Serif" font-size="10.00">stdint.h</text>
</a>
</g>
</g>
<!-- Node3&#45;&gt;Node5 -->
<g id="edge4_Node000003_Node000005" class="edge">
<title>Node3&#45;&gt;Node5</title>
<g id="a_edge4_Node000003_Node000005"><a xlink:title=" ">
<path fill="none" stroke="#63b8ff" d="M106.28,-55.59C101.61,-48.39 95.03,-38.23 89.32,-29.43"/>
<polygon fill="#63b8ff" stroke="#63b8ff" points="91.78,-27.79 83.4,-21.3 85.9,-31.59 91.78,-27.79"/>
</a>
</g>
</g>
<!-- Node6 -->
<g id="Node000006" class="node">
<title>Node6</title>
<g id="a_Node000006"><a xlink:title=" ">
<polygon fill="#e0e0e0" stroke="#999999" points="175.25,-20 119.5,-20 119.5,0 175.25,0 175.25,-20"/>
<text text-anchor="middle" x="147.38" y="-6.5" font-family="Helvetica,sans-Serif" font-size="10.00">stdbool.h</text>
</a>
</g>
</g>
<!-- Node3&#45;&gt;Node6 -->
<g id="edge5_Node000003_Node000006" class="edge">
<title>Node3&#45;&gt;Node6</title>
<g id="a_edge5_Node000003_Node000006"><a xlink:title=" ">
<path fill="none" stroke="#63b8ff" d="M118.47,-55.59C123.14,-48.39 129.72,-38.23 135.43,-29.43"/>
<polygon fill="#63b8ff" stroke="#63b8ff" points="138.85,-31.59 141.35,-21.3 132.97,-27.79 138.85,-31.59"/>
</a>
</g>
</g>
<!-- Node7 -->
<g id="Node000007" class="node">
<title>Node7</title>
<g id="a_Node000007"><a xlink:href="a00122_source.html" target="_top" xlink:title=" ">
<polygon fill="white" stroke="#666666" points="271.88,-20 192.88,-20 192.88,0 271.88,0 271.88,-20"/>
<text text-anchor="middle" x="232.38" y="-6.5" font-family="Helvetica,sans-Serif" font-size="10.00">clc_interface.h</text>
</a>
</g>
</g>
<!-- Node3&#45;&gt;Node7 -->
<g id="edge6_Node000003_Node000007" class="edge">
<title>Node3&#45;&gt;Node7</title>
<g id="a_edge6_Node000003_Node000007"><a xlink:title=" ">
<path fill="none" stroke="#63b8ff" d="M133.28,-55.59C152.09,-47.13 179.99,-34.58 201.39,-24.94"/>
<polygon fill="#63b8ff" stroke="#63b8ff" points="202.63,-27.77 210.31,-20.48 199.75,-21.39 202.63,-27.77"/>
</a>
</g>
</g>
</g>
</svg>
