<?xml version="1.0" encoding="UTF-8" standalone="no"?>
<!DOCTYPE svg PUBLIC "-//W3C//DTD SVG 1.1//EN"
 "http://www.w3.org/Graphics/SVG/1.1/DTD/svg11.dtd">
<!-- Generated by graphviz version 8.1.0 (20230707.0739)
 -->
<!-- Title: dab&#45;pwm&#45;configuration.X/mcc_generated_files/system/src/traps.c Pages: 1 -->
<svg width="152pt" height="164pt"
 viewBox="0.00 0.00 151.50 164.00" xmlns="http://www.w3.org/2000/svg" xmlns:xlink="http://www.w3.org/1999/xlink">
<g id="graph0" class="graph" transform="scale(1 1) rotate(0) translate(4 160)">
<title>dab&#45;pwm&#45;configuration.X/mcc_generated_files/system/src/traps.c</title>
<!-- Node1 -->
<g id="Node000001" class="node">
<title>Node1</title>
<g id="a_Node000001"><a xlink:title="This is the generated driver source file for TRAPS driver.">
<polygon fill="#999999" stroke="#666666" points="143.5,-156 0,-156 0,-112 143.5,-112 143.5,-156"/>
<text text-anchor="start" x="8" y="-142.5" font-family="Helvetica,sans-Serif" font-size="10.00">dab&#45;pwm&#45;configuration.X</text>
<text text-anchor="start" x="8" y="-130.5" font-family="Helvetica,sans-Serif" font-size="10.00">/mcc_generated_files/system</text>
<text text-anchor="middle" x="71.75" y="-118.5" font-family="Helvetica,sans-Serif" font-size="10.00">/src/traps.c</text>
</a>
</g>
</g>
<!-- Node2 -->
<g id="Node000002" class="node">
<title>Node2</title>
<g id="a_Node000002"><a xlink:title=" ">
<polygon fill="#e0e0e0" stroke="#999999" points="58.12,-76 23.38,-76 23.38,-56 58.12,-56 58.12,-76"/>
<text text-anchor="middle" x="40.75" y="-62.5" font-family="Helvetica,sans-Serif" font-size="10.00">xc.h</text>
</a>
</g>
</g>
<!-- Node1&#45;&gt;Node2 -->
<g id="edge1_Node000001_Node000002" class="edge">
<title>Node1&#45;&gt;Node2</title>
<g id="a_edge1_Node000001_Node000002"><a xlink:title=" ">
<path fill="none" stroke="#63b8ff" d="M61.77,-111.75C57.93,-103.57 53.56,-94.27 49.81,-86.28"/>
<polygon fill="#63b8ff" stroke="#63b8ff" points="52.59,-84.98 45.17,-77.42 46.26,-87.96 52.59,-84.98"/>
</a>
</g>
</g>
<!-- Node3 -->
<g id="Node000003" class="node">
<title>Node3</title>
<g id="a_Node000003"><a xlink:href="a00203_source.html" target="_top" xlink:title=" ">
<polygon fill="white" stroke="#666666" points="131.25,-76 76.25,-76 76.25,-56 131.25,-56 131.25,-76"/>
<text text-anchor="middle" x="103.75" y="-62.5" font-family="Helvetica,sans-Serif" font-size="10.00">../traps.h</text>
</a>
</g>
</g>
<!-- Node1&#45;&gt;Node3 -->
<g id="edge2_Node000001_Node000003" class="edge">
<title>Node1&#45;&gt;Node3</title>
<g id="a_edge2_Node000001_Node000003"><a xlink:title=" ">
<path fill="none" stroke="#63b8ff" d="M82.05,-111.75C86.02,-103.57 90.53,-94.27 94.4,-86.28"/>
<polygon fill="#63b8ff" stroke="#63b8ff" points="97.97,-87.94 99.18,-77.42 91.67,-84.89 97.97,-87.94"/>
</a>
</g>
</g>
<!-- Node4 -->
<g id="Node000004" class="node">
<title>Node4</title>
<g id="a_Node000004"><a xlink:title=" ">
<polygon fill="#e0e0e0" stroke="#999999" points="127.88,-20 79.62,-20 79.62,0 127.88,0 127.88,-20"/>
<text text-anchor="middle" x="103.75" y="-6.5" font-family="Helvetica,sans-Serif" font-size="10.00">stdint.h</text>
</a>
</g>
</g>
<!-- Node3&#45;&gt;Node4 -->
<g id="edge3_Node000003_Node000004" class="edge">
<title>Node3&#45;&gt;Node4</title>
<g id="a_edge3_Node000003_Node000004"><a xlink:title=" ">
<path fill="none" stroke="#63b8ff" d="M103.75,-55.59C103.75,-48.86 103.75,-39.53 103.75,-31.15"/>
<polygon fill="#63b8ff" stroke="#63b8ff" points="107.25,-31.3 103.75,-21.3 100.25,-31.3 107.25,-31.3"/>
</a>
</g>
</g>
</g>
</svg>
