<?xml version="1.0" encoding="UTF-8" standalone="no"?>
<!DOCTYPE svg PUBLIC "-//W3C//DTD SVG 1.1//EN"
 "http://www.w3.org/Graphics/SVG/1.1/DTD/svg11.dtd">
<!-- Generated by graphviz version 8.1.0 (20230707.0739)
 -->
<!-- Title: dab&#45;pwm&#45;configuration.X/mcc_generated_files/pwm/sccp3.h Pages: 1 -->
<svg width="669pt" height="212pt"
 viewBox="0.00 0.00 669.25 212.00" xmlns="http://www.w3.org/2000/svg" xmlns:xlink="http://www.w3.org/1999/xlink">
<g id="graph0" class="graph" transform="scale(1 1) rotate(0) translate(4 208)">
<title>dab&#45;pwm&#45;configuration.X/mcc_generated_files/pwm/sccp3.h</title>
<!-- Node1 -->
<g id="Node000001" class="node">
<title>Node1</title>
<g id="a_Node000001"><a xlink:title="This is the generated driver header file for the SCCP3 driver.">
<polygon fill="#999999" stroke="#666666" points="287.5,-204 156,-204 156,-160 287.5,-160 287.5,-204"/>
<text text-anchor="start" x="164" y="-190.5" font-family="Helvetica,sans-Serif" font-size="10.00">dab&#45;pwm&#45;configuration.X</text>
<text text-anchor="start" x="164" y="-178.5" font-family="Helvetica,sans-Serif" font-size="10.00">/mcc_generated_files/pwm</text>
<text text-anchor="middle" x="221.75" y="-166.5" font-family="Helvetica,sans-Serif" font-size="10.00">/sccp3.h</text>
</a>
</g>
</g>
<!-- Node2 -->
<g id="Node000002" class="node">
<title>Node2</title>
<g id="a_Node000002"><a xlink:href="a00125.html" target="_top" xlink:title="This is the generated driver source file for SCCP3 driver.">
<polygon fill="white" stroke="#666666" points="131.5,-124 0,-124 0,-80 131.5,-80 131.5,-124"/>
<text text-anchor="start" x="8" y="-110.5" font-family="Helvetica,sans-Serif" font-size="10.00">dab&#45;pwm&#45;configuration.X</text>
<text text-anchor="start" x="8" y="-98.5" font-family="Helvetica,sans-Serif" font-size="10.00">/mcc_generated_files/pwm</text>
<text text-anchor="middle" x="65.75" y="-86.5" font-family="Helvetica,sans-Serif" font-size="10.00">/src/sccp3.c</text>
</a>
</g>
</g>
<!-- Node1&#45;&gt;Node2 -->
<g id="edge1_Node000001_Node000002" class="edge">
<title>Node1&#45;&gt;Node2</title>
<g id="a_edge1_Node000001_Node000002"><a xlink:title=" ">
<path fill="none" stroke="#63b8ff" d="M169.35,-154.8C149.6,-144.92 127.38,-133.81 108.6,-124.42"/>
<polygon fill="#63b8ff" stroke="#63b8ff" points="167.61,-158.34 178.12,-159.69 170.74,-152.08 167.61,-158.34"/>
</a>
</g>
</g>
<!-- Node3 -->
<g id="Node000003" class="node">
<title>Node3</title>
<g id="a_Node000003"><a xlink:href="a00185.html" target="_top" xlink:title="This is the generated driver header file for the System driver.">
<polygon fill="white" stroke="#666666" points="293.5,-124 150,-124 150,-80 293.5,-80 293.5,-124"/>
<text text-anchor="start" x="158" y="-110.5" font-family="Helvetica,sans-Serif" font-size="10.00">dab&#45;pwm&#45;configuration.X</text>
<text text-anchor="start" x="158" y="-98.5" font-family="Helvetica,sans-Serif" font-size="10.00">/mcc_generated_files/system</text>
<text text-anchor="middle" x="221.75" y="-86.5" font-family="Helvetica,sans-Serif" font-size="10.00">/src/system.c</text>
</a>
</g>
</g>
<!-- Node1&#45;&gt;Node3 -->
<g id="edge2_Node000001_Node000003" class="edge">
<title>Node1&#45;&gt;Node3</title>
<g id="a_edge2_Node000001_Node000003"><a xlink:title=" ">
<path fill="none" stroke="#63b8ff" d="M221.75,-148.82C221.75,-140.54 221.75,-131.85 221.75,-124.29"/>
<polygon fill="#63b8ff" stroke="#63b8ff" points="218.25,-148.69 221.75,-158.69 225.25,-148.69 218.25,-148.69"/>
</a>
</g>
</g>
<!-- Node4 -->
<g id="Node000004" class="node">
<title>Node4</title>
<g id="a_Node000004"><a xlink:href="a00287_source.html" target="_top" xlink:title=" ">
<polygon fill="white" stroke="#666666" points="438.25,-118 311.25,-118 311.25,-86 438.25,-86 438.25,-118"/>
<text text-anchor="start" x="319.25" y="-104.5" font-family="Helvetica,sans-Serif" font-size="10.00">dab&#45;pwm&#45;configuration.X</text>
<text text-anchor="middle" x="374.75" y="-92.5" font-family="Helvetica,sans-Serif" font-size="10.00">/sources/device/dev_fan.h</text>
</a>
</g>
</g>
<!-- Node1&#45;&gt;Node4 -->
<g id="edge3_Node000001_Node000004" class="edge">
<title>Node1&#45;&gt;Node4</title>
<g id="a_edge3_Node000001_Node000004"><a xlink:title=" ">
<path fill="none" stroke="#63b8ff" d="M273.14,-154.8C296.9,-142.69 324.28,-128.73 344.64,-118.35"/>
<polygon fill="#63b8ff" stroke="#63b8ff" points="271.88,-152.03 264.56,-159.69 275.06,-158.26 271.88,-152.03"/>
</a>
</g>
</g>
<!-- Node5 -->
<g id="Node000005" class="node">
<title>Node5</title>
<g id="a_Node000005"><a xlink:href="a00038_source.html" target="_top" xlink:title=" ">
<polygon fill="white" stroke="#666666" points="222.25,-38 101.25,-38 101.25,-6 222.25,-6 222.25,-38"/>
<text text-anchor="start" x="109.25" y="-24.5" font-family="Helvetica,sans-Serif" font-size="10.00">dab&#45;pwm&#45;configuration.X</text>
<text text-anchor="middle" x="161.75" y="-12.5" font-family="Helvetica,sans-Serif" font-size="10.00">/main.c</text>
</a>
</g>
</g>
<!-- Node4&#45;&gt;Node5 -->
<g id="edge4_Node000004_Node000005" class="edge">
<title>Node4&#45;&gt;Node5</title>
<g id="a_edge4_Node000004_Node000005"><a xlink:title=" ">
<path fill="none" stroke="#63b8ff" d="M322.69,-81.93C286.12,-68.55 237.85,-50.87 203.74,-38.38"/>
<polygon fill="#63b8ff" stroke="#63b8ff" points="321.07,-85.44 331.67,-85.59 323.48,-78.86 321.07,-85.44"/>
</a>
</g>
</g>
<!-- Node6 -->
<g id="Node000006" class="node">
<title>Node6</title>
<g id="a_Node000006"><a xlink:href="a00041_source.html" target="_top" xlink:title=" ">
<polygon fill="white" stroke="#666666" points="361.25,-38 240.25,-38 240.25,-6 361.25,-6 361.25,-38"/>
<text text-anchor="start" x="248.25" y="-24.5" font-family="Helvetica,sans-Serif" font-size="10.00">dab&#45;pwm&#45;configuration.X</text>
<text text-anchor="middle" x="300.75" y="-12.5" font-family="Helvetica,sans-Serif" font-size="10.00">/main_tasks.c</text>
</a>
</g>
</g>
<!-- Node4&#45;&gt;Node6 -->
<g id="edge5_Node000004_Node000006" class="edge">
<title>Node4&#45;&gt;Node6</title>
<g id="a_edge5_Node000004_Node000006"><a xlink:title=" ">
<path fill="none" stroke="#63b8ff" d="M352.64,-77.69C340.57,-64.97 325.97,-49.59 315.34,-38.38"/>
<polygon fill="#63b8ff" stroke="#63b8ff" points="349.71,-79.74 359.13,-84.59 354.79,-74.93 349.71,-79.74"/>
</a>
</g>
</g>
<!-- Node7 -->
<g id="Node000007" class="node">
<title>Node7</title>
<g id="a_Node000007"><a xlink:href="a00242_source.html" target="_top" xlink:title=" ">
<polygon fill="white" stroke="#666666" points="516.5,-44 379,-44 379,0 516.5,0 516.5,-44"/>
<text text-anchor="start" x="387" y="-30.5" font-family="Helvetica,sans-Serif" font-size="10.00">dab&#45;pwm&#45;configuration.X</text>
<text text-anchor="start" x="387" y="-18.5" font-family="Helvetica,sans-Serif" font-size="10.00">/sources/app/app_PBV_dab</text>
<text text-anchor="middle" x="447.75" y="-6.5" font-family="Helvetica,sans-Serif" font-size="10.00">_frame_map.c</text>
</a>
</g>
</g>
<!-- Node4&#45;&gt;Node7 -->
<g id="edge6_Node000004_Node000007" class="edge">
<title>Node4&#45;&gt;Node7</title>
<g id="a_edge6_Node000004_Node000007"><a xlink:title=" ">
<path fill="none" stroke="#63b8ff" d="M396.67,-77.57C406.57,-67 418.18,-54.59 427.83,-44.28"/>
<polygon fill="#63b8ff" stroke="#63b8ff" points="394.45,-74.9 390.17,-84.59 399.56,-79.68 394.45,-74.9"/>
</a>
</g>
</g>
<!-- Node8 -->
<g id="Node000008" class="node">
<title>Node8</title>
<g id="a_Node000008"><a xlink:href="a00284.html" target="_top" xlink:title="Contains fan initialization and execution functions.">
<polygon fill="white" stroke="#666666" points="661.25,-38 534.25,-38 534.25,-6 661.25,-6 661.25,-38"/>
<text text-anchor="start" x="542.25" y="-24.5" font-family="Helvetica,sans-Serif" font-size="10.00">dab&#45;pwm&#45;configuration.X</text>
<text text-anchor="middle" x="597.75" y="-12.5" font-family="Helvetica,sans-Serif" font-size="10.00">/sources/device/dev_fan.c</text>
</a>
</g>
</g>
<!-- Node4&#45;&gt;Node8 -->
<g id="edge7_Node000004_Node000008" class="edge">
<title>Node4&#45;&gt;Node8</title>
<g id="a_edge7_Node000004_Node000008"><a xlink:title=" ">
<path fill="none" stroke="#63b8ff" d="M428.77,-82.11C467.1,-68.7 517.92,-50.92 553.78,-38.38"/>
<polygon fill="#63b8ff" stroke="#63b8ff" points="428.09,-78.98 419.81,-85.59 430.4,-85.59 428.09,-78.98"/>
</a>
</g>
</g>
</g>
</svg>
