<?xml version="1.0" encoding="UTF-8" standalone="no"?>
<!DOCTYPE svg PUBLIC "-//W3C//DTD SVG 1.1//EN"
 "http://www.w3.org/Graphics/SVG/1.1/DTD/svg11.dtd">
<!-- Generated by graphviz version 8.1.0 (20230707.0739)
 -->
<!-- Title: dspic33ck&#45;dab.X/mcc_generated_files/pwm_hs/pwm_hs_types.h Pages: 1 -->
<!--zoomable 372 -->

<svg id="main" version="1.1" xmlns="http://www.w3.org/2000/svg" xmlns:xlink="http://www.w3.org/1999/xlink" xml:space="preserve" onload="init(evt)">
<style type="text/css"><![CDATA[
.node, .edge {opacity: 0.7;}
.node.selected, .edge.selected {opacity: 1;}
.edge:hover path { stroke: red; }
.edge:hover polygon { stroke: red; fill: red; }
]]></style>

<defs>
  <circle id="rim" cx="0" cy="0" r="7"/>
  <circle id="rim2" cx="0" cy="0" r="3.5"/>
  <g id="zoomPlus">
    <use xlink:href="#rim" fill="#404040"><set attributeName="fill" to="#808080" begin="zoomplus.mouseover" end="zoomplus.mouseout"/></use>
    <path d="M-4,0h8M0,-4v8" fill="none" stroke="white" stroke-width="1.5" pointer-events="none"/>
  </g>
  <g id="zoomMin">
    <use xlink:href="#rim" fill="#404040"><set attributeName="fill" to="#808080" begin="zoomminus.mouseover" end="zoomminus.mouseout"/></use>
    <path d="M-4,0h8" fill="none" stroke="white" stroke-width="1.5" pointer-events="none"/>
  </g>
  <g id="arrowUp" transform="translate(30 24)">
    <use xlink:href="#rim"/>
    <path pointer-events="none" fill="none" stroke="white" stroke-width="1.5" d="M0,-3.0v7 M-2.5,-0.5L0,-3.0L2.5,-0.5"/>
  </g>
  <g id="arrowRight" transform="rotate(90) translate(36 -43)">
    <use xlink:href="#rim"/>
    <path pointer-events="none" fill="none" stroke="white" stroke-width="1.5" d="M0,-3.0v7 M-2.5,-0.5L0,-3.0L2.5,-0.5"/>
  </g>
  <g id="arrowDown" transform="rotate(180) translate(-30 -48)">
    <use xlink:href="#rim"/>
    <path pointer-events="none" fill="none" stroke="white" stroke-width="1.5" d="M0,-3.0v7 M-2.5,-0.5L0,-3.0L2.5,-0.5"/>
  </g>
  <g id="arrowLeft" transform="rotate(270) translate(-36 17)">
    <use xlink:href="#rim"/>
    <path pointer-events="none" fill="none" stroke="white" stroke-width="1.5" d="M0,-3.0v7 M-2.5,-0.5L0,-3.0L2.5,-0.5"/>
  </g>
  <g id="resetDef">
    <use xlink:href="#rim2" fill="#404040"><set attributeName="fill" to="#808080" begin="reset.mouseover" end="reset.mouseout"/></use>
  </g>
</defs>
<script type="application/ecmascript">
var viewWidth = 837;
var viewHeight = 372;
var sectionId = 'dynsection-0';
</script>
<script type="application/ecmascript" xlink:href="svg.min.js"/>
<svg id="graph" class="graph">
<g id="viewport">
<title>dspic33ck&#45;dab.X/mcc_generated_files/pwm_hs/pwm_hs_types.h</title>
<!-- Node1 -->
<g id="Node000001" class="node">
<title>Node1</title>
<g id="a_Node000001"><a xlink:title="This is the generated driver types header file for the PWM driver.">
<polygon fill="#999999" stroke="#666666" points="624.75,-364 515,-364 515,-320 624.75,-320 624.75,-364"/>
<text text-anchor="start" x="523" y="-350.5" font-family="Helvetica,sans-Serif" font-size="10.00">dspic33ck&#45;dab.X/mcc</text>
<text text-anchor="start" x="523" y="-338.5" font-family="Helvetica,sans-Serif" font-size="10.00">_generated_files/pwm</text>
<text text-anchor="middle" x="569.88" y="-326.5" font-family="Helvetica,sans-Serif" font-size="10.00">_hs/pwm_hs_types.h</text>
</a>
</g>
</g>
<!-- Node2 -->
<g id="Node000002" class="node">
<title>Node2</title>
<g id="a_Node000002"><a xlink:href="a00152.html" target="_top" xlink:title="This is the generated driver header file for the PWM driver.">
<polygon fill="white" stroke="#666666" points="535.75,-204 426,-204 426,-160 535.75,-160 535.75,-204"/>
<text text-anchor="start" x="434" y="-190.5" font-family="Helvetica,sans-Serif" font-size="10.00">dspic33ck&#45;dab.X/mcc</text>
<text text-anchor="start" x="434" y="-178.5" font-family="Helvetica,sans-Serif" font-size="10.00">_generated_files/pwm</text>
<text text-anchor="middle" x="480.88" y="-166.5" font-family="Helvetica,sans-Serif" font-size="10.00">_hs/pwm.h</text>
</a>
</g>
</g>
<!-- Node1&#45;&gt;Node2 -->
<g id="edge1_Node000001_Node000002" class="edge">
<title>Node1&#45;&gt;Node2</title>
<g id="a_edge1_Node000001_Node000002"><a xlink:title=" ">
<path fill="none" stroke="#63b8ff" d="M525.94,-313.11C516,-304.87 506.45,-295.05 499.88,-284 485.19,-259.31 481.46,-225.73 480.71,-204.2"/>
<polygon fill="#63b8ff" stroke="#63b8ff" points="523.29,-316.27 533.32,-319.66 527.6,-310.75 523.29,-316.27"/>
</a>
</g>
</g>
<!-- Node8 -->
<g id="Node000008" class="node">
<title>Node8</title>
<g id="a_Node000008"><a xlink:href="a00443.html" target="_top" xlink:title="Contains power control initialization including control loop initialization and start&#45;up initializati...">
<polygon fill="white" stroke="#666666" points="829.25,-118 704.5,-118 704.5,-86 829.25,-86 829.25,-118"/>
<text text-anchor="start" x="712.5" y="-104.5" font-family="Helvetica,sans-Serif" font-size="10.00">dspic33ck&#45;dab.X/sources</text>
<text text-anchor="middle" x="766.88" y="-92.5" font-family="Helvetica,sans-Serif" font-size="10.00">/pwrctrl/pwrctrl.c</text>
</a>
</g>
</g>
<!-- Node1&#45;&gt;Node8 -->
<g id="edge11_Node000001_Node000008" class="edge">
<title>Node1&#45;&gt;Node8</title>
<g id="a_edge11_Node000001_Node000008"><a xlink:title=" ">
<path fill="none" stroke="#63b8ff" d="M608.18,-312.96C618.97,-304.25 630.35,-294.23 639.88,-284 691.66,-228.37 739.31,-150.52 758.25,-118.1"/>
<polygon fill="#63b8ff" stroke="#63b8ff" points="606.39,-310.71 600.7,-319.65 610.72,-316.2 606.39,-310.71"/>
</a>
</g>
</g>
<!-- Node10 -->
<g id="Node000010" class="node">
<title>Node10</title>
<g id="a_Node000010"><a xlink:href="a00158_source.html" target="_top" xlink:title=" ">
<polygon fill="white" stroke="#666666" points="630.38,-284 509.38,-284 509.38,-240 630.38,-240 630.38,-284"/>
<text text-anchor="start" x="517.38" y="-270.5" font-family="Helvetica,sans-Serif" font-size="10.00">dspic33ck&#45;dab.X/mcc</text>
<text text-anchor="start" x="517.38" y="-258.5" font-family="Helvetica,sans-Serif" font-size="10.00">_generated_files/pwm</text>
<text text-anchor="middle" x="569.88" y="-246.5" font-family="Helvetica,sans-Serif" font-size="10.00">_hs/pwm_hs_interface.h</text>
</a>
</g>
</g>
<!-- Node1&#45;&gt;Node10 -->
<g id="edge9_Node000001_Node000010" class="edge">
<title>Node1&#45;&gt;Node10</title>
<g id="a_edge9_Node000001_Node000010"><a xlink:title=" ">
<path fill="none" stroke="#63b8ff" d="M569.88,-308.82C569.88,-300.54 569.88,-291.85 569.88,-284.29"/>
<polygon fill="#63b8ff" stroke="#63b8ff" points="566.38,-308.69 569.88,-318.69 573.38,-308.69 566.38,-308.69"/>
</a>
</g>
</g>
<!-- Node3 -->
<g id="Node000003" class="node">
<title>Node3</title>
<g id="a_Node000003"><a xlink:href="a00164.html" target="_top" xlink:title="This is the generated driver source file for PWM driver.">
<polygon fill="white" stroke="#666666" points="109.75,-124 0,-124 0,-80 109.75,-80 109.75,-124"/>
<text text-anchor="start" x="8" y="-110.5" font-family="Helvetica,sans-Serif" font-size="10.00">dspic33ck&#45;dab.X/mcc</text>
<text text-anchor="start" x="8" y="-98.5" font-family="Helvetica,sans-Serif" font-size="10.00">_generated_files/pwm</text>
<text text-anchor="middle" x="54.88" y="-86.5" font-family="Helvetica,sans-Serif" font-size="10.00">_hs/src/pwm.c</text>
</a>
</g>
</g>
<!-- Node2&#45;&gt;Node3 -->
<g id="edge2_Node000002_Node000003" class="edge">
<title>Node2&#45;&gt;Node3</title>
<g id="a_edge2_Node000002_Node000003"><a xlink:title=" ">
<path fill="none" stroke="#63b8ff" d="M414.89,-173.85C341.85,-165.18 220.94,-148.61 118.88,-124 116.03,-123.31 113.14,-122.56 110.22,-121.76"/>
<polygon fill="#63b8ff" stroke="#63b8ff" points="414.41,-177.43 424.75,-175.12 415.23,-170.48 414.41,-177.43"/>
</a>
</g>
</g>
<!-- Node4 -->
<g id="Node000004" class="node">
<title>Node4</title>
<g id="a_Node000004"><a xlink:href="a00209.html" target="_top" xlink:title="This is the generated driver header file for the System driver.">
<polygon fill="white" stroke="#666666" points="249.75,-124 128,-124 128,-80 249.75,-80 249.75,-124"/>
<text text-anchor="start" x="136" y="-110.5" font-family="Helvetica,sans-Serif" font-size="10.00">dspic33ck&#45;dab.X/mcc</text>
<text text-anchor="start" x="136" y="-98.5" font-family="Helvetica,sans-Serif" font-size="10.00">_generated_files/system</text>
<text text-anchor="middle" x="188.88" y="-86.5" font-family="Helvetica,sans-Serif" font-size="10.00">/src/system.c</text>
</a>
</g>
</g>
<!-- Node2&#45;&gt;Node4 -->
<g id="edge3_Node000002_Node000004" class="edge">
<title>Node2&#45;&gt;Node4</title>
<g id="a_edge3_Node000002_Node000004"><a xlink:title=" ">
<path fill="none" stroke="#63b8ff" d="M415.31,-165.07C370.77,-154.04 310.6,-138.75 257.88,-124 255.34,-123.29 252.76,-122.56 250.16,-121.81"/>
<polygon fill="#63b8ff" stroke="#63b8ff" points="414.16,-168.64 424.7,-167.63 415.83,-161.84 414.16,-168.64"/>
</a>
</g>
</g>
<!-- Node5 -->
<g id="Node000005" class="node">
<title>Node5</title>
<g id="a_Node000005"><a xlink:href="a00338.html" target="_top" xlink:title="Contains PWM initialization that was not supported by MCC generated code.">
<polygon fill="white" stroke="#666666" points="400.38,-124 267.38,-124 267.38,-80 400.38,-80 400.38,-124"/>
<text text-anchor="start" x="275.38" y="-110.5" font-family="Helvetica,sans-Serif" font-size="10.00">dspic33ck&#45;dab.X/sources</text>
<text text-anchor="start" x="275.38" y="-98.5" font-family="Helvetica,sans-Serif" font-size="10.00">/driver/mcc_extension</text>
<text text-anchor="middle" x="333.88" y="-86.5" font-family="Helvetica,sans-Serif" font-size="10.00">/drv_custom_config_pwm.h</text>
</a>
</g>
</g>
<!-- Node2&#45;&gt;Node5 -->
<g id="edge4_Node000002_Node000005" class="edge">
<title>Node2&#45;&gt;Node5</title>
<g id="a_edge4_Node000002_Node000005"><a xlink:title=" ">
<path fill="none" stroke="#63b8ff" d="M431.24,-154.66C412.69,-144.82 391.87,-133.77 374.25,-124.42"/>
<polygon fill="#63b8ff" stroke="#63b8ff" points="429.23,-158.09 439.71,-159.69 432.51,-151.91 429.23,-158.09"/>
</a>
</g>
</g>
<!-- Node7 -->
<g id="Node000007" class="node">
<title>Node7</title>
<g id="a_Node000007"><a xlink:href="a00362.html" target="_top" xlink:title="Contains fault functions including the fault handler, fault object initialization and fault execution...">
<polygon fill="white" stroke="#666666" points="543.25,-118 418.5,-118 418.5,-86 543.25,-86 543.25,-118"/>
<text text-anchor="start" x="426.5" y="-104.5" font-family="Helvetica,sans-Serif" font-size="10.00">dspic33ck&#45;dab.X/sources</text>
<text text-anchor="middle" x="480.88" y="-92.5" font-family="Helvetica,sans-Serif" font-size="10.00">/fault/fault.c</text>
</a>
</g>
</g>
<!-- Node2&#45;&gt;Node7 -->
<g id="edge6_Node000002_Node000007" class="edge">
<title>Node2&#45;&gt;Node7</title>
<g id="a_edge6_Node000002_Node000007"><a xlink:title=" ">
<path fill="none" stroke="#63b8ff" d="M480.88,-148.96C480.88,-138.28 480.88,-126.88 480.88,-118.11"/>
<polygon fill="#63b8ff" stroke="#63b8ff" points="477.38,-148.69 480.88,-158.69 484.38,-148.69 477.38,-148.69"/>
</a>
</g>
</g>
<!-- Node2&#45;&gt;Node8 -->
<g id="edge7_Node000002_Node000008" class="edge">
<title>Node2&#45;&gt;Node8</title>
<g id="a_edge7_Node000002_Node000008"><a xlink:title=" ">
<path fill="none" stroke="#63b8ff" d="M546.42,-163.97C588.83,-152.84 645.2,-137.86 694.88,-124 701.27,-122.22 707.98,-120.31 714.61,-118.4"/>
<polygon fill="#63b8ff" stroke="#63b8ff" points="545.74,-160.79 536.95,-166.71 547.51,-167.56 545.74,-160.79"/>
</a>
</g>
</g>
<!-- Node9 -->
<g id="Node000009" class="node">
<title>Node9</title>
<g id="a_Node000009"><a xlink:href="a00470.html" target="_top" xlink:title="Contains DAB control phase calculation between primary and secondary, and the PWM distribution.">
<polygon fill="white" stroke="#666666" points="686.25,-118 561.5,-118 561.5,-86 686.25,-86 686.25,-118"/>
<text text-anchor="start" x="569.5" y="-104.5" font-family="Helvetica,sans-Serif" font-size="10.00">dspic33ck&#45;dab.X/sources</text>
<text text-anchor="middle" x="623.88" y="-92.5" font-family="Helvetica,sans-Serif" font-size="10.00">/pwrctrl/pwrctrl_pwm.c</text>
</a>
</g>
</g>
<!-- Node2&#45;&gt;Node9 -->
<g id="edge8_Node000002_Node000009" class="edge">
<title>Node2&#45;&gt;Node9</title>
<g id="a_edge8_Node000002_Node000009"><a xlink:title=" ">
<path fill="none" stroke="#63b8ff" d="M529.5,-154.48C551.56,-142.44 576.88,-128.64 595.73,-118.35"/>
<polygon fill="#63b8ff" stroke="#63b8ff" points="528.05,-151.82 520.95,-159.69 531.41,-157.97 528.05,-151.82"/>
</a>
</g>
</g>
<!-- Node6 -->
<g id="Node000006" class="node">
<title>Node6</title>
<g id="a_Node000006"><a xlink:href="a00350_source.html" target="_top" xlink:title=" ">
<polygon fill="white" stroke="#666666" points="396.25,-44 271.5,-44 271.5,0 396.25,0 396.25,-44"/>
<text text-anchor="start" x="279.5" y="-30.5" font-family="Helvetica,sans-Serif" font-size="10.00">dspic33ck&#45;dab.X/sources</text>
<text text-anchor="start" x="279.5" y="-18.5" font-family="Helvetica,sans-Serif" font-size="10.00">/driver/mcc_extension</text>
<text text-anchor="middle" x="333.88" y="-6.5" font-family="Helvetica,sans-Serif" font-size="10.00">/mcc_custom_config.c</text>
</a>
</g>
</g>
<!-- Node5&#45;&gt;Node6 -->
<g id="edge5_Node000005_Node000006" class="edge">
<title>Node5&#45;&gt;Node6</title>
<g id="a_edge5_Node000005_Node000006"><a xlink:title=" ">
<path fill="none" stroke="#63b8ff" d="M333.88,-68.82C333.88,-60.54 333.88,-51.85 333.88,-44.29"/>
<polygon fill="#63b8ff" stroke="#63b8ff" points="330.38,-68.69 333.88,-78.69 337.38,-68.69 330.38,-68.69"/>
</a>
</g>
</g>
<!-- Node10&#45;&gt;Node2 -->
<g id="edge10_Node000010_Node000002" class="edge">
<title>Node10&#45;&gt;Node2</title>
<g id="a_edge10_Node000010_Node000002"><a xlink:title=" ">
<path fill="none" stroke="#63b8ff" d="M537.3,-232.45C526.67,-223.14 515.07,-212.97 505.17,-204.29"/>
<polygon fill="#63b8ff" stroke="#63b8ff" points="534.73,-235.73 544.56,-239.69 539.34,-230.46 534.73,-235.73"/>
</a>
</g>
</g>
</g>
</svg>

<g id="navigator" transform="translate(0 0)" fill="#404254">
  <rect fill="#f2f5e9" fill-opacity="0.5" stroke="#606060" stroke-width=".5" x="0" y="0" width="60" height="60"/>
  <use id="zoomplus" xlink:href="#zoomPlus" x="17" y="9" onmousedown="handleZoom(evt,'in')"/>
  <use id="zoomminus" xlink:href="#zoomMin" x="42" y="9" onmousedown="handleZoom(evt,'out')"/>
  <use id="reset" xlink:href="#resetDef" x="30" y="36" onmousedown="handleReset()"/>
   <use id="arrowup" xlink:href="#arrowUp" x="0" y="0" onmousedown="handlePan(0,-1)"/>
  <use id="arrowright" xlink:href="#arrowRight" x="0" y="0" onmousedown="handlePan(1,0)"/>
  <use id="arrowdown" xlink:href="#arrowDown" x="0" y="0" onmousedown="handlePan(0,1)"/>
  <use id="arrowleft" xlink:href="#arrowLeft" x="0" y="0" onmousedown="handlePan(-1,0)"/>
</g>
<svg viewBox="0 0 15 15" width="100%" height="30px" preserveAspectRatio="xMaxYMin meet">
 <g id="arrow_out" transform="scale(0.3 0.3)">
  <a xlink:href="a00163_org.svg" target="_base">
   <rect id="button" ry="5" rx="5" y="6" x="6" height="38" width="38"
        fill="#f2f5e9" fill-opacity="0.5" stroke="#606060" stroke-width="1.0"/>
   <path id="arrow"
     d="M 11.500037,31.436501 C 11.940474,20.09759 22.043105,11.32322 32.158766,21.979434 L 37.068811,17.246167 C 37.068811,17.246167 37.088388,32 37.088388,32 L 22.160133,31.978069 C 22.160133,31.978069 26.997745,27.140456 26.997745,27.140456 C 18.528582,18.264221 13.291696,25.230495 11.500037,31.436501 z"
     style="fill:#404040;"/>
  </a>
 </g>
</svg>

<style type='text/css'>
<![CDATA[
[data-mouse-over-selected='false'] { opacity: 0.7; }
[data-mouse-over-selected='true']  { opacity: 1.0; }
]]>
</style>
<script type="application/ecmascript"><![CDATA[
document.addEventListener('DOMContentLoaded', (event) => {
  highlightEdges();
  highlightAdjacentNodes();
});
]]></script>
</svg>
