<?xml version="1.0" encoding="UTF-8" standalone="no"?>
<!DOCTYPE svg PUBLIC "-//W3C//DTD SVG 1.1//EN"
 "http://www.w3.org/Graphics/SVG/1.1/DTD/svg11.dtd">
<!-- Generated by graphviz version 8.1.0 (20230707.0739)
 -->
<!-- Title: dspic33ck&#45;dab.X/mcc_generated_files/pwm_hs/src/pwm.c Pages: 1 -->
<svg width="342pt" height="220pt"
 viewBox="0.00 0.00 342.12 220.00" xmlns="http://www.w3.org/2000/svg" xmlns:xlink="http://www.w3.org/1999/xlink">
<g id="graph0" class="graph" transform="scale(1 1) rotate(0) translate(4 216)">
<title>dspic33ck&#45;dab.X/mcc_generated_files/pwm_hs/src/pwm.c</title>
<!-- Node1 -->
<g id="Node000001" class="node">
<title>Node1</title>
<g id="a_Node000001"><a xlink:title="This is the generated driver source file for PWM driver.">
<polygon fill="#999999" stroke="#666666" points="235.25,-212 125.5,-212 125.5,-168 235.25,-168 235.25,-212"/>
<text text-anchor="start" x="133.5" y="-198.5" font-family="Helvetica,sans-Serif" font-size="10.00">dspic33ck&#45;dab.X/mcc</text>
<text text-anchor="start" x="133.5" y="-186.5" font-family="Helvetica,sans-Serif" font-size="10.00">_generated_files/pwm</text>
<text text-anchor="middle" x="180.38" y="-174.5" font-family="Helvetica,sans-Serif" font-size="10.00">_hs/src/pwm.c</text>
</a>
</g>
</g>
<!-- Node2 -->
<g id="Node000002" class="node">
<title>Node2</title>
<g id="a_Node000002"><a xlink:href="a00170.html" target="_top" xlink:title="This is the generated driver header file for the PWM driver.">
<polygon fill="white" stroke="#666666" points="207.12,-132 153.62,-132 153.62,-112 207.12,-112 207.12,-132"/>
<text text-anchor="middle" x="180.38" y="-118.5" font-family="Helvetica,sans-Serif" font-size="10.00">../pwm.h</text>
</a>
</g>
</g>
<!-- Node1&#45;&gt;Node2 -->
<g id="edge1_Node000001_Node000002" class="edge">
<title>Node1&#45;&gt;Node2</title>
<g id="a_edge1_Node000001_Node000002"><a xlink:title=" ">
<path fill="none" stroke="#63b8ff" d="M180.38,-167.75C180.38,-159.94 180.38,-151.11 180.38,-143.38"/>
<polygon fill="#63b8ff" stroke="#63b8ff" points="183.88,-143.42 180.38,-133.42 176.88,-143.42 183.88,-143.42"/>
</a>
</g>
</g>
<!-- Node3 -->
<g id="Node000003" class="node">
<title>Node3</title>
<g id="a_Node000003"><a xlink:title=" ">
<polygon fill="#e0e0e0" stroke="#999999" points="34.75,-76 0,-76 0,-56 34.75,-56 34.75,-76"/>
<text text-anchor="middle" x="17.38" y="-62.5" font-family="Helvetica,sans-Serif" font-size="10.00">xc.h</text>
</a>
</g>
</g>
<!-- Node2&#45;&gt;Node3 -->
<g id="edge2_Node000002_Node000003" class="edge">
<title>Node2&#45;&gt;Node3</title>
<g id="a_edge2_Node000002_Node000003"><a xlink:title=" ">
<path fill="none" stroke="#63b8ff" d="M153.46,-112.08C123.5,-102.16 75.33,-86.2 45.06,-76.17"/>
<polygon fill="#63b8ff" stroke="#63b8ff" points="46.38,-72.59 35.79,-72.77 44.18,-79.24 46.38,-72.59"/>
</a>
</g>
</g>
<!-- Node4 -->
<g id="Node000004" class="node">
<title>Node4</title>
<g id="a_Node000004"><a xlink:title=" ">
<polygon fill="#e0e0e0" stroke="#999999" points="97.5,-20 49.25,-20 49.25,0 97.5,0 97.5,-20"/>
<text text-anchor="middle" x="73.38" y="-6.5" font-family="Helvetica,sans-Serif" font-size="10.00">stdint.h</text>
</a>
</g>
</g>
<!-- Node2&#45;&gt;Node4 -->
<g id="edge3_Node000002_Node000004" class="edge">
<title>Node2&#45;&gt;Node4</title>
<g id="a_edge3_Node000002_Node000004"><a xlink:title=" ">
<path fill="none" stroke="#63b8ff" d="M153.49,-116.32C130.49,-110.81 98.47,-99.28 81.38,-76 72.01,-63.24 70.46,-45.14 71,-31.27"/>
<polygon fill="#63b8ff" stroke="#63b8ff" points="74.56,-31.67 71.87,-21.42 67.58,-31.11 74.56,-31.67"/>
</a>
</g>
</g>
<!-- Node5 -->
<g id="Node000005" class="node">
<title>Node5</title>
<g id="a_Node000005"><a xlink:title=" ">
<polygon fill="#e0e0e0" stroke="#999999" points="175.25,-20 119.5,-20 119.5,0 175.25,0 175.25,-20"/>
<text text-anchor="middle" x="147.38" y="-6.5" font-family="Helvetica,sans-Serif" font-size="10.00">stdbool.h</text>
</a>
</g>
</g>
<!-- Node2&#45;&gt;Node5 -->
<g id="edge4_Node000002_Node000005" class="edge">
<title>Node2&#45;&gt;Node5</title>
<g id="a_edge4_Node000002_Node000005"><a xlink:title=" ">
<path fill="none" stroke="#63b8ff" d="M187.53,-111.9C196.68,-99.07 210.33,-75.12 201.38,-56 195.69,-43.86 184.94,-33.86 174.53,-26.39"/>
<polygon fill="#63b8ff" stroke="#63b8ff" points="176.86,-23.08 166.59,-20.49 173.01,-28.92 176.86,-23.08"/>
</a>
</g>
</g>
<!-- Node6 -->
<g id="Node000006" class="node">
<title>Node6</title>
<g id="a_Node000006"><a xlink:title=" ">
<polygon fill="#e0e0e0" stroke="#999999" points="334.12,-76 286.62,-76 286.62,-56 334.12,-56 334.12,-76"/>
<text text-anchor="middle" x="310.38" y="-62.5" font-family="Helvetica,sans-Serif" font-size="10.00">stdlib.h</text>
</a>
</g>
</g>
<!-- Node2&#45;&gt;Node6 -->
<g id="edge5_Node000002_Node000006" class="edge">
<title>Node2&#45;&gt;Node6</title>
<g id="a_edge5_Node000002_Node000006"><a xlink:title=" ">
<path fill="none" stroke="#63b8ff" d="M203.02,-111.59C223.58,-103.05 254.17,-90.35 277.44,-80.68"/>
<polygon fill="#63b8ff" stroke="#63b8ff" points="278.66,-83.55 286.55,-76.48 275.98,-77.08 278.66,-83.55"/>
</a>
</g>
</g>
<!-- Node7 -->
<g id="Node000007" class="node">
<title>Node7</title>
<g id="a_Node000007"><a xlink:href="a00179.html" target="_top" xlink:title="This is the generated driver types header file for the PWM driver.">
<polygon fill="white" stroke="#666666" points="296.12,-20 206.62,-20 206.62,0 296.12,0 296.12,-20"/>
<text text-anchor="middle" x="251.38" y="-6.5" font-family="Helvetica,sans-Serif" font-size="10.00">pwm_hs_types.h</text>
</a>
</g>
</g>
<!-- Node2&#45;&gt;Node7 -->
<g id="edge6_Node000002_Node000007" class="edge">
<title>Node2&#45;&gt;Node7</title>
<g id="a_edge6_Node000002_Node000007"><a xlink:title=" ">
<path fill="none" stroke="#63b8ff" d="M188.62,-111.72C196.28,-102.88 207.77,-89.02 216.38,-76 226.21,-61.13 235.69,-43.24 242.29,-29.99"/>
<polygon fill="#63b8ff" stroke="#63b8ff" points="245.87,-31.65 247.11,-21.13 239.58,-28.57 245.87,-31.65"/>
</a>
</g>
</g>
<!-- Node8 -->
<g id="Node000008" class="node">
<title>Node8</title>
<g id="a_Node000008"><a xlink:href="a00176_source.html" target="_top" xlink:title=" ">
<polygon fill="white" stroke="#666666" points="192.5,-76 90.25,-76 90.25,-56 192.5,-56 192.5,-76"/>
<text text-anchor="middle" x="141.38" y="-62.5" font-family="Helvetica,sans-Serif" font-size="10.00">pwm_hs_interface.h</text>
</a>
</g>
</g>
<!-- Node2&#45;&gt;Node8 -->
<g id="edge7_Node000002_Node000008" class="edge">
<title>Node2&#45;&gt;Node8</title>
<g id="a_edge7_Node000002_Node000008"><a xlink:title=" ">
<path fill="none" stroke="#63b8ff" d="M173.58,-111.59C168.32,-104.32 160.89,-94.02 154.48,-85.15"/>
<polygon fill="#63b8ff" stroke="#63b8ff" points="156.78,-83.36 148.09,-77.3 151.11,-87.45 156.78,-83.36"/>
</a>
</g>
</g>
<!-- Node8&#45;&gt;Node4 -->
<g id="edge9_Node000008_Node000004" class="edge">
<title>Node8&#45;&gt;Node4</title>
<g id="a_edge9_Node000008_Node000004"><a xlink:title=" ">
<path fill="none" stroke="#63b8ff" d="M129.53,-55.59C119.58,-47.7 105.16,-36.24 93.42,-26.92"/>
<polygon fill="#63b8ff" stroke="#63b8ff" points="96.09,-23.78 86.08,-20.3 91.74,-29.26 96.09,-23.78"/>
</a>
</g>
</g>
<!-- Node8&#45;&gt;Node5 -->
<g id="edge8_Node000008_Node000005" class="edge">
<title>Node8&#45;&gt;Node5</title>
<g id="a_edge8_Node000008_Node000005"><a xlink:title=" ">
<path fill="none" stroke="#63b8ff" d="M142.42,-55.59C143.17,-48.86 144.2,-39.53 145.14,-31.15"/>
<polygon fill="#63b8ff" stroke="#63b8ff" points="148.72,-31.62 146.34,-21.3 141.76,-30.85 148.72,-31.62"/>
</a>
</g>
</g>
<!-- Node8&#45;&gt;Node7 -->
<g id="edge10_Node000008_Node000007" class="edge">
<title>Node8&#45;&gt;Node7</title>
<g id="a_edge10_Node000008_Node000007"><a xlink:title=" ">
<path fill="none" stroke="#63b8ff" d="M160.54,-55.59C177.62,-47.21 202.89,-34.8 222.44,-25.21"/>
<polygon fill="#63b8ff" stroke="#63b8ff" points="223.63,-28.03 231.06,-20.48 220.55,-21.74 223.63,-28.03"/>
</a>
</g>
</g>
</g>
</svg>
