<?xml version="1.0" encoding="UTF-8" standalone="no"?>
<!DOCTYPE svg PUBLIC "-//W3C//DTD SVG 1.1//EN"
 "http://www.w3.org/Graphics/SVG/1.1/DTD/svg11.dtd">
<!-- Generated by graphviz version 8.1.0 (20230707.0739)
 -->
<!-- Title: dspic33ck&#45;dab.X/mcc_generated_files/timer/sccp1.h Pages: 1 -->
<svg width="540pt" height="132pt"
 viewBox="0.00 0.00 540.12 132.00" xmlns="http://www.w3.org/2000/svg" xmlns:xlink="http://www.w3.org/1999/xlink">
<g id="graph0" class="graph" transform="scale(1 1) rotate(0) translate(4 128)">
<title>dspic33ck&#45;dab.X/mcc_generated_files/timer/sccp1.h</title>
<!-- Node1 -->
<g id="Node000001" class="node">
<title>Node1</title>
<g id="a_Node000001"><a xlink:title="This is the generated driver header file for the SCCP1&#45;TIMER driver.">
<polygon fill="#999999" stroke="#666666" points="321.38,-124 210.12,-124 210.12,-80 321.38,-80 321.38,-124"/>
<text text-anchor="start" x="218.12" y="-110.5" font-family="Helvetica,sans-Serif" font-size="10.00">dspic33ck&#45;dab.X/mcc</text>
<text text-anchor="start" x="218.12" y="-98.5" font-family="Helvetica,sans-Serif" font-size="10.00">_generated_files/timer</text>
<text text-anchor="middle" x="265.75" y="-86.5" font-family="Helvetica,sans-Serif" font-size="10.00">/sccp1.h</text>
</a>
</g>
</g>
<!-- Node2 -->
<g id="Node000002" class="node">
<title>Node2</title>
<g id="a_Node000002"><a xlink:href="a00080_source.html" target="_top" xlink:title=" ">
<polygon fill="white" stroke="#666666" points="119.5,-32 0,-32 0,-12 119.5,-12 119.5,-32"/>
<text text-anchor="middle" x="59.75" y="-18.5" font-family="Helvetica,sans-Serif" font-size="10.00">dspic33ck&#45;dab.X/main.c</text>
</a>
</g>
</g>
<!-- Node1&#45;&gt;Node2 -->
<g id="edge1_Node000001_Node000002" class="edge">
<title>Node1&#45;&gt;Node2</title>
<g id="a_edge1_Node000001_Node000002"><a xlink:title=" ">
<path fill="none" stroke="#63b8ff" d="M199.69,-75.99C160.45,-61.13 112.98,-43.15 84.63,-32.42"/>
<polygon fill="#63b8ff" stroke="#63b8ff" points="198.14,-79.52 208.73,-79.79 200.62,-72.97 198.14,-79.52"/>
</a>
</g>
</g>
<!-- Node3 -->
<g id="Node000003" class="node">
<title>Node3</title>
<g id="a_Node000003"><a xlink:href="a00227.html" target="_top" xlink:title="This is the generated driver header file for the System driver.">
<polygon fill="white" stroke="#666666" points="259.62,-44 137.88,-44 137.88,0 259.62,0 259.62,-44"/>
<text text-anchor="start" x="145.88" y="-30.5" font-family="Helvetica,sans-Serif" font-size="10.00">dspic33ck&#45;dab.X/mcc</text>
<text text-anchor="start" x="145.88" y="-18.5" font-family="Helvetica,sans-Serif" font-size="10.00">_generated_files/system</text>
<text text-anchor="middle" x="198.75" y="-6.5" font-family="Helvetica,sans-Serif" font-size="10.00">/src/system.c</text>
</a>
</g>
</g>
<!-- Node1&#45;&gt;Node3 -->
<g id="edge2_Node000001_Node000003" class="edge">
<title>Node1&#45;&gt;Node3</title>
<g id="a_edge2_Node000001_Node000003"><a xlink:title=" ">
<path fill="none" stroke="#63b8ff" d="M240.51,-71.62C232.71,-62.53 224.27,-52.71 217.04,-44.29"/>
<polygon fill="#63b8ff" stroke="#63b8ff" points="238.27,-73.38 247.44,-78.69 243.58,-68.82 238.27,-73.38"/>
</a>
</g>
</g>
<!-- Node4 -->
<g id="Node000004" class="node">
<title>Node4</title>
<g id="a_Node000004"><a xlink:href="a00248.html" target="_top" xlink:title="This is the generated driver source file for SCCP1&#45;TIMER driver.">
<polygon fill="white" stroke="#666666" points="389.38,-44 278.12,-44 278.12,0 389.38,0 389.38,-44"/>
<text text-anchor="start" x="286.12" y="-30.5" font-family="Helvetica,sans-Serif" font-size="10.00">dspic33ck&#45;dab.X/mcc</text>
<text text-anchor="start" x="286.12" y="-18.5" font-family="Helvetica,sans-Serif" font-size="10.00">_generated_files/timer</text>
<text text-anchor="middle" x="333.75" y="-6.5" font-family="Helvetica,sans-Serif" font-size="10.00">/src/sccp1.c</text>
</a>
</g>
</g>
<!-- Node1&#45;&gt;Node4 -->
<g id="edge3_Node000001_Node000004" class="edge">
<title>Node1&#45;&gt;Node4</title>
<g id="a_edge3_Node000001_Node000004"><a xlink:title=" ">
<path fill="none" stroke="#63b8ff" d="M291.37,-71.62C299.28,-62.53 307.85,-52.71 315.19,-44.29"/>
<polygon fill="#63b8ff" stroke="#63b8ff" points="288.26,-68.85 284.33,-78.69 293.54,-73.45 288.26,-68.85"/>
</a>
</g>
</g>
<!-- Node5 -->
<g id="Node000005" class="node">
<title>Node5</title>
<g id="a_Node000005"><a xlink:href="a00482.html" target="_top" xlink:title="Contains Control loop interrupt Callback that acquires the ADC raw data and process it in the control...">
<polygon fill="white" stroke="#666666" points="532.12,-38 407.38,-38 407.38,-6 532.12,-6 532.12,-38"/>
<text text-anchor="start" x="415.38" y="-24.5" font-family="Helvetica,sans-Serif" font-size="10.00">dspic33ck&#45;dab.X/sources</text>
<text text-anchor="middle" x="469.75" y="-12.5" font-family="Helvetica,sans-Serif" font-size="10.00">/pwrctrl/pwrctrl_isr.c</text>
</a>
</g>
</g>
<!-- Node1&#45;&gt;Node5 -->
<g id="edge4_Node000001_Node000005" class="edge">
<title>Node1&#45;&gt;Node5</title>
<g id="a_edge4_Node000001_Node000005"><a xlink:title=" ">
<path fill="none" stroke="#63b8ff" d="M331.98,-75.68C364.09,-63.4 401.61,-49.05 429.38,-38.43"/>
<polygon fill="#63b8ff" stroke="#63b8ff" points="330.85,-72.74 322.76,-79.58 333.35,-79.28 330.85,-72.74"/>
</a>
</g>
</g>
</g>
</svg>
