<?xml version="1.0" encoding="UTF-8" standalone="no"?>
<!DOCTYPE svg PUBLIC "-//W3C//DTD SVG 1.1//EN"
 "http://www.w3.org/Graphics/SVG/1.1/DTD/svg11.dtd">
<!-- Generated by graphviz version 8.1.0 (20230707.0739)
 -->
<!-- Title: dspic33ck&#45;dab.X/mcc_generated_files/uart/uart_types.h Pages: 1 -->
<svg width="399pt" height="292pt"
 viewBox="0.00 0.00 399.25 292.00" xmlns="http://www.w3.org/2000/svg" xmlns:xlink="http://www.w3.org/1999/xlink">
<g id="graph0" class="graph" transform="scale(1 1) rotate(0) translate(4 288)">
<title>dspic33ck&#45;dab.X/mcc_generated_files/uart/uart_types.h</title>
<!-- Node1 -->
<g id="Node000001" class="node">
<title>Node1</title>
<g id="a_Node000001"><a xlink:title="This is the generated driver types header file for the UART driver.">
<polygon fill="#999999" stroke="#666666" points="248.38,-284 139.38,-284 139.38,-240 248.38,-240 248.38,-284"/>
<text text-anchor="start" x="147.38" y="-270.5" font-family="Helvetica,sans-Serif" font-size="10.00">dspic33ck&#45;dab.X/mcc</text>
<text text-anchor="start" x="147.38" y="-258.5" font-family="Helvetica,sans-Serif" font-size="10.00">_generated_files/uart</text>
<text text-anchor="middle" x="193.88" y="-246.5" font-family="Helvetica,sans-Serif" font-size="10.00">/uart_types.h</text>
</a>
</g>
</g>
<!-- Node2 -->
<g id="Node000002" class="node">
<title>Node2</title>
<g id="a_Node000002"><a xlink:href="a00266_source.html" target="_top" xlink:title=" ">
<polygon fill="white" stroke="#666666" points="248.38,-204 139.38,-204 139.38,-160 248.38,-160 248.38,-204"/>
<text text-anchor="start" x="147.38" y="-190.5" font-family="Helvetica,sans-Serif" font-size="10.00">dspic33ck&#45;dab.X/mcc</text>
<text text-anchor="start" x="147.38" y="-178.5" font-family="Helvetica,sans-Serif" font-size="10.00">_generated_files/uart</text>
<text text-anchor="middle" x="193.88" y="-166.5" font-family="Helvetica,sans-Serif" font-size="10.00">/uart_interface.h</text>
</a>
</g>
</g>
<!-- Node1&#45;&gt;Node2 -->
<g id="edge1_Node000001_Node000002" class="edge">
<title>Node1&#45;&gt;Node2</title>
<g id="a_edge1_Node000001_Node000002"><a xlink:title=" ">
<path fill="none" stroke="#63b8ff" d="M193.88,-228.82C193.88,-220.54 193.88,-211.85 193.88,-204.29"/>
<polygon fill="#63b8ff" stroke="#63b8ff" points="190.38,-228.69 193.88,-238.69 197.38,-228.69 190.38,-228.69"/>
</a>
</g>
</g>
<!-- Node3 -->
<g id="Node000003" class="node">
<title>Node3</title>
<g id="a_Node000003"><a xlink:href="a00263.html" target="_top" xlink:title="This is the generated driver header file for the UART1 driver.">
<polygon fill="white" stroke="#666666" points="248.38,-124 139.38,-124 139.38,-80 248.38,-80 248.38,-124"/>
<text text-anchor="start" x="147.38" y="-110.5" font-family="Helvetica,sans-Serif" font-size="10.00">dspic33ck&#45;dab.X/mcc</text>
<text text-anchor="start" x="147.38" y="-98.5" font-family="Helvetica,sans-Serif" font-size="10.00">_generated_files/uart</text>
<text text-anchor="middle" x="193.88" y="-86.5" font-family="Helvetica,sans-Serif" font-size="10.00">/uart1.h</text>
</a>
</g>
</g>
<!-- Node2&#45;&gt;Node3 -->
<g id="edge2_Node000002_Node000003" class="edge">
<title>Node2&#45;&gt;Node3</title>
<g id="a_edge2_Node000002_Node000003"><a xlink:title=" ">
<path fill="none" stroke="#63b8ff" d="M193.88,-148.82C193.88,-140.54 193.88,-131.85 193.88,-124.29"/>
<polygon fill="#63b8ff" stroke="#63b8ff" points="190.38,-148.69 193.88,-158.69 197.38,-148.69 190.38,-148.69"/>
</a>
</g>
</g>
<!-- Node4 -->
<g id="Node000004" class="node">
<title>Node4</title>
<g id="a_Node000004"><a xlink:href="a00227.html" target="_top" xlink:title="This is the generated driver header file for the System driver.">
<polygon fill="white" stroke="#666666" points="121.75,-44 0,-44 0,0 121.75,0 121.75,-44"/>
<text text-anchor="start" x="8" y="-30.5" font-family="Helvetica,sans-Serif" font-size="10.00">dspic33ck&#45;dab.X/mcc</text>
<text text-anchor="start" x="8" y="-18.5" font-family="Helvetica,sans-Serif" font-size="10.00">_generated_files/system</text>
<text text-anchor="middle" x="60.88" y="-6.5" font-family="Helvetica,sans-Serif" font-size="10.00">/src/system.c</text>
</a>
</g>
</g>
<!-- Node3&#45;&gt;Node4 -->
<g id="edge3_Node000003_Node000004" class="edge">
<title>Node3&#45;&gt;Node4</title>
<g id="a_edge3_Node000003_Node000004"><a xlink:title=" ">
<path fill="none" stroke="#63b8ff" d="M148.47,-74.37C131.73,-64.55 113,-53.57 97.17,-44.29"/>
<polygon fill="#63b8ff" stroke="#63b8ff" points="146.14,-77.65 156.53,-79.69 149.68,-71.61 146.14,-77.65"/>
</a>
</g>
</g>
<!-- Node5 -->
<g id="Node000005" class="node">
<title>Node5</title>
<g id="a_Node000005"><a xlink:href="a00260.html" target="_top" xlink:title="This is the generated driver source file for the UART1 driver.">
<polygon fill="white" stroke="#666666" points="248.38,-44 139.38,-44 139.38,0 248.38,0 248.38,-44"/>
<text text-anchor="start" x="147.38" y="-30.5" font-family="Helvetica,sans-Serif" font-size="10.00">dspic33ck&#45;dab.X/mcc</text>
<text text-anchor="start" x="147.38" y="-18.5" font-family="Helvetica,sans-Serif" font-size="10.00">_generated_files/uart</text>
<text text-anchor="middle" x="193.88" y="-6.5" font-family="Helvetica,sans-Serif" font-size="10.00">/src/uart1.c</text>
</a>
</g>
</g>
<!-- Node3&#45;&gt;Node5 -->
<g id="edge4_Node000003_Node000005" class="edge">
<title>Node3&#45;&gt;Node5</title>
<g id="a_edge4_Node000003_Node000005"><a xlink:title=" ">
<path fill="none" stroke="#63b8ff" d="M193.88,-68.82C193.88,-60.54 193.88,-51.85 193.88,-44.29"/>
<polygon fill="#63b8ff" stroke="#63b8ff" points="190.38,-68.69 193.88,-78.69 197.38,-68.69 190.38,-68.69"/>
</a>
</g>
</g>
<!-- Node6 -->
<g id="Node000006" class="node">
<title>Node6</title>
<g id="a_Node000006"><a xlink:href="a00296_source.html" target="_top" xlink:title=" ">
<polygon fill="white" stroke="#666666" points="391.25,-38 266.5,-38 266.5,-6 391.25,-6 391.25,-38"/>
<text text-anchor="start" x="274.5" y="-24.5" font-family="Helvetica,sans-Serif" font-size="10.00">dspic33ck&#45;dab.X/sources</text>
<text text-anchor="middle" x="328.88" y="-12.5" font-family="Helvetica,sans-Serif" font-size="10.00">/comm/PBV_UART.c</text>
</a>
</g>
</g>
<!-- Node3&#45;&gt;Node6 -->
<g id="edge5_Node000003_Node000006" class="edge">
<title>Node3&#45;&gt;Node6</title>
<g id="a_edge5_Node000003_Node000006"><a xlink:title=" ">
<path fill="none" stroke="#63b8ff" d="M240.06,-74.31C260.82,-62.32 284.59,-48.59 302.3,-38.35"/>
<polygon fill="#63b8ff" stroke="#63b8ff" points="238.67,-71.65 231.76,-79.69 242.17,-77.71 238.67,-71.65"/>
</a>
</g>
</g>
</g>
</svg>
