<?xml version="1.0" encoding="UTF-8" standalone="no"?>
<!DOCTYPE svg PUBLIC "-//W3C//DTD SVG 1.1//EN"
 "http://www.w3.org/Graphics/SVG/1.1/DTD/svg11.dtd">
<!-- Generated by graphviz version 8.1.0 (20230707.0739)
 -->
<!-- Title: dab&#45;pwm&#45;configuration.X/mcc_generated_files/system/src/pins.c Pages: 1 -->
<svg width="174pt" height="164pt"
 viewBox="0.00 0.00 174.38 164.00" xmlns="http://www.w3.org/2000/svg" xmlns:xlink="http://www.w3.org/1999/xlink">
<g id="graph0" class="graph" transform="scale(1 1) rotate(0) translate(4 160)">
<title>dab&#45;pwm&#45;configuration.X/mcc_generated_files/system/src/pins.c</title>
<!-- Node1 -->
<g id="Node000001" class="node">
<title>Node1</title>
<g id="a_Node000001"><a xlink:title="This is the generated driver source file for PINS driver.">
<polygon fill="#999999" stroke="#666666" points="143.5,-156 0,-156 0,-112 143.5,-112 143.5,-156"/>
<text text-anchor="start" x="8" y="-142.5" font-family="Helvetica,sans-Serif" font-size="10.00">dab&#45;pwm&#45;configuration.X</text>
<text text-anchor="start" x="8" y="-130.5" font-family="Helvetica,sans-Serif" font-size="10.00">/mcc_generated_files/system</text>
<text text-anchor="middle" x="71.75" y="-118.5" font-family="Helvetica,sans-Serif" font-size="10.00">/src/pins.c</text>
</a>
</g>
</g>
<!-- Node2 -->
<g id="Node000002" class="node">
<title>Node2</title>
<g id="a_Node000002"><a xlink:title=" ">
<polygon fill="#e0e0e0" stroke="#999999" points="97.12,-20 62.38,-20 62.38,0 97.12,0 97.12,-20"/>
<text text-anchor="middle" x="79.75" y="-6.5" font-family="Helvetica,sans-Serif" font-size="10.00">xc.h</text>
</a>
</g>
</g>
<!-- Node1&#45;&gt;Node2 -->
<g id="edge1_Node000001_Node000002" class="edge">
<title>Node1&#45;&gt;Node2</title>
<g id="a_edge1_Node000001_Node000002"><a xlink:title=" ">
<path fill="none" stroke="#63b8ff" d="M52.51,-111.62C41.12,-96.28 30.25,-75.03 37.75,-56 42.05,-45.08 50.4,-35.25 58.52,-27.58"/>
<polygon fill="#63b8ff" stroke="#63b8ff" points="60.5,-29.63 65.73,-20.41 55.89,-24.35 60.5,-29.63"/>
</a>
</g>
</g>
<!-- Node3 -->
<g id="Node000003" class="node">
<title>Node3</title>
<g id="a_Node000003"><a xlink:title=" ">
<polygon fill="#e0e0e0" stroke="#999999" points="97,-76 46.5,-76 46.5,-56 97,-56 97,-76"/>
<text text-anchor="middle" x="71.75" y="-62.5" font-family="Helvetica,sans-Serif" font-size="10.00">stddef.h</text>
</a>
</g>
</g>
<!-- Node1&#45;&gt;Node3 -->
<g id="edge2_Node000001_Node000003" class="edge">
<title>Node1&#45;&gt;Node3</title>
<g id="a_edge2_Node000001_Node000003"><a xlink:title=" ">
<path fill="none" stroke="#63b8ff" d="M71.75,-111.75C71.75,-103.94 71.75,-95.11 71.75,-87.38"/>
<polygon fill="#63b8ff" stroke="#63b8ff" points="75.25,-87.42 71.75,-77.42 68.25,-87.42 75.25,-87.42"/>
</a>
</g>
</g>
<!-- Node4 -->
<g id="Node000004" class="node">
<title>Node4</title>
<g id="a_Node000004"><a xlink:href="a00209_source.html" target="_top" xlink:title=" ">
<polygon fill="white" stroke="#666666" points="166.38,-76 115.12,-76 115.12,-56 166.38,-56 166.38,-76"/>
<text text-anchor="middle" x="140.75" y="-62.5" font-family="Helvetica,sans-Serif" font-size="10.00">../pins.h</text>
</a>
</g>
</g>
<!-- Node1&#45;&gt;Node4 -->
<g id="edge3_Node000001_Node000004" class="edge">
<title>Node1&#45;&gt;Node4</title>
<g id="a_edge3_Node000001_Node000004"><a xlink:title=" ">
<path fill="none" stroke="#63b8ff" d="M93.96,-111.75C103.4,-102.73 114.24,-92.36 123.11,-83.87"/>
<polygon fill="#63b8ff" stroke="#63b8ff" points="125.1,-86.86 129.9,-77.42 120.26,-81.8 125.1,-86.86"/>
</a>
</g>
</g>
<!-- Node4&#45;&gt;Node2 -->
<g id="edge4_Node000004_Node000002" class="edge">
<title>Node4&#45;&gt;Node2</title>
<g id="a_edge4_Node000004_Node000002"><a xlink:title=" ">
<path fill="none" stroke="#63b8ff" d="M130.12,-55.59C121.38,-47.85 108.77,-36.69 98.35,-27.47"/>
<polygon fill="#63b8ff" stroke="#63b8ff" points="101.06,-25.31 91.25,-21.3 96.42,-30.55 101.06,-25.31"/>
</a>
</g>
</g>
</g>
</svg>
