<?xml version="1.0" encoding="UTF-8" standalone="no"?>
<!DOCTYPE svg PUBLIC "-//W3C//DTD SVG 1.1//EN"
 "http://www.w3.org/Graphics/SVG/1.1/DTD/svg11.dtd">
<!-- Generated by graphviz version 8.1.0 (20230707.0739)
 -->
<!-- Title: dspic33ck&#45;dab.X/mcc_generated_files/system/src/dmt.c Pages: 1 -->
<svg width="266pt" height="164pt"
 viewBox="0.00 0.00 265.62 164.00" xmlns="http://www.w3.org/2000/svg" xmlns:xlink="http://www.w3.org/1999/xlink">
<g id="graph0" class="graph" transform="scale(1 1) rotate(0) translate(4 160)">
<title>dspic33ck&#45;dab.X/mcc_generated_files/system/src/dmt.c</title>
<!-- Node1 -->
<g id="Node000001" class="node">
<title>Node1</title>
<g id="a_Node000001"><a xlink:title="This is the generated driver source file for DMT driver.">
<polygon fill="#999999" stroke="#666666" points="173.25,-156 51.5,-156 51.5,-112 173.25,-112 173.25,-156"/>
<text text-anchor="start" x="59.5" y="-142.5" font-family="Helvetica,sans-Serif" font-size="10.00">dspic33ck&#45;dab.X/mcc</text>
<text text-anchor="start" x="59.5" y="-130.5" font-family="Helvetica,sans-Serif" font-size="10.00">_generated_files/system</text>
<text text-anchor="middle" x="112.38" y="-118.5" font-family="Helvetica,sans-Serif" font-size="10.00">/src/dmt.c</text>
</a>
</g>
</g>
<!-- Node2 -->
<g id="Node000002" class="node">
<title>Node2</title>
<g id="a_Node000002"><a xlink:title=" ">
<polygon fill="#e0e0e0" stroke="#999999" points="34.75,-76 0,-76 0,-56 34.75,-56 34.75,-76"/>
<text text-anchor="middle" x="17.38" y="-62.5" font-family="Helvetica,sans-Serif" font-size="10.00">xc.h</text>
</a>
</g>
</g>
<!-- Node1&#45;&gt;Node2 -->
<g id="edge1_Node000001_Node000002" class="edge">
<title>Node1&#45;&gt;Node2</title>
<g id="a_edge1_Node000001_Node000002"><a xlink:title=" ">
<path fill="none" stroke="#63b8ff" d="M81.53,-111.57C67.89,-102.09 52.15,-91.16 39.67,-82.49"/>
<polygon fill="#63b8ff" stroke="#63b8ff" points="42.06,-79.2 31.86,-76.37 38.07,-84.95 42.06,-79.2"/>
</a>
</g>
</g>
<!-- Node3 -->
<g id="Node000003" class="node">
<title>Node3</title>
<g id="a_Node000003"><a xlink:title=" ">
<polygon fill="#e0e0e0" stroke="#999999" points="103.62,-76 53.12,-76 53.12,-56 103.62,-56 103.62,-76"/>
<text text-anchor="middle" x="78.38" y="-62.5" font-family="Helvetica,sans-Serif" font-size="10.00">stddef.h</text>
</a>
</g>
</g>
<!-- Node1&#45;&gt;Node3 -->
<g id="edge2_Node000001_Node000003" class="edge">
<title>Node1&#45;&gt;Node3</title>
<g id="a_edge2_Node000001_Node000003"><a xlink:title=" ">
<path fill="none" stroke="#63b8ff" d="M101.43,-111.75C97.16,-103.47 92.31,-94.06 88.17,-86.01"/>
<polygon fill="#63b8ff" stroke="#63b8ff" points="90.92,-84.71 83.23,-77.42 84.7,-87.91 90.92,-84.71"/>
</a>
</g>
</g>
<!-- Node4 -->
<g id="Node000004" class="node">
<title>Node4</title>
<g id="a_Node000004"><a xlink:href="a00185_source.html" target="_top" xlink:title=" ">
<polygon fill="white" stroke="#666666" points="171.25,-76 121.5,-76 121.5,-56 171.25,-56 171.25,-76"/>
<text text-anchor="middle" x="146.38" y="-62.5" font-family="Helvetica,sans-Serif" font-size="10.00">../dmt.h</text>
</a>
</g>
</g>
<!-- Node1&#45;&gt;Node4 -->
<g id="edge3_Node000001_Node000004" class="edge">
<title>Node1&#45;&gt;Node4</title>
<g id="a_edge3_Node000001_Node000004"><a xlink:title=" ">
<path fill="none" stroke="#63b8ff" d="M123.32,-111.75C127.59,-103.47 132.44,-94.06 136.58,-86.01"/>
<polygon fill="#63b8ff" stroke="#63b8ff" points="140.05,-87.91 141.52,-77.42 133.83,-84.71 140.05,-87.91"/>
</a>
</g>
</g>
<!-- Node7 -->
<g id="Node000007" class="node">
<title>Node7</title>
<g id="a_Node000007"><a xlink:href="a00188_source.html" target="_top" xlink:title=" ">
<polygon fill="white" stroke="#666666" points="257.62,-76 189.12,-76 189.12,-56 257.62,-56 257.62,-76"/>
<text text-anchor="middle" x="223.38" y="-62.5" font-family="Helvetica,sans-Serif" font-size="10.00">../interrupt.h</text>
</a>
</g>
</g>
<!-- Node1&#45;&gt;Node7 -->
<g id="edge6_Node000001_Node000007" class="edge">
<title>Node1&#45;&gt;Node7</title>
<g id="a_edge6_Node000001_Node000007"><a xlink:title=" ">
<path fill="none" stroke="#63b8ff" d="M148.41,-111.57C164.67,-101.91 183.47,-90.73 198.18,-81.98"/>
<polygon fill="#63b8ff" stroke="#63b8ff" points="199.82,-84.48 206.62,-76.37 196.24,-78.47 199.82,-84.48"/>
</a>
</g>
</g>
<!-- Node5 -->
<g id="Node000005" class="node">
<title>Node5</title>
<g id="a_Node000005"><a xlink:title=" ">
<polygon fill="#e0e0e0" stroke="#999999" points="139.25,-20 83.5,-20 83.5,0 139.25,0 139.25,-20"/>
<text text-anchor="middle" x="111.38" y="-6.5" font-family="Helvetica,sans-Serif" font-size="10.00">stdbool.h</text>
</a>
</g>
</g>
<!-- Node4&#45;&gt;Node5 -->
<g id="edge4_Node000004_Node000005" class="edge">
<title>Node4&#45;&gt;Node5</title>
<g id="a_edge4_Node000004_Node000005"><a xlink:title=" ">
<path fill="none" stroke="#63b8ff" d="M140.28,-55.59C135.61,-48.39 129.03,-38.23 123.32,-29.43"/>
<polygon fill="#63b8ff" stroke="#63b8ff" points="125.78,-27.79 117.4,-21.3 119.9,-31.59 125.78,-27.79"/>
</a>
</g>
</g>
<!-- Node6 -->
<g id="Node000006" class="node">
<title>Node6</title>
<g id="a_Node000006"><a xlink:title=" ">
<polygon fill="#e0e0e0" stroke="#999999" points="205.5,-20 157.25,-20 157.25,0 205.5,0 205.5,-20"/>
<text text-anchor="middle" x="181.38" y="-6.5" font-family="Helvetica,sans-Serif" font-size="10.00">stdint.h</text>
</a>
</g>
</g>
<!-- Node4&#45;&gt;Node6 -->
<g id="edge5_Node000004_Node000006" class="edge">
<title>Node4&#45;&gt;Node6</title>
<g id="a_edge5_Node000004_Node000006"><a xlink:title=" ">
<path fill="none" stroke="#63b8ff" d="M152.47,-55.59C157.14,-48.39 163.72,-38.23 169.43,-29.43"/>
<polygon fill="#63b8ff" stroke="#63b8ff" points="172.85,-31.59 175.35,-21.3 166.97,-27.79 172.85,-31.59"/>
</a>
</g>
</g>
</g>
</svg>
