<?xml version="1.0" encoding="UTF-8" standalone="no"?>
<!DOCTYPE svg PUBLIC "-//W3C//DTD SVG 1.1//EN"
 "http://www.w3.org/Graphics/SVG/1.1/DTD/svg11.dtd">
<!-- Generated by graphviz version 8.1.0 (20230707.0739)
 -->
<!-- Title: dab&#45;pwm&#45;configuration.X/mcc_generated_files/timer/tmr1.h Pages: 1 -->
<svg width="312pt" height="176pt"
 viewBox="0.00 0.00 312.00 176.00" xmlns="http://www.w3.org/2000/svg" xmlns:xlink="http://www.w3.org/1999/xlink">
<g id="graph0" class="graph" transform="scale(1 1) rotate(0) translate(4 172)">
<title>dab&#45;pwm&#45;configuration.X/mcc_generated_files/timer/tmr1.h</title>
<!-- Node1 -->
<g id="Node000001" class="node">
<title>Node1</title>
<g id="a_Node000001"><a xlink:title="This is the generated driver header file for the TMR1 driver.">
<polygon fill="#999999" stroke="#666666" points="185.75,-168 52.75,-168 52.75,-124 185.75,-124 185.75,-168"/>
<text text-anchor="start" x="60.75" y="-154.5" font-family="Helvetica,sans-Serif" font-size="10.00">dab&#45;pwm&#45;configuration.X</text>
<text text-anchor="start" x="60.75" y="-142.5" font-family="Helvetica,sans-Serif" font-size="10.00">/mcc_generated_files/timer</text>
<text text-anchor="middle" x="119.25" y="-130.5" font-family="Helvetica,sans-Serif" font-size="10.00">/tmr1.h</text>
</a>
</g>
</g>
<!-- Node2 -->
<g id="Node000002" class="node">
<title>Node2</title>
<g id="a_Node000002"><a xlink:title=" ">
<polygon fill="#e0e0e0" stroke="#999999" points="50.5,-26 0,-26 0,-6 50.5,-6 50.5,-26"/>
<text text-anchor="middle" x="25.25" y="-12.5" font-family="Helvetica,sans-Serif" font-size="10.00">stddef.h</text>
</a>
</g>
</g>
<!-- Node1&#45;&gt;Node2 -->
<g id="edge1_Node000001_Node000002" class="edge">
<title>Node1&#45;&gt;Node2</title>
<g id="a_edge1_Node000001_Node000002"><a xlink:title=" ">
<path fill="none" stroke="#63b8ff" d="M103.52,-123.58C85.32,-98.79 55.67,-58.42 38.56,-35.13"/>
<polygon fill="#63b8ff" stroke="#63b8ff" points="40.81,-33.27 32.07,-27.29 35.17,-37.42 40.81,-33.27"/>
</a>
</g>
</g>
<!-- Node3 -->
<g id="Node000003" class="node">
<title>Node3</title>
<g id="a_Node000003"><a xlink:title=" ">
<polygon fill="#e0e0e0" stroke="#999999" points="116.38,-26 68.12,-26 68.12,-6 116.38,-6 116.38,-26"/>
<text text-anchor="middle" x="92.25" y="-12.5" font-family="Helvetica,sans-Serif" font-size="10.00">stdint.h</text>
</a>
</g>
</g>
<!-- Node1&#45;&gt;Node3 -->
<g id="edge2_Node000001_Node000003" class="edge">
<title>Node1&#45;&gt;Node3</title>
<g id="a_edge2_Node000001_Node000003"><a xlink:title=" ">
<path fill="none" stroke="#63b8ff" d="M112.02,-123.55C108.66,-112.95 104.85,-99.91 102.25,-88 98.52,-70.9 95.87,-51.16 94.24,-36.84"/>
<polygon fill="#63b8ff" stroke="#63b8ff" points="97.65,-36.84 93.11,-27.27 90.69,-37.58 97.65,-36.84"/>
</a>
</g>
</g>
<!-- Node4 -->
<g id="Node000004" class="node">
<title>Node4</title>
<g id="a_Node000004"><a xlink:title=" ">
<polygon fill="#e0e0e0" stroke="#999999" points="251.62,-88 216.88,-88 216.88,-68 251.62,-68 251.62,-88"/>
<text text-anchor="middle" x="234.25" y="-74.5" font-family="Helvetica,sans-Serif" font-size="10.00">xc.h</text>
</a>
</g>
</g>
<!-- Node1&#45;&gt;Node4 -->
<g id="edge3_Node000001_Node000004" class="edge">
<title>Node1&#45;&gt;Node4</title>
<g id="a_edge3_Node000001_Node000004"><a xlink:title=" ">
<path fill="none" stroke="#63b8ff" d="M156.59,-123.57C173.59,-113.81 193.28,-102.51 208.58,-93.73"/>
<polygon fill="#63b8ff" stroke="#63b8ff" points="210,-96.38 216.93,-88.37 206.52,-90.31 210,-96.38"/>
</a>
</g>
</g>
<!-- Node5 -->
<g id="Node000005" class="node">
<title>Node5</title>
<g id="a_Node000005"><a xlink:href="a00266_source.html" target="_top" xlink:title=" ">
<polygon fill="white" stroke="#666666" points="199.25,-88 111.25,-88 111.25,-68 199.25,-68 199.25,-88"/>
<text text-anchor="middle" x="155.25" y="-74.5" font-family="Helvetica,sans-Serif" font-size="10.00">timer_interface.h</text>
</a>
</g>
</g>
<!-- Node1&#45;&gt;Node5 -->
<g id="edge4_Node000001_Node000005" class="edge">
<title>Node1&#45;&gt;Node5</title>
<g id="a_edge4_Node000001_Node000005"><a xlink:title=" ">
<path fill="none" stroke="#63b8ff" d="M130.84,-123.75C135.36,-115.47 140.49,-106.06 144.88,-98.01"/>
<polygon fill="#63b8ff" stroke="#63b8ff" points="148.4,-99.87 150.11,-89.42 142.25,-96.52 148.4,-99.87"/>
</a>
</g>
</g>
<!-- Node5&#45;&gt;Node2 -->
<g id="edge5_Node000005_Node000002" class="edge">
<title>Node5&#45;&gt;Node2</title>
<g id="a_edge5_Node000005_Node000002"><a xlink:title=" ">
<path fill="none" stroke="#63b8ff" d="M134.94,-67.62C113.57,-57.76 79.71,-42.13 55.26,-30.85"/>
<polygon fill="#63b8ff" stroke="#63b8ff" points="56.97,-27.32 46.42,-26.31 54.03,-33.68 56.97,-27.32"/>
</a>
</g>
</g>
<!-- Node5&#45;&gt;Node3 -->
<g id="edge6_Node000005_Node000003" class="edge">
<title>Node5&#45;&gt;Node3</title>
<g id="a_edge6_Node000005_Node000003"><a xlink:title=" ">
<path fill="none" stroke="#63b8ff" d="M145.41,-67.62C135.83,-58.5 121.07,-44.45 109.53,-33.46"/>
<polygon fill="#63b8ff" stroke="#63b8ff" points="112.47,-31.47 102.82,-27.11 107.65,-36.54 112.47,-31.47"/>
</a>
</g>
</g>
<!-- Node6 -->
<g id="Node000006" class="node">
<title>Node6</title>
<g id="a_Node000006"><a xlink:title=" ">
<polygon fill="#e0e0e0" stroke="#999999" points="190.12,-26 134.38,-26 134.38,-6 190.12,-6 190.12,-26"/>
<text text-anchor="middle" x="162.25" y="-12.5" font-family="Helvetica,sans-Serif" font-size="10.00">stdbool.h</text>
</a>
</g>
</g>
<!-- Node5&#45;&gt;Node6 -->
<g id="edge7_Node000005_Node000006" class="edge">
<title>Node5&#45;&gt;Node6</title>
<g id="a_edge7_Node000005_Node000006"><a xlink:title=" ">
<path fill="none" stroke="#63b8ff" d="M156.34,-67.62C157.3,-59.39 158.74,-47.13 159.95,-36.74"/>
<polygon fill="#63b8ff" stroke="#63b8ff" points="163.5,-37.45 161.19,-27.11 156.55,-36.64 163.5,-37.45"/>
</a>
</g>
</g>
<!-- Node7 -->
<g id="Node000007" class="node">
<title>Node7</title>
<g id="a_Node000007"><a xlink:href="a00206_source.html" target="_top" xlink:title=" ">
<polygon fill="white" stroke="#666666" points="304,-32 208.5,-32 208.5,0 304,0 304,-32"/>
<text text-anchor="start" x="216.5" y="-18.5" font-family="Helvetica,sans-Serif" font-size="10.00">../system/interrupt</text>
<text text-anchor="middle" x="256.25" y="-6.5" font-family="Helvetica,sans-Serif" font-size="10.00">_types.h</text>
</a>
</g>
</g>
<!-- Node5&#45;&gt;Node7 -->
<g id="edge8_Node000005_Node000007" class="edge">
<title>Node5&#45;&gt;Node7</title>
<g id="a_edge8_Node000005_Node000007"><a xlink:title=" ">
<path fill="none" stroke="#63b8ff" d="M171.03,-67.62C184.42,-59.67 204.12,-47.97 221.2,-37.82"/>
<polygon fill="#63b8ff" stroke="#63b8ff" points="222.56,-40.49 229.37,-32.37 218.99,-34.47 222.56,-40.49"/>
</a>
</g>
</g>
</g>
</svg>
