<?xml version="1.0" encoding="UTF-8" standalone="no"?>
<!DOCTYPE svg PUBLIC "-//W3C//DTD SVG 1.1//EN"
 "http://www.w3.org/Graphics/SVG/1.1/DTD/svg11.dtd">
<!-- Generated by graphviz version 8.1.0 (20230707.0739)
 -->
<!-- Title: dspic33ck&#45;dab.X/mcc_generated_files/system/src/traps.c Pages: 1 -->
<svg width="130pt" height="164pt"
 viewBox="0.00 0.00 129.75 164.00" xmlns="http://www.w3.org/2000/svg" xmlns:xlink="http://www.w3.org/1999/xlink">

<svg id="main" version="1.1" xmlns="http://www.w3.org/2000/svg" xmlns:xlink="http://www.w3.org/1999/xlink" xml:space="preserve" onload="init(evt)">
<style type="text/css"><![CDATA[
.node, .edge {opacity: 0.7;}
.node.selected, .edge.selected {opacity: 1;}
.edge:hover path { stroke: red; }
.edge:hover polygon { stroke: red; fill: red; }
]]></style>
<script type="application/ecmascript" xlink:href="svg.min.js"/>
<svg id="graph" class="graph">
<g id="graph0" class="graph" transform="scale(1 1) rotate(0) translate(4 160)">
<title>dspic33ck&#45;dab.X/mcc_generated_files/system/src/traps.c</title>
<!-- Node1 -->
<g id="Node000001" class="node">
<title>Node1</title>
<g id="a_Node000001"><a xlink:title="This is the generated driver source file for TRAPS driver.">
<polygon fill="#999999" stroke="#666666" points="121.75,-156 0,-156 0,-112 121.75,-112 121.75,-156"/>
<text text-anchor="start" x="8" y="-142.5" font-family="Helvetica,sans-Serif" font-size="10.00">dspic33ck&#45;dab.X/mcc</text>
<text text-anchor="start" x="8" y="-130.5" font-family="Helvetica,sans-Serif" font-size="10.00">_generated_files/system</text>
<text text-anchor="middle" x="60.88" y="-118.5" font-family="Helvetica,sans-Serif" font-size="10.00">/src/traps.c</text>
</a>
</g>
</g>
<!-- Node2 -->
<g id="Node000002" class="node">
<title>Node2</title>
<g id="a_Node000002"><a xlink:title=" ">
<polygon fill="#e0e0e0" stroke="#999999" points="47.25,-76 12.5,-76 12.5,-56 47.25,-56 47.25,-76"/>
<text text-anchor="middle" x="29.88" y="-62.5" font-family="Helvetica,sans-Serif" font-size="10.00">xc.h</text>
</a>
</g>
</g>
<!-- Node1&#45;&gt;Node2 -->
<g id="edge1_Node000001_Node000002" class="edge">
<title>Node1&#45;&gt;Node2</title>
<g id="a_edge1_Node000001_Node000002"><a xlink:title=" ">
<path fill="none" stroke="#63b8ff" d="M50.9,-111.75C47.05,-103.57 42.68,-94.27 38.93,-86.28"/>
<polygon fill="#63b8ff" stroke="#63b8ff" points="41.72,-84.98 34.3,-77.42 35.38,-87.96 41.72,-84.98"/>
</a>
</g>
</g>
<!-- Node3 -->
<g id="Node000003" class="node">
<title>Node3</title>
<g id="a_Node000003"><a xlink:href="a00242_source.html" target="_top" xlink:title=" ">
<polygon fill="white" stroke="#666666" points="120.38,-76 65.38,-76 65.38,-56 120.38,-56 120.38,-76"/>
<text text-anchor="middle" x="92.88" y="-62.5" font-family="Helvetica,sans-Serif" font-size="10.00">../traps.h</text>
</a>
</g>
</g>
<!-- Node1&#45;&gt;Node3 -->
<g id="edge2_Node000001_Node000003" class="edge">
<title>Node1&#45;&gt;Node3</title>
<g id="a_edge2_Node000001_Node000003"><a xlink:title=" ">
<path fill="none" stroke="#63b8ff" d="M71.18,-111.75C75.15,-103.57 79.65,-94.27 83.53,-86.28"/>
<polygon fill="#63b8ff" stroke="#63b8ff" points="87.09,-87.94 88.31,-77.42 80.8,-84.89 87.09,-87.94"/>
</a>
</g>
</g>
<!-- Node4 -->
<g id="Node000004" class="node">
<title>Node4</title>
<g id="a_Node000004"><a xlink:title=" ">
<polygon fill="#e0e0e0" stroke="#999999" points="117,-20 68.75,-20 68.75,0 117,0 117,-20"/>
<text text-anchor="middle" x="92.88" y="-6.5" font-family="Helvetica,sans-Serif" font-size="10.00">stdint.h</text>
</a>
</g>
</g>
<!-- Node3&#45;&gt;Node4 -->
<g id="edge3_Node000003_Node000004" class="edge">
<title>Node3&#45;&gt;Node4</title>
<g id="a_edge3_Node000003_Node000004"><a xlink:title=" ">
<path fill="none" stroke="#63b8ff" d="M92.88,-55.59C92.88,-48.86 92.88,-39.53 92.88,-31.15"/>
<polygon fill="#63b8ff" stroke="#63b8ff" points="96.38,-31.3 92.88,-21.3 89.38,-31.3 96.38,-31.3"/>
</a>
</g>
</g>
</g>
</svg>
</svg>

<style type='text/css'>
<![CDATA[
[data-mouse-over-selected='false'] { opacity: 0.7; }
[data-mouse-over-selected='true']  { opacity: 1.0; }
]]>
</style>
<script type="application/ecmascript"><![CDATA[
document.addEventListener('DOMContentLoaded', (event) => {
  highlightEdges();
  highlightAdjacentNodes();
});
]]></script>
</svg>
