<?xml version="1.0" encoding="UTF-8" standalone="no"?>
<!DOCTYPE svg PUBLIC "-//W3C//DTD SVG 1.1//EN"
 "http://www.w3.org/Graphics/SVG/1.1/DTD/svg11.dtd">
<!-- Generated by graphviz version 8.1.0 (20230707.0739)
 -->
<!-- Title: dspic33ck&#45;dab.X/sources/comm/PBV_DAB_frame_map.h Pages: 1 -->
<svg width="256pt" height="108pt"
 viewBox="0.00 0.00 256.38 108.00" xmlns="http://www.w3.org/2000/svg" xmlns:xlink="http://www.w3.org/1999/xlink">
<g id="graph0" class="graph" transform="scale(1 1) rotate(0) translate(4 104)">
<title>dspic33ck&#45;dab.X/sources/comm/PBV_DAB_frame_map.h</title>
<!-- Node1 -->
<g id="Node000001" class="node">
<title>Node1</title>
<g id="a_Node000001"><a xlink:title="app PBV DAB Frame map file Example">
<polygon fill="#999999" stroke="#666666" points="203.88,-100 47.62,-100 47.62,-68 203.88,-68 203.88,-100"/>
<text text-anchor="start" x="55.62" y="-86.5" font-family="Helvetica,sans-Serif" font-size="10.00">dspic33ck&#45;dab.X/sources</text>
<text text-anchor="middle" x="125.75" y="-74.5" font-family="Helvetica,sans-Serif" font-size="10.00">/comm/PBV_DAB_frame_map.h</text>
</a>
</g>
</g>
<!-- Node2 -->
<g id="Node000002" class="node">
<title>Node2</title>
<g id="a_Node000002"><a xlink:href="a00050_source.html" target="_top" xlink:title=" ">
<polygon fill="white" stroke="#666666" points="119.5,-26 0,-26 0,-6 119.5,-6 119.5,-26"/>
<text text-anchor="middle" x="59.75" y="-12.5" font-family="Helvetica,sans-Serif" font-size="10.00">dspic33ck&#45;dab.X/main.c</text>
</a>
</g>
</g>
<!-- Node1&#45;&gt;Node2 -->
<g id="edge1_Node000001_Node000002" class="edge">
<title>Node1&#45;&gt;Node2</title>
<g id="a_edge1_Node000001_Node000002"><a xlink:title=" ">
<path fill="none" stroke="#63b8ff" d="M102.79,-60.04C91.21,-48.46 77.8,-35.05 69.07,-26.32"/>
<polygon fill="#63b8ff" stroke="#63b8ff" points="99.9,-62.1 109.44,-66.69 104.85,-57.15 99.9,-62.1"/>
</a>
</g>
</g>
<!-- Node3 -->
<g id="Node000003" class="node">
<title>Node3</title>
<g id="a_Node000003"><a xlink:href="a00053_source.html" target="_top" xlink:title=" ">
<polygon fill="white" stroke="#666666" points="248.38,-32 137.12,-32 137.12,0 248.38,0 248.38,-32"/>
<text text-anchor="start" x="145.12" y="-18.5" font-family="Helvetica,sans-Serif" font-size="10.00">dspic33ck&#45;dab.X/main</text>
<text text-anchor="middle" x="192.75" y="-6.5" font-family="Helvetica,sans-Serif" font-size="10.00">_tasks.c</text>
</a>
</g>
</g>
<!-- Node1&#45;&gt;Node3 -->
<g id="edge2_Node000001_Node000003" class="edge">
<title>Node1&#45;&gt;Node3</title>
<g id="a_edge2_Node000001_Node000003"><a xlink:title=" ">
<path fill="none" stroke="#63b8ff" d="M149.11,-59.99C158.44,-50.79 168.94,-40.46 177.29,-32.22"/>
<polygon fill="#63b8ff" stroke="#63b8ff" points="146.96,-57.18 142.29,-66.69 151.87,-62.17 146.96,-57.18"/>
</a>
</g>
</g>
</g>
</svg>
