<?xml version="1.0" encoding="UTF-8" standalone="no"?>
<!DOCTYPE svg PUBLIC "-//W3C//DTD SVG 1.1//EN"
 "http://www.w3.org/Graphics/SVG/1.1/DTD/svg11.dtd">
<!-- Generated by graphviz version 8.1.0 (20230707.0739)
 -->
<!-- Title: dspic33ck&#45;dab.X/mcc_generated_files/system/src/pins.c Pages: 1 -->
<svg width="164pt" height="164pt"
 viewBox="0.00 0.00 163.50 164.00" xmlns="http://www.w3.org/2000/svg" xmlns:xlink="http://www.w3.org/1999/xlink">
<g id="graph0" class="graph" transform="scale(1 1) rotate(0) translate(4 160)">
<title>dspic33ck&#45;dab.X/mcc_generated_files/system/src/pins.c</title>
<!-- Node1 -->
<g id="Node000001" class="node">
<title>Node1</title>
<g id="a_Node000001"><a xlink:title="This is the generated driver source file for PINS driver.">
<polygon fill="#999999" stroke="#666666" points="121.75,-156 0,-156 0,-112 121.75,-112 121.75,-156"/>
<text text-anchor="start" x="8" y="-142.5" font-family="Helvetica,sans-Serif" font-size="10.00">dspic33ck&#45;dab.X/mcc</text>
<text text-anchor="start" x="8" y="-130.5" font-family="Helvetica,sans-Serif" font-size="10.00">_generated_files/system</text>
<text text-anchor="middle" x="60.88" y="-118.5" font-family="Helvetica,sans-Serif" font-size="10.00">/src/pins.c</text>
</a>
</g>
</g>
<!-- Node2 -->
<g id="Node000002" class="node">
<title>Node2</title>
<g id="a_Node000002"><a xlink:title=" ">
<polygon fill="#e0e0e0" stroke="#999999" points="86.25,-20 51.5,-20 51.5,0 86.25,0 86.25,-20"/>
<text text-anchor="middle" x="68.88" y="-6.5" font-family="Helvetica,sans-Serif" font-size="10.00">xc.h</text>
</a>
</g>
</g>
<!-- Node1&#45;&gt;Node2 -->
<g id="edge1_Node000001_Node000002" class="edge">
<title>Node1&#45;&gt;Node2</title>
<g id="a_edge1_Node000001_Node000002"><a xlink:title=" ">
<path fill="none" stroke="#63b8ff" d="M41.64,-111.62C30.24,-96.28 19.37,-75.03 26.88,-56 31.18,-45.08 39.52,-35.25 47.65,-27.58"/>
<polygon fill="#63b8ff" stroke="#63b8ff" points="49.62,-29.63 54.85,-20.41 45.02,-24.35 49.62,-29.63"/>
</a>
</g>
</g>
<!-- Node3 -->
<g id="Node000003" class="node">
<title>Node3</title>
<g id="a_Node000003"><a xlink:title=" ">
<polygon fill="#e0e0e0" stroke="#999999" points="86.12,-76 35.62,-76 35.62,-56 86.12,-56 86.12,-76"/>
<text text-anchor="middle" x="60.88" y="-62.5" font-family="Helvetica,sans-Serif" font-size="10.00">stddef.h</text>
</a>
</g>
</g>
<!-- Node1&#45;&gt;Node3 -->
<g id="edge2_Node000001_Node000003" class="edge">
<title>Node1&#45;&gt;Node3</title>
<g id="a_edge2_Node000001_Node000003"><a xlink:title=" ">
<path fill="none" stroke="#63b8ff" d="M60.88,-111.75C60.88,-103.94 60.88,-95.11 60.88,-87.38"/>
<polygon fill="#63b8ff" stroke="#63b8ff" points="64.38,-87.42 60.88,-77.42 57.38,-87.42 64.38,-87.42"/>
</a>
</g>
</g>
<!-- Node4 -->
<g id="Node000004" class="node">
<title>Node4</title>
<g id="a_Node000004"><a xlink:href="a00194_source.html" target="_top" xlink:title=" ">
<polygon fill="white" stroke="#666666" points="155.5,-76 104.25,-76 104.25,-56 155.5,-56 155.5,-76"/>
<text text-anchor="middle" x="129.88" y="-62.5" font-family="Helvetica,sans-Serif" font-size="10.00">../pins.h</text>
</a>
</g>
</g>
<!-- Node1&#45;&gt;Node4 -->
<g id="edge3_Node000001_Node000004" class="edge">
<title>Node1&#45;&gt;Node4</title>
<g id="a_edge3_Node000001_Node000004"><a xlink:title=" ">
<path fill="none" stroke="#63b8ff" d="M83.09,-111.75C92.52,-102.73 103.37,-92.36 112.24,-83.87"/>
<polygon fill="#63b8ff" stroke="#63b8ff" points="114.22,-86.86 119.03,-77.42 109.38,-81.8 114.22,-86.86"/>
</a>
</g>
</g>
<!-- Node4&#45;&gt;Node2 -->
<g id="edge4_Node000004_Node000002" class="edge">
<title>Node4&#45;&gt;Node2</title>
<g id="a_edge4_Node000004_Node000002"><a xlink:title=" ">
<path fill="none" stroke="#63b8ff" d="M119.25,-55.59C110.5,-47.85 97.89,-36.69 87.48,-27.47"/>
<polygon fill="#63b8ff" stroke="#63b8ff" points="90.19,-25.31 80.38,-21.3 85.55,-30.55 90.19,-25.31"/>
</a>
</g>
</g>
</g>
</svg>
