<?xml version="1.0" encoding="UTF-8" standalone="no"?>
<!DOCTYPE svg PUBLIC "-//W3C//DTD SVG 1.1//EN"
 "http://www.w3.org/Graphics/SVG/1.1/DTD/svg11.dtd">
<!-- Generated by graphviz version 8.1.0 (20230707.0739)
 -->
<!-- Title: dspic33ck&#45;dab.X/sources/comm/PBV_DAB_frame_map.h Pages: 1 -->
<svg width="202pt" height="152pt"
 viewBox="0.00 0.00 202.00 152.00" xmlns="http://www.w3.org/2000/svg" xmlns:xlink="http://www.w3.org/1999/xlink">

<svg id="main" version="1.1" xmlns="http://www.w3.org/2000/svg" xmlns:xlink="http://www.w3.org/1999/xlink" xml:space="preserve" onload="init(evt)">
<style type="text/css"><![CDATA[
.node, .edge {opacity: 0.7;}
.node.selected, .edge.selected {opacity: 1;}
.edge:hover path { stroke: red; }
.edge:hover polygon { stroke: red; fill: red; }
]]></style>
<script type="application/ecmascript" xlink:href="svg.min.js"/>
<svg id="graph" class="graph">
<g id="graph0" class="graph" transform="scale(1 1) rotate(0) translate(4 148)">
<title>dspic33ck&#45;dab.X/sources/comm/PBV_DAB_frame_map.h</title>
<!-- Node1 -->
<g id="Node000001" class="node">
<title>Node1</title>
<g id="a_Node000001"><a xlink:title="app PBV DAB Frame map file Example">
<polygon fill="#999999" stroke="#666666" points="156.25,-144 0,-144 0,-112 156.25,-112 156.25,-144"/>
<text text-anchor="start" x="8" y="-130.5" font-family="Helvetica,sans-Serif" font-size="10.00">dspic33ck&#45;dab.X/sources</text>
<text text-anchor="middle" x="78.12" y="-118.5" font-family="Helvetica,sans-Serif" font-size="10.00">/comm/PBV_DAB_frame_map.h</text>
</a>
</g>
</g>
<!-- Node2 -->
<g id="Node000002" class="node">
<title>Node2</title>
<g id="a_Node000002"><a xlink:title=" ">
<polygon fill="#e0e0e0" stroke="#999999" points="60.5,-20 25.75,-20 25.75,0 60.5,0 60.5,-20"/>
<text text-anchor="middle" x="43.12" y="-6.5" font-family="Helvetica,sans-Serif" font-size="10.00">xc.h</text>
</a>
</g>
</g>
<!-- Node1&#45;&gt;Node2 -->
<g id="edge1_Node000001_Node000002" class="edge">
<title>Node1&#45;&gt;Node2</title>
<g id="a_edge1_Node000001_Node000002"><a xlink:title=" ">
<path fill="none" stroke="#63b8ff" d="M73.29,-111.85C70.07,-101.72 65.78,-88.08 62.12,-76 57.53,-60.84 52.51,-43.63 48.78,-30.73"/>
<polygon fill="#63b8ff" stroke="#63b8ff" points="51.9,-29.92 45.77,-21.27 45.18,-31.85 51.9,-29.92"/>
</a>
</g>
</g>
<!-- Node3 -->
<g id="Node000003" class="node">
<title>Node3</title>
<g id="a_Node000003"><a xlink:href="a00263_source.html" target="_top" xlink:title=" ">
<polygon fill="white" stroke="#666666" points="157.38,-76 70.88,-76 70.88,-56 157.38,-56 157.38,-76"/>
<text text-anchor="middle" x="114.12" y="-62.5" font-family="Helvetica,sans-Serif" font-size="10.00">PBV_interface.h</text>
</a>
</g>
</g>
<!-- Node1&#45;&gt;Node3 -->
<g id="edge2_Node000001_Node000003" class="edge">
<title>Node1&#45;&gt;Node3</title>
<g id="a_edge2_Node000001_Node000003"><a xlink:title=" ">
<path fill="none" stroke="#63b8ff" d="M87.4,-111.55C92.14,-103.65 97.94,-93.97 102.93,-85.66"/>
<polygon fill="#63b8ff" stroke="#63b8ff" points="106.34,-87.78 108.48,-77.41 100.33,-84.18 106.34,-87.78"/>
</a>
</g>
</g>
<!-- Node3&#45;&gt;Node2 -->
<g id="edge3_Node000003_Node000002" class="edge">
<title>Node3&#45;&gt;Node2</title>
<g id="a_edge3_Node000003_Node000002"><a xlink:title=" ">
<path fill="none" stroke="#63b8ff" d="M101.76,-55.59C91.37,-47.7 76.31,-36.24 64.05,-26.92"/>
<polygon fill="#63b8ff" stroke="#63b8ff" points="66.43,-23.57 56.35,-20.3 62.19,-29.14 66.43,-23.57"/>
</a>
</g>
</g>
<!-- Node4 -->
<g id="Node000004" class="node">
<title>Node4</title>
<g id="a_Node000004"><a xlink:href="a00272_source.html" target="_top" xlink:title=" ">
<polygon fill="white" stroke="#666666" points="194,-20 78.25,-20 78.25,0 194,0 194,-20"/>
<text text-anchor="middle" x="136.12" y="-6.5" font-family="Helvetica,sans-Serif" font-size="10.00">config/comms_config.h</text>
</a>
</g>
</g>
<!-- Node3&#45;&gt;Node4 -->
<g id="edge4_Node000003_Node000004" class="edge">
<title>Node3&#45;&gt;Node4</title>
<g id="a_edge4_Node000003_Node000004"><a xlink:title=" ">
<path fill="none" stroke="#63b8ff" d="M117.96,-55.59C120.8,-48.63 124.76,-38.89 128.27,-30.29"/>
<polygon fill="#63b8ff" stroke="#63b8ff" points="131.81,-31.88 132.34,-21.3 125.32,-29.24 131.81,-31.88"/>
</a>
</g>
</g>
</g>
</svg>
</svg>

<style type='text/css'>
<![CDATA[
[data-mouse-over-selected='false'] { opacity: 0.7; }
[data-mouse-over-selected='true']  { opacity: 1.0; }
]]>
</style>
<script type="application/ecmascript"><![CDATA[
document.addEventListener('DOMContentLoaded', (event) => {
  highlightEdges();
  highlightAdjacentNodes();
});
]]></script>
</svg>
