<?xml version="1.0" encoding="UTF-8" standalone="no"?>
<!DOCTYPE svg PUBLIC "-//W3C//DTD SVG 1.1//EN"
 "http://www.w3.org/Graphics/SVG/1.1/DTD/svg11.dtd">
<!-- Generated by graphviz version 8.1.0 (20230707.0739)
 -->
<!-- Title: dab&#45;pwm&#45;configuration.X/sources/device/dev_current_sensor.h Pages: 1 -->
<svg width="268pt" height="132pt"
 viewBox="0.00 0.00 268.00 132.00" xmlns="http://www.w3.org/2000/svg" xmlns:xlink="http://www.w3.org/1999/xlink">
<g id="graph0" class="graph" transform="scale(1 1) rotate(0) translate(4 128)">
<title>dab&#45;pwm&#45;configuration.X/sources/device/dev_current_sensor.h</title>
<!-- Node1 -->
<g id="Node000001" class="node">
<title>Node1</title>
<g id="a_Node000001"><a xlink:title="Contains current sensor public functions.">
<polygon fill="#999999" stroke="#666666" points="197.5,-124 61.5,-124 61.5,-80 197.5,-80 197.5,-124"/>
<text text-anchor="start" x="69.5" y="-110.5" font-family="Helvetica,sans-Serif" font-size="10.00">dab&#45;pwm&#45;configuration.X</text>
<text text-anchor="start" x="69.5" y="-98.5" font-family="Helvetica,sans-Serif" font-size="10.00">/sources/device/dev_current</text>
<text text-anchor="middle" x="129.5" y="-86.5" font-family="Helvetica,sans-Serif" font-size="10.00">_sensor.h</text>
</a>
</g>
</g>
<!-- Node2 -->
<g id="Node000002" class="node">
<title>Node2</title>
<g id="a_Node000002"><a xlink:href="a00044_source.html" target="_top" xlink:title=" ">
<polygon fill="white" stroke="#666666" points="121,-38 0,-38 0,-6 121,-6 121,-38"/>
<text text-anchor="start" x="8" y="-24.5" font-family="Helvetica,sans-Serif" font-size="10.00">dab&#45;pwm&#45;configuration.X</text>
<text text-anchor="middle" x="60.5" y="-12.5" font-family="Helvetica,sans-Serif" font-size="10.00">/main_tasks.c</text>
</a>
</g>
</g>
<!-- Node1&#45;&gt;Node2 -->
<g id="edge1_Node000001_Node000002" class="edge">
<title>Node1&#45;&gt;Node2</title>
<g id="a_edge1_Node000001_Node000002"><a xlink:title=" ">
<path fill="none" stroke="#63b8ff" d="M103.53,-71.64C93.42,-60.22 82.28,-47.62 73.87,-38.11"/>
<polygon fill="#63b8ff" stroke="#63b8ff" points="100.4,-73.52 109.65,-78.69 105.64,-68.88 100.4,-73.52"/>
</a>
</g>
</g>
<!-- Node3 -->
<g id="Node000003" class="node">
<title>Node3</title>
<g id="a_Node000003"><a xlink:href="a00386.html" target="_top" xlink:title="Contains power control state machine functions that is executed every 100us.">
<polygon fill="white" stroke="#666666" points="260,-44 139,-44 139,0 260,0 260,-44"/>
<text text-anchor="start" x="147" y="-30.5" font-family="Helvetica,sans-Serif" font-size="10.00">dab&#45;pwm&#45;configuration.X</text>
<text text-anchor="start" x="147" y="-18.5" font-family="Helvetica,sans-Serif" font-size="10.00">/sources/device/pwrctrl</text>
<text text-anchor="middle" x="199.5" y="-6.5" font-family="Helvetica,sans-Serif" font-size="10.00">/dev_pwrctrl_sm.c</text>
</a>
</g>
</g>
<!-- Node1&#45;&gt;Node3 -->
<g id="edge2_Node000001_Node000003" class="edge">
<title>Node1&#45;&gt;Node3</title>
<g id="a_edge2_Node000001_Node000003"><a xlink:title=" ">
<path fill="none" stroke="#63b8ff" d="M155.87,-71.62C164.02,-62.53 172.84,-52.71 180.4,-44.29"/>
<polygon fill="#63b8ff" stroke="#63b8ff" points="153.7,-68.91 149.63,-78.69 158.91,-73.58 153.7,-68.91"/>
</a>
</g>
</g>
</g>
</svg>
