<?xml version="1.0" encoding="UTF-8" standalone="no"?>
<!DOCTYPE svg PUBLIC "-//W3C//DTD SVG 1.1//EN"
 "http://www.w3.org/Graphics/SVG/1.1/DTD/svg11.dtd">
<!-- Generated by graphviz version 8.1.0 (20230707.0739)
 -->
<!-- Title: dab&#45;pwm&#45;configuration.X/sources/device/pwrctrl/dev_pwrctrl_sm.c Pages: 1 -->
<svg width="1918pt" height="424pt"
 viewBox="0.00 0.00 1917.75 424.00" xmlns="http://www.w3.org/2000/svg" xmlns:xlink="http://www.w3.org/1999/xlink">
<g id="graph0" class="graph" transform="scale(1 1) rotate(0) translate(4 420)">
<title>dab&#45;pwm&#45;configuration.X/sources/device/pwrctrl/dev_pwrctrl_sm.c</title>
<!-- Node1 -->
<g id="Node000001" class="node">
<title>Node1</title>
<g id="a_Node000001"><a xlink:title="Contains power control state machine functions that is executed every 100us.">
<polygon fill="#999999" stroke="#666666" points="1324.5,-416 1203.5,-416 1203.5,-372 1324.5,-372 1324.5,-416"/>
<text text-anchor="start" x="1211.5" y="-402.5" font-family="Helvetica,sans-Serif" font-size="10.00">dab&#45;pwm&#45;configuration.X</text>
<text text-anchor="start" x="1211.5" y="-390.5" font-family="Helvetica,sans-Serif" font-size="10.00">/sources/device/pwrctrl</text>
<text text-anchor="middle" x="1264" y="-378.5" font-family="Helvetica,sans-Serif" font-size="10.00">/dev_pwrctrl_sm.c</text>
</a>
</g>
</g>
<!-- Node2 -->
<g id="Node000002" class="node">
<title>Node2</title>
<g id="a_Node000002"><a xlink:title=" ">
<polygon fill="#e0e0e0" stroke="#999999" points="129.38,-20 94.62,-20 94.62,0 129.38,0 129.38,-20"/>
<text text-anchor="middle" x="112" y="-6.5" font-family="Helvetica,sans-Serif" font-size="10.00">xc.h</text>
</a>
</g>
</g>
<!-- Node1&#45;&gt;Node2 -->
<g id="edge1_Node000001_Node000002" class="edge">
<title>Node1&#45;&gt;Node2</title>
<g id="a_edge1_Node000001_Node000002"><a xlink:title=" ">
<path fill="none" stroke="#63b8ff" d="M1203.03,-393.02C950.55,-392.3 0,-381.47 0,-259 0,-259 0,-259 0,-139 0,-87.4 52.19,-46.6 85.32,-25.9"/>
<polygon fill="#63b8ff" stroke="#63b8ff" points="86.74,-28.53 93.5,-20.37 83.13,-22.53 86.74,-28.53"/>
</a>
</g>
</g>
<!-- Node3 -->
<g id="Node000003" class="node">
<title>Node3</title>
<g id="a_Node000003"><a xlink:title=" ">
<polygon fill="#e0e0e0" stroke="#999999" points="1043.12,-20 994.88,-20 994.88,0 1043.12,0 1043.12,-20"/>
<text text-anchor="middle" x="1019" y="-6.5" font-family="Helvetica,sans-Serif" font-size="10.00">stdint.h</text>
</a>
</g>
</g>
<!-- Node1&#45;&gt;Node3 -->
<g id="edge2_Node000001_Node000003" class="edge">
<title>Node1&#45;&gt;Node3</title>
<g id="a_edge2_Node000001_Node000003"><a xlink:title=" ">
<path fill="none" stroke="#63b8ff" d="M1203.22,-373.63C1181.08,-364.58 1156.87,-352.17 1138,-336 1042.36,-254.04 1023.56,-88.4 1019.88,-31.07"/>
<polygon fill="#63b8ff" stroke="#63b8ff" points="1023.34,-31.07 1019.3,-21.27 1016.35,-31.45 1023.34,-31.07"/>
</a>
</g>
</g>
<!-- Node4 -->
<g id="Node000004" class="node">
<title>Node4</title>
<g id="a_Node000004"><a xlink:title=" ">
<polygon fill="#e0e0e0" stroke="#999999" points="1331.88,-20 1276.12,-20 1276.12,0 1331.88,0 1331.88,-20"/>
<text text-anchor="middle" x="1304" y="-6.5" font-family="Helvetica,sans-Serif" font-size="10.00">stdbool.h</text>
</a>
</g>
</g>
<!-- Node1&#45;&gt;Node4 -->
<g id="edge3_Node000001_Node000004" class="edge">
<title>Node1&#45;&gt;Node4</title>
<g id="a_edge3_Node000001_Node000004"><a xlink:title=" ">
<path fill="none" stroke="#63b8ff" d="M1286.54,-371.58C1295.34,-361.69 1304.41,-349.22 1309,-336 1347.12,-226.21 1320.67,-82.72 1308.87,-30.82"/>
<polygon fill="#63b8ff" stroke="#63b8ff" points="1312.12,-30.34 1306.42,-21.41 1305.3,-31.95 1312.12,-30.34"/>
</a>
</g>
</g>
<!-- Node5 -->
<g id="Node000005" class="node">
<title>Node5</title>
<g id="a_Node000005"><a xlink:title=" ">
<polygon fill="#e0e0e0" stroke="#999999" points="1585.25,-20 1534.75,-20 1534.75,0 1585.25,0 1585.25,-20"/>
<text text-anchor="middle" x="1560" y="-6.5" font-family="Helvetica,sans-Serif" font-size="10.00">stddef.h</text>
</a>
</g>
</g>
<!-- Node1&#45;&gt;Node5 -->
<g id="edge4_Node000001_Node000005" class="edge">
<title>Node1&#45;&gt;Node5</title>
<g id="a_edge4_Node000001_Node000005"><a xlink:title=" ">
<path fill="none" stroke="#63b8ff" d="M1324.94,-385.95C1439.15,-371.04 1674,-331.55 1674,-259 1674,-259 1674,-259 1674,-139 1674,-87.13 1621.16,-46.56 1587.42,-25.94"/>
<polygon fill="#63b8ff" stroke="#63b8ff" points="1589.46,-22.49 1579.06,-20.43 1585.9,-28.52 1589.46,-22.49"/>
</a>
</g>
</g>
<!-- Node6 -->
<g id="Node000006" class="node">
<title>Node6</title>
<g id="a_Node000006"><a xlink:href="a00155_source.html" target="_top" xlink:title=" ">
<polygon fill="white" stroke="#666666" points="1796.38,-330 1701.62,-330 1701.62,-310 1796.38,-310 1796.38,-330"/>
<text text-anchor="middle" x="1749" y="-316.5" font-family="Helvetica,sans-Serif" font-size="10.00">system/interrupt.h</text>
</a>
</g>
</g>
<!-- Node1&#45;&gt;Node6 -->
<g id="edge5_Node000001_Node000006" class="edge">
<title>Node1&#45;&gt;Node6</title>
<g id="a_edge5_Node000001_Node000006"><a xlink:title=" ">
<path fill="none" stroke="#63b8ff" d="M1324.71,-386.91C1407.32,-378.16 1559.57,-360.35 1688,-336 1692.77,-335.1 1697.73,-334.05 1702.66,-332.95"/>
<polygon fill="#63b8ff" stroke="#63b8ff" points="1703.4,-336.13 1712.34,-330.45 1701.8,-329.32 1703.4,-336.13"/>
</a>
</g>
</g>
<!-- Node7 -->
<g id="Node000007" class="node">
<title>Node7</title>
<g id="a_Node000007"><a xlink:href="a00362.html" target="_top" xlink:title="Contains public functions and data types relevant for power control interface.">
<polygon fill="white" stroke="#666666" points="1300.12,-330 1227.88,-330 1227.88,-310 1300.12,-310 1300.12,-330"/>
<text text-anchor="middle" x="1264" y="-316.5" font-family="Helvetica,sans-Serif" font-size="10.00">dev_pwrctrl.h</text>
</a>
</g>
</g>
<!-- Node1&#45;&gt;Node7 -->
<g id="edge6_Node000001_Node000007" class="edge">
<title>Node1&#45;&gt;Node7</title>
<g id="a_edge6_Node000001_Node000007"><a xlink:title=" ">
<path fill="none" stroke="#63b8ff" d="M1264,-371.79C1264,-362.1 1264,-350.69 1264,-341.14"/>
<polygon fill="#63b8ff" stroke="#63b8ff" points="1267.5,-341.31 1264,-331.31 1260.5,-341.31 1267.5,-341.31"/>
</a>
</g>
</g>
<!-- Node8 -->
<g id="Node000008" class="node">
<title>Node8</title>
<g id="a_Node000008"><a xlink:href="a00389_source.html" target="_top" xlink:title=" ">
<polygon fill="white" stroke="#666666" points="1174.5,-212 1065.5,-212 1065.5,-192 1174.5,-192 1174.5,-212"/>
<text text-anchor="middle" x="1120" y="-198.5" font-family="Helvetica,sans-Serif" font-size="10.00">dev_pwrctrl_typedef.h</text>
</a>
</g>
</g>
<!-- Node1&#45;&gt;Node8 -->
<g id="edge27_Node000001_Node000008" class="edge">
<title>Node1&#45;&gt;Node8</title>
<g id="a_edge27_Node000001_Node000008"><a xlink:title=" ">
<path fill="none" stroke="#63b8ff" d="M1223.17,-371.51C1187.96,-350.43 1139.49,-314.68 1118,-268 1111.5,-253.88 1112.57,-236.15 1114.95,-222.77"/>
<polygon fill="#63b8ff" stroke="#63b8ff" points="1118.51,-223.86 1117.22,-213.34 1111.67,-222.37 1118.51,-223.86"/>
</a>
</g>
</g>
<!-- Node11 -->
<g id="Node000011" class="node">
<title>Node11</title>
<g id="a_Node000011"><a xlink:href="a00395.html" target="_top" xlink:title="Contains the power control reusable functions.">
<polygon fill="white" stroke="#666666" points="1563.75,-268 1468.25,-268 1468.25,-248 1563.75,-248 1563.75,-268"/>
<text text-anchor="middle" x="1516" y="-254.5" font-family="Helvetica,sans-Serif" font-size="10.00">dev_pwrctrl_utils.h</text>
</a>
</g>
</g>
<!-- Node1&#45;&gt;Node11 -->
<g id="edge30_Node000001_Node000011" class="edge">
<title>Node1&#45;&gt;Node11</title>
<g id="a_edge30_Node000001_Node000011"><a xlink:title=" ">
<path fill="none" stroke="#63b8ff" d="M1324.96,-385.31C1385.62,-376.43 1473.05,-359.9 1497,-336 1511.89,-321.14 1515.78,-296.58 1516.49,-279.2"/>
<polygon fill="#63b8ff" stroke="#63b8ff" points="1519.99,-279.31 1516.56,-269.28 1512.99,-279.26 1519.99,-279.31"/>
</a>
</g>
</g>
<!-- Node12 -->
<g id="Node000012" class="node">
<title>Node12</title>
<g id="a_Node000012"><a xlink:href="a00275_source.html" target="_top" xlink:title=" ">
<polygon fill="white" stroke="#666666" points="1003.5,-150 918.5,-150 918.5,-130 1003.5,-130 1003.5,-150"/>
<text text-anchor="middle" x="961" y="-136.5" font-family="Helvetica,sans-Serif" font-size="10.00">config/macros.h</text>
</a>
</g>
</g>
<!-- Node1&#45;&gt;Node12 -->
<g id="edge13_Node000001_Node000012" class="edge">
<title>Node1&#45;&gt;Node12</title>
<g id="a_edge13_Node000001_Node000012"><a xlink:title=" ">
<path fill="none" stroke="#63b8ff" d="M1203.23,-388.73C1130.22,-382.27 1013.89,-367.27 985,-336 940,-287.29 949.51,-200.09 956.69,-160.96"/>
<polygon fill="#63b8ff" stroke="#63b8ff" points="960.3,-161.75 958.82,-151.26 953.43,-160.38 960.3,-161.75"/>
</a>
</g>
</g>
<!-- Node17 -->
<g id="Node000017" class="node">
<title>Node17</title>
<g id="a_Node000017"><a xlink:href="a00383.html" target="_top" xlink:title="Contains public functions for PWM.">
<polygon fill="white" stroke="#666666" points="1238.88,-268 1141.12,-268 1141.12,-248 1238.88,-248 1238.88,-268"/>
<text text-anchor="middle" x="1190" y="-254.5" font-family="Helvetica,sans-Serif" font-size="10.00">dev_pwrctrl_pwm.h</text>
</a>
</g>
</g>
<!-- Node1&#45;&gt;Node17 -->
<g id="edge28_Node000001_Node000017" class="edge">
<title>Node1&#45;&gt;Node17</title>
<g id="a_edge28_Node000001_Node000017"><a xlink:title=" ">
<path fill="none" stroke="#63b8ff" d="M1244.57,-371.66C1235.94,-361.41 1226.13,-348.62 1219,-336 1208.6,-317.59 1200.53,-294.71 1195.57,-278.7"/>
<polygon fill="#63b8ff" stroke="#63b8ff" points="1198.72,-278.01 1192.52,-269.42 1192.01,-280 1198.72,-278.01"/>
</a>
</g>
</g>
<!-- Node18 -->
<g id="Node000018" class="node">
<title>Node18</title>
<g id="a_Node000018"><a xlink:href="a00287.html" target="_top" xlink:title="Contains current sensor public functions.">
<polygon fill="white" stroke="#666666" points="1909.75,-336 1814.25,-336 1814.25,-304 1909.75,-304 1909.75,-336"/>
<text text-anchor="start" x="1822.25" y="-322.5" font-family="Helvetica,sans-Serif" font-size="10.00">device/dev_current</text>
<text text-anchor="middle" x="1862" y="-310.5" font-family="Helvetica,sans-Serif" font-size="10.00">_sensor.h</text>
</a>
</g>
</g>
<!-- Node1&#45;&gt;Node18 -->
<g id="edge31_Node000001_Node000018" class="edge">
<title>Node1&#45;&gt;Node18</title>
<g id="a_edge31_Node000001_Node000018"><a xlink:title=" ">
<path fill="none" stroke="#63b8ff" d="M1324.88,-389.62C1423.51,-383.48 1624.4,-368.22 1803.25,-336.14"/>
<polygon fill="#63b8ff" stroke="#63b8ff" points="1803.7,-339.44 1812.91,-334.21 1802.45,-332.55 1803.7,-339.44"/>
</a>
</g>
</g>
<!-- Node19 -->
<g id="Node000019" class="node">
<title>Node19</title>
<g id="a_Node000019"><a xlink:href="a00317_source.html" target="_top" xlink:title=" ">
<polygon fill="white" stroke="#666666" points="1470.38,-330 1357.62,-330 1357.62,-310 1470.38,-310 1470.38,-330"/>
<text text-anchor="middle" x="1414" y="-316.5" font-family="Helvetica,sans-Serif" font-size="10.00">device/fault/dev_fault.h</text>
</a>
</g>
</g>
<!-- Node1&#45;&gt;Node19 -->
<g id="edge32_Node000001_Node000019" class="edge">
<title>Node1&#45;&gt;Node19</title>
<g id="a_edge32_Node000001_Node000019"><a xlink:title=" ">
<path fill="none" stroke="#63b8ff" d="M1308.6,-371.59C1333.09,-359.84 1362.79,-345.58 1384.41,-335.2"/>
<polygon fill="#63b8ff" stroke="#63b8ff" points="1385.82,-337.93 1393.32,-330.45 1382.79,-331.62 1385.82,-337.93"/>
</a>
</g>
</g>
<!-- Node23 -->
<g id="Node000023" class="node">
<title>Node23</title>
<g id="a_Node000023"><a xlink:href="a00344.html" target="_top" xlink:title="Contains public functions and data types relevant for DCDT file interface.">
<polygon fill="white" stroke="#666666" points="540,-150 422,-150 422,-130 540,-130 540,-150"/>
<text text-anchor="middle" x="481" y="-136.5" font-family="Helvetica,sans-Serif" font-size="10.00">dcdt/dev_pwrctrl_dcdt.h</text>
</a>
</g>
</g>
<!-- Node1&#45;&gt;Node23 -->
<g id="edge49_Node000001_Node000023" class="edge">
<title>Node1&#45;&gt;Node23</title>
<g id="a_edge49_Node000001_Node000023"><a xlink:title=" ">
<path fill="none" stroke="#63b8ff" d="M1203.14,-386.57C1152.72,-379.42 1080.33,-364.84 1023,-336 1003.28,-326.08 1004.31,-314.71 985,-304 836.36,-221.57 639.65,-173.2 541.75,-152.68"/>
<polygon fill="#63b8ff" stroke="#63b8ff" points="542.67,-149.09 532.16,-150.49 541.25,-155.94 542.67,-149.09"/>
</a>
</g>
</g>
<!-- Node7&#45;&gt;Node8 -->
<g id="edge7_Node000007_Node000008" class="edge">
<title>Node7&#45;&gt;Node8</title>
<g id="a_edge7_Node000007_Node000008"><a xlink:title=" ">
<path fill="none" stroke="#63b8ff" d="M1227.55,-314.71C1197.35,-309.17 1155.68,-296.56 1132,-268 1121.69,-255.57 1119.09,-237.15 1118.84,-223.1"/>
<polygon fill="#63b8ff" stroke="#63b8ff" points="1122.36,-223.2 1119.09,-213.12 1115.36,-223.04 1122.36,-223.2"/>
</a>
</g>
</g>
<!-- Node7&#45;&gt;Node11 -->
<g id="edge12_Node000007_Node000011" class="edge">
<title>Node7&#45;&gt;Node11</title>
<g id="a_edge12_Node000007_Node000011"><a xlink:title=" ">
<path fill="none" stroke="#63b8ff" d="M1300.37,-310.34C1343.84,-299.99 1416.8,-282.62 1465.66,-270.99"/>
<polygon fill="#63b8ff" stroke="#63b8ff" points="1466.39,-274.17 1475.31,-268.45 1464.77,-267.36 1466.39,-274.17"/>
</a>
</g>
</g>
<!-- Node9 -->
<g id="Node000009" class="node">
<title>Node9</title>
<g id="a_Node000009"><a xlink:href="a00332_source.html" target="_top" xlink:title=" ">
<polygon fill="white" stroke="#666666" points="1171.25,-156 1066.75,-156 1066.75,-124 1171.25,-124 1171.25,-156"/>
<text text-anchor="start" x="1074.75" y="-142.5" font-family="Helvetica,sans-Serif" font-size="10.00">device/fault/dev_fault</text>
<text text-anchor="middle" x="1119" y="-130.5" font-family="Helvetica,sans-Serif" font-size="10.00">_typedef.h</text>
</a>
</g>
</g>
<!-- Node8&#45;&gt;Node9 -->
<g id="edge8_Node000008_Node000009" class="edge">
<title>Node8&#45;&gt;Node9</title>
<g id="a_edge8_Node000008_Node000009"><a xlink:title=" ">
<path fill="none" stroke="#63b8ff" d="M1119.84,-191.62C1119.73,-185.02 1119.58,-175.84 1119.44,-167.11"/>
<polygon fill="#63b8ff" stroke="#63b8ff" points="1122.92,-167.08 1119.25,-157.14 1115.92,-167.2 1122.92,-167.08"/>
</a>
</g>
</g>
<!-- Node10 -->
<g id="Node000010" class="node">
<title>Node10</title>
<g id="a_Node000010"><a xlink:href="a00329_source.html" target="_top" xlink:title=" ">
<polygon fill="white" stroke="#666666" points="1170.25,-82 1065.75,-82 1065.75,-62 1170.25,-62 1170.25,-82"/>
<text text-anchor="middle" x="1118" y="-68.5" font-family="Helvetica,sans-Serif" font-size="10.00">dev_fault_common.h</text>
</a>
</g>
</g>
<!-- Node9&#45;&gt;Node10 -->
<g id="edge9_Node000009_Node000010" class="edge">
<title>Node9&#45;&gt;Node10</title>
<g id="a_edge9_Node000009_Node000010"><a xlink:title=" ">
<path fill="none" stroke="#63b8ff" d="M1118.77,-123.69C1118.63,-114.6 1118.45,-102.95 1118.3,-93.12"/>
<polygon fill="#63b8ff" stroke="#63b8ff" points="1121.79,-93.26 1118.14,-83.32 1114.79,-93.37 1121.79,-93.26"/>
</a>
</g>
</g>
<!-- Node10&#45;&gt;Node3 -->
<g id="edge10_Node000010_Node000003" class="edge">
<title>Node10&#45;&gt;Node3</title>
<g id="a_edge10_Node000010_Node000003"><a xlink:title=" ">
<path fill="none" stroke="#63b8ff" d="M1102.53,-61.62C1086.77,-52.07 1062.07,-37.11 1043.62,-25.92"/>
<polygon fill="#63b8ff" stroke="#63b8ff" points="1045.73,-22.5 1035.36,-20.31 1042.1,-28.49 1045.73,-22.5"/>
</a>
</g>
</g>
<!-- Node10&#45;&gt;Node4 -->
<g id="edge11_Node000010_Node000004" class="edge">
<title>Node10&#45;&gt;Node4</title>
<g id="a_edge11_Node000010_Node000004"><a xlink:title=" ">
<path fill="none" stroke="#63b8ff" d="M1147.06,-61.62C1178.91,-51.35 1230.16,-34.82 1265.38,-23.46"/>
<polygon fill="#63b8ff" stroke="#63b8ff" points="1266.31,-26.51 1274.75,-20.11 1264.16,-19.85 1266.31,-26.51"/>
</a>
</g>
</g>
<!-- Node12&#45;&gt;Node2 -->
<g id="edge14_Node000012_Node000002" class="edge">
<title>Node12&#45;&gt;Node2</title>
<g id="a_edge14_Node000012_Node000002"><a xlink:title=" ">
<path fill="none" stroke="#63b8ff" d="M918.25,-137.27C745.73,-130.21 109.29,-103.15 95,-88 80.24,-72.35 90.01,-46.89 99.75,-29.57"/>
<polygon fill="#63b8ff" stroke="#63b8ff" points="103.1,-31.81 105.3,-21.45 97.12,-28.17 103.1,-31.81"/>
</a>
</g>
</g>
<!-- Node12&#45;&gt;Node3 -->
<g id="edge15_Node000012_Node000003" class="edge">
<title>Node12&#45;&gt;Node3</title>
<g id="a_edge15_Node000012_Node000003"><a xlink:title=" ">
<path fill="none" stroke="#63b8ff" d="M965.17,-129.79C974.57,-109.05 997.58,-58.26 1010.26,-30.28"/>
<polygon fill="#63b8ff" stroke="#63b8ff" points="1013.77,-32.02 1014.71,-21.47 1007.39,-29.13 1013.77,-32.02"/>
</a>
</g>
</g>
<!-- Node12&#45;&gt;Node4 -->
<g id="edge16_Node000012_Node000004" class="edge">
<title>Node12&#45;&gt;Node4</title>
<g id="a_edge16_Node000012_Node000004"><a xlink:title=" ">
<path fill="none" stroke="#63b8ff" d="M1003.76,-132.23C1080.98,-119.88 1236.71,-94.38 1247,-88 1269.35,-74.14 1285.83,-48.04 1295.17,-30.1"/>
<polygon fill="#63b8ff" stroke="#63b8ff" points="1298.67,-31.91 1299.94,-21.39 1292.39,-28.82 1298.67,-31.91"/>
</a>
</g>
</g>
<!-- Node12&#45;&gt;Node5 -->
<g id="edge17_Node000012_Node000005" class="edge">
<title>Node12&#45;&gt;Node5</title>
<g id="a_edge17_Node000012_Node000005"><a xlink:title=" ">
<path fill="none" stroke="#63b8ff" d="M1003.78,-132.33C1083.67,-119.83 1249.84,-93.65 1276,-88 1366.16,-68.53 1470.42,-38.22 1524.04,-22.05"/>
<polygon fill="#63b8ff" stroke="#63b8ff" points="1524.82,-25.16 1533.38,-18.91 1522.79,-18.47 1524.82,-25.16"/>
</a>
</g>
</g>
<!-- Node13 -->
<g id="Node000013" class="node">
<title>Node13</title>
<g id="a_Node000013"><a xlink:title=" ">
<polygon fill="#e0e0e0" stroke="#999999" points="890,-82 844,-82 844,-62 890,-62 890,-82"/>
<text text-anchor="middle" x="867" y="-68.5" font-family="Helvetica,sans-Serif" font-size="10.00">math.h</text>
</a>
</g>
</g>
<!-- Node12&#45;&gt;Node13 -->
<g id="edge18_Node000012_Node000013" class="edge">
<title>Node12&#45;&gt;Node13</title>
<g id="a_edge18_Node000012_Node000013"><a xlink:title=" ">
<path fill="none" stroke="#63b8ff" d="M947.53,-129.54C932.32,-118.86 907.31,-101.31 889.2,-88.59"/>
<polygon fill="#63b8ff" stroke="#63b8ff" points="891.64,-85.32 881.44,-82.44 887.62,-91.05 891.64,-85.32"/>
</a>
</g>
</g>
<!-- Node14 -->
<g id="Node000014" class="node">
<title>Node14</title>
<g id="a_Node000014"><a xlink:href="a00278_source.html" target="_top" xlink:title=" ">
<polygon fill="white" stroke="#666666" points="191.62,-82 104.38,-82 104.38,-62 191.62,-62 191.62,-82"/>
<text text-anchor="middle" x="148" y="-68.5" font-family="Helvetica,sans-Serif" font-size="10.00">useful_macros.h</text>
</a>
</g>
</g>
<!-- Node12&#45;&gt;Node14 -->
<g id="edge19_Node000012_Node000014" class="edge">
<title>Node12&#45;&gt;Node14</title>
<g id="a_edge19_Node000012_Node000014"><a xlink:title=" ">
<path fill="none" stroke="#63b8ff" d="M918.09,-137.3C778.85,-131.6 340.59,-112.16 201,-88 196.6,-87.24 192.04,-86.26 187.53,-85.16"/>
<polygon fill="#63b8ff" stroke="#63b8ff" points="188.75,-81.6 178.18,-82.44 186.97,-88.37 188.75,-81.6"/>
</a>
</g>
</g>
<!-- Node15 -->
<g id="Node000015" class="node">
<title>Node15</title>
<g id="a_Node000015"><a xlink:href="a00269_source.html" target="_top" xlink:title=" ">
<polygon fill="white" stroke="#666666" points="1237.88,-82 1188.12,-82 1188.12,-62 1237.88,-62 1237.88,-82"/>
<text text-anchor="middle" x="1213" y="-68.5" font-family="Helvetica,sans-Serif" font-size="10.00">config.h</text>
</a>
</g>
</g>
<!-- Node12&#45;&gt;Node15 -->
<g id="edge21_Node000012_Node000015" class="edge">
<title>Node12&#45;&gt;Node15</title>
<g id="a_edge21_Node000012_Node000015"><a xlink:title=" ">
<path fill="none" stroke="#63b8ff" d="M1003.85,-131.42C1048.29,-122.99 1119.47,-107.9 1179,-88 1180.49,-87.5 1182.01,-86.96 1183.53,-86.39"/>
<polygon fill="#63b8ff" stroke="#63b8ff" points="1184.52,-89.36 1192.47,-82.36 1181.89,-82.88 1184.52,-89.36"/>
</a>
</g>
</g>
<!-- Node16 -->
<g id="Node000016" class="node">
<title>Node16</title>
<g id="a_Node000016"><a xlink:href="a00272_source.html" target="_top" xlink:title=" ">
<polygon fill="white" stroke="#666666" points="971.62,-82 908.38,-82 908.38,-62 971.62,-62 971.62,-82"/>
<text text-anchor="middle" x="940" y="-68.5" font-family="Helvetica,sans-Serif" font-size="10.00">hardware.h</text>
</a>
</g>
</g>
<!-- Node12&#45;&gt;Node16 -->
<g id="edge26_Node000012_Node000016" class="edge">
<title>Node12&#45;&gt;Node16</title>
<g id="a_edge26_Node000012_Node000016"><a xlink:title=" ">
<path fill="none" stroke="#63b8ff" d="M957.99,-129.54C954.93,-119.94 950.11,-104.78 946.23,-92.57"/>
<polygon fill="#63b8ff" stroke="#63b8ff" points="949.37,-91.91 943,-83.44 942.7,-94.03 949.37,-91.91"/>
</a>
</g>
</g>
<!-- Node14&#45;&gt;Node2 -->
<g id="edge20_Node000014_Node000002" class="edge">
<title>Node14&#45;&gt;Node2</title>
<g id="a_edge20_Node000014_Node000002"><a xlink:title=" ">
<path fill="none" stroke="#63b8ff" d="M142.38,-61.62C137.22,-53.03 129.44,-40.07 123.04,-29.41"/>
<polygon fill="#63b8ff" stroke="#63b8ff" points="125.61,-27.89 117.47,-21.11 119.61,-31.49 125.61,-27.89"/>
</a>
</g>
</g>
<!-- Node15&#45;&gt;Node2 -->
<g id="edge22_Node000015_Node000002" class="edge">
<title>Node15&#45;&gt;Node2</title>
<g id="a_edge22_Node000015_Node000002"><a xlink:title=" ">
<path fill="none" stroke="#63b8ff" d="M1195.08,-61.61C1190.01,-59.36 1184.4,-57.26 1179,-56 973.3,-8.09 288.63,-9.82 140.44,-10.77"/>
<polygon fill="#63b8ff" stroke="#63b8ff" points="140.58,-7.28 130.6,-10.85 140.63,-14.28 140.58,-7.28"/>
</a>
</g>
</g>
<!-- Node15&#45;&gt;Node3 -->
<g id="edge23_Node000015_Node000003" class="edge">
<title>Node15&#45;&gt;Node3</title>
<g id="a_edge23_Node000015_Node000003"><a xlink:title=" ">
<path fill="none" stroke="#63b8ff" d="M1193.05,-61.64C1188.49,-59.65 1183.61,-57.66 1179,-56 1136.67,-40.8 1086.57,-27.42 1053.85,-19.29"/>
<polygon fill="#63b8ff" stroke="#63b8ff" points="1055.01,-15.72 1044.46,-16.74 1053.34,-22.52 1055.01,-15.72"/>
</a>
</g>
</g>
<!-- Node15&#45;&gt;Node4 -->
<g id="edge24_Node000015_Node000004" class="edge">
<title>Node15&#45;&gt;Node4</title>
<g id="a_edge24_Node000015_Node000004"><a xlink:title=" ">
<path fill="none" stroke="#63b8ff" d="M1227.22,-61.62C1241.64,-52.11 1264.2,-37.24 1281.14,-26.08"/>
<polygon fill="#63b8ff" stroke="#63b8ff" points="1282.46,-28.74 1288.88,-20.31 1278.61,-22.89 1282.46,-28.74"/>
</a>
</g>
</g>
<!-- Node15&#45;&gt;Node5 -->
<g id="edge25_Node000015_Node000005" class="edge">
<title>Node15&#45;&gt;Node5</title>
<g id="a_edge25_Node000015_Node000005"><a xlink:title=" ">
<path fill="none" stroke="#63b8ff" d="M1238.23,-66.64C1298.93,-56.14 1453.26,-29.46 1523.81,-17.26"/>
<polygon fill="#63b8ff" stroke="#63b8ff" points="1524.13,-20.58 1533.39,-15.43 1522.94,-13.68 1524.13,-20.58"/>
</a>
</g>
</g>
<!-- Node17&#45;&gt;Node8 -->
<g id="edge29_Node000017_Node000008" class="edge">
<title>Node17&#45;&gt;Node8</title>
<g id="a_edge29_Node000017_Node000008"><a xlink:title=" ">
<path fill="none" stroke="#63b8ff" d="M1177.81,-247.59C1167.57,-239.7 1152.72,-228.24 1140.63,-218.92"/>
<polygon fill="#63b8ff" stroke="#63b8ff" points="1143.11,-215.64 1133.05,-212.3 1138.83,-221.18 1143.11,-215.64"/>
</a>
</g>
</g>
<!-- Node19&#45;&gt;Node5 -->
<g id="edge33_Node000019_Node000005" class="edge">
<title>Node19&#45;&gt;Node5</title>
<g id="a_edge33_Node000019_Node000005"><a xlink:title=" ">
<path fill="none" stroke="#63b8ff" d="M1470.59,-313.8C1536.37,-304.29 1636,-277.58 1636,-203 1636,-203 1636,-203 1636,-139 1636,-93.89 1600.66,-50.78 1578.18,-27.92"/>
<polygon fill="#63b8ff" stroke="#63b8ff" points="1581.16,-25.96 1571.57,-21.45 1576.25,-30.95 1581.16,-25.96"/>
</a>
</g>
</g>
<!-- Node19&#45;&gt;Node8 -->
<g id="edge46_Node000019_Node000008" class="edge">
<title>Node19&#45;&gt;Node8</title>
<g id="a_edge46_Node000019_Node000008"><a xlink:title=" ">
<path fill="none" stroke="#63b8ff" d="M1390.29,-309.52C1365.43,-299.49 1325.28,-283.07 1291,-268 1271.71,-259.52 1267.52,-255.95 1248,-248 1218.89,-236.15 1185.35,-224.42 1159.91,-215.92"/>
<polygon fill="#63b8ff" stroke="#63b8ff" points="1161.13,-212.3 1150.54,-212.48 1158.92,-218.95 1161.13,-212.3"/>
</a>
</g>
</g>
<!-- Node19&#45;&gt;Node11 -->
<g id="edge47_Node000019_Node000011" class="edge">
<title>Node19&#45;&gt;Node11</title>
<g id="a_edge47_Node000019_Node000011"><a xlink:title=" ">
<path fill="none" stroke="#63b8ff" d="M1429.94,-309.62C1446.26,-300.03 1471.86,-284.97 1490.9,-273.77"/>
<polygon fill="#63b8ff" stroke="#63b8ff" points="1492.33,-276.4 1499.17,-268.31 1488.78,-270.36 1492.33,-276.4"/>
</a>
</g>
</g>
<!-- Node19&#45;&gt;Node15 -->
<g id="edge48_Node000019_Node000015" class="edge">
<title>Node19&#45;&gt;Node15</title>
<g id="a_edge48_Node000019_Node000015"><a xlink:title=" ">
<path fill="none" stroke="#63b8ff" d="M1406.37,-309.66C1376.45,-273.05 1266.94,-139.02 1227.38,-90.6"/>
<polygon fill="#63b8ff" stroke="#63b8ff" points="1229.68,-88.88 1220.64,-83.35 1224.26,-93.31 1229.68,-88.88"/>
</a>
</g>
</g>
<!-- Node19&#45;&gt;Node17 -->
<g id="edge45_Node000019_Node000017" class="edge">
<title>Node19&#45;&gt;Node17</title>
<g id="a_edge45_Node000019_Node000017"><a xlink:title=" ">
<path fill="none" stroke="#63b8ff" d="M1379,-309.62C1340.4,-299.29 1278.15,-282.61 1235.72,-271.25"/>
<polygon fill="#63b8ff" stroke="#63b8ff" points="1236.69,-267.61 1226.12,-268.41 1234.88,-274.38 1236.69,-267.61"/>
</a>
</g>
</g>
<!-- Node19&#45;&gt;Node19 -->
<g id="edge44_Node000019_Node000019" class="edge">
<title>Node19&#45;&gt;Node19</title>
<g id="a_edge44_Node000019_Node000019"><a xlink:title=" ">
<path fill="none" stroke="#63b8ff" d="M1445.33,-330.49C1467.02,-333.67 1488.38,-330.17 1488.38,-320 1488.38,-311.5 1473.45,-307.66 1455.89,-308.48"/>
<polygon fill="#63b8ff" stroke="#63b8ff" points="1455.95,-305.06 1446.33,-309.51 1456.63,-312.03 1455.95,-305.06"/>
</a>
</g>
</g>
<!-- Node20 -->
<g id="Node000020" class="node">
<title>Node20</title>
<g id="a_Node000020"><a xlink:href="a00089.html" target="_top" xlink:title="This is the generated driver header file for the CMP1 driver.">
<polygon fill="white" stroke="#666666" points="1529,-150 1459,-150 1459,-130 1529,-130 1529,-150"/>
<text text-anchor="middle" x="1494" y="-136.5" font-family="Helvetica,sans-Serif" font-size="10.00">cmp/cmp1.h</text>
</a>
</g>
</g>
<!-- Node19&#45;&gt;Node20 -->
<g id="edge34_Node000019_Node000020" class="edge">
<title>Node19&#45;&gt;Node20</title>
<g id="a_edge34_Node000019_Node000020"><a xlink:title=" ">
<path fill="none" stroke="#63b8ff" d="M1418.08,-309.93C1430.54,-282.2 1468.31,-198.16 1485.42,-160.1"/>
<polygon fill="#63b8ff" stroke="#63b8ff" points="1488.93,-161.82 1489.84,-151.27 1482.54,-158.95 1488.93,-161.82"/>
</a>
</g>
</g>
<!-- Node22 -->
<g id="Node000022" class="node">
<title>Node22</title>
<g id="a_Node000022"><a xlink:href="a00095.html" target="_top" xlink:title="This is the generated driver header file for the CMP3 driver.">
<polygon fill="white" stroke="#666666" points="1441,-150 1371,-150 1371,-130 1441,-130 1441,-150"/>
<text text-anchor="middle" x="1406" y="-136.5" font-family="Helvetica,sans-Serif" font-size="10.00">cmp/cmp3.h</text>
</a>
</g>
</g>
<!-- Node19&#45;&gt;Node22 -->
<g id="edge40_Node000019_Node000022" class="edge">
<title>Node19&#45;&gt;Node22</title>
<g id="a_edge40_Node000019_Node000022"><a xlink:title=" ">
<path fill="none" stroke="#63b8ff" d="M1413.59,-309.93C1412.36,-282.44 1408.63,-199.6 1406.9,-161.09"/>
<polygon fill="#63b8ff" stroke="#63b8ff" points="1410.36,-161.1 1406.42,-151.27 1403.37,-161.41 1410.36,-161.1"/>
</a>
</g>
</g>
<!-- Node20&#45;&gt;Node4 -->
<g id="edge36_Node000020_Node000004" class="edge">
<title>Node20&#45;&gt;Node4</title>
<g id="a_edge36_Node000020_Node000004"><a xlink:title=" ">
<path fill="none" stroke="#63b8ff" d="M1480.03,-129.59C1447.57,-107.72 1366.8,-53.31 1326.96,-26.47"/>
<polygon fill="#63b8ff" stroke="#63b8ff" points="1329.24,-23.11 1318.99,-20.43 1325.33,-28.92 1329.24,-23.11"/>
</a>
</g>
</g>
<!-- Node20&#45;&gt;Node5 -->
<g id="edge35_Node000020_Node000005" class="edge">
<title>Node20&#45;&gt;Node5</title>
<g id="a_edge35_Node000020_Node000005"><a xlink:title=" ">
<path fill="none" stroke="#63b8ff" d="M1521.56,-129.53C1540.03,-121.58 1562.91,-108.22 1574,-88 1583.97,-69.82 1577.08,-45.96 1569.89,-29.65"/>
<polygon fill="#63b8ff" stroke="#63b8ff" points="1572.8,-28.63 1565.29,-21.15 1566.5,-31.68 1572.8,-28.63"/>
</a>
</g>
</g>
<!-- Node21 -->
<g id="Node000021" class="node">
<title>Node21</title>
<g id="a_Node000021"><a xlink:href="a00098_source.html" target="_top" xlink:title=" ">
<polygon fill="white" stroke="#666666" points="1531.5,-82 1446.5,-82 1446.5,-62 1531.5,-62 1531.5,-82"/>
<text text-anchor="middle" x="1489" y="-68.5" font-family="Helvetica,sans-Serif" font-size="10.00">cmp_interface.h</text>
</a>
</g>
</g>
<!-- Node20&#45;&gt;Node21 -->
<g id="edge37_Node000020_Node000021" class="edge">
<title>Node20&#45;&gt;Node21</title>
<g id="a_edge37_Node000020_Node000021"><a xlink:title=" ">
<path fill="none" stroke="#63b8ff" d="M1493.28,-129.54C1492.57,-120.13 1491.45,-105.39 1490.54,-93.32"/>
<polygon fill="#63b8ff" stroke="#63b8ff" points="1493.96,-93.15 1489.72,-83.44 1486.98,-93.67 1493.96,-93.15"/>
</a>
</g>
</g>
<!-- Node21&#45;&gt;Node4 -->
<g id="edge38_Node000021_Node000004" class="edge">
<title>Node21&#45;&gt;Node4</title>
<g id="a_edge38_Node000021_Node000004"><a xlink:title=" ">
<path fill="none" stroke="#63b8ff" d="M1460.09,-61.62C1428.41,-51.35 1377.44,-34.82 1342.42,-23.46"/>
<polygon fill="#63b8ff" stroke="#63b8ff" points="1343.69,-19.87 1333.1,-20.11 1341.53,-26.53 1343.69,-19.87"/>
</a>
</g>
</g>
<!-- Node21&#45;&gt;Node5 -->
<g id="edge39_Node000021_Node000005" class="edge">
<title>Node21&#45;&gt;Node5</title>
<g id="a_edge39_Node000021_Node000005"><a xlink:title=" ">
<path fill="none" stroke="#63b8ff" d="M1500.09,-61.62C1510.99,-52.41 1527.85,-38.17 1540.9,-27.14"/>
<polygon fill="#63b8ff" stroke="#63b8ff" points="1542.84,-29.24 1548.22,-20.11 1538.32,-23.89 1542.84,-29.24"/>
</a>
</g>
</g>
<!-- Node22&#45;&gt;Node4 -->
<g id="edge42_Node000022_Node000004" class="edge">
<title>Node22&#45;&gt;Node4</title>
<g id="a_edge42_Node000022_Node000004"><a xlink:title=" ">
<path fill="none" stroke="#63b8ff" d="M1398.66,-129.79C1381.84,-108.68 1340.22,-56.46 1318.2,-28.82"/>
<polygon fill="#63b8ff" stroke="#63b8ff" points="1320.51,-27.11 1311.54,-21.47 1315.04,-31.47 1320.51,-27.11"/>
</a>
</g>
</g>
<!-- Node22&#45;&gt;Node5 -->
<g id="edge41_Node000022_Node000005" class="edge">
<title>Node22&#45;&gt;Node5</title>
<g id="a_edge41_Node000022_Node000005"><a xlink:title=" ">
<path fill="none" stroke="#63b8ff" d="M1433,-129.52C1471.31,-115.98 1537.24,-92.24 1541,-88 1554.82,-72.42 1558.95,-48.36 1560,-31.29"/>
<polygon fill="#63b8ff" stroke="#63b8ff" points="1563.53,-31.41 1560.33,-21.31 1556.53,-31.21 1563.53,-31.41"/>
</a>
</g>
</g>
<!-- Node22&#45;&gt;Node21 -->
<g id="edge43_Node000022_Node000021" class="edge">
<title>Node22&#45;&gt;Node21</title>
<g id="a_edge43_Node000022_Node000021"><a xlink:title=" ">
<path fill="none" stroke="#63b8ff" d="M1417.89,-129.54C1431.2,-118.96 1453,-101.63 1468.96,-88.94"/>
<polygon fill="#63b8ff" stroke="#63b8ff" points="1470.48,-91.4 1476.13,-82.44 1466.12,-85.92 1470.48,-91.4"/>
</a>
</g>
</g>
<!-- Node23&#45;&gt;Node2 -->
<g id="edge51_Node000023_Node000002" class="edge">
<title>Node23&#45;&gt;Node2</title>
<g id="a_edge51_Node000023_Node000002"><a xlink:title=" ">
<path fill="none" stroke="#63b8ff" d="M421.62,-136.06C311.69,-130.01 85.44,-114.47 62,-88 44.97,-68.77 69.19,-43.24 89.48,-26.96"/>
<polygon fill="#63b8ff" stroke="#63b8ff" points="91.26,-29.24 97.08,-20.39 87.01,-23.68 91.26,-29.24"/>
</a>
</g>
</g>
<!-- Node23&#45;&gt;Node3 -->
<g id="edge52_Node000023_Node000003" class="edge">
<title>Node23&#45;&gt;Node3</title>
<g id="a_edge52_Node000023_Node000003"><a xlink:title=" ">
<path fill="none" stroke="#63b8ff" d="M485.01,-129.75C493.28,-111.93 514.09,-73.06 545,-56 620.37,-14.4 886.86,-10.71 983.59,-10.77"/>
<polygon fill="#63b8ff" stroke="#63b8ff" points="983.51,-14.27 993.52,-10.8 983.53,-7.27 983.51,-14.27"/>
</a>
</g>
</g>
<!-- Node24 -->
<g id="Node000024" class="node">
<title>Node24</title>
<g id="a_Node000024"><a xlink:title=" ">
<polygon fill="#e0e0e0" stroke="#999999" points="355.62,-82 310.38,-82 310.38,-62 355.62,-62 355.62,-82"/>
<text text-anchor="middle" x="333" y="-68.5" font-family="Helvetica,sans-Serif" font-size="10.00">stdio.h</text>
</a>
</g>
</g>
<!-- Node23&#45;&gt;Node24 -->
<g id="edge50_Node000023_Node000024" class="edge">
<title>Node23&#45;&gt;Node24</title>
<g id="a_edge50_Node000023_Node000024"><a xlink:title=" ">
<path fill="none" stroke="#63b8ff" d="M459.12,-129.57C435.75,-119.45 397.65,-102.83 365,-88 364.27,-87.67 363.52,-87.33 362.78,-86.99"/>
<polygon fill="#63b8ff" stroke="#63b8ff" points="364.48,-83.46 353.94,-82.44 361.54,-89.81 364.48,-83.46"/>
</a>
</g>
</g>
<!-- Node25 -->
<g id="Node000025" class="node">
<title>Node25</title>
<g id="a_Node000025"><a xlink:href="a00353.html" target="_top" xlink:title="Contains the DCDT generated functions and data types.">
<polygon fill="white" stroke="#666666" points="292.38,-82 209.62,-82 209.62,-62 292.38,-62 292.38,-82"/>
<text text-anchor="middle" x="251" y="-68.5" font-family="Helvetica,sans-Serif" font-size="10.00">smps_control.h</text>
</a>
</g>
</g>
<!-- Node23&#45;&gt;Node25 -->
<g id="edge53_Node000023_Node000025" class="edge">
<title>Node23&#45;&gt;Node25</title>
<g id="a_edge53_Node000023_Node000025"><a xlink:title=" ">
<path fill="none" stroke="#63b8ff" d="M447.12,-129.57C410.9,-119.45 351.83,-102.82 301,-88 298.24,-87.2 295.4,-86.36 292.53,-85.51"/>
<polygon fill="#63b8ff" stroke="#63b8ff" points="293.77,-81.93 283.18,-82.44 291.77,-88.64 293.77,-81.93"/>
</a>
</g>
</g>
<!-- Node26 -->
<g id="Node000026" class="node">
<title>Node26</title>
<g id="a_Node000026"><a xlink:href="a00029.html" target="_top" xlink:title="Generated by the Microchip Digital Compensator Design Tool (DCDT), contains system summaries and digi...">
<polygon fill="white" stroke="#666666" points="498.38,-88 373.62,-88 373.62,-56 498.38,-56 498.38,-88"/>
<text text-anchor="start" x="381.62" y="-74.5" font-family="Helvetica,sans-Serif" font-size="10.00">dab_psio/dcdt_generated</text>
<text text-anchor="middle" x="436" y="-62.5" font-family="Helvetica,sans-Serif" font-size="10.00">_code/dab_psio_dcdt.h</text>
</a>
</g>
</g>
<!-- Node23&#45;&gt;Node26 -->
<g id="edge56_Node000023_Node000026" class="edge">
<title>Node23&#45;&gt;Node26</title>
<g id="a_edge56_Node000023_Node000026"><a xlink:title=" ">
<path fill="none" stroke="#63b8ff" d="M474.55,-129.54C468.82,-121.13 460.18,-108.47 452.54,-97.25"/>
<polygon fill="#63b8ff" stroke="#63b8ff" points="454.96,-95.59 446.43,-89.3 449.17,-99.54 454.96,-95.59"/>
</a>
</g>
</g>
<!-- Node27 -->
<g id="Node000027" class="node">
<title>Node27</title>
<g id="a_Node000027"><a xlink:href="a00038.html" target="_top" xlink:title="Generated by the Microchip Digital Compensator Design Tool (DCDT), contains system summaries and digi...">
<polygon fill="white" stroke="#666666" points="681.88,-88 554.12,-88 554.12,-56 681.88,-56 681.88,-88"/>
<text text-anchor="start" x="562.12" y="-74.5" font-family="Helvetica,sans-Serif" font-size="10.00">dab_pspo/dcdt_generated</text>
<text text-anchor="middle" x="618" y="-62.5" font-family="Helvetica,sans-Serif" font-size="10.00">_code/dab_pspo_dcdt.h</text>
</a>
</g>
</g>
<!-- Node23&#45;&gt;Node27 -->
<g id="edge57_Node000023_Node000027" class="edge">
<title>Node23&#45;&gt;Node27</title>
<g id="a_edge57_Node000023_Node000027"><a xlink:title=" ">
<path fill="none" stroke="#63b8ff" d="M500.63,-129.54C520.29,-120.07 551.16,-105.2 576.3,-93.09"/>
<polygon fill="#63b8ff" stroke="#63b8ff" points="577.49,-95.92 584.98,-88.43 574.45,-89.61 577.49,-95.92"/>
</a>
</g>
</g>
<!-- Node28 -->
<g id="Node000028" class="node">
<title>Node28</title>
<g id="a_Node000028"><a xlink:href="a00041.html" target="_top" xlink:title="Generated by the Microchip Digital Compensator Design Tool (DCDT), contains system summaries and digi...">
<polygon fill="white" stroke="#666666" points="826.12,-88 699.88,-88 699.88,-56 826.12,-56 826.12,-88"/>
<text text-anchor="start" x="707.88" y="-74.5" font-family="Helvetica,sans-Serif" font-size="10.00">dab_spvo/dcdt_generated</text>
<text text-anchor="middle" x="763" y="-62.5" font-family="Helvetica,sans-Serif" font-size="10.00">_code/dab_spvo_dcdt.h</text>
</a>
</g>
</g>
<!-- Node23&#45;&gt;Node28 -->
<g id="edge58_Node000023_Node000028" class="edge">
<title>Node23&#45;&gt;Node28</title>
<g id="a_edge58_Node000023_Node000028"><a xlink:title=" ">
<path fill="none" stroke="#63b8ff" d="M521.4,-129.54C565.02,-119.34 635.44,-102.85 689.03,-90.31"/>
<polygon fill="#63b8ff" stroke="#63b8ff" points="689.57,-93.55 698.51,-87.86 687.97,-86.73 689.57,-93.55"/>
</a>
</g>
</g>
<!-- Node25&#45;&gt;Node2 -->
<g id="edge54_Node000025_Node000002" class="edge">
<title>Node25&#45;&gt;Node2</title>
<g id="a_edge54_Node000025_Node000002"><a xlink:title=" ">
<path fill="none" stroke="#63b8ff" d="M229.28,-61.62C205.12,-51.2 166.03,-34.32 139.69,-22.95"/>
<polygon fill="#63b8ff" stroke="#63b8ff" points="141.17,-19.35 130.6,-18.6 138.4,-25.78 141.17,-19.35"/>
</a>
</g>
</g>
<!-- Node25&#45;&gt;Node3 -->
<g id="edge55_Node000025_Node000003" class="edge">
<title>Node25&#45;&gt;Node3</title>
<g id="a_edge55_Node000025_Node000003"><a xlink:title=" ">
<path fill="none" stroke="#63b8ff" d="M278.5,-61.52C285.74,-59.37 293.6,-57.32 301,-56 559.93,-9.68 878.77,-9.12 983.7,-10.37"/>
<polygon fill="#63b8ff" stroke="#63b8ff" points="983.54,-13.89 993.59,-10.52 983.63,-6.89 983.54,-13.89"/>
</a>
</g>
</g>
</g>
</svg>
