<?xml version="1.0" encoding="UTF-8" standalone="no"?>
<!DOCTYPE svg PUBLIC "-//W3C//DTD SVG 1.1//EN"
 "http://www.w3.org/Graphics/SVG/1.1/DTD/svg11.dtd">
<!-- Generated by graphviz version 8.1.0 (20230707.0739)
 -->
<!-- Title: dspic33ck&#45;dab.X/sources/device/device.h Pages: 1 -->
<!--zoomable 332 -->

<svg id="main" version="1.1" xmlns="http://www.w3.org/2000/svg" xmlns:xlink="http://www.w3.org/1999/xlink" xml:space="preserve" onload="init(evt)">
<style type="text/css"><![CDATA[
.node, .edge {opacity: 0.7;}
.node.selected, .edge.selected {opacity: 1;}
.edge:hover path { stroke: red; }
.edge:hover polygon { stroke: red; fill: red; }
]]></style>

<defs>
  <circle id="rim" cx="0" cy="0" r="7"/>
  <circle id="rim2" cx="0" cy="0" r="3.5"/>
  <g id="zoomPlus">
    <use xlink:href="#rim" fill="#404040"><set attributeName="fill" to="#808080" begin="zoomplus.mouseover" end="zoomplus.mouseout"/></use>
    <path d="M-4,0h8M0,-4v8" fill="none" stroke="white" stroke-width="1.5" pointer-events="none"/>
  </g>
  <g id="zoomMin">
    <use xlink:href="#rim" fill="#404040"><set attributeName="fill" to="#808080" begin="zoomminus.mouseover" end="zoomminus.mouseout"/></use>
    <path d="M-4,0h8" fill="none" stroke="white" stroke-width="1.5" pointer-events="none"/>
  </g>
  <g id="arrowUp" transform="translate(30 24)">
    <use xlink:href="#rim"/>
    <path pointer-events="none" fill="none" stroke="white" stroke-width="1.5" d="M0,-3.0v7 M-2.5,-0.5L0,-3.0L2.5,-0.5"/>
  </g>
  <g id="arrowRight" transform="rotate(90) translate(36 -43)">
    <use xlink:href="#rim"/>
    <path pointer-events="none" fill="none" stroke="white" stroke-width="1.5" d="M0,-3.0v7 M-2.5,-0.5L0,-3.0L2.5,-0.5"/>
  </g>
  <g id="arrowDown" transform="rotate(180) translate(-30 -48)">
    <use xlink:href="#rim"/>
    <path pointer-events="none" fill="none" stroke="white" stroke-width="1.5" d="M0,-3.0v7 M-2.5,-0.5L0,-3.0L2.5,-0.5"/>
  </g>
  <g id="arrowLeft" transform="rotate(270) translate(-36 17)">
    <use xlink:href="#rim"/>
    <path pointer-events="none" fill="none" stroke="white" stroke-width="1.5" d="M0,-3.0v7 M-2.5,-0.5L0,-3.0L2.5,-0.5"/>
  </g>
  <g id="resetDef">
    <use xlink:href="#rim2" fill="#404040"><set attributeName="fill" to="#808080" begin="reset.mouseover" end="reset.mouseout"/></use>
  </g>
</defs>
<script type="application/ecmascript">
var viewWidth = 560;
var viewHeight = 332;
var sectionId = 'dynsection-0';
</script>
<script type="application/ecmascript" xlink:href="svg.min.js"/>
<svg id="graph" class="graph">
<g id="viewport">
<title>dspic33ck&#45;dab.X/sources/device/device.h</title>
<!-- Node1 -->
<g id="Node000001" class="node">
<title>Node1</title>
<g id="a_Node000001"><a xlink:title="Contains h files that are part of device layer.">
<polygon fill="#999999" stroke="#666666" points="217.5,-324 92.75,-324 92.75,-292 217.5,-292 217.5,-324"/>
<text text-anchor="start" x="100.75" y="-310.5" font-family="Helvetica,sans-Serif" font-size="10.00">dspic33ck&#45;dab.X/sources</text>
<text text-anchor="middle" x="155.12" y="-298.5" font-family="Helvetica,sans-Serif" font-size="10.00">/device/device.h</text>
</a>
</g>
</g>
<!-- Node2 -->
<g id="Node000002" class="node">
<title>Node2</title>
<g id="a_Node000002"><a xlink:href="a00326.html" target="_top" xlink:title="Contains current sensor public functions.">
<polygon fill="white" stroke="#666666" points="108.25,-256 0,-256 0,-236 108.25,-236 108.25,-256"/>
<text text-anchor="middle" x="54.12" y="-242.5" font-family="Helvetica,sans-Serif" font-size="10.00">dev_current_sensor.h</text>
</a>
</g>
</g>
<!-- Node1&#45;&gt;Node2 -->
<g id="edge1_Node000001_Node000002" class="edge">
<title>Node1&#45;&gt;Node2</title>
<g id="a_edge1_Node000001_Node000002"><a xlink:title=" ">
<path fill="none" stroke="#63b8ff" d="M129.11,-291.55C113.77,-282.43 94.45,-270.96 79.26,-261.93"/>
<polygon fill="#63b8ff" stroke="#63b8ff" points="81.35,-258.51 70.96,-256.41 77.77,-264.52 81.35,-258.51"/>
</a>
</g>
</g>
<!-- Node3 -->
<g id="Node000003" class="node">
<title>Node3</title>
<g id="a_Node000003"><a xlink:href="a00332.html" target="_top" xlink:title="fan device driver">
<polygon fill="white" stroke="#666666" points="127.38,-200 70.88,-200 70.88,-180 127.38,-180 127.38,-200"/>
<text text-anchor="middle" x="99.12" y="-186.5" font-family="Helvetica,sans-Serif" font-size="10.00">dev_fan.h</text>
</a>
</g>
</g>
<!-- Node1&#45;&gt;Node3 -->
<g id="edge2_Node000001_Node000003" class="edge">
<title>Node1&#45;&gt;Node3</title>
<g id="a_edge2_Node000001_Node000003"><a xlink:title=" ">
<path fill="none" stroke="#63b8ff" d="M147.8,-291.84C137.67,-270.84 119.37,-232.93 108.32,-210.05"/>
<polygon fill="#63b8ff" stroke="#63b8ff" points="111.18,-208.92 103.68,-201.44 104.88,-211.96 111.18,-208.92"/>
</a>
</g>
</g>
<!-- Node10 -->
<g id="Node000010" class="node">
<title>Node10</title>
<g id="a_Node000010"><a xlink:href="a00344.html" target="_top" xlink:title="led device driver">
<polygon fill="white" stroke="#666666" points="202.38,-200 145.88,-200 145.88,-180 202.38,-180 202.38,-200"/>
<text text-anchor="middle" x="174.12" y="-186.5" font-family="Helvetica,sans-Serif" font-size="10.00">dev_led.h</text>
</a>
</g>
</g>
<!-- Node1&#45;&gt;Node10 -->
<g id="edge11_Node000001_Node000010" class="edge">
<title>Node1&#45;&gt;Node10</title>
<g id="a_edge11_Node000001_Node000010"><a xlink:title=" ">
<path fill="none" stroke="#63b8ff" d="M157.61,-291.84C161,-271.13 167.09,-233.95 170.85,-210.99"/>
<polygon fill="#63b8ff" stroke="#63b8ff" points="174.42,-211.87 172.58,-201.44 167.51,-210.74 174.42,-211.87"/>
</a>
</g>
</g>
<!-- Node11 -->
<g id="Node000011" class="node">
<title>Node11</title>
<g id="a_Node000011"><a xlink:href="a00350.html" target="_top" xlink:title="Contains temperature initialization and execution functions.">
<polygon fill="white" stroke="#666666" points="283.88,-256 218.38,-256 218.38,-236 283.88,-236 283.88,-256"/>
<text text-anchor="middle" x="251.12" y="-242.5" font-family="Helvetica,sans-Serif" font-size="10.00">dev_temp.h</text>
</a>
</g>
</g>
<!-- Node1&#45;&gt;Node11 -->
<g id="edge14_Node000001_Node000011" class="edge">
<title>Node1&#45;&gt;Node11</title>
<g id="a_edge14_Node000001_Node000011"><a xlink:title=" ">
<path fill="none" stroke="#63b8ff" d="M179.85,-291.55C194.29,-282.52 212.45,-271.17 226.82,-262.19"/>
<polygon fill="#63b8ff" stroke="#63b8ff" points="228.45,-264.68 235.07,-256.41 224.74,-258.74 228.45,-264.68"/>
</a>
</g>
</g>
<!-- Node4 -->
<g id="Node000004" class="node">
<title>Node4</title>
<g id="a_Node000004"><a xlink:title=" ">
<polygon fill="#e0e0e0" stroke="#999999" points="240.5,-144 205.75,-144 205.75,-124 240.5,-124 240.5,-144"/>
<text text-anchor="middle" x="223.12" y="-130.5" font-family="Helvetica,sans-Serif" font-size="10.00">xc.h</text>
</a>
</g>
</g>
<!-- Node3&#45;&gt;Node4 -->
<g id="edge3_Node000003_Node000004" class="edge">
<title>Node3&#45;&gt;Node4</title>
<g id="a_edge3_Node000003_Node000004"><a xlink:title=" ">
<path fill="none" stroke="#63b8ff" d="M120.72,-179.59C141.45,-170.57 172.84,-156.9 195.41,-147.07"/>
<polygon fill="#63b8ff" stroke="#63b8ff" points="196.61,-149.93 204.38,-142.73 193.82,-143.51 196.61,-149.93"/>
</a>
</g>
</g>
<!-- Node5 -->
<g id="Node000005" class="node">
<title>Node5</title>
<g id="a_Node000005"><a xlink:title=" ">
<polygon fill="#e0e0e0" stroke="#999999" points="277.25,-82 229,-82 229,-62 277.25,-62 277.25,-82"/>
<text text-anchor="middle" x="253.12" y="-68.5" font-family="Helvetica,sans-Serif" font-size="10.00">stdint.h</text>
</a>
</g>
</g>
<!-- Node3&#45;&gt;Node5 -->
<g id="edge4_Node000003_Node000005" class="edge">
<title>Node3&#45;&gt;Node5</title>
<g id="a_edge4_Node000003_Node000005"><a xlink:title=" ">
<path fill="none" stroke="#63b8ff" d="M111,-179.63C127.2,-166.9 157.17,-143.49 183.12,-124 199.05,-112.04 217.23,-98.81 231.07,-88.82"/>
<polygon fill="#63b8ff" stroke="#63b8ff" points="232.81,-91.16 238.88,-82.47 228.72,-85.48 232.81,-91.16"/>
</a>
</g>
</g>
<!-- Node6 -->
<g id="Node000006" class="node">
<title>Node6</title>
<g id="a_Node000006"><a xlink:href="a00164.html" target="_top" xlink:title="This is the generated driver header file for the SCCP3 driver.">
<polygon fill="white" stroke="#666666" points="112,-144 38.25,-144 38.25,-124 112,-124 112,-144"/>
<text text-anchor="middle" x="75.12" y="-130.5" font-family="Helvetica,sans-Serif" font-size="10.00">pwm/sccp3.h</text>
</a>
</g>
</g>
<!-- Node3&#45;&gt;Node6 -->
<g id="edge5_Node000003_Node000006" class="edge">
<title>Node3&#45;&gt;Node6</title>
<g id="a_edge5_Node000003_Node000006"><a xlink:title=" ">
<path fill="none" stroke="#63b8ff" d="M94.94,-179.59C91.85,-172.63 87.52,-162.89 83.7,-154.29"/>
<polygon fill="#63b8ff" stroke="#63b8ff" points="86.52,-153.01 79.26,-145.3 80.12,-155.86 86.52,-153.01"/>
</a>
</g>
</g>
<!-- Node7 -->
<g id="Node000007" class="node">
<title>Node7</title>
<g id="a_Node000007"><a xlink:title=" ">
<polygon fill="#e0e0e0" stroke="#999999" points="60.38,-20 9.88,-20 9.88,0 60.38,0 60.38,-20"/>
<text text-anchor="middle" x="35.12" y="-6.5" font-family="Helvetica,sans-Serif" font-size="10.00">stddef.h</text>
</a>
</g>
</g>
<!-- Node6&#45;&gt;Node7 -->
<g id="edge6_Node000006_Node000007" class="edge">
<title>Node6&#45;&gt;Node7</title>
<g id="a_edge6_Node000006_Node000007"><a xlink:title=" ">
<path fill="none" stroke="#63b8ff" d="M57.82,-123.51C45.62,-115.75 30.22,-103.53 23.12,-88 14.72,-69.6 20.22,-46.43 26.26,-30.34"/>
<polygon fill="#63b8ff" stroke="#63b8ff" points="29.75,-32.05 30.36,-21.47 23.29,-29.37 29.75,-32.05"/>
</a>
</g>
</g>
<!-- Node8 -->
<g id="Node000008" class="node">
<title>Node8</title>
<g id="a_Node000008"><a xlink:href="a00158_source.html" target="_top" xlink:title=" ">
<polygon fill="white" stroke="#666666" points="118.38,-82 31.88,-82 31.88,-62 118.38,-62 118.38,-82"/>
<text text-anchor="middle" x="75.12" y="-68.5" font-family="Helvetica,sans-Serif" font-size="10.00">pwm_interface.h</text>
</a>
</g>
</g>
<!-- Node6&#45;&gt;Node8 -->
<g id="edge7_Node000006_Node000008" class="edge">
<title>Node6&#45;&gt;Node8</title>
<g id="a_edge7_Node000006_Node000008"><a xlink:title=" ">
<path fill="none" stroke="#63b8ff" d="M75.12,-123.62C75.12,-115.48 75.12,-103.39 75.12,-93.07"/>
<polygon fill="#63b8ff" stroke="#63b8ff" points="78.63,-93.11 75.12,-83.11 71.63,-93.11 78.63,-93.11"/>
</a>
</g>
</g>
<!-- Node9 -->
<g id="Node000009" class="node">
<title>Node9</title>
<g id="a_Node000009"><a xlink:href="a00161.html" target="_top" xlink:title="This is the generated driver types header file for the PWM driver.">
<polygon fill="white" stroke="#666666" points="167,-20 93.25,-20 93.25,0 167,0 167,-20"/>
<text text-anchor="middle" x="130.12" y="-6.5" font-family="Helvetica,sans-Serif" font-size="10.00">pwm_types.h</text>
</a>
</g>
</g>
<!-- Node6&#45;&gt;Node9 -->
<g id="edge10_Node000006_Node000009" class="edge">
<title>Node6&#45;&gt;Node9</title>
<g id="a_edge10_Node000006_Node000009"><a xlink:title=" ">
<path fill="none" stroke="#63b8ff" d="M92,-123.59C104.15,-115.8 119.68,-103.49 127.12,-88 135.72,-70.13 135.37,-47.14 133.55,-30.95"/>
<polygon fill="#63b8ff" stroke="#63b8ff" points="136.87,-30.5 131.99,-21.09 129.94,-31.49 136.87,-30.5"/>
</a>
</g>
</g>
<!-- Node8&#45;&gt;Node7 -->
<g id="edge8_Node000008_Node000007" class="edge">
<title>Node8&#45;&gt;Node7</title>
<g id="a_edge8_Node000008_Node000007"><a xlink:title=" ">
<path fill="none" stroke="#63b8ff" d="M68.88,-61.62C63.09,-52.94 54.32,-39.8 47.18,-29.08"/>
<polygon fill="#63b8ff" stroke="#63b8ff" points="49.66,-27.49 41.2,-21.11 43.84,-31.37 49.66,-27.49"/>
</a>
</g>
</g>
<!-- Node8&#45;&gt;Node9 -->
<g id="edge9_Node000008_Node000009" class="edge">
<title>Node8&#45;&gt;Node9</title>
<g id="a_edge9_Node000008_Node000009"><a xlink:title=" ">
<path fill="none" stroke="#63b8ff" d="M83.72,-61.62C91.92,-52.68 104.47,-38.99 114.45,-28.1"/>
<polygon fill="#63b8ff" stroke="#63b8ff" points="116.59,-30.85 120.77,-21.11 111.43,-26.12 116.59,-30.85"/>
</a>
</g>
</g>
<!-- Node10&#45;&gt;Node4 -->
<g id="edge12_Node000010_Node000004" class="edge">
<title>Node10&#45;&gt;Node4</title>
<g id="a_edge12_Node000010_Node000004"><a xlink:title=" ">
<path fill="none" stroke="#63b8ff" d="M182.66,-179.59C189.48,-172.08 199.21,-161.35 207.42,-152.3"/>
<polygon fill="#63b8ff" stroke="#63b8ff" points="209.56,-155.06 213.69,-145.3 204.38,-150.35 209.56,-155.06"/>
</a>
</g>
</g>
<!-- Node10&#45;&gt;Node5 -->
<g id="edge13_Node000010_Node000005" class="edge">
<title>Node10&#45;&gt;Node5</title>
<g id="a_edge13_Node000010_Node000005"><a xlink:title=" ">
<path fill="none" stroke="#63b8ff" d="M175.95,-179.52C178.82,-166.24 185.34,-141.75 197.12,-124 206.08,-110.51 219.37,-98.21 230.76,-89.06"/>
<polygon fill="#63b8ff" stroke="#63b8ff" points="232.57,-91.31 238.36,-82.44 228.3,-85.77 232.57,-91.31"/>
</a>
</g>
</g>
<!-- Node11&#45;&gt;Node4 -->
<g id="edge15_Node000011_Node000004" class="edge">
<title>Node11&#45;&gt;Node4</title>
<g id="a_edge15_Node000011_Node000004"><a xlink:title=" ">
<path fill="none" stroke="#63b8ff" d="M248.74,-235.62C244.21,-217.84 234.3,-178.88 228.22,-155"/>
<polygon fill="#63b8ff" stroke="#63b8ff" points="231.36,-154.18 225.51,-145.35 224.58,-155.91 231.36,-154.18"/>
</a>
</g>
</g>
<!-- Node11&#45;&gt;Node5 -->
<g id="edge16_Node000011_Node000005" class="edge">
<title>Node11&#45;&gt;Node5</title>
<g id="a_edge16_Node000011_Node000005"><a xlink:title=" ">
<path fill="none" stroke="#63b8ff" d="M251.24,-235.51C251.55,-208.43 252.46,-130.36 252.89,-93.17"/>
<polygon fill="#63b8ff" stroke="#63b8ff" points="256.4,-93.29 253.02,-83.25 249.4,-93.21 256.4,-93.29"/>
</a>
</g>
</g>
<!-- Node12 -->
<g id="Node000012" class="node">
<title>Node12</title>
<g id="a_Node000012"><a xlink:href="a00086.html" target="_top" xlink:title="This is the generated driver header file for the ADC1 driver.">
<polygon fill="white" stroke="#666666" points="368.12,-200 304.12,-200 304.12,-180 368.12,-180 368.12,-200"/>
<text text-anchor="middle" x="336.12" y="-186.5" font-family="Helvetica,sans-Serif" font-size="10.00">adc/adc1.h</text>
</a>
</g>
</g>
<!-- Node11&#45;&gt;Node12 -->
<g id="edge17_Node000011_Node000012" class="edge">
<title>Node11&#45;&gt;Node12</title>
<g id="a_edge17_Node000011_Node000012"><a xlink:title=" ">
<path fill="none" stroke="#63b8ff" d="M265.93,-235.59C278.65,-227.51 297.23,-215.71 312.08,-206.27"/>
<polygon fill="#63b8ff" stroke="#63b8ff" points="313.64,-208.8 320.2,-200.48 309.89,-202.89 313.64,-208.8"/>
</a>
</g>
</g>
<!-- Node12&#45;&gt;Node4 -->
<g id="edge18_Node000012_Node000004" class="edge">
<title>Node12&#45;&gt;Node4</title>
<g id="a_edge18_Node000012_Node000004"><a xlink:title=" ">
<path fill="none" stroke="#63b8ff" d="M316.44,-179.59C298.16,-170.86 270.76,-157.77 250.38,-148.02"/>
<polygon fill="#63b8ff" stroke="#63b8ff" points="252.26,-144.57 241.73,-143.41 249.24,-150.88 252.26,-144.57"/>
</a>
</g>
</g>
<!-- Node12&#45;&gt;Node5 -->
<g id="edge20_Node000012_Node000005" class="edge">
<title>Node12&#45;&gt;Node5</title>
<g id="a_edge20_Node000012_Node000005"><a xlink:title=" ">
<path fill="none" stroke="#63b8ff" d="M329.33,-179.51C315.52,-160.21 283.97,-116.11 266.1,-91.13"/>
<polygon fill="#63b8ff" stroke="#63b8ff" points="268.44,-89.4 259.78,-83.3 262.75,-93.47 268.44,-89.4"/>
</a>
</g>
</g>
<!-- Node13 -->
<g id="Node000013" class="node">
<title>Node13</title>
<g id="a_Node000013"><a xlink:title=" ">
<polygon fill="#e0e0e0" stroke="#999999" points="552,-82 496.25,-82 496.25,-62 552,-62 552,-82"/>
<text text-anchor="middle" x="524.12" y="-68.5" font-family="Helvetica,sans-Serif" font-size="10.00">stdbool.h</text>
</a>
</g>
</g>
<!-- Node12&#45;&gt;Node13 -->
<g id="edge19_Node000012_Node000013" class="edge">
<title>Node12&#45;&gt;Node13</title>
<g id="a_edge19_Node000012_Node000013"><a xlink:title=" ">
<path fill="none" stroke="#63b8ff" d="M368.53,-182.45C395.55,-175.87 434.18,-163.83 463.12,-144 483.77,-129.85 501.66,-107.02 512.63,-91.09"/>
<polygon fill="#63b8ff" stroke="#63b8ff" points="515.92,-93.46 518.53,-83.19 510.08,-89.59 515.92,-93.46"/>
</a>
</g>
</g>
<!-- Node14 -->
<g id="Node000014" class="node">
<title>Node14</title>
<g id="a_Node000014"><a xlink:href="a00095.html" target="_top" xlink:title="This is the generated driver types header file for the ADC driver.">
<polygon fill="white" stroke="#666666" points="364.75,-82 295.5,-82 295.5,-62 364.75,-62 364.75,-82"/>
<text text-anchor="middle" x="330.12" y="-68.5" font-family="Helvetica,sans-Serif" font-size="10.00">adc_types.h</text>
</a>
</g>
</g>
<!-- Node12&#45;&gt;Node14 -->
<g id="edge21_Node000012_Node000014" class="edge">
<title>Node12&#45;&gt;Node14</title>
<g id="a_edge21_Node000012_Node000014"><a xlink:title=" ">
<path fill="none" stroke="#63b8ff" d="M335.63,-179.51C334.66,-160.72 332.48,-118.44 331.17,-93.16"/>
<polygon fill="#63b8ff" stroke="#63b8ff" points="334.62,-93.11 330.61,-83.3 327.63,-93.47 334.62,-93.11"/>
</a>
</g>
</g>
<!-- Node15 -->
<g id="Node000015" class="node">
<title>Node15</title>
<g id="a_Node000015"><a xlink:href="a00092_source.html" target="_top" xlink:title=" ">
<polygon fill="white" stroke="#666666" points="454.12,-144 372.12,-144 372.12,-124 454.12,-124 454.12,-144"/>
<text text-anchor="middle" x="413.12" y="-130.5" font-family="Helvetica,sans-Serif" font-size="10.00">adc_interface.h</text>
</a>
</g>
</g>
<!-- Node12&#45;&gt;Node15 -->
<g id="edge22_Node000012_Node000015" class="edge">
<title>Node12&#45;&gt;Node15</title>
<g id="a_edge22_Node000012_Node000015"><a xlink:title=" ">
<path fill="none" stroke="#63b8ff" d="M349.54,-179.59C360.95,-171.59 377.57,-159.93 390.96,-150.54"/>
<polygon fill="#63b8ff" stroke="#63b8ff" points="392.43,-153.09 398.61,-144.48 388.41,-147.36 392.43,-153.09"/>
</a>
</g>
</g>
<!-- Node15&#45;&gt;Node5 -->
<g id="edge23_Node000015_Node000005" class="edge">
<title>Node15&#45;&gt;Node5</title>
<g id="a_edge23_Node000015_Node000005"><a xlink:title=" ">
<path fill="none" stroke="#63b8ff" d="M384.11,-123.51C358.2,-114.85 319.31,-101.39 286.12,-88 285.21,-87.63 284.27,-87.25 283.34,-86.86"/>
<polygon fill="#63b8ff" stroke="#63b8ff" points="284.82,-83.25 274.25,-82.48 282.03,-89.67 284.82,-83.25"/>
</a>
</g>
</g>
<!-- Node15&#45;&gt;Node13 -->
<g id="edge24_Node000015_Node000013" class="edge">
<title>Node15&#45;&gt;Node13</title>
<g id="a_edge24_Node000015_Node000013"><a xlink:title=" ">
<path fill="none" stroke="#63b8ff" d="M430.47,-123.62C448.39,-113.94 476.6,-98.69 497.38,-87.46"/>
<polygon fill="#63b8ff" stroke="#63b8ff" points="498.77,-90.14 505.9,-82.31 495.44,-83.99 498.77,-90.14"/>
</a>
</g>
</g>
<!-- Node15&#45;&gt;Node14 -->
<g id="edge25_Node000015_Node000014" class="edge">
<title>Node15&#45;&gt;Node14</title>
<g id="a_edge25_Node000015_Node000014"><a xlink:title=" ">
<path fill="none" stroke="#63b8ff" d="M400.16,-123.62C387.24,-114.29 367.19,-99.79 351.84,-88.7"/>
<polygon fill="#63b8ff" stroke="#63b8ff" points="354.16,-85.33 344,-82.31 350.06,-91 354.16,-85.33"/>
</a>
</g>
</g>
<!-- Node16 -->
<g id="Node000016" class="node">
<title>Node16</title>
<g id="a_Node000016"><a xlink:href="a00194_source.html" target="_top" xlink:title=" ">
<polygon fill="white" stroke="#666666" points="477.88,-88 382.38,-88 382.38,-56 477.88,-56 477.88,-88"/>
<text text-anchor="start" x="390.38" y="-74.5" font-family="Helvetica,sans-Serif" font-size="10.00">../system/interrupt</text>
<text text-anchor="middle" x="430.12" y="-62.5" font-family="Helvetica,sans-Serif" font-size="10.00">_types.h</text>
</a>
</g>
</g>
<!-- Node15&#45;&gt;Node16 -->
<g id="edge26_Node000015_Node000016" class="edge">
<title>Node15&#45;&gt;Node16</title>
<g id="a_edge26_Node000015_Node000016"><a xlink:title=" ">
<path fill="none" stroke="#63b8ff" d="M415.78,-123.62C417.69,-116.88 420.37,-107.43 422.89,-98.52"/>
<polygon fill="#63b8ff" stroke="#63b8ff" points="426.48,-99.72 425.84,-89.14 419.74,-97.81 426.48,-99.72"/>
</a>
</g>
</g>
</g>
</svg>

<g id="navigator" transform="translate(0 0)" fill="#404254">
  <rect fill="#f2f5e9" fill-opacity="0.5" stroke="#606060" stroke-width=".5" x="0" y="0" width="60" height="60"/>
  <use id="zoomplus" xlink:href="#zoomPlus" x="17" y="9" onmousedown="handleZoom(evt,'in')"/>
  <use id="zoomminus" xlink:href="#zoomMin" x="42" y="9" onmousedown="handleZoom(evt,'out')"/>
  <use id="reset" xlink:href="#resetDef" x="30" y="36" onmousedown="handleReset()"/>
   <use id="arrowup" xlink:href="#arrowUp" x="0" y="0" onmousedown="handlePan(0,-1)"/>
  <use id="arrowright" xlink:href="#arrowRight" x="0" y="0" onmousedown="handlePan(1,0)"/>
  <use id="arrowdown" xlink:href="#arrowDown" x="0" y="0" onmousedown="handlePan(0,1)"/>
  <use id="arrowleft" xlink:href="#arrowLeft" x="0" y="0" onmousedown="handlePan(-1,0)"/>
</g>
<svg viewBox="0 0 15 15" width="100%" height="30px" preserveAspectRatio="xMaxYMin meet">
 <g id="arrow_out" transform="scale(0.3 0.3)">
  <a xlink:href="a00321_org.svg" target="_base">
   <rect id="button" ry="5" rx="5" y="6" x="6" height="38" width="38"
        fill="#f2f5e9" fill-opacity="0.5" stroke="#606060" stroke-width="1.0"/>
   <path id="arrow"
     d="M 11.500037,31.436501 C 11.940474,20.09759 22.043105,11.32322 32.158766,21.979434 L 37.068811,17.246167 C 37.068811,17.246167 37.088388,32 37.088388,32 L 22.160133,31.978069 C 22.160133,31.978069 26.997745,27.140456 26.997745,27.140456 C 18.528582,18.264221 13.291696,25.230495 11.500037,31.436501 z"
     style="fill:#404040;"/>
  </a>
 </g>
</svg>

<style type='text/css'>
<![CDATA[
[data-mouse-over-selected='false'] { opacity: 0.7; }
[data-mouse-over-selected='true']  { opacity: 1.0; }
]]>
</style>
<script type="application/ecmascript"><![CDATA[
document.addEventListener('DOMContentLoaded', (event) => {
  highlightEdges();
  highlightAdjacentNodes();
});
]]></script>
</svg>
