<?xml version="1.0" encoding="UTF-8" standalone="no"?>
<!DOCTYPE svg PUBLIC "-//W3C//DTD SVG 1.1//EN"
 "http://www.w3.org/Graphics/SVG/1.1/DTD/svg11.dtd">
<!-- Generated by graphviz version 8.1.0 (20230707.0739)
 -->
<!-- Title: dspic33ck&#45;dab.X/sources/device/dev_fan.c Pages: 1 -->
<svg width="256pt" height="264pt"
 viewBox="0.00 0.00 256.25 264.00" xmlns="http://www.w3.org/2000/svg" xmlns:xlink="http://www.w3.org/1999/xlink">
<g id="graph0" class="graph" transform="scale(1 1) rotate(0) translate(4 260)">
<title>dspic33ck&#45;dab.X/sources/device/dev_fan.c</title>
<!-- Node1 -->
<g id="Node000001" class="node">
<title>Node1</title>
<g id="a_Node000001"><a xlink:title="Contains fan initialization and execution functions.">
<polygon fill="#999999" stroke="#666666" points="139.75,-256 15,-256 15,-224 139.75,-224 139.75,-256"/>
<text text-anchor="start" x="23" y="-242.5" font-family="Helvetica,sans-Serif" font-size="10.00">dspic33ck&#45;dab.X/sources</text>
<text text-anchor="middle" x="77.38" y="-230.5" font-family="Helvetica,sans-Serif" font-size="10.00">/device/dev_fan.c</text>
</a>
</g>
</g>
<!-- Node2 -->
<g id="Node000002" class="node">
<title>Node2</title>
<g id="a_Node000002"><a xlink:href="a00302_source.html" target="_top" xlink:title=" ">
<polygon fill="white" stroke="#666666" points="105.62,-188 49.12,-188 49.12,-168 105.62,-168 105.62,-188"/>
<text text-anchor="middle" x="77.38" y="-174.5" font-family="Helvetica,sans-Serif" font-size="10.00">dev_fan.h</text>
</a>
</g>
</g>
<!-- Node1&#45;&gt;Node2 -->
<g id="edge1_Node000001_Node000002" class="edge">
<title>Node1&#45;&gt;Node2</title>
<g id="a_edge1_Node000001_Node000002"><a xlink:title=" ">
<path fill="none" stroke="#63b8ff" d="M77.38,-223.55C77.38,-216.17 77.38,-207.24 77.38,-199.32"/>
<polygon fill="#63b8ff" stroke="#63b8ff" points="80.88,-199.41 77.38,-189.41 73.88,-199.41 80.88,-199.41"/>
</a>
</g>
</g>
<!-- Node3 -->
<g id="Node000003" class="node">
<title>Node3</title>
<g id="a_Node000003"><a xlink:title=" ">
<polygon fill="#e0e0e0" stroke="#999999" points="34.75,-132 0,-132 0,-112 34.75,-112 34.75,-132"/>
<text text-anchor="middle" x="17.38" y="-118.5" font-family="Helvetica,sans-Serif" font-size="10.00">xc.h</text>
</a>
</g>
</g>
<!-- Node2&#45;&gt;Node3 -->
<g id="edge2_Node000002_Node000003" class="edge">
<title>Node2&#45;&gt;Node3</title>
<g id="a_edge2_Node000002_Node000003"><a xlink:title=" ">
<path fill="none" stroke="#63b8ff" d="M66.92,-167.59C58.32,-159.85 45.92,-148.69 35.67,-139.47"/>
<polygon fill="#63b8ff" stroke="#63b8ff" points="38.48,-137.39 28.71,-133.3 33.8,-142.59 38.48,-137.39"/>
</a>
</g>
</g>
<!-- Node4 -->
<g id="Node000004" class="node">
<title>Node4</title>
<g id="a_Node000004"><a xlink:title=" ">
<polygon fill="#e0e0e0" stroke="#999999" points="101.5,-132 53.25,-132 53.25,-112 101.5,-112 101.5,-132"/>
<text text-anchor="middle" x="77.38" y="-118.5" font-family="Helvetica,sans-Serif" font-size="10.00">stdint.h</text>
</a>
</g>
</g>
<!-- Node2&#45;&gt;Node4 -->
<g id="edge3_Node000002_Node000004" class="edge">
<title>Node2&#45;&gt;Node4</title>
<g id="a_edge3_Node000002_Node000004"><a xlink:title=" ">
<path fill="none" stroke="#63b8ff" d="M77.38,-167.59C77.38,-160.86 77.38,-151.53 77.38,-143.15"/>
<polygon fill="#63b8ff" stroke="#63b8ff" points="80.88,-143.3 77.38,-133.3 73.88,-143.3 80.88,-143.3"/>
</a>
</g>
</g>
<!-- Node5 -->
<g id="Node000005" class="node">
<title>Node5</title>
<g id="a_Node000005"><a xlink:href="a00134.html" target="_top" xlink:title="This is the generated driver header file for the SCCP3 driver.">
<polygon fill="white" stroke="#666666" points="193.25,-132 119.5,-132 119.5,-112 193.25,-112 193.25,-132"/>
<text text-anchor="middle" x="156.38" y="-118.5" font-family="Helvetica,sans-Serif" font-size="10.00">pwm/sccp3.h</text>
</a>
</g>
</g>
<!-- Node2&#45;&gt;Node5 -->
<g id="edge4_Node000002_Node000005" class="edge">
<title>Node2&#45;&gt;Node5</title>
<g id="a_edge4_Node000002_Node000005"><a xlink:title=" ">
<path fill="none" stroke="#63b8ff" d="M91.14,-167.59C102.85,-159.59 119.9,-147.93 133.63,-138.54"/>
<polygon fill="#63b8ff" stroke="#63b8ff" points="135.23,-141.01 141.51,-132.48 131.28,-135.23 135.23,-141.01"/>
</a>
</g>
</g>
<!-- Node6 -->
<g id="Node000006" class="node">
<title>Node6</title>
<g id="a_Node000006"><a xlink:title=" ">
<polygon fill="#e0e0e0" stroke="#999999" points="141.62,-20 91.12,-20 91.12,0 141.62,0 141.62,-20"/>
<text text-anchor="middle" x="116.38" y="-6.5" font-family="Helvetica,sans-Serif" font-size="10.00">stddef.h</text>
</a>
</g>
</g>
<!-- Node5&#45;&gt;Node6 -->
<g id="edge5_Node000005_Node000006" class="edge">
<title>Node5&#45;&gt;Node6</title>
<g id="a_edge5_Node000005_Node000006"><a xlink:title=" ">
<path fill="none" stroke="#63b8ff" d="M139.07,-111.51C126.87,-103.75 111.47,-91.53 104.38,-76 97.74,-61.49 101.86,-43.56 107,-30.21"/>
<polygon fill="#63b8ff" stroke="#63b8ff" points="110.55,-31.82 111.35,-21.25 104.14,-29.02 110.55,-31.82"/>
</a>
</g>
</g>
<!-- Node7 -->
<g id="Node000007" class="node">
<title>Node7</title>
<g id="a_Node000007"><a xlink:href="a00128_source.html" target="_top" xlink:title=" ">
<polygon fill="white" stroke="#666666" points="199.62,-76 113.12,-76 113.12,-56 199.62,-56 199.62,-76"/>
<text text-anchor="middle" x="156.38" y="-62.5" font-family="Helvetica,sans-Serif" font-size="10.00">pwm_interface.h</text>
</a>
</g>
</g>
<!-- Node5&#45;&gt;Node7 -->
<g id="edge6_Node000005_Node000007" class="edge">
<title>Node5&#45;&gt;Node7</title>
<g id="a_edge6_Node000005_Node000007"><a xlink:title=" ">
<path fill="none" stroke="#63b8ff" d="M156.38,-111.59C156.38,-104.86 156.38,-95.53 156.38,-87.15"/>
<polygon fill="#63b8ff" stroke="#63b8ff" points="159.88,-87.3 156.38,-77.3 152.88,-87.3 159.88,-87.3"/>
</a>
</g>
</g>
<!-- Node8 -->
<g id="Node000008" class="node">
<title>Node8</title>
<g id="a_Node000008"><a xlink:href="a00131.html" target="_top" xlink:title="This is the generated driver types header file for the PWM driver.">
<polygon fill="white" stroke="#666666" points="248.25,-20 174.5,-20 174.5,0 248.25,0 248.25,-20"/>
<text text-anchor="middle" x="211.38" y="-6.5" font-family="Helvetica,sans-Serif" font-size="10.00">pwm_types.h</text>
</a>
</g>
</g>
<!-- Node5&#45;&gt;Node8 -->
<g id="edge9_Node000005_Node000008" class="edge">
<title>Node5&#45;&gt;Node8</title>
<g id="a_edge9_Node000005_Node000008"><a xlink:title=" ">
<path fill="none" stroke="#63b8ff" d="M173.22,-111.58C185.35,-103.77 200.87,-91.47 208.38,-76 215.1,-62.15 215.51,-44.62 214.43,-31.26"/>
<polygon fill="#63b8ff" stroke="#63b8ff" points="217.8,-30.91 213.15,-21.39 210.84,-31.73 217.8,-30.91"/>
</a>
</g>
</g>
<!-- Node7&#45;&gt;Node6 -->
<g id="edge7_Node000007_Node000006" class="edge">
<title>Node7&#45;&gt;Node6</title>
<g id="a_edge7_Node000007_Node000006"><a xlink:title=" ">
<path fill="none" stroke="#63b8ff" d="M149.41,-55.59C143.96,-48.24 136.22,-37.8 129.61,-28.87"/>
<polygon fill="#63b8ff" stroke="#63b8ff" points="132.03,-27.25 123.26,-21.3 126.4,-31.42 132.03,-27.25"/>
</a>
</g>
</g>
<!-- Node7&#45;&gt;Node8 -->
<g id="edge8_Node000007_Node000008" class="edge">
<title>Node7&#45;&gt;Node8</title>
<g id="a_edge8_Node000007_Node000008"><a xlink:title=" ">
<path fill="none" stroke="#63b8ff" d="M165.96,-55.59C173.76,-47.93 184.98,-36.91 194.32,-27.75"/>
<polygon fill="#63b8ff" stroke="#63b8ff" points="196.22,-30.8 200.9,-21.3 191.32,-25.81 196.22,-30.8"/>
</a>
</g>
</g>
</g>
</svg>
