<?xml version="1.0" encoding="UTF-8" standalone="no"?>
<!DOCTYPE svg PUBLIC "-//W3C//DTD SVG 1.1//EN"
 "http://www.w3.org/Graphics/SVG/1.1/DTD/svg11.dtd">
<!-- Generated by graphviz version 8.1.0 (20230707.0739)
 -->
<!-- Title: dspic33ck&#45;dab.X/sources/fault/fault_common.h Pages: 1 -->
<!--zoomable 404 -->

<svg id="main" version="1.1" xmlns="http://www.w3.org/2000/svg" xmlns:xlink="http://www.w3.org/1999/xlink" xml:space="preserve" onload="init(evt)">
<style type="text/css"><![CDATA[
.node, .edge {opacity: 0.7;}
.node.selected, .edge.selected {opacity: 1;}
.edge:hover path { stroke: red; }
.edge:hover polygon { stroke: red; fill: red; }
]]></style>

<defs>
  <circle id="rim" cx="0" cy="0" r="7"/>
  <circle id="rim2" cx="0" cy="0" r="3.5"/>
  <g id="zoomPlus">
    <use xlink:href="#rim" fill="#404040"><set attributeName="fill" to="#808080" begin="zoomplus.mouseover" end="zoomplus.mouseout"/></use>
    <path d="M-4,0h8M0,-4v8" fill="none" stroke="white" stroke-width="1.5" pointer-events="none"/>
  </g>
  <g id="zoomMin">
    <use xlink:href="#rim" fill="#404040"><set attributeName="fill" to="#808080" begin="zoomminus.mouseover" end="zoomminus.mouseout"/></use>
    <path d="M-4,0h8" fill="none" stroke="white" stroke-width="1.5" pointer-events="none"/>
  </g>
  <g id="arrowUp" transform="translate(30 24)">
    <use xlink:href="#rim"/>
    <path pointer-events="none" fill="none" stroke="white" stroke-width="1.5" d="M0,-3.0v7 M-2.5,-0.5L0,-3.0L2.5,-0.5"/>
  </g>
  <g id="arrowRight" transform="rotate(90) translate(36 -43)">
    <use xlink:href="#rim"/>
    <path pointer-events="none" fill="none" stroke="white" stroke-width="1.5" d="M0,-3.0v7 M-2.5,-0.5L0,-3.0L2.5,-0.5"/>
  </g>
  <g id="arrowDown" transform="rotate(180) translate(-30 -48)">
    <use xlink:href="#rim"/>
    <path pointer-events="none" fill="none" stroke="white" stroke-width="1.5" d="M0,-3.0v7 M-2.5,-0.5L0,-3.0L2.5,-0.5"/>
  </g>
  <g id="arrowLeft" transform="rotate(270) translate(-36 17)">
    <use xlink:href="#rim"/>
    <path pointer-events="none" fill="none" stroke="white" stroke-width="1.5" d="M0,-3.0v7 M-2.5,-0.5L0,-3.0L2.5,-0.5"/>
  </g>
  <g id="resetDef">
    <use xlink:href="#rim2" fill="#404040"><set attributeName="fill" to="#808080" begin="reset.mouseover" end="reset.mouseout"/></use>
  </g>
</defs>
<script type="application/ecmascript">
var viewWidth = 1732;
var viewHeight = 404;
var sectionId = 'dynsection-1';
</script>
<script type="application/ecmascript" xlink:href="svg.min.js"/>
<svg id="graph" class="graph">
<g id="viewport">
<title>dspic33ck&#45;dab.X/sources/fault/fault_common.h</title>
<!-- Node1 -->
<g id="Node000001" class="node">
<title>Node1</title>
<g id="a_Node000001"><a xlink:title="Contains fault generic public functions.">
<polygon fill="#999999" stroke="#666666" points="471.62,-396 346.88,-396 346.88,-364 471.62,-364 471.62,-396"/>
<text text-anchor="start" x="354.88" y="-382.5" font-family="Helvetica,sans-Serif" font-size="10.00">dspic33ck&#45;dab.X/sources</text>
<text text-anchor="middle" x="409.25" y="-370.5" font-family="Helvetica,sans-Serif" font-size="10.00">/fault/fault_common.h</text>
</a>
</g>
</g>
<!-- Node2 -->
<g id="Node000002" class="node">
<title>Node2</title>
<g id="a_Node000002"><a xlink:href="a00350.html" target="_top" xlink:title="Contains fault functions including the fault handler, fault object initialization and fault execution...">
<polygon fill="white" stroke="#666666" points="426.62,-38 301.88,-38 301.88,-6 426.62,-6 426.62,-38"/>
<text text-anchor="start" x="309.88" y="-24.5" font-family="Helvetica,sans-Serif" font-size="10.00">dspic33ck&#45;dab.X/sources</text>
<text text-anchor="middle" x="364.25" y="-12.5" font-family="Helvetica,sans-Serif" font-size="10.00">/fault/fault.c</text>
</a>
</g>
</g>
<!-- Node1&#45;&gt;Node2 -->
<g id="edge1_Node000001_Node000002" class="edge">
<title>Node1&#45;&gt;Node2</title>
<g id="a_edge1_Node000001_Node000002"><a xlink:title=" ">
<path fill="none" stroke="#63b8ff" d="M395.05,-354.19C390.81,-346.03 386.45,-336.8 383.25,-328 370.34,-292.43 364.25,-282.84 364.25,-245 364.25,-245 364.25,-245 364.25,-175 364.25,-124.86 364.25,-65.42 364.25,-38.1"/>
<polygon fill="#63b8ff" stroke="#63b8ff" points="392.43,-355.69 400.26,-362.82 398.58,-352.36 392.43,-355.69"/>
</a>
</g>
</g>
<!-- Node3 -->
<g id="Node000003" class="node">
<title>Node3</title>
<g id="a_Node000003"><a xlink:href="a00362.html" target="_top" xlink:title="Contains API functions for fault protection.">
<polygon fill="white" stroke="#666666" points="140.5,-38 0,-38 0,-6 140.5,-6 140.5,-38"/>
<text text-anchor="start" x="8" y="-24.5" font-family="Helvetica,sans-Serif" font-size="10.00">dspic33ck&#45;dab.X/sources</text>
<text text-anchor="middle" x="70.25" y="-12.5" font-family="Helvetica,sans-Serif" font-size="10.00">/fault/fault_comm_interface.c</text>
</a>
</g>
</g>
<!-- Node1&#45;&gt;Node3 -->
<g id="edge2_Node000001_Node000003" class="edge">
<title>Node1&#45;&gt;Node3</title>
<g id="a_edge2_Node000001_Node000003"><a xlink:title=" ">
<path fill="none" stroke="#63b8ff" d="M336.11,-364.15C275.16,-347 198.25,-312.07 198.25,-245 198.25,-245 198.25,-245 198.25,-175 198.25,-112.56 134.26,-62.43 96.77,-38.42"/>
<polygon fill="#63b8ff" stroke="#63b8ff" points="334.95,-367.73 345.51,-366.95 336.77,-360.97 334.95,-367.73"/>
</a>
</g>
</g>
<!-- Node4 -->
<g id="Node000004" class="node">
<title>Node4</title>
<g id="a_Node000004"><a xlink:href="a00356_source.html" target="_top" xlink:title=" ">
<polygon fill="white" stroke="#666666" points="516.62,-328 391.88,-328 391.88,-296 516.62,-296 516.62,-328"/>
<text text-anchor="start" x="399.88" y="-314.5" font-family="Helvetica,sans-Serif" font-size="10.00">dspic33ck&#45;dab.X/sources</text>
<text text-anchor="middle" x="454.25" y="-302.5" font-family="Helvetica,sans-Serif" font-size="10.00">/fault/fault_common.c</text>
</a>
</g>
</g>
<!-- Node1&#45;&gt;Node4 -->
<g id="edge3_Node000001_Node000004" class="edge">
<title>Node1&#45;&gt;Node4</title>
<g id="a_edge3_Node000001_Node000004"><a xlink:title=" ">
<path fill="none" stroke="#63b8ff" d="M425.7,-354.87C431.78,-345.96 438.48,-336.12 443.87,-328.22"/>
<polygon fill="#63b8ff" stroke="#63b8ff" points="422.43,-352.46 419.69,-362.69 428.21,-356.4 422.43,-352.46"/>
</a>
</g>
</g>
<!-- Node5 -->
<g id="Node000005" class="node">
<title>Node5</title>
<g id="a_Node000005"><a xlink:href="a00368.html" target="_top" xlink:title="Contains fault data types.">
<polygon fill="white" stroke="#666666" points="700.62,-328 575.88,-328 575.88,-296 700.62,-296 700.62,-328"/>
<text text-anchor="start" x="583.88" y="-314.5" font-family="Helvetica,sans-Serif" font-size="10.00">dspic33ck&#45;dab.X/sources</text>
<text text-anchor="middle" x="638.25" y="-302.5" font-family="Helvetica,sans-Serif" font-size="10.00">/fault/fault_typedef.h</text>
</a>
</g>
</g>
<!-- Node1&#45;&gt;Node5 -->
<g id="edge4_Node000001_Node000005" class="edge">
<title>Node1&#45;&gt;Node5</title>
<g id="a_edge4_Node000001_Node000005"><a xlink:title=" ">
<path fill="none" stroke="#63b8ff" d="M473.08,-360.6C508.15,-350.5 551.16,-338.1 584.5,-328.49"/>
<polygon fill="#63b8ff" stroke="#63b8ff" points="472.58,-357.39 463.94,-363.53 474.52,-364.12 472.58,-357.39"/>
</a>
</g>
</g>
<!-- Node6 -->
<g id="Node000006" class="node">
<title>Node6</title>
<g id="a_Node000006"><a xlink:href="a00467_source.html" target="_top" xlink:title=" ">
<polygon fill="white" stroke="#666666" points="762.62,-260 637.88,-260 637.88,-228 762.62,-228 762.62,-260"/>
<text text-anchor="start" x="645.88" y="-246.5" font-family="Helvetica,sans-Serif" font-size="10.00">dspic33ck&#45;dab.X/sources</text>
<text text-anchor="middle" x="700.25" y="-234.5" font-family="Helvetica,sans-Serif" font-size="10.00">/pwrctrl/pwrctrl_typedef.h</text>
</a>
</g>
</g>
<!-- Node5&#45;&gt;Node6 -->
<g id="edge5_Node000005_Node000006" class="edge">
<title>Node5&#45;&gt;Node6</title>
<g id="a_edge5_Node000005_Node000006"><a xlink:title=" ">
<path fill="none" stroke="#63b8ff" d="M660.13,-287.71C668.7,-278.59 678.29,-268.37 685.95,-260.22"/>
<polygon fill="#63b8ff" stroke="#63b8ff" points="657.93,-285.01 653.63,-294.69 663.03,-289.8 657.93,-285.01"/>
</a>
</g>
</g>
<!-- Node7 -->
<g id="Node000007" class="node">
<title>Node7</title>
<g id="a_Node000007"><a xlink:href="a00326.html" target="_top" xlink:title="Contains PWM initialization that was not supported by MCC generated code.">
<polygon fill="white" stroke="#666666" points="620.75,-124 487.75,-124 487.75,-80 620.75,-80 620.75,-124"/>
<text text-anchor="start" x="495.75" y="-110.5" font-family="Helvetica,sans-Serif" font-size="10.00">dspic33ck&#45;dab.X/sources</text>
<text text-anchor="start" x="495.75" y="-98.5" font-family="Helvetica,sans-Serif" font-size="10.00">/driver/mcc_extension</text>
<text text-anchor="middle" x="554.25" y="-86.5" font-family="Helvetica,sans-Serif" font-size="10.00">/drv_custom_config_pwm.h</text>
</a>
</g>
</g>
<!-- Node6&#45;&gt;Node7 -->
<g id="edge6_Node000006_Node000007" class="edge">
<title>Node6&#45;&gt;Node7</title>
<g id="a_edge6_Node000006_Node000007"><a xlink:title=" ">
<path fill="none" stroke="#63b8ff" d="M673.37,-220.59C663.15,-211.85 651.5,-201.64 641.25,-192 617.48,-169.65 591.49,-142.7 574.16,-124.35"/>
<polygon fill="#63b8ff" stroke="#63b8ff" points="670.67,-223.74 680.56,-227.54 675.2,-218.4 670.67,-223.74"/>
</a>
</g>
</g>
<!-- Node9 -->
<g id="Node000009" class="node">
<title>Node9</title>
<g id="a_Node000009"><a xlink:href="a00353.html" target="_top" xlink:title="Contains public fault functions.">
<polygon fill="white" stroke="#666666" points="1145.62,-118 1020.88,-118 1020.88,-86 1145.62,-86 1145.62,-118"/>
<text text-anchor="start" x="1028.88" y="-104.5" font-family="Helvetica,sans-Serif" font-size="10.00">dspic33ck&#45;dab.X/sources</text>
<text text-anchor="middle" x="1083.25" y="-92.5" font-family="Helvetica,sans-Serif" font-size="10.00">/fault/fault.h</text>
</a>
</g>
</g>
<!-- Node6&#45;&gt;Node9 -->
<g id="edge8_Node000006_Node000009" class="edge">
<title>Node6&#45;&gt;Node9</title>
<g id="a_edge8_Node000006_Node000009"><a xlink:title=" ">
<path fill="none" stroke="#63b8ff" d="M773.62,-236.98C826.88,-230.62 899.74,-217.76 959.25,-192 1002.05,-173.47 1044.61,-138.36 1067.03,-118.21"/>
<polygon fill="#63b8ff" stroke="#63b8ff" points="773.44,-233.59 763.9,-238.2 774.23,-240.54 773.44,-233.59"/>
</a>
</g>
</g>
<!-- Node16 -->
<g id="Node000016" class="node">
<title>Node16</title>
<g id="a_Node000016"><a xlink:href="a00434_source.html" target="_top" xlink:title=" ">
<polygon fill="white" stroke="#666666" points="915.62,-118 790.88,-118 790.88,-86 915.62,-86 915.62,-118"/>
<text text-anchor="start" x="798.88" y="-104.5" font-family="Helvetica,sans-Serif" font-size="10.00">dspic33ck&#45;dab.X/sources</text>
<text text-anchor="middle" x="853.25" y="-92.5" font-family="Helvetica,sans-Serif" font-size="10.00">/pwrctrl/pwrctrl.h</text>
</a>
</g>
</g>
<!-- Node6&#45;&gt;Node16 -->
<g id="edge17_Node000006_Node000016" class="edge">
<title>Node6&#45;&gt;Node16</title>
<g id="a_edge17_Node000006_Node000016"><a xlink:title=" ">
<path fill="none" stroke="#63b8ff" d="M681.79,-218.49C670.95,-200.87 661.62,-177.28 674.25,-160 700.72,-123.8 750.39,-110.04 790.71,-105.06"/>
<polygon fill="#63b8ff" stroke="#63b8ff" points="679.39,-220.19 687.84,-226.58 685.21,-216.32 679.39,-220.19"/>
</a>
</g>
</g>
<!-- Node20 -->
<g id="Node000020" class="node">
<title>Node20</title>
<g id="a_Node000020"><a xlink:href="a00458.html" target="_top" xlink:title="Contains DAB control phase calculation between primary and secondary, and the PWM distribution.">
<polygon fill="white" stroke="#666666" points="807.62,-192 682.88,-192 682.88,-160 807.62,-160 807.62,-192"/>
<text text-anchor="start" x="690.88" y="-178.5" font-family="Helvetica,sans-Serif" font-size="10.00">dspic33ck&#45;dab.X/sources</text>
<text text-anchor="middle" x="745.25" y="-166.5" font-family="Helvetica,sans-Serif" font-size="10.00">/pwrctrl/pwrctrl_pwm.c</text>
</a>
</g>
</g>
<!-- Node6&#45;&gt;Node20 -->
<g id="edge30_Node000006_Node000020" class="edge">
<title>Node6&#45;&gt;Node20</title>
<g id="a_edge30_Node000006_Node000020"><a xlink:title=" ">
<path fill="none" stroke="#63b8ff" d="M716.7,-218.87C722.78,-209.96 729.48,-200.12 734.87,-192.22"/>
<polygon fill="#63b8ff" stroke="#63b8ff" points="713.43,-216.46 710.69,-226.69 719.21,-220.4 713.43,-216.46"/>
</a>
</g>
</g>
<!-- Node21 -->
<g id="Node000021" class="node">
<title>Node21</title>
<g id="a_Node000021"><a xlink:href="a00461.html" target="_top" xlink:title="Contains public functions for PWM.">
<polygon fill="white" stroke="#666666" points="950.62,-192 825.88,-192 825.88,-160 950.62,-160 950.62,-192"/>
<text text-anchor="start" x="833.88" y="-178.5" font-family="Helvetica,sans-Serif" font-size="10.00">dspic33ck&#45;dab.X/sources</text>
<text text-anchor="middle" x="888.25" y="-166.5" font-family="Helvetica,sans-Serif" font-size="10.00">/pwrctrl/pwrctrl_pwm.h</text>
</a>
</g>
</g>
<!-- Node6&#45;&gt;Node21 -->
<g id="edge31_Node000006_Node000021" class="edge">
<title>Node6&#45;&gt;Node21</title>
<g id="a_edge31_Node000006_Node000021"><a xlink:title=" ">
<path fill="none" stroke="#63b8ff" d="M754.51,-223.95C782.95,-213.97 817.34,-201.89 844.12,-192.49"/>
<polygon fill="#63b8ff" stroke="#63b8ff" points="753.6,-220.91 745.33,-227.53 755.92,-227.52 753.6,-220.91"/>
</a>
</g>
</g>
<!-- Node8 -->
<g id="Node000008" class="node">
<title>Node8</title>
<g id="a_Node000008"><a xlink:href="a00338_source.html" target="_top" xlink:title=" ">
<polygon fill="white" stroke="#666666" points="283.62,-44 158.88,-44 158.88,0 283.62,0 283.62,-44"/>
<text text-anchor="start" x="166.88" y="-30.5" font-family="Helvetica,sans-Serif" font-size="10.00">dspic33ck&#45;dab.X/sources</text>
<text text-anchor="start" x="166.88" y="-18.5" font-family="Helvetica,sans-Serif" font-size="10.00">/driver/mcc_extension</text>
<text text-anchor="middle" x="221.25" y="-6.5" font-family="Helvetica,sans-Serif" font-size="10.00">/mcc_custom_config.c</text>
</a>
</g>
</g>
<!-- Node7&#45;&gt;Node8 -->
<g id="edge7_Node000007_Node000008" class="edge">
<title>Node7&#45;&gt;Node8</title>
<g id="a_edge7_Node000007_Node000008"><a xlink:title=" ">
<path fill="none" stroke="#63b8ff" d="M476.94,-85.57C424.82,-74.81 354.64,-59.64 293.25,-44 290.22,-43.23 287.13,-42.42 284.01,-41.58"/>
<polygon fill="#63b8ff" stroke="#63b8ff" points="475.94,-89.15 486.44,-87.73 477.35,-82.29 475.94,-89.15"/>
</a>
</g>
</g>
<!-- Node9&#45;&gt;Node2 -->
<g id="edge11_Node000009_Node000002" class="edge">
<title>Node9&#45;&gt;Node2</title>
<g id="a_edge11_Node000009_Node000002"><a xlink:title=" ">
<path fill="none" stroke="#63b8ff" d="M1009.79,-90.4C982.92,-86.76 952.25,-82.88 924.25,-80 707.91,-57.75 650.26,-82.66 436.25,-44 428.31,-42.56 419.99,-40.59 411.94,-38.43"/>
<polygon fill="#63b8ff" stroke="#63b8ff" points="1009.29,-94 1019.67,-91.89 1010.24,-87.06 1009.29,-94"/>
</a>
</g>
</g>
<!-- Node9&#45;&gt;Node9 -->
<g id="edge12_Node000009_Node000009" class="edge">
<title>Node9&#45;&gt;Node9</title>
<g id="a_edge12_Node000009_Node000009"><a xlink:title=" ">
<path fill="none" stroke="#63b8ff" d="M1156.13,-111.81C1160.8,-109.52 1163.62,-106.25 1163.62,-102 1163.62,-95.21 1156.4,-90.91 1145.93,-89.1"/>
<polygon fill="#63b8ff" stroke="#63b8ff" points="1155.49,-108.65 1146.93,-114.9 1157.52,-115.35 1155.49,-108.65"/>
</a>
</g>
</g>
<!-- Node10 -->
<g id="Node000010" class="node">
<title>Node10</title>
<g id="a_Node000010"><a xlink:href="a00050_source.html" target="_top" xlink:title=" ">
<polygon fill="white" stroke="#666666" points="1595,-32 1475.5,-32 1475.5,-12 1595,-12 1595,-32"/>
<text text-anchor="middle" x="1535.25" y="-18.5" font-family="Helvetica,sans-Serif" font-size="10.00">dspic33ck&#45;dab.X/main.c</text>
</a>
</g>
</g>
<!-- Node9&#45;&gt;Node10 -->
<g id="edge9_Node000009_Node000010" class="edge">
<title>Node9&#45;&gt;Node10</title>
<g id="a_edge9_Node000009_Node000010"><a xlink:title=" ">
<path fill="none" stroke="#63b8ff" d="M1156.41,-93.37C1233.92,-84.53 1359.61,-68.02 1466.25,-44 1480.05,-40.89 1495.12,-36.43 1507.63,-32.43"/>
<polygon fill="#63b8ff" stroke="#63b8ff" points="1156.34,-89.97 1146.8,-94.57 1157.13,-96.92 1156.34,-89.97"/>
</a>
</g>
</g>
<!-- Node11 -->
<g id="Node000011" class="node">
<title>Node11</title>
<g id="a_Node000011"><a xlink:href="a00053_source.html" target="_top" xlink:title=" ">
<polygon fill="white" stroke="#666666" points="1723.88,-38 1612.62,-38 1612.62,-6 1723.88,-6 1723.88,-38"/>
<text text-anchor="start" x="1620.62" y="-24.5" font-family="Helvetica,sans-Serif" font-size="10.00">dspic33ck&#45;dab.X/main</text>
<text text-anchor="middle" x="1668.25" y="-12.5" font-family="Helvetica,sans-Serif" font-size="10.00">_tasks.c</text>
</a>
</g>
</g>
<!-- Node9&#45;&gt;Node11 -->
<g id="edge10_Node000009_Node000011" class="edge">
<title>Node9&#45;&gt;Node11</title>
<g id="a_edge10_Node000009_Node000011"><a xlink:title=" ">
<path fill="none" stroke="#63b8ff" d="M1156.83,-97.77C1258.45,-92.23 1447.01,-78.01 1604.25,-44 1611.11,-42.52 1618.27,-40.58 1625.21,-38.47"/>
<polygon fill="#63b8ff" stroke="#63b8ff" points="1156.88,-94.32 1147.08,-98.35 1157.25,-101.31 1156.88,-94.32"/>
</a>
</g>
</g>
<!-- Node12 -->
<g id="Node000012" class="node">
<title>Node12</title>
<g id="a_Node000012"><a xlink:href="a00431.html" target="_top" xlink:title="Contains power control initialization including control loop initialization and start&#45;up initializati...">
<polygon fill="white" stroke="#666666" points="1002.62,-38 877.88,-38 877.88,-6 1002.62,-6 1002.62,-38"/>
<text text-anchor="start" x="885.88" y="-24.5" font-family="Helvetica,sans-Serif" font-size="10.00">dspic33ck&#45;dab.X/sources</text>
<text text-anchor="middle" x="940.25" y="-12.5" font-family="Helvetica,sans-Serif" font-size="10.00">/pwrctrl/pwrctrl.c</text>
</a>
</g>
</g>
<!-- Node9&#45;&gt;Node12 -->
<g id="edge13_Node000009_Node000012" class="edge">
<title>Node9&#45;&gt;Node12</title>
<g id="a_edge13_Node000009_Node000012"><a xlink:title=" ">
<path fill="none" stroke="#63b8ff" d="M1045.43,-80.37C1021.27,-67.19 990.46,-50.39 968.44,-38.38"/>
<polygon fill="#63b8ff" stroke="#63b8ff" points="1043.54,-83.87 1054,-85.59 1046.89,-77.73 1043.54,-83.87"/>
</a>
</g>
</g>
<!-- Node13 -->
<g id="Node000013" class="node">
<title>Node13</title>
<g id="a_Node000013"><a xlink:href="a00449.html" target="_top" xlink:title="Contains Control loop interrupt Callback that acquires the ADC raw data and process it in the control...">
<polygon fill="white" stroke="#666666" points="1145.62,-38 1020.88,-38 1020.88,-6 1145.62,-6 1145.62,-38"/>
<text text-anchor="start" x="1028.88" y="-24.5" font-family="Helvetica,sans-Serif" font-size="10.00">dspic33ck&#45;dab.X/sources</text>
<text text-anchor="middle" x="1083.25" y="-12.5" font-family="Helvetica,sans-Serif" font-size="10.00">/pwrctrl/pwrctrl_isr.c</text>
</a>
</g>
</g>
<!-- Node9&#45;&gt;Node13 -->
<g id="edge14_Node000009_Node000013" class="edge">
<title>Node9&#45;&gt;Node13</title>
<g id="a_edge14_Node000009_Node000013"><a xlink:title=" ">
<path fill="none" stroke="#63b8ff" d="M1083.25,-74.74C1083.25,-62.65 1083.25,-48.73 1083.25,-38.38"/>
<polygon fill="#63b8ff" stroke="#63b8ff" points="1079.75,-74.59 1083.25,-84.59 1086.75,-74.59 1079.75,-74.59"/>
</a>
</g>
</g>
<!-- Node14 -->
<g id="Node000014" class="node">
<title>Node14</title>
<g id="a_Node000014"><a xlink:href="a00455.html" target="_top" xlink:title="Contains some of the functions used in the interrupt service routine of control loop.">
<polygon fill="white" stroke="#666666" points="1314.38,-38 1164.12,-38 1164.12,-6 1314.38,-6 1314.38,-38"/>
<text text-anchor="start" x="1172.12" y="-24.5" font-family="Helvetica,sans-Serif" font-size="10.00">dspic33ck&#45;dab.X/sources</text>
<text text-anchor="middle" x="1239.25" y="-12.5" font-family="Helvetica,sans-Serif" font-size="10.00">/pwrctrl/pwrctrl_isr_extension.c</text>
</a>
</g>
</g>
<!-- Node9&#45;&gt;Node14 -->
<g id="edge15_Node000009_Node000014" class="edge">
<title>Node9&#45;&gt;Node14</title>
<g id="a_edge15_Node000009_Node000014"><a xlink:title=" ">
<path fill="none" stroke="#63b8ff" d="M1123.81,-80.72C1150.26,-67.49 1184.26,-50.5 1208.49,-38.38"/>
<polygon fill="#63b8ff" stroke="#63b8ff" points="1122.45,-77.99 1115.07,-85.59 1125.58,-84.25 1122.45,-77.99"/>
</a>
</g>
</g>
<!-- Node15 -->
<g id="Node000015" class="node">
<title>Node15</title>
<g id="a_Node000015"><a xlink:href="a00464.html" target="_top" xlink:title="Contains power control state machine functions that is executed every 100us.">
<polygon fill="white" stroke="#666666" points="1457.62,-38 1332.88,-38 1332.88,-6 1457.62,-6 1457.62,-38"/>
<text text-anchor="start" x="1340.88" y="-24.5" font-family="Helvetica,sans-Serif" font-size="10.00">dspic33ck&#45;dab.X/sources</text>
<text text-anchor="middle" x="1395.25" y="-12.5" font-family="Helvetica,sans-Serif" font-size="10.00">/pwrctrl/pwrctrl_sm.c</text>
</a>
</g>
</g>
<!-- Node9&#45;&gt;Node15 -->
<g id="edge16_Node000009_Node000015" class="edge">
<title>Node9&#45;&gt;Node15</title>
<g id="a_edge16_Node000009_Node000015"><a xlink:title=" ">
<path fill="none" stroke="#63b8ff" d="M1156.41,-84.64C1204.07,-73.73 1267.53,-58.73 1323.25,-44 1329.8,-42.27 1336.65,-40.38 1343.43,-38.46"/>
<polygon fill="#63b8ff" stroke="#63b8ff" points="1155.85,-81.4 1146.88,-87.04 1157.4,-88.23 1155.85,-81.4"/>
</a>
</g>
</g>
<!-- Node16&#45;&gt;Node2 -->
<g id="edge22_Node000016_Node000002" class="edge">
<title>Node16&#45;&gt;Node2</title>
<g id="a_edge22_Node000016_Node000002"><a xlink:title=" ">
<path fill="none" stroke="#63b8ff" d="M779.65,-94.27C695.89,-85.83 555.26,-69.34 436.25,-44 428.86,-42.43 421.13,-40.49 413.58,-38.43"/>
<polygon fill="#63b8ff" stroke="#63b8ff" points="779.28,-97.85 789.58,-95.35 779.98,-90.88 779.28,-97.85"/>
</a>
</g>
</g>
<!-- Node16&#45;&gt;Node3 -->
<g id="edge23_Node000016_Node000003" class="edge">
<title>Node16&#45;&gt;Node3</title>
<g id="a_edge23_Node000016_Node000003"><a xlink:title=" ">
<path fill="none" stroke="#63b8ff" d="M779.7,-93.76C736,-89.54 679.48,-84.24 629.25,-80 416.52,-62.04 360.81,-79.25 150.25,-44 141.61,-42.55 132.55,-40.6 123.75,-38.47"/>
<polygon fill="#63b8ff" stroke="#63b8ff" points="779.23,-97.33 789.52,-94.81 779.9,-90.36 779.23,-97.33"/>
</a>
</g>
</g>
<!-- Node16&#45;&gt;Node8 -->
<g id="edge21_Node000016_Node000008" class="edge">
<title>Node16&#45;&gt;Node8</title>
<g id="a_edge21_Node000016_Node000008"><a xlink:title=" ">
<path fill="none" stroke="#63b8ff" d="M779.74,-93.88C633.22,-79.63 316.78,-48.59 293.25,-44 290.18,-43.4 287.06,-42.73 283.91,-42.01"/>
<polygon fill="#63b8ff" stroke="#63b8ff" points="779.12,-97.43 789.41,-94.91 779.8,-90.46 779.12,-97.43"/>
</a>
</g>
</g>
<!-- Node16&#45;&gt;Node10 -->
<g id="edge18_Node000016_Node000010" class="edge">
<title>Node16&#45;&gt;Node10</title>
<g id="a_edge18_Node000016_Node000010"><a xlink:title=" ">
<path fill="none" stroke="#63b8ff" d="M926.71,-90.48C953.59,-86.85 984.26,-82.96 1012.25,-80 1213.54,-58.74 1267.38,-81.69 1466.25,-44 1480.64,-41.27 1496.29,-36.65 1509.04,-32.44"/>
<polygon fill="#63b8ff" stroke="#63b8ff" points="926.27,-87.15 916.84,-91.97 927.22,-94.08 926.27,-87.15"/>
</a>
</g>
</g>
<!-- Node16&#45;&gt;Node11 -->
<g id="edge19_Node000016_Node000011" class="edge">
<title>Node16&#45;&gt;Node11</title>
<g id="a_edge19_Node000016_Node000011"><a xlink:title=" ">
<path fill="none" stroke="#63b8ff" d="M926.69,-90.2C953.56,-86.54 984.24,-82.7 1012.25,-80 1274.63,-54.73 1345.34,-93.5 1604.25,-44 1611.49,-42.62 1619.04,-40.64 1626.31,-38.45"/>
<polygon fill="#63b8ff" stroke="#63b8ff" points="926.24,-86.87 916.81,-91.7 927.2,-93.8 926.24,-86.87"/>
</a>
</g>
</g>
<!-- Node16&#45;&gt;Node12 -->
<g id="edge24_Node000016_Node000012" class="edge">
<title>Node16&#45;&gt;Node12</title>
<g id="a_edge24_Node000016_Node000012"><a xlink:title=" ">
<path fill="none" stroke="#63b8ff" d="M878.44,-78.41C892.78,-65.56 910.36,-49.8 923.1,-38.38"/>
<polygon fill="#63b8ff" stroke="#63b8ff" points="876.55,-75.31 871.44,-84.59 881.22,-80.52 876.55,-75.31"/>
</a>
</g>
</g>
<!-- Node16&#45;&gt;Node13 -->
<g id="edge27_Node000016_Node000013" class="edge">
<title>Node16&#45;&gt;Node13</title>
<g id="a_edge27_Node000016_Node000013"><a xlink:title=" ">
<path fill="none" stroke="#63b8ff" d="M908.96,-82.11C948.5,-68.7 1000.92,-50.92 1037.9,-38.38"/>
<polygon fill="#63b8ff" stroke="#63b8ff" points="908.04,-79.06 899.69,-85.59 910.28,-85.69 908.04,-79.06"/>
</a>
</g>
</g>
<!-- Node16&#45;&gt;Node14 -->
<g id="edge28_Node000016_Node000014" class="edge">
<title>Node16&#45;&gt;Node14</title>
<g id="a_edge28_Node000016_Node000014"><a xlink:title=" ">
<path fill="none" stroke="#63b8ff" d="M926.69,-88.26C987.78,-77.38 1076.92,-60.86 1154.25,-44 1162.12,-42.28 1170.38,-40.38 1178.52,-38.43"/>
<polygon fill="#63b8ff" stroke="#63b8ff" points="926.24,-84.96 917,-90.16 927.46,-91.85 926.24,-84.96"/>
</a>
</g>
</g>
<!-- Node16&#45;&gt;Node15 -->
<g id="edge29_Node000016_Node000015" class="edge">
<title>Node16&#45;&gt;Node15</title>
<g id="a_edge29_Node000016_Node000015"><a xlink:title=" ">
<path fill="none" stroke="#63b8ff" d="M926.78,-91.04C953.66,-87.46 984.32,-83.46 1012.25,-80 1150.34,-62.89 1186.87,-71.58 1323.25,-44 1330.78,-42.48 1338.66,-40.54 1346.34,-38.46"/>
<polygon fill="#63b8ff" stroke="#63b8ff" points="926.35,-87.7 916.9,-92.49 927.27,-94.64 926.35,-87.7"/>
</a>
</g>
</g>
<!-- Node17 -->
<g id="Node000017" class="node">
<title>Node17</title>
<g id="a_Node000017"><a xlink:href="a00317_source.html" target="_top" xlink:title=" ">
<polygon fill="white" stroke="#666666" points="859.62,-38 734.88,-38 734.88,-6 859.62,-6 859.62,-38"/>
<text text-anchor="start" x="742.88" y="-24.5" font-family="Helvetica,sans-Serif" font-size="10.00">dspic33ck&#45;dab.X/sources</text>
<text text-anchor="middle" x="797.25" y="-12.5" font-family="Helvetica,sans-Serif" font-size="10.00">/device/dev_temp.c</text>
</a>
</g>
</g>
<!-- Node16&#45;&gt;Node17 -->
<g id="edge20_Node000016_Node000017" class="edge">
<title>Node16&#45;&gt;Node17</title>
<g id="a_edge20_Node000016_Node000017"><a xlink:title=" ">
<path fill="none" stroke="#63b8ff" d="M835.99,-76.96C826.97,-64.39 816.19,-49.37 808.29,-38.38"/>
<polygon fill="#63b8ff" stroke="#63b8ff" points="833.51,-78.51 842.19,-84.59 839.2,-74.43 833.51,-78.51"/>
</a>
</g>
</g>
<!-- Node18 -->
<g id="Node000018" class="node">
<title>Node18</title>
<g id="a_Node000018"><a xlink:href="a00443.html" target="_top" xlink:title="Contains power control interface with communication/gui.">
<polygon fill="white" stroke="#666666" points="569.62,-44 444.88,-44 444.88,0 569.62,0 569.62,-44"/>
<text text-anchor="start" x="452.88" y="-30.5" font-family="Helvetica,sans-Serif" font-size="10.00">dspic33ck&#45;dab.X/sources</text>
<text text-anchor="start" x="452.88" y="-18.5" font-family="Helvetica,sans-Serif" font-size="10.00">/pwrctrl/pwrctrl_comm</text>
<text text-anchor="middle" x="507.25" y="-6.5" font-family="Helvetica,sans-Serif" font-size="10.00">_interface.c</text>
</a>
</g>
</g>
<!-- Node16&#45;&gt;Node18 -->
<g id="edge25_Node000016_Node000018" class="edge">
<title>Node16&#45;&gt;Node18</title>
<g id="a_edge25_Node000016_Node000018"><a xlink:title=" ">
<path fill="none" stroke="#63b8ff" d="M779.92,-87.52C724.3,-76.88 646.11,-61.04 578.25,-44 575.51,-43.31 572.71,-42.59 569.89,-41.84"/>
<polygon fill="#63b8ff" stroke="#63b8ff" points="778.91,-91.08 789.38,-89.51 780.22,-84.21 778.91,-91.08"/>
</a>
</g>
</g>
<!-- Node19 -->
<g id="Node000019" class="node">
<title>Node19</title>
<g id="a_Node000019"><a xlink:href="a00437.html" target="_top" xlink:title="Contains generic functions that handles power control ramp Up/Down and the averaging generic function...">
<polygon fill="white" stroke="#666666" points="717.25,-38 587.25,-38 587.25,-6 717.25,-6 717.25,-38"/>
<text text-anchor="start" x="595.25" y="-24.5" font-family="Helvetica,sans-Serif" font-size="10.00">dspic33ck&#45;dab.X/sources</text>
<text text-anchor="middle" x="652.25" y="-12.5" font-family="Helvetica,sans-Serif" font-size="10.00">/pwrctrl/pwrctrl_common.c</text>
</a>
</g>
</g>
<!-- Node16&#45;&gt;Node19 -->
<g id="edge26_Node000016_Node000019" class="edge">
<title>Node16&#45;&gt;Node19</title>
<g id="a_edge26_Node000016_Node000019"><a xlink:title=" ">
<path fill="none" stroke="#63b8ff" d="M803.68,-81.76C769.23,-68.39 723.93,-50.82 691.88,-38.38"/>
<polygon fill="#63b8ff" stroke="#63b8ff" points="801.95,-85.23 812.54,-85.59 804.48,-78.71 801.95,-85.23"/>
</a>
</g>
</g>
<!-- Node21&#45;&gt;Node9 -->
<g id="edge32_Node000021_Node000009" class="edge">
<title>Node21&#45;&gt;Node9</title>
<g id="a_edge32_Node000021_Node000009"><a xlink:title=" ">
<path fill="none" stroke="#63b8ff" d="M940.06,-155.87C971.77,-144.16 1011.81,-129.38 1041.49,-118.42"/>
<polygon fill="#63b8ff" stroke="#63b8ff" points="939.25,-152.81 931.08,-159.55 941.68,-159.37 939.25,-152.81"/>
</a>
</g>
</g>
<!-- Node21&#45;&gt;Node16 -->
<g id="edge33_Node000021_Node000016" class="edge">
<title>Node21&#45;&gt;Node16</title>
<g id="a_edge33_Node000021_Node000016"><a xlink:title=" ">
<path fill="none" stroke="#63b8ff" d="M876.17,-150.14C871.01,-139.54 865.16,-127.5 860.66,-118.25"/>
<polygon fill="#63b8ff" stroke="#63b8ff" points="873.31,-151.27 880.83,-158.73 879.6,-148.21 873.31,-151.27"/>
</a>
</g>
</g>
</g>
</svg>

<g id="navigator" transform="translate(0 0)" fill="#404254">
  <rect fill="#f2f5e9" fill-opacity="0.5" stroke="#606060" stroke-width=".5" x="0" y="0" width="60" height="60"/>
  <use id="zoomplus" xlink:href="#zoomPlus" x="17" y="9" onmousedown="handleZoom(evt,'in')"/>
  <use id="zoomminus" xlink:href="#zoomMin" x="42" y="9" onmousedown="handleZoom(evt,'out')"/>
  <use id="reset" xlink:href="#resetDef" x="30" y="36" onmousedown="handleReset()"/>
   <use id="arrowup" xlink:href="#arrowUp" x="0" y="0" onmousedown="handlePan(0,-1)"/>
  <use id="arrowright" xlink:href="#arrowRight" x="0" y="0" onmousedown="handlePan(1,0)"/>
  <use id="arrowdown" xlink:href="#arrowDown" x="0" y="0" onmousedown="handlePan(0,1)"/>
  <use id="arrowleft" xlink:href="#arrowLeft" x="0" y="0" onmousedown="handlePan(-1,0)"/>
</g>
<svg viewBox="0 0 15 15" width="100%" height="30px" preserveAspectRatio="xMaxYMin meet">
 <g id="arrow_out" transform="scale(0.3 0.3)">
  <a xlink:href="a00361_org.svg" target="_base">
   <rect id="button" ry="5" rx="5" y="6" x="6" height="38" width="38"
        fill="#f2f5e9" fill-opacity="0.5" stroke="#606060" stroke-width="1.0"/>
   <path id="arrow"
     d="M 11.500037,31.436501 C 11.940474,20.09759 22.043105,11.32322 32.158766,21.979434 L 37.068811,17.246167 C 37.068811,17.246167 37.088388,32 37.088388,32 L 22.160133,31.978069 C 22.160133,31.978069 26.997745,27.140456 26.997745,27.140456 C 18.528582,18.264221 13.291696,25.230495 11.500037,31.436501 z"
     style="fill:#404040;"/>
  </a>
 </g>
</svg>

<style type='text/css'>
<![CDATA[
[data-mouse-over-selected='false'] { opacity: 0.7; }
[data-mouse-over-selected='true']  { opacity: 1.0; }
]]>
</style>
<script type="application/ecmascript"><![CDATA[
document.addEventListener('DOMContentLoaded', (event) => {
  highlightEdges();
  highlightAdjacentNodes();
});
]]></script>
</svg>
