<?xml version="1.0" encoding="UTF-8" standalone="no"?>
<!DOCTYPE svg PUBLIC "-//W3C//DTD SVG 1.1//EN"
 "http://www.w3.org/Graphics/SVG/1.1/DTD/svg11.dtd">
<!-- Generated by graphviz version 8.1.0 (20230707.0739)
 -->
<!-- Title: dspic33ck&#45;dab.X/sources/device/dev_current_sensor.h Pages: 1 -->
<svg width="583pt" height="176pt"
 viewBox="0.00 0.00 583.12 176.00" xmlns="http://www.w3.org/2000/svg" xmlns:xlink="http://www.w3.org/1999/xlink">
<g id="graph0" class="graph" transform="scale(1 1) rotate(0) translate(4 172)">
<title>dspic33ck&#45;dab.X/sources/device/dev_current_sensor.h</title>
<!-- Node1 -->
<g id="Node000001" class="node">
<title>Node1</title>
<g id="a_Node000001"><a xlink:title="Contains current sensor public functions.">
<polygon fill="#999999" stroke="#666666" points="294.38,-168 153.12,-168 153.12,-136 294.38,-136 294.38,-168"/>
<text text-anchor="start" x="161.12" y="-154.5" font-family="Helvetica,sans-Serif" font-size="10.00">dspic33ck&#45;dab.X/sources</text>
<text text-anchor="middle" x="223.75" y="-142.5" font-family="Helvetica,sans-Serif" font-size="10.00">/device/dev_current_sensor.h</text>
</a>
</g>
</g>
<!-- Node2 -->
<g id="Node000002" class="node">
<title>Node2</title>
<g id="a_Node000002"><a xlink:href="a00086_source.html" target="_top" xlink:title=" ">
<polygon fill="white" stroke="#666666" points="211.38,-100 100.12,-100 100.12,-68 211.38,-68 211.38,-100"/>
<text text-anchor="start" x="108.12" y="-86.5" font-family="Helvetica,sans-Serif" font-size="10.00">dspic33ck&#45;dab.X/main</text>
<text text-anchor="middle" x="155.75" y="-74.5" font-family="Helvetica,sans-Serif" font-size="10.00">_tasks.c</text>
</a>
</g>
</g>
<!-- Node1&#45;&gt;Node2 -->
<g id="edge1_Node000001_Node000002" class="edge">
<title>Node1&#45;&gt;Node2</title>
<g id="a_edge1_Node000001_Node000002"><a xlink:title=" ">
<path fill="none" stroke="#63b8ff" d="M200.33,-128.27C190.78,-119 180,-108.54 171.44,-100.22"/>
<polygon fill="#63b8ff" stroke="#63b8ff" points="197.37,-130.24 206.98,-134.69 202.24,-125.22 197.37,-130.24"/>
</a>
</g>
</g>
<!-- Node3 -->
<g id="Node000003" class="node">
<title>Node3</title>
<g id="a_Node000003"><a xlink:href="a00323.html" target="_top" xlink:title="Contains h files that are part of device layer.">
<polygon fill="white" stroke="#666666" points="354.12,-100 229.38,-100 229.38,-68 354.12,-68 354.12,-100"/>
<text text-anchor="start" x="237.38" y="-86.5" font-family="Helvetica,sans-Serif" font-size="10.00">dspic33ck&#45;dab.X/sources</text>
<text text-anchor="middle" x="291.75" y="-74.5" font-family="Helvetica,sans-Serif" font-size="10.00">/device/device.h</text>
</a>
</g>
</g>
<!-- Node1&#45;&gt;Node3 -->
<g id="edge2_Node000001_Node000003" class="edge">
<title>Node1&#45;&gt;Node3</title>
<g id="a_edge2_Node000001_Node000003"><a xlink:title=" ">
<path fill="none" stroke="#63b8ff" d="M247.17,-128.27C256.72,-119 267.5,-108.54 276.06,-100.22"/>
<polygon fill="#63b8ff" stroke="#63b8ff" points="245.26,-125.22 240.52,-134.69 250.13,-130.24 245.26,-125.22"/>
</a>
</g>
</g>
<!-- Node4 -->
<g id="Node000004" class="node">
<title>Node4</title>
<g id="a_Node000004"><a xlink:href="a00083_source.html" target="_top" xlink:title=" ">
<polygon fill="white" stroke="#666666" points="119.5,-26 0,-26 0,-6 119.5,-6 119.5,-26"/>
<text text-anchor="middle" x="59.75" y="-12.5" font-family="Helvetica,sans-Serif" font-size="10.00">dspic33ck&#45;dab.X/main.c</text>
</a>
</g>
</g>
<!-- Node3&#45;&gt;Node4 -->
<g id="edge3_Node000003_Node000004" class="edge">
<title>Node3&#45;&gt;Node4</title>
<g id="a_edge3_Node000003_Node000004"><a xlink:title=" ">
<path fill="none" stroke="#63b8ff" d="M226.85,-64.54C183.33,-52.16 127.8,-36.36 93,-26.46"/>
<polygon fill="#63b8ff" stroke="#63b8ff" points="225.78,-68.16 236.36,-67.53 227.7,-61.42 225.78,-68.16"/>
</a>
</g>
</g>
<!-- Node5 -->
<g id="Node000005" class="node">
<title>Node5</title>
<g id="a_Node000005"><a xlink:href="a00287_source.html" target="_top" xlink:title=" ">
<polygon fill="white" stroke="#666666" points="289.62,-32 137.88,-32 137.88,0 289.62,0 289.62,-32"/>
<text text-anchor="start" x="145.88" y="-18.5" font-family="Helvetica,sans-Serif" font-size="10.00">dspic33ck&#45;dab.X/sources</text>
<text text-anchor="middle" x="213.75" y="-6.5" font-family="Helvetica,sans-Serif" font-size="10.00">/comm/PBV_dab_frame_map.c</text>
</a>
</g>
</g>
<!-- Node3&#45;&gt;Node5 -->
<g id="edge4_Node000003_Node000005" class="edge">
<title>Node3&#45;&gt;Node5</title>
<g id="a_edge4_Node000003_Node000005"><a xlink:title=" ">
<path fill="none" stroke="#63b8ff" d="M265.27,-60.6C254.33,-51.34 241.91,-40.83 232.01,-32.45"/>
<polygon fill="#63b8ff" stroke="#63b8ff" points="262.76,-63.9 272.66,-67.69 267.29,-58.56 262.76,-63.9"/>
</a>
</g>
</g>
<!-- Node6 -->
<g id="Node000006" class="node">
<title>Node6</title>
<g id="a_Node000006"><a xlink:href="a00383.html" target="_top" xlink:title="Contains fault functions including the fault handler, fault object initialization and fault execution...">
<polygon fill="white" stroke="#666666" points="432.12,-32 307.38,-32 307.38,0 432.12,0 432.12,-32"/>
<text text-anchor="start" x="315.38" y="-18.5" font-family="Helvetica,sans-Serif" font-size="10.00">dspic33ck&#45;dab.X/sources</text>
<text text-anchor="middle" x="369.75" y="-6.5" font-family="Helvetica,sans-Serif" font-size="10.00">/fault/fault.c</text>
</a>
</g>
</g>
<!-- Node3&#45;&gt;Node6 -->
<g id="edge5_Node000003_Node000006" class="edge">
<title>Node3&#45;&gt;Node6</title>
<g id="a_edge5_Node000003_Node000006"><a xlink:title=" ">
<path fill="none" stroke="#63b8ff" d="M318.23,-60.6C329.17,-51.34 341.59,-40.83 351.49,-32.45"/>
<polygon fill="#63b8ff" stroke="#63b8ff" points="316.21,-58.56 310.84,-67.69 320.74,-63.9 316.21,-58.56"/>
</a>
</g>
</g>
<!-- Node7 -->
<g id="Node000007" class="node">
<title>Node7</title>
<g id="a_Node000007"><a xlink:href="a00500.html" target="_top" xlink:title="Contains power control state machine functions that is executed every 100us.">
<polygon fill="white" stroke="#666666" points="575.12,-32 450.38,-32 450.38,0 575.12,0 575.12,-32"/>
<text text-anchor="start" x="458.38" y="-18.5" font-family="Helvetica,sans-Serif" font-size="10.00">dspic33ck&#45;dab.X/sources</text>
<text text-anchor="middle" x="512.75" y="-6.5" font-family="Helvetica,sans-Serif" font-size="10.00">/pwrctrl/pwrctrl_sm.c</text>
</a>
</g>
</g>
<!-- Node3&#45;&gt;Node7 -->
<g id="edge6_Node000003_Node000007" class="edge">
<title>Node3&#45;&gt;Node7</title>
<g id="a_edge6_Node000003_Node000007"><a xlink:title=" ">
<path fill="none" stroke="#63b8ff" d="M353.78,-64.47C387.55,-54.39 428.84,-42.06 460.88,-32.49"/>
<polygon fill="#63b8ff" stroke="#63b8ff" points="353.14,-61.31 344.56,-67.53 355.15,-68.02 353.14,-61.31"/>
</a>
</g>
</g>
</g>
</svg>
