<?xml version="1.0" encoding="UTF-8" standalone="no"?>
<!DOCTYPE svg PUBLIC "-//W3C//DTD SVG 1.1//EN"
 "http://www.w3.org/Graphics/SVG/1.1/DTD/svg11.dtd">
<!-- Generated by graphviz version 8.1.0 (20230707.0739)
 -->
<!-- Title: dspic33ck&#45;dab.X/sources/device/device.h Pages: 1 -->
<svg width="583pt" height="108pt"
 viewBox="0.00 0.00 583.12 108.00" xmlns="http://www.w3.org/2000/svg" xmlns:xlink="http://www.w3.org/1999/xlink">
<g id="graph0" class="graph" transform="scale(1 1) rotate(0) translate(4 104)">
<title>dspic33ck&#45;dab.X/sources/device/device.h</title>
<!-- Node1 -->
<g id="Node000001" class="node">
<title>Node1</title>
<g id="a_Node000001"><a xlink:title="Contains h files that are part of device layer.">
<polygon fill="#999999" stroke="#666666" points="354.12,-100 229.38,-100 229.38,-68 354.12,-68 354.12,-100"/>
<text text-anchor="start" x="237.38" y="-86.5" font-family="Helvetica,sans-Serif" font-size="10.00">dspic33ck&#45;dab.X/sources</text>
<text text-anchor="middle" x="291.75" y="-74.5" font-family="Helvetica,sans-Serif" font-size="10.00">/device/device.h</text>
</a>
</g>
</g>
<!-- Node2 -->
<g id="Node000002" class="node">
<title>Node2</title>
<g id="a_Node000002"><a xlink:href="a00077_source.html" target="_top" xlink:title=" ">
<polygon fill="white" stroke="#666666" points="119.5,-26 0,-26 0,-6 119.5,-6 119.5,-26"/>
<text text-anchor="middle" x="59.75" y="-12.5" font-family="Helvetica,sans-Serif" font-size="10.00">dspic33ck&#45;dab.X/main.c</text>
</a>
</g>
</g>
<!-- Node1&#45;&gt;Node2 -->
<g id="edge1_Node000001_Node000002" class="edge">
<title>Node1&#45;&gt;Node2</title>
<g id="a_edge1_Node000001_Node000002"><a xlink:title=" ">
<path fill="none" stroke="#63b8ff" d="M226.85,-64.54C183.33,-52.16 127.8,-36.36 93,-26.46"/>
<polygon fill="#63b8ff" stroke="#63b8ff" points="225.78,-68.16 236.36,-67.53 227.7,-61.42 225.78,-68.16"/>
</a>
</g>
</g>
<!-- Node3 -->
<g id="Node000003" class="node">
<title>Node3</title>
<g id="a_Node000003"><a xlink:href="a00281_source.html" target="_top" xlink:title=" ">
<polygon fill="white" stroke="#666666" points="289.62,-32 137.88,-32 137.88,0 289.62,0 289.62,-32"/>
<text text-anchor="start" x="145.88" y="-18.5" font-family="Helvetica,sans-Serif" font-size="10.00">dspic33ck&#45;dab.X/sources</text>
<text text-anchor="middle" x="213.75" y="-6.5" font-family="Helvetica,sans-Serif" font-size="10.00">/comm/PBV_dab_frame_map.c</text>
</a>
</g>
</g>
<!-- Node1&#45;&gt;Node3 -->
<g id="edge2_Node000001_Node000003" class="edge">
<title>Node1&#45;&gt;Node3</title>
<g id="a_edge2_Node000001_Node000003"><a xlink:title=" ">
<path fill="none" stroke="#63b8ff" d="M265.27,-60.6C254.33,-51.34 241.91,-40.83 232.01,-32.45"/>
<polygon fill="#63b8ff" stroke="#63b8ff" points="262.76,-63.9 272.66,-67.69 267.29,-58.56 262.76,-63.9"/>
</a>
</g>
</g>
<!-- Node4 -->
<g id="Node000004" class="node">
<title>Node4</title>
<g id="a_Node000004"><a xlink:href="a00377.html" target="_top" xlink:title="Contains fault functions including the fault handler, fault object initialization and fault execution...">
<polygon fill="white" stroke="#666666" points="432.12,-32 307.38,-32 307.38,0 432.12,0 432.12,-32"/>
<text text-anchor="start" x="315.38" y="-18.5" font-family="Helvetica,sans-Serif" font-size="10.00">dspic33ck&#45;dab.X/sources</text>
<text text-anchor="middle" x="369.75" y="-6.5" font-family="Helvetica,sans-Serif" font-size="10.00">/fault/fault.c</text>
</a>
</g>
</g>
<!-- Node1&#45;&gt;Node4 -->
<g id="edge3_Node000001_Node000004" class="edge">
<title>Node1&#45;&gt;Node4</title>
<g id="a_edge3_Node000001_Node000004"><a xlink:title=" ">
<path fill="none" stroke="#63b8ff" d="M318.23,-60.6C329.17,-51.34 341.59,-40.83 351.49,-32.45"/>
<polygon fill="#63b8ff" stroke="#63b8ff" points="316.21,-58.56 310.84,-67.69 320.74,-63.9 316.21,-58.56"/>
</a>
</g>
</g>
<!-- Node5 -->
<g id="Node000005" class="node">
<title>Node5</title>
<g id="a_Node000005"><a xlink:href="a00494.html" target="_top" xlink:title="Contains power control state machine functions that is executed every 100us.">
<polygon fill="white" stroke="#666666" points="575.12,-32 450.38,-32 450.38,0 575.12,0 575.12,-32"/>
<text text-anchor="start" x="458.38" y="-18.5" font-family="Helvetica,sans-Serif" font-size="10.00">dspic33ck&#45;dab.X/sources</text>
<text text-anchor="middle" x="512.75" y="-6.5" font-family="Helvetica,sans-Serif" font-size="10.00">/pwrctrl/pwrctrl_sm.c</text>
</a>
</g>
</g>
<!-- Node1&#45;&gt;Node5 -->
<g id="edge4_Node000001_Node000005" class="edge">
<title>Node1&#45;&gt;Node5</title>
<g id="a_edge4_Node000001_Node000005"><a xlink:title=" ">
<path fill="none" stroke="#63b8ff" d="M353.78,-64.47C387.55,-54.39 428.84,-42.06 460.88,-32.49"/>
<polygon fill="#63b8ff" stroke="#63b8ff" points="353.14,-61.31 344.56,-67.53 355.15,-68.02 353.14,-61.31"/>
</a>
</g>
</g>
</g>
</svg>
