<?xml version="1.0" encoding="UTF-8" standalone="no"?>
<!DOCTYPE svg PUBLIC "-//W3C//DTD SVG 1.1//EN"
 "http://www.w3.org/Graphics/SVG/1.1/DTD/svg11.dtd">
<!-- Generated by graphviz version 8.1.0 (20230707.0739)
 -->
<!-- Title: dspic33ck&#45;dab.X/sources/driver/mcc_extension/drv_custom_config_pwm.h Pages: 1 -->
<svg width="999pt" height="288pt"
 viewBox="0.00 0.00 998.56 288.00" xmlns="http://www.w3.org/2000/svg" xmlns:xlink="http://www.w3.org/1999/xlink">
<g id="graph0" class="graph" transform="scale(1 1) rotate(0) translate(4 284)">
<title>dspic33ck&#45;dab.X/sources/driver/mcc_extension/drv_custom_config_pwm.h</title>
<!-- Node1 -->
<g id="Node000001" class="node">
<title>Node1</title>
<g id="a_Node000001"><a xlink:title="Contains PWM initialization that was not supported by MCC generated code.">
<polygon fill="#999999" stroke="#666666" points="606.12,-280 473.12,-280 473.12,-236 606.12,-236 606.12,-280"/>
<text text-anchor="start" x="481.12" y="-266.5" font-family="Helvetica,sans-Serif" font-size="10.00">dspic33ck&#45;dab.X/sources</text>
<text text-anchor="start" x="481.12" y="-254.5" font-family="Helvetica,sans-Serif" font-size="10.00">/driver/mcc_extension</text>
<text text-anchor="middle" x="539.62" y="-242.5" font-family="Helvetica,sans-Serif" font-size="10.00">/drv_custom_config_pwm.h</text>
</a>
</g>
</g>
<!-- Node2 -->
<g id="Node000002" class="node">
<title>Node2</title>
<g id="a_Node000002"><a xlink:href="a00503_source.html" target="_top" xlink:title=" ">
<polygon fill="white" stroke="#666666" points="669.12,-200 548.12,-200 548.12,-180 669.12,-180 669.12,-200"/>
<text text-anchor="middle" x="608.62" y="-186.5" font-family="Helvetica,sans-Serif" font-size="10.00">pwrctrl/pwrctrl_typedef.h</text>
</a>
</g>
</g>
<!-- Node1&#45;&gt;Node2 -->
<g id="edge1_Node000001_Node000002" class="edge">
<title>Node1&#45;&gt;Node2</title>
<g id="a_edge1_Node000001_Node000002"><a xlink:title=" ">
<path fill="none" stroke="#63b8ff" d="M561.84,-235.75C571.27,-226.73 582.12,-216.36 590.99,-207.87"/>
<polygon fill="#63b8ff" stroke="#63b8ff" points="592.97,-210.86 597.78,-201.42 588.13,-205.8 592.97,-210.86"/>
</a>
</g>
</g>
<!-- Node7 -->
<g id="Node000007" class="node">
<title>Node7</title>
<g id="a_Node000007"><a xlink:href="a00368.html" target="_top" xlink:title="Contains public functions and defines for the MCC code extension for PWM.">
<polygon fill="white" stroke="#666666" points="533.25,-88 434,-88 434,-56 533.25,-56 533.25,-88"/>
<text text-anchor="start" x="442" y="-74.5" font-family="Helvetica,sans-Serif" font-size="10.00">drv_mcc_extension</text>
<text text-anchor="middle" x="483.62" y="-62.5" font-family="Helvetica,sans-Serif" font-size="10.00">_pwm.h</text>
</a>
</g>
</g>
<!-- Node1&#45;&gt;Node7 -->
<g id="edge6_Node000001_Node000007" class="edge">
<title>Node1&#45;&gt;Node7</title>
<g id="a_edge6_Node000001_Node000007"><a xlink:title=" ">
<path fill="none" stroke="#63b8ff" d="M533.09,-235.53C522.74,-201.51 502.6,-135.33 491.47,-98.79"/>
<polygon fill="#63b8ff" stroke="#63b8ff" points="494.59,-98.02 488.33,-89.47 487.9,-100.05 494.59,-98.02"/>
</a>
</g>
</g>
<!-- Node10 -->
<g id="Node000010" class="node">
<title>Node10</title>
<g id="a_Node000010"><a xlink:href="a00314_source.html" target="_top" xlink:title=" ">
<polygon fill="white" stroke="#666666" points="320.12,-144 235.12,-144 235.12,-124 320.12,-124 320.12,-144"/>
<text text-anchor="middle" x="277.62" y="-130.5" font-family="Helvetica,sans-Serif" font-size="10.00">config/macros.h</text>
</a>
</g>
</g>
<!-- Node1&#45;&gt;Node10 -->
<g id="edge11_Node000001_Node000010" class="edge">
<title>Node1&#45;&gt;Node10</title>
<g id="a_edge11_Node000001_Node000010"><a xlink:title=" ">
<path fill="none" stroke="#63b8ff" d="M493.69,-235.61C440.18,-210.69 353.31,-170.24 307.73,-149.02"/>
<polygon fill="#63b8ff" stroke="#63b8ff" points="309.41,-145.47 298.87,-144.43 306.46,-151.82 309.41,-145.47"/>
</a>
</g>
</g>
<!-- Node15 -->
<g id="Node000015" class="node">
<title>Node15</title>
<g id="a_Node000015"><a xlink:href="a00173.html" target="_top" xlink:title="This is the generated driver header file for the PWM driver.">
<polygon fill="white" stroke="#666666" points="862.38,-144 778.88,-144 778.88,-124 862.38,-124 862.38,-144"/>
<text text-anchor="middle" x="820.62" y="-130.5" font-family="Helvetica,sans-Serif" font-size="10.00">pwm_hs/pwm.h</text>
</a>
</g>
</g>
<!-- Node1&#45;&gt;Node15 -->
<g id="edge25_Node000001_Node000015" class="edge">
<title>Node1&#45;&gt;Node15</title>
<g id="a_edge25_Node000001_Node000015"><a xlink:title=" ">
<path fill="none" stroke="#63b8ff" d="M593.3,-235.57C619.19,-225.09 650.63,-212.14 678.62,-200 717.84,-182.99 762.6,-162.28 791.21,-148.88"/>
<polygon fill="#63b8ff" stroke="#63b8ff" points="792.42,-151.71 799.98,-144.29 789.44,-145.38 792.42,-151.71"/>
</a>
</g>
</g>
<!-- Node3 -->
<g id="Node000003" class="node">
<title>Node3</title>
<g id="a_Node000003"><a xlink:href="a00401.html" target="_top" xlink:title="Contains fault data types.">
<polygon fill="white" stroke="#666666" points="671.62,-144 571.62,-144 571.62,-124 671.62,-124 671.62,-144"/>
<text text-anchor="middle" x="621.62" y="-130.5" font-family="Helvetica,sans-Serif" font-size="10.00">fault/fault_typedef.h</text>
</a>
</g>
</g>
<!-- Node2&#45;&gt;Node3 -->
<g id="edge2_Node000002_Node000003" class="edge">
<title>Node2&#45;&gt;Node3</title>
<g id="a_edge2_Node000002_Node000003"><a xlink:title=" ">
<path fill="none" stroke="#63b8ff" d="M610.89,-179.59C612.53,-172.78 614.81,-163.32 616.84,-154.86"/>
<polygon fill="#63b8ff" stroke="#63b8ff" points="620.45,-155.84 619.39,-145.3 613.64,-154.2 620.45,-155.84"/>
</a>
</g>
</g>
<!-- Node4 -->
<g id="Node000004" class="node">
<title>Node4</title>
<g id="a_Node000004"><a xlink:href="a00392.html" target="_top" xlink:title="Contains fault generic public functions.">
<polygon fill="white" stroke="#666666" points="713.12,-82 628.12,-82 628.12,-62 713.12,-62 713.12,-82"/>
<text text-anchor="middle" x="670.62" y="-68.5" font-family="Helvetica,sans-Serif" font-size="10.00">fault_common.h</text>
</a>
</g>
</g>
<!-- Node3&#45;&gt;Node4 -->
<g id="edge3_Node000003_Node000004" class="edge">
<title>Node3&#45;&gt;Node4</title>
<g id="a_edge3_Node000003_Node000004"><a xlink:title=" ">
<path fill="none" stroke="#63b8ff" d="M629.28,-123.62C636.52,-114.77 647.55,-101.26 656.39,-90.43"/>
<polygon fill="#63b8ff" stroke="#63b8ff" points="659.57,-93.07 663.18,-83.11 654.15,-88.64 659.57,-93.07"/>
</a>
</g>
</g>
<!-- Node5 -->
<g id="Node000005" class="node">
<title>Node5</title>
<g id="a_Node000005"><a xlink:title=" ">
<polygon fill="#e0e0e0" stroke="#999999" points="725.75,-20 677.5,-20 677.5,0 725.75,0 725.75,-20"/>
<text text-anchor="middle" x="701.62" y="-6.5" font-family="Helvetica,sans-Serif" font-size="10.00">stdint.h</text>
</a>
</g>
</g>
<!-- Node4&#45;&gt;Node5 -->
<g id="edge4_Node000004_Node000005" class="edge">
<title>Node4&#45;&gt;Node5</title>
<g id="a_edge4_Node000004_Node000005"><a xlink:title=" ">
<path fill="none" stroke="#63b8ff" d="M675.47,-61.62C679.86,-53.12 686.47,-40.33 691.94,-29.74"/>
<polygon fill="#63b8ff" stroke="#63b8ff" points="695.44,-31.6 696.92,-21.11 689.22,-28.39 695.44,-31.6"/>
</a>
</g>
</g>
<!-- Node6 -->
<g id="Node000006" class="node">
<title>Node6</title>
<g id="a_Node000006"><a xlink:title=" ">
<polygon fill="#e0e0e0" stroke="#999999" points="608.5,-20 552.75,-20 552.75,0 608.5,0 608.5,-20"/>
<text text-anchor="middle" x="580.62" y="-6.5" font-family="Helvetica,sans-Serif" font-size="10.00">stdbool.h</text>
</a>
</g>
</g>
<!-- Node4&#45;&gt;Node6 -->
<g id="edge5_Node000004_Node000006" class="edge">
<title>Node4&#45;&gt;Node6</title>
<g id="a_edge5_Node000004_Node000006"><a xlink:title=" ">
<path fill="none" stroke="#63b8ff" d="M656.56,-61.62C642.43,-52.2 620.4,-37.52 603.7,-26.39"/>
<polygon fill="#63b8ff" stroke="#63b8ff" points="605.85,-22.94 595.59,-20.31 601.97,-28.77 605.85,-22.94"/>
</a>
</g>
</g>
<!-- Node7&#45;&gt;Node5 -->
<g id="edge8_Node000007_Node000005" class="edge">
<title>Node7&#45;&gt;Node5</title>
<g id="a_edge8_Node000007_Node000005"><a xlink:title=" ">
<path fill="none" stroke="#63b8ff" d="M533.64,-57.23C574.31,-46.04 630.66,-30.53 666.63,-20.63"/>
<polygon fill="#63b8ff" stroke="#63b8ff" points="667.39,-23.78 676.1,-17.75 665.53,-17.03 667.39,-23.78"/>
</a>
</g>
</g>
<!-- Node7&#45;&gt;Node6 -->
<g id="edge9_Node000007_Node000006" class="edge">
<title>Node7&#45;&gt;Node6</title>
<g id="a_edge9_Node000007_Node000006"><a xlink:title=" ">
<path fill="none" stroke="#63b8ff" d="M508.6,-55.55C523.2,-46.52 541.54,-35.17 556.07,-26.19"/>
<polygon fill="#63b8ff" stroke="#63b8ff" points="557.75,-28.65 564.42,-20.41 554.07,-22.69 557.75,-28.65"/>
</a>
</g>
</g>
<!-- Node8 -->
<g id="Node000008" class="node">
<title>Node8</title>
<g id="a_Node000008"><a xlink:title=" ">
<polygon fill="#e0e0e0" stroke="#999999" points="351,-20 316.25,-20 316.25,0 351,0 351,-20"/>
<text text-anchor="middle" x="333.62" y="-6.5" font-family="Helvetica,sans-Serif" font-size="10.00">xc.h</text>
</a>
</g>
</g>
<!-- Node7&#45;&gt;Node8 -->
<g id="edge7_Node000007_Node000008" class="edge">
<title>Node7&#45;&gt;Node8</title>
<g id="a_edge7_Node000007_Node000008"><a xlink:title=" ">
<path fill="none" stroke="#63b8ff" d="M445,-55.55C418.8,-45.07 384.79,-31.47 361.28,-22.06"/>
<polygon fill="#63b8ff" stroke="#63b8ff" points="362.87,-18.53 352.29,-18.06 360.27,-25.03 362.87,-18.53"/>
</a>
</g>
</g>
<!-- Node9 -->
<g id="Node000009" class="node">
<title>Node9</title>
<g id="a_Node000009"><a xlink:title=" ">
<polygon fill="#e0e0e0" stroke="#999999" points="419.88,-20 369.38,-20 369.38,0 419.88,0 419.88,-20"/>
<text text-anchor="middle" x="394.62" y="-6.5" font-family="Helvetica,sans-Serif" font-size="10.00">stddef.h</text>
</a>
</g>
</g>
<!-- Node7&#45;&gt;Node9 -->
<g id="edge10_Node000007_Node000009" class="edge">
<title>Node7&#45;&gt;Node9</title>
<g id="a_edge10_Node000007_Node000009"><a xlink:title=" ">
<path fill="none" stroke="#63b8ff" d="M460.71,-55.55C447.44,-46.61 430.81,-35.39 417.54,-26.45"/>
<polygon fill="#63b8ff" stroke="#63b8ff" points="419.83,-23.1 409.58,-20.41 415.92,-28.9 419.83,-23.1"/>
</a>
</g>
</g>
<!-- Node10&#45;&gt;Node5 -->
<g id="edge13_Node000010_Node000005" class="edge">
<title>Node10&#45;&gt;Node5</title>
<g id="a_edge13_Node000010_Node000005"><a xlink:title=" ">
<path fill="none" stroke="#63b8ff" d="M320.39,-131.87C426.64,-128.62 695.94,-117.52 722.62,-88 737.23,-71.85 725.99,-46.51 715.13,-29.35"/>
<polygon fill="#63b8ff" stroke="#63b8ff" points="717.5,-27.62 708.98,-21.32 711.72,-31.56 717.5,-27.62"/>
</a>
</g>
</g>
<!-- Node10&#45;&gt;Node6 -->
<g id="edge14_Node000010_Node000006" class="edge">
<title>Node10&#45;&gt;Node6</title>
<g id="a_edge14_Node000010_Node000006"><a xlink:title=" ">
<path fill="none" stroke="#63b8ff" d="M320.55,-130.41C386.36,-125.67 508.2,-113.65 542.62,-88 561.26,-74.12 571.29,-48.6 576.28,-30.76"/>
<polygon fill="#63b8ff" stroke="#63b8ff" points="579.86,-31.89 578.88,-21.34 573.06,-30.2 579.86,-31.89"/>
</a>
</g>
</g>
<!-- Node10&#45;&gt;Node8 -->
<g id="edge12_Node000010_Node000008" class="edge">
<title>Node10&#45;&gt;Node8</title>
<g id="a_edge12_Node000010_Node000008"><a xlink:title=" ">
<path fill="none" stroke="#63b8ff" d="M234.64,-125.78C183.93,-115.39 110.01,-93.27 139.62,-56 159.99,-30.38 256.33,-18.04 305.14,-13.35"/>
<polygon fill="#63b8ff" stroke="#63b8ff" points="305.26,-16.77 314.9,-12.37 304.62,-9.79 305.26,-16.77"/>
</a>
</g>
</g>
<!-- Node10&#45;&gt;Node9 -->
<g id="edge15_Node000010_Node000009" class="edge">
<title>Node10&#45;&gt;Node9</title>
<g id="a_edge15_Node000010_Node000009"><a xlink:title=" ">
<path fill="none" stroke="#63b8ff" d="M234.8,-126.18C212.24,-120.18 186.44,-108.94 172.62,-88 164.8,-76.13 163.57,-66.97 172.62,-56 224.41,6.71 273.09,-34.99 358.46,-19.9"/>
<polygon fill="#63b8ff" stroke="#63b8ff" points="358.94,-23.17 368.05,-17.77 357.56,-16.31 358.94,-23.17"/>
</a>
</g>
</g>
<!-- Node11 -->
<g id="Node000011" class="node">
<title>Node11</title>
<g id="a_Node000011"><a xlink:title=" ">
<polygon fill="#e0e0e0" stroke="#999999" points="227.62,-82 181.62,-82 181.62,-62 227.62,-62 227.62,-82"/>
<text text-anchor="middle" x="204.62" y="-68.5" font-family="Helvetica,sans-Serif" font-size="10.00">math.h</text>
</a>
</g>
</g>
<!-- Node10&#45;&gt;Node11 -->
<g id="edge16_Node000010_Node000011" class="edge">
<title>Node10&#45;&gt;Node11</title>
<g id="a_edge16_Node000010_Node000011"><a xlink:title=" ">
<path fill="none" stroke="#63b8ff" d="M266.22,-123.62C254.9,-114.32 237.35,-99.9 223.87,-88.82"/>
<polygon fill="#63b8ff" stroke="#63b8ff" points="226.66,-85.76 216.71,-82.11 222.22,-91.17 226.66,-85.76"/>
</a>
</g>
</g>
<!-- Node12 -->
<g id="Node000012" class="node">
<title>Node12</title>
<g id="a_Node000012"><a xlink:href="a00317_source.html" target="_top" xlink:title=" ">
<polygon fill="white" stroke="#666666" points="87.25,-82 0,-82 0,-62 87.25,-62 87.25,-82"/>
<text text-anchor="middle" x="43.62" y="-68.5" font-family="Helvetica,sans-Serif" font-size="10.00">useful_macros.h</text>
</a>
</g>
</g>
<!-- Node10&#45;&gt;Node12 -->
<g id="edge17_Node000010_Node000012" class="edge">
<title>Node10&#45;&gt;Node12</title>
<g id="a_edge17_Node000010_Node000012"><a xlink:title=" ">
<path fill="none" stroke="#63b8ff" d="M240.53,-123.55C204.91,-114.46 149.58,-100.33 101.62,-88 98.04,-87.08 94.33,-86.12 90.6,-85.16"/>
<polygon fill="#63b8ff" stroke="#63b8ff" points="91.69,-81.57 81.13,-82.46 89.94,-88.35 91.69,-81.57"/>
</a>
</g>
</g>
<!-- Node13 -->
<g id="Node000013" class="node">
<title>Node13</title>
<g id="a_Node000013"><a xlink:href="a00308_source.html" target="_top" xlink:title=" ">
<polygon fill="white" stroke="#666666" points="415.5,-82 365.75,-82 365.75,-62 415.5,-62 415.5,-82"/>
<text text-anchor="middle" x="390.62" y="-68.5" font-family="Helvetica,sans-Serif" font-size="10.00">config.h</text>
</a>
</g>
</g>
<!-- Node10&#45;&gt;Node13 -->
<g id="edge19_Node000010_Node000013" class="edge">
<title>Node10&#45;&gt;Node13</title>
<g id="a_edge19_Node000010_Node000013"><a xlink:title=" ">
<path fill="none" stroke="#63b8ff" d="M295.28,-123.62C313.52,-113.94 342.24,-98.69 363.39,-87.46"/>
<polygon fill="#63b8ff" stroke="#63b8ff" points="364.9,-90.09 372.09,-82.31 361.62,-83.91 364.9,-90.09"/>
</a>
</g>
</g>
<!-- Node14 -->
<g id="Node000014" class="node">
<title>Node14</title>
<g id="a_Node000014"><a xlink:href="a00311_source.html" target="_top" xlink:title=" ">
<polygon fill="white" stroke="#666666" points="309.25,-82 246,-82 246,-62 309.25,-62 309.25,-82"/>
<text text-anchor="middle" x="277.62" y="-68.5" font-family="Helvetica,sans-Serif" font-size="10.00">hardware.h</text>
</a>
</g>
</g>
<!-- Node10&#45;&gt;Node14 -->
<g id="edge24_Node000010_Node000014" class="edge">
<title>Node10&#45;&gt;Node14</title>
<g id="a_edge24_Node000010_Node000014"><a xlink:title=" ">
<path fill="none" stroke="#63b8ff" d="M277.62,-123.62C277.62,-115.48 277.62,-103.39 277.62,-93.07"/>
<polygon fill="#63b8ff" stroke="#63b8ff" points="281.13,-93.11 277.62,-83.11 274.13,-93.11 281.13,-93.11"/>
</a>
</g>
</g>
<!-- Node12&#45;&gt;Node8 -->
<g id="edge18_Node000012_Node000008" class="edge">
<title>Node12&#45;&gt;Node8</title>
<g id="a_edge18_Node000012_Node000008"><a xlink:title=" ">
<path fill="none" stroke="#63b8ff" d="M78.81,-61.53C86.32,-59.61 94.22,-57.67 101.62,-56 174.55,-39.51 261.2,-23.7 305.09,-15.95"/>
<polygon fill="#63b8ff" stroke="#63b8ff" points="305.55,-19.25 314.79,-14.07 304.34,-12.35 305.55,-19.25"/>
</a>
</g>
</g>
<!-- Node13&#45;&gt;Node5 -->
<g id="edge21_Node000013_Node000005" class="edge">
<title>Node13&#45;&gt;Node5</title>
<g id="a_edge21_Node000013_Node000005"><a xlink:title=" ">
<path fill="none" stroke="#63b8ff" d="M409.72,-61.56C414.5,-59.48 419.68,-57.47 424.62,-56 469.35,-42.74 602.17,-24.14 666.25,-15.6"/>
<polygon fill="#63b8ff" stroke="#63b8ff" points="666.56,-18.96 676.02,-14.18 665.65,-12.02 666.56,-18.96"/>
</a>
</g>
</g>
<!-- Node13&#45;&gt;Node6 -->
<g id="edge22_Node000013_Node000006" class="edge">
<title>Node13&#45;&gt;Node6</title>
<g id="a_edge22_Node000013_Node000006"><a xlink:title=" ">
<path fill="none" stroke="#63b8ff" d="M410.94,-61.51C415.4,-59.57 420.14,-57.63 424.62,-56 463.85,-41.76 509.88,-28.94 541.72,-20.66"/>
<polygon fill="#63b8ff" stroke="#63b8ff" points="542.55,-23.81 551.36,-17.93 540.81,-17.03 542.55,-23.81"/>
</a>
</g>
</g>
<!-- Node13&#45;&gt;Node8 -->
<g id="edge20_Node000013_Node000008" class="edge">
<title>Node13&#45;&gt;Node8</title>
<g id="a_edge20_Node000013_Node000008"><a xlink:title=" ">
<path fill="none" stroke="#63b8ff" d="M381.72,-61.62C373.14,-52.59 359.96,-38.72 349.56,-27.78"/>
<polygon fill="#63b8ff" stroke="#63b8ff" points="352.71,-25.95 343.28,-21.11 347.63,-30.77 352.71,-25.95"/>
</a>
</g>
</g>
<!-- Node13&#45;&gt;Node9 -->
<g id="edge23_Node000013_Node000009" class="edge">
<title>Node13&#45;&gt;Node9</title>
<g id="a_edge23_Node000013_Node000009"><a xlink:title=" ">
<path fill="none" stroke="#63b8ff" d="M391.25,-61.62C391.79,-53.48 392.6,-41.39 393.29,-31.07"/>
<polygon fill="#63b8ff" stroke="#63b8ff" points="396.84,-31.32 394.02,-21.11 389.86,-30.86 396.84,-31.32"/>
</a>
</g>
</g>
<!-- Node15&#45;&gt;Node5 -->
<g id="edge27_Node000015_Node000005" class="edge">
<title>Node15&#45;&gt;Node5</title>
<g id="a_edge27_Node000015_Node000005"><a xlink:title=" ">
<path fill="none" stroke="#63b8ff" d="M841.7,-123.54C855.54,-116.06 872.53,-104.19 880.62,-88 886.99,-75.28 889.37,-67.22 880.62,-56 863.15,-33.59 783.96,-20.63 736.96,-14.78"/>
<polygon fill="#63b8ff" stroke="#63b8ff" points="737.39,-11.19 727.05,-13.48 736.56,-18.14 737.39,-11.19"/>
</a>
</g>
</g>
<!-- Node15&#45;&gt;Node6 -->
<g id="edge28_Node000015_Node000006" class="edge">
<title>Node15&#45;&gt;Node6</title>
<g id="a_edge28_Node000015_Node000006"><a xlink:title=" ">
<path fill="none" stroke="#63b8ff" d="M778.53,-133.67C734.54,-132.25 665.63,-123.79 619.62,-88 601.37,-73.8 590.96,-48.75 585.56,-31.08"/>
<polygon fill="#63b8ff" stroke="#63b8ff" points="588.67,-30.2 582.65,-21.49 581.92,-32.06 588.67,-30.2"/>
</a>
</g>
</g>
<!-- Node15&#45;&gt;Node8 -->
<g id="edge26_Node000015_Node000008" class="edge">
<title>Node15&#45;&gt;Node8</title>
<g id="a_edge26_Node000015_Node000008"><a xlink:title=" ">
<path fill="none" stroke="#63b8ff" d="M778.72,-130.2C667.61,-122.62 372.83,-101.34 356.62,-88 339.99,-74.31 335.06,-49.13 333.76,-31.3"/>
<polygon fill="#63b8ff" stroke="#63b8ff" points="337.22,-31.22 333.34,-21.36 330.23,-31.48 337.22,-31.22"/>
</a>
</g>
</g>
<!-- Node16 -->
<g id="Node000016" class="node">
<title>Node16</title>
<g id="a_Node000016"><a xlink:title=" ">
<polygon fill="#e0e0e0" stroke="#999999" points="975.38,-82 927.88,-82 927.88,-62 975.38,-62 975.38,-82"/>
<text text-anchor="middle" x="951.62" y="-68.5" font-family="Helvetica,sans-Serif" font-size="10.00">stdlib.h</text>
</a>
</g>
</g>
<!-- Node15&#45;&gt;Node16 -->
<g id="edge29_Node000015_Node000016" class="edge">
<title>Node15&#45;&gt;Node16</title>
<g id="a_edge29_Node000015_Node000016"><a xlink:title=" ">
<path fill="none" stroke="#63b8ff" d="M841.09,-123.62C862.63,-113.76 896.75,-98.13 921.39,-86.85"/>
<polygon fill="#63b8ff" stroke="#63b8ff" points="922.67,-89.66 930.3,-82.31 919.75,-83.29 922.67,-89.66"/>
</a>
</g>
</g>
<!-- Node17 -->
<g id="Node000017" class="node">
<title>Node17</title>
<g id="a_Node000017"><a xlink:href="a00182.html" target="_top" xlink:title="This is the generated driver types header file for the PWM driver.">
<polygon fill="white" stroke="#666666" points="956.38,-20 866.88,-20 866.88,0 956.38,0 956.38,-20"/>
<text text-anchor="middle" x="911.62" y="-6.5" font-family="Helvetica,sans-Serif" font-size="10.00">pwm_hs_types.h</text>
</a>
</g>
</g>
<!-- Node15&#45;&gt;Node17 -->
<g id="edge30_Node000015_Node000017" class="edge">
<title>Node15&#45;&gt;Node17</title>
<g id="a_edge30_Node000015_Node000017"><a xlink:title=" ">
<path fill="none" stroke="#63b8ff" d="M862.86,-127.26C906.38,-120.38 969.9,-107.31 984.62,-88 993.25,-76.69 991.56,-68.42 984.62,-56 976.92,-42.19 963.04,-32.1 949.43,-25.01"/>
<polygon fill="#63b8ff" stroke="#63b8ff" points="951.21,-21.5 940.67,-20.37 948.2,-27.82 951.21,-21.5"/>
</a>
</g>
</g>
<!-- Node18 -->
<g id="Node000018" class="node">
<title>Node18</title>
<g id="a_Node000018"><a xlink:href="a00179_source.html" target="_top" xlink:title=" ">
<polygon fill="white" stroke="#666666" points="871.75,-82 769.5,-82 769.5,-62 871.75,-62 871.75,-82"/>
<text text-anchor="middle" x="820.62" y="-68.5" font-family="Helvetica,sans-Serif" font-size="10.00">pwm_hs_interface.h</text>
</a>
</g>
</g>
<!-- Node15&#45;&gt;Node18 -->
<g id="edge31_Node000015_Node000018" class="edge">
<title>Node15&#45;&gt;Node18</title>
<g id="a_edge31_Node000015_Node000018"><a xlink:title=" ">
<path fill="none" stroke="#63b8ff" d="M820.62,-123.62C820.62,-115.48 820.62,-103.39 820.62,-93.07"/>
<polygon fill="#63b8ff" stroke="#63b8ff" points="824.13,-93.11 820.62,-83.11 817.13,-93.11 824.13,-93.11"/>
</a>
</g>
</g>
<!-- Node18&#45;&gt;Node5 -->
<g id="edge33_Node000018_Node000005" class="edge">
<title>Node18&#45;&gt;Node5</title>
<g id="a_edge33_Node000018_Node000005"><a xlink:title=" ">
<path fill="none" stroke="#63b8ff" d="M802.03,-61.62C782.64,-51.85 752.03,-36.41 729.7,-25.15"/>
<polygon fill="#63b8ff" stroke="#63b8ff" points="731.59,-21.69 721.09,-20.31 728.44,-27.94 731.59,-21.69"/>
</a>
</g>
</g>
<!-- Node18&#45;&gt;Node6 -->
<g id="edge32_Node000018_Node000006" class="edge">
<title>Node18&#45;&gt;Node6</title>
<g id="a_edge32_Node000018_Node000006"><a xlink:title=" ">
<path fill="none" stroke="#63b8ff" d="M782.86,-61.56C738.23,-50.4 664.35,-31.93 619.31,-20.67"/>
<polygon fill="#63b8ff" stroke="#63b8ff" points="620.34,-17.07 609.79,-18.04 618.65,-23.86 620.34,-17.07"/>
</a>
</g>
</g>
<!-- Node18&#45;&gt;Node17 -->
<g id="edge34_Node000018_Node000017" class="edge">
<title>Node18&#45;&gt;Node17</title>
<g id="a_edge34_Node000018_Node000017"><a xlink:title=" ">
<path fill="none" stroke="#63b8ff" d="M834.84,-61.62C849.27,-52.11 871.82,-37.24 888.76,-26.08"/>
<polygon fill="#63b8ff" stroke="#63b8ff" points="890.08,-28.74 896.51,-20.31 886.23,-22.89 890.08,-28.74"/>
</a>
</g>
</g>
</g>
</svg>
