<?xml version="1.0" encoding="UTF-8" standalone="no"?>
<!DOCTYPE svg PUBLIC "-//W3C//DTD SVG 1.1//EN"
 "http://www.w3.org/Graphics/SVG/1.1/DTD/svg11.dtd">
<!-- Generated by graphviz version 8.1.0 (20230707.0739)
 -->
<!-- Title: dab&#45;pwm&#45;configuration.X/sources/device/pwrctrl/dev_pwrctrl_utils.h Pages: 1 -->
<!--zoomable 212 -->

<svg id="main" version="1.1" xmlns="http://www.w3.org/2000/svg" xmlns:xlink="http://www.w3.org/1999/xlink" xml:space="preserve" onload="init(evt)">
<style type="text/css"><![CDATA[
.node, .edge {opacity: 0.7;}
.node.selected, .edge.selected {opacity: 1;}
.edge:hover path { stroke: red; }
.edge:hover polygon { stroke: red; fill: red; }
]]></style>

<defs>
  <circle id="rim" cx="0" cy="0" r="7"/>
  <circle id="rim2" cx="0" cy="0" r="3.5"/>
  <g id="zoomPlus">
    <use xlink:href="#rim" fill="#404040"><set attributeName="fill" to="#808080" begin="zoomplus.mouseover" end="zoomplus.mouseout"/></use>
    <path d="M-4,0h8M0,-4v8" fill="none" stroke="white" stroke-width="1.5" pointer-events="none"/>
  </g>
  <g id="zoomMin">
    <use xlink:href="#rim" fill="#404040"><set attributeName="fill" to="#808080" begin="zoomminus.mouseover" end="zoomminus.mouseout"/></use>
    <path d="M-4,0h8" fill="none" stroke="white" stroke-width="1.5" pointer-events="none"/>
  </g>
  <g id="arrowUp" transform="translate(30 24)">
    <use xlink:href="#rim"/>
    <path pointer-events="none" fill="none" stroke="white" stroke-width="1.5" d="M0,-3.0v7 M-2.5,-0.5L0,-3.0L2.5,-0.5"/>
  </g>
  <g id="arrowRight" transform="rotate(90) translate(36 -43)">
    <use xlink:href="#rim"/>
    <path pointer-events="none" fill="none" stroke="white" stroke-width="1.5" d="M0,-3.0v7 M-2.5,-0.5L0,-3.0L2.5,-0.5"/>
  </g>
  <g id="arrowDown" transform="rotate(180) translate(-30 -48)">
    <use xlink:href="#rim"/>
    <path pointer-events="none" fill="none" stroke="white" stroke-width="1.5" d="M0,-3.0v7 M-2.5,-0.5L0,-3.0L2.5,-0.5"/>
  </g>
  <g id="arrowLeft" transform="rotate(270) translate(-36 17)">
    <use xlink:href="#rim"/>
    <path pointer-events="none" fill="none" stroke="white" stroke-width="1.5" d="M0,-3.0v7 M-2.5,-0.5L0,-3.0L2.5,-0.5"/>
  </g>
  <g id="resetDef">
    <use xlink:href="#rim2" fill="#404040"><set attributeName="fill" to="#808080" begin="reset.mouseover" end="reset.mouseout"/></use>
  </g>
</defs>
<script type="application/ecmascript">
var viewWidth = 1608;
var viewHeight = 212;
var sectionId = 'dynsection-0';
</script>
<script type="application/ecmascript" xlink:href="svg.min.js"/>
<svg id="graph" class="graph">
<g id="viewport">
<title>dab&#45;pwm&#45;configuration.X/sources/device/pwrctrl/dev_pwrctrl_utils.h</title>
<!-- Node1 -->
<g id="Node000001" class="node">
<title>Node1</title>
<g id="a_Node000001"><a xlink:title="Contains the power control reusable functions.">
<polygon fill="#999999" stroke="#666666" points="834,-204 713,-204 713,-160 834,-160 834,-204"/>
<text text-anchor="start" x="721" y="-190.5" font-family="Helvetica,sans-Serif" font-size="10.00">dab&#45;pwm&#45;configuration.X</text>
<text text-anchor="start" x="721" y="-178.5" font-family="Helvetica,sans-Serif" font-size="10.00">/sources/device/pwrctrl</text>
<text text-anchor="middle" x="773.5" y="-166.5" font-family="Helvetica,sans-Serif" font-size="10.00">/dev_pwrctrl_utils.h</text>
</a>
</g>
</g>
<!-- Node2 -->
<g id="Node000002" class="node">
<title>Node2</title>
<g id="a_Node000002"><a xlink:href="a00317_source.html" target="_top" xlink:title=" ">
<polygon fill="white" stroke="#666666" points="607,-124 486,-124 486,-80 607,-80 607,-124"/>
<text text-anchor="start" x="494" y="-110.5" font-family="Helvetica,sans-Serif" font-size="10.00">dab&#45;pwm&#45;configuration.X</text>
<text text-anchor="start" x="494" y="-98.5" font-family="Helvetica,sans-Serif" font-size="10.00">/sources/device/fault</text>
<text text-anchor="middle" x="546.5" y="-86.5" font-family="Helvetica,sans-Serif" font-size="10.00">/dev_fault.h</text>
</a>
</g>
</g>
<!-- Node1&#45;&gt;Node2 -->
<g id="edge1_Node000001_Node000002" class="edge">
<title>Node1&#45;&gt;Node2</title>
<g id="a_edge1_Node000001_Node000002"><a xlink:title=" ">
<path fill="none" stroke="#63b8ff" d="M702.53,-156.61C672.05,-146.14 636.78,-134.02 607.5,-123.96"/>
<polygon fill="#63b8ff" stroke="#63b8ff" points="701.07,-160.16 711.67,-160.1 703.35,-153.54 701.07,-160.16"/>
</a>
</g>
</g>
<!-- Node7 -->
<g id="Node000007" class="node">
<title>Node7</title>
<g id="a_Node000007"><a xlink:href="a00371.html" target="_top" xlink:title="Contains Control loop interrupt Callback that acquires the ADC raw data and process it in the control...">
<polygon fill="white" stroke="#666666" points="260,-44 139,-44 139,0 260,0 260,-44"/>
<text text-anchor="start" x="147" y="-30.5" font-family="Helvetica,sans-Serif" font-size="10.00">dab&#45;pwm&#45;configuration.X</text>
<text text-anchor="start" x="147" y="-18.5" font-family="Helvetica,sans-Serif" font-size="10.00">/sources/device/pwrctrl</text>
<text text-anchor="middle" x="199.5" y="-6.5" font-family="Helvetica,sans-Serif" font-size="10.00">/dev_pwrctrl_isr.c</text>
</a>
</g>
</g>
<!-- Node1&#45;&gt;Node7 -->
<g id="edge21_Node000001_Node000007" class="edge">
<title>Node1&#45;&gt;Node7</title>
<g id="a_edge21_Node000001_Node000007"><a xlink:title=" ">
<path fill="none" stroke="#63b8ff" d="M701.94,-170.56C641.32,-160.94 552.41,-144.98 476.5,-124 395.96,-101.74 305.49,-66.8 250.52,-44.4"/>
<polygon fill="#63b8ff" stroke="#63b8ff" points="701.13,-174.14 711.55,-172.23 702.21,-167.22 701.13,-174.14"/>
</a>
</g>
</g>
<!-- Node9 -->
<g id="Node000009" class="node">
<title>Node9</title>
<g id="a_Node000009"><a xlink:href="a00386.html" target="_top" xlink:title="Contains power control state machine functions that is executed every 100us.">
<polygon fill="white" stroke="#666666" points="1140,-44 1019,-44 1019,0 1140,0 1140,-44"/>
<text text-anchor="start" x="1027" y="-30.5" font-family="Helvetica,sans-Serif" font-size="10.00">dab&#45;pwm&#45;configuration.X</text>
<text text-anchor="start" x="1027" y="-18.5" font-family="Helvetica,sans-Serif" font-size="10.00">/sources/device/pwrctrl</text>
<text text-anchor="middle" x="1079.5" y="-6.5" font-family="Helvetica,sans-Serif" font-size="10.00">/dev_pwrctrl_sm.c</text>
</a>
</g>
</g>
<!-- Node1&#45;&gt;Node9 -->
<g id="edge22_Node000001_Node000009" class="edge">
<title>Node1&#45;&gt;Node9</title>
<g id="a_edge22_Node000001_Node000009"><a xlink:title=" ">
<path fill="none" stroke="#63b8ff" d="M810.52,-152.71C821.45,-143.87 833.24,-133.84 843.5,-124 862.36,-105.91 860.36,-93.88 882.5,-80 932.57,-48.62 953.78,-60.6 1010.5,-44 1013.14,-43.23 1015.84,-42.43 1018.57,-41.62"/>
<polygon fill="#63b8ff" stroke="#63b8ff" points="808.61,-150.55 802.98,-159.53 812.98,-156.03 808.61,-150.55"/>
</a>
</g>
</g>
<!-- Node10 -->
<g id="Node000010" class="node">
<title>Node10</title>
<g id="a_Node000010"><a xlink:href="a00362.html" target="_top" xlink:title="Contains public functions and data types relevant for power control interface.">
<polygon fill="white" stroke="#666666" points="834,-124 713,-124 713,-80 834,-80 834,-124"/>
<text text-anchor="start" x="721" y="-110.5" font-family="Helvetica,sans-Serif" font-size="10.00">dab&#45;pwm&#45;configuration.X</text>
<text text-anchor="start" x="721" y="-98.5" font-family="Helvetica,sans-Serif" font-size="10.00">/sources/device/pwrctrl</text>
<text text-anchor="middle" x="773.5" y="-86.5" font-family="Helvetica,sans-Serif" font-size="10.00">/dev_pwrctrl.h</text>
</a>
</g>
</g>
<!-- Node1&#45;&gt;Node10 -->
<g id="edge10_Node000001_Node000010" class="edge">
<title>Node1&#45;&gt;Node10</title>
<g id="a_edge10_Node000001_Node000010"><a xlink:title=" ">
<path fill="none" stroke="#63b8ff" d="M773.5,-148.82C773.5,-140.54 773.5,-131.85 773.5,-124.29"/>
<polygon fill="#63b8ff" stroke="#63b8ff" points="770,-148.69 773.5,-158.69 777,-148.69 770,-148.69"/>
</a>
</g>
</g>
<!-- Node15 -->
<g id="Node000015" class="node">
<title>Node15</title>
<g id="a_Node000015"><a xlink:href="a00392.html" target="_top" xlink:title="Contains generic functions that handles power control ramp Up/Down and the averaging generic function...">
<polygon fill="white" stroke="#666666" points="1012,-124 891,-124 891,-80 1012,-80 1012,-124"/>
<text text-anchor="start" x="899" y="-110.5" font-family="Helvetica,sans-Serif" font-size="10.00">dab&#45;pwm&#45;configuration.X</text>
<text text-anchor="start" x="899" y="-98.5" font-family="Helvetica,sans-Serif" font-size="10.00">/sources/device/pwrctrl</text>
<text text-anchor="middle" x="951.5" y="-86.5" font-family="Helvetica,sans-Serif" font-size="10.00">/dev_pwrctrl_utils.c</text>
</a>
</g>
</g>
<!-- Node1&#45;&gt;Node15 -->
<g id="edge23_Node000001_Node000015" class="edge">
<title>Node1&#45;&gt;Node15</title>
<g id="a_edge23_Node000001_Node000015"><a xlink:title=" ">
<path fill="none" stroke="#63b8ff" d="M832.06,-155.34C854.9,-145.33 880.79,-133.99 902.61,-124.42"/>
<polygon fill="#63b8ff" stroke="#63b8ff" points="830.89,-152.47 823.14,-159.69 833.7,-158.88 830.89,-152.47"/>
</a>
</g>
</g>
<!-- Node2&#45;&gt;Node2 -->
<g id="edge5_Node000002_Node000002" class="edge">
<title>Node2&#45;&gt;Node2</title>
<g id="a_edge5_Node000002_Node000002"><a xlink:title=" ">
<path fill="none" stroke="#63b8ff" d="M617.53,-112.69C622.18,-110.2 625,-106.64 625,-102 625,-94.58 617.79,-89.91 607.39,-88"/>
<polygon fill="#63b8ff" stroke="#63b8ff" points="616.81,-109.57 608.39,-116 618.98,-116.22 616.81,-109.57"/>
</a>
</g>
</g>
<!-- Node3 -->
<g id="Node000003" class="node">
<title>Node3</title>
<g id="a_Node000003"><a xlink:href="a00044_source.html" target="_top" xlink:title=" ">
<polygon fill="white" stroke="#666666" points="834,-38 713,-38 713,-6 834,-6 834,-38"/>
<text text-anchor="start" x="721" y="-24.5" font-family="Helvetica,sans-Serif" font-size="10.00">dab&#45;pwm&#45;configuration.X</text>
<text text-anchor="middle" x="773.5" y="-12.5" font-family="Helvetica,sans-Serif" font-size="10.00">/main.c</text>
</a>
</g>
</g>
<!-- Node2&#45;&gt;Node3 -->
<g id="edge2_Node000002_Node000003" class="edge">
<title>Node2&#45;&gt;Node3</title>
<g id="a_edge2_Node000002_Node000003"><a xlink:title=" ">
<path fill="none" stroke="#63b8ff" d="M617.4,-76.64C653.77,-64.14 696.98,-49.29 728.71,-38.39"/>
<polygon fill="#63b8ff" stroke="#63b8ff" points="616.65,-73.54 608.33,-80.1 618.93,-80.16 616.65,-73.54"/>
</a>
</g>
</g>
<!-- Node4 -->
<g id="Node000004" class="node">
<title>Node4</title>
<g id="a_Node000004"><a xlink:href="a00047_source.html" target="_top" xlink:title=" ">
<polygon fill="white" stroke="#666666" points="399,-38 278,-38 278,-6 399,-6 399,-38"/>
<text text-anchor="start" x="286" y="-24.5" font-family="Helvetica,sans-Serif" font-size="10.00">dab&#45;pwm&#45;configuration.X</text>
<text text-anchor="middle" x="338.5" y="-12.5" font-family="Helvetica,sans-Serif" font-size="10.00">/main_tasks.c</text>
</a>
</g>
</g>
<!-- Node2&#45;&gt;Node4 -->
<g id="edge3_Node000002_Node000004" class="edge">
<title>Node2&#45;&gt;Node4</title>
<g id="a_edge3_Node000002_Node000004"><a xlink:title=" ">
<path fill="none" stroke="#63b8ff" d="M479.4,-75.84C446.56,-63.52 408.1,-49.1 379.66,-38.43"/>
<polygon fill="#63b8ff" stroke="#63b8ff" points="477.8,-79.35 488.39,-79.58 480.25,-72.79 477.8,-79.35"/>
</a>
</g>
</g>
<!-- Node5 -->
<g id="Node000005" class="node">
<title>Node5</title>
<g id="a_Node000005"><a xlink:href="a00314.html" target="_top" xlink:title="Contains fault functions including the fault handler, fault object initialization and fault execution...">
<polygon fill="white" stroke="#666666" points="538,-44 417,-44 417,0 538,0 538,-44"/>
<text text-anchor="start" x="425" y="-30.5" font-family="Helvetica,sans-Serif" font-size="10.00">dab&#45;pwm&#45;configuration.X</text>
<text text-anchor="start" x="425" y="-18.5" font-family="Helvetica,sans-Serif" font-size="10.00">/sources/device/fault</text>
<text text-anchor="middle" x="477.5" y="-6.5" font-family="Helvetica,sans-Serif" font-size="10.00">/dev_fault.c</text>
</a>
</g>
</g>
<!-- Node2&#45;&gt;Node5 -->
<g id="edge4_Node000002_Node000005" class="edge">
<title>Node2&#45;&gt;Node5</title>
<g id="a_edge4_Node000002_Node000005"><a xlink:title=" ">
<path fill="none" stroke="#63b8ff" d="M520.51,-71.62C512.47,-62.53 503.78,-52.71 496.33,-44.29"/>
<polygon fill="#63b8ff" stroke="#63b8ff" points="517.4,-73.52 526.65,-78.69 522.64,-68.88 517.4,-73.52"/>
</a>
</g>
</g>
<!-- Node6 -->
<g id="Node000006" class="node">
<title>Node6</title>
<g id="a_Node000006"><a xlink:href="a00359.html" target="_top" xlink:title="Contains power control initialization including control loop initialization and start&#45;up initializati...">
<polygon fill="white" stroke="#666666" points="121,-44 0,-44 0,0 121,0 121,-44"/>
<text text-anchor="start" x="8" y="-30.5" font-family="Helvetica,sans-Serif" font-size="10.00">dab&#45;pwm&#45;configuration.X</text>
<text text-anchor="start" x="8" y="-18.5" font-family="Helvetica,sans-Serif" font-size="10.00">/sources/device/pwrctrl</text>
<text text-anchor="middle" x="60.5" y="-6.5" font-family="Helvetica,sans-Serif" font-size="10.00">/dev_pwrctrl.c</text>
</a>
</g>
</g>
<!-- Node2&#45;&gt;Node6 -->
<g id="edge6_Node000002_Node000006" class="edge">
<title>Node2&#45;&gt;Node6</title>
<g id="a_edge6_Node000002_Node000006"><a xlink:title=" ">
<path fill="none" stroke="#63b8ff" d="M474.64,-94.7C391.05,-86.55 249.21,-70.22 129.5,-44 126.81,-43.41 124.07,-42.77 121.31,-42.08"/>
<polygon fill="#63b8ff" stroke="#63b8ff" points="474.25,-98.27 484.54,-95.74 474.92,-91.3 474.25,-98.27"/>
</a>
</g>
</g>
<!-- Node2&#45;&gt;Node7 -->
<g id="edge7_Node000002_Node000007" class="edge">
<title>Node2&#45;&gt;Node7</title>
<g id="a_edge7_Node000002_Node000007"><a xlink:title=" ">
<path fill="none" stroke="#63b8ff" d="M475.07,-88.25C418.67,-77.73 338.14,-61.7 268.5,-44 265.83,-43.32 263.11,-42.6 260.37,-41.86"/>
<polygon fill="#63b8ff" stroke="#63b8ff" points="474.19,-91.83 484.66,-90.22 475.47,-84.95 474.19,-91.83"/>
</a>
</g>
</g>
<!-- Node8 -->
<g id="Node000008" class="node">
<title>Node8</title>
<g id="a_Node000008"><a xlink:href="a00377.html" target="_top" xlink:title="Contains some of the functions used in the interrupt service routine of control loop.">
<polygon fill="white" stroke="#666666" points="694.62,-44 556.38,-44 556.38,0 694.62,0 694.62,-44"/>
<text text-anchor="start" x="564.38" y="-30.5" font-family="Helvetica,sans-Serif" font-size="10.00">dab&#45;pwm&#45;configuration.X</text>
<text text-anchor="start" x="564.38" y="-18.5" font-family="Helvetica,sans-Serif" font-size="10.00">/sources/device/pwrctrl</text>
<text text-anchor="middle" x="625.5" y="-6.5" font-family="Helvetica,sans-Serif" font-size="10.00">/dev_pwrctrl_isr_extension.c</text>
</a>
</g>
</g>
<!-- Node2&#45;&gt;Node8 -->
<g id="edge8_Node000002_Node000008" class="edge">
<title>Node2&#45;&gt;Node8</title>
<g id="a_edge8_Node000002_Node000008"><a xlink:title=" ">
<path fill="none" stroke="#63b8ff" d="M575.7,-72.17C585.05,-62.94 595.23,-52.88 603.94,-44.29"/>
<polygon fill="#63b8ff" stroke="#63b8ff" points="573.74,-69.17 569.09,-78.69 578.66,-74.15 573.74,-69.17"/>
</a>
</g>
</g>
<!-- Node2&#45;&gt;Node9 -->
<g id="edge9_Node000002_Node000009" class="edge">
<title>Node2&#45;&gt;Node9</title>
<g id="a_edge9_Node000002_Node000009"><a xlink:title=" ">
<path fill="none" stroke="#63b8ff" d="M617.82,-91.29C644.94,-87.66 676.14,-83.55 704.5,-80 840.38,-62.98 876.47,-72.05 1010.5,-44 1013.2,-43.44 1015.94,-42.81 1018.7,-42.15"/>
<polygon fill="#63b8ff" stroke="#63b8ff" points="617.69,-87.91 608.25,-92.71 618.62,-94.85 617.69,-87.91"/>
</a>
</g>
</g>
<!-- Node10&#45;&gt;Node3 -->
<g id="edge11_Node000010_Node000003" class="edge">
<title>Node10&#45;&gt;Node3</title>
<g id="a_edge11_Node000010_Node000003"><a xlink:title=" ">
<path fill="none" stroke="#63b8ff" d="M773.5,-68.96C773.5,-58.28 773.5,-46.88 773.5,-38.11"/>
<polygon fill="#63b8ff" stroke="#63b8ff" points="770,-68.69 773.5,-78.69 777,-68.69 770,-68.69"/>
</a>
</g>
</g>
<!-- Node10&#45;&gt;Node4 -->
<g id="edge12_Node000010_Node000004" class="edge">
<title>Node10&#45;&gt;Node4</title>
<g id="a_edge12_Node000010_Node000004"><a xlink:title=" ">
<path fill="none" stroke="#63b8ff" d="M702.29,-90.17C599.9,-74.57 421.73,-47.26 407.5,-44 400.54,-42.41 393.26,-40.48 386.15,-38.45"/>
<polygon fill="#63b8ff" stroke="#63b8ff" points="701.45,-93.74 711.87,-91.78 702.51,-86.82 701.45,-93.74"/>
</a>
</g>
</g>
<!-- Node10&#45;&gt;Node5 -->
<g id="edge14_Node000010_Node000005" class="edge">
<title>Node10&#45;&gt;Node5</title>
<g id="a_edge14_Node000010_Node000005"><a xlink:title=" ">
<path fill="none" stroke="#63b8ff" d="M702.43,-83.93C657.81,-73.01 599.14,-58.25 547.5,-44 544.44,-43.16 541.31,-42.28 538.16,-41.38"/>
<polygon fill="#63b8ff" stroke="#63b8ff" points="701.33,-87.51 711.88,-86.48 702.99,-80.71 701.33,-87.51"/>
</a>
</g>
</g>
<!-- Node10&#45;&gt;Node7 -->
<g id="edge17_Node000010_Node000007" class="edge">
<title>Node10&#45;&gt;Node7</title>
<g id="a_edge17_Node000010_Node000007"><a xlink:title=" ">
<path fill="none" stroke="#63b8ff" d="M701.94,-89.46C680.3,-86.17 656.46,-82.74 634.5,-80 472.3,-59.78 428.8,-75.95 268.5,-44 265.8,-43.46 263.05,-42.86 260.29,-42.21"/>
<polygon fill="#63b8ff" stroke="#63b8ff" points="701.28,-93.06 711.7,-91.12 702.35,-86.14 701.28,-93.06"/>
</a>
</g>
</g>
<!-- Node10&#45;&gt;Node8 -->
<g id="edge18_Node000010_Node000008" class="edge">
<title>Node10&#45;&gt;Node8</title>
<g id="a_edge18_Node000010_Node000008"><a xlink:title=" ">
<path fill="none" stroke="#63b8ff" d="M723.53,-74.66C704.85,-64.82 683.89,-53.77 666.15,-44.42"/>
<polygon fill="#63b8ff" stroke="#63b8ff" points="721.58,-78.12 732.06,-79.69 724.84,-71.93 721.58,-78.12"/>
</a>
</g>
</g>
<!-- Node10&#45;&gt;Node9 -->
<g id="edge19_Node000010_Node000009" class="edge">
<title>Node10&#45;&gt;Node9</title>
<g id="a_edge19_Node000010_Node000009"><a xlink:title=" ">
<path fill="none" stroke="#63b8ff" d="M845.03,-80.88C846.2,-80.58 847.35,-80.29 848.5,-80 920.04,-62.05 939.17,-62.75 1010.5,-44 1013.16,-43.3 1015.88,-42.56 1018.62,-41.81"/>
<polygon fill="#63b8ff" stroke="#63b8ff" points="844.21,-77.74 835.41,-83.65 845.97,-84.51 844.21,-77.74"/>
</a>
</g>
</g>
<!-- Node11 -->
<g id="Node000011" class="node">
<title>Node11</title>
<g id="a_Node000011"><a xlink:href="a00308_source.html" target="_top" xlink:title=" ">
<polygon fill="white" stroke="#666666" points="1460.5,-38 1324.5,-38 1324.5,-6 1460.5,-6 1460.5,-38"/>
<text text-anchor="start" x="1332.5" y="-24.5" font-family="Helvetica,sans-Serif" font-size="10.00">dab&#45;pwm&#45;configuration.X</text>
<text text-anchor="middle" x="1392.5" y="-12.5" font-family="Helvetica,sans-Serif" font-size="10.00">/sources/device/dev_temp.c</text>
</a>
</g>
</g>
<!-- Node10&#45;&gt;Node11 -->
<g id="edge13_Node000010_Node000011" class="edge">
<title>Node10&#45;&gt;Node11</title>
<g id="a_edge13_Node000010_Node000011"><a xlink:title=" ">
<path fill="none" stroke="#63b8ff" d="M845.19,-86.05C857.59,-83.79 870.39,-81.66 882.5,-80 1073.81,-53.7 1125.33,-77.55 1315.5,-44 1323.82,-42.53 1332.55,-40.57 1341.02,-38.44"/>
<polygon fill="#63b8ff" stroke="#63b8ff" points="844.6,-82.79 835.42,-88.07 845.89,-89.67 844.6,-82.79"/>
</a>
</g>
</g>
<!-- Node12 -->
<g id="Node000012" class="node">
<title>Node12</title>
<g id="a_Node000012"><a xlink:href="a00320_source.html" target="_top" xlink:title=" ">
<polygon fill="white" stroke="#666666" points="1600,-44 1479,-44 1479,0 1600,0 1600,-44"/>
<text text-anchor="start" x="1487" y="-30.5" font-family="Helvetica,sans-Serif" font-size="10.00">dab&#45;pwm&#45;configuration.X</text>
<text text-anchor="start" x="1487" y="-18.5" font-family="Helvetica,sans-Serif" font-size="10.00">/sources/device/fault</text>
<text text-anchor="middle" x="1539.5" y="-6.5" font-family="Helvetica,sans-Serif" font-size="10.00">/dev_fault_api.c</text>
</a>
</g>
</g>
<!-- Node10&#45;&gt;Node12 -->
<g id="edge15_Node000010_Node000012" class="edge">
<title>Node10&#45;&gt;Node12</title>
<g id="a_edge15_Node000010_Node000012"><a xlink:title=" ">
<path fill="none" stroke="#63b8ff" d="M845.16,-85.83C857.57,-83.6 870.37,-81.53 882.5,-80 1141.81,-47.21 1212.17,-89.86 1469.5,-44 1472.5,-43.47 1475.55,-42.85 1478.62,-42.16"/>
<polygon fill="#63b8ff" stroke="#63b8ff" points="844.58,-82.56 835.39,-87.83 845.86,-89.45 844.58,-82.56"/>
</a>
</g>
</g>
<!-- Node13 -->
<g id="Node000013" class="node">
<title>Node13</title>
<g id="a_Node000013"><a xlink:href="a00365.html" target="_top" xlink:title="Contains power control interface with communication/gui.">
<polygon fill="white" stroke="#666666" points="1001.25,-44 851.75,-44 851.75,0 1001.25,0 1001.25,-44"/>
<text text-anchor="start" x="859.75" y="-30.5" font-family="Helvetica,sans-Serif" font-size="10.00">dab&#45;pwm&#45;configuration.X</text>
<text text-anchor="start" x="859.75" y="-18.5" font-family="Helvetica,sans-Serif" font-size="10.00">/sources/device/pwrctrl</text>
<text text-anchor="middle" x="926.5" y="-6.5" font-family="Helvetica,sans-Serif" font-size="10.00">/dev_pwrctrl_comm_interface.c</text>
</a>
</g>
</g>
<!-- Node10&#45;&gt;Node13 -->
<g id="edge16_Node000010_Node000013" class="edge">
<title>Node10&#45;&gt;Node13</title>
<g id="a_edge16_Node000010_Node000013"><a xlink:title=" ">
<path fill="none" stroke="#63b8ff" d="M824.89,-74.8C844.27,-64.92 866.06,-53.81 884.48,-44.42"/>
<polygon fill="#63b8ff" stroke="#63b8ff" points="823.63,-72.03 816.31,-79.69 826.81,-78.26 823.63,-72.03"/>
</a>
</g>
</g>
<!-- Node14 -->
<g id="Node000014" class="node">
<title>Node14</title>
<g id="a_Node000014"><a xlink:href="a00413_source.html" target="_top" xlink:title=" ">
<polygon fill="white" stroke="#666666" points="1306.5,-44 1158.5,-44 1158.5,0 1306.5,0 1306.5,-44"/>
<text text-anchor="start" x="1166.5" y="-30.5" font-family="Helvetica,sans-Serif" font-size="10.00">dab&#45;pwm&#45;configuration.X</text>
<text text-anchor="start" x="1166.5" y="-18.5" font-family="Helvetica,sans-Serif" font-size="10.00">/sources/driver/mcc_extension</text>
<text text-anchor="middle" x="1232.5" y="-6.5" font-family="Helvetica,sans-Serif" font-size="10.00">/mcc_custom_config.c</text>
</a>
</g>
</g>
<!-- Node10&#45;&gt;Node14 -->
<g id="edge20_Node000010_Node000014" class="edge">
<title>Node10&#45;&gt;Node14</title>
<g id="a_edge20_Node000010_Node000014"><a xlink:title=" ">
<path fill="none" stroke="#63b8ff" d="M844.66,-86.69C857.25,-84.33 870.24,-82.01 882.5,-80 1000.67,-60.67 1031.94,-66.72 1149.5,-44 1152.42,-43.44 1155.39,-42.83 1158.38,-42.2"/>
<polygon fill="#63b8ff" stroke="#63b8ff" points="844.39,-83.37 835.21,-88.67 845.69,-90.25 844.39,-83.37"/>
</a>
</g>
</g>
</g>
</svg>

<g id="navigator" transform="translate(0 0)" fill="#404254">
  <rect fill="#f2f5e9" fill-opacity="0.5" stroke="#606060" stroke-width=".5" x="0" y="0" width="60" height="60"/>
  <use id="zoomplus" xlink:href="#zoomPlus" x="17" y="9" onmousedown="handleZoom(evt,'in')"/>
  <use id="zoomminus" xlink:href="#zoomMin" x="42" y="9" onmousedown="handleZoom(evt,'out')"/>
  <use id="reset" xlink:href="#resetDef" x="30" y="36" onmousedown="handleReset()"/>
   <use id="arrowup" xlink:href="#arrowUp" x="0" y="0" onmousedown="handlePan(0,-1)"/>
  <use id="arrowright" xlink:href="#arrowRight" x="0" y="0" onmousedown="handlePan(1,0)"/>
  <use id="arrowdown" xlink:href="#arrowDown" x="0" y="0" onmousedown="handlePan(0,1)"/>
  <use id="arrowleft" xlink:href="#arrowLeft" x="0" y="0" onmousedown="handlePan(-1,0)"/>
</g>
<svg viewBox="0 0 15 15" width="100%" height="30px" preserveAspectRatio="xMaxYMin meet">
 <g id="arrow_out" transform="scale(0.3 0.3)">
  <a xlink:href="a00397_org.svg" target="_base">
   <rect id="button" ry="5" rx="5" y="6" x="6" height="38" width="38"
        fill="#f2f5e9" fill-opacity="0.5" stroke="#606060" stroke-width="1.0"/>
   <path id="arrow"
     d="M 11.500037,31.436501 C 11.940474,20.09759 22.043105,11.32322 32.158766,21.979434 L 37.068811,17.246167 C 37.068811,17.246167 37.088388,32 37.088388,32 L 22.160133,31.978069 C 22.160133,31.978069 26.997745,27.140456 26.997745,27.140456 C 18.528582,18.264221 13.291696,25.230495 11.500037,31.436501 z"
     style="fill:#404040;"/>
  </a>
 </g>
</svg>

<style type='text/css'>
<![CDATA[
[data-mouse-over-selected='false'] { opacity: 0.7; }
[data-mouse-over-selected='true']  { opacity: 1.0; }
]]>
</style>
<script type="application/ecmascript"><![CDATA[
document.addEventListener('DOMContentLoaded', (event) => {
  highlightEdges();
  highlightAdjacentNodes();
});
]]></script>
</svg>
