<?xml version="1.0" encoding="UTF-8" standalone="no"?>
<!DOCTYPE svg PUBLIC "-//W3C//DTD SVG 1.1//EN"
 "http://www.w3.org/Graphics/SVG/1.1/DTD/svg11.dtd">
<!-- Generated by graphviz version 8.1.0 (20230707.0739)
 -->
<!-- Title: dspic33ck&#45;dab.X/sources/fault/fault_common.h Pages: 1 -->
<!--zoomable 404 -->

<svg id="main" version="1.1" xmlns="http://www.w3.org/2000/svg" xmlns:xlink="http://www.w3.org/1999/xlink" xml:space="preserve" onload="init(evt)">
<style type="text/css"><![CDATA[
.node, .edge {opacity: 0.7;}
.node.selected, .edge.selected {opacity: 1;}
.edge:hover path { stroke: red; }
.edge:hover polygon { stroke: red; fill: red; }
]]></style>

<defs>
  <circle id="rim" cx="0" cy="0" r="7"/>
  <circle id="rim2" cx="0" cy="0" r="3.5"/>
  <g id="zoomPlus">
    <use xlink:href="#rim" fill="#404040"><set attributeName="fill" to="#808080" begin="zoomplus.mouseover" end="zoomplus.mouseout"/></use>
    <path d="M-4,0h8M0,-4v8" fill="none" stroke="white" stroke-width="1.5" pointer-events="none"/>
  </g>
  <g id="zoomMin">
    <use xlink:href="#rim" fill="#404040"><set attributeName="fill" to="#808080" begin="zoomminus.mouseover" end="zoomminus.mouseout"/></use>
    <path d="M-4,0h8" fill="none" stroke="white" stroke-width="1.5" pointer-events="none"/>
  </g>
  <g id="arrowUp" transform="translate(30 24)">
    <use xlink:href="#rim"/>
    <path pointer-events="none" fill="none" stroke="white" stroke-width="1.5" d="M0,-3.0v7 M-2.5,-0.5L0,-3.0L2.5,-0.5"/>
  </g>
  <g id="arrowRight" transform="rotate(90) translate(36 -43)">
    <use xlink:href="#rim"/>
    <path pointer-events="none" fill="none" stroke="white" stroke-width="1.5" d="M0,-3.0v7 M-2.5,-0.5L0,-3.0L2.5,-0.5"/>
  </g>
  <g id="arrowDown" transform="rotate(180) translate(-30 -48)">
    <use xlink:href="#rim"/>
    <path pointer-events="none" fill="none" stroke="white" stroke-width="1.5" d="M0,-3.0v7 M-2.5,-0.5L0,-3.0L2.5,-0.5"/>
  </g>
  <g id="arrowLeft" transform="rotate(270) translate(-36 17)">
    <use xlink:href="#rim"/>
    <path pointer-events="none" fill="none" stroke="white" stroke-width="1.5" d="M0,-3.0v7 M-2.5,-0.5L0,-3.0L2.5,-0.5"/>
  </g>
  <g id="resetDef">
    <use xlink:href="#rim2" fill="#404040"><set attributeName="fill" to="#808080" begin="reset.mouseover" end="reset.mouseout"/></use>
  </g>
</defs>
<script type="application/ecmascript">
var viewWidth = 1732;
var viewHeight = 404;
var sectionId = 'dynsection-1';
</script>
<script type="application/ecmascript" xlink:href="svg.min.js"/>
<svg id="graph" class="graph">
<g id="viewport">
<title>dspic33ck&#45;dab.X/sources/fault/fault_common.h</title>
<!-- Node1 -->
<g id="Node000001" class="node">
<title>Node1</title>
<g id="a_Node000001"><a xlink:title="Contains fault generic public functions.">
<polygon fill="#999999" stroke="#666666" points="397.75,-396 273,-396 273,-364 397.75,-364 397.75,-396"/>
<text text-anchor="start" x="281" y="-382.5" font-family="Helvetica,sans-Serif" font-size="10.00">dspic33ck&#45;dab.X/sources</text>
<text text-anchor="middle" x="335.38" y="-370.5" font-family="Helvetica,sans-Serif" font-size="10.00">/fault/fault_common.h</text>
</a>
</g>
</g>
<!-- Node2 -->
<g id="Node000002" class="node">
<title>Node2</title>
<g id="a_Node000002"><a xlink:href="a00317_source.html" target="_top" xlink:title=" ">
<polygon fill="white" stroke="#666666" points="124.75,-38 0,-38 0,-6 124.75,-6 124.75,-38"/>
<text text-anchor="start" x="8" y="-24.5" font-family="Helvetica,sans-Serif" font-size="10.00">dspic33ck&#45;dab.X/sources</text>
<text text-anchor="middle" x="62.38" y="-12.5" font-family="Helvetica,sans-Serif" font-size="10.00">/device/dev_temp.c</text>
</a>
</g>
</g>
<!-- Node1&#45;&gt;Node2 -->
<g id="edge1_Node000001_Node000002" class="edge">
<title>Node1&#45;&gt;Node2</title>
<g id="a_edge1_Node000001_Node000002"><a xlink:title=" ">
<path fill="none" stroke="#63b8ff" d="M287.34,-358.91C244.79,-337.52 189.38,-299.26 189.38,-245 189.38,-245 189.38,-245 189.38,-175 189.38,-112.76 125.89,-62.55 88.69,-38.47"/>
<polygon fill="#63b8ff" stroke="#63b8ff" points="285.49,-362.38 296.02,-363.59 288.54,-356.08 285.49,-362.38"/>
</a>
</g>
</g>
<!-- Node3 -->
<g id="Node000003" class="node">
<title>Node3</title>
<g id="a_Node000003"><a xlink:href="a00350.html" target="_top" xlink:title="Contains fault functions including the fault handler, fault object initialization and fault execution...">
<polygon fill="white" stroke="#666666" points="712.75,-38 588,-38 588,-6 712.75,-6 712.75,-38"/>
<text text-anchor="start" x="596" y="-24.5" font-family="Helvetica,sans-Serif" font-size="10.00">dspic33ck&#45;dab.X/sources</text>
<text text-anchor="middle" x="650.38" y="-12.5" font-family="Helvetica,sans-Serif" font-size="10.00">/fault/fault.c</text>
</a>
</g>
</g>
<!-- Node1&#45;&gt;Node3 -->
<g id="edge2_Node000001_Node000003" class="edge">
<title>Node1&#45;&gt;Node3</title>
<g id="a_edge2_Node000001_Node000003"><a xlink:title=" ">
<path fill="none" stroke="#63b8ff" d="M335.38,-352.89C335.38,-325.88 335.38,-282.49 335.38,-245 335.38,-245 335.38,-245 335.38,-175 335.38,-131.45 327.31,-109.47 359.38,-80 432.01,-13.26 482.19,-65.85 578.38,-44 585.49,-42.38 592.93,-40.47 600.22,-38.47"/>
<polygon fill="#63b8ff" stroke="#63b8ff" points="331.88,-352.73 335.38,-362.73 338.88,-352.73 331.88,-352.73"/>
</a>
</g>
</g>
<!-- Node4 -->
<g id="Node000004" class="node">
<title>Node4</title>
<g id="a_Node000004"><a xlink:href="a00362.html" target="_top" xlink:title="Contains API functions for fault protection.">
<polygon fill="white" stroke="#666666" points="283.62,-38 143.12,-38 143.12,-6 283.62,-6 283.62,-38"/>
<text text-anchor="start" x="151.12" y="-24.5" font-family="Helvetica,sans-Serif" font-size="10.00">dspic33ck&#45;dab.X/sources</text>
<text text-anchor="middle" x="213.38" y="-12.5" font-family="Helvetica,sans-Serif" font-size="10.00">/fault/fault_comm_interface.c</text>
</a>
</g>
</g>
<!-- Node1&#45;&gt;Node4 -->
<g id="edge3_Node000001_Node000004" class="edge">
<title>Node1&#45;&gt;Node4</title>
<g id="a_edge3_Node000001_Node000004"><a xlink:title=" ">
<path fill="none" stroke="#63b8ff" d="M320.9,-354.01C307.09,-327.75 288.38,-284.83 288.38,-245 288.38,-245 288.38,-245 288.38,-175 288.38,-119.97 248.36,-64.23 226.78,-38.18"/>
<polygon fill="#63b8ff" stroke="#63b8ff" points="318.23,-355.42 326.09,-362.53 324.38,-352.08 318.23,-355.42"/>
</a>
</g>
</g>
<!-- Node5 -->
<g id="Node000005" class="node">
<title>Node5</title>
<g id="a_Node000005"><a xlink:href="a00356_source.html" target="_top" xlink:title=" ">
<polygon fill="white" stroke="#666666" points="487.75,-328 363,-328 363,-296 487.75,-296 487.75,-328"/>
<text text-anchor="start" x="371" y="-314.5" font-family="Helvetica,sans-Serif" font-size="10.00">dspic33ck&#45;dab.X/sources</text>
<text text-anchor="middle" x="425.38" y="-302.5" font-family="Helvetica,sans-Serif" font-size="10.00">/fault/fault_common.c</text>
</a>
</g>
</g>
<!-- Node1&#45;&gt;Node5 -->
<g id="edge4_Node000001_Node000005" class="edge">
<title>Node1&#45;&gt;Node5</title>
<g id="a_edge4_Node000001_Node000005"><a xlink:title=" ">
<path fill="none" stroke="#63b8ff" d="M364.8,-357.42C377.7,-347.96 392.54,-337.08 404.3,-328.45"/>
<polygon fill="#63b8ff" stroke="#63b8ff" points="363.24,-354.96 357.25,-363.69 367.38,-360.6 363.24,-354.96"/>
</a>
</g>
</g>
<!-- Node6 -->
<g id="Node000006" class="node">
<title>Node6</title>
<g id="a_Node000006"><a xlink:href="a00368.html" target="_top" xlink:title="Contains fault data types.">
<polygon fill="white" stroke="#666666" points="729.75,-328 605,-328 605,-296 729.75,-296 729.75,-328"/>
<text text-anchor="start" x="613" y="-314.5" font-family="Helvetica,sans-Serif" font-size="10.00">dspic33ck&#45;dab.X/sources</text>
<text text-anchor="middle" x="667.38" y="-302.5" font-family="Helvetica,sans-Serif" font-size="10.00">/fault/fault_typedef.h</text>
</a>
</g>
</g>
<!-- Node1&#45;&gt;Node6 -->
<g id="edge5_Node000001_Node000006" class="edge">
<title>Node1&#45;&gt;Node6</title>
<g id="a_edge5_Node000001_Node000006"><a xlink:title=" ">
<path fill="none" stroke="#63b8ff" d="M408.89,-364.39C467.55,-352.72 548.85,-336.56 604.51,-325.5"/>
<polygon fill="#63b8ff" stroke="#63b8ff" points="408.34,-361.13 399.21,-366.51 409.7,-367.99 408.34,-361.13"/>
</a>
</g>
</g>
<!-- Node7 -->
<g id="Node000007" class="node">
<title>Node7</title>
<g id="a_Node000007"><a xlink:href="a00467_source.html" target="_top" xlink:title=" ">
<polygon fill="white" stroke="#666666" points="827.75,-260 703,-260 703,-228 827.75,-228 827.75,-260"/>
<text text-anchor="start" x="711" y="-246.5" font-family="Helvetica,sans-Serif" font-size="10.00">dspic33ck&#45;dab.X/sources</text>
<text text-anchor="middle" x="765.38" y="-234.5" font-family="Helvetica,sans-Serif" font-size="10.00">/pwrctrl/pwrctrl_typedef.h</text>
</a>
</g>
</g>
<!-- Node6&#45;&gt;Node7 -->
<g id="edge6_Node000006_Node000007" class="edge">
<title>Node6&#45;&gt;Node7</title>
<g id="a_edge6_Node000006_Node000007"><a xlink:title=" ">
<path fill="none" stroke="#63b8ff" d="M699.01,-289.69C713.15,-280.17 729.5,-269.16 742.43,-260.45"/>
<polygon fill="#63b8ff" stroke="#63b8ff" points="697.44,-287.2 691.1,-295.69 701.35,-293.01 697.44,-287.2"/>
</a>
</g>
</g>
<!-- Node8 -->
<g id="Node000008" class="node">
<title>Node8</title>
<g id="a_Node000008"><a xlink:href="a00326.html" target="_top" xlink:title="Contains PWM initialization that was not supported by MCC generated code.">
<polygon fill="white" stroke="#666666" points="500.88,-124 367.88,-124 367.88,-80 500.88,-80 500.88,-124"/>
<text text-anchor="start" x="375.88" y="-110.5" font-family="Helvetica,sans-Serif" font-size="10.00">dspic33ck&#45;dab.X/sources</text>
<text text-anchor="start" x="375.88" y="-98.5" font-family="Helvetica,sans-Serif" font-size="10.00">/driver/mcc_extension</text>
<text text-anchor="middle" x="434.38" y="-86.5" font-family="Helvetica,sans-Serif" font-size="10.00">/drv_custom_config_pwm.h</text>
</a>
</g>
</g>
<!-- Node7&#45;&gt;Node8 -->
<g id="edge7_Node000007_Node000008" class="edge">
<title>Node7&#45;&gt;Node8</title>
<g id="a_edge7_Node000007_Node000008"><a xlink:title=" ">
<path fill="none" stroke="#63b8ff" d="M719.17,-223.46C657.57,-197.4 548.91,-151.45 485.1,-124.46"/>
<polygon fill="#63b8ff" stroke="#63b8ff" points="717.43,-226.95 728.01,-227.62 720.16,-220.5 717.43,-226.95"/>
</a>
</g>
</g>
<!-- Node10 -->
<g id="Node000010" class="node">
<title>Node10</title>
<g id="a_Node000010"><a xlink:href="a00353.html" target="_top" xlink:title="Contains public fault functions.">
<polygon fill="white" stroke="#666666" points="1158.75,-118 1034,-118 1034,-86 1158.75,-86 1158.75,-118"/>
<text text-anchor="start" x="1042" y="-104.5" font-family="Helvetica,sans-Serif" font-size="10.00">dspic33ck&#45;dab.X/sources</text>
<text text-anchor="middle" x="1096.38" y="-92.5" font-family="Helvetica,sans-Serif" font-size="10.00">/fault/fault.h</text>
</a>
</g>
</g>
<!-- Node7&#45;&gt;Node10 -->
<g id="edge9_Node000007_Node000010" class="edge">
<title>Node7&#45;&gt;Node10</title>
<g id="a_edge9_Node000007_Node000010"><a xlink:title=" ">
<path fill="none" stroke="#63b8ff" d="M838.38,-231.85C878.82,-223.99 929.27,-211.35 971.38,-192 1013.74,-172.54 1056.59,-138.09 1079.47,-118.25"/>
<polygon fill="#63b8ff" stroke="#63b8ff" points="837.98,-228.56 828.8,-233.85 839.27,-235.44 837.98,-228.56"/>
</a>
</g>
</g>
<!-- Node17 -->
<g id="Node000017" class="node">
<title>Node17</title>
<g id="a_Node000017"><a xlink:href="a00434_source.html" target="_top" xlink:title=" ">
<polygon fill="white" stroke="#666666" points="917.75,-118 793,-118 793,-86 917.75,-86 917.75,-118"/>
<text text-anchor="start" x="801" y="-104.5" font-family="Helvetica,sans-Serif" font-size="10.00">dspic33ck&#45;dab.X/sources</text>
<text text-anchor="middle" x="855.38" y="-92.5" font-family="Helvetica,sans-Serif" font-size="10.00">/pwrctrl/pwrctrl.h</text>
</a>
</g>
</g>
<!-- Node7&#45;&gt;Node17 -->
<g id="edge18_Node000007_Node000017" class="edge">
<title>Node7&#45;&gt;Node17</title>
<g id="a_edge18_Node000007_Node000017"><a xlink:title=" ">
<path fill="none" stroke="#63b8ff" d="M780.99,-218.72C799.57,-189.81 830.04,-142.41 845.58,-118.23"/>
<polygon fill="#63b8ff" stroke="#63b8ff" points="777.64,-216.45 775.18,-226.75 783.53,-220.23 777.64,-216.45"/>
</a>
</g>
</g>
<!-- Node20 -->
<g id="Node000020" class="node">
<title>Node20</title>
<g id="a_Node000020"><a xlink:href="a00458.html" target="_top" xlink:title="Contains DAB control phase calculation between primary and secondary, and the PWM distribution.">
<polygon fill="white" stroke="#666666" points="782.75,-192 658,-192 658,-160 782.75,-160 782.75,-192"/>
<text text-anchor="start" x="666" y="-178.5" font-family="Helvetica,sans-Serif" font-size="10.00">dspic33ck&#45;dab.X/sources</text>
<text text-anchor="middle" x="720.38" y="-166.5" font-family="Helvetica,sans-Serif" font-size="10.00">/pwrctrl/pwrctrl_pwm.c</text>
</a>
</g>
</g>
<!-- Node7&#45;&gt;Node20 -->
<g id="edge31_Node000007_Node000020" class="edge">
<title>Node7&#45;&gt;Node20</title>
<g id="a_edge31_Node000007_Node000020"><a xlink:title=" ">
<path fill="none" stroke="#63b8ff" d="M748.92,-218.87C742.85,-209.96 736.14,-200.12 730.76,-192.22"/>
<polygon fill="#63b8ff" stroke="#63b8ff" points="746.41,-220.4 754.94,-226.69 752.2,-216.46 746.41,-220.4"/>
</a>
</g>
</g>
<!-- Node21 -->
<g id="Node000021" class="node">
<title>Node21</title>
<g id="a_Node000021"><a xlink:href="a00461.html" target="_top" xlink:title="Contains public functions for PWM.">
<polygon fill="white" stroke="#666666" points="962.75,-192 838,-192 838,-160 962.75,-160 962.75,-192"/>
<text text-anchor="start" x="846" y="-178.5" font-family="Helvetica,sans-Serif" font-size="10.00">dspic33ck&#45;dab.X/sources</text>
<text text-anchor="middle" x="900.38" y="-166.5" font-family="Helvetica,sans-Serif" font-size="10.00">/pwrctrl/pwrctrl_pwm.h</text>
</a>
</g>
</g>
<!-- Node7&#45;&gt;Node21 -->
<g id="edge32_Node000007_Node000021" class="edge">
<title>Node7&#45;&gt;Node21</title>
<g id="a_edge32_Node000007_Node000021"><a xlink:title=" ">
<path fill="none" stroke="#63b8ff" d="M806.81,-222.74C826.82,-212.96 850.42,-201.42 868.92,-192.38"/>
<polygon fill="#63b8ff" stroke="#63b8ff" points="805.47,-219.99 798.03,-227.53 808.55,-226.28 805.47,-219.99"/>
</a>
</g>
</g>
<!-- Node9 -->
<g id="Node000009" class="node">
<title>Node9</title>
<g id="a_Node000009"><a xlink:href="a00338_source.html" target="_top" xlink:title=" ">
<polygon fill="white" stroke="#666666" points="426.75,-44 302,-44 302,0 426.75,0 426.75,-44"/>
<text text-anchor="start" x="310" y="-30.5" font-family="Helvetica,sans-Serif" font-size="10.00">dspic33ck&#45;dab.X/sources</text>
<text text-anchor="start" x="310" y="-18.5" font-family="Helvetica,sans-Serif" font-size="10.00">/driver/mcc_extension</text>
<text text-anchor="middle" x="364.38" y="-6.5" font-family="Helvetica,sans-Serif" font-size="10.00">/mcc_custom_config.c</text>
</a>
</g>
</g>
<!-- Node8&#45;&gt;Node9 -->
<g id="edge8_Node000008_Node000009" class="edge">
<title>Node8&#45;&gt;Node9</title>
<g id="a_edge8_Node000008_Node000009"><a xlink:title=" ">
<path fill="none" stroke="#63b8ff" d="M408,-71.62C399.85,-62.53 391.04,-52.71 383.48,-44.29"/>
<polygon fill="#63b8ff" stroke="#63b8ff" points="404.96,-73.58 414.25,-78.69 410.17,-68.91 404.96,-73.58"/>
</a>
</g>
</g>
<!-- Node10&#45;&gt;Node3 -->
<g id="edge12_Node000010_Node000003" class="edge">
<title>Node10&#45;&gt;Node3</title>
<g id="a_edge12_Node000010_Node000003"><a xlink:title=" ">
<path fill="none" stroke="#63b8ff" d="M1022.98,-91.06C930.63,-78.34 777.33,-56.47 721.38,-44 714.22,-42.41 706.74,-40.48 699.42,-38.45"/>
<polygon fill="#63b8ff" stroke="#63b8ff" points="1022.27,-94.63 1032.65,-92.53 1023.22,-87.7 1022.27,-94.63"/>
</a>
</g>
</g>
<!-- Node10&#45;&gt;Node10 -->
<g id="edge13_Node000010_Node000010" class="edge">
<title>Node10&#45;&gt;Node10</title>
<g id="a_edge13_Node000010_Node000010"><a xlink:title=" ">
<path fill="none" stroke="#63b8ff" d="M1169.26,-111.81C1173.93,-109.52 1176.75,-106.25 1176.75,-102 1176.75,-95.21 1169.53,-90.91 1159.06,-89.1"/>
<polygon fill="#63b8ff" stroke="#63b8ff" points="1168.62,-108.65 1160.06,-114.9 1170.64,-115.35 1168.62,-108.65"/>
</a>
</g>
</g>
<!-- Node11 -->
<g id="Node000011" class="node">
<title>Node11</title>
<g id="a_Node000011"><a xlink:href="a00050_source.html" target="_top" xlink:title=" ">
<polygon fill="white" stroke="#666666" points="1452.12,-32 1332.62,-32 1332.62,-12 1452.12,-12 1452.12,-32"/>
<text text-anchor="middle" x="1392.38" y="-18.5" font-family="Helvetica,sans-Serif" font-size="10.00">dspic33ck&#45;dab.X/main.c</text>
</a>
</g>
</g>
<!-- Node10&#45;&gt;Node11 -->
<g id="edge10_Node000010_Node000011" class="edge">
<title>Node10&#45;&gt;Node11</title>
<g id="a_edge10_Node000010_Node000011"><a xlink:title=" ">
<path fill="none" stroke="#63b8ff" d="M1169.68,-83.57C1214.26,-72.72 1272.27,-58.18 1323.38,-44 1336.29,-40.42 1350.46,-36.16 1362.58,-32.42"/>
<polygon fill="#63b8ff" stroke="#63b8ff" points="1169.12,-80.34 1160.22,-86.1 1170.77,-87.15 1169.12,-80.34"/>
</a>
</g>
</g>
<!-- Node12 -->
<g id="Node000012" class="node">
<title>Node12</title>
<g id="a_Node000012"><a xlink:href="a00053_source.html" target="_top" xlink:title=" ">
<polygon fill="white" stroke="#666666" points="1581,-38 1469.75,-38 1469.75,-6 1581,-6 1581,-38"/>
<text text-anchor="start" x="1477.75" y="-24.5" font-family="Helvetica,sans-Serif" font-size="10.00">dspic33ck&#45;dab.X/main</text>
<text text-anchor="middle" x="1525.38" y="-12.5" font-family="Helvetica,sans-Serif" font-size="10.00">_tasks.c</text>
</a>
</g>
</g>
<!-- Node10&#45;&gt;Node12 -->
<g id="edge11_Node000010_Node000012" class="edge">
<title>Node10&#45;&gt;Node12</title>
<g id="a_edge11_Node000010_Node000012"><a xlink:title=" ">
<path fill="none" stroke="#63b8ff" d="M1169.6,-93.11C1243.78,-84.29 1361.52,-68.01 1461.38,-44 1467.97,-42.41 1474.86,-40.47 1481.58,-38.41"/>
<polygon fill="#63b8ff" stroke="#63b8ff" points="1169.5,-89.71 1159.98,-94.35 1170.32,-96.66 1169.5,-89.71"/>
</a>
</g>
</g>
<!-- Node13 -->
<g id="Node000013" class="node">
<title>Node13</title>
<g id="a_Node000013"><a xlink:href="a00431.html" target="_top" xlink:title="Contains power control initialization including control loop initialization and start&#45;up initializati...">
<polygon fill="white" stroke="#666666" points="1723.75,-38 1599,-38 1599,-6 1723.75,-6 1723.75,-38"/>
<text text-anchor="start" x="1607" y="-24.5" font-family="Helvetica,sans-Serif" font-size="10.00">dspic33ck&#45;dab.X/sources</text>
<text text-anchor="middle" x="1661.38" y="-12.5" font-family="Helvetica,sans-Serif" font-size="10.00">/pwrctrl/pwrctrl.c</text>
</a>
</g>
</g>
<!-- Node10&#45;&gt;Node13 -->
<g id="edge14_Node000010_Node000013" class="edge">
<title>Node10&#45;&gt;Node13</title>
<g id="a_edge14_Node000010_Node000013"><a xlink:title=" ">
<path fill="none" stroke="#63b8ff" d="M1169.78,-96.51C1266.81,-89.66 1442.74,-74.11 1590.38,-44 1597.81,-42.48 1605.58,-40.55 1613.15,-38.47"/>
<polygon fill="#63b8ff" stroke="#63b8ff" points="1169.65,-93.07 1159.92,-97.26 1170.14,-100.06 1169.65,-93.07"/>
</a>
</g>
</g>
<!-- Node14 -->
<g id="Node000014" class="node">
<title>Node14</title>
<g id="a_Node000014"><a xlink:href="a00449.html" target="_top" xlink:title="Contains Control loop interrupt Callback that acquires the ADC raw data and process it in the control...">
<polygon fill="white" stroke="#666666" points="1002.75,-38 878,-38 878,-6 1002.75,-6 1002.75,-38"/>
<text text-anchor="start" x="886" y="-24.5" font-family="Helvetica,sans-Serif" font-size="10.00">dspic33ck&#45;dab.X/sources</text>
<text text-anchor="middle" x="940.38" y="-12.5" font-family="Helvetica,sans-Serif" font-size="10.00">/pwrctrl/pwrctrl_isr.c</text>
</a>
</g>
</g>
<!-- Node10&#45;&gt;Node14 -->
<g id="edge15_Node000010_Node000014" class="edge">
<title>Node10&#45;&gt;Node14</title>
<g id="a_edge15_Node000010_Node000014"><a xlink:title=" ">
<path fill="none" stroke="#63b8ff" d="M1055.82,-80.72C1029.36,-67.49 995.37,-50.5 971.13,-38.38"/>
<polygon fill="#63b8ff" stroke="#63b8ff" points="1054.04,-84.25 1064.55,-85.59 1057.18,-77.99 1054.04,-84.25"/>
</a>
</g>
</g>
<!-- Node15 -->
<g id="Node000015" class="node">
<title>Node15</title>
<g id="a_Node000015"><a xlink:href="a00455.html" target="_top" xlink:title="Contains some of the functions used in the interrupt service routine of control loop.">
<polygon fill="white" stroke="#666666" points="1171.5,-38 1021.25,-38 1021.25,-6 1171.5,-6 1171.5,-38"/>
<text text-anchor="start" x="1029.25" y="-24.5" font-family="Helvetica,sans-Serif" font-size="10.00">dspic33ck&#45;dab.X/sources</text>
<text text-anchor="middle" x="1096.38" y="-12.5" font-family="Helvetica,sans-Serif" font-size="10.00">/pwrctrl/pwrctrl_isr_extension.c</text>
</a>
</g>
</g>
<!-- Node10&#45;&gt;Node15 -->
<g id="edge16_Node000010_Node000015" class="edge">
<title>Node10&#45;&gt;Node15</title>
<g id="a_edge16_Node000010_Node000015"><a xlink:title=" ">
<path fill="none" stroke="#63b8ff" d="M1096.38,-74.74C1096.38,-62.65 1096.38,-48.73 1096.38,-38.38"/>
<polygon fill="#63b8ff" stroke="#63b8ff" points="1092.88,-74.59 1096.38,-84.59 1099.88,-74.59 1092.88,-74.59"/>
</a>
</g>
</g>
<!-- Node16 -->
<g id="Node000016" class="node">
<title>Node16</title>
<g id="a_Node000016"><a xlink:href="a00464.html" target="_top" xlink:title="Contains power control state machine functions that is executed every 100us.">
<polygon fill="white" stroke="#666666" points="1314.75,-38 1190,-38 1190,-6 1314.75,-6 1314.75,-38"/>
<text text-anchor="start" x="1198" y="-24.5" font-family="Helvetica,sans-Serif" font-size="10.00">dspic33ck&#45;dab.X/sources</text>
<text text-anchor="middle" x="1252.38" y="-12.5" font-family="Helvetica,sans-Serif" font-size="10.00">/pwrctrl/pwrctrl_sm.c</text>
</a>
</g>
</g>
<!-- Node10&#45;&gt;Node16 -->
<g id="edge17_Node000010_Node000016" class="edge">
<title>Node10&#45;&gt;Node16</title>
<g id="a_edge17_Node000010_Node000016"><a xlink:title=" ">
<path fill="none" stroke="#63b8ff" d="M1136.93,-80.72C1163.39,-67.49 1197.38,-50.5 1221.62,-38.38"/>
<polygon fill="#63b8ff" stroke="#63b8ff" points="1135.57,-77.99 1128.2,-85.59 1138.71,-84.25 1135.57,-77.99"/>
</a>
</g>
</g>
<!-- Node17&#45;&gt;Node2 -->
<g id="edge21_Node000017_Node000002" class="edge">
<title>Node17&#45;&gt;Node2</title>
<g id="a_edge21_Node000017_Node000002"><a xlink:title=" ">
<path fill="none" stroke="#63b8ff" d="M781.78,-96.04C610.86,-84.4 196.84,-55.45 134.38,-44 126.56,-42.57 118.39,-40.63 110.46,-38.5"/>
<polygon fill="#63b8ff" stroke="#63b8ff" points="781.46,-99.6 791.68,-96.78 781.94,-92.61 781.46,-99.6"/>
</a>
</g>
</g>
<!-- Node17&#45;&gt;Node3 -->
<g id="edge23_Node000017_Node000003" class="edge">
<title>Node17&#45;&gt;Node3</title>
<g id="a_edge23_Node000017_Node000003"><a xlink:title=" ">
<path fill="none" stroke="#63b8ff" d="M804.82,-81.76C769.68,-68.39 723.48,-50.82 690.79,-38.38"/>
<polygon fill="#63b8ff" stroke="#63b8ff" points="803.28,-85.3 813.87,-85.59 805.77,-78.76 803.28,-85.3"/>
</a>
</g>
</g>
<!-- Node17&#45;&gt;Node4 -->
<g id="edge24_Node000017_Node000004" class="edge">
<title>Node17&#45;&gt;Node4</title>
<g id="a_edge24_Node000017_Node000004"><a xlink:title=" ">
<path fill="none" stroke="#63b8ff" d="M781.8,-97.2C673.95,-90.8 466.91,-75.38 293.38,-44 285.04,-42.49 276.29,-40.56 267.78,-38.49"/>
<polygon fill="#63b8ff" stroke="#63b8ff" points="781.37,-100.74 791.56,-97.83 781.78,-93.75 781.37,-100.74"/>
</a>
</g>
</g>
<!-- Node17&#45;&gt;Node9 -->
<g id="edge22_Node000017_Node000009" class="edge">
<title>Node17&#45;&gt;Node9</title>
<g id="a_edge22_Node000017_Node000009"><a xlink:title=" ">
<path fill="none" stroke="#63b8ff" d="M782.04,-94.36C697.95,-85.97 556.25,-69.49 436.38,-44 433.32,-43.35 430.2,-42.64 427.06,-41.88"/>
<polygon fill="#63b8ff" stroke="#63b8ff" points="781.46,-97.92 791.76,-95.41 782.15,-90.95 781.46,-97.92"/>
</a>
</g>
</g>
<!-- Node17&#45;&gt;Node11 -->
<g id="edge19_Node000017_Node000011" class="edge">
<title>Node17&#45;&gt;Node11</title>
<g id="a_edge19_Node000017_Node000011"><a xlink:title=" ">
<path fill="none" stroke="#63b8ff" d="M928.74,-91.89C958.7,-88.19 993.7,-83.87 1025.38,-80 1157.8,-63.82 1192.84,-71.53 1323.38,-44 1337.34,-41.05 1352.55,-36.57 1365.13,-32.5"/>
<polygon fill="#63b8ff" stroke="#63b8ff" points="928.44,-88.53 918.94,-93.23 929.3,-95.48 928.44,-88.53"/>
</a>
</g>
</g>
<!-- Node17&#45;&gt;Node12 -->
<g id="edge20_Node000017_Node000012" class="edge">
<title>Node17&#45;&gt;Node12</title>
<g id="a_edge20_Node000017_Node000012"><a xlink:title=" ">
<path fill="none" stroke="#63b8ff" d="M928.67,-91.29C958.62,-87.49 993.63,-83.27 1025.38,-80 1218.79,-60.08 1270.8,-82.58 1461.38,-44 1468.48,-42.56 1475.9,-40.59 1483.06,-38.42"/>
<polygon fill="#63b8ff" stroke="#63b8ff" points="928.35,-87.93 918.88,-92.66 929.24,-94.87 928.35,-87.93"/>
</a>
</g>
</g>
<!-- Node17&#45;&gt;Node13 -->
<g id="edge25_Node000017_Node000013" class="edge">
<title>Node17&#45;&gt;Node13</title>
<g id="a_edge25_Node000017_Node000013"><a xlink:title=" ">
<path fill="none" stroke="#63b8ff" d="M928.64,-90.99C958.59,-87.14 993.6,-82.97 1025.38,-80 1275.9,-56.57 1342.62,-87.96 1590.38,-44 1598.35,-42.59 1606.7,-40.59 1614.75,-38.4"/>
<polygon fill="#63b8ff" stroke="#63b8ff" points="928.32,-87.63 918.85,-92.38 929.22,-94.57 928.32,-87.63"/>
</a>
</g>
</g>
<!-- Node17&#45;&gt;Node14 -->
<g id="edge28_Node000017_Node000014" class="edge">
<title>Node17&#45;&gt;Node14</title>
<g id="a_edge28_Node000017_Node000014"><a xlink:title=" ">
<path fill="none" stroke="#63b8ff" d="M879.99,-78.41C893.99,-65.56 911.17,-49.8 923.62,-38.38"/>
<polygon fill="#63b8ff" stroke="#63b8ff" points="878.17,-75.25 873.17,-84.59 882.9,-80.41 878.17,-75.25"/>
</a>
</g>
</g>
<!-- Node17&#45;&gt;Node15 -->
<g id="edge29_Node000017_Node000015" class="edge">
<title>Node17&#45;&gt;Node15</title>
<g id="a_edge29_Node000017_Node000015"><a xlink:title=" ">
<path fill="none" stroke="#63b8ff" d="M913.22,-82.28C954.72,-68.85 1009.94,-50.98 1048.86,-38.38"/>
<polygon fill="#63b8ff" stroke="#63b8ff" points="912.43,-79.18 903.99,-85.59 914.58,-85.84 912.43,-79.18"/>
</a>
</g>
</g>
<!-- Node17&#45;&gt;Node16 -->
<g id="edge30_Node000017_Node000016" class="edge">
<title>Node17&#45;&gt;Node16</title>
<g id="a_edge30_Node000017_Node000016"><a xlink:title=" ">
<path fill="none" stroke="#63b8ff" d="M928.82,-90.48C995,-80.45 1094.76,-63.93 1180.38,-44 1187.48,-42.35 1194.92,-40.41 1202.21,-38.4"/>
<polygon fill="#63b8ff" stroke="#63b8ff" points="928.46,-87.15 919.09,-92.1 929.5,-94.07 928.46,-87.15"/>
</a>
</g>
</g>
<!-- Node18 -->
<g id="Node000018" class="node">
<title>Node18</title>
<g id="a_Node000018"><a xlink:href="a00443.html" target="_top" xlink:title="Contains power control interface with communication/gui.">
<polygon fill="white" stroke="#666666" points="569.75,-44 445,-44 445,0 569.75,0 569.75,-44"/>
<text text-anchor="start" x="453" y="-30.5" font-family="Helvetica,sans-Serif" font-size="10.00">dspic33ck&#45;dab.X/sources</text>
<text text-anchor="start" x="453" y="-18.5" font-family="Helvetica,sans-Serif" font-size="10.00">/pwrctrl/pwrctrl_comm</text>
<text text-anchor="middle" x="507.38" y="-6.5" font-family="Helvetica,sans-Serif" font-size="10.00">_interface.c</text>
</a>
</g>
</g>
<!-- Node17&#45;&gt;Node18 -->
<g id="edge26_Node000017_Node000018" class="edge">
<title>Node17&#45;&gt;Node18</title>
<g id="a_edge26_Node000017_Node000018"><a xlink:title=" ">
<path fill="none" stroke="#63b8ff" d="M782.07,-87.52C726.24,-76.85 647.62,-60.97 579.38,-44 576.34,-43.25 573.25,-42.45 570.12,-41.62"/>
<polygon fill="#63b8ff" stroke="#63b8ff" points="781.09,-91.09 791.57,-89.52 782.4,-84.21 781.09,-91.09"/>
</a>
</g>
</g>
<!-- Node19 -->
<g id="Node000019" class="node">
<title>Node19</title>
<g id="a_Node000019"><a xlink:href="a00437.html" target="_top" xlink:title="Contains generic functions that handles power control ramp Up/Down and the averaging generic function...">
<polygon fill="white" stroke="#666666" points="860.38,-38 730.38,-38 730.38,-6 860.38,-6 860.38,-38"/>
<text text-anchor="start" x="738.38" y="-24.5" font-family="Helvetica,sans-Serif" font-size="10.00">dspic33ck&#45;dab.X/sources</text>
<text text-anchor="middle" x="795.38" y="-12.5" font-family="Helvetica,sans-Serif" font-size="10.00">/pwrctrl/pwrctrl_common.c</text>
</a>
</g>
</g>
<!-- Node17&#45;&gt;Node19 -->
<g id="edge27_Node000017_Node000019" class="edge">
<title>Node17&#45;&gt;Node19</title>
<g id="a_edge27_Node000017_Node000019"><a xlink:title=" ">
<path fill="none" stroke="#63b8ff" d="M836.88,-76.96C827.21,-64.39 815.66,-49.37 807.2,-38.38"/>
<polygon fill="#63b8ff" stroke="#63b8ff" points="834.65,-78.8 843.52,-84.59 840.2,-74.53 834.65,-78.8"/>
</a>
</g>
</g>
<!-- Node21&#45;&gt;Node10 -->
<g id="edge33_Node000021_Node000010" class="edge">
<title>Node21&#45;&gt;Node10</title>
<g id="a_edge33_Node000021_Node000010"><a xlink:title=" ">
<path fill="none" stroke="#63b8ff" d="M952.45,-155.87C984.33,-144.16 1024.57,-129.38 1054.4,-118.42"/>
<polygon fill="#63b8ff" stroke="#63b8ff" points="951.6,-152.82 943.42,-159.55 954.02,-159.39 951.6,-152.82"/>
</a>
</g>
</g>
<!-- Node21&#45;&gt;Node17 -->
<g id="edge34_Node000021_Node000017" class="edge">
<title>Node21&#45;&gt;Node17</title>
<g id="a_edge34_Node000021_Node000017"><a xlink:title=" ">
<path fill="none" stroke="#63b8ff" d="M885.04,-150.47C878.37,-139.78 870.75,-127.6 864.9,-118.25"/>
<polygon fill="#63b8ff" stroke="#63b8ff" points="882.56,-152.11 890.83,-158.73 888.5,-148.4 882.56,-152.11"/>
</a>
</g>
</g>
</g>
</svg>

<g id="navigator" transform="translate(0 0)" fill="#404254">
  <rect fill="#f2f5e9" fill-opacity="0.5" stroke="#606060" stroke-width=".5" x="0" y="0" width="60" height="60"/>
  <use id="zoomplus" xlink:href="#zoomPlus" x="17" y="9" onmousedown="handleZoom(evt,'in')"/>
  <use id="zoomminus" xlink:href="#zoomMin" x="42" y="9" onmousedown="handleZoom(evt,'out')"/>
  <use id="reset" xlink:href="#resetDef" x="30" y="36" onmousedown="handleReset()"/>
   <use id="arrowup" xlink:href="#arrowUp" x="0" y="0" onmousedown="handlePan(0,-1)"/>
  <use id="arrowright" xlink:href="#arrowRight" x="0" y="0" onmousedown="handlePan(1,0)"/>
  <use id="arrowdown" xlink:href="#arrowDown" x="0" y="0" onmousedown="handlePan(0,1)"/>
  <use id="arrowleft" xlink:href="#arrowLeft" x="0" y="0" onmousedown="handlePan(-1,0)"/>
</g>
<svg viewBox="0 0 15 15" width="100%" height="30px" preserveAspectRatio="xMaxYMin meet">
 <g id="arrow_out" transform="scale(0.3 0.3)">
  <a xlink:href="a00361_org.svg" target="_base">
   <rect id="button" ry="5" rx="5" y="6" x="6" height="38" width="38"
        fill="#f2f5e9" fill-opacity="0.5" stroke="#606060" stroke-width="1.0"/>
   <path id="arrow"
     d="M 11.500037,31.436501 C 11.940474,20.09759 22.043105,11.32322 32.158766,21.979434 L 37.068811,17.246167 C 37.068811,17.246167 37.088388,32 37.088388,32 L 22.160133,31.978069 C 22.160133,31.978069 26.997745,27.140456 26.997745,27.140456 C 18.528582,18.264221 13.291696,25.230495 11.500037,31.436501 z"
     style="fill:#404040;"/>
  </a>
 </g>
</svg>

<style type='text/css'>
<![CDATA[
[data-mouse-over-selected='false'] { opacity: 0.7; }
[data-mouse-over-selected='true']  { opacity: 1.0; }
]]>
</style>
<script type="application/ecmascript"><![CDATA[
document.addEventListener('DOMContentLoaded', (event) => {
  highlightEdges();
  highlightAdjacentNodes();
});
]]></script>
</svg>
