<?xml version="1.0" encoding="UTF-8" standalone="no"?>
<!DOCTYPE svg PUBLIC "-//W3C//DTD SVG 1.1//EN"
 "http://www.w3.org/Graphics/SVG/1.1/DTD/svg11.dtd">
<!-- Generated by graphviz version 8.1.0 (20230707.0739)
 -->
<!-- Title: dab&#45;pwm&#45;configuration.X/sources/device/pwrctrl/dev_pwrctrl_utils.c Pages: 1 -->
<svg width="428pt" height="288pt"
 viewBox="0.00 0.00 428.12 288.00" xmlns="http://www.w3.org/2000/svg" xmlns:xlink="http://www.w3.org/1999/xlink">
<g id="graph0" class="graph" transform="scale(1 1) rotate(0) translate(4 284)">
<title>dab&#45;pwm&#45;configuration.X/sources/device/pwrctrl/dev_pwrctrl_utils.c</title>
<!-- Node1 -->
<g id="Node000001" class="node">
<title>Node1</title>
<g id="a_Node000001"><a xlink:title="Contains generic functions that handles power control ramp Up/Down and the averaging generic function...">
<polygon fill="#999999" stroke="#666666" points="254.88,-280 133.88,-280 133.88,-236 254.88,-236 254.88,-280"/>
<text text-anchor="start" x="141.88" y="-266.5" font-family="Helvetica,sans-Serif" font-size="10.00">dab&#45;pwm&#45;configuration.X</text>
<text text-anchor="start" x="141.88" y="-254.5" font-family="Helvetica,sans-Serif" font-size="10.00">/sources/device/pwrctrl</text>
<text text-anchor="middle" x="194.38" y="-242.5" font-family="Helvetica,sans-Serif" font-size="10.00">/dev_pwrctrl_utils.c</text>
</a>
</g>
</g>
<!-- Node2 -->
<g id="Node000002" class="node">
<title>Node2</title>
<g id="a_Node000002"><a xlink:title=" ">
<polygon fill="#e0e0e0" stroke="#999999" points="34.75,-200 0,-200 0,-180 34.75,-180 34.75,-200"/>
<text text-anchor="middle" x="17.38" y="-186.5" font-family="Helvetica,sans-Serif" font-size="10.00">xc.h</text>
</a>
</g>
</g>
<!-- Node1&#45;&gt;Node2 -->
<g id="edge1_Node000001_Node000002" class="edge">
<title>Node1&#45;&gt;Node2</title>
<g id="a_edge1_Node000001_Node000002"><a xlink:title=" ">
<path fill="none" stroke="#63b8ff" d="M136.91,-235.57C106.13,-224.1 69.62,-210.48 45.12,-201.35"/>
<polygon fill="#63b8ff" stroke="#63b8ff" points="46.68,-197.82 36.09,-197.61 44.24,-204.38 46.68,-197.82"/>
</a>
</g>
</g>
<!-- Node3 -->
<g id="Node000003" class="node">
<title>Node3</title>
<g id="a_Node000003"><a xlink:title=" ">
<polygon fill="#e0e0e0" stroke="#999999" points="131.5,-20 83.25,-20 83.25,0 131.5,0 131.5,-20"/>
<text text-anchor="middle" x="107.38" y="-6.5" font-family="Helvetica,sans-Serif" font-size="10.00">stdint.h</text>
</a>
</g>
</g>
<!-- Node1&#45;&gt;Node3 -->
<g id="edge2_Node000001_Node000003" class="edge">
<title>Node1&#45;&gt;Node3</title>
<g id="a_edge2_Node000001_Node000003"><a xlink:title=" ">
<path fill="none" stroke="#63b8ff" d="M133.65,-240.66C113.45,-232.01 93.12,-219.09 81.38,-200 71.25,-183.55 25.79,-287.04 84.38,-56 86.71,-46.78 91.2,-37.29 95.59,-29.42"/>
<polygon fill="#63b8ff" stroke="#63b8ff" points="99,-31.54 101.13,-21.16 92.99,-27.95 99,-31.54"/>
</a>
</g>
</g>
<!-- Node4 -->
<g id="Node000004" class="node">
<title>Node4</title>
<g id="a_Node000004"><a xlink:title=" ">
<polygon fill="#e0e0e0" stroke="#999999" points="211.25,-20 155.5,-20 155.5,0 211.25,0 211.25,-20"/>
<text text-anchor="middle" x="183.38" y="-6.5" font-family="Helvetica,sans-Serif" font-size="10.00">stdbool.h</text>
</a>
</g>
</g>
<!-- Node1&#45;&gt;Node4 -->
<g id="edge3_Node000001_Node000004" class="edge">
<title>Node1&#45;&gt;Node4</title>
<g id="a_edge3_Node000001_Node000004"><a xlink:title=" ">
<path fill="none" stroke="#63b8ff" d="M241.52,-235.71C255.65,-226.82 269.48,-215 277.38,-200 281.52,-192.13 279.61,-188.6 277.38,-180 261.77,-119.85 219.6,-58.34 197.43,-28.88"/>
<polygon fill="#63b8ff" stroke="#63b8ff" points="199.61,-26.97 190.74,-21.16 194.05,-31.23 199.61,-26.97"/>
</a>
</g>
</g>
<!-- Node5 -->
<g id="Node000005" class="node">
<title>Node5</title>
<g id="a_Node000005"><a xlink:title=" ">
<polygon fill="#e0e0e0" stroke="#999999" points="268.62,-200 218.12,-200 218.12,-180 268.62,-180 268.62,-200"/>
<text text-anchor="middle" x="243.38" y="-186.5" font-family="Helvetica,sans-Serif" font-size="10.00">stddef.h</text>
</a>
</g>
</g>
<!-- Node1&#45;&gt;Node5 -->
<g id="edge4_Node000001_Node000005" class="edge">
<title>Node1&#45;&gt;Node5</title>
<g id="a_edge4_Node000001_Node000005"><a xlink:title=" ">
<path fill="none" stroke="#63b8ff" d="M210.15,-235.75C216.5,-227.2 223.76,-217.42 229.86,-209.2"/>
<polygon fill="#63b8ff" stroke="#63b8ff" points="233.23,-211.53 236.38,-201.42 227.61,-207.36 233.23,-211.53"/>
</a>
</g>
</g>
<!-- Node6 -->
<g id="Node000006" class="node">
<title>Node6</title>
<g id="a_Node000006"><a xlink:href="a00389_source.html" target="_top" xlink:title=" ">
<polygon fill="white" stroke="#666666" points="199.88,-200 90.88,-200 90.88,-180 199.88,-180 199.88,-200"/>
<text text-anchor="middle" x="145.38" y="-186.5" font-family="Helvetica,sans-Serif" font-size="10.00">dev_pwrctrl_typedef.h</text>
</a>
</g>
</g>
<!-- Node1&#45;&gt;Node6 -->
<g id="edge5_Node000001_Node000006" class="edge">
<title>Node1&#45;&gt;Node6</title>
<g id="a_edge5_Node000001_Node000006"><a xlink:title=" ">
<path fill="none" stroke="#63b8ff" d="M178.6,-235.75C172.25,-227.2 164.99,-217.42 158.89,-209.2"/>
<polygon fill="#63b8ff" stroke="#63b8ff" points="161.14,-207.36 152.37,-201.42 155.52,-211.53 161.14,-207.36"/>
</a>
</g>
</g>
<!-- Node9 -->
<g id="Node000009" class="node">
<title>Node9</title>
<g id="a_Node000009"><a xlink:href="a00395.html" target="_top" xlink:title="Contains the power control reusable functions.">
<polygon fill="white" stroke="#666666" points="420.12,-200 324.62,-200 324.62,-180 420.12,-180 420.12,-200"/>
<text text-anchor="middle" x="372.38" y="-186.5" font-family="Helvetica,sans-Serif" font-size="10.00">dev_pwrctrl_utils.h</text>
</a>
</g>
</g>
<!-- Node1&#45;&gt;Node9 -->
<g id="edge10_Node000001_Node000009" class="edge">
<title>Node1&#45;&gt;Node9</title>
<g id="a_edge10_Node000001_Node000009"><a xlink:title=" ">
<path fill="none" stroke="#63b8ff" d="M252.17,-235.57C280.11,-225.21 312.75,-213.11 336.96,-204.13"/>
<polygon fill="#63b8ff" stroke="#63b8ff" points="337.96,-207.12 346.12,-200.37 335.52,-200.56 337.96,-207.12"/>
</a>
</g>
</g>
<!-- Node7 -->
<g id="Node000007" class="node">
<title>Node7</title>
<g id="a_Node000007"><a xlink:href="a00332_source.html" target="_top" xlink:title=" ">
<polygon fill="white" stroke="#666666" points="197.62,-144 93.12,-144 93.12,-112 197.62,-112 197.62,-144"/>
<text text-anchor="start" x="101.12" y="-130.5" font-family="Helvetica,sans-Serif" font-size="10.00">device/fault/dev_fault</text>
<text text-anchor="middle" x="145.38" y="-118.5" font-family="Helvetica,sans-Serif" font-size="10.00">_typedef.h</text>
</a>
</g>
</g>
<!-- Node6&#45;&gt;Node7 -->
<g id="edge6_Node000006_Node000007" class="edge">
<title>Node6&#45;&gt;Node7</title>
<g id="a_edge6_Node000006_Node000007"><a xlink:title=" ">
<path fill="none" stroke="#63b8ff" d="M145.38,-179.62C145.38,-173.02 145.38,-163.84 145.38,-155.11"/>
<polygon fill="#63b8ff" stroke="#63b8ff" points="148.88,-155.14 145.38,-145.14 141.88,-155.14 148.88,-155.14"/>
</a>
</g>
</g>
<!-- Node8 -->
<g id="Node000008" class="node">
<title>Node8</title>
<g id="a_Node000008"><a xlink:href="a00329_source.html" target="_top" xlink:title=" ">
<polygon fill="white" stroke="#666666" points="197.62,-76 93.12,-76 93.12,-56 197.62,-56 197.62,-76"/>
<text text-anchor="middle" x="145.38" y="-62.5" font-family="Helvetica,sans-Serif" font-size="10.00">dev_fault_common.h</text>
</a>
</g>
</g>
<!-- Node7&#45;&gt;Node8 -->
<g id="edge7_Node000007_Node000008" class="edge">
<title>Node7&#45;&gt;Node8</title>
<g id="a_edge7_Node000007_Node000008"><a xlink:title=" ">
<path fill="none" stroke="#63b8ff" d="M145.38,-111.55C145.38,-104.17 145.38,-95.24 145.38,-87.32"/>
<polygon fill="#63b8ff" stroke="#63b8ff" points="148.88,-87.41 145.38,-77.41 141.88,-87.41 148.88,-87.41"/>
</a>
</g>
</g>
<!-- Node8&#45;&gt;Node3 -->
<g id="edge8_Node000008_Node000003" class="edge">
<title>Node8&#45;&gt;Node3</title>
<g id="a_edge8_Node000008_Node000003"><a xlink:title=" ">
<path fill="none" stroke="#63b8ff" d="M138.76,-55.59C133.63,-48.32 126.39,-38.02 120.15,-29.15"/>
<polygon fill="#63b8ff" stroke="#63b8ff" points="122.54,-27.46 113.92,-21.3 116.81,-31.49 122.54,-27.46"/>
</a>
</g>
</g>
<!-- Node8&#45;&gt;Node4 -->
<g id="edge9_Node000008_Node000004" class="edge">
<title>Node8&#45;&gt;Node4</title>
<g id="a_edge9_Node000008_Node000004"><a xlink:title=" ">
<path fill="none" stroke="#63b8ff" d="M151.99,-55.59C157.12,-48.32 164.36,-38.02 170.6,-29.15"/>
<polygon fill="#63b8ff" stroke="#63b8ff" points="173.94,-31.49 176.83,-21.3 168.21,-27.46 173.94,-31.49"/>
</a>
</g>
</g>
</g>
</svg>
