<?xml version="1.0" encoding="UTF-8" standalone="no"?>
<!DOCTYPE svg PUBLIC "-//W3C//DTD SVG 1.1//EN"
 "http://www.w3.org/Graphics/SVG/1.1/DTD/svg11.dtd">
<!-- Generated by graphviz version 8.1.0 (20230707.0739)
 -->
<!-- Title: dab&#45;pwm&#45;configuration.X/sources/device/pwrctrl/dcdt/dev_pwrctrl_dcdt.c Pages: 1 -->
<svg width="670pt" height="232pt"
 viewBox="0.00 0.00 669.50 232.00" xmlns="http://www.w3.org/2000/svg" xmlns:xlink="http://www.w3.org/1999/xlink">
<g id="graph0" class="graph" transform="scale(1 1) rotate(0) translate(4 228)">
<title>dab&#45;pwm&#45;configuration.X/sources/device/pwrctrl/dcdt/dev_pwrctrl_dcdt.c</title>
<!-- Node1 -->
<g id="Node000001" class="node">
<title>Node1</title>
<g id="a_Node000001"><a xlink:title="Contains individual DCDT control loop initialization functions.">
<polygon fill="#999999" stroke="#666666" points="124.88,-224 3.88,-224 3.88,-180 124.88,-180 124.88,-224"/>
<text text-anchor="start" x="11.88" y="-210.5" font-family="Helvetica,sans-Serif" font-size="10.00">dab&#45;pwm&#45;configuration.X</text>
<text text-anchor="start" x="11.88" y="-198.5" font-family="Helvetica,sans-Serif" font-size="10.00">/sources/device/pwrctrl</text>
<text text-anchor="middle" x="64.38" y="-186.5" font-family="Helvetica,sans-Serif" font-size="10.00">/dcdt/dev_pwrctrl_dcdt.c</text>
</a>
</g>
</g>
<!-- Node2 -->
<g id="Node000002" class="node">
<title>Node2</title>
<g id="a_Node000002"><a xlink:title=" ">
<polygon fill="#e0e0e0" stroke="#999999" points="34.75,-20 0,-20 0,0 34.75,0 34.75,-20"/>
<text text-anchor="middle" x="17.38" y="-6.5" font-family="Helvetica,sans-Serif" font-size="10.00">xc.h</text>
</a>
</g>
</g>
<!-- Node1&#45;&gt;Node2 -->
<g id="edge1_Node000001_Node000002" class="edge">
<title>Node1&#45;&gt;Node2</title>
<g id="a_edge1_Node000001_Node000002"><a xlink:title=" ">
<path fill="none" stroke="#63b8ff" d="M52.53,-179.72C40.94,-157.59 24.07,-121.55 17.38,-88 13.54,-68.78 14.1,-46.32 15.27,-30.63"/>
<polygon fill="#63b8ff" stroke="#63b8ff" points="18.81,-31.4 16.23,-21.12 11.84,-30.76 18.81,-31.4"/>
</a>
</g>
</g>
<!-- Node3 -->
<g id="Node000003" class="node">
<title>Node3</title>
<g id="a_Node000003"><a xlink:href="a00341.html" target="_top" xlink:title="Contains public functions and data types relevant for DCDT file interface.">
<polygon fill="white" stroke="#666666" points="232.5,-144 136.25,-144 136.25,-124 232.5,-124 232.5,-144"/>
<text text-anchor="middle" x="184.38" y="-130.5" font-family="Helvetica,sans-Serif" font-size="10.00">dev_pwrctrl_dcdt.h</text>
</a>
</g>
</g>
<!-- Node1&#45;&gt;Node3 -->
<g id="edge2_Node000001_Node000003" class="edge">
<title>Node1&#45;&gt;Node3</title>
<g id="a_edge2_Node000001_Node000003"><a xlink:title=" ">
<path fill="none" stroke="#63b8ff" d="M103.34,-179.57C121.24,-169.72 142.02,-158.3 158.05,-149.48"/>
<polygon fill="#63b8ff" stroke="#63b8ff" points="159.27,-152.25 166.35,-144.37 155.9,-146.12 159.27,-152.25"/>
</a>
</g>
</g>
<!-- Node3&#45;&gt;Node2 -->
<g id="edge4_Node000003_Node000002" class="edge">
<title>Node3&#45;&gt;Node2</title>
<g id="a_edge4_Node000003_Node000002"><a xlink:title=" ">
<path fill="none" stroke="#63b8ff" d="M135.99,-130.37C103.48,-126.03 62.06,-115.09 36.38,-88 21.97,-72.81 17.98,-48.51 17.1,-31.27"/>
<polygon fill="#63b8ff" stroke="#63b8ff" points="20.59,-31.37 16.91,-21.44 13.59,-31.5 20.59,-31.37"/>
</a>
</g>
</g>
<!-- Node4 -->
<g id="Node000004" class="node">
<title>Node4</title>
<g id="a_Node000004"><a xlink:title=" ">
<polygon fill="#e0e0e0" stroke="#999999" points="91,-82 45.75,-82 45.75,-62 91,-62 91,-82"/>
<text text-anchor="middle" x="68.38" y="-68.5" font-family="Helvetica,sans-Serif" font-size="10.00">stdio.h</text>
</a>
</g>
</g>
<!-- Node3&#45;&gt;Node4 -->
<g id="edge3_Node000003_Node000004" class="edge">
<title>Node3&#45;&gt;Node4</title>
<g id="a_edge3_Node000003_Node000004"><a xlink:title=" ">
<path fill="none" stroke="#63b8ff" d="M166.25,-123.62C147.44,-113.89 117.78,-98.55 96.03,-87.31"/>
<polygon fill="#63b8ff" stroke="#63b8ff" points="97.86,-83.79 87.37,-82.31 94.65,-90.01 97.86,-83.79"/>
</a>
</g>
</g>
<!-- Node5 -->
<g id="Node000005" class="node">
<title>Node5</title>
<g id="a_Node000005"><a xlink:title=" ">
<polygon fill="#e0e0e0" stroke="#999999" points="208.5,-20 160.25,-20 160.25,0 208.5,0 208.5,-20"/>
<text text-anchor="middle" x="184.38" y="-6.5" font-family="Helvetica,sans-Serif" font-size="10.00">stdint.h</text>
</a>
</g>
</g>
<!-- Node3&#45;&gt;Node5 -->
<g id="edge5_Node000003_Node000005" class="edge">
<title>Node3&#45;&gt;Node5</title>
<g id="a_edge5_Node000003_Node000005"><a xlink:title=" ">
<path fill="none" stroke="#63b8ff" d="M188.79,-123.6C192.72,-114.67 198.18,-100.75 200.38,-88 202.79,-73.98 202.79,-70.02 200.38,-56 198.88,-47.34 195.88,-38.13 192.88,-30.32"/>
<polygon fill="#63b8ff" stroke="#63b8ff" points="195.83,-29.31 188.79,-21.4 189.36,-31.98 195.83,-29.31"/>
</a>
</g>
</g>
<!-- Node6 -->
<g id="Node000006" class="node">
<title>Node6</title>
<g id="a_Node000006"><a xlink:href="a00353.html" target="_top" xlink:title="Contains the DCDT generated functions and data types.">
<polygon fill="white" stroke="#666666" points="191.75,-82 109,-82 109,-62 191.75,-62 191.75,-82"/>
<text text-anchor="middle" x="150.38" y="-68.5" font-family="Helvetica,sans-Serif" font-size="10.00">smps_control.h</text>
</a>
</g>
</g>
<!-- Node3&#45;&gt;Node6 -->
<g id="edge6_Node000003_Node000006" class="edge">
<title>Node3&#45;&gt;Node6</title>
<g id="a_edge6_Node000003_Node000006"><a xlink:title=" ">
<path fill="none" stroke="#63b8ff" d="M179.06,-123.62C174.19,-115.03 166.85,-102.07 160.81,-91.41"/>
<polygon fill="#63b8ff" stroke="#63b8ff" points="163.51,-90.09 155.54,-83.11 157.42,-93.54 163.51,-90.09"/>
</a>
</g>
</g>
<!-- Node7 -->
<g id="Node000007" class="node">
<title>Node7</title>
<g id="a_Node000007"><a xlink:href="a00026_source.html" target="_top" xlink:title=" ">
<polygon fill="white" stroke="#666666" points="371.75,-88 247,-88 247,-56 371.75,-56 371.75,-88"/>
<text text-anchor="start" x="255" y="-74.5" font-family="Helvetica,sans-Serif" font-size="10.00">dab_psio/dcdt_generated</text>
<text text-anchor="middle" x="309.38" y="-62.5" font-family="Helvetica,sans-Serif" font-size="10.00">_code/dab_psio_dcdt.h</text>
</a>
</g>
</g>
<!-- Node3&#45;&gt;Node7 -->
<g id="edge9_Node000003_Node000007" class="edge">
<title>Node3&#45;&gt;Node7</title>
<g id="a_edge9_Node000003_Node000007"><a xlink:title=" ">
<path fill="none" stroke="#63b8ff" d="M203.91,-123.62C220.86,-115.49 245.99,-103.43 267.46,-93.12"/>
<polygon fill="#63b8ff" stroke="#63b8ff" points="268.85,-95.86 276.35,-88.37 265.82,-89.55 268.85,-95.86"/>
</a>
</g>
</g>
<!-- Node8 -->
<g id="Node000008" class="node">
<title>Node8</title>
<g id="a_Node000008"><a xlink:href="a00035_source.html" target="_top" xlink:title=" ">
<polygon fill="white" stroke="#666666" points="517.25,-88 389.5,-88 389.5,-56 517.25,-56 517.25,-88"/>
<text text-anchor="start" x="397.5" y="-74.5" font-family="Helvetica,sans-Serif" font-size="10.00">dab_pspo/dcdt_generated</text>
<text text-anchor="middle" x="453.38" y="-62.5" font-family="Helvetica,sans-Serif" font-size="10.00">_code/dab_pspo_dcdt.h</text>
</a>
</g>
</g>
<!-- Node3&#45;&gt;Node8 -->
<g id="edge10_Node000003_Node000008" class="edge">
<title>Node3&#45;&gt;Node8</title>
<g id="a_edge10_Node000003_Node000008"><a xlink:title=" ">
<path fill="none" stroke="#63b8ff" d="M226.7,-123.56C267.3,-114.5 329.48,-100.64 378.45,-89.71"/>
<polygon fill="#63b8ff" stroke="#63b8ff" points="379,-92.95 388,-87.36 377.48,-86.12 379,-92.95"/>
</a>
</g>
</g>
<!-- Node9 -->
<g id="Node000009" class="node">
<title>Node9</title>
<g id="a_Node000009"><a xlink:href="a00038_source.html" target="_top" xlink:title=" ">
<polygon fill="white" stroke="#666666" points="661.5,-88 535.25,-88 535.25,-56 661.5,-56 661.5,-88"/>
<text text-anchor="start" x="543.25" y="-74.5" font-family="Helvetica,sans-Serif" font-size="10.00">dab_spvo/dcdt_generated</text>
<text text-anchor="middle" x="598.38" y="-62.5" font-family="Helvetica,sans-Serif" font-size="10.00">_code/dab_spvo_dcdt.h</text>
</a>
</g>
</g>
<!-- Node3&#45;&gt;Node9 -->
<g id="edge11_Node000003_Node000009" class="edge">
<title>Node3&#45;&gt;Node9</title>
<g id="a_edge11_Node000003_Node000009"><a xlink:title=" ">
<path fill="none" stroke="#63b8ff" d="M232.97,-127.76C297.35,-120.57 414.69,-106.57 524.24,-88.29"/>
<polygon fill="#63b8ff" stroke="#63b8ff" points="524.54,-91.62 533.82,-86.51 523.38,-84.72 524.54,-91.62"/>
</a>
</g>
</g>
<!-- Node6&#45;&gt;Node2 -->
<g id="edge7_Node000006_Node000002" class="edge">
<title>Node6&#45;&gt;Node2</title>
<g id="a_edge7_Node000006_Node000002"><a xlink:title=" ">
<path fill="none" stroke="#63b8ff" d="M129.59,-61.62C106.84,-51.36 70.23,-34.85 45.05,-23.49"/>
<polygon fill="#63b8ff" stroke="#63b8ff" points="46.59,-19.89 36.04,-18.97 43.71,-26.27 46.59,-19.89"/>
</a>
</g>
</g>
<!-- Node6&#45;&gt;Node5 -->
<g id="edge8_Node000006_Node000005" class="edge">
<title>Node6&#45;&gt;Node5</title>
<g id="a_edge8_Node000006_Node000005"><a xlink:title=" ">
<path fill="none" stroke="#63b8ff" d="M155.69,-61.62C160.56,-53.03 167.9,-40.07 173.94,-29.41"/>
<polygon fill="#63b8ff" stroke="#63b8ff" points="177.33,-31.54 179.21,-21.11 171.24,-28.09 177.33,-31.54"/>
</a>
</g>
</g>
</g>
</svg>
