<?xml version="1.0" encoding="UTF-8" standalone="no"?>
<!DOCTYPE svg PUBLIC "-//W3C//DTD SVG 1.1//EN"
 "http://www.w3.org/Graphics/SVG/1.1/DTD/svg11.dtd">
<!-- Generated by graphviz version 8.1.0 (20230707.0739)
 -->
<!-- Title: dspic33ck&#45;dab.X/sources/device/dev_led.c Pages: 1 -->
<svg width="184pt" height="152pt"
 viewBox="0.00 0.00 183.62 152.00" xmlns="http://www.w3.org/2000/svg" xmlns:xlink="http://www.w3.org/1999/xlink">

<svg id="main" version="1.1" xmlns="http://www.w3.org/2000/svg" xmlns:xlink="http://www.w3.org/1999/xlink" xml:space="preserve" onload="init(evt)">
<style type="text/css"><![CDATA[
.node, .edge {opacity: 0.7;}
.node.selected, .edge.selected {opacity: 1;}
.edge:hover path { stroke: red; }
.edge:hover polygon { stroke: red; fill: red; }
]]></style>
<script type="application/ecmascript" xlink:href="svg.min.js"/>
<svg id="graph" class="graph">
<g id="graph0" class="graph" transform="scale(1 1) rotate(0) translate(4 148)">
<title>dspic33ck&#45;dab.X/sources/device/dev_led.c</title>
<!-- Node1 -->
<g id="Node000001" class="node">
<title>Node1</title>
<g id="a_Node000001"><a xlink:title="Contains LED initialization and execution functions.">
<polygon fill="#999999" stroke="#666666" points="124.75,-144 0,-144 0,-112 124.75,-112 124.75,-144"/>
<text text-anchor="start" x="8" y="-130.5" font-family="Helvetica,sans-Serif" font-size="10.00">dspic33ck&#45;dab.X/sources</text>
<text text-anchor="middle" x="62.38" y="-118.5" font-family="Helvetica,sans-Serif" font-size="10.00">/device/dev_led.c</text>
</a>
</g>
</g>
<!-- Node2 -->
<g id="Node000002" class="node">
<title>Node2</title>
<g id="a_Node000002"><a xlink:title=" ">
<polygon fill="#e0e0e0" stroke="#999999" points="79.75,-20 45,-20 45,0 79.75,0 79.75,-20"/>
<text text-anchor="middle" x="62.38" y="-6.5" font-family="Helvetica,sans-Serif" font-size="10.00">xc.h</text>
</a>
</g>
</g>
<!-- Node1&#45;&gt;Node2 -->
<g id="edge1_Node000001_Node000002" class="edge">
<title>Node1&#45;&gt;Node2</title>
<g id="a_edge1_Node000001_Node000002"><a xlink:title=" ">
<path fill="none" stroke="#63b8ff" d="M42.18,-111.92C31.74,-102.82 20.02,-90.24 14.38,-76 11.1,-67.74 10.84,-64.16 14.38,-56 19.4,-44.4 29.05,-34.43 38.38,-26.83"/>
<polygon fill="#63b8ff" stroke="#63b8ff" points="40.18,-29.11 46.08,-20.31 35.98,-23.51 40.18,-29.11"/>
</a>
</g>
</g>
<!-- Node3 -->
<g id="Node000003" class="node">
<title>Node3</title>
<g id="a_Node000003"><a xlink:href="a00344.html" target="_top" xlink:title="led device driver">
<polygon fill="white" stroke="#666666" points="175.62,-76 119.12,-76 119.12,-56 175.62,-56 175.62,-76"/>
<text text-anchor="middle" x="147.38" y="-62.5" font-family="Helvetica,sans-Serif" font-size="10.00">dev_led.h</text>
</a>
</g>
</g>
<!-- Node1&#45;&gt;Node3 -->
<g id="edge2_Node000001_Node000003" class="edge">
<title>Node1&#45;&gt;Node3</title>
<g id="a_edge2_Node000001_Node000003"><a xlink:title=" ">
<path fill="none" stroke="#63b8ff" d="M84.26,-111.55C96.81,-102.69 112.51,-91.61 125.12,-82.71"/>
<polygon fill="#63b8ff" stroke="#63b8ff" points="126.9,-85.03 133.05,-76.41 122.86,-79.32 126.9,-85.03"/>
</a>
</g>
</g>
<!-- Node5 -->
<g id="Node000005" class="node">
<title>Node5</title>
<g id="a_Node000005"><a xlink:href="a00197_source.html" target="_top" xlink:title=" ">
<polygon fill="white" stroke="#666666" points="101.12,-76 23.62,-76 23.62,-56 101.12,-56 101.12,-76"/>
<text text-anchor="middle" x="62.38" y="-62.5" font-family="Helvetica,sans-Serif" font-size="10.00">system/pins.h</text>
</a>
</g>
</g>
<!-- Node1&#45;&gt;Node5 -->
<g id="edge5_Node000001_Node000005" class="edge">
<title>Node1&#45;&gt;Node5</title>
<g id="a_edge5_Node000001_Node000005"><a xlink:title=" ">
<path fill="none" stroke="#63b8ff" d="M62.38,-111.55C62.38,-104.17 62.38,-95.24 62.38,-87.32"/>
<polygon fill="#63b8ff" stroke="#63b8ff" points="65.88,-87.41 62.38,-77.41 58.88,-87.41 65.88,-87.41"/>
</a>
</g>
</g>
<!-- Node3&#45;&gt;Node2 -->
<g id="edge3_Node000003_Node000002" class="edge">
<title>Node3&#45;&gt;Node2</title>
<g id="a_edge3_Node000003_Node000002"><a xlink:title=" ">
<path fill="none" stroke="#63b8ff" d="M132.57,-55.59C119.85,-47.51 101.27,-35.71 86.42,-26.27"/>
<polygon fill="#63b8ff" stroke="#63b8ff" points="88.61,-22.89 78.3,-20.48 84.86,-28.8 88.61,-22.89"/>
</a>
</g>
</g>
<!-- Node4 -->
<g id="Node000004" class="node">
<title>Node4</title>
<g id="a_Node000004"><a xlink:title=" ">
<polygon fill="#e0e0e0" stroke="#999999" points="171.5,-20 123.25,-20 123.25,0 171.5,0 171.5,-20"/>
<text text-anchor="middle" x="147.38" y="-6.5" font-family="Helvetica,sans-Serif" font-size="10.00">stdint.h</text>
</a>
</g>
</g>
<!-- Node3&#45;&gt;Node4 -->
<g id="edge4_Node000003_Node000004" class="edge">
<title>Node3&#45;&gt;Node4</title>
<g id="a_edge4_Node000003_Node000004"><a xlink:title=" ">
<path fill="none" stroke="#63b8ff" d="M147.38,-55.59C147.38,-48.86 147.38,-39.53 147.38,-31.15"/>
<polygon fill="#63b8ff" stroke="#63b8ff" points="150.88,-31.3 147.38,-21.3 143.88,-31.3 150.88,-31.3"/>
</a>
</g>
</g>
<!-- Node5&#45;&gt;Node2 -->
<g id="edge6_Node000005_Node000002" class="edge">
<title>Node5&#45;&gt;Node2</title>
<g id="a_edge6_Node000005_Node000002"><a xlink:title=" ">
<path fill="none" stroke="#63b8ff" d="M62.38,-55.59C62.38,-48.86 62.38,-39.53 62.38,-31.15"/>
<polygon fill="#63b8ff" stroke="#63b8ff" points="65.88,-31.3 62.38,-21.3 58.88,-31.3 65.88,-31.3"/>
</a>
</g>
</g>
</g>
</svg>
</svg>

<style type='text/css'>
<![CDATA[
[data-mouse-over-selected='false'] { opacity: 0.7; }
[data-mouse-over-selected='true']  { opacity: 1.0; }
]]>
</style>
<script type="application/ecmascript"><![CDATA[
document.addEventListener('DOMContentLoaded', (event) => {
  highlightEdges();
  highlightAdjacentNodes();
});
]]></script>
</svg>
