<?xml version="1.0" encoding="UTF-8" standalone="no"?>
<!DOCTYPE svg PUBLIC "-//W3C//DTD SVG 1.1//EN"
 "http://www.w3.org/Graphics/SVG/1.1/DTD/svg11.dtd">
<!-- Generated by graphviz version 8.1.0 (20230707.0739)
 -->
<!-- Title: dspic33ck&#45;dab.X/sources/fault/fault_common.h Pages: 1 -->
<svg width="133pt" height="96pt"
 viewBox="0.00 0.00 133.25 96.00" xmlns="http://www.w3.org/2000/svg" xmlns:xlink="http://www.w3.org/1999/xlink">
<g id="graph0" class="graph" transform="scale(1 1) rotate(0) translate(4 92)">
<title>dspic33ck&#45;dab.X/sources/fault/fault_common.h</title>
<!-- Node1 -->
<g id="Node000001" class="node">
<title>Node1</title>
<g id="a_Node000001"><a xlink:title="Contains fault generic public functions.">
<polygon fill="#999999" stroke="#666666" points="124.75,-88 0,-88 0,-56 124.75,-56 124.75,-88"/>
<text text-anchor="start" x="8" y="-74.5" font-family="Helvetica,sans-Serif" font-size="10.00">dspic33ck&#45;dab.X/sources</text>
<text text-anchor="middle" x="62.38" y="-62.5" font-family="Helvetica,sans-Serif" font-size="10.00">/fault/fault_common.h</text>
</a>
</g>
</g>
<!-- Node2 -->
<g id="Node000002" class="node">
<title>Node2</title>
<g id="a_Node000002"><a xlink:title=" ">
<polygon fill="#e0e0e0" stroke="#999999" points="51.5,-20 3.25,-20 3.25,0 51.5,0 51.5,-20"/>
<text text-anchor="middle" x="27.38" y="-6.5" font-family="Helvetica,sans-Serif" font-size="10.00">stdint.h</text>
</a>
</g>
</g>
<!-- Node1&#45;&gt;Node2 -->
<g id="edge1_Node000001_Node000002" class="edge">
<title>Node1&#45;&gt;Node2</title>
<g id="a_edge1_Node000001_Node000002"><a xlink:title=" ">
<path fill="none" stroke="#63b8ff" d="M53.36,-55.55C48.75,-47.65 43.11,-37.97 38.26,-29.66"/>
<polygon fill="#63b8ff" stroke="#63b8ff" points="40.92,-28.28 32.86,-21.41 34.88,-31.81 40.92,-28.28"/>
</a>
</g>
</g>
<!-- Node3 -->
<g id="Node000003" class="node">
<title>Node3</title>
<g id="a_Node000003"><a xlink:title=" ">
<polygon fill="#e0e0e0" stroke="#999999" points="125.25,-20 69.5,-20 69.5,0 125.25,0 125.25,-20"/>
<text text-anchor="middle" x="97.38" y="-6.5" font-family="Helvetica,sans-Serif" font-size="10.00">stdbool.h</text>
</a>
</g>
</g>
<!-- Node1&#45;&gt;Node3 -->
<g id="edge2_Node000001_Node000003" class="edge">
<title>Node1&#45;&gt;Node3</title>
<g id="a_edge2_Node000001_Node000003"><a xlink:title=" ">
<path fill="none" stroke="#63b8ff" d="M71.39,-55.55C76,-47.65 81.64,-37.97 86.49,-29.66"/>
<polygon fill="#63b8ff" stroke="#63b8ff" points="89.87,-31.81 91.89,-21.41 83.83,-28.28 89.87,-31.81"/>
</a>
</g>
</g>
</g>
</svg>
