<?xml version="1.0" encoding="UTF-8" standalone="no"?>
<!DOCTYPE svg PUBLIC "-//W3C//DTD SVG 1.1//EN"
 "http://www.w3.org/Graphics/SVG/1.1/DTD/svg11.dtd">
<!-- Generated by graphviz version 8.1.0 (20230707.0739)
 -->
<!-- Title: dab&#45;pwm&#45;configuration.X/sources/device/pwrctrl/dev_pwrctrl_isr.c Pages: 1 -->
<svg width="1766pt" height="412pt"
 viewBox="0.00 0.00 1765.99 412.00" xmlns="http://www.w3.org/2000/svg" xmlns:xlink="http://www.w3.org/1999/xlink">
<g id="graph0" class="graph" transform="scale(1 1) rotate(0) translate(4 408)">
<title>dab&#45;pwm&#45;configuration.X/sources/device/pwrctrl/dev_pwrctrl_isr.c</title>
<!-- Node1 -->
<g id="Node000001" class="node">
<title>Node1</title>
<g id="a_Node000001"><a xlink:title="Contains Control loop interrupt Callback that acquires the ADC raw data and process it in the control...">
<polygon fill="#999999" stroke="#666666" points="1186.5,-404 1065.5,-404 1065.5,-360 1186.5,-360 1186.5,-404"/>
<text text-anchor="start" x="1073.5" y="-390.5" font-family="Helvetica,sans-Serif" font-size="10.00">dab&#45;pwm&#45;configuration.X</text>
<text text-anchor="start" x="1073.5" y="-378.5" font-family="Helvetica,sans-Serif" font-size="10.00">/sources/device/pwrctrl</text>
<text text-anchor="middle" x="1126" y="-366.5" font-family="Helvetica,sans-Serif" font-size="10.00">/dev_pwrctrl_isr.c</text>
</a>
</g>
</g>
<!-- Node2 -->
<g id="Node000002" class="node">
<title>Node2</title>
<g id="a_Node000002"><a xlink:title=" ">
<polygon fill="#e0e0e0" stroke="#999999" points="885.38,-88 850.62,-88 850.62,-68 885.38,-68 885.38,-88"/>
<text text-anchor="middle" x="868" y="-74.5" font-family="Helvetica,sans-Serif" font-size="10.00">xc.h</text>
</a>
</g>
</g>
<!-- Node1&#45;&gt;Node2 -->
<g id="edge1_Node000001_Node000002" class="edge">
<title>Node1&#45;&gt;Node2</title>
<g id="a_edge1_Node000001_Node000002"><a xlink:title=" ">
<path fill="none" stroke="#63b8ff" d="M1065.03,-381.64C978.38,-378.99 830,-359.74 830,-259 830,-259 830,-259 830,-201 830,-163.27 846.77,-121.83 858.03,-98.26"/>
<polygon fill="#63b8ff" stroke="#63b8ff" points="861.57,-100 862.88,-89.49 855.3,-96.89 861.57,-100"/>
</a>
</g>
</g>
<!-- Node3 -->
<g id="Node000003" class="node">
<title>Node3</title>
<g id="a_Node000003"><a xlink:title=" ">
<polygon fill="#e0e0e0" stroke="#999999" points="1526,-150 1480,-150 1480,-130 1526,-130 1526,-150"/>
<text text-anchor="middle" x="1503" y="-136.5" font-family="Helvetica,sans-Serif" font-size="10.00">math.h</text>
</a>
</g>
</g>
<!-- Node1&#45;&gt;Node3 -->
<g id="edge2_Node000001_Node000003" class="edge">
<title>Node1&#45;&gt;Node3</title>
<g id="a_edge2_Node000001_Node000003"><a xlink:title=" ">
<path fill="none" stroke="#63b8ff" d="M1186.92,-380.23C1279.54,-377.67 1449.23,-367.06 1489,-324 1530.75,-278.8 1517.48,-197.67 1508.44,-160.53"/>
<polygon fill="#63b8ff" stroke="#63b8ff" points="1511.64,-159.91 1505.73,-151.12 1504.86,-161.68 1511.64,-159.91"/>
</a>
</g>
</g>
<!-- Node4 -->
<g id="Node000004" class="node">
<title>Node4</title>
<g id="a_Node000004"><a xlink:title=" ">
<polygon fill="#e0e0e0" stroke="#999999" points="1274.88,-26 1219.12,-26 1219.12,-6 1274.88,-6 1274.88,-26"/>
<text text-anchor="middle" x="1247" y="-12.5" font-family="Helvetica,sans-Serif" font-size="10.00">stdbool.h</text>
</a>
</g>
</g>
<!-- Node1&#45;&gt;Node4 -->
<g id="edge3_Node000001_Node000004" class="edge">
<title>Node1&#45;&gt;Node4</title>
<g id="a_edge3_Node000001_Node000004"><a xlink:title=" ">
<path fill="none" stroke="#63b8ff" d="M1186.88,-379.3C1282.16,-375.45 1460.64,-363.09 1509,-324 1529.67,-307.29 1524.68,-294.04 1530,-268 1542.83,-205.26 1574.53,-174.38 1535,-124 1493.48,-71.08 1451.11,-111.27 1388,-88 1345.63,-72.37 1299.39,-47.45 1271.82,-31.67"/>
<polygon fill="#63b8ff" stroke="#63b8ff" points="1273.95,-28.28 1263.54,-26.31 1270.45,-34.34 1273.95,-28.28"/>
</a>
</g>
</g>
<!-- Node5 -->
<g id="Node000005" class="node">
<title>Node5</title>
<g id="a_Node000005"><a xlink:title=" ">
<polygon fill="#e0e0e0" stroke="#999999" points="1735.75,-324 1688.25,-324 1688.25,-304 1735.75,-304 1735.75,-324"/>
<text text-anchor="middle" x="1712" y="-310.5" font-family="Helvetica,sans-Serif" font-size="10.00">stdlib.h</text>
</a>
</g>
</g>
<!-- Node1&#45;&gt;Node5 -->
<g id="edge4_Node000001_Node000005" class="edge">
<title>Node1&#45;&gt;Node5</title>
<g id="a_edge4_Node000001_Node000005"><a xlink:title=" ">
<path fill="none" stroke="#63b8ff" d="M1186.76,-377.25C1288.23,-370.41 1498.36,-353.81 1674,-324 1675.14,-323.81 1676.29,-323.6 1677.45,-323.38"/>
<polygon fill="#63b8ff" stroke="#63b8ff" points="1677.9,-326.66 1686.97,-321.18 1676.47,-319.8 1677.9,-326.66"/>
</a>
</g>
</g>
<!-- Node6 -->
<g id="Node000006" class="node">
<title>Node6</title>
<g id="a_Node000006"><a xlink:href="a00362.html" target="_top" xlink:title="Contains public functions and data types relevant for power control interface.">
<polygon fill="white" stroke="#666666" points="1226.12,-324 1153.88,-324 1153.88,-304 1226.12,-304 1226.12,-324"/>
<text text-anchor="middle" x="1190" y="-310.5" font-family="Helvetica,sans-Serif" font-size="10.00">dev_pwrctrl.h</text>
</a>
</g>
</g>
<!-- Node1&#45;&gt;Node6 -->
<g id="edge5_Node000001_Node000006" class="edge">
<title>Node1&#45;&gt;Node6</title>
<g id="a_edge5_Node000001_Node000006"><a xlink:title=" ">
<path fill="none" stroke="#63b8ff" d="M1146.6,-359.75C1155.26,-350.82 1165.2,-340.57 1173.39,-332.13"/>
<polygon fill="#63b8ff" stroke="#63b8ff" points="1175.42,-335.03 1179.87,-325.42 1170.39,-330.16 1175.42,-335.03"/>
</a>
</g>
</g>
<!-- Node11 -->
<g id="Node000011" class="node">
<title>Node11</title>
<g id="a_Node000011"><a xlink:href="a00395.html" target="_top" xlink:title="Contains the power control reusable functions.">
<polygon fill="white" stroke="#666666" points="1287.75,-268 1192.25,-268 1192.25,-248 1287.75,-248 1287.75,-268"/>
<text text-anchor="middle" x="1240" y="-254.5" font-family="Helvetica,sans-Serif" font-size="10.00">dev_pwrctrl_utils.h</text>
</a>
</g>
</g>
<!-- Node1&#45;&gt;Node11 -->
<g id="edge78_Node000001_Node000011" class="edge">
<title>Node1&#45;&gt;Node11</title>
<g id="a_edge78_Node000001_Node000011"><a xlink:title=" ">
<path fill="none" stroke="#63b8ff" d="M1186.72,-362.36C1205.19,-353.67 1223.6,-341.29 1235,-324 1243.67,-310.84 1244.39,-292.77 1243.24,-279.03"/>
<polygon fill="#63b8ff" stroke="#63b8ff" points="1246.61,-278.78 1241.9,-269.29 1239.67,-279.64 1246.61,-278.78"/>
</a>
</g>
</g>
<!-- Node12 -->
<g id="Node000012" class="node">
<title>Node12</title>
<g id="a_Node000012"><a xlink:href="a00206.html" target="_top" xlink:title="This is the generated driver header file for the SCCP1&#45;TIMER driver.">
<polygon fill="white" stroke="#666666" points="1114.62,-150 1039.38,-150 1039.38,-130 1114.62,-130 1114.62,-150"/>
<text text-anchor="middle" x="1077" y="-136.5" font-family="Helvetica,sans-Serif" font-size="10.00">timer/sccp1.h</text>
</a>
</g>
</g>
<!-- Node1&#45;&gt;Node12 -->
<g id="edge12_Node000001_Node000012" class="edge">
<title>Node1&#45;&gt;Node12</title>
<g id="a_edge12_Node000001_Node000012"><a xlink:title=" ">
<path fill="none" stroke="#63b8ff" d="M1113.48,-359.51C1096.07,-328.27 1065.42,-267.93 1054,-212 1050.32,-193.99 1057.78,-174.14 1065.17,-160.02"/>
<polygon fill="#63b8ff" stroke="#63b8ff" points="1068.7,-161.89 1070.61,-151.46 1062.62,-158.42 1068.7,-161.89"/>
</a>
</g>
</g>
<!-- Node16 -->
<g id="Node000016" class="node">
<title>Node16</title>
<g id="a_Node000016"><a xlink:href="a00056.html" target="_top" xlink:title="This is the generated driver types header file for the ADC driver.">
<polygon fill="white" stroke="#666666" points="592,-26 504,-26 504,-6 592,-6 592,-26"/>
<text text-anchor="middle" x="548" y="-12.5" font-family="Helvetica,sans-Serif" font-size="10.00">adc/adc_types.h</text>
</a>
</g>
</g>
<!-- Node1&#45;&gt;Node16 -->
<g id="edge21_Node000001_Node000016" class="edge">
<title>Node1&#45;&gt;Node16</title>
<g id="a_edge21_Node000001_Node000016"><a xlink:title=" ">
<path fill="none" stroke="#63b8ff" d="M1065.06,-380.85C830.63,-379.5 0,-367.09 0,-259 0,-259 0,-259 0,-139 0,-38.76 353.74,-20.84 492.8,-17.67"/>
<polygon fill="#63b8ff" stroke="#63b8ff" points="492.69,-21.15 502.62,-17.44 492.55,-14.15 492.69,-21.15"/>
</a>
</g>
</g>
<!-- Node17 -->
<g id="Node000017" class="node">
<title>Node17</title>
<g id="a_Node000017"><a xlink:href="a00047.html" target="_top" xlink:title="This is the generated driver header file for the ADC1 driver.">
<polygon fill="white" stroke="#666666" points="626,-150 562,-150 562,-130 626,-130 626,-150"/>
<text text-anchor="middle" x="594" y="-136.5" font-family="Helvetica,sans-Serif" font-size="10.00">adc/adc1.h</text>
</a>
</g>
</g>
<!-- Node1&#45;&gt;Node17 -->
<g id="edge22_Node000001_Node000017" class="edge">
<title>Node1&#45;&gt;Node17</title>
<g id="a_edge22_Node000001_Node000017"><a xlink:title=" ">
<path fill="none" stroke="#63b8ff" d="M1065.01,-378.8C1000.43,-374.45 896.87,-361.64 816,-324 725.87,-282.05 641.69,-194.7 608.69,-157.92"/>
<polygon fill="#63b8ff" stroke="#63b8ff" points="612.02,-156.26 602.77,-151.09 606.77,-160.9 612.02,-156.26"/>
</a>
</g>
</g>
<!-- Node19 -->
<g id="Node000019" class="node">
<title>Node19</title>
<g id="a_Node000019"><a xlink:href="a00272_source.html" target="_top" xlink:title=" ">
<polygon fill="white" stroke="#666666" points="1147.5,-212 1062.5,-212 1062.5,-192 1147.5,-192 1147.5,-212"/>
<text text-anchor="middle" x="1105" y="-198.5" font-family="Helvetica,sans-Serif" font-size="10.00">config/macros.h</text>
</a>
</g>
</g>
<!-- Node1&#45;&gt;Node19 -->
<g id="edge32_Node000001_Node000019" class="edge">
<title>Node1&#45;&gt;Node19</title>
<g id="a_edge32_Node000001_Node000019"><a xlink:title=" ">
<path fill="none" stroke="#63b8ff" d="M1119.74,-359.53C1116.9,-348.93 1113.79,-335.89 1112,-324 1106.72,-288.92 1105.36,-247.56 1105.05,-223.41"/>
<polygon fill="#63b8ff" stroke="#63b8ff" points="1108.54,-223.45 1104.96,-213.47 1101.54,-223.5 1108.54,-223.45"/>
</a>
</g>
</g>
<!-- Node21 -->
<g id="Node000021" class="node">
<title>Node21</title>
<g id="a_Node000021"><a xlink:href="a00266_source.html" target="_top" xlink:title=" ">
<polygon fill="white" stroke="#666666" points="1301.88,-150 1252.12,-150 1252.12,-130 1301.88,-130 1301.88,-150"/>
<text text-anchor="middle" x="1277" y="-136.5" font-family="Helvetica,sans-Serif" font-size="10.00">config.h</text>
</a>
</g>
</g>
<!-- Node1&#45;&gt;Node21 -->
<g id="edge46_Node000001_Node000021" class="edge">
<title>Node1&#45;&gt;Node21</title>
<g id="a_edge46_Node000001_Node000021"><a xlink:title=" ">
<path fill="none" stroke="#63b8ff" d="M1130.01,-359.74C1133.26,-344.08 1138.38,-322.4 1145,-304 1154.36,-278 1156.11,-270.61 1172,-248 1197.23,-212.1 1234.78,-177.07 1257.47,-157.34"/>
<polygon fill="#63b8ff" stroke="#63b8ff" points="1259.34,-159.49 1264.66,-150.33 1254.79,-154.17 1259.34,-159.49"/>
</a>
</g>
</g>
<!-- Node23 -->
<g id="Node000023" class="node">
<title>Node23</title>
<g id="a_Node000023"><a xlink:href="a00383.html" target="_top" xlink:title="Contains public functions for PWM.">
<polygon fill="white" stroke="#666666" points="1403.88,-268 1306.12,-268 1306.12,-248 1403.88,-248 1403.88,-268"/>
<text text-anchor="middle" x="1355" y="-254.5" font-family="Helvetica,sans-Serif" font-size="10.00">dev_pwrctrl_pwm.h</text>
</a>
</g>
</g>
<!-- Node1&#45;&gt;Node23 -->
<g id="edge47_Node000001_Node000023" class="edge">
<title>Node1&#45;&gt;Node23</title>
<g id="a_edge47_Node000001_Node000023"><a xlink:title=" ">
<path fill="none" stroke="#63b8ff" d="M1177.66,-359.55C1200.76,-349.47 1228.11,-336.86 1252,-324 1280.61,-308.6 1311.98,-288.27 1332.5,-274.47"/>
<polygon fill="#63b8ff" stroke="#63b8ff" points="1334.06,-276.96 1340.37,-268.46 1330.13,-271.17 1334.06,-276.96"/>
</a>
</g>
</g>
<!-- Node24 -->
<g id="Node000024" class="node">
<title>Node24</title>
<g id="a_Node000024"><a xlink:href="a00314_source.html" target="_top" xlink:title=" ">
<polygon fill="white" stroke="#666666" points="1462.38,-324 1349.62,-324 1349.62,-304 1462.38,-304 1462.38,-324"/>
<text text-anchor="middle" x="1406" y="-310.5" font-family="Helvetica,sans-Serif" font-size="10.00">device/fault/dev_fault.h</text>
</a>
</g>
</g>
<!-- Node1&#45;&gt;Node24 -->
<g id="edge49_Node000001_Node000024" class="edge">
<title>Node1&#45;&gt;Node24</title>
<g id="a_edge49_Node000001_Node000024"><a xlink:title=" ">
<path fill="none" stroke="#63b8ff" d="M1186.76,-366.68C1237.19,-354.79 1308.09,-338.08 1355.46,-326.91"/>
<polygon fill="#63b8ff" stroke="#63b8ff" points="1356.15,-330.11 1365.08,-324.41 1354.55,-323.3 1356.15,-330.11"/>
</a>
</g>
</g>
<!-- Node28 -->
<g id="Node000028" class="node">
<title>Node28</title>
<g id="a_Node000028"><a xlink:href="a00341.html" target="_top" xlink:title="Contains public functions and data types relevant for DCDT file interface.">
<polygon fill="white" stroke="#666666" points="528,-212 410,-212 410,-192 528,-192 528,-212"/>
<text text-anchor="middle" x="469" y="-198.5" font-family="Helvetica,sans-Serif" font-size="10.00">dcdt/dev_pwrctrl_dcdt.h</text>
</a>
</g>
</g>
<!-- Node1&#45;&gt;Node28 -->
<g id="edge66_Node000001_Node000028" class="edge">
<title>Node1&#45;&gt;Node28</title>
<g id="a_edge66_Node000001_Node000028"><a xlink:title=" ">
<path fill="none" stroke="#63b8ff" d="M1065.03,-380.76C977.38,-378.75 811.72,-368.69 679,-324 603.96,-298.73 525.77,-245.23 489.6,-218.66"/>
<polygon fill="#63b8ff" stroke="#63b8ff" points="492.06,-215.38 481.95,-212.22 487.88,-220.99 492.06,-215.38"/>
</a>
</g>
</g>
<!-- Node34 -->
<g id="Node000034" class="node">
<title>Node34</title>
<g id="a_Node000034"><a xlink:href="a00158_source.html" target="_top" xlink:title=" ">
<polygon fill="white" stroke="#666666" points="965.75,-268 888.25,-268 888.25,-248 965.75,-248 965.75,-268"/>
<text text-anchor="middle" x="927" y="-254.5" font-family="Helvetica,sans-Serif" font-size="10.00">system/pins.h</text>
</a>
</g>
</g>
<!-- Node1&#45;&gt;Node34 -->
<g id="edge76_Node000001_Node000034" class="edge">
<title>Node1&#45;&gt;Node34</title>
<g id="a_edge76_Node000001_Node000034"><a xlink:title=" ">
<path fill="none" stroke="#63b8ff" d="M1083.32,-359.5C1063.73,-349.26 1040.38,-336.54 1020,-324 994.57,-308.35 966.65,-288.44 948.1,-274.81"/>
<polygon fill="#63b8ff" stroke="#63b8ff" points="950.44,-271.45 940.32,-268.31 946.28,-277.07 950.44,-271.45"/>
</a>
</g>
</g>
<!-- Node7 -->
<g id="Node000007" class="node">
<title>Node7</title>
<g id="a_Node000007"><a xlink:href="a00389_source.html" target="_top" xlink:title=" ">
<polygon fill="white" stroke="#666666" points="1415.5,-212 1306.5,-212 1306.5,-192 1415.5,-192 1415.5,-212"/>
<text text-anchor="middle" x="1361" y="-198.5" font-family="Helvetica,sans-Serif" font-size="10.00">dev_pwrctrl_typedef.h</text>
</a>
</g>
</g>
<!-- Node6&#45;&gt;Node7 -->
<g id="edge6_Node000006_Node000007" class="edge">
<title>Node6&#45;&gt;Node7</title>
<g id="a_edge6_Node000006_Node000007"><a xlink:title=" ">
<path fill="none" stroke="#63b8ff" d="M1185.4,-303.93C1179.2,-290.28 1170.31,-264.3 1183,-248 1196.98,-230.05 1250.7,-218.13 1295.5,-211.09"/>
<polygon fill="#63b8ff" stroke="#63b8ff" points="1296.01,-214.4 1305.38,-209.45 1294.97,-207.48 1296.01,-214.4"/>
</a>
</g>
</g>
<!-- Node6&#45;&gt;Node11 -->
<g id="edge11_Node000006_Node000011" class="edge">
<title>Node6&#45;&gt;Node11</title>
<g id="a_edge11_Node000006_Node000011"><a xlink:title=" ">
<path fill="none" stroke="#63b8ff" d="M1198.71,-303.59C1205.66,-296.08 1215.6,-285.35 1223.98,-276.3"/>
<polygon fill="#63b8ff" stroke="#63b8ff" points="1226.16,-279.01 1230.39,-269.3 1221.03,-274.26 1226.16,-279.01"/>
</a>
</g>
</g>
<!-- Node8 -->
<g id="Node000008" class="node">
<title>Node8</title>
<g id="a_Node000008"><a xlink:href="a00329_source.html" target="_top" xlink:title=" ">
<polygon fill="white" stroke="#666666" points="1424.25,-156 1319.75,-156 1319.75,-124 1424.25,-124 1424.25,-156"/>
<text text-anchor="start" x="1327.75" y="-142.5" font-family="Helvetica,sans-Serif" font-size="10.00">device/fault/dev_fault</text>
<text text-anchor="middle" x="1372" y="-130.5" font-family="Helvetica,sans-Serif" font-size="10.00">_typedef.h</text>
</a>
</g>
</g>
<!-- Node7&#45;&gt;Node8 -->
<g id="edge7_Node000007_Node000008" class="edge">
<title>Node7&#45;&gt;Node8</title>
<g id="a_edge7_Node000007_Node000008"><a xlink:title=" ">
<path fill="none" stroke="#63b8ff" d="M1362.72,-191.62C1363.94,-184.95 1365.65,-175.64 1367.27,-166.82"/>
<polygon fill="#63b8ff" stroke="#63b8ff" points="1370.86,-167.61 1369.22,-157.14 1363.98,-166.35 1370.86,-167.61"/>
</a>
</g>
</g>
<!-- Node9 -->
<g id="Node000009" class="node">
<title>Node9</title>
<g id="a_Node000009"><a xlink:href="a00326_source.html" target="_top" xlink:title=" ">
<polygon fill="white" stroke="#666666" points="1089.25,-88 984.75,-88 984.75,-68 1089.25,-68 1089.25,-88"/>
<text text-anchor="middle" x="1037" y="-74.5" font-family="Helvetica,sans-Serif" font-size="10.00">dev_fault_common.h</text>
</a>
</g>
</g>
<!-- Node8&#45;&gt;Node9 -->
<g id="edge8_Node000008_Node000009" class="edge">
<title>Node8&#45;&gt;Node9</title>
<g id="a_edge8_Node000008_Node000009"><a xlink:title=" ">
<path fill="none" stroke="#63b8ff" d="M1319.49,-125.81C1316.62,-125.18 1313.78,-124.57 1311,-124 1271.77,-115.97 1168.09,-99.41 1100.11,-88.78"/>
<polygon fill="#63b8ff" stroke="#63b8ff" points="1100.94,-85.21 1090.52,-87.12 1099.86,-92.12 1100.94,-85.21"/>
</a>
</g>
</g>
<!-- Node9&#45;&gt;Node4 -->
<g id="edge10_Node000009_Node000004" class="edge">
<title>Node9&#45;&gt;Node4</title>
<g id="a_edge10_Node000009_Node000004"><a xlink:title=" ">
<path fill="none" stroke="#63b8ff" d="M1069.81,-67.62C1107.32,-56.91 1168.66,-39.38 1208.43,-28.02"/>
<polygon fill="#63b8ff" stroke="#63b8ff" points="1209.13,-31.17 1217.79,-25.06 1207.21,-24.44 1209.13,-31.17"/>
</a>
</g>
</g>
<!-- Node10 -->
<g id="Node000010" class="node">
<title>Node10</title>
<g id="a_Node000010"><a xlink:title=" ">
<polygon fill="#e0e0e0" stroke="#999999" points="824.12,-26 775.88,-26 775.88,-6 824.12,-6 824.12,-26"/>
<text text-anchor="middle" x="800" y="-12.5" font-family="Helvetica,sans-Serif" font-size="10.00">stdint.h</text>
</a>
</g>
</g>
<!-- Node9&#45;&gt;Node10 -->
<g id="edge9_Node000009_Node000010" class="edge">
<title>Node9&#45;&gt;Node10</title>
<g id="a_edge9_Node000009_Node000010"><a xlink:title=" ">
<path fill="none" stroke="#63b8ff" d="M999.71,-67.56C954.52,-56.12 878.99,-37 834.9,-25.84"/>
<polygon fill="#63b8ff" stroke="#63b8ff" points="835.96,-22.24 825.41,-23.18 834.25,-29.03 835.96,-22.24"/>
</a>
</g>
</g>
<!-- Node12&#45;&gt;Node2 -->
<g id="edge15_Node000012_Node000002" class="edge">
<title>Node12&#45;&gt;Node2</title>
<g id="a_edge15_Node000012_Node000002"><a xlink:title=" ">
<path fill="none" stroke="#63b8ff" d="M1048.85,-129.59C1042.97,-127.69 1036.79,-125.74 1031,-124 973.17,-106.64 958.17,-104.17 900,-88 898.69,-87.63 897.34,-87.26 895.99,-86.88"/>
<polygon fill="#63b8ff" stroke="#63b8ff" points="897.17,-83.3 886.6,-83.97 895.28,-90.04 897.17,-83.3"/>
</a>
</g>
</g>
<!-- Node12&#45;&gt;Node10 -->
<g id="edge14_Node000012_Node000010" class="edge">
<title>Node12&#45;&gt;Node10</title>
<g id="a_edge14_Node000012_Node000010"><a xlink:title=" ">
<path fill="none" stroke="#63b8ff" d="M1049.04,-129.51C1021.3,-119.86 977.73,-104.08 941,-88 900.3,-70.18 854.61,-46.46 826.57,-31.46"/>
<polygon fill="#63b8ff" stroke="#63b8ff" points="828.54,-28.01 818.08,-26.35 825.23,-34.17 828.54,-28.01"/>
</a>
</g>
</g>
<!-- Node13 -->
<g id="Node000013" class="node">
<title>Node13</title>
<g id="a_Node000013"><a xlink:title=" ">
<polygon fill="#e0e0e0" stroke="#999999" points="1545.25,-26 1494.75,-26 1494.75,-6 1545.25,-6 1545.25,-26"/>
<text text-anchor="middle" x="1520" y="-12.5" font-family="Helvetica,sans-Serif" font-size="10.00">stddef.h</text>
</a>
</g>
</g>
<!-- Node12&#45;&gt;Node13 -->
<g id="edge13_Node000012_Node000013" class="edge">
<title>Node12&#45;&gt;Node13</title>
<g id="a_edge13_Node000012_Node000013"><a xlink:title=" ">
<path fill="none" stroke="#63b8ff" d="M1105.15,-129.57C1111.03,-127.67 1117.2,-125.73 1123,-124 1255.16,-84.67 1413.91,-43.77 1483.88,-26.07"/>
<polygon fill="#63b8ff" stroke="#63b8ff" points="1484.49,-29.27 1493.33,-23.43 1482.77,-22.48 1484.49,-29.27"/>
</a>
</g>
</g>
<!-- Node14 -->
<g id="Node000014" class="node">
<title>Node14</title>
<g id="a_Node000014"><a xlink:href="a00215_source.html" target="_top" xlink:title=" ">
<polygon fill="white" stroke="#666666" points="1195,-88 1107,-88 1107,-68 1195,-68 1195,-88"/>
<text text-anchor="middle" x="1151" y="-74.5" font-family="Helvetica,sans-Serif" font-size="10.00">timer_interface.h</text>
</a>
</g>
</g>
<!-- Node12&#45;&gt;Node14 -->
<g id="edge16_Node000012_Node000014" class="edge">
<title>Node12&#45;&gt;Node14</title>
<g id="a_edge16_Node000012_Node000014"><a xlink:title=" ">
<path fill="none" stroke="#63b8ff" d="M1088.56,-129.62C1100.03,-120.32 1117.83,-105.9 1131.49,-94.82"/>
<polygon fill="#63b8ff" stroke="#63b8ff" points="1133.2,-97.13 1138.76,-88.11 1128.79,-91.69 1133.2,-97.13"/>
</a>
</g>
</g>
<!-- Node14&#45;&gt;Node4 -->
<g id="edge19_Node000014_Node000004" class="edge">
<title>Node14&#45;&gt;Node4</title>
<g id="a_edge19_Node000014_Node000004"><a xlink:title=" ">
<path fill="none" stroke="#63b8ff" d="M1166,-67.62C1181.22,-58.11 1205.01,-43.24 1222.88,-32.08"/>
<polygon fill="#63b8ff" stroke="#63b8ff" points="1224.48,-34.58 1231.11,-26.31 1220.77,-28.64 1224.48,-34.58"/>
</a>
</g>
</g>
<!-- Node14&#45;&gt;Node10 -->
<g id="edge18_Node000014_Node000010" class="edge">
<title>Node14&#45;&gt;Node10</title>
<g id="a_edge18_Node000014_Node000010"><a xlink:title=" ">
<path fill="none" stroke="#63b8ff" d="M1106.55,-69.4C1035.89,-57.32 899.41,-33.99 835.12,-23"/>
<polygon fill="#63b8ff" stroke="#63b8ff" points="835.79,-19.4 825.35,-21.16 834.61,-26.3 835.79,-19.4"/>
</a>
</g>
</g>
<!-- Node14&#45;&gt;Node13 -->
<g id="edge17_Node000014_Node000013" class="edge">
<title>Node14&#45;&gt;Node13</title>
<g id="a_edge17_Node000014_Node000013"><a xlink:title=" ">
<path fill="none" stroke="#63b8ff" d="M1195.14,-69.82C1268.9,-57.83 1415.77,-33.95 1483.83,-22.88"/>
<polygon fill="#63b8ff" stroke="#63b8ff" points="1484.13,-26.22 1493.44,-21.16 1483.01,-19.31 1484.13,-26.22"/>
</a>
</g>
</g>
<!-- Node15 -->
<g id="Node000015" class="node">
<title>Node15</title>
<g id="a_Node000015"><a xlink:href="a00155_source.html" target="_top" xlink:title=" ">
<polygon fill="white" stroke="#666666" points="1076.75,-32 981.25,-32 981.25,0 1076.75,0 1076.75,-32"/>
<text text-anchor="start" x="989.25" y="-18.5" font-family="Helvetica,sans-Serif" font-size="10.00">../system/interrupt</text>
<text text-anchor="middle" x="1029" y="-6.5" font-family="Helvetica,sans-Serif" font-size="10.00">_types.h</text>
</a>
</g>
</g>
<!-- Node14&#45;&gt;Node15 -->
<g id="edge20_Node000014_Node000015" class="edge">
<title>Node14&#45;&gt;Node15</title>
<g id="a_edge20_Node000014_Node000015"><a xlink:title=" ">
<path fill="none" stroke="#63b8ff" d="M1131.94,-67.62C1115.39,-59.49 1090.87,-47.43 1069.9,-37.12"/>
<polygon fill="#63b8ff" stroke="#63b8ff" points="1071.78,-33.65 1061.26,-32.37 1068.69,-39.93 1071.78,-33.65"/>
</a>
</g>
</g>
<!-- Node17&#45;&gt;Node2 -->
<g id="edge23_Node000017_Node000002" class="edge">
<title>Node17&#45;&gt;Node2</title>
<g id="a_edge23_Node000017_Node000002"><a xlink:title=" ">
<path fill="none" stroke="#63b8ff" d="M617.64,-129.62C623.27,-127.59 629.3,-125.58 635,-124 707.52,-103.87 795.18,-89.56 839.45,-83.01"/>
<polygon fill="#63b8ff" stroke="#63b8ff" points="839.85,-86.34 849.24,-81.44 838.84,-79.41 839.85,-86.34"/>
</a>
</g>
</g>
<!-- Node17&#45;&gt;Node4 -->
<g id="edge24_Node000017_Node000004" class="edge">
<title>Node17&#45;&gt;Node4</title>
<g id="a_edge24_Node000017_Node000004"><a xlink:title=" ">
<path fill="none" stroke="#63b8ff" d="M618.6,-129.61C623.97,-127.67 629.65,-125.7 635,-124 725.84,-95.16 748.49,-86.44 842,-68 974.99,-41.77 1135.33,-26.27 1207.92,-20.1"/>
<polygon fill="#63b8ff" stroke="#63b8ff" points="1208.12,-23.51 1217.8,-19.19 1207.54,-16.54 1208.12,-23.51"/>
</a>
</g>
</g>
<!-- Node17&#45;&gt;Node10 -->
<g id="edge25_Node000017_Node000010" class="edge">
<title>Node17&#45;&gt;Node10</title>
<g id="a_edge25_Node000017_Node000010"><a xlink:title=" ">
<path fill="none" stroke="#63b8ff" d="M592.53,-129.84C590.69,-114.9 589.45,-85.22 605,-68 626.2,-44.52 714.74,-28.76 764.91,-21.54"/>
<polygon fill="#63b8ff" stroke="#63b8ff" points="765.17,-24.89 774.59,-20.04 764.21,-17.96 765.17,-24.89"/>
</a>
</g>
</g>
<!-- Node17&#45;&gt;Node16 -->
<g id="edge26_Node000017_Node000016" class="edge">
<title>Node17&#45;&gt;Node16</title>
<g id="a_edge26_Node000017_Node000016"><a xlink:title=" ">
<path fill="none" stroke="#63b8ff" d="M589.71,-129.69C585.1,-119.54 577.67,-102.76 572,-88 565.38,-70.75 558.71,-50.78 554.1,-36.43"/>
<polygon fill="#63b8ff" stroke="#63b8ff" points="557.23,-35.75 550.87,-27.28 550.56,-37.87 557.23,-35.75"/>
</a>
</g>
</g>
<!-- Node18 -->
<g id="Node000018" class="node">
<title>Node18</title>
<g id="a_Node000018"><a xlink:href="a00053_source.html" target="_top" xlink:title=" ">
<polygon fill="white" stroke="#666666" points="696,-88 614,-88 614,-68 696,-68 696,-88"/>
<text text-anchor="middle" x="655" y="-74.5" font-family="Helvetica,sans-Serif" font-size="10.00">adc_interface.h</text>
</a>
</g>
</g>
<!-- Node17&#45;&gt;Node18 -->
<g id="edge27_Node000017_Node000018" class="edge">
<title>Node17&#45;&gt;Node18</title>
<g id="a_edge27_Node000017_Node000018"><a xlink:title=" ">
<path fill="none" stroke="#63b8ff" d="M603.53,-129.62C612.72,-120.59 626.82,-106.72 637.94,-95.78"/>
<polygon fill="#63b8ff" stroke="#63b8ff" points="640.06,-98.62 644.74,-89.11 635.15,-93.63 640.06,-98.62"/>
</a>
</g>
</g>
<!-- Node18&#45;&gt;Node4 -->
<g id="edge29_Node000018_Node000004" class="edge">
<title>Node18&#45;&gt;Node4</title>
<g id="a_edge29_Node000018_Node000004"><a xlink:title=" ">
<path fill="none" stroke="#63b8ff" d="M696.4,-69.92C700.98,-69.23 705.59,-68.57 710,-68 734.69,-64.81 1088.86,-31.73 1208.13,-20.62"/>
<polygon fill="#63b8ff" stroke="#63b8ff" points="1208.29,-24.03 1217.92,-19.61 1207.64,-17.06 1208.29,-24.03"/>
</a>
</g>
</g>
<!-- Node18&#45;&gt;Node10 -->
<g id="edge28_Node000018_Node000010" class="edge">
<title>Node18&#45;&gt;Node10</title>
<g id="a_edge28_Node000018_Node000010"><a xlink:title=" ">
<path fill="none" stroke="#63b8ff" d="M677.66,-67.62C701.81,-57.63 740.27,-41.71 767.62,-30.4"/>
<polygon fill="#63b8ff" stroke="#63b8ff" points="768.6,-33.37 776.5,-26.31 765.92,-26.9 768.6,-33.37"/>
</a>
</g>
</g>
<!-- Node18&#45;&gt;Node15 -->
<g id="edge31_Node000018_Node000015" class="edge">
<title>Node18&#45;&gt;Node15</title>
<g id="a_edge31_Node000018_Node000015"><a xlink:title=" ">
<path fill="none" stroke="#63b8ff" d="M696.44,-70.2C701.02,-69.46 705.61,-68.71 710,-68 800.81,-53.31 906.2,-36.51 970.21,-26.33"/>
<polygon fill="#63b8ff" stroke="#63b8ff" points="970.57,-29.66 979.89,-24.63 969.47,-22.75 970.57,-29.66"/>
</a>
</g>
</g>
<!-- Node18&#45;&gt;Node16 -->
<g id="edge30_Node000018_Node000016" class="edge">
<title>Node18&#45;&gt;Node16</title>
<g id="a_edge30_Node000018_Node000016"><a xlink:title=" ">
<path fill="none" stroke="#63b8ff" d="M638.28,-67.62C621.08,-57.98 594.06,-42.83 574.06,-31.61"/>
<polygon fill="#63b8ff" stroke="#63b8ff" points="576.04,-28.15 565.6,-26.31 572.61,-34.25 576.04,-28.15"/>
</a>
</g>
</g>
<!-- Node19&#45;&gt;Node2 -->
<g id="edge33_Node000019_Node000002" class="edge">
<title>Node19&#45;&gt;Node2</title>
<g id="a_edge33_Node000019_Node000002"><a xlink:title=" ">
<path fill="none" stroke="#63b8ff" d="M1062.06,-198.43C1023.37,-194.32 966.37,-183.66 925,-156 903.15,-141.4 886.56,-115.49 877.06,-97.79"/>
<polygon fill="#63b8ff" stroke="#63b8ff" points="879.96,-96.79 872.3,-89.47 873.73,-99.97 879.96,-96.79"/>
</a>
</g>
</g>
<!-- Node19&#45;&gt;Node3 -->
<g id="edge37_Node000019_Node000003" class="edge">
<title>Node19&#45;&gt;Node3</title>
<g id="a_edge37_Node000019_Node000003"><a xlink:title=" ">
<path fill="none" stroke="#63b8ff" d="M1147.92,-199.27C1216.24,-195.71 1353.53,-185.27 1466,-156 1468.06,-155.46 1470.16,-154.84 1472.26,-154.16"/>
<polygon fill="#63b8ff" stroke="#63b8ff" points="1473.39,-157.11 1481.58,-150.39 1470.99,-150.53 1473.39,-157.11"/>
</a>
</g>
</g>
<!-- Node19&#45;&gt;Node4 -->
<g id="edge35_Node000019_Node000004" class="edge">
<title>Node19&#45;&gt;Node4</title>
<g id="a_edge35_Node000019_Node000004"><a xlink:title=" ">
<path fill="none" stroke="#63b8ff" d="M1144.92,-191.59C1165.47,-184.85 1189.42,-173.74 1205,-156 1234.99,-121.86 1243.57,-66.88 1246.02,-37.34"/>
<polygon fill="#63b8ff" stroke="#63b8ff" points="1249.58,-37.58 1246.74,-27.37 1242.59,-37.12 1249.58,-37.58"/>
</a>
</g>
</g>
<!-- Node19&#45;&gt;Node10 -->
<g id="edge34_Node000019_Node000010" class="edge">
<title>Node19&#45;&gt;Node10</title>
<g id="a_edge34_Node000019_Node000010"><a xlink:title=" ">
<path fill="none" stroke="#63b8ff" d="M1062.33,-201.06C1016.25,-199.2 942.43,-190.44 890,-156 845.68,-126.89 818.51,-67.57 806.78,-36.69"/>
<polygon fill="#63b8ff" stroke="#63b8ff" points="809.73,-35.57 803.03,-27.36 803.15,-37.96 809.73,-35.57"/>
</a>
</g>
</g>
<!-- Node19&#45;&gt;Node13 -->
<g id="edge36_Node000019_Node000013" class="edge">
<title>Node19&#45;&gt;Node13</title>
<g id="a_edge36_Node000019_Node000013"><a xlink:title=" ">
<path fill="none" stroke="#63b8ff" d="M1147.87,-199.57C1225.75,-196.27 1386.72,-185.92 1433,-156 1477.09,-127.49 1502.81,-67.91 1513.74,-36.83"/>
<polygon fill="#63b8ff" stroke="#63b8ff" points="1517.37,-38.03 1517.22,-27.44 1510.73,-35.81 1517.37,-38.03"/>
</a>
</g>
</g>
<!-- Node20 -->
<g id="Node000020" class="node">
<title>Node20</title>
<g id="a_Node000020"><a xlink:href="a00275_source.html" target="_top" xlink:title=" ">
<polygon fill="white" stroke="#666666" points="1021.62,-150 934.38,-150 934.38,-130 1021.62,-130 1021.62,-150"/>
<text text-anchor="middle" x="978" y="-136.5" font-family="Helvetica,sans-Serif" font-size="10.00">useful_macros.h</text>
</a>
</g>
</g>
<!-- Node19&#45;&gt;Node20 -->
<g id="edge38_Node000019_Node000020" class="edge">
<title>Node19&#45;&gt;Node20</title>
<g id="a_edge38_Node000019_Node000020"><a xlink:title=" ">
<path fill="none" stroke="#63b8ff" d="M1085.16,-191.62C1064.37,-181.81 1031.5,-166.27 1007.64,-155"/>
<polygon fill="#63b8ff" stroke="#63b8ff" points="1009.24,-151.42 998.7,-150.31 1006.25,-157.75 1009.24,-151.42"/>
</a>
</g>
</g>
<!-- Node19&#45;&gt;Node21 -->
<g id="edge40_Node000019_Node000021" class="edge">
<title>Node19&#45;&gt;Node21</title>
<g id="a_edge40_Node000019_Node000021"><a xlink:title=" ">
<path fill="none" stroke="#63b8ff" d="M1134.18,-191.51C1161.2,-182.63 1202.47,-168.84 1238,-156 1239.69,-155.39 1241.42,-154.76 1243.16,-154.11"/>
<polygon fill="#63b8ff" stroke="#63b8ff" points="1244.01,-157.16 1252.13,-150.36 1241.54,-150.61 1244.01,-157.16"/>
</a>
</g>
</g>
<!-- Node22 -->
<g id="Node000022" class="node">
<title>Node22</title>
<g id="a_Node000022"><a xlink:href="a00269_source.html" target="_top" xlink:title=" ">
<polygon fill="white" stroke="#666666" points="1195.62,-150 1132.38,-150 1132.38,-130 1195.62,-130 1195.62,-150"/>
<text text-anchor="middle" x="1164" y="-136.5" font-family="Helvetica,sans-Serif" font-size="10.00">hardware.h</text>
</a>
</g>
</g>
<!-- Node19&#45;&gt;Node22 -->
<g id="edge45_Node000019_Node000022" class="edge">
<title>Node19&#45;&gt;Node22</title>
<g id="a_edge45_Node000019_Node000022"><a xlink:title=" ">
<path fill="none" stroke="#63b8ff" d="M1114.22,-191.62C1123.1,-182.59 1136.74,-168.72 1147.5,-157.78"/>
<polygon fill="#63b8ff" stroke="#63b8ff" points="1149.52,-160.7 1154.04,-151.11 1144.53,-155.79 1149.52,-160.7"/>
</a>
</g>
</g>
<!-- Node20&#45;&gt;Node2 -->
<g id="edge39_Node000020_Node000002" class="edge">
<title>Node20&#45;&gt;Node2</title>
<g id="a_edge39_Node000020_Node000002"><a xlink:title=" ">
<path fill="none" stroke="#63b8ff" d="M960.81,-129.62C943.05,-119.94 915.1,-104.69 894.51,-93.46"/>
<polygon fill="#63b8ff" stroke="#63b8ff" points="896.52,-90.03 886.07,-88.31 893.17,-96.17 896.52,-90.03"/>
</a>
</g>
</g>
<!-- Node21&#45;&gt;Node2 -->
<g id="edge41_Node000021_Node000002" class="edge">
<title>Node21&#45;&gt;Node2</title>
<g id="a_edge41_Node000021_Node000002"><a xlink:title=" ">
<path fill="none" stroke="#63b8ff" d="M1251.76,-133.27C1237.99,-130.27 1220.61,-126.66 1205,-124 1145.47,-113.84 965.82,-91.17 896.09,-82.48"/>
<polygon fill="#63b8ff" stroke="#63b8ff" points="896.86,-78.93 886.51,-81.17 896,-85.87 896.86,-78.93"/>
</a>
</g>
</g>
<!-- Node21&#45;&gt;Node4 -->
<g id="edge43_Node000021_Node000004" class="edge">
<title>Node21&#45;&gt;Node4</title>
<g id="a_edge43_Node000021_Node000004"><a xlink:title=" ">
<path fill="none" stroke="#63b8ff" d="M1274.75,-129.83C1269.9,-110.14 1258.41,-63.42 1251.84,-36.68"/>
<polygon fill="#63b8ff" stroke="#63b8ff" points="1255.07,-36.15 1249.28,-27.28 1248.27,-37.82 1255.07,-36.15"/>
</a>
</g>
</g>
<!-- Node21&#45;&gt;Node10 -->
<g id="edge42_Node000021_Node000010" class="edge">
<title>Node21&#45;&gt;Node10</title>
<g id="a_edge42_Node000021_Node000010"><a xlink:title=" ">
<path fill="none" stroke="#63b8ff" d="M1251.74,-133.42C1237.95,-130.45 1220.58,-126.84 1205,-124 1103.65,-105.49 1074.12,-119.41 976,-88 957.07,-81.94 954.22,-75.94 936,-68 902.13,-53.23 862.47,-38.66 834.75,-28.9"/>
<polygon fill="#63b8ff" stroke="#63b8ff" points="835.98,-25.27 825.38,-25.27 833.67,-31.88 835.98,-25.27"/>
</a>
</g>
</g>
<!-- Node21&#45;&gt;Node13 -->
<g id="edge44_Node000021_Node000013" class="edge">
<title>Node21&#45;&gt;Node13</title>
<g id="a_edge44_Node000021_Node000013"><a xlink:title=" ">
<path fill="none" stroke="#63b8ff" d="M1298.18,-129.54C1302.41,-127.68 1306.84,-125.76 1311,-124 1350.3,-107.39 1361.75,-106.92 1400,-88 1434.71,-70.83 1472.89,-47.4 1496.66,-32.23"/>
<polygon fill="#63b8ff" stroke="#63b8ff" points="1498.1,-34.83 1504.62,-26.47 1494.31,-28.94 1498.1,-34.83"/>
</a>
</g>
</g>
<!-- Node23&#45;&gt;Node7 -->
<g id="edge48_Node000023_Node000007" class="edge">
<title>Node23&#45;&gt;Node7</title>
<g id="a_edge48_Node000023_Node000007"><a xlink:title=" ">
<path fill="none" stroke="#63b8ff" d="M1356.05,-247.59C1356.79,-240.86 1357.83,-231.53 1358.76,-223.15"/>
<polygon fill="#63b8ff" stroke="#63b8ff" points="1362.34,-223.62 1359.97,-213.3 1355.38,-222.85 1362.34,-223.62"/>
</a>
</g>
</g>
<!-- Node24&#45;&gt;Node7 -->
<g id="edge63_Node000024_Node000007" class="edge">
<title>Node24&#45;&gt;Node7</title>
<g id="a_edge63_Node000024_Node000007"><a xlink:title=" ">
<path fill="none" stroke="#63b8ff" d="M1409.89,-303.69C1414.73,-290.62 1421.4,-266.37 1413,-248 1407.57,-236.11 1397.27,-226.16 1387.26,-218.67"/>
<polygon fill="#63b8ff" stroke="#63b8ff" points="1389.52,-215.28 1379.3,-212.49 1385.55,-221.05 1389.52,-215.28"/>
</a>
</g>
</g>
<!-- Node24&#45;&gt;Node11 -->
<g id="edge64_Node000024_Node000011" class="edge">
<title>Node24&#45;&gt;Node11</title>
<g id="a_edge64_Node000024_Node000011"><a xlink:title=" ">
<path fill="none" stroke="#63b8ff" d="M1377.09,-303.59C1350,-294.78 1309.29,-281.54 1279.27,-271.78"/>
<polygon fill="#63b8ff" stroke="#63b8ff" points="1280.73,-268.24 1270.14,-268.48 1278.57,-274.9 1280.73,-268.24"/>
</a>
</g>
</g>
<!-- Node24&#45;&gt;Node13 -->
<g id="edge50_Node000024_Node000013" class="edge">
<title>Node24&#45;&gt;Node13</title>
<g id="a_edge50_Node000024_Node000013"><a xlink:title=" ">
<path fill="none" stroke="#63b8ff" d="M1462.84,-305.99C1543.02,-292.69 1686.5,-255.57 1749,-156 1798.25,-77.53 1632.2,-37.02 1556.09,-22.9"/>
<polygon fill="#63b8ff" stroke="#63b8ff" points="1557.01,-19.33 1546.55,-21.01 1555.77,-26.22 1557.01,-19.33"/>
</a>
</g>
</g>
<!-- Node24&#45;&gt;Node21 -->
<g id="edge65_Node000024_Node000021" class="edge">
<title>Node24&#45;&gt;Node21</title>
<g id="a_edge65_Node000024_Node000021"><a xlink:title=" ">
<path fill="none" stroke="#63b8ff" d="M1411.69,-303.65C1424.27,-281.66 1451.31,-225.95 1425,-192 1392.46,-150 1360.71,-174.75 1311,-156 1309.74,-155.53 1308.47,-155.03 1307.18,-154.52"/>
<polygon fill="#63b8ff" stroke="#63b8ff" points="1308.92,-151.04 1298.35,-150.41 1306.22,-157.49 1308.92,-151.04"/>
</a>
</g>
</g>
<!-- Node24&#45;&gt;Node23 -->
<g id="edge62_Node000024_Node000023" class="edge">
<title>Node24&#45;&gt;Node23</title>
<g id="a_edge62_Node000024_Node000023"><a xlink:title=" ">
<path fill="none" stroke="#63b8ff" d="M1397.12,-303.59C1389.95,-296.01 1379.68,-285.13 1371.08,-276.02"/>
<polygon fill="#63b8ff" stroke="#63b8ff" points="1374.19,-274.17 1364.78,-269.3 1369.1,-278.97 1374.19,-274.17"/>
</a>
</g>
</g>
<!-- Node24&#45;&gt;Node24 -->
<g id="edge61_Node000024_Node000024" class="edge">
<title>Node24&#45;&gt;Node24</title>
<g id="a_edge61_Node000024_Node000024"><a xlink:title=" ">
<path fill="none" stroke="#63b8ff" d="M1462.75,-323.92C1473.11,-322.67 1480.38,-319.36 1480.38,-314 1480.38,-310.73 1477.68,-308.23 1473.22,-306.49"/>
<polygon fill="#63b8ff" stroke="#63b8ff" points="1474.28,-302.91 1463.75,-304.08 1472.71,-309.73 1474.28,-302.91"/>
</a>
</g>
</g>
<!-- Node25 -->
<g id="Node000025" class="node">
<title>Node25</title>
<g id="a_Node000025"><a xlink:href="a00086.html" target="_top" xlink:title="This is the generated driver header file for the CMP1 driver.">
<polygon fill="white" stroke="#666666" points="1652,-150 1582,-150 1582,-130 1652,-130 1652,-150"/>
<text text-anchor="middle" x="1617" y="-136.5" font-family="Helvetica,sans-Serif" font-size="10.00">cmp/cmp1.h</text>
</a>
</g>
</g>
<!-- Node24&#45;&gt;Node25 -->
<g id="edge51_Node000024_Node000025" class="edge">
<title>Node24&#45;&gt;Node25</title>
<g id="a_edge51_Node000024_Node000025"><a xlink:title=" ">
<path fill="none" stroke="#63b8ff" d="M1417.64,-303.51C1452.09,-275.43 1553.75,-192.56 1597.08,-157.24"/>
<polygon fill="#63b8ff" stroke="#63b8ff" points="1598.85,-159.49 1604.39,-150.46 1594.43,-154.07 1598.85,-159.49"/>
</a>
</g>
</g>
<!-- Node27 -->
<g id="Node000027" class="node">
<title>Node27</title>
<g id="a_Node000027"><a xlink:href="a00092.html" target="_top" xlink:title="This is the generated driver header file for the CMP3 driver.">
<polygon fill="white" stroke="#666666" points="1740,-150 1670,-150 1670,-130 1740,-130 1740,-150"/>
<text text-anchor="middle" x="1705" y="-136.5" font-family="Helvetica,sans-Serif" font-size="10.00">cmp/cmp3.h</text>
</a>
</g>
</g>
<!-- Node24&#45;&gt;Node27 -->
<g id="edge57_Node000024_Node000027" class="edge">
<title>Node24&#45;&gt;Node27</title>
<g id="a_edge57_Node000024_Node000027"><a xlink:title=" ">
<path fill="none" stroke="#63b8ff" d="M1423.78,-303.66C1440.51,-294.77 1466.18,-280.88 1488,-268 1542.37,-235.91 1553.35,-223.6 1608,-192 1630.62,-178.92 1656.88,-165.2 1676.37,-155.29"/>
<polygon fill="#63b8ff" stroke="#63b8ff" points="1677.82,-157.97 1685.16,-150.34 1674.66,-151.72 1677.82,-157.97"/>
</a>
</g>
</g>
<!-- Node25&#45;&gt;Node4 -->
<g id="edge53_Node000025_Node000004" class="edge">
<title>Node25&#45;&gt;Node4</title>
<g id="a_edge53_Node000025_Node000004"><a xlink:title=" ">
<path fill="none" stroke="#63b8ff" d="M1586.16,-129.53C1580.14,-127.69 1573.87,-125.78 1568,-124 1514.71,-107.85 1500.93,-105.28 1448,-88 1389.83,-69.01 1322.95,-44.93 1282.88,-30.26"/>
<polygon fill="#63b8ff" stroke="#63b8ff" points="1284.16,-26.64 1273.57,-26.48 1281.75,-33.21 1284.16,-26.64"/>
</a>
</g>
</g>
<!-- Node25&#45;&gt;Node13 -->
<g id="edge52_Node000025_Node000013" class="edge">
<title>Node25&#45;&gt;Node13</title>
<g id="a_edge52_Node000025_Node000013"><a xlink:title=" ">
<path fill="none" stroke="#63b8ff" d="M1604.85,-129.78C1592.77,-120.21 1574.2,-104.39 1561,-88 1547.93,-71.76 1536.39,-50.87 1528.92,-35.96"/>
<polygon fill="#63b8ff" stroke="#63b8ff" points="1531.75,-34.77 1524.22,-27.31 1525.45,-37.83 1531.75,-34.77"/>
</a>
</g>
</g>
<!-- Node26 -->
<g id="Node000026" class="node">
<title>Node26</title>
<g id="a_Node000026"><a xlink:href="a00095_source.html" target="_top" xlink:title=" ">
<polygon fill="white" stroke="#666666" points="1654.5,-88 1569.5,-88 1569.5,-68 1654.5,-68 1654.5,-88"/>
<text text-anchor="middle" x="1612" y="-74.5" font-family="Helvetica,sans-Serif" font-size="10.00">cmp_interface.h</text>
</a>
</g>
</g>
<!-- Node25&#45;&gt;Node26 -->
<g id="edge54_Node000025_Node000026" class="edge">
<title>Node25&#45;&gt;Node26</title>
<g id="a_edge54_Node000025_Node000026"><a xlink:title=" ">
<path fill="none" stroke="#63b8ff" d="M1616.22,-129.62C1615.54,-121.48 1614.53,-109.39 1613.67,-99.07"/>
<polygon fill="#63b8ff" stroke="#63b8ff" points="1617.08,-98.79 1612.76,-89.11 1610.1,-99.37 1617.08,-98.79"/>
</a>
</g>
</g>
<!-- Node26&#45;&gt;Node4 -->
<g id="edge55_Node000026_Node000004" class="edge">
<title>Node26&#45;&gt;Node4</title>
<g id="a_edge55_Node000026_Node000004"><a xlink:title=" ">
<path fill="none" stroke="#63b8ff" d="M1569.06,-69.94C1497.47,-58.17 1354.84,-34.73 1285.98,-23.41"/>
<polygon fill="#63b8ff" stroke="#63b8ff" points="1286.63,-19.8 1276.19,-21.63 1285.49,-26.71 1286.63,-19.8"/>
</a>
</g>
</g>
<!-- Node26&#45;&gt;Node13 -->
<g id="edge56_Node000026_Node000013" class="edge">
<title>Node26&#45;&gt;Node13</title>
<g id="a_edge56_Node000026_Node000013"><a xlink:title=" ">
<path fill="none" stroke="#63b8ff" d="M1597.62,-67.62C1583.04,-58.11 1560.24,-43.24 1543.12,-32.08"/>
<polygon fill="#63b8ff" stroke="#63b8ff" points="1545.56,-28.84 1535.27,-26.31 1541.74,-34.7 1545.56,-28.84"/>
</a>
</g>
</g>
<!-- Node27&#45;&gt;Node4 -->
<g id="edge59_Node000027_Node000004" class="edge">
<title>Node27&#45;&gt;Node4</title>
<g id="a_edge59_Node000027_Node000004"><a xlink:title=" ">
<path fill="none" stroke="#63b8ff" d="M1678.58,-129.63C1672.81,-127.69 1666.72,-125.71 1661,-124 1524.35,-83.11 1359.61,-43.33 1285.93,-26.02"/>
<polygon fill="#63b8ff" stroke="#63b8ff" points="1286.85,-22.41 1276.31,-23.54 1285.25,-29.22 1286.85,-22.41"/>
</a>
</g>
</g>
<!-- Node27&#45;&gt;Node13 -->
<g id="edge58_Node000027_Node000013" class="edge">
<title>Node27&#45;&gt;Node13</title>
<g id="a_edge58_Node000027_Node000013"><a xlink:title=" ">
<path fill="none" stroke="#63b8ff" d="M1702.05,-129.77C1696.78,-114.74 1684.36,-84.93 1664,-68 1632.81,-42.06 1587.48,-28.91 1556.04,-22.53"/>
<polygon fill="#63b8ff" stroke="#63b8ff" points="1557.03,-18.96 1546.55,-20.54 1555.73,-25.84 1557.03,-18.96"/>
</a>
</g>
</g>
<!-- Node27&#45;&gt;Node26 -->
<g id="edge60_Node000027_Node000026" class="edge">
<title>Node27&#45;&gt;Node26</title>
<g id="a_edge60_Node000027_Node000026"><a xlink:title=" ">
<path fill="none" stroke="#63b8ff" d="M1690.47,-129.62C1675.73,-120.11 1652.68,-105.24 1635.37,-94.08"/>
<polygon fill="#63b8ff" stroke="#63b8ff" points="1637.73,-90.79 1627.43,-88.31 1633.93,-96.67 1637.73,-90.79"/>
</a>
</g>
</g>
<!-- Node28&#45;&gt;Node2 -->
<g id="edge68_Node000028_Node000002" class="edge">
<title>Node28&#45;&gt;Node2</title>
<g id="a_edge68_Node000028_Node000002"><a xlink:title=" ">
<path fill="none" stroke="#63b8ff" d="M528.39,-197.04C583.33,-191.97 666.6,-180.67 735,-156 777.28,-140.75 821.52,-112.22 846.82,-94.5"/>
<polygon fill="#63b8ff" stroke="#63b8ff" points="848.43,-96.94 854.55,-88.29 844.37,-91.23 848.43,-96.94"/>
</a>
</g>
</g>
<!-- Node28&#45;&gt;Node10 -->
<g id="edge69_Node000028_Node000010" class="edge">
<title>Node28&#45;&gt;Node10</title>
<g id="a_edge69_Node000028_Node000010"><a xlink:title=" ">
<path fill="none" stroke="#63b8ff" d="M409.73,-194.32C385.53,-188.34 359.79,-177.1 345,-156 336.84,-144.35 336.17,-135.15 345,-124 397.65,-57.54 667.54,-28.28 764.91,-19.78"/>
<polygon fill="#63b8ff" stroke="#63b8ff" points="764.98,-23.2 774.64,-18.86 764.38,-16.22 764.98,-23.2"/>
</a>
</g>
</g>
<!-- Node29 -->
<g id="Node000029" class="node">
<title>Node29</title>
<g id="a_Node000029"><a xlink:title=" ">
<polygon fill="#e0e0e0" stroke="#999999" points="543.62,-150 498.38,-150 498.38,-130 543.62,-130 543.62,-150"/>
<text text-anchor="middle" x="521" y="-136.5" font-family="Helvetica,sans-Serif" font-size="10.00">stdio.h</text>
</a>
</g>
</g>
<!-- Node28&#45;&gt;Node29 -->
<g id="edge67_Node000028_Node000029" class="edge">
<title>Node28&#45;&gt;Node29</title>
<g id="a_edge67_Node000028_Node000029"><a xlink:title=" ">
<path fill="none" stroke="#63b8ff" d="M477.12,-191.62C484.8,-182.77 496.51,-169.26 505.9,-158.43"/>
<polygon fill="#63b8ff" stroke="#63b8ff" points="509.2,-160.96 513.1,-151.11 503.91,-156.38 509.2,-160.96"/>
</a>
</g>
</g>
<!-- Node30 -->
<g id="Node000030" class="node">
<title>Node30</title>
<g id="a_Node000030"><a xlink:href="a00353.html" target="_top" xlink:title="Contains the DCDT generated functions and data types.">
<polygon fill="white" stroke="#666666" points="726.38,-150 643.62,-150 643.62,-130 726.38,-130 726.38,-150"/>
<text text-anchor="middle" x="685" y="-136.5" font-family="Helvetica,sans-Serif" font-size="10.00">smps_control.h</text>
</a>
</g>
</g>
<!-- Node28&#45;&gt;Node30 -->
<g id="edge70_Node000028_Node000030" class="edge">
<title>Node28&#45;&gt;Node30</title>
<g id="a_edge70_Node000028_Node000030"><a xlink:title=" ">
<path fill="none" stroke="#63b8ff" d="M505.02,-191.53C538.7,-182.61 590.35,-168.75 635,-156 637.76,-155.21 640.61,-154.39 643.48,-153.55"/>
<polygon fill="#63b8ff" stroke="#63b8ff" points="644.23,-156.68 652.83,-150.49 642.25,-149.97 644.23,-156.68"/>
</a>
</g>
</g>
<!-- Node31 -->
<g id="Node000031" class="node">
<title>Node31</title>
<g id="a_Node000031"><a xlink:href="a00026_source.html" target="_top" xlink:title=" ">
<polygon fill="white" stroke="#666666" points="152.38,-156 27.63,-156 27.63,-124 152.38,-124 152.38,-156"/>
<text text-anchor="start" x="35.62" y="-142.5" font-family="Helvetica,sans-Serif" font-size="10.00">dab_psio/dcdt_generated</text>
<text text-anchor="middle" x="90" y="-130.5" font-family="Helvetica,sans-Serif" font-size="10.00">_code/dab_psio_dcdt.h</text>
</a>
</g>
</g>
<!-- Node28&#45;&gt;Node31 -->
<g id="edge73_Node000028_Node000031" class="edge">
<title>Node28&#45;&gt;Node31</title>
<g id="a_edge73_Node000028_Node000031"><a xlink:title=" ">
<path fill="none" stroke="#63b8ff" d="M409.78,-193.48C350,-185.63 254.78,-172.44 163.5,-156.39"/>
<polygon fill="#63b8ff" stroke="#63b8ff" points="164.14,-152.77 153.68,-154.47 162.91,-159.66 164.14,-152.77"/>
</a>
</g>
</g>
<!-- Node32 -->
<g id="Node000032" class="node">
<title>Node32</title>
<g id="a_Node000032"><a xlink:href="a00035_source.html" target="_top" xlink:title=" ">
<polygon fill="white" stroke="#666666" points="297.88,-156 170.12,-156 170.12,-124 297.88,-124 297.88,-156"/>
<text text-anchor="start" x="178.12" y="-142.5" font-family="Helvetica,sans-Serif" font-size="10.00">dab_pspo/dcdt_generated</text>
<text text-anchor="middle" x="234" y="-130.5" font-family="Helvetica,sans-Serif" font-size="10.00">_code/dab_pspo_dcdt.h</text>
</a>
</g>
</g>
<!-- Node28&#45;&gt;Node32 -->
<g id="edge74_Node000028_Node000032" class="edge">
<title>Node28&#45;&gt;Node32</title>
<g id="a_edge74_Node000028_Node000032"><a xlink:title=" ">
<path fill="none" stroke="#63b8ff" d="M432.02,-191.56C398.06,-182.89 346.81,-169.8 304.96,-159.12"/>
<polygon fill="#63b8ff" stroke="#63b8ff" points="306.09,-155.54 295.54,-156.46 304.36,-162.32 306.09,-155.54"/>
</a>
</g>
</g>
<!-- Node33 -->
<g id="Node000033" class="node">
<title>Node33</title>
<g id="a_Node000033"><a xlink:href="a00038_source.html" target="_top" xlink:title=" ">
<polygon fill="white" stroke="#666666" points="480.12,-156 353.88,-156 353.88,-124 480.12,-124 480.12,-156"/>
<text text-anchor="start" x="361.88" y="-142.5" font-family="Helvetica,sans-Serif" font-size="10.00">dab_spvo/dcdt_generated</text>
<text text-anchor="middle" x="417" y="-130.5" font-family="Helvetica,sans-Serif" font-size="10.00">_code/dab_spvo_dcdt.h</text>
</a>
</g>
</g>
<!-- Node28&#45;&gt;Node33 -->
<g id="edge75_Node000028_Node000033" class="edge">
<title>Node28&#45;&gt;Node33</title>
<g id="a_edge75_Node000028_Node000033"><a xlink:title=" ">
<path fill="none" stroke="#63b8ff" d="M460.88,-191.62C454.51,-184.28 445.38,-173.75 437.1,-164.19"/>
<polygon fill="#63b8ff" stroke="#63b8ff" points="439.32,-162.41 430.12,-157.14 434.03,-166.99 439.32,-162.41"/>
</a>
</g>
</g>
<!-- Node30&#45;&gt;Node2 -->
<g id="edge71_Node000030_Node000002" class="edge">
<title>Node30&#45;&gt;Node2</title>
<g id="a_edge71_Node000030_Node000002"><a xlink:title=" ">
<path fill="none" stroke="#63b8ff" d="M713.59,-129.62C748.24,-118.26 806.22,-99.25 840.41,-88.04"/>
<polygon fill="#63b8ff" stroke="#63b8ff" points="841.21,-91.14 849.62,-84.7 839.03,-84.49 841.21,-91.14"/>
</a>
</g>
</g>
<!-- Node30&#45;&gt;Node10 -->
<g id="edge72_Node000030_Node000010" class="edge">
<title>Node30&#45;&gt;Node10</title>
<g id="a_edge72_Node000030_Node000010"><a xlink:title=" ">
<path fill="none" stroke="#63b8ff" d="M693.64,-129.83C712.79,-109.52 759.04,-60.46 783.77,-34.22"/>
<polygon fill="#63b8ff" stroke="#63b8ff" points="785.94,-36.95 790.26,-27.28 780.85,-32.15 785.94,-36.95"/>
</a>
</g>
</g>
<!-- Node34&#45;&gt;Node2 -->
<g id="edge77_Node000034_Node000002" class="edge">
<title>Node34&#45;&gt;Node2</title>
<g id="a_edge77_Node000034_Node000002"><a xlink:title=" ">
<path fill="none" stroke="#63b8ff" d="M923.3,-247.61C916.36,-229.86 901.1,-190.09 890,-156 883.69,-136.62 877.39,-114.18 873.16,-98.54"/>
<polygon fill="#63b8ff" stroke="#63b8ff" points="876.33,-97.83 870.36,-89.07 869.56,-99.64 876.33,-97.83"/>
</a>
</g>
</g>
</g>
</svg>
