<?xml version="1.0" encoding="UTF-8" standalone="no"?>
<!DOCTYPE svg PUBLIC "-//W3C//DTD SVG 1.1//EN"
 "http://www.w3.org/Graphics/SVG/1.1/DTD/svg11.dtd">
<!-- Generated by graphviz version 8.1.0 (20230707.0739)
 -->
<!-- Title: dab&#45;pwm&#45;configuration.X/sources/device/dev_led.c Pages: 1 -->
<svg width="185pt" height="152pt"
 viewBox="0.00 0.00 184.75 152.00" xmlns="http://www.w3.org/2000/svg" xmlns:xlink="http://www.w3.org/1999/xlink">

<svg id="main" version="1.1" xmlns="http://www.w3.org/2000/svg" xmlns:xlink="http://www.w3.org/1999/xlink" xml:space="preserve" onload="init(evt)">
<style type="text/css"><![CDATA[
.node, .edge {opacity: 0.7;}
.node.selected, .edge.selected {opacity: 1;}
.edge:hover path { stroke: red; }
.edge:hover polygon { stroke: red; fill: red; }
]]></style>
<script type="application/ecmascript" xlink:href="svg.min.js"/>
<svg id="graph" class="graph">
<g id="graph0" class="graph" transform="scale(1 1) rotate(0) translate(4 148)">
<title>dab&#45;pwm&#45;configuration.X/sources/device/dev_led.c</title>
<!-- Node1 -->
<g id="Node000001" class="node">
<title>Node1</title>
<g id="a_Node000001"><a xlink:title="Contains LED initialization and execution functions.">
<polygon fill="#999999" stroke="#666666" points="127,-144 0,-144 0,-112 127,-112 127,-144"/>
<text text-anchor="start" x="8" y="-130.5" font-family="Helvetica,sans-Serif" font-size="10.00">dab&#45;pwm&#45;configuration.X</text>
<text text-anchor="middle" x="63.5" y="-118.5" font-family="Helvetica,sans-Serif" font-size="10.00">/sources/device/dev_led.c</text>
</a>
</g>
</g>
<!-- Node2 -->
<g id="Node000002" class="node">
<title>Node2</title>
<g id="a_Node000002"><a xlink:title=" ">
<polygon fill="#e0e0e0" stroke="#999999" points="80.88,-20 46.12,-20 46.12,0 80.88,0 80.88,-20"/>
<text text-anchor="middle" x="63.5" y="-6.5" font-family="Helvetica,sans-Serif" font-size="10.00">xc.h</text>
</a>
</g>
</g>
<!-- Node1&#45;&gt;Node2 -->
<g id="edge1_Node000001_Node000002" class="edge">
<title>Node1&#45;&gt;Node2</title>
<g id="a_edge1_Node000001_Node000002"><a xlink:title=" ">
<path fill="none" stroke="#63b8ff" d="M43.31,-111.92C32.86,-102.82 21.15,-90.24 15.5,-76 12.22,-67.74 11.97,-64.16 15.5,-56 20.52,-44.4 30.17,-34.43 39.51,-26.83"/>
<polygon fill="#63b8ff" stroke="#63b8ff" points="41.3,-29.11 47.2,-20.31 37.1,-23.51 41.3,-29.11"/>
</a>
</g>
</g>
<!-- Node3 -->
<g id="Node000003" class="node">
<title>Node3</title>
<g id="a_Node000003"><a xlink:href="a00305_source.html" target="_top" xlink:title=" ">
<polygon fill="white" stroke="#666666" points="176.75,-76 120.25,-76 120.25,-56 176.75,-56 176.75,-76"/>
<text text-anchor="middle" x="148.5" y="-62.5" font-family="Helvetica,sans-Serif" font-size="10.00">dev_led.h</text>
</a>
</g>
</g>
<!-- Node1&#45;&gt;Node3 -->
<g id="edge2_Node000001_Node000003" class="edge">
<title>Node1&#45;&gt;Node3</title>
<g id="a_edge2_Node000001_Node000003"><a xlink:title=" ">
<path fill="none" stroke="#63b8ff" d="M85.39,-111.55C97.93,-102.69 113.64,-91.61 126.24,-82.71"/>
<polygon fill="#63b8ff" stroke="#63b8ff" points="128.02,-85.03 134.17,-76.41 123.98,-79.32 128.02,-85.03"/>
</a>
</g>
</g>
<!-- Node5 -->
<g id="Node000005" class="node">
<title>Node5</title>
<g id="a_Node000005"><a xlink:href="a00161_source.html" target="_top" xlink:title=" ">
<polygon fill="white" stroke="#666666" points="102.25,-76 24.75,-76 24.75,-56 102.25,-56 102.25,-76"/>
<text text-anchor="middle" x="63.5" y="-62.5" font-family="Helvetica,sans-Serif" font-size="10.00">system/pins.h</text>
</a>
</g>
</g>
<!-- Node1&#45;&gt;Node5 -->
<g id="edge5_Node000001_Node000005" class="edge">
<title>Node1&#45;&gt;Node5</title>
<g id="a_edge5_Node000001_Node000005"><a xlink:title=" ">
<path fill="none" stroke="#63b8ff" d="M63.5,-111.55C63.5,-104.17 63.5,-95.24 63.5,-87.32"/>
<polygon fill="#63b8ff" stroke="#63b8ff" points="67,-87.41 63.5,-77.41 60,-87.41 67,-87.41"/>
</a>
</g>
</g>
<!-- Node3&#45;&gt;Node2 -->
<g id="edge3_Node000003_Node000002" class="edge">
<title>Node3&#45;&gt;Node2</title>
<g id="a_edge3_Node000003_Node000002"><a xlink:title=" ">
<path fill="none" stroke="#63b8ff" d="M133.69,-55.59C120.97,-47.51 102.39,-35.71 87.54,-26.27"/>
<polygon fill="#63b8ff" stroke="#63b8ff" points="89.74,-22.89 79.42,-20.48 85.99,-28.8 89.74,-22.89"/>
</a>
</g>
</g>
<!-- Node4 -->
<g id="Node000004" class="node">
<title>Node4</title>
<g id="a_Node000004"><a xlink:title=" ">
<polygon fill="#e0e0e0" stroke="#999999" points="172.62,-20 124.38,-20 124.38,0 172.62,0 172.62,-20"/>
<text text-anchor="middle" x="148.5" y="-6.5" font-family="Helvetica,sans-Serif" font-size="10.00">stdint.h</text>
</a>
</g>
</g>
<!-- Node3&#45;&gt;Node4 -->
<g id="edge4_Node000003_Node000004" class="edge">
<title>Node3&#45;&gt;Node4</title>
<g id="a_edge4_Node000003_Node000004"><a xlink:title=" ">
<path fill="none" stroke="#63b8ff" d="M148.5,-55.59C148.5,-48.86 148.5,-39.53 148.5,-31.15"/>
<polygon fill="#63b8ff" stroke="#63b8ff" points="152,-31.3 148.5,-21.3 145,-31.3 152,-31.3"/>
</a>
</g>
</g>
<!-- Node5&#45;&gt;Node2 -->
<g id="edge6_Node000005_Node000002" class="edge">
<title>Node5&#45;&gt;Node2</title>
<g id="a_edge6_Node000005_Node000002"><a xlink:title=" ">
<path fill="none" stroke="#63b8ff" d="M63.5,-55.59C63.5,-48.86 63.5,-39.53 63.5,-31.15"/>
<polygon fill="#63b8ff" stroke="#63b8ff" points="67,-31.3 63.5,-21.3 60,-31.3 67,-31.3"/>
</a>
</g>
</g>
</g>
</svg>
</svg>

<style type='text/css'>
<![CDATA[
[data-mouse-over-selected='false'] { opacity: 0.7; }
[data-mouse-over-selected='true']  { opacity: 1.0; }
]]>
</style>
<script type="application/ecmascript"><![CDATA[
document.addEventListener('DOMContentLoaded', (event) => {
  highlightEdges();
  highlightAdjacentNodes();
});
]]></script>
</svg>
