<?xml version="1.0" encoding="UTF-8" standalone="no"?>
<!DOCTYPE svg PUBLIC "-//W3C//DTD SVG 1.1//EN"
 "http://www.w3.org/Graphics/SVG/1.1/DTD/svg11.dtd">
<!-- Generated by graphviz version 8.1.0 (20230707.0739)
 -->
<!-- Title: dspic33ck&#45;dab.X/sources/driver/mcc_extension/drv_mcc_extension_adc.h Pages: 1 -->
<svg width="280pt" height="212pt"
 viewBox="0.00 0.00 279.62 212.00" xmlns="http://www.w3.org/2000/svg" xmlns:xlink="http://www.w3.org/1999/xlink">
<g id="graph0" class="graph" transform="scale(1 1) rotate(0) translate(4 208)">
<title>dspic33ck&#45;dab.X/sources/driver/mcc_extension/drv_mcc_extension_adc.h</title>
<!-- Node1 -->
<g id="Node000001" class="node">
<title>Node1</title>
<g id="a_Node000001"><a xlink:title="Contains public functions and defines for the MCC code extension for ADC.">
<polygon fill="#999999" stroke="#666666" points="202,-204 70.5,-204 70.5,-160 202,-160 202,-204"/>
<text text-anchor="start" x="78.5" y="-190.5" font-family="Helvetica,sans-Serif" font-size="10.00">dspic33ck&#45;dab.X/sources</text>
<text text-anchor="start" x="78.5" y="-178.5" font-family="Helvetica,sans-Serif" font-size="10.00">/driver/mcc_extension</text>
<text text-anchor="middle" x="136.25" y="-166.5" font-family="Helvetica,sans-Serif" font-size="10.00">/drv_mcc_extension_adc.h</text>
</a>
</g>
</g>
<!-- Node2 -->
<g id="Node000002" class="node">
<title>Node2</title>
<g id="a_Node000002"><a xlink:href="a00335.html" target="_top" xlink:title="Contains ADC initialization that was not supported by MCC generated code.">
<polygon fill="white" stroke="#666666" points="128.5,-124 0,-124 0,-80 128.5,-80 128.5,-124"/>
<text text-anchor="start" x="8" y="-110.5" font-family="Helvetica,sans-Serif" font-size="10.00">dspic33ck&#45;dab.X/sources</text>
<text text-anchor="start" x="8" y="-98.5" font-family="Helvetica,sans-Serif" font-size="10.00">/driver/mcc_extension</text>
<text text-anchor="middle" x="64.25" y="-86.5" font-family="Helvetica,sans-Serif" font-size="10.00">/drv_custom_config_adc.h</text>
</a>
</g>
</g>
<!-- Node1&#45;&gt;Node2 -->
<g id="edge1_Node000001_Node000002" class="edge">
<title>Node1&#45;&gt;Node2</title>
<g id="a_edge1_Node000001_Node000002"><a xlink:title=" ">
<path fill="none" stroke="#63b8ff" d="M109.13,-151.62C100.74,-142.53 91.68,-132.71 83.9,-124.29"/>
<polygon fill="#63b8ff" stroke="#63b8ff" points="106.22,-153.71 115.58,-158.69 111.36,-148.96 106.22,-153.71"/>
</a>
</g>
</g>
<!-- Node4 -->
<g id="Node000004" class="node">
<title>Node4</title>
<g id="a_Node000004"><a xlink:href="a00341.html" target="_top" xlink:title="Contain the peripheral header files with MCC extension code.">
<polygon fill="white" stroke="#666666" points="271.62,-124 146.88,-124 146.88,-80 271.62,-80 271.62,-124"/>
<text text-anchor="start" x="154.88" y="-110.5" font-family="Helvetica,sans-Serif" font-size="10.00">dspic33ck&#45;dab.X/sources</text>
<text text-anchor="start" x="154.88" y="-98.5" font-family="Helvetica,sans-Serif" font-size="10.00">/driver/mcc_extension</text>
<text text-anchor="middle" x="209.25" y="-86.5" font-family="Helvetica,sans-Serif" font-size="10.00">/drv_mcc_extension.h</text>
</a>
</g>
</g>
<!-- Node1&#45;&gt;Node4 -->
<g id="edge3_Node000001_Node000004" class="edge">
<title>Node1&#45;&gt;Node4</title>
<g id="a_edge3_Node000001_Node000004"><a xlink:title=" ">
<path fill="none" stroke="#63b8ff" d="M163.49,-151.89C172.06,-142.74 181.36,-132.8 189.33,-124.29"/>
<polygon fill="#63b8ff" stroke="#63b8ff" points="161.48,-148.99 157.2,-158.69 166.59,-153.78 161.48,-148.99"/>
</a>
</g>
</g>
<!-- Node3 -->
<g id="Node000003" class="node">
<title>Node3</title>
<g id="a_Node000003"><a xlink:href="a00350_source.html" target="_top" xlink:title=" ">
<polygon fill="white" stroke="#666666" points="198.62,-44 73.88,-44 73.88,0 198.62,0 198.62,-44"/>
<text text-anchor="start" x="81.88" y="-30.5" font-family="Helvetica,sans-Serif" font-size="10.00">dspic33ck&#45;dab.X/sources</text>
<text text-anchor="start" x="81.88" y="-18.5" font-family="Helvetica,sans-Serif" font-size="10.00">/driver/mcc_extension</text>
<text text-anchor="middle" x="136.25" y="-6.5" font-family="Helvetica,sans-Serif" font-size="10.00">/mcc_custom_config.c</text>
</a>
</g>
</g>
<!-- Node2&#45;&gt;Node3 -->
<g id="edge2_Node000002_Node000003" class="edge">
<title>Node2&#45;&gt;Node3</title>
<g id="a_edge2_Node000002_Node000003"><a xlink:title=" ">
<path fill="none" stroke="#63b8ff" d="M91.37,-71.62C99.76,-62.53 108.82,-52.71 116.6,-44.29"/>
<polygon fill="#63b8ff" stroke="#63b8ff" points="89.14,-68.96 84.92,-78.69 94.28,-73.71 89.14,-68.96"/>
</a>
</g>
</g>
<!-- Node4&#45;&gt;Node3 -->
<g id="edge4_Node000004_Node000003" class="edge">
<title>Node4&#45;&gt;Node3</title>
<g id="a_edge4_Node000004_Node000003"><a xlink:title=" ">
<path fill="none" stroke="#63b8ff" d="M182.01,-71.89C173.44,-62.74 164.14,-52.8 156.17,-44.29"/>
<polygon fill="#63b8ff" stroke="#63b8ff" points="178.91,-73.78 188.3,-78.69 184.02,-68.99 178.91,-73.78"/>
</a>
</g>
</g>
</g>
</svg>
