<?xml version="1.0" encoding="UTF-8" standalone="no"?>
<!DOCTYPE svg PUBLIC "-//W3C//DTD SVG 1.1//EN"
 "http://www.w3.org/Graphics/SVG/1.1/DTD/svg11.dtd">
<!-- Generated by graphviz version 8.1.0 (20230707.0739)
 -->
<!-- Title: dspic33ck&#45;dab.X/sources/fault/fault_common.h Pages: 1 -->
<!--zoomable 416 -->

<svg id="main" version="1.1" xmlns="http://www.w3.org/2000/svg" xmlns:xlink="http://www.w3.org/1999/xlink" xml:space="preserve" onload="init(evt)">
<style type="text/css"><![CDATA[
.node, .edge {opacity: 0.7;}
.node.selected, .edge.selected {opacity: 1;}
.edge:hover path { stroke: red; }
.edge:hover polygon { stroke: red; fill: red; }
]]></style>

<defs>
  <circle id="rim" cx="0" cy="0" r="7"/>
  <circle id="rim2" cx="0" cy="0" r="3.5"/>
  <g id="zoomPlus">
    <use xlink:href="#rim" fill="#404040"><set attributeName="fill" to="#808080" begin="zoomplus.mouseover" end="zoomplus.mouseout"/></use>
    <path d="M-4,0h8M0,-4v8" fill="none" stroke="white" stroke-width="1.5" pointer-events="none"/>
  </g>
  <g id="zoomMin">
    <use xlink:href="#rim" fill="#404040"><set attributeName="fill" to="#808080" begin="zoomminus.mouseover" end="zoomminus.mouseout"/></use>
    <path d="M-4,0h8" fill="none" stroke="white" stroke-width="1.5" pointer-events="none"/>
  </g>
  <g id="arrowUp" transform="translate(30 24)">
    <use xlink:href="#rim"/>
    <path pointer-events="none" fill="none" stroke="white" stroke-width="1.5" d="M0,-3.0v7 M-2.5,-0.5L0,-3.0L2.5,-0.5"/>
  </g>
  <g id="arrowRight" transform="rotate(90) translate(36 -43)">
    <use xlink:href="#rim"/>
    <path pointer-events="none" fill="none" stroke="white" stroke-width="1.5" d="M0,-3.0v7 M-2.5,-0.5L0,-3.0L2.5,-0.5"/>
  </g>
  <g id="arrowDown" transform="rotate(180) translate(-30 -48)">
    <use xlink:href="#rim"/>
    <path pointer-events="none" fill="none" stroke="white" stroke-width="1.5" d="M0,-3.0v7 M-2.5,-0.5L0,-3.0L2.5,-0.5"/>
  </g>
  <g id="arrowLeft" transform="rotate(270) translate(-36 17)">
    <use xlink:href="#rim"/>
    <path pointer-events="none" fill="none" stroke="white" stroke-width="1.5" d="M0,-3.0v7 M-2.5,-0.5L0,-3.0L2.5,-0.5"/>
  </g>
  <g id="resetDef">
    <use xlink:href="#rim2" fill="#404040"><set attributeName="fill" to="#808080" begin="reset.mouseover" end="reset.mouseout"/></use>
  </g>
</defs>
<script type="application/ecmascript">
var viewWidth = 2044;
var viewHeight = 416;
var sectionId = 'dynsection-1';
</script>
<script type="application/ecmascript" xlink:href="svg.min.js"/>
<svg id="graph" class="graph">
<g id="viewport">
<title>dspic33ck&#45;dab.X/sources/fault/fault_common.h</title>
<!-- Node1 -->
<g id="Node000001" class="node">
<title>Node1</title>
<g id="a_Node000001"><a xlink:title="Contains fault generic public functions.">
<polygon fill="#999999" stroke="#666666" points="320.75,-408 196,-408 196,-376 320.75,-376 320.75,-408"/>
<text text-anchor="start" x="204" y="-394.5" font-family="Helvetica,sans-Serif" font-size="10.00">dspic33ck&#45;dab.X/sources</text>
<text text-anchor="middle" x="258.38" y="-382.5" font-family="Helvetica,sans-Serif" font-size="10.00">/fault/fault_common.h</text>
</a>
</g>
</g>
<!-- Node2 -->
<g id="Node000002" class="node">
<title>Node2</title>
<g id="a_Node000002"><a xlink:href="a00380.html" target="_top" xlink:title="Contains fault functions including the fault handler, fault object initialization and fault execution...">
<polygon fill="white" stroke="#666666" points="124.75,-38 0,-38 0,-6 124.75,-6 124.75,-38"/>
<text text-anchor="start" x="8" y="-24.5" font-family="Helvetica,sans-Serif" font-size="10.00">dspic33ck&#45;dab.X/sources</text>
<text text-anchor="middle" x="62.38" y="-12.5" font-family="Helvetica,sans-Serif" font-size="10.00">/fault/fault.c</text>
</a>
</g>
</g>
<!-- Node1&#45;&gt;Node2 -->
<g id="edge1_Node000001_Node000002" class="edge">
<title>Node1&#45;&gt;Node2</title>
<g id="a_edge1_Node000001_Node000002"><a xlink:title=" ">
<path fill="none" stroke="#63b8ff" d="M213.2,-370.59C172.62,-348.8 119.38,-310.11 119.38,-257 119.38,-257 119.38,-257 119.38,-181 119.38,-125.89 88.31,-66.03 72.04,-38.48"/>
<polygon fill="#63b8ff" stroke="#63b8ff" points="211.45,-374.14 221.94,-375.63 214.67,-367.92 211.45,-374.14"/>
</a>
</g>
</g>
<!-- Node3 -->
<g id="Node000003" class="node">
<title>Node3</title>
<g id="a_Node000003"><a xlink:href="a00392.html" target="_top" xlink:title="Contains API functions for fault protection.">
<polygon fill="white" stroke="#666666" points="283.62,-38 143.12,-38 143.12,-6 283.62,-6 283.62,-38"/>
<text text-anchor="start" x="151.12" y="-24.5" font-family="Helvetica,sans-Serif" font-size="10.00">dspic33ck&#45;dab.X/sources</text>
<text text-anchor="middle" x="213.38" y="-12.5" font-family="Helvetica,sans-Serif" font-size="10.00">/fault/fault_comm_interface.c</text>
</a>
</g>
</g>
<!-- Node1&#45;&gt;Node3 -->
<g id="edge2_Node000001_Node000003" class="edge">
<title>Node1&#45;&gt;Node3</title>
<g id="a_edge2_Node000001_Node000003"><a xlink:title=" ">
<path fill="none" stroke="#63b8ff" d="M244.18,-366.19C239.94,-358.03 235.57,-348.8 232.38,-340 219.46,-304.43 213.38,-294.84 213.38,-257 213.38,-257 213.38,-257 213.38,-181 213.38,-128.61 213.38,-66.44 213.38,-38.25"/>
<polygon fill="#63b8ff" stroke="#63b8ff" points="241.55,-367.69 249.38,-374.82 247.71,-364.36 241.55,-367.69"/>
</a>
</g>
</g>
<!-- Node4 -->
<g id="Node000004" class="node">
<title>Node4</title>
<g id="a_Node000004"><a xlink:href="a00386_source.html" target="_top" xlink:title=" ">
<polygon fill="white" stroke="#666666" points="365.75,-340 241,-340 241,-308 365.75,-308 365.75,-340"/>
<text text-anchor="start" x="249" y="-326.5" font-family="Helvetica,sans-Serif" font-size="10.00">dspic33ck&#45;dab.X/sources</text>
<text text-anchor="middle" x="303.38" y="-314.5" font-family="Helvetica,sans-Serif" font-size="10.00">/fault/fault_common.c</text>
</a>
</g>
</g>
<!-- Node1&#45;&gt;Node4 -->
<g id="edge3_Node000001_Node000004" class="edge">
<title>Node1&#45;&gt;Node4</title>
<g id="a_edge3_Node000001_Node000004"><a xlink:title=" ">
<path fill="none" stroke="#63b8ff" d="M274.83,-366.87C280.9,-357.96 287.61,-348.12 292.99,-340.22"/>
<polygon fill="#63b8ff" stroke="#63b8ff" points="271.55,-364.46 268.81,-374.69 277.34,-368.4 271.55,-364.46"/>
</a>
</g>
</g>
<!-- Node5 -->
<g id="Node000005" class="node">
<title>Node5</title>
<g id="a_Node000005"><a xlink:href="a00398.html" target="_top" xlink:title="Contains fault data types.">
<polygon fill="white" stroke="#666666" points="962.75,-340 838,-340 838,-308 962.75,-308 962.75,-340"/>
<text text-anchor="start" x="846" y="-326.5" font-family="Helvetica,sans-Serif" font-size="10.00">dspic33ck&#45;dab.X/sources</text>
<text text-anchor="middle" x="900.38" y="-314.5" font-family="Helvetica,sans-Serif" font-size="10.00">/fault/fault_typedef.h</text>
</a>
</g>
</g>
<!-- Node1&#45;&gt;Node5 -->
<g id="edge4_Node000001_Node000005" class="edge">
<title>Node1&#45;&gt;Node5</title>
<g id="a_edge4_Node000001_Node000005"><a xlink:title=" ">
<path fill="none" stroke="#63b8ff" d="M331.89,-383.44C459.23,-370.35 718.63,-343.68 837.87,-331.43"/>
<polygon fill="#63b8ff" stroke="#63b8ff" points="331.69,-380.05 322.1,-384.55 332.41,-387.01 331.69,-380.05"/>
</a>
</g>
</g>
<!-- Node6 -->
<g id="Node000006" class="node">
<title>Node6</title>
<g id="a_Node000006"><a xlink:href="a00500_source.html" target="_top" xlink:title=" ">
<polygon fill="white" stroke="#666666" points="1371.75,-272 1247,-272 1247,-240 1371.75,-240 1371.75,-272"/>
<text text-anchor="start" x="1255" y="-258.5" font-family="Helvetica,sans-Serif" font-size="10.00">dspic33ck&#45;dab.X/sources</text>
<text text-anchor="middle" x="1309.38" y="-246.5" font-family="Helvetica,sans-Serif" font-size="10.00">/pwrctrl/pwrctrl_typedef.h</text>
</a>
</g>
</g>
<!-- Node5&#45;&gt;Node6 -->
<g id="edge5_Node000005_Node000006" class="edge">
<title>Node5&#45;&gt;Node6</title>
<g id="a_edge5_Node000005_Node000006"><a xlink:title=" ">
<path fill="none" stroke="#63b8ff" d="M973.62,-311.18C1051.48,-298.62 1173.3,-278.96 1246.82,-267.09"/>
<polygon fill="#63b8ff" stroke="#63b8ff" points="973.25,-307.86 963.94,-312.9 974.37,-314.77 973.25,-307.86"/>
</a>
</g>
</g>
<!-- Node7 -->
<g id="Node000007" class="node">
<title>Node7</title>
<g id="a_Node000007"><a xlink:href="a00284_source.html" target="_top" xlink:title=" ">
<polygon fill="white" stroke="#666666" points="2036.25,-38 1884.5,-38 1884.5,-6 2036.25,-6 2036.25,-38"/>
<text text-anchor="start" x="1892.5" y="-24.5" font-family="Helvetica,sans-Serif" font-size="10.00">dspic33ck&#45;dab.X/sources</text>
<text text-anchor="middle" x="1960.38" y="-12.5" font-family="Helvetica,sans-Serif" font-size="10.00">/comm/PBV_dab_frame_map.c</text>
</a>
</g>
</g>
<!-- Node6&#45;&gt;Node7 -->
<g id="edge6_Node000006_Node000007" class="edge">
<title>Node6&#45;&gt;Node7</title>
<g id="a_edge6_Node000006_Node000007"><a xlink:title=" ">
<path fill="none" stroke="#63b8ff" d="M1382.96,-253.9C1497.4,-248.91 1720.92,-225.68 1875.38,-124 1909.83,-101.32 1937.86,-60.6 1951.46,-38.42"/>
<polygon fill="#63b8ff" stroke="#63b8ff" points="1383.08,-250.44 1373.23,-254.33 1383.36,-257.43 1383.08,-250.44"/>
</a>
</g>
</g>
<!-- Node8 -->
<g id="Node000008" class="node">
<title>Node8</title>
<g id="a_Node000008"><a xlink:href="a00356.html" target="_top" xlink:title="Contains PWM initialization that was not supported by MCC generated code.">
<polygon fill="white" stroke="#666666" points="1865.88,-124 1732.88,-124 1732.88,-80 1865.88,-80 1865.88,-124"/>
<text text-anchor="start" x="1740.88" y="-110.5" font-family="Helvetica,sans-Serif" font-size="10.00">dspic33ck&#45;dab.X/sources</text>
<text text-anchor="start" x="1740.88" y="-98.5" font-family="Helvetica,sans-Serif" font-size="10.00">/driver/mcc_extension</text>
<text text-anchor="middle" x="1799.38" y="-86.5" font-family="Helvetica,sans-Serif" font-size="10.00">/drv_custom_config_pwm.h</text>
</a>
</g>
</g>
<!-- Node6&#45;&gt;Node8 -->
<g id="edge7_Node000006_Node000008" class="edge">
<title>Node6&#45;&gt;Node8</title>
<g id="a_edge7_Node000006_Node000008"><a xlink:title=" ">
<path fill="none" stroke="#63b8ff" d="M1382.75,-241.1C1427.06,-232.03 1484.43,-219.09 1534.38,-204 1610.96,-180.85 1697.09,-146.4 1749.8,-124.31"/>
<polygon fill="#63b8ff" stroke="#63b8ff" points="1382.17,-237.85 1373.07,-243.26 1383.56,-244.71 1382.17,-237.85"/>
</a>
</g>
</g>
<!-- Node10 -->
<g id="Node000010" class="node">
<title>Node10</title>
<g id="a_Node000010"><a xlink:href="a00383.html" target="_top" xlink:title="Contains public fault functions.">
<polygon fill="white" stroke="#666666" points="878.75,-118 754,-118 754,-86 878.75,-86 878.75,-118"/>
<text text-anchor="start" x="762" y="-104.5" font-family="Helvetica,sans-Serif" font-size="10.00">dspic33ck&#45;dab.X/sources</text>
<text text-anchor="middle" x="816.38" y="-92.5" font-family="Helvetica,sans-Serif" font-size="10.00">/fault/fault.h</text>
</a>
</g>
</g>
<!-- Node6&#45;&gt;Node10 -->
<g id="edge9_Node000006_Node000010" class="edge">
<title>Node6&#45;&gt;Node10</title>
<g id="a_edge9_Node000006_Node000010"><a xlink:title=" ">
<path fill="none" stroke="#63b8ff" d="M1235.66,-248.06C1175.96,-241.03 1090.25,-227.71 1018.38,-204 951.16,-181.83 878.31,-140.71 841.18,-118.39"/>
<polygon fill="#63b8ff" stroke="#63b8ff" points="1235.17,-251.64 1245.5,-249.3 1235.96,-244.69 1235.17,-251.64"/>
</a>
</g>
</g>
<!-- Node17 -->
<g id="Node000017" class="node">
<title>Node17</title>
<g id="a_Node000017"><a xlink:href="a00467_source.html" target="_top" xlink:title=" ">
<polygon fill="white" stroke="#666666" points="1151.75,-118 1027,-118 1027,-86 1151.75,-86 1151.75,-118"/>
<text text-anchor="start" x="1035" y="-104.5" font-family="Helvetica,sans-Serif" font-size="10.00">dspic33ck&#45;dab.X/sources</text>
<text text-anchor="middle" x="1089.38" y="-92.5" font-family="Helvetica,sans-Serif" font-size="10.00">/pwrctrl/pwrctrl.h</text>
</a>
</g>
</g>
<!-- Node6&#45;&gt;Node17 -->
<g id="edge18_Node000006_Node000017" class="edge">
<title>Node6&#45;&gt;Node17</title>
<g id="a_edge18_Node000006_Node000017"><a xlink:title=" ">
<path fill="none" stroke="#63b8ff" d="M1278.05,-233.36C1233.04,-202.26 1151.15,-145.68 1111.74,-118.45"/>
<polygon fill="#63b8ff" stroke="#63b8ff" points="1275.85,-236.78 1286.07,-239.59 1279.83,-231.03 1275.85,-236.78"/>
</a>
</g>
</g>
<!-- Node21 -->
<g id="Node000021" class="node">
<title>Node21</title>
<g id="a_Node000021"><a xlink:href="a00491.html" target="_top" xlink:title="Contains DAB control phase calculation between primary and secondary, and the PWM distribution.">
<polygon fill="white" stroke="#666666" points="1580.75,-38 1456,-38 1456,-6 1580.75,-6 1580.75,-38"/>
<text text-anchor="start" x="1464" y="-24.5" font-family="Helvetica,sans-Serif" font-size="10.00">dspic33ck&#45;dab.X/sources</text>
<text text-anchor="middle" x="1518.38" y="-12.5" font-family="Helvetica,sans-Serif" font-size="10.00">/pwrctrl/pwrctrl_pwm.c</text>
</a>
</g>
</g>
<!-- Node6&#45;&gt;Node21 -->
<g id="edge37_Node000006_Node000021" class="edge">
<title>Node6&#45;&gt;Node21</title>
<g id="a_edge37_Node000006_Node000021"><a xlink:title=" ">
<path fill="none" stroke="#63b8ff" d="M1329.58,-231.54C1346.28,-212.23 1370.7,-184.18 1392.38,-160 1432.28,-115.49 1480.31,-63.76 1503.88,-38.5"/>
<polygon fill="#63b8ff" stroke="#63b8ff" points="1326.37,-228.9 1322.48,-238.76 1331.67,-233.48 1326.37,-228.9"/>
</a>
</g>
</g>
<!-- Node22 -->
<g id="Node000022" class="node">
<title>Node22</title>
<g id="a_Node000022"><a xlink:href="a00479.html" target="_top" xlink:title="Contains public functions relevant for power control communication interface.">
<polygon fill="white" stroke="#666666" points="1525.75,-204 1401,-204 1401,-160 1525.75,-160 1525.75,-204"/>
<text text-anchor="start" x="1409" y="-190.5" font-family="Helvetica,sans-Serif" font-size="10.00">dspic33ck&#45;dab.X/sources</text>
<text text-anchor="start" x="1409" y="-178.5" font-family="Helvetica,sans-Serif" font-size="10.00">/pwrctrl/pwrctrl_comm</text>
<text text-anchor="middle" x="1463.38" y="-166.5" font-family="Helvetica,sans-Serif" font-size="10.00">_interface.h</text>
</a>
</g>
</g>
<!-- Node6&#45;&gt;Node22 -->
<g id="edge33_Node000006_Node000022" class="edge">
<title>Node6&#45;&gt;Node22</title>
<g id="a_edge33_Node000006_Node000022"><a xlink:title=" ">
<path fill="none" stroke="#63b8ff" d="M1352.33,-234.92C1372.63,-225.43 1396.89,-214.09 1417.54,-204.43"/>
<polygon fill="#63b8ff" stroke="#63b8ff" points="1350.99,-232.15 1343.41,-239.55 1353.95,-238.49 1350.99,-232.15"/>
</a>
</g>
</g>
<!-- Node23 -->
<g id="Node000023" class="node">
<title>Node23</title>
<g id="a_Node000023"><a xlink:href="a00494.html" target="_top" xlink:title="Contains public functions for PWM.">
<polygon fill="white" stroke="#666666" points="1151.75,-198 1027,-198 1027,-166 1151.75,-166 1151.75,-198"/>
<text text-anchor="start" x="1035" y="-184.5" font-family="Helvetica,sans-Serif" font-size="10.00">dspic33ck&#45;dab.X/sources</text>
<text text-anchor="middle" x="1089.38" y="-172.5" font-family="Helvetica,sans-Serif" font-size="10.00">/pwrctrl/pwrctrl_pwm.h</text>
</a>
</g>
</g>
<!-- Node6&#45;&gt;Node23 -->
<g id="edge38_Node000006_Node000023" class="edge">
<title>Node6&#45;&gt;Node23</title>
<g id="a_edge38_Node000006_Node000023"><a xlink:title=" ">
<path fill="none" stroke="#63b8ff" d="M1251.85,-236.17C1215.93,-224.42 1170.26,-209.47 1136.49,-198.42"/>
<polygon fill="#63b8ff" stroke="#63b8ff" points="1250.59,-239.77 1261.18,-239.55 1252.76,-233.12 1250.59,-239.77"/>
</a>
</g>
</g>
<!-- Node9 -->
<g id="Node000009" class="node">
<title>Node9</title>
<g id="a_Node000009"><a xlink:href="a00368_source.html" target="_top" xlink:title=" ">
<polygon fill="white" stroke="#666666" points="1866.75,-44 1742,-44 1742,0 1866.75,0 1866.75,-44"/>
<text text-anchor="start" x="1750" y="-30.5" font-family="Helvetica,sans-Serif" font-size="10.00">dspic33ck&#45;dab.X/sources</text>
<text text-anchor="start" x="1750" y="-18.5" font-family="Helvetica,sans-Serif" font-size="10.00">/driver/mcc_extension</text>
<text text-anchor="middle" x="1804.38" y="-6.5" font-family="Helvetica,sans-Serif" font-size="10.00">/mcc_custom_config.c</text>
</a>
</g>
</g>
<!-- Node8&#45;&gt;Node9 -->
<g id="edge8_Node000008_Node000009" class="edge">
<title>Node8&#45;&gt;Node9</title>
<g id="a_edge8_Node000008_Node000009"><a xlink:title=" ">
<path fill="none" stroke="#63b8ff" d="M1801.44,-68.82C1801.97,-60.54 1802.53,-51.85 1803.01,-44.29"/>
<polygon fill="#63b8ff" stroke="#63b8ff" points="1797.89,-68.48 1800.74,-78.69 1804.87,-68.93 1797.89,-68.48"/>
</a>
</g>
</g>
<!-- Node10&#45;&gt;Node2 -->
<g id="edge12_Node000010_Node000002" class="edge">
<title>Node10&#45;&gt;Node2</title>
<g id="a_edge12_Node000010_Node000002"><a xlink:title=" ">
<path fill="none" stroke="#63b8ff" d="M743.13,-99.68C617.54,-96.35 353.45,-84.68 134.38,-44 126.57,-42.55 118.39,-40.6 110.47,-38.47"/>
<polygon fill="#63b8ff" stroke="#63b8ff" points="742.67,-103.19 752.76,-99.95 742.85,-96.2 742.67,-103.19"/>
</a>
</g>
</g>
<!-- Node10&#45;&gt;Node10 -->
<g id="edge13_Node000010_Node000010" class="edge">
<title>Node10&#45;&gt;Node10</title>
<g id="a_edge13_Node000010_Node000010"><a xlink:title=" ">
<path fill="none" stroke="#63b8ff" d="M889.26,-112.61C893.93,-110.13 896.75,-106.59 896.75,-102 896.75,-94.66 889.53,-90.01 879.06,-88.06"/>
<polygon fill="#63b8ff" stroke="#63b8ff" points="888.47,-109.51 880.06,-115.94 890.65,-116.16 888.47,-109.51"/>
</a>
</g>
</g>
<!-- Node11 -->
<g id="Node000011" class="node">
<title>Node11</title>
<g id="a_Node000011"><a xlink:href="a00080_source.html" target="_top" xlink:title=" ">
<polygon fill="white" stroke="#666666" points="876.12,-32 756.62,-32 756.62,-12 876.12,-12 876.12,-32"/>
<text text-anchor="middle" x="816.38" y="-18.5" font-family="Helvetica,sans-Serif" font-size="10.00">dspic33ck&#45;dab.X/main.c</text>
</a>
</g>
</g>
<!-- Node10&#45;&gt;Node11 -->
<g id="edge10_Node000010_Node000011" class="edge">
<title>Node10&#45;&gt;Node11</title>
<g id="a_edge10_Node000010_Node000011"><a xlink:title=" ">
<path fill="none" stroke="#63b8ff" d="M816.38,-74.66C816.38,-60.11 816.38,-42.91 816.38,-32.49"/>
<polygon fill="#63b8ff" stroke="#63b8ff" points="812.88,-74.59 816.38,-84.59 819.88,-74.59 812.88,-74.59"/>
</a>
</g>
</g>
<!-- Node12 -->
<g id="Node000012" class="node">
<title>Node12</title>
<g id="a_Node000012"><a xlink:href="a00083_source.html" target="_top" xlink:title=" ">
<polygon fill="white" stroke="#666666" points="1005,-38 893.75,-38 893.75,-6 1005,-6 1005,-38"/>
<text text-anchor="start" x="901.75" y="-24.5" font-family="Helvetica,sans-Serif" font-size="10.00">dspic33ck&#45;dab.X/main</text>
<text text-anchor="middle" x="949.38" y="-12.5" font-family="Helvetica,sans-Serif" font-size="10.00">_tasks.c</text>
</a>
</g>
</g>
<!-- Node10&#45;&gt;Node12 -->
<g id="edge11_Node000010_Node000012" class="edge">
<title>Node10&#45;&gt;Node12</title>
<g id="a_edge11_Node000010_Node000012"><a xlink:title=" ">
<path fill="none" stroke="#63b8ff" d="M851.85,-80.2C874.27,-67.04 902.77,-50.33 923.15,-38.38"/>
<polygon fill="#63b8ff" stroke="#63b8ff" points="850.51,-77.51 843.65,-85.59 854.05,-83.55 850.51,-77.51"/>
</a>
</g>
</g>
<!-- Node13 -->
<g id="Node000013" class="node">
<title>Node13</title>
<g id="a_Node000013"><a xlink:href="a00464.html" target="_top" xlink:title="Contains power control initialization including control loop initialization and start&#45;up initializati...">
<polygon fill="white" stroke="#666666" points="1147.75,-38 1023,-38 1023,-6 1147.75,-6 1147.75,-38"/>
<text text-anchor="start" x="1031" y="-24.5" font-family="Helvetica,sans-Serif" font-size="10.00">dspic33ck&#45;dab.X/sources</text>
<text text-anchor="middle" x="1085.38" y="-12.5" font-family="Helvetica,sans-Serif" font-size="10.00">/pwrctrl/pwrctrl.c</text>
</a>
</g>
</g>
<!-- Node10&#45;&gt;Node13 -->
<g id="edge14_Node000010_Node000013" class="edge">
<title>Node10&#45;&gt;Node13</title>
<g id="a_edge14_Node000010_Node000013"><a xlink:title=" ">
<path fill="none" stroke="#63b8ff" d="M880.71,-82.61C919.46,-71.5 969.77,-57.02 1014.38,-44 1020.54,-42.2 1027.01,-40.3 1033.43,-38.41"/>
<polygon fill="#63b8ff" stroke="#63b8ff" points="880.26,-79.38 871.61,-85.5 882.19,-86.11 880.26,-79.38"/>
</a>
</g>
</g>
<!-- Node14 -->
<g id="Node000014" class="node">
<title>Node14</title>
<g id="a_Node000014"><a xlink:href="a00482.html" target="_top" xlink:title="Contains Control loop interrupt Callback that acquires the ADC raw data and process it in the control...">
<polygon fill="white" stroke="#666666" points="426.75,-38 302,-38 302,-6 426.75,-6 426.75,-38"/>
<text text-anchor="start" x="310" y="-24.5" font-family="Helvetica,sans-Serif" font-size="10.00">dspic33ck&#45;dab.X/sources</text>
<text text-anchor="middle" x="364.38" y="-12.5" font-family="Helvetica,sans-Serif" font-size="10.00">/pwrctrl/pwrctrl_isr.c</text>
</a>
</g>
</g>
<!-- Node10&#45;&gt;Node14 -->
<g id="edge15_Node000010_Node000014" class="edge">
<title>Node10&#45;&gt;Node14</title>
<g id="a_edge15_Node000010_Node000014"><a xlink:title=" ">
<path fill="none" stroke="#63b8ff" d="M743.17,-92.99C666.25,-83.89 542.01,-67.22 436.38,-44 429.13,-42.41 421.54,-40.48 414.12,-38.45"/>
<polygon fill="#63b8ff" stroke="#63b8ff" points="742.36,-96.54 752.7,-94.23 743.18,-89.59 742.36,-96.54"/>
</a>
</g>
</g>
<!-- Node15 -->
<g id="Node000015" class="node">
<title>Node15</title>
<g id="a_Node000015"><a xlink:href="a00488.html" target="_top" xlink:title="Contains some of the functions used in the interrupt service routine of control loop.">
<polygon fill="white" stroke="#666666" points="595.5,-38 445.25,-38 445.25,-6 595.5,-6 595.5,-38"/>
<text text-anchor="start" x="453.25" y="-24.5" font-family="Helvetica,sans-Serif" font-size="10.00">dspic33ck&#45;dab.X/sources</text>
<text text-anchor="middle" x="520.38" y="-12.5" font-family="Helvetica,sans-Serif" font-size="10.00">/pwrctrl/pwrctrl_isr_extension.c</text>
</a>
</g>
</g>
<!-- Node10&#45;&gt;Node15 -->
<g id="edge16_Node000010_Node000015" class="edge">
<title>Node10&#45;&gt;Node15</title>
<g id="a_edge16_Node000010_Node000015"><a xlink:title=" ">
<path fill="none" stroke="#63b8ff" d="M747.28,-82.79C696.2,-69.33 627.39,-51.2 578.99,-38.44"/>
<polygon fill="#63b8ff" stroke="#63b8ff" points="746.33,-86.43 756.89,-85.59 748.12,-79.66 746.33,-86.43"/>
</a>
</g>
</g>
<!-- Node16 -->
<g id="Node000016" class="node">
<title>Node16</title>
<g id="a_Node000016"><a xlink:href="a00497.html" target="_top" xlink:title="Contains power control state machine functions that is executed every 100us.">
<polygon fill="white" stroke="#666666" points="738.75,-38 614,-38 614,-6 738.75,-6 738.75,-38"/>
<text text-anchor="start" x="622" y="-24.5" font-family="Helvetica,sans-Serif" font-size="10.00">dspic33ck&#45;dab.X/sources</text>
<text text-anchor="middle" x="676.38" y="-12.5" font-family="Helvetica,sans-Serif" font-size="10.00">/pwrctrl/pwrctrl_sm.c</text>
</a>
</g>
</g>
<!-- Node10&#45;&gt;Node16 -->
<g id="edge17_Node000010_Node000016" class="edge">
<title>Node10&#45;&gt;Node16</title>
<g id="a_edge17_Node000010_Node000016"><a xlink:title=" ">
<path fill="none" stroke="#63b8ff" d="M779.35,-80.37C755.7,-67.19 725.53,-50.39 703.98,-38.38"/>
<polygon fill="#63b8ff" stroke="#63b8ff" points="777.28,-83.78 787.72,-85.59 780.68,-77.67 777.28,-83.78"/>
</a>
</g>
</g>
<!-- Node17&#45;&gt;Node2 -->
<g id="edge24_Node000017_Node000002" class="edge">
<title>Node17&#45;&gt;Node2</title>
<g id="a_edge24_Node000017_Node000002"><a xlink:title=" ">
<path fill="none" stroke="#63b8ff" d="M1016.19,-91.51C982.5,-87.43 941.96,-82.94 905.38,-80 563.44,-52.54 472.74,-100.42 134.38,-44 126.16,-42.63 117.55,-40.63 109.25,-38.41"/>
<polygon fill="#63b8ff" stroke="#63b8ff" points="1015.53,-95.08 1025.88,-92.82 1016.38,-88.13 1015.53,-95.08"/>
</a>
</g>
</g>
<!-- Node17&#45;&gt;Node3 -->
<g id="edge25_Node000017_Node000003" class="edge">
<title>Node17&#45;&gt;Node3</title>
<g id="a_edge25_Node000017_Node000003"><a xlink:title=" ">
<path fill="none" stroke="#63b8ff" d="M1016.18,-91.71C982.48,-87.68 941.94,-83.16 905.38,-80 633.92,-56.54 562.46,-86.8 293.38,-44 284.58,-42.6 275.36,-40.65 266.42,-38.49"/>
<polygon fill="#63b8ff" stroke="#63b8ff" points="1015.52,-95.28 1025.87,-93 1016.36,-88.33 1015.52,-95.28"/>
</a>
</g>
</g>
<!-- Node17&#45;&gt;Node7 -->
<g id="edge21_Node000017_Node000007" class="edge">
<title>Node17&#45;&gt;Node7</title>
<g id="a_edge21_Node000017_Node000007"><a xlink:title=" ">
<path fill="none" stroke="#63b8ff" d="M1163.17,-99.82C1302.97,-96.66 1615.7,-85.19 1875.38,-44 1884.53,-42.55 1894.15,-40.59 1903.49,-38.46"/>
<polygon fill="#63b8ff" stroke="#63b8ff" points="1163.12,-96.34 1153.2,-100.06 1163.27,-103.34 1163.12,-96.34"/>
</a>
</g>
</g>
<!-- Node17&#45;&gt;Node9 -->
<g id="edge23_Node000017_Node000009" class="edge">
<title>Node17&#45;&gt;Node9</title>
<g id="a_edge23_Node000017_Node000009"><a xlink:title=" ">
<path fill="none" stroke="#63b8ff" d="M1162.88,-99.15C1282.99,-95.08 1528.39,-82.41 1732.38,-44 1735.45,-43.42 1738.57,-42.77 1741.72,-42.06"/>
<polygon fill="#63b8ff" stroke="#63b8ff" points="1162.88,-95.68 1153,-99.5 1163.11,-102.67 1162.88,-95.68"/>
</a>
</g>
</g>
<!-- Node17&#45;&gt;Node11 -->
<g id="edge19_Node000017_Node000011" class="edge">
<title>Node17&#45;&gt;Node11</title>
<g id="a_edge19_Node000017_Node000011"><a xlink:title=" ">
<path fill="none" stroke="#63b8ff" d="M1021.81,-82.73C981.78,-71.78 930.09,-57.41 884.38,-44 871.93,-40.35 858.25,-36.16 846.45,-32.49"/>
<polygon fill="#63b8ff" stroke="#63b8ff" points="1020.69,-86.33 1031.25,-85.58 1022.53,-79.57 1020.69,-86.33"/>
</a>
</g>
</g>
<!-- Node17&#45;&gt;Node12 -->
<g id="edge20_Node000017_Node000012" class="edge">
<title>Node17&#45;&gt;Node12</title>
<g id="a_edge20_Node000017_Node000012"><a xlink:title=" ">
<path fill="none" stroke="#63b8ff" d="M1052.35,-80.37C1028.7,-67.19 998.53,-50.39 976.98,-38.38"/>
<polygon fill="#63b8ff" stroke="#63b8ff" points="1050.28,-83.78 1060.72,-85.59 1053.68,-77.67 1050.28,-83.78"/>
</a>
</g>
</g>
<!-- Node17&#45;&gt;Node13 -->
<g id="edge26_Node000017_Node000013" class="edge">
<title>Node17&#45;&gt;Node13</title>
<g id="a_edge26_Node000017_Node000013"><a xlink:title=" ">
<path fill="none" stroke="#63b8ff" d="M1088.03,-74.74C1087.41,-62.65 1086.69,-48.73 1086.16,-38.38"/>
<polygon fill="#63b8ff" stroke="#63b8ff" points="1084.58,-74.78 1088.58,-84.59 1091.57,-74.42 1084.58,-74.78"/>
</a>
</g>
</g>
<!-- Node17&#45;&gt;Node14 -->
<g id="edge29_Node000017_Node000014" class="edge">
<title>Node17&#45;&gt;Node14</title>
<g id="a_edge29_Node000017_Node000014"><a xlink:title=" ">
<path fill="none" stroke="#63b8ff" d="M1016.15,-92.01C982.45,-88.04 941.91,-83.49 905.38,-80 697.26,-60.14 642.05,-81.47 436.38,-44 428.43,-42.55 420.11,-40.58 412.07,-38.41"/>
<polygon fill="#63b8ff" stroke="#63b8ff" points="1015.5,-95.58 1025.84,-93.28 1016.32,-88.63 1015.5,-95.58"/>
</a>
</g>
</g>
<!-- Node17&#45;&gt;Node15 -->
<g id="edge30_Node000017_Node000015" class="edge">
<title>Node17&#45;&gt;Node15</title>
<g id="a_edge30_Node000017_Node000015"><a xlink:title=" ">
<path fill="none" stroke="#63b8ff" d="M1016.21,-92.63C885.9,-77.68 625.29,-47.62 605.38,-44 596.7,-42.42 587.59,-40.48 578.7,-38.43"/>
<polygon fill="#63b8ff" stroke="#63b8ff" points="1015.55,-96.19 1025.89,-93.85 1016.35,-89.23 1015.55,-96.19"/>
</a>
</g>
</g>
<!-- Node17&#45;&gt;Node16 -->
<g id="edge32_Node000017_Node000016" class="edge">
<title>Node17&#45;&gt;Node16</title>
<g id="a_edge32_Node000017_Node000016"><a xlink:title=" ">
<path fill="none" stroke="#63b8ff" d="M1015.67,-91.38C946.06,-81.66 838.97,-65.09 747.38,-44 740.36,-42.38 733.02,-40.47 725.82,-38.47"/>
<polygon fill="#63b8ff" stroke="#63b8ff" points="1015.13,-94.97 1025.52,-92.88 1016.09,-88.04 1015.13,-94.97"/>
</a>
</g>
</g>
<!-- Node18 -->
<g id="Node000018" class="node">
<title>Node18</title>
<g id="a_Node000018"><a xlink:href="a00347_source.html" target="_top" xlink:title=" ">
<polygon fill="white" stroke="#666666" points="1723.75,-38 1599,-38 1599,-6 1723.75,-6 1723.75,-38"/>
<text text-anchor="start" x="1607" y="-24.5" font-family="Helvetica,sans-Serif" font-size="10.00">dspic33ck&#45;dab.X/sources</text>
<text text-anchor="middle" x="1661.38" y="-12.5" font-family="Helvetica,sans-Serif" font-size="10.00">/device/dev_temp.c</text>
</a>
</g>
</g>
<!-- Node17&#45;&gt;Node18 -->
<g id="edge22_Node000017_Node000018" class="edge">
<title>Node17&#45;&gt;Node18</title>
<g id="a_edge22_Node000017_Node000018"><a xlink:title=" ">
<path fill="none" stroke="#63b8ff" d="M1162.84,-96.55C1260.86,-89.73 1439.48,-74.17 1589.38,-44 1596.91,-42.48 1604.79,-40.55 1612.46,-38.47"/>
<polygon fill="#63b8ff" stroke="#63b8ff" points="1162.61,-93.13 1152.87,-97.3 1163.09,-100.11 1162.61,-93.13"/>
</a>
</g>
</g>
<!-- Node19 -->
<g id="Node000019" class="node">
<title>Node19</title>
<g id="a_Node000019"><a xlink:href="a00476.html" target="_top" xlink:title="Contains power control interface with communication/gui.">
<polygon fill="white" stroke="#666666" points="1290.75,-44 1166,-44 1166,0 1290.75,0 1290.75,-44"/>
<text text-anchor="start" x="1174" y="-30.5" font-family="Helvetica,sans-Serif" font-size="10.00">dspic33ck&#45;dab.X/sources</text>
<text text-anchor="start" x="1174" y="-18.5" font-family="Helvetica,sans-Serif" font-size="10.00">/pwrctrl/pwrctrl_comm</text>
<text text-anchor="middle" x="1228.38" y="-6.5" font-family="Helvetica,sans-Serif" font-size="10.00">_interface.c</text>
</a>
</g>
</g>
<!-- Node17&#45;&gt;Node19 -->
<g id="edge27_Node000017_Node000019" class="edge">
<title>Node17&#45;&gt;Node19</title>
<g id="a_edge27_Node000017_Node000019"><a xlink:title=" ">
<path fill="none" stroke="#63b8ff" d="M1126.4,-80.22C1146.1,-69.17 1170.3,-55.59 1190.18,-44.43"/>
<polygon fill="#63b8ff" stroke="#63b8ff" points="1124.84,-77.64 1117.84,-85.59 1128.27,-83.75 1124.84,-77.64"/>
</a>
</g>
</g>
<!-- Node20 -->
<g id="Node000020" class="node">
<title>Node20</title>
<g id="a_Node000020"><a xlink:href="a00470.html" target="_top" xlink:title="Contains generic functions that handles power control ramp Up/Down and the averaging generic function...">
<polygon fill="white" stroke="#666666" points="1438.38,-38 1308.38,-38 1308.38,-6 1438.38,-6 1438.38,-38"/>
<text text-anchor="start" x="1316.38" y="-24.5" font-family="Helvetica,sans-Serif" font-size="10.00">dspic33ck&#45;dab.X/sources</text>
<text text-anchor="middle" x="1373.38" y="-12.5" font-family="Helvetica,sans-Serif" font-size="10.00">/pwrctrl/pwrctrl_common.c</text>
</a>
</g>
</g>
<!-- Node17&#45;&gt;Node20 -->
<g id="edge28_Node000017_Node000020" class="edge">
<title>Node17&#45;&gt;Node20</title>
<g id="a_edge28_Node000017_Node000020"><a xlink:title=" ">
<path fill="none" stroke="#63b8ff" d="M1157.36,-82.76C1198.5,-71.67 1251.99,-57.15 1299.38,-44 1305.81,-42.21 1312.55,-40.32 1319.24,-38.44"/>
<polygon fill="#63b8ff" stroke="#63b8ff" points="1156.66,-79.59 1147.91,-85.57 1158.48,-86.35 1156.66,-79.59"/>
</a>
</g>
</g>
<!-- Node17&#45;&gt;Node21 -->
<g id="edge31_Node000017_Node000021" class="edge">
<title>Node17&#45;&gt;Node21</title>
<g id="a_edge31_Node000017_Node000021"><a xlink:title=" ">
<path fill="none" stroke="#63b8ff" d="M1162.8,-92.14C1235.54,-82.71 1349.87,-66.08 1447.38,-44 1454.52,-42.38 1462,-40.44 1469.32,-38.41"/>
<polygon fill="#63b8ff" stroke="#63b8ff" points="1162.4,-88.79 1152.93,-93.54 1163.29,-95.74 1162.4,-88.79"/>
</a>
</g>
</g>
<!-- Node22&#45;&gt;Node7 -->
<g id="edge34_Node000022_Node000007" class="edge">
<title>Node22&#45;&gt;Node7</title>
<g id="a_edge34_Node000022_Node000007"><a xlink:title=" ">
<path fill="none" stroke="#63b8ff" d="M1522.82,-155.35C1575.2,-133.38 1653.92,-101.92 1724.38,-80 1790.25,-59.5 1808.33,-60.27 1875.38,-44 1882.76,-42.21 1890.5,-40.31 1898.18,-38.43"/>
<polygon fill="#63b8ff" stroke="#63b8ff" points="1521.56,-152.5 1513.7,-159.61 1524.28,-158.95 1521.56,-152.5"/>
</a>
</g>
</g>
<!-- Node22&#45;&gt;Node17 -->
<g id="edge36_Node000022_Node000017" class="edge">
<title>Node22&#45;&gt;Node17</title>
<g id="a_edge36_Node000022_Node000017"><a xlink:title=" ">
<path fill="none" stroke="#63b8ff" d="M1390.38,-165.78C1321.05,-151.32 1217.92,-129.81 1152.18,-116.1"/>
<polygon fill="#63b8ff" stroke="#63b8ff" points="1389.27,-169.33 1399.78,-167.94 1390.7,-162.48 1389.27,-169.33"/>
</a>
</g>
</g>
<!-- Node22&#45;&gt;Node18 -->
<g id="edge35_Node000022_Node000018" class="edge">
<title>Node22&#45;&gt;Node18</title>
<g id="a_edge35_Node000022_Node000018"><a xlink:title=" ">
<path fill="none" stroke="#63b8ff" d="M1498.6,-152.89C1540.54,-119.42 1609.06,-64.75 1642.21,-38.29"/>
<polygon fill="#63b8ff" stroke="#63b8ff" points="1496.71,-150.72 1491.08,-159.69 1501.08,-156.19 1496.71,-150.72"/>
</a>
</g>
</g>
<!-- Node23&#45;&gt;Node10 -->
<g id="edge39_Node000023_Node000010" class="edge">
<title>Node23&#45;&gt;Node10</title>
<g id="a_edge39_Node000023_Node000010"><a xlink:title=" ">
<path fill="none" stroke="#63b8ff" d="M1025.04,-162.62C977.9,-149.15 914.66,-131.08 870.2,-118.38"/>
<polygon fill="#63b8ff" stroke="#63b8ff" points="1023.86,-166.21 1034.44,-165.59 1025.79,-159.48 1023.86,-166.21"/>
</a>
</g>
</g>
<!-- Node23&#45;&gt;Node17 -->
<g id="edge40_Node000023_Node000017" class="edge">
<title>Node23&#45;&gt;Node17</title>
<g id="a_edge40_Node000023_Node000017"><a xlink:title=" ">
<path fill="none" stroke="#63b8ff" d="M1089.38,-154.74C1089.38,-142.65 1089.38,-128.73 1089.38,-118.38"/>
<polygon fill="#63b8ff" stroke="#63b8ff" points="1085.88,-154.59 1089.38,-164.59 1092.88,-154.59 1085.88,-154.59"/>
</a>
</g>
</g>
</g>
</svg>

<g id="navigator" transform="translate(0 0)" fill="#404254">
  <rect fill="#f2f5e9" fill-opacity="0.5" stroke="#606060" stroke-width=".5" x="0" y="0" width="60" height="60"/>
  <use id="zoomplus" xlink:href="#zoomPlus" x="17" y="9" onmousedown="handleZoom(evt,'in')"/>
  <use id="zoomminus" xlink:href="#zoomMin" x="42" y="9" onmousedown="handleZoom(evt,'out')"/>
  <use id="reset" xlink:href="#resetDef" x="30" y="36" onmousedown="handleReset()"/>
   <use id="arrowup" xlink:href="#arrowUp" x="0" y="0" onmousedown="handlePan(0,-1)"/>
  <use id="arrowright" xlink:href="#arrowRight" x="0" y="0" onmousedown="handlePan(1,0)"/>
  <use id="arrowdown" xlink:href="#arrowDown" x="0" y="0" onmousedown="handlePan(0,1)"/>
  <use id="arrowleft" xlink:href="#arrowLeft" x="0" y="0" onmousedown="handlePan(-1,0)"/>
</g>
<svg viewBox="0 0 15 15" width="100%" height="30px" preserveAspectRatio="xMaxYMin meet">
 <g id="arrow_out" transform="scale(0.3 0.3)">
  <a xlink:href="a00391_org.svg" target="_base">
   <rect id="button" ry="5" rx="5" y="6" x="6" height="38" width="38"
        fill="#f2f5e9" fill-opacity="0.5" stroke="#606060" stroke-width="1.0"/>
   <path id="arrow"
     d="M 11.500037,31.436501 C 11.940474,20.09759 22.043105,11.32322 32.158766,21.979434 L 37.068811,17.246167 C 37.068811,17.246167 37.088388,32 37.088388,32 L 22.160133,31.978069 C 22.160133,31.978069 26.997745,27.140456 26.997745,27.140456 C 18.528582,18.264221 13.291696,25.230495 11.500037,31.436501 z"
     style="fill:#404040;"/>
  </a>
 </g>
</svg>

<style type='text/css'>
<![CDATA[
[data-mouse-over-selected='false'] { opacity: 0.7; }
[data-mouse-over-selected='true']  { opacity: 1.0; }
]]>
</style>
<script type="application/ecmascript"><![CDATA[
document.addEventListener('DOMContentLoaded', (event) => {
  highlightEdges();
  highlightAdjacentNodes();
});
]]></script>
</svg>
