<?xml version="1.0" encoding="UTF-8" standalone="no"?>
<!DOCTYPE svg PUBLIC "-//W3C//DTD SVG 1.1//EN"
 "http://www.w3.org/Graphics/SVG/1.1/DTD/svg11.dtd">
<!-- Generated by graphviz version 8.1.0 (20230707.0739)
 -->
<!-- Title: dab&#45;pwm&#45;configuration.X/sources/device/pwrctrl/dev_pwrctrl_pwm.h Pages: 1 -->
<svg width="131pt" height="288pt"
 viewBox="0.00 0.00 131.38 288.00" xmlns="http://www.w3.org/2000/svg" xmlns:xlink="http://www.w3.org/1999/xlink">
<g id="graph0" class="graph" transform="scale(1 1) rotate(0) translate(4 284)">
<title>dab&#45;pwm&#45;configuration.X/sources/device/pwrctrl/dev_pwrctrl_pwm.h</title>
<!-- Node1 -->
<g id="Node000001" class="node">
<title>Node1</title>
<g id="a_Node000001"><a xlink:title="Contains public functions for PWM.">
<polygon fill="#999999" stroke="#666666" points="121,-280 0,-280 0,-236 121,-236 121,-280"/>
<text text-anchor="start" x="8" y="-266.5" font-family="Helvetica,sans-Serif" font-size="10.00">dab&#45;pwm&#45;configuration.X</text>
<text text-anchor="start" x="8" y="-254.5" font-family="Helvetica,sans-Serif" font-size="10.00">/sources/device/pwrctrl</text>
<text text-anchor="middle" x="60.5" y="-242.5" font-family="Helvetica,sans-Serif" font-size="10.00">/dev_pwrctrl_pwm.h</text>
</a>
</g>
</g>
<!-- Node2 -->
<g id="Node000002" class="node">
<title>Node2</title>
<g id="a_Node000002"><a xlink:href="a00389_source.html" target="_top" xlink:title=" ">
<polygon fill="white" stroke="#666666" points="115,-200 6,-200 6,-180 115,-180 115,-200"/>
<text text-anchor="middle" x="60.5" y="-186.5" font-family="Helvetica,sans-Serif" font-size="10.00">dev_pwrctrl_typedef.h</text>
</a>
</g>
</g>
<!-- Node1&#45;&gt;Node2 -->
<g id="edge1_Node000001_Node000002" class="edge">
<title>Node1&#45;&gt;Node2</title>
<g id="a_edge1_Node000001_Node000002"><a xlink:title=" ">
<path fill="none" stroke="#63b8ff" d="M60.5,-235.75C60.5,-227.94 60.5,-219.11 60.5,-211.38"/>
<polygon fill="#63b8ff" stroke="#63b8ff" points="64,-211.42 60.5,-201.42 57,-211.42 64,-211.42"/>
</a>
</g>
</g>
<!-- Node3 -->
<g id="Node000003" class="node">
<title>Node3</title>
<g id="a_Node000003"><a xlink:href="a00332_source.html" target="_top" xlink:title=" ">
<polygon fill="white" stroke="#666666" points="112.75,-144 8.25,-144 8.25,-112 112.75,-112 112.75,-144"/>
<text text-anchor="start" x="16.25" y="-130.5" font-family="Helvetica,sans-Serif" font-size="10.00">device/fault/dev_fault</text>
<text text-anchor="middle" x="60.5" y="-118.5" font-family="Helvetica,sans-Serif" font-size="10.00">_typedef.h</text>
</a>
</g>
</g>
<!-- Node2&#45;&gt;Node3 -->
<g id="edge2_Node000002_Node000003" class="edge">
<title>Node2&#45;&gt;Node3</title>
<g id="a_edge2_Node000002_Node000003"><a xlink:title=" ">
<path fill="none" stroke="#63b8ff" d="M60.5,-179.62C60.5,-173.02 60.5,-163.84 60.5,-155.11"/>
<polygon fill="#63b8ff" stroke="#63b8ff" points="64,-155.14 60.5,-145.14 57,-155.14 64,-155.14"/>
</a>
</g>
</g>
<!-- Node4 -->
<g id="Node000004" class="node">
<title>Node4</title>
<g id="a_Node000004"><a xlink:href="a00329_source.html" target="_top" xlink:title=" ">
<polygon fill="white" stroke="#666666" points="112.75,-76 8.25,-76 8.25,-56 112.75,-56 112.75,-76"/>
<text text-anchor="middle" x="60.5" y="-62.5" font-family="Helvetica,sans-Serif" font-size="10.00">dev_fault_common.h</text>
</a>
</g>
</g>
<!-- Node3&#45;&gt;Node4 -->
<g id="edge3_Node000003_Node000004" class="edge">
<title>Node3&#45;&gt;Node4</title>
<g id="a_edge3_Node000003_Node000004"><a xlink:title=" ">
<path fill="none" stroke="#63b8ff" d="M60.5,-111.55C60.5,-104.17 60.5,-95.24 60.5,-87.32"/>
<polygon fill="#63b8ff" stroke="#63b8ff" points="64,-87.41 60.5,-77.41 57,-87.41 64,-87.41"/>
</a>
</g>
</g>
<!-- Node5 -->
<g id="Node000005" class="node">
<title>Node5</title>
<g id="a_Node000005"><a xlink:title=" ">
<polygon fill="#e0e0e0" stroke="#999999" points="49.62,-20 1.38,-20 1.38,0 49.62,0 49.62,-20"/>
<text text-anchor="middle" x="25.5" y="-6.5" font-family="Helvetica,sans-Serif" font-size="10.00">stdint.h</text>
</a>
</g>
</g>
<!-- Node4&#45;&gt;Node5 -->
<g id="edge4_Node000004_Node000005" class="edge">
<title>Node4&#45;&gt;Node5</title>
<g id="a_edge4_Node000004_Node000005"><a xlink:title=" ">
<path fill="none" stroke="#63b8ff" d="M54.4,-55.59C49.74,-48.39 43.15,-38.23 37.45,-29.43"/>
<polygon fill="#63b8ff" stroke="#63b8ff" points="39.9,-27.79 31.53,-21.3 34.03,-31.59 39.9,-27.79"/>
</a>
</g>
</g>
<!-- Node6 -->
<g id="Node000006" class="node">
<title>Node6</title>
<g id="a_Node000006"><a xlink:title=" ">
<polygon fill="#e0e0e0" stroke="#999999" points="123.38,-20 67.62,-20 67.62,0 123.38,0 123.38,-20"/>
<text text-anchor="middle" x="95.5" y="-6.5" font-family="Helvetica,sans-Serif" font-size="10.00">stdbool.h</text>
</a>
</g>
</g>
<!-- Node4&#45;&gt;Node6 -->
<g id="edge5_Node000004_Node000006" class="edge">
<title>Node4&#45;&gt;Node6</title>
<g id="a_edge5_Node000004_Node000006"><a xlink:title=" ">
<path fill="none" stroke="#63b8ff" d="M66.6,-55.59C71.26,-48.39 77.85,-38.23 83.55,-29.43"/>
<polygon fill="#63b8ff" stroke="#63b8ff" points="86.97,-31.59 89.47,-21.3 81.1,-27.79 86.97,-31.59"/>
</a>
</g>
</g>
</g>
</svg>
