<?xml version="1.0" encoding="UTF-8" standalone="no"?>
<!DOCTYPE svg PUBLIC "-//W3C//DTD SVG 1.1//EN"
 "http://www.w3.org/Graphics/SVG/1.1/DTD/svg11.dtd">
<!-- Generated by graphviz version 8.1.0 (20230707.0739)
 -->
<!-- Title: dspic33ck&#45;dab.X/sources/fault/fault.h Pages: 1 -->
<!--zoomable 320 -->

<svg id="main" version="1.1" xmlns="http://www.w3.org/2000/svg" xmlns:xlink="http://www.w3.org/1999/xlink" xml:space="preserve" onload="init(evt)">
<style type="text/css"><![CDATA[
.node, .edge {opacity: 0.7;}
.node.selected, .edge.selected {opacity: 1;}
.edge:hover path { stroke: red; }
.edge:hover polygon { stroke: red; fill: red; }
]]></style>

<defs>
  <circle id="rim" cx="0" cy="0" r="7"/>
  <circle id="rim2" cx="0" cy="0" r="3.5"/>
  <g id="zoomPlus">
    <use xlink:href="#rim" fill="#404040"><set attributeName="fill" to="#808080" begin="zoomplus.mouseover" end="zoomplus.mouseout"/></use>
    <path d="M-4,0h8M0,-4v8" fill="none" stroke="white" stroke-width="1.5" pointer-events="none"/>
  </g>
  <g id="zoomMin">
    <use xlink:href="#rim" fill="#404040"><set attributeName="fill" to="#808080" begin="zoomminus.mouseover" end="zoomminus.mouseout"/></use>
    <path d="M-4,0h8" fill="none" stroke="white" stroke-width="1.5" pointer-events="none"/>
  </g>
  <g id="arrowUp" transform="translate(30 24)">
    <use xlink:href="#rim"/>
    <path pointer-events="none" fill="none" stroke="white" stroke-width="1.5" d="M0,-3.0v7 M-2.5,-0.5L0,-3.0L2.5,-0.5"/>
  </g>
  <g id="arrowRight" transform="rotate(90) translate(36 -43)">
    <use xlink:href="#rim"/>
    <path pointer-events="none" fill="none" stroke="white" stroke-width="1.5" d="M0,-3.0v7 M-2.5,-0.5L0,-3.0L2.5,-0.5"/>
  </g>
  <g id="arrowDown" transform="rotate(180) translate(-30 -48)">
    <use xlink:href="#rim"/>
    <path pointer-events="none" fill="none" stroke="white" stroke-width="1.5" d="M0,-3.0v7 M-2.5,-0.5L0,-3.0L2.5,-0.5"/>
  </g>
  <g id="arrowLeft" transform="rotate(270) translate(-36 17)">
    <use xlink:href="#rim"/>
    <path pointer-events="none" fill="none" stroke="white" stroke-width="1.5" d="M0,-3.0v7 M-2.5,-0.5L0,-3.0L2.5,-0.5"/>
  </g>
  <g id="resetDef">
    <use xlink:href="#rim2" fill="#404040"><set attributeName="fill" to="#808080" begin="reset.mouseover" end="reset.mouseout"/></use>
  </g>
</defs>
<script type="application/ecmascript">
var viewWidth = 601;
var viewHeight = 320;
var sectionId = 'dynsection-0';
</script>
<script type="application/ecmascript" xlink:href="svg.min.js"/>
<svg id="graph" class="graph">
<g id="viewport">
<title>dspic33ck&#45;dab.X/sources/fault/fault.h</title>
<!-- Node1 -->
<g id="Node000001" class="node">
<title>Node1</title>
<g id="a_Node000001"><a xlink:title="Contains public fault functions.">
<polygon fill="#999999" stroke="#666666" points="333.38,-312 208.62,-312 208.62,-280 333.38,-280 333.38,-312"/>
<text text-anchor="start" x="216.62" y="-298.5" font-family="Helvetica,sans-Serif" font-size="10.00">dspic33ck&#45;dab.X/sources</text>
<text text-anchor="middle" x="271" y="-286.5" font-family="Helvetica,sans-Serif" font-size="10.00">/fault/fault.h</text>
</a>
</g>
</g>
<!-- Node1&#45;&gt;Node1 -->
<g id="edge12_Node000001_Node000001" class="edge">
<title>Node1&#45;&gt;Node1</title>
<g id="a_edge12_Node000001_Node000001"><a xlink:title=" ">
<path fill="none" stroke="#63b8ff" d="M333.68,-306.8C344.15,-305.29 351.38,-301.69 351.38,-296 351.38,-292.53 348.69,-289.84 344.23,-287.92"/>
<polygon fill="#63b8ff" stroke="#63b8ff" points="345.24,-284.31 334.68,-285.2 343.49,-291.09 345.24,-284.31"/>
</a>
</g>
</g>
<!-- Node2 -->
<g id="Node000002" class="node">
<title>Node2</title>
<g id="a_Node000002"><a xlink:title=" ">
<polygon fill="#e0e0e0" stroke="#999999" points="134.25,-20 83.75,-20 83.75,0 134.25,0 134.25,-20"/>
<text text-anchor="middle" x="109" y="-6.5" font-family="Helvetica,sans-Serif" font-size="10.00">stddef.h</text>
</a>
</g>
</g>
<!-- Node1&#45;&gt;Node2 -->
<g id="edge1_Node000001_Node000002" class="edge">
<title>Node1&#45;&gt;Node2</title>
<g id="a_edge1_Node000001_Node000002"><a xlink:title=" ">
<path fill="none" stroke="#63b8ff" d="M208.15,-294.48C128.09,-290.12 0,-269.07 0,-179 0,-179 0,-179 0,-121 0,-76.17 46.25,-43.07 78.49,-25.44"/>
<polygon fill="#63b8ff" stroke="#63b8ff" points="79.75,-28.21 86.98,-20.47 76.5,-22.01 79.75,-28.21"/>
</a>
</g>
</g>
<!-- Node3 -->
<g id="Node000003" class="node">
<title>Node3</title>
<g id="a_Node000003"><a xlink:href="a00122.html" target="_top" xlink:title="This is the generated driver header file for the CMP1 driver.">
<polygon fill="white" stroke="#666666" points="243,-132 173,-132 173,-112 243,-112 243,-132"/>
<text text-anchor="middle" x="208" y="-118.5" font-family="Helvetica,sans-Serif" font-size="10.00">cmp/cmp1.h</text>
</a>
</g>
</g>
<!-- Node1&#45;&gt;Node3 -->
<g id="edge2_Node000001_Node000003" class="edge">
<title>Node1&#45;&gt;Node3</title>
<g id="a_edge2_Node000001_Node000003"><a xlink:title=" ">
<path fill="none" stroke="#63b8ff" d="M265.41,-279.74C253.94,-248.42 227.76,-176.94 215.1,-142.4"/>
<polygon fill="#63b8ff" stroke="#63b8ff" points="218.1,-141.4 211.37,-133.21 211.53,-143.8 218.1,-141.4"/>
</a>
</g>
</g>
<!-- Node6 -->
<g id="Node000006" class="node">
<title>Node6</title>
<g id="a_Node000006"><a xlink:href="a00128.html" target="_top" xlink:title="This is the generated driver header file for the CMP3 driver.">
<polygon fill="white" stroke="#666666" points="149,-132 79,-132 79,-112 149,-112 149,-132"/>
<text text-anchor="middle" x="114" y="-118.5" font-family="Helvetica,sans-Serif" font-size="10.00">cmp/cmp3.h</text>
</a>
</g>
</g>
<!-- Node1&#45;&gt;Node6 -->
<g id="edge8_Node000001_Node000006" class="edge">
<title>Node1&#45;&gt;Node6</title>
<g id="a_edge8_Node000001_Node000006"><a xlink:title=" ">
<path fill="none" stroke="#63b8ff" d="M257.07,-279.74C227.86,-247.74 160.38,-173.81 129.7,-140.2"/>
<polygon fill="#63b8ff" stroke="#63b8ff" points="132.73,-138.24 123.41,-133.21 127.56,-142.95 132.73,-138.24"/>
</a>
</g>
</g>
<!-- Node7 -->
<g id="Node000007" class="node">
<title>Node7</title>
<g id="a_Node000007"><a xlink:href="a00491.html" target="_top" xlink:title="Contains public functions for PWM.">
<polygon fill="white" stroke="#666666" points="408.88,-244 299.12,-244 299.12,-224 408.88,-224 408.88,-244"/>
<text text-anchor="middle" x="354" y="-230.5" font-family="Helvetica,sans-Serif" font-size="10.00">pwrctrl/pwrctrl_pwm.h</text>
</a>
</g>
</g>
<!-- Node1&#45;&gt;Node7 -->
<g id="edge13_Node000001_Node000007" class="edge">
<title>Node1&#45;&gt;Node7</title>
<g id="a_edge13_Node000001_Node000007"><a xlink:title=" ">
<path fill="none" stroke="#63b8ff" d="M292.37,-279.55C304.62,-270.69 319.96,-259.61 332.26,-250.71"/>
<polygon fill="#63b8ff" stroke="#63b8ff" points="333.93,-253.1 339.99,-244.41 329.83,-247.43 333.93,-253.1"/>
</a>
</g>
</g>
<!-- Node8 -->
<g id="Node000008" class="node">
<title>Node8</title>
<g id="a_Node000008"><a xlink:href="a00497_source.html" target="_top" xlink:title=" ">
<polygon fill="white" stroke="#666666" points="467.75,-188 378.25,-188 378.25,-168 467.75,-168 467.75,-188"/>
<text text-anchor="middle" x="423" y="-174.5" font-family="Helvetica,sans-Serif" font-size="10.00">pwrctrl_typedef.h</text>
</a>
</g>
</g>
<!-- Node1&#45;&gt;Node8 -->
<g id="edge19_Node000001_Node000008" class="edge">
<title>Node1&#45;&gt;Node8</title>
<g id="a_edge19_Node000001_Node000008"><a xlink:title=" ">
<path fill="none" stroke="#63b8ff" d="M333.87,-289.01C364.11,-282.69 398.04,-269.89 418,-244 427.83,-231.26 428.28,-212.62 426.74,-198.56"/>
<polygon fill="#63b8ff" stroke="#63b8ff" points="430.11,-198.42 425.14,-189.06 423.19,-199.48 430.11,-198.42"/>
</a>
</g>
</g>
<!-- Node12 -->
<g id="Node000012" class="node">
<title>Node12</title>
<g id="a_Node000012"><a xlink:href="a00470.html" target="_top" xlink:title="Contains the power control reusable functions.">
<polygon fill="white" stroke="#666666" points="592.5,-244 465.5,-244 465.5,-224 592.5,-224 592.5,-244"/>
<text text-anchor="middle" x="529" y="-230.5" font-family="Helvetica,sans-Serif" font-size="10.00">pwrctrl/pwrctrl_common.h</text>
</a>
</g>
</g>
<!-- Node1&#45;&gt;Node12 -->
<g id="edge20_Node000001_Node000012" class="edge">
<title>Node1&#45;&gt;Node12</title>
<g id="a_edge20_Node000001_Node000012"><a xlink:title=" ">
<path fill="none" stroke="#63b8ff" d="M333.78,-280.4C378.01,-270.11 436.48,-256.52 477.87,-246.89"/>
<polygon fill="#63b8ff" stroke="#63b8ff" points="478.58,-250.09 487.53,-244.41 477,-243.27 478.58,-250.09"/>
</a>
</g>
</g>
<!-- Node13 -->
<g id="Node000013" class="node">
<title>Node13</title>
<g id="a_Node000013"><a xlink:href="a00302_source.html" target="_top" xlink:title=" ">
<polygon fill="white" stroke="#666666" points="362.12,-76 283.88,-76 283.88,-56 362.12,-56 362.12,-76"/>
<text text-anchor="middle" x="323" y="-62.5" font-family="Helvetica,sans-Serif" font-size="10.00">config/config.h</text>
</a>
</g>
</g>
<!-- Node1&#45;&gt;Node13 -->
<g id="edge21_Node000001_Node000013" class="edge">
<title>Node1&#45;&gt;Node13</title>
<g id="a_edge21_Node000001_Node000013"><a xlink:title=" ">
<path fill="none" stroke="#63b8ff" d="M274.49,-279.69C283.63,-239.63 308.23,-131.75 318.45,-86.94"/>
<polygon fill="#63b8ff" stroke="#63b8ff" points="322.07,-87.83 320.88,-77.3 315.24,-86.28 322.07,-87.83"/>
</a>
</g>
</g>
<!-- Node3&#45;&gt;Node2 -->
<g id="edge3_Node000003_Node000002" class="edge">
<title>Node3&#45;&gt;Node2</title>
<g id="a_edge3_Node000003_Node000002"><a xlink:title=" ">
<path fill="none" stroke="#63b8ff" d="M202.05,-111.7C193.49,-98.64 176.87,-74.41 160,-56 150.59,-45.74 139.03,-35.38 129.3,-27.2"/>
<polygon fill="#63b8ff" stroke="#63b8ff" points="131.93,-24.01 121.99,-20.35 127.48,-29.41 131.93,-24.01"/>
</a>
</g>
</g>
<!-- Node4 -->
<g id="Node000004" class="node">
<title>Node4</title>
<g id="a_Node000004"><a xlink:title=" ">
<polygon fill="#e0e0e0" stroke="#999999" points="283.88,-20 228.12,-20 228.12,0 283.88,0 283.88,-20"/>
<text text-anchor="middle" x="256" y="-6.5" font-family="Helvetica,sans-Serif" font-size="10.00">stdbool.h</text>
</a>
</g>
</g>
<!-- Node3&#45;&gt;Node4 -->
<g id="edge4_Node000003_Node000004" class="edge">
<title>Node3&#45;&gt;Node4</title>
<g id="a_edge4_Node000003_Node000004"><a xlink:title=" ">
<path fill="none" stroke="#63b8ff" d="M213.54,-111.53C218.67,-102.56 226.34,-88.6 232,-76 238.7,-61.06 245.06,-43.63 249.55,-30.58"/>
<polygon fill="#63b8ff" stroke="#63b8ff" points="253.1,-32.01 252.97,-21.42 246.47,-29.78 253.1,-32.01"/>
</a>
</g>
</g>
<!-- Node5 -->
<g id="Node000005" class="node">
<title>Node5</title>
<g id="a_Node000005"><a xlink:href="a00131_source.html" target="_top" xlink:title=" ">
<polygon fill="white" stroke="#666666" points="151.5,-76 66.5,-76 66.5,-56 151.5,-56 151.5,-76"/>
<text text-anchor="middle" x="109" y="-62.5" font-family="Helvetica,sans-Serif" font-size="10.00">cmp_interface.h</text>
</a>
</g>
</g>
<!-- Node3&#45;&gt;Node5 -->
<g id="edge5_Node000003_Node000005" class="edge">
<title>Node3&#45;&gt;Node5</title>
<g id="a_edge5_Node000003_Node000005"><a xlink:title=" ">
<path fill="none" stroke="#63b8ff" d="M190.76,-111.59C175.66,-103.36 153.47,-91.26 136.02,-81.74"/>
<polygon fill="#63b8ff" stroke="#63b8ff" points="137.83,-78.2 127.38,-76.48 134.48,-84.34 137.83,-78.2"/>
</a>
</g>
</g>
<!-- Node5&#45;&gt;Node2 -->
<g id="edge7_Node000005_Node000002" class="edge">
<title>Node5&#45;&gt;Node2</title>
<g id="a_edge7_Node000005_Node000002"><a xlink:title=" ">
<path fill="none" stroke="#63b8ff" d="M109,-55.59C109,-48.86 109,-39.53 109,-31.15"/>
<polygon fill="#63b8ff" stroke="#63b8ff" points="112.5,-31.3 109,-21.3 105.5,-31.3 112.5,-31.3"/>
</a>
</g>
</g>
<!-- Node5&#45;&gt;Node4 -->
<g id="edge6_Node000005_Node000004" class="edge">
<title>Node5&#45;&gt;Node4</title>
<g id="a_edge6_Node000005_Node000004"><a xlink:title=" ">
<path fill="none" stroke="#63b8ff" d="M134.61,-55.59C158.28,-46.9 193.69,-33.89 220.17,-24.16"/>
<polygon fill="#63b8ff" stroke="#63b8ff" points="221.01,-27.21 229.19,-20.48 218.6,-20.64 221.01,-27.21"/>
</a>
</g>
</g>
<!-- Node6&#45;&gt;Node2 -->
<g id="edge9_Node000006_Node000002" class="edge">
<title>Node6&#45;&gt;Node2</title>
<g id="a_edge9_Node000006_Node000002"><a xlink:title=" ">
<path fill="none" stroke="#63b8ff" d="M94.52,-111.6C81.26,-104.02 64.75,-92 57,-76 47.82,-57.06 65.91,-38.64 83.22,-26.27"/>
<polygon fill="#63b8ff" stroke="#63b8ff" points="84.67,-28.84 91.04,-20.38 80.78,-23.02 84.67,-28.84"/>
</a>
</g>
</g>
<!-- Node6&#45;&gt;Node4 -->
<g id="edge10_Node000006_Node000004" class="edge">
<title>Node6&#45;&gt;Node4</title>
<g id="a_edge10_Node000006_Node000004"><a xlink:title=" ">
<path fill="none" stroke="#63b8ff" d="M126.11,-111.62C150.42,-92.79 205.42,-50.18 235.46,-26.91"/>
<polygon fill="#63b8ff" stroke="#63b8ff" points="237.16,-29.25 242.92,-20.35 232.87,-23.71 237.16,-29.25"/>
</a>
</g>
</g>
<!-- Node6&#45;&gt;Node5 -->
<g id="edge11_Node000006_Node000005" class="edge">
<title>Node6&#45;&gt;Node5</title>
<g id="a_edge11_Node000006_Node000005"><a xlink:title=" ">
<path fill="none" stroke="#63b8ff" d="M113.13,-111.59C112.51,-104.86 111.64,-95.53 110.87,-87.15"/>
<polygon fill="#63b8ff" stroke="#63b8ff" points="114.27,-86.93 109.86,-77.3 107.3,-87.58 114.27,-86.93"/>
</a>
</g>
</g>
<!-- Node7&#45;&gt;Node8 -->
<g id="edge14_Node000007_Node000008" class="edge">
<title>Node7&#45;&gt;Node8</title>
<g id="a_edge14_Node000007_Node000008"><a xlink:title=" ">
<path fill="none" stroke="#63b8ff" d="M366.02,-223.59C376.11,-215.7 390.75,-204.24 402.66,-194.92"/>
<polygon fill="#63b8ff" stroke="#63b8ff" points="404.4,-197.22 410.12,-188.3 400.09,-191.71 404.4,-197.22"/>
</a>
</g>
</g>
<!-- Node9 -->
<g id="Node000009" class="node">
<title>Node9</title>
<g id="a_Node000009"><a xlink:href="a00395.html" target="_top" xlink:title="Contains fault data types.">
<polygon fill="white" stroke="#666666" points="473,-132 373,-132 373,-112 473,-112 473,-132"/>
<text text-anchor="middle" x="423" y="-118.5" font-family="Helvetica,sans-Serif" font-size="10.00">fault/fault_typedef.h</text>
</a>
</g>
</g>
<!-- Node8&#45;&gt;Node9 -->
<g id="edge15_Node000008_Node000009" class="edge">
<title>Node8&#45;&gt;Node9</title>
<g id="a_edge15_Node000008_Node000009"><a xlink:title=" ">
<path fill="none" stroke="#63b8ff" d="M423,-167.59C423,-160.86 423,-151.53 423,-143.15"/>
<polygon fill="#63b8ff" stroke="#63b8ff" points="426.5,-143.3 423,-133.3 419.5,-143.3 426.5,-143.3"/>
</a>
</g>
</g>
<!-- Node10 -->
<g id="Node000010" class="node">
<title>Node10</title>
<g id="a_Node000010"><a xlink:href="a00386.html" target="_top" xlink:title="Contains fault generic public functions.">
<polygon fill="white" stroke="#666666" points="465.5,-76 380.5,-76 380.5,-56 465.5,-56 465.5,-76"/>
<text text-anchor="middle" x="423" y="-62.5" font-family="Helvetica,sans-Serif" font-size="10.00">fault_common.h</text>
</a>
</g>
</g>
<!-- Node9&#45;&gt;Node10 -->
<g id="edge16_Node000009_Node000010" class="edge">
<title>Node9&#45;&gt;Node10</title>
<g id="a_edge16_Node000009_Node000010"><a xlink:title=" ">
<path fill="none" stroke="#63b8ff" d="M423,-111.59C423,-104.86 423,-95.53 423,-87.15"/>
<polygon fill="#63b8ff" stroke="#63b8ff" points="426.5,-87.3 423,-77.3 419.5,-87.3 426.5,-87.3"/>
</a>
</g>
</g>
<!-- Node10&#45;&gt;Node4 -->
<g id="edge18_Node000010_Node000004" class="edge">
<title>Node10&#45;&gt;Node4</title>
<g id="a_edge18_Node000010_Node000004"><a xlink:title=" ">
<path fill="none" stroke="#63b8ff" d="M393.91,-55.59C366.32,-46.67 324.7,-33.22 294.4,-23.42"/>
<polygon fill="#63b8ff" stroke="#63b8ff" points="295.79,-19.86 285.2,-20.12 293.64,-26.53 295.79,-19.86"/>
</a>
</g>
</g>
<!-- Node11 -->
<g id="Node000011" class="node">
<title>Node11</title>
<g id="a_Node000011"><a xlink:title=" ">
<polygon fill="#e0e0e0" stroke="#999999" points="427.12,-20 378.88,-20 378.88,0 427.12,0 427.12,-20"/>
<text text-anchor="middle" x="403" y="-6.5" font-family="Helvetica,sans-Serif" font-size="10.00">stdint.h</text>
</a>
</g>
</g>
<!-- Node10&#45;&gt;Node11 -->
<g id="edge17_Node000010_Node000011" class="edge">
<title>Node10&#45;&gt;Node11</title>
<g id="a_edge17_Node000010_Node000011"><a xlink:title=" ">
<path fill="none" stroke="#63b8ff" d="M419.52,-55.59C416.96,-48.7 413.41,-39.1 410.25,-30.57"/>
<polygon fill="#63b8ff" stroke="#63b8ff" points="413.2,-29.46 406.44,-21.3 406.63,-31.89 413.2,-29.46"/>
</a>
</g>
</g>
<!-- Node13&#45;&gt;Node2 -->
<g id="edge25_Node000013_Node000002" class="edge">
<title>Node13&#45;&gt;Node2</title>
<g id="a_edge25_Node000013_Node000002"><a xlink:title=" ">
<path fill="none" stroke="#63b8ff" d="M285.72,-55.59C246.18,-45.62 184.15,-29.96 145.07,-20.1"/>
<polygon fill="#63b8ff" stroke="#63b8ff" points="146.01,-16.48 135.46,-17.42 144.29,-23.26 146.01,-16.48"/>
</a>
</g>
</g>
<!-- Node13&#45;&gt;Node4 -->
<g id="edge24_Node000013_Node000004" class="edge">
<title>Node13&#45;&gt;Node4</title>
<g id="a_edge24_Node000013_Node000004"><a xlink:title=" ">
<path fill="none" stroke="#63b8ff" d="M311.33,-55.59C301.63,-47.77 287.59,-36.46 276.09,-27.19"/>
<polygon fill="#63b8ff" stroke="#63b8ff" points="278.52,-23.85 268.54,-20.3 274.13,-29.3 278.52,-23.85"/>
</a>
</g>
</g>
<!-- Node13&#45;&gt;Node11 -->
<g id="edge23_Node000013_Node000011" class="edge">
<title>Node13&#45;&gt;Node11</title>
<g id="a_edge23_Node000013_Node000011"><a xlink:title=" ">
<path fill="none" stroke="#63b8ff" d="M336.93,-55.59C348.79,-47.59 366.06,-35.93 379.97,-26.54"/>
<polygon fill="#63b8ff" stroke="#63b8ff" points="381.63,-28.98 387.96,-20.48 377.71,-23.17 381.63,-28.98"/>
</a>
</g>
</g>
<!-- Node14 -->
<g id="Node000014" class="node">
<title>Node14</title>
<g id="a_Node000014"><a xlink:title=" ">
<polygon fill="#e0e0e0" stroke="#999999" points="340.38,-20 305.62,-20 305.62,0 340.38,0 340.38,-20"/>
<text text-anchor="middle" x="323" y="-6.5" font-family="Helvetica,sans-Serif" font-size="10.00">xc.h</text>
</a>
</g>
</g>
<!-- Node13&#45;&gt;Node14 -->
<g id="edge22_Node000013_Node000014" class="edge">
<title>Node13&#45;&gt;Node14</title>
<g id="a_edge22_Node000013_Node000014"><a xlink:title=" ">
<path fill="none" stroke="#63b8ff" d="M323,-55.59C323,-48.86 323,-39.53 323,-31.15"/>
<polygon fill="#63b8ff" stroke="#63b8ff" points="326.5,-31.3 323,-21.3 319.5,-31.3 326.5,-31.3"/>
</a>
</g>
</g>
</g>
</svg>

<g id="navigator" transform="translate(0 0)" fill="#404254">
  <rect fill="#f2f5e9" fill-opacity="0.5" stroke="#606060" stroke-width=".5" x="0" y="0" width="60" height="60"/>
  <use id="zoomplus" xlink:href="#zoomPlus" x="17" y="9" onmousedown="handleZoom(evt,'in')"/>
  <use id="zoomminus" xlink:href="#zoomMin" x="42" y="9" onmousedown="handleZoom(evt,'out')"/>
  <use id="reset" xlink:href="#resetDef" x="30" y="36" onmousedown="handleReset()"/>
   <use id="arrowup" xlink:href="#arrowUp" x="0" y="0" onmousedown="handlePan(0,-1)"/>
  <use id="arrowright" xlink:href="#arrowRight" x="0" y="0" onmousedown="handlePan(1,0)"/>
  <use id="arrowdown" xlink:href="#arrowDown" x="0" y="0" onmousedown="handlePan(0,1)"/>
  <use id="arrowleft" xlink:href="#arrowLeft" x="0" y="0" onmousedown="handlePan(-1,0)"/>
</g>
<svg viewBox="0 0 15 15" width="100%" height="30px" preserveAspectRatio="xMaxYMin meet">
 <g id="arrow_out" transform="scale(0.3 0.3)">
  <a xlink:href="a00381_org.svg" target="_base">
   <rect id="button" ry="5" rx="5" y="6" x="6" height="38" width="38"
        fill="#f2f5e9" fill-opacity="0.5" stroke="#606060" stroke-width="1.0"/>
   <path id="arrow"
     d="M 11.500037,31.436501 C 11.940474,20.09759 22.043105,11.32322 32.158766,21.979434 L 37.068811,17.246167 C 37.068811,17.246167 37.088388,32 37.088388,32 L 22.160133,31.978069 C 22.160133,31.978069 26.997745,27.140456 26.997745,27.140456 C 18.528582,18.264221 13.291696,25.230495 11.500037,31.436501 z"
     style="fill:#404040;"/>
  </a>
 </g>
</svg>

<style type='text/css'>
<![CDATA[
[data-mouse-over-selected='false'] { opacity: 0.7; }
[data-mouse-over-selected='true']  { opacity: 1.0; }
]]>
</style>
<script type="application/ecmascript"><![CDATA[
document.addEventListener('DOMContentLoaded', (event) => {
  highlightEdges();
  highlightAdjacentNodes();
});
]]></script>
</svg>
