<?xml version="1.0" encoding="UTF-8" standalone="no"?>
<!DOCTYPE svg PUBLIC "-//W3C//DTD SVG 1.1//EN"
 "http://www.w3.org/Graphics/SVG/1.1/DTD/svg11.dtd">
<!-- Generated by graphviz version 8.1.0 (20230707.0739)
 -->
<!-- Title: dspic33ck&#45;dab.X/sources/driver/mcc_extension/drv_mcc_extension_pwm.h Pages: 1 -->
<svg width="570pt" height="212pt"
 viewBox="0.00 0.00 569.88 212.00" xmlns="http://www.w3.org/2000/svg" xmlns:xlink="http://www.w3.org/1999/xlink">
<g id="graph0" class="graph" transform="scale(1 1) rotate(0) translate(4 208)">
<title>dspic33ck&#45;dab.X/sources/driver/mcc_extension/drv_mcc_extension_pwm.h</title>
<!-- Node1 -->
<g id="Node000001" class="node">
<title>Node1</title>
<g id="a_Node000001"><a xlink:title="Contains public functions and defines for the MCC code extension for PWM.">
<polygon fill="#999999" stroke="#666666" points="352.5,-204 216.5,-204 216.5,-160 352.5,-160 352.5,-204"/>
<text text-anchor="start" x="224.5" y="-190.5" font-family="Helvetica,sans-Serif" font-size="10.00">dspic33ck&#45;dab.X/sources</text>
<text text-anchor="start" x="224.5" y="-178.5" font-family="Helvetica,sans-Serif" font-size="10.00">/driver/mcc_extension</text>
<text text-anchor="middle" x="284.5" y="-166.5" font-family="Helvetica,sans-Serif" font-size="10.00">/drv_mcc_extension_pwm.h</text>
</a>
</g>
</g>
<!-- Node2 -->
<g id="Node000002" class="node">
<title>Node2</title>
<g id="a_Node000002"><a xlink:href="a00356.html" target="_top" xlink:title="Contains PWM initialization that was not supported by MCC generated code.">
<polygon fill="white" stroke="#666666" points="133,-124 0,-124 0,-80 133,-80 133,-124"/>
<text text-anchor="start" x="8" y="-110.5" font-family="Helvetica,sans-Serif" font-size="10.00">dspic33ck&#45;dab.X/sources</text>
<text text-anchor="start" x="8" y="-98.5" font-family="Helvetica,sans-Serif" font-size="10.00">/driver/mcc_extension</text>
<text text-anchor="middle" x="66.5" y="-86.5" font-family="Helvetica,sans-Serif" font-size="10.00">/drv_custom_config_pwm.h</text>
</a>
</g>
</g>
<!-- Node1&#45;&gt;Node2 -->
<g id="edge1_Node000001_Node000002" class="edge">
<title>Node1&#45;&gt;Node2</title>
<g id="a_edge1_Node000001_Node000002"><a xlink:title=" ">
<path fill="none" stroke="#63b8ff" d="M214.37,-155.91C185.96,-145.74 153.49,-134.12 126.22,-124.37"/>
<polygon fill="#63b8ff" stroke="#63b8ff" points="213.05,-159.51 223.64,-159.58 215.41,-152.92 213.05,-159.51"/>
</a>
</g>
</g>
<!-- Node4 -->
<g id="Node000004" class="node">
<title>Node4</title>
<g id="a_Node000004"><a xlink:href="a00359.html" target="_top" xlink:title="Contain the peripheral header files with MCC extension code.">
<polygon fill="white" stroke="#666666" points="275.88,-124 151.12,-124 151.12,-80 275.88,-80 275.88,-124"/>
<text text-anchor="start" x="159.12" y="-110.5" font-family="Helvetica,sans-Serif" font-size="10.00">dspic33ck&#45;dab.X/sources</text>
<text text-anchor="start" x="159.12" y="-98.5" font-family="Helvetica,sans-Serif" font-size="10.00">/driver/mcc_extension</text>
<text text-anchor="middle" x="213.5" y="-86.5" font-family="Helvetica,sans-Serif" font-size="10.00">/drv_mcc_extension.h</text>
</a>
</g>
</g>
<!-- Node1&#45;&gt;Node4 -->
<g id="edge3_Node000001_Node000004" class="edge">
<title>Node1&#45;&gt;Node4</title>
<g id="a_edge3_Node000001_Node000004"><a xlink:title=" ">
<path fill="none" stroke="#63b8ff" d="M257.75,-151.62C249.49,-142.53 240.55,-132.71 232.88,-124.29"/>
<polygon fill="#63b8ff" stroke="#63b8ff" points="254.78,-153.65 264.1,-158.69 259.96,-148.94 254.78,-153.65"/>
</a>
</g>
</g>
<!-- Node5 -->
<g id="Node000005" class="node">
<title>Node5</title>
<g id="a_Node000005"><a xlink:href="a00380.html" target="_top" xlink:title="Contains fault functions including the fault handler, fault object initialization and fault execution...">
<polygon fill="white" stroke="#666666" points="418.88,-118 294.12,-118 294.12,-86 418.88,-86 418.88,-118"/>
<text text-anchor="start" x="302.12" y="-104.5" font-family="Helvetica,sans-Serif" font-size="10.00">dspic33ck&#45;dab.X/sources</text>
<text text-anchor="middle" x="356.5" y="-92.5" font-family="Helvetica,sans-Serif" font-size="10.00">/fault/fault.c</text>
</a>
</g>
</g>
<!-- Node1&#45;&gt;Node5 -->
<g id="edge5_Node000001_Node000005" class="edge">
<title>Node1&#45;&gt;Node5</title>
<g id="a_edge5_Node000001_Node000005"><a xlink:title=" ">
<path fill="none" stroke="#63b8ff" d="M311.6,-151.64C322.14,-140.22 333.77,-127.62 342.55,-118.11"/>
<polygon fill="#63b8ff" stroke="#63b8ff" points="309.39,-148.96 305.17,-158.69 314.53,-153.71 309.39,-148.96"/>
</a>
</g>
</g>
<!-- Node6 -->
<g id="Node000006" class="node">
<title>Node6</title>
<g id="a_Node000006"><a xlink:href="a00491.html" target="_top" xlink:title="Contains DAB control phase calculation between primary and secondary, and the PWM distribution.">
<polygon fill="white" stroke="#666666" points="561.88,-118 437.12,-118 437.12,-86 561.88,-86 561.88,-118"/>
<text text-anchor="start" x="445.12" y="-104.5" font-family="Helvetica,sans-Serif" font-size="10.00">dspic33ck&#45;dab.X/sources</text>
<text text-anchor="middle" x="499.5" y="-92.5" font-family="Helvetica,sans-Serif" font-size="10.00">/pwrctrl/pwrctrl_pwm.c</text>
</a>
</g>
</g>
<!-- Node1&#45;&gt;Node6 -->
<g id="edge6_Node000001_Node000006" class="edge">
<title>Node1&#45;&gt;Node6</title>
<g id="a_edge6_Node000001_Node000006"><a xlink:title=" ">
<path fill="none" stroke="#63b8ff" d="M353.86,-155.84C387.8,-143.52 427.56,-129.1 456.96,-118.43"/>
<polygon fill="#63b8ff" stroke="#63b8ff" points="352.74,-152.88 344.53,-159.58 355.13,-159.46 352.74,-152.88"/>
</a>
</g>
</g>
<!-- Node3 -->
<g id="Node000003" class="node">
<title>Node3</title>
<g id="a_Node000003"><a xlink:href="a00368_source.html" target="_top" xlink:title=" ">
<polygon fill="white" stroke="#666666" points="201.88,-44 77.12,-44 77.12,0 201.88,0 201.88,-44"/>
<text text-anchor="start" x="85.12" y="-30.5" font-family="Helvetica,sans-Serif" font-size="10.00">dspic33ck&#45;dab.X/sources</text>
<text text-anchor="start" x="85.12" y="-18.5" font-family="Helvetica,sans-Serif" font-size="10.00">/driver/mcc_extension</text>
<text text-anchor="middle" x="139.5" y="-6.5" font-family="Helvetica,sans-Serif" font-size="10.00">/mcc_custom_config.c</text>
</a>
</g>
</g>
<!-- Node2&#45;&gt;Node3 -->
<g id="edge2_Node000002_Node000003" class="edge">
<title>Node2&#45;&gt;Node3</title>
<g id="a_edge2_Node000002_Node000003"><a xlink:title=" ">
<path fill="none" stroke="#63b8ff" d="M93.74,-71.89C102.31,-62.74 111.61,-52.8 119.58,-44.29"/>
<polygon fill="#63b8ff" stroke="#63b8ff" points="91.73,-68.99 87.45,-78.69 96.84,-73.78 91.73,-68.99"/>
</a>
</g>
</g>
<!-- Node4&#45;&gt;Node3 -->
<g id="edge4_Node000004_Node000003" class="edge">
<title>Node4&#45;&gt;Node3</title>
<g id="a_edge4_Node000004_Node000003"><a xlink:title=" ">
<path fill="none" stroke="#63b8ff" d="M185.89,-71.89C177.2,-62.74 167.77,-52.8 159.7,-44.29"/>
<polygon fill="#63b8ff" stroke="#63b8ff" points="182.86,-73.84 192.28,-78.69 187.94,-69.02 182.86,-73.84"/>
</a>
</g>
</g>
</g>
</svg>
