<?xml version="1.0" encoding="UTF-8" standalone="no"?>
<!DOCTYPE svg PUBLIC "-//W3C//DTD SVG 1.1//EN"
 "http://www.w3.org/Graphics/SVG/1.1/DTD/svg11.dtd">
<!-- Generated by graphviz version 8.1.0 (20230707.0739)
 -->
<!-- Title: dab&#45;pwm&#45;configuration.X/sources/device/pwrctrl/dcdt/dev_pwrctrl_dcdt.h Pages: 1 -->
<svg width="662pt" height="176pt"
 viewBox="0.00 0.00 661.75 176.00" xmlns="http://www.w3.org/2000/svg" xmlns:xlink="http://www.w3.org/1999/xlink">
<g id="graph0" class="graph" transform="scale(1 1) rotate(0) translate(4 172)">
<title>dab&#45;pwm&#45;configuration.X/sources/device/pwrctrl/dcdt/dev_pwrctrl_dcdt.h</title>
<!-- Node1 -->
<g id="Node000001" class="node">
<title>Node1</title>
<g id="a_Node000001"><a xlink:title="Contains public functions and data types relevant for DCDT file interface.">
<polygon fill="#999999" stroke="#666666" points="272.12,-168 151.12,-168 151.12,-124 272.12,-124 272.12,-168"/>
<text text-anchor="start" x="159.12" y="-154.5" font-family="Helvetica,sans-Serif" font-size="10.00">dab&#45;pwm&#45;configuration.X</text>
<text text-anchor="start" x="159.12" y="-142.5" font-family="Helvetica,sans-Serif" font-size="10.00">/sources/device/pwrctrl</text>
<text text-anchor="middle" x="211.62" y="-130.5" font-family="Helvetica,sans-Serif" font-size="10.00">/dcdt/dev_pwrctrl_dcdt.h</text>
</a>
</g>
</g>
<!-- Node2 -->
<g id="Node000002" class="node">
<title>Node2</title>
<g id="a_Node000002"><a xlink:title=" ">
<polygon fill="#e0e0e0" stroke="#999999" points="45.25,-82 0,-82 0,-62 45.25,-62 45.25,-82"/>
<text text-anchor="middle" x="22.62" y="-68.5" font-family="Helvetica,sans-Serif" font-size="10.00">stdio.h</text>
</a>
</g>
</g>
<!-- Node1&#45;&gt;Node2 -->
<g id="edge1_Node000001_Node000002" class="edge">
<title>Node1&#45;&gt;Node2</title>
<g id="a_edge1_Node000001_Node000002"><a xlink:title=" ">
<path fill="none" stroke="#63b8ff" d="M153.38,-123.57C125.03,-113.03 90.48,-100.04 59.62,-88 58.35,-87.5 57.06,-87 55.75,-86.48"/>
<polygon fill="#63b8ff" stroke="#63b8ff" points="57.26,-82.92 46.68,-82.46 54.67,-89.42 57.26,-82.92"/>
</a>
</g>
</g>
<!-- Node3 -->
<g id="Node000003" class="node">
<title>Node3</title>
<g id="a_Node000003"><a xlink:title=" ">
<polygon fill="#e0e0e0" stroke="#999999" points="128,-20 93.25,-20 93.25,0 128,0 128,-20"/>
<text text-anchor="middle" x="110.62" y="-6.5" font-family="Helvetica,sans-Serif" font-size="10.00">xc.h</text>
</a>
</g>
</g>
<!-- Node1&#45;&gt;Node3 -->
<g id="edge2_Node000001_Node000003" class="edge">
<title>Node1&#45;&gt;Node3</title>
<g id="a_edge2_Node000001_Node000003"><a xlink:title=" ">
<path fill="none" stroke="#63b8ff" d="M150.89,-130.63C128.62,-122.1 105.69,-108.74 92.62,-88 81.36,-70.11 90.16,-45.87 98.97,-29.4"/>
<polygon fill="#63b8ff" stroke="#63b8ff" points="102.27,-31.68 104.27,-21.28 96.22,-28.16 102.27,-31.68"/>
</a>
</g>
</g>
<!-- Node4 -->
<g id="Node000004" class="node">
<title>Node4</title>
<g id="a_Node000004"><a xlink:title=" ">
<polygon fill="#e0e0e0" stroke="#999999" points="198.75,-20 150.5,-20 150.5,0 198.75,0 198.75,-20"/>
<text text-anchor="middle" x="174.62" y="-6.5" font-family="Helvetica,sans-Serif" font-size="10.00">stdint.h</text>
</a>
</g>
</g>
<!-- Node1&#45;&gt;Node4 -->
<g id="edge3_Node000001_Node000004" class="edge">
<title>Node1&#45;&gt;Node4</title>
<g id="a_edge3_Node000001_Node000004"><a xlink:title=" ">
<path fill="none" stroke="#63b8ff" d="M208.1,-123.52C204.86,-105.33 199.52,-78.67 192.62,-56 190.03,-47.46 186.49,-38.28 183.25,-30.45"/>
<polygon fill="#63b8ff" stroke="#63b8ff" points="186.13,-29.3 178.97,-21.49 179.7,-32.06 186.13,-29.3"/>
</a>
</g>
</g>
<!-- Node5 -->
<g id="Node000005" class="node">
<title>Node5</title>
<g id="a_Node000005"><a xlink:href="a00353.html" target="_top" xlink:title="Contains the DCDT generated functions and data types.">
<polygon fill="white" stroke="#666666" points="184,-82 101.25,-82 101.25,-62 184,-62 184,-82"/>
<text text-anchor="middle" x="142.62" y="-68.5" font-family="Helvetica,sans-Serif" font-size="10.00">smps_control.h</text>
</a>
</g>
</g>
<!-- Node1&#45;&gt;Node5 -->
<g id="edge4_Node000001_Node000005" class="edge">
<title>Node1&#45;&gt;Node5</title>
<g id="a_edge4_Node000001_Node000005"><a xlink:title=" ">
<path fill="none" stroke="#63b8ff" d="M191.3,-123.79C180.99,-113.03 168.63,-100.14 158.95,-90.03"/>
<polygon fill="#63b8ff" stroke="#63b8ff" points="161.99,-88.11 152.55,-83.31 156.94,-92.95 161.99,-88.11"/>
</a>
</g>
</g>
<!-- Node6 -->
<g id="Node000006" class="node">
<title>Node6</title>
<g id="a_Node000006"><a xlink:href="a00029.html" target="_top" xlink:title="Generated by the Microchip Digital Compensator Design Tool (DCDT), contains system summaries and digi...">
<polygon fill="white" stroke="#666666" points="364,-88 239.25,-88 239.25,-56 364,-56 364,-88"/>
<text text-anchor="start" x="247.25" y="-74.5" font-family="Helvetica,sans-Serif" font-size="10.00">dab_psio/dcdt_generated</text>
<text text-anchor="middle" x="301.62" y="-62.5" font-family="Helvetica,sans-Serif" font-size="10.00">_code/dab_psio_dcdt.h</text>
</a>
</g>
</g>
<!-- Node1&#45;&gt;Node6 -->
<g id="edge7_Node000001_Node000006" class="edge">
<title>Node1&#45;&gt;Node6</title>
<g id="a_edge7_Node000001_Node000006"><a xlink:title=" ">
<path fill="none" stroke="#63b8ff" d="M238.14,-123.79C249.46,-114.73 262.67,-104.16 274.1,-95.02"/>
<polygon fill="#63b8ff" stroke="#63b8ff" points="275.81,-97.33 281.44,-88.35 271.44,-91.87 275.81,-97.33"/>
</a>
</g>
</g>
<!-- Node7 -->
<g id="Node000007" class="node">
<title>Node7</title>
<g id="a_Node000007"><a xlink:href="a00038.html" target="_top" xlink:title="Generated by the Microchip Digital Compensator Design Tool (DCDT), contains system summaries and digi...">
<polygon fill="white" stroke="#666666" points="509.5,-88 381.75,-88 381.75,-56 509.5,-56 509.5,-88"/>
<text text-anchor="start" x="389.75" y="-74.5" font-family="Helvetica,sans-Serif" font-size="10.00">dab_pspo/dcdt_generated</text>
<text text-anchor="middle" x="445.62" y="-62.5" font-family="Helvetica,sans-Serif" font-size="10.00">_code/dab_pspo_dcdt.h</text>
</a>
</g>
</g>
<!-- Node1&#45;&gt;Node7 -->
<g id="edge8_Node000001_Node000007" class="edge">
<title>Node1&#45;&gt;Node7</title>
<g id="a_edge8_Node000001_Node000007"><a xlink:title=" ">
<path fill="none" stroke="#63b8ff" d="M272.49,-126.27C307.1,-115.62 350.3,-102.33 384.88,-91.69"/>
<polygon fill="#63b8ff" stroke="#63b8ff" points="385.79,-94.76 394.32,-88.48 383.73,-88.07 385.79,-94.76"/>
</a>
</g>
</g>
<!-- Node8 -->
<g id="Node000008" class="node">
<title>Node8</title>
<g id="a_Node000008"><a xlink:href="a00041.html" target="_top" xlink:title="Generated by the Microchip Digital Compensator Design Tool (DCDT), contains system summaries and digi...">
<polygon fill="white" stroke="#666666" points="653.75,-88 527.5,-88 527.5,-56 653.75,-56 653.75,-88"/>
<text text-anchor="start" x="535.5" y="-74.5" font-family="Helvetica,sans-Serif" font-size="10.00">dab_spvo/dcdt_generated</text>
<text text-anchor="middle" x="590.62" y="-62.5" font-family="Helvetica,sans-Serif" font-size="10.00">_code/dab_spvo_dcdt.h</text>
</a>
</g>
</g>
<!-- Node1&#45;&gt;Node8 -->
<g id="edge9_Node000001_Node000008" class="edge">
<title>Node1&#45;&gt;Node8</title>
<g id="a_edge9_Node000001_Node000008"><a xlink:title=" ">
<path fill="none" stroke="#63b8ff" d="M272.57,-134.09C332.21,-123.32 425.92,-106.16 516.32,-88.43"/>
<polygon fill="#63b8ff" stroke="#63b8ff" points="516.9,-91.69 526.04,-86.33 515.55,-84.82 516.9,-91.69"/>
</a>
</g>
</g>
<!-- Node5&#45;&gt;Node3 -->
<g id="edge5_Node000005_Node000003" class="edge">
<title>Node5&#45;&gt;Node3</title>
<g id="a_edge5_Node000005_Node000003"><a xlink:title=" ">
<path fill="none" stroke="#63b8ff" d="M137.62,-61.62C133.09,-53.12 126.27,-40.33 120.62,-29.74"/>
<polygon fill="#63b8ff" stroke="#63b8ff" points="123.28,-28.29 115.49,-21.11 117.1,-31.58 123.28,-28.29"/>
</a>
</g>
</g>
<!-- Node5&#45;&gt;Node4 -->
<g id="edge6_Node000005_Node000004" class="edge">
<title>Node5&#45;&gt;Node4</title>
<g id="a_edge6_Node000005_Node000004"><a xlink:title=" ">
<path fill="none" stroke="#63b8ff" d="M147.62,-61.62C152.16,-53.12 158.98,-40.33 164.63,-29.74"/>
<polygon fill="#63b8ff" stroke="#63b8ff" points="168.15,-31.58 169.76,-21.11 161.97,-28.29 168.15,-31.58"/>
</a>
</g>
</g>
</g>
</svg>
