<?xml version="1.0" encoding="UTF-8" standalone="no"?>
<!DOCTYPE svg PUBLIC "-//W3C//DTD SVG 1.1//EN"
 "http://www.w3.org/Graphics/SVG/1.1/DTD/svg11.dtd">
<!-- Generated by graphviz version 8.1.0 (20230707.0739)
 -->
<!-- Title: dspic33ck&#45;dab.X/sources/fault/fault_typedef.h Pages: 1 -->
<svg width="2044pt" height="348pt"
 viewBox="0.00 0.00 2043.75 348.00" xmlns="http://www.w3.org/2000/svg" xmlns:xlink="http://www.w3.org/1999/xlink">
<g id="graph0" class="graph" transform="scale(1 1) rotate(0) translate(4 344)">
<title>dspic33ck&#45;dab.X/sources/fault/fault_typedef.h</title>
<!-- Node1 -->
<g id="Node000001" class="node">
<title>Node1</title>
<g id="a_Node000001"><a xlink:title="Contains fault data types.">
<polygon fill="#999999" stroke="#666666" points="1176.75,-340 1052,-340 1052,-308 1176.75,-308 1176.75,-340"/>
<text text-anchor="start" x="1060" y="-326.5" font-family="Helvetica,sans-Serif" font-size="10.00">dspic33ck&#45;dab.X/sources</text>
<text text-anchor="middle" x="1114.38" y="-314.5" font-family="Helvetica,sans-Serif" font-size="10.00">/fault/fault_typedef.h</text>
</a>
</g>
</g>
<!-- Node2 -->
<g id="Node000002" class="node">
<title>Node2</title>
<g id="a_Node000002"><a xlink:href="a00497_source.html" target="_top" xlink:title=" ">
<polygon fill="white" stroke="#666666" points="1176.75,-272 1052,-272 1052,-240 1176.75,-240 1176.75,-272"/>
<text text-anchor="start" x="1060" y="-258.5" font-family="Helvetica,sans-Serif" font-size="10.00">dspic33ck&#45;dab.X/sources</text>
<text text-anchor="middle" x="1114.38" y="-246.5" font-family="Helvetica,sans-Serif" font-size="10.00">/pwrctrl/pwrctrl_typedef.h</text>
</a>
</g>
</g>
<!-- Node1&#45;&gt;Node2 -->
<g id="edge1_Node000001_Node000002" class="edge">
<title>Node1&#45;&gt;Node2</title>
<g id="a_edge1_Node000001_Node000002"><a xlink:title=" ">
<path fill="none" stroke="#63b8ff" d="M1114.38,-296.89C1114.38,-288.52 1114.38,-279.54 1114.38,-272.22"/>
<polygon fill="#63b8ff" stroke="#63b8ff" points="1110.88,-296.69 1114.38,-306.69 1117.88,-296.69 1110.88,-296.69"/>
</a>
</g>
</g>
<!-- Node3 -->
<g id="Node000003" class="node">
<title>Node3</title>
<g id="a_Node000003"><a xlink:href="a00281_source.html" target="_top" xlink:title=" ">
<polygon fill="white" stroke="#666666" points="1893.25,-38 1741.5,-38 1741.5,-6 1893.25,-6 1893.25,-38"/>
<text text-anchor="start" x="1749.5" y="-24.5" font-family="Helvetica,sans-Serif" font-size="10.00">dspic33ck&#45;dab.X/sources</text>
<text text-anchor="middle" x="1817.38" y="-12.5" font-family="Helvetica,sans-Serif" font-size="10.00">/comm/PBV_dab_frame_map.c</text>
</a>
</g>
</g>
<!-- Node2&#45;&gt;Node3 -->
<g id="edge2_Node000002_Node000003" class="edge">
<title>Node2&#45;&gt;Node3</title>
<g id="a_edge2_Node000002_Node000003"><a xlink:title=" ">
<path fill="none" stroke="#63b8ff" d="M1187.74,-254.9C1270.51,-252.72 1408.11,-242.8 1519.38,-204 1634.83,-163.74 1753.62,-74.32 1798.6,-38.39"/>
<polygon fill="#63b8ff" stroke="#63b8ff" points="1187.84,-251.42 1177.93,-255.15 1188,-258.41 1187.84,-251.42"/>
</a>
</g>
</g>
<!-- Node4 -->
<g id="Node000004" class="node">
<title>Node4</title>
<g id="a_Node000004"><a xlink:href="a00353.html" target="_top" xlink:title="Contains PWM initialization that was not supported by MCC generated code.">
<polygon fill="white" stroke="#666666" points="402.88,-124 269.88,-124 269.88,-80 402.88,-80 402.88,-124"/>
<text text-anchor="start" x="277.88" y="-110.5" font-family="Helvetica,sans-Serif" font-size="10.00">dspic33ck&#45;dab.X/sources</text>
<text text-anchor="start" x="277.88" y="-98.5" font-family="Helvetica,sans-Serif" font-size="10.00">/driver/mcc_extension</text>
<text text-anchor="middle" x="336.38" y="-86.5" font-family="Helvetica,sans-Serif" font-size="10.00">/drv_custom_config_pwm.h</text>
</a>
</g>
</g>
<!-- Node2&#45;&gt;Node4 -->
<g id="edge3_Node000002_Node000004" class="edge">
<title>Node2&#45;&gt;Node4</title>
<g id="a_edge3_Node000002_Node000004"><a xlink:title=" ">
<path fill="none" stroke="#63b8ff" d="M1041.2,-240.7C890.69,-211.3 548.41,-144.43 403.35,-116.08"/>
<polygon fill="#63b8ff" stroke="#63b8ff" points="1040.21,-244.27 1050.7,-242.75 1041.55,-237.4 1040.21,-244.27"/>
</a>
</g>
</g>
<!-- Node6 -->
<g id="Node000006" class="node">
<title>Node6</title>
<g id="a_Node000006"><a xlink:href="a00380.html" target="_top" xlink:title="Contains public fault functions.">
<polygon fill="white" stroke="#666666" points="819.75,-118 695,-118 695,-86 819.75,-86 819.75,-118"/>
<text text-anchor="start" x="703" y="-104.5" font-family="Helvetica,sans-Serif" font-size="10.00">dspic33ck&#45;dab.X/sources</text>
<text text-anchor="middle" x="757.38" y="-92.5" font-family="Helvetica,sans-Serif" font-size="10.00">/fault/fault.h</text>
</a>
</g>
</g>
<!-- Node2&#45;&gt;Node6 -->
<g id="edge5_Node000002_Node000006" class="edge">
<title>Node2&#45;&gt;Node6</title>
<g id="a_edge5_Node000002_Node000006"><a xlink:title=" ">
<path fill="none" stroke="#63b8ff" d="M1047.15,-236.47C1017.93,-227.72 983.55,-216.45 953.38,-204 890.56,-178.09 820.63,-139.55 783.64,-118.36"/>
<polygon fill="#63b8ff" stroke="#63b8ff" points="1046.08,-240.1 1056.66,-239.58 1048.06,-233.39 1046.08,-240.1"/>
</a>
</g>
</g>
<!-- Node14 -->
<g id="Node000014" class="node">
<title>Node14</title>
<g id="a_Node000014"><a xlink:href="a00464_source.html" target="_top" xlink:title=" ">
<polygon fill="white" stroke="#666666" points="1131.75,-118 1007,-118 1007,-86 1131.75,-86 1131.75,-118"/>
<text text-anchor="start" x="1015" y="-104.5" font-family="Helvetica,sans-Serif" font-size="10.00">dspic33ck&#45;dab.X/sources</text>
<text text-anchor="middle" x="1069.38" y="-92.5" font-family="Helvetica,sans-Serif" font-size="10.00">/pwrctrl/pwrctrl.h</text>
</a>
</g>
</g>
<!-- Node2&#45;&gt;Node14 -->
<g id="edge14_Node000002_Node000014" class="edge">
<title>Node2&#45;&gt;Node14</title>
<g id="a_edge14_Node000002_Node000014"><a xlink:title=" ">
<path fill="none" stroke="#63b8ff" d="M1110.82,-228.89C1107.78,-209.57 1102.74,-182.77 1095.38,-160 1090.62,-145.3 1083.14,-129.37 1077.42,-118.1"/>
<polygon fill="#63b8ff" stroke="#63b8ff" points="1107.47,-229.21 1112.41,-238.59 1114.4,-228.18 1107.47,-229.21"/>
</a>
</g>
</g>
<!-- Node19 -->
<g id="Node000019" class="node">
<title>Node19</title>
<g id="a_Node000019"><a xlink:href="a00488.html" target="_top" xlink:title="Contains DAB control phase calculation between primary and secondary, and the PWM distribution.">
<polygon fill="white" stroke="#666666" points="2035.75,-38 1911,-38 1911,-6 2035.75,-6 2035.75,-38"/>
<text text-anchor="start" x="1919" y="-24.5" font-family="Helvetica,sans-Serif" font-size="10.00">dspic33ck&#45;dab.X/sources</text>
<text text-anchor="middle" x="1973.38" y="-12.5" font-family="Helvetica,sans-Serif" font-size="10.00">/pwrctrl/pwrctrl_pwm.c</text>
</a>
</g>
</g>
<!-- Node2&#45;&gt;Node19 -->
<g id="edge33_Node000002_Node000019" class="edge">
<title>Node2&#45;&gt;Node19</title>
<g id="a_edge33_Node000002_Node000019"><a xlink:title=" ">
<path fill="none" stroke="#63b8ff" d="M1188.22,-254.16C1281.1,-251.47 1444.74,-241.25 1579.38,-204 1725.92,-163.45 1886.51,-74.2 1947.74,-38.35"/>
<polygon fill="#63b8ff" stroke="#63b8ff" points="1188.15,-250.69 1178.25,-254.46 1188.34,-257.69 1188.15,-250.69"/>
</a>
</g>
</g>
<!-- Node20 -->
<g id="Node000020" class="node">
<title>Node20</title>
<g id="a_Node000020"><a xlink:href="a00476.html" target="_top" xlink:title="Contains public functions relevant for power control communication interface.">
<polygon fill="white" stroke="#666666" points="1510.75,-204 1386,-204 1386,-160 1510.75,-160 1510.75,-204"/>
<text text-anchor="start" x="1394" y="-190.5" font-family="Helvetica,sans-Serif" font-size="10.00">dspic33ck&#45;dab.X/sources</text>
<text text-anchor="start" x="1394" y="-178.5" font-family="Helvetica,sans-Serif" font-size="10.00">/pwrctrl/pwrctrl_comm</text>
<text text-anchor="middle" x="1448.38" y="-166.5" font-family="Helvetica,sans-Serif" font-size="10.00">_interface.h</text>
</a>
</g>
</g>
<!-- Node2&#45;&gt;Node20 -->
<g id="edge29_Node000002_Node000020" class="edge">
<title>Node2&#45;&gt;Node20</title>
<g id="a_edge29_Node000002_Node000020"><a xlink:title=" ">
<path fill="none" stroke="#63b8ff" d="M1187.6,-239.21C1246.82,-226.45 1329.31,-208.67 1385.55,-196.54"/>
<polygon fill="#63b8ff" stroke="#63b8ff" points="1187.24,-235.93 1178.2,-241.46 1188.71,-242.77 1187.24,-235.93"/>
</a>
</g>
</g>
<!-- Node21 -->
<g id="Node000021" class="node">
<title>Node21</title>
<g id="a_Node000021"><a xlink:href="a00491.html" target="_top" xlink:title="Contains public functions for PWM.">
<polygon fill="white" stroke="#666666" points="1086.75,-198 962,-198 962,-166 1086.75,-166 1086.75,-198"/>
<text text-anchor="start" x="970" y="-184.5" font-family="Helvetica,sans-Serif" font-size="10.00">dspic33ck&#45;dab.X/sources</text>
<text text-anchor="middle" x="1024.38" y="-172.5" font-family="Helvetica,sans-Serif" font-size="10.00">/pwrctrl/pwrctrl_pwm.h</text>
</a>
</g>
</g>
<!-- Node2&#45;&gt;Node21 -->
<g id="edge34_Node000002_Node000021" class="edge">
<title>Node2&#45;&gt;Node21</title>
<g id="a_edge34_Node000002_Node000021"><a xlink:title=" ">
<path fill="none" stroke="#63b8ff" d="M1087,-233.1C1073.03,-221.92 1056.37,-208.59 1043.74,-198.5"/>
<polygon fill="#63b8ff" stroke="#63b8ff" points="1084.29,-236.22 1094.29,-239.73 1088.67,-230.75 1084.29,-236.22"/>
</a>
</g>
</g>
<!-- Node5 -->
<g id="Node000005" class="node">
<title>Node5</title>
<g id="a_Node000005"><a xlink:href="a00365_source.html" target="_top" xlink:title=" ">
<polygon fill="white" stroke="#666666" points="124.75,-44 0,-44 0,0 124.75,0 124.75,-44"/>
<text text-anchor="start" x="8" y="-30.5" font-family="Helvetica,sans-Serif" font-size="10.00">dspic33ck&#45;dab.X/sources</text>
<text text-anchor="start" x="8" y="-18.5" font-family="Helvetica,sans-Serif" font-size="10.00">/driver/mcc_extension</text>
<text text-anchor="middle" x="62.38" y="-6.5" font-family="Helvetica,sans-Serif" font-size="10.00">/mcc_custom_config.c</text>
</a>
</g>
</g>
<!-- Node4&#45;&gt;Node5 -->
<g id="edge4_Node000004_Node000005" class="edge">
<title>Node4&#45;&gt;Node5</title>
<g id="a_edge4_Node000004_Node000005"><a xlink:title=" ">
<path fill="none" stroke="#63b8ff" d="M259.1,-79.57C221.19,-68.99 174.85,-55.96 133.38,-44 130.66,-43.22 127.88,-42.41 125.08,-41.6"/>
<polygon fill="#63b8ff" stroke="#63b8ff" points="257.99,-83.18 268.57,-82.49 259.87,-76.43 257.99,-83.18"/>
</a>
</g>
</g>
<!-- Node6&#45;&gt;Node6 -->
<g id="edge9_Node000006_Node000006" class="edge">
<title>Node6&#45;&gt;Node6</title>
<g id="a_edge9_Node000006_Node000006"><a xlink:title=" ">
<path fill="none" stroke="#63b8ff" d="M830.26,-112.61C834.93,-110.13 837.75,-106.59 837.75,-102 837.75,-94.66 830.53,-90.01 820.06,-88.06"/>
<polygon fill="#63b8ff" stroke="#63b8ff" points="829.47,-109.51 821.06,-115.94 831.65,-116.16 829.47,-109.51"/>
</a>
</g>
</g>
<!-- Node7 -->
<g id="Node000007" class="node">
<title>Node7</title>
<g id="a_Node000007"><a xlink:href="a00077_source.html" target="_top" xlink:title=" ">
<polygon fill="white" stroke="#666666" points="262.12,-32 142.62,-32 142.62,-12 262.12,-12 262.12,-32"/>
<text text-anchor="middle" x="202.38" y="-18.5" font-family="Helvetica,sans-Serif" font-size="10.00">dspic33ck&#45;dab.X/main.c</text>
</a>
</g>
</g>
<!-- Node6&#45;&gt;Node7 -->
<g id="edge6_Node000006_Node000007" class="edge">
<title>Node6&#45;&gt;Node7</title>
<g id="a_edge6_Node000006_Node000007"><a xlink:title=" ">
<path fill="none" stroke="#63b8ff" d="M683.77,-96.59C587.81,-89.89 415.14,-74.56 270.38,-44 256.47,-41.07 241.34,-36.53 228.88,-32.42"/>
<polygon fill="#63b8ff" stroke="#63b8ff" points="683.3,-100.14 693.51,-97.33 683.78,-93.16 683.3,-100.14"/>
</a>
</g>
</g>
<!-- Node8 -->
<g id="Node000008" class="node">
<title>Node8</title>
<g id="a_Node000008"><a xlink:href="a00080_source.html" target="_top" xlink:title=" ">
<polygon fill="white" stroke="#666666" points="391,-38 279.75,-38 279.75,-6 391,-6 391,-38"/>
<text text-anchor="start" x="287.75" y="-24.5" font-family="Helvetica,sans-Serif" font-size="10.00">dspic33ck&#45;dab.X/main</text>
<text text-anchor="middle" x="335.38" y="-12.5" font-family="Helvetica,sans-Serif" font-size="10.00">_tasks.c</text>
</a>
</g>
</g>
<!-- Node6&#45;&gt;Node8 -->
<g id="edge7_Node000006_Node000008" class="edge">
<title>Node6&#45;&gt;Node8</title>
<g id="a_edge7_Node000006_Node000008"><a xlink:title=" ">
<path fill="none" stroke="#63b8ff" d="M683.71,-92.61C611.07,-83.55 497.18,-67.22 400.38,-44 393.8,-42.42 386.93,-40.51 380.23,-38.48"/>
<polygon fill="#63b8ff" stroke="#63b8ff" points="683.21,-96.2 693.57,-93.95 684.07,-89.25 683.21,-96.2"/>
</a>
</g>
</g>
<!-- Node9 -->
<g id="Node000009" class="node">
<title>Node9</title>
<g id="a_Node000009"><a xlink:href="a00377.html" target="_top" xlink:title="Contains fault functions including the fault handler, fault object initialization and fault execution...">
<polygon fill="white" stroke="#666666" points="533.75,-38 409,-38 409,-6 533.75,-6 533.75,-38"/>
<text text-anchor="start" x="417" y="-24.5" font-family="Helvetica,sans-Serif" font-size="10.00">dspic33ck&#45;dab.X/sources</text>
<text text-anchor="middle" x="471.38" y="-12.5" font-family="Helvetica,sans-Serif" font-size="10.00">/fault/fault.c</text>
</a>
</g>
</g>
<!-- Node6&#45;&gt;Node9 -->
<g id="edge8_Node000006_Node000009" class="edge">
<title>Node6&#45;&gt;Node9</title>
<g id="a_edge8_Node000006_Node000009"><a xlink:title=" ">
<path fill="none" stroke="#63b8ff" d="M687.14,-82.74C645.32,-71.75 591.24,-57.35 543.38,-44 536.98,-42.22 530.27,-40.31 523.64,-38.4"/>
<polygon fill="#63b8ff" stroke="#63b8ff" points="686.21,-86.37 696.77,-85.53 687.99,-79.6 686.21,-86.37"/>
</a>
</g>
</g>
<!-- Node10 -->
<g id="Node000010" class="node">
<title>Node10</title>
<g id="a_Node000010"><a xlink:href="a00461.html" target="_top" xlink:title="Contains power control initialization including control loop initialization and start&#45;up initializati...">
<polygon fill="white" stroke="#666666" points="676.75,-38 552,-38 552,-6 676.75,-6 676.75,-38"/>
<text text-anchor="start" x="560" y="-24.5" font-family="Helvetica,sans-Serif" font-size="10.00">dspic33ck&#45;dab.X/sources</text>
<text text-anchor="middle" x="614.38" y="-12.5" font-family="Helvetica,sans-Serif" font-size="10.00">/pwrctrl/pwrctrl.c</text>
</a>
</g>
</g>
<!-- Node6&#45;&gt;Node10 -->
<g id="edge10_Node000006_Node000010" class="edge">
<title>Node6&#45;&gt;Node10</title>
<g id="a_edge10_Node000006_Node000010"><a xlink:title=" ">
<path fill="none" stroke="#63b8ff" d="M719.56,-80.37C695.4,-67.19 664.59,-50.39 642.57,-38.38"/>
<polygon fill="#63b8ff" stroke="#63b8ff" points="717.67,-83.87 728.12,-85.59 721.02,-77.73 717.67,-83.87"/>
</a>
</g>
</g>
<!-- Node11 -->
<g id="Node000011" class="node">
<title>Node11</title>
<g id="a_Node000011"><a xlink:href="a00479.html" target="_top" xlink:title="Contains Control loop interrupt Callback that acquires the ADC raw data and process it in the control...">
<polygon fill="white" stroke="#666666" points="819.75,-38 695,-38 695,-6 819.75,-6 819.75,-38"/>
<text text-anchor="start" x="703" y="-24.5" font-family="Helvetica,sans-Serif" font-size="10.00">dspic33ck&#45;dab.X/sources</text>
<text text-anchor="middle" x="757.38" y="-12.5" font-family="Helvetica,sans-Serif" font-size="10.00">/pwrctrl/pwrctrl_isr.c</text>
</a>
</g>
</g>
<!-- Node6&#45;&gt;Node11 -->
<g id="edge11_Node000006_Node000011" class="edge">
<title>Node6&#45;&gt;Node11</title>
<g id="a_edge11_Node000006_Node000011"><a xlink:title=" ">
<path fill="none" stroke="#63b8ff" d="M757.38,-74.74C757.38,-62.65 757.38,-48.73 757.38,-38.38"/>
<polygon fill="#63b8ff" stroke="#63b8ff" points="753.88,-74.59 757.38,-84.59 760.88,-74.59 753.88,-74.59"/>
</a>
</g>
</g>
<!-- Node12 -->
<g id="Node000012" class="node">
<title>Node12</title>
<g id="a_Node000012"><a xlink:href="a00485.html" target="_top" xlink:title="Contains some of the functions used in the interrupt service routine of control loop.">
<polygon fill="white" stroke="#666666" points="988.5,-38 838.25,-38 838.25,-6 988.5,-6 988.5,-38"/>
<text text-anchor="start" x="846.25" y="-24.5" font-family="Helvetica,sans-Serif" font-size="10.00">dspic33ck&#45;dab.X/sources</text>
<text text-anchor="middle" x="913.38" y="-12.5" font-family="Helvetica,sans-Serif" font-size="10.00">/pwrctrl/pwrctrl_isr_extension.c</text>
</a>
</g>
</g>
<!-- Node6&#45;&gt;Node12 -->
<g id="edge12_Node000006_Node000012" class="edge">
<title>Node6&#45;&gt;Node12</title>
<g id="a_edge12_Node000006_Node000012"><a xlink:title=" ">
<path fill="none" stroke="#63b8ff" d="M797.93,-80.72C824.39,-67.49 858.38,-50.5 882.62,-38.38"/>
<polygon fill="#63b8ff" stroke="#63b8ff" points="796.57,-77.99 789.2,-85.59 799.71,-84.25 796.57,-77.99"/>
</a>
</g>
</g>
<!-- Node13 -->
<g id="Node000013" class="node">
<title>Node13</title>
<g id="a_Node000013"><a xlink:href="a00494.html" target="_top" xlink:title="Contains power control state machine functions that is executed every 100us.">
<polygon fill="white" stroke="#666666" points="1131.75,-38 1007,-38 1007,-6 1131.75,-6 1131.75,-38"/>
<text text-anchor="start" x="1015" y="-24.5" font-family="Helvetica,sans-Serif" font-size="10.00">dspic33ck&#45;dab.X/sources</text>
<text text-anchor="middle" x="1069.38" y="-12.5" font-family="Helvetica,sans-Serif" font-size="10.00">/pwrctrl/pwrctrl_sm.c</text>
</a>
</g>
</g>
<!-- Node6&#45;&gt;Node13 -->
<g id="edge13_Node000006_Node000013" class="edge">
<title>Node6&#45;&gt;Node13</title>
<g id="a_edge13_Node000006_Node000013"><a xlink:title=" ">
<path fill="none" stroke="#63b8ff" d="M830.53,-84.64C878.2,-73.73 941.66,-58.73 997.38,-44 1003.92,-42.27 1010.78,-40.38 1017.55,-38.46"/>
<polygon fill="#63b8ff" stroke="#63b8ff" points="829.97,-81.4 821,-87.04 831.53,-88.23 829.97,-81.4"/>
</a>
</g>
</g>
<!-- Node14&#45;&gt;Node3 -->
<g id="edge17_Node000014_Node000003" class="edge">
<title>Node14&#45;&gt;Node3</title>
<g id="a_edge17_Node000014_Node000003"><a xlink:title=" ">
<path fill="none" stroke="#63b8ff" d="M1142.68,-98.44C1265.42,-93.33 1519.95,-79.15 1732.38,-44 1741.37,-42.51 1750.82,-40.57 1760.02,-38.46"/>
<polygon fill="#63b8ff" stroke="#63b8ff" points="1142.79,-94.98 1132.94,-98.88 1143.07,-101.97 1142.79,-94.98"/>
</a>
</g>
</g>
<!-- Node14&#45;&gt;Node5 -->
<g id="edge19_Node000014_Node000005" class="edge">
<title>Node14&#45;&gt;Node5</title>
<g id="a_edge19_Node000014_Node000005"><a xlink:title=" ">
<path fill="none" stroke="#63b8ff" d="M996.19,-93.3C952.7,-88.93 896.43,-83.62 846.38,-80 529.91,-57.12 446.15,-97.37 133.38,-44 130.59,-43.52 127.75,-42.98 124.9,-42.37"/>
<polygon fill="#63b8ff" stroke="#63b8ff" points="995.65,-96.87 1005.96,-94.39 996.36,-89.9 995.65,-96.87"/>
</a>
</g>
</g>
<!-- Node14&#45;&gt;Node7 -->
<g id="edge15_Node000014_Node000007" class="edge">
<title>Node14&#45;&gt;Node7</title>
<g id="a_edge15_Node000014_Node000007"><a xlink:title=" ">
<path fill="none" stroke="#63b8ff" d="M996.17,-93.52C952.67,-89.22 896.41,-83.92 846.38,-80 590.66,-59.97 522.69,-90.17 270.38,-44 256.03,-41.38 240.47,-36.71 227.85,-32.44"/>
<polygon fill="#63b8ff" stroke="#63b8ff" points="995.64,-97.09 1005.94,-94.59 996.34,-90.12 995.64,-97.09"/>
</a>
</g>
</g>
<!-- Node14&#45;&gt;Node8 -->
<g id="edge16_Node000014_Node000008" class="edge">
<title>Node14&#45;&gt;Node8</title>
<g id="a_edge16_Node000014_Node000008"><a xlink:title=" ">
<path fill="none" stroke="#63b8ff" d="M996.14,-93.86C952.64,-89.67 896.37,-84.37 846.38,-80 648.26,-62.68 595.41,-82.83 400.38,-44 393.16,-42.56 385.63,-40.59 378.36,-38.43"/>
<polygon fill="#63b8ff" stroke="#63b8ff" points="995.63,-97.42 1005.92,-94.89 996.3,-90.45 995.63,-97.42"/>
</a>
</g>
</g>
<!-- Node14&#45;&gt;Node9 -->
<g id="edge20_Node000014_Node000009" class="edge">
<title>Node14&#45;&gt;Node9</title>
<g id="a_edge20_Node000014_Node000009"><a xlink:title=" ">
<path fill="none" stroke="#63b8ff" d="M996.42,-93.81C862.41,-80.51 586.74,-52.6 543.38,-44 535.71,-42.48 527.69,-40.52 519.89,-38.41"/>
<polygon fill="#63b8ff" stroke="#63b8ff" points="995.69,-97.36 1005.99,-94.86 996.38,-90.39 995.69,-97.36"/>
</a>
</g>
</g>
<!-- Node14&#45;&gt;Node10 -->
<g id="edge22_Node000014_Node000010" class="edge">
<title>Node14&#45;&gt;Node10</title>
<g id="a_edge22_Node000014_Node000010"><a xlink:title=" ">
<path fill="none" stroke="#63b8ff" d="M995.93,-93.08C918.43,-84.02 792.99,-67.37 686.38,-44 679.13,-42.41 671.53,-40.49 664.11,-38.46"/>
<polygon fill="#63b8ff" stroke="#63b8ff" points="995.21,-96.64 1005.54,-94.31 996.01,-89.68 995.21,-96.64"/>
</a>
</g>
</g>
<!-- Node14&#45;&gt;Node11 -->
<g id="edge25_Node000014_Node000011" class="edge">
<title>Node14&#45;&gt;Node11</title>
<g id="a_edge25_Node000014_Node000011"><a xlink:title=" ">
<path fill="none" stroke="#63b8ff" d="M996.22,-84.64C948.55,-73.73 885.09,-58.73 829.38,-44 822.83,-42.27 815.97,-40.38 809.2,-38.46"/>
<polygon fill="#63b8ff" stroke="#63b8ff" points="995.22,-88.23 1005.75,-87.04 996.78,-81.4 995.22,-88.23"/>
</a>
</g>
</g>
<!-- Node14&#45;&gt;Node12 -->
<g id="edge26_Node000014_Node000012" class="edge">
<title>Node14&#45;&gt;Node12</title>
<g id="a_edge26_Node000014_Node000012"><a xlink:title=" ">
<path fill="none" stroke="#63b8ff" d="M1028.82,-80.72C1002.36,-67.49 968.37,-50.5 944.13,-38.38"/>
<polygon fill="#63b8ff" stroke="#63b8ff" points="1027.04,-84.25 1037.55,-85.59 1030.18,-77.99 1027.04,-84.25"/>
</a>
</g>
</g>
<!-- Node14&#45;&gt;Node13 -->
<g id="edge28_Node000014_Node000013" class="edge">
<title>Node14&#45;&gt;Node13</title>
<g id="a_edge28_Node000014_Node000013"><a xlink:title=" ">
<path fill="none" stroke="#63b8ff" d="M1069.38,-74.74C1069.38,-62.65 1069.38,-48.73 1069.38,-38.38"/>
<polygon fill="#63b8ff" stroke="#63b8ff" points="1065.88,-74.59 1069.38,-84.59 1072.88,-74.59 1065.88,-74.59"/>
</a>
</g>
</g>
<!-- Node15 -->
<g id="Node000015" class="node">
<title>Node15</title>
<g id="a_Node000015"><a xlink:href="a00344_source.html" target="_top" xlink:title=" ">
<polygon fill="white" stroke="#666666" points="1723.75,-38 1599,-38 1599,-6 1723.75,-6 1723.75,-38"/>
<text text-anchor="start" x="1607" y="-24.5" font-family="Helvetica,sans-Serif" font-size="10.00">dspic33ck&#45;dab.X/sources</text>
<text text-anchor="middle" x="1661.38" y="-12.5" font-family="Helvetica,sans-Serif" font-size="10.00">/device/dev_temp.c</text>
</a>
</g>
</g>
<!-- Node14&#45;&gt;Node15 -->
<g id="edge18_Node000014_Node000015" class="edge">
<title>Node14&#45;&gt;Node15</title>
<g id="a_edge18_Node000014_Node000015"><a xlink:title=" ">
<path fill="none" stroke="#63b8ff" d="M1142.66,-97.01C1243.9,-90.58 1431.89,-75.35 1589.38,-44 1597.04,-42.47 1605.06,-40.51 1612.86,-38.4"/>
<polygon fill="#63b8ff" stroke="#63b8ff" points="1142.71,-93.56 1132.95,-97.68 1143.14,-100.55 1142.71,-93.56"/>
</a>
</g>
</g>
<!-- Node16 -->
<g id="Node000016" class="node">
<title>Node16</title>
<g id="a_Node000016"><a xlink:href="a00389.html" target="_top" xlink:title="Contains API functions for fault protection.">
<polygon fill="white" stroke="#666666" points="1437.62,-38 1297.12,-38 1297.12,-6 1437.62,-6 1437.62,-38"/>
<text text-anchor="start" x="1305.12" y="-24.5" font-family="Helvetica,sans-Serif" font-size="10.00">dspic33ck&#45;dab.X/sources</text>
<text text-anchor="middle" x="1367.38" y="-12.5" font-family="Helvetica,sans-Serif" font-size="10.00">/fault/fault_comm_interface.c</text>
</a>
</g>
</g>
<!-- Node14&#45;&gt;Node16 -->
<g id="edge21_Node000014_Node000016" class="edge">
<title>Node14&#45;&gt;Node16</title>
<g id="a_edge21_Node000014_Node000016"><a xlink:title=" ">
<path fill="none" stroke="#63b8ff" d="M1139.52,-82.84C1182.5,-71.69 1238.64,-57.08 1288.38,-44 1295.24,-42.19 1302.43,-40.29 1309.57,-38.4"/>
<polygon fill="#63b8ff" stroke="#63b8ff" points="1138.69,-79.7 1129.88,-85.6 1140.44,-86.48 1138.69,-79.7"/>
</a>
</g>
</g>
<!-- Node17 -->
<g id="Node000017" class="node">
<title>Node17</title>
<g id="a_Node000017"><a xlink:href="a00473.html" target="_top" xlink:title="Contains power control interface with communication/gui.">
<polygon fill="white" stroke="#666666" points="1580.75,-44 1456,-44 1456,0 1580.75,0 1580.75,-44"/>
<text text-anchor="start" x="1464" y="-30.5" font-family="Helvetica,sans-Serif" font-size="10.00">dspic33ck&#45;dab.X/sources</text>
<text text-anchor="start" x="1464" y="-18.5" font-family="Helvetica,sans-Serif" font-size="10.00">/pwrctrl/pwrctrl_comm</text>
<text text-anchor="middle" x="1518.38" y="-6.5" font-family="Helvetica,sans-Serif" font-size="10.00">_interface.c</text>
</a>
</g>
</g>
<!-- Node14&#45;&gt;Node17 -->
<g id="edge23_Node000014_Node000017" class="edge">
<title>Node14&#45;&gt;Node17</title>
<g id="a_edge23_Node000014_Node000017"><a xlink:title=" ">
<path fill="none" stroke="#63b8ff" d="M1142.68,-92.86C1219.04,-83.7 1341.88,-67.03 1446.38,-44 1449.43,-43.33 1452.54,-42.6 1455.67,-41.82"/>
<polygon fill="#63b8ff" stroke="#63b8ff" points="1142.74,-89.45 1133.22,-94.11 1143.56,-96.4 1142.74,-89.45"/>
</a>
</g>
</g>
<!-- Node18 -->
<g id="Node000018" class="node">
<title>Node18</title>
<g id="a_Node000018"><a xlink:href="a00467.html" target="_top" xlink:title="Contains generic functions that handles power control ramp Up/Down and the averaging generic function...">
<polygon fill="white" stroke="#666666" points="1279.38,-38 1149.38,-38 1149.38,-6 1279.38,-6 1279.38,-38"/>
<text text-anchor="start" x="1157.38" y="-24.5" font-family="Helvetica,sans-Serif" font-size="10.00">dspic33ck&#45;dab.X/sources</text>
<text text-anchor="middle" x="1214.38" y="-12.5" font-family="Helvetica,sans-Serif" font-size="10.00">/pwrctrl/pwrctrl_common.c</text>
</a>
</g>
</g>
<!-- Node14&#45;&gt;Node18 -->
<g id="edge24_Node000014_Node000018" class="edge">
<title>Node14&#45;&gt;Node18</title>
<g id="a_edge24_Node000014_Node000018"><a xlink:title=" ">
<path fill="none" stroke="#63b8ff" d="M1107.4,-80.55C1131.94,-67.34 1163.36,-50.44 1185.79,-38.38"/>
<polygon fill="#63b8ff" stroke="#63b8ff" points="1106.17,-77.77 1099.02,-85.59 1109.49,-83.93 1106.17,-77.77"/>
</a>
</g>
</g>
<!-- Node14&#45;&gt;Node19 -->
<g id="edge27_Node000014_Node000019" class="edge">
<title>Node14&#45;&gt;Node19</title>
<g id="a_edge27_Node000014_Node000019"><a xlink:title=" ">
<path fill="none" stroke="#63b8ff" d="M1142.71,-101.35C1288.6,-100.87 1625.05,-93.88 1902.38,-44 1910.22,-42.59 1918.43,-40.63 1926.36,-38.47"/>
<polygon fill="#63b8ff" stroke="#63b8ff" points="1143.12,-97.85 1133.12,-101.38 1143.13,-104.85 1143.12,-97.85"/>
</a>
</g>
</g>
<!-- Node20&#45;&gt;Node3 -->
<g id="edge30_Node000020_Node000003" class="edge">
<title>Node20&#45;&gt;Node3</title>
<g id="a_edge30_Node000020_Node000003"><a xlink:title=" ">
<path fill="none" stroke="#63b8ff" d="M1499.92,-154.59C1557.32,-125.2 1642.61,-81.58 1646.38,-80 1685.05,-63.8 1730.09,-48.94 1764.23,-38.46"/>
<polygon fill="#63b8ff" stroke="#63b8ff" points="1498.56,-151.86 1491.26,-159.54 1501.75,-158.09 1498.56,-151.86"/>
</a>
</g>
</g>
<!-- Node20&#45;&gt;Node14 -->
<g id="edge32_Node000020_Node000014" class="edge">
<title>Node20&#45;&gt;Node14</title>
<g id="a_edge32_Node000020_Node000014"><a xlink:title=" ">
<path fill="none" stroke="#63b8ff" d="M1375.21,-165.94C1304.61,-151.41 1198.88,-129.65 1132.05,-115.9"/>
<polygon fill="#63b8ff" stroke="#63b8ff" points="1374.29,-169.53 1384.79,-168.12 1375.7,-162.68 1374.29,-169.53"/>
</a>
</g>
</g>
<!-- Node20&#45;&gt;Node15 -->
<g id="edge31_Node000020_Node000015" class="edge">
<title>Node20&#45;&gt;Node15</title>
<g id="a_edge31_Node000020_Node000015"><a xlink:title=" ">
<path fill="none" stroke="#63b8ff" d="M1481.79,-152.77C1506.8,-132 1542.1,-103.42 1574.38,-80 1594.83,-65.15 1618.94,-49.5 1636.58,-38.36"/>
<polygon fill="#63b8ff" stroke="#63b8ff" points="1479.84,-150.67 1474.4,-159.76 1484.32,-156.05 1479.84,-150.67"/>
</a>
</g>
</g>
<!-- Node21&#45;&gt;Node6 -->
<g id="edge35_Node000021_Node000006" class="edge">
<title>Node21&#45;&gt;Node6</title>
<g id="a_edge35_Node000021_Node000006"><a xlink:title=" ">
<path fill="none" stroke="#63b8ff" d="M961.16,-162.53C915.1,-149.08 853.41,-131.06 810.02,-118.38"/>
<polygon fill="#63b8ff" stroke="#63b8ff" points="960.04,-166.15 970.62,-165.59 962.01,-159.43 960.04,-166.15"/>
</a>
</g>
</g>
<!-- Node21&#45;&gt;Node14 -->
<g id="edge36_Node000021_Node000014" class="edge">
<title>Node21&#45;&gt;Node14</title>
<g id="a_edge36_Node000021_Node000014"><a xlink:title=" ">
<path fill="none" stroke="#63b8ff" d="M1038.67,-156.23C1045.83,-143.81 1054.28,-129.16 1060.5,-118.38"/>
<polygon fill="#63b8ff" stroke="#63b8ff" points="1035.23,-154.18 1033.27,-164.59 1041.29,-157.68 1035.23,-154.18"/>
</a>
</g>
</g>
</g>
</svg>
