<?xml version="1.0" encoding="UTF-8" standalone="no"?>
<!DOCTYPE svg PUBLIC "-//W3C//DTD SVG 1.1//EN"
 "http://www.w3.org/Graphics/SVG/1.1/DTD/svg11.dtd">
<!-- Generated by graphviz version 8.1.0 (20230707.0739)
 -->
<!-- Title: dab&#45;pwm&#45;configuration.X/sources/device/pwrctrl/dev_pwrctrl_pwm.c Pages: 1 -->
<svg width="474pt" height="288pt"
 viewBox="0.00 0.00 474.10 288.00" xmlns="http://www.w3.org/2000/svg" xmlns:xlink="http://www.w3.org/1999/xlink">
<g id="graph0" class="graph" transform="scale(1 1) rotate(0) translate(4 284)">
<title>dab&#45;pwm&#45;configuration.X/sources/device/pwrctrl/dev_pwrctrl_pwm.c</title>
<!-- Node1 -->
<g id="Node000001" class="node">
<title>Node1</title>
<g id="a_Node000001"><a xlink:title="Contains DAB control phase calculation between primary and secondary, and the PWM distribution.">
<polygon fill="#999999" stroke="#666666" points="164.85,-280 43.85,-280 43.85,-236 164.85,-236 164.85,-280"/>
<text text-anchor="start" x="51.85" y="-266.5" font-family="Helvetica,sans-Serif" font-size="10.00">dab&#45;pwm&#45;configuration.X</text>
<text text-anchor="start" x="51.85" y="-254.5" font-family="Helvetica,sans-Serif" font-size="10.00">/sources/device/pwrctrl</text>
<text text-anchor="middle" x="104.35" y="-242.5" font-family="Helvetica,sans-Serif" font-size="10.00">/dev_pwrctrl_pwm.c</text>
</a>
</g>
</g>
<!-- Node2 -->
<g id="Node000002" class="node">
<title>Node2</title>
<g id="a_Node000002"><a xlink:title=" ">
<polygon fill="#e0e0e0" stroke="#999999" points="179.72,-76 144.97,-76 144.97,-56 179.72,-56 179.72,-76"/>
<text text-anchor="middle" x="162.35" y="-62.5" font-family="Helvetica,sans-Serif" font-size="10.00">xc.h</text>
</a>
</g>
</g>
<!-- Node1&#45;&gt;Node2 -->
<g id="edge1_Node000001_Node000002" class="edge">
<title>Node1&#45;&gt;Node2</title>
<g id="a_edge1_Node000001_Node000002"><a xlink:title=" ">
<path fill="none" stroke="#63b8ff" d="M93.27,-235.67C79.46,-205.85 60.31,-150.98 83.35,-112 89.26,-102 114.47,-88.63 134.85,-79.07"/>
<polygon fill="#63b8ff" stroke="#63b8ff" points="136.01,-81.93 143.64,-74.58 133.09,-75.56 136.01,-81.93"/>
</a>
</g>
</g>
<!-- Node3 -->
<g id="Node000003" class="node">
<title>Node3</title>
<g id="a_Node000003"><a xlink:title=" ">
<polygon fill="#e0e0e0" stroke="#999999" points="169.22,-20 113.47,-20 113.47,0 169.22,0 169.22,-20"/>
<text text-anchor="middle" x="141.35" y="-6.5" font-family="Helvetica,sans-Serif" font-size="10.00">stdbool.h</text>
</a>
</g>
</g>
<!-- Node1&#45;&gt;Node3 -->
<g id="edge2_Node000001_Node000003" class="edge">
<title>Node1&#45;&gt;Node3</title>
<g id="a_edge2_Node000001_Node000003"><a xlink:title=" ">
<path fill="none" stroke="#63b8ff" d="M80.93,-235.65C41.78,-197.34 -28.72,-115.39 13.35,-56 33.33,-27.79 72.47,-17.14 102.23,-13.18"/>
<polygon fill="#63b8ff" stroke="#63b8ff" points="102.57,-16.55 112.12,-11.97 101.79,-9.6 102.57,-16.55"/>
</a>
</g>
</g>
<!-- Node4 -->
<g id="Node000004" class="node">
<title>Node4</title>
<g id="a_Node000004"><a xlink:href="a00131.html" target="_top" xlink:title="This is the generated driver header file for the PWM driver.">
<polygon fill="white" stroke="#666666" points="328.1,-138 244.6,-138 244.6,-118 328.1,-118 328.1,-138"/>
<text text-anchor="middle" x="286.35" y="-124.5" font-family="Helvetica,sans-Serif" font-size="10.00">pwm_hs/pwm.h</text>
</a>
</g>
</g>
<!-- Node1&#45;&gt;Node4 -->
<g id="edge3_Node000001_Node000004" class="edge">
<title>Node1&#45;&gt;Node4</title>
<g id="a_edge3_Node000001_Node000004"><a xlink:title=" ">
<path fill="none" stroke="#63b8ff" d="M150.23,-235.6C169.48,-225.81 191.67,-213.4 210.35,-200 233.12,-183.66 256.23,-161.02 270.88,-145.74"/>
<polygon fill="#63b8ff" stroke="#63b8ff" points="272.78,-148.77 277.1,-139.09 267.69,-143.96 272.78,-148.77"/>
</a>
</g>
</g>
<!-- Node9 -->
<g id="Node000009" class="node">
<title>Node9</title>
<g id="a_Node000009"><a xlink:href="a00389_source.html" target="_top" xlink:title=" ">
<polygon fill="white" stroke="#666666" points="200.85,-200 91.85,-200 91.85,-180 200.85,-180 200.85,-200"/>
<text text-anchor="middle" x="146.35" y="-186.5" font-family="Helvetica,sans-Serif" font-size="10.00">dev_pwrctrl_typedef.h</text>
</a>
</g>
</g>
<!-- Node1&#45;&gt;Node9 -->
<g id="edge13_Node000001_Node000009" class="edge">
<title>Node1&#45;&gt;Node9</title>
<g id="a_edge13_Node000001_Node000009"><a xlink:title=" ">
<path fill="none" stroke="#63b8ff" d="M117.87,-235.75C123.26,-227.29 129.4,-217.64 134.6,-209.47"/>
<polygon fill="#63b8ff" stroke="#63b8ff" points="137.94,-211.73 140.35,-201.42 132.03,-207.98 137.94,-211.73"/>
</a>
</g>
</g>
<!-- Node4&#45;&gt;Node2 -->
<g id="edge4_Node000004_Node000002" class="edge">
<title>Node4&#45;&gt;Node2</title>
<g id="a_edge4_Node000004_Node000002"><a xlink:title=" ">
<path fill="none" stroke="#63b8ff" d="M266.97,-117.62C246.21,-107.58 213.07,-91.54 189.66,-80.22"/>
<polygon fill="#63b8ff" stroke="#63b8ff" points="191.51,-76.74 180.98,-75.53 188.46,-83.04 191.51,-76.74"/>
</a>
</g>
</g>
<!-- Node4&#45;&gt;Node3 -->
<g id="edge6_Node000004_Node000003" class="edge">
<title>Node4&#45;&gt;Node3</title>
<g id="a_edge6_Node000004_Node000003"><a xlink:title=" ">
<path fill="none" stroke="#63b8ff" d="M274.48,-117.51C249.61,-97.61 191.8,-51.36 161.18,-26.87"/>
<polygon fill="#63b8ff" stroke="#63b8ff" points="163.97,-23.81 153.97,-20.3 159.59,-29.28 163.97,-23.81"/>
</a>
</g>
</g>
<!-- Node5 -->
<g id="Node000005" class="node">
<title>Node5</title>
<g id="a_Node000005"><a xlink:title=" ">
<polygon fill="#e0e0e0" stroke="#999999" points="310.47,-20 262.22,-20 262.22,0 310.47,0 310.47,-20"/>
<text text-anchor="middle" x="286.35" y="-6.5" font-family="Helvetica,sans-Serif" font-size="10.00">stdint.h</text>
</a>
</g>
</g>
<!-- Node4&#45;&gt;Node5 -->
<g id="edge5_Node000004_Node000005" class="edge">
<title>Node4&#45;&gt;Node5</title>
<g id="a_edge5_Node000004_Node000005"><a xlink:title=" ">
<path fill="none" stroke="#63b8ff" d="M304.74,-117.54C326.67,-104.89 358.91,-81.12 346.35,-56 340.02,-43.35 328.27,-33.34 316.83,-26"/>
<polygon fill="#63b8ff" stroke="#63b8ff" points="318.81,-22.52 308.42,-20.46 315.26,-28.55 318.81,-22.52"/>
</a>
</g>
</g>
<!-- Node6 -->
<g id="Node000006" class="node">
<title>Node6</title>
<g id="a_Node000006"><a xlink:title=" ">
<polygon fill="#e0e0e0" stroke="#999999" points="441.1,-76 393.6,-76 393.6,-56 441.1,-56 441.1,-76"/>
<text text-anchor="middle" x="417.35" y="-62.5" font-family="Helvetica,sans-Serif" font-size="10.00">stdlib.h</text>
</a>
</g>
</g>
<!-- Node4&#45;&gt;Node6 -->
<g id="edge7_Node000004_Node000006" class="edge">
<title>Node4&#45;&gt;Node6</title>
<g id="a_edge7_Node000004_Node000006"><a xlink:title=" ">
<path fill="none" stroke="#63b8ff" d="M306.82,-117.62C328.35,-107.76 362.47,-92.13 387.11,-80.85"/>
<polygon fill="#63b8ff" stroke="#63b8ff" points="388.39,-83.66 396.02,-76.31 385.47,-77.29 388.39,-83.66"/>
</a>
</g>
</g>
<!-- Node7 -->
<g id="Node000007" class="node">
<title>Node7</title>
<g id="a_Node000007"><a xlink:href="a00140.html" target="_top" xlink:title="This is the generated driver types header file for the PWM driver.">
<polygon fill="white" stroke="#666666" points="466.1,-20 376.6,-20 376.6,0 466.1,0 466.1,-20"/>
<text text-anchor="middle" x="421.35" y="-6.5" font-family="Helvetica,sans-Serif" font-size="10.00">pwm_hs_types.h</text>
</a>
</g>
</g>
<!-- Node4&#45;&gt;Node7 -->
<g id="edge8_Node000004_Node000007" class="edge">
<title>Node4&#45;&gt;Node7</title>
<g id="a_edge8_Node000004_Node000007"><a xlink:title=" ">
<path fill="none" stroke="#63b8ff" d="M328.5,-126.93C367.2,-124.34 422.59,-113.7 450.35,-76 461.05,-61.47 450.11,-42.37 438.73,-28.64"/>
<polygon fill="#63b8ff" stroke="#63b8ff" points="441.7,-26.59 432.42,-21.49 436.49,-31.27 441.7,-26.59"/>
</a>
</g>
</g>
<!-- Node8 -->
<g id="Node000008" class="node">
<title>Node8</title>
<g id="a_Node000008"><a xlink:href="a00137_source.html" target="_top" xlink:title=" ">
<polygon fill="white" stroke="#666666" points="337.47,-76 235.22,-76 235.22,-56 337.47,-56 337.47,-76"/>
<text text-anchor="middle" x="286.35" y="-62.5" font-family="Helvetica,sans-Serif" font-size="10.00">pwm_hs_interface.h</text>
</a>
</g>
</g>
<!-- Node4&#45;&gt;Node8 -->
<g id="edge9_Node000004_Node000008" class="edge">
<title>Node4&#45;&gt;Node8</title>
<g id="a_edge9_Node000004_Node000008"><a xlink:title=" ">
<path fill="none" stroke="#63b8ff" d="M286.35,-117.62C286.35,-109.48 286.35,-97.39 286.35,-87.07"/>
<polygon fill="#63b8ff" stroke="#63b8ff" points="289.85,-87.11 286.35,-77.11 282.85,-87.11 289.85,-87.11"/>
</a>
</g>
</g>
<!-- Node8&#45;&gt;Node3 -->
<g id="edge10_Node000008_Node000003" class="edge">
<title>Node8&#45;&gt;Node3</title>
<g id="a_edge10_Node000008_Node000003"><a xlink:title=" ">
<path fill="none" stroke="#63b8ff" d="M261.09,-55.59C237.84,-46.94 203.11,-34 177.04,-24.29"/>
<polygon fill="#63b8ff" stroke="#63b8ff" points="178.39,-20.69 167.8,-20.48 175.95,-27.25 178.39,-20.69"/>
</a>
</g>
</g>
<!-- Node8&#45;&gt;Node5 -->
<g id="edge11_Node000008_Node000005" class="edge">
<title>Node8&#45;&gt;Node5</title>
<g id="a_edge11_Node000008_Node000005"><a xlink:title=" ">
<path fill="none" stroke="#63b8ff" d="M286.35,-55.59C286.35,-48.86 286.35,-39.53 286.35,-31.15"/>
<polygon fill="#63b8ff" stroke="#63b8ff" points="289.85,-31.3 286.35,-21.3 282.85,-31.3 289.85,-31.3"/>
</a>
</g>
</g>
<!-- Node8&#45;&gt;Node7 -->
<g id="edge12_Node000008_Node000007" class="edge">
<title>Node8&#45;&gt;Node7</title>
<g id="a_edge12_Node000008_Node000007"><a xlink:title=" ">
<path fill="none" stroke="#63b8ff" d="M309.86,-55.59C331.32,-47.01 363.27,-34.23 387.47,-24.55"/>
<polygon fill="#63b8ff" stroke="#63b8ff" points="388.66,-27.44 396.65,-20.48 386.06,-20.94 388.66,-27.44"/>
</a>
</g>
</g>
<!-- Node10 -->
<g id="Node000010" class="node">
<title>Node10</title>
<g id="a_Node000010"><a xlink:href="a00329_source.html" target="_top" xlink:title=" ">
<polygon fill="white" stroke="#666666" points="196.6,-144 92.1,-144 92.1,-112 196.6,-112 196.6,-144"/>
<text text-anchor="start" x="100.1" y="-130.5" font-family="Helvetica,sans-Serif" font-size="10.00">device/fault/dev_fault</text>
<text text-anchor="middle" x="144.35" y="-118.5" font-family="Helvetica,sans-Serif" font-size="10.00">_typedef.h</text>
</a>
</g>
</g>
<!-- Node9&#45;&gt;Node10 -->
<g id="edge14_Node000009_Node000010" class="edge">
<title>Node9&#45;&gt;Node10</title>
<g id="a_edge14_Node000009_Node000010"><a xlink:title=" ">
<path fill="none" stroke="#63b8ff" d="M146.04,-179.62C145.82,-173.02 145.51,-163.84 145.22,-155.11"/>
<polygon fill="#63b8ff" stroke="#63b8ff" points="148.68,-155.02 144.85,-145.14 141.69,-155.25 148.68,-155.02"/>
</a>
</g>
</g>
<!-- Node11 -->
<g id="Node000011" class="node">
<title>Node11</title>
<g id="a_Node000011"><a xlink:href="a00326_source.html" target="_top" xlink:title=" ">
<polygon fill="white" stroke="#666666" points="126.6,-76 22.1,-76 22.1,-56 126.6,-56 126.6,-76"/>
<text text-anchor="middle" x="74.35" y="-62.5" font-family="Helvetica,sans-Serif" font-size="10.00">dev_fault_common.h</text>
</a>
</g>
</g>
<!-- Node10&#45;&gt;Node11 -->
<g id="edge15_Node000010_Node000011" class="edge">
<title>Node10&#45;&gt;Node11</title>
<g id="a_edge15_Node000010_Node000011"><a xlink:title=" ">
<path fill="none" stroke="#63b8ff" d="M126.32,-111.55C116.29,-102.95 103.82,-92.26 93.6,-83.5"/>
<polygon fill="#63b8ff" stroke="#63b8ff" points="96.19,-80.26 86.32,-76.41 91.64,-85.57 96.19,-80.26"/>
</a>
</g>
</g>
<!-- Node11&#45;&gt;Node3 -->
<g id="edge17_Node000011_Node000003" class="edge">
<title>Node11&#45;&gt;Node3</title>
<g id="a_edge17_Node000011_Node000003"><a xlink:title=" ">
<path fill="none" stroke="#63b8ff" d="M86.02,-55.59C95.72,-47.77 109.75,-36.46 121.26,-27.19"/>
<polygon fill="#63b8ff" stroke="#63b8ff" points="123.22,-29.3 128.81,-20.3 118.83,-23.85 123.22,-29.3"/>
</a>
</g>
</g>
<!-- Node11&#45;&gt;Node5 -->
<g id="edge16_Node000011_Node000005" class="edge">
<title>Node11&#45;&gt;Node5</title>
<g id="a_edge16_Node000011_Node000005"><a xlink:title=" ">
<path fill="none" stroke="#63b8ff" d="M111.28,-55.59C150.75,-45.54 212.85,-29.72 251.5,-19.88"/>
<polygon fill="#63b8ff" stroke="#63b8ff" points="251.92,-23.13 260.74,-17.27 250.19,-16.34 251.92,-23.13"/>
</a>
</g>
</g>
</g>
</svg>
