<?xml version="1.0" encoding="UTF-8" standalone="no"?>
<!DOCTYPE svg PUBLIC "-//W3C//DTD SVG 1.1//EN"
 "http://www.w3.org/Graphics/SVG/1.1/DTD/svg11.dtd">
<!-- Generated by graphviz version 8.1.0 (20230707.0739)
 -->
<!-- Title: dspic33ck&#45;dab.X/sources/device/dev_temp.h Pages: 1 -->
<svg width="343pt" height="220pt"
 viewBox="0.00 0.00 343.25 220.00" xmlns="http://www.w3.org/2000/svg" xmlns:xlink="http://www.w3.org/1999/xlink">
<g id="graph0" class="graph" transform="scale(1 1) rotate(0) translate(4 216)">
<title>dspic33ck&#45;dab.X/sources/device/dev_temp.h</title>
<!-- Node1 -->
<g id="Node000001" class="node">
<title>Node1</title>
<g id="a_Node000001"><a xlink:title="Contains temperature initialization and execution functions.">
<polygon fill="#999999" stroke="#666666" points="124.75,-212 0,-212 0,-180 124.75,-180 124.75,-212"/>
<text text-anchor="start" x="8" y="-198.5" font-family="Helvetica,sans-Serif" font-size="10.00">dspic33ck&#45;dab.X/sources</text>
<text text-anchor="middle" x="62.38" y="-186.5" font-family="Helvetica,sans-Serif" font-size="10.00">/device/dev_temp.h</text>
</a>
</g>
</g>
<!-- Node2 -->
<g id="Node000002" class="node">
<title>Node2</title>
<g id="a_Node000002"><a xlink:title=" ">
<polygon fill="#e0e0e0" stroke="#999999" points="79.75,-88 45,-88 45,-68 79.75,-68 79.75,-88"/>
<text text-anchor="middle" x="62.38" y="-74.5" font-family="Helvetica,sans-Serif" font-size="10.00">xc.h</text>
</a>
</g>
</g>
<!-- Node1&#45;&gt;Node2 -->
<g id="edge1_Node000001_Node000002" class="edge">
<title>Node1&#45;&gt;Node2</title>
<g id="a_edge1_Node000001_Node000002"><a xlink:title=" ">
<path fill="none" stroke="#63b8ff" d="M62.38,-179.84C62.38,-159.22 62.38,-122.29 62.38,-99.31"/>
<polygon fill="#63b8ff" stroke="#63b8ff" points="65.88,-99.44 62.38,-89.44 58.88,-99.44 65.88,-99.44"/>
</a>
</g>
</g>
<!-- Node3 -->
<g id="Node000003" class="node">
<title>Node3</title>
<g id="a_Node000003"><a xlink:title=" ">
<polygon fill="#e0e0e0" stroke="#999999" points="60.5,-26 12.25,-26 12.25,-6 60.5,-6 60.5,-26"/>
<text text-anchor="middle" x="36.38" y="-12.5" font-family="Helvetica,sans-Serif" font-size="10.00">stdint.h</text>
</a>
</g>
</g>
<!-- Node1&#45;&gt;Node3 -->
<g id="edge2_Node000001_Node000003" class="edge">
<title>Node1&#45;&gt;Node3</title>
<g id="a_edge2_Node000001_Node000003"><a xlink:title=" ">
<path fill="none" stroke="#63b8ff" d="M57.41,-179.62C51.04,-159.02 40.35,-121.22 36.38,-88 34.33,-70.96 34.51,-51.46 35.1,-37.21"/>
<polygon fill="#63b8ff" stroke="#63b8ff" points="38.65,-37.4 35.68,-27.23 31.66,-37.04 38.65,-37.4"/>
</a>
</g>
</g>
<!-- Node4 -->
<g id="Node000004" class="node">
<title>Node4</title>
<g id="a_Node000004"><a xlink:href="a00056.html" target="_top" xlink:title="This is the generated driver header file for the ADC1 driver.">
<polygon fill="white" stroke="#666666" points="181.38,-144 117.38,-144 117.38,-124 181.38,-124 181.38,-144"/>
<text text-anchor="middle" x="149.38" y="-130.5" font-family="Helvetica,sans-Serif" font-size="10.00">adc/adc1.h</text>
</a>
</g>
</g>
<!-- Node1&#45;&gt;Node4 -->
<g id="edge3_Node000001_Node000004" class="edge">
<title>Node1&#45;&gt;Node4</title>
<g id="a_edge3_Node000001_Node000004"><a xlink:title=" ">
<path fill="none" stroke="#63b8ff" d="M84.78,-179.55C97.74,-170.61 114.01,-159.39 126.97,-150.45"/>
<polygon fill="#63b8ff" stroke="#63b8ff" points="128.49,-152.97 134.73,-144.41 124.51,-147.2 128.49,-152.97"/>
</a>
</g>
</g>
<!-- Node4&#45;&gt;Node2 -->
<g id="edge4_Node000004_Node000002" class="edge">
<title>Node4&#45;&gt;Node2</title>
<g id="a_edge4_Node000004_Node000002"><a xlink:title=" ">
<path fill="none" stroke="#63b8ff" d="M134.22,-123.59C121.2,-115.51 102.18,-103.71 86.98,-94.27"/>
<polygon fill="#63b8ff" stroke="#63b8ff" points="88.99,-90.78 78.65,-88.48 85.3,-96.73 88.99,-90.78"/>
</a>
</g>
</g>
<!-- Node4&#45;&gt;Node3 -->
<g id="edge6_Node000004_Node000003" class="edge">
<title>Node4&#45;&gt;Node3</title>
<g id="a_edge6_Node000004_Node000003"><a xlink:title=" ">
<path fill="none" stroke="#63b8ff" d="M140.81,-123.63C129.11,-110.89 107.42,-87.47 88.38,-68 77.05,-56.42 64.03,-43.65 53.86,-33.79"/>
<polygon fill="#63b8ff" stroke="#63b8ff" points="56.7,-31.71 47.08,-27.28 51.84,-36.75 56.7,-31.71"/>
</a>
</g>
</g>
<!-- Node5 -->
<g id="Node000005" class="node">
<title>Node5</title>
<g id="a_Node000005"><a xlink:title=" ">
<polygon fill="#e0e0e0" stroke="#999999" points="335.25,-26 279.5,-26 279.5,-6 335.25,-6 335.25,-26"/>
<text text-anchor="middle" x="307.38" y="-12.5" font-family="Helvetica,sans-Serif" font-size="10.00">stdbool.h</text>
</a>
</g>
</g>
<!-- Node4&#45;&gt;Node5 -->
<g id="edge5_Node000004_Node000005" class="edge">
<title>Node4&#45;&gt;Node5</title>
<g id="a_edge5_Node000004_Node000005"><a xlink:title=" ">
<path fill="none" stroke="#63b8ff" d="M176.36,-123.59C196.3,-115.87 223.5,-103.66 244.38,-88 264.46,-72.93 282.96,-50.65 294.64,-35.07"/>
<polygon fill="#63b8ff" stroke="#63b8ff" points="297.92,-37.51 300.98,-27.37 292.26,-33.39 297.92,-37.51"/>
</a>
</g>
</g>
<!-- Node6 -->
<g id="Node000006" class="node">
<title>Node6</title>
<g id="a_Node000006"><a xlink:href="a00065.html" target="_top" xlink:title="This is the generated driver types header file for the ADC driver.">
<polygon fill="white" stroke="#666666" points="261,-26 191.75,-26 191.75,-6 261,-6 261,-26"/>
<text text-anchor="middle" x="226.38" y="-12.5" font-family="Helvetica,sans-Serif" font-size="10.00">adc_types.h</text>
</a>
</g>
</g>
<!-- Node4&#45;&gt;Node6 -->
<g id="edge7_Node000004_Node000006" class="edge">
<title>Node4&#45;&gt;Node6</title>
<g id="a_edge7_Node000004_Node000006"><a xlink:title=" ">
<path fill="none" stroke="#63b8ff" d="M180.08,-123.55C196.96,-116.62 216.43,-105.32 226.38,-88 235.19,-72.65 234.11,-52.18 231.47,-37.16"/>
<polygon fill="#63b8ff" stroke="#63b8ff" points="234.7,-36.53 229.17,-27.49 227.86,-38 234.7,-36.53"/>
</a>
</g>
</g>
<!-- Node7 -->
<g id="Node000007" class="node">
<title>Node7</title>
<g id="a_Node000007"><a xlink:href="a00062_source.html" target="_top" xlink:title=" ">
<polygon fill="white" stroke="#666666" points="217.38,-88 135.38,-88 135.38,-68 217.38,-68 217.38,-88"/>
<text text-anchor="middle" x="176.38" y="-74.5" font-family="Helvetica,sans-Serif" font-size="10.00">adc_interface.h</text>
</a>
</g>
</g>
<!-- Node4&#45;&gt;Node7 -->
<g id="edge8_Node000004_Node000007" class="edge">
<title>Node4&#45;&gt;Node7</title>
<g id="a_edge8_Node000004_Node000007"><a xlink:title=" ">
<path fill="none" stroke="#63b8ff" d="M154.08,-123.59C157.6,-116.55 162.54,-106.67 166.87,-98"/>
<polygon fill="#63b8ff" stroke="#63b8ff" points="170.38,-99.81 171.73,-89.3 164.12,-96.68 170.38,-99.81"/>
</a>
</g>
</g>
<!-- Node7&#45;&gt;Node3 -->
<g id="edge9_Node000007_Node000003" class="edge">
<title>Node7&#45;&gt;Node3</title>
<g id="a_edge9_Node000007_Node000003"><a xlink:title=" ">
<path fill="none" stroke="#63b8ff" d="M153.33,-67.53C131.61,-58.55 98.18,-44.6 69.38,-32 68.49,-31.61 67.6,-31.22 66.69,-30.82"/>
<polygon fill="#63b8ff" stroke="#63b8ff" points="68.49,-27.34 57.93,-26.45 65.63,-33.73 68.49,-27.34"/>
</a>
</g>
</g>
<!-- Node7&#45;&gt;Node5 -->
<g id="edge10_Node000007_Node000005" class="edge">
<title>Node7&#45;&gt;Node5</title>
<g id="a_edge10_Node000007_Node000005"><a xlink:title=" ">
<path fill="none" stroke="#63b8ff" d="M196.84,-67.62C218.38,-57.76 252.5,-42.13 277.14,-30.85"/>
<polygon fill="#63b8ff" stroke="#63b8ff" points="278.42,-33.66 286.05,-26.31 275.5,-27.29 278.42,-33.66"/>
</a>
</g>
</g>
<!-- Node7&#45;&gt;Node6 -->
<g id="edge11_Node000007_Node000006" class="edge">
<title>Node7&#45;&gt;Node6</title>
<g id="a_edge11_Node000007_Node000006"><a xlink:title=" ">
<path fill="none" stroke="#63b8ff" d="M184.19,-67.62C191.57,-58.77 202.82,-45.26 211.85,-34.43"/>
<polygon fill="#63b8ff" stroke="#63b8ff" points="215.07,-37.04 218.78,-27.11 209.69,-32.55 215.07,-37.04"/>
</a>
</g>
</g>
<!-- Node8 -->
<g id="Node000008" class="node">
<title>Node8</title>
<g id="a_Node000008"><a xlink:href="a00164_source.html" target="_top" xlink:title=" ">
<polygon fill="white" stroke="#666666" points="174.12,-32 78.62,-32 78.62,0 174.12,0 174.12,-32"/>
<text text-anchor="start" x="86.62" y="-18.5" font-family="Helvetica,sans-Serif" font-size="10.00">../system/interrupt</text>
<text text-anchor="middle" x="126.38" y="-6.5" font-family="Helvetica,sans-Serif" font-size="10.00">_types.h</text>
</a>
</g>
</g>
<!-- Node7&#45;&gt;Node8 -->
<g id="edge12_Node000007_Node000008" class="edge">
<title>Node7&#45;&gt;Node8</title>
<g id="a_edge12_Node000007_Node000008"><a xlink:title=" ">
<path fill="none" stroke="#63b8ff" d="M168.56,-67.62C162.51,-60.36 153.84,-49.96 145.94,-40.48"/>
<polygon fill="#63b8ff" stroke="#63b8ff" points="148.08,-38.58 138.99,-33.14 142.71,-43.06 148.08,-38.58"/>
</a>
</g>
</g>
</g>
</svg>
