<?xml version="1.0" encoding="UTF-8" standalone="no"?>
<!DOCTYPE svg PUBLIC "-//W3C//DTD SVG 1.1//EN"
 "http://www.w3.org/Graphics/SVG/1.1/DTD/svg11.dtd">
<!-- Generated by graphviz version 8.1.0 (20230707.0739)
 -->
<!-- Title: dspic33ck&#45;dab.X/sources/fault/fault_comm_interface.c Pages: 1 -->
<svg width="517pt" height="376pt"
 viewBox="0.00 0.00 517.25 376.00" xmlns="http://www.w3.org/2000/svg" xmlns:xlink="http://www.w3.org/1999/xlink">
<g id="graph0" class="graph" transform="scale(1 1) rotate(0) translate(4 372)">
<title>dspic33ck&#45;dab.X/sources/fault/fault_comm_interface.c</title>
<!-- Node1 -->
<g id="Node000001" class="node">
<title>Node1</title>
<g id="a_Node000001"><a xlink:title="Contains API functions for fault protection.">
<polygon fill="#999999" stroke="#666666" points="147.38,-368 6.88,-368 6.88,-336 147.38,-336 147.38,-368"/>
<text text-anchor="start" x="14.88" y="-354.5" font-family="Helvetica,sans-Serif" font-size="10.00">dspic33ck&#45;dab.X/sources</text>
<text text-anchor="middle" x="77.12" y="-342.5" font-family="Helvetica,sans-Serif" font-size="10.00">/fault/fault_comm_interface.c</text>
</a>
</g>
</g>
<!-- Node2 -->
<g id="Node000002" class="node">
<title>Node2</title>
<g id="a_Node000002"><a xlink:href="a00386.html" target="_top" xlink:title="Contains fault generic public functions.">
<polygon fill="white" stroke="#666666" points="101.62,-76 16.62,-76 16.62,-56 101.62,-56 101.62,-76"/>
<text text-anchor="middle" x="59.12" y="-62.5" font-family="Helvetica,sans-Serif" font-size="10.00">fault_common.h</text>
</a>
</g>
</g>
<!-- Node1&#45;&gt;Node2 -->
<g id="edge1_Node000001_Node000002" class="edge">
<title>Node1&#45;&gt;Node2</title>
<g id="a_edge1_Node000001_Node000002"><a xlink:title=" ">
<path fill="none" stroke="#63b8ff" d="M63.9,-335.67C47.07,-314.51 20.12,-274.49 20.12,-235 20.12,-235 20.12,-235 20.12,-177 20.12,-143.37 36.52,-107.12 48.05,-85.77"/>
<polygon fill="#63b8ff" stroke="#63b8ff" points="51.51,-87.74 53.37,-77.31 45.41,-84.31 51.51,-87.74"/>
</a>
</g>
</g>
<!-- Node5 -->
<g id="Node000005" class="node">
<title>Node5</title>
<g id="a_Node000005"><a xlink:href="a00464_source.html" target="_top" xlink:title=" ">
<polygon fill="white" stroke="#666666" points="240.25,-300 156,-300 156,-280 240.25,-280 240.25,-300"/>
<text text-anchor="middle" x="198.12" y="-286.5" font-family="Helvetica,sans-Serif" font-size="10.00">pwrctrl/pwrctrl.h</text>
</a>
</g>
</g>
<!-- Node1&#45;&gt;Node5 -->
<g id="edge4_Node000001_Node000005" class="edge">
<title>Node1&#45;&gt;Node5</title>
<g id="a_edge4_Node000001_Node000005"><a xlink:title=" ">
<path fill="none" stroke="#63b8ff" d="M108.29,-335.55C127.1,-326.22 150.92,-314.41 169.3,-305.29"/>
<polygon fill="#63b8ff" stroke="#63b8ff" points="170.75,-307.99 178.15,-300.41 167.64,-301.71 170.75,-307.99"/>
</a>
</g>
</g>
<!-- Node3 -->
<g id="Node000003" class="node">
<title>Node3</title>
<g id="a_Node000003"><a xlink:title=" ">
<polygon fill="#e0e0e0" stroke="#999999" points="48.25,-20 0,-20 0,0 48.25,0 48.25,-20"/>
<text text-anchor="middle" x="24.12" y="-6.5" font-family="Helvetica,sans-Serif" font-size="10.00">stdint.h</text>
</a>
</g>
</g>
<!-- Node2&#45;&gt;Node3 -->
<g id="edge2_Node000002_Node000003" class="edge">
<title>Node2&#45;&gt;Node3</title>
<g id="a_edge2_Node000002_Node000003"><a xlink:title=" ">
<path fill="none" stroke="#63b8ff" d="M53.03,-55.59C48.36,-48.39 41.78,-38.23 36.07,-29.43"/>
<polygon fill="#63b8ff" stroke="#63b8ff" points="38.53,-27.79 30.15,-21.3 32.65,-31.59 38.53,-27.79"/>
</a>
</g>
</g>
<!-- Node4 -->
<g id="Node000004" class="node">
<title>Node4</title>
<g id="a_Node000004"><a xlink:title=" ">
<polygon fill="#e0e0e0" stroke="#999999" points="122,-20 66.25,-20 66.25,0 122,0 122,-20"/>
<text text-anchor="middle" x="94.12" y="-6.5" font-family="Helvetica,sans-Serif" font-size="10.00">stdbool.h</text>
</a>
</g>
</g>
<!-- Node2&#45;&gt;Node4 -->
<g id="edge3_Node000002_Node000004" class="edge">
<title>Node2&#45;&gt;Node4</title>
<g id="a_edge3_Node000002_Node000004"><a xlink:title=" ">
<path fill="none" stroke="#63b8ff" d="M65.22,-55.59C69.89,-48.39 76.47,-38.23 82.18,-29.43"/>
<polygon fill="#63b8ff" stroke="#63b8ff" points="85.6,-31.59 88.1,-21.3 79.72,-27.79 85.6,-31.59"/>
</a>
</g>
</g>
<!-- Node6 -->
<g id="Node000006" class="node">
<title>Node6</title>
<g id="a_Node000006"><a xlink:href="a00497_source.html" target="_top" xlink:title=" ">
<polygon fill="white" stroke="#666666" points="265.88,-188 176.38,-188 176.38,-168 265.88,-168 265.88,-188"/>
<text text-anchor="middle" x="221.12" y="-174.5" font-family="Helvetica,sans-Serif" font-size="10.00">pwrctrl_typedef.h</text>
</a>
</g>
</g>
<!-- Node5&#45;&gt;Node6 -->
<g id="edge5_Node000005_Node000006" class="edge">
<title>Node5&#45;&gt;Node6</title>
<g id="a_edge5_Node000005_Node000006"><a xlink:title=" ">
<path fill="none" stroke="#63b8ff" d="M155.87,-282.53C112.22,-273.97 53.54,-256.09 77.12,-224 97.25,-196.63 133.95,-185.44 165.26,-181.06"/>
<polygon fill="#63b8ff" stroke="#63b8ff" points="165.55,-184.44 175.07,-179.79 164.73,-177.48 165.55,-184.44"/>
</a>
</g>
</g>
<!-- Node8 -->
<g id="Node000008" class="node">
<title>Node8</title>
<g id="a_Node000008"><a xlink:href="a00470.html" target="_top" xlink:title="Contains the power control reusable functions.">
<polygon fill="white" stroke="#666666" points="181.88,-244 86.38,-244 86.38,-224 181.88,-224 181.88,-244"/>
<text text-anchor="middle" x="134.12" y="-230.5" font-family="Helvetica,sans-Serif" font-size="10.00">pwrctrl_common.h</text>
</a>
</g>
</g>
<!-- Node5&#45;&gt;Node8 -->
<g id="edge8_Node000005_Node000008" class="edge">
<title>Node5&#45;&gt;Node8</title>
<g id="a_edge8_Node000005_Node000008"><a xlink:title=" ">
<path fill="none" stroke="#63b8ff" d="M186.98,-279.59C177.71,-271.77 164.31,-260.46 153.32,-251.19"/>
<polygon fill="#63b8ff" stroke="#63b8ff" points="156.05,-248.07 146.15,-244.3 151.53,-253.42 156.05,-248.07"/>
</a>
</g>
</g>
<!-- Node9 -->
<g id="Node000009" class="node">
<title>Node9</title>
<g id="a_Node000009"><a xlink:href="a00476.html" target="_top" xlink:title="Contains public functions relevant for power control communication interface.">
<polygon fill="white" stroke="#666666" points="326.62,-244 199.62,-244 199.62,-224 326.62,-224 326.62,-244"/>
<text text-anchor="middle" x="263.12" y="-230.5" font-family="Helvetica,sans-Serif" font-size="10.00">pwrctrl_comm_interface.h</text>
</a>
</g>
</g>
<!-- Node5&#45;&gt;Node9 -->
<g id="edge9_Node000005_Node000009" class="edge">
<title>Node5&#45;&gt;Node9</title>
<g id="a_edge9_Node000005_Node000009"><a xlink:title=" ">
<path fill="none" stroke="#63b8ff" d="M209.45,-279.59C218.86,-271.77 232.47,-260.46 243.63,-251.19"/>
<polygon fill="#63b8ff" stroke="#63b8ff" points="245.48,-253.38 250.93,-244.3 241,-248 245.48,-253.38"/>
</a>
</g>
</g>
<!-- Node10 -->
<g id="Node000010" class="node">
<title>Node10</title>
<g id="a_Node000010"><a xlink:href="a00482.html" target="_top" xlink:title="Contains public function relevant for power control interrupt.">
<polygon fill="white" stroke="#666666" points="413.38,-244 344.88,-244 344.88,-224 413.38,-224 413.38,-244"/>
<text text-anchor="middle" x="379.12" y="-230.5" font-family="Helvetica,sans-Serif" font-size="10.00">pwrctrl_isr.h</text>
</a>
</g>
</g>
<!-- Node5&#45;&gt;Node10 -->
<g id="edge11_Node000005_Node000010" class="edge">
<title>Node5&#45;&gt;Node10</title>
<g id="a_edge11_Node000005_Node000010"><a xlink:title=" ">
<path fill="none" stroke="#63b8ff" d="M229.65,-279.59C259.45,-270.71 304.35,-257.31 337.16,-247.52"/>
<polygon fill="#63b8ff" stroke="#63b8ff" points="337.77,-250.69 346.35,-244.48 335.77,-243.98 337.77,-250.69"/>
</a>
</g>
</g>
<!-- Node11 -->
<g id="Node000011" class="node">
<title>Node11</title>
<g id="a_Node000011"><a xlink:href="a00491.html" target="_top" xlink:title="Contains public functions for PWM.">
<polygon fill="white" stroke="#666666" points="509.25,-244 431,-244 431,-224 509.25,-224 509.25,-244"/>
<text text-anchor="middle" x="470.12" y="-230.5" font-family="Helvetica,sans-Serif" font-size="10.00">pwrctrl_pwm.h</text>
</a>
</g>
</g>
<!-- Node5&#45;&gt;Node11 -->
<g id="edge12_Node000005_Node000011" class="edge">
<title>Node5&#45;&gt;Node11</title>
<g id="a_edge12_Node000005_Node000011"><a xlink:title=" ">
<path fill="none" stroke="#63b8ff" d="M240.62,-280.56C289.17,-270.93 368.51,-255.17 420.03,-244.95"/>
<polygon fill="#63b8ff" stroke="#63b8ff" points="420.45,-248.23 429.57,-242.85 419.08,-241.37 420.45,-248.23"/>
</a>
</g>
</g>
<!-- Node7 -->
<g id="Node000007" class="node">
<title>Node7</title>
<g id="a_Node000007"><a xlink:href="a00395.html" target="_top" xlink:title="Contains fault data types.">
<polygon fill="white" stroke="#666666" points="230.12,-132 130.12,-132 130.12,-112 230.12,-112 230.12,-132"/>
<text text-anchor="middle" x="180.12" y="-118.5" font-family="Helvetica,sans-Serif" font-size="10.00">fault/fault_typedef.h</text>
</a>
</g>
</g>
<!-- Node6&#45;&gt;Node7 -->
<g id="edge6_Node000006_Node000007" class="edge">
<title>Node6&#45;&gt;Node7</title>
<g id="a_edge6_Node000006_Node000007"><a xlink:title=" ">
<path fill="none" stroke="#63b8ff" d="M213.98,-167.59C208.4,-160.24 200.47,-149.8 193.69,-140.87"/>
<polygon fill="#63b8ff" stroke="#63b8ff" points="196.02,-139.15 187.18,-133.3 190.44,-143.38 196.02,-139.15"/>
</a>
</g>
</g>
<!-- Node7&#45;&gt;Node2 -->
<g id="edge7_Node000007_Node000002" class="edge">
<title>Node7&#45;&gt;Node2</title>
<g id="a_edge7_Node000007_Node000002"><a xlink:title=" ">
<path fill="none" stroke="#63b8ff" d="M159.05,-111.59C140.08,-103.13 111.95,-90.58 90.37,-80.94"/>
<polygon fill="#63b8ff" stroke="#63b8ff" points="91.92,-77.36 81.37,-76.48 89.07,-83.75 91.92,-77.36"/>
</a>
</g>
</g>
<!-- Node9&#45;&gt;Node6 -->
<g id="edge10_Node000009_Node000006" class="edge">
<title>Node9&#45;&gt;Node6</title>
<g id="a_edge10_Node000009_Node000006"><a xlink:title=" ">
<path fill="none" stroke="#63b8ff" d="M255.81,-223.59C250.09,-216.24 241.97,-205.8 235.02,-196.87"/>
<polygon fill="#63b8ff" stroke="#63b8ff" points="237.26,-195.04 228.36,-189.3 231.73,-199.34 237.26,-195.04"/>
</a>
</g>
</g>
<!-- Node11&#45;&gt;Node6 -->
<g id="edge13_Node000011_Node000006" class="edge">
<title>Node11&#45;&gt;Node6</title>
<g id="a_edge13_Node000011_Node000006"><a xlink:title=" ">
<path fill="none" stroke="#63b8ff" d="M430.67,-224.44C388.69,-215.34 321.99,-200.87 275.14,-190.72"/>
<polygon fill="#63b8ff" stroke="#63b8ff" points="276.09,-187.12 265.58,-188.42 274.61,-193.96 276.09,-187.12"/>
</a>
</g>
</g>
</g>
</svg>
