<?xml version="1.0" encoding="UTF-8" standalone="no"?>
<!DOCTYPE svg PUBLIC "-//W3C//DTD SVG 1.1//EN"
 "http://www.w3.org/Graphics/SVG/1.1/DTD/svg11.dtd">
<!-- Generated by graphviz version 8.1.0 (20230707.0739)
 -->
<!-- Title: dab&#45;pwm&#45;configuration.X/sources/device/pwrctrl/dev_pwrctrl_comm_interface.c Pages: 1 -->
<svg width="235pt" height="344pt"
 viewBox="0.00 0.00 234.88 344.00" xmlns="http://www.w3.org/2000/svg" xmlns:xlink="http://www.w3.org/1999/xlink">
<g id="graph0" class="graph" transform="scale(1 1) rotate(0) translate(4 340)">
<title>dab&#45;pwm&#45;configuration.X/sources/device/pwrctrl/dev_pwrctrl_comm_interface.c</title>
<!-- Node1 -->
<g id="Node000001" class="node">
<title>Node1</title>
<g id="a_Node000001"><a xlink:title="Contains power control interface with communication/gui.">
<polygon fill="#999999" stroke="#666666" points="193.88,-336 44.38,-336 44.38,-292 193.88,-292 193.88,-336"/>
<text text-anchor="start" x="52.38" y="-322.5" font-family="Helvetica,sans-Serif" font-size="10.00">dab&#45;pwm&#45;configuration.X</text>
<text text-anchor="start" x="52.38" y="-310.5" font-family="Helvetica,sans-Serif" font-size="10.00">/sources/device/pwrctrl</text>
<text text-anchor="middle" x="119.12" y="-298.5" font-family="Helvetica,sans-Serif" font-size="10.00">/dev_pwrctrl_comm_interface.c</text>
</a>
</g>
</g>
<!-- Node2 -->
<g id="Node000002" class="node">
<title>Node2</title>
<g id="a_Node000002"><a xlink:href="a00362.html" target="_top" xlink:title="Contains public functions and data types relevant for power control interface.">
<polygon fill="white" stroke="#666666" points="155.25,-256 83,-256 83,-236 155.25,-236 155.25,-256"/>
<text text-anchor="middle" x="119.12" y="-242.5" font-family="Helvetica,sans-Serif" font-size="10.00">dev_pwrctrl.h</text>
</a>
</g>
</g>
<!-- Node1&#45;&gt;Node2 -->
<g id="edge1_Node000001_Node000002" class="edge">
<title>Node1&#45;&gt;Node2</title>
<g id="a_edge1_Node000001_Node000002"><a xlink:title=" ">
<path fill="none" stroke="#63b8ff" d="M119.12,-291.75C119.12,-283.94 119.12,-275.11 119.12,-267.38"/>
<polygon fill="#63b8ff" stroke="#63b8ff" points="122.63,-267.42 119.12,-257.42 115.63,-267.42 122.63,-267.42"/>
</a>
</g>
</g>
<!-- Node3 -->
<g id="Node000003" class="node">
<title>Node3</title>
<g id="a_Node000003"><a xlink:href="a00389_source.html" target="_top" xlink:title=" ">
<polygon fill="white" stroke="#666666" points="113.62,-200 4.62,-200 4.62,-180 113.62,-180 113.62,-200"/>
<text text-anchor="middle" x="59.12" y="-186.5" font-family="Helvetica,sans-Serif" font-size="10.00">dev_pwrctrl_typedef.h</text>
</a>
</g>
</g>
<!-- Node2&#45;&gt;Node3 -->
<g id="edge2_Node000002_Node000003" class="edge">
<title>Node2&#45;&gt;Node3</title>
<g id="a_edge2_Node000002_Node000003"><a xlink:title=" ">
<path fill="none" stroke="#63b8ff" d="M108.67,-235.59C100.07,-227.85 87.67,-216.69 77.42,-207.47"/>
<polygon fill="#63b8ff" stroke="#63b8ff" points="80.23,-205.39 70.46,-201.3 75.55,-210.59 80.23,-205.39"/>
</a>
</g>
</g>
<!-- Node8 -->
<g id="Node000008" class="node">
<title>Node8</title>
<g id="a_Node000008"><a xlink:href="a00395.html" target="_top" xlink:title="Contains the power control reusable functions.">
<polygon fill="white" stroke="#666666" points="226.88,-200 131.38,-200 131.38,-180 226.88,-180 226.88,-200"/>
<text text-anchor="middle" x="179.12" y="-186.5" font-family="Helvetica,sans-Serif" font-size="10.00">dev_pwrctrl_utils.h</text>
</a>
</g>
</g>
<!-- Node2&#45;&gt;Node8 -->
<g id="edge7_Node000002_Node000008" class="edge">
<title>Node2&#45;&gt;Node8</title>
<g id="a_edge7_Node000002_Node000008"><a xlink:title=" ">
<path fill="none" stroke="#63b8ff" d="M129.58,-235.59C138.18,-227.85 150.58,-216.69 160.83,-207.47"/>
<polygon fill="#63b8ff" stroke="#63b8ff" points="162.7,-210.59 167.79,-201.3 158.02,-205.39 162.7,-210.59"/>
</a>
</g>
</g>
<!-- Node4 -->
<g id="Node000004" class="node">
<title>Node4</title>
<g id="a_Node000004"><a xlink:href="a00329_source.html" target="_top" xlink:title=" ">
<polygon fill="white" stroke="#666666" points="111.38,-144 6.88,-144 6.88,-112 111.38,-112 111.38,-144"/>
<text text-anchor="start" x="14.88" y="-130.5" font-family="Helvetica,sans-Serif" font-size="10.00">device/fault/dev_fault</text>
<text text-anchor="middle" x="59.12" y="-118.5" font-family="Helvetica,sans-Serif" font-size="10.00">_typedef.h</text>
</a>
</g>
</g>
<!-- Node3&#45;&gt;Node4 -->
<g id="edge3_Node000003_Node000004" class="edge">
<title>Node3&#45;&gt;Node4</title>
<g id="a_edge3_Node000003_Node000004"><a xlink:title=" ">
<path fill="none" stroke="#63b8ff" d="M59.12,-179.62C59.12,-173.02 59.12,-163.84 59.12,-155.11"/>
<polygon fill="#63b8ff" stroke="#63b8ff" points="62.63,-155.14 59.12,-145.14 55.63,-155.14 62.63,-155.14"/>
</a>
</g>
</g>
<!-- Node5 -->
<g id="Node000005" class="node">
<title>Node5</title>
<g id="a_Node000005"><a xlink:href="a00326_source.html" target="_top" xlink:title=" ">
<polygon fill="white" stroke="#666666" points="111.38,-76 6.88,-76 6.88,-56 111.38,-56 111.38,-76"/>
<text text-anchor="middle" x="59.12" y="-62.5" font-family="Helvetica,sans-Serif" font-size="10.00">dev_fault_common.h</text>
</a>
</g>
</g>
<!-- Node4&#45;&gt;Node5 -->
<g id="edge4_Node000004_Node000005" class="edge">
<title>Node4&#45;&gt;Node5</title>
<g id="a_edge4_Node000004_Node000005"><a xlink:title=" ">
<path fill="none" stroke="#63b8ff" d="M59.12,-111.55C59.12,-104.17 59.12,-95.24 59.12,-87.32"/>
<polygon fill="#63b8ff" stroke="#63b8ff" points="62.63,-87.41 59.12,-77.41 55.63,-87.41 62.63,-87.41"/>
</a>
</g>
</g>
<!-- Node6 -->
<g id="Node000006" class="node">
<title>Node6</title>
<g id="a_Node000006"><a xlink:title=" ">
<polygon fill="#e0e0e0" stroke="#999999" points="48.25,-20 0,-20 0,0 48.25,0 48.25,-20"/>
<text text-anchor="middle" x="24.12" y="-6.5" font-family="Helvetica,sans-Serif" font-size="10.00">stdint.h</text>
</a>
</g>
</g>
<!-- Node5&#45;&gt;Node6 -->
<g id="edge5_Node000005_Node000006" class="edge">
<title>Node5&#45;&gt;Node6</title>
<g id="a_edge5_Node000005_Node000006"><a xlink:title=" ">
<path fill="none" stroke="#63b8ff" d="M53.03,-55.59C48.36,-48.39 41.78,-38.23 36.07,-29.43"/>
<polygon fill="#63b8ff" stroke="#63b8ff" points="38.53,-27.79 30.15,-21.3 32.65,-31.59 38.53,-27.79"/>
</a>
</g>
</g>
<!-- Node7 -->
<g id="Node000007" class="node">
<title>Node7</title>
<g id="a_Node000007"><a xlink:title=" ">
<polygon fill="#e0e0e0" stroke="#999999" points="122,-20 66.25,-20 66.25,0 122,0 122,-20"/>
<text text-anchor="middle" x="94.12" y="-6.5" font-family="Helvetica,sans-Serif" font-size="10.00">stdbool.h</text>
</a>
</g>
</g>
<!-- Node5&#45;&gt;Node7 -->
<g id="edge6_Node000005_Node000007" class="edge">
<title>Node5&#45;&gt;Node7</title>
<g id="a_edge6_Node000005_Node000007"><a xlink:title=" ">
<path fill="none" stroke="#63b8ff" d="M65.22,-55.59C69.89,-48.39 76.47,-38.23 82.18,-29.43"/>
<polygon fill="#63b8ff" stroke="#63b8ff" points="85.6,-31.59 88.1,-21.3 79.72,-27.79 85.6,-31.59"/>
</a>
</g>
</g>
</g>
</svg>
