<?xml version="1.0" encoding="UTF-8" standalone="no"?>
<!DOCTYPE svg PUBLIC "-//W3C//DTD SVG 1.1//EN"
 "http://www.w3.org/Graphics/SVG/1.1/DTD/svg11.dtd">
<!-- Generated by graphviz version 8.1.0 (20230707.0739)
 -->
<!-- Title: SMPS_Controller2P2ZInitialize Pages: 1 -->
<svg width="605pt" height="140pt"
 viewBox="0.00 0.00 605.25 140.00" xmlns="http://www.w3.org/2000/svg" xmlns:xlink="http://www.w3.org/1999/xlink">
<g id="graph0" class="graph" transform="scale(1 1) rotate(0) translate(4 136)">
<title>SMPS_Controller2P2ZInitialize</title>
<!-- Node1 -->
<g id="Node000001" class="node">
<title>Node1</title>
<g id="a_Node000001"><a xlink:title=" ">
<polygon fill="#999999" stroke="#666666" points="597.25,-76 448.5,-76 448.5,-56 597.25,-56 597.25,-76"/>
<text text-anchor="middle" x="522.88" y="-62.5" font-family="Helvetica,sans-Serif" font-size="10.00">SMPS_Controller2P2ZInitialize</text>
</a>
</g>
</g>
<!-- Node2 -->
<g id="Node000002" class="node">
<title>Node2</title>
<g id="a_Node000002"><a xlink:href="a00492.html#gaaaac85e4a51c833160b5b86e33c8aa5e" target="_top" xlink:title="Initialize the Current Loop Control.">
<polygon fill="white" stroke="#666666" points="410.25,-132 308.75,-132 308.75,-100 410.25,-100 410.25,-132"/>
<text text-anchor="start" x="316.75" y="-118.5" font-family="Helvetica,sans-Serif" font-size="10.00">Dev_PwrCtrl_IComp</text>
<text text-anchor="middle" x="359.5" y="-106.5" font-family="Helvetica,sans-Serif" font-size="10.00">_Initialize</text>
</a>
</g>
</g>
<!-- Node1&#45;&gt;Node2 -->
<g id="edge1_Node000001_Node000002" class="edge">
<title>Node1&#45;&gt;Node2</title>
<g id="a_edge1_Node000001_Node000002"><a xlink:title=" ">
<path fill="none" stroke="#63b8ff" d="M477.59,-79.72C456.82,-86.16 431.98,-93.85 410.53,-100.5"/>
<polygon fill="#63b8ff" stroke="#63b8ff" points="478.53,-82.78 487.05,-76.48 476.46,-76.1 478.53,-82.78"/>
</a>
</g>
</g>
<!-- Node5 -->
<g id="Node000005" class="node">
<title>Node5</title>
<g id="a_Node000005"><a xlink:href="a00492.html#ga516c60db39175332c838fb9d6bc6a3a3" target="_top" xlink:title="Initialize the Power Loop Control.">
<polygon fill="white" stroke="#666666" points="412.5,-82 306.5,-82 306.5,-50 412.5,-50 412.5,-82"/>
<text text-anchor="start" x="314.5" y="-68.5" font-family="Helvetica,sans-Serif" font-size="10.00">Dev_PwrCtrl_PComp</text>
<text text-anchor="middle" x="359.5" y="-56.5" font-family="Helvetica,sans-Serif" font-size="10.00">_Initialize</text>
</a>
</g>
</g>
<!-- Node1&#45;&gt;Node5 -->
<g id="edge4_Node000001_Node000005" class="edge">
<title>Node1&#45;&gt;Node5</title>
<g id="a_edge4_Node000001_Node000005"><a xlink:title=" ">
<path fill="none" stroke="#63b8ff" d="M437.3,-66C428.96,-66 420.67,-66 412.8,-66"/>
<polygon fill="#63b8ff" stroke="#63b8ff" points="437.27,-69.5 447.27,-66 437.27,-62.5 437.27,-69.5"/>
</a>
</g>
</g>
<!-- Node6 -->
<g id="Node000006" class="node">
<title>Node6</title>
<g id="a_Node000006"><a xlink:href="a00492.html#gab8788b6f0239ffe6b8b602dafb306f82" target="_top" xlink:title="Initialize the Voltage Loop Control.">
<polygon fill="white" stroke="#666666" points="412.5,-32 306.5,-32 306.5,0 412.5,0 412.5,-32"/>
<text text-anchor="start" x="314.5" y="-18.5" font-family="Helvetica,sans-Serif" font-size="10.00">Dev_PwrCtrl_VComp</text>
<text text-anchor="middle" x="359.5" y="-6.5" font-family="Helvetica,sans-Serif" font-size="10.00">_Initialize</text>
</a>
</g>
</g>
<!-- Node1&#45;&gt;Node6 -->
<g id="edge6_Node000001_Node000006" class="edge">
<title>Node1&#45;&gt;Node6</title>
<g id="a_edge6_Node000001_Node000006"><a xlink:title=" ">
<path fill="none" stroke="#63b8ff" d="M477.63,-52.29C457.55,-46.07 433.67,-38.67 412.72,-32.18"/>
<polygon fill="#63b8ff" stroke="#63b8ff" points="476.46,-55.9 487.05,-55.52 478.53,-49.22 476.46,-55.9"/>
</a>
</g>
</g>
<!-- Node3 -->
<g id="Node000003" class="node">
<title>Node3</title>
<g id="a_Node000003"><a xlink:href="a00488.html#ga2c8448f920be5d01bacbdc34f830f3e2" target="_top" xlink:title="Initializes the control loop.">
<polygon fill="white" stroke="#666666" points="270.5,-82 145,-82 145,-50 270.5,-50 270.5,-82"/>
<text text-anchor="start" x="153" y="-68.5" font-family="Helvetica,sans-Serif" font-size="10.00">Dev_PwrCtrl_ControlLoop</text>
<text text-anchor="middle" x="207.75" y="-56.5" font-family="Helvetica,sans-Serif" font-size="10.00">Initialize</text>
</a>
</g>
</g>
<!-- Node2&#45;&gt;Node3 -->
<g id="edge2_Node000002_Node000003" class="edge">
<title>Node2&#45;&gt;Node3</title>
<g id="a_edge2_Node000002_Node000003"><a xlink:title=" ">
<path fill="none" stroke="#63b8ff" d="M299.23,-96.21C285.62,-91.67 271.29,-86.88 258.15,-82.49"/>
<polygon fill="#63b8ff" stroke="#63b8ff" points="297.87,-99.78 308.47,-99.63 300.09,-93.14 297.87,-99.78"/>
</a>
</g>
</g>
<!-- Node4 -->
<g id="Node000004" class="node">
<title>Node4</title>
<g id="a_Node000004"><a xlink:href="a00488.html#ga6523e7af2c1c7f66d8495c072a5c7281" target="_top" xlink:title="Initialize the power control parameters.">
<polygon fill="white" stroke="#666666" points="109,-76 0,-76 0,-56 109,-56 109,-76"/>
<text text-anchor="middle" x="54.5" y="-62.5" font-family="Helvetica,sans-Serif" font-size="10.00">Dev_PwrCtrl_Initialize</text>
</a>
</g>
</g>
<!-- Node3&#45;&gt;Node4 -->
<g id="edge3_Node000003_Node000004" class="edge">
<title>Node3&#45;&gt;Node4</title>
<g id="a_edge3_Node000003_Node000004"><a xlink:title=" ">
<path fill="none" stroke="#63b8ff" d="M133.96,-66C125.68,-66 117.35,-66 109.37,-66"/>
<polygon fill="#63b8ff" stroke="#63b8ff" points="133.79,-69.5 143.79,-66 133.79,-62.5 133.79,-69.5"/>
</a>
</g>
</g>
<!-- Node5&#45;&gt;Node3 -->
<g id="edge5_Node000005_Node000003" class="edge">
<title>Node5&#45;&gt;Node3</title>
<g id="a_edge5_Node000005_Node000003"><a xlink:title=" ">
<path fill="none" stroke="#63b8ff" d="M295.26,-66C287.19,-66 278.92,-66 270.87,-66"/>
<polygon fill="#63b8ff" stroke="#63b8ff" points="295.12,-69.5 305.12,-66 295.12,-62.5 295.12,-69.5"/>
</a>
</g>
</g>
<!-- Node6&#45;&gt;Node3 -->
<g id="edge7_Node000006_Node000003" class="edge">
<title>Node6&#45;&gt;Node3</title>
<g id="a_edge7_Node000006_Node000003"><a xlink:title=" ">
<path fill="none" stroke="#63b8ff" d="M299.23,-35.79C285.62,-40.33 271.29,-45.12 258.15,-49.51"/>
<polygon fill="#63b8ff" stroke="#63b8ff" points="300.09,-38.86 308.47,-32.37 297.87,-32.22 300.09,-38.86"/>
</a>
</g>
</g>
</g>
</svg>
