<?xml version="1.0" encoding="UTF-8" standalone="no"?>
<!DOCTYPE svg PUBLIC "-//W3C//DTD SVG 1.1//EN"
 "http://www.w3.org/Graphics/SVG/1.1/DTD/svg11.dtd">
<!-- Generated by graphviz version 8.1.0 (20230707.0739)
 -->
<!-- Title: dspic33ck&#45;dab.X/sources/fault/fault.h Pages: 1 -->
<svg width="997pt" height="108pt"
 viewBox="0.00 0.00 997.12 108.00" xmlns="http://www.w3.org/2000/svg" xmlns:xlink="http://www.w3.org/1999/xlink">
<g id="graph0" class="graph" transform="scale(1 1) rotate(0) translate(4 104)">
<title>dspic33ck&#45;dab.X/sources/fault/fault.h</title>
<!-- Node1 -->
<g id="Node000001" class="node">
<title>Node1</title>
<g id="a_Node000001"><a xlink:title="Contains public fault functions.">
<polygon fill="#999999" stroke="#666666" points="534.12,-100 409.38,-100 409.38,-68 534.12,-68 534.12,-100"/>
<text text-anchor="start" x="417.38" y="-86.5" font-family="Helvetica,sans-Serif" font-size="10.00">dspic33ck&#45;dab.X/sources</text>
<text text-anchor="middle" x="471.75" y="-74.5" font-family="Helvetica,sans-Serif" font-size="10.00">/fault/fault.h</text>
</a>
</g>
</g>
<!-- Node1&#45;&gt;Node1 -->
<g id="edge4_Node000001_Node000001" class="edge">
<title>Node1&#45;&gt;Node1</title>
<g id="a_edge4_Node000001_Node000001"><a xlink:title=" ">
<path fill="none" stroke="#63b8ff" d="M544.98,-92.86C549.44,-90.76 552.12,-87.8 552.12,-84 552.12,-77.76 544.9,-73.81 534.43,-72.15"/>
<polygon fill="#63b8ff" stroke="#63b8ff" points="544.1,-89.75 535.43,-95.85 546.01,-96.49 544.1,-89.75"/>
</a>
</g>
</g>
<!-- Node2 -->
<g id="Node000002" class="node">
<title>Node2</title>
<g id="a_Node000002"><a xlink:href="a00080_source.html" target="_top" xlink:title=" ">
<polygon fill="white" stroke="#666666" points="119.5,-26 0,-26 0,-6 119.5,-6 119.5,-26"/>
<text text-anchor="middle" x="59.75" y="-12.5" font-family="Helvetica,sans-Serif" font-size="10.00">dspic33ck&#45;dab.X/main.c</text>
</a>
</g>
</g>
<!-- Node1&#45;&gt;Node2 -->
<g id="edge1_Node000001_Node000002" class="edge">
<title>Node1&#45;&gt;Node2</title>
<g id="a_edge1_Node000001_Node000002"><a xlink:title=" ">
<path fill="none" stroke="#63b8ff" d="M398.2,-73.61C328.38,-64.34 220.6,-49.1 127.75,-32 118.83,-30.36 109.3,-28.39 100.29,-26.43"/>
<polygon fill="#63b8ff" stroke="#63b8ff" points="397.7,-77.21 408.07,-75.05 398.62,-70.27 397.7,-77.21"/>
</a>
</g>
</g>
<!-- Node3 -->
<g id="Node000003" class="node">
<title>Node3</title>
<g id="a_Node000003"><a xlink:href="a00083_source.html" target="_top" xlink:title=" ">
<polygon fill="white" stroke="#666666" points="248.38,-32 137.12,-32 137.12,0 248.38,0 248.38,-32"/>
<text text-anchor="start" x="145.12" y="-18.5" font-family="Helvetica,sans-Serif" font-size="10.00">dspic33ck&#45;dab.X/main</text>
<text text-anchor="middle" x="192.75" y="-6.5" font-family="Helvetica,sans-Serif" font-size="10.00">_tasks.c</text>
</a>
</g>
</g>
<!-- Node1&#45;&gt;Node3 -->
<g id="edge2_Node000001_Node000003" class="edge">
<title>Node1&#45;&gt;Node3</title>
<g id="a_edge2_Node000001_Node000003"><a xlink:title=" ">
<path fill="none" stroke="#63b8ff" d="M398.72,-65.72C351.75,-54.61 291.67,-40.4 248.53,-30.2"/>
<polygon fill="#63b8ff" stroke="#63b8ff" points="397.6,-69.29 408.14,-68.19 399.21,-62.48 397.6,-69.29"/>
</a>
</g>
</g>
<!-- Node4 -->
<g id="Node000004" class="node">
<title>Node4</title>
<g id="a_Node000004"><a xlink:href="a00380.html" target="_top" xlink:title="Contains fault functions including the fault handler, fault object initialization and fault execution...">
<polygon fill="white" stroke="#666666" points="391.12,-32 266.38,-32 266.38,0 391.12,0 391.12,-32"/>
<text text-anchor="start" x="274.38" y="-18.5" font-family="Helvetica,sans-Serif" font-size="10.00">dspic33ck&#45;dab.X/sources</text>
<text text-anchor="middle" x="328.75" y="-6.5" font-family="Helvetica,sans-Serif" font-size="10.00">/fault/fault.c</text>
</a>
</g>
</g>
<!-- Node1&#45;&gt;Node4 -->
<g id="edge3_Node000001_Node000004" class="edge">
<title>Node1&#45;&gt;Node4</title>
<g id="a_edge3_Node000001_Node000004"><a xlink:title=" ">
<path fill="none" stroke="#63b8ff" d="M428.44,-63.01C407.13,-53.17 381.84,-41.5 362.07,-32.38"/>
<polygon fill="#63b8ff" stroke="#63b8ff" points="426.68,-66.51 437.22,-67.53 429.61,-60.16 426.68,-66.51"/>
</a>
</g>
</g>
<!-- Node5 -->
<g id="Node000005" class="node">
<title>Node5</title>
<g id="a_Node000005"><a xlink:href="a00464.html" target="_top" xlink:title="Contains power control initialization including control loop initialization and start&#45;up initializati...">
<polygon fill="white" stroke="#666666" points="534.12,-32 409.38,-32 409.38,0 534.12,0 534.12,-32"/>
<text text-anchor="start" x="417.38" y="-18.5" font-family="Helvetica,sans-Serif" font-size="10.00">dspic33ck&#45;dab.X/sources</text>
<text text-anchor="middle" x="471.75" y="-6.5" font-family="Helvetica,sans-Serif" font-size="10.00">/pwrctrl/pwrctrl.c</text>
</a>
</g>
</g>
<!-- Node1&#45;&gt;Node5 -->
<g id="edge5_Node000001_Node000005" class="edge">
<title>Node1&#45;&gt;Node5</title>
<g id="a_edge5_Node000001_Node000005"><a xlink:title=" ">
<path fill="none" stroke="#63b8ff" d="M471.75,-56.89C471.75,-48.52 471.75,-39.54 471.75,-32.22"/>
<polygon fill="#63b8ff" stroke="#63b8ff" points="468.25,-56.69 471.75,-66.69 475.25,-56.69 468.25,-56.69"/>
</a>
</g>
</g>
<!-- Node6 -->
<g id="Node000006" class="node">
<title>Node6</title>
<g id="a_Node000006"><a xlink:href="a00482.html" target="_top" xlink:title="Contains Control loop interrupt Callback that acquires the ADC raw data and process it in the control...">
<polygon fill="white" stroke="#666666" points="677.12,-32 552.38,-32 552.38,0 677.12,0 677.12,-32"/>
<text text-anchor="start" x="560.38" y="-18.5" font-family="Helvetica,sans-Serif" font-size="10.00">dspic33ck&#45;dab.X/sources</text>
<text text-anchor="middle" x="614.75" y="-6.5" font-family="Helvetica,sans-Serif" font-size="10.00">/pwrctrl/pwrctrl_isr.c</text>
</a>
</g>
</g>
<!-- Node1&#45;&gt;Node6 -->
<g id="edge6_Node000001_Node000006" class="edge">
<title>Node1&#45;&gt;Node6</title>
<g id="a_edge6_Node000001_Node000006"><a xlink:title=" ">
<path fill="none" stroke="#63b8ff" d="M515.06,-63.01C536.37,-53.17 561.66,-41.5 581.43,-32.38"/>
<polygon fill="#63b8ff" stroke="#63b8ff" points="513.89,-60.16 506.28,-67.53 516.82,-66.51 513.89,-60.16"/>
</a>
</g>
</g>
<!-- Node7 -->
<g id="Node000007" class="node">
<title>Node7</title>
<g id="a_Node000007"><a xlink:href="a00488.html" target="_top" xlink:title="Contains some of the functions used in the interrupt service routine of control loop.">
<polygon fill="white" stroke="#666666" points="845.88,-32 695.62,-32 695.62,0 845.88,0 845.88,-32"/>
<text text-anchor="start" x="703.62" y="-18.5" font-family="Helvetica,sans-Serif" font-size="10.00">dspic33ck&#45;dab.X/sources</text>
<text text-anchor="middle" x="770.75" y="-6.5" font-family="Helvetica,sans-Serif" font-size="10.00">/pwrctrl/pwrctrl_isr_extension.c</text>
</a>
</g>
</g>
<!-- Node1&#45;&gt;Node7 -->
<g id="edge7_Node000001_Node000007" class="edge">
<title>Node1&#45;&gt;Node7</title>
<g id="a_edge7_Node000001_Node000007"><a xlink:title=" ">
<path fill="none" stroke="#63b8ff" d="M544.94,-66.85C592.35,-56.38 653.76,-42.82 700.56,-32.49"/>
<polygon fill="#63b8ff" stroke="#63b8ff" points="544.44,-63.59 535.43,-69.16 545.95,-70.43 544.44,-63.59"/>
</a>
</g>
</g>
<!-- Node8 -->
<g id="Node000008" class="node">
<title>Node8</title>
<g id="a_Node000008"><a xlink:href="a00497.html" target="_top" xlink:title="Contains power control state machine functions that is executed every 100us.">
<polygon fill="white" stroke="#666666" points="989.12,-32 864.38,-32 864.38,0 989.12,0 989.12,-32"/>
<text text-anchor="start" x="872.38" y="-18.5" font-family="Helvetica,sans-Serif" font-size="10.00">dspic33ck&#45;dab.X/sources</text>
<text text-anchor="middle" x="926.75" y="-6.5" font-family="Helvetica,sans-Serif" font-size="10.00">/pwrctrl/pwrctrl_sm.c</text>
</a>
</g>
</g>
<!-- Node1&#45;&gt;Node8 -->
<g id="edge8_Node000001_Node000008" class="edge">
<title>Node1&#45;&gt;Node8</title>
<g id="a_edge8_Node000001_Node000008"><a xlink:title=" ">
<path fill="none" stroke="#63b8ff" d="M544.9,-74.87C622.15,-65.91 747.39,-50.31 854.75,-32 857.77,-31.48 860.86,-30.93 863.97,-30.36"/>
<polygon fill="#63b8ff" stroke="#63b8ff" points="544.85,-71.47 535.32,-76.09 545.66,-78.42 544.85,-71.47"/>
</a>
</g>
</g>
</g>
</svg>
