<?xml version="1.0" encoding="UTF-8" standalone="no"?>
<!DOCTYPE svg PUBLIC "-//W3C//DTD SVG 1.1//EN"
 "http://www.w3.org/Graphics/SVG/1.1/DTD/svg11.dtd">
<!-- Generated by graphviz version 8.1.0 (20230707.0739)
 -->
<!-- Title: dab&#45;pwm&#45;configuration.X/sources/device/pwrctrl/dev_pwrctrl_pwm.h Pages: 1 -->
<svg width="981pt" height="212pt"
 viewBox="0.00 0.00 981.00 212.00" xmlns="http://www.w3.org/2000/svg" xmlns:xlink="http://www.w3.org/1999/xlink">
<g id="graph0" class="graph" transform="scale(1 1) rotate(0) translate(4 208)">
<title>dab&#45;pwm&#45;configuration.X/sources/device/pwrctrl/dev_pwrctrl_pwm.h</title>
<!-- Node1 -->
<g id="Node000001" class="node">
<title>Node1</title>
<g id="a_Node000001"><a xlink:title="Contains public functions for PWM.">
<polygon fill="#999999" stroke="#666666" points="677,-204 556,-204 556,-160 677,-160 677,-204"/>
<text text-anchor="start" x="564" y="-190.5" font-family="Helvetica,sans-Serif" font-size="10.00">dab&#45;pwm&#45;configuration.X</text>
<text text-anchor="start" x="564" y="-178.5" font-family="Helvetica,sans-Serif" font-size="10.00">/sources/device/pwrctrl</text>
<text text-anchor="middle" x="616.5" y="-166.5" font-family="Helvetica,sans-Serif" font-size="10.00">/dev_pwrctrl_pwm.h</text>
</a>
</g>
</g>
<!-- Node2 -->
<g id="Node000002" class="node">
<title>Node2</title>
<g id="a_Node000002"><a xlink:href="a00317_source.html" target="_top" xlink:title=" ">
<polygon fill="white" stroke="#666666" points="554,-124 433,-124 433,-80 554,-80 554,-124"/>
<text text-anchor="start" x="441" y="-110.5" font-family="Helvetica,sans-Serif" font-size="10.00">dab&#45;pwm&#45;configuration.X</text>
<text text-anchor="start" x="441" y="-98.5" font-family="Helvetica,sans-Serif" font-size="10.00">/sources/device/fault</text>
<text text-anchor="middle" x="493.5" y="-86.5" font-family="Helvetica,sans-Serif" font-size="10.00">/dev_fault.h</text>
</a>
</g>
</g>
<!-- Node1&#45;&gt;Node2 -->
<g id="edge1_Node000001_Node000002" class="edge">
<title>Node1&#45;&gt;Node2</title>
<g id="a_edge1_Node000001_Node000002"><a xlink:title=" ">
<path fill="none" stroke="#63b8ff" d="M573.65,-153.82C558.39,-144.15 541.44,-133.4 527.07,-124.29"/>
<polygon fill="#63b8ff" stroke="#63b8ff" points="571.57,-157.29 581.89,-159.69 575.32,-151.37 571.57,-157.29"/>
</a>
</g>
</g>
<!-- Node6 -->
<g id="Node000006" class="node">
<title>Node6</title>
<g id="a_Node000006"><a xlink:href="a00359.html" target="_top" xlink:title="Contains power control initialization including control loop initialization and start&#45;up initializati...">
<polygon fill="white" stroke="#666666" points="121,-44 0,-44 0,0 121,0 121,-44"/>
<text text-anchor="start" x="8" y="-30.5" font-family="Helvetica,sans-Serif" font-size="10.00">dab&#45;pwm&#45;configuration.X</text>
<text text-anchor="start" x="8" y="-18.5" font-family="Helvetica,sans-Serif" font-size="10.00">/sources/device/pwrctrl</text>
<text text-anchor="middle" x="60.5" y="-6.5" font-family="Helvetica,sans-Serif" font-size="10.00">/dev_pwrctrl.c</text>
</a>
</g>
</g>
<!-- Node1&#45;&gt;Node6 -->
<g id="edge10_Node000001_Node000006" class="edge">
<title>Node1&#45;&gt;Node6</title>
<g id="a_edge10_Node000001_Node000006"><a xlink:title=" ">
<path fill="none" stroke="#63b8ff" d="M545.3,-161.48C450.31,-135.32 276.96,-87.18 129.5,-44 126.86,-43.23 124.16,-42.43 121.43,-41.62"/>
<polygon fill="#63b8ff" stroke="#63b8ff" points="544.07,-165.05 554.64,-164.33 545.93,-158.3 544.07,-165.05"/>
</a>
</g>
</g>
<!-- Node7 -->
<g id="Node000007" class="node">
<title>Node7</title>
<g id="a_Node000007"><a xlink:href="a00371.html" target="_top" xlink:title="Contains Control loop interrupt Callback that acquires the ADC raw data and process it in the control...">
<polygon fill="white" stroke="#666666" points="677,-44 556,-44 556,0 677,0 677,-44"/>
<text text-anchor="start" x="564" y="-30.5" font-family="Helvetica,sans-Serif" font-size="10.00">dab&#45;pwm&#45;configuration.X</text>
<text text-anchor="start" x="564" y="-18.5" font-family="Helvetica,sans-Serif" font-size="10.00">/sources/device/pwrctrl</text>
<text text-anchor="middle" x="616.5" y="-6.5" font-family="Helvetica,sans-Serif" font-size="10.00">/dev_pwrctrl_isr.c</text>
</a>
</g>
</g>
<!-- Node1&#45;&gt;Node7 -->
<g id="edge11_Node000001_Node000007" class="edge">
<title>Node1&#45;&gt;Node7</title>
<g id="a_edge11_Node000001_Node000007"><a xlink:title=" ">
<path fill="none" stroke="#63b8ff" d="M616.5,-148.98C616.5,-117.84 616.5,-71.41 616.5,-44.48"/>
<polygon fill="#63b8ff" stroke="#63b8ff" points="613,-148.69 616.5,-158.69 620,-148.69 613,-148.69"/>
</a>
</g>
</g>
<!-- Node8 -->
<g id="Node000008" class="node">
<title>Node8</title>
<g id="a_Node000008"><a xlink:href="a00377.html" target="_top" xlink:title="Contains some of the functions used in the interrupt service routine of control loop.">
<polygon fill="white" stroke="#666666" points="833.62,-44 695.38,-44 695.38,0 833.62,0 833.62,-44"/>
<text text-anchor="start" x="703.38" y="-30.5" font-family="Helvetica,sans-Serif" font-size="10.00">dab&#45;pwm&#45;configuration.X</text>
<text text-anchor="start" x="703.38" y="-18.5" font-family="Helvetica,sans-Serif" font-size="10.00">/sources/device/pwrctrl</text>
<text text-anchor="middle" x="764.5" y="-6.5" font-family="Helvetica,sans-Serif" font-size="10.00">/dev_pwrctrl_isr_extension.c</text>
</a>
</g>
</g>
<!-- Node1&#45;&gt;Node8 -->
<g id="edge12_Node000001_Node000008" class="edge">
<title>Node1&#45;&gt;Node8</title>
<g id="a_edge12_Node000001_Node000008"><a xlink:title=" ">
<path fill="none" stroke="#63b8ff" d="M643.85,-151.8C672.98,-120.71 718.38,-72.24 744.38,-44.48"/>
<polygon fill="#63b8ff" stroke="#63b8ff" points="641.74,-149 637.46,-158.69 646.85,-153.79 641.74,-149"/>
</a>
</g>
</g>
<!-- Node9 -->
<g id="Node000009" class="node">
<title>Node9</title>
<g id="a_Node000009"><a xlink:href="a00386.html" target="_top" xlink:title="Contains power control state machine functions that is executed every 100us.">
<polygon fill="white" stroke="#666666" points="973,-44 852,-44 852,0 973,0 973,-44"/>
<text text-anchor="start" x="860" y="-30.5" font-family="Helvetica,sans-Serif" font-size="10.00">dab&#45;pwm&#45;configuration.X</text>
<text text-anchor="start" x="860" y="-18.5" font-family="Helvetica,sans-Serif" font-size="10.00">/sources/device/pwrctrl</text>
<text text-anchor="middle" x="912.5" y="-6.5" font-family="Helvetica,sans-Serif" font-size="10.00">/dev_pwrctrl_sm.c</text>
</a>
</g>
</g>
<!-- Node1&#45;&gt;Node9 -->
<g id="edge13_Node000001_Node000009" class="edge">
<title>Node1&#45;&gt;Node9</title>
<g id="a_edge13_Node000001_Node000009"><a xlink:title=" ">
<path fill="none" stroke="#63b8ff" d="M666.41,-154.36C724.39,-123.41 818.91,-72.96 872.36,-44.43"/>
<polygon fill="#63b8ff" stroke="#63b8ff" points="664.9,-151.73 657.73,-159.53 668.2,-157.91 664.9,-151.73"/>
</a>
</g>
</g>
<!-- Node2&#45;&gt;Node2 -->
<g id="edge5_Node000002_Node000002" class="edge">
<title>Node2&#45;&gt;Node2</title>
<g id="a_edge5_Node000002_Node000002"><a xlink:title=" ">
<path fill="none" stroke="#63b8ff" d="M564.53,-112.69C569.18,-110.2 572,-106.64 572,-102 572,-94.58 564.79,-89.91 554.39,-88"/>
<polygon fill="#63b8ff" stroke="#63b8ff" points="563.81,-109.57 555.39,-116 565.98,-116.22 563.81,-109.57"/>
</a>
</g>
</g>
<!-- Node3 -->
<g id="Node000003" class="node">
<title>Node3</title>
<g id="a_Node000003"><a xlink:href="a00044_source.html" target="_top" xlink:title=" ">
<polygon fill="white" stroke="#666666" points="260,-38 139,-38 139,-6 260,-6 260,-38"/>
<text text-anchor="start" x="147" y="-24.5" font-family="Helvetica,sans-Serif" font-size="10.00">dab&#45;pwm&#45;configuration.X</text>
<text text-anchor="middle" x="199.5" y="-12.5" font-family="Helvetica,sans-Serif" font-size="10.00">/main.c</text>
</a>
</g>
</g>
<!-- Node2&#45;&gt;Node3 -->
<g id="edge2_Node000002_Node000003" class="edge">
<title>Node2&#45;&gt;Node3</title>
<g id="a_edge2_Node000002_Node000003"><a xlink:title=" ">
<path fill="none" stroke="#63b8ff" d="M421.98,-83.8C377.65,-72.91 319.6,-58.24 268.5,-44 262.23,-42.25 255.66,-40.35 249.17,-38.42"/>
<polygon fill="#63b8ff" stroke="#63b8ff" points="421.11,-87.43 431.65,-86.41 422.77,-80.63 421.11,-87.43"/>
</a>
</g>
</g>
<!-- Node4 -->
<g id="Node000004" class="node">
<title>Node4</title>
<g id="a_Node000004"><a xlink:href="a00047_source.html" target="_top" xlink:title=" ">
<polygon fill="white" stroke="#666666" points="399,-38 278,-38 278,-6 399,-6 399,-38"/>
<text text-anchor="start" x="286" y="-24.5" font-family="Helvetica,sans-Serif" font-size="10.00">dab&#45;pwm&#45;configuration.X</text>
<text text-anchor="middle" x="338.5" y="-12.5" font-family="Helvetica,sans-Serif" font-size="10.00">/main_tasks.c</text>
</a>
</g>
</g>
<!-- Node2&#45;&gt;Node4 -->
<g id="edge3_Node000002_Node000004" class="edge">
<title>Node2&#45;&gt;Node4</title>
<g id="a_edge3_Node000002_Node000004"><a xlink:title=" ">
<path fill="none" stroke="#63b8ff" d="M441.44,-74.8C417.37,-62.69 389.62,-48.73 369.01,-38.35"/>
<polygon fill="#63b8ff" stroke="#63b8ff" points="439.64,-78.32 450.15,-79.69 442.79,-72.06 439.64,-78.32"/>
</a>
</g>
</g>
<!-- Node5 -->
<g id="Node000005" class="node">
<title>Node5</title>
<g id="a_Node000005"><a xlink:href="a00314.html" target="_top" xlink:title="Contains fault functions including the fault handler, fault object initialization and fault execution...">
<polygon fill="white" stroke="#666666" points="538,-44 417,-44 417,0 538,0 538,-44"/>
<text text-anchor="start" x="425" y="-30.5" font-family="Helvetica,sans-Serif" font-size="10.00">dab&#45;pwm&#45;configuration.X</text>
<text text-anchor="start" x="425" y="-18.5" font-family="Helvetica,sans-Serif" font-size="10.00">/sources/device/fault</text>
<text text-anchor="middle" x="477.5" y="-6.5" font-family="Helvetica,sans-Serif" font-size="10.00">/dev_fault.c</text>
</a>
</g>
</g>
<!-- Node2&#45;&gt;Node5 -->
<g id="edge4_Node000002_Node000005" class="edge">
<title>Node2&#45;&gt;Node5</title>
<g id="a_edge4_Node000002_Node000005"><a xlink:title=" ">
<path fill="none" stroke="#63b8ff" d="M486.96,-69.1C485.24,-60.74 483.44,-51.94 481.87,-44.29"/>
<polygon fill="#63b8ff" stroke="#63b8ff" points="483.69,-69.59 489.13,-78.69 490.55,-68.19 483.69,-69.59"/>
</a>
</g>
</g>
<!-- Node2&#45;&gt;Node6 -->
<g id="edge6_Node000002_Node000006" class="edge">
<title>Node2&#45;&gt;Node6</title>
<g id="a_edge6_Node000002_Node000006"><a xlink:title=" ">
<path fill="none" stroke="#63b8ff" d="M422.23,-92.84C348.43,-83.69 230.08,-67.06 129.5,-44 126.81,-43.38 124.08,-42.72 121.33,-42.02"/>
<polygon fill="#63b8ff" stroke="#63b8ff" points="421.43,-96.39 431.78,-94.13 422.29,-89.44 421.43,-96.39"/>
</a>
</g>
</g>
<!-- Node2&#45;&gt;Node7 -->
<g id="edge7_Node000002_Node000007" class="edge">
<title>Node2&#45;&gt;Node7</title>
<g id="a_edge7_Node000002_Node000007"><a xlink:title=" ">
<path fill="none" stroke="#63b8ff" d="M536.35,-73.82C551.61,-64.15 568.56,-53.4 582.93,-44.29"/>
<polygon fill="#63b8ff" stroke="#63b8ff" points="534.68,-71.37 528.11,-79.69 538.43,-77.29 534.68,-71.37"/>
</a>
</g>
</g>
<!-- Node2&#45;&gt;Node8 -->
<g id="edge8_Node000002_Node000008" class="edge">
<title>Node2&#45;&gt;Node8</title>
<g id="a_edge8_Node000002_Node000008"><a xlink:title=" ">
<path fill="none" stroke="#63b8ff" d="M564.87,-80.46C605.19,-68.85 655.34,-54.42 695.29,-42.92"/>
<polygon fill="#63b8ff" stroke="#63b8ff" points="563.96,-77.37 555.32,-83.5 565.9,-84.09 563.96,-77.37"/>
</a>
</g>
</g>
<!-- Node2&#45;&gt;Node9 -->
<g id="edge9_Node000002_Node000009" class="edge">
<title>Node2&#45;&gt;Node9</title>
<g id="a_edge9_Node000002_Node000009"><a xlink:title=" ">
<path fill="none" stroke="#63b8ff" d="M565.09,-92.07C636.01,-82.58 747.47,-65.92 842.5,-44 845.47,-43.32 848.49,-42.58 851.54,-41.79"/>
<polygon fill="#63b8ff" stroke="#63b8ff" points="564.94,-88.69 555.49,-93.48 565.86,-95.63 564.94,-88.69"/>
</a>
</g>
</g>
</g>
</svg>
