<?xml version="1.0" encoding="UTF-8" standalone="no"?>
<!DOCTYPE svg PUBLIC "-//W3C//DTD SVG 1.1//EN"
 "http://www.w3.org/Graphics/SVG/1.1/DTD/svg11.dtd">
<!-- Generated by graphviz version 8.1.0 (20230707.0739)
 -->
<!-- Title: PWM Settings Pages: 1 -->
<svg width="358pt" height="28pt"
 viewBox="0.00 0.00 357.50 28.00" xmlns="http://www.w3.org/2000/svg" xmlns:xlink="http://www.w3.org/1999/xlink">
<g id="graph0" class="graph" transform="scale(1 1) rotate(0) translate(4 24)">
<title>PWM Settings</title>
<!-- Node2 -->
<g id="Node000002" class="node">
<title>Node2</title>
<g id="a_Node000002"><a xlink:href="a00485.html" target="_top" xlink:title="Allow user to quickly change fundamental system parameters, hardware changes and even migrating the f...">
<polygon fill="white" stroke="#666666" points="99.25,-20 0,-20 0,0 99.25,0 99.25,-20"/>
<text text-anchor="middle" x="49.62" y="-6.5" font-family="Helvetica,sans-Serif" font-size="10.00">Configuration Layer</text>
</a>
</g>
</g>
<!-- Node1 -->
<g id="Node000001" class="node">
<title>Node1</title>
<g id="a_Node000001"><a xlink:title="User&#45;declaration of global defines for PWM signal generator settings.">
<polygon fill="#999999" stroke="#666666" points="215,-20 135.25,-20 135.25,0 215,0 215,-20"/>
<text text-anchor="middle" x="175.12" y="-6.5" font-family="Helvetica,sans-Serif" font-size="10.00">PWM Settings</text>
</a>
</g>
</g>
<!-- Node2&#45;&gt;Node1 -->
<g id="edge1" class="edge">
<title>Node2&#45;&gt;Node1</title>
<path fill="none" stroke="black" d="M110.29,-10C118.61,-10 126.98,-10 134.79,-10"/>
<polygon fill="black" stroke="black" points="110.44,-6.5 100.44,-10 110.44,-13.5 110.44,-6.5"/>
</g>
<!-- Node3 -->
<g id="Node000003" class="node">
<title>Node3</title>
<g id="a_Node000003"><a xlink:href="a00462.html" target="_top" xlink:title="Conversion macros for user declarations of PWM peripheral.">
<polygon fill="white" stroke="#666666" points="349.5,-20 251,-20 251,0 349.5,0 349.5,-20"/>
<text text-anchor="middle" x="300.25" y="-6.5" font-family="Helvetica,sans-Serif" font-size="10.00">Conversion Macros</text>
</a>
</g>
</g>
<!-- Node1&#45;&gt;Node3 -->
<g id="edge2" class="edge">
<title>Node1&#45;&gt;Node3</title>
<path fill="none" stroke="black" d="M226.26,-10C234.37,-10 242.76,-10 250.83,-10"/>
<polygon fill="black" stroke="black" points="226.42,-6.5 216.42,-10 226.42,-13.5 226.42,-6.5"/>
</g>
</g>
</svg>
