<?xml version="1.0" encoding="UTF-8" standalone="no"?>
<!DOCTYPE svg PUBLIC "-//W3C//DTD SVG 1.1//EN"
 "http://www.w3.org/Graphics/SVG/1.1/DTD/svg11.dtd">
<!-- Generated by graphviz version 8.1.0 (20230707.0739)
 -->
<!-- Title: dspic33ck&#45;dab.X/sources/pwrctrl/pwrctrl_common.h Pages: 1 -->
<svg width="2044pt" height="188pt"
 viewBox="0.00 0.00 2043.75 188.00" xmlns="http://www.w3.org/2000/svg" xmlns:xlink="http://www.w3.org/1999/xlink">
<g id="graph0" class="graph" transform="scale(1 1) rotate(0) translate(4 184)">
<title>dspic33ck&#45;dab.X/sources/pwrctrl/pwrctrl_common.h</title>
<!-- Node1 -->
<g id="Node000001" class="node">
<title>Node1</title>
<g id="a_Node000001"><a xlink:title="Contains the power control reusable functions.">
<polygon fill="#999999" stroke="#666666" points="757.38,-180 627.38,-180 627.38,-148 757.38,-148 757.38,-180"/>
<text text-anchor="start" x="635.38" y="-166.5" font-family="Helvetica,sans-Serif" font-size="10.00">dspic33ck&#45;dab.X/sources</text>
<text text-anchor="middle" x="692.38" y="-154.5" font-family="Helvetica,sans-Serif" font-size="10.00">/pwrctrl/pwrctrl_common.h</text>
</a>
</g>
</g>
<!-- Node2 -->
<g id="Node000002" class="node">
<title>Node2</title>
<g id="a_Node000002"><a xlink:href="a00386.html" target="_top" xlink:title="Contains public fault functions.">
<polygon fill="white" stroke="#666666" points="605.75,-112 481,-112 481,-80 605.75,-80 605.75,-112"/>
<text text-anchor="start" x="489" y="-98.5" font-family="Helvetica,sans-Serif" font-size="10.00">dspic33ck&#45;dab.X/sources</text>
<text text-anchor="middle" x="543.38" y="-86.5" font-family="Helvetica,sans-Serif" font-size="10.00">/fault/fault.h</text>
</a>
</g>
</g>
<!-- Node1&#45;&gt;Node2 -->
<g id="edge1_Node000001_Node000002" class="edge">
<title>Node1&#45;&gt;Node2</title>
<g id="a_edge1_Node000001_Node000002"><a xlink:title=" ">
<path fill="none" stroke="#63b8ff" d="M647.58,-143.16C625.4,-133.33 599.02,-121.65 578.35,-112.49"/>
<polygon fill="#63b8ff" stroke="#63b8ff" points="645.88,-146.68 656.44,-147.53 648.72,-140.28 645.88,-146.68"/>
</a>
</g>
</g>
<!-- Node10 -->
<g id="Node000010" class="node">
<title>Node10</title>
<g id="a_Node000010"><a xlink:href="a00470_source.html" target="_top" xlink:title=" ">
<polygon fill="white" stroke="#666666" points="975.75,-112 851,-112 851,-80 975.75,-80 975.75,-112"/>
<text text-anchor="start" x="859" y="-98.5" font-family="Helvetica,sans-Serif" font-size="10.00">dspic33ck&#45;dab.X/sources</text>
<text text-anchor="middle" x="913.38" y="-86.5" font-family="Helvetica,sans-Serif" font-size="10.00">/pwrctrl/pwrctrl.h</text>
</a>
</g>
</g>
<!-- Node1&#45;&gt;Node10 -->
<g id="edge10_Node000001_Node000010" class="edge">
<title>Node1&#45;&gt;Node10</title>
<g id="a_edge10_Node000001_Node000010"><a xlink:title=" ">
<path fill="none" stroke="#63b8ff" d="M754.41,-144.47C788.17,-134.39 829.46,-122.06 861.5,-112.49"/>
<polygon fill="#63b8ff" stroke="#63b8ff" points="753.77,-141.31 745.19,-147.53 755.77,-148.02 753.77,-141.31"/>
</a>
</g>
</g>
<!-- Node2&#45;&gt;Node2 -->
<g id="edge5_Node000002_Node000002" class="edge">
<title>Node2&#45;&gt;Node2</title>
<g id="a_edge5_Node000002_Node000002"><a xlink:title=" ">
<path fill="none" stroke="#63b8ff" d="M616.6,-104.86C621.07,-102.76 623.75,-99.8 623.75,-96 623.75,-89.76 616.53,-85.81 606.06,-84.15"/>
<polygon fill="#63b8ff" stroke="#63b8ff" points="615.72,-101.75 607.06,-107.85 617.63,-108.49 615.72,-101.75"/>
</a>
</g>
</g>
<!-- Node3 -->
<g id="Node000003" class="node">
<title>Node3</title>
<g id="a_Node000003"><a xlink:href="a00083_source.html" target="_top" xlink:title=" ">
<polygon fill="white" stroke="#666666" points="262.12,-32 142.62,-32 142.62,-12 262.12,-12 262.12,-32"/>
<text text-anchor="middle" x="202.38" y="-18.5" font-family="Helvetica,sans-Serif" font-size="10.00">dspic33ck&#45;dab.X/main.c</text>
</a>
</g>
</g>
<!-- Node2&#45;&gt;Node3 -->
<g id="edge2_Node000002_Node000003" class="edge">
<title>Node2&#45;&gt;Node3</title>
<g id="a_edge2_Node000002_Node000003"><a xlink:title=" ">
<path fill="none" stroke="#63b8ff" d="M469.85,-83.62C414.62,-74.5 337.3,-60.53 270.38,-44 257.06,-40.71 242.51,-36.33 230.29,-32.41"/>
<polygon fill="#63b8ff" stroke="#63b8ff" points="469.16,-87.22 479.59,-85.38 470.29,-80.31 469.16,-87.22"/>
</a>
</g>
</g>
<!-- Node4 -->
<g id="Node000004" class="node">
<title>Node4</title>
<g id="a_Node000004"><a xlink:href="a00086_source.html" target="_top" xlink:title=" ">
<polygon fill="white" stroke="#666666" points="391,-38 279.75,-38 279.75,-6 391,-6 391,-38"/>
<text text-anchor="start" x="287.75" y="-24.5" font-family="Helvetica,sans-Serif" font-size="10.00">dspic33ck&#45;dab.X/main</text>
<text text-anchor="middle" x="335.38" y="-12.5" font-family="Helvetica,sans-Serif" font-size="10.00">_tasks.c</text>
</a>
</g>
</g>
<!-- Node2&#45;&gt;Node4 -->
<g id="edge3_Node000002_Node000004" class="edge">
<title>Node2&#45;&gt;Node4</title>
<g id="a_edge3_Node000002_Node000004"><a xlink:title=" ">
<path fill="none" stroke="#63b8ff" d="M488.55,-76.02C454.65,-64.29 411.71,-49.42 379.92,-38.42"/>
<polygon fill="#63b8ff" stroke="#63b8ff" points="487.16,-79.59 497.75,-79.55 489.45,-72.98 487.16,-79.59"/>
</a>
</g>
</g>
<!-- Node5 -->
<g id="Node000005" class="node">
<title>Node5</title>
<g id="a_Node000005"><a xlink:href="a00383.html" target="_top" xlink:title="Contains fault functions including the fault handler, fault object initialization and fault execution...">
<polygon fill="white" stroke="#666666" points="533.75,-38 409,-38 409,-6 533.75,-6 533.75,-38"/>
<text text-anchor="start" x="417" y="-24.5" font-family="Helvetica,sans-Serif" font-size="10.00">dspic33ck&#45;dab.X/sources</text>
<text text-anchor="middle" x="471.38" y="-12.5" font-family="Helvetica,sans-Serif" font-size="10.00">/fault/fault.c</text>
</a>
</g>
</g>
<!-- Node2&#45;&gt;Node5 -->
<g id="edge4_Node000002_Node000005" class="edge">
<title>Node2&#45;&gt;Node5</title>
<g id="a_edge4_Node000002_Node000005"><a xlink:title=" ">
<path fill="none" stroke="#63b8ff" d="M520.47,-72.09C509.41,-61.04 496.45,-48.07 486.62,-38.25"/>
<polygon fill="#63b8ff" stroke="#63b8ff" points="517.56,-74.13 527.11,-78.73 522.51,-69.18 517.56,-74.13"/>
</a>
</g>
</g>
<!-- Node6 -->
<g id="Node000006" class="node">
<title>Node6</title>
<g id="a_Node000006"><a xlink:href="a00467.html" target="_top" xlink:title="Contains power control initialization including control loop initialization and start&#45;up initializati...">
<polygon fill="white" stroke="#666666" points="676.75,-38 552,-38 552,-6 676.75,-6 676.75,-38"/>
<text text-anchor="start" x="560" y="-24.5" font-family="Helvetica,sans-Serif" font-size="10.00">dspic33ck&#45;dab.X/sources</text>
<text text-anchor="middle" x="614.38" y="-12.5" font-family="Helvetica,sans-Serif" font-size="10.00">/pwrctrl/pwrctrl.c</text>
</a>
</g>
</g>
<!-- Node2&#45;&gt;Node6 -->
<g id="edge6_Node000002_Node000006" class="edge">
<title>Node2&#45;&gt;Node6</title>
<g id="a_edge6_Node000002_Node000006"><a xlink:title=" ">
<path fill="none" stroke="#63b8ff" d="M565.97,-72.09C576.87,-61.04 589.65,-48.07 599.34,-38.25"/>
<polygon fill="#63b8ff" stroke="#63b8ff" points="563.96,-69.15 559.43,-78.73 568.95,-74.07 563.96,-69.15"/>
</a>
</g>
</g>
<!-- Node7 -->
<g id="Node000007" class="node">
<title>Node7</title>
<g id="a_Node000007"><a xlink:href="a00485.html" target="_top" xlink:title="Contains Control loop interrupt Callback that acquires the ADC raw data and process it in the control...">
<polygon fill="white" stroke="#666666" points="819.75,-38 695,-38 695,-6 819.75,-6 819.75,-38"/>
<text text-anchor="start" x="703" y="-24.5" font-family="Helvetica,sans-Serif" font-size="10.00">dspic33ck&#45;dab.X/sources</text>
<text text-anchor="middle" x="757.38" y="-12.5" font-family="Helvetica,sans-Serif" font-size="10.00">/pwrctrl/pwrctrl_isr.c</text>
</a>
</g>
</g>
<!-- Node2&#45;&gt;Node7 -->
<g id="edge7_Node000002_Node000007" class="edge">
<title>Node2&#45;&gt;Node7</title>
<g id="a_edge7_Node000002_Node000007"><a xlink:title=" ">
<path fill="none" stroke="#63b8ff" d="M599.33,-76.17C634.27,-64.42 678.7,-49.47 711.54,-38.42"/>
<polygon fill="#63b8ff" stroke="#63b8ff" points="598.65,-73.05 590.28,-79.55 600.88,-79.68 598.65,-73.05"/>
</a>
</g>
</g>
<!-- Node8 -->
<g id="Node000008" class="node">
<title>Node8</title>
<g id="a_Node000008"><a xlink:href="a00491.html" target="_top" xlink:title="Contains some of the functions used in the interrupt service routine of control loop.">
<polygon fill="white" stroke="#666666" points="988.5,-38 838.25,-38 838.25,-6 988.5,-6 988.5,-38"/>
<text text-anchor="start" x="846.25" y="-24.5" font-family="Helvetica,sans-Serif" font-size="10.00">dspic33ck&#45;dab.X/sources</text>
<text text-anchor="middle" x="913.38" y="-12.5" font-family="Helvetica,sans-Serif" font-size="10.00">/pwrctrl/pwrctrl_isr_extension.c</text>
</a>
</g>
</g>
<!-- Node2&#45;&gt;Node8 -->
<g id="edge8_Node000002_Node000008" class="edge">
<title>Node2&#45;&gt;Node8</title>
<g id="a_edge8_Node000002_Node000008"><a xlink:title=" ">
<path fill="none" stroke="#63b8ff" d="M616.99,-83.18C674.69,-73.59 756.9,-59.21 828.38,-44 836.4,-42.29 844.83,-40.37 853.12,-38.4"/>
<polygon fill="#63b8ff" stroke="#63b8ff" points="616.45,-79.89 607.15,-84.97 617.59,-86.79 616.45,-79.89"/>
</a>
</g>
</g>
<!-- Node9 -->
<g id="Node000009" class="node">
<title>Node9</title>
<g id="a_Node000009"><a xlink:href="a00500.html" target="_top" xlink:title="Contains power control state machine functions that is executed every 100us.">
<polygon fill="white" stroke="#666666" points="124.75,-38 0,-38 0,-6 124.75,-6 124.75,-38"/>
<text text-anchor="start" x="8" y="-24.5" font-family="Helvetica,sans-Serif" font-size="10.00">dspic33ck&#45;dab.X/sources</text>
<text text-anchor="middle" x="62.38" y="-12.5" font-family="Helvetica,sans-Serif" font-size="10.00">/pwrctrl/pwrctrl_sm.c</text>
</a>
</g>
</g>
<!-- Node2&#45;&gt;Node9 -->
<g id="edge9_Node000002_Node000009" class="edge">
<title>Node2&#45;&gt;Node9</title>
<g id="a_edge9_Node000002_Node000009"><a xlink:title=" ">
<path fill="none" stroke="#63b8ff" d="M469.91,-89.51C387.4,-82.51 249.8,-68.29 133.38,-44 125.95,-42.45 118.18,-40.5 110.61,-38.42"/>
<polygon fill="#63b8ff" stroke="#63b8ff" points="469.43,-93.07 479.69,-90.41 470.01,-86.09 469.43,-93.07"/>
</a>
</g>
</g>
<!-- Node10&#45;&gt;Node3 -->
<g id="edge11_Node000010_Node000003" class="edge">
<title>Node10&#45;&gt;Node3</title>
<g id="a_edge11_Node000010_Node000003"><a xlink:title=" ">
<path fill="none" stroke="#63b8ff" d="M839.61,-91.2C694.7,-83.39 377.63,-64.55 270.38,-44 256.18,-41.28 240.75,-36.66 228.19,-32.44"/>
<polygon fill="#63b8ff" stroke="#63b8ff" points="839.41,-94.75 849.58,-91.79 839.78,-87.76 839.41,-94.75"/>
</a>
</g>
</g>
<!-- Node10&#45;&gt;Node4 -->
<g id="edge12_Node000010_Node000004" class="edge">
<title>Node10&#45;&gt;Node4</title>
<g id="a_edge12_Node000010_Node000004"><a xlink:title=" ">
<path fill="none" stroke="#63b8ff" d="M839.82,-92.61C739.53,-88.24 554.7,-76.22 400.38,-44 393.29,-42.52 385.9,-40.56 378.74,-38.42"/>
<polygon fill="#63b8ff" stroke="#63b8ff" points="839.6,-96.15 849.74,-93.07 839.89,-89.15 839.6,-96.15"/>
</a>
</g>
</g>
<!-- Node10&#45;&gt;Node5 -->
<g id="edge16_Node000010_Node000005" class="edge">
<title>Node10&#45;&gt;Node5</title>
<g id="a_edge16_Node000010_Node000005"><a xlink:title=" ">
<path fill="none" stroke="#63b8ff" d="M839.95,-88.09C764.9,-80.28 645.22,-65.75 543.38,-44 535.99,-42.42 528.25,-40.48 520.71,-38.42"/>
<polygon fill="#63b8ff" stroke="#63b8ff" points="839.39,-91.66 849.7,-89.2 840.11,-84.69 839.39,-91.66"/>
</a>
</g>
</g>
<!-- Node10&#45;&gt;Node6 -->
<g id="edge18_Node000010_Node000006" class="edge">
<title>Node10&#45;&gt;Node6</title>
<g id="a_edge18_Node000010_Node000006"><a xlink:title=" ">
<path fill="none" stroke="#63b8ff" d="M840.23,-79.79C795.61,-70.2 737.5,-57.19 686.38,-44 679.69,-42.28 672.69,-40.37 665.79,-38.42"/>
<polygon fill="#63b8ff" stroke="#63b8ff" points="839.47,-83.42 849.98,-82.09 840.93,-76.57 839.47,-83.42"/>
</a>
</g>
</g>
<!-- Node10&#45;&gt;Node7 -->
<g id="edge21_Node000010_Node000007" class="edge">
<title>Node10&#45;&gt;Node7</title>
<g id="a_edge21_Node000010_Node000007"><a xlink:title=" ">
<path fill="none" stroke="#63b8ff" d="M869.94,-74.95C844.9,-63.4 813.91,-49.09 790.79,-38.42"/>
<polygon fill="#63b8ff" stroke="#63b8ff" points="868.36,-78.54 878.91,-79.55 871.3,-72.19 868.36,-78.54"/>
</a>
</g>
</g>
<!-- Node10&#45;&gt;Node8 -->
<g id="edge22_Node000010_Node000008" class="edge">
<title>Node10&#45;&gt;Node8</title>
<g id="a_edge22_Node000010_Node000008"><a xlink:title=" ">
<path fill="none" stroke="#63b8ff" d="M913.38,-68.82C913.38,-58.55 913.38,-47.12 913.38,-38.25"/>
<polygon fill="#63b8ff" stroke="#63b8ff" points="909.88,-68.73 913.38,-78.73 916.88,-68.73 909.88,-68.73"/>
</a>
</g>
</g>
<!-- Node10&#45;&gt;Node9 -->
<g id="edge24_Node000010_Node000009" class="edge">
<title>Node10&#45;&gt;Node9</title>
<g id="a_edge24_Node000010_Node000009"><a xlink:title=" ">
<path fill="none" stroke="#63b8ff" d="M839.86,-91.13C658.91,-81.46 201.7,-56.18 133.38,-44 125.53,-42.6 117.32,-40.65 109.38,-38.49"/>
<polygon fill="#63b8ff" stroke="#63b8ff" points="839.42,-94.66 849.59,-91.7 839.79,-87.67 839.42,-94.66"/>
</a>
</g>
</g>
<!-- Node11 -->
<g id="Node000011" class="node">
<title>Node11</title>
<g id="a_Node000011"><a xlink:href="a00287_source.html" target="_top" xlink:title=" ">
<polygon fill="white" stroke="#666666" points="1158.25,-38 1006.5,-38 1006.5,-6 1158.25,-6 1158.25,-38"/>
<text text-anchor="start" x="1014.5" y="-24.5" font-family="Helvetica,sans-Serif" font-size="10.00">dspic33ck&#45;dab.X/sources</text>
<text text-anchor="middle" x="1082.38" y="-12.5" font-family="Helvetica,sans-Serif" font-size="10.00">/comm/PBV_dab_frame_map.c</text>
</a>
</g>
</g>
<!-- Node10&#45;&gt;Node11 -->
<g id="edge13_Node000010_Node000011" class="edge">
<title>Node10&#45;&gt;Node11</title>
<g id="a_edge13_Node000010_Node000011"><a xlink:title=" ">
<path fill="none" stroke="#63b8ff" d="M959.71,-75.26C986.96,-63.65 1020.91,-49.19 1046.18,-38.42"/>
<polygon fill="#63b8ff" stroke="#63b8ff" points="958.46,-72.41 950.63,-79.55 961.2,-78.85 958.46,-72.41"/>
</a>
</g>
</g>
<!-- Node12 -->
<g id="Node000012" class="node">
<title>Node12</title>
<g id="a_Node000012"><a xlink:href="a00350_source.html" target="_top" xlink:title=" ">
<polygon fill="white" stroke="#666666" points="1300.75,-38 1176,-38 1176,-6 1300.75,-6 1300.75,-38"/>
<text text-anchor="start" x="1184" y="-24.5" font-family="Helvetica,sans-Serif" font-size="10.00">dspic33ck&#45;dab.X/sources</text>
<text text-anchor="middle" x="1238.38" y="-12.5" font-family="Helvetica,sans-Serif" font-size="10.00">/device/dev_temp.c</text>
</a>
</g>
</g>
<!-- Node10&#45;&gt;Node12 -->
<g id="edge14_Node000010_Node000012" class="edge">
<title>Node10&#45;&gt;Node12</title>
<g id="a_edge14_Node000010_Node000012"><a xlink:title=" ">
<path fill="none" stroke="#63b8ff" d="M986.67,-82.08C1037.62,-72.66 1106.95,-58.97 1167.38,-44 1174.11,-42.33 1181.17,-40.43 1188.1,-38.47"/>
<polygon fill="#63b8ff" stroke="#63b8ff" points="986.29,-78.77 977.09,-84.02 987.56,-85.66 986.29,-78.77"/>
</a>
</g>
</g>
<!-- Node13 -->
<g id="Node000013" class="node">
<title>Node13</title>
<g id="a_Node000013"><a xlink:href="a00371_source.html" target="_top" xlink:title=" ">
<polygon fill="white" stroke="#666666" points="1443.75,-44 1319,-44 1319,0 1443.75,0 1443.75,-44"/>
<text text-anchor="start" x="1327" y="-30.5" font-family="Helvetica,sans-Serif" font-size="10.00">dspic33ck&#45;dab.X/sources</text>
<text text-anchor="start" x="1327" y="-18.5" font-family="Helvetica,sans-Serif" font-size="10.00">/driver/mcc_extension</text>
<text text-anchor="middle" x="1381.38" y="-6.5" font-family="Helvetica,sans-Serif" font-size="10.00">/mcc_custom_config.c</text>
</a>
</g>
</g>
<!-- Node10&#45;&gt;Node13 -->
<g id="edge15_Node000010_Node000013" class="edge">
<title>Node10&#45;&gt;Node13</title>
<g id="a_edge15_Node000010_Node000013"><a xlink:title=" ">
<path fill="none" stroke="#63b8ff" d="M986.88,-88.99C1066.82,-81.64 1198.07,-67.25 1309.38,-44 1312.43,-43.36 1315.55,-42.66 1318.69,-41.91"/>
<polygon fill="#63b8ff" stroke="#63b8ff" points="986.59,-85.59 976.95,-89.97 987.22,-92.56 986.59,-85.59"/>
</a>
</g>
</g>
<!-- Node14 -->
<g id="Node000014" class="node">
<title>Node14</title>
<g id="a_Node000014"><a xlink:href="a00395.html" target="_top" xlink:title="Contains API functions for fault protection.">
<polygon fill="white" stroke="#666666" points="1602.62,-38 1462.12,-38 1462.12,-6 1602.62,-6 1602.62,-38"/>
<text text-anchor="start" x="1470.12" y="-24.5" font-family="Helvetica,sans-Serif" font-size="10.00">dspic33ck&#45;dab.X/sources</text>
<text text-anchor="middle" x="1532.38" y="-12.5" font-family="Helvetica,sans-Serif" font-size="10.00">/fault/fault_comm_interface.c</text>
</a>
</g>
</g>
<!-- Node10&#45;&gt;Node14 -->
<g id="edge17_Node000010_Node000014" class="edge">
<title>Node10&#45;&gt;Node14</title>
<g id="a_edge17_Node000010_Node000014"><a xlink:title=" ">
<path fill="none" stroke="#63b8ff" d="M986.78,-91.84C1090.97,-86.49 1287.46,-73.25 1452.38,-44 1460.86,-42.5 1469.76,-40.54 1478.42,-38.43"/>
<polygon fill="#63b8ff" stroke="#63b8ff" points="986.88,-88.38 977.07,-92.37 987.23,-95.37 986.88,-88.38"/>
</a>
</g>
</g>
<!-- Node15 -->
<g id="Node000015" class="node">
<title>Node15</title>
<g id="a_Node000015"><a xlink:href="a00479.html" target="_top" xlink:title="Contains power control interface with communication/gui.">
<polygon fill="white" stroke="#666666" points="1745.75,-44 1621,-44 1621,0 1745.75,0 1745.75,-44"/>
<text text-anchor="start" x="1629" y="-30.5" font-family="Helvetica,sans-Serif" font-size="10.00">dspic33ck&#45;dab.X/sources</text>
<text text-anchor="start" x="1629" y="-18.5" font-family="Helvetica,sans-Serif" font-size="10.00">/pwrctrl/pwrctrl_comm</text>
<text text-anchor="middle" x="1683.38" y="-6.5" font-family="Helvetica,sans-Serif" font-size="10.00">_interface.c</text>
</a>
</g>
</g>
<!-- Node10&#45;&gt;Node15 -->
<g id="edge19_Node000010_Node000015" class="edge">
<title>Node10&#45;&gt;Node15</title>
<g id="a_edge19_Node000010_Node000015"><a xlink:title=" ">
<path fill="none" stroke="#63b8ff" d="M986.84,-94.7C1114.75,-93.06 1386.26,-84.58 1611.38,-44 1614.45,-43.45 1617.58,-42.81 1620.73,-42.11"/>
<polygon fill="#63b8ff" stroke="#63b8ff" points="986.98,-91.21 977.02,-94.83 987.06,-98.21 986.98,-91.21"/>
</a>
</g>
</g>
<!-- Node16 -->
<g id="Node000016" class="node">
<title>Node16</title>
<g id="a_Node000016"><a xlink:href="a00473.html" target="_top" xlink:title="Contains generic functions that handles power control ramp Up/Down and the averaging generic function...">
<polygon fill="white" stroke="#666666" points="1893.38,-38 1763.38,-38 1763.38,-6 1893.38,-6 1893.38,-38"/>
<text text-anchor="start" x="1771.38" y="-24.5" font-family="Helvetica,sans-Serif" font-size="10.00">dspic33ck&#45;dab.X/sources</text>
<text text-anchor="middle" x="1828.38" y="-12.5" font-family="Helvetica,sans-Serif" font-size="10.00">/pwrctrl/pwrctrl_common.c</text>
</a>
</g>
</g>
<!-- Node10&#45;&gt;Node16 -->
<g id="edge20_Node000010_Node000016" class="edge">
<title>Node10&#45;&gt;Node16</title>
<g id="a_edge20_Node000010_Node000016"><a xlink:title=" ">
<path fill="none" stroke="#63b8ff" d="M986.81,-95.85C1133.7,-96.38 1473.71,-91.76 1754.38,-44 1762.67,-42.59 1771.36,-40.6 1779.76,-38.4"/>
<polygon fill="#63b8ff" stroke="#63b8ff" points="987.16,-92.34 977.15,-95.8 987.13,-99.34 987.16,-92.34"/>
</a>
</g>
</g>
<!-- Node17 -->
<g id="Node000017" class="node">
<title>Node17</title>
<g id="a_Node000017"><a xlink:href="a00494.html" target="_top" xlink:title="Contains DAB control phase calculation between primary and secondary, and the PWM distribution.">
<polygon fill="white" stroke="#666666" points="2035.75,-38 1911,-38 1911,-6 2035.75,-6 2035.75,-38"/>
<text text-anchor="start" x="1919" y="-24.5" font-family="Helvetica,sans-Serif" font-size="10.00">dspic33ck&#45;dab.X/sources</text>
<text text-anchor="middle" x="1973.38" y="-12.5" font-family="Helvetica,sans-Serif" font-size="10.00">/pwrctrl/pwrctrl_pwm.c</text>
</a>
</g>
</g>
<!-- Node10&#45;&gt;Node17 -->
<g id="edge23_Node000010_Node000017" class="edge">
<title>Node10&#45;&gt;Node17</title>
<g id="a_edge23_Node000010_Node000017"><a xlink:title=" ">
<path fill="none" stroke="#63b8ff" d="M986.92,-93.46C1184.96,-88.94 1726.39,-74.13 1902.38,-44 1910.36,-42.63 1918.71,-40.67 1926.77,-38.48"/>
<polygon fill="#63b8ff" stroke="#63b8ff" points="986.98,-89.98 977.06,-93.7 987.13,-96.97 986.98,-89.98"/>
</a>
</g>
</g>
</g>
</svg>
