<?xml version="1.0" encoding="UTF-8" standalone="no"?>
<!DOCTYPE svg PUBLIC "-//W3C//DTD SVG 1.1//EN"
 "http://www.w3.org/Graphics/SVG/1.1/DTD/svg11.dtd">
<!-- Generated by graphviz version 8.1.0 (20230707.0739)
 -->
<!-- Title: App_PBV_Task Pages: 1 -->
<svg width="355pt" height="66pt"
 viewBox="0.00 0.00 355.25 66.00" xmlns="http://www.w3.org/2000/svg" xmlns:xlink="http://www.w3.org/1999/xlink">
<g id="graph0" class="graph" transform="scale(1 1) rotate(0) translate(4 62)">
<title>App_PBV_Task</title>
<!-- Node1 -->
<g id="Node000001" class="node">
<title>Node1</title>
<g id="a_Node000001"><a xlink:title=" ">
<polygon fill="#999999" stroke="#666666" points="347.25,-39 262.25,-39 262.25,-19 347.25,-19 347.25,-39"/>
<text text-anchor="middle" x="304.75" y="-25.5" font-family="Helvetica,sans-Serif" font-size="10.00">App_PBV_Task</text>
</a>
</g>
</g>
<!-- Node2 -->
<g id="Node000002" class="node">
<title>Node2</title>
<g id="a_Node000002"><a xlink:href="a00493.html#ga148dc2088cd891c3b3fbf77229504f3f" target="_top" xlink:title="Task to be executed every 100 us.">
<polygon fill="white" stroke="#666666" points="226.25,-58 109.75,-58 109.75,-38 226.25,-38 226.25,-58"/>
<text text-anchor="middle" x="168" y="-44.5" font-family="Helvetica,sans-Serif" font-size="10.00">App_PBV_Task_100us</text>
</a>
</g>
</g>
<!-- Node1&#45;&gt;Node2 -->
<g id="edge1_Node000001_Node000002" class="edge">
<title>Node1&#45;&gt;Node2</title>
<g id="a_edge1_Node000001_Node000002"><a xlink:title=" ">
<path fill="none" stroke="#63b8ff" d="M251.15,-36.42C243.13,-37.55 234.83,-38.72 226.71,-39.86"/>
<polygon fill="#63b8ff" stroke="#63b8ff" points="251.44,-39.77 260.85,-34.91 250.46,-32.84 251.44,-39.77"/>
</a>
</g>
</g>
<!-- Node4 -->
<g id="Node000004" class="node">
<title>Node4</title>
<g id="a_Node000004"><a xlink:href="a00493.html#ga29c25924bdc76c615288681bf1b17893" target="_top" xlink:title="task to be executed every 10ms">
<polygon fill="white" stroke="#666666" points="225.12,-20 110.88,-20 110.88,0 225.12,0 225.12,-20"/>
<text text-anchor="middle" x="168" y="-6.5" font-family="Helvetica,sans-Serif" font-size="10.00">App_PBV_Task_10ms</text>
</a>
</g>
</g>
<!-- Node1&#45;&gt;Node4 -->
<g id="edge3_Node000001_Node000004" class="edge">
<title>Node1&#45;&gt;Node4</title>
<g id="a_edge3_Node000001_Node000004"><a xlink:title=" ">
<path fill="none" stroke="#63b8ff" d="M250.98,-21.56C242.53,-20.37 233.76,-19.13 225.23,-17.93"/>
<polygon fill="#63b8ff" stroke="#63b8ff" points="250.46,-25.16 260.85,-23.09 251.44,-18.23 250.46,-25.16"/>
</a>
</g>
</g>
<!-- Node3 -->
<g id="Node000003" class="node">
<title>Node3</title>
<g id="a_Node000003"><a xlink:href="a00517.html#ga97fda594ad396d08b6a833ebb3b04538" target="_top" xlink:title="Tasks_100us gets called every 100µs, put your things in it that need to be called regularly.">
<polygon fill="white" stroke="#666666" points="73.75,-58 0,-58 0,-38 73.75,-38 73.75,-58"/>
<text text-anchor="middle" x="36.88" y="-44.5" font-family="Helvetica,sans-Serif" font-size="10.00">Tasks_100us</text>
</a>
</g>
</g>
<!-- Node2&#45;&gt;Node3 -->
<g id="edge2_Node000002_Node000003" class="edge">
<title>Node2&#45;&gt;Node3</title>
<g id="a_edge2_Node000002_Node000003"><a xlink:title=" ">
<path fill="none" stroke="#63b8ff" d="M98.77,-48C90.21,-48 81.74,-48 73.95,-48"/>
<polygon fill="#63b8ff" stroke="#63b8ff" points="98.61,-51.5 108.61,-48 98.61,-44.5 98.61,-51.5"/>
</a>
</g>
</g>
<!-- Node5 -->
<g id="Node000005" class="node">
<title>Node5</title>
<g id="a_Node000005"><a xlink:href="a00517.html#ga05751024e03719cbe14d88fb0af408dd" target="_top" xlink:title="Tasks_10ms gets called every 10ms, put your things in it that need to be called regularly.">
<polygon fill="white" stroke="#666666" points="72.62,-20 1.12,-20 1.12,0 72.62,0 72.62,-20"/>
<text text-anchor="middle" x="36.88" y="-6.5" font-family="Helvetica,sans-Serif" font-size="10.00">Tasks_10ms</text>
</a>
</g>
</g>
<!-- Node4&#45;&gt;Node5 -->
<g id="edge4_Node000004_Node000005" class="edge">
<title>Node4&#45;&gt;Node5</title>
<g id="a_edge4_Node000004_Node000005"><a xlink:title=" ">
<path fill="none" stroke="#63b8ff" d="M99.78,-10C90.44,-10 81.17,-10 72.76,-10"/>
<polygon fill="#63b8ff" stroke="#63b8ff" points="99.74,-13.5 109.74,-10 99.74,-6.5 99.74,-13.5"/>
</a>
</g>
</g>
</g>
</svg>
