<?xml version="1.0" encoding="UTF-8" standalone="no"?>
<!DOCTYPE svg PUBLIC "-//W3C//DTD SVG 1.1//EN"
 "http://www.w3.org/Graphics/SVG/1.1/DTD/svg11.dtd">
<!-- Generated by graphviz version 8.1.0 (20230707.0739)
 -->
<!-- Title: dspic33ck&#45;dab.X/sources/pwrctrl/dcdt/pwrctrl_dcdt.c Pages: 1 -->
<!--zoomable 232 -->

<svg id="main" version="1.1" xmlns="http://www.w3.org/2000/svg" xmlns:xlink="http://www.w3.org/1999/xlink" xml:space="preserve" onload="init(evt)">
<style type="text/css"><![CDATA[
.node, .edge {opacity: 0.7;}
.node.selected, .edge.selected {opacity: 1;}
.edge:hover path { stroke: red; }
.edge:hover polygon { stroke: red; fill: red; }
]]></style>

<defs>
  <circle id="rim" cx="0" cy="0" r="7"/>
  <circle id="rim2" cx="0" cy="0" r="3.5"/>
  <g id="zoomPlus">
    <use xlink:href="#rim" fill="#404040"><set attributeName="fill" to="#808080" begin="zoomplus.mouseover" end="zoomplus.mouseout"/></use>
    <path d="M-4,0h8M0,-4v8" fill="none" stroke="white" stroke-width="1.5" pointer-events="none"/>
  </g>
  <g id="zoomMin">
    <use xlink:href="#rim" fill="#404040"><set attributeName="fill" to="#808080" begin="zoomminus.mouseover" end="zoomminus.mouseout"/></use>
    <path d="M-4,0h8" fill="none" stroke="white" stroke-width="1.5" pointer-events="none"/>
  </g>
  <g id="arrowUp" transform="translate(30 24)">
    <use xlink:href="#rim"/>
    <path pointer-events="none" fill="none" stroke="white" stroke-width="1.5" d="M0,-3.0v7 M-2.5,-0.5L0,-3.0L2.5,-0.5"/>
  </g>
  <g id="arrowRight" transform="rotate(90) translate(36 -43)">
    <use xlink:href="#rim"/>
    <path pointer-events="none" fill="none" stroke="white" stroke-width="1.5" d="M0,-3.0v7 M-2.5,-0.5L0,-3.0L2.5,-0.5"/>
  </g>
  <g id="arrowDown" transform="rotate(180) translate(-30 -48)">
    <use xlink:href="#rim"/>
    <path pointer-events="none" fill="none" stroke="white" stroke-width="1.5" d="M0,-3.0v7 M-2.5,-0.5L0,-3.0L2.5,-0.5"/>
  </g>
  <g id="arrowLeft" transform="rotate(270) translate(-36 17)">
    <use xlink:href="#rim"/>
    <path pointer-events="none" fill="none" stroke="white" stroke-width="1.5" d="M0,-3.0v7 M-2.5,-0.5L0,-3.0L2.5,-0.5"/>
  </g>
  <g id="resetDef">
    <use xlink:href="#rim2" fill="#404040"><set attributeName="fill" to="#808080" begin="reset.mouseover" end="reset.mouseout"/></use>
  </g>
</defs>
<script type="application/ecmascript">
var viewWidth = 1237;
var viewHeight = 232;
var sectionId = 'dynsection-0';
</script>
<script type="application/ecmascript" xlink:href="svg.min.js"/>
<svg id="graph" class="graph">
<g id="viewport">
<title>dspic33ck&#45;dab.X/sources/pwrctrl/dcdt/pwrctrl_dcdt.c</title>
<!-- Node1 -->
<g id="Node000001" class="node">
<title>Node1</title>
<g id="a_Node000001"><a xlink:title="Contains individual DCDT control loop initialization functions.">
<polygon fill="#999999" stroke="#666666" points="204.75,-224 80,-224 80,-180 204.75,-180 204.75,-224"/>
<text text-anchor="start" x="88" y="-210.5" font-family="Helvetica,sans-Serif" font-size="10.00">dspic33ck&#45;dab.X/sources</text>
<text text-anchor="start" x="88" y="-198.5" font-family="Helvetica,sans-Serif" font-size="10.00">/pwrctrl/dcdt/pwrctrl</text>
<text text-anchor="middle" x="142.38" y="-186.5" font-family="Helvetica,sans-Serif" font-size="10.00">_dcdt.c</text>
</a>
</g>
</g>
<!-- Node2 -->
<g id="Node000002" class="node">
<title>Node2</title>
<g id="a_Node000002"><a xlink:title=" ">
<polygon fill="#e0e0e0" stroke="#999999" points="34.75,-20 0,-20 0,0 34.75,0 34.75,-20"/>
<text text-anchor="middle" x="17.38" y="-6.5" font-family="Helvetica,sans-Serif" font-size="10.00">xc.h</text>
</a>
</g>
</g>
<!-- Node1&#45;&gt;Node2 -->
<g id="edge1_Node000001_Node000002" class="edge">
<title>Node1&#45;&gt;Node2</title>
<g id="a_edge1_Node000001_Node000002"><a xlink:title=" ">
<path fill="none" stroke="#63b8ff" d="M104.7,-179.62C74.51,-160.12 34.34,-128.25 16.38,-88 8.22,-69.73 9.94,-46.5 12.78,-30.36"/>
<polygon fill="#63b8ff" stroke="#63b8ff" points="16.32,-31.53 14.92,-21.03 9.46,-30.11 16.32,-31.53"/>
</a>
</g>
</g>
<!-- Node3 -->
<g id="Node000003" class="node">
<title>Node3</title>
<g id="a_Node000003"><a xlink:href="a00449.html" target="_top" xlink:title="Contains public functions and data types relevant for DCDT file interface.">
<polygon fill="white" stroke="#666666" points="412.75,-144 336,-144 336,-124 412.75,-124 412.75,-144"/>
<text text-anchor="middle" x="374.38" y="-130.5" font-family="Helvetica,sans-Serif" font-size="10.00">pwrctrl_dcdt.h</text>
</a>
</g>
</g>
<!-- Node1&#45;&gt;Node3 -->
<g id="edge2_Node000001_Node000003" class="edge">
<title>Node1&#45;&gt;Node3</title>
<g id="a_edge2_Node000001_Node000003"><a xlink:title=" ">
<path fill="none" stroke="#63b8ff" d="M205.16,-183.14C244.93,-171.83 295.35,-157.48 330.77,-147.41"/>
<polygon fill="#63b8ff" stroke="#63b8ff" points="331.59,-150.53 340.25,-144.42 329.67,-143.79 331.59,-150.53"/>
</a>
</g>
</g>
<!-- Node3&#45;&gt;Node2 -->
<g id="edge4_Node000003_Node000002" class="edge">
<title>Node3&#45;&gt;Node2</title>
<g id="a_edge4_Node000003_Node000002"><a xlink:title=" ">
<path fill="none" stroke="#63b8ff" d="M335.71,-133.13C256.55,-132.58 79.8,-126.91 36.38,-88 20.63,-73.89 16.94,-49 16.5,-31.34"/>
<polygon fill="#63b8ff" stroke="#63b8ff" points="20.01,-31.53 16.62,-21.49 13.01,-31.46 20.01,-31.53"/>
</a>
</g>
</g>
<!-- Node4 -->
<g id="Node000004" class="node">
<title>Node4</title>
<g id="a_Node000004"><a xlink:title=" ">
<polygon fill="#e0e0e0" stroke="#999999" points="91,-82 45.75,-82 45.75,-62 91,-62 91,-82"/>
<text text-anchor="middle" x="68.38" y="-68.5" font-family="Helvetica,sans-Serif" font-size="10.00">stdio.h</text>
</a>
</g>
</g>
<!-- Node3&#45;&gt;Node4 -->
<g id="edge3_Node000003_Node000004" class="edge">
<title>Node3&#45;&gt;Node4</title>
<g id="a_edge3_Node000003_Node000004"><a xlink:title=" ">
<path fill="none" stroke="#63b8ff" d="M335.94,-130.05C282.22,-125.17 182.11,-113.33 100.38,-88 99.06,-87.59 97.72,-87.14 96.39,-86.65"/>
<polygon fill="#63b8ff" stroke="#63b8ff" points="97.88,-83.07 87.31,-82.46 95.19,-89.53 97.88,-83.07"/>
</a>
</g>
</g>
<!-- Node5 -->
<g id="Node000005" class="node">
<title>Node5</title>
<g id="a_Node000005"><a xlink:title=" ">
<polygon fill="#e0e0e0" stroke="#999999" points="208.5,-20 160.25,-20 160.25,0 208.5,0 208.5,-20"/>
<text text-anchor="middle" x="184.38" y="-6.5" font-family="Helvetica,sans-Serif" font-size="10.00">stdint.h</text>
</a>
</g>
</g>
<!-- Node3&#45;&gt;Node5 -->
<g id="edge5_Node000003_Node000005" class="edge">
<title>Node3&#45;&gt;Node5</title>
<g id="a_edge5_Node000003_Node000005"><a xlink:title=" ">
<path fill="none" stroke="#63b8ff" d="M335.6,-126.77C306.86,-120.65 267.89,-109.06 239.38,-88 218.69,-72.72 202.74,-47.34 193.47,-29.93"/>
<polygon fill="#63b8ff" stroke="#63b8ff" points="196.22,-28.61 188.57,-21.27 189.97,-31.77 196.22,-28.61"/>
</a>
</g>
</g>
<!-- Node6 -->
<g id="Node000006" class="node">
<title>Node6</title>
<g id="a_Node000006"><a xlink:href="a00458.html" target="_top" xlink:title="Contains the DCDT generated functions and data types.">
<polygon fill="white" stroke="#666666" points="191.75,-82 109,-82 109,-62 191.75,-62 191.75,-82"/>
<text text-anchor="middle" x="150.38" y="-68.5" font-family="Helvetica,sans-Serif" font-size="10.00">smps_control.h</text>
</a>
</g>
</g>
<!-- Node3&#45;&gt;Node6 -->
<g id="edge6_Node000003_Node000006" class="edge">
<title>Node3&#45;&gt;Node6</title>
<g id="a_edge6_Node000003_Node000006"><a xlink:title=" ">
<path fill="none" stroke="#63b8ff" d="M338.75,-123.58C304.54,-114.52 251.4,-100.4 205.38,-88 202.18,-87.14 198.88,-86.25 195.56,-85.35"/>
<polygon fill="#63b8ff" stroke="#63b8ff" points="196.55,-81.72 185.99,-82.47 194.72,-88.47 196.55,-81.72"/>
</a>
</g>
</g>
<!-- Node7 -->
<g id="Node000007" class="node">
<title>Node7</title>
<g id="a_Node000007"><a xlink:href="a00077_source.html" target="_top" xlink:title=" ">
<polygon fill="white" stroke="#666666" points="362.88,-88 247.88,-88 247.88,-56 362.88,-56 362.88,-88"/>
<text text-anchor="start" x="255.88" y="-74.5" font-family="Helvetica,sans-Serif" font-size="10.00">test1/dcdt_generated</text>
<text text-anchor="middle" x="305.38" y="-62.5" font-family="Helvetica,sans-Serif" font-size="10.00">_code/pid_psvo_dcdt.h</text>
</a>
</g>
</g>
<!-- Node3&#45;&gt;Node7 -->
<g id="edge9_Node000003_Node000007" class="edge">
<title>Node3&#45;&gt;Node7</title>
<g id="a_edge9_Node000003_Node000007"><a xlink:title=" ">
<path fill="none" stroke="#63b8ff" d="M363.59,-123.62C354.96,-116.11 342.47,-105.26 331.28,-95.52"/>
<polygon fill="#63b8ff" stroke="#63b8ff" points="333.9,-92.29 324.05,-88.37 329.3,-97.58 333.9,-92.29"/>
</a>
</g>
</g>
<!-- Node8 -->
<g id="Node000008" class="node">
<title>Node8</title>
<g id="a_Node000008"><a xlink:href="a00053.html" target="_top" xlink:title="Generated by the Microchip Digital Compensator Design Tool (DCDT), contains system summaries and digi...">
<polygon fill="white" stroke="#666666" points="505.75,-88 381,-88 381,-56 505.75,-56 505.75,-88"/>
<text text-anchor="start" x="389" y="-74.5" font-family="Helvetica,sans-Serif" font-size="10.00">dab_psio/dcdt_generated</text>
<text text-anchor="middle" x="443.38" y="-62.5" font-family="Helvetica,sans-Serif" font-size="10.00">_code/dab_psio_dcdt.h</text>
</a>
</g>
</g>
<!-- Node3&#45;&gt;Node8 -->
<g id="edge10_Node000003_Node000008" class="edge">
<title>Node3&#45;&gt;Node8</title>
<g id="a_edge10_Node000003_Node000008"><a xlink:title=" ">
<path fill="none" stroke="#63b8ff" d="M385.16,-123.62C393.79,-116.11 406.28,-105.26 417.47,-95.52"/>
<polygon fill="#63b8ff" stroke="#63b8ff" points="419.45,-97.58 424.7,-88.37 414.85,-92.29 419.45,-97.58"/>
</a>
</g>
</g>
<!-- Node9 -->
<g id="Node000009" class="node">
<title>Node9</title>
<g id="a_Node000009"><a xlink:href="a00062.html" target="_top" xlink:title="Generated by the Microchip Digital Compensator Design Tool (DCDT), contains system summaries and digi...">
<polygon fill="white" stroke="#666666" points="651.25,-88 523.5,-88 523.5,-56 651.25,-56 651.25,-88"/>
<text text-anchor="start" x="531.5" y="-74.5" font-family="Helvetica,sans-Serif" font-size="10.00">dab_pspo/dcdt_generated</text>
<text text-anchor="middle" x="587.38" y="-62.5" font-family="Helvetica,sans-Serif" font-size="10.00">_code/dab_pspo_dcdt.h</text>
</a>
</g>
</g>
<!-- Node3&#45;&gt;Node9 -->
<g id="edge11_Node000003_Node000009" class="edge">
<title>Node3&#45;&gt;Node9</title>
<g id="a_edge11_Node000003_Node000009"><a xlink:title=" ">
<path fill="none" stroke="#63b8ff" d="M407.66,-123.62C438.14,-115.04 484.13,-102.08 521.95,-91.43"/>
<polygon fill="#63b8ff" stroke="#63b8ff" points="522.71,-94.57 531.38,-88.49 520.81,-87.83 522.71,-94.57"/>
</a>
</g>
</g>
<!-- Node10 -->
<g id="Node000010" class="node">
<title>Node10</title>
<g id="a_Node000010"><a xlink:href="a00065_source.html" target="_top" xlink:title=" ">
<polygon fill="white" stroke="#666666" points="795.5,-88 669.25,-88 669.25,-56 795.5,-56 795.5,-88"/>
<text text-anchor="start" x="677.25" y="-74.5" font-family="Helvetica,sans-Serif" font-size="10.00">dab_psvo/dcdt_generated</text>
<text text-anchor="middle" x="732.38" y="-62.5" font-family="Helvetica,sans-Serif" font-size="10.00">_code/dab_psvo_dcdt.h</text>
</a>
</g>
</g>
<!-- Node3&#45;&gt;Node10 -->
<g id="edge12_Node000003_Node000010" class="edge">
<title>Node3&#45;&gt;Node10</title>
<g id="a_edge12_Node000003_Node000010"><a xlink:title=" ">
<path fill="none" stroke="#63b8ff" d="M412.87,-127.56C465.85,-119.94 564.45,-105.27 658.01,-88.38"/>
<polygon fill="#63b8ff" stroke="#63b8ff" points="658.59,-91.65 667.81,-86.42 657.34,-84.77 658.59,-91.65"/>
</a>
</g>
</g>
<!-- Node11 -->
<g id="Node000011" class="node">
<title>Node11</title>
<g id="a_Node000011"><a xlink:href="a00068_source.html" target="_top" xlink:title=" ">
<polygon fill="white" stroke="#666666" points="938.75,-88 814,-88 814,-56 938.75,-56 938.75,-88"/>
<text text-anchor="start" x="822" y="-74.5" font-family="Helvetica,sans-Serif" font-size="10.00">dab_spio/dcdt_generated</text>
<text text-anchor="middle" x="876.38" y="-62.5" font-family="Helvetica,sans-Serif" font-size="10.00">_code/dab_spio_dcdt.h</text>
</a>
</g>
</g>
<!-- Node3&#45;&gt;Node11 -->
<g id="edge13_Node000003_Node000011" class="edge">
<title>Node3&#45;&gt;Node11</title>
<g id="a_edge13_Node000003_Node000011"><a xlink:title=" ">
<path fill="none" stroke="#63b8ff" d="M413.09,-130.27C486.86,-124.78 652.85,-111.06 802.84,-88.13"/>
<polygon fill="#63b8ff" stroke="#63b8ff" points="803.27,-91.45 812.61,-86.46 802.2,-84.54 803.27,-91.45"/>
</a>
</g>
</g>
<!-- Node12 -->
<g id="Node000012" class="node">
<title>Node12</title>
<g id="a_Node000012"><a xlink:href="a00071_source.html" target="_top" xlink:title=" ">
<polygon fill="white" stroke="#666666" points="1084.25,-88 956.5,-88 956.5,-56 1084.25,-56 1084.25,-88"/>
<text text-anchor="start" x="964.5" y="-74.5" font-family="Helvetica,sans-Serif" font-size="10.00">dab_sppo/dcdt_generated</text>
<text text-anchor="middle" x="1020.38" y="-62.5" font-family="Helvetica,sans-Serif" font-size="10.00">_code/dab_sppo_dcdt.h</text>
</a>
</g>
</g>
<!-- Node3&#45;&gt;Node12 -->
<g id="edge14_Node000003_Node000012" class="edge">
<title>Node3&#45;&gt;Node12</title>
<g id="a_edge14_Node000003_Node000012"><a xlink:title=" ">
<path fill="none" stroke="#63b8ff" d="M413.12,-131.62C504.23,-128.02 739.33,-116.66 945.63,-88.13"/>
<polygon fill="#63b8ff" stroke="#63b8ff" points="945.94,-91.48 955.36,-86.62 944.97,-84.54 945.94,-91.48"/>
</a>
</g>
</g>
<!-- Node13 -->
<g id="Node000013" class="node">
<title>Node13</title>
<g id="a_Node000013"><a xlink:href="a00074.html" target="_top" xlink:title="Generated by the Microchip Digital Compensator Design Tool (DCDT), contains system summaries and digi...">
<polygon fill="white" stroke="#666666" points="1228.5,-88 1102.25,-88 1102.25,-56 1228.5,-56 1228.5,-88"/>
<text text-anchor="start" x="1110.25" y="-74.5" font-family="Helvetica,sans-Serif" font-size="10.00">dab_spvo/dcdt_generated</text>
<text text-anchor="middle" x="1165.38" y="-62.5" font-family="Helvetica,sans-Serif" font-size="10.00">_code/dab_spvo_dcdt.h</text>
</a>
</g>
</g>
<!-- Node3&#45;&gt;Node13 -->
<g id="edge15_Node000003_Node000013" class="edge">
<title>Node3&#45;&gt;Node13</title>
<g id="a_edge15_Node000003_Node000013"><a xlink:title=" ">
<path fill="none" stroke="#63b8ff" d="M413.15,-132.52C519.86,-130.78 827.01,-122.99 1091.29,-88.16"/>
<polygon fill="#63b8ff" stroke="#63b8ff" points="1091.41,-91.54 1100.86,-86.75 1090.48,-84.6 1091.41,-91.54"/>
</a>
</g>
</g>
<!-- Node6&#45;&gt;Node2 -->
<g id="edge7_Node000006_Node000002" class="edge">
<title>Node6&#45;&gt;Node2</title>
<g id="a_edge7_Node000006_Node000002"><a xlink:title=" ">
<path fill="none" stroke="#63b8ff" d="M129.59,-61.62C106.84,-51.36 70.23,-34.85 45.05,-23.49"/>
<polygon fill="#63b8ff" stroke="#63b8ff" points="46.59,-19.89 36.04,-18.97 43.71,-26.27 46.59,-19.89"/>
</a>
</g>
</g>
<!-- Node6&#45;&gt;Node5 -->
<g id="edge8_Node000006_Node000005" class="edge">
<title>Node6&#45;&gt;Node5</title>
<g id="a_edge8_Node000006_Node000005"><a xlink:title=" ">
<path fill="none" stroke="#63b8ff" d="M155.69,-61.62C160.56,-53.03 167.9,-40.07 173.94,-29.41"/>
<polygon fill="#63b8ff" stroke="#63b8ff" points="177.33,-31.54 179.21,-21.11 171.24,-28.09 177.33,-31.54"/>
</a>
</g>
</g>
</g>
</svg>

<g id="navigator" transform="translate(0 0)" fill="#404254">
  <rect fill="#f2f5e9" fill-opacity="0.5" stroke="#606060" stroke-width=".5" x="0" y="0" width="60" height="60"/>
  <use id="zoomplus" xlink:href="#zoomPlus" x="17" y="9" onmousedown="handleZoom(evt,'in')"/>
  <use id="zoomminus" xlink:href="#zoomMin" x="42" y="9" onmousedown="handleZoom(evt,'out')"/>
  <use id="reset" xlink:href="#resetDef" x="30" y="36" onmousedown="handleReset()"/>
   <use id="arrowup" xlink:href="#arrowUp" x="0" y="0" onmousedown="handlePan(0,-1)"/>
  <use id="arrowright" xlink:href="#arrowRight" x="0" y="0" onmousedown="handlePan(1,0)"/>
  <use id="arrowdown" xlink:href="#arrowDown" x="0" y="0" onmousedown="handlePan(0,1)"/>
  <use id="arrowleft" xlink:href="#arrowLeft" x="0" y="0" onmousedown="handlePan(-1,0)"/>
</g>
<svg viewBox="0 0 15 15" width="100%" height="30px" preserveAspectRatio="xMaxYMin meet">
 <g id="arrow_out" transform="scale(0.3 0.3)">
  <a xlink:href="a00447_org.svg" target="_base">
   <rect id="button" ry="5" rx="5" y="6" x="6" height="38" width="38"
        fill="#f2f5e9" fill-opacity="0.5" stroke="#606060" stroke-width="1.0"/>
   <path id="arrow"
     d="M 11.500037,31.436501 C 11.940474,20.09759 22.043105,11.32322 32.158766,21.979434 L 37.068811,17.246167 C 37.068811,17.246167 37.088388,32 37.088388,32 L 22.160133,31.978069 C 22.160133,31.978069 26.997745,27.140456 26.997745,27.140456 C 18.528582,18.264221 13.291696,25.230495 11.500037,31.436501 z"
     style="fill:#404040;"/>
  </a>
 </g>
</svg>

<style type='text/css'>
<![CDATA[
[data-mouse-over-selected='false'] { opacity: 0.7; }
[data-mouse-over-selected='true']  { opacity: 1.0; }
]]>
</style>
<script type="application/ecmascript"><![CDATA[
document.addEventListener('DOMContentLoaded', (event) => {
  highlightEdges();
  highlightAdjacentNodes();
});
]]></script>
</svg>
