<?xml version="1.0" encoding="UTF-8" standalone="no"?>
<!DOCTYPE svg PUBLIC "-//W3C//DTD SVG 1.1//EN"
 "http://www.w3.org/Graphics/SVG/1.1/DTD/svg11.dtd">
<!-- Generated by graphviz version 8.1.0 (20230707.0739)
 -->
<!-- Title: Dev_Fault_Initialize Pages: 1 -->
<svg width="647pt" height="192pt"
 viewBox="0.00 0.00 647.25 192.00" xmlns="http://www.w3.org/2000/svg" xmlns:xlink="http://www.w3.org/1999/xlink">
<g id="graph0" class="graph" transform="scale(1 1) rotate(0) translate(4 188)">
<title>Dev_Fault_Initialize</title>
<!-- Node1 -->
<g id="Node000001" class="node">
<title>Node1</title>
<g id="a_Node000001"><a xlink:title="Initialize the fault objects.">
<polygon fill="#999999" stroke="#666666" points="99.25,-102 0,-102 0,-82 99.25,-82 99.25,-102"/>
<text text-anchor="middle" x="49.62" y="-88.5" font-family="Helvetica,sans-Serif" font-size="10.00">Dev_Fault_Initialize</text>
</a>
</g>
</g>
<!-- Node2 -->
<g id="Node000002" class="node">
<title>Node2</title>
<g id="a_Node000002"><a xlink:href="a00513.html#gada13a4830178c3947f7df4fdfafc7d07" target="_top" xlink:title="This function can be used to override default callback and to define custom callback for CMP1 Event e...">
<polygon fill="white" stroke="#666666" points="281,-184 135.25,-184 135.25,-164 281,-164 281,-184"/>
<text text-anchor="middle" x="208.12" y="-170.5" font-family="Helvetica,sans-Serif" font-size="10.00">CMP1_EventCallbackRegister</text>
</a>
</g>
</g>
<!-- Node1&#45;&gt;Node2 -->
<g id="edge1_Node000001_Node000002" class="edge">
<title>Node1&#45;&gt;Node2</title>
<g id="a_edge1_Node000001_Node000002"><a xlink:title=" ">
<path fill="none" stroke="#63b8ff" d="M61.48,-102.27C76.77,-116.19 106.05,-140.92 135.25,-155 139.06,-156.84 143.08,-158.52 147.19,-160.05"/>
<polygon fill="#63b8ff" stroke="#63b8ff" points="145.92,-163.65 156.51,-163.56 148.17,-157.03 145.92,-163.65"/>
</a>
</g>
</g>
<!-- Node3 -->
<g id="Node000003" class="node">
<title>Node3</title>
<g id="a_Node000003"><a xlink:href="a00513.html#ga0d7c1a0ccd35767078e0a677eff7e5d9" target="_top" xlink:title="This function can be used to override default callback and to define custom callback for CMP3 Event e...">
<polygon fill="white" stroke="#666666" points="281,-146 135.25,-146 135.25,-126 281,-126 281,-146"/>
<text text-anchor="middle" x="208.12" y="-132.5" font-family="Helvetica,sans-Serif" font-size="10.00">CMP3_EventCallbackRegister</text>
</a>
</g>
</g>
<!-- Node1&#45;&gt;Node3 -->
<g id="edge2_Node000001_Node000003" class="edge">
<title>Node1&#45;&gt;Node3</title>
<g id="a_edge2_Node000001_Node000003"><a xlink:title=" ">
<path fill="none" stroke="#63b8ff" d="M85.15,-102.44C100.46,-107.01 118.73,-112.38 135.25,-117 142.1,-118.92 149.33,-120.89 156.46,-122.8"/>
<polygon fill="#63b8ff" stroke="#63b8ff" points="155.21,-126.36 165.77,-125.55 157.01,-119.59 155.21,-126.36"/>
</a>
</g>
</g>
<!-- Node4 -->
<g id="Node000004" class="node">
<title>Node4</title>
<g id="a_Node000004"><a xlink:href="a00498.html#gab9d1f964731d7386aa8a61fb6b04453f" target="_top" xlink:title="Enable Short circuit hardware protection.">
<polygon fill="white" stroke="#666666" points="280.62,-108 135.62,-108 135.62,-76 280.62,-76 280.62,-108"/>
<text text-anchor="start" x="143.62" y="-94.5" font-family="Helvetica,sans-Serif" font-size="10.00">Dev_Fault_EnableShortCircuit</text>
<text text-anchor="middle" x="208.12" y="-82.5" font-family="Helvetica,sans-Serif" font-size="10.00">Protection</text>
</a>
</g>
</g>
<!-- Node1&#45;&gt;Node4 -->
<g id="edge3_Node000001_Node000004" class="edge">
<title>Node1&#45;&gt;Node4</title>
<g id="a_edge3_Node000001_Node000004"><a xlink:title=" ">
<path fill="none" stroke="#63b8ff" d="M99.71,-92C107.65,-92 116.06,-92 124.54,-92"/>
<polygon fill="#63b8ff" stroke="#63b8ff" points="124.29,-95.5 134.29,-92 124.29,-88.5 124.29,-95.5"/>
</a>
</g>
</g>
<!-- Node5 -->
<g id="Node000005" class="node">
<title>Node5</title>
<g id="a_Node000005"><a xlink:href="a00498.html#ga49e1c9ea3a6a543de5e0db0328595ab4" target="_top" xlink:title="Handles the fault trip by turning off the power control switching.">
<polygon fill="white" stroke="#666666" points="256.62,-58 159.62,-58 159.62,-38 256.62,-38 256.62,-58"/>
<text text-anchor="middle" x="208.12" y="-44.5" font-family="Helvetica,sans-Serif" font-size="10.00">Dev_Fault_Handler</text>
</a>
</g>
</g>
<!-- Node1&#45;&gt;Node5 -->
<g id="edge4_Node000001_Node000005" class="edge">
<title>Node1&#45;&gt;Node5</title>
<g id="a_edge4_Node000001_Node000005"><a xlink:title=" ">
<path fill="none" stroke="#63b8ff" d="M85.15,-81.56C100.46,-76.99 118.73,-71.62 135.25,-67 142.1,-65.08 149.33,-63.11 156.46,-61.2"/>
<polygon fill="#63b8ff" stroke="#63b8ff" points="157.01,-64.41 165.77,-58.45 155.21,-57.64 157.01,-64.41"/>
</a>
</g>
</g>
<!-- Node10 -->
<g id="Node000010" class="node">
<title>Node10</title>
<g id="a_Node000010"><a xlink:href="a00499.html#gae9aa4b1a3733fa6ee5fb7778bdf74103" target="_top" xlink:title="This function initializes the fault object data structure with the values that required to detect a f...">
<polygon fill="white" stroke="#666666" points="240.12,-20 176.12,-20 176.12,0 240.12,0 240.12,-20"/>
<text text-anchor="middle" x="208.12" y="-6.5" font-family="Helvetica,sans-Serif" font-size="10.00">FAULT_Init</text>
</a>
</g>
</g>
<!-- Node1&#45;&gt;Node10 -->
<g id="edge9_Node000001_Node000010" class="edge">
<title>Node1&#45;&gt;Node10</title>
<g id="a_edge9_Node000001_Node000010"><a xlink:title=" ">
<path fill="none" stroke="#63b8ff" d="M61.48,-81.73C76.77,-67.81 106.05,-43.08 135.25,-29 144.56,-24.51 155.07,-20.98 165.13,-18.23"/>
<polygon fill="#63b8ff" stroke="#63b8ff" points="165.93,-21.39 174.78,-15.56 164.23,-14.6 165.93,-21.39"/>
</a>
</g>
</g>
<!-- Node6 -->
<g id="Node000006" class="node">
<title>Node6</title>
<g id="a_Node000006"><a xlink:href="a00491.html#ga209e7835d32aaf5a402b470b61284bdf" target="_top" xlink:title="Disable the PWM output.">
<polygon fill="white" stroke="#666666" points="453,-58 317,-58 317,-38 453,-38 453,-58"/>
<text text-anchor="middle" x="385" y="-44.5" font-family="Helvetica,sans-Serif" font-size="10.00">Dev_PwrCtrl_PWM_Disable</text>
</a>
</g>
</g>
<!-- Node5&#45;&gt;Node6 -->
<g id="edge5_Node000005_Node000006" class="edge">
<title>Node5&#45;&gt;Node6</title>
<g id="a_edge5_Node000005_Node000006"><a xlink:title=" ">
<path fill="none" stroke="#63b8ff" d="M256.91,-48C272.01,-48 289.11,-48 305.76,-48"/>
<polygon fill="#63b8ff" stroke="#63b8ff" points="305.61,-51.5 315.61,-48 305.61,-44.5 305.61,-51.5"/>
</a>
</g>
</g>
<!-- Node7 -->
<g id="Node000007" class="node">
<title>Node7</title>
<g id="a_Node000007"><a xlink:href="a00516.html#ga531b59d8823e3ebda2da60f48582bcf3" target="_top" xlink:title="This inline function enables PWM override on PWMH output for specific PWM generator selected by the a...">
<polygon fill="white" stroke="#666666" points="629.5,-96 498.75,-96 498.75,-76 629.5,-76 629.5,-96"/>
<text text-anchor="middle" x="564.12" y="-82.5" font-family="Helvetica,sans-Serif" font-size="10.00">PWM_OverrideHighEnable</text>
</a>
</g>
</g>
<!-- Node6&#45;&gt;Node7 -->
<g id="edge6_Node000006_Node000007" class="edge">
<title>Node6&#45;&gt;Node7</title>
<g id="a_edge6_Node000006_Node000007"><a xlink:title=" ">
<path fill="none" stroke="#63b8ff" d="M434.87,-58.48C456.16,-63.05 481.32,-68.45 503.69,-73.25"/>
<polygon fill="#63b8ff" stroke="#63b8ff" points="502.9,-76.87 513.42,-75.55 504.37,-70.03 502.9,-76.87"/>
</a>
</g>
</g>
<!-- Node8 -->
<g id="Node000008" class="node">
<title>Node8</title>
<g id="a_Node000008"><a xlink:href="a00516.html#ga2548ca8feda75ba6ab784280679da6ae" target="_top" xlink:title="This inline function enables PWM override on PWML output for specific PWM generator selected by the a...">
<polygon fill="white" stroke="#666666" points="628.38,-58 499.88,-58 499.88,-38 628.38,-38 628.38,-58"/>
<text text-anchor="middle" x="564.12" y="-44.5" font-family="Helvetica,sans-Serif" font-size="10.00">PWM_OverrideLowEnable</text>
</a>
</g>
</g>
<!-- Node6&#45;&gt;Node8 -->
<g id="edge7_Node000006_Node000008" class="edge">
<title>Node6&#45;&gt;Node8</title>
<g id="a_edge7_Node000006_Node000008"><a xlink:title=" ">
<path fill="none" stroke="#63b8ff" d="M453.47,-48C465.07,-48 477.19,-48 488.95,-48"/>
<polygon fill="#63b8ff" stroke="#63b8ff" points="488.64,-51.5 498.64,-48 488.64,-44.5 488.64,-51.5"/>
</a>
</g>
</g>
<!-- Node9 -->
<g id="Node000009" class="node">
<title>Node9</title>
<g id="a_Node000009"><a xlink:href="a00516.html#ga83e780358618114f0d424ca7467cf751" target="_top" xlink:title="This inline function requests to update the data registers for specific PWM generator selected by the...">
<polygon fill="white" stroke="#666666" points="639.25,-20 489,-20 489,0 639.25,0 639.25,-20"/>
<text text-anchor="middle" x="564.12" y="-6.5" font-family="Helvetica,sans-Serif" font-size="10.00">PWM_SoftwareUpdateRequest</text>
</a>
</g>
</g>
<!-- Node6&#45;&gt;Node9 -->
<g id="edge8_Node000006_Node000009" class="edge">
<title>Node6&#45;&gt;Node9</title>
<g id="a_edge8_Node000006_Node000009"><a xlink:title=" ">
<path fill="none" stroke="#63b8ff" d="M434.87,-37.52C456.16,-32.95 481.32,-27.55 503.69,-22.75"/>
<polygon fill="#63b8ff" stroke="#63b8ff" points="504.37,-25.97 513.42,-20.45 502.9,-19.13 504.37,-25.97"/>
</a>
</g>
</g>
</g>
</svg>
