<?xml version="1.0" encoding="UTF-8" standalone="no"?>
<!DOCTYPE svg PUBLIC "-//W3C//DTD SVG 1.1//EN"
 "http://www.w3.org/Graphics/SVG/1.1/DTD/svg11.dtd">
<!-- Generated by graphviz version 8.1.0 (20230707.0739)
 -->
<!-- Title: dspic33ck&#45;dab.X/sources/pwrctrl/dcdt/pwrctrl_dcdt.h Pages: 1 -->
<!--zoomable 176 -->

<svg id="main" version="1.1" xmlns="http://www.w3.org/2000/svg" xmlns:xlink="http://www.w3.org/1999/xlink" xml:space="preserve" onload="init(evt)">
<style type="text/css"><![CDATA[
.node, .edge {opacity: 0.7;}
.node.selected, .edge.selected {opacity: 1;}
.edge:hover path { stroke: red; }
.edge:hover polygon { stroke: red; fill: red; }
]]></style>

<defs>
  <circle id="rim" cx="0" cy="0" r="7"/>
  <circle id="rim2" cx="0" cy="0" r="3.5"/>
  <g id="zoomPlus">
    <use xlink:href="#rim" fill="#404040"><set attributeName="fill" to="#808080" begin="zoomplus.mouseover" end="zoomplus.mouseout"/></use>
    <path d="M-4,0h8M0,-4v8" fill="none" stroke="white" stroke-width="1.5" pointer-events="none"/>
  </g>
  <g id="zoomMin">
    <use xlink:href="#rim" fill="#404040"><set attributeName="fill" to="#808080" begin="zoomminus.mouseover" end="zoomminus.mouseout"/></use>
    <path d="M-4,0h8" fill="none" stroke="white" stroke-width="1.5" pointer-events="none"/>
  </g>
  <g id="arrowUp" transform="translate(30 24)">
    <use xlink:href="#rim"/>
    <path pointer-events="none" fill="none" stroke="white" stroke-width="1.5" d="M0,-3.0v7 M-2.5,-0.5L0,-3.0L2.5,-0.5"/>
  </g>
  <g id="arrowRight" transform="rotate(90) translate(36 -43)">
    <use xlink:href="#rim"/>
    <path pointer-events="none" fill="none" stroke="white" stroke-width="1.5" d="M0,-3.0v7 M-2.5,-0.5L0,-3.0L2.5,-0.5"/>
  </g>
  <g id="arrowDown" transform="rotate(180) translate(-30 -48)">
    <use xlink:href="#rim"/>
    <path pointer-events="none" fill="none" stroke="white" stroke-width="1.5" d="M0,-3.0v7 M-2.5,-0.5L0,-3.0L2.5,-0.5"/>
  </g>
  <g id="arrowLeft" transform="rotate(270) translate(-36 17)">
    <use xlink:href="#rim"/>
    <path pointer-events="none" fill="none" stroke="white" stroke-width="1.5" d="M0,-3.0v7 M-2.5,-0.5L0,-3.0L2.5,-0.5"/>
  </g>
  <g id="resetDef">
    <use xlink:href="#rim2" fill="#404040"><set attributeName="fill" to="#808080" begin="reset.mouseover" end="reset.mouseout"/></use>
  </g>
</defs>
<script type="application/ecmascript">
var viewWidth = 662;
var viewHeight = 176;
var sectionId = 'dynsection-0';
</script>
<script type="application/ecmascript" xlink:href="svg.min.js"/>
<svg id="graph" class="graph">
<g id="viewport">
<title>dspic33ck&#45;dab.X/sources/pwrctrl/dcdt/pwrctrl_dcdt.h</title>
<!-- Node1 -->
<g id="Node000001" class="node">
<title>Node1</title>
<g id="a_Node000001"><a xlink:title="Contains public functions and data types relevant for DCDT file interface.">
<polygon fill="#999999" stroke="#666666" points="274,-168 149.25,-168 149.25,-124 274,-124 274,-168"/>
<text text-anchor="start" x="157.25" y="-154.5" font-family="Helvetica,sans-Serif" font-size="10.00">dspic33ck&#45;dab.X/sources</text>
<text text-anchor="start" x="157.25" y="-142.5" font-family="Helvetica,sans-Serif" font-size="10.00">/pwrctrl/dcdt/pwrctrl</text>
<text text-anchor="middle" x="211.62" y="-130.5" font-family="Helvetica,sans-Serif" font-size="10.00">_dcdt.h</text>
</a>
</g>
</g>
<!-- Node2 -->
<g id="Node000002" class="node">
<title>Node2</title>
<g id="a_Node000002"><a xlink:title=" ">
<polygon fill="#e0e0e0" stroke="#999999" points="45.25,-82 0,-82 0,-62 45.25,-62 45.25,-82"/>
<text text-anchor="middle" x="22.62" y="-68.5" font-family="Helvetica,sans-Serif" font-size="10.00">stdio.h</text>
</a>
</g>
</g>
<!-- Node1&#45;&gt;Node2 -->
<g id="edge1_Node000001_Node000002" class="edge">
<title>Node1&#45;&gt;Node2</title>
<g id="a_edge1_Node000001_Node000002"><a xlink:title=" ">
<path fill="none" stroke="#63b8ff" d="M153.38,-123.57C125.03,-113.03 90.48,-100.04 59.62,-88 58.35,-87.5 57.06,-87 55.75,-86.48"/>
<polygon fill="#63b8ff" stroke="#63b8ff" points="57.26,-82.92 46.68,-82.46 54.67,-89.42 57.26,-82.92"/>
</a>
</g>
</g>
<!-- Node3 -->
<g id="Node000003" class="node">
<title>Node3</title>
<g id="a_Node000003"><a xlink:title=" ">
<polygon fill="#e0e0e0" stroke="#999999" points="128,-20 93.25,-20 93.25,0 128,0 128,-20"/>
<text text-anchor="middle" x="110.62" y="-6.5" font-family="Helvetica,sans-Serif" font-size="10.00">xc.h</text>
</a>
</g>
</g>
<!-- Node1&#45;&gt;Node3 -->
<g id="edge2_Node000001_Node000003" class="edge">
<title>Node1&#45;&gt;Node3</title>
<g id="a_edge2_Node000001_Node000003"><a xlink:title=" ">
<path fill="none" stroke="#63b8ff" d="M149.01,-129.9C127.34,-121.35 105.32,-108.16 92.62,-88 81.36,-70.11 90.16,-45.87 98.97,-29.4"/>
<polygon fill="#63b8ff" stroke="#63b8ff" points="102.27,-31.68 104.27,-21.28 96.22,-28.16 102.27,-31.68"/>
</a>
</g>
</g>
<!-- Node4 -->
<g id="Node000004" class="node">
<title>Node4</title>
<g id="a_Node000004"><a xlink:title=" ">
<polygon fill="#e0e0e0" stroke="#999999" points="198.75,-20 150.5,-20 150.5,0 198.75,0 198.75,-20"/>
<text text-anchor="middle" x="174.62" y="-6.5" font-family="Helvetica,sans-Serif" font-size="10.00">stdint.h</text>
</a>
</g>
</g>
<!-- Node1&#45;&gt;Node4 -->
<g id="edge3_Node000001_Node000004" class="edge">
<title>Node1&#45;&gt;Node4</title>
<g id="a_edge3_Node000001_Node000004"><a xlink:title=" ">
<path fill="none" stroke="#63b8ff" d="M208.1,-123.52C204.86,-105.33 199.52,-78.67 192.62,-56 190.03,-47.46 186.49,-38.28 183.25,-30.45"/>
<polygon fill="#63b8ff" stroke="#63b8ff" points="186.13,-29.3 178.97,-21.49 179.7,-32.06 186.13,-29.3"/>
</a>
</g>
</g>
<!-- Node5 -->
<g id="Node000005" class="node">
<title>Node5</title>
<g id="a_Node000005"><a xlink:href="a00437.html" target="_top" xlink:title="Contains the DCDT generated functions and data types.">
<polygon fill="white" stroke="#666666" points="184,-82 101.25,-82 101.25,-62 184,-62 184,-82"/>
<text text-anchor="middle" x="142.62" y="-68.5" font-family="Helvetica,sans-Serif" font-size="10.00">smps_control.h</text>
</a>
</g>
</g>
<!-- Node1&#45;&gt;Node5 -->
<g id="edge4_Node000001_Node000005" class="edge">
<title>Node1&#45;&gt;Node5</title>
<g id="a_edge4_Node000001_Node000005"><a xlink:title=" ">
<path fill="none" stroke="#63b8ff" d="M191.3,-123.79C180.99,-113.03 168.63,-100.14 158.95,-90.03"/>
<polygon fill="#63b8ff" stroke="#63b8ff" points="161.99,-88.11 152.55,-83.31 156.94,-92.95 161.99,-88.11"/>
</a>
</g>
</g>
<!-- Node6 -->
<g id="Node000006" class="node">
<title>Node6</title>
<g id="a_Node000006"><a xlink:href="a00047.html" target="_top" xlink:title="Generated by the Microchip Digital Compensator Design Tool (DCDT), contains system summaries and digi...">
<polygon fill="white" stroke="#666666" points="364,-88 239.25,-88 239.25,-56 364,-56 364,-88"/>
<text text-anchor="start" x="247.25" y="-74.5" font-family="Helvetica,sans-Serif" font-size="10.00">dab_psio/dcdt_generated</text>
<text text-anchor="middle" x="301.62" y="-62.5" font-family="Helvetica,sans-Serif" font-size="10.00">_code/dab_psio_dcdt.h</text>
</a>
</g>
</g>
<!-- Node1&#45;&gt;Node6 -->
<g id="edge7_Node000001_Node000006" class="edge">
<title>Node1&#45;&gt;Node6</title>
<g id="a_edge7_Node000001_Node000006"><a xlink:title=" ">
<path fill="none" stroke="#63b8ff" d="M238.14,-123.79C249.46,-114.73 262.67,-104.16 274.1,-95.02"/>
<polygon fill="#63b8ff" stroke="#63b8ff" points="275.81,-97.33 281.44,-88.35 271.44,-91.87 275.81,-97.33"/>
</a>
</g>
</g>
<!-- Node7 -->
<g id="Node000007" class="node">
<title>Node7</title>
<g id="a_Node000007"><a xlink:href="a00056.html" target="_top" xlink:title="Generated by the Microchip Digital Compensator Design Tool (DCDT), contains system summaries and digi...">
<polygon fill="white" stroke="#666666" points="509.5,-88 381.75,-88 381.75,-56 509.5,-56 509.5,-88"/>
<text text-anchor="start" x="389.75" y="-74.5" font-family="Helvetica,sans-Serif" font-size="10.00">dab_pspo/dcdt_generated</text>
<text text-anchor="middle" x="445.62" y="-62.5" font-family="Helvetica,sans-Serif" font-size="10.00">_code/dab_pspo_dcdt.h</text>
</a>
</g>
</g>
<!-- Node1&#45;&gt;Node7 -->
<g id="edge8_Node000001_Node000007" class="edge">
<title>Node1&#45;&gt;Node7</title>
<g id="a_edge8_Node000001_Node000007"><a xlink:title=" ">
<path fill="none" stroke="#63b8ff" d="M274.33,-125.71C308.68,-115.14 351.06,-102.1 385.07,-91.63"/>
<polygon fill="#63b8ff" stroke="#63b8ff" points="385.81,-94.76 394.34,-88.47 383.75,-88.07 385.81,-94.76"/>
</a>
</g>
</g>
<!-- Node8 -->
<g id="Node000008" class="node">
<title>Node8</title>
<g id="a_Node000008"><a xlink:href="a00059.html" target="_top" xlink:title="Generated by the Microchip Digital Compensator Design Tool (DCDT), contains system summaries and digi...">
<polygon fill="white" stroke="#666666" points="653.75,-88 527.5,-88 527.5,-56 653.75,-56 653.75,-88"/>
<text text-anchor="start" x="535.5" y="-74.5" font-family="Helvetica,sans-Serif" font-size="10.00">dab_spvo/dcdt_generated</text>
<text text-anchor="middle" x="590.62" y="-62.5" font-family="Helvetica,sans-Serif" font-size="10.00">_code/dab_spvo_dcdt.h</text>
</a>
</g>
</g>
<!-- Node1&#45;&gt;Node8 -->
<g id="edge9_Node000001_Node000008" class="edge">
<title>Node1&#45;&gt;Node8</title>
<g id="a_edge9_Node000001_Node000008"><a xlink:title=" ">
<path fill="none" stroke="#63b8ff" d="M274.32,-133.77C334.05,-122.98 426.79,-105.99 516.41,-88.42"/>
<polygon fill="#63b8ff" stroke="#63b8ff" points="516.9,-91.69 526.04,-86.33 515.55,-84.82 516.9,-91.69"/>
</a>
</g>
</g>
<!-- Node5&#45;&gt;Node3 -->
<g id="edge5_Node000005_Node000003" class="edge">
<title>Node5&#45;&gt;Node3</title>
<g id="a_edge5_Node000005_Node000003"><a xlink:title=" ">
<path fill="none" stroke="#63b8ff" d="M137.62,-61.62C133.09,-53.12 126.27,-40.33 120.62,-29.74"/>
<polygon fill="#63b8ff" stroke="#63b8ff" points="123.28,-28.29 115.49,-21.11 117.1,-31.58 123.28,-28.29"/>
</a>
</g>
</g>
<!-- Node5&#45;&gt;Node4 -->
<g id="edge6_Node000005_Node000004" class="edge">
<title>Node5&#45;&gt;Node4</title>
<g id="a_edge6_Node000005_Node000004"><a xlink:title=" ">
<path fill="none" stroke="#63b8ff" d="M147.62,-61.62C152.16,-53.12 158.98,-40.33 164.63,-29.74"/>
<polygon fill="#63b8ff" stroke="#63b8ff" points="168.15,-31.58 169.76,-21.11 161.97,-28.29 168.15,-31.58"/>
</a>
</g>
</g>
</g>
</svg>

<g id="navigator" transform="translate(0 0)" fill="#404254">
  <rect fill="#f2f5e9" fill-opacity="0.5" stroke="#606060" stroke-width=".5" x="0" y="0" width="60" height="60"/>
  <use id="zoomplus" xlink:href="#zoomPlus" x="17" y="9" onmousedown="handleZoom(evt,'in')"/>
  <use id="zoomminus" xlink:href="#zoomMin" x="42" y="9" onmousedown="handleZoom(evt,'out')"/>
  <use id="reset" xlink:href="#resetDef" x="30" y="36" onmousedown="handleReset()"/>
   <use id="arrowup" xlink:href="#arrowUp" x="0" y="0" onmousedown="handlePan(0,-1)"/>
  <use id="arrowright" xlink:href="#arrowRight" x="0" y="0" onmousedown="handlePan(1,0)"/>
  <use id="arrowdown" xlink:href="#arrowDown" x="0" y="0" onmousedown="handlePan(0,1)"/>
  <use id="arrowleft" xlink:href="#arrowLeft" x="0" y="0" onmousedown="handlePan(-1,0)"/>
</g>
<svg viewBox="0 0 15 15" width="100%" height="30px" preserveAspectRatio="xMaxYMin meet">
 <g id="arrow_out" transform="scale(0.3 0.3)">
  <a xlink:href="a00429_org.svg" target="_base">
   <rect id="button" ry="5" rx="5" y="6" x="6" height="38" width="38"
        fill="#f2f5e9" fill-opacity="0.5" stroke="#606060" stroke-width="1.0"/>
   <path id="arrow"
     d="M 11.500037,31.436501 C 11.940474,20.09759 22.043105,11.32322 32.158766,21.979434 L 37.068811,17.246167 C 37.068811,17.246167 37.088388,32 37.088388,32 L 22.160133,31.978069 C 22.160133,31.978069 26.997745,27.140456 26.997745,27.140456 C 18.528582,18.264221 13.291696,25.230495 11.500037,31.436501 z"
     style="fill:#404040;"/>
  </a>
 </g>
</svg>

<style type='text/css'>
<![CDATA[
[data-mouse-over-selected='false'] { opacity: 0.7; }
[data-mouse-over-selected='true']  { opacity: 1.0; }
]]>
</style>
<script type="application/ecmascript"><![CDATA[
document.addEventListener('DOMContentLoaded', (event) => {
  highlightEdges();
  highlightAdjacentNodes();
});
]]></script>
</svg>
