<?xml version="1.0" encoding="UTF-8" standalone="no"?>
<!DOCTYPE svg PUBLIC "-//W3C//DTD SVG 1.1//EN"
 "http://www.w3.org/Graphics/SVG/1.1/DTD/svg11.dtd">
<!-- Generated by graphviz version 8.1.0 (20230707.0739)
 -->
<!-- Title: Fault Monitor Pages: 1 -->
<svg width="326pt" height="66pt"
 viewBox="0.00 0.00 326.00 66.00" xmlns="http://www.w3.org/2000/svg" xmlns:xlink="http://www.w3.org/1999/xlink">
<g id="graph0" class="graph" transform="scale(1 1) rotate(0) translate(4 62)">
<title>Fault Monitor</title>
<!-- Node3 -->
<g id="Node000003" class="node">
<title>Node3</title>
<g id="a_Node000003"><a xlink:href="a00498.html" target="_top" xlink:title="Contains functions that initialize, execute and handles the power supply fault.">
<polygon fill="white" stroke="#666666" points="315.75,-58 218.75,-58 218.75,-38 315.75,-38 315.75,-58"/>
<text text-anchor="middle" x="267.25" y="-44.5" font-family="Helvetica,sans-Serif" font-size="10.00">Fault Configuration</text>
</a>
</g>
</g>
<!-- Node4 -->
<g id="Node000004" class="node">
<title>Node4</title>
<g id="a_Node000004"><a xlink:href="a00499.html" target="_top" xlink:title="Contains generic fault functions.">
<polygon fill="white" stroke="#666666" points="318,-20 216.5,-20 216.5,0 318,0 318,-20"/>
<text text-anchor="middle" x="267.25" y="-6.5" font-family="Helvetica,sans-Serif" font-size="10.00">Generic Fault Driver</text>
</a>
</g>
</g>
<!-- Node2 -->
<g id="Node000002" class="node">
<title>Node2</title>
<g id="a_Node000002"><a xlink:href="a00487.html" target="_top" xlink:title="Contains all the application tasks that will be executed.">
<polygon fill="white" stroke="#666666" points="71.5,-39 0,-39 0,-19 71.5,-19 71.5,-39"/>
<text text-anchor="middle" x="35.75" y="-25.5" font-family="Helvetica,sans-Serif" font-size="10.00">Device Layer</text>
</a>
</g>
</g>
<!-- Node1 -->
<g id="Node000001" class="node">
<title>Node1</title>
<g id="a_Node000001"><a xlink:title="The Fault Handler is an independent firmware task which is used to define certain so&#45;called Fault Obj...">
<polygon fill="#999999" stroke="#666666" points="180.5,-39 107.5,-39 107.5,-19 180.5,-19 180.5,-39"/>
<text text-anchor="middle" x="144" y="-25.5" font-family="Helvetica,sans-Serif" font-size="10.00">Fault Monitor</text>
</a>
</g>
</g>
<!-- Node2&#45;&gt;Node1 -->
<g id="edge1" class="edge">
<title>Node2&#45;&gt;Node1</title>
<path fill="none" stroke="black" d="M82.78,-29C90.96,-29 99.38,-29 107.23,-29"/>
<polygon fill="black" stroke="black" points="82.83,-25.5 72.83,-29 82.83,-32.5 82.83,-25.5"/>
</g>
<!-- Node1&#45;&gt;Node3 -->
<g id="edge2" class="edge">
<title>Node1&#45;&gt;Node3</title>
<path fill="none" stroke="black" d="M191.35,-36.26C200.29,-37.66 209.67,-39.13 218.64,-40.54"/>
<polygon fill="black" stroke="black" points="192.14,-32.69 181.72,-34.6 191.06,-39.6 192.14,-32.69"/>
</g>
<!-- Node1&#45;&gt;Node4 -->
<g id="edge3" class="edge">
<title>Node1&#45;&gt;Node4</title>
<path fill="none" stroke="black" d="M191.54,-21.71C199.68,-20.43 208.18,-19.1 216.41,-17.81"/>
<polygon fill="black" stroke="black" points="191.06,-18.4 181.72,-23.4 192.14,-25.31 191.06,-18.4"/>
</g>
</g>
</svg>
