<?xml version="1.0" encoding="UTF-8" standalone="no"?>
<!DOCTYPE svg PUBLIC "-//W3C//DTD SVG 1.1//EN"
 "http://www.w3.org/Graphics/SVG/1.1/DTD/svg11.dtd">
<!-- Generated by graphviz version 8.1.0 (20230707.0739)
 -->
<!-- Title: dspic33ck&#45;dab.X/sources/pwrctrl/pwrctrl_isr.c Pages: 1 -->
<svg width="1190pt" height="388pt"
 viewBox="0.00 0.00 1189.62 388.00" xmlns="http://www.w3.org/2000/svg" xmlns:xlink="http://www.w3.org/1999/xlink">
<g id="graph0" class="graph" transform="scale(1 1) rotate(0) translate(4 384)">
<title>dspic33ck&#45;dab.X/sources/pwrctrl/pwrctrl_isr.c</title>
<!-- Node1 -->
<g id="Node000001" class="node">
<title>Node1</title>
<g id="a_Node000001"><a xlink:title="Contains Control loop interrupt Callback that acquires the ADC raw data and process it in the control...">
<polygon fill="#999999" stroke="#666666" points="422,-380 297.25,-380 297.25,-348 422,-348 422,-380"/>
<text text-anchor="start" x="305.25" y="-366.5" font-family="Helvetica,sans-Serif" font-size="10.00">dspic33ck&#45;dab.X/sources</text>
<text text-anchor="middle" x="359.62" y="-354.5" font-family="Helvetica,sans-Serif" font-size="10.00">/pwrctrl/pwrctrl_isr.c</text>
</a>
</g>
</g>
<!-- Node2 -->
<g id="Node000002" class="node">
<title>Node2</title>
<g id="a_Node000002"><a xlink:title=" ">
<polygon fill="#e0e0e0" stroke="#999999" points="440,-88 405.25,-88 405.25,-68 440,-68 440,-88"/>
<text text-anchor="middle" x="422.62" y="-74.5" font-family="Helvetica,sans-Serif" font-size="10.00">xc.h</text>
</a>
</g>
</g>
<!-- Node1&#45;&gt;Node2 -->
<g id="edge1_Node000001_Node000002" class="edge">
<title>Node1&#45;&gt;Node2</title>
<g id="a_edge1_Node000001_Node000002"><a xlink:title=" ">
<path fill="none" stroke="#63b8ff" d="M345.68,-347.52C311.01,-307.13 227.45,-196.64 280.62,-124 284.09,-119.27 353.97,-98.64 394.39,-87.02"/>
<polygon fill="#63b8ff" stroke="#63b8ff" points="395.27,-90.12 403.93,-84.01 393.35,-83.39 395.27,-90.12"/>
</a>
</g>
</g>
<!-- Node3 -->
<g id="Node000003" class="node">
<title>Node3</title>
<g id="a_Node000003"><a xlink:title=" ">
<polygon fill="#e0e0e0" stroke="#999999" points="335.62,-144 289.62,-144 289.62,-124 335.62,-124 335.62,-144"/>
<text text-anchor="middle" x="312.62" y="-130.5" font-family="Helvetica,sans-Serif" font-size="10.00">math.h</text>
</a>
</g>
</g>
<!-- Node1&#45;&gt;Node3 -->
<g id="edge2_Node000001_Node000003" class="edge">
<title>Node1&#45;&gt;Node3</title>
<g id="a_edge2_Node000001_Node000003"><a xlink:title=" ">
<path fill="none" stroke="#63b8ff" d="M296.77,-352.08C273.88,-344.74 250.3,-332.47 236.62,-312 200.67,-258.16 262.56,-184.53 294.87,-151.83"/>
<polygon fill="#63b8ff" stroke="#63b8ff" points="296.7,-154.95 301.37,-145.43 291.79,-149.96 296.7,-154.95"/>
</a>
</g>
</g>
<!-- Node4 -->
<g id="Node000004" class="node">
<title>Node4</title>
<g id="a_Node000004"><a xlink:title=" ">
<polygon fill="#e0e0e0" stroke="#999999" points="744.5,-26 688.75,-26 688.75,-6 744.5,-6 744.5,-26"/>
<text text-anchor="middle" x="716.62" y="-12.5" font-family="Helvetica,sans-Serif" font-size="10.00">stdbool.h</text>
</a>
</g>
</g>
<!-- Node1&#45;&gt;Node4 -->
<g id="edge3_Node000001_Node000004" class="edge">
<title>Node1&#45;&gt;Node4</title>
<g id="a_edge3_Node000001_Node000004"><a xlink:title=" ">
<path fill="none" stroke="#63b8ff" d="M422.28,-361.4C560.27,-357.31 886.51,-344.44 991.62,-312 1047.35,-294.8 1105.62,-305.32 1105.62,-247 1105.62,-247 1105.62,-247 1105.62,-133 1105.62,-89.56 1071.86,-86.65 1032.62,-68 984.05,-44.91 828.27,-27.58 755.18,-20.5"/>
<polygon fill="#63b8ff" stroke="#63b8ff" points="755.89,-16.96 745.6,-19.49 755.22,-23.93 755.89,-16.96"/>
</a>
</g>
</g>
<!-- Node5 -->
<g id="Node000005" class="node">
<title>Node5</title>
<g id="a_Node000005"><a xlink:title=" ">
<polygon fill="#e0e0e0" stroke="#999999" points="293.38,-312 245.88,-312 245.88,-292 293.38,-292 293.38,-312"/>
<text text-anchor="middle" x="269.62" y="-298.5" font-family="Helvetica,sans-Serif" font-size="10.00">stdlib.h</text>
</a>
</g>
</g>
<!-- Node1&#45;&gt;Node5 -->
<g id="edge4_Node000001_Node000005" class="edge">
<title>Node1&#45;&gt;Node5</title>
<g id="a_edge4_Node000001_Node000005"><a xlink:title=" ">
<path fill="none" stroke="#63b8ff" d="M336.45,-347.55C323.04,-338.61 306.21,-327.39 292.8,-318.45"/>
<polygon fill="#63b8ff" stroke="#63b8ff" points="295,-315.04 284.74,-312.41 291.12,-320.87 295,-315.04"/>
</a>
</g>
</g>
<!-- Node6 -->
<g id="Node000006" class="node">
<title>Node6</title>
<g id="a_Node000006"><a xlink:href="a00227.html" target="_top" xlink:title="This is the generated driver header file for the SCCP1&#45;TIMER driver.">
<polygon fill="white" stroke="#666666" points="233.25,-144 158,-144 158,-124 233.25,-124 233.25,-144"/>
<text text-anchor="middle" x="195.62" y="-130.5" font-family="Helvetica,sans-Serif" font-size="10.00">timer/sccp1.h</text>
</a>
</g>
</g>
<!-- Node1&#45;&gt;Node6 -->
<g id="edge5_Node000001_Node000006" class="edge">
<title>Node1&#45;&gt;Node6</title>
<g id="a_edge5_Node000001_Node000006"><a xlink:title=" ">
<path fill="none" stroke="#63b8ff" d="M296.75,-353.45C270.71,-346.3 242.48,-333.81 224.62,-312 187.06,-266.11 189.34,-190.52 192.97,-154.84"/>
<polygon fill="#63b8ff" stroke="#63b8ff" points="196.51,-155.7 194.19,-145.36 189.55,-154.89 196.51,-155.7"/>
</a>
</g>
</g>
<!-- Node11 -->
<g id="Node000011" class="node">
<title>Node11</title>
<g id="a_Node000011"><a xlink:href="a00068.html" target="_top" xlink:title="This is the generated driver header file for the ADC1 driver.">
<polygon fill="white" stroke="#666666" points="139.62,-144 75.62,-144 75.62,-124 139.62,-124 139.62,-144"/>
<text text-anchor="middle" x="107.62" y="-130.5" font-family="Helvetica,sans-Serif" font-size="10.00">adc/adc1.h</text>
</a>
</g>
</g>
<!-- Node1&#45;&gt;Node11 -->
<g id="edge14_Node000001_Node000011" class="edge">
<title>Node1&#45;&gt;Node11</title>
<g id="a_edge14_Node000001_Node000011"><a xlink:title=" ">
<path fill="none" stroke="#63b8ff" d="M296.82,-352.75C267.23,-345.38 232.95,-332.91 207.62,-312 155.31,-268.81 125.18,-190.7 113.41,-154.45"/>
<polygon fill="#63b8ff" stroke="#63b8ff" points="116.55,-153.76 110.23,-145.25 109.87,-155.84 116.55,-153.76"/>
</a>
</g>
</g>
<!-- Node14 -->
<g id="Node000014" class="node">
<title>Node14</title>
<g id="a_Node000014"><a xlink:href="a00179_source.html" target="_top" xlink:title=" ">
<polygon fill="white" stroke="#666666" points="405.38,-200 327.88,-200 327.88,-180 405.38,-180 405.38,-200"/>
<text text-anchor="middle" x="366.62" y="-186.5" font-family="Helvetica,sans-Serif" font-size="10.00">system/pins.h</text>
</a>
</g>
</g>
<!-- Node1&#45;&gt;Node14 -->
<g id="edge24_Node000001_Node000014" class="edge">
<title>Node1&#45;&gt;Node14</title>
<g id="a_edge24_Node000001_Node000014"><a xlink:title=" ">
<path fill="none" stroke="#63b8ff" d="M360.25,-347.74C361.52,-316.55 364.4,-245.56 365.82,-210.85"/>
<polygon fill="#63b8ff" stroke="#63b8ff" points="369.34,-211.34 366.25,-201.21 362.35,-211.06 369.34,-211.34"/>
</a>
</g>
</g>
<!-- Node15 -->
<g id="Node000015" class="node">
<title>Node15</title>
<g id="a_Node000015"><a xlink:href="a00293_source.html" target="_top" xlink:title=" ">
<polygon fill="white" stroke="#666666" points="564.12,-200 479.12,-200 479.12,-180 564.12,-180 564.12,-200"/>
<text text-anchor="middle" x="521.62" y="-186.5" font-family="Helvetica,sans-Serif" font-size="10.00">config/macros.h</text>
</a>
</g>
</g>
<!-- Node1&#45;&gt;Node15 -->
<g id="edge26_Node000001_Node000015" class="edge">
<title>Node1&#45;&gt;Node15</title>
<g id="a_edge26_Node000001_Node000015"><a xlink:title=" ">
<path fill="none" stroke="#63b8ff" d="M366.95,-347.7C379.79,-322.09 408.49,-270 444.62,-236 457.91,-223.5 475.28,-212.97 490.15,-205.25"/>
<polygon fill="#63b8ff" stroke="#63b8ff" points="491.58,-207.96 498.97,-200.37 488.46,-201.69 491.58,-207.96"/>
</a>
</g>
</g>
<!-- Node17 -->
<g id="Node000017" class="node">
<title>Node17</title>
<g id="a_Node000017"><a xlink:href="a00287_source.html" target="_top" xlink:title=" ">
<polygon fill="white" stroke="#666666" points="861.5,-144 811.75,-144 811.75,-124 861.5,-124 861.5,-144"/>
<text text-anchor="middle" x="836.62" y="-130.5" font-family="Helvetica,sans-Serif" font-size="10.00">config.h</text>
</a>
</g>
</g>
<!-- Node1&#45;&gt;Node17 -->
<g id="edge40_Node000001_Node000017" class="edge">
<title>Node1&#45;&gt;Node17</title>
<g id="a_edge40_Node000001_Node000017"><a xlink:title=" ">
<path fill="none" stroke="#63b8ff" d="M422.3,-362.48C571.08,-360.6 935.88,-351.93 972.62,-312 1024.27,-255.88 916.12,-181.43 863.35,-150.01"/>
<polygon fill="#63b8ff" stroke="#63b8ff" points="865.3,-146.51 854.9,-144.48 861.77,-152.55 865.3,-146.51"/>
</a>
</g>
</g>
<!-- Node19 -->
<g id="Node000019" class="node">
<title>Node19</title>
<g id="a_Node000019"><a xlink:href="a00446_source.html" target="_top" xlink:title=" ">
<polygon fill="white" stroke="#666666" points="612,-312 559.25,-312 559.25,-292 612,-292 612,-312"/>
<text text-anchor="middle" x="585.62" y="-298.5" font-family="Helvetica,sans-Serif" font-size="10.00">pwrctrl.h</text>
</a>
</g>
</g>
<!-- Node1&#45;&gt;Node19 -->
<g id="edge41_Node000001_Node000019" class="edge">
<title>Node1&#45;&gt;Node19</title>
<g id="a_edge41_Node000001_Node000019"><a xlink:title=" ">
<path fill="none" stroke="#63b8ff" d="M417.83,-347.55C459.07,-336.6 513.17,-322.24 548.64,-312.82"/>
<polygon fill="#63b8ff" stroke="#63b8ff" points="549.25,-316.01 558.01,-310.06 547.45,-309.25 549.25,-316.01"/>
</a>
</g>
</g>
<!-- Node27 -->
<g id="Node000027" class="node">
<title>Node27</title>
<g id="a_Node000027"><a xlink:href="a00365.html" target="_top" xlink:title="Contains public fault functions.">
<polygon fill="white" stroke="#666666" points="945.25,-312 882,-312 882,-292 945.25,-292 945.25,-312"/>
<text text-anchor="middle" x="913.62" y="-298.5" font-family="Helvetica,sans-Serif" font-size="10.00">fault/fault.h</text>
</a>
</g>
</g>
<!-- Node1&#45;&gt;Node27 -->
<g id="edge52_Node000001_Node000027" class="edge">
<title>Node1&#45;&gt;Node27</title>
<g id="a_edge52_Node000001_Node000027"><a xlink:title=" ">
<path fill="none" stroke="#63b8ff" d="M422.37,-356.2C536.14,-343.88 773.67,-318.16 870.82,-307.64"/>
<polygon fill="#63b8ff" stroke="#63b8ff" points="871.12,-311.02 880.68,-306.46 870.37,-304.06 871.12,-311.02"/>
</a>
</g>
</g>
<!-- Node6&#45;&gt;Node2 -->
<g id="edge8_Node000006_Node000002" class="edge">
<title>Node6&#45;&gt;Node2</title>
<g id="a_edge8_Node000006_Node000002"><a xlink:title=" ">
<path fill="none" stroke="#63b8ff" d="M233.72,-124.93C273.33,-116.37 337.05,-102.17 391.62,-88 392.57,-87.75 393.54,-87.5 394.51,-87.24"/>
<polygon fill="#63b8ff" stroke="#63b8ff" points="395.28,-90.38 403.97,-84.31 393.39,-83.64 395.28,-90.38"/>
</a>
</g>
</g>
<!-- Node7 -->
<g id="Node000007" class="node">
<title>Node7</title>
<g id="a_Node000007"><a xlink:title=" ">
<polygon fill="#e0e0e0" stroke="#999999" points="947.88,-26 897.38,-26 897.38,-6 947.88,-6 947.88,-26"/>
<text text-anchor="middle" x="922.62" y="-12.5" font-family="Helvetica,sans-Serif" font-size="10.00">stddef.h</text>
</a>
</g>
</g>
<!-- Node6&#45;&gt;Node7 -->
<g id="edge6_Node000006_Node000007" class="edge">
<title>Node6&#45;&gt;Node7</title>
<g id="a_edge6_Node000006_Node000007"><a xlink:title=" ">
<path fill="none" stroke="#63b8ff" d="M233.7,-124.54C266.75,-116.68 315.6,-103.82 356.62,-88 375.17,-80.85 377.52,-73.5 396.62,-68 408.44,-64.6 769.28,-31.14 886.34,-20.34"/>
<polygon fill="#63b8ff" stroke="#63b8ff" points="886.57,-23.74 896.21,-19.34 885.93,-16.77 886.57,-23.74"/>
</a>
</g>
</g>
<!-- Node8 -->
<g id="Node000008" class="node">
<title>Node8</title>
<g id="a_Node000008"><a xlink:title=" ">
<polygon fill="#e0e0e0" stroke="#999999" points="291.75,-26 243.5,-26 243.5,-6 291.75,-6 291.75,-26"/>
<text text-anchor="middle" x="267.62" y="-12.5" font-family="Helvetica,sans-Serif" font-size="10.00">stdint.h</text>
</a>
</g>
</g>
<!-- Node6&#45;&gt;Node8 -->
<g id="edge7_Node000006_Node000008" class="edge">
<title>Node6&#45;&gt;Node8</title>
<g id="a_edge7_Node000006_Node000008"><a xlink:title=" ">
<path fill="none" stroke="#63b8ff" d="M196.82,-123.56C198.83,-110.33 203.78,-85.9 214.62,-68 222.69,-54.69 235.08,-42.49 245.86,-33.37"/>
<polygon fill="#63b8ff" stroke="#63b8ff" points="247.83,-35.47 253.41,-26.47 243.43,-30.03 247.83,-35.47"/>
</a>
</g>
</g>
<!-- Node9 -->
<g id="Node000009" class="node">
<title>Node9</title>
<g id="a_Node000009"><a xlink:href="a00236_source.html" target="_top" xlink:title=" ">
<polygon fill="white" stroke="#666666" points="311.62,-88 223.62,-88 223.62,-68 311.62,-68 311.62,-88"/>
<text text-anchor="middle" x="267.62" y="-74.5" font-family="Helvetica,sans-Serif" font-size="10.00">timer_interface.h</text>
</a>
</g>
</g>
<!-- Node6&#45;&gt;Node9 -->
<g id="edge9_Node000006_Node000009" class="edge">
<title>Node6&#45;&gt;Node9</title>
<g id="a_edge9_Node000006_Node000009"><a xlink:title=" ">
<path fill="none" stroke="#63b8ff" d="M208.17,-123.59C218.8,-115.62 234.27,-104.02 246.77,-94.64"/>
<polygon fill="#63b8ff" stroke="#63b8ff" points="248.33,-97.1 254.23,-88.3 244.13,-91.5 248.33,-97.1"/>
</a>
</g>
</g>
<!-- Node9&#45;&gt;Node4 -->
<g id="edge12_Node000009_Node000004" class="edge">
<title>Node9&#45;&gt;Node4</title>
<g id="a_edge12_Node000009_Node000004"><a xlink:title=" ">
<path fill="none" stroke="#63b8ff" d="M311.94,-70.01C316.56,-69.32 321.19,-68.63 325.62,-68 454.6,-49.58 607.91,-30.36 678.09,-21.71"/>
<polygon fill="#63b8ff" stroke="#63b8ff" points="678.12,-25.11 687.62,-20.42 677.27,-18.16 678.12,-25.11"/>
</a>
</g>
</g>
<!-- Node9&#45;&gt;Node7 -->
<g id="edge10_Node000009_Node000007" class="edge">
<title>Node9&#45;&gt;Node7</title>
<g id="a_edge10_Node000009_Node000007"><a xlink:title=" ">
<path fill="none" stroke="#63b8ff" d="M312.07,-72.81C328.3,-71.29 346.79,-69.56 363.62,-68 560.71,-49.77 796.92,-28.37 886.12,-20.3"/>
<polygon fill="#63b8ff" stroke="#63b8ff" points="886.35,-23.7 895.99,-19.32 885.72,-16.73 886.35,-23.7"/>
</a>
</g>
</g>
<!-- Node9&#45;&gt;Node8 -->
<g id="edge11_Node000009_Node000008" class="edge">
<title>Node9&#45;&gt;Node8</title>
<g id="a_edge11_Node000009_Node000008"><a xlink:title=" ">
<path fill="none" stroke="#63b8ff" d="M267.62,-67.62C267.62,-59.48 267.62,-47.39 267.62,-37.07"/>
<polygon fill="#63b8ff" stroke="#63b8ff" points="271.13,-37.11 267.62,-27.11 264.13,-37.11 271.13,-37.11"/>
</a>
</g>
</g>
<!-- Node10 -->
<g id="Node000010" class="node">
<title>Node10</title>
<g id="a_Node000010"><a xlink:href="a00176_source.html" target="_top" xlink:title=" ">
<polygon fill="white" stroke="#666666" points="211.38,-32 115.88,-32 115.88,0 211.38,0 211.38,-32"/>
<text text-anchor="start" x="123.88" y="-18.5" font-family="Helvetica,sans-Serif" font-size="10.00">../system/interrupt</text>
<text text-anchor="middle" x="163.62" y="-6.5" font-family="Helvetica,sans-Serif" font-size="10.00">_types.h</text>
</a>
</g>
</g>
<!-- Node9&#45;&gt;Node10 -->
<g id="edge13_Node000009_Node000010" class="edge">
<title>Node9&#45;&gt;Node10</title>
<g id="a_edge13_Node000009_Node000010"><a xlink:title=" ">
<path fill="none" stroke="#63b8ff" d="M251.38,-67.62C237.59,-59.67 217.31,-47.97 199.71,-37.82"/>
<polygon fill="#63b8ff" stroke="#63b8ff" points="201.68,-34.34 191.27,-32.37 198.19,-40.4 201.68,-34.34"/>
</a>
</g>
</g>
<!-- Node11&#45;&gt;Node2 -->
<g id="edge15_Node000011_Node000002" class="edge">
<title>Node11&#45;&gt;Node2</title>
<g id="a_edge15_Node000011_Node000002"><a xlink:title=" ">
<path fill="none" stroke="#63b8ff" d="M139.82,-125.76C142.79,-125.15 145.76,-124.55 148.62,-124 238.01,-106.86 344.58,-90.53 394.37,-83.13"/>
<polygon fill="#63b8ff" stroke="#63b8ff" points="394.56,-86.5 403.94,-81.57 393.53,-79.57 394.56,-86.5"/>
</a>
</g>
</g>
<!-- Node11&#45;&gt;Node4 -->
<g id="edge16_Node000011_Node000004" class="edge">
<title>Node11&#45;&gt;Node4</title>
<g id="a_edge16_Node000011_Node000004"><a xlink:title=" ">
<path fill="none" stroke="#63b8ff" d="M139.85,-125.9C142.81,-125.25 145.77,-124.61 148.62,-124 224.99,-107.63 246.51,-112.63 320.62,-88 340.63,-81.35 343.42,-74.02 363.62,-68 474.7,-34.92 612.06,-22.95 677.88,-18.9"/>
<polygon fill="#63b8ff" stroke="#63b8ff" points="677.79,-22.36 687.57,-18.28 677.38,-15.37 677.79,-22.36"/>
</a>
</g>
</g>
<!-- Node11&#45;&gt;Node8 -->
<g id="edge17_Node000011_Node000008" class="edge">
<title>Node11&#45;&gt;Node8</title>
<g id="a_edge17_Node000011_Node000008"><a xlink:title=" ">
<path fill="none" stroke="#63b8ff" d="M120.72,-123.51C148.28,-103.53 212.51,-56.96 246.17,-32.56"/>
<polygon fill="#63b8ff" stroke="#63b8ff" points="247.76,-35 253.8,-26.3 243.65,-29.34 247.76,-35"/>
</a>
</g>
</g>
<!-- Node12 -->
<g id="Node000012" class="node">
<title>Node12</title>
<g id="a_Node000012"><a xlink:href="a00077.html" target="_top" xlink:title="This is the generated driver types header file for the ADC driver.">
<polygon fill="white" stroke="#666666" points="69.25,-26 0,-26 0,-6 69.25,-6 69.25,-26"/>
<text text-anchor="middle" x="34.62" y="-12.5" font-family="Helvetica,sans-Serif" font-size="10.00">adc_types.h</text>
</a>
</g>
</g>
<!-- Node11&#45;&gt;Node12 -->
<g id="edge18_Node000011_Node000012" class="edge">
<title>Node11&#45;&gt;Node12</title>
<g id="a_edge18_Node000011_Node000012"><a xlink:title=" ">
<path fill="none" stroke="#63b8ff" d="M82.43,-123.54C66.95,-116.31 48.3,-104.71 38.62,-88 29.74,-72.65 29.57,-52.18 31.13,-37.17"/>
<polygon fill="#63b8ff" stroke="#63b8ff" points="34.7,-37.88 32.61,-27.49 27.77,-36.91 34.7,-37.88"/>
</a>
</g>
</g>
<!-- Node13 -->
<g id="Node000013" class="node">
<title>Node13</title>
<g id="a_Node000013"><a xlink:href="a00074_source.html" target="_top" xlink:title=" ">
<polygon fill="white" stroke="#666666" points="129.62,-88 47.62,-88 47.62,-68 129.62,-68 129.62,-88"/>
<text text-anchor="middle" x="88.62" y="-74.5" font-family="Helvetica,sans-Serif" font-size="10.00">adc_interface.h</text>
</a>
</g>
</g>
<!-- Node11&#45;&gt;Node13 -->
<g id="edge19_Node000011_Node000013" class="edge">
<title>Node11&#45;&gt;Node13</title>
<g id="a_edge19_Node000011_Node000013"><a xlink:title=" ">
<path fill="none" stroke="#63b8ff" d="M104.32,-123.59C101.89,-116.7 98.51,-107.1 95.51,-98.57"/>
<polygon fill="#63b8ff" stroke="#63b8ff" points="98.52,-97.57 91.9,-89.3 91.91,-99.89 98.52,-97.57"/>
</a>
</g>
</g>
<!-- Node13&#45;&gt;Node4 -->
<g id="edge21_Node000013_Node000004" class="edge">
<title>Node13&#45;&gt;Node4</title>
<g id="a_edge21_Node000013_Node000004"><a xlink:title=" ">
<path fill="none" stroke="#63b8ff" d="M129.83,-73.06C244.46,-62.11 565.99,-31.39 677.75,-20.71"/>
<polygon fill="#63b8ff" stroke="#63b8ff" points="677.89,-24.12 687.51,-19.69 677.22,-17.15 677.89,-24.12"/>
</a>
</g>
</g>
<!-- Node13&#45;&gt;Node8 -->
<g id="edge20_Node000013_Node000008" class="edge">
<title>Node13&#45;&gt;Node8</title>
<g id="a_edge20_Node000013_Node000008"><a xlink:title=" ">
<path fill="none" stroke="#63b8ff" d="M116.59,-67.62C147.91,-57.13 198.72,-40.1 232.64,-28.73"/>
<polygon fill="#63b8ff" stroke="#63b8ff" points="233.65,-31.75 242.02,-25.25 231.42,-25.11 233.65,-31.75"/>
</a>
</g>
</g>
<!-- Node13&#45;&gt;Node10 -->
<g id="edge23_Node000013_Node000010" class="edge">
<title>Node13&#45;&gt;Node10</title>
<g id="a_edge23_Node000013_Node000010"><a xlink:title=" ">
<path fill="none" stroke="#63b8ff" d="M100.34,-67.62C109.83,-60.04 123.57,-49.05 135.83,-39.24"/>
<polygon fill="#63b8ff" stroke="#63b8ff" points="137.79,-41.35 143.41,-32.37 133.41,-35.89 137.79,-41.35"/>
</a>
</g>
</g>
<!-- Node13&#45;&gt;Node12 -->
<g id="edge22_Node000013_Node000012" class="edge">
<title>Node13&#45;&gt;Node12</title>
<g id="a_edge22_Node000013_Node000012"><a xlink:title=" ">
<path fill="none" stroke="#63b8ff" d="M80.19,-67.62C72.14,-58.68 59.82,-44.99 50.02,-34.1"/>
<polygon fill="#63b8ff" stroke="#63b8ff" points="53.12,-32.2 43.83,-27.11 47.91,-36.89 53.12,-32.2"/>
</a>
</g>
</g>
<!-- Node14&#45;&gt;Node2 -->
<g id="edge25_Node000014_Node000002" class="edge">
<title>Node14&#45;&gt;Node2</title>
<g id="a_edge25_Node000014_Node000002"><a xlink:title=" ">
<path fill="none" stroke="#63b8ff" d="M368.54,-179.77C371.46,-166.79 377.75,-142.66 387.62,-124 392.81,-114.21 400.14,-104.38 406.76,-96.42"/>
<polygon fill="#63b8ff" stroke="#63b8ff" points="409.88,-99.17 413.78,-89.32 404.59,-94.59 409.88,-99.17"/>
</a>
</g>
</g>
<!-- Node15&#45;&gt;Node2 -->
<g id="edge27_Node000015_Node000002" class="edge">
<title>Node15&#45;&gt;Node2</title>
<g id="a_edge27_Node000015_Node000002"><a xlink:title=" ">
<path fill="none" stroke="#63b8ff" d="M521.08,-179.6C519.83,-165.97 515.79,-140.57 502.62,-124 489.24,-107.16 467.73,-95.57 450.38,-88.37"/>
<polygon fill="#63b8ff" stroke="#63b8ff" points="451.82,-84.79 441.23,-84.45 449.3,-91.32 451.82,-84.79"/>
</a>
</g>
</g>
<!-- Node15&#45;&gt;Node3 -->
<g id="edge31_Node000015_Node000003" class="edge">
<title>Node15&#45;&gt;Node3</title>
<g id="a_edge31_Node000015_Node000003"><a xlink:title=" ">
<path fill="none" stroke="#63b8ff" d="M485.22,-179.59C446.15,-169.5 384.6,-153.6 346.53,-143.76"/>
<polygon fill="#63b8ff" stroke="#63b8ff" points="347.54,-140.15 336.99,-141.04 345.79,-146.93 347.54,-140.15"/>
</a>
</g>
</g>
<!-- Node15&#45;&gt;Node4 -->
<g id="edge29_Node000015_Node000004" class="edge">
<title>Node15&#45;&gt;Node4</title>
<g id="a_edge29_Node000015_Node000004"><a xlink:title=" ">
<path fill="none" stroke="#63b8ff" d="M564.6,-181.53C590.71,-175.19 623.38,-163.83 646.62,-144 680.81,-114.83 701.36,-64.6 710.66,-36.85"/>
<polygon fill="#63b8ff" stroke="#63b8ff" points="714.27,-38.06 713.97,-27.47 707.6,-35.93 714.27,-38.06"/>
</a>
</g>
</g>
<!-- Node15&#45;&gt;Node7 -->
<g id="edge30_Node000015_Node000007" class="edge">
<title>Node15&#45;&gt;Node7</title>
<g id="a_edge30_Node000015_Node000007"><a xlink:title=" ">
<path fill="none" stroke="#63b8ff" d="M564.56,-185.88C652.47,-179.14 846.74,-162.36 870.62,-144 888.29,-130.42 907.9,-68.9 917.18,-36.73"/>
<polygon fill="#63b8ff" stroke="#63b8ff" points="920.76,-37.93 920.11,-27.35 914.03,-36.02 920.76,-37.93"/>
</a>
</g>
</g>
<!-- Node15&#45;&gt;Node8 -->
<g id="edge28_Node000015_Node000008" class="edge">
<title>Node15&#45;&gt;Node8</title>
<g id="a_edge28_Node000015_Node000008"><a xlink:title=" ">
<path fill="none" stroke="#63b8ff" d="M478.84,-181.29C457.49,-175.06 433.53,-163.88 420.62,-144 401.02,-113.81 470.35,-96.7 448.62,-68 431.06,-44.81 350.24,-29.19 302.74,-21.84"/>
<polygon fill="#63b8ff" stroke="#63b8ff" points="303.42,-18.25 293.01,-20.23 302.38,-25.18 303.42,-18.25"/>
</a>
</g>
</g>
<!-- Node16 -->
<g id="Node000016" class="node">
<title>Node16</title>
<g id="a_Node000016"><a xlink:href="a00296_source.html" target="_top" xlink:title=" ">
<polygon fill="white" stroke="#666666" points="637.25,-144 550,-144 550,-124 637.25,-124 637.25,-144"/>
<text text-anchor="middle" x="593.62" y="-130.5" font-family="Helvetica,sans-Serif" font-size="10.00">useful_macros.h</text>
</a>
</g>
</g>
<!-- Node15&#45;&gt;Node16 -->
<g id="edge32_Node000015_Node000016" class="edge">
<title>Node15&#45;&gt;Node16</title>
<g id="a_edge32_Node000015_Node000016"><a xlink:title=" ">
<path fill="none" stroke="#63b8ff" d="M534.17,-179.59C544.8,-171.62 560.27,-160.02 572.77,-150.64"/>
<polygon fill="#63b8ff" stroke="#63b8ff" points="574.33,-153.1 580.23,-144.3 570.13,-147.5 574.33,-153.1"/>
</a>
</g>
</g>
<!-- Node15&#45;&gt;Node17 -->
<g id="edge34_Node000015_Node000017" class="edge">
<title>Node15&#45;&gt;Node17</title>
<g id="a_edge34_Node000015_Node000017"><a xlink:title=" ">
<path fill="none" stroke="#63b8ff" d="M564.24,-183.53C617.4,-176.4 711.27,-162.85 800.83,-144.2"/>
<polygon fill="#63b8ff" stroke="#63b8ff" points="801.38,-147.45 810.44,-141.97 799.93,-140.61 801.38,-147.45"/>
</a>
</g>
</g>
<!-- Node18 -->
<g id="Node000018" class="node">
<title>Node18</title>
<g id="a_Node000018"><a xlink:href="a00290_source.html" target="_top" xlink:title=" ">
<polygon fill="white" stroke="#666666" points="493.25,-144 430,-144 430,-124 493.25,-124 493.25,-144"/>
<text text-anchor="middle" x="461.62" y="-130.5" font-family="Helvetica,sans-Serif" font-size="10.00">hardware.h</text>
</a>
</g>
</g>
<!-- Node15&#45;&gt;Node18 -->
<g id="edge39_Node000015_Node000018" class="edge">
<title>Node15&#45;&gt;Node18</title>
<g id="a_edge39_Node000015_Node000018"><a xlink:title=" ">
<path fill="none" stroke="#63b8ff" d="M511.17,-179.59C502.57,-171.85 490.17,-160.69 479.92,-151.47"/>
<polygon fill="#63b8ff" stroke="#63b8ff" points="482.73,-149.39 472.96,-145.3 478.05,-154.59 482.73,-149.39"/>
</a>
</g>
</g>
<!-- Node16&#45;&gt;Node2 -->
<g id="edge33_Node000016_Node000002" class="edge">
<title>Node16&#45;&gt;Node2</title>
<g id="a_edge33_Node000016_Node000002"><a xlink:title=" ">
<path fill="none" stroke="#63b8ff" d="M563.84,-123.59C531.83,-113.48 481.36,-97.55 450.22,-87.71"/>
<polygon fill="#63b8ff" stroke="#63b8ff" points="451.66,-84.18 441.07,-84.51 449.55,-90.86 451.66,-84.18"/>
</a>
</g>
</g>
<!-- Node17&#45;&gt;Node2 -->
<g id="edge35_Node000017_Node000002" class="edge">
<title>Node17&#45;&gt;Node2</title>
<g id="a_edge35_Node000017_Node000002"><a xlink:title=" ">
<path fill="none" stroke="#63b8ff" d="M811.46,-125.92C808.5,-125.21 805.5,-124.55 802.62,-124 672.38,-99.18 514.26,-85.71 450.88,-80.98"/>
<polygon fill="#63b8ff" stroke="#63b8ff" points="451.41,-77.43 441.18,-80.19 450.9,-84.41 451.41,-77.43"/>
</a>
</g>
</g>
<!-- Node17&#45;&gt;Node4 -->
<g id="edge37_Node000017_Node000004" class="edge">
<title>Node17&#45;&gt;Node4</title>
<g id="a_edge37_Node000017_Node000004"><a xlink:title=" ">
<path fill="none" stroke="#63b8ff" d="M826.8,-123.51C806.49,-103.87 759.6,-58.55 734.03,-33.83"/>
<polygon fill="#63b8ff" stroke="#63b8ff" points="736.87,-31.73 727.25,-27.3 732,-36.77 736.87,-31.73"/>
</a>
</g>
</g>
<!-- Node17&#45;&gt;Node7 -->
<g id="edge38_Node000017_Node000007" class="edge">
<title>Node17&#45;&gt;Node7</title>
<g id="a_edge38_Node000017_Node000007"><a xlink:title=" ">
<path fill="none" stroke="#63b8ff" d="M840.98,-123.73C847.31,-110.71 859.8,-86.52 873.62,-68 882.72,-55.83 894.47,-43.5 904.18,-34.02"/>
<polygon fill="#63b8ff" stroke="#63b8ff" points="906.26,-36.93 911.08,-27.5 901.43,-31.86 906.26,-36.93"/>
</a>
</g>
</g>
<!-- Node17&#45;&gt;Node8 -->
<g id="edge36_Node000017_Node000008" class="edge">
<title>Node17&#45;&gt;Node8</title>
<g id="a_edge36_Node000017_Node000008"><a xlink:title=" ">
<path fill="none" stroke="#63b8ff" d="M813.95,-123.62C778.74,-109.42 708.55,-82.61 646.62,-68 522.01,-38.6 370.08,-24.55 302.69,-19.41"/>
<polygon fill="#63b8ff" stroke="#63b8ff" points="303.1,-15.86 292.87,-18.61 302.58,-22.84 303.1,-15.86"/>
</a>
</g>
</g>
<!-- Node20 -->
<g id="Node000020" class="node">
<title>Node20</title>
<g id="a_Node000020"><a xlink:href="a00479_source.html" target="_top" xlink:title=" ">
<polygon fill="white" stroke="#666666" points="783.38,-200 693.88,-200 693.88,-180 783.38,-180 783.38,-200"/>
<text text-anchor="middle" x="738.62" y="-186.5" font-family="Helvetica,sans-Serif" font-size="10.00">pwrctrl_typedef.h</text>
</a>
</g>
</g>
<!-- Node19&#45;&gt;Node20 -->
<g id="edge42_Node000019_Node000020" class="edge">
<title>Node19&#45;&gt;Node20</title>
<g id="a_edge42_Node000019_Node000020"><a xlink:title=" ">
<path fill="none" stroke="#63b8ff" d="M559.05,-297.7C512.56,-290.89 424.25,-272.75 455.62,-236 470.18,-218.95 604.57,-203.6 682.8,-196.01"/>
<polygon fill="#63b8ff" stroke="#63b8ff" points="682.83,-199.42 692.45,-194.99 682.16,-192.46 682.83,-199.42"/>
</a>
</g>
</g>
<!-- Node23 -->
<g id="Node000023" class="node">
<title>Node23</title>
<g id="a_Node000023"><a xlink:href="a00452.html" target="_top" xlink:title="Contains the power control reusable functions.">
<polygon fill="white" stroke="#666666" points="887.38,-256 791.88,-256 791.88,-236 887.38,-236 887.38,-256"/>
<text text-anchor="middle" x="839.62" y="-242.5" font-family="Helvetica,sans-Serif" font-size="10.00">pwrctrl_common.h</text>
</a>
</g>
</g>
<!-- Node19&#45;&gt;Node23 -->
<g id="edge47_Node000019_Node000023" class="edge">
<title>Node19&#45;&gt;Node23</title>
<g id="a_edge47_Node000019_Node000023"><a xlink:title=" ">
<path fill="none" stroke="#63b8ff" d="M612.33,-295.32C652.96,-286.68 731.2,-270.05 784.41,-258.74"/>
<polygon fill="#63b8ff" stroke="#63b8ff" points="784.98,-261.98 794.03,-256.48 783.52,-255.14 784.98,-261.98"/>
</a>
</g>
</g>
<!-- Node24 -->
<g id="Node000024" class="node">
<title>Node24</title>
<g id="a_Node000024"><a xlink:href="a00458.html" target="_top" xlink:title="Contains public functions relevant for power control communication interface.">
<polygon fill="white" stroke="#666666" points="591.12,-256 464.12,-256 464.12,-236 591.12,-236 591.12,-256"/>
<text text-anchor="middle" x="527.62" y="-242.5" font-family="Helvetica,sans-Serif" font-size="10.00">pwrctrl_comm_interface.h</text>
</a>
</g>
</g>
<!-- Node19&#45;&gt;Node24 -->
<g id="edge48_Node000019_Node000024" class="edge">
<title>Node19&#45;&gt;Node24</title>
<g id="a_edge48_Node000019_Node000024"><a xlink:title=" ">
<path fill="none" stroke="#63b8ff" d="M575.52,-291.59C567.29,-283.93 555.46,-272.91 545.61,-263.75"/>
<polygon fill="#63b8ff" stroke="#63b8ff" points="548.32,-261.55 538.61,-257.3 543.55,-266.67 548.32,-261.55"/>
</a>
</g>
</g>
<!-- Node25 -->
<g id="Node000025" class="node">
<title>Node25</title>
<g id="a_Node000025"><a xlink:href="a00464.html" target="_top" xlink:title="Contains public function relevant for power control interrupt.">
<polygon fill="white" stroke="#666666" points="677.88,-256 609.38,-256 609.38,-236 677.88,-236 677.88,-256"/>
<text text-anchor="middle" x="643.62" y="-242.5" font-family="Helvetica,sans-Serif" font-size="10.00">pwrctrl_isr.h</text>
</a>
</g>
</g>
<!-- Node19&#45;&gt;Node25 -->
<g id="edge49_Node000019_Node000025" class="edge">
<title>Node19&#45;&gt;Node25</title>
<g id="a_edge49_Node000019_Node000025"><a xlink:title=" ">
<path fill="none" stroke="#63b8ff" d="M595.73,-291.59C603.96,-283.93 615.79,-272.91 625.64,-263.75"/>
<polygon fill="#63b8ff" stroke="#63b8ff" points="627.7,-266.67 632.64,-257.3 622.93,-261.55 627.7,-266.67"/>
</a>
</g>
</g>
<!-- Node26 -->
<g id="Node000026" class="node">
<title>Node26</title>
<g id="a_Node000026"><a xlink:href="a00473.html" target="_top" xlink:title="Contains public functions for PWM.">
<polygon fill="white" stroke="#666666" points="773.75,-256 695.5,-256 695.5,-236 773.75,-236 773.75,-256"/>
<text text-anchor="middle" x="734.62" y="-242.5" font-family="Helvetica,sans-Serif" font-size="10.00">pwrctrl_pwm.h</text>
</a>
</g>
</g>
<!-- Node19&#45;&gt;Node26 -->
<g id="edge50_Node000019_Node000026" class="edge">
<title>Node19&#45;&gt;Node26</title>
<g id="a_edge50_Node000019_Node000026"><a xlink:title=" ">
<path fill="none" stroke="#63b8ff" d="M611.58,-291.59C635.57,-282.9 671.47,-269.89 698.31,-260.16"/>
<polygon fill="#63b8ff" stroke="#63b8ff" points="699.26,-263.18 707.47,-256.48 696.87,-256.6 699.26,-263.18"/>
</a>
</g>
</g>
<!-- Node21 -->
<g id="Node000021" class="node">
<title>Node21</title>
<g id="a_Node000021"><a xlink:href="a00380.html" target="_top" xlink:title="Contains fault data types.">
<polygon fill="white" stroke="#666666" points="793.62,-144 693.62,-144 693.62,-124 793.62,-124 793.62,-144"/>
<text text-anchor="middle" x="743.62" y="-130.5" font-family="Helvetica,sans-Serif" font-size="10.00">fault/fault_typedef.h</text>
</a>
</g>
</g>
<!-- Node20&#45;&gt;Node21 -->
<g id="edge43_Node000020_Node000021" class="edge">
<title>Node20&#45;&gt;Node21</title>
<g id="a_edge43_Node000020_Node000021"><a xlink:title=" ">
<path fill="none" stroke="#63b8ff" d="M739.5,-179.59C740.12,-172.86 740.98,-163.53 741.76,-155.15"/>
<polygon fill="#63b8ff" stroke="#63b8ff" points="745.33,-155.58 742.76,-145.3 738.36,-154.93 745.33,-155.58"/>
</a>
</g>
</g>
<!-- Node22 -->
<g id="Node000022" class="node">
<title>Node22</title>
<g id="a_Node000022"><a xlink:href="a00371.html" target="_top" xlink:title="Contains fault generic public functions.">
<polygon fill="white" stroke="#666666" points="637.12,-88 552.12,-88 552.12,-68 637.12,-68 637.12,-88"/>
<text text-anchor="middle" x="594.62" y="-74.5" font-family="Helvetica,sans-Serif" font-size="10.00">fault_common.h</text>
</a>
</g>
</g>
<!-- Node21&#45;&gt;Node22 -->
<g id="edge44_Node000021_Node000022" class="edge">
<title>Node21&#45;&gt;Node22</title>
<g id="a_edge44_Node000021_Node000022"><a xlink:title=" ">
<path fill="none" stroke="#63b8ff" d="M717.67,-123.59C693.68,-114.9 657.78,-101.89 630.94,-92.16"/>
<polygon fill="#63b8ff" stroke="#63b8ff" points="632.38,-88.6 621.78,-88.48 629.99,-95.18 632.38,-88.6"/>
</a>
</g>
</g>
<!-- Node22&#45;&gt;Node4 -->
<g id="edge46_Node000022_Node000004" class="edge">
<title>Node22&#45;&gt;Node4</title>
<g id="a_edge46_Node000022_Node000004"><a xlink:title=" ">
<path fill="none" stroke="#63b8ff" d="M613.69,-67.62C633.56,-57.85 664.95,-42.41 687.85,-31.15"/>
<polygon fill="#63b8ff" stroke="#63b8ff" points="689.27,-33.86 696.7,-26.31 686.18,-27.58 689.27,-33.86"/>
</a>
</g>
</g>
<!-- Node22&#45;&gt;Node8 -->
<g id="edge45_Node000022_Node000008" class="edge">
<title>Node22&#45;&gt;Node8</title>
<g id="a_edge45_Node000022_Node000008"><a xlink:title=" ">
<path fill="none" stroke="#63b8ff" d="M551.88,-69.16C486.52,-57.16 363.01,-34.5 302.63,-23.42"/>
<polygon fill="#63b8ff" stroke="#63b8ff" points="303.59,-19.86 293.12,-21.5 302.33,-26.74 303.59,-19.86"/>
</a>
</g>
</g>
<!-- Node26&#45;&gt;Node20 -->
<g id="edge51_Node000026_Node000020" class="edge">
<title>Node26&#45;&gt;Node20</title>
<g id="a_edge51_Node000026_Node000020"><a xlink:title=" ">
<path fill="none" stroke="#63b8ff" d="M735.32,-235.59C735.82,-228.86 736.51,-219.53 737.13,-211.15"/>
<polygon fill="#63b8ff" stroke="#63b8ff" points="740.69,-211.53 737.94,-201.3 733.71,-211.01 740.69,-211.53"/>
</a>
</g>
</g>
<!-- Node27&#45;&gt;Node7 -->
<g id="edge53_Node000027_Node000007" class="edge">
<title>Node27&#45;&gt;Node7</title>
<g id="a_edge53_Node000027_Node000007"><a xlink:title=" ">
<path fill="none" stroke="#63b8ff" d="M945.69,-301.95C1016.82,-302.22 1181.62,-291.97 1181.62,-191 1181.62,-191 1181.62,-191 1181.62,-133 1181.62,-36.43 1029.78,-19.73 958.62,-17.21"/>
<polygon fill="#63b8ff" stroke="#63b8ff" points="959.02,-13.7 948.93,-16.92 958.83,-20.69 959.02,-13.7"/>
</a>
</g>
</g>
<!-- Node27&#45;&gt;Node17 -->
<g id="edge68_Node000027_Node000017" class="edge">
<title>Node27&#45;&gt;Node17</title>
<g id="a_edge68_Node000027_Node000017"><a xlink:title=" ">
<path fill="none" stroke="#63b8ff" d="M915.89,-291.87C918.65,-279 922.17,-255 915.62,-236 903.81,-201.72 875.04,-170.17 855.68,-151.76"/>
<polygon fill="#63b8ff" stroke="#63b8ff" points="858.52,-149.69 848.79,-145.48 853.77,-154.83 858.52,-149.69"/>
</a>
</g>
</g>
<!-- Node27&#45;&gt;Node20 -->
<g id="edge66_Node000027_Node000020" class="edge">
<title>Node27&#45;&gt;Node20</title>
<g id="a_edge66_Node000027_Node000020"><a xlink:title=" ">
<path fill="none" stroke="#63b8ff" d="M913.91,-291.65C913.8,-277.62 911.47,-251.17 896.62,-236 870.07,-208.87 828.42,-197.79 794.55,-193.4"/>
<polygon fill="#63b8ff" stroke="#63b8ff" points="795.18,-189.83 784.86,-192.19 794.4,-196.79 795.18,-189.83"/>
</a>
</g>
</g>
<!-- Node27&#45;&gt;Node23 -->
<g id="edge67_Node000027_Node000023" class="edge">
<title>Node27&#45;&gt;Node23</title>
<g id="a_edge67_Node000027_Node000023"><a xlink:title=" ">
<path fill="none" stroke="#63b8ff" d="M900.74,-291.59C889.81,-283.62 873.91,-272.02 861.06,-262.64"/>
<polygon fill="#63b8ff" stroke="#63b8ff" points="863.51,-259.37 853.37,-256.3 859.38,-265.02 863.51,-259.37"/>
</a>
</g>
</g>
<!-- Node27&#45;&gt;Node26 -->
<g id="edge65_Node000027_Node000026" class="edge">
<title>Node27&#45;&gt;Node26</title>
<g id="a_edge65_Node000027_Node000026"><a xlink:title=" ">
<path fill="none" stroke="#63b8ff" d="M882.45,-291.59C853.11,-282.74 808.96,-269.43 776.55,-259.65"/>
<polygon fill="#63b8ff" stroke="#63b8ff" points="777.63,-256.02 767.05,-256.48 775.61,-262.72 777.63,-256.02"/>
</a>
</g>
</g>
<!-- Node27&#45;&gt;Node27 -->
<g id="edge64_Node000027_Node000027" class="edge">
<title>Node27&#45;&gt;Node27</title>
<g id="a_edge64_Node000027_Node000027"><a xlink:title=" ">
<path fill="none" stroke="#63b8ff" d="M945.6,-312.49C955.49,-312.28 963.25,-308.78 963.25,-302 963.25,-297.97 960.51,-295.11 956.22,-293.39"/>
<polygon fill="#63b8ff" stroke="#63b8ff" points="957.06,-289.81 946.6,-291.51 955.84,-296.7 957.06,-289.81"/>
</a>
</g>
</g>
<!-- Node28 -->
<g id="Node000028" class="node">
<title>Node28</title>
<g id="a_Node000028"><a xlink:href="a00107.html" target="_top" xlink:title="This is the generated driver header file for the CMP1 driver.">
<polygon fill="white" stroke="#666666" points="989.62,-144 919.62,-144 919.62,-124 989.62,-124 989.62,-144"/>
<text text-anchor="middle" x="954.62" y="-130.5" font-family="Helvetica,sans-Serif" font-size="10.00">cmp/cmp1.h</text>
</a>
</g>
</g>
<!-- Node27&#45;&gt;Node28 -->
<g id="edge54_Node000027_Node000028" class="edge">
<title>Node27&#45;&gt;Node28</title>
<g id="a_edge54_Node000027_Node000028"><a xlink:title=" ">
<path fill="none" stroke="#63b8ff" d="M931.84,-291.51C944.46,-283.82 960.27,-271.69 967.62,-256 983.17,-222.82 971.68,-179.06 962.66,-154.28"/>
<polygon fill="#63b8ff" stroke="#63b8ff" points="965.68,-153.39 958.79,-145.34 959.16,-155.93 965.68,-153.39"/>
</a>
</g>
</g>
<!-- Node30 -->
<g id="Node000030" class="node">
<title>Node30</title>
<g id="a_Node000030"><a xlink:href="a00113.html" target="_top" xlink:title="This is the generated driver header file for the CMP3 driver.">
<polygon fill="white" stroke="#666666" points="1077.62,-144 1007.62,-144 1007.62,-124 1077.62,-124 1077.62,-144"/>
<text text-anchor="middle" x="1042.62" y="-130.5" font-family="Helvetica,sans-Serif" font-size="10.00">cmp/cmp3.h</text>
</a>
</g>
</g>
<!-- Node27&#45;&gt;Node30 -->
<g id="edge60_Node000027_Node000030" class="edge">
<title>Node27&#45;&gt;Node30</title>
<g id="a_edge60_Node000027_Node000030"><a xlink:title=" ">
<path fill="none" stroke="#63b8ff" d="M934.81,-291.56C950.23,-283.81 970.76,-271.6 984.62,-256 1011.73,-225.49 1028.9,-180.08 1037.04,-154.45"/>
<polygon fill="#63b8ff" stroke="#63b8ff" points="1040.6,-155.77 1040.14,-145.18 1033.9,-153.74 1040.6,-155.77"/>
</a>
</g>
</g>
<!-- Node28&#45;&gt;Node4 -->
<g id="edge56_Node000028_Node000004" class="edge">
<title>Node28&#45;&gt;Node4</title>
<g id="a_edge56_Node000028_Node000004"><a xlink:title=" ">
<path fill="none" stroke="#63b8ff" d="M935.15,-123.51C893.38,-103.15 795,-55.2 745.76,-31.2"/>
<polygon fill="#63b8ff" stroke="#63b8ff" points="747.56,-27.7 737.04,-26.46 744.49,-33.99 747.56,-27.7"/>
</a>
</g>
</g>
<!-- Node28&#45;&gt;Node7 -->
<g id="edge55_Node000028_Node000007" class="edge">
<title>Node28&#45;&gt;Node7</title>
<g id="a_edge55_Node000028_Node000007"><a xlink:title=" ">
<path fill="none" stroke="#63b8ff" d="M973.25,-123.56C994.08,-111.66 1023.34,-90.07 1010.62,-68 999.39,-48.51 977.54,-35.78 958.43,-27.92"/>
<polygon fill="#63b8ff" stroke="#63b8ff" points="959.77,-24.31 949.17,-24.04 957.29,-30.85 959.77,-24.31"/>
</a>
</g>
</g>
<!-- Node29 -->
<g id="Node000029" class="node">
<title>Node29</title>
<g id="a_Node000029"><a xlink:href="a00116_source.html" target="_top" xlink:title=" ">
<polygon fill="white" stroke="#666666" points="1001.12,-88 916.12,-88 916.12,-68 1001.12,-68 1001.12,-88"/>
<text text-anchor="middle" x="958.62" y="-74.5" font-family="Helvetica,sans-Serif" font-size="10.00">cmp_interface.h</text>
</a>
</g>
</g>
<!-- Node28&#45;&gt;Node29 -->
<g id="edge57_Node000028_Node000029" class="edge">
<title>Node28&#45;&gt;Node29</title>
<g id="a_edge57_Node000028_Node000029"><a xlink:title=" ">
<path fill="none" stroke="#63b8ff" d="M955.32,-123.59C955.82,-116.86 956.51,-107.53 957.13,-99.15"/>
<polygon fill="#63b8ff" stroke="#63b8ff" points="960.69,-99.53 957.94,-89.3 953.71,-99.01 960.69,-99.53"/>
</a>
</g>
</g>
<!-- Node29&#45;&gt;Node4 -->
<g id="edge58_Node000029_Node000004" class="edge">
<title>Node29&#45;&gt;Node4</title>
<g id="a_edge58_Node000029_Node000004"><a xlink:title=" ">
<path fill="none" stroke="#63b8ff" d="M920.55,-67.56C875.42,-56.37 800.64,-37.83 755.26,-26.58"/>
<polygon fill="#63b8ff" stroke="#63b8ff" points="756.22,-22.96 745.67,-23.95 754.54,-29.76 756.22,-22.96"/>
</a>
</g>
</g>
<!-- Node29&#45;&gt;Node7 -->
<g id="edge59_Node000029_Node000007" class="edge">
<title>Node29&#45;&gt;Node7</title>
<g id="a_edge59_Node000029_Node000007"><a xlink:title=" ">
<path fill="none" stroke="#63b8ff" d="M953,-67.62C947.84,-59.03 940.06,-46.07 933.67,-35.41"/>
<polygon fill="#63b8ff" stroke="#63b8ff" points="936.24,-33.89 928.09,-27.11 930.24,-37.49 936.24,-33.89"/>
</a>
</g>
</g>
<!-- Node30&#45;&gt;Node4 -->
<g id="edge62_Node000030_Node000004" class="edge">
<title>Node30&#45;&gt;Node4</title>
<g id="a_edge62_Node000030_Node000004"><a xlink:title=" ">
<path fill="none" stroke="#63b8ff" d="M1040.85,-123.76C1037.58,-109.38 1029.15,-81.87 1010.62,-68 970.86,-38.24 825.73,-24.45 755.38,-19.4"/>
<polygon fill="#63b8ff" stroke="#63b8ff" points="755.98,-15.87 745.76,-18.67 755.49,-22.85 755.98,-15.87"/>
</a>
</g>
</g>
<!-- Node30&#45;&gt;Node7 -->
<g id="edge61_Node000030_Node000007" class="edge">
<title>Node30&#45;&gt;Node7</title>
<g id="a_edge61_Node000030_Node000007"><a xlink:title=" ">
<path fill="none" stroke="#63b8ff" d="M1042.53,-123.52C1041.9,-109.8 1038.88,-84.28 1025.62,-68 1008.55,-47.03 980.68,-33.97 958.24,-26.32"/>
<polygon fill="#63b8ff" stroke="#63b8ff" points="959.64,-22.77 949.05,-23.08 957.52,-29.45 959.64,-22.77"/>
</a>
</g>
</g>
<!-- Node30&#45;&gt;Node29 -->
<g id="edge63_Node000030_Node000029" class="edge">
<title>Node30&#45;&gt;Node29</title>
<g id="a_edge63_Node000030_Node000029"><a xlink:title=" ">
<path fill="none" stroke="#63b8ff" d="M1027.99,-123.59C1015.42,-115.51 997.06,-103.71 982.38,-94.27"/>
<polygon fill="#63b8ff" stroke="#63b8ff" points="984.68,-90.94 974.37,-88.48 980.89,-96.83 984.68,-90.94"/>
</a>
</g>
</g>
</g>
</svg>
