<?xml version="1.0" encoding="UTF-8" standalone="no"?>
<!DOCTYPE svg PUBLIC "-//W3C//DTD SVG 1.1//EN"
 "http://www.w3.org/Graphics/SVG/1.1/DTD/svg11.dtd">
<!-- Generated by graphviz version 8.1.0 (20230707.0739)
 -->
<!-- Title: dspic33ck&#45;dab.X/sources/pwrctrl/pwrctrl_pwm.c Pages: 1 -->
<svg width="454pt" height="264pt"
 viewBox="0.00 0.00 453.59 264.00" xmlns="http://www.w3.org/2000/svg" xmlns:xlink="http://www.w3.org/1999/xlink">
<g id="graph0" class="graph" transform="scale(1 1) rotate(0) translate(4 260)">
<title>dspic33ck&#45;dab.X/sources/pwrctrl/pwrctrl_pwm.c</title>
<!-- Node1 -->
<g id="Node000001" class="node">
<title>Node1</title>
<g id="a_Node000001"><a xlink:title="Contains DAB control phase calculation between primary and secondary, and the PWM distribution.">
<polygon fill="#999999" stroke="#666666" points="153.21,-256 28.46,-256 28.46,-224 153.21,-224 153.21,-256"/>
<text text-anchor="start" x="36.46" y="-242.5" font-family="Helvetica,sans-Serif" font-size="10.00">dspic33ck&#45;dab.X/sources</text>
<text text-anchor="middle" x="90.84" y="-230.5" font-family="Helvetica,sans-Serif" font-size="10.00">/pwrctrl/pwrctrl_pwm.c</text>
</a>
</g>
</g>
<!-- Node2 -->
<g id="Node000002" class="node">
<title>Node2</title>
<g id="a_Node000002"><a xlink:title=" ">
<polygon fill="#e0e0e0" stroke="#999999" points="159.21,-76 124.46,-76 124.46,-56 159.21,-56 159.21,-76"/>
<text text-anchor="middle" x="141.84" y="-62.5" font-family="Helvetica,sans-Serif" font-size="10.00">xc.h</text>
</a>
</g>
</g>
<!-- Node1&#45;&gt;Node2 -->
<g id="edge1_Node000001_Node000002" class="edge">
<title>Node1&#45;&gt;Node2</title>
<g id="a_edge1_Node000001_Node000002"><a xlink:title=" ">
<path fill="none" stroke="#63b8ff" d="M83.33,-223.88C72.1,-198.97 54.25,-148.45 73.84,-112 82.44,-95.99 99.52,-84.72 114.4,-77.47"/>
<polygon fill="#63b8ff" stroke="#63b8ff" points="115.53,-80.35 123.23,-73.07 112.67,-73.96 115.53,-80.35"/>
</a>
</g>
</g>
<!-- Node3 -->
<g id="Node000003" class="node">
<title>Node3</title>
<g id="a_Node000003"><a xlink:title=" ">
<polygon fill="#e0e0e0" stroke="#999999" points="153.71,-20 97.96,-20 97.96,0 153.71,0 153.71,-20"/>
<text text-anchor="middle" x="125.84" y="-6.5" font-family="Helvetica,sans-Serif" font-size="10.00">stdbool.h</text>
</a>
</g>
</g>
<!-- Node1&#45;&gt;Node3 -->
<g id="edge2_Node000001_Node000003" class="edge">
<title>Node1&#45;&gt;Node3</title>
<g id="a_edge2_Node000001_Node000003"><a xlink:title=" ">
<path fill="none" stroke="#63b8ff" d="M74.33,-223.55C41.29,-190.74 -26.61,-112.51 11.84,-56 28.54,-31.45 60.92,-20.29 86.91,-15.22"/>
<polygon fill="#63b8ff" stroke="#63b8ff" points="87.32,-18.53 96.59,-13.4 86.15,-11.63 87.32,-18.53"/>
</a>
</g>
</g>
<!-- Node4 -->
<g id="Node000004" class="node">
<title>Node4</title>
<g id="a_Node000004"><a xlink:href="a00152.html" target="_top" xlink:title="This is the generated driver header file for the PWM driver.">
<polygon fill="white" stroke="#666666" points="307.59,-132 224.09,-132 224.09,-112 307.59,-112 307.59,-132"/>
<text text-anchor="middle" x="265.84" y="-118.5" font-family="Helvetica,sans-Serif" font-size="10.00">pwm_hs/pwm.h</text>
</a>
</g>
</g>
<!-- Node1&#45;&gt;Node4 -->
<g id="edge3_Node000001_Node000004" class="edge">
<title>Node1&#45;&gt;Node4</title>
<g id="a_edge3_Node000001_Node000004"><a xlink:title=" ">
<path fill="none" stroke="#63b8ff" d="M121.75,-223.72C140.22,-214.18 163.89,-201.24 183.84,-188 206.57,-172.91 230.85,-153.16 247.04,-139.4"/>
<polygon fill="#63b8ff" stroke="#63b8ff" points="248.84,-141.62 254.14,-132.45 244.28,-136.31 248.84,-141.62"/>
</a>
</g>
</g>
<!-- Node9 -->
<g id="Node000009" class="node">
<title>Node9</title>
<g id="a_Node000009"><a xlink:href="a00479_source.html" target="_top" xlink:title=" ">
<polygon fill="white" stroke="#666666" points="174.59,-188 85.09,-188 85.09,-168 174.59,-168 174.59,-188"/>
<text text-anchor="middle" x="129.84" y="-174.5" font-family="Helvetica,sans-Serif" font-size="10.00">pwrctrl_typedef.h</text>
</a>
</g>
</g>
<!-- Node1&#45;&gt;Node9 -->
<g id="edge13_Node000001_Node000009" class="edge">
<title>Node1&#45;&gt;Node9</title>
<g id="a_edge13_Node000001_Node000009"><a xlink:title=" ">
<path fill="none" stroke="#63b8ff" d="M100.88,-223.55C106.07,-215.56 112.44,-205.76 117.89,-197.39"/>
<polygon fill="#63b8ff" stroke="#63b8ff" points="121.21,-199.7 123.72,-189.41 115.34,-195.88 121.21,-199.7"/>
</a>
</g>
</g>
<!-- Node4&#45;&gt;Node2 -->
<g id="edge4_Node000004_Node000002" class="edge">
<title>Node4&#45;&gt;Node2</title>
<g id="a_edge4_Node000004_Node000002"><a xlink:title=" ">
<path fill="none" stroke="#63b8ff" d="M244.24,-111.59C223.51,-102.57 192.12,-88.9 169.56,-79.07"/>
<polygon fill="#63b8ff" stroke="#63b8ff" points="171.15,-75.51 160.58,-74.73 168.35,-81.93 171.15,-75.51"/>
</a>
</g>
</g>
<!-- Node4&#45;&gt;Node3 -->
<g id="edge6_Node000004_Node000003" class="edge">
<title>Node4&#45;&gt;Node3</title>
<g id="a_edge6_Node000004_Node000003"><a xlink:title=" ">
<path fill="none" stroke="#63b8ff" d="M253.32,-111.83C241.11,-102.83 222.05,-88.66 205.84,-76 184.89,-59.65 161.33,-40.39 145.23,-27.11"/>
<polygon fill="#63b8ff" stroke="#63b8ff" points="148.06,-24.08 138.12,-20.4 143.59,-29.47 148.06,-24.08"/>
</a>
</g>
</g>
<!-- Node5 -->
<g id="Node000005" class="node">
<title>Node5</title>
<g id="a_Node000005"><a xlink:title=" ">
<polygon fill="#e0e0e0" stroke="#999999" points="289.96,-20 241.71,-20 241.71,0 289.96,0 289.96,-20"/>
<text text-anchor="middle" x="265.84" y="-6.5" font-family="Helvetica,sans-Serif" font-size="10.00">stdint.h</text>
</a>
</g>
</g>
<!-- Node4&#45;&gt;Node5 -->
<g id="edge5_Node000004_Node000005" class="edge">
<title>Node4&#45;&gt;Node5</title>
<g id="a_edge5_Node000004_Node000005"><a xlink:title=" ">
<path fill="none" stroke="#63b8ff" d="M286.91,-111.54C300.75,-104.06 317.74,-92.19 325.84,-76 335.81,-56.05 315.16,-37.82 295.42,-25.77"/>
<polygon fill="#63b8ff" stroke="#63b8ff" points="297.36,-22.28 286.94,-20.38 293.9,-28.36 297.36,-22.28"/>
</a>
</g>
</g>
<!-- Node6 -->
<g id="Node000006" class="node">
<title>Node6</title>
<g id="a_Node000006"><a xlink:title=" ">
<polygon fill="#e0e0e0" stroke="#999999" points="420.59,-76 373.09,-76 373.09,-56 420.59,-56 420.59,-76"/>
<text text-anchor="middle" x="396.84" y="-62.5" font-family="Helvetica,sans-Serif" font-size="10.00">stdlib.h</text>
</a>
</g>
</g>
<!-- Node4&#45;&gt;Node6 -->
<g id="edge7_Node000004_Node000006" class="edge">
<title>Node4&#45;&gt;Node6</title>
<g id="a_edge7_Node000004_Node000006"><a xlink:title=" ">
<path fill="none" stroke="#63b8ff" d="M288.66,-111.59C309.47,-103.01 340.48,-90.23 363.97,-80.55"/>
<polygon fill="#63b8ff" stroke="#63b8ff" points="364.93,-83.53 372.84,-76.48 362.26,-77.05 364.93,-83.53"/>
</a>
</g>
</g>
<!-- Node7 -->
<g id="Node000007" class="node">
<title>Node7</title>
<g id="a_Node000007"><a xlink:href="a00161.html" target="_top" xlink:title="This is the generated driver types header file for the PWM driver.">
<polygon fill="white" stroke="#666666" points="445.59,-20 356.09,-20 356.09,0 445.59,0 445.59,-20"/>
<text text-anchor="middle" x="400.84" y="-6.5" font-family="Helvetica,sans-Serif" font-size="10.00">pwm_hs_types.h</text>
</a>
</g>
</g>
<!-- Node4&#45;&gt;Node7 -->
<g id="edge8_Node000004_Node000007" class="edge">
<title>Node4&#45;&gt;Node7</title>
<g id="a_edge8_Node000004_Node000007"><a xlink:title=" ">
<path fill="none" stroke="#63b8ff" d="M308.07,-115.26C351.6,-108.38 415.11,-95.31 429.84,-76 441.01,-61.35 429.34,-41.73 417.64,-27.88"/>
<polygon fill="#63b8ff" stroke="#63b8ff" points="420.88,-26.14 411.55,-21.11 415.7,-30.86 420.88,-26.14"/>
</a>
</g>
</g>
<!-- Node8 -->
<g id="Node000008" class="node">
<title>Node8</title>
<g id="a_Node000008"><a xlink:href="a00158_source.html" target="_top" xlink:title=" ">
<polygon fill="white" stroke="#666666" points="316.96,-76 214.71,-76 214.71,-56 316.96,-56 316.96,-76"/>
<text text-anchor="middle" x="265.84" y="-62.5" font-family="Helvetica,sans-Serif" font-size="10.00">pwm_hs_interface.h</text>
</a>
</g>
</g>
<!-- Node4&#45;&gt;Node8 -->
<g id="edge9_Node000004_Node000008" class="edge">
<title>Node4&#45;&gt;Node8</title>
<g id="a_edge9_Node000004_Node000008"><a xlink:title=" ">
<path fill="none" stroke="#63b8ff" d="M265.84,-111.59C265.84,-104.86 265.84,-95.53 265.84,-87.15"/>
<polygon fill="#63b8ff" stroke="#63b8ff" points="269.34,-87.3 265.84,-77.3 262.34,-87.3 269.34,-87.3"/>
</a>
</g>
</g>
<!-- Node8&#45;&gt;Node3 -->
<g id="edge10_Node000008_Node000003" class="edge">
<title>Node8&#45;&gt;Node3</title>
<g id="a_edge10_Node000008_Node000003"><a xlink:title=" ">
<path fill="none" stroke="#63b8ff" d="M241.45,-55.59C219.11,-46.97 185.77,-34.12 160.63,-24.42"/>
<polygon fill="#63b8ff" stroke="#63b8ff" points="162,-20.81 151.41,-20.48 159.49,-27.34 162,-20.81"/>
</a>
</g>
</g>
<!-- Node8&#45;&gt;Node5 -->
<g id="edge11_Node000008_Node000005" class="edge">
<title>Node8&#45;&gt;Node5</title>
<g id="a_edge11_Node000008_Node000005"><a xlink:title=" ">
<path fill="none" stroke="#63b8ff" d="M265.84,-55.59C265.84,-48.86 265.84,-39.53 265.84,-31.15"/>
<polygon fill="#63b8ff" stroke="#63b8ff" points="269.34,-31.3 265.84,-21.3 262.34,-31.3 269.34,-31.3"/>
</a>
</g>
</g>
<!-- Node8&#45;&gt;Node7 -->
<g id="edge12_Node000008_Node000007" class="edge">
<title>Node8&#45;&gt;Node7</title>
<g id="a_edge12_Node000008_Node000007"><a xlink:title=" ">
<path fill="none" stroke="#63b8ff" d="M289.35,-55.59C310.81,-47.01 342.76,-34.23 366.96,-24.55"/>
<polygon fill="#63b8ff" stroke="#63b8ff" points="368.15,-27.44 376.14,-20.48 365.56,-20.94 368.15,-27.44"/>
</a>
</g>
</g>
<!-- Node10 -->
<g id="Node000010" class="node">
<title>Node10</title>
<g id="a_Node000010"><a xlink:href="a00380.html" target="_top" xlink:title="Contains fault data types.">
<polygon fill="white" stroke="#666666" points="182.84,-132 82.84,-132 82.84,-112 182.84,-112 182.84,-132"/>
<text text-anchor="middle" x="132.84" y="-118.5" font-family="Helvetica,sans-Serif" font-size="10.00">fault/fault_typedef.h</text>
</a>
</g>
</g>
<!-- Node9&#45;&gt;Node10 -->
<g id="edge14_Node000009_Node000010" class="edge">
<title>Node9&#45;&gt;Node10</title>
<g id="a_edge14_Node000009_Node000010"><a xlink:title=" ">
<path fill="none" stroke="#63b8ff" d="M130.36,-167.59C130.74,-160.86 131.25,-151.53 131.72,-143.15"/>
<polygon fill="#63b8ff" stroke="#63b8ff" points="135.26,-143.48 132.32,-133.3 128.27,-143.09 135.26,-143.48"/>
</a>
</g>
</g>
<!-- Node11 -->
<g id="Node000011" class="node">
<title>Node11</title>
<g id="a_Node000011"><a xlink:href="a00371.html" target="_top" xlink:title="Contains fault generic public functions.">
<polygon fill="white" stroke="#666666" points="106.34,-76 21.34,-76 21.34,-56 106.34,-56 106.34,-76"/>
<text text-anchor="middle" x="63.84" y="-62.5" font-family="Helvetica,sans-Serif" font-size="10.00">fault_common.h</text>
</a>
</g>
</g>
<!-- Node10&#45;&gt;Node11 -->
<g id="edge15_Node000010_Node000011" class="edge">
<title>Node10&#45;&gt;Node11</title>
<g id="a_edge15_Node000010_Node000011"><a xlink:title=" ">
<path fill="none" stroke="#63b8ff" d="M120.82,-111.59C110.73,-103.7 96.09,-92.24 84.18,-82.92"/>
<polygon fill="#63b8ff" stroke="#63b8ff" points="86.75,-79.71 76.72,-76.3 82.44,-85.22 86.75,-79.71"/>
</a>
</g>
</g>
<!-- Node11&#45;&gt;Node3 -->
<g id="edge17_Node000011_Node000003" class="edge">
<title>Node11&#45;&gt;Node3</title>
<g id="a_edge17_Node000011_Node000003"><a xlink:title=" ">
<path fill="none" stroke="#63b8ff" d="M74.64,-55.59C83.53,-47.85 96.34,-36.69 106.93,-27.47"/>
<polygon fill="#63b8ff" stroke="#63b8ff" points="108.92,-29.51 114.16,-20.3 104.32,-24.23 108.92,-29.51"/>
</a>
</g>
</g>
<!-- Node11&#45;&gt;Node5 -->
<g id="edge16_Node000011_Node000005" class="edge">
<title>Node11&#45;&gt;Node5</title>
<g id="a_edge16_Node000011_Node000005"><a xlink:title=" ">
<path fill="none" stroke="#63b8ff" d="M99.02,-55.59C136.06,-45.69 194.01,-30.2 230.94,-20.33"/>
<polygon fill="#63b8ff" stroke="#63b8ff" points="231.46,-23.54 240.22,-17.58 229.66,-16.78 231.46,-23.54"/>
</a>
</g>
</g>
</g>
</svg>
