<?xml version="1.0" encoding="UTF-8" standalone="no"?>
<!DOCTYPE svg PUBLIC "-//W3C//DTD SVG 1.1//EN"
 "http://www.w3.org/Graphics/SVG/1.1/DTD/svg11.dtd">
<!-- Generated by graphviz version 8.1.0 (20230707.0739)
 -->
<!-- Title: dspic33ck&#45;dab.X/sources/pwrctrl/pwrctrl.c Pages: 1 -->
<!--zoomable 388 -->

<svg id="main" version="1.1" xmlns="http://www.w3.org/2000/svg" xmlns:xlink="http://www.w3.org/1999/xlink" xml:space="preserve" onload="init(evt)">
<style type="text/css"><![CDATA[
.node, .edge {opacity: 0.7;}
.node.selected, .edge.selected {opacity: 1;}
.edge:hover path { stroke: red; }
.edge:hover polygon { stroke: red; fill: red; }
]]></style>

<defs>
  <circle id="rim" cx="0" cy="0" r="7"/>
  <circle id="rim2" cx="0" cy="0" r="3.5"/>
  <g id="zoomPlus">
    <use xlink:href="#rim" fill="#404040"><set attributeName="fill" to="#808080" begin="zoomplus.mouseover" end="zoomplus.mouseout"/></use>
    <path d="M-4,0h8M0,-4v8" fill="none" stroke="white" stroke-width="1.5" pointer-events="none"/>
  </g>
  <g id="zoomMin">
    <use xlink:href="#rim" fill="#404040"><set attributeName="fill" to="#808080" begin="zoomminus.mouseover" end="zoomminus.mouseout"/></use>
    <path d="M-4,0h8" fill="none" stroke="white" stroke-width="1.5" pointer-events="none"/>
  </g>
  <g id="arrowUp" transform="translate(30 24)">
    <use xlink:href="#rim"/>
    <path pointer-events="none" fill="none" stroke="white" stroke-width="1.5" d="M0,-3.0v7 M-2.5,-0.5L0,-3.0L2.5,-0.5"/>
  </g>
  <g id="arrowRight" transform="rotate(90) translate(36 -43)">
    <use xlink:href="#rim"/>
    <path pointer-events="none" fill="none" stroke="white" stroke-width="1.5" d="M0,-3.0v7 M-2.5,-0.5L0,-3.0L2.5,-0.5"/>
  </g>
  <g id="arrowDown" transform="rotate(180) translate(-30 -48)">
    <use xlink:href="#rim"/>
    <path pointer-events="none" fill="none" stroke="white" stroke-width="1.5" d="M0,-3.0v7 M-2.5,-0.5L0,-3.0L2.5,-0.5"/>
  </g>
  <g id="arrowLeft" transform="rotate(270) translate(-36 17)">
    <use xlink:href="#rim"/>
    <path pointer-events="none" fill="none" stroke="white" stroke-width="1.5" d="M0,-3.0v7 M-2.5,-0.5L0,-3.0L2.5,-0.5"/>
  </g>
  <g id="resetDef">
    <use xlink:href="#rim2" fill="#404040"><set attributeName="fill" to="#808080" begin="reset.mouseover" end="reset.mouseout"/></use>
  </g>
</defs>
<script type="application/ecmascript">
var viewWidth = 2358;
var viewHeight = 388;
var sectionId = 'dynsection-0';
</script>
<script type="application/ecmascript" xlink:href="svg.min.js"/>
<svg id="graph" class="graph">
<g id="viewport">
<title>dspic33ck&#45;dab.X/sources/pwrctrl/pwrctrl.c</title>
<!-- Node1 -->
<g id="Node000001" class="node">
<title>Node1</title>
<g id="a_Node000001"><a xlink:title="Contains power control initialization including control loop initialization and start&#45;up initializati...">
<polygon fill="#999999" stroke="#666666" points="591.38,-380 466.62,-380 466.62,-348 591.38,-348 591.38,-380"/>
<text text-anchor="start" x="474.62" y="-366.5" font-family="Helvetica,sans-Serif" font-size="10.00">dspic33ck&#45;dab.X/sources</text>
<text text-anchor="middle" x="529" y="-354.5" font-family="Helvetica,sans-Serif" font-size="10.00">/pwrctrl/pwrctrl.c</text>
</a>
</g>
</g>
<!-- Node2 -->
<g id="Node000002" class="node">
<title>Node2</title>
<g id="a_Node000002"><a xlink:title=" ">
<polygon fill="#e0e0e0" stroke="#999999" points="499.38,-20 464.62,-20 464.62,0 499.38,0 499.38,-20"/>
<text text-anchor="middle" x="482" y="-6.5" font-family="Helvetica,sans-Serif" font-size="10.00">xc.h</text>
</a>
</g>
</g>
<!-- Node1&#45;&gt;Node2 -->
<g id="edge1_Node000001_Node000002" class="edge">
<title>Node1&#45;&gt;Node2</title>
<g id="a_edge1_Node000001_Node000002"><a xlink:title=" ">
<path fill="none" stroke="#63b8ff" d="M466.32,-361.25C333.95,-355.85 38,-334.04 38,-247 38,-247 38,-247 38,-133 38,-82.03 76.67,-77.27 123,-56 181.93,-28.95 379.3,-16.26 453.49,-12.36"/>
<polygon fill="#63b8ff" stroke="#63b8ff" points="453.49,-15.82 463.3,-11.81 453.13,-8.83 453.49,-15.82"/>
</a>
</g>
</g>
<!-- Node3 -->
<g id="Node000003" class="node">
<title>Node3</title>
<g id="a_Node000003"><a xlink:href="a00176.html" target="_top" xlink:title="This is the generated driver types header file for the PWM driver.">
<polygon fill="white" stroke="#666666" points="140.25,-20 11.75,-20 11.75,0 140.25,0 140.25,-20"/>
<text text-anchor="middle" x="76" y="-6.5" font-family="Helvetica,sans-Serif" font-size="10.00">pwm_hs/pwm_hs_types.h</text>
</a>
</g>
</g>
<!-- Node1&#45;&gt;Node3 -->
<g id="edge2_Node000001_Node000003" class="edge">
<title>Node1&#45;&gt;Node3</title>
<g id="a_edge2_Node000001_Node000003"><a xlink:title=" ">
<path fill="none" stroke="#63b8ff" d="M466.27,-361.01C357.1,-356.74 137.23,-344.3 68,-312 30.11,-294.32 0,-288.81 0,-247 0,-247 0,-247 0,-133 0,-90.07 34.32,-49.75 56.83,-27.91"/>
<polygon fill="#63b8ff" stroke="#63b8ff" points="58.87,-30.87 63.79,-21.48 54.09,-25.75 58.87,-30.87"/>
</a>
</g>
</g>
<!-- Node4 -->
<g id="Node000004" class="node">
<title>Node4</title>
<g id="a_Node000004"><a xlink:href="a00167.html" target="_top" xlink:title="This is the generated driver header file for the PWM driver.">
<polygon fill="white" stroke="#666666" points="300.75,-144 217.25,-144 217.25,-124 300.75,-124 300.75,-144"/>
<text text-anchor="middle" x="259" y="-130.5" font-family="Helvetica,sans-Serif" font-size="10.00">pwm_hs/pwm.h</text>
</a>
</g>
</g>
<!-- Node1&#45;&gt;Node4 -->
<g id="edge3_Node000001_Node000004" class="edge">
<title>Node1&#45;&gt;Node4</title>
<g id="a_edge3_Node000001_Node000004"><a xlink:title=" ">
<path fill="none" stroke="#63b8ff" d="M510.87,-347.69C462.11,-306.52 328.53,-193.71 278.37,-151.36"/>
<polygon fill="#63b8ff" stroke="#63b8ff" points="280.92,-148.08 271.02,-144.3 276.4,-153.43 280.92,-148.08"/>
</a>
</g>
</g>
<!-- Node9 -->
<g id="Node000009" class="node">
<title>Node9</title>
<g id="a_Node000009"><a xlink:href="a00308_source.html" target="_top" xlink:title=" ">
<polygon fill="white" stroke="#666666" points="648.5,-144 563.5,-144 563.5,-124 648.5,-124 648.5,-144"/>
<text text-anchor="middle" x="606" y="-130.5" font-family="Helvetica,sans-Serif" font-size="10.00">config/macros.h</text>
</a>
</g>
</g>
<!-- Node1&#45;&gt;Node9 -->
<g id="edge13_Node000001_Node000009" class="edge">
<title>Node1&#45;&gt;Node9</title>
<g id="a_edge13_Node000001_Node000009"><a xlink:title=" ">
<path fill="none" stroke="#63b8ff" d="M529.46,-347.71C530.6,-323.4 534.52,-274.74 548,-236 558.75,-205.1 579.08,-172.92 592.59,-153.41"/>
<polygon fill="#63b8ff" stroke="#63b8ff" points="596.02,-155.63 598.94,-145.44 590.3,-151.58 596.02,-155.63"/>
</a>
</g>
</g>
<!-- Node15 -->
<g id="Node000015" class="node">
<title>Node15</title>
<g id="a_Node000015"><a xlink:href="a00464_source.html" target="_top" xlink:title=" ">
<polygon fill="white" stroke="#666666" points="725.38,-312 672.62,-312 672.62,-292 725.38,-292 725.38,-312"/>
<text text-anchor="middle" x="699" y="-298.5" font-family="Helvetica,sans-Serif" font-size="10.00">pwrctrl.h</text>
</a>
</g>
</g>
<!-- Node1&#45;&gt;Node15 -->
<g id="edge27_Node000001_Node000015" class="edge">
<title>Node1&#45;&gt;Node15</title>
<g id="a_edge27_Node000001_Node000015"><a xlink:title=" ">
<path fill="none" stroke="#63b8ff" d="M572.78,-347.55C600.45,-337.78 635.81,-325.3 662.06,-316.04"/>
<polygon fill="#63b8ff" stroke="#63b8ff" points="663.08,-319.04 671.34,-312.41 660.75,-312.44 663.08,-319.04"/>
</a>
</g>
</g>
<!-- Node23 -->
<g id="Node000023" class="node">
<title>Node23</title>
<g id="a_Node000023"><a xlink:href="a00380.html" target="_top" xlink:title="Contains public fault functions.">
<polygon fill="white" stroke="#666666" points="1097.62,-312 1034.38,-312 1034.38,-292 1097.62,-292 1097.62,-312"/>
<text text-anchor="middle" x="1066" y="-298.5" font-family="Helvetica,sans-Serif" font-size="10.00">fault/fault.h</text>
</a>
</g>
</g>
<!-- Node1&#45;&gt;Node23 -->
<g id="edge39_Node000001_Node000023" class="edge">
<title>Node1&#45;&gt;Node23</title>
<g id="a_edge39_Node000001_Node000023"><a xlink:title=" ">
<path fill="none" stroke="#63b8ff" d="M591.65,-356C702.12,-343.66 928.76,-318.33 1023.21,-307.78"/>
<polygon fill="#63b8ff" stroke="#63b8ff" points="1023.5,-311.16 1033.05,-306.57 1022.72,-304.2 1023.5,-311.16"/>
</a>
</g>
</g>
<!-- Node27 -->
<g id="Node000027" class="node">
<title>Node27</title>
<g id="a_Node000027"><a xlink:href="a00443.html" target="_top" xlink:title="Contains public functions and data types relevant for DCDT file interface.">
<polygon fill="white" stroke="#666666" points="1555.25,-144 1456.75,-144 1456.75,-124 1555.25,-124 1555.25,-144"/>
<text text-anchor="middle" x="1506" y="-130.5" font-family="Helvetica,sans-Serif" font-size="10.00">dcdt/pwrctrl_dcdt.h</text>
</a>
</g>
</g>
<!-- Node1&#45;&gt;Node27 -->
<g id="edge56_Node000001_Node000027" class="edge">
<title>Node1&#45;&gt;Node27</title>
<g id="a_edge56_Node000001_Node000027"><a xlink:title=" ">
<path fill="none" stroke="#63b8ff" d="M591.87,-360.39C723.83,-354.47 1025.71,-338.43 1125,-312 1267.58,-274.05 1422.74,-185.55 1481.56,-150.09"/>
<polygon fill="#63b8ff" stroke="#63b8ff" points="1483.05,-152.67 1489.78,-144.49 1479.42,-146.69 1483.05,-152.67"/>
</a>
</g>
</g>
<!-- Node4&#45;&gt;Node2 -->
<g id="edge4_Node000004_Node000002" class="edge">
<title>Node4&#45;&gt;Node2</title>
<g id="a_edge4_Node000004_Node000002"><a xlink:title=" ">
<path fill="none" stroke="#63b8ff" d="M216.99,-130.12C188.17,-125.7 151.87,-114.77 133,-88 124.81,-76.37 123.61,-66.68 133,-56 154.15,-31.95 374.8,-17.11 453.94,-12.52"/>
<polygon fill="#63b8ff" stroke="#63b8ff" points="453.77,-15.98 463.55,-11.92 453.37,-8.99 453.77,-15.98"/>
</a>
</g>
</g>
<!-- Node4&#45;&gt;Node3 -->
<g id="edge8_Node000004_Node000003" class="edge">
<title>Node4&#45;&gt;Node3</title>
<g id="a_edge8_Node000004_Node000003"><a xlink:title=" ">
<path fill="none" stroke="#63b8ff" d="M217.06,-131.82C181.43,-128.59 131.24,-118.43 100,-88 84.67,-73.07 79.09,-48.52 77.08,-31.16"/>
<polygon fill="#63b8ff" stroke="#63b8ff" points="80.49,-30.94 76.18,-21.27 73.52,-31.52 80.49,-30.94"/>
</a>
</g>
</g>
<!-- Node5 -->
<g id="Node000005" class="node">
<title>Node5</title>
<g id="a_Node000005"><a xlink:title=" ">
<polygon fill="#e0e0e0" stroke="#999999" points="828.12,-20 779.88,-20 779.88,0 828.12,0 828.12,-20"/>
<text text-anchor="middle" x="804" y="-6.5" font-family="Helvetica,sans-Serif" font-size="10.00">stdint.h</text>
</a>
</g>
</g>
<!-- Node4&#45;&gt;Node5 -->
<g id="edge5_Node000004_Node000005" class="edge">
<title>Node4&#45;&gt;Node5</title>
<g id="a_edge5_Node000004_Node000005"><a xlink:title=" ">
<path fill="none" stroke="#63b8ff" d="M272.03,-123.55C284.3,-114.59 303.1,-100.64 319,-88 336.28,-74.26 336.66,-64.6 357,-56 431.14,-24.64 676.35,-14.6 768.54,-11.88"/>
<polygon fill="#63b8ff" stroke="#63b8ff" points="768.61,-15.35 778.5,-11.57 768.41,-8.36 768.61,-15.35"/>
</a>
</g>
</g>
<!-- Node6 -->
<g id="Node000006" class="node">
<title>Node6</title>
<g id="a_Node000006"><a xlink:title=" ">
<polygon fill="#e0e0e0" stroke="#999999" points="1002.88,-20 947.12,-20 947.12,0 1002.88,0 1002.88,-20"/>
<text text-anchor="middle" x="975" y="-6.5" font-family="Helvetica,sans-Serif" font-size="10.00">stdbool.h</text>
</a>
</g>
</g>
<!-- Node4&#45;&gt;Node6 -->
<g id="edge6_Node000004_Node000006" class="edge">
<title>Node4&#45;&gt;Node6</title>
<g id="a_edge6_Node000004_Node000006"><a xlink:title=" ">
<path fill="none" stroke="#63b8ff" d="M300.9,-131.24C408.71,-126.42 693.64,-111.76 785,-88 818.5,-79.29 824.02,-69.24 856,-56 883.43,-44.64 914.86,-32.81 938.53,-24.13"/>
<polygon fill="#63b8ff" stroke="#63b8ff" points="939.62,-27.09 947.82,-20.37 937.22,-20.51 939.62,-27.09"/>
</a>
</g>
</g>
<!-- Node7 -->
<g id="Node000007" class="node">
<title>Node7</title>
<g id="a_Node000007"><a xlink:title=" ">
<polygon fill="#e0e0e0" stroke="#999999" points="189.75,-82 142.25,-82 142.25,-62 189.75,-62 189.75,-82"/>
<text text-anchor="middle" x="166" y="-68.5" font-family="Helvetica,sans-Serif" font-size="10.00">stdlib.h</text>
</a>
</g>
</g>
<!-- Node4&#45;&gt;Node7 -->
<g id="edge7_Node000004_Node000007" class="edge">
<title>Node4&#45;&gt;Node7</title>
<g id="a_edge7_Node000004_Node000007"><a xlink:title=" ">
<path fill="none" stroke="#63b8ff" d="M244.47,-123.62C229.73,-114.11 206.68,-99.24 189.37,-88.08"/>
<polygon fill="#63b8ff" stroke="#63b8ff" points="191.73,-84.79 181.43,-82.31 187.93,-90.67 191.73,-84.79"/>
</a>
</g>
</g>
<!-- Node8 -->
<g id="Node000008" class="node">
<title>Node8</title>
<g id="a_Node000008"><a xlink:href="a00173_source.html" target="_top" xlink:title=" ">
<polygon fill="white" stroke="#666666" points="310.12,-82 207.88,-82 207.88,-62 310.12,-62 310.12,-82"/>
<text text-anchor="middle" x="259" y="-68.5" font-family="Helvetica,sans-Serif" font-size="10.00">pwm_hs_interface.h</text>
</a>
</g>
</g>
<!-- Node4&#45;&gt;Node8 -->
<g id="edge9_Node000004_Node000008" class="edge">
<title>Node4&#45;&gt;Node8</title>
<g id="a_edge9_Node000004_Node000008"><a xlink:title=" ">
<path fill="none" stroke="#63b8ff" d="M259,-123.62C259,-115.48 259,-103.39 259,-93.07"/>
<polygon fill="#63b8ff" stroke="#63b8ff" points="262.5,-93.11 259,-83.11 255.5,-93.11 262.5,-93.11"/>
</a>
</g>
</g>
<!-- Node8&#45;&gt;Node3 -->
<g id="edge12_Node000008_Node000003" class="edge">
<title>Node8&#45;&gt;Node3</title>
<g id="a_edge12_Node000008_Node000003"><a xlink:title=" ">
<path fill="none" stroke="#63b8ff" d="M230.41,-61.62C199.34,-51.44 149.53,-35.11 114.91,-23.76"/>
<polygon fill="#63b8ff" stroke="#63b8ff" points="116.29,-20.2 105.69,-20.41 114.11,-26.85 116.29,-20.2"/>
</a>
</g>
</g>
<!-- Node8&#45;&gt;Node5 -->
<g id="edge11_Node000008_Node000005" class="edge">
<title>Node8&#45;&gt;Node5</title>
<g id="a_edge11_Node000008_Node000005"><a xlink:title=" ">
<path fill="none" stroke="#63b8ff" d="M295.95,-61.57C305.08,-59.5 314.85,-57.48 324,-56 488.99,-29.35 688.63,-16.9 768.48,-12.71"/>
<polygon fill="#63b8ff" stroke="#63b8ff" points="768.57,-16.16 778.38,-12.15 768.21,-9.16 768.57,-16.16"/>
</a>
</g>
</g>
<!-- Node8&#45;&gt;Node6 -->
<g id="edge10_Node000008_Node000006" class="edge">
<title>Node8&#45;&gt;Node6</title>
<g id="a_edge10_Node000008_Node000006"><a xlink:title=" ">
<path fill="none" stroke="#63b8ff" d="M310.52,-62.33C325.48,-60.03 341.86,-57.71 357,-56 414.33,-49.54 809.55,-22.31 936.11,-13.65"/>
<polygon fill="#63b8ff" stroke="#63b8ff" points="936.08,-17.09 945.82,-12.92 935.6,-10.11 936.08,-17.09"/>
</a>
</g>
</g>
<!-- Node9&#45;&gt;Node2 -->
<g id="edge14_Node000009_Node000002" class="edge">
<title>Node9&#45;&gt;Node2</title>
<g id="a_edge14_Node000009_Node000002"><a xlink:title=" ">
<path fill="none" stroke="#63b8ff" d="M563.21,-124.24C541.64,-117.71 516.79,-106.6 501,-88 487.59,-72.21 483.38,-48.37 482.19,-31.41"/>
<polygon fill="#63b8ff" stroke="#63b8ff" points="485.65,-31.35 481.76,-21.49 478.65,-31.62 485.65,-31.35"/>
</a>
</g>
</g>
<!-- Node9&#45;&gt;Node5 -->
<g id="edge15_Node000009_Node000005" class="edge">
<title>Node9&#45;&gt;Node5</title>
<g id="a_edge15_Node000009_Node000005"><a xlink:title=" ">
<path fill="none" stroke="#63b8ff" d="M648.6,-127.4C695.28,-120.41 766.07,-107.02 785,-88 799.85,-73.09 803.74,-48.54 804.46,-31.17"/>
<polygon fill="#63b8ff" stroke="#63b8ff" points="807.97,-31.3 804.55,-21.27 800.97,-31.24 807.97,-31.3"/>
</a>
</g>
</g>
<!-- Node9&#45;&gt;Node6 -->
<g id="edge16_Node000009_Node000006" class="edge">
<title>Node9&#45;&gt;Node6</title>
<g id="a_edge16_Node000009_Node000006"><a xlink:title=" ">
<path fill="none" stroke="#63b8ff" d="M648.85,-131.24C700.05,-127.81 787.41,-117.72 856,-88 877.86,-78.53 879.17,-69.2 899,-56 915.08,-45.3 933.73,-34.24 948.53,-25.76"/>
<polygon fill="#63b8ff" stroke="#63b8ff" points="950.11,-28.32 957.08,-20.34 946.66,-22.23 950.11,-28.32"/>
</a>
</g>
</g>
<!-- Node10 -->
<g id="Node000010" class="node">
<title>Node10</title>
<g id="a_Node000010"><a xlink:title=" ">
<polygon fill="#e0e0e0" stroke="#999999" points="2211.25,-20 2160.75,-20 2160.75,0 2211.25,0 2211.25,-20"/>
<text text-anchor="middle" x="2186" y="-6.5" font-family="Helvetica,sans-Serif" font-size="10.00">stddef.h</text>
</a>
</g>
</g>
<!-- Node9&#45;&gt;Node10 -->
<g id="edge17_Node000009_Node000010" class="edge">
<title>Node9&#45;&gt;Node10</title>
<g id="a_edge17_Node000009_Node000010"><a xlink:title=" ">
<path fill="none" stroke="#63b8ff" d="M648.96,-133.12C731.74,-132.42 918.56,-126.28 1070,-88 1105.53,-79.02 1110.24,-64.03 1146,-56 1343.17,-11.73 1989.5,-10.46 2149.78,-10.85"/>
<polygon fill="#63b8ff" stroke="#63b8ff" points="2149.46,-14.35 2159.47,-10.88 2149.48,-7.35 2149.46,-14.35"/>
</a>
</g>
</g>
<!-- Node11 -->
<g id="Node000011" class="node">
<title>Node11</title>
<g id="a_Node000011"><a xlink:title=" ">
<polygon fill="#e0e0e0" stroke="#999999" points="556,-82 510,-82 510,-62 556,-62 556,-82"/>
<text text-anchor="middle" x="533" y="-68.5" font-family="Helvetica,sans-Serif" font-size="10.00">math.h</text>
</a>
</g>
</g>
<!-- Node9&#45;&gt;Node11 -->
<g id="edge18_Node000009_Node000011" class="edge">
<title>Node9&#45;&gt;Node11</title>
<g id="a_edge18_Node000009_Node000011"><a xlink:title=" ">
<path fill="none" stroke="#63b8ff" d="M594.59,-123.62C583.28,-114.32 565.73,-99.9 552.25,-88.82"/>
<polygon fill="#63b8ff" stroke="#63b8ff" points="555.03,-85.76 545.09,-82.11 550.59,-91.17 555.03,-85.76"/>
</a>
</g>
</g>
<!-- Node12 -->
<g id="Node000012" class="node">
<title>Node12</title>
<g id="a_Node000012"><a xlink:href="a00311_source.html" target="_top" xlink:title=" ">
<polygon fill="white" stroke="#666666" points="453.62,-82 366.38,-82 366.38,-62 453.62,-62 453.62,-82"/>
<text text-anchor="middle" x="410" y="-68.5" font-family="Helvetica,sans-Serif" font-size="10.00">useful_macros.h</text>
</a>
</g>
</g>
<!-- Node9&#45;&gt;Node12 -->
<g id="edge19_Node000009_Node000012" class="edge">
<title>Node9&#45;&gt;Node12</title>
<g id="a_edge19_Node000009_Node000012"><a xlink:title=" ">
<path fill="none" stroke="#63b8ff" d="M575.38,-123.62C541.96,-113.4 488.29,-96.97 451.2,-85.61"/>
<polygon fill="#63b8ff" stroke="#63b8ff" points="452.32,-81.99 441.73,-82.41 450.27,-88.68 452.32,-81.99"/>
</a>
</g>
</g>
<!-- Node13 -->
<g id="Node000013" class="node">
<title>Node13</title>
<g id="a_Node000013"><a xlink:href="a00302_source.html" target="_top" xlink:title=" ">
<polygon fill="white" stroke="#666666" points="957.88,-82 908.12,-82 908.12,-62 957.88,-62 957.88,-82"/>
<text text-anchor="middle" x="933" y="-68.5" font-family="Helvetica,sans-Serif" font-size="10.00">config.h</text>
</a>
</g>
</g>
<!-- Node9&#45;&gt;Node13 -->
<g id="edge21_Node000009_Node000013" class="edge">
<title>Node9&#45;&gt;Node13</title>
<g id="a_edge21_Node000009_Node000013"><a xlink:title=" ">
<path fill="none" stroke="#63b8ff" d="M648.55,-129.2C705.27,-123.49 808.44,-110.86 894,-88 896.19,-87.41 898.43,-86.75 900.67,-86.03"/>
<polygon fill="#63b8ff" stroke="#63b8ff" points="901.72,-89.02 910,-82.4 899.4,-82.41 901.72,-89.02"/>
</a>
</g>
</g>
<!-- Node14 -->
<g id="Node000014" class="node">
<title>Node14</title>
<g id="a_Node000014"><a xlink:href="a00305_source.html" target="_top" xlink:title=" ">
<polygon fill="white" stroke="#666666" points="637.62,-82 574.38,-82 574.38,-62 637.62,-62 637.62,-82"/>
<text text-anchor="middle" x="606" y="-68.5" font-family="Helvetica,sans-Serif" font-size="10.00">hardware.h</text>
</a>
</g>
</g>
<!-- Node9&#45;&gt;Node14 -->
<g id="edge26_Node000009_Node000014" class="edge">
<title>Node9&#45;&gt;Node14</title>
<g id="a_edge26_Node000009_Node000014"><a xlink:title=" ">
<path fill="none" stroke="#63b8ff" d="M606,-123.62C606,-115.48 606,-103.39 606,-93.07"/>
<polygon fill="#63b8ff" stroke="#63b8ff" points="609.5,-93.11 606,-83.11 602.5,-93.11 609.5,-93.11"/>
</a>
</g>
</g>
<!-- Node12&#45;&gt;Node2 -->
<g id="edge20_Node000012_Node000002" class="edge">
<title>Node12&#45;&gt;Node2</title>
<g id="a_edge20_Node000012_Node000002"><a xlink:title=" ">
<path fill="none" stroke="#63b8ff" d="M421.25,-61.62C432.3,-52.41 449.39,-38.17 462.63,-27.14"/>
<polygon fill="#63b8ff" stroke="#63b8ff" points="464.62,-29.2 470.06,-20.11 460.14,-23.83 464.62,-29.2"/>
</a>
</g>
</g>
<!-- Node13&#45;&gt;Node2 -->
<g id="edge22_Node000013_Node000002" class="edge">
<title>Node13&#45;&gt;Node2</title>
<g id="a_edge22_Node000013_Node000002"><a xlink:title=" ">
<path fill="none" stroke="#63b8ff" d="M907.79,-67.65C829.73,-57.26 592.41,-25.69 510.31,-14.77"/>
<polygon fill="#63b8ff" stroke="#63b8ff" points="510.95,-11.19 500.57,-13.34 510.02,-18.13 510.95,-11.19"/>
</a>
</g>
</g>
<!-- Node13&#45;&gt;Node5 -->
<g id="edge23_Node000013_Node000005" class="edge">
<title>Node13&#45;&gt;Node5</title>
<g id="a_edge23_Node000013_Node000005"><a xlink:title=" ">
<path fill="none" stroke="#63b8ff" d="M912.84,-61.62C891.64,-51.76 858.04,-36.13 833.78,-24.85"/>
<polygon fill="#63b8ff" stroke="#63b8ff" points="835.56,-21.35 825.01,-20.31 832.61,-27.7 835.56,-21.35"/>
</a>
</g>
</g>
<!-- Node13&#45;&gt;Node6 -->
<g id="edge24_Node000013_Node000006" class="edge">
<title>Node13&#45;&gt;Node6</title>
<g id="a_edge24_Node000013_Node000006"><a xlink:title=" ">
<path fill="none" stroke="#63b8ff" d="M939.56,-61.62C945.64,-52.94 954.84,-39.8 962.35,-29.08"/>
<polygon fill="#63b8ff" stroke="#63b8ff" points="965.75,-31.31 968.62,-21.11 960.02,-27.3 965.75,-31.31"/>
</a>
</g>
</g>
<!-- Node13&#45;&gt;Node10 -->
<g id="edge25_Node000013_Node000010" class="edge">
<title>Node13&#45;&gt;Node10</title>
<g id="a_edge25_Node000013_Node000010"><a xlink:title=" ">
<path fill="none" stroke="#63b8ff" d="M950.91,-61.59C955.98,-59.35 961.59,-57.24 967,-56 1084.62,-28.93 1959.41,-14.39 2149.58,-11.53"/>
<polygon fill="#63b8ff" stroke="#63b8ff" points="2149.42,-15.01 2159.37,-11.37 2149.32,-8.02 2149.42,-15.01"/>
</a>
</g>
</g>
<!-- Node16 -->
<g id="Node000016" class="node">
<title>Node16</title>
<g id="a_Node000016"><a xlink:href="a00497_source.html" target="_top" xlink:title=" ">
<polygon fill="white" stroke="#666666" points="910.75,-200 821.25,-200 821.25,-180 910.75,-180 910.75,-200"/>
<text text-anchor="middle" x="866" y="-186.5" font-family="Helvetica,sans-Serif" font-size="10.00">pwrctrl_typedef.h</text>
</a>
</g>
</g>
<!-- Node15&#45;&gt;Node16 -->
<g id="edge28_Node000015_Node000016" class="edge">
<title>Node15&#45;&gt;Node16</title>
<g id="a_edge28_Node000015_Node000016"><a xlink:title=" ">
<path fill="none" stroke="#63b8ff" d="M689.89,-291.75C677.78,-278.31 659.4,-253.14 673,-236 689.89,-214.72 759.38,-202.57 810.15,-196.39"/>
<polygon fill="#63b8ff" stroke="#63b8ff" points="810.47,-199.75 819.99,-195.12 809.66,-192.8 810.47,-199.75"/>
</a>
</g>
</g>
<!-- Node19 -->
<g id="Node000019" class="node">
<title>Node19</title>
<g id="a_Node000019"><a xlink:href="a00470.html" target="_top" xlink:title="Contains the power control reusable functions.">
<polygon fill="white" stroke="#666666" points="1018.75,-256 923.25,-256 923.25,-236 1018.75,-236 1018.75,-256"/>
<text text-anchor="middle" x="971" y="-242.5" font-family="Helvetica,sans-Serif" font-size="10.00">pwrctrl_common.h</text>
</a>
</g>
</g>
<!-- Node15&#45;&gt;Node19 -->
<g id="edge33_Node000015_Node000019" class="edge">
<title>Node15&#45;&gt;Node19</title>
<g id="a_edge33_Node000015_Node000019"><a xlink:title=" ">
<path fill="none" stroke="#63b8ff" d="M725.58,-295.72C768.68,-287.17 854.82,-270.06 912.71,-258.57"/>
<polygon fill="#63b8ff" stroke="#63b8ff" points="913.04,-261.88 922.17,-256.5 911.68,-255.01 913.04,-261.88"/>
</a>
</g>
</g>
<!-- Node20 -->
<g id="Node000020" class="node">
<title>Node20</title>
<g id="a_Node000020"><a xlink:href="a00476.html" target="_top" xlink:title="Contains public functions relevant for power control communication interface.">
<polygon fill="white" stroke="#666666" points="808.5,-256 681.5,-256 681.5,-236 808.5,-236 808.5,-256"/>
<text text-anchor="middle" x="745" y="-242.5" font-family="Helvetica,sans-Serif" font-size="10.00">pwrctrl_comm_interface.h</text>
</a>
</g>
</g>
<!-- Node15&#45;&gt;Node20 -->
<g id="edge34_Node000015_Node000020" class="edge">
<title>Node15&#45;&gt;Node20</title>
<g id="a_edge34_Node000015_Node000020"><a xlink:title=" ">
<path fill="none" stroke="#63b8ff" d="M707.01,-291.59C713.34,-284.16 722.36,-273.58 730.02,-264.58"/>
<polygon fill="#63b8ff" stroke="#63b8ff" points="733.26,-267.18 737.08,-257.3 727.93,-262.64 733.26,-267.18"/>
</a>
</g>
</g>
<!-- Node21 -->
<g id="Node000021" class="node">
<title>Node21</title>
<g id="a_Node000021"><a xlink:href="a00482.html" target="_top" xlink:title="Contains public function relevant for power control interrupt.">
<polygon fill="white" stroke="#666666" points="625.25,-256 556.75,-256 556.75,-236 625.25,-236 625.25,-256"/>
<text text-anchor="middle" x="591" y="-242.5" font-family="Helvetica,sans-Serif" font-size="10.00">pwrctrl_isr.h</text>
</a>
</g>
</g>
<!-- Node15&#45;&gt;Node21 -->
<g id="edge36_Node000015_Node000021" class="edge">
<title>Node15&#45;&gt;Node21</title>
<g id="a_edge36_Node000015_Node000021"><a xlink:title=" ">
<path fill="none" stroke="#63b8ff" d="M680.19,-291.59C663.49,-283.24 638.83,-270.92 619.68,-261.34"/>
<polygon fill="#63b8ff" stroke="#63b8ff" points="621.47,-257.82 610.96,-256.48 618.34,-264.08 621.47,-257.82"/>
</a>
</g>
</g>
<!-- Node22 -->
<g id="Node000022" class="node">
<title>Node22</title>
<g id="a_Node000022"><a xlink:href="a00491.html" target="_top" xlink:title="Contains public functions for PWM.">
<polygon fill="white" stroke="#666666" points="905.12,-256 826.88,-256 826.88,-236 905.12,-236 905.12,-256"/>
<text text-anchor="middle" x="866" y="-242.5" font-family="Helvetica,sans-Serif" font-size="10.00">pwrctrl_pwm.h</text>
</a>
</g>
</g>
<!-- Node15&#45;&gt;Node22 -->
<g id="edge37_Node000015_Node000022" class="edge">
<title>Node15&#45;&gt;Node22</title>
<g id="a_edge37_Node000015_Node000022"><a xlink:title=" ">
<path fill="none" stroke="#63b8ff" d="M725.83,-292.32C752.97,-283.55 795.22,-269.89 826.24,-259.86"/>
<polygon fill="#63b8ff" stroke="#63b8ff" points="827.27,-262.88 835.71,-256.47 825.11,-256.22 827.27,-262.88"/>
</a>
</g>
</g>
<!-- Node17 -->
<g id="Node000017" class="node">
<title>Node17</title>
<g id="a_Node000017"><a xlink:href="a00395.html" target="_top" xlink:title="Contains fault data types.">
<polygon fill="white" stroke="#666666" points="1213,-144 1113,-144 1113,-124 1213,-124 1213,-144"/>
<text text-anchor="middle" x="1163" y="-130.5" font-family="Helvetica,sans-Serif" font-size="10.00">fault/fault_typedef.h</text>
</a>
</g>
</g>
<!-- Node16&#45;&gt;Node17 -->
<g id="edge29_Node000016_Node000017" class="edge">
<title>Node16&#45;&gt;Node17</title>
<g id="a_edge29_Node000016_Node000017"><a xlink:title=" ">
<path fill="none" stroke="#63b8ff" d="M911.11,-180.8C962.1,-171.53 1045.39,-156.38 1102.12,-146.07"/>
<polygon fill="#63b8ff" stroke="#63b8ff" points="1102.53,-149.37 1111.74,-144.14 1101.28,-142.48 1102.53,-149.37"/>
</a>
</g>
</g>
<!-- Node18 -->
<g id="Node000018" class="node">
<title>Node18</title>
<g id="a_Node000018"><a xlink:href="a00386.html" target="_top" xlink:title="Contains fault generic public functions.">
<polygon fill="white" stroke="#666666" points="1060.5,-82 975.5,-82 975.5,-62 1060.5,-62 1060.5,-82"/>
<text text-anchor="middle" x="1018" y="-68.5" font-family="Helvetica,sans-Serif" font-size="10.00">fault_common.h</text>
</a>
</g>
</g>
<!-- Node17&#45;&gt;Node18 -->
<g id="edge30_Node000017_Node000018" class="edge">
<title>Node17&#45;&gt;Node18</title>
<g id="a_edge30_Node000017_Node000018"><a xlink:title=" ">
<path fill="none" stroke="#63b8ff" d="M1140.34,-123.62C1116.19,-113.63 1077.73,-97.71 1050.38,-86.4"/>
<polygon fill="#63b8ff" stroke="#63b8ff" points="1052.08,-82.9 1041.5,-82.31 1049.4,-89.37 1052.08,-82.9"/>
</a>
</g>
</g>
<!-- Node18&#45;&gt;Node5 -->
<g id="edge31_Node000018_Node000005" class="edge">
<title>Node18&#45;&gt;Node5</title>
<g id="a_edge31_Node000018_Node000005"><a xlink:title=" ">
<path fill="none" stroke="#63b8ff" d="M986.19,-61.56C979.84,-59.7 973.21,-57.77 967,-56 922.99,-43.45 872.14,-29.5 839.1,-20.51"/>
<polygon fill="#63b8ff" stroke="#63b8ff" points="840.18,-16.9 829.61,-17.66 838.34,-23.66 840.18,-16.9"/>
</a>
</g>
</g>
<!-- Node18&#45;&gt;Node6 -->
<g id="edge32_Node000018_Node000006" class="edge">
<title>Node18&#45;&gt;Node6</title>
<g id="a_edge32_Node000018_Node000006"><a xlink:title=" ">
<path fill="none" stroke="#63b8ff" d="M1011.28,-61.62C1005,-52.86 995.45,-39.53 987.72,-28.75"/>
<polygon fill="#63b8ff" stroke="#63b8ff" points="990.2,-27.2 981.53,-21.11 984.51,-31.28 990.2,-27.2"/>
</a>
</g>
</g>
<!-- Node20&#45;&gt;Node16 -->
<g id="edge35_Node000020_Node000016" class="edge">
<title>Node20&#45;&gt;Node16</title>
<g id="a_edge35_Node000020_Node000016"><a xlink:title=" ">
<path fill="none" stroke="#63b8ff" d="M766.08,-235.59C785.05,-227.13 813.17,-214.58 834.76,-204.94"/>
<polygon fill="#63b8ff" stroke="#63b8ff" points="836.05,-207.75 843.76,-200.48 833.2,-201.36 836.05,-207.75"/>
</a>
</g>
</g>
<!-- Node22&#45;&gt;Node16 -->
<g id="edge38_Node000022_Node000016" class="edge">
<title>Node22&#45;&gt;Node16</title>
<g id="a_edge38_Node000022_Node000016"><a xlink:title=" ">
<path fill="none" stroke="#63b8ff" d="M866,-235.59C866,-228.86 866,-219.53 866,-211.15"/>
<polygon fill="#63b8ff" stroke="#63b8ff" points="869.5,-211.3 866,-201.3 862.5,-211.3 869.5,-211.3"/>
</a>
</g>
</g>
<!-- Node23&#45;&gt;Node10 -->
<g id="edge40_Node000023_Node000010" class="edge">
<title>Node23&#45;&gt;Node10</title>
<g id="a_edge40_Node000023_Node000010"><a xlink:title=" ">
<path fill="none" stroke="#63b8ff" d="M1097.93,-295.33C1105.48,-294.11 1113.51,-292.92 1121,-292 1257,-275.31 2350,-328.02 2350,-191 2350,-191 2350,-191 2350,-133 2350,-94.23 2338.25,-81.45 2309,-56 2284.28,-34.48 2248.4,-22.93 2221.77,-16.94"/>
<polygon fill="#63b8ff" stroke="#63b8ff" points="2222.84,-13.38 2212.34,-14.77 2221.42,-20.24 2222.84,-13.38"/>
</a>
</g>
</g>
<!-- Node23&#45;&gt;Node13 -->
<g id="edge55_Node000023_Node000013" class="edge">
<title>Node23&#45;&gt;Node13</title>
<g id="a_edge55_Node000023_Node000013"><a xlink:title=" ">
<path fill="none" stroke="#63b8ff" d="M1064.86,-291.81C1063.01,-278.87 1058.66,-254.79 1050,-236 1023.16,-177.77 974.42,-119 949.16,-90.58"/>
<polygon fill="#63b8ff" stroke="#63b8ff" points="952.13,-88.54 942.84,-83.46 946.93,-93.23 952.13,-88.54"/>
</a>
</g>
</g>
<!-- Node23&#45;&gt;Node16 -->
<g id="edge53_Node000023_Node000016" class="edge">
<title>Node23&#45;&gt;Node16</title>
<g id="a_edge53_Node000023_Node000016"><a xlink:title=" ">
<path fill="none" stroke="#63b8ff" d="M1063.19,-291.95C1058.35,-277.84 1047.05,-250.68 1028,-236 997.43,-212.45 955.23,-201.23 921.57,-195.87"/>
<polygon fill="#63b8ff" stroke="#63b8ff" points="922.37,-192.31 911.97,-194.33 921.36,-199.23 922.37,-192.31"/>
</a>
</g>
</g>
<!-- Node23&#45;&gt;Node19 -->
<g id="edge54_Node000023_Node000019" class="edge">
<title>Node23&#45;&gt;Node19</title>
<g id="a_edge54_Node000023_Node000019"><a xlink:title=" ">
<path fill="none" stroke="#63b8ff" d="M1049.45,-291.59C1034.97,-283.36 1013.67,-271.26 996.93,-261.74"/>
<polygon fill="#63b8ff" stroke="#63b8ff" points="999.1,-258.38 988.68,-256.48 995.64,-264.46 999.1,-258.38"/>
</a>
</g>
</g>
<!-- Node23&#45;&gt;Node22 -->
<g id="edge52_Node000023_Node000022" class="edge">
<title>Node23&#45;&gt;Node22</title>
<g id="a_edge52_Node000023_Node000022"><a xlink:title=" ">
<path fill="none" stroke="#63b8ff" d="M1034.31,-292.44C1001.08,-283.47 948.59,-269.3 911.06,-259.17"/>
<polygon fill="#63b8ff" stroke="#63b8ff" points="912.47,-255.65 901.9,-256.42 910.65,-262.41 912.47,-255.65"/>
</a>
</g>
</g>
<!-- Node23&#45;&gt;Node23 -->
<g id="edge51_Node000023_Node000023" class="edge">
<title>Node23&#45;&gt;Node23</title>
<g id="a_edge51_Node000023_Node000023"><a xlink:title=" ">
<path fill="none" stroke="#63b8ff" d="M1097.98,-312.49C1107.86,-312.28 1115.62,-308.78 1115.62,-302 1115.62,-297.97 1112.89,-295.11 1108.6,-293.39"/>
<polygon fill="#63b8ff" stroke="#63b8ff" points="1109.44,-289.81 1098.98,-291.51 1108.21,-296.7 1109.44,-289.81"/>
</a>
</g>
</g>
<!-- Node24 -->
<g id="Node000024" class="node">
<title>Node24</title>
<g id="a_Node000024"><a xlink:href="a00122.html" target="_top" xlink:title="This is the generated driver header file for the CMP1 driver.">
<polygon fill="white" stroke="#666666" points="2143,-144 2073,-144 2073,-124 2143,-124 2143,-144"/>
<text text-anchor="middle" x="2108" y="-130.5" font-family="Helvetica,sans-Serif" font-size="10.00">cmp/cmp1.h</text>
</a>
</g>
</g>
<!-- Node23&#45;&gt;Node24 -->
<g id="edge41_Node000023_Node000024" class="edge">
<title>Node23&#45;&gt;Node24</title>
<g id="a_edge41_Node000023_Node000024"><a xlink:title=" ">
<path fill="none" stroke="#63b8ff" d="M1098.04,-295.9C1248.42,-271.94 1884.33,-170.63 2061.82,-142.36"/>
<polygon fill="#63b8ff" stroke="#63b8ff" points="2062.28,-145.67 2071.6,-140.64 2061.18,-138.76 2062.28,-145.67"/>
</a>
</g>
</g>
<!-- Node26 -->
<g id="Node000026" class="node">
<title>Node26</title>
<g id="a_Node000026"><a xlink:href="a00128.html" target="_top" xlink:title="This is the generated driver header file for the CMP3 driver.">
<polygon fill="white" stroke="#666666" points="2249,-144 2179,-144 2179,-124 2249,-124 2249,-144"/>
<text text-anchor="middle" x="2214" y="-130.5" font-family="Helvetica,sans-Serif" font-size="10.00">cmp/cmp3.h</text>
</a>
</g>
</g>
<!-- Node23&#45;&gt;Node26 -->
<g id="edge47_Node000023_Node000026" class="edge">
<title>Node23&#45;&gt;Node26</title>
<g id="a_edge47_Node000023_Node000026"><a xlink:title=" ">
<path fill="none" stroke="#63b8ff" d="M1097.79,-297.13C1159.16,-289.62 1298.23,-272.34 1415,-256 1701.65,-215.89 2045.21,-161.84 2167.78,-142.37"/>
<polygon fill="#63b8ff" stroke="#63b8ff" points="2168.27,-145.68 2177.6,-140.65 2167.18,-138.77 2168.27,-145.68"/>
</a>
</g>
</g>
<!-- Node24&#45;&gt;Node6 -->
<g id="edge43_Node000024_Node000006" class="edge">
<title>Node24&#45;&gt;Node6</title>
<g id="a_edge43_Node000024_Node000006"><a xlink:title=" ">
<path fill="none" stroke="#63b8ff" d="M2107.12,-123.68C2104.99,-106.87 2097.87,-71.76 2075,-56 2030.47,-25.31 1204.55,-13.71 1013.99,-11.44"/>
<polygon fill="#63b8ff" stroke="#63b8ff" points="1014.16,-7.93 1004.12,-11.31 1014.08,-14.93 1014.16,-7.93"/>
</a>
</g>
</g>
<!-- Node24&#45;&gt;Node10 -->
<g id="edge42_Node000024_Node000010" class="edge">
<title>Node24&#45;&gt;Node10</title>
<g id="a_edge42_Node000024_Node000010"><a xlink:title=" ">
<path fill="none" stroke="#63b8ff" d="M2113.86,-123.83C2126.68,-103.78 2157.4,-55.73 2174.32,-29.26"/>
<polygon fill="#63b8ff" stroke="#63b8ff" points="2177.63,-31.59 2180.07,-21.28 2171.73,-27.82 2177.63,-31.59"/>
</a>
</g>
</g>
<!-- Node25 -->
<g id="Node000025" class="node">
<title>Node25</title>
<g id="a_Node000025"><a xlink:href="a00131_source.html" target="_top" xlink:title=" ">
<polygon fill="white" stroke="#666666" points="2283.5,-82 2198.5,-82 2198.5,-62 2283.5,-62 2283.5,-82"/>
<text text-anchor="middle" x="2241" y="-68.5" font-family="Helvetica,sans-Serif" font-size="10.00">cmp_interface.h</text>
</a>
</g>
</g>
<!-- Node24&#45;&gt;Node25 -->
<g id="edge44_Node000024_Node000025" class="edge">
<title>Node24&#45;&gt;Node25</title>
<g id="a_edge44_Node000024_Node000025"><a xlink:title=" ">
<path fill="none" stroke="#63b8ff" d="M2128.78,-123.62C2150.74,-113.72 2185.59,-97.99 2210.63,-86.7"/>
<polygon fill="#63b8ff" stroke="#63b8ff" points="2211.69,-89.61 2219.36,-82.31 2208.81,-83.23 2211.69,-89.61"/>
</a>
</g>
</g>
<!-- Node25&#45;&gt;Node6 -->
<g id="edge45_Node000025_Node000006" class="edge">
<title>Node25&#45;&gt;Node6</title>
<g id="a_edge45_Node000025_Node000006"><a xlink:title=" ">
<path fill="none" stroke="#63b8ff" d="M2210.2,-61.57C2201.78,-59.36 2192.6,-57.28 2184,-56 1950.47,-21.36 1194.79,-12.86 1014.08,-11.3"/>
<polygon fill="#63b8ff" stroke="#63b8ff" points="1014.29,-7.79 1004.26,-11.21 1014.23,-14.79 1014.29,-7.79"/>
</a>
</g>
</g>
<!-- Node25&#45;&gt;Node10 -->
<g id="edge46_Node000025_Node000010" class="edge">
<title>Node25&#45;&gt;Node10</title>
<g id="a_edge46_Node000025_Node000010"><a xlink:title=" ">
<path fill="none" stroke="#63b8ff" d="M2232.41,-61.62C2224.21,-52.68 2211.66,-38.99 2201.68,-28.1"/>
<polygon fill="#63b8ff" stroke="#63b8ff" points="2204.69,-26.12 2195.35,-21.11 2199.53,-30.85 2204.69,-26.12"/>
</a>
</g>
</g>
<!-- Node26&#45;&gt;Node6 -->
<g id="edge49_Node000026_Node000006" class="edge">
<title>Node26&#45;&gt;Node6</title>
<g id="a_edge49_Node000026_Node000006"><a xlink:title=" ">
<path fill="none" stroke="#63b8ff" d="M2204.36,-123.65C2185.91,-106.46 2143.57,-70.29 2100,-56 1995.23,-21.63 1201.09,-12.89 1014.27,-11.3"/>
<polygon fill="#63b8ff" stroke="#63b8ff" points="1014.37,-7.79 1004.34,-11.21 1014.31,-14.79 1014.37,-7.79"/>
</a>
</g>
</g>
<!-- Node26&#45;&gt;Node10 -->
<g id="edge48_Node000026_Node000010" class="edge">
<title>Node26&#45;&gt;Node10</title>
<g id="a_edge48_Node000026_Node000010"><a xlink:title=" ">
<path fill="none" stroke="#63b8ff" d="M2245.89,-123.6C2263.1,-116.72 2282.85,-105.47 2293,-88 2300.15,-75.7 2300.87,-67.85 2293,-56 2277.33,-32.42 2246.64,-21.17 2222.13,-15.81"/>
<polygon fill="#63b8ff" stroke="#63b8ff" points="2222.86,-12.2 2212.38,-13.75 2221.54,-19.07 2222.86,-12.2"/>
</a>
</g>
</g>
<!-- Node26&#45;&gt;Node25 -->
<g id="edge50_Node000026_Node000025" class="edge">
<title>Node26&#45;&gt;Node25</title>
<g id="a_edge50_Node000026_Node000025"><a xlink:title=" ">
<path fill="none" stroke="#63b8ff" d="M2218.22,-123.62C2222.01,-115.21 2227.68,-102.6 2232.42,-92.07"/>
<polygon fill="#63b8ff" stroke="#63b8ff" points="2235.99,-93.67 2236.9,-83.11 2229.6,-90.8 2235.99,-93.67"/>
</a>
</g>
</g>
<!-- Node27&#45;&gt;Node2 -->
<g id="edge58_Node000027_Node000002" class="edge">
<title>Node27&#45;&gt;Node2</title>
<g id="a_edge58_Node000027_Node000002"><a xlink:title=" ">
<path fill="none" stroke="#63b8ff" d="M1456.26,-131.14C1283.92,-124.6 720.93,-102.24 685,-88 664.47,-79.87 666.55,-66.26 647,-56 602.35,-32.58 544.34,-20.43 510.34,-14.9"/>
<polygon fill="#63b8ff" stroke="#63b8ff" points="511.19,-11.34 500.78,-13.28 510.13,-18.26 511.19,-11.34"/>
</a>
</g>
</g>
<!-- Node27&#45;&gt;Node5 -->
<g id="edge59_Node000027_Node000005" class="edge">
<title>Node27&#45;&gt;Node5</title>
<g id="a_edge59_Node000027_Node000005"><a xlink:title=" ">
<path fill="none" stroke="#63b8ff" d="M1456.27,-131.08C1386.04,-127.41 1254.31,-116.98 1146,-88 1110.6,-78.53 1105.19,-66.24 1070,-56 989.1,-32.47 890.54,-19.79 839.1,-14.33"/>
<polygon fill="#63b8ff" stroke="#63b8ff" points="839.57,-10.75 829.26,-13.21 838.85,-17.72 839.57,-10.75"/>
</a>
</g>
</g>
<!-- Node28 -->
<g id="Node000028" class="node">
<title>Node28</title>
<g id="a_Node000028"><a xlink:title=" ">
<polygon fill="#e0e0e0" stroke="#999999" points="2065.62,-82 2020.38,-82 2020.38,-62 2065.62,-62 2065.62,-82"/>
<text text-anchor="middle" x="2043" y="-68.5" font-family="Helvetica,sans-Serif" font-size="10.00">stdio.h</text>
</a>
</g>
</g>
<!-- Node27&#45;&gt;Node28 -->
<g id="edge57_Node000027_Node000028" class="edge">
<title>Node27&#45;&gt;Node28</title>
<g id="a_edge57_Node000027_Node000028"><a xlink:title=" ">
<path fill="none" stroke="#63b8ff" d="M1555.72,-130.77C1665.59,-125.5 1926.02,-110.94 2011,-88 2012.55,-87.58 2014.13,-87.09 2015.7,-86.55"/>
<polygon fill="#63b8ff" stroke="#63b8ff" points="2016.89,-89.43 2024.81,-82.4 2014.23,-82.95 2016.89,-89.43"/>
</a>
</g>
</g>
<!-- Node29 -->
<g id="Node000029" class="node">
<title>Node29</title>
<g id="a_Node000029"><a xlink:href="a00452.html" target="_top" xlink:title="Contains the DCDT generated functions and data types.">
<polygon fill="white" stroke="#666666" points="776.38,-82 693.62,-82 693.62,-62 776.38,-62 776.38,-82"/>
<text text-anchor="middle" x="735" y="-68.5" font-family="Helvetica,sans-Serif" font-size="10.00">smps_control.h</text>
</a>
</g>
</g>
<!-- Node27&#45;&gt;Node29 -->
<g id="edge60_Node000027_Node000029" class="edge">
<title>Node27&#45;&gt;Node29</title>
<g id="a_edge60_Node000027_Node000029"><a xlink:title=" ">
<path fill="none" stroke="#63b8ff" d="M1456.41,-129.61C1352.82,-122.48 1105.94,-105.13 899,-88 861.79,-84.92 819.86,-81.08 787.71,-78.05"/>
<polygon fill="#63b8ff" stroke="#63b8ff" points="788.06,-74.48 777.77,-77.02 787.4,-81.45 788.06,-74.48"/>
</a>
</g>
</g>
<!-- Node30 -->
<g id="Node000030" class="node">
<title>Node30</title>
<g id="a_Node000030"><a xlink:href="a00053.html" target="_top" xlink:title="Generated by the Microchip Digital Compensator Design Tool (DCDT), contains system summaries and digi...">
<polygon fill="white" stroke="#666666" points="1279.38,-88 1154.62,-88 1154.62,-56 1279.38,-56 1279.38,-88"/>
<text text-anchor="start" x="1162.62" y="-74.5" font-family="Helvetica,sans-Serif" font-size="10.00">dab_psio/dcdt_generated</text>
<text text-anchor="middle" x="1217" y="-62.5" font-family="Helvetica,sans-Serif" font-size="10.00">_code/dab_psio_dcdt.h</text>
</a>
</g>
</g>
<!-- Node27&#45;&gt;Node30 -->
<g id="edge63_Node000027_Node000030" class="edge">
<title>Node27&#45;&gt;Node30</title>
<g id="a_edge63_Node000027_Node000030"><a xlink:title=" ">
<path fill="none" stroke="#63b8ff" d="M1460.06,-123.58C1418.26,-115 1354.55,-101.88 1290.43,-88.5"/>
<polygon fill="#63b8ff" stroke="#63b8ff" points="1291.22,-84.88 1280.72,-86.27 1289.79,-91.74 1291.22,-84.88"/>
</a>
</g>
</g>
<!-- Node31 -->
<g id="Node000031" class="node">
<title>Node31</title>
<g id="a_Node000031"><a xlink:href="a00062.html" target="_top" xlink:title="Generated by the Microchip Digital Compensator Design Tool (DCDT), contains system summaries and digi...">
<polygon fill="white" stroke="#666666" points="1424.88,-88 1297.12,-88 1297.12,-56 1424.88,-56 1424.88,-88"/>
<text text-anchor="start" x="1305.12" y="-74.5" font-family="Helvetica,sans-Serif" font-size="10.00">dab_pspo/dcdt_generated</text>
<text text-anchor="middle" x="1361" y="-62.5" font-family="Helvetica,sans-Serif" font-size="10.00">_code/dab_pspo_dcdt.h</text>
</a>
</g>
</g>
<!-- Node27&#45;&gt;Node31 -->
<g id="edge64_Node000027_Node000031" class="edge">
<title>Node27&#45;&gt;Node31</title>
<g id="a_edge64_Node000027_Node000031"><a xlink:title=" ">
<path fill="none" stroke="#63b8ff" d="M1483.34,-123.62C1463.39,-115.37 1433.68,-103.07 1408.53,-92.67"/>
<polygon fill="#63b8ff" stroke="#63b8ff" points="1410.01,-89.08 1399.44,-88.49 1407.34,-95.55 1410.01,-89.08"/>
</a>
</g>
</g>
<!-- Node32 -->
<g id="Node000032" class="node">
<title>Node32</title>
<g id="a_Node000032"><a xlink:href="a00065_source.html" target="_top" xlink:title=" ">
<polygon fill="white" stroke="#666666" points="1569.12,-88 1442.88,-88 1442.88,-56 1569.12,-56 1569.12,-88"/>
<text text-anchor="start" x="1450.88" y="-74.5" font-family="Helvetica,sans-Serif" font-size="10.00">dab_psvo/dcdt_generated</text>
<text text-anchor="middle" x="1506" y="-62.5" font-family="Helvetica,sans-Serif" font-size="10.00">_code/dab_psvo_dcdt.h</text>
</a>
</g>
</g>
<!-- Node27&#45;&gt;Node32 -->
<g id="edge65_Node000027_Node000032" class="edge">
<title>Node27&#45;&gt;Node32</title>
<g id="a_edge65_Node000027_Node000032"><a xlink:title=" ">
<path fill="none" stroke="#63b8ff" d="M1506,-123.62C1506,-117.02 1506,-107.84 1506,-99.11"/>
<polygon fill="#63b8ff" stroke="#63b8ff" points="1509.5,-99.14 1506,-89.14 1502.5,-99.14 1509.5,-99.14"/>
</a>
</g>
</g>
<!-- Node33 -->
<g id="Node000033" class="node">
<title>Node33</title>
<g id="a_Node000033"><a xlink:href="a00068_source.html" target="_top" xlink:title=" ">
<polygon fill="white" stroke="#666666" points="1712.38,-88 1587.62,-88 1587.62,-56 1712.38,-56 1712.38,-88"/>
<text text-anchor="start" x="1595.62" y="-74.5" font-family="Helvetica,sans-Serif" font-size="10.00">dab_spio/dcdt_generated</text>
<text text-anchor="middle" x="1650" y="-62.5" font-family="Helvetica,sans-Serif" font-size="10.00">_code/dab_spio_dcdt.h</text>
</a>
</g>
</g>
<!-- Node27&#45;&gt;Node33 -->
<g id="edge66_Node000027_Node000033" class="edge">
<title>Node27&#45;&gt;Node33</title>
<g id="a_edge66_Node000027_Node000033"><a xlink:title=" ">
<path fill="none" stroke="#63b8ff" d="M1528.5,-123.62C1548.31,-115.37 1577.82,-103.07 1602.8,-92.67"/>
<polygon fill="#63b8ff" stroke="#63b8ff" points="1603.94,-95.57 1611.82,-88.49 1601.25,-89.11 1603.94,-95.57"/>
</a>
</g>
</g>
<!-- Node34 -->
<g id="Node000034" class="node">
<title>Node34</title>
<g id="a_Node000034"><a xlink:href="a00071_source.html" target="_top" xlink:title=" ">
<polygon fill="white" stroke="#666666" points="1857.88,-88 1730.12,-88 1730.12,-56 1857.88,-56 1857.88,-88"/>
<text text-anchor="start" x="1738.12" y="-74.5" font-family="Helvetica,sans-Serif" font-size="10.00">dab_sppo/dcdt_generated</text>
<text text-anchor="middle" x="1794" y="-62.5" font-family="Helvetica,sans-Serif" font-size="10.00">_code/dab_sppo_dcdt.h</text>
</a>
</g>
</g>
<!-- Node27&#45;&gt;Node34 -->
<g id="edge67_Node000027_Node000034" class="edge">
<title>Node27&#45;&gt;Node34</title>
<g id="a_edge67_Node000027_Node000034"><a xlink:title=" ">
<path fill="none" stroke="#63b8ff" d="M1551.32,-123.56C1596.22,-114.2 1665.79,-99.71 1718.95,-88.63"/>
<polygon fill="#63b8ff" stroke="#63b8ff" points="1719.62,-91.86 1728.69,-86.4 1718.19,-85.01 1719.62,-91.86"/>
</a>
</g>
</g>
<!-- Node35 -->
<g id="Node000035" class="node">
<title>Node35</title>
<g id="a_Node000035"><a xlink:href="a00074.html" target="_top" xlink:title="Generated by the Microchip Digital Compensator Design Tool (DCDT), contains system summaries and digi...">
<polygon fill="white" stroke="#666666" points="2002.12,-88 1875.88,-88 1875.88,-56 2002.12,-56 2002.12,-88"/>
<text text-anchor="start" x="1883.88" y="-74.5" font-family="Helvetica,sans-Serif" font-size="10.00">dab_spvo/dcdt_generated</text>
<text text-anchor="middle" x="1939" y="-62.5" font-family="Helvetica,sans-Serif" font-size="10.00">_code/dab_spvo_dcdt.h</text>
</a>
</g>
</g>
<!-- Node27&#45;&gt;Node35 -->
<g id="edge68_Node000027_Node000035" class="edge">
<title>Node27&#45;&gt;Node35</title>
<g id="a_edge68_Node000027_Node000035"><a xlink:title=" ">
<path fill="none" stroke="#63b8ff" d="M1555.53,-128.12C1623.22,-121.16 1748.63,-107.25 1864.94,-88.27"/>
<polygon fill="#63b8ff" stroke="#63b8ff" points="1865.15,-91.61 1874.45,-86.53 1864.01,-84.71 1865.15,-91.61"/>
</a>
</g>
</g>
<!-- Node29&#45;&gt;Node2 -->
<g id="edge61_Node000029_Node000002" class="edge">
<title>Node29&#45;&gt;Node2</title>
<g id="a_edge61_Node000029_Node000002"><a xlink:title=" ">
<path fill="none" stroke="#63b8ff" d="M701.32,-61.57C694.29,-59.67 686.91,-57.73 680,-56 619.77,-40.95 548.7,-25.31 510.21,-17.01"/>
<polygon fill="#63b8ff" stroke="#63b8ff" points="511.32,-13.46 500.81,-14.78 509.85,-20.3 511.32,-13.46"/>
</a>
</g>
</g>
<!-- Node29&#45;&gt;Node5 -->
<g id="edge62_Node000029_Node000005" class="edge">
<title>Node29&#45;&gt;Node5</title>
<g id="a_edge62_Node000029_Node000005"><a xlink:title=" ">
<path fill="none" stroke="#63b8ff" d="M745.78,-61.62C756.38,-52.41 772.75,-38.17 785.44,-27.14"/>
<polygon fill="#63b8ff" stroke="#63b8ff" points="787.27,-29.32 792.52,-20.11 782.68,-24.03 787.27,-29.32"/>
</a>
</g>
</g>
</g>
</svg>

<g id="navigator" transform="translate(0 0)" fill="#404254">
  <rect fill="#f2f5e9" fill-opacity="0.5" stroke="#606060" stroke-width=".5" x="0" y="0" width="60" height="60"/>
  <use id="zoomplus" xlink:href="#zoomPlus" x="17" y="9" onmousedown="handleZoom(evt,'in')"/>
  <use id="zoomminus" xlink:href="#zoomMin" x="42" y="9" onmousedown="handleZoom(evt,'out')"/>
  <use id="reset" xlink:href="#resetDef" x="30" y="36" onmousedown="handleReset()"/>
   <use id="arrowup" xlink:href="#arrowUp" x="0" y="0" onmousedown="handlePan(0,-1)"/>
  <use id="arrowright" xlink:href="#arrowRight" x="0" y="0" onmousedown="handlePan(1,0)"/>
  <use id="arrowdown" xlink:href="#arrowDown" x="0" y="0" onmousedown="handlePan(0,1)"/>
  <use id="arrowleft" xlink:href="#arrowLeft" x="0" y="0" onmousedown="handlePan(-1,0)"/>
</g>
<svg viewBox="0 0 15 15" width="100%" height="30px" preserveAspectRatio="xMaxYMin meet">
 <g id="arrow_out" transform="scale(0.3 0.3)">
  <a xlink:href="a00462_org.svg" target="_base">
   <rect id="button" ry="5" rx="5" y="6" x="6" height="38" width="38"
        fill="#f2f5e9" fill-opacity="0.5" stroke="#606060" stroke-width="1.0"/>
   <path id="arrow"
     d="M 11.500037,31.436501 C 11.940474,20.09759 22.043105,11.32322 32.158766,21.979434 L 37.068811,17.246167 C 37.068811,17.246167 37.088388,32 37.088388,32 L 22.160133,31.978069 C 22.160133,31.978069 26.997745,27.140456 26.997745,27.140456 C 18.528582,18.264221 13.291696,25.230495 11.500037,31.436501 z"
     style="fill:#404040;"/>
  </a>
 </g>
</svg>

<style type='text/css'>
<![CDATA[
[data-mouse-over-selected='false'] { opacity: 0.7; }
[data-mouse-over-selected='true']  { opacity: 1.0; }
]]>
</style>
<script type="application/ecmascript"><![CDATA[
document.addEventListener('DOMContentLoaded', (event) => {
  highlightEdges();
  highlightAdjacentNodes();
});
]]></script>
</svg>
