<?xml version="1.0" encoding="UTF-8" standalone="no"?>
<!DOCTYPE svg PUBLIC "-//W3C//DTD SVG 1.1//EN"
 "http://www.w3.org/Graphics/SVG/1.1/DTD/svg11.dtd">
<!-- Generated by graphviz version 8.1.0 (20230707.0739)
 -->
<!-- Title: protocolID Pages: 1 -->
<svg width="407pt" height="332pt"
 viewBox="0.00 0.00 407.00 332.00" xmlns="http://www.w3.org/2000/svg" xmlns:xlink="http://www.w3.org/1999/xlink">
<g id="graph0" class="graph" transform="scale(1 1) rotate(0) translate(4 328)">
<title>protocolID</title>
<!-- Node1 -->
<g id="Node000001" class="node">
<title>Node1</title>
<g id="a_Node000001"><a xlink:title="default callback">
<polygon fill="#999999" stroke="#666666" points="59.5,-147 0,-147 0,-127 59.5,-127 59.5,-147"/>
<text text-anchor="middle" x="29.75" y="-133.5" font-family="Helvetica,sans-Serif" font-size="10.00">protocolID</text>
</a>
</g>
</g>
<!-- Node2 -->
<g id="Node000002" class="node">
<title>Node2</title>
<g id="a_Node000002"><a xlink:href="a00495.html#gaf2b5ec7aa4bf88b00eaa69cfeba83160" target="_top" xlink:title="process received data">
<polygon fill="white" stroke="#666666" points="221.38,-178 95.88,-178 95.88,-146 221.38,-146 221.38,-178"/>
<text text-anchor="start" x="103.88" y="-164.5" font-family="Helvetica,sans-Serif" font-size="10.00">App_PBV_DAB_Process</text>
<text text-anchor="middle" x="158.62" y="-152.5" font-family="Helvetica,sans-Serif" font-size="10.00">_Rx_Data</text>
</a>
</g>
</g>
<!-- Node1&#45;&gt;Node2 -->
<g id="edge1_Node000001_Node000002" class="edge">
<title>Node1&#45;&gt;Node2</title>
<g id="a_edge1_Node000001_Node000002"><a xlink:title=" ">
<path fill="none" stroke="#63b8ff" d="M59.86,-142.74C67.45,-144.23 75.98,-145.91 84.76,-147.64"/>
<polygon fill="#63b8ff" stroke="#63b8ff" points="84.06,-151.27 94.55,-149.77 85.41,-144.4 84.06,-151.27"/>
</a>
</g>
</g>
<!-- Node12 -->
<g id="Node000012" class="node">
<title>Node12</title>
<g id="a_Node000012"><a xlink:href="a00493.html#gaf92cac9156ceacf492c28455ba3c75f5" target="_top" xlink:title=" ">
<polygon fill="white" stroke="#666666" points="221.75,-128 95.5,-128 95.5,-96 221.75,-96 221.75,-128"/>
<text text-anchor="start" x="103.5" y="-114.5" font-family="Helvetica,sans-Serif" font-size="10.00">PBV_Change_from_Eight</text>
<text text-anchor="middle" x="158.62" y="-102.5" font-family="Helvetica,sans-Serif" font-size="10.00">_to_Sixteen</text>
</a>
</g>
</g>
<!-- Node1&#45;&gt;Node12 -->
<g id="edge11_Node000001_Node000012" class="edge">
<title>Node1&#45;&gt;Node12</title>
<g id="a_edge11_Node000001_Node000012"><a xlink:title=" ">
<path fill="none" stroke="#63b8ff" d="M59.86,-131.26C67.35,-129.79 75.75,-128.13 84.4,-126.43"/>
<polygon fill="#63b8ff" stroke="#63b8ff" points="84.9,-129.7 94.04,-124.33 83.55,-122.83 84.9,-129.7"/>
</a>
</g>
</g>
<!-- Node3 -->
<g id="Node000003" class="node">
<title>Node3</title>
<g id="a_Node000003"><a xlink:href="a00499.html#ga5cfd61659ae6b17ad25e51bfc211723b" target="_top" xlink:title="Sets the fan speed.">
<polygon fill="white" stroke="#666666" points="381.75,-324 275,-324 275,-304 381.75,-304 381.75,-324"/>
<text text-anchor="middle" x="328.38" y="-310.5" font-family="Helvetica,sans-Serif" font-size="10.00">Dev_Fan_Set_Speed</text>
</a>
</g>
</g>
<!-- Node2&#45;&gt;Node3 -->
<g id="edge2_Node000002_Node000003" class="edge">
<title>Node2&#45;&gt;Node3</title>
<g id="a_edge2_Node000002_Node000003"><a xlink:title=" ">
<path fill="none" stroke="#63b8ff" d="M167.08,-178.26C180.85,-206.46 213.01,-264.34 257.75,-295 260.01,-296.55 262.39,-297.97 264.86,-299.28"/>
<polygon fill="#63b8ff" stroke="#63b8ff" points="263.17,-302.81 273.72,-303.77 266.07,-296.44 263.17,-302.81"/>
</a>
</g>
</g>
<!-- Node4 -->
<g id="Node000004" class="node">
<title>Node4</title>
<g id="a_Node000004"><a xlink:href="a00511.html#gad6514b638a32baed68543a56bedd5c5d" target="_top" xlink:title="API function to get the PWM duty cycle.">
<polygon fill="white" stroke="#666666" points="398.25,-286 258.5,-286 258.5,-266 398.25,-266 398.25,-286"/>
<text text-anchor="middle" x="328.38" y="-272.5" font-family="Helvetica,sans-Serif" font-size="10.00">Dev_PwrCtrl_Get_DutyCycle</text>
</a>
</g>
</g>
<!-- Node2&#45;&gt;Node4 -->
<g id="edge3_Node000002_Node000004" class="edge">
<title>Node2&#45;&gt;Node4</title>
<g id="a_edge3_Node000002_Node000004"><a xlink:title=" ">
<path fill="none" stroke="#63b8ff" d="M172.05,-178.34C189.08,-199.61 221.69,-236.46 257.75,-257 260.74,-258.71 263.9,-260.26 267.14,-261.69"/>
<polygon fill="#63b8ff" stroke="#63b8ff" points="265.5,-265.19 276.08,-265.56 268.04,-258.67 265.5,-265.19"/>
</a>
</g>
</g>
<!-- Node5 -->
<g id="Node000005" class="node">
<title>Node5</title>
<g id="a_Node000005"><a xlink:href="a00511.html#ga071b955cb9687b27b8ce895a29febc66" target="_top" xlink:title="API function to set the power control enable bit.">
<polygon fill="white" stroke="#666666" points="377.25,-248 279.5,-248 279.5,-228 377.25,-228 377.25,-248"/>
<text text-anchor="middle" x="328.38" y="-234.5" font-family="Helvetica,sans-Serif" font-size="10.00">PwrCtrl_SetEnable</text>
</a>
</g>
</g>
<!-- Node2&#45;&gt;Node5 -->
<g id="edge4_Node000002_Node000005" class="edge">
<title>Node2&#45;&gt;Node5</title>
<g id="a_edge4_Node000002_Node000005"><a xlink:title=" ">
<path fill="none" stroke="#63b8ff" d="M183.71,-178.38C203.03,-190.92 231.22,-207.9 257.75,-219 262.35,-220.92 267.2,-222.71 272.11,-224.35"/>
<polygon fill="#63b8ff" stroke="#63b8ff" points="270.63,-227.87 281.22,-227.52 272.73,-221.19 270.63,-227.87"/>
</a>
</g>
</g>
<!-- Node6 -->
<g id="Node000006" class="node">
<title>Node6</title>
<g id="a_Node000006"><a xlink:href="a00511.html#ga70c7b962e7df84e7d49fd37a76826059" target="_top" xlink:title="API function to set the current controller reference.">
<polygon fill="white" stroke="#666666" points="385.12,-210 271.62,-210 271.62,-190 385.12,-190 385.12,-210"/>
<text text-anchor="middle" x="328.38" y="-196.5" font-family="Helvetica,sans-Serif" font-size="10.00">PwrCtrl_SetIReference</text>
</a>
</g>
</g>
<!-- Node2&#45;&gt;Node6 -->
<g id="edge5_Node000002_Node000006" class="edge">
<title>Node2&#45;&gt;Node6</title>
<g id="a_edge5_Node000002_Node000006"><a xlink:title=" ">
<path fill="none" stroke="#63b8ff" d="M221.61,-176.04C237.61,-179.67 254.76,-183.55 270.48,-187.11"/>
<polygon fill="#63b8ff" stroke="#63b8ff" points="269.59,-190.72 280.11,-189.52 271.13,-183.9 269.59,-190.72"/>
</a>
</g>
</g>
<!-- Node7 -->
<g id="Node000007" class="node">
<title>Node7</title>
<g id="a_Node000007"><a xlink:href="a00511.html#ga80737f595e2855e9361772d2c1a9852d" target="_top" xlink:title="API function to set the target prim to sec phase which will steer other modulation.">
<polygon fill="white" stroke="#666666" points="399,-172 257.75,-172 257.75,-152 399,-152 399,-172"/>
<text text-anchor="middle" x="328.38" y="-158.5" font-family="Helvetica,sans-Serif" font-size="10.00">PwrCtrl_SetP2SPhaseTarget</text>
</a>
</g>
</g>
<!-- Node2&#45;&gt;Node7 -->
<g id="edge6_Node000002_Node000007" class="edge">
<title>Node2&#45;&gt;Node7</title>
<g id="a_edge6_Node000002_Node000007"><a xlink:title=" ">
<path fill="none" stroke="#63b8ff" d="M221.61,-162C229.72,-162 238.13,-162 246.5,-162"/>
<polygon fill="#63b8ff" stroke="#63b8ff" points="246.44,-165.5 256.44,-162 246.44,-158.5 246.44,-165.5"/>
</a>
</g>
</g>
<!-- Node8 -->
<g id="Node000008" class="node">
<title>Node8</title>
<g id="a_Node000008"><a xlink:href="a00511.html#ga75fdd46231baccc4830fa08d2b39a3d2" target="_top" xlink:title="API function to set the target period.">
<polygon fill="white" stroke="#666666" points="389.62,-134 267.12,-134 267.12,-114 389.62,-114 389.62,-134"/>
<text text-anchor="middle" x="328.38" y="-120.5" font-family="Helvetica,sans-Serif" font-size="10.00">PwrCtrl_SetPeriodTarget</text>
</a>
</g>
</g>
<!-- Node2&#45;&gt;Node8 -->
<g id="edge7_Node000002_Node000008" class="edge">
<title>Node2&#45;&gt;Node8</title>
<g id="a_edge7_Node000002_Node000008"><a xlink:title=" ">
<path fill="none" stroke="#63b8ff" d="M221.61,-147.96C237.61,-144.33 254.76,-140.45 270.48,-136.89"/>
<polygon fill="#63b8ff" stroke="#63b8ff" points="271.13,-140.1 280.11,-134.48 269.59,-133.28 271.13,-140.1"/>
</a>
</g>
</g>
<!-- Node9 -->
<g id="Node000009" class="node">
<title>Node9</title>
<g id="a_Node000009"><a xlink:href="a00511.html#gae62d241af8152bb7989d448f30adc55e" target="_top" xlink:title="API function to set the target PWM phase.">
<polygon fill="white" stroke="#666666" points="389.62,-96 267.12,-96 267.12,-76 389.62,-76 389.62,-96"/>
<text text-anchor="middle" x="328.38" y="-82.5" font-family="Helvetica,sans-Serif" font-size="10.00">PwrCtrl_SetPhaseTarget</text>
</a>
</g>
</g>
<!-- Node2&#45;&gt;Node9 -->
<g id="edge8_Node000002_Node000009" class="edge">
<title>Node2&#45;&gt;Node9</title>
<g id="a_edge8_Node000002_Node000009"><a xlink:title=" ">
<path fill="none" stroke="#63b8ff" d="M205.64,-145.59C211.21,-142.99 216.71,-140.12 221.75,-137 239.95,-125.73 238.93,-115.2 257.75,-105 260.99,-103.25 264.4,-101.64 267.9,-100.18"/>
<polygon fill="#63b8ff" stroke="#63b8ff" points="268.81,-103.21 276.95,-96.43 266.36,-96.65 268.81,-103.21"/>
</a>
</g>
</g>
<!-- Node10 -->
<g id="Node000010" class="node">
<title>Node10</title>
<g id="a_Node000010"><a xlink:href="a00511.html#ga574faff7b911d52ae6d2cf53b68a8963" target="_top" xlink:title="API function to set the power controller reference.">
<polygon fill="white" stroke="#666666" points="392.25,-58 264.5,-58 264.5,-38 392.25,-38 392.25,-58"/>
<text text-anchor="middle" x="328.38" y="-44.5" font-family="Helvetica,sans-Serif" font-size="10.00">PwrCtrl_SetPwrReference</text>
</a>
</g>
</g>
<!-- Node2&#45;&gt;Node10 -->
<g id="edge9_Node000002_Node000010" class="edge">
<title>Node2&#45;&gt;Node10</title>
<g id="a_edge9_Node000002_Node000010"><a xlink:title=" ">
<path fill="none" stroke="#63b8ff" d="M210.03,-145.51C214.24,-143.04 218.23,-140.21 221.75,-137 247.6,-113.43 230.57,-89.03 257.75,-67 259.36,-65.7 261.04,-64.49 262.8,-63.36"/>
<polygon fill="#63b8ff" stroke="#63b8ff" points="263.89,-66.2 271.03,-58.37 260.56,-60.04 263.89,-66.2"/>
</a>
</g>
</g>
<!-- Node11 -->
<g id="Node000011" class="node">
<title>Node11</title>
<g id="a_Node000011"><a xlink:href="a00511.html#ga919933b7bef6f9fa8094848c413e7881" target="_top" xlink:title="API function to set the secondary voltage controller reference.">
<polygon fill="white" stroke="#666666" points="396,-20 260.75,-20 260.75,0 396,0 396,-20"/>
<text text-anchor="middle" x="328.38" y="-6.5" font-family="Helvetica,sans-Serif" font-size="10.00">PwrCtrl_SetVSecReference</text>
</a>
</g>
</g>
<!-- Node2&#45;&gt;Node11 -->
<g id="edge10_Node000002_Node000011" class="edge">
<title>Node2&#45;&gt;Node11</title>
<g id="a_edge10_Node000002_Node000011"><a xlink:title=" ">
<path fill="none" stroke="#63b8ff" d="M211.17,-145.68C215.04,-143.18 218.64,-140.3 221.75,-137 256.42,-100.15 221,-63.77 257.75,-29 258.77,-28.03 259.84,-27.11 260.95,-26.24"/>
<polygon fill="#63b8ff" stroke="#63b8ff" points="262.55,-28.73 269.09,-20.4 258.78,-22.83 262.55,-28.73"/>
</a>
</g>
</g>
</g>
</svg>
