<?xml version="1.0" encoding="UTF-8" standalone="no"?>
<!DOCTYPE svg PUBLIC "-//W3C//DTD SVG 1.1//EN"
 "http://www.w3.org/Graphics/SVG/1.1/DTD/svg11.dtd">
<!-- Generated by graphviz version 8.1.0 (20230707.0739)
 -->
<!-- Title: Dev_PwrCtrl_RampReference Pages: 1 -->
<svg width="642pt" height="28pt"
 viewBox="0.00 0.00 642.00 28.00" xmlns="http://www.w3.org/2000/svg" xmlns:xlink="http://www.w3.org/1999/xlink">
<g id="graph0" class="graph" transform="scale(1 1) rotate(0) translate(4 24)">
<title>Dev_PwrCtrl_RampReference</title>
<!-- Node1 -->
<g id="Node000001" class="node">
<title>Node1</title>
<g id="a_Node000001"><a xlink:title="Softly increment / decrement to the set reference target.">
<polygon fill="#999999" stroke="#666666" points="634,-20 491.25,-20 491.25,0 634,0 634,-20"/>
<text text-anchor="middle" x="562.62" y="-6.5" font-family="Helvetica,sans-Serif" font-size="10.00">Dev_PwrCtrl_RampReference</text>
</a>
</g>
</g>
<!-- Node2 -->
<g id="Node000002" class="node">
<title>Node2</title>
<g id="a_Node000002"><a xlink:href="a00492.html#gabda6b853bb6547821acd0ec87e0a4842" target="_top" xlink:title="Executes the power control soft start state machine.">
<polygon fill="white" stroke="#666666" points="455.25,-20 315.5,-20 315.5,0 455.25,0 455.25,-20"/>
<text text-anchor="middle" x="385.38" y="-6.5" font-family="Helvetica,sans-Serif" font-size="10.00">PCS_SOFT_START_handler</text>
</a>
</g>
</g>
<!-- Node1&#45;&gt;Node2 -->
<g id="edge1_Node000001_Node000002" class="edge">
<title>Node1&#45;&gt;Node2</title>
<g id="a_edge1_Node000001_Node000002"><a xlink:title=" ">
<path fill="none" stroke="#63b8ff" d="M479.89,-10C471.8,-10 463.65,-10 455.71,-10"/>
<polygon fill="#63b8ff" stroke="#63b8ff" points="479.85,-13.5 489.85,-10 479.85,-6.5 479.85,-13.5"/>
</a>
</g>
</g>
<!-- Node3 -->
<g id="Node000003" class="node">
<title>Node3</title>
<g id="a_Node000003"><a xlink:href="a00492.html#gaebef55c78d9df043c293ffcf8a06b63f" target="_top" xlink:title="Manages the power control state machine.">
<polygon fill="white" stroke="#666666" points="279.5,-20 145.75,-20 145.75,0 279.5,0 279.5,-20"/>
<text text-anchor="middle" x="212.62" y="-6.5" font-family="Helvetica,sans-Serif" font-size="10.00">Dev_PwrCtrl_StateMachine</text>
</a>
</g>
</g>
<!-- Node2&#45;&gt;Node3 -->
<g id="edge2_Node000002_Node000003" class="edge">
<title>Node2&#45;&gt;Node3</title>
<g id="a_edge2_Node000002_Node000003"><a xlink:title=" ">
<path fill="none" stroke="#63b8ff" d="M304.58,-10C296.28,-10 287.92,-10 279.8,-10"/>
<polygon fill="#63b8ff" stroke="#63b8ff" points="304.42,-13.5 314.42,-10 304.42,-6.5 304.42,-13.5"/>
</a>
</g>
</g>
<!-- Node4 -->
<g id="Node000004" class="node">
<title>Node4</title>
<g id="a_Node000004"><a xlink:href="a00489.html#gad5d6590aeda3bb06b60874802edc14f6" target="_top" xlink:title="Executes the power control state machine.">
<polygon fill="white" stroke="#666666" points="109.75,-20 0,-20 0,0 109.75,0 109.75,-20"/>
<text text-anchor="middle" x="54.88" y="-6.5" font-family="Helvetica,sans-Serif" font-size="10.00">Dev_PwrCtrl_Execute</text>
</a>
</g>
</g>
<!-- Node3&#45;&gt;Node4 -->
<g id="edge3_Node000003_Node000004" class="edge">
<title>Node3&#45;&gt;Node4</title>
<g id="a_edge3_Node000003_Node000004"><a xlink:title=" ">
<path fill="none" stroke="#63b8ff" d="M134.59,-10C126.2,-10 117.8,-10 109.78,-10"/>
<polygon fill="#63b8ff" stroke="#63b8ff" points="134.57,-13.5 144.57,-10 134.57,-6.5 134.57,-13.5"/>
</a>
</g>
</g>
</g>
</svg>
