<?xml version="1.0" encoding="UTF-8" standalone="no"?>
<!DOCTYPE svg PUBLIC "-//W3C//DTD SVG 1.1//EN"
 "http://www.w3.org/Graphics/SVG/1.1/DTD/svg11.dtd">
<!-- Generated by graphviz version 8.1.0 (20230707.0739)
 -->
<!-- Title: PBV_CAN_Transmit_to_GUI Pages: 1 -->
<!--zoomable 217 -->

<svg id="main" version="1.1" xmlns="http://www.w3.org/2000/svg" xmlns:xlink="http://www.w3.org/1999/xlink" xml:space="preserve" onload="init(evt)">
<style type="text/css"><![CDATA[
.node, .edge {opacity: 0.7;}
.node.selected, .edge.selected {opacity: 1;}
.edge:hover path { stroke: red; }
.edge:hover polygon { stroke: red; fill: red; }
]]></style>

<defs>
  <circle id="rim" cx="0" cy="0" r="7"/>
  <circle id="rim2" cx="0" cy="0" r="3.5"/>
  <g id="zoomPlus">
    <use xlink:href="#rim" fill="#404040"><set attributeName="fill" to="#808080" begin="zoomplus.mouseover" end="zoomplus.mouseout"/></use>
    <path d="M-4,0h8M0,-4v8" fill="none" stroke="white" stroke-width="1.5" pointer-events="none"/>
  </g>
  <g id="zoomMin">
    <use xlink:href="#rim" fill="#404040"><set attributeName="fill" to="#808080" begin="zoomminus.mouseover" end="zoomminus.mouseout"/></use>
    <path d="M-4,0h8" fill="none" stroke="white" stroke-width="1.5" pointer-events="none"/>
  </g>
  <g id="arrowUp" transform="translate(30 24)">
    <use xlink:href="#rim"/>
    <path pointer-events="none" fill="none" stroke="white" stroke-width="1.5" d="M0,-3.0v7 M-2.5,-0.5L0,-3.0L2.5,-0.5"/>
  </g>
  <g id="arrowRight" transform="rotate(90) translate(36 -43)">
    <use xlink:href="#rim"/>
    <path pointer-events="none" fill="none" stroke="white" stroke-width="1.5" d="M0,-3.0v7 M-2.5,-0.5L0,-3.0L2.5,-0.5"/>
  </g>
  <g id="arrowDown" transform="rotate(180) translate(-30 -48)">
    <use xlink:href="#rim"/>
    <path pointer-events="none" fill="none" stroke="white" stroke-width="1.5" d="M0,-3.0v7 M-2.5,-0.5L0,-3.0L2.5,-0.5"/>
  </g>
  <g id="arrowLeft" transform="rotate(270) translate(-36 17)">
    <use xlink:href="#rim"/>
    <path pointer-events="none" fill="none" stroke="white" stroke-width="1.5" d="M0,-3.0v7 M-2.5,-0.5L0,-3.0L2.5,-0.5"/>
  </g>
  <g id="resetDef">
    <use xlink:href="#rim2" fill="#404040"><set attributeName="fill" to="#808080" begin="reset.mouseover" end="reset.mouseout"/></use>
  </g>
</defs>
<script type="application/ecmascript">
var viewWidth = 625;
var viewHeight = 217;
var sectionId = 'dynsection-3';
</script>
<script type="application/ecmascript" xlink:href="svg.min.js"/>
<svg id="graph" class="graph">
<g id="viewport">
<title>PBV_CAN_Transmit_to_GUI</title>
<!-- Node1 -->
<g id="Node000001" class="node">
<title>Node1</title>
<g id="a_Node000001"><a xlink:title="Transmits the numerical msg to PBV.">
<polygon fill="#999999" stroke="#666666" points="139.75,-127 0,-127 0,-107 139.75,-107 139.75,-127"/>
<text text-anchor="middle" x="69.88" y="-113.5" font-family="Helvetica,sans-Serif" font-size="10.00">PBV_CAN_Transmit_to_GUI</text>
</a>
</g>
</g>
<!-- Node2 -->
<g id="Node000002" class="node">
<title>Node2</title>
<g id="a_Node000002"><a xlink:href="a00521.html#gad99c960d1ed589ce80aca873a90e068e" target="_top" xlink:title="Writes the CAN message object to specified transmit FIFO channel.">
<polygon fill="white" stroke="#666666" points="260,-127 175.75,-127 175.75,-107 260,-107 260,-127"/>
<text text-anchor="middle" x="217.88" y="-113.5" font-family="Helvetica,sans-Serif" font-size="10.00">CAN1_Transmit</text>
</a>
</g>
</g>
<!-- Node1&#45;&gt;Node2 -->
<g id="edge1_Node000001_Node000002" class="edge">
<title>Node1&#45;&gt;Node2</title>
<g id="a_edge1_Node000001_Node000002"><a xlink:title=" ">
<path fill="none" stroke="#63b8ff" d="M140.03,-117C148.24,-117 156.52,-117 164.45,-117"/>
<polygon fill="#63b8ff" stroke="#63b8ff" points="164.38,-120.5 174.38,-117 164.38,-113.5 164.38,-120.5"/>
</a>
</g>
</g>
<!-- Node3 -->
<g id="Node000003" class="node">
<title>Node3</title>
<g id="a_Node000003"><a xlink:href="a00521.html#ga61d156b0e75424f9b630cef5c424ac13" target="_top" xlink:title="This function get the DLC enum based decimal value.">
<polygon fill="white" stroke="#666666" points="616.75,-184 483.75,-184 483.75,-164 616.75,-164 616.75,-184"/>
<text text-anchor="middle" x="550.25" y="-170.5" font-family="Helvetica,sans-Serif" font-size="10.00">CAN1_DlcToDataBytesGet</text>
</a>
</g>
</g>
<!-- Node2&#45;&gt;Node3 -->
<g id="edge2_Node000002_Node000003" class="edge">
<title>Node2&#45;&gt;Node3</title>
<g id="a_edge2_Node000002_Node000003"><a xlink:title=" ">
<path fill="none" stroke="#63b8ff" d="M225.39,-127.4C237.03,-144.89 263.3,-179.6 296,-193 366.84,-222.04 458.1,-202.94 509.48,-187.65"/>
<polygon fill="#63b8ff" stroke="#63b8ff" points="510.3,-190.75 518.82,-184.46 508.23,-184.06 510.3,-190.75"/>
</a>
</g>
</g>
<!-- Node4 -->
<g id="Node000004" class="node">
<title>Node4</title>
<g id="a_Node000004"><a xlink:href="a00521.html#ga57b30800d7bd3b3c936f578ca1fd7e32" target="_top" xlink:title="This function get the FIFO user address, message depth and payload size information.">
<polygon fill="white" stroke="#666666" points="424.12,-184 319.62,-184 319.62,-164 424.12,-164 424.12,-184"/>
<text text-anchor="middle" x="371.88" y="-170.5" font-family="Helvetica,sans-Serif" font-size="10.00">CAN1_FIFO_InfoGet</text>
</a>
</g>
</g>
<!-- Node2&#45;&gt;Node4 -->
<g id="edge3_Node000002_Node000004" class="edge">
<title>Node2&#45;&gt;Node4</title>
<g id="a_edge3_Node000002_Node000004"><a xlink:title=" ">
<path fill="none" stroke="#63b8ff" d="M237.1,-127.33C252.43,-135.7 275.13,-147.31 296,-155 301.43,-157 307.15,-158.87 312.92,-160.59"/>
<polygon fill="#63b8ff" stroke="#63b8ff" points="311.71,-164.16 322.28,-163.52 313.62,-157.43 311.71,-164.16"/>
</a>
</g>
</g>
<!-- Node5 -->
<g id="Node000005" class="node">
<title>Node5</title>
<g id="a_Node000005"><a xlink:href="a00521.html#ga0980f888cad241edaa859783bb4a89d7" target="_top" xlink:title="This function Read the message object from user input and update to the CAN1 TX FIFO.">
<polygon fill="white" stroke="#666666" points="439.88,-146 303.88,-146 303.88,-126 439.88,-126 439.88,-146"/>
<text text-anchor="middle" x="371.88" y="-132.5" font-family="Helvetica,sans-Serif" font-size="10.00">CAN1_MessageWriteToFifo</text>
</a>
</g>
</g>
<!-- Node2&#45;&gt;Node5 -->
<g id="edge4_Node000002_Node000005" class="edge">
<title>Node2&#45;&gt;Node5</title>
<g id="a_edge4_Node000002_Node000005"><a xlink:title=" ">
<path fill="none" stroke="#63b8ff" d="M260.41,-122.19C270.53,-123.46 281.69,-124.85 292.91,-126.25"/>
<polygon fill="#63b8ff" stroke="#63b8ff" points="292.3,-129.83 302.65,-127.6 293.16,-122.88 292.3,-129.83"/>
</a>
</g>
</g>
<!-- Node6 -->
<g id="Node000006" class="node">
<title>Node6</title>
<g id="a_Node000006"><a xlink:href="a00521.html#gaedd6e334545a38cd71fe86ff4f9e78c3" target="_top" xlink:title="Get the CAN1 operation mode.">
<polygon fill="white" stroke="#666666" points="436.12,-108 307.62,-108 307.62,-88 436.12,-88 436.12,-108"/>
<text text-anchor="middle" x="371.88" y="-94.5" font-family="Helvetica,sans-Serif" font-size="10.00">CAN1_OperationModeGet</text>
</a>
</g>
</g>
<!-- Node2&#45;&gt;Node6 -->
<g id="edge6_Node000002_Node000006" class="edge">
<title>Node2&#45;&gt;Node6</title>
<g id="a_edge6_Node000002_Node000006"><a xlink:title=" ">
<path fill="none" stroke="#63b8ff" d="M260.41,-111.81C271.56,-110.41 283.96,-108.86 296.32,-107.32"/>
<polygon fill="#63b8ff" stroke="#63b8ff" points="296.64,-110.68 306.13,-105.97 295.77,-103.74 296.64,-110.68"/>
</a>
</g>
</g>
<!-- Node7 -->
<g id="Node000007" class="node">
<title>Node7</title>
<g id="a_Node000007"><a xlink:href="a00521.html#ga1d293f033f5d27b360cf00d4644c63eb" target="_top" xlink:title="Returns the CAN1 transmitter FIFO status.">
<polygon fill="white" stroke="#666666" points="447,-70 296.75,-70 296.75,-50 447,-50 447,-70"/>
<text text-anchor="middle" x="371.88" y="-56.5" font-family="Helvetica,sans-Serif" font-size="10.00">CAN1_TransmitFIFOStatusGet</text>
</a>
</g>
</g>
<!-- Node2&#45;&gt;Node7 -->
<g id="edge7_Node000002_Node000007" class="edge">
<title>Node2&#45;&gt;Node7</title>
<g id="a_edge7_Node000002_Node000007"><a xlink:title=" ">
<path fill="none" stroke="#63b8ff" d="M237.1,-106.67C252.43,-98.3 275.13,-86.69 296,-79 301.43,-77 307.15,-75.13 312.92,-73.41"/>
<polygon fill="#63b8ff" stroke="#63b8ff" points="313.62,-76.57 322.28,-70.48 311.71,-69.84 313.62,-76.57"/>
</a>
</g>
</g>
<!-- Node8 -->
<g id="Node000008" class="node">
<title>Node8</title>
<g id="a_Node000008"><a xlink:href="a00521.html#gaedb86f6e4e8ac0efba711d7f3d7b688c" target="_top" xlink:title="This function enables The FIFO transmit message send request bit.">
<polygon fill="white" stroke="#666666" points="447.75,-32 296,-32 296,0 447.75,0 447.75,-32"/>
<text text-anchor="start" x="304" y="-18.5" font-family="Helvetica,sans-Serif" font-size="10.00">CAN1_TX_FIFO_MessageSend</text>
<text text-anchor="middle" x="371.88" y="-6.5" font-family="Helvetica,sans-Serif" font-size="10.00">Request</text>
</a>
</g>
</g>
<!-- Node2&#45;&gt;Node8 -->
<g id="edge8_Node000002_Node000008" class="edge">
<title>Node2&#45;&gt;Node8</title>
<g id="a_edge8_Node000002_Node000008"><a xlink:title=" ">
<path fill="none" stroke="#63b8ff" d="M226.75,-106.64C239.57,-90.43 266.51,-59.08 296,-41 298.3,-39.59 300.69,-38.25 303.14,-36.97"/>
<polygon fill="#63b8ff" stroke="#63b8ff" points="304.3,-39.82 311.84,-32.38 301.31,-33.5 304.3,-39.82"/>
</a>
</g>
</g>
<!-- Node5&#45;&gt;Node3 -->
<g id="edge5_Node000005_Node000003" class="edge">
<title>Node5&#45;&gt;Node3</title>
<g id="a_edge5_Node000005_Node000003"><a xlink:title=" ">
<path fill="none" stroke="#63b8ff" d="M421.54,-146.48C442.74,-151.05 467.79,-156.45 490.07,-161.25"/>
<polygon fill="#63b8ff" stroke="#63b8ff" points="489.23,-164.87 499.75,-163.55 490.71,-158.02 489.23,-164.87"/>
</a>
</g>
</g>
</g>
</svg>

<g id="navigator" transform="translate(0 0)" fill="#404254">
  <rect fill="#f2f5e9" fill-opacity="0.5" stroke="#606060" stroke-width=".5" x="0" y="0" width="60" height="60"/>
  <use id="zoomplus" xlink:href="#zoomPlus" x="17" y="9" onmousedown="handleZoom(evt,'in')"/>
  <use id="zoomminus" xlink:href="#zoomMin" x="42" y="9" onmousedown="handleZoom(evt,'out')"/>
  <use id="reset" xlink:href="#resetDef" x="30" y="36" onmousedown="handleReset()"/>
   <use id="arrowup" xlink:href="#arrowUp" x="0" y="0" onmousedown="handlePan(0,-1)"/>
  <use id="arrowright" xlink:href="#arrowRight" x="0" y="0" onmousedown="handlePan(1,0)"/>
  <use id="arrowdown" xlink:href="#arrowDown" x="0" y="0" onmousedown="handlePan(0,1)"/>
  <use id="arrowleft" xlink:href="#arrowLeft" x="0" y="0" onmousedown="handlePan(-1,0)"/>
</g>
<svg viewBox="0 0 15 15" width="100%" height="30px" preserveAspectRatio="xMaxYMin meet">
 <g id="arrow_out" transform="scale(0.3 0.3)">
  <a xlink:href="a00491_gae06ebd7cad07c3a104d5b46c6f6323dc_cgraph_org.svg" target="_base">
   <rect id="button" ry="5" rx="5" y="6" x="6" height="38" width="38"
        fill="#f2f5e9" fill-opacity="0.5" stroke="#606060" stroke-width="1.0"/>
   <path id="arrow"
     d="M 11.500037,31.436501 C 11.940474,20.09759 22.043105,11.32322 32.158766,21.979434 L 37.068811,17.246167 C 37.068811,17.246167 37.088388,32 37.088388,32 L 22.160133,31.978069 C 22.160133,31.978069 26.997745,27.140456 26.997745,27.140456 C 18.528582,18.264221 13.291696,25.230495 11.500037,31.436501 z"
     style="fill:#404040;"/>
  </a>
 </g>
</svg>

<style type='text/css'>
<![CDATA[
[data-mouse-over-selected='false'] { opacity: 0.7; }
[data-mouse-over-selected='true']  { opacity: 1.0; }
]]>
</style>
<script type="application/ecmascript"><![CDATA[
document.addEventListener('DOMContentLoaded', (event) => {
  highlightEdges();
  highlightAdjacentNodes();
});
]]></script>
</svg>
