<?xml version="1.0" encoding="UTF-8" standalone="no"?>
<!DOCTYPE svg PUBLIC "-//W3C//DTD SVG 1.1//EN"
 "http://www.w3.org/Graphics/SVG/1.1/DTD/svg11.dtd">
<!-- Generated by graphviz version 8.1.0 (20230707.0739)
 -->
<!-- Title: App_PBV_DAB_Process_Rx_Data Pages: 1 -->
<svg width="311pt" height="332pt"
 viewBox="0.00 0.00 310.75 332.00" xmlns="http://www.w3.org/2000/svg" xmlns:xlink="http://www.w3.org/1999/xlink">
<g id="graph0" class="graph" transform="scale(1 1) rotate(0) translate(4 328)">
<title>App_PBV_DAB_Process_Rx_Data</title>
<!-- Node1 -->
<g id="Node000001" class="node">
<title>Node1</title>
<g id="a_Node000001"><a xlink:title="process received data">
<polygon fill="#999999" stroke="#666666" points="125.5,-178 0,-178 0,-146 125.5,-146 125.5,-178"/>
<text text-anchor="start" x="8" y="-164.5" font-family="Helvetica,sans-Serif" font-size="10.00">App_PBV_DAB_Process</text>
<text text-anchor="middle" x="62.75" y="-152.5" font-family="Helvetica,sans-Serif" font-size="10.00">_Rx_Data</text>
</a>
</g>
</g>
<!-- Node2 -->
<g id="Node000002" class="node">
<title>Node2</title>
<g id="a_Node000002"><a xlink:href="a00499.html#ga5cfd61659ae6b17ad25e51bfc211723b" target="_top" xlink:title="Sets the fan speed.">
<polygon fill="white" stroke="#666666" points="285.5,-324 178.75,-324 178.75,-304 285.5,-304 285.5,-324"/>
<text text-anchor="middle" x="232.12" y="-310.5" font-family="Helvetica,sans-Serif" font-size="10.00">Dev_Fan_Set_Speed</text>
</a>
</g>
</g>
<!-- Node1&#45;&gt;Node2 -->
<g id="edge1_Node000001_Node000002" class="edge">
<title>Node1&#45;&gt;Node2</title>
<g id="a_edge1_Node000001_Node000002"><a xlink:title=" ">
<path fill="none" stroke="#63b8ff" d="M71.16,-178.26C84.85,-206.46 116.85,-264.34 161.5,-295 163.76,-296.55 166.14,-297.98 168.61,-299.29"/>
<polygon fill="#63b8ff" stroke="#63b8ff" points="166.91,-302.81 177.46,-303.78 169.82,-296.45 166.91,-302.81"/>
</a>
</g>
</g>
<!-- Node3 -->
<g id="Node000003" class="node">
<title>Node3</title>
<g id="a_Node000003"><a xlink:href="a00511.html#gad6514b638a32baed68543a56bedd5c5d" target="_top" xlink:title="API function to get the PWM duty cycle.">
<polygon fill="white" stroke="#666666" points="302,-286 162.25,-286 162.25,-266 302,-266 302,-286"/>
<text text-anchor="middle" x="232.12" y="-272.5" font-family="Helvetica,sans-Serif" font-size="10.00">Dev_PwrCtrl_Get_DutyCycle</text>
</a>
</g>
</g>
<!-- Node1&#45;&gt;Node3 -->
<g id="edge2_Node000001_Node000003" class="edge">
<title>Node1&#45;&gt;Node3</title>
<g id="a_edge2_Node000001_Node000003"><a xlink:title=" ">
<path fill="none" stroke="#63b8ff" d="M76.11,-178.35C93.06,-199.61 125.54,-236.47 161.5,-257 164.49,-258.71 167.65,-260.27 170.89,-261.69"/>
<polygon fill="#63b8ff" stroke="#63b8ff" points="169.24,-265.2 179.83,-265.57 171.79,-258.68 169.24,-265.2"/>
</a>
</g>
</g>
<!-- Node4 -->
<g id="Node000004" class="node">
<title>Node4</title>
<g id="a_Node000004"><a xlink:href="a00511.html#ga071b955cb9687b27b8ce895a29febc66" target="_top" xlink:title="API function to set the power control enable bit.">
<polygon fill="white" stroke="#666666" points="281,-248 183.25,-248 183.25,-228 281,-228 281,-248"/>
<text text-anchor="middle" x="232.12" y="-234.5" font-family="Helvetica,sans-Serif" font-size="10.00">PwrCtrl_SetEnable</text>
</a>
</g>
</g>
<!-- Node1&#45;&gt;Node4 -->
<g id="edge3_Node000001_Node000004" class="edge">
<title>Node1&#45;&gt;Node4</title>
<g id="a_edge3_Node000001_Node000004"><a xlink:title=" ">
<path fill="none" stroke="#63b8ff" d="M87.73,-178.38C106.98,-190.93 135.05,-207.91 161.5,-219 166.1,-220.93 170.95,-222.72 175.86,-224.36"/>
<polygon fill="#63b8ff" stroke="#63b8ff" points="174.38,-227.88 184.97,-227.53 176.48,-221.2 174.38,-227.88"/>
</a>
</g>
</g>
<!-- Node5 -->
<g id="Node000005" class="node">
<title>Node5</title>
<g id="a_Node000005"><a xlink:href="a00511.html#ga70c7b962e7df84e7d49fd37a76826059" target="_top" xlink:title="API function to set the current controller reference.">
<polygon fill="white" stroke="#666666" points="288.88,-210 175.38,-210 175.38,-190 288.88,-190 288.88,-210"/>
<text text-anchor="middle" x="232.12" y="-196.5" font-family="Helvetica,sans-Serif" font-size="10.00">PwrCtrl_SetIReference</text>
</a>
</g>
</g>
<!-- Node1&#45;&gt;Node5 -->
<g id="edge4_Node000001_Node000005" class="edge">
<title>Node1&#45;&gt;Node5</title>
<g id="a_edge4_Node000001_Node000005"><a xlink:title=" ">
<path fill="none" stroke="#63b8ff" d="M125.6,-176.04C141.56,-179.67 158.67,-183.55 174.36,-187.11"/>
<polygon fill="#63b8ff" stroke="#63b8ff" points="173.44,-190.72 183.97,-189.52 174.99,-183.89 173.44,-190.72"/>
</a>
</g>
</g>
<!-- Node6 -->
<g id="Node000006" class="node">
<title>Node6</title>
<g id="a_Node000006"><a xlink:href="a00511.html#ga80737f595e2855e9361772d2c1a9852d" target="_top" xlink:title="API function to set the target prim to sec phase which will steer other modulation.">
<polygon fill="white" stroke="#666666" points="302.75,-172 161.5,-172 161.5,-152 302.75,-152 302.75,-172"/>
<text text-anchor="middle" x="232.12" y="-158.5" font-family="Helvetica,sans-Serif" font-size="10.00">PwrCtrl_SetP2SPhaseTarget</text>
</a>
</g>
</g>
<!-- Node1&#45;&gt;Node6 -->
<g id="edge5_Node000001_Node000006" class="edge">
<title>Node1&#45;&gt;Node6</title>
<g id="a_edge5_Node000001_Node000006"><a xlink:title=" ">
<path fill="none" stroke="#63b8ff" d="M125.6,-162C133.63,-162 141.94,-162 150.23,-162"/>
<polygon fill="#63b8ff" stroke="#63b8ff" points="150.06,-165.5 160.06,-162 150.06,-158.5 150.06,-165.5"/>
</a>
</g>
</g>
<!-- Node7 -->
<g id="Node000007" class="node">
<title>Node7</title>
<g id="a_Node000007"><a xlink:href="a00511.html#ga75fdd46231baccc4830fa08d2b39a3d2" target="_top" xlink:title="API function to set the target period.">
<polygon fill="white" stroke="#666666" points="293.38,-134 170.88,-134 170.88,-114 293.38,-114 293.38,-134"/>
<text text-anchor="middle" x="232.12" y="-120.5" font-family="Helvetica,sans-Serif" font-size="10.00">PwrCtrl_SetPeriodTarget</text>
</a>
</g>
</g>
<!-- Node1&#45;&gt;Node7 -->
<g id="edge6_Node000001_Node000007" class="edge">
<title>Node1&#45;&gt;Node7</title>
<g id="a_edge6_Node000001_Node000007"><a xlink:title=" ">
<path fill="none" stroke="#63b8ff" d="M125.6,-147.96C141.56,-144.33 158.67,-140.45 174.36,-136.89"/>
<polygon fill="#63b8ff" stroke="#63b8ff" points="174.99,-140.11 183.97,-134.48 173.44,-133.28 174.99,-140.11"/>
</a>
</g>
</g>
<!-- Node8 -->
<g id="Node000008" class="node">
<title>Node8</title>
<g id="a_Node000008"><a xlink:href="a00511.html#gae62d241af8152bb7989d448f30adc55e" target="_top" xlink:title="API function to set the target PWM phase.">
<polygon fill="white" stroke="#666666" points="293.38,-96 170.88,-96 170.88,-76 293.38,-76 293.38,-96"/>
<text text-anchor="middle" x="232.12" y="-82.5" font-family="Helvetica,sans-Serif" font-size="10.00">PwrCtrl_SetPhaseTarget</text>
</a>
</g>
</g>
<!-- Node1&#45;&gt;Node8 -->
<g id="edge7_Node000001_Node000008" class="edge">
<title>Node1&#45;&gt;Node8</title>
<g id="a_edge7_Node000001_Node000008"><a xlink:title=" ">
<path fill="none" stroke="#63b8ff" d="M87.73,-145.62C106.98,-133.07 135.05,-116.09 161.5,-105 166.1,-103.07 170.95,-101.28 175.86,-99.64"/>
<polygon fill="#63b8ff" stroke="#63b8ff" points="176.48,-102.8 184.97,-96.47 174.38,-96.12 176.48,-102.8"/>
</a>
</g>
</g>
<!-- Node9 -->
<g id="Node000009" class="node">
<title>Node9</title>
<g id="a_Node000009"><a xlink:href="a00511.html#ga574faff7b911d52ae6d2cf53b68a8963" target="_top" xlink:title="API function to set the power controller reference.">
<polygon fill="white" stroke="#666666" points="296,-58 168.25,-58 168.25,-38 296,-38 296,-58"/>
<text text-anchor="middle" x="232.12" y="-44.5" font-family="Helvetica,sans-Serif" font-size="10.00">PwrCtrl_SetPwrReference</text>
</a>
</g>
</g>
<!-- Node1&#45;&gt;Node9 -->
<g id="edge8_Node000001_Node000009" class="edge">
<title>Node1&#45;&gt;Node9</title>
<g id="a_edge8_Node000001_Node000009"><a xlink:title=" ">
<path fill="none" stroke="#63b8ff" d="M76.11,-145.65C93.06,-124.39 125.54,-87.53 161.5,-67 164.49,-65.29 167.65,-63.73 170.89,-62.31"/>
<polygon fill="#63b8ff" stroke="#63b8ff" points="171.79,-65.32 179.83,-58.43 169.24,-58.8 171.79,-65.32"/>
</a>
</g>
</g>
<!-- Node10 -->
<g id="Node000010" class="node">
<title>Node10</title>
<g id="a_Node000010"><a xlink:href="a00511.html#ga919933b7bef6f9fa8094848c413e7881" target="_top" xlink:title="API function to set the secondary voltage controller reference.">
<polygon fill="white" stroke="#666666" points="299.75,-20 164.5,-20 164.5,0 299.75,0 299.75,-20"/>
<text text-anchor="middle" x="232.12" y="-6.5" font-family="Helvetica,sans-Serif" font-size="10.00">PwrCtrl_SetVSecReference</text>
</a>
</g>
</g>
<!-- Node1&#45;&gt;Node10 -->
<g id="edge9_Node000001_Node000010" class="edge">
<title>Node1&#45;&gt;Node10</title>
<g id="a_edge9_Node000001_Node000010"><a xlink:title=" ">
<path fill="none" stroke="#63b8ff" d="M71.16,-145.74C84.85,-117.54 116.85,-59.66 161.5,-29 163.64,-27.53 165.88,-26.18 168.2,-24.93"/>
<polygon fill="#63b8ff" stroke="#63b8ff" points="169.49,-27.73 177.1,-20.36 166.56,-21.37 169.49,-27.73"/>
</a>
</g>
</g>
</g>
</svg>
