<?xml version="1.0" encoding="UTF-8" standalone="no"?>
<!DOCTYPE svg PUBLIC "-//W3C//DTD SVG 1.1//EN"
 "http://www.w3.org/Graphics/SVG/1.1/DTD/svg11.dtd">
<!-- Generated by graphviz version 8.1.0 (20230707.0739)
 -->
<!-- Title: Dev_Fault_Handler Pages: 1 -->
<svg width="408pt" height="110pt"
 viewBox="0.00 0.00 407.75 110.00" xmlns="http://www.w3.org/2000/svg" xmlns:xlink="http://www.w3.org/1999/xlink">
<g id="graph0" class="graph" transform="scale(1 1) rotate(0) translate(4 106)">
<title>Dev_Fault_Handler</title>
<!-- Node1 -->
<g id="Node000001" class="node">
<title>Node1</title>
<g id="a_Node000001"><a xlink:title="Handles the fault trip by turning off the power control switching.">
<polygon fill="#999999" stroke="#666666" points="399.75,-58 302.75,-58 302.75,-38 399.75,-38 399.75,-58"/>
<text text-anchor="middle" x="351.25" y="-44.5" font-family="Helvetica,sans-Serif" font-size="10.00">Dev_Fault_Handler</text>
</a>
</g>
</g>
<!-- Node2 -->
<g id="Node000002" class="node">
<title>Node2</title>
<g id="a_Node000002"><a xlink:href="a00498.html#ga7ca815f0afe45529a572a517f5d5e03e" target="_top" xlink:title="Executes the fault handlers.">
<polygon fill="white" stroke="#666666" points="255.5,-96 155.5,-96 155.5,-76 255.5,-76 255.5,-96"/>
<text text-anchor="middle" x="205.5" y="-82.5" font-family="Helvetica,sans-Serif" font-size="10.00">Dev_Fault_Execute</text>
</a>
</g>
</g>
<!-- Node1&#45;&gt;Node2 -->
<g id="edge1_Node000001_Node000002" class="edge">
<title>Node1&#45;&gt;Node2</title>
<g id="a_edge1_Node000001_Node000002"><a xlink:title=" ">
<path fill="none" stroke="#63b8ff" d="M300.39,-61.18C282.6,-65.88 262.83,-71.11 246.03,-75.55"/>
<polygon fill="#63b8ff" stroke="#63b8ff" points="300.82,-64.42 309.59,-58.48 299.03,-57.66 300.82,-64.42"/>
</a>
</g>
</g>
<!-- Node4 -->
<g id="Node000004" class="node">
<title>Node4</title>
<g id="a_Node000004"><a xlink:href="a00498.html#gaf5d210df8b3540e4dd911cb3d8c77fcd" target="_top" xlink:title="Initialize the fault objects.">
<polygon fill="white" stroke="#666666" points="255.12,-58 155.88,-58 155.88,-38 255.12,-38 255.12,-58"/>
<text text-anchor="middle" x="205.5" y="-44.5" font-family="Helvetica,sans-Serif" font-size="10.00">Dev_Fault_Initialize</text>
</a>
</g>
</g>
<!-- Node1&#45;&gt;Node4 -->
<g id="edge3_Node000001_Node000004" class="edge">
<title>Node1&#45;&gt;Node4</title>
<g id="a_edge3_Node000001_Node000004"><a xlink:title=" ">
<path fill="none" stroke="#63b8ff" d="M291.48,-48C279.4,-48 266.81,-48 255.14,-48"/>
<polygon fill="#63b8ff" stroke="#63b8ff" points="291.38,-51.5 301.38,-48 291.38,-44.5 291.38,-51.5"/>
</a>
</g>
</g>
<!-- Node5 -->
<g id="Node000005" class="node">
<title>Node5</title>
<g id="a_Node000005"><a xlink:href="a00498.html#ga86410f4477516eb5de88e12c3108162d" target="_top" xlink:title="Fault evaluation for Temperature.">
<polygon fill="white" stroke="#666666" points="266.75,-20 144.25,-20 144.25,0 266.75,0 266.75,-20"/>
<text text-anchor="middle" x="205.5" y="-6.5" font-family="Helvetica,sans-Serif" font-size="10.00">Dev_Fault_Temp_100ms</text>
</a>
</g>
</g>
<!-- Node1&#45;&gt;Node5 -->
<g id="edge4_Node000001_Node000005" class="edge">
<title>Node1&#45;&gt;Node5</title>
<g id="a_edge4_Node000001_Node000005"><a xlink:title=" ">
<path fill="none" stroke="#63b8ff" d="M300.39,-34.82C282.6,-30.12 262.83,-24.89 246.03,-20.45"/>
<polygon fill="#63b8ff" stroke="#63b8ff" points="299.03,-38.34 309.59,-37.52 300.82,-31.58 299.03,-38.34"/>
</a>
</g>
</g>
<!-- Node3 -->
<g id="Node000003" class="node">
<title>Node3</title>
<g id="a_Node000003"><a xlink:href="a00490.html#gae32c9e5ed4d1fb98fc13b26601782c10" target="_top" xlink:title="Executes the power conveter&#39;s control loop.">
<polygon fill="white" stroke="#666666" points="108.25,-102 0,-102 0,-70 108.25,-70 108.25,-102"/>
<text text-anchor="start" x="8" y="-88.5" font-family="Helvetica,sans-Serif" font-size="10.00">ControlLoop_Interrupt</text>
<text text-anchor="middle" x="54.12" y="-76.5" font-family="Helvetica,sans-Serif" font-size="10.00">_CallBack</text>
</a>
</g>
</g>
<!-- Node2&#45;&gt;Node3 -->
<g id="edge2_Node000002_Node000003" class="edge">
<title>Node2&#45;&gt;Node3</title>
<g id="a_edge2_Node000002_Node000003"><a xlink:title=" ">
<path fill="none" stroke="#63b8ff" d="M144.44,-86C132.56,-86 120.16,-86 108.51,-86"/>
<polygon fill="#63b8ff" stroke="#63b8ff" points="144.18,-89.5 154.18,-86 144.18,-82.5 144.18,-89.5"/>
</a>
</g>
</g>
<!-- Node6 -->
<g id="Node000006" class="node">
<title>Node6</title>
<g id="a_Node000006"><a xlink:href="a00507.html#ga6d5c487ee3f418e6d0432867d11adaed" target="_top" xlink:title="Tasks_100ms gets called every 100 ms, put your things in it that need to be called regularly.">
<polygon fill="white" stroke="#666666" points="92.5,-20 15.75,-20 15.75,0 92.5,0 92.5,-20"/>
<text text-anchor="middle" x="54.12" y="-6.5" font-family="Helvetica,sans-Serif" font-size="10.00">Tasks_100ms</text>
</a>
</g>
</g>
<!-- Node5&#45;&gt;Node6 -->
<g id="edge5_Node000005_Node000006" class="edge">
<title>Node5&#45;&gt;Node6</title>
<g id="a_edge5_Node000005_Node000006"><a xlink:title=" ">
<path fill="none" stroke="#63b8ff" d="M133.52,-10C119.49,-10 105.29,-10 92.9,-10"/>
<polygon fill="#63b8ff" stroke="#63b8ff" points="133.17,-13.5 143.17,-10 133.17,-6.5 133.17,-13.5"/>
</a>
</g>
</g>
</g>
</svg>
