<?xml version="1.0" encoding="UTF-8" standalone="no"?>
<!DOCTYPE svg PUBLIC "-//W3C//DTD SVG 1.1//EN"
 "http://www.w3.org/Graphics/SVG/1.1/DTD/svg11.dtd">
<!-- Generated by graphviz version 8.1.0 (20230707.0739)
 -->
<!-- Title: FAULT_CheckMin Pages: 1 -->
<svg width="406pt" height="72pt"
 viewBox="0.00 0.00 405.50 72.00" xmlns="http://www.w3.org/2000/svg" xmlns:xlink="http://www.w3.org/1999/xlink">
<g id="graph0" class="graph" transform="scale(1 1) rotate(0) translate(4 68)">
<title>FAULT_CheckMin</title>
<!-- Node1 -->
<g id="Node000001" class="node">
<title>Node1</title>
<g id="a_Node000001"><a xlink:title="This function compares the fault source value with the threshold limits and sets (or) resets the faul...">
<polygon fill="#999999" stroke="#666666" points="397.5,-39 302.75,-39 302.75,-19 397.5,-19 397.5,-39"/>
<text text-anchor="middle" x="350.12" y="-25.5" font-family="Helvetica,sans-Serif" font-size="10.00">FAULT_CheckMin</text>
</a>
</g>
</g>
<!-- Node2 -->
<g id="Node000002" class="node">
<title>Node2</title>
<g id="a_Node000002"><a xlink:href="a00497.html#ga7ca815f0afe45529a572a517f5d5e03e" target="_top" xlink:title="Executes the fault handlers.">
<polygon fill="white" stroke="#666666" points="255.5,-58 155.5,-58 155.5,-38 255.5,-38 255.5,-58"/>
<text text-anchor="middle" x="205.5" y="-44.5" font-family="Helvetica,sans-Serif" font-size="10.00">Dev_Fault_Execute</text>
</a>
</g>
</g>
<!-- Node1&#45;&gt;Node2 -->
<g id="edge1_Node000001_Node000002" class="edge">
<title>Node1&#45;&gt;Node2</title>
<g id="a_edge1_Node000001_Node000002"><a xlink:title=" ">
<path fill="none" stroke="#63b8ff" d="M291.68,-36.65C279.78,-38.24 267.34,-39.9 255.76,-41.44"/>
<polygon fill="#63b8ff" stroke="#63b8ff" points="291.97,-40.01 301.42,-35.22 291.05,-33.07 291.97,-40.01"/>
</a>
</g>
</g>
<!-- Node4 -->
<g id="Node000004" class="node">
<title>Node4</title>
<g id="a_Node000004"><a xlink:href="a00497.html#ga86410f4477516eb5de88e12c3108162d" target="_top" xlink:title="Fault evaluation for Temperature.">
<polygon fill="white" stroke="#666666" points="266.75,-20 144.25,-20 144.25,0 266.75,0 266.75,-20"/>
<text text-anchor="middle" x="205.5" y="-6.5" font-family="Helvetica,sans-Serif" font-size="10.00">Dev_Fault_Temp_100ms</text>
</a>
</g>
</g>
<!-- Node1&#45;&gt;Node4 -->
<g id="edge3_Node000001_Node000004" class="edge">
<title>Node1&#45;&gt;Node4</title>
<g id="a_edge3_Node000001_Node000004"><a xlink:title=" ">
<path fill="none" stroke="#63b8ff" d="M291.6,-21.34C283.53,-20.26 275.2,-19.15 267.07,-18.07"/>
<polygon fill="#63b8ff" stroke="#63b8ff" points="291.05,-24.93 301.42,-22.78 291.97,-17.99 291.05,-24.93"/>
</a>
</g>
</g>
<!-- Node3 -->
<g id="Node000003" class="node">
<title>Node3</title>
<g id="a_Node000003"><a xlink:href="a00489.html#gae32c9e5ed4d1fb98fc13b26601782c10" target="_top" xlink:title="Executes the power conveter&#39;s control loop.">
<polygon fill="white" stroke="#666666" points="108.25,-64 0,-64 0,-32 108.25,-32 108.25,-64"/>
<text text-anchor="start" x="8" y="-50.5" font-family="Helvetica,sans-Serif" font-size="10.00">ControlLoop_Interrupt</text>
<text text-anchor="middle" x="54.12" y="-38.5" font-family="Helvetica,sans-Serif" font-size="10.00">_CallBack</text>
</a>
</g>
</g>
<!-- Node2&#45;&gt;Node3 -->
<g id="edge2_Node000002_Node000003" class="edge">
<title>Node2&#45;&gt;Node3</title>
<g id="a_edge2_Node000002_Node000003"><a xlink:title=" ">
<path fill="none" stroke="#63b8ff" d="M144.44,-48C132.56,-48 120.16,-48 108.51,-48"/>
<polygon fill="#63b8ff" stroke="#63b8ff" points="144.18,-51.5 154.18,-48 144.18,-44.5 144.18,-51.5"/>
</a>
</g>
</g>
</g>
</svg>
