<?xml version="1.0" encoding="UTF-8" standalone="no"?>
<!DOCTYPE svg PUBLIC "-//W3C//DTD SVG 1.1//EN"
 "http://www.w3.org/Graphics/SVG/1.1/DTD/svg11.dtd">
<!-- Generated by graphviz version 8.1.0 (20230707.0739)
 -->
<!-- Title: dspic33ck&#45;dab.X/sources/pwrctrl/dcdt/smps_control.h Pages: 1 -->
<svg width="588pt" height="200pt"
 viewBox="0.00 0.00 587.75 200.00" xmlns="http://www.w3.org/2000/svg" xmlns:xlink="http://www.w3.org/1999/xlink">
<g id="graph0" class="graph" transform="scale(1 1) rotate(0) translate(4 196)">
<title>dspic33ck&#45;dab.X/sources/pwrctrl/dcdt/smps_control.h</title>
<!-- Node1 -->
<g id="Node000001" class="node">
<title>Node1</title>
<g id="a_Node000001"><a xlink:title="Contains the DCDT generated functions and data types.">
<polygon fill="#999999" stroke="#666666" points="352.88,-192 213.88,-192 213.88,-160 352.88,-160 352.88,-192"/>
<text text-anchor="start" x="221.88" y="-178.5" font-family="Helvetica,sans-Serif" font-size="10.00">dspic33ck&#45;dab.X/sources</text>
<text text-anchor="middle" x="283.38" y="-166.5" font-family="Helvetica,sans-Serif" font-size="10.00">/pwrctrl/dcdt/smps_control.h</text>
</a>
</g>
</g>
<!-- Node2 -->
<g id="Node000002" class="node">
<title>Node2</title>
<g id="a_Node000002"><a xlink:href="a00449.html" target="_top" xlink:title="Contains public functions and data types relevant for DCDT file interface.">
<polygon fill="white" stroke="#666666" points="345.75,-124 221,-124 221,-80 345.75,-80 345.75,-124"/>
<text text-anchor="start" x="229" y="-110.5" font-family="Helvetica,sans-Serif" font-size="10.00">dspic33ck&#45;dab.X/sources</text>
<text text-anchor="start" x="229" y="-98.5" font-family="Helvetica,sans-Serif" font-size="10.00">/pwrctrl/dcdt/pwrctrl</text>
<text text-anchor="middle" x="283.38" y="-86.5" font-family="Helvetica,sans-Serif" font-size="10.00">_dcdt.h</text>
</a>
</g>
</g>
<!-- Node1&#45;&gt;Node2 -->
<g id="edge1_Node000001_Node000002" class="edge">
<title>Node1&#45;&gt;Node2</title>
<g id="a_edge1_Node000001_Node000002"><a xlink:title=" ">
<path fill="none" stroke="#63b8ff" d="M283.38,-148.94C283.38,-140.84 283.38,-132 283.38,-124.26"/>
<polygon fill="#63b8ff" stroke="#63b8ff" points="279.88,-148.73 283.38,-158.73 286.88,-148.73 279.88,-148.73"/>
</a>
</g>
</g>
<!-- Node3 -->
<g id="Node000003" class="node">
<title>Node3</title>
<g id="a_Node000003"><a xlink:href="a00446.html" target="_top" xlink:title="Contains individual DCDT control loop initialization functions.">
<polygon fill="white" stroke="#666666" points="124.75,-44 0,-44 0,0 124.75,0 124.75,-44"/>
<text text-anchor="start" x="8" y="-30.5" font-family="Helvetica,sans-Serif" font-size="10.00">dspic33ck&#45;dab.X/sources</text>
<text text-anchor="start" x="8" y="-18.5" font-family="Helvetica,sans-Serif" font-size="10.00">/pwrctrl/dcdt/pwrctrl</text>
<text text-anchor="middle" x="62.38" y="-6.5" font-family="Helvetica,sans-Serif" font-size="10.00">_dcdt.c</text>
</a>
</g>
</g>
<!-- Node2&#45;&gt;Node3 -->
<g id="edge2_Node000002_Node000003" class="edge">
<title>Node2&#45;&gt;Node3</title>
<g id="a_edge2_Node000002_Node000003"><a xlink:title=" ">
<path fill="none" stroke="#63b8ff" d="M212.66,-76.04C183.77,-65.84 150.68,-54.17 122.92,-44.37"/>
<polygon fill="#63b8ff" stroke="#63b8ff" points="211.1,-79.56 221.69,-79.58 213.43,-72.95 211.1,-79.56"/>
</a>
</g>
</g>
<!-- Node4 -->
<g id="Node000004" class="node">
<title>Node4</title>
<g id="a_Node000004"><a xlink:href="a00467.html" target="_top" xlink:title="Contains power control initialization including control loop initialization and start&#45;up initializati...">
<polygon fill="white" stroke="#666666" points="267.75,-38 143,-38 143,-6 267.75,-6 267.75,-38"/>
<text text-anchor="start" x="151" y="-24.5" font-family="Helvetica,sans-Serif" font-size="10.00">dspic33ck&#45;dab.X/sources</text>
<text text-anchor="middle" x="205.38" y="-12.5" font-family="Helvetica,sans-Serif" font-size="10.00">/pwrctrl/pwrctrl.c</text>
</a>
</g>
</g>
<!-- Node2&#45;&gt;Node4 -->
<g id="edge3_Node000002_Node000004" class="edge">
<title>Node2&#45;&gt;Node4</title>
<g id="a_edge3_Node000002_Node000004"><a xlink:title=" ">
<path fill="none" stroke="#63b8ff" d="M254.35,-71.97C242.84,-60.46 230.09,-47.71 220.48,-38.11"/>
<polygon fill="#63b8ff" stroke="#63b8ff" points="251.52,-74.09 261.06,-78.69 256.46,-69.14 251.52,-74.09"/>
</a>
</g>
</g>
<!-- Node5 -->
<g id="Node000005" class="node">
<title>Node5</title>
<g id="a_Node000005"><a xlink:href="a00491.html" target="_top" xlink:title="Contains some of the functions used in the interrupt service routine of control loop.">
<polygon fill="white" stroke="#666666" points="436.5,-38 286.25,-38 286.25,-6 436.5,-6 436.5,-38"/>
<text text-anchor="start" x="294.25" y="-24.5" font-family="Helvetica,sans-Serif" font-size="10.00">dspic33ck&#45;dab.X/sources</text>
<text text-anchor="middle" x="361.38" y="-12.5" font-family="Helvetica,sans-Serif" font-size="10.00">/pwrctrl/pwrctrl_isr_extension.c</text>
</a>
</g>
</g>
<!-- Node2&#45;&gt;Node5 -->
<g id="edge4_Node000002_Node000005" class="edge">
<title>Node2&#45;&gt;Node5</title>
<g id="a_edge4_Node000002_Node000005"><a xlink:title=" ">
<path fill="none" stroke="#63b8ff" d="M312.4,-71.97C323.91,-60.46 336.66,-47.71 346.27,-38.11"/>
<polygon fill="#63b8ff" stroke="#63b8ff" points="310.29,-69.14 305.69,-78.69 315.23,-74.09 310.29,-69.14"/>
</a>
</g>
</g>
<!-- Node6 -->
<g id="Node000006" class="node">
<title>Node6</title>
<g id="a_Node000006"><a xlink:href="a00500.html" target="_top" xlink:title="Contains power control state machine functions that is executed every 100us.">
<polygon fill="white" stroke="#666666" points="579.75,-38 455,-38 455,-6 579.75,-6 579.75,-38"/>
<text text-anchor="start" x="463" y="-24.5" font-family="Helvetica,sans-Serif" font-size="10.00">dspic33ck&#45;dab.X/sources</text>
<text text-anchor="middle" x="517.38" y="-12.5" font-family="Helvetica,sans-Serif" font-size="10.00">/pwrctrl/pwrctrl_sm.c</text>
</a>
</g>
</g>
<!-- Node2&#45;&gt;Node6 -->
<g id="edge5_Node000002_Node000006" class="edge">
<title>Node2&#45;&gt;Node6</title>
<g id="a_edge5_Node000002_Node000006"><a xlink:title=" ">
<path fill="none" stroke="#63b8ff" d="M356.46,-76.64C393.96,-64.14 438.5,-49.29 471.2,-38.39"/>
<polygon fill="#63b8ff" stroke="#63b8ff" points="355.46,-73.61 347.08,-80.1 357.68,-80.26 355.46,-73.61"/>
</a>
</g>
</g>
</g>
</svg>
