<?xml version="1.0" encoding="UTF-8" standalone="no"?>
<!DOCTYPE svg PUBLIC "-//W3C//DTD SVG 1.1//EN"
 "http://www.w3.org/Graphics/SVG/1.1/DTD/svg11.dtd">
<!-- Generated by graphviz version 8.1.0 (20230707.0739)
 -->
<!-- Title: Dev_Fan_Task_1s Pages: 1 -->
<svg width="281pt" height="78pt"
 viewBox="0.00 0.00 280.75 78.00" xmlns="http://www.w3.org/2000/svg" xmlns:xlink="http://www.w3.org/1999/xlink">
<g id="graph0" class="graph" transform="scale(1 1) rotate(0) translate(4 74)">
<title>Dev_Fan_Task_1s</title>
<!-- Node1 -->
<g id="Node000001" class="node">
<title>Node1</title>
<g id="a_Node000001"><a xlink:title="This function needs to be called every 1s to keep the temperature of the board at a certain temperatu...">
<polygon fill="#999999" stroke="#666666" points="95.5,-48 0,-48 0,-28 95.5,-28 95.5,-48"/>
<text text-anchor="middle" x="47.75" y="-34.5" font-family="Helvetica,sans-Serif" font-size="10.00">Dev_Fan_Task_1s</text>
</a>
</g>
</g>
<!-- Node2 -->
<g id="Node000002" class="node">
<title>Node2</title>
<g id="a_Node000002"><a xlink:href="a00499.html#ga5cfd61659ae6b17ad25e51bfc211723b" target="_top" xlink:title="Sets the fan speed.">
<polygon fill="white" stroke="#666666" points="255.5,-70 148.75,-70 148.75,-50 255.5,-50 255.5,-70"/>
<text text-anchor="middle" x="202.12" y="-56.5" font-family="Helvetica,sans-Serif" font-size="10.00">Dev_Fan_Set_Speed</text>
</a>
</g>
</g>
<!-- Node1&#45;&gt;Node2 -->
<g id="edge1_Node000001_Node000002" class="edge">
<title>Node1&#45;&gt;Node2</title>
<g id="a_edge1_Node000001_Node000002"><a xlink:title=" ">
<path fill="none" stroke="#63b8ff" d="M95.71,-44.78C109.02,-46.7 123.73,-48.83 137.84,-50.86"/>
<polygon fill="#63b8ff" stroke="#63b8ff" points="137.07,-54.43 147.47,-52.4 138.07,-47.5 137.07,-54.43"/>
</a>
</g>
</g>
<!-- Node3 -->
<g id="Node000003" class="node">
<title>Node3</title>
<g id="a_Node000003"><a xlink:href="a00501.html#gac9618e1ca87e77920c94cdfdcc80321a" target="_top" xlink:title="This converts the raw values to temperature celcius as per device lookup table.">
<polygon fill="white" stroke="#666666" points="272.75,-32 131.5,-32 131.5,0 272.75,0 272.75,-32"/>
<text text-anchor="start" x="139.5" y="-18.5" font-family="Helvetica,sans-Serif" font-size="10.00">Dev_Temp_Get_Temperature</text>
<text text-anchor="middle" x="202.12" y="-6.5" font-family="Helvetica,sans-Serif" font-size="10.00">_Celcius</text>
</a>
</g>
</g>
<!-- Node1&#45;&gt;Node3 -->
<g id="edge2_Node000001_Node000003" class="edge">
<title>Node1&#45;&gt;Node3</title>
<g id="a_edge2_Node000001_Node000003"><a xlink:title=" ">
<path fill="none" stroke="#63b8ff" d="M95.71,-31.22C103.58,-30.08 111.94,-28.88 120.38,-27.66"/>
<polygon fill="#63b8ff" stroke="#63b8ff" points="120.67,-31.01 130.07,-26.11 119.67,-24.08 120.67,-31.01"/>
</a>
</g>
</g>
</g>
</svg>
