<?xml version="1.0" encoding="UTF-8" standalone="no"?>
<!DOCTYPE svg PUBLIC "-//W3C//DTD SVG 1.1//EN"
 "http://www.w3.org/Graphics/SVG/1.1/DTD/svg11.dtd">
<!-- Generated by graphviz version 8.1.0 (20230707.0739)
 -->
<!-- Title: Secondary Voltage Feedback Pages: 1 -->
<svg width="376pt" height="40pt"
 viewBox="0.00 0.00 376.25 40.00" xmlns="http://www.w3.org/2000/svg" xmlns:xlink="http://www.w3.org/1999/xlink">
<g id="graph0" class="graph" transform="scale(1 1) rotate(0) translate(4 36)">
<title>Secondary Voltage Feedback</title>
<!-- Node2 -->
<g id="Node000002" class="node">
<title>Node2</title>
<g id="a_Node000002"><a xlink:href="a00496.html" target="_top" xlink:title="Allow user to quickly change fundamental system parameters, hardware changes and even migrating the f...">
<polygon fill="white" stroke="#666666" points="99.25,-26 0,-26 0,-6 99.25,-6 99.25,-26"/>
<text text-anchor="middle" x="49.62" y="-12.5" font-family="Helvetica,sans-Serif" font-size="10.00">Configuration Layer</text>
</a>
</g>
</g>
<!-- Node1 -->
<g id="Node000001" class="node">
<title>Node1</title>
<g id="a_Node000001"><a xlink:title="Declaration of Secondary Voltage Feedback parameters, fault configuration and macros.">
<polygon fill="#999999" stroke="#666666" points="233.75,-32 135.25,-32 135.25,0 233.75,0 233.75,-32"/>
<text text-anchor="start" x="143.25" y="-18.5" font-family="Helvetica,sans-Serif" font-size="10.00">Secondary Voltage</text>
<text text-anchor="middle" x="184.5" y="-6.5" font-family="Helvetica,sans-Serif" font-size="10.00"> Feedback</text>
</a>
</g>
</g>
<!-- Node2&#45;&gt;Node1 -->
<g id="edge1" class="edge">
<title>Node2&#45;&gt;Node1</title>
<path fill="none" stroke="black" d="M110.71,-16C118.86,-16 127.14,-16 135.04,-16"/>
<polygon fill="black" stroke="black" points="110.73,-12.5 100.73,-16 110.73,-19.5 110.73,-12.5"/>
</g>
<!-- Node3 -->
<g id="Node000003" class="node">
<title>Node3</title>
<g id="a_Node000003"><a xlink:href="a00475.html" target="_top" xlink:title="Conversion macros for user&#45;declarations of Secondary Voltage Feedback parameters.">
<polygon fill="white" stroke="#666666" points="368.25,-26 269.75,-26 269.75,-6 368.25,-6 368.25,-26"/>
<text text-anchor="middle" x="319" y="-12.5" font-family="Helvetica,sans-Serif" font-size="10.00">Conversion Macros</text>
</a>
</g>
</g>
<!-- Node1&#45;&gt;Node3 -->
<g id="edge2" class="edge">
<title>Node1&#45;&gt;Node3</title>
<path fill="none" stroke="black" d="M245.07,-16C253.21,-16 261.5,-16 269.42,-16"/>
<polygon fill="black" stroke="black" points="245.09,-12.5 235.09,-16 245.09,-19.5 245.09,-12.5"/>
</g>
</g>
</svg>
