<?xml version="1.0" encoding="UTF-8" standalone="no"?>
<!DOCTYPE svg PUBLIC "-//W3C//DTD SVG 1.1//EN"
 "http://www.w3.org/Graphics/SVG/1.1/DTD/svg11.dtd">
<!-- Generated by graphviz version 8.1.0 (20230707.0739)
 -->
<!-- Title: protocolID Pages: 1 -->
<svg width="406pt" height="370pt"
 viewBox="0.00 0.00 406.25 370.00" xmlns="http://www.w3.org/2000/svg" xmlns:xlink="http://www.w3.org/1999/xlink">

<svg id="main" version="1.1" xmlns="http://www.w3.org/2000/svg" xmlns:xlink="http://www.w3.org/1999/xlink" xml:space="preserve" onload="init(evt)">
<style type="text/css"><![CDATA[
.node, .edge {opacity: 0.7;}
.node.selected, .edge.selected {opacity: 1;}
.edge:hover path { stroke: red; }
.edge:hover polygon { stroke: red; fill: red; }
]]></style>
<script type="application/ecmascript" xlink:href="svg.min.js"/>
<svg id="graph" class="graph">
<g id="graph0" class="graph" transform="scale(1 1) rotate(0) translate(4 366)">
<title>protocolID</title>
<!-- Node1 -->
<g id="Node000001" class="node">
<title>Node1</title>
<g id="a_Node000001"><a xlink:title="default callback">
<polygon fill="#999999" stroke="#666666" points="59.5,-191 0,-191 0,-171 59.5,-171 59.5,-191"/>
<text text-anchor="middle" x="29.75" y="-177.5" font-family="Helvetica,sans-Serif" font-size="10.00">protocolID</text>
</a>
</g>
</g>
<!-- Node2 -->
<g id="Node000002" class="node">
<title>Node2</title>
<g id="a_Node000002"><a xlink:href="a00495.html#gaf2b5ec7aa4bf88b00eaa69cfeba83160" target="_top" xlink:title="process received data">
<polygon fill="white" stroke="#666666" points="221,-197 95.5,-197 95.5,-165 221,-165 221,-197"/>
<text text-anchor="start" x="103.5" y="-183.5" font-family="Helvetica,sans-Serif" font-size="10.00">App_PBV_DAB_Process</text>
<text text-anchor="middle" x="158.25" y="-171.5" font-family="Helvetica,sans-Serif" font-size="10.00">_Rx_Data</text>
</a>
</g>
</g>
<!-- Node1&#45;&gt;Node2 -->
<g id="edge1_Node000001_Node000002" class="edge">
<title>Node1&#45;&gt;Node2</title>
<g id="a_edge1_Node000001_Node000002"><a xlink:title=" ">
<path fill="none" stroke="#63b8ff" d="M59.77,-181C67.21,-181 75.55,-181 84.14,-181"/>
<polygon fill="#63b8ff" stroke="#63b8ff" points="84.1,-184.5 94.1,-181 84.1,-177.5 84.1,-184.5"/>
</a>
</g>
</g>
<!-- Node3 -->
<g id="Node000003" class="node">
<title>Node3</title>
<g id="a_Node000003"><a xlink:href="a00499.html#ga5cfd61659ae6b17ad25e51bfc211723b" target="_top" xlink:title="Sets the fan speed.">
<polygon fill="white" stroke="#666666" points="381,-362 274.25,-362 274.25,-342 381,-342 381,-362"/>
<text text-anchor="middle" x="327.62" y="-348.5" font-family="Helvetica,sans-Serif" font-size="10.00">Dev_Fan_Set_Speed</text>
</a>
</g>
</g>
<!-- Node2&#45;&gt;Node3 -->
<g id="edge2_Node000002_Node000003" class="edge">
<title>Node2&#45;&gt;Node3</title>
<g id="a_edge2_Node000002_Node000003"><a xlink:title=" ">
<path fill="none" stroke="#63b8ff" d="M165.04,-197.09C177.09,-228.27 207.92,-297 257,-333 259.33,-334.71 261.82,-336.27 264.4,-337.69"/>
<polygon fill="#63b8ff" stroke="#63b8ff" points="262.56,-341.16 273.1,-342.23 265.53,-334.82 262.56,-341.16"/>
</a>
</g>
</g>
<!-- Node4 -->
<g id="Node000004" class="node">
<title>Node4</title>
<g id="a_Node000004"><a xlink:href="a00511.html#gad6514b638a32baed68543a56bedd5c5d" target="_top" xlink:title="API function to get the PWM duty cycle.">
<polygon fill="white" stroke="#666666" points="397.5,-324 257.75,-324 257.75,-304 397.5,-304 397.5,-324"/>
<text text-anchor="middle" x="327.62" y="-310.5" font-family="Helvetica,sans-Serif" font-size="10.00">Dev_PwrCtrl_Get_DutyCycle</text>
</a>
</g>
</g>
<!-- Node2&#45;&gt;Node4 -->
<g id="edge3_Node000002_Node000004" class="edge">
<title>Node2&#45;&gt;Node4</title>
<g id="a_edge3_Node000002_Node000004"><a xlink:title=" ">
<path fill="none" stroke="#63b8ff" d="M168.73,-197.3C184.06,-222.2 216.68,-269.49 257,-295 259.45,-296.55 262.02,-297.97 264.67,-299.28"/>
<polygon fill="#63b8ff" stroke="#63b8ff" points="263.01,-302.8 273.58,-303.54 265.77,-296.37 263.01,-302.8"/>
</a>
</g>
</g>
<!-- Node5 -->
<g id="Node000005" class="node">
<title>Node5</title>
<g id="a_Node000005"><a xlink:href="a00511.html#gae5e607ebc1cfbf0fcb8caa5775d5e782" target="_top" xlink:title="API function to set the power control State.">
<polygon fill="white" stroke="#666666" points="383.62,-286 271.62,-286 271.62,-266 383.62,-266 383.62,-286"/>
<text text-anchor="middle" x="327.62" y="-272.5" font-family="Helvetica,sans-Serif" font-size="10.00">Dev_PwrCtrl_SetState</text>
</a>
</g>
</g>
<!-- Node2&#45;&gt;Node5 -->
<g id="edge4_Node000002_Node000005" class="edge">
<title>Node2&#45;&gt;Node5</title>
<g id="a_edge4_Node000002_Node000005"><a xlink:title=" ">
<path fill="none" stroke="#63b8ff" d="M175.83,-197.28C194.22,-214.48 225.47,-241.23 257,-257 260.57,-258.79 264.33,-260.42 268.18,-261.92"/>
<polygon fill="#63b8ff" stroke="#63b8ff" points="266.91,-265.53 277.51,-265.55 269.24,-258.93 266.91,-265.53"/>
</a>
</g>
</g>
<!-- Node6 -->
<g id="Node000006" class="node">
<title>Node6</title>
<g id="a_Node000006"><a xlink:href="a00511.html#ga071b955cb9687b27b8ce895a29febc66" target="_top" xlink:title="API function to set the power control enable bit.">
<polygon fill="white" stroke="#666666" points="376.5,-248 278.75,-248 278.75,-228 376.5,-228 376.5,-248"/>
<text text-anchor="middle" x="327.62" y="-234.5" font-family="Helvetica,sans-Serif" font-size="10.00">PwrCtrl_SetEnable</text>
</a>
</g>
</g>
<!-- Node2&#45;&gt;Node6 -->
<g id="edge5_Node000002_Node000006" class="edge">
<title>Node2&#45;&gt;Node6</title>
<g id="a_edge5_Node000002_Node000006"><a xlink:title=" ">
<path fill="none" stroke="#63b8ff" d="M198.86,-197.48C216.5,-204.54 237.63,-212.61 257,-219 262.87,-220.94 269.06,-222.83 275.24,-224.63"/>
<polygon fill="#63b8ff" stroke="#63b8ff" points="273.97,-228.19 284.55,-227.56 275.88,-221.46 273.97,-228.19"/>
</a>
</g>
</g>
<!-- Node7 -->
<g id="Node000007" class="node">
<title>Node7</title>
<g id="a_Node000007"><a xlink:href="a00511.html#ga70c7b962e7df84e7d49fd37a76826059" target="_top" xlink:title="API function to set the current controller reference.">
<polygon fill="white" stroke="#666666" points="384.38,-210 270.88,-210 270.88,-190 384.38,-190 384.38,-210"/>
<text text-anchor="middle" x="327.62" y="-196.5" font-family="Helvetica,sans-Serif" font-size="10.00">PwrCtrl_SetIReference</text>
</a>
</g>
</g>
<!-- Node2&#45;&gt;Node7 -->
<g id="edge6_Node000002_Node000007" class="edge">
<title>Node2&#45;&gt;Node7</title>
<g id="a_edge6_Node000002_Node000007"><a xlink:title=" ">
<path fill="none" stroke="#63b8ff" d="M221.1,-188.02C233.76,-189.46 247.13,-190.98 259.95,-192.43"/>
<polygon fill="#63b8ff" stroke="#63b8ff" points="259.23,-195.99 269.56,-193.64 260.02,-189.03 259.23,-195.99"/>
</a>
</g>
</g>
<!-- Node8 -->
<g id="Node000008" class="node">
<title>Node8</title>
<g id="a_Node000008"><a xlink:href="a00511.html#ga80737f595e2855e9361772d2c1a9852d" target="_top" xlink:title="API function to set the target prim to sec phase which will steer other modulation.">
<polygon fill="white" stroke="#666666" points="398.25,-172 257,-172 257,-152 398.25,-152 398.25,-172"/>
<text text-anchor="middle" x="327.62" y="-158.5" font-family="Helvetica,sans-Serif" font-size="10.00">PwrCtrl_SetP2SPhaseTarget</text>
</a>
</g>
</g>
<!-- Node2&#45;&gt;Node8 -->
<g id="edge7_Node000002_Node000008" class="edge">
<title>Node2&#45;&gt;Node8</title>
<g id="a_edge7_Node000002_Node000008"><a xlink:title=" ">
<path fill="none" stroke="#63b8ff" d="M221.1,-173.98C229.13,-173.07 237.44,-172.12 245.73,-171.18"/>
<polygon fill="#63b8ff" stroke="#63b8ff" points="246.02,-174.56 255.56,-169.95 245.23,-167.6 246.02,-174.56"/>
</a>
</g>
</g>
<!-- Node9 -->
<g id="Node000009" class="node">
<title>Node9</title>
<g id="a_Node000009"><a xlink:href="a00511.html#ga75fdd46231baccc4830fa08d2b39a3d2" target="_top" xlink:title="API function to set the target period.">
<polygon fill="white" stroke="#666666" points="388.88,-134 266.38,-134 266.38,-114 388.88,-114 388.88,-134"/>
<text text-anchor="middle" x="327.62" y="-120.5" font-family="Helvetica,sans-Serif" font-size="10.00">PwrCtrl_SetPeriodTarget</text>
</a>
</g>
</g>
<!-- Node2&#45;&gt;Node9 -->
<g id="edge8_Node000002_Node000009" class="edge">
<title>Node2&#45;&gt;Node9</title>
<g id="a_edge8_Node000002_Node000009"><a xlink:title=" ">
<path fill="none" stroke="#63b8ff" d="M198.86,-164.52C216.5,-157.46 237.63,-149.39 257,-143 262.87,-141.06 269.06,-139.17 275.24,-137.37"/>
<polygon fill="#63b8ff" stroke="#63b8ff" points="275.88,-140.54 284.55,-134.44 273.97,-133.81 275.88,-140.54"/>
</a>
</g>
</g>
<!-- Node10 -->
<g id="Node000010" class="node">
<title>Node10</title>
<g id="a_Node000010"><a xlink:href="a00511.html#gae62d241af8152bb7989d448f30adc55e" target="_top" xlink:title="API function to set the target PWM phase.">
<polygon fill="white" stroke="#666666" points="388.88,-96 266.38,-96 266.38,-76 388.88,-76 388.88,-96"/>
<text text-anchor="middle" x="327.62" y="-82.5" font-family="Helvetica,sans-Serif" font-size="10.00">PwrCtrl_SetPhaseTarget</text>
</a>
</g>
</g>
<!-- Node2&#45;&gt;Node10 -->
<g id="edge9_Node000002_Node000010" class="edge">
<title>Node2&#45;&gt;Node10</title>
<g id="a_edge9_Node000002_Node000010"><a xlink:title=" ">
<path fill="none" stroke="#63b8ff" d="M175.83,-164.72C194.22,-147.52 225.47,-120.77 257,-105 260.57,-103.21 264.33,-101.58 268.18,-100.08"/>
<polygon fill="#63b8ff" stroke="#63b8ff" points="269.24,-103.07 277.51,-96.45 266.91,-96.47 269.24,-103.07"/>
</a>
</g>
</g>
<!-- Node11 -->
<g id="Node000011" class="node">
<title>Node11</title>
<g id="a_Node000011"><a xlink:href="a00511.html#ga574faff7b911d52ae6d2cf53b68a8963" target="_top" xlink:title="API function to set the power controller reference.">
<polygon fill="white" stroke="#666666" points="391.5,-58 263.75,-58 263.75,-38 391.5,-38 391.5,-58"/>
<text text-anchor="middle" x="327.62" y="-44.5" font-family="Helvetica,sans-Serif" font-size="10.00">PwrCtrl_SetPwrReference</text>
</a>
</g>
</g>
<!-- Node2&#45;&gt;Node11 -->
<g id="edge10_Node000002_Node000011" class="edge">
<title>Node2&#45;&gt;Node11</title>
<g id="a_edge10_Node000002_Node000011"><a xlink:title=" ">
<path fill="none" stroke="#63b8ff" d="M168.73,-164.7C184.06,-139.8 216.68,-92.51 257,-67 259.45,-65.45 262.02,-64.03 264.67,-62.72"/>
<polygon fill="#63b8ff" stroke="#63b8ff" points="265.77,-65.63 273.58,-58.46 263.01,-59.2 265.77,-65.63"/>
</a>
</g>
</g>
<!-- Node12 -->
<g id="Node000012" class="node">
<title>Node12</title>
<g id="a_Node000012"><a xlink:href="a00511.html#ga919933b7bef6f9fa8094848c413e7881" target="_top" xlink:title="API function to set the secondary voltage controller reference.">
<polygon fill="white" stroke="#666666" points="395.25,-20 260,-20 260,0 395.25,0 395.25,-20"/>
<text text-anchor="middle" x="327.62" y="-6.5" font-family="Helvetica,sans-Serif" font-size="10.00">PwrCtrl_SetVSecReference</text>
</a>
</g>
</g>
<!-- Node2&#45;&gt;Node12 -->
<g id="edge11_Node000002_Node000012" class="edge">
<title>Node2&#45;&gt;Node12</title>
<g id="a_edge11_Node000002_Node000012"><a xlink:title=" ">
<path fill="none" stroke="#63b8ff" d="M165.04,-164.91C177.09,-133.73 207.92,-65 257,-29 258.89,-27.62 260.87,-26.33 262.93,-25.14"/>
<polygon fill="#63b8ff" stroke="#63b8ff" points="263.9,-28.07 271.32,-20.5 260.8,-21.79 263.9,-28.07"/>
</a>
</g>
</g>
</g>
</svg>
</svg>

<style type='text/css'>
<![CDATA[
[data-mouse-over-selected='false'] { opacity: 0.7; }
[data-mouse-over-selected='true']  { opacity: 1.0; }
]]>
</style>
<script type="application/ecmascript"><![CDATA[
document.addEventListener('DOMContentLoaded', (event) => {
  highlightEdges();
  highlightAdjacentNodes();
});
]]></script>
</svg>
