<?xml version="1.0" encoding="UTF-8" standalone="no"?>
<!DOCTYPE svg PUBLIC "-//W3C//DTD SVG 1.1//EN"
 "http://www.w3.org/Graphics/SVG/1.1/DTD/svg11.dtd">
<!-- Generated by graphviz version 8.1.0 (20230707.0739)
 -->
<!-- Title: App_PBV_DAB_Task_10ms Pages: 1 -->
<!--zoomable 370 -->

<svg id="main" version="1.1" xmlns="http://www.w3.org/2000/svg" xmlns:xlink="http://www.w3.org/1999/xlink" xml:space="preserve" onload="init(evt)">
<style type="text/css"><![CDATA[
.node, .edge {opacity: 0.7;}
.node.selected, .edge.selected {opacity: 1;}
.edge:hover path { stroke: red; }
.edge:hover polygon { stroke: red; fill: red; }
]]></style>

<defs>
  <circle id="rim" cx="0" cy="0" r="7"/>
  <circle id="rim2" cx="0" cy="0" r="3.5"/>
  <g id="zoomPlus">
    <use xlink:href="#rim" fill="#404040"><set attributeName="fill" to="#808080" begin="zoomplus.mouseover" end="zoomplus.mouseout"/></use>
    <path d="M-4,0h8M0,-4v8" fill="none" stroke="white" stroke-width="1.5" pointer-events="none"/>
  </g>
  <g id="zoomMin">
    <use xlink:href="#rim" fill="#404040"><set attributeName="fill" to="#808080" begin="zoomminus.mouseover" end="zoomminus.mouseout"/></use>
    <path d="M-4,0h8" fill="none" stroke="white" stroke-width="1.5" pointer-events="none"/>
  </g>
  <g id="arrowUp" transform="translate(30 24)">
    <use xlink:href="#rim"/>
    <path pointer-events="none" fill="none" stroke="white" stroke-width="1.5" d="M0,-3.0v7 M-2.5,-0.5L0,-3.0L2.5,-0.5"/>
  </g>
  <g id="arrowRight" transform="rotate(90) translate(36 -43)">
    <use xlink:href="#rim"/>
    <path pointer-events="none" fill="none" stroke="white" stroke-width="1.5" d="M0,-3.0v7 M-2.5,-0.5L0,-3.0L2.5,-0.5"/>
  </g>
  <g id="arrowDown" transform="rotate(180) translate(-30 -48)">
    <use xlink:href="#rim"/>
    <path pointer-events="none" fill="none" stroke="white" stroke-width="1.5" d="M0,-3.0v7 M-2.5,-0.5L0,-3.0L2.5,-0.5"/>
  </g>
  <g id="arrowLeft" transform="rotate(270) translate(-36 17)">
    <use xlink:href="#rim"/>
    <path pointer-events="none" fill="none" stroke="white" stroke-width="1.5" d="M0,-3.0v7 M-2.5,-0.5L0,-3.0L2.5,-0.5"/>
  </g>
  <g id="resetDef">
    <use xlink:href="#rim2" fill="#404040"><set attributeName="fill" to="#808080" begin="reset.mouseover" end="reset.mouseout"/></use>
  </g>
</defs>
<script type="application/ecmascript">
var viewWidth = 582;
var viewHeight = 370;
var sectionId = 'dynsection-3';
</script>
<script type="application/ecmascript" xlink:href="svg.min.js"/>
<svg id="graph" class="graph">
<g id="viewport">
<title>App_PBV_DAB_Task_10ms</title>
<!-- Node1 -->
<g id="Node000001" class="node">
<title>Node1</title>
<g id="a_Node000001"><a xlink:title="this is high frequency task to simulate sending of high frequency numeric data. Also to check if ther...">
<polygon fill="#999999" stroke="#666666" points="139.75,-191 0,-191 0,-171 139.75,-171 139.75,-191"/>
<text text-anchor="middle" x="69.88" y="-177.5" font-family="Helvetica,sans-Serif" font-size="10.00">App_PBV_DAB_Task_10ms</text>
</a>
</g>
</g>
<!-- Node2 -->
<g id="Node000002" class="node">
<title>Node2</title>
<g id="a_Node000002"><a xlink:href="a00495.html#gae7f76d2864d9f99538052487fb4c9570" target="_top" xlink:title="default callback">
<polygon fill="white" stroke="#666666" points="235.25,-191 175.75,-191 175.75,-171 235.25,-171 235.25,-191"/>
<text text-anchor="middle" x="205.5" y="-177.5" font-family="Helvetica,sans-Serif" font-size="10.00">protocolID</text>
</a>
</g>
</g>
<!-- Node1&#45;&gt;Node2 -->
<g id="edge1_Node000001_Node000002" class="edge">
<title>Node1&#45;&gt;Node2</title>
<g id="a_edge1_Node000001_Node000002"><a xlink:title=" ">
<path fill="none" stroke="#63b8ff" d="M140.04,-181C148.42,-181 156.76,-181 164.52,-181"/>
<polygon fill="#63b8ff" stroke="#63b8ff" points="164.41,-184.5 174.41,-181 164.41,-177.5 164.41,-184.5"/>
</a>
</g>
</g>
<!-- Node3 -->
<g id="Node000003" class="node">
<title>Node3</title>
<g id="a_Node000003"><a xlink:href="a00495.html#gaf2b5ec7aa4bf88b00eaa69cfeba83160" target="_top" xlink:title="process received data">
<polygon fill="white" stroke="#666666" points="396.75,-197 271.25,-197 271.25,-165 396.75,-165 396.75,-197"/>
<text text-anchor="start" x="279.25" y="-183.5" font-family="Helvetica,sans-Serif" font-size="10.00">App_PBV_DAB_Process</text>
<text text-anchor="middle" x="334" y="-171.5" font-family="Helvetica,sans-Serif" font-size="10.00">_Rx_Data</text>
</a>
</g>
</g>
<!-- Node2&#45;&gt;Node3 -->
<g id="edge2_Node000002_Node000003" class="edge">
<title>Node2&#45;&gt;Node3</title>
<g id="a_edge2_Node000002_Node000003"><a xlink:title=" ">
<path fill="none" stroke="#63b8ff" d="M235.52,-181C242.96,-181 251.3,-181 259.89,-181"/>
<polygon fill="#63b8ff" stroke="#63b8ff" points="259.85,-184.5 269.85,-181 259.85,-177.5 259.85,-184.5"/>
</a>
</g>
</g>
<!-- Node4 -->
<g id="Node000004" class="node">
<title>Node4</title>
<g id="a_Node000004"><a xlink:href="a00499.html#ga5cfd61659ae6b17ad25e51bfc211723b" target="_top" xlink:title="Sets the fan speed.">
<polygon fill="white" stroke="#666666" points="556.75,-362 450,-362 450,-342 556.75,-342 556.75,-362"/>
<text text-anchor="middle" x="503.38" y="-348.5" font-family="Helvetica,sans-Serif" font-size="10.00">Dev_Fan_Set_Speed</text>
</a>
</g>
</g>
<!-- Node3&#45;&gt;Node4 -->
<g id="edge3_Node000003_Node000004" class="edge">
<title>Node3&#45;&gt;Node4</title>
<g id="a_edge3_Node000003_Node000004"><a xlink:title=" ">
<path fill="none" stroke="#63b8ff" d="M340.79,-197.09C352.84,-228.27 383.67,-297 432.75,-333 435.08,-334.71 437.57,-336.27 440.15,-337.69"/>
<polygon fill="#63b8ff" stroke="#63b8ff" points="438.31,-341.16 448.85,-342.23 441.28,-334.82 438.31,-341.16"/>
</a>
</g>
</g>
<!-- Node5 -->
<g id="Node000005" class="node">
<title>Node5</title>
<g id="a_Node000005"><a xlink:href="a00511.html#gad6514b638a32baed68543a56bedd5c5d" target="_top" xlink:title="API function to get the PWM duty cycle.">
<polygon fill="white" stroke="#666666" points="573.25,-324 433.5,-324 433.5,-304 573.25,-304 573.25,-324"/>
<text text-anchor="middle" x="503.38" y="-310.5" font-family="Helvetica,sans-Serif" font-size="10.00">Dev_PwrCtrl_Get_DutyCycle</text>
</a>
</g>
</g>
<!-- Node3&#45;&gt;Node5 -->
<g id="edge4_Node000003_Node000005" class="edge">
<title>Node3&#45;&gt;Node5</title>
<g id="a_edge4_Node000003_Node000005"><a xlink:title=" ">
<path fill="none" stroke="#63b8ff" d="M344.48,-197.3C359.81,-222.2 392.43,-269.49 432.75,-295 435.2,-296.55 437.77,-297.97 440.42,-299.28"/>
<polygon fill="#63b8ff" stroke="#63b8ff" points="438.76,-302.8 449.33,-303.54 441.52,-296.37 438.76,-302.8"/>
</a>
</g>
</g>
<!-- Node6 -->
<g id="Node000006" class="node">
<title>Node6</title>
<g id="a_Node000006"><a xlink:href="a00511.html#gae5e607ebc1cfbf0fcb8caa5775d5e782" target="_top" xlink:title="API function to set the power control State.">
<polygon fill="white" stroke="#666666" points="559.38,-286 447.38,-286 447.38,-266 559.38,-266 559.38,-286"/>
<text text-anchor="middle" x="503.38" y="-272.5" font-family="Helvetica,sans-Serif" font-size="10.00">Dev_PwrCtrl_SetState</text>
</a>
</g>
</g>
<!-- Node3&#45;&gt;Node6 -->
<g id="edge5_Node000003_Node000006" class="edge">
<title>Node3&#45;&gt;Node6</title>
<g id="a_edge5_Node000003_Node000006"><a xlink:title=" ">
<path fill="none" stroke="#63b8ff" d="M351.58,-197.28C369.97,-214.48 401.22,-241.23 432.75,-257 436.32,-258.79 440.08,-260.42 443.93,-261.92"/>
<polygon fill="#63b8ff" stroke="#63b8ff" points="442.66,-265.53 453.26,-265.55 444.99,-258.93 442.66,-265.53"/>
</a>
</g>
</g>
<!-- Node7 -->
<g id="Node000007" class="node">
<title>Node7</title>
<g id="a_Node000007"><a xlink:href="a00511.html#ga071b955cb9687b27b8ce895a29febc66" target="_top" xlink:title="API function to set the power control enable bit.">
<polygon fill="white" stroke="#666666" points="552.25,-248 454.5,-248 454.5,-228 552.25,-228 552.25,-248"/>
<text text-anchor="middle" x="503.38" y="-234.5" font-family="Helvetica,sans-Serif" font-size="10.00">PwrCtrl_SetEnable</text>
</a>
</g>
</g>
<!-- Node3&#45;&gt;Node7 -->
<g id="edge6_Node000003_Node000007" class="edge">
<title>Node3&#45;&gt;Node7</title>
<g id="a_edge6_Node000003_Node000007"><a xlink:title=" ">
<path fill="none" stroke="#63b8ff" d="M374.61,-197.48C392.25,-204.54 413.38,-212.61 432.75,-219 438.62,-220.94 444.81,-222.83 450.99,-224.63"/>
<polygon fill="#63b8ff" stroke="#63b8ff" points="449.72,-228.19 460.3,-227.56 451.63,-221.46 449.72,-228.19"/>
</a>
</g>
</g>
<!-- Node8 -->
<g id="Node000008" class="node">
<title>Node8</title>
<g id="a_Node000008"><a xlink:href="a00511.html#ga70c7b962e7df84e7d49fd37a76826059" target="_top" xlink:title="API function to set the current controller reference.">
<polygon fill="white" stroke="#666666" points="560.12,-210 446.62,-210 446.62,-190 560.12,-190 560.12,-210"/>
<text text-anchor="middle" x="503.38" y="-196.5" font-family="Helvetica,sans-Serif" font-size="10.00">PwrCtrl_SetIReference</text>
</a>
</g>
</g>
<!-- Node3&#45;&gt;Node8 -->
<g id="edge7_Node000003_Node000008" class="edge">
<title>Node3&#45;&gt;Node8</title>
<g id="a_edge7_Node000003_Node000008"><a xlink:title=" ">
<path fill="none" stroke="#63b8ff" d="M396.85,-188.02C409.51,-189.46 422.88,-190.98 435.7,-192.43"/>
<polygon fill="#63b8ff" stroke="#63b8ff" points="434.98,-195.99 445.31,-193.64 435.77,-189.03 434.98,-195.99"/>
</a>
</g>
</g>
<!-- Node9 -->
<g id="Node000009" class="node">
<title>Node9</title>
<g id="a_Node000009"><a xlink:href="a00511.html#ga80737f595e2855e9361772d2c1a9852d" target="_top" xlink:title="API function to set the target prim to sec phase which will steer other modulation.">
<polygon fill="white" stroke="#666666" points="574,-172 432.75,-172 432.75,-152 574,-152 574,-172"/>
<text text-anchor="middle" x="503.38" y="-158.5" font-family="Helvetica,sans-Serif" font-size="10.00">PwrCtrl_SetP2SPhaseTarget</text>
</a>
</g>
</g>
<!-- Node3&#45;&gt;Node9 -->
<g id="edge8_Node000003_Node000009" class="edge">
<title>Node3&#45;&gt;Node9</title>
<g id="a_edge8_Node000003_Node000009"><a xlink:title=" ">
<path fill="none" stroke="#63b8ff" d="M396.85,-173.98C404.88,-173.07 413.19,-172.12 421.48,-171.18"/>
<polygon fill="#63b8ff" stroke="#63b8ff" points="421.77,-174.56 431.31,-169.95 420.98,-167.6 421.77,-174.56"/>
</a>
</g>
</g>
<!-- Node10 -->
<g id="Node000010" class="node">
<title>Node10</title>
<g id="a_Node000010"><a xlink:href="a00511.html#ga75fdd46231baccc4830fa08d2b39a3d2" target="_top" xlink:title="API function to set the target period.">
<polygon fill="white" stroke="#666666" points="564.62,-134 442.12,-134 442.12,-114 564.62,-114 564.62,-134"/>
<text text-anchor="middle" x="503.38" y="-120.5" font-family="Helvetica,sans-Serif" font-size="10.00">PwrCtrl_SetPeriodTarget</text>
</a>
</g>
</g>
<!-- Node3&#45;&gt;Node10 -->
<g id="edge9_Node000003_Node000010" class="edge">
<title>Node3&#45;&gt;Node10</title>
<g id="a_edge9_Node000003_Node000010"><a xlink:title=" ">
<path fill="none" stroke="#63b8ff" d="M374.61,-164.52C392.25,-157.46 413.38,-149.39 432.75,-143 438.62,-141.06 444.81,-139.17 450.99,-137.37"/>
<polygon fill="#63b8ff" stroke="#63b8ff" points="451.63,-140.54 460.3,-134.44 449.72,-133.81 451.63,-140.54"/>
</a>
</g>
</g>
<!-- Node11 -->
<g id="Node000011" class="node">
<title>Node11</title>
<g id="a_Node000011"><a xlink:href="a00511.html#gae62d241af8152bb7989d448f30adc55e" target="_top" xlink:title="API function to set the target PWM phase.">
<polygon fill="white" stroke="#666666" points="564.62,-96 442.12,-96 442.12,-76 564.62,-76 564.62,-96"/>
<text text-anchor="middle" x="503.38" y="-82.5" font-family="Helvetica,sans-Serif" font-size="10.00">PwrCtrl_SetPhaseTarget</text>
</a>
</g>
</g>
<!-- Node3&#45;&gt;Node11 -->
<g id="edge10_Node000003_Node000011" class="edge">
<title>Node3&#45;&gt;Node11</title>
<g id="a_edge10_Node000003_Node000011"><a xlink:title=" ">
<path fill="none" stroke="#63b8ff" d="M351.58,-164.72C369.97,-147.52 401.22,-120.77 432.75,-105 436.32,-103.21 440.08,-101.58 443.93,-100.08"/>
<polygon fill="#63b8ff" stroke="#63b8ff" points="444.99,-103.07 453.26,-96.45 442.66,-96.47 444.99,-103.07"/>
</a>
</g>
</g>
<!-- Node12 -->
<g id="Node000012" class="node">
<title>Node12</title>
<g id="a_Node000012"><a xlink:href="a00511.html#ga574faff7b911d52ae6d2cf53b68a8963" target="_top" xlink:title="API function to set the power controller reference.">
<polygon fill="white" stroke="#666666" points="567.25,-58 439.5,-58 439.5,-38 567.25,-38 567.25,-58"/>
<text text-anchor="middle" x="503.38" y="-44.5" font-family="Helvetica,sans-Serif" font-size="10.00">PwrCtrl_SetPwrReference</text>
</a>
</g>
</g>
<!-- Node3&#45;&gt;Node12 -->
<g id="edge11_Node000003_Node000012" class="edge">
<title>Node3&#45;&gt;Node12</title>
<g id="a_edge11_Node000003_Node000012"><a xlink:title=" ">
<path fill="none" stroke="#63b8ff" d="M344.48,-164.7C359.81,-139.8 392.43,-92.51 432.75,-67 435.2,-65.45 437.77,-64.03 440.42,-62.72"/>
<polygon fill="#63b8ff" stroke="#63b8ff" points="441.52,-65.63 449.33,-58.46 438.76,-59.2 441.52,-65.63"/>
</a>
</g>
</g>
<!-- Node13 -->
<g id="Node000013" class="node">
<title>Node13</title>
<g id="a_Node000013"><a xlink:href="a00511.html#ga919933b7bef6f9fa8094848c413e7881" target="_top" xlink:title="API function to set the secondary voltage controller reference.">
<polygon fill="white" stroke="#666666" points="571,-20 435.75,-20 435.75,0 571,0 571,-20"/>
<text text-anchor="middle" x="503.38" y="-6.5" font-family="Helvetica,sans-Serif" font-size="10.00">PwrCtrl_SetVSecReference</text>
</a>
</g>
</g>
<!-- Node3&#45;&gt;Node13 -->
<g id="edge12_Node000003_Node000013" class="edge">
<title>Node3&#45;&gt;Node13</title>
<g id="a_edge12_Node000003_Node000013"><a xlink:title=" ">
<path fill="none" stroke="#63b8ff" d="M340.79,-164.91C352.84,-133.73 383.67,-65 432.75,-29 434.64,-27.62 436.62,-26.33 438.68,-25.14"/>
<polygon fill="#63b8ff" stroke="#63b8ff" points="439.65,-28.07 447.07,-20.5 436.55,-21.79 439.65,-28.07"/>
</a>
</g>
</g>
</g>
</svg>

<g id="navigator" transform="translate(0 0)" fill="#404254">
  <rect fill="#f2f5e9" fill-opacity="0.5" stroke="#606060" stroke-width=".5" x="0" y="0" width="60" height="60"/>
  <use id="zoomplus" xlink:href="#zoomPlus" x="17" y="9" onmousedown="handleZoom(evt,'in')"/>
  <use id="zoomminus" xlink:href="#zoomMin" x="42" y="9" onmousedown="handleZoom(evt,'out')"/>
  <use id="reset" xlink:href="#resetDef" x="30" y="36" onmousedown="handleReset()"/>
   <use id="arrowup" xlink:href="#arrowUp" x="0" y="0" onmousedown="handlePan(0,-1)"/>
  <use id="arrowright" xlink:href="#arrowRight" x="0" y="0" onmousedown="handlePan(1,0)"/>
  <use id="arrowdown" xlink:href="#arrowDown" x="0" y="0" onmousedown="handlePan(0,1)"/>
  <use id="arrowleft" xlink:href="#arrowLeft" x="0" y="0" onmousedown="handlePan(-1,0)"/>
</g>
<svg viewBox="0 0 15 15" width="100%" height="30px" preserveAspectRatio="xMaxYMin meet">
 <g id="arrow_out" transform="scale(0.3 0.3)">
  <a xlink:href="a00495_ga4de477d51ea04cdcfcb1e3eb3ef0053a_cgraph_org.svg" target="_base">
   <rect id="button" ry="5" rx="5" y="6" x="6" height="38" width="38"
        fill="#f2f5e9" fill-opacity="0.5" stroke="#606060" stroke-width="1.0"/>
   <path id="arrow"
     d="M 11.500037,31.436501 C 11.940474,20.09759 22.043105,11.32322 32.158766,21.979434 L 37.068811,17.246167 C 37.068811,17.246167 37.088388,32 37.088388,32 L 22.160133,31.978069 C 22.160133,31.978069 26.997745,27.140456 26.997745,27.140456 C 18.528582,18.264221 13.291696,25.230495 11.500037,31.436501 z"
     style="fill:#404040;"/>
  </a>
 </g>
</svg>

<style type='text/css'>
<![CDATA[
[data-mouse-over-selected='false'] { opacity: 0.7; }
[data-mouse-over-selected='true']  { opacity: 1.0; }
]]>
</style>
<script type="application/ecmascript"><![CDATA[
document.addEventListener('DOMContentLoaded', (event) => {
  highlightEdges();
  highlightAdjacentNodes();
});
]]></script>
</svg>
