<?xml version="1.0" encoding="UTF-8" standalone="no"?>
<!DOCTYPE svg PUBLIC "-//W3C//DTD SVG 1.1//EN"
 "http://www.w3.org/Graphics/SVG/1.1/DTD/svg11.dtd">
<!-- Generated by graphviz version 8.1.0 (20230707.0739)
 -->
<!-- Title: dspic33ck&#45;dab.X/sources/pwrctrl/pwrctrl_isr.h Pages: 1 -->
<svg width="1732pt" height="188pt"
 viewBox="0.00 0.00 1732.12 188.00" xmlns="http://www.w3.org/2000/svg" xmlns:xlink="http://www.w3.org/1999/xlink">
<g id="graph0" class="graph" transform="scale(1 1) rotate(0) translate(4 184)">
<title>dspic33ck&#45;dab.X/sources/pwrctrl/pwrctrl_isr.h</title>
<!-- Node1 -->
<g id="Node000001" class="node">
<title>Node1</title>
<g id="a_Node000001"><a xlink:title="Contains public function relevant for power control interrupt.">
<polygon fill="#999999" stroke="#666666" points="903.12,-180 778.38,-180 778.38,-148 903.12,-148 903.12,-180"/>
<text text-anchor="start" x="786.38" y="-166.5" font-family="Helvetica,sans-Serif" font-size="10.00">dspic33ck&#45;dab.X/sources</text>
<text text-anchor="middle" x="840.75" y="-154.5" font-family="Helvetica,sans-Serif" font-size="10.00">/pwrctrl/pwrctrl_isr.h</text>
</a>
</g>
</g>
<!-- Node2 -->
<g id="Node000002" class="node">
<title>Node2</title>
<g id="a_Node000002"><a xlink:href="a00446_source.html" target="_top" xlink:title=" ">
<polygon fill="white" stroke="#666666" points="903.12,-112 778.38,-112 778.38,-80 903.12,-80 903.12,-112"/>
<text text-anchor="start" x="786.38" y="-98.5" font-family="Helvetica,sans-Serif" font-size="10.00">dspic33ck&#45;dab.X/sources</text>
<text text-anchor="middle" x="840.75" y="-86.5" font-family="Helvetica,sans-Serif" font-size="10.00">/pwrctrl/pwrctrl.h</text>
</a>
</g>
</g>
<!-- Node1&#45;&gt;Node2 -->
<g id="edge1_Node000001_Node000002" class="edge">
<title>Node1&#45;&gt;Node2</title>
<g id="a_edge1_Node000001_Node000002"><a xlink:title=" ">
<path fill="none" stroke="#63b8ff" d="M840.75,-136.89C840.75,-128.52 840.75,-119.54 840.75,-112.22"/>
<polygon fill="#63b8ff" stroke="#63b8ff" points="837.25,-136.69 840.75,-146.69 844.25,-136.69 837.25,-136.69"/>
</a>
</g>
</g>
<!-- Node3 -->
<g id="Node000003" class="node">
<title>Node3</title>
<g id="a_Node000003"><a xlink:href="a00062_source.html" target="_top" xlink:title=" ">
<polygon fill="white" stroke="#666666" points="119.5,-32 0,-32 0,-12 119.5,-12 119.5,-32"/>
<text text-anchor="middle" x="59.75" y="-18.5" font-family="Helvetica,sans-Serif" font-size="10.00">dspic33ck&#45;dab.X/main.c</text>
</a>
</g>
</g>
<!-- Node2&#45;&gt;Node3 -->
<g id="edge2_Node000002_Node000003" class="edge">
<title>Node2&#45;&gt;Node3</title>
<g id="a_edge2_Node000002_Node000003"><a xlink:title=" ">
<path fill="none" stroke="#63b8ff" d="M767.15,-95.24C637.02,-94.44 358.27,-87.25 127.75,-44 113.54,-41.33 98.12,-36.72 85.56,-32.49"/>
<polygon fill="#63b8ff" stroke="#63b8ff" points="767.13,-98.74 777.15,-95.29 767.17,-91.74 767.13,-98.74"/>
</a>
</g>
</g>
<!-- Node4 -->
<g id="Node000004" class="node">
<title>Node4</title>
<g id="a_Node000004"><a xlink:href="a00065_source.html" target="_top" xlink:title=" ">
<polygon fill="white" stroke="#666666" points="248.38,-38 137.12,-38 137.12,-6 248.38,-6 248.38,-38"/>
<text text-anchor="start" x="145.12" y="-24.5" font-family="Helvetica,sans-Serif" font-size="10.00">dspic33ck&#45;dab.X/main</text>
<text text-anchor="middle" x="192.75" y="-12.5" font-family="Helvetica,sans-Serif" font-size="10.00">_tasks.c</text>
</a>
</g>
</g>
<!-- Node2&#45;&gt;Node4 -->
<g id="edge3_Node000002_Node000004" class="edge">
<title>Node2&#45;&gt;Node4</title>
<g id="a_edge3_Node000002_Node000004"><a xlink:title=" ">
<path fill="none" stroke="#63b8ff" d="M767.21,-93.86C655.89,-90.94 438.44,-80.6 257.75,-44 250.66,-42.56 243.26,-40.62 236.1,-38.49"/>
<polygon fill="#63b8ff" stroke="#63b8ff" points="766.88,-97.37 776.97,-94.12 767.06,-90.38 766.88,-97.37"/>
</a>
</g>
</g>
<!-- Node5 -->
<g id="Node000005" class="node">
<title>Node5</title>
<g id="a_Node000005"><a xlink:href="a00329_source.html" target="_top" xlink:title=" ">
<polygon fill="white" stroke="#666666" points="391.12,-38 266.38,-38 266.38,-6 391.12,-6 391.12,-38"/>
<text text-anchor="start" x="274.38" y="-24.5" font-family="Helvetica,sans-Serif" font-size="10.00">dspic33ck&#45;dab.X/sources</text>
<text text-anchor="middle" x="328.75" y="-12.5" font-family="Helvetica,sans-Serif" font-size="10.00">/device/dev_temp.c</text>
</a>
</g>
</g>
<!-- Node2&#45;&gt;Node5 -->
<g id="edge4_Node000002_Node000005" class="edge">
<title>Node2&#45;&gt;Node5</title>
<g id="a_edge4_Node000002_Node000005"><a xlink:title=" ">
<path fill="none" stroke="#63b8ff" d="M767.01,-90.26C679.12,-83.74 528.15,-69.77 400.75,-44 393.22,-42.48 385.34,-40.54 377.66,-38.46"/>
<polygon fill="#63b8ff" stroke="#63b8ff" points="766.7,-93.82 776.93,-91.06 767.21,-86.84 766.7,-93.82"/>
</a>
</g>
</g>
<!-- Node6 -->
<g id="Node000006" class="node">
<title>Node6</title>
<g id="a_Node000006"><a xlink:href="a00350_source.html" target="_top" xlink:title=" ">
<polygon fill="white" stroke="#666666" points="534.12,-44 409.38,-44 409.38,0 534.12,0 534.12,-44"/>
<text text-anchor="start" x="417.38" y="-30.5" font-family="Helvetica,sans-Serif" font-size="10.00">dspic33ck&#45;dab.X/sources</text>
<text text-anchor="start" x="417.38" y="-18.5" font-family="Helvetica,sans-Serif" font-size="10.00">/driver/mcc_extension</text>
<text text-anchor="middle" x="471.75" y="-6.5" font-family="Helvetica,sans-Serif" font-size="10.00">/mcc_custom_config.c</text>
</a>
</g>
</g>
<!-- Node2&#45;&gt;Node6 -->
<g id="edge5_Node000002_Node000006" class="edge">
<title>Node2&#45;&gt;Node6</title>
<g id="a_edge5_Node000002_Node000006"><a xlink:title=" ">
<path fill="none" stroke="#63b8ff" d="M767.47,-84.79C707.08,-75.81 619.37,-61.46 543.75,-44 540.71,-43.3 537.6,-42.54 534.47,-41.75"/>
<polygon fill="#63b8ff" stroke="#63b8ff" points="766.64,-88.35 777.05,-86.35 767.67,-81.43 766.64,-88.35"/>
</a>
</g>
</g>
<!-- Node7 -->
<g id="Node000007" class="node">
<title>Node7</title>
<g id="a_Node000007"><a xlink:href="a00362.html" target="_top" xlink:title="Contains fault functions including the fault handler, fault object initialization and fault execution...">
<polygon fill="white" stroke="#666666" points="677.12,-38 552.38,-38 552.38,-6 677.12,-6 677.12,-38"/>
<text text-anchor="start" x="560.38" y="-24.5" font-family="Helvetica,sans-Serif" font-size="10.00">dspic33ck&#45;dab.X/sources</text>
<text text-anchor="middle" x="614.75" y="-12.5" font-family="Helvetica,sans-Serif" font-size="10.00">/fault/fault.c</text>
</a>
</g>
</g>
<!-- Node2&#45;&gt;Node7 -->
<g id="edge6_Node000002_Node000007" class="edge">
<title>Node2&#45;&gt;Node7</title>
<g id="a_edge6_Node000002_Node000007"><a xlink:title=" ">
<path fill="none" stroke="#63b8ff" d="M782.13,-76.32C745.16,-64.55 697.99,-49.52 663.15,-38.42"/>
<polygon fill="#63b8ff" stroke="#63b8ff" points="780.68,-79.85 791.27,-79.55 782.8,-73.18 780.68,-79.85"/>
</a>
</g>
</g>
<!-- Node8 -->
<g id="Node000008" class="node">
<title>Node8</title>
<g id="a_Node000008"><a xlink:href="a00374.html" target="_top" xlink:title="Contains API functions for fault protection.">
<polygon fill="white" stroke="#666666" points="836,-38 695.5,-38 695.5,-6 836,-6 836,-38"/>
<text text-anchor="start" x="703.5" y="-24.5" font-family="Helvetica,sans-Serif" font-size="10.00">dspic33ck&#45;dab.X/sources</text>
<text text-anchor="middle" x="765.75" y="-12.5" font-family="Helvetica,sans-Serif" font-size="10.00">/fault/fault_comm_interface.c</text>
</a>
</g>
</g>
<!-- Node2&#45;&gt;Node8 -->
<g id="edge7_Node000002_Node000008" class="edge">
<title>Node2&#45;&gt;Node8</title>
<g id="a_edge7_Node000002_Node000008"><a xlink:title=" ">
<path fill="none" stroke="#63b8ff" d="M816.94,-72.14C805.51,-61.17 792.11,-48.31 781.89,-38.5"/>
<polygon fill="#63b8ff" stroke="#63b8ff" points="814.21,-74.33 823.84,-78.73 819.05,-69.28 814.21,-74.33"/>
</a>
</g>
</g>
<!-- Node9 -->
<g id="Node000009" class="node">
<title>Node9</title>
<g id="a_Node000009"><a xlink:href="a00443.html" target="_top" xlink:title="Contains power control initialization including control loop initialization and start&#45;up initializati...">
<polygon fill="white" stroke="#666666" points="979.12,-38 854.38,-38 854.38,-6 979.12,-6 979.12,-38"/>
<text text-anchor="start" x="862.38" y="-24.5" font-family="Helvetica,sans-Serif" font-size="10.00">dspic33ck&#45;dab.X/sources</text>
<text text-anchor="middle" x="916.75" y="-12.5" font-family="Helvetica,sans-Serif" font-size="10.00">/pwrctrl/pwrctrl.c</text>
</a>
</g>
</g>
<!-- Node2&#45;&gt;Node9 -->
<g id="edge8_Node000002_Node000009" class="edge">
<title>Node2&#45;&gt;Node9</title>
<g id="a_edge8_Node000002_Node000009"><a xlink:title=" ">
<path fill="none" stroke="#63b8ff" d="M864.54,-72.46C876.19,-61.42 889.93,-48.4 900.39,-38.5"/>
<polygon fill="#63b8ff" stroke="#63b8ff" points="862.72,-69.31 857.87,-78.73 867.53,-74.39 862.72,-69.31"/>
</a>
</g>
</g>
<!-- Node10 -->
<g id="Node000010" class="node">
<title>Node10</title>
<g id="a_Node000010"><a xlink:href="a00455.html" target="_top" xlink:title="Contains power control interface with communication/gui.">
<polygon fill="white" stroke="#666666" points="1122.12,-44 997.38,-44 997.38,0 1122.12,0 1122.12,-44"/>
<text text-anchor="start" x="1005.38" y="-30.5" font-family="Helvetica,sans-Serif" font-size="10.00">dspic33ck&#45;dab.X/sources</text>
<text text-anchor="start" x="1005.38" y="-18.5" font-family="Helvetica,sans-Serif" font-size="10.00">/pwrctrl/pwrctrl_comm</text>
<text text-anchor="middle" x="1059.75" y="-6.5" font-family="Helvetica,sans-Serif" font-size="10.00">_interface.c</text>
</a>
</g>
</g>
<!-- Node2&#45;&gt;Node10 -->
<g id="edge9_Node000002_Node000010" class="edge">
<title>Node2&#45;&gt;Node10</title>
<g id="a_edge9_Node000002_Node000010"><a xlink:title=" ">
<path fill="none" stroke="#63b8ff" d="M898.17,-76.12C928.55,-66.13 965.91,-53.85 997.05,-43.61"/>
<polygon fill="#63b8ff" stroke="#63b8ff" points="897.14,-73.11 888.73,-79.55 899.32,-79.76 897.14,-73.11"/>
</a>
</g>
</g>
<!-- Node11 -->
<g id="Node000011" class="node">
<title>Node11</title>
<g id="a_Node000011"><a xlink:href="a00449.html" target="_top" xlink:title="Contains generic functions that handles power control ramp Up/Down and the averaging generic function...">
<polygon fill="white" stroke="#666666" points="1269.75,-38 1139.75,-38 1139.75,-6 1269.75,-6 1269.75,-38"/>
<text text-anchor="start" x="1147.75" y="-24.5" font-family="Helvetica,sans-Serif" font-size="10.00">dspic33ck&#45;dab.X/sources</text>
<text text-anchor="middle" x="1204.75" y="-12.5" font-family="Helvetica,sans-Serif" font-size="10.00">/pwrctrl/pwrctrl_common.c</text>
</a>
</g>
</g>
<!-- Node2&#45;&gt;Node11 -->
<g id="edge10_Node000002_Node000011" class="edge">
<title>Node2&#45;&gt;Node11</title>
<g id="a_edge10_Node000002_Node000011"><a xlink:title=" ">
<path fill="none" stroke="#63b8ff" d="M914.03,-84.24C972.92,-75.08 1057.57,-60.77 1130.75,-44 1137.91,-42.36 1145.41,-40.45 1152.77,-38.47"/>
<polygon fill="#63b8ff" stroke="#63b8ff" points="913.7,-80.9 904.35,-85.89 914.76,-87.82 913.7,-80.9"/>
</a>
</g>
</g>
<!-- Node12 -->
<g id="Node000012" class="node">
<title>Node12</title>
<g id="a_Node000012"><a xlink:href="a00461.html" target="_top" xlink:title="Contains Control loop interrupt Callback that acquires the ADC raw data and process it in the control...">
<polygon fill="white" stroke="#666666" points="1412.12,-38 1287.38,-38 1287.38,-6 1412.12,-6 1412.12,-38"/>
<text text-anchor="start" x="1295.38" y="-24.5" font-family="Helvetica,sans-Serif" font-size="10.00">dspic33ck&#45;dab.X/sources</text>
<text text-anchor="middle" x="1349.75" y="-12.5" font-family="Helvetica,sans-Serif" font-size="10.00">/pwrctrl/pwrctrl_isr.c</text>
</a>
</g>
</g>
<!-- Node2&#45;&gt;Node12 -->
<g id="edge11_Node000002_Node000012" class="edge">
<title>Node2&#45;&gt;Node12</title>
<g id="a_edge11_Node000002_Node000012"><a xlink:title=" ">
<path fill="none" stroke="#63b8ff" d="M914.18,-90.32C1001.68,-83.85 1151.98,-69.93 1278.75,-44 1286.18,-42.48 1293.96,-40.55 1301.53,-38.47"/>
<polygon fill="#63b8ff" stroke="#63b8ff" points="914.02,-86.89 904.3,-91.11 914.53,-93.87 914.02,-86.89"/>
</a>
</g>
</g>
<!-- Node13 -->
<g id="Node000013" class="node">
<title>Node13</title>
<g id="a_Node000013"><a xlink:href="a00467.html" target="_top" xlink:title="Contains some of the functions used in the interrupt service routine of control loop.">
<polygon fill="white" stroke="#666666" points="1580.88,-38 1430.62,-38 1430.62,-6 1580.88,-6 1580.88,-38"/>
<text text-anchor="start" x="1438.62" y="-24.5" font-family="Helvetica,sans-Serif" font-size="10.00">dspic33ck&#45;dab.X/sources</text>
<text text-anchor="middle" x="1505.75" y="-12.5" font-family="Helvetica,sans-Serif" font-size="10.00">/pwrctrl/pwrctrl_isr_extension.c</text>
</a>
</g>
</g>
<!-- Node2&#45;&gt;Node13 -->
<g id="edge12_Node000002_Node000013" class="edge">
<title>Node2&#45;&gt;Node13</title>
<g id="a_edge12_Node000002_Node000013"><a xlink:title=" ">
<path fill="none" stroke="#63b8ff" d="M914.06,-92.19C1024.55,-87.13 1240.06,-74.08 1420.75,-44 1429.75,-42.5 1439.2,-40.55 1448.39,-38.45"/>
<polygon fill="#63b8ff" stroke="#63b8ff" points="914.21,-88.72 904.38,-92.67 914.52,-95.71 914.21,-88.72"/>
</a>
</g>
</g>
<!-- Node14 -->
<g id="Node000014" class="node">
<title>Node14</title>
<g id="a_Node000014"><a xlink:href="a00476.html" target="_top" xlink:title="Contains power control state machine functions that is executed every 100us.">
<polygon fill="white" stroke="#666666" points="1724.12,-38 1599.38,-38 1599.38,-6 1724.12,-6 1724.12,-38"/>
<text text-anchor="start" x="1607.38" y="-24.5" font-family="Helvetica,sans-Serif" font-size="10.00">dspic33ck&#45;dab.X/sources</text>
<text text-anchor="middle" x="1661.75" y="-12.5" font-family="Helvetica,sans-Serif" font-size="10.00">/pwrctrl/pwrctrl_sm.c</text>
</a>
</g>
</g>
<!-- Node2&#45;&gt;Node14 -->
<g id="edge13_Node000002_Node000014" class="edge">
<title>Node2&#45;&gt;Node14</title>
<g id="a_edge13_Node000002_Node000014"><a xlink:title=" ">
<path fill="none" stroke="#63b8ff" d="M914.04,-95.23C1048.87,-94.5 1344.87,-87.52 1589.75,-44 1597.7,-42.59 1606.02,-40.63 1614.07,-38.47"/>
<polygon fill="#63b8ff" stroke="#63b8ff" points="914.43,-91.73 904.45,-95.28 914.46,-98.73 914.43,-91.73"/>
</a>
</g>
</g>
</g>
</svg>
