<?xml version="1.0" encoding="UTF-8" standalone="no"?>
<!DOCTYPE svg PUBLIC "-//W3C//DTD SVG 1.1//EN"
 "http://www.w3.org/Graphics/SVG/1.1/DTD/svg11.dtd">
<!-- Generated by graphviz version 8.1.0 (20230707.0739)
 -->
<!-- Title: Dev_PwrCtrl_ControlLoopInitialize Pages: 1 -->
<svg width="460pt" height="140pt"
 viewBox="0.00 0.00 460.25 140.00" xmlns="http://www.w3.org/2000/svg" xmlns:xlink="http://www.w3.org/1999/xlink">
<g id="graph0" class="graph" transform="scale(1 1) rotate(0) translate(4 136)">
<title>Dev_PwrCtrl_ControlLoopInitialize</title>
<!-- Node1 -->
<g id="Node000001" class="node">
<title>Node1</title>
<g id="a_Node000001"><a xlink:title="Initializes the control loop.">
<polygon fill="#999999" stroke="#666666" points="125.5,-82 0,-82 0,-50 125.5,-50 125.5,-82"/>
<text text-anchor="start" x="8" y="-68.5" font-family="Helvetica,sans-Serif" font-size="10.00">Dev_PwrCtrl_ControlLoop</text>
<text text-anchor="middle" x="62.75" y="-56.5" font-family="Helvetica,sans-Serif" font-size="10.00">Initialize</text>
</a>
</g>
</g>
<!-- Node2 -->
<g id="Node000002" class="node">
<title>Node2</title>
<g id="a_Node000002"><a xlink:href="a00493.html#gaaaac85e4a51c833160b5b86e33c8aa5e" target="_top" xlink:title="Initialize the Current Loop Control.">
<polygon fill="white" stroke="#666666" points="265.25,-132 163.75,-132 163.75,-100 265.25,-100 265.25,-132"/>
<text text-anchor="start" x="171.75" y="-118.5" font-family="Helvetica,sans-Serif" font-size="10.00">Dev_PwrCtrl_IComp</text>
<text text-anchor="middle" x="214.5" y="-106.5" font-family="Helvetica,sans-Serif" font-size="10.00">_Initialize</text>
</a>
</g>
</g>
<!-- Node1&#45;&gt;Node2 -->
<g id="edge1_Node000001_Node000002" class="edge">
<title>Node1&#45;&gt;Node2</title>
<g id="a_edge1_Node000001_Node000002"><a xlink:title=" ">
<path fill="none" stroke="#63b8ff" d="M112.78,-82.37C125.9,-86.75 140.23,-91.54 153.85,-96.08"/>
<polygon fill="#63b8ff" stroke="#63b8ff" points="152.51,-99.66 163.1,-99.51 154.72,-93.02 152.51,-99.66"/>
</a>
</g>
</g>
<!-- Node4 -->
<g id="Node000004" class="node">
<title>Node4</title>
<g id="a_Node000004"><a xlink:href="a00493.html#ga516c60db39175332c838fb9d6bc6a3a3" target="_top" xlink:title="Initialize the Power Loop Control.">
<polygon fill="white" stroke="#666666" points="267.5,-82 161.5,-82 161.5,-50 267.5,-50 267.5,-82"/>
<text text-anchor="start" x="169.5" y="-68.5" font-family="Helvetica,sans-Serif" font-size="10.00">Dev_PwrCtrl_PComp</text>
<text text-anchor="middle" x="214.5" y="-56.5" font-family="Helvetica,sans-Serif" font-size="10.00">_Initialize</text>
</a>
</g>
</g>
<!-- Node1&#45;&gt;Node4 -->
<g id="edge3_Node000001_Node000004" class="edge">
<title>Node1&#45;&gt;Node4</title>
<g id="a_edge3_Node000001_Node000004"><a xlink:title=" ">
<path fill="none" stroke="#63b8ff" d="M125.96,-66C134.02,-66 142.29,-66 150.37,-66"/>
<polygon fill="#63b8ff" stroke="#63b8ff" points="150.24,-69.5 160.24,-66 150.24,-62.5 150.24,-69.5"/>
</a>
</g>
</g>
<!-- Node5 -->
<g id="Node000005" class="node">
<title>Node5</title>
<g id="a_Node000005"><a xlink:href="a00493.html#gab8788b6f0239ffe6b8b602dafb306f82" target="_top" xlink:title="Initialize the Voltage Loop Control.">
<polygon fill="white" stroke="#666666" points="267.5,-32 161.5,-32 161.5,0 267.5,0 267.5,-32"/>
<text text-anchor="start" x="169.5" y="-18.5" font-family="Helvetica,sans-Serif" font-size="10.00">Dev_PwrCtrl_VComp</text>
<text text-anchor="middle" x="214.5" y="-6.5" font-family="Helvetica,sans-Serif" font-size="10.00">_Initialize</text>
</a>
</g>
</g>
<!-- Node1&#45;&gt;Node5 -->
<g id="edge5_Node000001_Node000005" class="edge">
<title>Node1&#45;&gt;Node5</title>
<g id="a_edge5_Node000001_Node000005"><a xlink:title=" ">
<path fill="none" stroke="#63b8ff" d="M112.78,-49.63C125.9,-45.25 140.23,-40.46 153.85,-35.92"/>
<polygon fill="#63b8ff" stroke="#63b8ff" points="154.72,-38.98 163.1,-32.49 152.51,-32.34 154.72,-38.98"/>
</a>
</g>
</g>
<!-- Node3 -->
<g id="Node000003" class="node">
<title>Node3</title>
<g id="a_Node000003"><a xlink:href="a00353.html#a8d0d916c7a3ca172408fcded86a6baa2" target="_top" xlink:title=" ">
<polygon fill="white" stroke="#666666" points="452.25,-76 303.5,-76 303.5,-56 452.25,-56 452.25,-76"/>
<text text-anchor="middle" x="377.88" y="-62.5" font-family="Helvetica,sans-Serif" font-size="10.00">SMPS_Controller2P2ZInitialize</text>
</a>
</g>
</g>
<!-- Node2&#45;&gt;Node3 -->
<g id="edge2_Node000002_Node000003" class="edge">
<title>Node2&#45;&gt;Node3</title>
<g id="a_edge2_Node000002_Node000003"><a xlink:title=" ">
<path fill="none" stroke="#63b8ff" d="M265.68,-100.45C287.11,-93.81 311.9,-86.13 332.64,-79.71"/>
<polygon fill="#63b8ff" stroke="#63b8ff" points="333.55,-82.78 342.07,-76.47 331.48,-76.09 333.55,-82.78"/>
</a>
</g>
</g>
<!-- Node4&#45;&gt;Node3 -->
<g id="edge4_Node000004_Node000003" class="edge">
<title>Node4&#45;&gt;Node3</title>
<g id="a_edge4_Node000004_Node000003"><a xlink:title=" ">
<path fill="none" stroke="#63b8ff" d="M267.89,-66C275.7,-66 283.91,-66 292.18,-66"/>
<polygon fill="#63b8ff" stroke="#63b8ff" points="292.05,-69.5 302.05,-66 292.05,-62.5 292.05,-69.5"/>
</a>
</g>
</g>
<!-- Node5&#45;&gt;Node3 -->
<g id="edge6_Node000005_Node000003" class="edge">
<title>Node5&#45;&gt;Node3</title>
<g id="a_edge6_Node000005_Node000003"><a xlink:title=" ">
<path fill="none" stroke="#63b8ff" d="M267.89,-32.23C288.8,-38.71 312.61,-46.09 332.63,-52.29"/>
<polygon fill="#63b8ff" stroke="#63b8ff" points="331.43,-55.89 342.02,-55.51 333.5,-49.21 331.43,-55.89"/>
</a>
</g>
</g>
</g>
</svg>
