<?xml version="1.0" encoding="UTF-8" standalone="no"?>
<!DOCTYPE svg PUBLIC "-//W3C//DTD SVG 1.1//EN"
 "http://www.w3.org/Graphics/SVG/1.1/DTD/svg11.dtd">
<!-- Generated by graphviz version 8.1.0 (20230707.0739)
 -->
<!-- Title: Dev_CurrentSensorOffsetCal Pages: 1 -->
<svg width="734pt" height="66pt"
 viewBox="0.00 0.00 733.75 66.00" xmlns="http://www.w3.org/2000/svg" xmlns:xlink="http://www.w3.org/1999/xlink">
<g id="graph0" class="graph" transform="scale(1 1) rotate(0) translate(4 62)">
<title>Dev_CurrentSensorOffsetCal</title>
<!-- Node1 -->
<g id="Node000001" class="node">
<title>Node1</title>
<g id="a_Node000001"><a xlink:title="Measures the currents sensor offset.">
<polygon fill="#999999" stroke="#666666" points="725.75,-39 586.75,-39 586.75,-19 725.75,-19 725.75,-39"/>
<text text-anchor="middle" x="656.25" y="-25.5" font-family="Helvetica,sans-Serif" font-size="10.00">Dev_CurrentSensorOffsetCal</text>
</a>
</g>
</g>
<!-- Node2 -->
<g id="Node000002" class="node">
<title>Node2</title>
<g id="a_Node000002"><a xlink:href="a00509.html#ga8307344d190a5459682d315fc7bfe198" target="_top" xlink:title="Executes function for initialze state machine.">
<polygon fill="white" stroke="#666666" points="536.12,-58 441.38,-58 441.38,-38 536.12,-38 536.12,-58"/>
<text text-anchor="middle" x="488.75" y="-44.5" font-family="Helvetica,sans-Serif" font-size="10.00">PCS_INIT_handler</text>
</a>
</g>
</g>
<!-- Node1&#45;&gt;Node2 -->
<g id="edge1_Node000001_Node000002" class="edge">
<title>Node1&#45;&gt;Node2</title>
<g id="a_edge1_Node000001_Node000002"><a xlink:title=" ">
<path fill="none" stroke="#63b8ff" d="M575.74,-38.13C562.26,-39.68 548.67,-41.24 536.4,-42.64"/>
<polygon fill="#63b8ff" stroke="#63b8ff" points="575.97,-41.51 585.5,-36.89 575.17,-34.56 575.97,-41.51"/>
</a>
</g>
</g>
<!-- Node6 -->
<g id="Node000006" class="node">
<title>Node6</title>
<g id="a_Node000006"><a xlink:href="a00509.html#ga42f7c8f65745b2f81bb6dbd381ea8121" target="_top" xlink:title="Executes Standby State machine.">
<polygon fill="white" stroke="#666666" points="550.75,-20 426.75,-20 426.75,0 550.75,0 550.75,-20"/>
<text text-anchor="middle" x="488.75" y="-6.5" font-family="Helvetica,sans-Serif" font-size="10.00">PCS_STANDBY_handler</text>
</a>
</g>
</g>
<!-- Node1&#45;&gt;Node6 -->
<g id="edge5_Node000001_Node000006" class="edge">
<title>Node1&#45;&gt;Node6</title>
<g id="a_edge5_Node000001_Node000006"><a xlink:title=" ">
<path fill="none" stroke="#63b8ff" d="M575.71,-19.87C567.45,-18.92 559.16,-17.97 551.15,-17.05"/>
<polygon fill="#63b8ff" stroke="#63b8ff" points="575.17,-23.44 585.5,-21.11 575.97,-16.49 575.17,-23.44"/>
</a>
</g>
</g>
<!-- Node3 -->
<g id="Node000003" class="node">
<title>Node3</title>
<g id="a_Node000003"><a xlink:href="a00509.html#ga2408c0b52cd2c2487f43716f261434e6" target="_top" xlink:title="Manages the power control state machine.">
<polygon fill="white" stroke="#666666" points="390.75,-39 278,-39 278,-19 390.75,-19 390.75,-39"/>
<text text-anchor="middle" x="334.38" y="-25.5" font-family="Helvetica,sans-Serif" font-size="10.00">PwrCtrl_StateMachine</text>
</a>
</g>
</g>
<!-- Node2&#45;&gt;Node3 -->
<g id="edge2_Node000002_Node000003" class="edge">
<title>Node2&#45;&gt;Node3</title>
<g id="a_edge2_Node000002_Node000003"><a xlink:title=" ">
<path fill="none" stroke="#63b8ff" d="M430.55,-40.87C417.61,-39.25 403.89,-37.54 391.02,-35.94"/>
<polygon fill="#63b8ff" stroke="#63b8ff" points="429.85,-44.43 440.2,-42.2 430.71,-37.49 429.85,-44.43"/>
</a>
</g>
</g>
<!-- Node4 -->
<g id="Node000004" class="node">
<title>Node4</title>
<g id="a_Node000004"><a xlink:href="a00506.html#ga48dcb018afa53b60b6112cde00561c4b" target="_top" xlink:title="Executes the power control state machine.">
<polygon fill="white" stroke="#666666" points="242,-39 153.25,-39 153.25,-19 242,-19 242,-39"/>
<text text-anchor="middle" x="197.62" y="-25.5" font-family="Helvetica,sans-Serif" font-size="10.00">PwrCtrl_Execute</text>
</a>
</g>
</g>
<!-- Node3&#45;&gt;Node4 -->
<g id="edge3_Node000003_Node000004" class="edge">
<title>Node3&#45;&gt;Node4</title>
<g id="a_edge3_Node000003_Node000004"><a xlink:title=" ">
<path fill="none" stroke="#63b8ff" d="M266.82,-29C258.44,-29 250.04,-29 242.15,-29"/>
<polygon fill="#63b8ff" stroke="#63b8ff" points="266.79,-32.5 276.79,-29 266.79,-25.5 266.79,-32.5"/>
</a>
</g>
</g>
<!-- Node5 -->
<g id="Node000005" class="node">
<title>Node5</title>
<g id="a_Node000005"><a xlink:href="a00517.html#gad258f19a1b6a855fef3c71f54bb5539e" target="_top" xlink:title="Tasks_Realtime_100us gets called directly from the timer interrupt every 100 µs.">
<polygon fill="white" stroke="#666666" points="117.25,-39 0,-39 0,-19 117.25,-19 117.25,-39"/>
<text text-anchor="middle" x="58.62" y="-25.5" font-family="Helvetica,sans-Serif" font-size="10.00">Tasks_Realtime_100us</text>
</a>
</g>
</g>
<!-- Node4&#45;&gt;Node5 -->
<g id="edge4_Node000004_Node000005" class="edge">
<title>Node4&#45;&gt;Node5</title>
<g id="a_edge4_Node000004_Node000005"><a xlink:title=" ">
<path fill="none" stroke="#63b8ff" d="M142.07,-29C133.97,-29 125.6,-29 117.44,-29"/>
<polygon fill="#63b8ff" stroke="#63b8ff" points="141.9,-32.5 151.9,-29 141.9,-25.5 141.9,-32.5"/>
</a>
</g>
</g>
<!-- Node6&#45;&gt;Node3 -->
<g id="edge6_Node000006_Node000003" class="edge">
<title>Node6&#45;&gt;Node3</title>
<g id="a_edge6_Node000006_Node000003"><a xlink:title=" ">
<path fill="none" stroke="#63b8ff" d="M415.8,-18.97C407.49,-20.01 399.11,-21.05 391.06,-22.06"/>
<polygon fill="#63b8ff" stroke="#63b8ff" points="416.16,-22.33 425.65,-17.62 415.29,-15.38 416.16,-22.33"/>
</a>
</g>
</g>
</g>
</svg>
