<?xml version="1.0" encoding="UTF-8" standalone="no"?>
<!DOCTYPE svg PUBLIC "-//W3C//DTD SVG 1.1//EN"
 "http://www.w3.org/Graphics/SVG/1.1/DTD/svg11.dtd">
<!-- Generated by graphviz version 8.1.0 (20230707.0739)
 -->
<!-- Title: Power Board Visualizer Pages: 1 -->
<svg width="400pt" height="142pt"
 viewBox="0.00 0.00 400.25 142.00" xmlns="http://www.w3.org/2000/svg" xmlns:xlink="http://www.w3.org/1999/xlink">

<svg id="main" version="1.1" xmlns="http://www.w3.org/2000/svg" xmlns:xlink="http://www.w3.org/1999/xlink" xml:space="preserve" onload="init(evt)">
<style type="text/css"><![CDATA[
.node, .edge {opacity: 0.7;}
.node.selected, .edge.selected {opacity: 1;}
.edge:hover path { stroke: red; }
.edge:hover polygon { stroke: red; fill: red; }
]]></style>
<script type="application/ecmascript" xlink:href="svg.min.js"/>
<svg id="graph" class="graph">
<g id="graph0" class="graph" transform="scale(1 1) rotate(0) translate(4 138)">
<title>Power Board Visualizer</title>
<!-- Node5 -->
<g id="Node000005" class="node">
<title>Node5</title>
<g id="a_Node000005"><a xlink:href="a00484.html" target="_top" xlink:title=" ">
<polygon fill="white" stroke="#666666" points="374.25,-134 298.25,-134 298.25,-114 374.25,-114 374.25,-134"/>
<text text-anchor="middle" x="336.25" y="-120.5" font-family="Helvetica,sans-Serif" font-size="10.00">PBV Interface</text>
</a>
</g>
</g>
<!-- Node3 -->
<g id="Node000003" class="node">
<title>Node3</title>
<g id="a_Node000003"><a xlink:href="a00482.html" target="_top" xlink:title=" ">
<polygon fill="white" stroke="#666666" points="389.62,-96 282.88,-96 282.88,-76 389.62,-76 389.62,-96"/>
<text text-anchor="middle" x="336.25" y="-82.5" font-family="Helvetica,sans-Serif" font-size="10.00">CAN Communication</text>
</a>
</g>
</g>
<!-- Node4 -->
<g id="Node000004" class="node">
<title>Node4</title>
<g id="a_Node000004"><a xlink:href="a00483.html" target="_top" xlink:title=" ">
<polygon fill="white" stroke="#666666" points="392.25,-58 280.25,-58 280.25,-38 392.25,-38 392.25,-58"/>
<text text-anchor="middle" x="336.25" y="-44.5" font-family="Helvetica,sans-Serif" font-size="10.00">UART Communication</text>
</a>
</g>
</g>
<!-- Node6 -->
<g id="Node000006" class="node">
<title>Node6</title>
<g id="a_Node000006"><a xlink:href="a00485.html" target="_top" xlink:title=" ">
<polygon fill="white" stroke="#666666" points="384,-20 288.5,-20 288.5,0 384,0 384,-20"/>
<text text-anchor="middle" x="336.25" y="-6.5" font-family="Helvetica,sans-Serif" font-size="10.00">User Configuration</text>
</a>
</g>
</g>
<!-- Node2 -->
<g id="Node000002" class="node">
<title>Node2</title>
<g id="a_Node000002"><a xlink:href="a00480.html" target="_top" xlink:title=" ">
<polygon fill="white" stroke="#666666" points="91,-77 0,-77 0,-57 91,-57 91,-77"/>
<text text-anchor="middle" x="45.5" y="-63.5" font-family="Helvetica,sans-Serif" font-size="10.00">Application Layer</text>
</a>
</g>
</g>
<!-- Node1 -->
<g id="Node000001" class="node">
<title>Node1</title>
<g id="a_Node000001"><a xlink:title=" ">
<polygon fill="#999999" stroke="#666666" points="244.25,-77 127,-77 127,-57 244.25,-57 244.25,-77"/>
<text text-anchor="middle" x="185.62" y="-63.5" font-family="Helvetica,sans-Serif" font-size="10.00">Power Board Visualizer</text>
</a>
</g>
</g>
<!-- Node2&#45;&gt;Node1 -->
<g id="edge1" class="edge">
<title>Node2&#45;&gt;Node1</title>
<path fill="none" stroke="black" d="M102.23,-67C110.36,-67 118.74,-67 126.91,-67"/>
<polygon fill="black" stroke="black" points="102.35,-63.5 92.35,-67 102.35,-70.5 102.35,-63.5"/>
</g>
<!-- Node1&#45;&gt;Node5 -->
<g id="edge4" class="edge">
<title>Node1&#45;&gt;Node5</title>
<path fill="none" stroke="black" d="M220.97,-81.45C238.6,-88.74 260.48,-97.58 280.25,-105 287.91,-107.88 296.23,-110.83 304.02,-113.53"/>
<polygon fill="black" stroke="black" points="222.7,-77.96 212.13,-77.36 220.02,-84.43 222.7,-77.96"/>
</g>
<!-- Node1&#45;&gt;Node3 -->
<g id="edge2" class="edge">
<title>Node1&#45;&gt;Node3</title>
<path fill="none" stroke="black" d="M255.23,-75.77C264.43,-76.95 273.74,-78.14 282.61,-79.27"/>
<polygon fill="black" stroke="black" points="255.88,-72.2 245.51,-74.4 254.99,-79.14 255.88,-72.2"/>
</g>
<!-- Node1&#45;&gt;Node4 -->
<g id="edge3" class="edge">
<title>Node1&#45;&gt;Node4</title>
<path fill="none" stroke="black" d="M255.37,-58.21C263.69,-57.15 272.11,-56.07 280.2,-55.04"/>
<polygon fill="black" stroke="black" points="254.99,-54.86 245.51,-59.6 255.88,-61.8 254.99,-54.86"/>
</g>
<!-- Node1&#45;&gt;Node6 -->
<g id="edge5" class="edge">
<title>Node1&#45;&gt;Node6</title>
<path fill="none" stroke="black" d="M220.97,-52.55C238.6,-45.26 260.48,-36.42 280.25,-29 287.91,-26.12 296.23,-23.17 304.02,-20.47"/>
<polygon fill="black" stroke="black" points="220.02,-49.57 212.13,-56.64 222.7,-56.04 220.02,-49.57"/>
</g>
</g>
</svg>
</svg>

<style type='text/css'>
<![CDATA[
[data-mouse-over-selected='false'] { opacity: 0.7; }
[data-mouse-over-selected='true']  { opacity: 1.0; }
]]>
</style>
<script type="application/ecmascript"><![CDATA[
document.addEventListener('DOMContentLoaded', (event) => {
  highlightEdges();
  highlightAdjacentNodes();
});
]]></script>
</svg>
