<?xml version="1.0" encoding="UTF-8" standalone="no"?>
<!DOCTYPE svg PUBLIC "-//W3C//DTD SVG 1.1//EN"
 "http://www.w3.org/Graphics/SVG/1.1/DTD/svg11.dtd">
<!-- Generated by graphviz version 8.1.0 (20230707.0739)
 -->
<!-- Title: protocolID Pages: 1 -->
<svg width="351pt" height="28pt"
 viewBox="0.00 0.00 350.75 28.00" xmlns="http://www.w3.org/2000/svg" xmlns:xlink="http://www.w3.org/1999/xlink">
<g id="graph0" class="graph" transform="scale(1 1) rotate(0) translate(4 24)">
<title>protocolID</title>
<!-- Node1 -->
<g id="Node000001" class="node">
<title>Node1</title>
<g id="a_Node000001"><a xlink:title="default callback">
<polygon fill="#999999" stroke="#666666" points="342.75,-20 283.25,-20 283.25,0 342.75,0 342.75,-20"/>
<text text-anchor="middle" x="313" y="-6.5" font-family="Helvetica,sans-Serif" font-size="10.00">protocolID</text>
</a>
</g>
</g>
<!-- Node2 -->
<g id="Node000002" class="node">
<title>Node2</title>
<g id="a_Node000002"><a xlink:href="a00495.html#ga4de477d51ea04cdcfcb1e3eb3ef0053a" target="_top" xlink:title="this is high frequency task to simulate sending of high frequency numeric data. Also to check if ther...">
<polygon fill="white" stroke="#666666" points="247.25,-20 107.5,-20 107.5,0 247.25,0 247.25,-20"/>
<text text-anchor="middle" x="177.38" y="-6.5" font-family="Helvetica,sans-Serif" font-size="10.00">App_PBV_DAB_Task_10ms</text>
</a>
</g>
</g>
<!-- Node1&#45;&gt;Node2 -->
<g id="edge1_Node000001_Node000002" class="edge">
<title>Node1&#45;&gt;Node2</title>
<g id="a_edge1_Node000001_Node000002"><a xlink:title=" ">
<path fill="none" stroke="#63b8ff" d="M272.11,-10C264.35,-10 256.01,-10 247.62,-10"/>
<polygon fill="#63b8ff" stroke="#63b8ff" points="272.01,-13.5 282.01,-10 272.01,-6.5 272.01,-13.5"/>
</a>
</g>
</g>
<!-- Node3 -->
<g id="Node000003" class="node">
<title>Node3</title>
<g id="a_Node000003"><a xlink:href="a00517.html#ga05751024e03719cbe14d88fb0af408dd" target="_top" xlink:title="Tasks_10ms gets called every 10ms, put your things in it that need to be called regularly.">
<polygon fill="white" stroke="#666666" points="71.5,-20 0,-20 0,0 71.5,0 71.5,-20"/>
<text text-anchor="middle" x="35.75" y="-6.5" font-family="Helvetica,sans-Serif" font-size="10.00">Tasks_10ms</text>
</a>
</g>
</g>
<!-- Node2&#45;&gt;Node3 -->
<g id="edge2_Node000002_Node000003" class="edge">
<title>Node2&#45;&gt;Node3</title>
<g id="a_edge2_Node000002_Node000003"><a xlink:title=" ">
<path fill="none" stroke="#63b8ff" d="M96.4,-10C87.78,-10 79.38,-10 71.73,-10"/>
<polygon fill="#63b8ff" stroke="#63b8ff" points="96.38,-13.5 106.38,-10 96.38,-6.5 96.38,-13.5"/>
</a>
</g>
</g>
</g>
</svg>
