<?xml version="1.0" encoding="UTF-8" standalone="no"?>
<!DOCTYPE svg PUBLIC "-//W3C//DTD SVG 1.1//EN"
 "http://www.w3.org/Graphics/SVG/1.1/DTD/svg11.dtd">
<!-- Generated by graphviz version 8.1.0 (20230707.0739)
 -->
<!-- Title: dspic33ck&#45;dab.X/sources/pwrctrl/pwrctrl_comm_interface.c Pages: 1 -->
<svg width="448pt" height="388pt"
 viewBox="0.00 0.00 448.14 388.00" xmlns="http://www.w3.org/2000/svg" xmlns:xlink="http://www.w3.org/1999/xlink">
<g id="graph0" class="graph" transform="scale(1 1) rotate(0) translate(4 384)">
<title>dspic33ck&#45;dab.X/sources/pwrctrl/pwrctrl_comm_interface.c</title>
<!-- Node1 -->
<g id="Node000001" class="node">
<title>Node1</title>
<g id="a_Node000001"><a xlink:title="Contains power control interface with communication/gui.">
<polygon fill="#999999" stroke="#666666" points="256.39,-380 131.64,-380 131.64,-336 256.39,-336 256.39,-380"/>
<text text-anchor="start" x="139.64" y="-366.5" font-family="Helvetica,sans-Serif" font-size="10.00">dspic33ck&#45;dab.X/sources</text>
<text text-anchor="start" x="139.64" y="-354.5" font-family="Helvetica,sans-Serif" font-size="10.00">/pwrctrl/pwrctrl_comm</text>
<text text-anchor="middle" x="194.02" y="-342.5" font-family="Helvetica,sans-Serif" font-size="10.00">_interface.c</text>
</a>
</g>
</g>
<!-- Node2 -->
<g id="Node000002" class="node">
<title>Node2</title>
<g id="a_Node000002"><a xlink:href="a00446_source.html" target="_top" xlink:title=" ">
<polygon fill="white" stroke="#666666" points="220.39,-300 167.64,-300 167.64,-280 220.39,-280 220.39,-300"/>
<text text-anchor="middle" x="194.02" y="-286.5" font-family="Helvetica,sans-Serif" font-size="10.00">pwrctrl.h</text>
</a>
</g>
</g>
<!-- Node1&#45;&gt;Node2 -->
<g id="edge1_Node000001_Node000002" class="edge">
<title>Node1&#45;&gt;Node2</title>
<g id="a_edge1_Node000001_Node000002"><a xlink:title=" ">
<path fill="none" stroke="#63b8ff" d="M194.02,-335.75C194.02,-327.94 194.02,-319.11 194.02,-311.38"/>
<polygon fill="#63b8ff" stroke="#63b8ff" points="197.52,-311.42 194.02,-301.42 190.52,-311.42 197.52,-311.42"/>
</a>
</g>
</g>
<!-- Node3 -->
<g id="Node000003" class="node">
<title>Node3</title>
<g id="a_Node000003"><a xlink:href="a00479_source.html" target="_top" xlink:title=" ">
<polygon fill="white" stroke="#666666" points="239.77,-188 150.27,-188 150.27,-168 239.77,-168 239.77,-188"/>
<text text-anchor="middle" x="195.02" y="-174.5" font-family="Helvetica,sans-Serif" font-size="10.00">pwrctrl_typedef.h</text>
</a>
</g>
</g>
<!-- Node2&#45;&gt;Node3 -->
<g id="edge2_Node000002_Node000003" class="edge">
<title>Node2&#45;&gt;Node3</title>
<g id="a_edge2_Node000002_Node000003"><a xlink:title=" ">
<path fill="none" stroke="#63b8ff" d="M167.43,-288.8C106.48,-287.41 -34.85,-278.41 8.02,-224 24.16,-203.52 90.21,-191.28 139.26,-184.85"/>
<polygon fill="#63b8ff" stroke="#63b8ff" points="139.59,-188.21 149.07,-183.49 138.71,-181.26 139.59,-188.21"/>
</a>
</g>
</g>
<!-- Node8 -->
<g id="Node000008" class="node">
<title>Node8</title>
<g id="a_Node000008"><a xlink:href="a00452.html" target="_top" xlink:title="Contains the power control reusable functions.">
<polygon fill="white" stroke="#666666" points="112.77,-244 17.27,-244 17.27,-224 112.77,-224 112.77,-244"/>
<text text-anchor="middle" x="65.02" y="-230.5" font-family="Helvetica,sans-Serif" font-size="10.00">pwrctrl_common.h</text>
</a>
</g>
</g>
<!-- Node2&#45;&gt;Node8 -->
<g id="edge7_Node000002_Node000008" class="edge">
<title>Node2&#45;&gt;Node8</title>
<g id="a_edge7_Node000002_Node000008"><a xlink:title=" ">
<path fill="none" stroke="#63b8ff" d="M171.55,-279.59C151.14,-271.05 120.79,-258.35 97.7,-248.68"/>
<polygon fill="#63b8ff" stroke="#63b8ff" points="99.24,-245.11 88.66,-244.48 96.54,-251.57 99.24,-245.11"/>
</a>
</g>
</g>
<!-- Node9 -->
<g id="Node000009" class="node">
<title>Node9</title>
<g id="a_Node000009"><a xlink:href="a00458.html" target="_top" xlink:title="Contains public functions relevant for power control communication interface.">
<polygon fill="white" stroke="#666666" points="257.52,-244 130.52,-244 130.52,-224 257.52,-224 257.52,-244"/>
<text text-anchor="middle" x="194.02" y="-230.5" font-family="Helvetica,sans-Serif" font-size="10.00">pwrctrl_comm_interface.h</text>
</a>
</g>
</g>
<!-- Node2&#45;&gt;Node9 -->
<g id="edge8_Node000002_Node000009" class="edge">
<title>Node2&#45;&gt;Node9</title>
<g id="a_edge8_Node000002_Node000009"><a xlink:title=" ">
<path fill="none" stroke="#63b8ff" d="M194.02,-279.59C194.02,-272.86 194.02,-263.53 194.02,-255.15"/>
<polygon fill="#63b8ff" stroke="#63b8ff" points="197.52,-255.3 194.02,-245.3 190.52,-255.3 197.52,-255.3"/>
</a>
</g>
</g>
<!-- Node10 -->
<g id="Node000010" class="node">
<title>Node10</title>
<g id="a_Node000010"><a xlink:href="a00464.html" target="_top" xlink:title="Contains public function relevant for power control interrupt.">
<polygon fill="white" stroke="#666666" points="344.27,-244 275.77,-244 275.77,-224 344.27,-224 344.27,-244"/>
<text text-anchor="middle" x="310.02" y="-230.5" font-family="Helvetica,sans-Serif" font-size="10.00">pwrctrl_isr.h</text>
</a>
</g>
</g>
<!-- Node2&#45;&gt;Node10 -->
<g id="edge9_Node000002_Node000010" class="edge">
<title>Node2&#45;&gt;Node10</title>
<g id="a_edge9_Node000002_Node000010"><a xlink:title=" ">
<path fill="none" stroke="#63b8ff" d="M214.22,-279.59C232.33,-271.17 259.13,-258.69 279.78,-249.07"/>
<polygon fill="#63b8ff" stroke="#63b8ff" points="281.07,-251.87 288.65,-244.48 278.11,-245.53 281.07,-251.87"/>
</a>
</g>
</g>
<!-- Node11 -->
<g id="Node000011" class="node">
<title>Node11</title>
<g id="a_Node000011"><a xlink:href="a00473.html" target="_top" xlink:title="Contains public functions for PWM.">
<polygon fill="white" stroke="#666666" points="440.14,-244 361.89,-244 361.89,-224 440.14,-224 440.14,-244"/>
<text text-anchor="middle" x="401.02" y="-230.5" font-family="Helvetica,sans-Serif" font-size="10.00">pwrctrl_pwm.h</text>
</a>
</g>
</g>
<!-- Node2&#45;&gt;Node11 -->
<g id="edge10_Node000002_Node000011" class="edge">
<title>Node2&#45;&gt;Node11</title>
<g id="a_edge10_Node000002_Node000011"><a xlink:title=" ">
<path fill="none" stroke="#63b8ff" d="M220.66,-282.05C254.34,-273.27 312.89,-257.99 354.13,-247.23"/>
<polygon fill="#63b8ff" stroke="#63b8ff" points="354.95,-250.37 363.74,-244.46 353.18,-243.6 354.95,-250.37"/>
</a>
</g>
</g>
<!-- Node4 -->
<g id="Node000004" class="node">
<title>Node4</title>
<g id="a_Node000004"><a xlink:href="a00380.html" target="_top" xlink:title="Contains fault data types.">
<polygon fill="white" stroke="#666666" points="245.02,-132 145.02,-132 145.02,-112 245.02,-112 245.02,-132"/>
<text text-anchor="middle" x="195.02" y="-118.5" font-family="Helvetica,sans-Serif" font-size="10.00">fault/fault_typedef.h</text>
</a>
</g>
</g>
<!-- Node3&#45;&gt;Node4 -->
<g id="edge3_Node000003_Node000004" class="edge">
<title>Node3&#45;&gt;Node4</title>
<g id="a_edge3_Node000003_Node000004"><a xlink:title=" ">
<path fill="none" stroke="#63b8ff" d="M195.02,-167.59C195.02,-160.86 195.02,-151.53 195.02,-143.15"/>
<polygon fill="#63b8ff" stroke="#63b8ff" points="198.52,-143.3 195.02,-133.3 191.52,-143.3 198.52,-143.3"/>
</a>
</g>
</g>
<!-- Node5 -->
<g id="Node000005" class="node">
<title>Node5</title>
<g id="a_Node000005"><a xlink:href="a00371.html" target="_top" xlink:title="Contains fault generic public functions.">
<polygon fill="white" stroke="#666666" points="237.52,-76 152.52,-76 152.52,-56 237.52,-56 237.52,-76"/>
<text text-anchor="middle" x="195.02" y="-62.5" font-family="Helvetica,sans-Serif" font-size="10.00">fault_common.h</text>
</a>
</g>
</g>
<!-- Node4&#45;&gt;Node5 -->
<g id="edge4_Node000004_Node000005" class="edge">
<title>Node4&#45;&gt;Node5</title>
<g id="a_edge4_Node000004_Node000005"><a xlink:title=" ">
<path fill="none" stroke="#63b8ff" d="M195.02,-111.59C195.02,-104.86 195.02,-95.53 195.02,-87.15"/>
<polygon fill="#63b8ff" stroke="#63b8ff" points="198.52,-87.3 195.02,-77.3 191.52,-87.3 198.52,-87.3"/>
</a>
</g>
</g>
<!-- Node6 -->
<g id="Node000006" class="node">
<title>Node6</title>
<g id="a_Node000006"><a xlink:title=" ">
<polygon fill="#e0e0e0" stroke="#999999" points="184.14,-20 135.89,-20 135.89,0 184.14,0 184.14,-20"/>
<text text-anchor="middle" x="160.02" y="-6.5" font-family="Helvetica,sans-Serif" font-size="10.00">stdint.h</text>
</a>
</g>
</g>
<!-- Node5&#45;&gt;Node6 -->
<g id="edge5_Node000005_Node000006" class="edge">
<title>Node5&#45;&gt;Node6</title>
<g id="a_edge5_Node000005_Node000006"><a xlink:title=" ">
<path fill="none" stroke="#63b8ff" d="M188.92,-55.59C184.25,-48.39 177.67,-38.23 171.96,-29.43"/>
<polygon fill="#63b8ff" stroke="#63b8ff" points="174.42,-27.79 166.04,-21.3 168.55,-31.59 174.42,-27.79"/>
</a>
</g>
</g>
<!-- Node7 -->
<g id="Node000007" class="node">
<title>Node7</title>
<g id="a_Node000007"><a xlink:title=" ">
<polygon fill="#e0e0e0" stroke="#999999" points="257.89,-20 202.14,-20 202.14,0 257.89,0 257.89,-20"/>
<text text-anchor="middle" x="230.02" y="-6.5" font-family="Helvetica,sans-Serif" font-size="10.00">stdbool.h</text>
</a>
</g>
</g>
<!-- Node5&#45;&gt;Node7 -->
<g id="edge6_Node000005_Node000007" class="edge">
<title>Node5&#45;&gt;Node7</title>
<g id="a_edge6_Node000005_Node000007"><a xlink:title=" ">
<path fill="none" stroke="#63b8ff" d="M201.11,-55.59C205.78,-48.39 212.37,-38.23 218.07,-29.43"/>
<polygon fill="#63b8ff" stroke="#63b8ff" points="221.49,-31.59 223.99,-21.3 215.62,-27.79 221.49,-31.59"/>
</a>
</g>
</g>
<!-- Node11&#45;&gt;Node3 -->
<g id="edge11_Node000011_Node000003" class="edge">
<title>Node11&#45;&gt;Node3</title>
<g id="a_edge11_Node000011_Node000003"><a xlink:title=" ">
<path fill="none" stroke="#63b8ff" d="M365.14,-223.59C330.93,-214.63 279.24,-201.08 241.82,-191.27"/>
<polygon fill="#63b8ff" stroke="#63b8ff" points="242.74,-187.63 232.18,-188.48 240.97,-194.4 242.74,-187.63"/>
</a>
</g>
</g>
</g>
</svg>
