<?xml version="1.0" encoding="UTF-8" standalone="no"?>
<!DOCTYPE svg PUBLIC "-//W3C//DTD SVG 1.1//EN"
 "http://www.w3.org/Graphics/SVG/1.1/DTD/svg11.dtd">
<!-- Generated by graphviz version 8.1.0 (20230707.0739)
 -->
<!-- Title: Dev_PwrCtrl_Execute Pages: 1 -->
<svg width="839pt" height="551pt"
 viewBox="0.00 0.00 838.75 551.00" xmlns="http://www.w3.org/2000/svg" xmlns:xlink="http://www.w3.org/1999/xlink">
<g id="graph0" class="graph" transform="scale(1 1) rotate(0) translate(4 547)">
<title>Dev_PwrCtrl_Execute</title>
<!-- Node1 -->
<g id="Node000001" class="node">
<title>Node1</title>
<g id="a_Node000001"><a xlink:title="Executes the power control state machine.">
<polygon fill="#999999" stroke="#666666" points="109.75,-423 0,-423 0,-403 109.75,-403 109.75,-423"/>
<text text-anchor="middle" x="54.88" y="-409.5" font-family="Helvetica,sans-Serif" font-size="10.00">Dev_PwrCtrl_Execute</text>
</a>
</g>
</g>
<!-- Node2 -->
<g id="Node000002" class="node">
<title>Node2</title>
<g id="a_Node000002"><a xlink:href="a00492.html#gaebef55c78d9df043c293ffcf8a06b63f" target="_top" xlink:title="Manages the power control state machine.">
<polygon fill="white" stroke="#666666" points="279.5,-423 145.75,-423 145.75,-403 279.5,-403 279.5,-423"/>
<text text-anchor="middle" x="212.62" y="-409.5" font-family="Helvetica,sans-Serif" font-size="10.00">Dev_PwrCtrl_StateMachine</text>
</a>
</g>
</g>
<!-- Node1&#45;&gt;Node2 -->
<g id="edge1_Node000001_Node000002" class="edge">
<title>Node1&#45;&gt;Node2</title>
<g id="a_edge1_Node000001_Node000002"><a xlink:title=" ">
<path fill="none" stroke="#63b8ff" d="M109.91,-413C117.85,-413 126.16,-413 134.46,-413"/>
<polygon fill="#63b8ff" stroke="#63b8ff" points="134.33,-416.5 144.33,-413 134.33,-409.5 134.33,-416.5"/>
</a>
</g>
</g>
<!-- Node3 -->
<g id="Node000003" class="node">
<title>Node3</title>
<g id="a_Node000003"><a xlink:href="a00492.html#ga8307344d190a5459682d315fc7bfe198" target="_top" xlink:title="Executes function for initialze state machine.">
<polygon fill="white" stroke="#666666" points="432.75,-423 338,-423 338,-403 432.75,-403 432.75,-423"/>
<text text-anchor="middle" x="385.38" y="-409.5" font-family="Helvetica,sans-Serif" font-size="10.00">PCS_INIT_handler</text>
</a>
</g>
</g>
<!-- Node2&#45;&gt;Node3 -->
<g id="edge2_Node000002_Node000003" class="edge">
<title>Node2&#45;&gt;Node3</title>
<g id="a_edge2_Node000002_Node000003"><a xlink:title=" ">
<path fill="none" stroke="#63b8ff" d="M279.64,-413C295.2,-413 311.66,-413 326.81,-413"/>
<polygon fill="#63b8ff" stroke="#63b8ff" points="326.58,-416.5 336.58,-413 326.58,-409.5 326.58,-416.5"/>
</a>
</g>
</g>
<!-- Node14 -->
<g id="Node000014" class="node">
<title>Node14</title>
<g id="a_Node000014"><a xlink:href="a00492.html#gabda6b853bb6547821acd0ec87e0a4842" target="_top" xlink:title="Executes the power control soft start state machine.">
<polygon fill="white" stroke="#666666" points="455.25,-511 315.5,-511 315.5,-491 455.25,-491 455.25,-511"/>
<text text-anchor="middle" x="385.38" y="-497.5" font-family="Helvetica,sans-Serif" font-size="10.00">PCS_SOFT_START_handler</text>
</a>
</g>
</g>
<!-- Node2&#45;&gt;Node14 -->
<g id="edge13_Node000002_Node000014" class="edge">
<title>Node2&#45;&gt;Node14</title>
<g id="a_edge13_Node000002_Node000014"><a xlink:title=" ">
<path fill="none" stroke="#63b8ff" d="M226,-423.37C244.4,-438.32 280.59,-465.89 315.5,-482 319.55,-483.87 323.83,-485.59 328.19,-487.17"/>
<polygon fill="#63b8ff" stroke="#63b8ff" points="326.83,-490.74 337.43,-490.58 329.05,-484.1 326.83,-490.74"/>
</a>
</g>
</g>
<!-- Node16 -->
<g id="Node000016" class="node">
<title>Node16</title>
<g id="a_Node000016"><a xlink:href="a00492.html#ga42f7c8f65745b2f81bb6dbd381ea8121" target="_top" xlink:title="Executes Standby State machine.">
<polygon fill="white" stroke="#666666" points="447.38,-363 323.38,-363 323.38,-343 447.38,-343 447.38,-363"/>
<text text-anchor="middle" x="385.38" y="-349.5" font-family="Helvetica,sans-Serif" font-size="10.00">PCS_STANDBY_handler</text>
</a>
</g>
</g>
<!-- Node2&#45;&gt;Node16 -->
<g id="edge16_Node000002_Node000016" class="edge">
<title>Node2&#45;&gt;Node16</title>
<g id="a_edge16_Node000002_Node000016"><a xlink:title=" ">
<path fill="none" stroke="#63b8ff" d="M243.37,-402.55C271.44,-392.68 313.72,-377.83 344.67,-366.95"/>
<polygon fill="#63b8ff" stroke="#63b8ff" points="345.41,-370.05 353.69,-363.43 343.09,-363.45 345.41,-370.05"/>
</a>
</g>
</g>
<!-- Node29 -->
<g id="Node000029" class="node">
<title>Node29</title>
<g id="a_Node000029"><a xlink:href="a00492.html#ga8752fbb48416e60141e205f1cbda0f98" target="_top" xlink:title="Executes the Online state.">
<polygon fill="white" stroke="#666666" points="450,-473 320.75,-473 320.75,-441 450,-441 450,-473"/>
<text text-anchor="start" x="328.75" y="-459.5" font-family="Helvetica,sans-Serif" font-size="10.00">PCS_UP_AND_RUNNING</text>
<text text-anchor="middle" x="385.38" y="-447.5" font-family="Helvetica,sans-Serif" font-size="10.00">_handler</text>
</a>
</g>
</g>
<!-- Node2&#45;&gt;Node29 -->
<g id="edge35_Node000002_Node000029" class="edge">
<title>Node2&#45;&gt;Node29</title>
<g id="a_edge35_Node000002_Node000029"><a xlink:title=" ">
<path fill="none" stroke="#63b8ff" d="M254.09,-423.43C270.82,-427.74 290.76,-432.88 309.95,-437.82"/>
<polygon fill="#63b8ff" stroke="#63b8ff" points="308.95,-441.44 319.5,-440.54 310.69,-434.66 308.95,-441.44"/>
</a>
</g>
</g>
<!-- Node30 -->
<g id="Node000030" class="node">
<title>Node30</title>
<g id="a_Node000030"><a xlink:href="a00492.html#gaad6ef2378120876a621b349c1380aef7" target="_top" xlink:title="Executes the fault handler state machine.">
<polygon fill="white" stroke="#666666" points="442.5,-325 328.25,-325 328.25,-293 442.5,-293 442.5,-325"/>
<text text-anchor="start" x="336.25" y="-311.5" font-family="Helvetica,sans-Serif" font-size="10.00">PCS_WAIT_IF_FAULT</text>
<text text-anchor="middle" x="385.38" y="-299.5" font-family="Helvetica,sans-Serif" font-size="10.00">_ACTIVE_handler</text>
</a>
</g>
</g>
<!-- Node2&#45;&gt;Node30 -->
<g id="edge37_Node000002_Node000030" class="edge">
<title>Node2&#45;&gt;Node30</title>
<g id="a_edge37_Node000002_Node000030"><a xlink:title=" ">
<path fill="none" stroke="#63b8ff" d="M224.42,-402.75C242.19,-386.35 279.24,-353.99 315.5,-334 318.16,-332.53 320.93,-331.12 323.76,-329.77"/>
<polygon fill="#63b8ff" stroke="#63b8ff" points="324.84,-332.67 332.54,-325.39 321.98,-326.28 324.84,-332.67"/>
</a>
</g>
</g>
<!-- Node4 -->
<g id="Node000004" class="node">
<title>Node4</title>
<g id="a_Node000004"><a xlink:href="a00500.html#ga218632f9814c3bf20c40cea0794ffc7d" target="_top" xlink:title="API function to get the calibration status.">
<polygon fill="white" stroke="#666666" points="620.88,-391 504.38,-391 504.38,-359 620.88,-359 620.88,-391"/>
<text text-anchor="start" x="512.38" y="-377.5" font-family="Helvetica,sans-Serif" font-size="10.00">Dev_CurrentSensor</text>
<text text-anchor="middle" x="562.62" y="-365.5" font-family="Helvetica,sans-Serif" font-size="10.00">_Get_CalibrationStatus</text>
</a>
</g>
</g>
<!-- Node3&#45;&gt;Node4 -->
<g id="edge3_Node000003_Node000004" class="edge">
<title>Node3&#45;&gt;Node4</title>
<g id="a_edge3_Node000003_Node000004"><a xlink:title=" ">
<path fill="none" stroke="#63b8ff" d="M432.88,-402.92C451.36,-398.91 473,-394.22 493.2,-389.84"/>
<polygon fill="#63b8ff" stroke="#63b8ff" points="493.9,-393.05 502.93,-387.51 492.41,-386.21 493.9,-393.05"/>
</a>
</g>
</g>
<!-- Node5 -->
<g id="Node000005" class="node">
<title>Node5</title>
<g id="a_Node000005"><a xlink:href="a00500.html#ga9f581abf52dc00ba320faafa189fafb9" target="_top" xlink:title="API function to get the sensor offset.">
<polygon fill="white" stroke="#666666" points="612.25,-341 513,-341 513,-309 612.25,-309 612.25,-341"/>
<text text-anchor="start" x="521" y="-327.5" font-family="Helvetica,sans-Serif" font-size="10.00">Dev_CurrentSensor</text>
<text text-anchor="middle" x="562.62" y="-315.5" font-family="Helvetica,sans-Serif" font-size="10.00">_Get_Offset</text>
</a>
</g>
</g>
<!-- Node3&#45;&gt;Node5 -->
<g id="edge4_Node000003_Node000005" class="edge">
<title>Node3&#45;&gt;Node5</title>
<g id="a_edge4_Node000003_Node000005"><a xlink:title=" ">
<path fill="none" stroke="#63b8ff" d="M403.96,-402.61C417.9,-394.35 437.85,-382.49 455.25,-372 471.31,-362.32 474.32,-358.07 491.25,-350 494.86,-348.28 498.61,-346.61 502.43,-345.01"/>
<polygon fill="#63b8ff" stroke="#63b8ff" points="503.65,-347.89 511.63,-340.92 501.05,-341.39 503.65,-347.89"/>
</a>
</g>
</g>
<!-- Node6 -->
<g id="Node000006" class="node">
<title>Node6</title>
<g id="a_Node000006"><a xlink:href="a00500.html#gaaa75855922e60913d443c6203475256f" target="_top" xlink:title="Measures the currents sensor offset.">
<polygon fill="white" stroke="#666666" points="632.12,-467 493.12,-467 493.12,-447 632.12,-447 632.12,-467"/>
<text text-anchor="middle" x="562.62" y="-453.5" font-family="Helvetica,sans-Serif" font-size="10.00">Dev_CurrentSensorOffsetCal</text>
</a>
</g>
</g>
<!-- Node3&#45;&gt;Node6 -->
<g id="edge5_Node000003_Node000006" class="edge">
<title>Node3&#45;&gt;Node6</title>
<g id="a_edge5_Node000003_Node000006"><a xlink:title=" ">
<path fill="none" stroke="#63b8ff" d="M427.91,-423.43C452.37,-429.57 483.54,-437.39 509.62,-443.94"/>
<polygon fill="#63b8ff" stroke="#63b8ff" points="508.54,-447.53 519.09,-446.57 510.24,-440.74 508.54,-447.53"/>
</a>
</g>
</g>
<!-- Node9 -->
<g id="Node000009" class="node">
<title>Node9</title>
<g id="a_Node000009"><a xlink:href="a00498.html#ga81e895976c1ee1cb678be1d5b5c3505b" target="_top" xlink:title="Clears the fault object flag bits.">
<polygon fill="white" stroke="#666666" points="607.38,-429 517.88,-429 517.88,-409 607.38,-409 607.38,-429"/>
<text text-anchor="middle" x="562.62" y="-415.5" font-family="Helvetica,sans-Serif" font-size="10.00">Dev_Fault_Reset</text>
</a>
</g>
</g>
<!-- Node3&#45;&gt;Node9 -->
<g id="edge8_Node000003_Node000009" class="edge">
<title>Node3&#45;&gt;Node9</title>
<g id="a_edge8_Node000003_Node000009"><a xlink:title=" ">
<path fill="none" stroke="#63b8ff" d="M432.88,-414.59C455.55,-415.37 482.97,-416.31 506.68,-417.12"/>
<polygon fill="#63b8ff" stroke="#63b8ff" points="506.51,-420.65 516.62,-417.49 506.75,-413.65 506.51,-420.65"/>
</a>
</g>
</g>
<!-- Node10 -->
<g id="Node000010" class="node">
<title>Node10</title>
<g id="a_Node000010"><a xlink:href="a00491.html#ga209e7835d32aaf5a402b470b61284bdf" target="_top" xlink:title="Disable the PWM output.">
<polygon fill="white" stroke="#666666" points="630.62,-505 494.62,-505 494.62,-485 630.62,-485 630.62,-505"/>
<text text-anchor="middle" x="562.62" y="-491.5" font-family="Helvetica,sans-Serif" font-size="10.00">Dev_PwrCtrl_PWM_Disable</text>
</a>
</g>
</g>
<!-- Node3&#45;&gt;Node10 -->
<g id="edge9_Node000003_Node000010" class="edge">
<title>Node3&#45;&gt;Node10</title>
<g id="a_edge9_Node000003_Node000010"><a xlink:title=" ">
<path fill="none" stroke="#63b8ff" d="M432.9,-421.6C440.73,-424.21 448.49,-427.6 455.25,-432 476.42,-445.79 470.04,-462.27 491.25,-476 493.57,-477.5 496.01,-478.89 498.54,-480.17"/>
<polygon fill="#63b8ff" stroke="#63b8ff" points="497.01,-483.76 507.57,-484.57 499.82,-477.35 497.01,-483.76"/>
</a>
</g>
</g>
<!-- Node7 -->
<g id="Node000007" class="node">
<title>Node7</title>
<g id="a_Node000007"><a xlink:href="a00510.html#gaf4b6f81a05012533b633a78dad7b6a98" target="_top" xlink:title="Returns the conversion value for the channel selected.">
<polygon fill="white" stroke="#666666" points="819.12,-467 681.62,-467 681.62,-447 819.12,-447 819.12,-467"/>
<text text-anchor="middle" x="750.38" y="-453.5" font-family="Helvetica,sans-Serif" font-size="10.00">ADC1_ConversionResultGet</text>
</a>
</g>
</g>
<!-- Node6&#45;&gt;Node7 -->
<g id="edge6_Node000006_Node000007" class="edge">
<title>Node6&#45;&gt;Node7</title>
<g id="a_edge6_Node000006_Node000007"><a xlink:title=" ">
<path fill="none" stroke="#63b8ff" d="M632.53,-457C644.83,-457 657.72,-457 670.28,-457"/>
<polygon fill="#63b8ff" stroke="#63b8ff" points="670.2,-460.5 680.2,-457 670.2,-453.5 670.2,-460.5"/>
</a>
</g>
</g>
<!-- Node8 -->
<g id="Node000008" class="node">
<title>Node8</title>
<g id="a_Node000008"><a xlink:href="a00500.html#ga03e8d61bbc0f4b686c400440f80dcf69" target="_top" xlink:title="Measure the sensor offset.">
<polygon fill="white" stroke="#666666" points="804.12,-429 696.62,-429 696.62,-409 804.12,-409 804.12,-429"/>
<text text-anchor="middle" x="750.38" y="-415.5" font-family="Helvetica,sans-Serif" font-size="10.00">Dev_SensorOffsetCal</text>
</a>
</g>
</g>
<!-- Node6&#45;&gt;Node8 -->
<g id="edge7_Node000006_Node000008" class="edge">
<title>Node6&#45;&gt;Node8</title>
<g id="a_edge7_Node000006_Node000008"><a xlink:title=" ">
<path fill="none" stroke="#63b8ff" d="M614.87,-446.52C637.41,-441.91 664.07,-436.45 687.68,-431.62"/>
<polygon fill="#63b8ff" stroke="#63b8ff" points="688.2,-434.88 697.29,-429.45 686.79,-428.03 688.2,-434.88"/>
</a>
</g>
</g>
<!-- Node11 -->
<g id="Node000011" class="node">
<title>Node11</title>
<g id="a_Node000011"><a xlink:href="a00516.html#ga531b59d8823e3ebda2da60f48582bcf3" target="_top" xlink:title="This inline function enables PWM override on PWMH output for specific PWM generator selected by the a...">
<polygon fill="white" stroke="#666666" points="815.75,-543 685,-543 685,-523 815.75,-523 815.75,-543"/>
<text text-anchor="middle" x="750.38" y="-529.5" font-family="Helvetica,sans-Serif" font-size="10.00">PWM_OverrideHighEnable</text>
</a>
</g>
</g>
<!-- Node10&#45;&gt;Node11 -->
<g id="edge10_Node000010_Node000011" class="edge">
<title>Node10&#45;&gt;Node11</title>
<g id="a_edge10_Node000010_Node000011"><a xlink:title=" ">
<path fill="none" stroke="#63b8ff" d="M614.87,-505.48C637.41,-510.09 664.07,-515.55 687.68,-520.38"/>
<polygon fill="#63b8ff" stroke="#63b8ff" points="686.79,-523.97 697.29,-522.55 688.2,-517.12 686.79,-523.97"/>
</a>
</g>
</g>
<!-- Node12 -->
<g id="Node000012" class="node">
<title>Node12</title>
<g id="a_Node000012"><a xlink:href="a00516.html#ga2548ca8feda75ba6ab784280679da6ae" target="_top" xlink:title="This inline function enables PWM override on PWML output for specific PWM generator selected by the a...">
<polygon fill="white" stroke="#666666" points="814.62,-505 686.12,-505 686.12,-485 814.62,-485 814.62,-505"/>
<text text-anchor="middle" x="750.38" y="-491.5" font-family="Helvetica,sans-Serif" font-size="10.00">PWM_OverrideLowEnable</text>
</a>
</g>
</g>
<!-- Node10&#45;&gt;Node12 -->
<g id="edge11_Node000010_Node000012" class="edge">
<title>Node10&#45;&gt;Node12</title>
<g id="a_edge11_Node000010_Node000012"><a xlink:title=" ">
<path fill="none" stroke="#63b8ff" d="M630.95,-495C645.18,-495 660.28,-495 674.76,-495"/>
<polygon fill="#63b8ff" stroke="#63b8ff" points="674.69,-498.5 684.69,-495 674.69,-491.5 674.69,-498.5"/>
</a>
</g>
</g>
<!-- Node13 -->
<g id="Node000013" class="node">
<title>Node13</title>
<g id="a_Node000013"><a xlink:href="a00516.html#ga83e780358618114f0d424ca7467cf751" target="_top" xlink:title="This inline function requests to update the data registers for specific PWM generator selected by the...">
<polygon fill="white" stroke="#666666" points="825.5,-298 675.25,-298 675.25,-278 825.5,-278 825.5,-298"/>
<text text-anchor="middle" x="750.38" y="-284.5" font-family="Helvetica,sans-Serif" font-size="10.00">PWM_SoftwareUpdateRequest</text>
</a>
</g>
</g>
<!-- Node10&#45;&gt;Node13 -->
<g id="edge12_Node000010_Node000013" class="edge">
<title>Node10&#45;&gt;Node13</title>
<g id="a_edge12_Node000010_Node000013"><a xlink:title=" ">
<path fill="none" stroke="#63b8ff" d="M622.94,-484.54C627.02,-482.21 630.78,-479.4 634,-476 686.82,-420.26 616.38,-361.98 670,-307 670.84,-306.14 671.71,-305.31 672.61,-304.52"/>
<polygon fill="#63b8ff" stroke="#63b8ff" points="674.27,-306.93 680.42,-298.3 670.23,-301.21 674.27,-306.93"/>
</a>
</g>
</g>
<!-- Node14&#45;&gt;Node10 -->
<g id="edge14_Node000014_Node000010" class="edge">
<title>Node14&#45;&gt;Node10</title>
<g id="a_edge14_Node000014_Node000010"><a xlink:title=" ">
<path fill="none" stroke="#63b8ff" d="M455.64,-498.63C464.78,-498.32 474.21,-497.99 483.49,-497.68"/>
<polygon fill="#63b8ff" stroke="#63b8ff" points="483.42,-501.15 493.3,-497.31 483.18,-494.15 483.42,-501.15"/>
</a>
</g>
</g>
<!-- Node15 -->
<g id="Node000015" class="node">
<title>Node15</title>
<g id="a_Node000015"><a xlink:href="a00495.html#gae958b8e13bf04622c6c67ea391639f41" target="_top" xlink:title="Softly increment / decrement to the set reference target.">
<polygon fill="white" stroke="#666666" points="634,-543 491.25,-543 491.25,-523 634,-523 634,-543"/>
<text text-anchor="middle" x="562.62" y="-529.5" font-family="Helvetica,sans-Serif" font-size="10.00">Dev_PwrCtrl_RampReference</text>
</a>
</g>
</g>
<!-- Node14&#45;&gt;Node15 -->
<g id="edge15_Node000014_Node000015" class="edge">
<title>Node14&#45;&gt;Node15</title>
<g id="a_edge15_Node000014_Node000015"><a xlink:title=" ">
<path fill="none" stroke="#63b8ff" d="M443.76,-511.48C459.73,-514.39 477.22,-517.59 493.73,-520.6"/>
<polygon fill="#63b8ff" stroke="#63b8ff" points="492.95,-524.2 503.41,-522.55 494.2,-517.31 492.95,-524.2"/>
</a>
</g>
</g>
<!-- Node16&#45;&gt;Node4 -->
<g id="edge18_Node000016_Node000004" class="edge">
<title>Node16&#45;&gt;Node4</title>
<g id="a_edge18_Node000016_Node000004"><a xlink:title=" ">
<path fill="none" stroke="#63b8ff" d="M447.67,-360.69C462.36,-362.54 478.15,-364.52 493.14,-366.4"/>
<polygon fill="#63b8ff" stroke="#63b8ff" points="492.54,-369.98 502.9,-367.75 493.41,-363.03 492.54,-369.98"/>
</a>
</g>
</g>
<!-- Node16&#45;&gt;Node5 -->
<g id="edge19_Node000016_Node000005" class="edge">
<title>Node16&#45;&gt;Node5</title>
<g id="a_edge19_Node000016_Node000005"><a xlink:title=" ">
<path fill="none" stroke="#63b8ff" d="M447.67,-343.21C465.32,-340.39 484.55,-337.31 502.1,-334.51"/>
<polygon fill="#63b8ff" stroke="#63b8ff" points="502.46,-337.84 511.78,-332.8 501.35,-330.93 502.46,-337.84"/>
</a>
</g>
</g>
<!-- Node16&#45;&gt;Node6 -->
<g id="edge20_Node000016_Node000006" class="edge">
<title>Node16&#45;&gt;Node6</title>
<g id="a_edge20_Node000016_Node000006"><a xlink:title=" ">
<path fill="none" stroke="#63b8ff" d="M408.14,-363.44C422.37,-370.85 440.91,-381.65 455.25,-394 474.39,-410.49 470.04,-424.27 491.25,-438 493.57,-439.5 496.01,-440.89 498.54,-442.17"/>
<polygon fill="#63b8ff" stroke="#63b8ff" points="497.01,-445.76 507.57,-446.57 499.82,-439.35 497.01,-445.76"/>
</a>
</g>
</g>
<!-- Node16&#45;&gt;Node9 -->
<g id="edge21_Node000016_Node000009" class="edge">
<title>Node16&#45;&gt;Node9</title>
<g id="a_edge21_Node000016_Node000009"><a xlink:title=" ">
<path fill="none" stroke="#63b8ff" d="M406.87,-363.35C427.73,-373.6 461.18,-389.28 491.25,-400 496.69,-401.94 502.42,-403.79 508.18,-405.52"/>
<polygon fill="#63b8ff" stroke="#63b8ff" points="506.91,-409.09 517.49,-408.51 508.86,-402.37 506.91,-409.09"/>
</a>
</g>
</g>
<!-- Node17 -->
<g id="Node000017" class="node">
<title>Node17</title>
<g id="a_Node000017"><a xlink:href="a00500.html#ga494b4a948891fd5757ccc647f9962529" target="_top" xlink:title="API function to clear the sensor offset.">
<polygon fill="white" stroke="#666666" points="612.25,-291 513,-291 513,-259 612.25,-259 612.25,-291"/>
<text text-anchor="start" x="521" y="-277.5" font-family="Helvetica,sans-Serif" font-size="10.00">Dev_CurrentSensor</text>
<text text-anchor="middle" x="562.62" y="-265.5" font-family="Helvetica,sans-Serif" font-size="10.00">_Clr_Offset</text>
</a>
</g>
</g>
<!-- Node16&#45;&gt;Node17 -->
<g id="edge17_Node000016_Node000017" class="edge">
<title>Node16&#45;&gt;Node17</title>
<g id="a_edge17_Node000016_Node000017"><a xlink:title=" ">
<path fill="none" stroke="#63b8ff" d="M435.72,-342.57C442.5,-340.24 449.2,-337.41 455.25,-334 474.42,-323.2 472.48,-311.49 491.25,-300 494.88,-297.78 498.73,-295.72 502.7,-293.81"/>
<polygon fill="#63b8ff" stroke="#63b8ff" points="503.98,-296.63 511.7,-289.38 501.14,-290.23 503.98,-296.63"/>
</a>
</g>
</g>
<!-- Node18 -->
<g id="Node000018" class="node">
<title>Node18</title>
<g id="a_Node000018"><a xlink:href="a00491.html#gaff82d75556566202a8dd302e0a7fde8b" target="_top" xlink:title="Enable the PWM output.">
<polygon fill="white" stroke="#666666" points="629.5,-241 495.75,-241 495.75,-221 629.5,-221 629.5,-241"/>
<text text-anchor="middle" x="562.62" y="-227.5" font-family="Helvetica,sans-Serif" font-size="10.00">Dev_PwrCtrl_PWM_Enable</text>
</a>
</g>
</g>
<!-- Node16&#45;&gt;Node18 -->
<g id="edge22_Node000016_Node000018" class="edge">
<title>Node16&#45;&gt;Node18</title>
<g id="a_edge22_Node000016_Node000018"><a xlink:title=" ">
<path fill="none" stroke="#63b8ff" d="M442.07,-342.55C446.83,-340.24 451.32,-337.43 455.25,-334 485.85,-307.29 460.57,-276.62 491.25,-250 492.47,-248.94 493.75,-247.93 495.08,-246.98"/>
<polygon fill="#63b8ff" stroke="#63b8ff" points="496.54,-249.59 503.38,-241.5 492.99,-243.56 496.54,-249.59"/>
</a>
</g>
</g>
<!-- Node21 -->
<g id="Node000021" class="node">
<title>Node21</title>
<g id="a_Node000021"><a xlink:href="a00491.html#ga2da42ebbee6a24170cd69c0c798a572e" target="_top" xlink:title="PWM distribution for DAB converter.">
<polygon fill="white" stroke="#666666" points="629.88,-184 495.38,-184 495.38,-164 629.88,-164 629.88,-184"/>
<text text-anchor="middle" x="562.62" y="-170.5" font-family="Helvetica,sans-Serif" font-size="10.00">Dev_PwrCtrl_PWM_Update</text>
</a>
</g>
</g>
<!-- Node16&#45;&gt;Node21 -->
<g id="edge26_Node000016_Node000021" class="edge">
<title>Node16&#45;&gt;Node21</title>
<g id="a_edge26_Node000016_Node000021"><a xlink:title=" ">
<path fill="none" stroke="#63b8ff" d="M443.17,-342.67C447.6,-340.33 451.71,-337.48 455.25,-334 495.58,-294.38 455.64,-255.91 491.25,-212 499.02,-202.42 509.86,-194.92 520.72,-189.2"/>
<polygon fill="#63b8ff" stroke="#63b8ff" points="522.11,-191.93 529.61,-184.44 519.08,-185.62 522.11,-191.93"/>
</a>
</g>
</g>
<!-- Node27 -->
<g id="Node000027" class="node">
<title>Node27</title>
<g id="a_Node000027"><a xlink:href="a00492.html#ga89ec53d01888c9648d6e9588e5be082f" target="_top" xlink:title="Resets the power control properties.">
<polygon fill="white" stroke="#666666" points="612.25,-86 513,-86 513,-66 612.25,-66 612.25,-86"/>
<text text-anchor="middle" x="562.62" y="-72.5" font-family="Helvetica,sans-Serif" font-size="10.00">Dev_PwrCtrl_Reset</text>
</a>
</g>
</g>
<!-- Node16&#45;&gt;Node27 -->
<g id="edge33_Node000016_Node000027" class="edge">
<title>Node16&#45;&gt;Node27</title>
<g id="a_edge33_Node000016_Node000027"><a xlink:title=" ">
<path fill="none" stroke="#63b8ff" d="M444.16,-342.63C448.26,-340.29 452.04,-337.45 455.25,-334 510.57,-274.63 455,-227.6 491.25,-155 503.41,-130.65 525.07,-108.02 541.16,-93.28"/>
<polygon fill="#63b8ff" stroke="#63b8ff" points="542.84,-96.58 547.98,-87.32 538.18,-91.35 542.84,-96.58"/>
</a>
</g>
</g>
<!-- Node18&#45;&gt;Node13 -->
<g id="edge25_Node000018_Node000013" class="edge">
<title>Node18&#45;&gt;Node13</title>
<g id="a_edge25_Node000018_Node000013"><a xlink:title=" ">
<path fill="none" stroke="#63b8ff" d="M608.41,-241.49C617.02,-243.95 625.87,-246.8 634,-250 650.84,-256.62 653.07,-262.62 670,-269 675.47,-271.06 681.24,-272.95 687.07,-274.67"/>
<polygon fill="#63b8ff" stroke="#63b8ff" points="686,-278.28 696.57,-277.59 687.87,-271.54 686,-278.28"/>
</a>
</g>
</g>
<!-- Node19 -->
<g id="Node000019" class="node">
<title>Node19</title>
<g id="a_Node000019"><a xlink:href="a00516.html#ga957b002605bfb2239a26f174808b2ad8" target="_top" xlink:title="This inline function disables PWM override on PWMH output for specific PWM generator selected by the ...">
<polygon fill="white" stroke="#666666" points="816.88,-336 683.88,-336 683.88,-316 816.88,-316 816.88,-336"/>
<text text-anchor="middle" x="750.38" y="-322.5" font-family="Helvetica,sans-Serif" font-size="10.00">PWM_OverrideHighDisable</text>
</a>
</g>
</g>
<!-- Node18&#45;&gt;Node19 -->
<g id="edge23_Node000018_Node000019" class="edge">
<title>Node18&#45;&gt;Node19</title>
<g id="a_edge23_Node000018_Node000019"><a xlink:title=" ">
<path fill="none" stroke="#63b8ff" d="M618.54,-241.4C624.04,-243.72 629.32,-246.54 634,-250 658.11,-267.79 645.63,-289.56 670,-307 671.97,-308.41 674.02,-309.71 676.15,-310.92"/>
<polygon fill="#63b8ff" stroke="#63b8ff" points="674.33,-314.41 684.85,-315.63 677.38,-308.11 674.33,-314.41"/>
</a>
</g>
</g>
<!-- Node20 -->
<g id="Node000020" class="node">
<title>Node20</title>
<g id="a_Node000020"><a xlink:href="a00516.html#gabbedef830c43428e96c7d5125662a8a6" target="_top" xlink:title="This inline function disables PWM override on PWML output for specific PWM generator selected by the ...">
<polygon fill="white" stroke="#666666" points="815.75,-260 685,-260 685,-240 815.75,-240 815.75,-260"/>
<text text-anchor="middle" x="750.38" y="-246.5" font-family="Helvetica,sans-Serif" font-size="10.00">PWM_OverrideLowDisable</text>
</a>
</g>
</g>
<!-- Node18&#45;&gt;Node20 -->
<g id="edge24_Node000018_Node000020" class="edge">
<title>Node18&#45;&gt;Node20</title>
<g id="a_edge24_Node000018_Node000020"><a xlink:title=" ">
<path fill="none" stroke="#63b8ff" d="M629.9,-237.78C644.23,-239.25 659.5,-240.81 674.15,-242.31"/>
<polygon fill="#63b8ff" stroke="#63b8ff" points="673.38,-245.85 683.69,-243.38 674.09,-238.88 673.38,-245.85"/>
</a>
</g>
</g>
<!-- Node21&#45;&gt;Node13 -->
<g id="edge31_Node000021_Node000013" class="edge">
<title>Node21&#45;&gt;Node13</title>
<g id="a_edge31_Node000021_Node000013"><a xlink:title=" ">
<path fill="none" stroke="#63b8ff" d="M590.08,-184.36C604.24,-190.82 621.32,-200.15 634,-212 655.9,-232.45 645.63,-251.56 670,-269 671.97,-270.41 674.02,-271.71 676.15,-272.92"/>
<polygon fill="#63b8ff" stroke="#63b8ff" points="674.33,-276.41 684.85,-277.63 677.38,-270.11 674.33,-276.41"/>
</a>
</g>
</g>
<!-- Node22 -->
<g id="Node000022" class="node">
<title>Node22</title>
<g id="a_Node000022"><a xlink:href="a00516.html#gaf368256a569a5a9e12f85f84d7d42287" target="_top" xlink:title="This inline function updates PWM Deadtime high register with the requested value for a specific PWM g...">
<polygon fill="white" stroke="#666666" points="812.38,-146 688.38,-146 688.38,-126 812.38,-126 812.38,-146"/>
<text text-anchor="middle" x="750.38" y="-132.5" font-family="Helvetica,sans-Serif" font-size="10.00">PWM_DeadTimeHighSet</text>
</a>
</g>
</g>
<!-- Node21&#45;&gt;Node22 -->
<g id="edge27_Node000021_Node000022" class="edge">
<title>Node21&#45;&gt;Node22</title>
<g id="a_edge27_Node000021_Node000022"><a xlink:title=" ">
<path fill="none" stroke="#63b8ff" d="M614.87,-163.52C637.41,-158.91 664.07,-153.45 687.68,-148.62"/>
<polygon fill="#63b8ff" stroke="#63b8ff" points="688.2,-151.88 697.29,-146.45 686.79,-145.03 688.2,-151.88"/>
</a>
</g>
</g>
<!-- Node23 -->
<g id="Node000023" class="node">
<title>Node23</title>
<g id="a_Node000023"><a xlink:href="a00516.html#ga124426b28426beb53948e9b57319ab4b" target="_top" xlink:title="This inline function updates PWM Deadtime low register with the requested value for a specific PWM ge...">
<polygon fill="white" stroke="#666666" points="811.25,-70 689.5,-70 689.5,-50 811.25,-50 811.25,-70"/>
<text text-anchor="middle" x="750.38" y="-56.5" font-family="Helvetica,sans-Serif" font-size="10.00">PWM_DeadTimeLowSet</text>
</a>
</g>
</g>
<!-- Node21&#45;&gt;Node23 -->
<g id="edge28_Node000021_Node000023" class="edge">
<title>Node21&#45;&gt;Node23</title>
<g id="a_edge28_Node000021_Node000023"><a xlink:title=" ">
<path fill="none" stroke="#63b8ff" d="M572.09,-163.6C588.7,-143.9 627.66,-101.15 670,-79 673.47,-77.19 677.11,-75.54 680.85,-74.05"/>
<polygon fill="#63b8ff" stroke="#63b8ff" points="681.69,-77.11 689.93,-70.46 679.34,-70.52 681.69,-77.11"/>
</a>
</g>
</g>
<!-- Node24 -->
<g id="Node000024" class="node">
<title>Node24</title>
<g id="a_Node000024"><a xlink:href="a00516.html#ga37968a783e44cd80643478d2b559dbf4" target="_top" xlink:title="This inline function sets the PWM generator specific duty cycle register.">
<polygon fill="white" stroke="#666666" points="803.38,-222 697.38,-222 697.38,-202 803.38,-202 803.38,-222"/>
<text text-anchor="middle" x="750.38" y="-208.5" font-family="Helvetica,sans-Serif" font-size="10.00">PWM_DutyCycleSet</text>
</a>
</g>
</g>
<!-- Node21&#45;&gt;Node24 -->
<g id="edge29_Node000021_Node000024" class="edge">
<title>Node21&#45;&gt;Node24</title>
<g id="a_edge29_Node000021_Node000024"><a xlink:title=" ">
<path fill="none" stroke="#63b8ff" d="M614.87,-184.48C637.41,-189.09 664.07,-194.55 687.68,-199.38"/>
<polygon fill="#63b8ff" stroke="#63b8ff" points="686.79,-202.97 697.29,-201.55 688.2,-196.12 686.79,-202.97"/>
</a>
</g>
</g>
<!-- Node25 -->
<g id="Node000025" class="node">
<title>Node25</title>
<g id="a_Node000025"><a xlink:href="a00516.html#gada46160823b0892a1af14a17c5ab516e" target="_top" xlink:title="This inline function sets the period value in count for the PWM generator specific Time Base.">
<polygon fill="white" stroke="#666666" points="794.75,-108 706,-108 706,-88 794.75,-88 794.75,-108"/>
<text text-anchor="middle" x="750.38" y="-94.5" font-family="Helvetica,sans-Serif" font-size="10.00">PWM_PeriodSet</text>
</a>
</g>
</g>
<!-- Node21&#45;&gt;Node25 -->
<g id="edge30_Node000021_Node000025" class="edge">
<title>Node21&#45;&gt;Node25</title>
<g id="a_edge30_Node000021_Node000025"><a xlink:title=" ">
<path fill="none" stroke="#63b8ff" d="M579.94,-163.53C600.3,-150.89 636.51,-129.74 670,-117 677.92,-113.99 686.46,-111.35 694.91,-109.07"/>
<polygon fill="#63b8ff" stroke="#63b8ff" points="695.68,-112.23 704.51,-106.38 693.96,-105.45 695.68,-112.23"/>
</a>
</g>
</g>
<!-- Node26 -->
<g id="Node000026" class="node">
<title>Node26</title>
<g id="a_Node000026"><a xlink:href="a00516.html#gacc5575148a6e8da6577d9be9e20541ce" target="_top" xlink:title="This inline function sets the Trigger C compare value in count for a specific PWM generator selected ...">
<polygon fill="white" stroke="#666666" points="830.75,-184 670,-184 670,-164 830.75,-164 830.75,-184"/>
<text text-anchor="middle" x="750.38" y="-170.5" font-family="Helvetica,sans-Serif" font-size="10.00">PWM_TriggerCCompareValueSet</text>
</a>
</g>
</g>
<!-- Node21&#45;&gt;Node26 -->
<g id="edge32_Node000021_Node000026" class="edge">
<title>Node21&#45;&gt;Node26</title>
<g id="a_edge32_Node000021_Node000026"><a xlink:title=" ">
<path fill="none" stroke="#63b8ff" d="M630.16,-174C639.46,-174 649.15,-174 658.81,-174"/>
<polygon fill="#63b8ff" stroke="#63b8ff" points="658.67,-177.5 668.67,-174 658.67,-170.5 658.67,-177.5"/>
</a>
</g>
</g>
<!-- Node28 -->
<g id="Node000028" class="node">
<title>Node28</title>
<g id="a_Node000028"><a xlink:href="a00493.html#ga9b1748de6edbef1aebeb340c642d6beb" target="_top" xlink:title="Clear the control and error histories of the control loops.">
<polygon fill="white" stroke="#666666" points="815.38,-32 685.38,-32 685.38,0 815.38,0 815.38,-32"/>
<text text-anchor="start" x="693.38" y="-18.5" font-family="Helvetica,sans-Serif" font-size="10.00">Dev_PwrCtrl_ResetControl</text>
<text text-anchor="middle" x="750.38" y="-6.5" font-family="Helvetica,sans-Serif" font-size="10.00">LoopHistories</text>
</a>
</g>
</g>
<!-- Node27&#45;&gt;Node28 -->
<g id="edge34_Node000027_Node000028" class="edge">
<title>Node27&#45;&gt;Node28</title>
<g id="a_edge34_Node000027_Node000028"><a xlink:title=" ">
<path fill="none" stroke="#63b8ff" d="M594.78,-65.63C615.96,-58.61 644.65,-49.16 670,-41 675.42,-39.26 681.04,-37.46 686.69,-35.66"/>
<polygon fill="#63b8ff" stroke="#63b8ff" points="687.35,-38.81 695.83,-32.45 685.24,-32.13 687.35,-38.81"/>
</a>
</g>
</g>
<!-- Node29&#45;&gt;Node10 -->
<g id="edge36_Node000029_Node000010" class="edge">
<title>Node29&#45;&gt;Node10</title>
<g id="a_edge36_Node000029_Node000010"><a xlink:title=" ">
<path fill="none" stroke="#63b8ff" d="M450.14,-470.83C467.4,-474.57 486,-478.6 502.97,-482.28"/>
<polygon fill="#63b8ff" stroke="#63b8ff" points="501.78,-485.82 512.3,-484.52 503.27,-478.98 501.78,-485.82"/>
</a>
</g>
</g>
</g>
</svg>
