<?xml version="1.0" encoding="UTF-8" standalone="no"?>
<!DOCTYPE svg PUBLIC "-//W3C//DTD SVG 1.1//EN"
 "http://www.w3.org/Graphics/SVG/1.1/DTD/svg11.dtd">
<!-- Generated by graphviz version 8.1.0 (20230707.0739)
 -->
<!-- Title: PCS_STANDBY_handler Pages: 1 -->
<!--zoomable 532 -->

<svg id="main" version="1.1" xmlns="http://www.w3.org/2000/svg" xmlns:xlink="http://www.w3.org/1999/xlink" xml:space="preserve" onload="init(evt)">
<style type="text/css"><![CDATA[
.node, .edge {opacity: 0.7;}
.node.selected, .edge.selected {opacity: 1;}
.edge:hover path { stroke: red; }
.edge:hover polygon { stroke: red; fill: red; }
]]></style>

<defs>
  <circle id="rim" cx="0" cy="0" r="7"/>
  <circle id="rim2" cx="0" cy="0" r="3.5"/>
  <g id="zoomPlus">
    <use xlink:href="#rim" fill="#404040"><set attributeName="fill" to="#808080" begin="zoomplus.mouseover" end="zoomplus.mouseout"/></use>
    <path d="M-4,0h8M0,-4v8" fill="none" stroke="white" stroke-width="1.5" pointer-events="none"/>
  </g>
  <g id="zoomMin">
    <use xlink:href="#rim" fill="#404040"><set attributeName="fill" to="#808080" begin="zoomminus.mouseover" end="zoomminus.mouseout"/></use>
    <path d="M-4,0h8" fill="none" stroke="white" stroke-width="1.5" pointer-events="none"/>
  </g>
  <g id="arrowUp" transform="translate(30 24)">
    <use xlink:href="#rim"/>
    <path pointer-events="none" fill="none" stroke="white" stroke-width="1.5" d="M0,-3.0v7 M-2.5,-0.5L0,-3.0L2.5,-0.5"/>
  </g>
  <g id="arrowRight" transform="rotate(90) translate(36 -43)">
    <use xlink:href="#rim"/>
    <path pointer-events="none" fill="none" stroke="white" stroke-width="1.5" d="M0,-3.0v7 M-2.5,-0.5L0,-3.0L2.5,-0.5"/>
  </g>
  <g id="arrowDown" transform="rotate(180) translate(-30 -48)">
    <use xlink:href="#rim"/>
    <path pointer-events="none" fill="none" stroke="white" stroke-width="1.5" d="M0,-3.0v7 M-2.5,-0.5L0,-3.0L2.5,-0.5"/>
  </g>
  <g id="arrowLeft" transform="rotate(270) translate(-36 17)">
    <use xlink:href="#rim"/>
    <path pointer-events="none" fill="none" stroke="white" stroke-width="1.5" d="M0,-3.0v7 M-2.5,-0.5L0,-3.0L2.5,-0.5"/>
  </g>
  <g id="resetDef">
    <use xlink:href="#rim2" fill="#404040"><set attributeName="fill" to="#808080" begin="reset.mouseover" end="reset.mouseout"/></use>
  </g>
</defs>
<script type="application/ecmascript">
var viewWidth = 504;
var viewHeight = 532;
var sectionId = 'dynsection-9';
</script>
<script type="application/ecmascript" xlink:href="svg.min.js"/>
<svg id="graph" class="graph">
<g id="viewport">
<title>PCS_STANDBY_handler</title>
<!-- Node1 -->
<g id="Node000001" class="node">
<title>Node1</title>
<g id="a_Node000001"><a xlink:title="Executes Standby State machine.">
<polygon fill="#999999" stroke="#666666" points="124,-355 0,-355 0,-335 124,-335 124,-355"/>
<text text-anchor="middle" x="62" y="-341.5" font-family="Helvetica,sans-Serif" font-size="10.00">PCS_STANDBY_handler</text>
</a>
</g>
</g>
<!-- Node2 -->
<g id="Node000002" class="node">
<title>Node2</title>
<g id="a_Node000002"><a xlink:href="a00500.html#ga494b4a948891fd5757ccc647f9962529" target="_top" xlink:title="API function to clear the sensor offset.">
<polygon fill="white" stroke="#666666" points="279.12,-524 179.88,-524 179.88,-492 279.12,-492 279.12,-524"/>
<text text-anchor="start" x="187.88" y="-510.5" font-family="Helvetica,sans-Serif" font-size="10.00">Dev_CurrentSensor</text>
<text text-anchor="middle" x="229.5" y="-498.5" font-family="Helvetica,sans-Serif" font-size="10.00">_Clr_Offset</text>
</a>
</g>
</g>
<!-- Node1&#45;&gt;Node2 -->
<g id="edge1_Node000001_Node000002" class="edge">
<title>Node1&#45;&gt;Node2</title>
<g id="a_edge1_Node000001_Node000002"><a xlink:title=" ">
<path fill="none" stroke="#63b8ff" d="M67.51,-355.27C79.14,-380.6 112.59,-446.65 160,-483 163,-485.3 166.24,-487.41 169.62,-489.33"/>
<polygon fill="#63b8ff" stroke="#63b8ff" points="167.91,-492.9 178.41,-494.29 171.07,-486.65 167.91,-492.9"/>
</a>
</g>
</g>
<!-- Node3 -->
<g id="Node000003" class="node">
<title>Node3</title>
<g id="a_Node000003"><a xlink:href="a00500.html#ga218632f9814c3bf20c40cea0794ffc7d" target="_top" xlink:title="API function to get the calibration status.">
<polygon fill="white" stroke="#666666" points="287.75,-474 171.25,-474 171.25,-442 287.75,-442 287.75,-474"/>
<text text-anchor="start" x="179.25" y="-460.5" font-family="Helvetica,sans-Serif" font-size="10.00">Dev_CurrentSensor</text>
<text text-anchor="middle" x="229.5" y="-448.5" font-family="Helvetica,sans-Serif" font-size="10.00">_Get_CalibrationStatus</text>
</a>
</g>
</g>
<!-- Node1&#45;&gt;Node3 -->
<g id="edge2_Node000001_Node000003" class="edge">
<title>Node1&#45;&gt;Node3</title>
<g id="a_edge2_Node000001_Node000003"><a xlink:title=" ">
<path fill="none" stroke="#63b8ff" d="M71.9,-355.36C87.87,-373.4 123.22,-410.78 160,-433 162.19,-434.33 164.47,-435.6 166.8,-436.82"/>
<polygon fill="#63b8ff" stroke="#63b8ff" points="165.09,-440.36 175.62,-441.53 168.12,-434.05 165.09,-440.36"/>
</a>
</g>
</g>
<!-- Node4 -->
<g id="Node000004" class="node">
<title>Node4</title>
<g id="a_Node000004"><a xlink:href="a00500.html#ga9f581abf52dc00ba320faafa189fafb9" target="_top" xlink:title="API function to get the sensor offset.">
<polygon fill="white" stroke="#666666" points="279.12,-424 179.88,-424 179.88,-392 279.12,-392 279.12,-424"/>
<text text-anchor="start" x="187.88" y="-410.5" font-family="Helvetica,sans-Serif" font-size="10.00">Dev_CurrentSensor</text>
<text text-anchor="middle" x="229.5" y="-398.5" font-family="Helvetica,sans-Serif" font-size="10.00">_Get_Offset</text>
</a>
</g>
</g>
<!-- Node1&#45;&gt;Node4 -->
<g id="edge3_Node000001_Node000004" class="edge">
<title>Node1&#45;&gt;Node4</title>
<g id="a_edge3_Node000001_Node000004"><a xlink:title=" ">
<path fill="none" stroke="#63b8ff" d="M89.28,-355.49C108.76,-363.21 135.98,-373.91 160,-383 164.2,-384.59 168.54,-386.21 172.92,-387.84"/>
<polygon fill="#63b8ff" stroke="#63b8ff" points="171.53,-391.43 182.12,-391.61 173.96,-384.86 171.53,-391.43"/>
</a>
</g>
</g>
<!-- Node5 -->
<g id="Node000005" class="node">
<title>Node5</title>
<g id="a_Node000005"><a xlink:href="a00500.html#gaaa75855922e60913d443c6203475256f" target="_top" xlink:title="Measures the currents sensor offset.">
<polygon fill="white" stroke="#666666" points="299,-374 160,-374 160,-354 299,-354 299,-374"/>
<text text-anchor="middle" x="229.5" y="-360.5" font-family="Helvetica,sans-Serif" font-size="10.00">Dev_CurrentSensorOffsetCal</text>
</a>
</g>
</g>
<!-- Node1&#45;&gt;Node5 -->
<g id="edge4_Node000001_Node000005" class="edge">
<title>Node1&#45;&gt;Node5</title>
<g id="a_edge4_Node000001_Node000005"><a xlink:title=" ">
<path fill="none" stroke="#63b8ff" d="M124.16,-352.02C132.16,-352.94 140.45,-353.89 148.71,-354.84"/>
<polygon fill="#63b8ff" stroke="#63b8ff" points="148.17,-358.42 158.5,-356.08 148.97,-351.46 148.17,-358.42"/>
</a>
</g>
</g>
<!-- Node8 -->
<g id="Node000008" class="node">
<title>Node8</title>
<g id="a_Node000008"><a xlink:href="a00498.html#ga81e895976c1ee1cb678be1d5b5c3505b" target="_top" xlink:title="Clears the fault object flag bits.">
<polygon fill="white" stroke="#666666" points="274.25,-336 184.75,-336 184.75,-316 274.25,-316 274.25,-336"/>
<text text-anchor="middle" x="229.5" y="-322.5" font-family="Helvetica,sans-Serif" font-size="10.00">Dev_Fault_Reset</text>
</a>
</g>
</g>
<!-- Node1&#45;&gt;Node8 -->
<g id="edge7_Node000001_Node000008" class="edge">
<title>Node1&#45;&gt;Node8</title>
<g id="a_edge7_Node000001_Node000008"><a xlink:title=" ">
<path fill="none" stroke="#63b8ff" d="M124.16,-337.98C140.39,-336.12 157.82,-334.11 173.69,-332.29"/>
<polygon fill="#63b8ff" stroke="#63b8ff" points="173.86,-335.68 183.4,-331.06 173.06,-328.73 173.86,-335.68"/>
</a>
</g>
</g>
<!-- Node9 -->
<g id="Node000009" class="node">
<title>Node9</title>
<g id="a_Node000009"><a xlink:href="a00491.html#gaff82d75556566202a8dd302e0a7fde8b" target="_top" xlink:title="Enable the PWM output.">
<polygon fill="white" stroke="#666666" points="296.38,-298 162.62,-298 162.62,-278 296.38,-278 296.38,-298"/>
<text text-anchor="middle" x="229.5" y="-284.5" font-family="Helvetica,sans-Serif" font-size="10.00">Dev_PwrCtrl_PWM_Enable</text>
</a>
</g>
</g>
<!-- Node1&#45;&gt;Node9 -->
<g id="edge8_Node000001_Node000009" class="edge">
<title>Node1&#45;&gt;Node9</title>
<g id="a_edge8_Node000001_Node000009"><a xlink:title=" ">
<path fill="none" stroke="#63b8ff" d="M87.46,-334.61C106.92,-326.54 134.95,-315.36 160,-307 165.77,-305.07 171.87,-303.18 177.94,-301.39"/>
<polygon fill="#63b8ff" stroke="#63b8ff" points="178.44,-304.6 187.09,-298.47 176.51,-297.87 178.44,-304.6"/>
</a>
</g>
</g>
<!-- Node13 -->
<g id="Node000013" class="node">
<title>Node13</title>
<g id="a_Node000013"><a xlink:href="a00491.html#ga2da42ebbee6a24170cd69c0c798a572e" target="_top" xlink:title="PWM distribution for DAB converter.">
<polygon fill="white" stroke="#666666" points="296.75,-184 162.25,-184 162.25,-164 296.75,-164 296.75,-184"/>
<text text-anchor="middle" x="229.5" y="-170.5" font-family="Helvetica,sans-Serif" font-size="10.00">Dev_PwrCtrl_PWM_Update</text>
</a>
</g>
</g>
<!-- Node1&#45;&gt;Node13 -->
<g id="edge12_Node000001_Node000013" class="edge">
<title>Node1&#45;&gt;Node13</title>
<g id="a_edge12_Node000001_Node000013"><a xlink:title=" ">
<path fill="none" stroke="#63b8ff" d="M73.1,-334.56C100.52,-306.23 176.58,-227.65 211.08,-192"/>
<polygon fill="#63b8ff" stroke="#63b8ff" points="213.09,-194.92 217.53,-185.3 208.06,-190.05 213.09,-194.92"/>
</a>
</g>
</g>
<!-- Node19 -->
<g id="Node000019" class="node">
<title>Node19</title>
<g id="a_Node000019"><a xlink:href="a00492.html#ga89ec53d01888c9648d6e9588e5be082f" target="_top" xlink:title="Resets the power control properties.">
<polygon fill="white" stroke="#666666" points="279.12,-86 179.88,-86 179.88,-66 279.12,-66 279.12,-86"/>
<text text-anchor="middle" x="229.5" y="-72.5" font-family="Helvetica,sans-Serif" font-size="10.00">Dev_PwrCtrl_Reset</text>
</a>
</g>
</g>
<!-- Node1&#45;&gt;Node19 -->
<g id="edge19_Node000001_Node000019" class="edge">
<title>Node1&#45;&gt;Node19</title>
<g id="a_edge19_Node000001_Node000019"><a xlink:title=" ">
<path fill="none" stroke="#63b8ff" d="M67.23,-334.63C79.46,-305.21 116.73,-219.18 160,-155 175.24,-132.39 196.18,-109.12 210.88,-93.75"/>
<polygon fill="#63b8ff" stroke="#63b8ff" points="212.87,-96.68 217.33,-87.07 207.85,-91.81 212.87,-96.68"/>
</a>
</g>
</g>
<!-- Node6 -->
<g id="Node000006" class="node">
<title>Node6</title>
<g id="a_Node000006"><a xlink:href="a00510.html#gaf4b6f81a05012533b633a78dad7b6a98" target="_top" xlink:title="Returns the conversion value for the channel selected.">
<polygon fill="white" stroke="#666666" points="484.12,-412 346.62,-412 346.62,-392 484.12,-392 484.12,-412"/>
<text text-anchor="middle" x="415.38" y="-398.5" font-family="Helvetica,sans-Serif" font-size="10.00">ADC1_ConversionResultGet</text>
</a>
</g>
</g>
<!-- Node5&#45;&gt;Node6 -->
<g id="edge5_Node000005_Node000006" class="edge">
<title>Node5&#45;&gt;Node6</title>
<g id="a_edge5_Node000005_Node000006"><a xlink:title=" ">
<path fill="none" stroke="#63b8ff" d="M281.23,-374.48C303.54,-379.09 329.93,-384.55 353.31,-389.38"/>
<polygon fill="#63b8ff" stroke="#63b8ff" points="352.31,-392.95 362.81,-391.55 353.72,-386.1 352.31,-392.95"/>
</a>
</g>
</g>
<!-- Node7 -->
<g id="Node000007" class="node">
<title>Node7</title>
<g id="a_Node000007"><a xlink:href="a00500.html#ga03e8d61bbc0f4b686c400440f80dcf69" target="_top" xlink:title="Measure the sensor offset.">
<polygon fill="white" stroke="#666666" points="469.12,-374 361.62,-374 361.62,-354 469.12,-354 469.12,-374"/>
<text text-anchor="middle" x="415.38" y="-360.5" font-family="Helvetica,sans-Serif" font-size="10.00">Dev_SensorOffsetCal</text>
</a>
</g>
</g>
<!-- Node5&#45;&gt;Node7 -->
<g id="edge6_Node000005_Node000007" class="edge">
<title>Node5&#45;&gt;Node7</title>
<g id="a_edge6_Node000005_Node000007"><a xlink:title=" ">
<path fill="none" stroke="#63b8ff" d="M299.49,-364C316.29,-364 334.19,-364 350.73,-364"/>
<polygon fill="#63b8ff" stroke="#63b8ff" points="350.38,-367.5 360.38,-364 350.38,-360.5 350.38,-367.5"/>
</a>
</g>
</g>
<!-- Node10 -->
<g id="Node000010" class="node">
<title>Node10</title>
<g id="a_Node000010"><a xlink:href="a00516.html#ga957b002605bfb2239a26f174808b2ad8" target="_top" xlink:title="This inline function disables PWM override on PWMH output for specific PWM generator selected by the ...">
<polygon fill="white" stroke="#666666" points="481.88,-336 348.88,-336 348.88,-316 481.88,-316 481.88,-336"/>
<text text-anchor="middle" x="415.38" y="-322.5" font-family="Helvetica,sans-Serif" font-size="10.00">PWM_OverrideHighDisable</text>
</a>
</g>
</g>
<!-- Node9&#45;&gt;Node10 -->
<g id="edge9_Node000009_Node000010" class="edge">
<title>Node9&#45;&gt;Node10</title>
<g id="a_edge9_Node000009_Node000010"><a xlink:title=" ">
<path fill="none" stroke="#63b8ff" d="M281.23,-298.48C303.54,-303.09 329.93,-308.55 353.31,-313.38"/>
<polygon fill="#63b8ff" stroke="#63b8ff" points="352.31,-316.95 362.81,-315.55 353.72,-310.1 352.31,-316.95"/>
</a>
</g>
</g>
<!-- Node11 -->
<g id="Node000011" class="node">
<title>Node11</title>
<g id="a_Node000011"><a xlink:href="a00516.html#gabbedef830c43428e96c7d5125662a8a6" target="_top" xlink:title="This inline function disables PWM override on PWML output for specific PWM generator selected by the ...">
<polygon fill="white" stroke="#666666" points="480.75,-298 350,-298 350,-278 480.75,-278 480.75,-298"/>
<text text-anchor="middle" x="415.38" y="-284.5" font-family="Helvetica,sans-Serif" font-size="10.00">PWM_OverrideLowDisable</text>
</a>
</g>
</g>
<!-- Node9&#45;&gt;Node11 -->
<g id="edge10_Node000009_Node000011" class="edge">
<title>Node9&#45;&gt;Node11</title>
<g id="a_edge10_Node000009_Node000011"><a xlink:title=" ">
<path fill="none" stroke="#63b8ff" d="M296.62,-288C310.41,-288 325.03,-288 339.12,-288"/>
<polygon fill="#63b8ff" stroke="#63b8ff" points="338.76,-291.5 348.76,-288 338.76,-284.5 338.76,-291.5"/>
</a>
</g>
</g>
<!-- Node12 -->
<g id="Node000012" class="node">
<title>Node12</title>
<g id="a_Node000012"><a xlink:href="a00516.html#ga83e780358618114f0d424ca7467cf751" target="_top" xlink:title="This inline function requests to update the data registers for specific PWM generator selected by the...">
<polygon fill="white" stroke="#666666" points="490.5,-260 340.25,-260 340.25,-240 490.5,-240 490.5,-260"/>
<text text-anchor="middle" x="415.38" y="-246.5" font-family="Helvetica,sans-Serif" font-size="10.00">PWM_SoftwareUpdateRequest</text>
</a>
</g>
</g>
<!-- Node9&#45;&gt;Node12 -->
<g id="edge11_Node000009_Node000012" class="edge">
<title>Node9&#45;&gt;Node12</title>
<g id="a_edge11_Node000009_Node000012"><a xlink:title=" ">
<path fill="none" stroke="#63b8ff" d="M281.23,-277.52C303.54,-272.91 329.93,-267.45 353.31,-262.62"/>
<polygon fill="#63b8ff" stroke="#63b8ff" points="353.72,-265.9 362.81,-260.45 352.31,-259.05 353.72,-265.9"/>
</a>
</g>
</g>
<!-- Node13&#45;&gt;Node12 -->
<g id="edge17_Node000013_Node000012" class="edge">
<title>Node13&#45;&gt;Node12</title>
<g id="a_edge17_Node000013_Node000012"><a xlink:title=" ">
<path fill="none" stroke="#63b8ff" d="M246.5,-184.48C266.47,-197.14 302.02,-218.32 335,-231 340.37,-233.07 346.04,-234.96 351.77,-236.67"/>
<polygon fill="#63b8ff" stroke="#63b8ff" points="350.53,-240.24 361.11,-239.57 352.43,-233.5 350.53,-240.24"/>
</a>
</g>
</g>
<!-- Node14 -->
<g id="Node000014" class="node">
<title>Node14</title>
<g id="a_Node000014"><a xlink:href="a00516.html#gaf368256a569a5a9e12f85f84d7d42287" target="_top" xlink:title="This inline function updates PWM Deadtime high register with the requested value for a specific PWM g...">
<polygon fill="white" stroke="#666666" points="477.38,-222 353.38,-222 353.38,-202 477.38,-202 477.38,-222"/>
<text text-anchor="middle" x="415.38" y="-208.5" font-family="Helvetica,sans-Serif" font-size="10.00">PWM_DeadTimeHighSet</text>
</a>
</g>
</g>
<!-- Node13&#45;&gt;Node14 -->
<g id="edge13_Node000013_Node000014" class="edge">
<title>Node13&#45;&gt;Node14</title>
<g id="a_edge13_Node000013_Node000014"><a xlink:title=" ">
<path fill="none" stroke="#63b8ff" d="M281.23,-184.48C303.54,-189.09 329.93,-194.55 353.31,-199.38"/>
<polygon fill="#63b8ff" stroke="#63b8ff" points="352.31,-202.95 362.81,-201.55 353.72,-196.1 352.31,-202.95"/>
</a>
</g>
</g>
<!-- Node15 -->
<g id="Node000015" class="node">
<title>Node15</title>
<g id="a_Node000015"><a xlink:href="a00516.html#ga124426b28426beb53948e9b57319ab4b" target="_top" xlink:title="This inline function updates PWM Deadtime low register with the requested value for a specific PWM ge...">
<polygon fill="white" stroke="#666666" points="476.25,-184 354.5,-184 354.5,-164 476.25,-164 476.25,-184"/>
<text text-anchor="middle" x="415.38" y="-170.5" font-family="Helvetica,sans-Serif" font-size="10.00">PWM_DeadTimeLowSet</text>
</a>
</g>
</g>
<!-- Node13&#45;&gt;Node15 -->
<g id="edge14_Node000013_Node000015" class="edge">
<title>Node13&#45;&gt;Node15</title>
<g id="a_edge14_Node000013_Node000015"><a xlink:title=" ">
<path fill="none" stroke="#63b8ff" d="M297.14,-174C312.11,-174 328.05,-174 343.2,-174"/>
<polygon fill="#63b8ff" stroke="#63b8ff" points="343.06,-177.5 353.06,-174 343.06,-170.5 343.06,-177.5"/>
</a>
</g>
</g>
<!-- Node16 -->
<g id="Node000016" class="node">
<title>Node16</title>
<g id="a_Node000016"><a xlink:href="a00516.html#ga37968a783e44cd80643478d2b559dbf4" target="_top" xlink:title="This inline function sets the PWM generator specific duty cycle register.">
<polygon fill="white" stroke="#666666" points="468.38,-146 362.38,-146 362.38,-126 468.38,-126 468.38,-146"/>
<text text-anchor="middle" x="415.38" y="-132.5" font-family="Helvetica,sans-Serif" font-size="10.00">PWM_DutyCycleSet</text>
</a>
</g>
</g>
<!-- Node13&#45;&gt;Node16 -->
<g id="edge15_Node000013_Node000016" class="edge">
<title>Node13&#45;&gt;Node16</title>
<g id="a_edge15_Node000013_Node000016"><a xlink:title=" ">
<path fill="none" stroke="#63b8ff" d="M281.23,-163.52C303.54,-158.91 329.93,-153.45 353.31,-148.62"/>
<polygon fill="#63b8ff" stroke="#63b8ff" points="353.72,-151.9 362.81,-146.45 352.31,-145.05 353.72,-151.9"/>
</a>
</g>
</g>
<!-- Node17 -->
<g id="Node000017" class="node">
<title>Node17</title>
<g id="a_Node000017"><a xlink:href="a00516.html#gada46160823b0892a1af14a17c5ab516e" target="_top" xlink:title="This inline function sets the period value in count for the PWM generator specific Time Base.">
<polygon fill="white" stroke="#666666" points="459.75,-108 371,-108 371,-88 459.75,-88 459.75,-108"/>
<text text-anchor="middle" x="415.38" y="-94.5" font-family="Helvetica,sans-Serif" font-size="10.00">PWM_PeriodSet</text>
</a>
</g>
</g>
<!-- Node13&#45;&gt;Node17 -->
<g id="edge16_Node000013_Node000017" class="edge">
<title>Node13&#45;&gt;Node17</title>
<g id="a_edge16_Node000013_Node000017"><a xlink:title=" ">
<path fill="none" stroke="#63b8ff" d="M246.5,-163.52C266.47,-150.86 302.02,-129.68 335,-117 343.09,-113.89 351.84,-111.18 360.47,-108.86"/>
<polygon fill="#63b8ff" stroke="#63b8ff" points="361.07,-112.07 369.9,-106.22 359.35,-105.28 361.07,-112.07"/>
</a>
</g>
</g>
<!-- Node18 -->
<g id="Node000018" class="node">
<title>Node18</title>
<g id="a_Node000018"><a xlink:href="a00516.html#gacc5575148a6e8da6577d9be9e20541ce" target="_top" xlink:title="This inline function sets the Trigger C compare value in count for a specific PWM generator selected ...">
<polygon fill="white" stroke="#666666" points="495.75,-70 335,-70 335,-50 495.75,-50 495.75,-70"/>
<text text-anchor="middle" x="415.38" y="-56.5" font-family="Helvetica,sans-Serif" font-size="10.00">PWM_TriggerCCompareValueSet</text>
</a>
</g>
</g>
<!-- Node13&#45;&gt;Node18 -->
<g id="edge18_Node000013_Node000018" class="edge">
<title>Node13&#45;&gt;Node18</title>
<g id="a_edge18_Node000013_Node000018"><a xlink:title=" ">
<path fill="none" stroke="#63b8ff" d="M238.77,-163.59C255.02,-143.88 293.17,-101.12 335,-79 338.46,-77.17 342.1,-75.51 345.84,-74.02"/>
<polygon fill="#63b8ff" stroke="#63b8ff" points="346.67,-77.08 354.9,-70.41 344.31,-70.49 346.67,-77.08"/>
</a>
</g>
</g>
<!-- Node20 -->
<g id="Node000020" class="node">
<title>Node20</title>
<g id="a_Node000020"><a xlink:href="a00493.html#ga9b1748de6edbef1aebeb340c642d6beb" target="_top" xlink:title="Clear the control and error histories of the control loops.">
<polygon fill="white" stroke="#666666" points="480.38,-32 350.38,-32 350.38,0 480.38,0 480.38,-32"/>
<text text-anchor="start" x="358.38" y="-18.5" font-family="Helvetica,sans-Serif" font-size="10.00">Dev_PwrCtrl_ResetControl</text>
<text text-anchor="middle" x="415.38" y="-6.5" font-family="Helvetica,sans-Serif" font-size="10.00">LoopHistories</text>
</a>
</g>
</g>
<!-- Node19&#45;&gt;Node20 -->
<g id="edge20_Node000019_Node000020" class="edge">
<title>Node19&#45;&gt;Node20</title>
<g id="a_edge20_Node000019_Node000020"><a xlink:title=" ">
<path fill="none" stroke="#63b8ff" d="M261.09,-65.59C281.9,-58.55 310.07,-49.1 335,-41 340.41,-39.24 346.03,-37.43 351.68,-35.63"/>
<polygon fill="#63b8ff" stroke="#63b8ff" points="352.35,-38.77 360.82,-32.41 350.23,-32.1 352.35,-38.77"/>
</a>
</g>
</g>
</g>
</svg>

<g id="navigator" transform="translate(0 0)" fill="#404254">
  <rect fill="#f2f5e9" fill-opacity="0.5" stroke="#606060" stroke-width=".5" x="0" y="0" width="60" height="60"/>
  <use id="zoomplus" xlink:href="#zoomPlus" x="17" y="9" onmousedown="handleZoom(evt,'in')"/>
  <use id="zoomminus" xlink:href="#zoomMin" x="42" y="9" onmousedown="handleZoom(evt,'out')"/>
  <use id="reset" xlink:href="#resetDef" x="30" y="36" onmousedown="handleReset()"/>
   <use id="arrowup" xlink:href="#arrowUp" x="0" y="0" onmousedown="handlePan(0,-1)"/>
  <use id="arrowright" xlink:href="#arrowRight" x="0" y="0" onmousedown="handlePan(1,0)"/>
  <use id="arrowdown" xlink:href="#arrowDown" x="0" y="0" onmousedown="handlePan(0,1)"/>
  <use id="arrowleft" xlink:href="#arrowLeft" x="0" y="0" onmousedown="handlePan(-1,0)"/>
</g>
<svg viewBox="0 0 15 15" width="100%" height="30px" preserveAspectRatio="xMaxYMin meet">
 <g id="arrow_out" transform="scale(0.3 0.3)">
  <a xlink:href="a00492_ga42f7c8f65745b2f81bb6dbd381ea8121_cgraph_org.svg" target="_base">
   <rect id="button" ry="5" rx="5" y="6" x="6" height="38" width="38"
        fill="#f2f5e9" fill-opacity="0.5" stroke="#606060" stroke-width="1.0"/>
   <path id="arrow"
     d="M 11.500037,31.436501 C 11.940474,20.09759 22.043105,11.32322 32.158766,21.979434 L 37.068811,17.246167 C 37.068811,17.246167 37.088388,32 37.088388,32 L 22.160133,31.978069 C 22.160133,31.978069 26.997745,27.140456 26.997745,27.140456 C 18.528582,18.264221 13.291696,25.230495 11.500037,31.436501 z"
     style="fill:#404040;"/>
  </a>
 </g>
</svg>

<style type='text/css'>
<![CDATA[
[data-mouse-over-selected='false'] { opacity: 0.7; }
[data-mouse-over-selected='true']  { opacity: 1.0; }
]]>
</style>
<script type="application/ecmascript"><![CDATA[
document.addEventListener('DOMContentLoaded', (event) => {
  highlightEdges();
  highlightAdjacentNodes();
});
]]></script>
</svg>
