<?xml version="1.0" encoding="UTF-8" standalone="no"?>
<!DOCTYPE svg PUBLIC "-//W3C//DTD SVG 1.1//EN"
 "http://www.w3.org/Graphics/SVG/1.1/DTD/svg11.dtd">
<!-- Generated by graphviz version 8.1.0 (20230707.0739)
 -->
<!-- Title: Dev_PwrCtrl_AdaptiveGainUpdate Pages: 1 -->
<svg width="457pt" height="40pt"
 viewBox="0.00 0.00 456.50 40.00" xmlns="http://www.w3.org/2000/svg" xmlns:xlink="http://www.w3.org/1999/xlink">
<g id="graph0" class="graph" transform="scale(1 1) rotate(0) translate(4 36)">
<title>Dev_PwrCtrl_AdaptiveGainUpdate</title>
<!-- Node1 -->
<g id="Node000001" class="node">
<title>Node1</title>
<g id="a_Node000001"><a xlink:title="Updates the Adaptive gain for the power converter control loop.">
<polygon fill="#999999" stroke="#666666" points="448.5,-32 317.75,-32 317.75,0 448.5,0 448.5,-32"/>
<text text-anchor="start" x="325.75" y="-18.5" font-family="Helvetica,sans-Serif" font-size="10.00">Dev_PwrCtrl_AdaptiveGain</text>
<text text-anchor="middle" x="383.12" y="-6.5" font-family="Helvetica,sans-Serif" font-size="10.00">Update</text>
</a>
</g>
</g>
<!-- Node2 -->
<g id="Node000002" class="node">
<title>Node2</title>
<g id="a_Node000002"><a xlink:href="a00489.html#ga40b097e35c1c4428dc28b411d1162e9b" target="_top" xlink:title="This function prepares the data for control loop and selects which control loop will be executed.">
<polygon fill="white" stroke="#666666" points="281.75,-32 144.25,-32 144.25,0 281.75,0 281.75,-32"/>
<text text-anchor="start" x="152.25" y="-18.5" font-family="Helvetica,sans-Serif" font-size="10.00">Dev_PwrCtrl_10KHzVPLoop</text>
<text text-anchor="middle" x="213" y="-6.5" font-family="Helvetica,sans-Serif" font-size="10.00">PrepareData</text>
</a>
</g>
</g>
<!-- Node1&#45;&gt;Node2 -->
<g id="edge1_Node000001_Node000002" class="edge">
<title>Node1&#45;&gt;Node2</title>
<g id="a_edge1_Node000001_Node000002"><a xlink:title=" ">
<path fill="none" stroke="#63b8ff" d="M306.82,-16C298.54,-16 290.15,-16 281.97,-16"/>
<polygon fill="#63b8ff" stroke="#63b8ff" points="306.6,-19.5 316.6,-16 306.6,-12.5 306.6,-19.5"/>
</a>
</g>
</g>
<!-- Node3 -->
<g id="Node000003" class="node">
<title>Node3</title>
<g id="a_Node000003"><a xlink:href="a00489.html#gae32c9e5ed4d1fb98fc13b26601782c10" target="_top" xlink:title="Executes the power conveter&#39;s control loop.">
<polygon fill="white" stroke="#666666" points="108.25,-32 0,-32 0,0 108.25,0 108.25,-32"/>
<text text-anchor="start" x="8" y="-18.5" font-family="Helvetica,sans-Serif" font-size="10.00">ControlLoop_Interrupt</text>
<text text-anchor="middle" x="54.12" y="-6.5" font-family="Helvetica,sans-Serif" font-size="10.00">_CallBack</text>
</a>
</g>
</g>
<!-- Node2&#45;&gt;Node3 -->
<g id="edge2_Node000002_Node000003" class="edge">
<title>Node2&#45;&gt;Node3</title>
<g id="a_edge2_Node000002_Node000003"><a xlink:title=" ">
<path fill="none" stroke="#63b8ff" d="M133.14,-16C124.79,-16 116.43,-16 108.47,-16"/>
<polygon fill="#63b8ff" stroke="#63b8ff" points="133.1,-19.5 143.1,-16 133.1,-12.5 133.1,-19.5"/>
</a>
</g>
</g>
</g>
</svg>
