<?xml version="1.0" encoding="UTF-8" standalone="no"?>
<!DOCTYPE svg PUBLIC "-//W3C//DTD SVG 1.1//EN"
 "http://www.w3.org/Graphics/SVG/1.1/DTD/svg11.dtd">
<!-- Generated by graphviz version 8.1.0 (20230707.0739)
 -->
<!-- Title: dspic33ck&#45;dab.X/sources/pwrctrl/pwrctrl_comm_interface.h Pages: 1 -->
<!--zoomable 200 -->

<svg id="main" version="1.1" xmlns="http://www.w3.org/2000/svg" xmlns:xlink="http://www.w3.org/1999/xlink" xml:space="preserve" onload="init(evt)">
<style type="text/css"><![CDATA[
.node, .edge {opacity: 0.7;}
.node.selected, .edge.selected {opacity: 1;}
.edge:hover path { stroke: red; }
.edge:hover polygon { stroke: red; fill: red; }
]]></style>

<defs>
  <circle id="rim" cx="0" cy="0" r="7"/>
  <circle id="rim2" cx="0" cy="0" r="3.5"/>
  <g id="zoomPlus">
    <use xlink:href="#rim" fill="#404040"><set attributeName="fill" to="#808080" begin="zoomplus.mouseover" end="zoomplus.mouseout"/></use>
    <path d="M-4,0h8M0,-4v8" fill="none" stroke="white" stroke-width="1.5" pointer-events="none"/>
  </g>
  <g id="zoomMin">
    <use xlink:href="#rim" fill="#404040"><set attributeName="fill" to="#808080" begin="zoomminus.mouseover" end="zoomminus.mouseout"/></use>
    <path d="M-4,0h8" fill="none" stroke="white" stroke-width="1.5" pointer-events="none"/>
  </g>
  <g id="arrowUp" transform="translate(30 24)">
    <use xlink:href="#rim"/>
    <path pointer-events="none" fill="none" stroke="white" stroke-width="1.5" d="M0,-3.0v7 M-2.5,-0.5L0,-3.0L2.5,-0.5"/>
  </g>
  <g id="arrowRight" transform="rotate(90) translate(36 -43)">
    <use xlink:href="#rim"/>
    <path pointer-events="none" fill="none" stroke="white" stroke-width="1.5" d="M0,-3.0v7 M-2.5,-0.5L0,-3.0L2.5,-0.5"/>
  </g>
  <g id="arrowDown" transform="rotate(180) translate(-30 -48)">
    <use xlink:href="#rim"/>
    <path pointer-events="none" fill="none" stroke="white" stroke-width="1.5" d="M0,-3.0v7 M-2.5,-0.5L0,-3.0L2.5,-0.5"/>
  </g>
  <g id="arrowLeft" transform="rotate(270) translate(-36 17)">
    <use xlink:href="#rim"/>
    <path pointer-events="none" fill="none" stroke="white" stroke-width="1.5" d="M0,-3.0v7 M-2.5,-0.5L0,-3.0L2.5,-0.5"/>
  </g>
  <g id="resetDef">
    <use xlink:href="#rim2" fill="#404040"><set attributeName="fill" to="#808080" begin="reset.mouseover" end="reset.mouseout"/></use>
  </g>
</defs>
<script type="application/ecmascript">
var viewWidth = 2044;
var viewHeight = 200;
var sectionId = 'dynsection-1';
</script>
<script type="application/ecmascript" xlink:href="svg.min.js"/>
<svg id="graph" class="graph">
<g id="viewport">
<title>dspic33ck&#45;dab.X/sources/pwrctrl/pwrctrl_comm_interface.h</title>
<!-- Node1 -->
<g id="Node000001" class="node">
<title>Node1</title>
<g id="a_Node000001"><a xlink:title="Contains public functions relevant for power control communication interface.">
<polygon fill="#999999" stroke="#666666" points="294.25,-192 169.5,-192 169.5,-148 294.25,-148 294.25,-192"/>
<text text-anchor="start" x="177.5" y="-178.5" font-family="Helvetica,sans-Serif" font-size="10.00">dspic33ck&#45;dab.X/sources</text>
<text text-anchor="start" x="177.5" y="-166.5" font-family="Helvetica,sans-Serif" font-size="10.00">/pwrctrl/pwrctrl_comm</text>
<text text-anchor="middle" x="231.88" y="-154.5" font-family="Helvetica,sans-Serif" font-size="10.00">_interface.h</text>
</a>
</g>
</g>
<!-- Node2 -->
<g id="Node000002" class="node">
<title>Node2</title>
<g id="a_Node000002"><a xlink:href="a00284_source.html" target="_top" xlink:title=" ">
<polygon fill="white" stroke="#666666" points="151.75,-38 0,-38 0,-6 151.75,-6 151.75,-38"/>
<text text-anchor="start" x="8" y="-24.5" font-family="Helvetica,sans-Serif" font-size="10.00">dspic33ck&#45;dab.X/sources</text>
<text text-anchor="middle" x="75.88" y="-12.5" font-family="Helvetica,sans-Serif" font-size="10.00">/comm/PBV_dab_frame_map.c</text>
</a>
</g>
</g>
<!-- Node1&#45;&gt;Node2 -->
<g id="edge1_Node000001_Node000002" class="edge">
<title>Node1&#45;&gt;Node2</title>
<g id="a_edge1_Node000001_Node000002"><a xlink:title=" ">
<path fill="none" stroke="#63b8ff" d="M201.31,-140.39C168.69,-109.86 118.22,-62.63 92.37,-38.44"/>
<polygon fill="#63b8ff" stroke="#63b8ff" points="198.5,-142.49 208.19,-146.77 203.28,-137.38 198.5,-142.49"/>
</a>
</g>
</g>
<!-- Node3 -->
<g id="Node000003" class="node">
<title>Node3</title>
<g id="a_Node000003"><a xlink:href="a00347_source.html" target="_top" xlink:title=" ">
<polygon fill="white" stroke="#666666" points="294.25,-38 169.5,-38 169.5,-6 294.25,-6 294.25,-38"/>
<text text-anchor="start" x="177.5" y="-24.5" font-family="Helvetica,sans-Serif" font-size="10.00">dspic33ck&#45;dab.X/sources</text>
<text text-anchor="middle" x="231.88" y="-12.5" font-family="Helvetica,sans-Serif" font-size="10.00">/device/dev_temp.c</text>
</a>
</g>
</g>
<!-- Node1&#45;&gt;Node3 -->
<g id="edge2_Node000001_Node000003" class="edge">
<title>Node1&#45;&gt;Node3</title>
<g id="a_edge2_Node000001_Node000003"><a xlink:title=" ">
<path fill="none" stroke="#63b8ff" d="M231.88,-136.83C231.88,-106.29 231.88,-61.71 231.88,-38.44"/>
<polygon fill="#63b8ff" stroke="#63b8ff" points="228.38,-136.77 231.88,-146.77 235.38,-136.77 228.38,-136.77"/>
</a>
</g>
</g>
<!-- Node4 -->
<g id="Node000004" class="node">
<title>Node4</title>
<g id="a_Node000004"><a xlink:href="a00467_source.html" target="_top" xlink:title=" ">
<polygon fill="white" stroke="#666666" points="1039.25,-112 914.5,-112 914.5,-80 1039.25,-80 1039.25,-112"/>
<text text-anchor="start" x="922.5" y="-98.5" font-family="Helvetica,sans-Serif" font-size="10.00">dspic33ck&#45;dab.X/sources</text>
<text text-anchor="middle" x="976.88" y="-86.5" font-family="Helvetica,sans-Serif" font-size="10.00">/pwrctrl/pwrctrl.h</text>
</a>
</g>
</g>
<!-- Node1&#45;&gt;Node4 -->
<g id="edge3_Node000001_Node000004" class="edge">
<title>Node1&#45;&gt;Node4</title>
<g id="a_edge3_Node000001_Node000004"><a xlink:title=" ">
<path fill="none" stroke="#63b8ff" d="M305.06,-161.93C451.22,-147.8 776.96,-116.32 914.1,-103.07"/>
<polygon fill="#63b8ff" stroke="#63b8ff" points="305.05,-158.51 295.43,-162.95 305.72,-165.48 305.05,-158.51"/>
</a>
</g>
</g>
<!-- Node4&#45;&gt;Node2 -->
<g id="edge6_Node000004_Node000002" class="edge">
<title>Node4&#45;&gt;Node2</title>
<g id="a_edge6_Node000004_Node000002"><a xlink:title=" ">
<path fill="none" stroke="#63b8ff" d="M903.17,-94.82C759.5,-93.48 432.3,-85.66 160.88,-44 151.56,-42.57 141.77,-40.6 132.28,-38.44"/>
<polygon fill="#63b8ff" stroke="#63b8ff" points="902.99,-98.32 913.02,-94.91 903.05,-91.32 902.99,-98.32"/>
</a>
</g>
</g>
<!-- Node4&#45;&gt;Node3 -->
<g id="edge7_Node000004_Node000003" class="edge">
<title>Node4&#45;&gt;Node3</title>
<g id="a_edge7_Node000004_Node000003"><a xlink:title=" ">
<path fill="none" stroke="#63b8ff" d="M903.26,-94.41C778.81,-92.31 519.3,-83.14 303.88,-44 295.93,-42.56 287.61,-40.58 279.57,-38.42"/>
<polygon fill="#63b8ff" stroke="#63b8ff" points="903.1,-97.93 913.16,-94.59 903.21,-90.93 903.1,-97.93"/>
</a>
</g>
</g>
<!-- Node5 -->
<g id="Node000005" class="node">
<title>Node5</title>
<g id="a_Node000005"><a xlink:href="a00080_source.html" target="_top" xlink:title=" ">
<polygon fill="white" stroke="#666666" points="1319.62,-32 1200.12,-32 1200.12,-12 1319.62,-12 1319.62,-32"/>
<text text-anchor="middle" x="1259.88" y="-18.5" font-family="Helvetica,sans-Serif" font-size="10.00">dspic33ck&#45;dab.X/main.c</text>
</a>
</g>
</g>
<!-- Node4&#45;&gt;Node5 -->
<g id="edge4_Node000004_Node000005" class="edge">
<title>Node4&#45;&gt;Node5</title>
<g id="a_edge4_Node000004_Node000005"><a xlink:title=" ">
<path fill="none" stroke="#63b8ff" d="M1049.97,-78.75C1091.45,-69.24 1144.25,-56.64 1190.88,-44 1203.81,-40.49 1217.98,-36.25 1230.1,-32.5"/>
<polygon fill="#63b8ff" stroke="#63b8ff" points="1049.37,-75.53 1040.4,-81.17 1050.93,-82.35 1049.37,-75.53"/>
</a>
</g>
</g>
<!-- Node6 -->
<g id="Node000006" class="node">
<title>Node6</title>
<g id="a_Node000006"><a xlink:href="a00083_source.html" target="_top" xlink:title=" ">
<polygon fill="white" stroke="#666666" points="1448.5,-38 1337.25,-38 1337.25,-6 1448.5,-6 1448.5,-38"/>
<text text-anchor="start" x="1345.25" y="-24.5" font-family="Helvetica,sans-Serif" font-size="10.00">dspic33ck&#45;dab.X/main</text>
<text text-anchor="middle" x="1392.88" y="-12.5" font-family="Helvetica,sans-Serif" font-size="10.00">_tasks.c</text>
</a>
</g>
</g>
<!-- Node4&#45;&gt;Node6 -->
<g id="edge5_Node000004_Node000006" class="edge">
<title>Node4&#45;&gt;Node6</title>
<g id="a_edge5_Node000004_Node000006"><a xlink:title=" ">
<path fill="none" stroke="#63b8ff" d="M1050.19,-88.12C1121.88,-80.51 1233.81,-66.31 1328.88,-44 1335.48,-42.45 1342.37,-40.53 1349.09,-38.47"/>
<polygon fill="#63b8ff" stroke="#63b8ff" points="1050.06,-84.72 1040.48,-89.24 1050.79,-91.68 1050.06,-84.72"/>
</a>
</g>
</g>
<!-- Node7 -->
<g id="Node000007" class="node">
<title>Node7</title>
<g id="a_Node000007"><a xlink:href="a00368_source.html" target="_top" xlink:title=" ">
<polygon fill="white" stroke="#666666" points="1591.25,-44 1466.5,-44 1466.5,0 1591.25,0 1591.25,-44"/>
<text text-anchor="start" x="1474.5" y="-30.5" font-family="Helvetica,sans-Serif" font-size="10.00">dspic33ck&#45;dab.X/sources</text>
<text text-anchor="start" x="1474.5" y="-18.5" font-family="Helvetica,sans-Serif" font-size="10.00">/driver/mcc_extension</text>
<text text-anchor="middle" x="1528.88" y="-6.5" font-family="Helvetica,sans-Serif" font-size="10.00">/mcc_custom_config.c</text>
</a>
</g>
</g>
<!-- Node4&#45;&gt;Node7 -->
<g id="edge8_Node000004_Node000007" class="edge">
<title>Node4&#45;&gt;Node7</title>
<g id="a_edge8_Node000004_Node000007"><a xlink:title=" ">
<path fill="none" stroke="#63b8ff" d="M1050.61,-91.36C1145.54,-85.71 1315.28,-72.4 1457.88,-44 1460.65,-43.45 1463.47,-42.84 1466.31,-42.18"/>
<polygon fill="#63b8ff" stroke="#63b8ff" points="1050.47,-87.92 1040.69,-91.99 1050.87,-94.91 1050.47,-87.92"/>
</a>
</g>
</g>
<!-- Node8 -->
<g id="Node000008" class="node">
<title>Node8</title>
<g id="a_Node000008"><a xlink:href="a00380.html" target="_top" xlink:title="Contains fault functions including the fault handler, fault object initialization and fault execution...">
<polygon fill="white" stroke="#666666" points="1734.25,-38 1609.5,-38 1609.5,-6 1734.25,-6 1734.25,-38"/>
<text text-anchor="start" x="1617.5" y="-24.5" font-family="Helvetica,sans-Serif" font-size="10.00">dspic33ck&#45;dab.X/sources</text>
<text text-anchor="middle" x="1671.88" y="-12.5" font-family="Helvetica,sans-Serif" font-size="10.00">/fault/fault.c</text>
</a>
</g>
</g>
<!-- Node4&#45;&gt;Node8 -->
<g id="edge9_Node000004_Node000008" class="edge">
<title>Node4&#45;&gt;Node8</title>
<g id="a_edge9_Node000004_Node000008"><a xlink:title=" ">
<path fill="none" stroke="#63b8ff" d="M1050.28,-93.78C1167.42,-90.76 1403.45,-80.3 1599.88,-44 1607.69,-42.56 1615.86,-40.61 1623.79,-38.48"/>
<polygon fill="#63b8ff" stroke="#63b8ff" points="1050.23,-90.31 1040.32,-94.05 1050.4,-97.3 1050.23,-90.31"/>
</a>
</g>
</g>
<!-- Node9 -->
<g id="Node000009" class="node">
<title>Node9</title>
<g id="a_Node000009"><a xlink:href="a00392.html" target="_top" xlink:title="Contains API functions for fault protection.">
<polygon fill="white" stroke="#666666" points="1893.12,-38 1752.62,-38 1752.62,-6 1893.12,-6 1893.12,-38"/>
<text text-anchor="start" x="1760.62" y="-24.5" font-family="Helvetica,sans-Serif" font-size="10.00">dspic33ck&#45;dab.X/sources</text>
<text text-anchor="middle" x="1822.88" y="-12.5" font-family="Helvetica,sans-Serif" font-size="10.00">/fault/fault_comm_interface.c</text>
</a>
</g>
</g>
<!-- Node4&#45;&gt;Node9 -->
<g id="edge10_Node000004_Node000009" class="edge">
<title>Node4&#45;&gt;Node9</title>
<g id="a_edge10_Node000004_Node000009"><a xlink:title=" ">
<path fill="none" stroke="#63b8ff" d="M1050.4,-94.74C1187.49,-93.23 1491.05,-85.05 1742.88,-44 1751.66,-42.57 1760.88,-40.6 1769.82,-38.43"/>
<polygon fill="#63b8ff" stroke="#63b8ff" points="1050.6,-91.25 1040.64,-94.85 1050.67,-98.25 1050.6,-91.25"/>
</a>
</g>
</g>
<!-- Node10 -->
<g id="Node000010" class="node">
<title>Node10</title>
<g id="a_Node000010"><a xlink:href="a00464.html" target="_top" xlink:title="Contains power control initialization including control loop initialization and start&#45;up initializati...">
<polygon fill="white" stroke="#666666" points="2036.25,-38 1911.5,-38 1911.5,-6 2036.25,-6 2036.25,-38"/>
<text text-anchor="start" x="1919.5" y="-24.5" font-family="Helvetica,sans-Serif" font-size="10.00">dspic33ck&#45;dab.X/sources</text>
<text text-anchor="middle" x="1973.88" y="-12.5" font-family="Helvetica,sans-Serif" font-size="10.00">/pwrctrl/pwrctrl.c</text>
</a>
</g>
</g>
<!-- Node4&#45;&gt;Node10 -->
<g id="edge11_Node000004_Node000010" class="edge">
<title>Node4&#45;&gt;Node10</title>
<g id="a_edge11_Node000004_Node000010"><a xlink:title=" ">
<path fill="none" stroke="#63b8ff" d="M1050.54,-93.11C1239.63,-87.92 1738.67,-71.92 1901.88,-44 1909.96,-42.62 1918.43,-40.64 1926.6,-38.45"/>
<polygon fill="#63b8ff" stroke="#63b8ff" points="1050.52,-89.64 1040.62,-93.41 1050.71,-96.64 1050.52,-89.64"/>
</a>
</g>
</g>
<!-- Node11 -->
<g id="Node000011" class="node">
<title>Node11</title>
<g id="a_Node000011"><a xlink:href="a00476.html" target="_top" xlink:title="Contains power control interface with communication/gui.">
<polygon fill="white" stroke="#666666" points="437.25,-44 312.5,-44 312.5,0 437.25,0 437.25,-44"/>
<text text-anchor="start" x="320.5" y="-30.5" font-family="Helvetica,sans-Serif" font-size="10.00">dspic33ck&#45;dab.X/sources</text>
<text text-anchor="start" x="320.5" y="-18.5" font-family="Helvetica,sans-Serif" font-size="10.00">/pwrctrl/pwrctrl_comm</text>
<text text-anchor="middle" x="374.88" y="-6.5" font-family="Helvetica,sans-Serif" font-size="10.00">_interface.c</text>
</a>
</g>
</g>
<!-- Node4&#45;&gt;Node11 -->
<g id="edge12_Node000004_Node000011" class="edge">
<title>Node4&#45;&gt;Node11</title>
<g id="a_edge12_Node000004_Node000011"><a xlink:title=" ">
<path fill="none" stroke="#63b8ff" d="M903.28,-92.39C800.19,-87.73 607.28,-75.32 445.88,-44 443.1,-43.46 440.28,-42.86 437.43,-42.21"/>
<polygon fill="#63b8ff" stroke="#63b8ff" points="903.05,-95.93 913.19,-92.87 903.35,-88.93 903.05,-95.93"/>
</a>
</g>
</g>
<!-- Node12 -->
<g id="Node000012" class="node">
<title>Node12</title>
<g id="a_Node000012"><a xlink:href="a00470.html" target="_top" xlink:title="Contains generic functions that handles power control ramp Up/Down and the averaging generic function...">
<polygon fill="white" stroke="#666666" points="584.88,-38 454.88,-38 454.88,-6 584.88,-6 584.88,-38"/>
<text text-anchor="start" x="462.88" y="-24.5" font-family="Helvetica,sans-Serif" font-size="10.00">dspic33ck&#45;dab.X/sources</text>
<text text-anchor="middle" x="519.88" y="-12.5" font-family="Helvetica,sans-Serif" font-size="10.00">/pwrctrl/pwrctrl_common.c</text>
</a>
</g>
</g>
<!-- Node4&#45;&gt;Node12 -->
<g id="edge13_Node000004_Node000012" class="edge">
<title>Node4&#45;&gt;Node12</title>
<g id="a_edge13_Node000004_Node000012"><a xlink:title=" ">
<path fill="none" stroke="#63b8ff" d="M903.44,-88.4C825.95,-80.69 700.52,-66.11 593.88,-44 586.29,-42.43 578.34,-40.49 570.59,-38.43"/>
<polygon fill="#63b8ff" stroke="#63b8ff" points="902.76,-91.94 913.05,-89.44 903.44,-84.98 902.76,-91.94"/>
</a>
</g>
</g>
<!-- Node13 -->
<g id="Node000013" class="node">
<title>Node13</title>
<g id="a_Node000013"><a xlink:href="a00482.html" target="_top" xlink:title="Contains Control loop interrupt Callback that acquires the ADC raw data and process it in the control...">
<polygon fill="white" stroke="#666666" points="727.25,-38 602.5,-38 602.5,-6 727.25,-6 727.25,-38"/>
<text text-anchor="start" x="610.5" y="-24.5" font-family="Helvetica,sans-Serif" font-size="10.00">dspic33ck&#45;dab.X/sources</text>
<text text-anchor="middle" x="664.88" y="-12.5" font-family="Helvetica,sans-Serif" font-size="10.00">/pwrctrl/pwrctrl_isr.c</text>
</a>
</g>
</g>
<!-- Node4&#45;&gt;Node13 -->
<g id="edge14_Node000004_Node000013" class="edge">
<title>Node4&#45;&gt;Node13</title>
<g id="a_edge14_Node000004_Node000013"><a xlink:title=" ">
<path fill="none" stroke="#63b8ff" d="M903.63,-80.91C855.93,-71.37 792.46,-57.99 736.88,-44 730.18,-42.32 723.18,-40.43 716.27,-38.49"/>
<polygon fill="#63b8ff" stroke="#63b8ff" points="902.68,-84.49 913.17,-83 904.05,-77.62 902.68,-84.49"/>
</a>
</g>
</g>
<!-- Node14 -->
<g id="Node000014" class="node">
<title>Node14</title>
<g id="a_Node000014"><a xlink:href="a00488.html" target="_top" xlink:title="Contains some of the functions used in the interrupt service routine of control loop.">
<polygon fill="white" stroke="#666666" points="896,-38 745.75,-38 745.75,-6 896,-6 896,-38"/>
<text text-anchor="start" x="753.75" y="-24.5" font-family="Helvetica,sans-Serif" font-size="10.00">dspic33ck&#45;dab.X/sources</text>
<text text-anchor="middle" x="820.88" y="-12.5" font-family="Helvetica,sans-Serif" font-size="10.00">/pwrctrl/pwrctrl_isr_extension.c</text>
</a>
</g>
</g>
<!-- Node4&#45;&gt;Node14 -->
<g id="edge15_Node000004_Node000014" class="edge">
<title>Node4&#45;&gt;Node14</title>
<g id="a_edge15_Node000004_Node000014"><a xlink:title=" ">
<path fill="none" stroke="#63b8ff" d="M933.44,-74.95C908.4,-63.4 877.41,-49.09 854.29,-38.42"/>
<polygon fill="#63b8ff" stroke="#63b8ff" points="931.86,-78.54 942.41,-79.55 934.8,-72.19 931.86,-78.54"/>
</a>
</g>
</g>
<!-- Node15 -->
<g id="Node000015" class="node">
<title>Node15</title>
<g id="a_Node000015"><a xlink:href="a00491.html" target="_top" xlink:title="Contains DAB control phase calculation between primary and secondary, and the PWM distribution.">
<polygon fill="white" stroke="#666666" points="1039.25,-38 914.5,-38 914.5,-6 1039.25,-6 1039.25,-38"/>
<text text-anchor="start" x="922.5" y="-24.5" font-family="Helvetica,sans-Serif" font-size="10.00">dspic33ck&#45;dab.X/sources</text>
<text text-anchor="middle" x="976.88" y="-12.5" font-family="Helvetica,sans-Serif" font-size="10.00">/pwrctrl/pwrctrl_pwm.c</text>
</a>
</g>
</g>
<!-- Node4&#45;&gt;Node15 -->
<g id="edge16_Node000004_Node000015" class="edge">
<title>Node4&#45;&gt;Node15</title>
<g id="a_edge16_Node000004_Node000015"><a xlink:title=" ">
<path fill="none" stroke="#63b8ff" d="M976.88,-68.82C976.88,-58.55 976.88,-47.12 976.88,-38.25"/>
<polygon fill="#63b8ff" stroke="#63b8ff" points="973.38,-68.73 976.88,-78.73 980.38,-68.73 973.38,-68.73"/>
</a>
</g>
</g>
<!-- Node16 -->
<g id="Node000016" class="node">
<title>Node16</title>
<g id="a_Node000016"><a xlink:href="a00497.html" target="_top" xlink:title="Contains power control state machine functions that is executed every 100us.">
<polygon fill="white" stroke="#666666" points="1182.25,-38 1057.5,-38 1057.5,-6 1182.25,-6 1182.25,-38"/>
<text text-anchor="start" x="1065.5" y="-24.5" font-family="Helvetica,sans-Serif" font-size="10.00">dspic33ck&#45;dab.X/sources</text>
<text text-anchor="middle" x="1119.88" y="-12.5" font-family="Helvetica,sans-Serif" font-size="10.00">/pwrctrl/pwrctrl_sm.c</text>
</a>
</g>
</g>
<!-- Node4&#45;&gt;Node16 -->
<g id="edge17_Node000004_Node000016" class="edge">
<title>Node4&#45;&gt;Node16</title>
<g id="a_edge17_Node000004_Node000016"><a xlink:title=" ">
<path fill="none" stroke="#63b8ff" d="M1017.31,-74.64C1040.15,-63.14 1068.24,-49 1089.25,-38.42"/>
<polygon fill="#63b8ff" stroke="#63b8ff" points="1015.91,-71.93 1008.55,-79.55 1019.06,-78.18 1015.91,-71.93"/>
</a>
</g>
</g>
</g>
</svg>

<g id="navigator" transform="translate(0 0)" fill="#404254">
  <rect fill="#f2f5e9" fill-opacity="0.5" stroke="#606060" stroke-width=".5" x="0" y="0" width="60" height="60"/>
  <use id="zoomplus" xlink:href="#zoomPlus" x="17" y="9" onmousedown="handleZoom(evt,'in')"/>
  <use id="zoomminus" xlink:href="#zoomMin" x="42" y="9" onmousedown="handleZoom(evt,'out')"/>
  <use id="reset" xlink:href="#resetDef" x="30" y="36" onmousedown="handleReset()"/>
   <use id="arrowup" xlink:href="#arrowUp" x="0" y="0" onmousedown="handlePan(0,-1)"/>
  <use id="arrowright" xlink:href="#arrowRight" x="0" y="0" onmousedown="handlePan(1,0)"/>
  <use id="arrowdown" xlink:href="#arrowDown" x="0" y="0" onmousedown="handlePan(0,1)"/>
  <use id="arrowleft" xlink:href="#arrowLeft" x="0" y="0" onmousedown="handlePan(-1,0)"/>
</g>
<svg viewBox="0 0 15 15" width="100%" height="30px" preserveAspectRatio="xMaxYMin meet">
 <g id="arrow_out" transform="scale(0.3 0.3)">
  <a xlink:href="a00481_org.svg" target="_base">
   <rect id="button" ry="5" rx="5" y="6" x="6" height="38" width="38"
        fill="#f2f5e9" fill-opacity="0.5" stroke="#606060" stroke-width="1.0"/>
   <path id="arrow"
     d="M 11.500037,31.436501 C 11.940474,20.09759 22.043105,11.32322 32.158766,21.979434 L 37.068811,17.246167 C 37.068811,17.246167 37.088388,32 37.088388,32 L 22.160133,31.978069 C 22.160133,31.978069 26.997745,27.140456 26.997745,27.140456 C 18.528582,18.264221 13.291696,25.230495 11.500037,31.436501 z"
     style="fill:#404040;"/>
  </a>
 </g>
</svg>

<style type='text/css'>
<![CDATA[
[data-mouse-over-selected='false'] { opacity: 0.7; }
[data-mouse-over-selected='true']  { opacity: 1.0; }
]]>
</style>
<script type="application/ecmascript"><![CDATA[
document.addEventListener('DOMContentLoaded', (event) => {
  highlightEdges();
  highlightAdjacentNodes();
});
]]></script>
</svg>
