<?xml version="1.0" encoding="UTF-8" standalone="no"?>
<!DOCTYPE svg PUBLIC "-//W3C//DTD SVG 1.1//EN"
 "http://www.w3.org/Graphics/SVG/1.1/DTD/svg11.dtd">
<!-- Generated by graphviz version 8.1.0 (20230707.0739)
 -->
<!-- Title: App_PBV_DAB_Task_1s Pages: 1 -->
<svg width="658pt" height="40pt"
 viewBox="0.00 0.00 657.75 40.00" xmlns="http://www.w3.org/2000/svg" xmlns:xlink="http://www.w3.org/1999/xlink">
<g id="graph0" class="graph" transform="scale(1 1) rotate(0) translate(4 36)">
<title>App_PBV_DAB_Task_1s</title>
<!-- Node1 -->
<g id="Node000001" class="node">
<title>Node1</title>
<g id="a_Node000001"><a xlink:title="this is a slow task simulating the low speed sending of ascii data it sends the firmware id,...">
<polygon fill="#999999" stroke="#666666" points="126.25,-26 0,-26 0,-6 126.25,-6 126.25,-26"/>
<text text-anchor="middle" x="63.12" y="-12.5" font-family="Helvetica,sans-Serif" font-size="10.00">App_PBV_DAB_Task_1s</text>
</a>
</g>
</g>
<!-- Node2 -->
<g id="Node000002" class="node">
<title>Node2</title>
<g id="a_Node000002"><a xlink:href="a00502.html#gac9618e1ca87e77920c94cdfdcc80321a" target="_top" xlink:title="This converts the raw values to temperature celcius as per device lookup table.">
<polygon fill="white" stroke="#666666" points="303.5,-32 162.25,-32 162.25,0 303.5,0 303.5,-32"/>
<text text-anchor="start" x="170.25" y="-18.5" font-family="Helvetica,sans-Serif" font-size="10.00">Dev_Temp_Get_Temperature</text>
<text text-anchor="middle" x="232.88" y="-6.5" font-family="Helvetica,sans-Serif" font-size="10.00">_Celcius</text>
</a>
</g>
</g>
<!-- Node1&#45;&gt;Node2 -->
<g id="edge1_Node000001_Node000002" class="edge">
<title>Node1&#45;&gt;Node2</title>
<g id="a_edge1_Node000001_Node000002"><a xlink:title=" ">
<path fill="none" stroke="#63b8ff" d="M126.59,-16C134.62,-16 142.93,-16 151.2,-16"/>
<polygon fill="#63b8ff" stroke="#63b8ff" points="151.02,-19.5 161.02,-16 151.02,-12.5 151.02,-19.5"/>
</a>
</g>
</g>
<!-- Node3 -->
<g id="Node000003" class="node">
<title>Node3</title>
<g id="a_Node000003"><a xlink:href="a00502.html#gaed1c98bc3ba65035d1ac0bdda433d812" target="_top" xlink:title="Returns the temperature average value.">
<polygon fill="white" stroke="#666666" points="488.25,-26 339.5,-26 339.5,-6 488.25,-6 488.25,-26"/>
<text text-anchor="middle" x="413.88" y="-12.5" font-family="Helvetica,sans-Serif" font-size="10.00">Average_Temp_ADC_Samples</text>
</a>
</g>
</g>
<!-- Node2&#45;&gt;Node3 -->
<g id="edge2_Node000002_Node000003" class="edge">
<title>Node2&#45;&gt;Node3</title>
<g id="a_edge2_Node000002_Node000003"><a xlink:title=" ">
<path fill="none" stroke="#63b8ff" d="M303.85,-16C311.9,-16 320.16,-16 328.37,-16"/>
<polygon fill="#63b8ff" stroke="#63b8ff" points="328.11,-19.5 338.11,-16 328.11,-12.5 328.11,-19.5"/>
</a>
</g>
</g>
<!-- Node4 -->
<g id="Node000004" class="node">
<title>Node4</title>
<g id="a_Node000004"><a xlink:href="a00502.html#ga87aa48cb3d8848b8dc9bee6ce978b1b1" target="_top" xlink:title="Averages the temperature ADC samples.">
<polygon fill="white" stroke="#666666" points="649.75,-26 524.25,-26 524.25,-6 649.75,-6 649.75,-26"/>
<text text-anchor="middle" x="587" y="-12.5" font-family="Helvetica,sans-Serif" font-size="10.00">Temp_Calculate_Average</text>
</a>
</g>
</g>
<!-- Node3&#45;&gt;Node4 -->
<g id="edge3_Node000003_Node000004" class="edge">
<title>Node3&#45;&gt;Node4</title>
<g id="a_edge3_Node000003_Node000004"><a xlink:title=" ">
<path fill="none" stroke="#63b8ff" d="M488.44,-16C496.54,-16 504.78,-16 512.87,-16"/>
<polygon fill="#63b8ff" stroke="#63b8ff" points="512.78,-19.5 522.78,-16 512.78,-12.5 512.78,-19.5"/>
</a>
</g>
</g>
</g>
</svg>
