<?xml version="1.0" encoding="UTF-8" standalone="no"?>
<!DOCTYPE svg PUBLIC "-//W3C//DTD SVG 1.1//EN"
 "http://www.w3.org/Graphics/SVG/1.1/DTD/svg11.dtd">
<!-- Generated by graphviz version 8.1.0 (20230707.0739)
 -->
<!-- Title: dspic33ck&#45;dab.X/sources/pwrctrl/pwrctrl_common.c Pages: 1 -->
<svg width="588pt" height="376pt"
 viewBox="0.00 0.00 588.38 376.00" xmlns="http://www.w3.org/2000/svg" xmlns:xlink="http://www.w3.org/1999/xlink">
<g id="graph0" class="graph" transform="scale(1 1) rotate(0) translate(4 372)">
<title>dspic33ck&#45;dab.X/sources/pwrctrl/pwrctrl_common.c</title>
<!-- Node1 -->
<g id="Node000001" class="node">
<title>Node1</title>
<g id="a_Node000001"><a xlink:title="Contains generic functions that handles power control ramp Up/Down and the averaging generic function...">
<polygon fill="#999999" stroke="#666666" points="385.38,-368 255.38,-368 255.38,-336 385.38,-336 385.38,-368"/>
<text text-anchor="start" x="263.38" y="-354.5" font-family="Helvetica,sans-Serif" font-size="10.00">dspic33ck&#45;dab.X/sources</text>
<text text-anchor="middle" x="320.38" y="-342.5" font-family="Helvetica,sans-Serif" font-size="10.00">/pwrctrl/pwrctrl_common.c</text>
</a>
</g>
</g>
<!-- Node2 -->
<g id="Node000002" class="node">
<title>Node2</title>
<g id="a_Node000002"><a xlink:title=" ">
<polygon fill="#e0e0e0" stroke="#999999" points="34.75,-300 0,-300 0,-280 34.75,-280 34.75,-300"/>
<text text-anchor="middle" x="17.38" y="-286.5" font-family="Helvetica,sans-Serif" font-size="10.00">xc.h</text>
</a>
</g>
</g>
<!-- Node1&#45;&gt;Node2 -->
<g id="edge1_Node000001_Node000002" class="edge">
<title>Node1&#45;&gt;Node2</title>
<g id="a_edge1_Node000001_Node000002"><a xlink:title=" ">
<path fill="none" stroke="#63b8ff" d="M255.15,-340.6C199.81,-331.34 118.48,-316.71 48.38,-300 47.42,-299.77 46.45,-299.53 45.48,-299.29"/>
<polygon fill="#63b8ff" stroke="#63b8ff" points="46.57,-295.69 36,-296.44 44.73,-302.44 46.57,-295.69"/>
</a>
</g>
</g>
<!-- Node3 -->
<g id="Node000003" class="node">
<title>Node3</title>
<g id="a_Node000003"><a xlink:title=" ">
<polygon fill="#e0e0e0" stroke="#999999" points="228.5,-20 180.25,-20 180.25,0 228.5,0 228.5,-20"/>
<text text-anchor="middle" x="204.38" y="-6.5" font-family="Helvetica,sans-Serif" font-size="10.00">stdint.h</text>
</a>
</g>
</g>
<!-- Node1&#45;&gt;Node3 -->
<g id="edge2_Node000001_Node000003" class="edge">
<title>Node1&#45;&gt;Node3</title>
<g id="a_edge2_Node000001_Node000003"><a xlink:title=" ">
<path fill="none" stroke="#63b8ff" d="M254.94,-348.98C178.5,-342.73 62.38,-319.35 62.38,-235 62.38,-235 62.38,-235 62.38,-121 62.38,-66.92 127.53,-35.64 169.57,-21.08"/>
<polygon fill="#63b8ff" stroke="#63b8ff" points="170.56,-24.1 178.96,-17.65 168.37,-17.46 170.56,-24.1"/>
</a>
</g>
</g>
<!-- Node4 -->
<g id="Node000004" class="node">
<title>Node4</title>
<g id="a_Node000004"><a xlink:title=" ">
<polygon fill="#e0e0e0" stroke="#999999" points="373.25,-20 317.5,-20 317.5,0 373.25,0 373.25,-20"/>
<text text-anchor="middle" x="345.38" y="-6.5" font-family="Helvetica,sans-Serif" font-size="10.00">stdbool.h</text>
</a>
</g>
</g>
<!-- Node1&#45;&gt;Node4 -->
<g id="edge3_Node000001_Node000004" class="edge">
<title>Node1&#45;&gt;Node4</title>
<g id="a_edge3_Node000001_Node000004"><a xlink:title=" ">
<path fill="none" stroke="#63b8ff" d="M385.65,-349.21C462.67,-343.22 580.38,-320.14 580.38,-235 580.38,-235 580.38,-235 580.38,-121 580.38,-35.62 451.56,-16.37 384.67,-12.13"/>
<polygon fill="#63b8ff" stroke="#63b8ff" points="384.9,-8.58 374.72,-11.53 384.52,-15.57 384.9,-8.58"/>
</a>
</g>
</g>
<!-- Node5 -->
<g id="Node000005" class="node">
<title>Node5</title>
<g id="a_Node000005"><a xlink:title=" ">
<polygon fill="#e0e0e0" stroke="#999999" points="415.62,-300 365.12,-300 365.12,-280 415.62,-280 415.62,-300"/>
<text text-anchor="middle" x="390.38" y="-286.5" font-family="Helvetica,sans-Serif" font-size="10.00">stddef.h</text>
</a>
</g>
</g>
<!-- Node1&#45;&gt;Node5 -->
<g id="edge4_Node000001_Node000005" class="edge">
<title>Node1&#45;&gt;Node5</title>
<g id="a_edge4_Node000001_Node000005"><a xlink:title=" ">
<path fill="none" stroke="#63b8ff" d="M338.4,-335.55C348.43,-326.95 360.91,-316.26 371.12,-307.5"/>
<polygon fill="#63b8ff" stroke="#63b8ff" points="373.08,-309.57 378.4,-300.41 368.53,-304.26 373.08,-309.57"/>
</a>
</g>
</g>
<!-- Node6 -->
<g id="Node000006" class="node">
<title>Node6</title>
<g id="a_Node000006"><a xlink:href="a00464_source.html" target="_top" xlink:title=" ">
<polygon fill="white" stroke="#666666" points="346.75,-300 294,-300 294,-280 346.75,-280 346.75,-300"/>
<text text-anchor="middle" x="320.38" y="-286.5" font-family="Helvetica,sans-Serif" font-size="10.00">pwrctrl.h</text>
</a>
</g>
</g>
<!-- Node1&#45;&gt;Node6 -->
<g id="edge5_Node000001_Node000006" class="edge">
<title>Node1&#45;&gt;Node6</title>
<g id="a_edge5_Node000001_Node000006"><a xlink:title=" ">
<path fill="none" stroke="#63b8ff" d="M320.38,-335.55C320.38,-328.17 320.38,-319.24 320.38,-311.32"/>
<polygon fill="#63b8ff" stroke="#63b8ff" points="323.88,-311.41 320.38,-301.41 316.88,-311.41 323.88,-311.41"/>
</a>
</g>
</g>
<!-- Node7 -->
<g id="Node000007" class="node">
<title>Node7</title>
<g id="a_Node000007"><a xlink:href="a00497_source.html" target="_top" xlink:title=" ">
<polygon fill="white" stroke="#666666" points="320.12,-188 230.62,-188 230.62,-168 320.12,-168 320.12,-188"/>
<text text-anchor="middle" x="275.38" y="-174.5" font-family="Helvetica,sans-Serif" font-size="10.00">pwrctrl_typedef.h</text>
</a>
</g>
</g>
<!-- Node6&#45;&gt;Node7 -->
<g id="edge6_Node000006_Node000007" class="edge">
<title>Node6&#45;&gt;Node7</title>
<g id="a_edge6_Node000006_Node000007"><a xlink:title=" ">
<path fill="none" stroke="#63b8ff" d="M347.06,-281.85C379.88,-271.69 428.98,-251.26 409.38,-224 391.53,-199.18 359.31,-187.86 330.95,-182.78"/>
<polygon fill="#63b8ff" stroke="#63b8ff" points="331.72,-179.2 321.3,-181.12 330.64,-186.12 331.72,-179.2"/>
</a>
</g>
</g>
<!-- Node10 -->
<g id="Node000010" class="node">
<title>Node10</title>
<g id="a_Node000010"><a xlink:href="a00470.html" target="_top" xlink:title="Contains the power control reusable functions.">
<polygon fill="white" stroke="#666666" points="552.12,-244 456.62,-244 456.62,-224 552.12,-224 552.12,-244"/>
<text text-anchor="middle" x="504.38" y="-230.5" font-family="Helvetica,sans-Serif" font-size="10.00">pwrctrl_common.h</text>
</a>
</g>
</g>
<!-- Node6&#45;&gt;Node10 -->
<g id="edge11_Node000006_Node000010" class="edge">
<title>Node6&#45;&gt;Node10</title>
<g id="a_edge11_Node000006_Node000010"><a xlink:title=" ">
<path fill="none" stroke="#63b8ff" d="M347.13,-281.15C377.12,-272.35 426.16,-257.95 461.51,-247.58"/>
<polygon fill="#63b8ff" stroke="#63b8ff" points="462.4,-250.67 471.01,-244.5 460.42,-243.96 462.4,-250.67"/>
</a>
</g>
</g>
<!-- Node11 -->
<g id="Node000011" class="node">
<title>Node11</title>
<g id="a_Node000011"><a xlink:href="a00476.html" target="_top" xlink:title="Contains public functions relevant for power control communication interface.">
<polygon fill="white" stroke="#666666" points="217.88,-244 90.88,-244 90.88,-224 217.88,-224 217.88,-244"/>
<text text-anchor="middle" x="154.38" y="-230.5" font-family="Helvetica,sans-Serif" font-size="10.00">pwrctrl_comm_interface.h</text>
</a>
</g>
</g>
<!-- Node6&#45;&gt;Node11 -->
<g id="edge12_Node000006_Node000011" class="edge">
<title>Node6&#45;&gt;Node11</title>
<g id="a_edge12_Node000006_Node000011"><a xlink:title=" ">
<path fill="none" stroke="#63b8ff" d="M293.7,-280.32C266.73,-271.55 224.73,-257.89 193.89,-247.86"/>
<polygon fill="#63b8ff" stroke="#63b8ff" points="195.09,-244.24 184.49,-244.47 192.92,-250.89 195.09,-244.24"/>
</a>
</g>
</g>
<!-- Node12 -->
<g id="Node000012" class="node">
<title>Node12</title>
<g id="a_Node000012"><a xlink:href="a00482.html" target="_top" xlink:title="Contains public function relevant for power control interrupt.">
<polygon fill="white" stroke="#666666" points="400.62,-244 332.12,-244 332.12,-224 400.62,-224 400.62,-244"/>
<text text-anchor="middle" x="366.38" y="-230.5" font-family="Helvetica,sans-Serif" font-size="10.00">pwrctrl_isr.h</text>
</a>
</g>
</g>
<!-- Node6&#45;&gt;Node12 -->
<g id="edge14_Node000006_Node000012" class="edge">
<title>Node6&#45;&gt;Node12</title>
<g id="a_edge14_Node000006_Node000012"><a xlink:title=" ">
<path fill="none" stroke="#63b8ff" d="M328.39,-279.59C334.72,-272.16 343.74,-261.58 351.4,-252.58"/>
<polygon fill="#63b8ff" stroke="#63b8ff" points="354.63,-255.18 358.45,-245.3 349.31,-250.64 354.63,-255.18"/>
</a>
</g>
</g>
<!-- Node13 -->
<g id="Node000013" class="node">
<title>Node13</title>
<g id="a_Node000013"><a xlink:href="a00491.html" target="_top" xlink:title="Contains public functions for PWM.">
<polygon fill="white" stroke="#666666" points="314.5,-244 236.25,-244 236.25,-224 314.5,-224 314.5,-244"/>
<text text-anchor="middle" x="275.38" y="-230.5" font-family="Helvetica,sans-Serif" font-size="10.00">pwrctrl_pwm.h</text>
</a>
</g>
</g>
<!-- Node6&#45;&gt;Node13 -->
<g id="edge15_Node000006_Node000013" class="edge">
<title>Node6&#45;&gt;Node13</title>
<g id="a_edge15_Node000006_Node000013"><a xlink:title=" ">
<path fill="none" stroke="#63b8ff" d="M312.54,-279.59C306.34,-272.16 297.52,-261.58 290.03,-252.58"/>
<polygon fill="#63b8ff" stroke="#63b8ff" points="292.21,-250.74 283.12,-245.3 286.84,-255.22 292.21,-250.74"/>
</a>
</g>
</g>
<!-- Node8 -->
<g id="Node000008" class="node">
<title>Node8</title>
<g id="a_Node000008"><a xlink:href="a00395.html" target="_top" xlink:title="Contains fault data types.">
<polygon fill="white" stroke="#666666" points="325.38,-132 225.38,-132 225.38,-112 325.38,-112 325.38,-132"/>
<text text-anchor="middle" x="275.38" y="-118.5" font-family="Helvetica,sans-Serif" font-size="10.00">fault/fault_typedef.h</text>
</a>
</g>
</g>
<!-- Node7&#45;&gt;Node8 -->
<g id="edge7_Node000007_Node000008" class="edge">
<title>Node7&#45;&gt;Node8</title>
<g id="a_edge7_Node000007_Node000008"><a xlink:title=" ">
<path fill="none" stroke="#63b8ff" d="M275.38,-167.59C275.38,-160.86 275.38,-151.53 275.38,-143.15"/>
<polygon fill="#63b8ff" stroke="#63b8ff" points="278.88,-143.3 275.38,-133.3 271.88,-143.3 278.88,-143.3"/>
</a>
</g>
</g>
<!-- Node9 -->
<g id="Node000009" class="node">
<title>Node9</title>
<g id="a_Node000009"><a xlink:href="a00386.html" target="_top" xlink:title="Contains fault generic public functions.">
<polygon fill="white" stroke="#666666" points="317.88,-76 232.88,-76 232.88,-56 317.88,-56 317.88,-76"/>
<text text-anchor="middle" x="275.38" y="-62.5" font-family="Helvetica,sans-Serif" font-size="10.00">fault_common.h</text>
</a>
</g>
</g>
<!-- Node8&#45;&gt;Node9 -->
<g id="edge8_Node000008_Node000009" class="edge">
<title>Node8&#45;&gt;Node9</title>
<g id="a_edge8_Node000008_Node000009"><a xlink:title=" ">
<path fill="none" stroke="#63b8ff" d="M275.38,-111.59C275.38,-104.86 275.38,-95.53 275.38,-87.15"/>
<polygon fill="#63b8ff" stroke="#63b8ff" points="278.88,-87.3 275.38,-77.3 271.88,-87.3 278.88,-87.3"/>
</a>
</g>
</g>
<!-- Node9&#45;&gt;Node3 -->
<g id="edge9_Node000009_Node000003" class="edge">
<title>Node9&#45;&gt;Node3</title>
<g id="a_edge9_Node000009_Node000003"><a xlink:title=" ">
<path fill="none" stroke="#63b8ff" d="M263.01,-55.59C252.62,-47.7 237.56,-36.24 225.3,-26.92"/>
<polygon fill="#63b8ff" stroke="#63b8ff" points="227.68,-23.57 217.6,-20.3 223.44,-29.14 227.68,-23.57"/>
</a>
</g>
</g>
<!-- Node9&#45;&gt;Node4 -->
<g id="edge10_Node000009_Node000004" class="edge">
<title>Node9&#45;&gt;Node4</title>
<g id="a_edge10_Node000009_Node000004"><a xlink:title=" ">
<path fill="none" stroke="#63b8ff" d="M287.57,-55.59C297.81,-47.7 312.66,-36.24 324.74,-26.92"/>
<polygon fill="#63b8ff" stroke="#63b8ff" points="326.54,-29.18 332.32,-20.3 322.27,-23.64 326.54,-29.18"/>
</a>
</g>
</g>
<!-- Node11&#45;&gt;Node7 -->
<g id="edge13_Node000011_Node000007" class="edge">
<title>Node11&#45;&gt;Node7</title>
<g id="a_edge13_Node000011_Node000007"><a xlink:title=" ">
<path fill="none" stroke="#63b8ff" d="M175.45,-223.59C194.42,-215.13 222.55,-202.58 244.13,-192.94"/>
<polygon fill="#63b8ff" stroke="#63b8ff" points="245.43,-195.75 253.13,-188.48 242.58,-189.36 245.43,-195.75"/>
</a>
</g>
</g>
<!-- Node13&#45;&gt;Node7 -->
<g id="edge16_Node000013_Node000007" class="edge">
<title>Node13&#45;&gt;Node7</title>
<g id="a_edge16_Node000013_Node000007"><a xlink:title=" ">
<path fill="none" stroke="#63b8ff" d="M275.38,-223.59C275.38,-216.86 275.38,-207.53 275.38,-199.15"/>
<polygon fill="#63b8ff" stroke="#63b8ff" points="278.88,-199.3 275.38,-189.3 271.88,-199.3 278.88,-199.3"/>
</a>
</g>
</g>
</g>
</svg>
