<?xml version="1.0" encoding="UTF-8" standalone="no"?>
<!DOCTYPE svg PUBLIC "-//W3C//DTD SVG 1.1//EN"
 "http://www.w3.org/Graphics/SVG/1.1/DTD/svg11.dtd">
<!-- Generated by graphviz version 8.1.0 (20230707.0739)
 -->
<!-- Title: SMPS_Controller2P2ZInitialize Pages: 1 -->
<!--zoomable 104 -->

<svg id="main" version="1.1" xmlns="http://www.w3.org/2000/svg" xmlns:xlink="http://www.w3.org/1999/xlink" xml:space="preserve" onload="init(evt)">
<style type="text/css"><![CDATA[
.node, .edge {opacity: 0.7;}
.node.selected, .edge.selected {opacity: 1;}
.edge:hover path { stroke: red; }
.edge:hover polygon { stroke: red; fill: red; }
]]></style>

<defs>
  <circle id="rim" cx="0" cy="0" r="7"/>
  <circle id="rim2" cx="0" cy="0" r="3.5"/>
  <g id="zoomPlus">
    <use xlink:href="#rim" fill="#404040"><set attributeName="fill" to="#808080" begin="zoomplus.mouseover" end="zoomplus.mouseout"/></use>
    <path d="M-4,0h8M0,-4v8" fill="none" stroke="white" stroke-width="1.5" pointer-events="none"/>
  </g>
  <g id="zoomMin">
    <use xlink:href="#rim" fill="#404040"><set attributeName="fill" to="#808080" begin="zoomminus.mouseover" end="zoomminus.mouseout"/></use>
    <path d="M-4,0h8" fill="none" stroke="white" stroke-width="1.5" pointer-events="none"/>
  </g>
  <g id="arrowUp" transform="translate(30 24)">
    <use xlink:href="#rim"/>
    <path pointer-events="none" fill="none" stroke="white" stroke-width="1.5" d="M0,-3.0v7 M-2.5,-0.5L0,-3.0L2.5,-0.5"/>
  </g>
  <g id="arrowRight" transform="rotate(90) translate(36 -43)">
    <use xlink:href="#rim"/>
    <path pointer-events="none" fill="none" stroke="white" stroke-width="1.5" d="M0,-3.0v7 M-2.5,-0.5L0,-3.0L2.5,-0.5"/>
  </g>
  <g id="arrowDown" transform="rotate(180) translate(-30 -48)">
    <use xlink:href="#rim"/>
    <path pointer-events="none" fill="none" stroke="white" stroke-width="1.5" d="M0,-3.0v7 M-2.5,-0.5L0,-3.0L2.5,-0.5"/>
  </g>
  <g id="arrowLeft" transform="rotate(270) translate(-36 17)">
    <use xlink:href="#rim"/>
    <path pointer-events="none" fill="none" stroke="white" stroke-width="1.5" d="M0,-3.0v7 M-2.5,-0.5L0,-3.0L2.5,-0.5"/>
  </g>
  <g id="resetDef">
    <use xlink:href="#rim2" fill="#404040"><set attributeName="fill" to="#808080" begin="reset.mouseover" end="reset.mouseout"/></use>
  </g>
</defs>
<script type="application/ecmascript">
var viewWidth = 1022;
var viewHeight = 104;
var sectionId = 'dynsection-2';
</script>
<script type="application/ecmascript" xlink:href="svg.min.js"/>
<svg id="graph" class="graph">
<g id="viewport">
<title>SMPS_Controller2P2ZInitialize</title>
<!-- Node1 -->
<g id="Node000001" class="node">
<title>Node1</title>
<g id="a_Node000001"><a xlink:title=" ">
<polygon fill="#999999" stroke="#666666" points="1014.25,-58 865.5,-58 865.5,-38 1014.25,-38 1014.25,-58"/>
<text text-anchor="middle" x="939.88" y="-44.5" font-family="Helvetica,sans-Serif" font-size="10.00">SMPS_Controller2P2ZInitialize</text>
</a>
</g>
</g>
<!-- Node2 -->
<g id="Node000002" class="node">
<title>Node2</title>
<g id="a_Node000002"><a xlink:href="a00540.html#ga4d5efa27da3185177a7e9451a59ced82" target="_top" xlink:title="Initialize the Current Loop Control.">
<polygon fill="white" stroke="#666666" points="827.25,-96 706.25,-96 706.25,-76 827.25,-76 827.25,-96"/>
<text text-anchor="middle" x="766.75" y="-82.5" font-family="Helvetica,sans-Serif" font-size="10.00">PwrCtrl_IComp_Initialize</text>
</a>
</g>
</g>
<!-- Node1&#45;&gt;Node2 -->
<g id="edge1_Node000001_Node000002" class="edge">
<title>Node1&#45;&gt;Node2</title>
<g id="a_edge1_Node000001_Node000002"><a xlink:title=" ">
<path fill="none" stroke="#63b8ff" d="M880.99,-60.85C859.45,-65.64 835.27,-71.01 814.81,-75.55"/>
<polygon fill="#63b8ff" stroke="#63b8ff" points="881.66,-64.07 890.66,-58.48 880.14,-57.24 881.66,-64.07"/>
</a>
</g>
</g>
<!-- Node8 -->
<g id="Node000008" class="node">
<title>Node8</title>
<g id="a_Node000008"><a xlink:href="a00540.html#ga5d45f928f4747df3d3fe50876e78efc5" target="_top" xlink:title="Initialize the Power Loop Control.">
<polygon fill="white" stroke="#666666" points="829.5,-58 704,-58 704,-38 829.5,-38 829.5,-58"/>
<text text-anchor="middle" x="766.75" y="-44.5" font-family="Helvetica,sans-Serif" font-size="10.00">PwrCtrl_PComp_Initialize</text>
</a>
</g>
</g>
<!-- Node1&#45;&gt;Node8 -->
<g id="edge7_Node000001_Node000008" class="edge">
<title>Node1&#45;&gt;Node8</title>
<g id="a_edge7_Node000001_Node000008"><a xlink:title=" ">
<path fill="none" stroke="#63b8ff" d="M854.48,-48C846.22,-48 837.95,-48 829.97,-48"/>
<polygon fill="#63b8ff" stroke="#63b8ff" points="854.31,-51.5 864.31,-48 854.31,-44.5 854.31,-51.5"/>
</a>
</g>
</g>
<!-- Node9 -->
<g id="Node000009" class="node">
<title>Node9</title>
<g id="a_Node000009"><a xlink:href="a00540.html#ga8603aa8f7d4f64fa925228cf9c99de83" target="_top" xlink:title="Initialize the Voltage Loop Control.">
<polygon fill="white" stroke="#666666" points="829.5,-20 704,-20 704,0 829.5,0 829.5,-20"/>
<text text-anchor="middle" x="766.75" y="-6.5" font-family="Helvetica,sans-Serif" font-size="10.00">PwrCtrl_VComp_Initialize</text>
</a>
</g>
</g>
<!-- Node1&#45;&gt;Node9 -->
<g id="edge9_Node000001_Node000009" class="edge">
<title>Node1&#45;&gt;Node9</title>
<g id="a_edge9_Node000001_Node000009"><a xlink:title=" ">
<path fill="none" stroke="#63b8ff" d="M880.99,-35.15C859.45,-30.36 835.27,-24.99 814.81,-20.45"/>
<polygon fill="#63b8ff" stroke="#63b8ff" points="880.14,-38.76 890.66,-37.52 881.66,-31.93 880.14,-38.76"/>
</a>
</g>
</g>
<!-- Node3 -->
<g id="Node000003" class="node">
<title>Node3</title>
<g id="a_Node000003"><a xlink:href="a00536.html#gae58162e874535adf2003e9ed8a13b656" target="_top" xlink:title="Initializes the control loop.">
<polygon fill="white" stroke="#666666" points="668,-58 528.25,-58 528.25,-38 668,-38 668,-58"/>
<text text-anchor="middle" x="598.12" y="-44.5" font-family="Helvetica,sans-Serif" font-size="10.00">PwrCtrl_ControlLoopInitialize</text>
</a>
</g>
</g>
<!-- Node2&#45;&gt;Node3 -->
<g id="edge2_Node000002_Node000003" class="edge">
<title>Node2&#45;&gt;Node3</title>
<g id="a_edge2_Node000002_Node000003"><a xlink:title=" ">
<path fill="none" stroke="#63b8ff" d="M709.1,-73.08C688.19,-68.31 664.78,-62.97 644.95,-58.45"/>
<polygon fill="#63b8ff" stroke="#63b8ff" points="708.25,-76.7 718.78,-75.52 709.81,-69.88 708.25,-76.7"/>
</a>
</g>
</g>
<!-- Node4 -->
<g id="Node000004" class="node">
<title>Node4</title>
<g id="a_Node000004"><a xlink:href="a00536.html#ga2c39b57545ef7b5c79bac36ab30da7d8" target="_top" xlink:title="Initialize the power control parameters.">
<polygon fill="white" stroke="#666666" points="492.25,-58 404.25,-58 404.25,-38 492.25,-38 492.25,-58"/>
<text text-anchor="middle" x="448.25" y="-44.5" font-family="Helvetica,sans-Serif" font-size="10.00">PwrCtrl_Initialize</text>
</a>
</g>
</g>
<!-- Node3&#45;&gt;Node4 -->
<g id="edge3_Node000003_Node000004" class="edge">
<title>Node3&#45;&gt;Node4</title>
<g id="a_edge3_Node000003_Node000004"><a xlink:title=" ">
<path fill="none" stroke="#63b8ff" d="M517.23,-48C508.78,-48 500.44,-48 492.64,-48"/>
<polygon fill="#63b8ff" stroke="#63b8ff" points="516.95,-51.5 526.95,-48 516.95,-44.5 516.95,-51.5"/>
</a>
</g>
</g>
<!-- Node5 -->
<g id="Node000005" class="node">
<title>Node5</title>
<g id="a_Node000005"><a xlink:href="a00539.html#ga8307344d190a5459682d315fc7bfe198" target="_top" xlink:title="Executes function for initialze state machine.">
<polygon fill="white" stroke="#666666" points="368.25,-58 273.5,-58 273.5,-38 368.25,-38 368.25,-58"/>
<text text-anchor="middle" x="320.88" y="-44.5" font-family="Helvetica,sans-Serif" font-size="10.00">PCS_INIT_handler</text>
</a>
</g>
</g>
<!-- Node4&#45;&gt;Node5 -->
<g id="edge4_Node000004_Node000005" class="edge">
<title>Node4&#45;&gt;Node5</title>
<g id="a_edge4_Node000004_Node000005"><a xlink:title=" ">
<path fill="none" stroke="#63b8ff" d="M392.92,-48C384.86,-48 376.61,-48 368.72,-48"/>
<polygon fill="#63b8ff" stroke="#63b8ff" points="392.75,-51.5 402.75,-48 392.75,-44.5 392.75,-51.5"/>
</a>
</g>
</g>
<!-- Node6 -->
<g id="Node000006" class="node">
<title>Node6</title>
<g id="a_Node000006"><a xlink:href="a00539.html#ga2408c0b52cd2c2487f43716f261434e6" target="_top" xlink:title="Manages the power control state machine.">
<polygon fill="white" stroke="#666666" points="237.5,-58 124.75,-58 124.75,-38 237.5,-38 237.5,-58"/>
<text text-anchor="middle" x="181.12" y="-44.5" font-family="Helvetica,sans-Serif" font-size="10.00">PwrCtrl_StateMachine</text>
</a>
</g>
</g>
<!-- Node5&#45;&gt;Node6 -->
<g id="edge5_Node000005_Node000006" class="edge">
<title>Node5&#45;&gt;Node6</title>
<g id="a_edge5_Node000005_Node000006"><a xlink:title=" ">
<path fill="none" stroke="#63b8ff" d="M262.33,-48C254.21,-48 245.86,-48 237.77,-48"/>
<polygon fill="#63b8ff" stroke="#63b8ff" points="262.24,-51.5 272.24,-48 262.24,-44.5 262.24,-51.5"/>
</a>
</g>
</g>
<!-- Node7 -->
<g id="Node000007" class="node">
<title>Node7</title>
<g id="a_Node000007"><a xlink:href="a00536.html#ga48dcb018afa53b60b6112cde00561c4b" target="_top" xlink:title="Executes the power control state machine.">
<polygon fill="white" stroke="#666666" points="88.75,-58 0,-58 0,-38 88.75,-38 88.75,-58"/>
<text text-anchor="middle" x="44.38" y="-44.5" font-family="Helvetica,sans-Serif" font-size="10.00">PwrCtrl_Execute</text>
</a>
</g>
</g>
<!-- Node6&#45;&gt;Node7 -->
<g id="edge6_Node000006_Node000007" class="edge">
<title>Node6&#45;&gt;Node7</title>
<g id="a_edge6_Node000006_Node000007"><a xlink:title=" ">
<path fill="none" stroke="#63b8ff" d="M113.57,-48C105.19,-48 96.79,-48 88.9,-48"/>
<polygon fill="#63b8ff" stroke="#63b8ff" points="113.54,-51.5 123.54,-48 113.54,-44.5 113.54,-51.5"/>
</a>
</g>
</g>
<!-- Node8&#45;&gt;Node3 -->
<g id="edge8_Node000008_Node000003" class="edge">
<title>Node8&#45;&gt;Node3</title>
<g id="a_edge8_Node000008_Node000003"><a xlink:title=" ">
<path fill="none" stroke="#63b8ff" d="M692.72,-48C684.58,-48 676.31,-48 668.22,-48"/>
<polygon fill="#63b8ff" stroke="#63b8ff" points="692.71,-51.5 702.71,-48 692.7,-44.5 692.71,-51.5"/>
</a>
</g>
</g>
<!-- Node9&#45;&gt;Node3 -->
<g id="edge10_Node000009_Node000003" class="edge">
<title>Node9&#45;&gt;Node3</title>
<g id="a_edge10_Node000009_Node000003"><a xlink:title=" ">
<path fill="none" stroke="#63b8ff" d="M709.1,-22.92C688.19,-27.69 664.78,-33.03 644.95,-37.55"/>
<polygon fill="#63b8ff" stroke="#63b8ff" points="709.81,-26.12 718.78,-20.48 708.25,-19.3 709.81,-26.12"/>
</a>
</g>
</g>
</g>
</svg>

<g id="navigator" transform="translate(0 0)" fill="#404254">
  <rect fill="#f2f5e9" fill-opacity="0.5" stroke="#606060" stroke-width=".5" x="0" y="0" width="60" height="60"/>
  <use id="zoomplus" xlink:href="#zoomPlus" x="17" y="9" onmousedown="handleZoom(evt,'in')"/>
  <use id="zoomminus" xlink:href="#zoomMin" x="42" y="9" onmousedown="handleZoom(evt,'out')"/>
  <use id="reset" xlink:href="#resetDef" x="30" y="36" onmousedown="handleReset()"/>
   <use id="arrowup" xlink:href="#arrowUp" x="0" y="0" onmousedown="handlePan(0,-1)"/>
  <use id="arrowright" xlink:href="#arrowRight" x="0" y="0" onmousedown="handlePan(1,0)"/>
  <use id="arrowdown" xlink:href="#arrowDown" x="0" y="0" onmousedown="handlePan(0,1)"/>
  <use id="arrowleft" xlink:href="#arrowLeft" x="0" y="0" onmousedown="handlePan(-1,0)"/>
</g>
<svg viewBox="0 0 15 15" width="100%" height="30px" preserveAspectRatio="xMaxYMin meet">
 <g id="arrow_out" transform="scale(0.3 0.3)">
  <a xlink:href="a00452_a8d0d916c7a3ca172408fcded86a6baa2_icgraph_org.svg" target="_base">
   <rect id="button" ry="5" rx="5" y="6" x="6" height="38" width="38"
        fill="#f2f5e9" fill-opacity="0.5" stroke="#606060" stroke-width="1.0"/>
   <path id="arrow"
     d="M 11.500037,31.436501 C 11.940474,20.09759 22.043105,11.32322 32.158766,21.979434 L 37.068811,17.246167 C 37.068811,17.246167 37.088388,32 37.088388,32 L 22.160133,31.978069 C 22.160133,31.978069 26.997745,27.140456 26.997745,27.140456 C 18.528582,18.264221 13.291696,25.230495 11.500037,31.436501 z"
     style="fill:#404040;"/>
  </a>
 </g>
</svg>

<style type='text/css'>
<![CDATA[
[data-mouse-over-selected='false'] { opacity: 0.7; }
[data-mouse-over-selected='true']  { opacity: 1.0; }
]]>
</style>
<script type="application/ecmascript"><![CDATA[
document.addEventListener('DOMContentLoaded', (event) => {
  highlightEdges();
  highlightAdjacentNodes();
});
]]></script>
</svg>
