<?xml version="1.0" encoding="UTF-8" standalone="no"?>
<!DOCTYPE svg PUBLIC "-//W3C//DTD SVG 1.1//EN"
 "http://www.w3.org/Graphics/SVG/1.1/DTD/svg11.dtd">
<!-- Generated by graphviz version 8.1.0 (20230707.0739)
 -->
<!-- Title: Dev_PwrCtrl_ResetControlLoopHistories Pages: 1 -->
<svg width="749pt" height="40pt"
 viewBox="0.00 0.00 748.75 40.00" xmlns="http://www.w3.org/2000/svg" xmlns:xlink="http://www.w3.org/1999/xlink">
<g id="graph0" class="graph" transform="scale(1 1) rotate(0) translate(4 36)">
<title>Dev_PwrCtrl_ResetControlLoopHistories</title>
<!-- Node1 -->
<g id="Node000001" class="node">
<title>Node1</title>
<g id="a_Node000001"><a xlink:title="Clear the control and error histories of the control loops.">
<polygon fill="#999999" stroke="#666666" points="740.75,-32 610.75,-32 610.75,0 740.75,0 740.75,-32"/>
<text text-anchor="start" x="618.75" y="-18.5" font-family="Helvetica,sans-Serif" font-size="10.00">Dev_PwrCtrl_ResetControl</text>
<text text-anchor="middle" x="675.75" y="-6.5" font-family="Helvetica,sans-Serif" font-size="10.00">LoopHistories</text>
</a>
</g>
</g>
<!-- Node2 -->
<g id="Node000002" class="node">
<title>Node2</title>
<g id="a_Node000002"><a xlink:href="a00492.html#ga89ec53d01888c9648d6e9588e5be082f" target="_top" xlink:title="Resets the power control properties.">
<polygon fill="white" stroke="#666666" points="574.75,-26 475.5,-26 475.5,-6 574.75,-6 574.75,-26"/>
<text text-anchor="middle" x="525.12" y="-12.5" font-family="Helvetica,sans-Serif" font-size="10.00">Dev_PwrCtrl_Reset</text>
</a>
</g>
</g>
<!-- Node1&#45;&gt;Node2 -->
<g id="edge1_Node000001_Node000002" class="edge">
<title>Node1&#45;&gt;Node2</title>
<g id="a_edge1_Node000001_Node000002"><a xlink:title=" ">
<path fill="none" stroke="#63b8ff" d="M599.46,-16C591.11,-16 582.76,-16 574.86,-16"/>
<polygon fill="#63b8ff" stroke="#63b8ff" points="599.43,-19.5 609.43,-16 599.43,-12.5 599.43,-19.5"/>
</a>
</g>
</g>
<!-- Node3 -->
<g id="Node000003" class="node">
<title>Node3</title>
<g id="a_Node000003"><a xlink:href="a00492.html#ga42f7c8f65745b2f81bb6dbd381ea8121" target="_top" xlink:title="Executes Standby State machine.">
<polygon fill="white" stroke="#666666" points="439.5,-26 315.5,-26 315.5,-6 439.5,-6 439.5,-26"/>
<text text-anchor="middle" x="377.5" y="-12.5" font-family="Helvetica,sans-Serif" font-size="10.00">PCS_STANDBY_handler</text>
</a>
</g>
</g>
<!-- Node2&#45;&gt;Node3 -->
<g id="edge2_Node000002_Node000003" class="edge">
<title>Node2&#45;&gt;Node3</title>
<g id="a_edge2_Node000002_Node000003"><a xlink:title=" ">
<path fill="none" stroke="#63b8ff" d="M464.4,-16C456.33,-16 448.04,-16 439.94,-16"/>
<polygon fill="#63b8ff" stroke="#63b8ff" points="464.23,-19.5 474.23,-16 464.23,-12.5 464.23,-19.5"/>
</a>
</g>
</g>
<!-- Node4 -->
<g id="Node000004" class="node">
<title>Node4</title>
<g id="a_Node000004"><a xlink:href="a00492.html#gaebef55c78d9df043c293ffcf8a06b63f" target="_top" xlink:title="Manages the power control state machine.">
<polygon fill="white" stroke="#666666" points="279.5,-26 145.75,-26 145.75,-6 279.5,-6 279.5,-26"/>
<text text-anchor="middle" x="212.62" y="-12.5" font-family="Helvetica,sans-Serif" font-size="10.00">Dev_PwrCtrl_StateMachine</text>
</a>
</g>
</g>
<!-- Node3&#45;&gt;Node4 -->
<g id="edge3_Node000003_Node000004" class="edge">
<title>Node3&#45;&gt;Node4</title>
<g id="a_edge3_Node000003_Node000004"><a xlink:title=" ">
<path fill="none" stroke="#63b8ff" d="M304.42,-16C296.29,-16 288.04,-16 279.99,-16"/>
<polygon fill="#63b8ff" stroke="#63b8ff" points="304.39,-19.5 314.39,-16 304.39,-12.5 304.39,-19.5"/>
</a>
</g>
</g>
<!-- Node5 -->
<g id="Node000005" class="node">
<title>Node5</title>
<g id="a_Node000005"><a xlink:href="a00489.html#gad5d6590aeda3bb06b60874802edc14f6" target="_top" xlink:title="Executes the power control state machine.">
<polygon fill="white" stroke="#666666" points="109.75,-26 0,-26 0,-6 109.75,-6 109.75,-26"/>
<text text-anchor="middle" x="54.88" y="-12.5" font-family="Helvetica,sans-Serif" font-size="10.00">Dev_PwrCtrl_Execute</text>
</a>
</g>
</g>
<!-- Node4&#45;&gt;Node5 -->
<g id="edge4_Node000004_Node000005" class="edge">
<title>Node4&#45;&gt;Node5</title>
<g id="a_edge4_Node000004_Node000005"><a xlink:title=" ">
<path fill="none" stroke="#63b8ff" d="M134.59,-16C126.2,-16 117.8,-16 109.78,-16"/>
<polygon fill="#63b8ff" stroke="#63b8ff" points="134.57,-19.5 144.57,-16 134.57,-12.5 134.57,-19.5"/>
</a>
</g>
</g>
</g>
</svg>
