<?xml version="1.0" encoding="UTF-8" standalone="no"?>
<!DOCTYPE svg PUBLIC "-//W3C//DTD SVG 1.1//EN"
 "http://www.w3.org/Graphics/SVG/1.1/DTD/svg11.dtd">
<!-- Generated by graphviz version 8.1.0 (20230707.0739)
 -->
<!-- Title: Dev_Fault_Execute Pages: 1 -->
<svg width="600pt" height="180pt"
 viewBox="0.00 0.00 600.00 180.00" xmlns="http://www.w3.org/2000/svg" xmlns:xlink="http://www.w3.org/1999/xlink">
<g id="graph0" class="graph" transform="scale(1 1) rotate(0) translate(4 176)">
<title>Dev_Fault_Execute</title>
<!-- Node1 -->
<g id="Node000001" class="node">
<title>Node1</title>
<g id="a_Node000001"><a xlink:title="Executes the fault handlers.">
<polygon fill="#999999" stroke="#666666" points="100,-96 0,-96 0,-76 100,-76 100,-96"/>
<text text-anchor="middle" x="50" y="-82.5" font-family="Helvetica,sans-Serif" font-size="10.00">Dev_Fault_Execute</text>
</a>
</g>
</g>
<!-- Node2 -->
<g id="Node000002" class="node">
<title>Node2</title>
<g id="a_Node000002"><a xlink:href="a00513.html#ga568e6ce9c8d08361412894ce59c8d1c2" target="_top" xlink:title="Returns the comparator output status.">
<polygon fill="white" stroke="#666666" points="231.12,-172 138.62,-172 138.62,-152 231.12,-152 231.12,-172"/>
<text text-anchor="middle" x="184.88" y="-158.5" font-family="Helvetica,sans-Serif" font-size="10.00">CMP1_StatusGet</text>
</a>
</g>
</g>
<!-- Node1&#45;&gt;Node2 -->
<g id="edge1_Node000001_Node000002" class="edge">
<title>Node1&#45;&gt;Node2</title>
<g id="a_edge1_Node000001_Node000002"><a xlink:title=" ">
<path fill="none" stroke="#63b8ff" d="M64.57,-96.43C80.89,-108.66 109.42,-129.02 136,-143 138.75,-144.44 141.63,-145.85 144.55,-147.19"/>
<polygon fill="#63b8ff" stroke="#63b8ff" points="143,-150.76 153.57,-151.52 145.78,-144.34 143,-150.76"/>
</a>
</g>
</g>
<!-- Node3 -->
<g id="Node000003" class="node">
<title>Node3</title>
<g id="a_Node000003"><a xlink:href="a00513.html#ga1f8da3d5ca79eeff2f2d0af0cfe7964a" target="_top" xlink:title="Returns the comparator output status.">
<polygon fill="white" stroke="#666666" points="231.12,-134 138.62,-134 138.62,-114 231.12,-114 231.12,-134"/>
<text text-anchor="middle" x="184.88" y="-120.5" font-family="Helvetica,sans-Serif" font-size="10.00">CMP3_StatusGet</text>
</a>
</g>
</g>
<!-- Node1&#45;&gt;Node3 -->
<g id="edge2_Node000001_Node000003" class="edge">
<title>Node1&#45;&gt;Node3</title>
<g id="a_edge2_Node000001_Node000003"><a xlink:title=" ">
<path fill="none" stroke="#63b8ff" d="M87.66,-96.48C102.91,-100.85 120.8,-105.96 136.99,-110.59"/>
<polygon fill="#63b8ff" stroke="#63b8ff" points="135.76,-114.17 146.33,-113.55 137.68,-107.44 135.76,-114.17"/>
</a>
</g>
</g>
<!-- Node4 -->
<g id="Node000004" class="node">
<title>Node4</title>
<g id="a_Node000004"><a xlink:href="a00498.html#ga49e1c9ea3a6a543de5e0db0328595ab4" target="_top" xlink:title="Handles the fault trip by turning off the power control switching.">
<polygon fill="white" stroke="#666666" points="233.38,-96 136.38,-96 136.38,-76 233.38,-76 233.38,-96"/>
<text text-anchor="middle" x="184.88" y="-82.5" font-family="Helvetica,sans-Serif" font-size="10.00">Dev_Fault_Handler</text>
</a>
</g>
</g>
<!-- Node1&#45;&gt;Node4 -->
<g id="edge3_Node000001_Node000004" class="edge">
<title>Node1&#45;&gt;Node4</title>
<g id="a_edge3_Node000001_Node000004"><a xlink:title=" ">
<path fill="none" stroke="#63b8ff" d="M100.48,-86C108.58,-86 117.05,-86 125.35,-86"/>
<polygon fill="#63b8ff" stroke="#63b8ff" points="125.12,-89.5 135.12,-86 125.12,-82.5 125.12,-89.5"/>
</a>
</g>
</g>
<!-- Node9 -->
<g id="Node000009" class="node">
<title>Node9</title>
<g id="a_Node000009"><a xlink:href="a00499.html#ga1a12d5b7c5b1f234c50ea2214e91fcfc" target="_top" xlink:title="This function compares the fault source value with the threshold limits and sets (or) resets the faul...">
<polygon fill="white" stroke="#666666" points="233.75,-58 136,-58 136,-38 233.75,-38 233.75,-58"/>
<text text-anchor="middle" x="184.88" y="-44.5" font-family="Helvetica,sans-Serif" font-size="10.00">FAULT_CheckMax</text>
</a>
</g>
</g>
<!-- Node1&#45;&gt;Node9 -->
<g id="edge8_Node000001_Node000009" class="edge">
<title>Node1&#45;&gt;Node9</title>
<g id="a_edge8_Node000001_Node000009"><a xlink:title=" ">
<path fill="none" stroke="#63b8ff" d="M87.66,-75.52C102.91,-71.15 120.8,-66.04 136.99,-61.41"/>
<polygon fill="#63b8ff" stroke="#63b8ff" points="137.68,-64.56 146.33,-58.45 135.76,-57.83 137.68,-64.56"/>
</a>
</g>
</g>
<!-- Node10 -->
<g id="Node000010" class="node">
<title>Node10</title>
<g id="a_Node000010"><a xlink:href="a00499.html#gabe4788eb1b8be3ad755eb7daf6bba295" target="_top" xlink:title="This function compares the fault source value with the threshold limits and sets (or) resets the faul...">
<polygon fill="white" stroke="#666666" points="232.25,-20 137.5,-20 137.5,0 232.25,0 232.25,-20"/>
<text text-anchor="middle" x="184.88" y="-6.5" font-family="Helvetica,sans-Serif" font-size="10.00">FAULT_CheckMin</text>
</a>
</g>
</g>
<!-- Node1&#45;&gt;Node10 -->
<g id="edge9_Node000001_Node000010" class="edge">
<title>Node1&#45;&gt;Node10</title>
<g id="a_edge9_Node000001_Node000010"><a xlink:title=" ">
<path fill="none" stroke="#63b8ff" d="M64.57,-75.57C80.89,-63.34 109.42,-42.98 136,-29 138.75,-27.56 141.63,-26.15 144.55,-24.81"/>
<polygon fill="#63b8ff" stroke="#63b8ff" points="145.78,-27.66 153.57,-20.48 143,-21.24 145.78,-27.66"/>
</a>
</g>
</g>
<!-- Node5 -->
<g id="Node000005" class="node">
<title>Node5</title>
<g id="a_Node000005"><a xlink:href="a00491.html#ga209e7835d32aaf5a402b470b61284bdf" target="_top" xlink:title="Disable the PWM output.">
<polygon fill="white" stroke="#666666" points="405.75,-96 269.75,-96 269.75,-76 405.75,-76 405.75,-96"/>
<text text-anchor="middle" x="337.75" y="-82.5" font-family="Helvetica,sans-Serif" font-size="10.00">Dev_PwrCtrl_PWM_Disable</text>
</a>
</g>
</g>
<!-- Node4&#45;&gt;Node5 -->
<g id="edge4_Node000004_Node000005" class="edge">
<title>Node4&#45;&gt;Node5</title>
<g id="a_edge4_Node000004_Node000005"><a xlink:title=" ">
<path fill="none" stroke="#63b8ff" d="M233.61,-86C241.63,-86 250.12,-86 258.66,-86"/>
<polygon fill="#63b8ff" stroke="#63b8ff" points="258.48,-89.5 268.48,-86 258.48,-82.5 258.48,-89.5"/>
</a>
</g>
</g>
<!-- Node6 -->
<g id="Node000006" class="node">
<title>Node6</title>
<g id="a_Node000006"><a xlink:href="a00516.html#ga531b59d8823e3ebda2da60f48582bcf3" target="_top" xlink:title="This inline function enables PWM override on PWMH output for specific PWM generator selected by the a...">
<polygon fill="white" stroke="#666666" points="582.25,-134 451.5,-134 451.5,-114 582.25,-114 582.25,-134"/>
<text text-anchor="middle" x="516.88" y="-120.5" font-family="Helvetica,sans-Serif" font-size="10.00">PWM_OverrideHighEnable</text>
</a>
</g>
</g>
<!-- Node5&#45;&gt;Node6 -->
<g id="edge5_Node000005_Node000006" class="edge">
<title>Node5&#45;&gt;Node6</title>
<g id="a_edge5_Node000005_Node000006"><a xlink:title=" ">
<path fill="none" stroke="#63b8ff" d="M387.62,-96.48C408.91,-101.05 434.07,-106.45 456.44,-111.25"/>
<polygon fill="#63b8ff" stroke="#63b8ff" points="455.65,-114.87 466.17,-113.55 457.12,-108.03 455.65,-114.87"/>
</a>
</g>
</g>
<!-- Node7 -->
<g id="Node000007" class="node">
<title>Node7</title>
<g id="a_Node000007"><a xlink:href="a00516.html#ga2548ca8feda75ba6ab784280679da6ae" target="_top" xlink:title="This inline function enables PWM override on PWML output for specific PWM generator selected by the a...">
<polygon fill="white" stroke="#666666" points="581.12,-96 452.62,-96 452.62,-76 581.12,-76 581.12,-96"/>
<text text-anchor="middle" x="516.88" y="-82.5" font-family="Helvetica,sans-Serif" font-size="10.00">PWM_OverrideLowEnable</text>
</a>
</g>
</g>
<!-- Node5&#45;&gt;Node7 -->
<g id="edge6_Node000005_Node000007" class="edge">
<title>Node5&#45;&gt;Node7</title>
<g id="a_edge6_Node000005_Node000007"><a xlink:title=" ">
<path fill="none" stroke="#63b8ff" d="M406.22,-86C417.82,-86 429.94,-86 441.7,-86"/>
<polygon fill="#63b8ff" stroke="#63b8ff" points="441.39,-89.5 451.39,-86 441.39,-82.5 441.39,-89.5"/>
</a>
</g>
</g>
<!-- Node8 -->
<g id="Node000008" class="node">
<title>Node8</title>
<g id="a_Node000008"><a xlink:href="a00516.html#ga83e780358618114f0d424ca7467cf751" target="_top" xlink:title="This inline function requests to update the data registers for specific PWM generator selected by the...">
<polygon fill="white" stroke="#666666" points="592,-58 441.75,-58 441.75,-38 592,-38 592,-58"/>
<text text-anchor="middle" x="516.88" y="-44.5" font-family="Helvetica,sans-Serif" font-size="10.00">PWM_SoftwareUpdateRequest</text>
</a>
</g>
</g>
<!-- Node5&#45;&gt;Node8 -->
<g id="edge7_Node000005_Node000008" class="edge">
<title>Node5&#45;&gt;Node8</title>
<g id="a_edge7_Node000005_Node000008"><a xlink:title=" ">
<path fill="none" stroke="#63b8ff" d="M387.62,-75.52C408.91,-70.95 434.07,-65.55 456.44,-60.75"/>
<polygon fill="#63b8ff" stroke="#63b8ff" points="457.12,-63.97 466.17,-58.45 455.65,-57.13 457.12,-63.97"/>
</a>
</g>
</g>
</g>
</svg>
