<?xml version="1.0" encoding="UTF-8" standalone="no"?>
<!DOCTYPE svg PUBLIC "-//W3C//DTD SVG 1.1//EN"
 "http://www.w3.org/Graphics/SVG/1.1/DTD/svg11.dtd">
<!-- Generated by graphviz version 8.1.0 (20230707.0739)
 -->
<!-- Title: Dev_PwrCtrl_StateMachine Pages: 1 -->
<!--zoomable 551 -->

<svg id="main" version="1.1" xmlns="http://www.w3.org/2000/svg" xmlns:xlink="http://www.w3.org/1999/xlink" xml:space="preserve" onload="init(evt)">
<style type="text/css"><![CDATA[
.node, .edge {opacity: 0.7;}
.node.selected, .edge.selected {opacity: 1;}
.edge:hover path { stroke: red; }
.edge:hover polygon { stroke: red; fill: red; }
]]></style>

<defs>
  <circle id="rim" cx="0" cy="0" r="7"/>
  <circle id="rim2" cx="0" cy="0" r="3.5"/>
  <g id="zoomPlus">
    <use xlink:href="#rim" fill="#404040"><set attributeName="fill" to="#808080" begin="zoomplus.mouseover" end="zoomplus.mouseout"/></use>
    <path d="M-4,0h8M0,-4v8" fill="none" stroke="white" stroke-width="1.5" pointer-events="none"/>
  </g>
  <g id="zoomMin">
    <use xlink:href="#rim" fill="#404040"><set attributeName="fill" to="#808080" begin="zoomminus.mouseover" end="zoomminus.mouseout"/></use>
    <path d="M-4,0h8" fill="none" stroke="white" stroke-width="1.5" pointer-events="none"/>
  </g>
  <g id="arrowUp" transform="translate(30 24)">
    <use xlink:href="#rim"/>
    <path pointer-events="none" fill="none" stroke="white" stroke-width="1.5" d="M0,-3.0v7 M-2.5,-0.5L0,-3.0L2.5,-0.5"/>
  </g>
  <g id="arrowRight" transform="rotate(90) translate(36 -43)">
    <use xlink:href="#rim"/>
    <path pointer-events="none" fill="none" stroke="white" stroke-width="1.5" d="M0,-3.0v7 M-2.5,-0.5L0,-3.0L2.5,-0.5"/>
  </g>
  <g id="arrowDown" transform="rotate(180) translate(-30 -48)">
    <use xlink:href="#rim"/>
    <path pointer-events="none" fill="none" stroke="white" stroke-width="1.5" d="M0,-3.0v7 M-2.5,-0.5L0,-3.0L2.5,-0.5"/>
  </g>
  <g id="arrowLeft" transform="rotate(270) translate(-36 17)">
    <use xlink:href="#rim"/>
    <path pointer-events="none" fill="none" stroke="white" stroke-width="1.5" d="M0,-3.0v7 M-2.5,-0.5L0,-3.0L2.5,-0.5"/>
  </g>
  <g id="resetDef">
    <use xlink:href="#rim2" fill="#404040"><set attributeName="fill" to="#808080" begin="reset.mouseover" end="reset.mouseout"/></use>
  </g>
</defs>
<script type="application/ecmascript">
var viewWidth = 693;
var viewHeight = 551;
var sectionId = 'dynsection-3';
</script>
<script type="application/ecmascript" xlink:href="svg.min.js"/>
<svg id="graph" class="graph">
<g id="viewport">
<title>Dev_PwrCtrl_StateMachine</title>
<!-- Node1 -->
<g id="Node000001" class="node">
<title>Node1</title>
<g id="a_Node000001"><a xlink:title="Manages the power control state machine.">
<polygon fill="#999999" stroke="#666666" points="133.75,-423 0,-423 0,-403 133.75,-403 133.75,-423"/>
<text text-anchor="middle" x="66.88" y="-409.5" font-family="Helvetica,sans-Serif" font-size="10.00">Dev_PwrCtrl_StateMachine</text>
</a>
</g>
</g>
<!-- Node2 -->
<g id="Node000002" class="node">
<title>Node2</title>
<g id="a_Node000002"><a xlink:href="a00491.html#ga8307344d190a5459682d315fc7bfe198" target="_top" xlink:title="Executes function for initialze state machine.">
<polygon fill="white" stroke="#666666" points="287,-423 192.25,-423 192.25,-403 287,-403 287,-423"/>
<text text-anchor="middle" x="239.62" y="-409.5" font-family="Helvetica,sans-Serif" font-size="10.00">PCS_INIT_handler</text>
</a>
</g>
</g>
<!-- Node1&#45;&gt;Node2 -->
<g id="edge1_Node000001_Node000002" class="edge">
<title>Node1&#45;&gt;Node2</title>
<g id="a_edge1_Node000001_Node000002"><a xlink:title=" ">
<path fill="none" stroke="#63b8ff" d="M133.89,-413C149.45,-413 165.91,-413 181.06,-413"/>
<polygon fill="#63b8ff" stroke="#63b8ff" points="180.83,-416.5 190.83,-413 180.83,-409.5 180.83,-416.5"/>
</a>
</g>
</g>
<!-- Node13 -->
<g id="Node000013" class="node">
<title>Node13</title>
<g id="a_Node000013"><a xlink:href="a00491.html#gabda6b853bb6547821acd0ec87e0a4842" target="_top" xlink:title="Executes the power control soft start state machine.">
<polygon fill="white" stroke="#666666" points="309.5,-511 169.75,-511 169.75,-491 309.5,-491 309.5,-511"/>
<text text-anchor="middle" x="239.62" y="-497.5" font-family="Helvetica,sans-Serif" font-size="10.00">PCS_SOFT_START_handler</text>
</a>
</g>
</g>
<!-- Node1&#45;&gt;Node13 -->
<g id="edge12_Node000001_Node000013" class="edge">
<title>Node1&#45;&gt;Node13</title>
<g id="a_edge12_Node000001_Node000013"><a xlink:title=" ">
<path fill="none" stroke="#63b8ff" d="M80.25,-423.37C98.65,-438.32 134.84,-465.89 169.75,-482 173.8,-483.87 178.08,-485.59 182.44,-487.17"/>
<polygon fill="#63b8ff" stroke="#63b8ff" points="181.08,-490.74 191.68,-490.58 183.3,-484.1 181.08,-490.74"/>
</a>
</g>
</g>
<!-- Node15 -->
<g id="Node000015" class="node">
<title>Node15</title>
<g id="a_Node000015"><a xlink:href="a00491.html#ga42f7c8f65745b2f81bb6dbd381ea8121" target="_top" xlink:title="Executes Standby State machine.">
<polygon fill="white" stroke="#666666" points="301.62,-363 177.62,-363 177.62,-343 301.62,-343 301.62,-363"/>
<text text-anchor="middle" x="239.62" y="-349.5" font-family="Helvetica,sans-Serif" font-size="10.00">PCS_STANDBY_handler</text>
</a>
</g>
</g>
<!-- Node1&#45;&gt;Node15 -->
<g id="edge15_Node000001_Node000015" class="edge">
<title>Node1&#45;&gt;Node15</title>
<g id="a_edge15_Node000001_Node000015"><a xlink:title=" ">
<path fill="none" stroke="#63b8ff" d="M97.62,-402.55C125.69,-392.68 167.97,-377.83 198.92,-366.95"/>
<polygon fill="#63b8ff" stroke="#63b8ff" points="199.66,-370.05 207.94,-363.43 197.34,-363.45 199.66,-370.05"/>
</a>
</g>
</g>
<!-- Node28 -->
<g id="Node000028" class="node">
<title>Node28</title>
<g id="a_Node000028"><a xlink:href="a00491.html#ga8752fbb48416e60141e205f1cbda0f98" target="_top" xlink:title="Executes the Online state.">
<polygon fill="white" stroke="#666666" points="304.25,-473 175,-473 175,-441 304.25,-441 304.25,-473"/>
<text text-anchor="start" x="183" y="-459.5" font-family="Helvetica,sans-Serif" font-size="10.00">PCS_UP_AND_RUNNING</text>
<text text-anchor="middle" x="239.62" y="-447.5" font-family="Helvetica,sans-Serif" font-size="10.00">_handler</text>
</a>
</g>
</g>
<!-- Node1&#45;&gt;Node28 -->
<g id="edge34_Node000001_Node000028" class="edge">
<title>Node1&#45;&gt;Node28</title>
<g id="a_edge34_Node000001_Node000028"><a xlink:title=" ">
<path fill="none" stroke="#63b8ff" d="M108.34,-423.43C125.07,-427.74 145.01,-432.88 164.2,-437.82"/>
<polygon fill="#63b8ff" stroke="#63b8ff" points="163.2,-441.44 173.75,-440.54 164.94,-434.66 163.2,-441.44"/>
</a>
</g>
</g>
<!-- Node29 -->
<g id="Node000029" class="node">
<title>Node29</title>
<g id="a_Node000029"><a xlink:href="a00491.html#gaad6ef2378120876a621b349c1380aef7" target="_top" xlink:title="Executes the fault handler state machine.">
<polygon fill="white" stroke="#666666" points="296.75,-325 182.5,-325 182.5,-293 296.75,-293 296.75,-325"/>
<text text-anchor="start" x="190.5" y="-311.5" font-family="Helvetica,sans-Serif" font-size="10.00">PCS_WAIT_IF_FAULT</text>
<text text-anchor="middle" x="239.62" y="-299.5" font-family="Helvetica,sans-Serif" font-size="10.00">_ACTIVE_handler</text>
</a>
</g>
</g>
<!-- Node1&#45;&gt;Node29 -->
<g id="edge36_Node000001_Node000029" class="edge">
<title>Node1&#45;&gt;Node29</title>
<g id="a_edge36_Node000001_Node000029"><a xlink:title=" ">
<path fill="none" stroke="#63b8ff" d="M78.67,-402.75C96.44,-386.35 133.49,-353.99 169.75,-334 172.41,-332.53 175.18,-331.12 178.01,-329.77"/>
<polygon fill="#63b8ff" stroke="#63b8ff" points="179.09,-332.67 186.79,-325.39 176.23,-326.28 179.09,-332.67"/>
</a>
</g>
</g>
<!-- Node3 -->
<g id="Node000003" class="node">
<title>Node3</title>
<g id="a_Node000003"><a xlink:href="a00499.html#ga218632f9814c3bf20c40cea0794ffc7d" target="_top" xlink:title="API function to get the calibration status.">
<polygon fill="white" stroke="#666666" points="475.12,-391 358.62,-391 358.62,-359 475.12,-359 475.12,-391"/>
<text text-anchor="start" x="366.62" y="-377.5" font-family="Helvetica,sans-Serif" font-size="10.00">Dev_CurrentSensor</text>
<text text-anchor="middle" x="416.88" y="-365.5" font-family="Helvetica,sans-Serif" font-size="10.00">_Get_CalibrationStatus</text>
</a>
</g>
</g>
<!-- Node2&#45;&gt;Node3 -->
<g id="edge2_Node000002_Node000003" class="edge">
<title>Node2&#45;&gt;Node3</title>
<g id="a_edge2_Node000002_Node000003"><a xlink:title=" ">
<path fill="none" stroke="#63b8ff" d="M287.13,-402.92C305.61,-398.91 327.25,-394.22 347.45,-389.84"/>
<polygon fill="#63b8ff" stroke="#63b8ff" points="348.15,-393.05 357.18,-387.51 346.66,-386.21 348.15,-393.05"/>
</a>
</g>
</g>
<!-- Node4 -->
<g id="Node000004" class="node">
<title>Node4</title>
<g id="a_Node000004"><a xlink:href="a00499.html#ga9f581abf52dc00ba320faafa189fafb9" target="_top" xlink:title="API function to get the sensor offset.">
<polygon fill="white" stroke="#666666" points="466.5,-341 367.25,-341 367.25,-309 466.5,-309 466.5,-341"/>
<text text-anchor="start" x="375.25" y="-327.5" font-family="Helvetica,sans-Serif" font-size="10.00">Dev_CurrentSensor</text>
<text text-anchor="middle" x="416.88" y="-315.5" font-family="Helvetica,sans-Serif" font-size="10.00">_Get_Offset</text>
</a>
</g>
</g>
<!-- Node2&#45;&gt;Node4 -->
<g id="edge3_Node000002_Node000004" class="edge">
<title>Node2&#45;&gt;Node4</title>
<g id="a_edge3_Node000002_Node000004"><a xlink:title=" ">
<path fill="none" stroke="#63b8ff" d="M258.21,-402.61C272.15,-394.35 292.1,-382.49 309.5,-372 325.56,-362.32 328.57,-358.07 345.5,-350 349.11,-348.28 352.86,-346.61 356.68,-345.01"/>
<polygon fill="#63b8ff" stroke="#63b8ff" points="357.9,-347.89 365.88,-340.92 355.3,-341.39 357.9,-347.89"/>
</a>
</g>
</g>
<!-- Node5 -->
<g id="Node000005" class="node">
<title>Node5</title>
<g id="a_Node000005"><a xlink:href="a00499.html#gaaa75855922e60913d443c6203475256f" target="_top" xlink:title="Measures the currents sensor offset.">
<polygon fill="white" stroke="#666666" points="486.38,-467 347.38,-467 347.38,-447 486.38,-447 486.38,-467"/>
<text text-anchor="middle" x="416.88" y="-453.5" font-family="Helvetica,sans-Serif" font-size="10.00">Dev_CurrentSensorOffsetCal</text>
</a>
</g>
</g>
<!-- Node2&#45;&gt;Node5 -->
<g id="edge4_Node000002_Node000005" class="edge">
<title>Node2&#45;&gt;Node5</title>
<g id="a_edge4_Node000002_Node000005"><a xlink:title=" ">
<path fill="none" stroke="#63b8ff" d="M282.16,-423.43C306.62,-429.57 337.79,-437.39 363.87,-443.94"/>
<polygon fill="#63b8ff" stroke="#63b8ff" points="362.79,-447.53 373.34,-446.57 364.49,-440.74 362.79,-447.53"/>
</a>
</g>
</g>
<!-- Node8 -->
<g id="Node000008" class="node">
<title>Node8</title>
<g id="a_Node000008"><a xlink:href="a00497.html#ga81e895976c1ee1cb678be1d5b5c3505b" target="_top" xlink:title="Clears the fault object flag bits.">
<polygon fill="white" stroke="#666666" points="461.62,-429 372.12,-429 372.12,-409 461.62,-409 461.62,-429"/>
<text text-anchor="middle" x="416.88" y="-415.5" font-family="Helvetica,sans-Serif" font-size="10.00">Dev_Fault_Reset</text>
</a>
</g>
</g>
<!-- Node2&#45;&gt;Node8 -->
<g id="edge7_Node000002_Node000008" class="edge">
<title>Node2&#45;&gt;Node8</title>
<g id="a_edge7_Node000002_Node000008"><a xlink:title=" ">
<path fill="none" stroke="#63b8ff" d="M287.13,-414.59C309.8,-415.37 337.22,-416.31 360.93,-417.12"/>
<polygon fill="#63b8ff" stroke="#63b8ff" points="360.76,-420.65 370.87,-417.49 361,-413.65 360.76,-420.65"/>
</a>
</g>
</g>
<!-- Node9 -->
<g id="Node000009" class="node">
<title>Node9</title>
<g id="a_Node000009"><a xlink:href="a00490.html#ga209e7835d32aaf5a402b470b61284bdf" target="_top" xlink:title="Disable the PWM output.">
<polygon fill="white" stroke="#666666" points="484.88,-505 348.88,-505 348.88,-485 484.88,-485 484.88,-505"/>
<text text-anchor="middle" x="416.88" y="-491.5" font-family="Helvetica,sans-Serif" font-size="10.00">Dev_PwrCtrl_PWM_Disable</text>
</a>
</g>
</g>
<!-- Node2&#45;&gt;Node9 -->
<g id="edge8_Node000002_Node000009" class="edge">
<title>Node2&#45;&gt;Node9</title>
<g id="a_edge8_Node000002_Node000009"><a xlink:title=" ">
<path fill="none" stroke="#63b8ff" d="M287.15,-421.6C294.98,-424.21 302.74,-427.6 309.5,-432 330.67,-445.79 324.29,-462.27 345.5,-476 347.82,-477.5 350.26,-478.89 352.79,-480.17"/>
<polygon fill="#63b8ff" stroke="#63b8ff" points="351.26,-483.76 361.82,-484.57 354.07,-477.35 351.26,-483.76"/>
</a>
</g>
</g>
<!-- Node6 -->
<g id="Node000006" class="node">
<title>Node6</title>
<g id="a_Node000006"><a xlink:href="a00506.html#gaf4b6f81a05012533b633a78dad7b6a98" target="_top" xlink:title="Returns the conversion value for the channel selected.">
<polygon fill="white" stroke="#666666" points="673.38,-467 535.88,-467 535.88,-447 673.38,-447 673.38,-467"/>
<text text-anchor="middle" x="604.62" y="-453.5" font-family="Helvetica,sans-Serif" font-size="10.00">ADC1_ConversionResultGet</text>
</a>
</g>
</g>
<!-- Node5&#45;&gt;Node6 -->
<g id="edge5_Node000005_Node000006" class="edge">
<title>Node5&#45;&gt;Node6</title>
<g id="a_edge5_Node000005_Node000006"><a xlink:title=" ">
<path fill="none" stroke="#63b8ff" d="M486.78,-457C499.08,-457 511.97,-457 524.53,-457"/>
<polygon fill="#63b8ff" stroke="#63b8ff" points="524.45,-460.5 534.45,-457 524.45,-453.5 524.45,-460.5"/>
</a>
</g>
</g>
<!-- Node7 -->
<g id="Node000007" class="node">
<title>Node7</title>
<g id="a_Node000007"><a xlink:href="a00499.html#ga03e8d61bbc0f4b686c400440f80dcf69" target="_top" xlink:title="Measure the sensor offset.">
<polygon fill="white" stroke="#666666" points="658.38,-429 550.88,-429 550.88,-409 658.38,-409 658.38,-429"/>
<text text-anchor="middle" x="604.62" y="-415.5" font-family="Helvetica,sans-Serif" font-size="10.00">Dev_SensorOffsetCal</text>
</a>
</g>
</g>
<!-- Node5&#45;&gt;Node7 -->
<g id="edge6_Node000005_Node000007" class="edge">
<title>Node5&#45;&gt;Node7</title>
<g id="a_edge6_Node000005_Node000007"><a xlink:title=" ">
<path fill="none" stroke="#63b8ff" d="M469.12,-446.52C491.66,-441.91 518.32,-436.45 541.93,-431.62"/>
<polygon fill="#63b8ff" stroke="#63b8ff" points="542.45,-434.88 551.54,-429.45 541.04,-428.03 542.45,-434.88"/>
</a>
</g>
</g>
<!-- Node10 -->
<g id="Node000010" class="node">
<title>Node10</title>
<g id="a_Node000010"><a xlink:href="a00512.html#ga531b59d8823e3ebda2da60f48582bcf3" target="_top" xlink:title="This inline function enables PWM override on PWMH output for specific PWM generator selected by the a...">
<polygon fill="white" stroke="#666666" points="670,-543 539.25,-543 539.25,-523 670,-523 670,-543"/>
<text text-anchor="middle" x="604.62" y="-529.5" font-family="Helvetica,sans-Serif" font-size="10.00">PWM_OverrideHighEnable</text>
</a>
</g>
</g>
<!-- Node9&#45;&gt;Node10 -->
<g id="edge9_Node000009_Node000010" class="edge">
<title>Node9&#45;&gt;Node10</title>
<g id="a_edge9_Node000009_Node000010"><a xlink:title=" ">
<path fill="none" stroke="#63b8ff" d="M469.12,-505.48C491.66,-510.09 518.32,-515.55 541.93,-520.38"/>
<polygon fill="#63b8ff" stroke="#63b8ff" points="541.04,-523.97 551.54,-522.55 542.45,-517.12 541.04,-523.97"/>
</a>
</g>
</g>
<!-- Node11 -->
<g id="Node000011" class="node">
<title>Node11</title>
<g id="a_Node000011"><a xlink:href="a00512.html#ga2548ca8feda75ba6ab784280679da6ae" target="_top" xlink:title="This inline function enables PWM override on PWML output for specific PWM generator selected by the a...">
<polygon fill="white" stroke="#666666" points="668.88,-505 540.38,-505 540.38,-485 668.88,-485 668.88,-505"/>
<text text-anchor="middle" x="604.62" y="-491.5" font-family="Helvetica,sans-Serif" font-size="10.00">PWM_OverrideLowEnable</text>
</a>
</g>
</g>
<!-- Node9&#45;&gt;Node11 -->
<g id="edge10_Node000009_Node000011" class="edge">
<title>Node9&#45;&gt;Node11</title>
<g id="a_edge10_Node000009_Node000011"><a xlink:title=" ">
<path fill="none" stroke="#63b8ff" d="M485.2,-495C499.43,-495 514.53,-495 529.01,-495"/>
<polygon fill="#63b8ff" stroke="#63b8ff" points="528.94,-498.5 538.94,-495 528.94,-491.5 528.94,-498.5"/>
</a>
</g>
</g>
<!-- Node12 -->
<g id="Node000012" class="node">
<title>Node12</title>
<g id="a_Node000012"><a xlink:href="a00512.html#ga83e780358618114f0d424ca7467cf751" target="_top" xlink:title="This inline function requests to update the data registers for specific PWM generator selected by the...">
<polygon fill="white" stroke="#666666" points="679.75,-298 529.5,-298 529.5,-278 679.75,-278 679.75,-298"/>
<text text-anchor="middle" x="604.62" y="-284.5" font-family="Helvetica,sans-Serif" font-size="10.00">PWM_SoftwareUpdateRequest</text>
</a>
</g>
</g>
<!-- Node9&#45;&gt;Node12 -->
<g id="edge11_Node000009_Node000012" class="edge">
<title>Node9&#45;&gt;Node12</title>
<g id="a_edge11_Node000009_Node000012"><a xlink:title=" ">
<path fill="none" stroke="#63b8ff" d="M477.19,-484.54C481.27,-482.21 485.03,-479.4 488.25,-476 541.07,-420.26 470.63,-361.98 524.25,-307 525.09,-306.14 525.96,-305.31 526.86,-304.52"/>
<polygon fill="#63b8ff" stroke="#63b8ff" points="528.52,-306.93 534.67,-298.3 524.48,-301.21 528.52,-306.93"/>
</a>
</g>
</g>
<!-- Node13&#45;&gt;Node9 -->
<g id="edge13_Node000013_Node000009" class="edge">
<title>Node13&#45;&gt;Node9</title>
<g id="a_edge13_Node000013_Node000009"><a xlink:title=" ">
<path fill="none" stroke="#63b8ff" d="M309.89,-498.63C319.03,-498.32 328.46,-497.99 337.74,-497.68"/>
<polygon fill="#63b8ff" stroke="#63b8ff" points="337.67,-501.15 347.55,-497.31 337.43,-494.15 337.67,-501.15"/>
</a>
</g>
</g>
<!-- Node14 -->
<g id="Node000014" class="node">
<title>Node14</title>
<g id="a_Node000014"><a xlink:href="a00494.html#gae958b8e13bf04622c6c67ea391639f41" target="_top" xlink:title="Softly increment / decrement to the set reference target.">
<polygon fill="white" stroke="#666666" points="488.25,-543 345.5,-543 345.5,-523 488.25,-523 488.25,-543"/>
<text text-anchor="middle" x="416.88" y="-529.5" font-family="Helvetica,sans-Serif" font-size="10.00">Dev_PwrCtrl_RampReference</text>
</a>
</g>
</g>
<!-- Node13&#45;&gt;Node14 -->
<g id="edge14_Node000013_Node000014" class="edge">
<title>Node13&#45;&gt;Node14</title>
<g id="a_edge14_Node000013_Node000014"><a xlink:title=" ">
<path fill="none" stroke="#63b8ff" d="M298.01,-511.48C313.98,-514.39 331.47,-517.59 347.98,-520.6"/>
<polygon fill="#63b8ff" stroke="#63b8ff" points="347.2,-524.2 357.66,-522.55 348.45,-517.31 347.2,-524.2"/>
</a>
</g>
</g>
<!-- Node15&#45;&gt;Node3 -->
<g id="edge17_Node000015_Node000003" class="edge">
<title>Node15&#45;&gt;Node3</title>
<g id="a_edge17_Node000015_Node000003"><a xlink:title=" ">
<path fill="none" stroke="#63b8ff" d="M301.92,-360.69C316.61,-362.54 332.4,-364.52 347.39,-366.4"/>
<polygon fill="#63b8ff" stroke="#63b8ff" points="346.79,-369.98 357.15,-367.75 347.66,-363.03 346.79,-369.98"/>
</a>
</g>
</g>
<!-- Node15&#45;&gt;Node4 -->
<g id="edge18_Node000015_Node000004" class="edge">
<title>Node15&#45;&gt;Node4</title>
<g id="a_edge18_Node000015_Node000004"><a xlink:title=" ">
<path fill="none" stroke="#63b8ff" d="M301.92,-343.21C319.57,-340.39 338.8,-337.31 356.35,-334.51"/>
<polygon fill="#63b8ff" stroke="#63b8ff" points="356.71,-337.84 366.03,-332.8 355.6,-330.93 356.71,-337.84"/>
</a>
</g>
</g>
<!-- Node15&#45;&gt;Node5 -->
<g id="edge19_Node000015_Node000005" class="edge">
<title>Node15&#45;&gt;Node5</title>
<g id="a_edge19_Node000015_Node000005"><a xlink:title=" ">
<path fill="none" stroke="#63b8ff" d="M262.39,-363.44C276.62,-370.85 295.16,-381.65 309.5,-394 328.64,-410.49 324.29,-424.27 345.5,-438 347.82,-439.5 350.26,-440.89 352.79,-442.17"/>
<polygon fill="#63b8ff" stroke="#63b8ff" points="351.26,-445.76 361.82,-446.57 354.07,-439.35 351.26,-445.76"/>
</a>
</g>
</g>
<!-- Node15&#45;&gt;Node8 -->
<g id="edge20_Node000015_Node000008" class="edge">
<title>Node15&#45;&gt;Node8</title>
<g id="a_edge20_Node000015_Node000008"><a xlink:title=" ">
<path fill="none" stroke="#63b8ff" d="M261.12,-363.35C281.98,-373.6 315.43,-389.28 345.5,-400 350.94,-401.94 356.67,-403.79 362.43,-405.52"/>
<polygon fill="#63b8ff" stroke="#63b8ff" points="361.16,-409.09 371.74,-408.51 363.11,-402.37 361.16,-409.09"/>
</a>
</g>
</g>
<!-- Node16 -->
<g id="Node000016" class="node">
<title>Node16</title>
<g id="a_Node000016"><a xlink:href="a00499.html#ga494b4a948891fd5757ccc647f9962529" target="_top" xlink:title="API function to clear the sensor offset.">
<polygon fill="white" stroke="#666666" points="466.5,-291 367.25,-291 367.25,-259 466.5,-259 466.5,-291"/>
<text text-anchor="start" x="375.25" y="-277.5" font-family="Helvetica,sans-Serif" font-size="10.00">Dev_CurrentSensor</text>
<text text-anchor="middle" x="416.88" y="-265.5" font-family="Helvetica,sans-Serif" font-size="10.00">_Clr_Offset</text>
</a>
</g>
</g>
<!-- Node15&#45;&gt;Node16 -->
<g id="edge16_Node000015_Node000016" class="edge">
<title>Node15&#45;&gt;Node16</title>
<g id="a_edge16_Node000015_Node000016"><a xlink:title=" ">
<path fill="none" stroke="#63b8ff" d="M289.97,-342.57C296.75,-340.24 303.45,-337.41 309.5,-334 328.67,-323.2 326.73,-311.49 345.5,-300 349.13,-297.78 352.98,-295.72 356.95,-293.81"/>
<polygon fill="#63b8ff" stroke="#63b8ff" points="358.23,-296.63 365.95,-289.38 355.39,-290.23 358.23,-296.63"/>
</a>
</g>
</g>
<!-- Node17 -->
<g id="Node000017" class="node">
<title>Node17</title>
<g id="a_Node000017"><a xlink:href="a00490.html#gaff82d75556566202a8dd302e0a7fde8b" target="_top" xlink:title="Enable the PWM output.">
<polygon fill="white" stroke="#666666" points="483.75,-241 350,-241 350,-221 483.75,-221 483.75,-241"/>
<text text-anchor="middle" x="416.88" y="-227.5" font-family="Helvetica,sans-Serif" font-size="10.00">Dev_PwrCtrl_PWM_Enable</text>
</a>
</g>
</g>
<!-- Node15&#45;&gt;Node17 -->
<g id="edge21_Node000015_Node000017" class="edge">
<title>Node15&#45;&gt;Node17</title>
<g id="a_edge21_Node000015_Node000017"><a xlink:title=" ">
<path fill="none" stroke="#63b8ff" d="M296.32,-342.55C301.08,-340.24 305.57,-337.43 309.5,-334 340.1,-307.29 314.82,-276.62 345.5,-250 346.72,-248.94 348,-247.93 349.33,-246.98"/>
<polygon fill="#63b8ff" stroke="#63b8ff" points="350.79,-249.59 357.63,-241.5 347.24,-243.56 350.79,-249.59"/>
</a>
</g>
</g>
<!-- Node20 -->
<g id="Node000020" class="node">
<title>Node20</title>
<g id="a_Node000020"><a xlink:href="a00490.html#ga2da42ebbee6a24170cd69c0c798a572e" target="_top" xlink:title="PWM distribution for DAB converter.">
<polygon fill="white" stroke="#666666" points="484.12,-184 349.62,-184 349.62,-164 484.12,-164 484.12,-184"/>
<text text-anchor="middle" x="416.88" y="-170.5" font-family="Helvetica,sans-Serif" font-size="10.00">Dev_PwrCtrl_PWM_Update</text>
</a>
</g>
</g>
<!-- Node15&#45;&gt;Node20 -->
<g id="edge25_Node000015_Node000020" class="edge">
<title>Node15&#45;&gt;Node20</title>
<g id="a_edge25_Node000015_Node000020"><a xlink:title=" ">
<path fill="none" stroke="#63b8ff" d="M297.42,-342.67C301.85,-340.33 305.96,-337.48 309.5,-334 349.83,-294.38 309.89,-255.91 345.5,-212 353.27,-202.42 364.11,-194.92 374.97,-189.2"/>
<polygon fill="#63b8ff" stroke="#63b8ff" points="376.36,-191.93 383.86,-184.44 373.33,-185.62 376.36,-191.93"/>
</a>
</g>
</g>
<!-- Node26 -->
<g id="Node000026" class="node">
<title>Node26</title>
<g id="a_Node000026"><a xlink:href="a00491.html#ga89ec53d01888c9648d6e9588e5be082f" target="_top" xlink:title="Resets the power control properties.">
<polygon fill="white" stroke="#666666" points="466.5,-86 367.25,-86 367.25,-66 466.5,-66 466.5,-86"/>
<text text-anchor="middle" x="416.88" y="-72.5" font-family="Helvetica,sans-Serif" font-size="10.00">Dev_PwrCtrl_Reset</text>
</a>
</g>
</g>
<!-- Node15&#45;&gt;Node26 -->
<g id="edge32_Node000015_Node000026" class="edge">
<title>Node15&#45;&gt;Node26</title>
<g id="a_edge32_Node000015_Node000026"><a xlink:title=" ">
<path fill="none" stroke="#63b8ff" d="M298.41,-342.63C302.51,-340.29 306.29,-337.45 309.5,-334 364.82,-274.63 309.25,-227.6 345.5,-155 357.66,-130.65 379.32,-108.02 395.41,-93.28"/>
<polygon fill="#63b8ff" stroke="#63b8ff" points="397.09,-96.58 402.23,-87.32 392.43,-91.35 397.09,-96.58"/>
</a>
</g>
</g>
<!-- Node17&#45;&gt;Node12 -->
<g id="edge24_Node000017_Node000012" class="edge">
<title>Node17&#45;&gt;Node12</title>
<g id="a_edge24_Node000017_Node000012"><a xlink:title=" ">
<path fill="none" stroke="#63b8ff" d="M462.66,-241.49C471.27,-243.95 480.12,-246.8 488.25,-250 505.09,-256.62 507.32,-262.62 524.25,-269 529.72,-271.06 535.49,-272.95 541.32,-274.67"/>
<polygon fill="#63b8ff" stroke="#63b8ff" points="540.25,-278.28 550.82,-277.59 542.12,-271.54 540.25,-278.28"/>
</a>
</g>
</g>
<!-- Node18 -->
<g id="Node000018" class="node">
<title>Node18</title>
<g id="a_Node000018"><a xlink:href="a00512.html#ga957b002605bfb2239a26f174808b2ad8" target="_top" xlink:title="This inline function disables PWM override on PWMH output for specific PWM generator selected by the ...">
<polygon fill="white" stroke="#666666" points="671.12,-336 538.12,-336 538.12,-316 671.12,-316 671.12,-336"/>
<text text-anchor="middle" x="604.62" y="-322.5" font-family="Helvetica,sans-Serif" font-size="10.00">PWM_OverrideHighDisable</text>
</a>
</g>
</g>
<!-- Node17&#45;&gt;Node18 -->
<g id="edge22_Node000017_Node000018" class="edge">
<title>Node17&#45;&gt;Node18</title>
<g id="a_edge22_Node000017_Node000018"><a xlink:title=" ">
<path fill="none" stroke="#63b8ff" d="M472.79,-241.4C478.29,-243.72 483.57,-246.54 488.25,-250 512.36,-267.79 499.88,-289.56 524.25,-307 526.22,-308.41 528.27,-309.71 530.4,-310.92"/>
<polygon fill="#63b8ff" stroke="#63b8ff" points="528.58,-314.41 539.1,-315.63 531.63,-308.11 528.58,-314.41"/>
</a>
</g>
</g>
<!-- Node19 -->
<g id="Node000019" class="node">
<title>Node19</title>
<g id="a_Node000019"><a xlink:href="a00512.html#gabbedef830c43428e96c7d5125662a8a6" target="_top" xlink:title="This inline function disables PWM override on PWML output for specific PWM generator selected by the ...">
<polygon fill="white" stroke="#666666" points="670,-260 539.25,-260 539.25,-240 670,-240 670,-260"/>
<text text-anchor="middle" x="604.62" y="-246.5" font-family="Helvetica,sans-Serif" font-size="10.00">PWM_OverrideLowDisable</text>
</a>
</g>
</g>
<!-- Node17&#45;&gt;Node19 -->
<g id="edge23_Node000017_Node000019" class="edge">
<title>Node17&#45;&gt;Node19</title>
<g id="a_edge23_Node000017_Node000019"><a xlink:title=" ">
<path fill="none" stroke="#63b8ff" d="M484.15,-237.78C498.48,-239.25 513.75,-240.81 528.4,-242.31"/>
<polygon fill="#63b8ff" stroke="#63b8ff" points="527.63,-245.85 537.94,-243.38 528.34,-238.88 527.63,-245.85"/>
</a>
</g>
</g>
<!-- Node20&#45;&gt;Node12 -->
<g id="edge30_Node000020_Node000012" class="edge">
<title>Node20&#45;&gt;Node12</title>
<g id="a_edge30_Node000020_Node000012"><a xlink:title=" ">
<path fill="none" stroke="#63b8ff" d="M444.33,-184.36C458.49,-190.82 475.57,-200.15 488.25,-212 510.15,-232.45 499.88,-251.56 524.25,-269 526.22,-270.41 528.27,-271.71 530.4,-272.92"/>
<polygon fill="#63b8ff" stroke="#63b8ff" points="528.58,-276.41 539.1,-277.63 531.63,-270.11 528.58,-276.41"/>
</a>
</g>
</g>
<!-- Node21 -->
<g id="Node000021" class="node">
<title>Node21</title>
<g id="a_Node000021"><a xlink:href="a00512.html#gaf368256a569a5a9e12f85f84d7d42287" target="_top" xlink:title="This inline function updates PWM Deadtime high register with the requested value for a specific PWM g...">
<polygon fill="white" stroke="#666666" points="666.62,-146 542.62,-146 542.62,-126 666.62,-126 666.62,-146"/>
<text text-anchor="middle" x="604.62" y="-132.5" font-family="Helvetica,sans-Serif" font-size="10.00">PWM_DeadTimeHighSet</text>
</a>
</g>
</g>
<!-- Node20&#45;&gt;Node21 -->
<g id="edge26_Node000020_Node000021" class="edge">
<title>Node20&#45;&gt;Node21</title>
<g id="a_edge26_Node000020_Node000021"><a xlink:title=" ">
<path fill="none" stroke="#63b8ff" d="M469.12,-163.52C491.66,-158.91 518.32,-153.45 541.93,-148.62"/>
<polygon fill="#63b8ff" stroke="#63b8ff" points="542.45,-151.88 551.54,-146.45 541.04,-145.03 542.45,-151.88"/>
</a>
</g>
</g>
<!-- Node22 -->
<g id="Node000022" class="node">
<title>Node22</title>
<g id="a_Node000022"><a xlink:href="a00512.html#ga124426b28426beb53948e9b57319ab4b" target="_top" xlink:title="This inline function updates PWM Deadtime low register with the requested value for a specific PWM ge...">
<polygon fill="white" stroke="#666666" points="665.5,-70 543.75,-70 543.75,-50 665.5,-50 665.5,-70"/>
<text text-anchor="middle" x="604.62" y="-56.5" font-family="Helvetica,sans-Serif" font-size="10.00">PWM_DeadTimeLowSet</text>
</a>
</g>
</g>
<!-- Node20&#45;&gt;Node22 -->
<g id="edge27_Node000020_Node000022" class="edge">
<title>Node20&#45;&gt;Node22</title>
<g id="a_edge27_Node000020_Node000022"><a xlink:title=" ">
<path fill="none" stroke="#63b8ff" d="M426.34,-163.6C442.95,-143.9 481.91,-101.15 524.25,-79 527.72,-77.19 531.36,-75.54 535.1,-74.05"/>
<polygon fill="#63b8ff" stroke="#63b8ff" points="535.94,-77.11 544.18,-70.46 533.59,-70.52 535.94,-77.11"/>
</a>
</g>
</g>
<!-- Node23 -->
<g id="Node000023" class="node">
<title>Node23</title>
<g id="a_Node000023"><a xlink:href="a00512.html#ga37968a783e44cd80643478d2b559dbf4" target="_top" xlink:title="This inline function sets the PWM generator specific duty cycle register.">
<polygon fill="white" stroke="#666666" points="657.62,-222 551.62,-222 551.62,-202 657.62,-202 657.62,-222"/>
<text text-anchor="middle" x="604.62" y="-208.5" font-family="Helvetica,sans-Serif" font-size="10.00">PWM_DutyCycleSet</text>
</a>
</g>
</g>
<!-- Node20&#45;&gt;Node23 -->
<g id="edge28_Node000020_Node000023" class="edge">
<title>Node20&#45;&gt;Node23</title>
<g id="a_edge28_Node000020_Node000023"><a xlink:title=" ">
<path fill="none" stroke="#63b8ff" d="M469.12,-184.48C491.66,-189.09 518.32,-194.55 541.93,-199.38"/>
<polygon fill="#63b8ff" stroke="#63b8ff" points="541.04,-202.97 551.54,-201.55 542.45,-196.12 541.04,-202.97"/>
</a>
</g>
</g>
<!-- Node24 -->
<g id="Node000024" class="node">
<title>Node24</title>
<g id="a_Node000024"><a xlink:href="a00512.html#gada46160823b0892a1af14a17c5ab516e" target="_top" xlink:title="This inline function sets the period value in count for the PWM generator specific Time Base.">
<polygon fill="white" stroke="#666666" points="649,-108 560.25,-108 560.25,-88 649,-88 649,-108"/>
<text text-anchor="middle" x="604.62" y="-94.5" font-family="Helvetica,sans-Serif" font-size="10.00">PWM_PeriodSet</text>
</a>
</g>
</g>
<!-- Node20&#45;&gt;Node24 -->
<g id="edge29_Node000020_Node000024" class="edge">
<title>Node20&#45;&gt;Node24</title>
<g id="a_edge29_Node000020_Node000024"><a xlink:title=" ">
<path fill="none" stroke="#63b8ff" d="M434.19,-163.53C454.55,-150.89 490.76,-129.74 524.25,-117 532.17,-113.99 540.71,-111.35 549.16,-109.07"/>
<polygon fill="#63b8ff" stroke="#63b8ff" points="549.93,-112.23 558.76,-106.38 548.21,-105.45 549.93,-112.23"/>
</a>
</g>
</g>
<!-- Node25 -->
<g id="Node000025" class="node">
<title>Node25</title>
<g id="a_Node000025"><a xlink:href="a00512.html#gacc5575148a6e8da6577d9be9e20541ce" target="_top" xlink:title="This inline function sets the Trigger C compare value in count for a specific PWM generator selected ...">
<polygon fill="white" stroke="#666666" points="685,-184 524.25,-184 524.25,-164 685,-164 685,-184"/>
<text text-anchor="middle" x="604.62" y="-170.5" font-family="Helvetica,sans-Serif" font-size="10.00">PWM_TriggerCCompareValueSet</text>
</a>
</g>
</g>
<!-- Node20&#45;&gt;Node25 -->
<g id="edge31_Node000020_Node000025" class="edge">
<title>Node20&#45;&gt;Node25</title>
<g id="a_edge31_Node000020_Node000025"><a xlink:title=" ">
<path fill="none" stroke="#63b8ff" d="M484.41,-174C493.71,-174 503.4,-174 513.06,-174"/>
<polygon fill="#63b8ff" stroke="#63b8ff" points="512.92,-177.5 522.92,-174 512.92,-170.5 512.92,-177.5"/>
</a>
</g>
</g>
<!-- Node27 -->
<g id="Node000027" class="node">
<title>Node27</title>
<g id="a_Node000027"><a xlink:href="a00492.html#ga9b1748de6edbef1aebeb340c642d6beb" target="_top" xlink:title="Clear the control and error histories of the control loops.">
<polygon fill="white" stroke="#666666" points="669.62,-32 539.62,-32 539.62,0 669.62,0 669.62,-32"/>
<text text-anchor="start" x="547.62" y="-18.5" font-family="Helvetica,sans-Serif" font-size="10.00">Dev_PwrCtrl_ResetControl</text>
<text text-anchor="middle" x="604.62" y="-6.5" font-family="Helvetica,sans-Serif" font-size="10.00">LoopHistories</text>
</a>
</g>
</g>
<!-- Node26&#45;&gt;Node27 -->
<g id="edge33_Node000026_Node000027" class="edge">
<title>Node26&#45;&gt;Node27</title>
<g id="a_edge33_Node000026_Node000027"><a xlink:title=" ">
<path fill="none" stroke="#63b8ff" d="M449.03,-65.63C470.21,-58.61 498.9,-49.16 524.25,-41 529.67,-39.26 535.29,-37.46 540.94,-35.66"/>
<polygon fill="#63b8ff" stroke="#63b8ff" points="541.6,-38.81 550.08,-32.45 539.49,-32.13 541.6,-38.81"/>
</a>
</g>
</g>
<!-- Node28&#45;&gt;Node9 -->
<g id="edge35_Node000028_Node000009" class="edge">
<title>Node28&#45;&gt;Node9</title>
<g id="a_edge35_Node000028_Node000009"><a xlink:title=" ">
<path fill="none" stroke="#63b8ff" d="M304.39,-470.83C321.65,-474.57 340.25,-478.6 357.22,-482.28"/>
<polygon fill="#63b8ff" stroke="#63b8ff" points="356.03,-485.82 366.55,-484.52 357.52,-478.98 356.03,-485.82"/>
</a>
</g>
</g>
</g>
</svg>

<g id="navigator" transform="translate(0 0)" fill="#404254">
  <rect fill="#f2f5e9" fill-opacity="0.5" stroke="#606060" stroke-width=".5" x="0" y="0" width="60" height="60"/>
  <use id="zoomplus" xlink:href="#zoomPlus" x="17" y="9" onmousedown="handleZoom(evt,'in')"/>
  <use id="zoomminus" xlink:href="#zoomMin" x="42" y="9" onmousedown="handleZoom(evt,'out')"/>
  <use id="reset" xlink:href="#resetDef" x="30" y="36" onmousedown="handleReset()"/>
   <use id="arrowup" xlink:href="#arrowUp" x="0" y="0" onmousedown="handlePan(0,-1)"/>
  <use id="arrowright" xlink:href="#arrowRight" x="0" y="0" onmousedown="handlePan(1,0)"/>
  <use id="arrowdown" xlink:href="#arrowDown" x="0" y="0" onmousedown="handlePan(0,1)"/>
  <use id="arrowleft" xlink:href="#arrowLeft" x="0" y="0" onmousedown="handlePan(-1,0)"/>
</g>
<svg viewBox="0 0 15 15" width="100%" height="30px" preserveAspectRatio="xMaxYMin meet">
 <g id="arrow_out" transform="scale(0.3 0.3)">
  <a xlink:href="a00491_gaebef55c78d9df043c293ffcf8a06b63f_cgraph_org.svg" target="_base">
   <rect id="button" ry="5" rx="5" y="6" x="6" height="38" width="38"
        fill="#f2f5e9" fill-opacity="0.5" stroke="#606060" stroke-width="1.0"/>
   <path id="arrow"
     d="M 11.500037,31.436501 C 11.940474,20.09759 22.043105,11.32322 32.158766,21.979434 L 37.068811,17.246167 C 37.068811,17.246167 37.088388,32 37.088388,32 L 22.160133,31.978069 C 22.160133,31.978069 26.997745,27.140456 26.997745,27.140456 C 18.528582,18.264221 13.291696,25.230495 11.500037,31.436501 z"
     style="fill:#404040;"/>
  </a>
 </g>
</svg>

<style type='text/css'>
<![CDATA[
[data-mouse-over-selected='false'] { opacity: 0.7; }
[data-mouse-over-selected='true']  { opacity: 1.0; }
]]>
</style>
<script type="application/ecmascript"><![CDATA[
document.addEventListener('DOMContentLoaded', (event) => {
  highlightEdges();
  highlightAdjacentNodes();
});
]]></script>
</svg>
