<?xml version="1.0" encoding="UTF-8" standalone="no"?>
<!DOCTYPE svg PUBLIC "-//W3C//DTD SVG 1.1//EN"
 "http://www.w3.org/Graphics/SVG/1.1/DTD/svg11.dtd">
<!-- Generated by graphviz version 8.1.0 (20230707.0739)
 -->
<!-- Title: dspic33ck&#45;dab.X/sources/pwrctrl/pwrctrl_isr_extension.c Pages: 1 -->
<svg width="2165pt" height="400pt"
 viewBox="0.00 0.00 2164.75 400.00" xmlns="http://www.w3.org/2000/svg" xmlns:xlink="http://www.w3.org/1999/xlink">
<g id="graph0" class="graph" transform="scale(1 1) rotate(0) translate(4 396)">
<title>dspic33ck&#45;dab.X/sources/pwrctrl/pwrctrl_isr_extension.c</title>
<!-- Node1 -->
<g id="Node000001" class="node">
<title>Node1</title>
<g id="a_Node000001"><a xlink:title="Contains some of the functions used in the interrupt service routine of control loop.">
<polygon fill="#999999" stroke="#666666" points="1311.12,-392 1160.88,-392 1160.88,-360 1311.12,-360 1311.12,-392"/>
<text text-anchor="start" x="1168.88" y="-378.5" font-family="Helvetica,sans-Serif" font-size="10.00">dspic33ck&#45;dab.X/sources</text>
<text text-anchor="middle" x="1236" y="-366.5" font-family="Helvetica,sans-Serif" font-size="10.00">/pwrctrl/pwrctrl_isr_extension.c</text>
</a>
</g>
</g>
<!-- Node2 -->
<g id="Node000002" class="node">
<title>Node2</title>
<g id="a_Node000002"><a xlink:title=" ">
<polygon fill="#e0e0e0" stroke="#999999" points="900.38,-88 865.62,-88 865.62,-68 900.38,-68 900.38,-88"/>
<text text-anchor="middle" x="883" y="-74.5" font-family="Helvetica,sans-Serif" font-size="10.00">xc.h</text>
</a>
</g>
</g>
<!-- Node1&#45;&gt;Node2 -->
<g id="edge1_Node000001_Node000002" class="edge">
<title>Node1&#45;&gt;Node2</title>
<g id="a_edge1_Node000001_Node000002"><a xlink:title=" ">
<path fill="none" stroke="#63b8ff" d="M1160.72,-366.96C1052.02,-353.22 864,-320.56 864,-259 864,-259 864,-259 864,-201 864,-164.69 872.32,-123.02 877.95,-98.98"/>
<polygon fill="#63b8ff" stroke="#63b8ff" points="881.55,-99.96 880.52,-89.41 874.75,-98.3 881.55,-99.96"/>
</a>
</g>
</g>
<!-- Node3 -->
<g id="Node000003" class="node">
<title>Node3</title>
<g id="a_Node000003"><a xlink:title=" ">
<polygon fill="#e0e0e0" stroke="#999999" points="1383,-150 1337,-150 1337,-130 1383,-130 1383,-150"/>
<text text-anchor="middle" x="1360" y="-136.5" font-family="Helvetica,sans-Serif" font-size="10.00">math.h</text>
</a>
</g>
</g>
<!-- Node1&#45;&gt;Node3 -->
<g id="edge2_Node000001_Node000003" class="edge">
<title>Node1&#45;&gt;Node3</title>
<g id="a_edge2_Node000001_Node000003"><a xlink:title=" ">
<path fill="none" stroke="#63b8ff" d="M1244.14,-359.65C1266.03,-318.32 1326.17,-204.84 1350.04,-159.79"/>
<polygon fill="#63b8ff" stroke="#63b8ff" points="1353.46,-161.82 1355.05,-151.34 1347.27,-158.54 1353.46,-161.82"/>
</a>
</g>
</g>
<!-- Node4 -->
<g id="Node000004" class="node">
<title>Node4</title>
<g id="a_Node000004"><a xlink:title=" ">
<polygon fill="#e0e0e0" stroke="#999999" points="1438.88,-26 1383.12,-26 1383.12,-6 1438.88,-6 1438.88,-26"/>
<text text-anchor="middle" x="1411" y="-12.5" font-family="Helvetica,sans-Serif" font-size="10.00">stdbool.h</text>
</a>
</g>
</g>
<!-- Node1&#45;&gt;Node4 -->
<g id="edge3_Node000001_Node000004" class="edge">
<title>Node1&#45;&gt;Node4</title>
<g id="a_edge3_Node000001_Node000004"><a xlink:title=" ">
<path fill="none" stroke="#63b8ff" d="M1311.36,-372.52C1518.46,-364.69 2081,-336.32 2081,-259 2081,-259 2081,-259 2081,-139 2081,-74.46 1593.64,-31.27 1450.24,-19.95"/>
<polygon fill="#63b8ff" stroke="#63b8ff" points="1450.6,-16.39 1440.36,-19.11 1450.06,-23.37 1450.6,-16.39"/>
</a>
</g>
</g>
<!-- Node5 -->
<g id="Node000005" class="node">
<title>Node5</title>
<g id="a_Node000005"><a xlink:title=" ">
<polygon fill="#e0e0e0" stroke="#999999" points="2156.75,-324 2109.25,-324 2109.25,-304 2156.75,-304 2156.75,-324"/>
<text text-anchor="middle" x="2133" y="-310.5" font-family="Helvetica,sans-Serif" font-size="10.00">stdlib.h</text>
</a>
</g>
</g>
<!-- Node1&#45;&gt;Node5 -->
<g id="edge4_Node000001_Node000005" class="edge">
<title>Node1&#45;&gt;Node5</title>
<g id="a_edge4_Node000001_Node000005"><a xlink:title=" ">
<path fill="none" stroke="#63b8ff" d="M1311.42,-374.9C1461.47,-373.73 1807.7,-366.23 2095,-324 2096.14,-323.83 2097.3,-323.65 2098.46,-323.45"/>
<polygon fill="#63b8ff" stroke="#63b8ff" points="2098.88,-326.74 2108,-321.35 2097.51,-319.87 2098.88,-326.74"/>
</a>
</g>
</g>
<!-- Node6 -->
<g id="Node000006" class="node">
<title>Node6</title>
<g id="a_Node000006"><a xlink:href="a00077.html" target="_top" xlink:title="This is the generated driver types header file for the ADC driver.">
<polygon fill="white" stroke="#666666" points="88,-26 0,-26 0,-6 88,-6 88,-26"/>
<text text-anchor="middle" x="44" y="-12.5" font-family="Helvetica,sans-Serif" font-size="10.00">adc/adc_types.h</text>
</a>
</g>
</g>
<!-- Node1&#45;&gt;Node6 -->
<g id="edge5_Node000001_Node000006" class="edge">
<title>Node1&#45;&gt;Node6</title>
<g id="a_edge5_Node000001_Node000006"><a xlink:title=" ">
<path fill="none" stroke="#63b8ff" d="M1160.7,-375.72C896.13,-377.26 25,-373.64 25,-259 25,-259 25,-259 25,-139 25,-102.69 33.32,-61.02 38.95,-36.98"/>
<polygon fill="#63b8ff" stroke="#63b8ff" points="42.55,-37.96 41.52,-27.41 35.75,-36.3 42.55,-37.96"/>
</a>
</g>
</g>
<!-- Node7 -->
<g id="Node000007" class="node">
<title>Node7</title>
<g id="a_Node000007"><a xlink:href="a00068.html" target="_top" xlink:title="This is the generated driver header file for the ADC1 driver.">
<polygon fill="white" stroke="#666666" points="164,-150 100,-150 100,-130 164,-130 164,-150"/>
<text text-anchor="middle" x="132" y="-136.5" font-family="Helvetica,sans-Serif" font-size="10.00">adc/adc1.h</text>
</a>
</g>
</g>
<!-- Node1&#45;&gt;Node7 -->
<g id="edge6_Node000001_Node000007" class="edge">
<title>Node1&#45;&gt;Node7</title>
<g id="a_edge6_Node000001_Node000007"><a xlink:title=" ">
<path fill="none" stroke="#63b8ff" d="M1160.52,-370.5C1068.91,-364.15 910.04,-350.29 776,-324 541.01,-277.92 267.14,-187.48 169.18,-153.93"/>
<polygon fill="#63b8ff" stroke="#63b8ff" points="170.51,-150.34 159.91,-150.4 168.23,-156.96 170.51,-150.34"/>
</a>
</g>
</g>
<!-- Node11 -->
<g id="Node000011" class="node">
<title>Node11</title>
<g id="a_Node000011"><a xlink:href="a00179_source.html" target="_top" xlink:title=" ">
<polygon fill="white" stroke="#666666" points="1062.75,-324 985.25,-324 985.25,-304 1062.75,-304 1062.75,-324"/>
<text text-anchor="middle" x="1024" y="-310.5" font-family="Helvetica,sans-Serif" font-size="10.00">system/pins.h</text>
</a>
</g>
</g>
<!-- Node1&#45;&gt;Node11 -->
<g id="edge16_Node000001_Node000011" class="edge">
<title>Node1&#45;&gt;Node11</title>
<g id="a_edge16_Node000001_Node000011"><a xlink:title=" ">
<path fill="none" stroke="#63b8ff" d="M1181.4,-359.55C1146.09,-349.55 1100.73,-336.72 1067.79,-327.39"/>
<polygon fill="#63b8ff" stroke="#63b8ff" points="1069.13,-323.85 1058.55,-324.5 1067.22,-330.59 1069.13,-323.85"/>
</a>
</g>
</g>
<!-- Node12 -->
<g id="Node000012" class="node">
<title>Node12</title>
<g id="a_Node000012"><a xlink:href="a00293_source.html" target="_top" xlink:title=" ">
<polygon fill="white" stroke="#666666" points="1227.5,-212 1142.5,-212 1142.5,-192 1227.5,-192 1227.5,-212"/>
<text text-anchor="middle" x="1185" y="-198.5" font-family="Helvetica,sans-Serif" font-size="10.00">config/macros.h</text>
</a>
</g>
</g>
<!-- Node1&#45;&gt;Node12 -->
<g id="edge18_Node000001_Node000012" class="edge">
<title>Node1&#45;&gt;Node12</title>
<g id="a_edge18_Node000001_Node000012"><a xlink:title=" ">
<path fill="none" stroke="#63b8ff" d="M1231.47,-359.74C1222.19,-328.42 1200.99,-256.94 1190.75,-222.4"/>
<polygon fill="#63b8ff" stroke="#63b8ff" points="1193.93,-221.8 1187.73,-213.21 1187.22,-223.79 1193.93,-221.8"/>
</a>
</g>
</g>
<!-- Node15 -->
<g id="Node000015" class="node">
<title>Node15</title>
<g id="a_Node000015"><a xlink:href="a00287_source.html" target="_top" xlink:title=" ">
<polygon fill="white" stroke="#666666" points="1280.88,-150 1231.12,-150 1231.12,-130 1280.88,-130 1280.88,-150"/>
<text text-anchor="middle" x="1256" y="-136.5" font-family="Helvetica,sans-Serif" font-size="10.00">config.h</text>
</a>
</g>
</g>
<!-- Node1&#45;&gt;Node15 -->
<g id="edge32_Node000001_Node000015" class="edge">
<title>Node1&#45;&gt;Node15</title>
<g id="a_edge32_Node000001_Node000015"><a xlink:title=" ">
<path fill="none" stroke="#63b8ff" d="M1237.31,-359.65C1240.81,-318.76 1250.34,-207.22 1254.27,-161.24"/>
<polygon fill="#63b8ff" stroke="#63b8ff" points="1257.84,-161.61 1255.2,-151.34 1250.86,-161.01 1257.84,-161.61"/>
</a>
</g>
</g>
<!-- Node17 -->
<g id="Node000017" class="node">
<title>Node17</title>
<g id="a_Node000017"><a xlink:href="a00446_source.html" target="_top" xlink:title=" ">
<polygon fill="white" stroke="#666666" points="1830.38,-324 1777.62,-324 1777.62,-304 1830.38,-304 1830.38,-324"/>
<text text-anchor="middle" x="1804" y="-310.5" font-family="Helvetica,sans-Serif" font-size="10.00">pwrctrl.h</text>
</a>
</g>
</g>
<!-- Node1&#45;&gt;Node17 -->
<g id="edge33_Node000001_Node000017" class="edge">
<title>Node1&#45;&gt;Node17</title>
<g id="a_edge33_Node000001_Node000017"><a xlink:title=" ">
<path fill="none" stroke="#63b8ff" d="M1311.43,-367.03C1434.54,-354.03 1674.21,-328.71 1766.51,-318.96"/>
<polygon fill="#63b8ff" stroke="#63b8ff" points="1766.7,-322.35 1776.28,-317.82 1765.96,-315.39 1766.7,-322.35"/>
</a>
</g>
</g>
<!-- Node25 -->
<g id="Node000025" class="node">
<title>Node25</title>
<g id="a_Node000025"><a xlink:href="a00365.html" target="_top" xlink:title="Contains public fault functions.">
<polygon fill="white" stroke="#666666" points="1537.62,-324 1474.38,-324 1474.38,-304 1537.62,-304 1537.62,-324"/>
<text text-anchor="middle" x="1506" y="-310.5" font-family="Helvetica,sans-Serif" font-size="10.00">fault/fault.h</text>
</a>
</g>
</g>
<!-- Node1&#45;&gt;Node25 -->
<g id="edge44_Node000001_Node000025" class="edge">
<title>Node1&#45;&gt;Node25</title>
<g id="a_edge44_Node000001_Node000025"><a xlink:title=" ">
<path fill="none" stroke="#63b8ff" d="M1305.53,-359.55C1355.55,-348.43 1421.39,-333.8 1463.72,-324.4"/>
<polygon fill="#63b8ff" stroke="#63b8ff" points="1464.21,-327.65 1473.21,-322.06 1462.69,-320.82 1464.21,-327.65"/>
</a>
</g>
</g>
<!-- Node29 -->
<g id="Node000029" class="node">
<title>Node29</title>
<g id="a_Node000029"><a xlink:href="a00428.html" target="_top" xlink:title="Contains public functions and data types relevant for DCDT file interface.">
<polygon fill="white" stroke="#666666" points="544.25,-212 445.75,-212 445.75,-192 544.25,-192 544.25,-212"/>
<text text-anchor="middle" x="495" y="-198.5" font-family="Helvetica,sans-Serif" font-size="10.00">dcdt/pwrctrl_dcdt.h</text>
</a>
</g>
</g>
<!-- Node1&#45;&gt;Node29 -->
<g id="edge61_Node000001_Node000029" class="edge">
<title>Node1&#45;&gt;Node29</title>
<g id="a_edge61_Node000001_Node000029"><a xlink:title=" ">
<path fill="none" stroke="#63b8ff" d="M1160.49,-369.45C1082.1,-362.67 956.29,-348.88 850,-324 728.04,-295.45 588.91,-241.48 527.29,-216.42"/>
<polygon fill="#63b8ff" stroke="#63b8ff" points="528.97,-212.92 518.39,-212.37 526.32,-219.39 528.97,-212.92"/>
</a>
</g>
</g>
<!-- Node7&#45;&gt;Node2 -->
<g id="edge7_Node000007_Node000002" class="edge">
<title>Node7&#45;&gt;Node2</title>
<g id="a_edge7_Node000007_Node000002"><a xlink:title=" ">
<path fill="none" stroke="#63b8ff" d="M164.15,-131.98C178.43,-129.1 195.49,-125.98 211,-124 459.03,-92.27 761.61,-82.15 854.52,-79.68"/>
<polygon fill="#63b8ff" stroke="#63b8ff" points="854.37,-83.16 864.27,-79.4 854.19,-76.16 854.37,-83.16"/>
</a>
</g>
</g>
<!-- Node7&#45;&gt;Node4 -->
<g id="edge8_Node000007_Node000004" class="edge">
<title>Node7&#45;&gt;Node4</title>
<g id="a_edge8_Node000007_Node000004"><a xlink:title=" ">
<path fill="none" stroke="#63b8ff" d="M164.17,-132.15C178.46,-129.3 195.51,-126.16 211,-124 665.28,-60.78 1221.79,-27.36 1372.07,-19.07"/>
<polygon fill="#63b8ff" stroke="#63b8ff" points="1372.18,-22.51 1381.98,-18.47 1371.8,-15.52 1372.18,-22.51"/>
</a>
</g>
</g>
<!-- Node7&#45;&gt;Node6 -->
<g id="edge10_Node000007_Node000006" class="edge">
<title>Node7&#45;&gt;Node6</title>
<g id="a_edge10_Node000007_Node000006"><a xlink:title=" ">
<path fill="none" stroke="#63b8ff" d="M121.13,-129.61C110.34,-119.91 93.74,-103.99 82,-88 69.88,-71.5 59.19,-50.64 52.26,-35.81"/>
<polygon fill="#63b8ff" stroke="#63b8ff" points="55.23,-34.89 47.91,-27.23 48.86,-37.78 55.23,-34.89"/>
</a>
</g>
</g>
<!-- Node8 -->
<g id="Node000008" class="node">
<title>Node8</title>
<g id="a_Node000008"><a xlink:title=" ">
<polygon fill="#e0e0e0" stroke="#999999" points="339.12,-26 290.88,-26 290.88,-6 339.12,-6 339.12,-26"/>
<text text-anchor="middle" x="315" y="-12.5" font-family="Helvetica,sans-Serif" font-size="10.00">stdint.h</text>
</a>
</g>
</g>
<!-- Node7&#45;&gt;Node8 -->
<g id="edge9_Node000007_Node000008" class="edge">
<title>Node7&#45;&gt;Node8</title>
<g id="a_edge9_Node000007_Node000008"><a xlink:title=" ">
<path fill="none" stroke="#63b8ff" d="M143.37,-129.51C160.53,-115.37 194.32,-88.27 225,-68 245.14,-54.7 268.93,-41.31 286.99,-31.59"/>
<polygon fill="#63b8ff" stroke="#63b8ff" points="288.46,-34.24 295.64,-26.45 285.17,-28.06 288.46,-34.24"/>
</a>
</g>
</g>
<!-- Node9 -->
<g id="Node000009" class="node">
<title>Node9</title>
<g id="a_Node000009"><a xlink:href="a00074_source.html" target="_top" xlink:title=" ">
<polygon fill="white" stroke="#666666" points="173,-88 91,-88 91,-68 173,-68 173,-88"/>
<text text-anchor="middle" x="132" y="-74.5" font-family="Helvetica,sans-Serif" font-size="10.00">adc_interface.h</text>
</a>
</g>
</g>
<!-- Node7&#45;&gt;Node9 -->
<g id="edge11_Node000007_Node000009" class="edge">
<title>Node7&#45;&gt;Node9</title>
<g id="a_edge11_Node000007_Node000009"><a xlink:title=" ">
<path fill="none" stroke="#63b8ff" d="M132,-129.62C132,-121.48 132,-109.39 132,-99.07"/>
<polygon fill="#63b8ff" stroke="#63b8ff" points="135.5,-99.11 132,-89.11 128.5,-99.11 135.5,-99.11"/>
</a>
</g>
</g>
<!-- Node9&#45;&gt;Node4 -->
<g id="edge13_Node000009_Node000004" class="edge">
<title>Node9&#45;&gt;Node4</title>
<g id="a_edge13_Node000009_Node000004"><a xlink:title=" ">
<path fill="none" stroke="#63b8ff" d="M173.16,-72.54C189.31,-70.91 208.01,-69.19 225,-68 675.34,-36.55 1223.31,-21.58 1372.14,-17.92"/>
<polygon fill="#63b8ff" stroke="#63b8ff" points="1372.04,-21.39 1381.95,-17.65 1371.87,-14.4 1372.04,-21.39"/>
</a>
</g>
</g>
<!-- Node9&#45;&gt;Node6 -->
<g id="edge14_Node000009_Node000006" class="edge">
<title>Node9&#45;&gt;Node6</title>
<g id="a_edge14_Node000009_Node000006"><a xlink:title=" ">
<path fill="none" stroke="#63b8ff" d="M118.25,-67.62C104.43,-58.2 82.89,-43.52 66.57,-32.39"/>
<polygon fill="#63b8ff" stroke="#63b8ff" points="68.89,-29.05 58.65,-26.31 64.94,-34.83 68.89,-29.05"/>
</a>
</g>
</g>
<!-- Node9&#45;&gt;Node8 -->
<g id="edge12_Node000009_Node000008" class="edge">
<title>Node9&#45;&gt;Node8</title>
<g id="a_edge12_Node000009_Node000008"><a xlink:title=" ">
<path fill="none" stroke="#63b8ff" d="M160.59,-67.62C192.93,-57.02 245.6,-39.76 280.27,-28.39"/>
<polygon fill="#63b8ff" stroke="#63b8ff" points="281,-31.5 289.41,-25.06 278.82,-24.85 281,-31.5"/>
</a>
</g>
</g>
<!-- Node10 -->
<g id="Node000010" class="node">
<title>Node10</title>
<g id="a_Node000010"><a xlink:href="a00176_source.html" target="_top" xlink:title=" ">
<polygon fill="white" stroke="#666666" points="201.75,-32 106.25,-32 106.25,0 201.75,0 201.75,-32"/>
<text text-anchor="start" x="114.25" y="-18.5" font-family="Helvetica,sans-Serif" font-size="10.00">../system/interrupt</text>
<text text-anchor="middle" x="154" y="-6.5" font-family="Helvetica,sans-Serif" font-size="10.00">_types.h</text>
</a>
</g>
</g>
<!-- Node9&#45;&gt;Node10 -->
<g id="edge15_Node000009_Node000010" class="edge">
<title>Node9&#45;&gt;Node10</title>
<g id="a_edge15_Node000009_Node000010"><a xlink:title=" ">
<path fill="none" stroke="#63b8ff" d="M135.44,-67.62C137.94,-60.8 141.45,-51.22 144.75,-42.23"/>
<polygon fill="#63b8ff" stroke="#63b8ff" points="148.29,-43.73 148.45,-33.14 141.72,-41.32 148.29,-43.73"/>
</a>
</g>
</g>
<!-- Node11&#45;&gt;Node2 -->
<g id="edge17_Node000011_Node000002" class="edge">
<title>Node11&#45;&gt;Node2</title>
<g id="a_edge17_Node000011_Node000002"><a xlink:title=" ">
<path fill="none" stroke="#63b8ff" d="M1016.47,-303.51C997.82,-279.71 948.58,-215.11 916,-156 905.61,-137.14 896.2,-114.34 890.11,-98.46"/>
<polygon fill="#63b8ff" stroke="#63b8ff" points="893.08,-97.42 886.3,-89.28 886.53,-99.88 893.08,-97.42"/>
</a>
</g>
</g>
<!-- Node12&#45;&gt;Node2 -->
<g id="edge19_Node000012_Node000002" class="edge">
<title>Node12&#45;&gt;Node2</title>
<g id="a_edge19_Node000012_Node000002"><a xlink:title=" ">
<path fill="none" stroke="#63b8ff" d="M1142.09,-199.88C1094.67,-197.01 1017.29,-187.41 959,-156 932.25,-141.58 908.95,-114.63 895.43,-96.75"/>
<polygon fill="#63b8ff" stroke="#63b8ff" points="898.01,-95.35 889.29,-89.34 892.36,-99.48 898.01,-95.35"/>
</a>
</g>
</g>
<!-- Node12&#45;&gt;Node3 -->
<g id="edge23_Node000012_Node000003" class="edge">
<title>Node12&#45;&gt;Node3</title>
<g id="a_edge23_Node000012_Node000003"><a xlink:title=" ">
<path fill="none" stroke="#63b8ff" d="M1216.18,-191.52C1244.29,-182.81 1286.67,-169.27 1323,-156 1324.46,-155.46 1325.96,-154.91 1327.46,-154.34"/>
<polygon fill="#63b8ff" stroke="#63b8ff" points="1328.36,-157.35 1336.4,-150.45 1325.81,-150.83 1328.36,-157.35"/>
</a>
</g>
</g>
<!-- Node12&#45;&gt;Node4 -->
<g id="edge21_Node000012_Node000004" class="edge">
<title>Node12&#45;&gt;Node4</title>
<g id="a_edge21_Node000012_Node000004"><a xlink:title=" ">
<path fill="none" stroke="#63b8ff" d="M1187.5,-191.66C1192.07,-176.03 1203.1,-144.3 1222,-124 1264.76,-78.08 1331.78,-46.65 1373.46,-30.27"/>
<polygon fill="#63b8ff" stroke="#63b8ff" points="1374.4,-33.28 1382.48,-26.43 1371.89,-26.74 1374.4,-33.28"/>
</a>
</g>
</g>
<!-- Node12&#45;&gt;Node8 -->
<g id="edge20_Node000012_Node000008" class="edge">
<title>Node12&#45;&gt;Node8</title>
<g id="a_edge20_Node000012_Node000008"><a xlink:title=" ">
<path fill="none" stroke="#63b8ff" d="M1182.96,-191.54C1178.9,-175.14 1168.25,-141.52 1146,-124 1060.96,-57.04 1015.87,-85.12 909,-68 698.77,-34.32 442.87,-21.84 350.43,-18.23"/>
<polygon fill="#63b8ff" stroke="#63b8ff" points="350.61,-14.7 340.49,-17.82 350.35,-21.69 350.61,-14.7"/>
</a>
</g>
</g>
<!-- Node13 -->
<g id="Node000013" class="node">
<title>Node13</title>
<g id="a_Node000013"><a xlink:title=" ">
<polygon fill="#e0e0e0" stroke="#999999" points="1490.25,-88 1439.75,-88 1439.75,-68 1490.25,-68 1490.25,-88"/>
<text text-anchor="middle" x="1465" y="-74.5" font-family="Helvetica,sans-Serif" font-size="10.00">stddef.h</text>
</a>
</g>
</g>
<!-- Node12&#45;&gt;Node13 -->
<g id="edge22_Node000012_Node000013" class="edge">
<title>Node12&#45;&gt;Node13</title>
<g id="a_edge22_Node000012_Node000013"><a xlink:title=" ">
<path fill="none" stroke="#63b8ff" d="M1212.85,-191.63C1234.67,-183.69 1265.35,-171.19 1290,-156 1308.8,-144.41 1308.72,-134.75 1328,-124 1360.09,-106.11 1400.41,-93.94 1428.98,-86.82"/>
<polygon fill="#63b8ff" stroke="#63b8ff" points="1429.4,-90.07 1438.31,-84.33 1427.77,-83.27 1429.4,-90.07"/>
</a>
</g>
</g>
<!-- Node14 -->
<g id="Node000014" class="node">
<title>Node14</title>
<g id="a_Node000014"><a xlink:href="a00296_source.html" target="_top" xlink:title=" ">
<polygon fill="white" stroke="#666666" points="1136.62,-150 1049.38,-150 1049.38,-130 1136.62,-130 1136.62,-150"/>
<text text-anchor="middle" x="1093" y="-136.5" font-family="Helvetica,sans-Serif" font-size="10.00">useful_macros.h</text>
</a>
</g>
</g>
<!-- Node12&#45;&gt;Node14 -->
<g id="edge24_Node000012_Node000014" class="edge">
<title>Node12&#45;&gt;Node14</title>
<g id="a_edge24_Node000012_Node000014"><a xlink:title=" ">
<path fill="none" stroke="#63b8ff" d="M1170.62,-191.62C1156.04,-182.11 1133.24,-167.24 1116.12,-156.08"/>
<polygon fill="#63b8ff" stroke="#63b8ff" points="1118.56,-152.84 1108.27,-150.31 1114.74,-158.7 1118.56,-152.84"/>
</a>
</g>
</g>
<!-- Node12&#45;&gt;Node15 -->
<g id="edge26_Node000012_Node000015" class="edge">
<title>Node12&#45;&gt;Node15</title>
<g id="a_edge26_Node000012_Node000015"><a xlink:title=" ">
<path fill="none" stroke="#63b8ff" d="M1196.09,-191.62C1206.99,-182.41 1223.85,-168.17 1236.9,-157.14"/>
<polygon fill="#63b8ff" stroke="#63b8ff" points="1238.84,-159.24 1244.22,-150.11 1234.32,-153.89 1238.84,-159.24"/>
</a>
</g>
</g>
<!-- Node16 -->
<g id="Node000016" class="node">
<title>Node16</title>
<g id="a_Node000016"><a xlink:href="a00290_source.html" target="_top" xlink:title=" ">
<polygon fill="white" stroke="#666666" points="1031.62,-150 968.38,-150 968.38,-130 1031.62,-130 1031.62,-150"/>
<text text-anchor="middle" x="1000" y="-136.5" font-family="Helvetica,sans-Serif" font-size="10.00">hardware.h</text>
</a>
</g>
</g>
<!-- Node12&#45;&gt;Node16 -->
<g id="edge31_Node000012_Node000016" class="edge">
<title>Node12&#45;&gt;Node16</title>
<g id="a_edge31_Node000012_Node000016"><a xlink:title=" ">
<path fill="none" stroke="#63b8ff" d="M1152.58,-191.52C1123.07,-182.76 1078.4,-169.15 1040,-156 1038.26,-155.41 1036.49,-154.79 1034.7,-154.15"/>
<polygon fill="#63b8ff" stroke="#63b8ff" points="1036.05,-150.56 1025.46,-150.43 1033.66,-157.13 1036.05,-150.56"/>
</a>
</g>
</g>
<!-- Node14&#45;&gt;Node2 -->
<g id="edge25_Node000014_Node000002" class="edge">
<title>Node14&#45;&gt;Node2</title>
<g id="a_edge25_Node000014_Node000002"><a xlink:title=" ">
<path fill="none" stroke="#63b8ff" d="M1060.27,-129.54C1053.88,-127.7 1047.23,-125.79 1041,-124 995.38,-110.92 942.32,-95.84 910.76,-86.88"/>
<polygon fill="#63b8ff" stroke="#63b8ff" points="912.12,-83.34 901.54,-83.97 910.21,-90.07 912.12,-83.34"/>
</a>
</g>
</g>
<!-- Node15&#45;&gt;Node2 -->
<g id="edge27_Node000015_Node000002" class="edge">
<title>Node15&#45;&gt;Node2</title>
<g id="a_edge27_Node000015_Node000002"><a xlink:title=" ">
<path fill="none" stroke="#63b8ff" d="M1230.66,-134.92C1163.56,-124.13 981.63,-94.87 911.29,-83.55"/>
<polygon fill="#63b8ff" stroke="#63b8ff" points="912.05,-79.97 901.62,-81.83 910.94,-86.88 912.05,-79.97"/>
</a>
</g>
</g>
<!-- Node15&#45;&gt;Node4 -->
<g id="edge29_Node000015_Node000004" class="edge">
<title>Node15&#45;&gt;Node4</title>
<g id="a_edge29_Node000015_Node000004"><a xlink:title=" ">
<path fill="none" stroke="#63b8ff" d="M1267.91,-129.63C1294.34,-108.82 1358.19,-58.57 1390.92,-32.81"/>
<polygon fill="#63b8ff" stroke="#63b8ff" points="1392.57,-35.17 1398.27,-26.24 1388.24,-29.67 1392.57,-35.17"/>
</a>
</g>
</g>
<!-- Node15&#45;&gt;Node8 -->
<g id="edge28_Node000015_Node000008" class="edge">
<title>Node15&#45;&gt;Node8</title>
<g id="a_edge28_Node000015_Node000008"><a xlink:title=" ">
<path fill="none" stroke="#63b8ff" d="M1253.94,-129.62C1249.91,-113.78 1239.37,-82.1 1217,-68 1142.73,-21.18 508.41,-17.25 350.49,-17"/>
<polygon fill="#63b8ff" stroke="#63b8ff" points="350.55,-13.5 340.55,-16.98 350.54,-20.5 350.55,-13.5"/>
</a>
</g>
</g>
<!-- Node15&#45;&gt;Node13 -->
<g id="edge30_Node000015_Node000013" class="edge">
<title>Node15&#45;&gt;Node13</title>
<g id="a_edge30_Node000015_Node000013"><a xlink:title=" ">
<path fill="none" stroke="#63b8ff" d="M1279.36,-129.54C1284.48,-127.6 1289.89,-125.65 1295,-124 1340.61,-109.24 1394.22,-95.66 1428.86,-87.36"/>
<polygon fill="#63b8ff" stroke="#63b8ff" points="1429.48,-90.57 1438.4,-84.86 1427.87,-83.76 1429.48,-90.57"/>
</a>
</g>
</g>
<!-- Node18 -->
<g id="Node000018" class="node">
<title>Node18</title>
<g id="a_Node000018"><a xlink:href="a00479_source.html" target="_top" xlink:title=" ">
<polygon fill="white" stroke="#666666" points="1789.75,-212 1700.25,-212 1700.25,-192 1789.75,-192 1789.75,-212"/>
<text text-anchor="middle" x="1745" y="-198.5" font-family="Helvetica,sans-Serif" font-size="10.00">pwrctrl_typedef.h</text>
</a>
</g>
</g>
<!-- Node17&#45;&gt;Node18 -->
<g id="edge34_Node000017_Node000018" class="edge">
<title>Node17&#45;&gt;Node18</title>
<g id="a_edge34_Node000017_Node000018"><a xlink:title=" ">
<path fill="none" stroke="#63b8ff" d="M1830.72,-313.66C1900.19,-314.53 2077.52,-310.84 2024,-248 1995.94,-215.05 1874.02,-206.14 1800.96,-203.79"/>
<polygon fill="#63b8ff" stroke="#63b8ff" points="1801.21,-200.27 1791.11,-203.48 1801.01,-207.26 1801.21,-200.27"/>
</a>
</g>
</g>
<!-- Node21 -->
<g id="Node000021" class="node">
<title>Node21</title>
<g id="a_Node000021"><a xlink:href="a00452.html" target="_top" xlink:title="Contains the power control reusable functions.">
<polygon fill="white" stroke="#666666" points="1686.75,-268 1591.25,-268 1591.25,-248 1686.75,-248 1686.75,-268"/>
<text text-anchor="middle" x="1639" y="-254.5" font-family="Helvetica,sans-Serif" font-size="10.00">pwrctrl_common.h</text>
</a>
</g>
</g>
<!-- Node17&#45;&gt;Node21 -->
<g id="edge39_Node000017_Node000021" class="edge">
<title>Node17&#45;&gt;Node21</title>
<g id="a_edge39_Node000017_Node000021"><a xlink:title=" ">
<path fill="none" stroke="#63b8ff" d="M1777.49,-304.32C1750.68,-295.55 1708.93,-281.89 1678.28,-271.86"/>
<polygon fill="#63b8ff" stroke="#63b8ff" points="1679.54,-268.26 1668.94,-268.47 1677.36,-274.91 1679.54,-268.26"/>
</a>
</g>
</g>
<!-- Node22 -->
<g id="Node000022" class="node">
<title>Node22</title>
<g id="a_Node000022"><a xlink:href="a00458.html" target="_top" xlink:title="Contains public functions relevant for power control communication interface.">
<polygon fill="white" stroke="#666666" points="1928.5,-268 1801.5,-268 1801.5,-248 1928.5,-248 1928.5,-268"/>
<text text-anchor="middle" x="1865" y="-254.5" font-family="Helvetica,sans-Serif" font-size="10.00">pwrctrl_comm_interface.h</text>
</a>
</g>
</g>
<!-- Node17&#45;&gt;Node22 -->
<g id="edge40_Node000017_Node000022" class="edge">
<title>Node17&#45;&gt;Node22</title>
<g id="a_edge40_Node000017_Node000022"><a xlink:title=" ">
<path fill="none" stroke="#63b8ff" d="M1814.63,-303.59C1823.37,-295.85 1835.98,-284.69 1846.4,-275.47"/>
<polygon fill="#63b8ff" stroke="#63b8ff" points="1848.33,-278.55 1853.5,-269.3 1843.69,-273.31 1848.33,-278.55"/>
</a>
</g>
</g>
<!-- Node23 -->
<g id="Node000023" class="node">
<title>Node23</title>
<g id="a_Node000023"><a xlink:href="a00464.html" target="_top" xlink:title="Contains public function relevant for power control interrupt.">
<polygon fill="white" stroke="#666666" points="2015.25,-268 1946.75,-268 1946.75,-248 2015.25,-248 2015.25,-268"/>
<text text-anchor="middle" x="1981" y="-254.5" font-family="Helvetica,sans-Serif" font-size="10.00">pwrctrl_isr.h</text>
</a>
</g>
</g>
<!-- Node17&#45;&gt;Node23 -->
<g id="edge41_Node000017_Node000023" class="edge">
<title>Node17&#45;&gt;Node23</title>
<g id="a_edge41_Node000017_Node000023"><a xlink:title=" ">
<path fill="none" stroke="#63b8ff" d="M1830.5,-304.92C1859.39,-296.1 1906,-281.88 1939.7,-271.6"/>
<polygon fill="#63b8ff" stroke="#63b8ff" points="1940.6,-274.68 1949.15,-268.41 1938.56,-267.98 1940.6,-274.68"/>
</a>
</g>
</g>
<!-- Node24 -->
<g id="Node000024" class="node">
<title>Node24</title>
<g id="a_Node000024"><a xlink:href="a00473.html" target="_top" xlink:title="Contains public functions for PWM.">
<polygon fill="white" stroke="#666666" points="1783.12,-268 1704.88,-268 1704.88,-248 1783.12,-248 1783.12,-268"/>
<text text-anchor="middle" x="1744" y="-254.5" font-family="Helvetica,sans-Serif" font-size="10.00">pwrctrl_pwm.h</text>
</a>
</g>
</g>
<!-- Node17&#45;&gt;Node24 -->
<g id="edge42_Node000017_Node000024" class="edge">
<title>Node17&#45;&gt;Node24</title>
<g id="a_edge42_Node000017_Node000024"><a xlink:title=" ">
<path fill="none" stroke="#63b8ff" d="M1793.55,-303.59C1784.95,-295.85 1772.54,-284.69 1762.3,-275.47"/>
<polygon fill="#63b8ff" stroke="#63b8ff" points="1765.11,-273.39 1755.33,-269.3 1760.42,-278.59 1765.11,-273.39"/>
</a>
</g>
</g>
<!-- Node19 -->
<g id="Node000019" class="node">
<title>Node19</title>
<g id="a_Node000019"><a xlink:href="a00380.html" target="_top" xlink:title="Contains fault data types.">
<polygon fill="white" stroke="#666666" points="1795,-150 1695,-150 1695,-130 1795,-130 1795,-150"/>
<text text-anchor="middle" x="1745" y="-136.5" font-family="Helvetica,sans-Serif" font-size="10.00">fault/fault_typedef.h</text>
</a>
</g>
</g>
<!-- Node18&#45;&gt;Node19 -->
<g id="edge35_Node000018_Node000019" class="edge">
<title>Node18&#45;&gt;Node19</title>
<g id="a_edge35_Node000018_Node000019"><a xlink:title=" ">
<path fill="none" stroke="#63b8ff" d="M1745,-191.62C1745,-183.48 1745,-171.39 1745,-161.07"/>
<polygon fill="#63b8ff" stroke="#63b8ff" points="1748.5,-161.11 1745,-151.11 1741.5,-161.11 1748.5,-161.11"/>
</a>
</g>
</g>
<!-- Node20 -->
<g id="Node000020" class="node">
<title>Node20</title>
<g id="a_Node000020"><a xlink:href="a00371.html" target="_top" xlink:title="Contains fault generic public functions.">
<polygon fill="white" stroke="#666666" points="1742.5,-88 1657.5,-88 1657.5,-68 1742.5,-68 1742.5,-88"/>
<text text-anchor="middle" x="1700" y="-74.5" font-family="Helvetica,sans-Serif" font-size="10.00">fault_common.h</text>
</a>
</g>
</g>
<!-- Node19&#45;&gt;Node20 -->
<g id="edge36_Node000019_Node000020" class="edge">
<title>Node19&#45;&gt;Node20</title>
<g id="a_edge36_Node000019_Node000020"><a xlink:title=" ">
<path fill="none" stroke="#63b8ff" d="M1737.97,-129.62C1731.39,-120.86 1721.4,-107.53 1713.31,-96.75"/>
<polygon fill="#63b8ff" stroke="#63b8ff" points="1715.63,-95.01 1706.83,-89.11 1710.03,-99.21 1715.63,-95.01"/>
</a>
</g>
</g>
<!-- Node20&#45;&gt;Node4 -->
<g id="edge38_Node000020_Node000004" class="edge">
<title>Node20&#45;&gt;Node4</title>
<g id="a_edge38_Node000020_Node000004"><a xlink:title=" ">
<path fill="none" stroke="#63b8ff" d="M1657.05,-68.08C1601,-56.45 1503.74,-36.25 1449.81,-25.06"/>
<polygon fill="#63b8ff" stroke="#63b8ff" points="1450.82,-21.48 1440.31,-22.88 1449.39,-28.34 1450.82,-21.48"/>
</a>
</g>
</g>
<!-- Node20&#45;&gt;Node8 -->
<g id="edge37_Node000020_Node000008" class="edge">
<title>Node20&#45;&gt;Node8</title>
<g id="a_edge37_Node000020_Node000008"><a xlink:title=" ">
<path fill="none" stroke="#63b8ff" d="M1657.26,-75.07C1616.57,-73.23 1553.61,-70.4 1499,-68 1045.21,-48.07 493.55,-24.58 350.31,-18.5"/>
<polygon fill="#63b8ff" stroke="#63b8ff" points="350.72,-14.97 340.58,-18.04 350.43,-21.96 350.72,-14.97"/>
</a>
</g>
</g>
<!-- Node24&#45;&gt;Node18 -->
<g id="edge43_Node000024_Node000018" class="edge">
<title>Node24&#45;&gt;Node18</title>
<g id="a_edge43_Node000024_Node000018"><a xlink:title=" ">
<path fill="none" stroke="#63b8ff" d="M1744.17,-247.59C1744.3,-240.86 1744.47,-231.53 1744.63,-223.15"/>
<polygon fill="#63b8ff" stroke="#63b8ff" points="1748.14,-223.36 1744.83,-213.3 1741.14,-223.23 1748.14,-223.36"/>
</a>
</g>
</g>
<!-- Node25&#45;&gt;Node13 -->
<g id="edge45_Node000025_Node000013" class="edge">
<title>Node25&#45;&gt;Node13</title>
<g id="a_edge45_Node000025_Node000013"><a xlink:title=" ">
<path fill="none" stroke="#63b8ff" d="M1510.5,-303.85C1517.34,-290.54 1531.34,-265.53 1548,-248 1566.87,-228.16 1585.52,-236.37 1598,-212 1608.53,-191.44 1609.57,-150.5 1588,-124 1566.84,-98 1529.26,-87.02 1501.19,-82.39"/>
<polygon fill="#63b8ff" stroke="#63b8ff" points="1501.97,-78.82 1491.57,-80.86 1500.97,-85.75 1501.97,-78.82"/>
</a>
</g>
</g>
<!-- Node25&#45;&gt;Node15 -->
<g id="edge60_Node000025_Node000015" class="edge">
<title>Node25&#45;&gt;Node15</title>
<g id="a_edge60_Node000025_Node000015"><a xlink:title=" ">
<path fill="none" stroke="#63b8ff" d="M1492.2,-303.51C1451.14,-275.26 1329.43,-191.52 1278.65,-156.58"/>
<polygon fill="#63b8ff" stroke="#63b8ff" points="1280.98,-153.25 1270.75,-150.46 1277.01,-159.01 1280.98,-153.25"/>
</a>
</g>
</g>
<!-- Node25&#45;&gt;Node18 -->
<g id="edge58_Node000025_Node000018" class="edge">
<title>Node25&#45;&gt;Node18</title>
<g id="a_edge58_Node000025_Node000018"><a xlink:title=" ">
<path fill="none" stroke="#63b8ff" d="M1514.39,-303.56C1527.46,-289.43 1554.1,-262.83 1582,-248 1615.42,-230.24 1656.52,-218.95 1689.09,-212.13"/>
<polygon fill="#63b8ff" stroke="#63b8ff" points="1689.67,-215.38 1698.78,-209.98 1688.29,-208.52 1689.67,-215.38"/>
</a>
</g>
</g>
<!-- Node25&#45;&gt;Node21 -->
<g id="edge59_Node000025_Node000021" class="edge">
<title>Node25&#45;&gt;Node21</title>
<g id="a_edge59_Node000025_Node000021"><a xlink:title=" ">
<path fill="none" stroke="#63b8ff" d="M1529.17,-303.59C1550.3,-295.01 1581.78,-282.23 1605.63,-272.55"/>
<polygon fill="#63b8ff" stroke="#63b8ff" points="1606.7,-275.48 1614.65,-268.48 1604.07,-269 1606.7,-275.48"/>
</a>
</g>
</g>
<!-- Node25&#45;&gt;Node24 -->
<g id="edge57_Node000025_Node000024" class="edge">
<title>Node25&#45;&gt;Node24</title>
<g id="a_edge57_Node000025_Node000024"><a xlink:title=" ">
<path fill="none" stroke="#63b8ff" d="M1538.1,-305.72C1578.12,-296.64 1646.98,-281.01 1693.95,-270.36"/>
<polygon fill="#63b8ff" stroke="#63b8ff" points="1694.53,-273.59 1703.51,-267.96 1692.98,-266.76 1694.53,-273.59"/>
</a>
</g>
</g>
<!-- Node25&#45;&gt;Node25 -->
<g id="edge56_Node000025_Node000025" class="edge">
<title>Node25&#45;&gt;Node25</title>
<g id="a_edge56_Node000025_Node000025"><a xlink:title=" ">
<path fill="none" stroke="#63b8ff" d="M1537.98,-324.49C1547.86,-324.28 1555.62,-320.78 1555.62,-314 1555.62,-309.97 1552.89,-307.11 1548.6,-305.39"/>
<polygon fill="#63b8ff" stroke="#63b8ff" points="1549.44,-301.81 1538.98,-303.51 1548.21,-308.7 1549.44,-301.81"/>
</a>
</g>
</g>
<!-- Node26 -->
<g id="Node000026" class="node">
<title>Node26</title>
<g id="a_Node000026"><a xlink:href="a00107.html" target="_top" xlink:title="This is the generated driver header file for the CMP1 driver.">
<polygon fill="white" stroke="#666666" points="1589,-212 1519,-212 1519,-192 1589,-192 1589,-212"/>
<text text-anchor="middle" x="1554" y="-198.5" font-family="Helvetica,sans-Serif" font-size="10.00">cmp/cmp1.h</text>
</a>
</g>
</g>
<!-- Node25&#45;&gt;Node26 -->
<g id="edge46_Node000025_Node000026" class="edge">
<title>Node25&#45;&gt;Node26</title>
<g id="a_edge46_Node000025_Node000026"><a xlink:title=" ">
<path fill="none" stroke="#63b8ff" d="M1504.82,-303.7C1503.58,-290.64 1502.79,-266.4 1511,-248 1515.84,-237.16 1524.44,-227.34 1532.69,-219.66"/>
<polygon fill="#63b8ff" stroke="#63b8ff" points="1534.71,-221.67 1539.98,-212.47 1530.13,-216.37 1534.71,-221.67"/>
</a>
</g>
</g>
<!-- Node28 -->
<g id="Node000028" class="node">
<title>Node28</title>
<g id="a_Node000028"><a xlink:href="a00113.html" target="_top" xlink:title="This is the generated driver header file for the CMP3 driver.">
<polygon fill="white" stroke="#666666" points="1484,-212 1414,-212 1414,-192 1484,-192 1484,-212"/>
<text text-anchor="middle" x="1449" y="-198.5" font-family="Helvetica,sans-Serif" font-size="10.00">cmp/cmp3.h</text>
</a>
</g>
</g>
<!-- Node25&#45;&gt;Node28 -->
<g id="edge52_Node000025_Node000028" class="edge">
<title>Node25&#45;&gt;Node28</title>
<g id="a_edge52_Node000025_Node000028"><a xlink:title=" ">
<path fill="none" stroke="#63b8ff" d="M1501.14,-303.62C1491.8,-285.6 1471.18,-245.81 1458.86,-222.02"/>
<polygon fill="#63b8ff" stroke="#63b8ff" points="1461.56,-220.62 1453.85,-213.35 1455.34,-223.84 1461.56,-220.62"/>
</a>
</g>
</g>
<!-- Node26&#45;&gt;Node4 -->
<g id="edge48_Node000026_Node000004" class="edge">
<title>Node26&#45;&gt;Node4</title>
<g id="a_edge48_Node000026_Node000004"><a xlink:title=" ">
<path fill="none" stroke="#63b8ff" d="M1563.93,-191.74C1572.17,-183.33 1583.27,-170.11 1588,-156 1592.52,-142.52 1594.16,-136.82 1588,-124 1561.83,-69.55 1493.61,-40.46 1449.91,-26.91"/>
<polygon fill="#63b8ff" stroke="#63b8ff" points="1450.96,-23.27 1440.37,-23.79 1448.97,-29.98 1450.96,-23.27"/>
</a>
</g>
</g>
<!-- Node26&#45;&gt;Node13 -->
<g id="edge47_Node000026_Node000013" class="edge">
<title>Node26&#45;&gt;Node13</title>
<g id="a_edge47_Node000026_Node000013"><a xlink:title=" ">
<path fill="none" stroke="#63b8ff" d="M1560.47,-191.65C1570.22,-176.28 1586.13,-145.27 1572,-124 1556.33,-100.42 1525.64,-89.17 1501.13,-83.81"/>
<polygon fill="#63b8ff" stroke="#63b8ff" points="1501.86,-80.2 1491.38,-81.75 1500.54,-87.07 1501.86,-80.2"/>
</a>
</g>
</g>
<!-- Node27 -->
<g id="Node000027" class="node">
<title>Node27</title>
<g id="a_Node000027"><a xlink:href="a00116_source.html" target="_top" xlink:title=" ">
<polygon fill="white" stroke="#666666" points="1562.5,-150 1477.5,-150 1477.5,-130 1562.5,-130 1562.5,-150"/>
<text text-anchor="middle" x="1520" y="-136.5" font-family="Helvetica,sans-Serif" font-size="10.00">cmp_interface.h</text>
</a>
</g>
</g>
<!-- Node26&#45;&gt;Node27 -->
<g id="edge49_Node000026_Node000027" class="edge">
<title>Node26&#45;&gt;Node27</title>
<g id="a_edge49_Node000026_Node000027"><a xlink:title=" ">
<path fill="none" stroke="#63b8ff" d="M1548.69,-191.62C1543.82,-183.03 1536.47,-170.07 1530.43,-159.41"/>
<polygon fill="#63b8ff" stroke="#63b8ff" points="1533.14,-158.09 1525.16,-151.11 1527.05,-161.54 1533.14,-158.09"/>
</a>
</g>
</g>
<!-- Node27&#45;&gt;Node4 -->
<g id="edge50_Node000027_Node000004" class="edge">
<title>Node27&#45;&gt;Node4</title>
<g id="a_edge50_Node000027_Node000004"><a xlink:title=" ">
<path fill="none" stroke="#63b8ff" d="M1519.42,-129.72C1518.07,-115.14 1513.62,-86.59 1499,-68 1485.95,-51.41 1465.9,-39.19 1448.23,-30.88"/>
<polygon fill="#63b8ff" stroke="#63b8ff" points="1449.74,-27.28 1439.18,-26.44 1446.91,-33.68 1449.74,-27.28"/>
</a>
</g>
</g>
<!-- Node27&#45;&gt;Node13 -->
<g id="edge51_Node000027_Node000013" class="edge">
<title>Node27&#45;&gt;Node13</title>
<g id="a_edge51_Node000027_Node000013"><a xlink:title=" ">
<path fill="none" stroke="#63b8ff" d="M1511.41,-129.62C1503.21,-120.68 1490.66,-106.99 1480.68,-96.1"/>
<polygon fill="#63b8ff" stroke="#63b8ff" points="1483.69,-94.12 1474.35,-89.11 1478.53,-98.85 1483.69,-94.12"/>
</a>
</g>
</g>
<!-- Node28&#45;&gt;Node4 -->
<g id="edge54_Node000028_Node000004" class="edge">
<title>Node28&#45;&gt;Node4</title>
<g id="a_edge54_Node000028_Node000004"><a xlink:title=" ">
<path fill="none" stroke="#63b8ff" d="M1447.06,-191.62C1441.14,-162.95 1423.19,-76.03 1415.07,-36.7"/>
<polygon fill="#63b8ff" stroke="#63b8ff" points="1418.34,-36.23 1412.89,-27.14 1411.48,-37.64 1418.34,-36.23"/>
</a>
</g>
</g>
<!-- Node28&#45;&gt;Node13 -->
<g id="edge53_Node000028_Node000013" class="edge">
<title>Node28&#45;&gt;Node13</title>
<g id="a_edge53_Node000028_Node000013"><a xlink:title=" ">
<path fill="none" stroke="#63b8ff" d="M1450.2,-191.83C1452.77,-172.22 1458.86,-125.83 1462.37,-99.04"/>
<polygon fill="#63b8ff" stroke="#63b8ff" points="1465.95,-99.65 1463.78,-89.28 1459.01,-98.74 1465.95,-99.65"/>
</a>
</g>
</g>
<!-- Node28&#45;&gt;Node27 -->
<g id="edge55_Node000028_Node000027" class="edge">
<title>Node28&#45;&gt;Node27</title>
<g id="a_edge55_Node000028_Node000027"><a xlink:title=" ">
<path fill="none" stroke="#63b8ff" d="M1460.09,-191.62C1470.99,-182.41 1487.85,-168.17 1500.9,-157.14"/>
<polygon fill="#63b8ff" stroke="#63b8ff" points="1502.84,-159.24 1508.22,-150.11 1498.32,-153.89 1502.84,-159.24"/>
</a>
</g>
</g>
<!-- Node29&#45;&gt;Node2 -->
<g id="edge63_Node000029_Node000002" class="edge">
<title>Node29&#45;&gt;Node2</title>
<g id="a_edge63_Node000029_Node000002"><a xlink:title=" ">
<path fill="none" stroke="#63b8ff" d="M445.48,-192.91C391.23,-182.05 316.03,-159.86 349,-124 383.44,-86.53 749.08,-80.24 854.63,-79.2"/>
<polygon fill="#63b8ff" stroke="#63b8ff" points="854.4,-82.69 864.37,-79.11 854.34,-75.69 854.4,-82.69"/>
</a>
</g>
</g>
<!-- Node29&#45;&gt;Node8 -->
<g id="edge64_Node000029_Node000008" class="edge">
<title>Node29&#45;&gt;Node8</title>
<g id="a_edge64_Node000029_Node000008"><a xlink:title=" ">
<path fill="none" stroke="#63b8ff" d="M445.36,-196.62C368.01,-189.28 226.01,-173.58 211,-156 201.76,-145.19 205.65,-137.18 211,-124 227.16,-84.2 266.02,-51.07 291.39,-32.66"/>
<polygon fill="#63b8ff" stroke="#63b8ff" points="293.21,-34.96 299.38,-26.35 289.18,-29.23 293.21,-34.96"/>
</a>
</g>
</g>
<!-- Node30 -->
<g id="Node000030" class="node">
<title>Node30</title>
<g id="a_Node000030"><a xlink:title=" ">
<polygon fill="#e0e0e0" stroke="#999999" points="693.62,-150 648.38,-150 648.38,-130 693.62,-130 693.62,-150"/>
<text text-anchor="middle" x="671" y="-136.5" font-family="Helvetica,sans-Serif" font-size="10.00">stdio.h</text>
</a>
</g>
</g>
<!-- Node29&#45;&gt;Node30 -->
<g id="edge62_Node000029_Node000030" class="edge">
<title>Node29&#45;&gt;Node30</title>
<g id="a_edge62_Node000029_Node000030"><a xlink:title=" ">
<path fill="none" stroke="#63b8ff" d="M529.78,-191.56C559.23,-183.23 602.38,-170.23 639,-156 640.06,-155.59 641.13,-155.16 642.21,-154.71"/>
<polygon fill="#63b8ff" stroke="#63b8ff" points="643.14,-157.69 650.89,-150.47 640.33,-151.28 643.14,-157.69"/>
</a>
</g>
</g>
<!-- Node31 -->
<g id="Node000031" class="node">
<title>Node31</title>
<g id="a_Node000031"><a xlink:href="a00437.html" target="_top" xlink:title="Contains the DCDT generated functions and data types.">
<polygon fill="white" stroke="#666666" points="302.38,-150 219.62,-150 219.62,-130 302.38,-130 302.38,-150"/>
<text text-anchor="middle" x="261" y="-136.5" font-family="Helvetica,sans-Serif" font-size="10.00">smps_control.h</text>
</a>
</g>
</g>
<!-- Node29&#45;&gt;Node31 -->
<g id="edge65_Node000029_Node000031" class="edge">
<title>Node29&#45;&gt;Node31</title>
<g id="a_edge65_Node000029_Node000031"><a xlink:title=" ">
<path fill="none" stroke="#63b8ff" d="M456.53,-191.57C420.25,-182.61 364.36,-168.67 316,-156 312.65,-155.12 309.19,-154.2 305.71,-153.27"/>
<polygon fill="#63b8ff" stroke="#63b8ff" points="306.86,-149.69 296.3,-150.47 305.04,-156.45 306.86,-149.69"/>
</a>
</g>
</g>
<!-- Node32 -->
<g id="Node000032" class="node">
<title>Node32</title>
<g id="a_Node000032"><a xlink:href="a00047.html" target="_top" xlink:title="Generated by the Microchip Digital Compensator Design Tool (DCDT), contains system summaries and digi...">
<polygon fill="white" stroke="#666666" points="836.38,-156 711.62,-156 711.62,-124 836.38,-124 836.38,-156"/>
<text text-anchor="start" x="719.62" y="-142.5" font-family="Helvetica,sans-Serif" font-size="10.00">dab_psio/dcdt_generated</text>
<text text-anchor="middle" x="774" y="-130.5" font-family="Helvetica,sans-Serif" font-size="10.00">_code/dab_psio_dcdt.h</text>
</a>
</g>
</g>
<!-- Node29&#45;&gt;Node32 -->
<g id="edge68_Node000029_Node000032" class="edge">
<title>Node29&#45;&gt;Node32</title>
<g id="a_edge68_Node000029_Node000032"><a xlink:title=" ">
<path fill="none" stroke="#63b8ff" d="M538.9,-191.56C582.17,-182.25 649.07,-167.87 700.47,-156.81"/>
<polygon fill="#63b8ff" stroke="#63b8ff" points="701.14,-160.03 710.18,-154.51 699.67,-153.19 701.14,-160.03"/>
</a>
</g>
</g>
<!-- Node33 -->
<g id="Node000033" class="node">
<title>Node33</title>
<g id="a_Node000033"><a xlink:href="a00056.html" target="_top" xlink:title="Generated by the Microchip Digital Compensator Design Tool (DCDT), contains system summaries and digi...">
<polygon fill="white" stroke="#666666" points="485.88,-156 358.12,-156 358.12,-124 485.88,-124 485.88,-156"/>
<text text-anchor="start" x="366.12" y="-142.5" font-family="Helvetica,sans-Serif" font-size="10.00">dab_pspo/dcdt_generated</text>
<text text-anchor="middle" x="422" y="-130.5" font-family="Helvetica,sans-Serif" font-size="10.00">_code/dab_pspo_dcdt.h</text>
</a>
</g>
</g>
<!-- Node29&#45;&gt;Node33 -->
<g id="edge69_Node000029_Node000033" class="edge">
<title>Node29&#45;&gt;Node33</title>
<g id="a_edge69_Node000029_Node000033"><a xlink:title=" ">
<path fill="none" stroke="#63b8ff" d="M483.59,-191.62C474.37,-184.04 460.99,-173.05 449.06,-163.24"/>
<polygon fill="#63b8ff" stroke="#63b8ff" points="451.65,-160.02 441.7,-156.37 447.21,-165.43 451.65,-160.02"/>
</a>
</g>
</g>
<!-- Node34 -->
<g id="Node000034" class="node">
<title>Node34</title>
<g id="a_Node000034"><a xlink:href="a00059.html" target="_top" xlink:title="Generated by the Microchip Digital Compensator Design Tool (DCDT), contains system summaries and digi...">
<polygon fill="white" stroke="#666666" points="630.12,-156 503.88,-156 503.88,-124 630.12,-124 630.12,-156"/>
<text text-anchor="start" x="511.88" y="-142.5" font-family="Helvetica,sans-Serif" font-size="10.00">dab_spvo/dcdt_generated</text>
<text text-anchor="middle" x="567" y="-130.5" font-family="Helvetica,sans-Serif" font-size="10.00">_code/dab_spvo_dcdt.h</text>
</a>
</g>
</g>
<!-- Node29&#45;&gt;Node34 -->
<g id="edge70_Node000029_Node000034" class="edge">
<title>Node29&#45;&gt;Node34</title>
<g id="a_edge70_Node000029_Node000034"><a xlink:title=" ">
<path fill="none" stroke="#63b8ff" d="M506.25,-191.62C515.35,-184.04 528.55,-173.05 540.31,-163.24"/>
<polygon fill="#63b8ff" stroke="#63b8ff" points="542.11,-165.46 547.55,-156.37 537.63,-160.09 542.11,-165.46"/>
</a>
</g>
</g>
<!-- Node31&#45;&gt;Node2 -->
<g id="edge66_Node000031_Node000002" class="edge">
<title>Node31&#45;&gt;Node2</title>
<g id="a_edge66_Node000031_Node000002"><a xlink:title=" ">
<path fill="none" stroke="#63b8ff" d="M291.61,-129.56C299.49,-127.44 308,-125.39 316,-124 520.19,-88.38 770.72,-80.92 854.33,-79.39"/>
<polygon fill="#63b8ff" stroke="#63b8ff" points="854.27,-82.87 864.21,-79.2 854.15,-75.87 854.27,-82.87"/>
</a>
</g>
</g>
<!-- Node31&#45;&gt;Node8 -->
<g id="edge67_Node000031_Node000008" class="edge">
<title>Node31&#45;&gt;Node8</title>
<g id="a_edge67_Node000031_Node000008"><a xlink:title=" ">
<path fill="none" stroke="#63b8ff" d="M267.37,-129.54C273.9,-119.54 284.08,-103.13 291,-88 298.68,-71.19 305.23,-51.18 309.53,-36.69"/>
<polygon fill="#63b8ff" stroke="#63b8ff" points="313.09,-38 312.49,-27.43 306.36,-36.07 313.09,-38"/>
</a>
</g>
</g>
</g>
</svg>
