<?xml version="1.0" encoding="UTF-8" standalone="no"?>
<!DOCTYPE svg PUBLIC "-//W3C//DTD SVG 1.1//EN"
 "http://www.w3.org/Graphics/SVG/1.1/DTD/svg11.dtd">
<!-- Generated by graphviz version 8.1.0 (20230707.0739)
 -->
<!-- Title: App_PBV_DAB_Task_1s Pages: 1 -->
<svg width="658pt" height="116pt"
 viewBox="0.00 0.00 657.75 116.00" xmlns="http://www.w3.org/2000/svg" xmlns:xlink="http://www.w3.org/1999/xlink">
<g id="graph0" class="graph" transform="scale(1 1) rotate(0) translate(4 112)">
<title>App_PBV_DAB_Task_1s</title>
<!-- Node1 -->
<g id="Node000001" class="node">
<title>Node1</title>
<g id="a_Node000001"><a xlink:title="1 second PBV task to be execution">
<polygon fill="#999999" stroke="#666666" points="126.25,-70 0,-70 0,-50 126.25,-50 126.25,-70"/>
<text text-anchor="middle" x="63.12" y="-56.5" font-family="Helvetica,sans-Serif" font-size="10.00">App_PBV_DAB_Task_1s</text>
</a>
</g>
</g>
<!-- Node2 -->
<g id="Node000002" class="node">
<title>Node2</title>
<g id="a_Node000002"><a xlink:href="a00493.html#gab70a27b3aad7113c3983e82413ca5e4f" target="_top" xlink:title=" ">
<polygon fill="white" stroke="#666666" points="279.88,-108 185.88,-108 185.88,-88 279.88,-88 279.88,-108"/>
<text text-anchor="middle" x="232.88" y="-94.5" font-family="Helvetica,sans-Serif" font-size="10.00">App_PBV_Re_Init</text>
</a>
</g>
</g>
<!-- Node1&#45;&gt;Node2 -->
<g id="edge1_Node000001_Node000002" class="edge">
<title>Node1&#45;&gt;Node2</title>
<g id="a_edge1_Node000001_Node000002"><a xlink:title=" ">
<path fill="none" stroke="#63b8ff" d="M110.41,-70.48C130.48,-75.03 154.18,-80.4 175.3,-85.18"/>
<polygon fill="#63b8ff" stroke="#63b8ff" points="174.22,-88.75 184.74,-87.55 175.76,-81.93 174.22,-88.75"/>
</a>
</g>
</g>
<!-- Node3 -->
<g id="Node000003" class="node">
<title>Node3</title>
<g id="a_Node000003"><a xlink:href="a00493.html#ga39ed8d2ee366abaf4aa95a424f9108e3" target="_top" xlink:title=" ">
<polygon fill="white" stroke="#666666" points="284,-70 181.75,-70 181.75,-50 284,-50 284,-70"/>
<text text-anchor="middle" x="232.88" y="-56.5" font-family="Helvetica,sans-Serif" font-size="10.00">App_Send_To_PBV</text>
</a>
</g>
</g>
<!-- Node1&#45;&gt;Node3 -->
<g id="edge2_Node000001_Node000003" class="edge">
<title>Node1&#45;&gt;Node3</title>
<g id="a_edge2_Node000001_Node000003"><a xlink:title=" ">
<path fill="none" stroke="#63b8ff" d="M126.59,-60C140.99,-60 156.29,-60 170.64,-60"/>
<polygon fill="#63b8ff" stroke="#63b8ff" points="170.4,-63.5 180.4,-60 170.4,-56.5 170.4,-63.5"/>
</a>
</g>
</g>
<!-- Node4 -->
<g id="Node000004" class="node">
<title>Node4</title>
<g id="a_Node000004"><a xlink:href="a00501.html#gac9618e1ca87e77920c94cdfdcc80321a" target="_top" xlink:title="This converts the raw values to temperature celcius as per device lookup table.">
<polygon fill="white" stroke="#666666" points="303.5,-32 162.25,-32 162.25,0 303.5,0 303.5,-32"/>
<text text-anchor="start" x="170.25" y="-18.5" font-family="Helvetica,sans-Serif" font-size="10.00">Dev_Temp_Get_Temperature</text>
<text text-anchor="middle" x="232.88" y="-6.5" font-family="Helvetica,sans-Serif" font-size="10.00">_Celcius</text>
</a>
</g>
</g>
<!-- Node1&#45;&gt;Node4 -->
<g id="edge3_Node000001_Node000004" class="edge">
<title>Node1&#45;&gt;Node4</title>
<g id="a_edge3_Node000001_Node000004"><a xlink:title=" ">
<path fill="none" stroke="#63b8ff" d="M103.88,-49.57C120.23,-45.28 139.72,-40.17 158.49,-35.25"/>
<polygon fill="#63b8ff" stroke="#63b8ff" points="159.34,-38.38 168.13,-32.46 157.57,-31.61 159.34,-38.38"/>
</a>
</g>
</g>
<!-- Node5 -->
<g id="Node000005" class="node">
<title>Node5</title>
<g id="a_Node000005"><a xlink:href="a00501.html#gaed1c98bc3ba65035d1ac0bdda433d812" target="_top" xlink:title="Returns the temperature average value.">
<polygon fill="white" stroke="#666666" points="488.25,-26 339.5,-26 339.5,-6 488.25,-6 488.25,-26"/>
<text text-anchor="middle" x="413.88" y="-12.5" font-family="Helvetica,sans-Serif" font-size="10.00">Average_Temp_ADC_Samples</text>
</a>
</g>
</g>
<!-- Node4&#45;&gt;Node5 -->
<g id="edge4_Node000004_Node000005" class="edge">
<title>Node4&#45;&gt;Node5</title>
<g id="a_edge4_Node000004_Node000005"><a xlink:title=" ">
<path fill="none" stroke="#63b8ff" d="M303.85,-16C311.9,-16 320.16,-16 328.37,-16"/>
<polygon fill="#63b8ff" stroke="#63b8ff" points="328.11,-19.5 338.11,-16 328.11,-12.5 328.11,-19.5"/>
</a>
</g>
</g>
<!-- Node6 -->
<g id="Node000006" class="node">
<title>Node6</title>
<g id="a_Node000006"><a xlink:href="a00501.html#ga87aa48cb3d8848b8dc9bee6ce978b1b1" target="_top" xlink:title="Averages the temperature ADC samples.">
<polygon fill="white" stroke="#666666" points="649.75,-26 524.25,-26 524.25,-6 649.75,-6 649.75,-26"/>
<text text-anchor="middle" x="587" y="-12.5" font-family="Helvetica,sans-Serif" font-size="10.00">Temp_Calculate_Average</text>
</a>
</g>
</g>
<!-- Node5&#45;&gt;Node6 -->
<g id="edge5_Node000005_Node000006" class="edge">
<title>Node5&#45;&gt;Node6</title>
<g id="a_edge5_Node000005_Node000006"><a xlink:title=" ">
<path fill="none" stroke="#63b8ff" d="M488.44,-16C496.54,-16 504.78,-16 512.87,-16"/>
<polygon fill="#63b8ff" stroke="#63b8ff" points="512.78,-19.5 522.78,-16 512.78,-12.5 512.78,-19.5"/>
</a>
</g>
</g>
</g>
</svg>
