<?xml version="1.0" encoding="UTF-8" standalone="no"?>
<!DOCTYPE svg PUBLIC "-//W3C//DTD SVG 1.1//EN"
 "http://www.w3.org/Graphics/SVG/1.1/DTD/svg11.dtd">
<!-- Generated by graphviz version 8.1.0 (20230707.0739)
 -->
<!-- Title: Dev_PwrCtrl_PWM_Update Pages: 1 -->
<svg width="339pt" height="218pt"
 viewBox="0.00 0.00 339.25 218.00" xmlns="http://www.w3.org/2000/svg" xmlns:xlink="http://www.w3.org/1999/xlink">
<g id="graph0" class="graph" transform="scale(1 1) rotate(0) translate(4 214)">
<title>Dev_PwrCtrl_PWM_Update</title>
<!-- Node1 -->
<g id="Node000001" class="node">
<title>Node1</title>
<g id="a_Node000001"><a xlink:title="PWM distribution for DAB converter.">
<polygon fill="#999999" stroke="#666666" points="134.5,-115 0,-115 0,-95 134.5,-95 134.5,-115"/>
<text text-anchor="middle" x="67.25" y="-101.5" font-family="Helvetica,sans-Serif" font-size="10.00">Dev_PwrCtrl_PWM_Update</text>
</a>
</g>
</g>
<!-- Node2 -->
<g id="Node000002" class="node">
<title>Node2</title>
<g id="a_Node000002"><a xlink:href="a00516.html#gaf368256a569a5a9e12f85f84d7d42287" target="_top" xlink:title="This inline function updates PWM Deadtime high register with the requested value for a specific PWM g...">
<polygon fill="white" stroke="#666666" points="312.88,-210 188.88,-210 188.88,-190 312.88,-190 312.88,-210"/>
<text text-anchor="middle" x="250.88" y="-196.5" font-family="Helvetica,sans-Serif" font-size="10.00">PWM_DeadTimeHighSet</text>
</a>
</g>
</g>
<!-- Node1&#45;&gt;Node2 -->
<g id="edge1_Node000001_Node000002" class="edge">
<title>Node1&#45;&gt;Node2</title>
<g id="a_edge1_Node000001_Node000002"><a xlink:title=" ">
<path fill="none" stroke="#63b8ff" d="M78.93,-115.3C96.54,-131.7 133.43,-163.68 170.5,-181 174.62,-182.92 178.95,-184.66 183.37,-186.23"/>
<polygon fill="#63b8ff" stroke="#63b8ff" points="182.23,-189.86 192.82,-189.6 184.38,-183.2 182.23,-189.86"/>
</a>
</g>
</g>
<!-- Node3 -->
<g id="Node000003" class="node">
<title>Node3</title>
<g id="a_Node000003"><a xlink:href="a00516.html#ga124426b28426beb53948e9b57319ab4b" target="_top" xlink:title="This inline function updates PWM Deadtime low register with the requested value for a specific PWM ge...">
<polygon fill="white" stroke="#666666" points="311.75,-172 190,-172 190,-152 311.75,-152 311.75,-172"/>
<text text-anchor="middle" x="250.88" y="-158.5" font-family="Helvetica,sans-Serif" font-size="10.00">PWM_DeadTimeLowSet</text>
</a>
</g>
</g>
<!-- Node1&#45;&gt;Node3 -->
<g id="edge2_Node000001_Node000003" class="edge">
<title>Node1&#45;&gt;Node3</title>
<g id="a_edge2_Node000001_Node000003"><a xlink:title=" ">
<path fill="none" stroke="#63b8ff" d="M93.59,-115.39C114.11,-123.57 143.87,-134.9 170.5,-143 177.33,-145.08 184.55,-147.08 191.73,-148.94"/>
<polygon fill="#63b8ff" stroke="#63b8ff" points="190.64,-152.53 201.19,-151.58 192.35,-145.74 190.64,-152.53"/>
</a>
</g>
</g>
<!-- Node4 -->
<g id="Node000004" class="node">
<title>Node4</title>
<g id="a_Node000004"><a xlink:href="a00516.html#ga37968a783e44cd80643478d2b559dbf4" target="_top" xlink:title="This inline function sets the PWM generator specific duty cycle register.">
<polygon fill="white" stroke="#666666" points="303.88,-134 197.88,-134 197.88,-114 303.88,-114 303.88,-134"/>
<text text-anchor="middle" x="250.88" y="-120.5" font-family="Helvetica,sans-Serif" font-size="10.00">PWM_DutyCycleSet</text>
</a>
</g>
</g>
<!-- Node1&#45;&gt;Node4 -->
<g id="edge3_Node000001_Node000004" class="edge">
<title>Node1&#45;&gt;Node4</title>
<g id="a_edge3_Node000001_Node000004"><a xlink:title=" ">
<path fill="none" stroke="#63b8ff" d="M134.85,-111.97C151.79,-113.74 169.95,-115.64 186.71,-117.39"/>
<polygon fill="#63b8ff" stroke="#63b8ff" points="186.19,-120.96 196.5,-118.52 186.92,-114 186.19,-120.96"/>
</a>
</g>
</g>
<!-- Node5 -->
<g id="Node000005" class="node">
<title>Node5</title>
<g id="a_Node000005"><a xlink:href="a00516.html#gada46160823b0892a1af14a17c5ab516e" target="_top" xlink:title="This inline function sets the period value in count for the PWM generator specific Time Base.">
<polygon fill="white" stroke="#666666" points="295.25,-96 206.5,-96 206.5,-76 295.25,-76 295.25,-96"/>
<text text-anchor="middle" x="250.88" y="-82.5" font-family="Helvetica,sans-Serif" font-size="10.00">PWM_PeriodSet</text>
</a>
</g>
</g>
<!-- Node1&#45;&gt;Node5 -->
<g id="edge4_Node000001_Node000005" class="edge">
<title>Node1&#45;&gt;Node5</title>
<g id="a_edge4_Node000001_Node000005"><a xlink:title=" ">
<path fill="none" stroke="#63b8ff" d="M134.85,-98.03C154.74,-95.95 176.3,-93.7 195.32,-91.71"/>
<polygon fill="#63b8ff" stroke="#63b8ff" points="195.61,-95.09 205.19,-90.57 194.88,-88.13 195.61,-95.09"/>
</a>
</g>
</g>
<!-- Node6 -->
<g id="Node000006" class="node">
<title>Node6</title>
<g id="a_Node000006"><a xlink:href="a00516.html#ga83e780358618114f0d424ca7467cf751" target="_top" xlink:title="This inline function requests to update the data registers for specific PWM generator selected by the...">
<polygon fill="white" stroke="#666666" points="326,-58 175.75,-58 175.75,-38 326,-38 326,-58"/>
<text text-anchor="middle" x="250.88" y="-44.5" font-family="Helvetica,sans-Serif" font-size="10.00">PWM_SoftwareUpdateRequest</text>
</a>
</g>
</g>
<!-- Node1&#45;&gt;Node6 -->
<g id="edge5_Node000001_Node000006" class="edge">
<title>Node1&#45;&gt;Node6</title>
<g id="a_edge5_Node000001_Node000006"><a xlink:title=" ">
<path fill="none" stroke="#63b8ff" d="M93.59,-94.61C114.11,-86.43 143.87,-75.1 170.5,-67 177.33,-64.92 184.55,-62.92 191.73,-61.06"/>
<polygon fill="#63b8ff" stroke="#63b8ff" points="192.35,-64.26 201.19,-58.42 190.64,-57.47 192.35,-64.26"/>
</a>
</g>
</g>
<!-- Node7 -->
<g id="Node000007" class="node">
<title>Node7</title>
<g id="a_Node000007"><a xlink:href="a00516.html#gacc5575148a6e8da6577d9be9e20541ce" target="_top" xlink:title="This inline function sets the Trigger C compare value in count for a specific PWM generator selected ...">
<polygon fill="white" stroke="#666666" points="331.25,-20 170.5,-20 170.5,0 331.25,0 331.25,-20"/>
<text text-anchor="middle" x="250.88" y="-6.5" font-family="Helvetica,sans-Serif" font-size="10.00">PWM_TriggerCCompareValueSet</text>
</a>
</g>
</g>
<!-- Node1&#45;&gt;Node7 -->
<g id="edge6_Node000001_Node000007" class="edge">
<title>Node1&#45;&gt;Node7</title>
<g id="a_edge6_Node000001_Node000007"><a xlink:title=" ">
<path fill="none" stroke="#63b8ff" d="M78.93,-94.7C96.54,-78.3 133.43,-46.32 170.5,-29 174.62,-27.08 178.95,-25.34 183.37,-23.77"/>
<polygon fill="#63b8ff" stroke="#63b8ff" points="184.38,-26.8 192.82,-20.4 182.23,-20.14 184.38,-26.8"/>
</a>
</g>
</g>
</g>
</svg>
