<?xml version="1.0" encoding="UTF-8" standalone="no"?>
<!DOCTYPE svg PUBLIC "-//W3C//DTD SVG 1.1//EN"
 "http://www.w3.org/Graphics/SVG/1.1/DTD/svg11.dtd">
<!-- Generated by graphviz version 8.1.0 (20230707.0739)
 -->
<!-- Title: dspic33ck&#45;dab.X/sources/pwrctrl/pwrctrl_common.c Pages: 1 -->
<svg width="588pt" height="376pt"
 viewBox="0.00 0.00 588.38 376.00" xmlns="http://www.w3.org/2000/svg" xmlns:xlink="http://www.w3.org/1999/xlink">
<g id="graph0" class="graph" transform="scale(1 1) rotate(0) translate(4 372)">
<title>dspic33ck&#45;dab.X/sources/pwrctrl/pwrctrl_common.c</title>
<!-- Node1 -->
<g id="Node000001" class="node">
<title>Node1</title>
<g id="a_Node000001"><a xlink:title="Contains generic functions that handles power control ramp Up/Down and the averaging generic function...">
<polygon fill="#999999" stroke="#666666" points="373.38,-368 243.38,-368 243.38,-336 373.38,-336 373.38,-368"/>
<text text-anchor="start" x="251.38" y="-354.5" font-family="Helvetica,sans-Serif" font-size="10.00">dspic33ck&#45;dab.X/sources</text>
<text text-anchor="middle" x="308.38" y="-342.5" font-family="Helvetica,sans-Serif" font-size="10.00">/pwrctrl/pwrctrl_common.c</text>
</a>
</g>
</g>
<!-- Node2 -->
<g id="Node000002" class="node">
<title>Node2</title>
<g id="a_Node000002"><a xlink:title=" ">
<polygon fill="#e0e0e0" stroke="#999999" points="34.75,-300 0,-300 0,-280 34.75,-280 34.75,-300"/>
<text text-anchor="middle" x="17.38" y="-286.5" font-family="Helvetica,sans-Serif" font-size="10.00">xc.h</text>
</a>
</g>
</g>
<!-- Node1&#45;&gt;Node2 -->
<g id="edge1_Node000001_Node000002" class="edge">
<title>Node1&#45;&gt;Node2</title>
<g id="a_edge1_Node000001_Node000002"><a xlink:title=" ">
<path fill="none" stroke="#63b8ff" d="M243.11,-339.86C190.32,-330.45 114.2,-315.98 48.38,-300 47.42,-299.77 46.45,-299.53 45.48,-299.28"/>
<polygon fill="#63b8ff" stroke="#63b8ff" points="46.58,-295.68 36.01,-296.41 44.73,-302.43 46.58,-295.68"/>
</a>
</g>
</g>
<!-- Node3 -->
<g id="Node000003" class="node">
<title>Node3</title>
<g id="a_Node000003"><a xlink:title=" ">
<polygon fill="#e0e0e0" stroke="#999999" points="235.5,-20 187.25,-20 187.25,0 235.5,0 235.5,-20"/>
<text text-anchor="middle" x="211.38" y="-6.5" font-family="Helvetica,sans-Serif" font-size="10.00">stdint.h</text>
</a>
</g>
</g>
<!-- Node1&#45;&gt;Node3 -->
<g id="edge2_Node000001_Node000003" class="edge">
<title>Node1&#45;&gt;Node3</title>
<g id="a_edge2_Node000001_Node000003"><a xlink:title=" ">
<path fill="none" stroke="#63b8ff" d="M243.1,-347.63C170.22,-339.94 62.38,-315.04 62.38,-235 62.38,-235 62.38,-235 62.38,-121 62.38,-64.56 132.42,-33.8 176.46,-20.04"/>
<polygon fill="#63b8ff" stroke="#63b8ff" points="177.18,-23.18 185.77,-16.98 175.19,-16.47 177.18,-23.18"/>
</a>
</g>
</g>
<!-- Node4 -->
<g id="Node000004" class="node">
<title>Node4</title>
<g id="a_Node000004"><a xlink:title=" ">
<polygon fill="#e0e0e0" stroke="#999999" points="385.25,-20 329.5,-20 329.5,0 385.25,0 385.25,-20"/>
<text text-anchor="middle" x="357.38" y="-6.5" font-family="Helvetica,sans-Serif" font-size="10.00">stdbool.h</text>
</a>
</g>
</g>
<!-- Node1&#45;&gt;Node4 -->
<g id="edge3_Node000001_Node000004" class="edge">
<title>Node1&#45;&gt;Node4</title>
<g id="a_edge3_Node000001_Node000004"><a xlink:title=" ">
<path fill="none" stroke="#63b8ff" d="M373.87,-350.43C454.36,-345.88 580.38,-324.46 580.38,-235 580.38,-235 580.38,-235 580.38,-121 580.38,-39.96 460.46,-18.62 396.5,-13.01"/>
<polygon fill="#63b8ff" stroke="#63b8ff" points="396.86,-9.45 386.62,-12.15 396.31,-16.42 396.86,-9.45"/>
</a>
</g>
</g>
<!-- Node5 -->
<g id="Node000005" class="node">
<title>Node5</title>
<g id="a_Node000005"><a xlink:title=" ">
<polygon fill="#e0e0e0" stroke="#999999" points="403.62,-300 353.12,-300 353.12,-280 403.62,-280 403.62,-300"/>
<text text-anchor="middle" x="378.38" y="-286.5" font-family="Helvetica,sans-Serif" font-size="10.00">stddef.h</text>
</a>
</g>
</g>
<!-- Node1&#45;&gt;Node5 -->
<g id="edge4_Node000001_Node000005" class="edge">
<title>Node1&#45;&gt;Node5</title>
<g id="a_edge4_Node000001_Node000005"><a xlink:title=" ">
<path fill="none" stroke="#63b8ff" d="M326.4,-335.55C336.43,-326.95 348.91,-316.26 359.12,-307.5"/>
<polygon fill="#63b8ff" stroke="#63b8ff" points="361.08,-309.57 366.4,-300.41 356.53,-304.26 361.08,-309.57"/>
</a>
</g>
</g>
<!-- Node6 -->
<g id="Node000006" class="node">
<title>Node6</title>
<g id="a_Node000006"><a xlink:href="a00434_source.html" target="_top" xlink:title=" ">
<polygon fill="white" stroke="#666666" points="334.75,-300 282,-300 282,-280 334.75,-280 334.75,-300"/>
<text text-anchor="middle" x="308.38" y="-286.5" font-family="Helvetica,sans-Serif" font-size="10.00">pwrctrl.h</text>
</a>
</g>
</g>
<!-- Node1&#45;&gt;Node6 -->
<g id="edge5_Node000001_Node000006" class="edge">
<title>Node1&#45;&gt;Node6</title>
<g id="a_edge5_Node000001_Node000006"><a xlink:title=" ">
<path fill="none" stroke="#63b8ff" d="M308.38,-335.55C308.38,-328.17 308.38,-319.24 308.38,-311.32"/>
<polygon fill="#63b8ff" stroke="#63b8ff" points="311.88,-311.41 308.38,-301.41 304.88,-311.41 311.88,-311.41"/>
</a>
</g>
</g>
<!-- Node7 -->
<g id="Node000007" class="node">
<title>Node7</title>
<g id="a_Node000007"><a xlink:href="a00467_source.html" target="_top" xlink:title=" ">
<polygon fill="white" stroke="#666666" points="329.12,-188 239.62,-188 239.62,-168 329.12,-168 329.12,-188"/>
<text text-anchor="middle" x="284.38" y="-174.5" font-family="Helvetica,sans-Serif" font-size="10.00">pwrctrl_typedef.h</text>
</a>
</g>
</g>
<!-- Node6&#45;&gt;Node7 -->
<g id="edge6_Node000006_Node000007" class="edge">
<title>Node6&#45;&gt;Node7</title>
<g id="a_edge6_Node000006_Node000007"><a xlink:title=" ">
<path fill="none" stroke="#63b8ff" d="M334.81,-280.86C361.76,-271.96 400.8,-257.2 409.38,-244 414.22,-236.54 414.49,-231.27 409.38,-224 393.65,-201.63 365.68,-190.33 340.18,-184.64"/>
<polygon fill="#63b8ff" stroke="#63b8ff" points="340.93,-181.02 330.44,-182.53 339.58,-187.89 340.93,-181.02"/>
</a>
</g>
</g>
<!-- Node10 -->
<g id="Node000010" class="node">
<title>Node10</title>
<g id="a_Node000010"><a xlink:href="a00440.html" target="_top" xlink:title="Contains the power control reusable functions.">
<polygon fill="white" stroke="#666666" points="552.12,-244 456.62,-244 456.62,-224 552.12,-224 552.12,-244"/>
<text text-anchor="middle" x="504.38" y="-230.5" font-family="Helvetica,sans-Serif" font-size="10.00">pwrctrl_common.h</text>
</a>
</g>
</g>
<!-- Node6&#45;&gt;Node10 -->
<g id="edge11_Node000006_Node000010" class="edge">
<title>Node6&#45;&gt;Node10</title>
<g id="a_edge11_Node000006_Node000010"><a xlink:title=" ">
<path fill="none" stroke="#63b8ff" d="M335.22,-281.6C367.23,-272.79 421.21,-257.91 459.58,-247.34"/>
<polygon fill="#63b8ff" stroke="#63b8ff" points="460.24,-250.51 468.95,-244.48 458.38,-243.77 460.24,-250.51"/>
</a>
</g>
</g>
<!-- Node11 -->
<g id="Node000011" class="node">
<title>Node11</title>
<g id="a_Node000011"><a xlink:href="a00446.html" target="_top" xlink:title="Contains public functions relevant for power control communication interface.">
<polygon fill="white" stroke="#666666" points="313.88,-244 186.88,-244 186.88,-224 313.88,-224 313.88,-244"/>
<text text-anchor="middle" x="250.38" y="-230.5" font-family="Helvetica,sans-Serif" font-size="10.00">pwrctrl_comm_interface.h</text>
</a>
</g>
</g>
<!-- Node6&#45;&gt;Node11 -->
<g id="edge12_Node000006_Node000011" class="edge">
<title>Node6&#45;&gt;Node11</title>
<g id="a_edge12_Node000006_Node000011"><a xlink:title=" ">
<path fill="none" stroke="#63b8ff" d="M298.27,-279.59C290.04,-271.93 278.21,-260.91 268.36,-251.75"/>
<polygon fill="#63b8ff" stroke="#63b8ff" points="271.07,-249.55 261.36,-245.3 266.3,-254.67 271.07,-249.55"/>
</a>
</g>
</g>
<!-- Node12 -->
<g id="Node000012" class="node">
<title>Node12</title>
<g id="a_Node000012"><a xlink:href="a00452.html" target="_top" xlink:title="Contains public function relevant for power control interrupt.">
<polygon fill="white" stroke="#666666" points="400.62,-244 332.12,-244 332.12,-224 400.62,-224 400.62,-244"/>
<text text-anchor="middle" x="366.38" y="-230.5" font-family="Helvetica,sans-Serif" font-size="10.00">pwrctrl_isr.h</text>
</a>
</g>
</g>
<!-- Node6&#45;&gt;Node12 -->
<g id="edge13_Node000006_Node000012" class="edge">
<title>Node6&#45;&gt;Node12</title>
<g id="a_edge13_Node000006_Node000012"><a xlink:title=" ">
<path fill="none" stroke="#63b8ff" d="M318.48,-279.59C326.71,-271.93 338.54,-260.91 348.39,-251.75"/>
<polygon fill="#63b8ff" stroke="#63b8ff" points="350.45,-254.67 355.39,-245.3 345.68,-249.55 350.45,-254.67"/>
</a>
</g>
</g>
<!-- Node13 -->
<g id="Node000013" class="node">
<title>Node13</title>
<g id="a_Node000013"><a xlink:href="a00461.html" target="_top" xlink:title="Contains public functions for PWM.">
<polygon fill="white" stroke="#666666" points="168.5,-244 90.25,-244 90.25,-224 168.5,-224 168.5,-244"/>
<text text-anchor="middle" x="129.38" y="-230.5" font-family="Helvetica,sans-Serif" font-size="10.00">pwrctrl_pwm.h</text>
</a>
</g>
</g>
<!-- Node6&#45;&gt;Node13 -->
<g id="edge14_Node000006_Node000013" class="edge">
<title>Node6&#45;&gt;Node13</title>
<g id="a_edge14_Node000006_Node000013"><a xlink:title=" ">
<path fill="none" stroke="#63b8ff" d="M281.58,-280.92C252.23,-272.06 204.82,-257.76 170.7,-247.47"/>
<polygon fill="#63b8ff" stroke="#63b8ff" points="172.16,-243.95 161.58,-244.41 170.14,-250.65 172.16,-243.95"/>
</a>
</g>
</g>
<!-- Node8 -->
<g id="Node000008" class="node">
<title>Node8</title>
<g id="a_Node000008"><a xlink:href="a00368.html" target="_top" xlink:title="Contains fault data types.">
<polygon fill="white" stroke="#666666" points="334.38,-132 234.38,-132 234.38,-112 334.38,-112 334.38,-132"/>
<text text-anchor="middle" x="284.38" y="-118.5" font-family="Helvetica,sans-Serif" font-size="10.00">fault/fault_typedef.h</text>
</a>
</g>
</g>
<!-- Node7&#45;&gt;Node8 -->
<g id="edge7_Node000007_Node000008" class="edge">
<title>Node7&#45;&gt;Node8</title>
<g id="a_edge7_Node000007_Node000008"><a xlink:title=" ">
<path fill="none" stroke="#63b8ff" d="M284.38,-167.59C284.38,-160.86 284.38,-151.53 284.38,-143.15"/>
<polygon fill="#63b8ff" stroke="#63b8ff" points="287.88,-143.3 284.38,-133.3 280.88,-143.3 287.88,-143.3"/>
</a>
</g>
</g>
<!-- Node9 -->
<g id="Node000009" class="node">
<title>Node9</title>
<g id="a_Node000009"><a xlink:href="a00359.html" target="_top" xlink:title="Contains fault generic public functions.">
<polygon fill="white" stroke="#666666" points="326.88,-76 241.88,-76 241.88,-56 326.88,-56 326.88,-76"/>
<text text-anchor="middle" x="284.38" y="-62.5" font-family="Helvetica,sans-Serif" font-size="10.00">fault_common.h</text>
</a>
</g>
</g>
<!-- Node8&#45;&gt;Node9 -->
<g id="edge8_Node000008_Node000009" class="edge">
<title>Node8&#45;&gt;Node9</title>
<g id="a_edge8_Node000008_Node000009"><a xlink:title=" ">
<path fill="none" stroke="#63b8ff" d="M284.38,-111.59C284.38,-104.86 284.38,-95.53 284.38,-87.15"/>
<polygon fill="#63b8ff" stroke="#63b8ff" points="287.88,-87.3 284.38,-77.3 280.88,-87.3 287.88,-87.3"/>
</a>
</g>
</g>
<!-- Node9&#45;&gt;Node3 -->
<g id="edge9_Node000009_Node000003" class="edge">
<title>Node9&#45;&gt;Node3</title>
<g id="a_edge9_Node000009_Node000003"><a xlink:title=" ">
<path fill="none" stroke="#63b8ff" d="M271.66,-55.59C260.88,-47.62 245.19,-36.02 232.52,-26.64"/>
<polygon fill="#63b8ff" stroke="#63b8ff" points="235.07,-23.43 224.94,-20.3 230.9,-29.06 235.07,-23.43"/>
</a>
</g>
</g>
<!-- Node9&#45;&gt;Node4 -->
<g id="edge10_Node000009_Node000004" class="edge">
<title>Node9&#45;&gt;Node4</title>
<g id="a_edge10_Node000009_Node000004"><a xlink:title=" ">
<path fill="none" stroke="#63b8ff" d="M297.09,-55.59C307.87,-47.62 323.56,-36.02 336.23,-26.64"/>
<polygon fill="#63b8ff" stroke="#63b8ff" points="337.85,-29.06 343.81,-20.3 333.68,-23.43 337.85,-29.06"/>
</a>
</g>
</g>
<!-- Node13&#45;&gt;Node7 -->
<g id="edge15_Node000013_Node000007" class="edge">
<title>Node13&#45;&gt;Node7</title>
<g id="a_edge15_Node000013_Node000007"><a xlink:title=" ">
<path fill="none" stroke="#63b8ff" d="M156.37,-223.59C181.45,-214.86 219.01,-201.77 246.97,-192.03"/>
<polygon fill="#63b8ff" stroke="#63b8ff" points="247.87,-195.07 256.17,-188.48 245.57,-188.46 247.87,-195.07"/>
</a>
</g>
</g>
</g>
</svg>
