<?xml version="1.0" encoding="UTF-8" standalone="no"?>
<!DOCTYPE svg PUBLIC "-//W3C//DTD SVG 1.1//EN"
 "http://www.w3.org/Graphics/SVG/1.1/DTD/svg11.dtd">
<!-- Generated by graphviz version 8.1.0 (20230707.0739)
 -->
<!-- Title: dspic33ck&#45;dab.X/sources/pwrctrl/pwrctrl_comm_interface.h Pages: 1 -->
<svg width="133pt" height="276pt"
 viewBox="0.00 0.00 133.25 276.00" xmlns="http://www.w3.org/2000/svg" xmlns:xlink="http://www.w3.org/1999/xlink">

<svg id="main" version="1.1" xmlns="http://www.w3.org/2000/svg" xmlns:xlink="http://www.w3.org/1999/xlink" xml:space="preserve" onload="init(evt)">
<style type="text/css"><![CDATA[
.node, .edge {opacity: 0.7;}
.node.selected, .edge.selected {opacity: 1;}
.edge:hover path { stroke: red; }
.edge:hover polygon { stroke: red; fill: red; }
]]></style>
<script type="application/ecmascript" xlink:href="svg.min.js"/>
<svg id="graph" class="graph">
<g id="graph0" class="graph" transform="scale(1 1) rotate(0) translate(4 272)">
<title>dspic33ck&#45;dab.X/sources/pwrctrl/pwrctrl_comm_interface.h</title>
<!-- Node1 -->
<g id="Node000001" class="node">
<title>Node1</title>
<g id="a_Node000001"><a xlink:title="Contains public functions relevant for power control communication interface.">
<polygon fill="#999999" stroke="#666666" points="124.75,-268 0,-268 0,-224 124.75,-224 124.75,-268"/>
<text text-anchor="start" x="8" y="-254.5" font-family="Helvetica,sans-Serif" font-size="10.00">dspic33ck&#45;dab.X/sources</text>
<text text-anchor="start" x="8" y="-242.5" font-family="Helvetica,sans-Serif" font-size="10.00">/pwrctrl/pwrctrl_comm</text>
<text text-anchor="middle" x="62.38" y="-230.5" font-family="Helvetica,sans-Serif" font-size="10.00">_interface.h</text>
</a>
</g>
</g>
<!-- Node2 -->
<g id="Node000002" class="node">
<title>Node2</title>
<g id="a_Node000002"><a xlink:href="a00503_source.html" target="_top" xlink:title=" ">
<polygon fill="white" stroke="#666666" points="107.12,-188 17.62,-188 17.62,-168 107.12,-168 107.12,-188"/>
<text text-anchor="middle" x="62.38" y="-174.5" font-family="Helvetica,sans-Serif" font-size="10.00">pwrctrl_typedef.h</text>
</a>
</g>
</g>
<!-- Node1&#45;&gt;Node2 -->
<g id="edge1_Node000001_Node000002" class="edge">
<title>Node1&#45;&gt;Node2</title>
<g id="a_edge1_Node000001_Node000002"><a xlink:title=" ">
<path fill="none" stroke="#63b8ff" d="M62.38,-223.75C62.38,-215.94 62.38,-207.11 62.38,-199.38"/>
<polygon fill="#63b8ff" stroke="#63b8ff" points="65.88,-199.42 62.38,-189.42 58.88,-199.42 65.88,-199.42"/>
</a>
</g>
</g>
<!-- Node3 -->
<g id="Node000003" class="node">
<title>Node3</title>
<g id="a_Node000003"><a xlink:href="a00401.html" target="_top" xlink:title="Contains fault data types.">
<polygon fill="white" stroke="#666666" points="112.38,-132 12.38,-132 12.38,-112 112.38,-112 112.38,-132"/>
<text text-anchor="middle" x="62.38" y="-118.5" font-family="Helvetica,sans-Serif" font-size="10.00">fault/fault_typedef.h</text>
</a>
</g>
</g>
<!-- Node2&#45;&gt;Node3 -->
<g id="edge2_Node000002_Node000003" class="edge">
<title>Node2&#45;&gt;Node3</title>
<g id="a_edge2_Node000002_Node000003"><a xlink:title=" ">
<path fill="none" stroke="#63b8ff" d="M62.38,-167.59C62.38,-160.86 62.38,-151.53 62.38,-143.15"/>
<polygon fill="#63b8ff" stroke="#63b8ff" points="65.88,-143.3 62.38,-133.3 58.88,-143.3 65.88,-143.3"/>
</a>
</g>
</g>
<!-- Node4 -->
<g id="Node000004" class="node">
<title>Node4</title>
<g id="a_Node000004"><a xlink:href="a00392.html" target="_top" xlink:title="Contains fault generic public functions.">
<polygon fill="white" stroke="#666666" points="104.88,-76 19.88,-76 19.88,-56 104.88,-56 104.88,-76"/>
<text text-anchor="middle" x="62.38" y="-62.5" font-family="Helvetica,sans-Serif" font-size="10.00">fault_common.h</text>
</a>
</g>
</g>
<!-- Node3&#45;&gt;Node4 -->
<g id="edge3_Node000003_Node000004" class="edge">
<title>Node3&#45;&gt;Node4</title>
<g id="a_edge3_Node000003_Node000004"><a xlink:title=" ">
<path fill="none" stroke="#63b8ff" d="M62.38,-111.59C62.38,-104.86 62.38,-95.53 62.38,-87.15"/>
<polygon fill="#63b8ff" stroke="#63b8ff" points="65.88,-87.3 62.38,-77.3 58.88,-87.3 65.88,-87.3"/>
</a>
</g>
</g>
<!-- Node5 -->
<g id="Node000005" class="node">
<title>Node5</title>
<g id="a_Node000005"><a xlink:title=" ">
<polygon fill="#e0e0e0" stroke="#999999" points="51.5,-20 3.25,-20 3.25,0 51.5,0 51.5,-20"/>
<text text-anchor="middle" x="27.38" y="-6.5" font-family="Helvetica,sans-Serif" font-size="10.00">stdint.h</text>
</a>
</g>
</g>
<!-- Node4&#45;&gt;Node5 -->
<g id="edge4_Node000004_Node000005" class="edge">
<title>Node4&#45;&gt;Node5</title>
<g id="a_edge4_Node000004_Node000005"><a xlink:title=" ">
<path fill="none" stroke="#63b8ff" d="M56.28,-55.59C51.61,-48.39 45.03,-38.23 39.32,-29.43"/>
<polygon fill="#63b8ff" stroke="#63b8ff" points="41.78,-27.79 33.4,-21.3 35.9,-31.59 41.78,-27.79"/>
</a>
</g>
</g>
<!-- Node6 -->
<g id="Node000006" class="node">
<title>Node6</title>
<g id="a_Node000006"><a xlink:title=" ">
<polygon fill="#e0e0e0" stroke="#999999" points="125.25,-20 69.5,-20 69.5,0 125.25,0 125.25,-20"/>
<text text-anchor="middle" x="97.38" y="-6.5" font-family="Helvetica,sans-Serif" font-size="10.00">stdbool.h</text>
</a>
</g>
</g>
<!-- Node4&#45;&gt;Node6 -->
<g id="edge5_Node000004_Node000006" class="edge">
<title>Node4&#45;&gt;Node6</title>
<g id="a_edge5_Node000004_Node000006"><a xlink:title=" ">
<path fill="none" stroke="#63b8ff" d="M68.47,-55.59C73.14,-48.39 79.72,-38.23 85.43,-29.43"/>
<polygon fill="#63b8ff" stroke="#63b8ff" points="88.85,-31.59 91.35,-21.3 82.97,-27.79 88.85,-31.59"/>
</a>
</g>
</g>
</g>
</svg>
</svg>

<style type='text/css'>
<![CDATA[
[data-mouse-over-selected='false'] { opacity: 0.7; }
[data-mouse-over-selected='true']  { opacity: 1.0; }
]]>
</style>
<script type="application/ecmascript"><![CDATA[
document.addEventListener('DOMContentLoaded', (event) => {
  highlightEdges();
  highlightAdjacentNodes();
});
]]></script>
</svg>
