<?xml version="1.0" encoding="UTF-8" standalone="no"?>
<!DOCTYPE svg PUBLIC "-//W3C//DTD SVG 1.1//EN"
 "http://www.w3.org/Graphics/SVG/1.1/DTD/svg11.dtd">
<!-- Generated by graphviz version 8.1.0 (20230707.0739)
 -->
<!-- Title: dspic33ck&#45;dab.X/sources/pwrctrl/pwrctrl.c Pages: 1 -->
<svg width="2479pt" height="388pt"
 viewBox="0.00 0.00 2478.78 388.00" xmlns="http://www.w3.org/2000/svg" xmlns:xlink="http://www.w3.org/1999/xlink">
<g id="graph0" class="graph" transform="scale(1 1) rotate(0) translate(4 384)">
<title>dspic33ck&#45;dab.X/sources/pwrctrl/pwrctrl.c</title>
<!-- Node1 -->
<g id="Node000001" class="node">
<title>Node1</title>
<g id="a_Node000001"><a xlink:title="Contains power control initialization including control loop initialization and start&#45;up initializati...">
<polygon fill="#999999" stroke="#666666" points="707.62,-380 582.88,-380 582.88,-348 707.62,-348 707.62,-380"/>
<text text-anchor="start" x="590.88" y="-366.5" font-family="Helvetica,sans-Serif" font-size="10.00">dspic33ck&#45;dab.X/sources</text>
<text text-anchor="middle" x="645.25" y="-354.5" font-family="Helvetica,sans-Serif" font-size="10.00">/pwrctrl/pwrctrl.c</text>
</a>
</g>
</g>
<!-- Node2 -->
<g id="Node000002" class="node">
<title>Node2</title>
<g id="a_Node000002"><a xlink:title=" ">
<polygon fill="#e0e0e0" stroke="#999999" points="453.62,-20 418.88,-20 418.88,0 453.62,0 453.62,-20"/>
<text text-anchor="middle" x="436.25" y="-6.5" font-family="Helvetica,sans-Serif" font-size="10.00">xc.h</text>
</a>
</g>
</g>
<!-- Node1&#45;&gt;Node2 -->
<g id="edge1_Node000001_Node000002" class="edge">
<title>Node1&#45;&gt;Node2</title>
<g id="a_edge1_Node000001_Node000002"><a xlink:title=" ">
<path fill="none" stroke="#63b8ff" d="M582.43,-362.68C439.5,-360.26 102.25,-344.24 102.25,-247 102.25,-247 102.25,-247 102.25,-133 102.25,-97.75 95.11,-79.65 121.25,-56 162.98,-18.25 337.76,-12.08 407.42,-11.14"/>
<polygon fill="#63b8ff" stroke="#63b8ff" points="407.44,-14.63 417.41,-11.02 407.37,-7.63 407.44,-14.63"/>
</a>
</g>
</g>
<!-- Node3 -->
<g id="Node000003" class="node">
<title>Node3</title>
<g id="a_Node000003"><a xlink:href="a00182.html" target="_top" xlink:title="This is the generated driver types header file for the PWM driver.">
<polygon fill="white" stroke="#666666" points="128.5,-20 0,-20 0,0 128.5,0 128.5,-20"/>
<text text-anchor="middle" x="64.25" y="-6.5" font-family="Helvetica,sans-Serif" font-size="10.00">pwm_hs/pwm_hs_types.h</text>
</a>
</g>
</g>
<!-- Node1&#45;&gt;Node3 -->
<g id="edge2_Node000001_Node000003" class="edge">
<title>Node1&#45;&gt;Node3</title>
<g id="a_edge2_Node000001_Node000003"><a xlink:title=" ">
<path fill="none" stroke="#63b8ff" d="M582.74,-360.1C465.64,-354.13 217.69,-338.7 136.25,-312 82.29,-294.31 26.25,-303.79 26.25,-247 26.25,-247 26.25,-247 26.25,-133 26.25,-95.27 43.02,-53.83 54.28,-30.26"/>
<polygon fill="#63b8ff" stroke="#63b8ff" points="57.82,-32 59.13,-21.49 51.55,-28.89 57.82,-32"/>
</a>
</g>
</g>
<!-- Node4 -->
<g id="Node000004" class="node">
<title>Node4</title>
<g id="a_Node000004"><a xlink:href="a00173.html" target="_top" xlink:title="This is the generated driver header file for the PWM driver.">
<polygon fill="white" stroke="#666666" points="327,-144 243.5,-144 243.5,-124 327,-124 327,-144"/>
<text text-anchor="middle" x="285.25" y="-130.5" font-family="Helvetica,sans-Serif" font-size="10.00">pwm_hs/pwm.h</text>
</a>
</g>
</g>
<!-- Node1&#45;&gt;Node4 -->
<g id="edge3_Node000001_Node000004" class="edge">
<title>Node1&#45;&gt;Node4</title>
<g id="a_edge3_Node000001_Node000004"><a xlink:title=" ">
<path fill="none" stroke="#63b8ff" d="M620.79,-347.51C554.86,-305.75 374.06,-191.25 308.98,-150.03"/>
<polygon fill="#63b8ff" stroke="#63b8ff" points="311.23,-146.68 300.91,-144.28 307.48,-152.59 311.23,-146.68"/>
</a>
</g>
</g>
<!-- Node9 -->
<g id="Node000009" class="node">
<title>Node9</title>
<g id="a_Node000009"><a xlink:href="a00314_source.html" target="_top" xlink:title=" ">
<polygon fill="white" stroke="#666666" points="687.75,-144 602.75,-144 602.75,-124 687.75,-124 687.75,-144"/>
<text text-anchor="middle" x="645.25" y="-130.5" font-family="Helvetica,sans-Serif" font-size="10.00">config/macros.h</text>
</a>
</g>
</g>
<!-- Node1&#45;&gt;Node9 -->
<g id="edge13_Node000001_Node000009" class="edge">
<title>Node1&#45;&gt;Node9</title>
<g id="a_edge13_Node000001_Node000009"><a xlink:title=" ">
<path fill="none" stroke="#63b8ff" d="M645.25,-347.69C645.25,-307.71 645.25,-200.21 645.25,-155.22"/>
<polygon fill="#63b8ff" stroke="#63b8ff" points="648.75,-155.3 645.25,-145.3 641.75,-155.3 648.75,-155.3"/>
</a>
</g>
</g>
<!-- Node15 -->
<g id="Node000015" class="node">
<title>Node15</title>
<g id="a_Node000015"><a xlink:href="a00470_source.html" target="_top" xlink:title=" ">
<polygon fill="white" stroke="#666666" points="855.62,-312 802.88,-312 802.88,-292 855.62,-292 855.62,-312"/>
<text text-anchor="middle" x="829.25" y="-298.5" font-family="Helvetica,sans-Serif" font-size="10.00">pwrctrl.h</text>
</a>
</g>
</g>
<!-- Node1&#45;&gt;Node15 -->
<g id="edge27_Node000001_Node000015" class="edge">
<title>Node1&#45;&gt;Node15</title>
<g id="a_edge27_Node000001_Node000015"><a xlink:title=" ">
<path fill="none" stroke="#63b8ff" d="M692.63,-347.55C723.6,-337.45 763.47,-324.45 792.14,-315.1"/>
<polygon fill="#63b8ff" stroke="#63b8ff" points="793.11,-318.14 801.53,-311.71 790.94,-311.49 793.11,-318.14"/>
</a>
</g>
</g>
<!-- Node23 -->
<g id="Node000023" class="node">
<title>Node23</title>
<g id="a_Node000023"><a xlink:href="a00386.html" target="_top" xlink:title="Contains public fault functions.">
<polygon fill="white" stroke="#666666" points="1226.88,-312 1163.62,-312 1163.62,-292 1226.88,-292 1226.88,-312"/>
<text text-anchor="middle" x="1195.25" y="-298.5" font-family="Helvetica,sans-Serif" font-size="10.00">fault/fault.h</text>
</a>
</g>
</g>
<!-- Node1&#45;&gt;Node23 -->
<g id="edge39_Node000001_Node000023" class="edge">
<title>Node1&#45;&gt;Node23</title>
<g id="a_edge39_Node000001_Node000023"><a xlink:title=" ">
<path fill="none" stroke="#63b8ff" d="M708.07,-356.15C821.13,-343.81 1056.06,-318.18 1152.51,-307.66"/>
<polygon fill="#63b8ff" stroke="#63b8ff" points="1152.74,-311.05 1162.3,-306.49 1151.98,-304.09 1152.74,-311.05"/>
</a>
</g>
</g>
<!-- Node27 -->
<g id="Node000027" class="node">
<title>Node27</title>
<g id="a_Node000027"><a xlink:href="a00449.html" target="_top" xlink:title="Contains public functions and data types relevant for DCDT file interface.">
<polygon fill="white" stroke="#666666" points="1562.5,-144 1464,-144 1464,-124 1562.5,-124 1562.5,-144"/>
<text text-anchor="middle" x="1513.25" y="-130.5" font-family="Helvetica,sans-Serif" font-size="10.00">dcdt/pwrctrl_dcdt.h</text>
</a>
</g>
</g>
<!-- Node1&#45;&gt;Node27 -->
<g id="edge56_Node000001_Node000027" class="edge">
<title>Node1&#45;&gt;Node27</title>
<g id="a_edge56_Node000001_Node000027"><a xlink:title=" ">
<path fill="none" stroke="#63b8ff" d="M708.09,-361.79C842.74,-358.53 1154.9,-347.31 1254.25,-312 1356.82,-275.54 1457.12,-188.11 1496.16,-151.53"/>
<polygon fill="#63b8ff" stroke="#63b8ff" points="1498.09,-154.57 1502.94,-145.15 1493.27,-149.49 1498.09,-154.57"/>
</a>
</g>
</g>
<!-- Node4&#45;&gt;Node2 -->
<g id="edge4_Node000004_Node000002" class="edge">
<title>Node4&#45;&gt;Node2</title>
<g id="a_edge4_Node000004_Node000002"><a xlink:title=" ">
<path fill="none" stroke="#63b8ff" d="M264.18,-123.54C250.34,-116.06 233.34,-104.19 225.25,-88 218.89,-75.28 216.3,-67.06 225.25,-56 247.92,-27.98 355.75,-16.66 407.89,-12.76"/>
<polygon fill="#63b8ff" stroke="#63b8ff" points="407.97,-16.2 417.7,-12 407.48,-9.21 407.97,-16.2"/>
</a>
</g>
</g>
<!-- Node4&#45;&gt;Node3 -->
<g id="edge8_Node000004_Node000003" class="edge">
<title>Node4&#45;&gt;Node3</title>
<g id="a_edge8_Node000004_Node000003"><a xlink:title=" ">
<path fill="none" stroke="#63b8ff" d="M243.32,-129.17C208.14,-124.25 157.91,-113.11 121.25,-88 99.57,-73.15 82.94,-47.3 73.38,-29.69"/>
<polygon fill="#63b8ff" stroke="#63b8ff" points="76.29,-28.69 68.59,-21.41 70.07,-31.9 76.29,-28.69"/>
</a>
</g>
</g>
<!-- Node5 -->
<g id="Node000005" class="node">
<title>Node5</title>
<g id="a_Node000005"><a xlink:title=" ">
<polygon fill="#e0e0e0" stroke="#999999" points="823.38,-20 775.12,-20 775.12,0 823.38,0 823.38,-20"/>
<text text-anchor="middle" x="799.25" y="-6.5" font-family="Helvetica,sans-Serif" font-size="10.00">stdint.h</text>
</a>
</g>
</g>
<!-- Node4&#45;&gt;Node5 -->
<g id="edge5_Node000004_Node000005" class="edge">
<title>Node4&#45;&gt;Node5</title>
<g id="a_edge5_Node000004_Node000005"><a xlink:title=" ">
<path fill="none" stroke="#63b8ff" d="M327.44,-129.64C370.12,-124.91 437.05,-113.76 489.25,-88 509.05,-78.23 507.2,-65.24 527.25,-56 606.22,-19.6 710.09,-12.2 763.75,-10.97"/>
<polygon fill="#63b8ff" stroke="#63b8ff" points="763.78,-14.46 773.72,-10.79 763.66,-7.46 763.78,-14.46"/>
</a>
</g>
</g>
<!-- Node6 -->
<g id="Node000006" class="node">
<title>Node6</title>
<g id="a_Node000006"><a xlink:title=" ">
<polygon fill="#e0e0e0" stroke="#999999" points="1099.12,-20 1043.38,-20 1043.38,0 1099.12,0 1099.12,-20"/>
<text text-anchor="middle" x="1071.25" y="-6.5" font-family="Helvetica,sans-Serif" font-size="10.00">stdbool.h</text>
</a>
</g>
</g>
<!-- Node4&#45;&gt;Node6 -->
<g id="edge6_Node000004_Node000006" class="edge">
<title>Node4&#45;&gt;Node6</title>
<g id="a_edge6_Node000004_Node000006"><a xlink:title=" ">
<path fill="none" stroke="#63b8ff" d="M327.18,-131.69C464.53,-127.19 895.38,-111.35 953.25,-88 973.73,-79.74 973.1,-68.58 991.25,-56 1007.58,-44.68 1026.98,-33.71 1042.59,-25.44"/>
<polygon fill="#63b8ff" stroke="#63b8ff" points="1043.98,-28.14 1051.22,-20.41 1040.74,-21.93 1043.98,-28.14"/>
</a>
</g>
</g>
<!-- Node7 -->
<g id="Node000007" class="node">
<title>Node7</title>
<g id="a_Node000007"><a xlink:title=" ">
<polygon fill="#e0e0e0" stroke="#999999" points="178,-82 130.5,-82 130.5,-62 178,-62 178,-82"/>
<text text-anchor="middle" x="154.25" y="-68.5" font-family="Helvetica,sans-Serif" font-size="10.00">stdlib.h</text>
</a>
</g>
</g>
<!-- Node4&#45;&gt;Node7 -->
<g id="edge7_Node000004_Node000007" class="edge">
<title>Node4&#45;&gt;Node7</title>
<g id="a_edge7_Node000004_Node000007"><a xlink:title=" ">
<path fill="none" stroke="#63b8ff" d="M264.78,-123.62C243.25,-113.76 209.13,-98.13 184.49,-86.85"/>
<polygon fill="#63b8ff" stroke="#63b8ff" points="186.12,-83.29 175.58,-82.31 183.21,-89.66 186.12,-83.29"/>
</a>
</g>
</g>
<!-- Node8 -->
<g id="Node000008" class="node">
<title>Node8</title>
<g id="a_Node000008"><a xlink:href="a00179_source.html" target="_top" xlink:title=" ">
<polygon fill="white" stroke="#666666" points="336.38,-82 234.12,-82 234.12,-62 336.38,-62 336.38,-82"/>
<text text-anchor="middle" x="285.25" y="-68.5" font-family="Helvetica,sans-Serif" font-size="10.00">pwm_hs_interface.h</text>
</a>
</g>
</g>
<!-- Node4&#45;&gt;Node8 -->
<g id="edge9_Node000004_Node000008" class="edge">
<title>Node4&#45;&gt;Node8</title>
<g id="a_edge9_Node000004_Node000008"><a xlink:title=" ">
<path fill="none" stroke="#63b8ff" d="M285.25,-123.62C285.25,-115.48 285.25,-103.39 285.25,-93.07"/>
<polygon fill="#63b8ff" stroke="#63b8ff" points="288.75,-93.11 285.25,-83.11 281.75,-93.11 288.75,-93.11"/>
</a>
</g>
</g>
<!-- Node8&#45;&gt;Node3 -->
<g id="edge12_Node000008_Node000003" class="edge">
<title>Node8&#45;&gt;Node3</title>
<g id="a_edge12_Node000008_Node000003"><a xlink:title=" ">
<path fill="none" stroke="#63b8ff" d="M250.72,-61.62C212.64,-51.29 151.22,-34.61 109.36,-23.25"/>
<polygon fill="#63b8ff" stroke="#63b8ff" points="110.47,-19.65 99.9,-20.41 108.64,-26.41 110.47,-19.65"/>
</a>
</g>
</g>
<!-- Node8&#45;&gt;Node5 -->
<g id="edge11_Node000008_Node000005" class="edge">
<title>Node8&#45;&gt;Node5</title>
<g id="a_edge11_Node000008_Node000005"><a xlink:title=" ">
<path fill="none" stroke="#63b8ff" d="M336.81,-62.67C351.77,-60.37 368.15,-57.97 383.25,-56 524.1,-37.61 692.49,-21.06 764.17,-14.27"/>
<polygon fill="#63b8ff" stroke="#63b8ff" points="764.2,-17.69 773.82,-13.26 763.54,-10.72 764.2,-17.69"/>
</a>
</g>
</g>
<!-- Node8&#45;&gt;Node6 -->
<g id="edge10_Node000008_Node000006" class="edge">
<title>Node8&#45;&gt;Node6</title>
<g id="a_edge10_Node000008_Node000006"><a xlink:title=" ">
<path fill="none" stroke="#63b8ff" d="M336.76,-62.26C351.72,-59.95 368.11,-57.65 383.25,-56 629.52,-29.15 927.26,-16.3 1032.29,-12.37"/>
<polygon fill="#63b8ff" stroke="#63b8ff" points="1032.13,-15.84 1041.99,-11.97 1031.87,-8.84 1032.13,-15.84"/>
</a>
</g>
</g>
<!-- Node9&#45;&gt;Node2 -->
<g id="edge14_Node000009_Node000002" class="edge">
<title>Node9&#45;&gt;Node2</title>
<g id="a_edge14_Node000009_Node000002"><a xlink:title=" ">
<path fill="none" stroke="#63b8ff" d="M602.32,-132.07C535.34,-129.61 410.76,-120.64 383.25,-88 374.08,-77.13 377.28,-68.91 383.25,-56 388.86,-43.88 399.51,-33.84 409.81,-26.33"/>
<polygon fill="#63b8ff" stroke="#63b8ff" points="411.28,-28.89 417.62,-20.41 407.37,-23.08 411.28,-28.89"/>
</a>
</g>
</g>
<!-- Node9&#45;&gt;Node5 -->
<g id="edge15_Node000009_Node000005" class="edge">
<title>Node9&#45;&gt;Node5</title>
<g id="a_edge15_Node000009_Node000005"><a xlink:title=" ">
<path fill="none" stroke="#63b8ff" d="M656.83,-123.83C682.91,-103.16 746.56,-52.74 779.21,-26.88"/>
<polygon fill="#63b8ff" stroke="#63b8ff" points="780.88,-29.23 786.54,-20.28 776.53,-23.74 780.88,-29.23"/>
</a>
</g>
</g>
<!-- Node9&#45;&gt;Node6 -->
<g id="edge16_Node000009_Node000006" class="edge">
<title>Node9&#45;&gt;Node6</title>
<g id="a_edge16_Node000009_Node000006"><a xlink:title=" ">
<path fill="none" stroke="#63b8ff" d="M688.1,-131.25C788.54,-126.75 1032.74,-113.31 1059.25,-88 1074.28,-73.65 1075.59,-48.81 1074.24,-31.23"/>
<polygon fill="#63b8ff" stroke="#63b8ff" points="1077.62,-30.97 1073.01,-21.43 1070.67,-31.76 1077.62,-30.97"/>
</a>
</g>
</g>
<!-- Node10 -->
<g id="Node000010" class="node">
<title>Node10</title>
<g id="a_Node000010"><a xlink:title=" ">
<polygon fill="#e0e0e0" stroke="#999999" points="2423.5,-20 2373,-20 2373,0 2423.5,0 2423.5,-20"/>
<text text-anchor="middle" x="2398.25" y="-6.5" font-family="Helvetica,sans-Serif" font-size="10.00">stddef.h</text>
</a>
</g>
</g>
<!-- Node9&#45;&gt;Node10 -->
<g id="edge17_Node000009_Node000010" class="edge">
<title>Node9&#45;&gt;Node10</title>
<g id="a_edge17_Node000009_Node000010"><a xlink:title=" ">
<path fill="none" stroke="#63b8ff" d="M688.06,-131.8C766.65,-128.9 938.83,-119.21 1080.25,-88 1122.93,-78.58 1130.28,-64 1173.25,-56 1409.97,-11.93 2185.3,-10.61 2362.13,-10.9"/>
<polygon fill="#63b8ff" stroke="#63b8ff" points="2361.89,-14.4 2371.9,-10.92 2361.9,-7.4 2361.89,-14.4"/>
</a>
</g>
</g>
<!-- Node11 -->
<g id="Node000011" class="node">
<title>Node11</title>
<g id="a_Node000011"><a xlink:title=" ">
<polygon fill="#e0e0e0" stroke="#999999" points="582.25,-82 536.25,-82 536.25,-62 582.25,-62 582.25,-82"/>
<text text-anchor="middle" x="559.25" y="-68.5" font-family="Helvetica,sans-Serif" font-size="10.00">math.h</text>
</a>
</g>
</g>
<!-- Node9&#45;&gt;Node11 -->
<g id="edge18_Node000009_Node000011" class="edge">
<title>Node9&#45;&gt;Node11</title>
<g id="a_edge18_Node000009_Node000011"><a xlink:title=" ">
<path fill="none" stroke="#63b8ff" d="M631.81,-123.62C618.31,-114.2 597.26,-99.52 581.3,-88.39"/>
<polygon fill="#63b8ff" stroke="#63b8ff" points="583.8,-85.16 573.59,-82.31 579.79,-90.9 583.8,-85.16"/>
</a>
</g>
</g>
<!-- Node12 -->
<g id="Node000012" class="node">
<title>Node12</title>
<g id="a_Node000012"><a xlink:href="a00317_source.html" target="_top" xlink:title=" ">
<polygon fill="white" stroke="#666666" points="479.88,-82 392.62,-82 392.62,-62 479.88,-62 479.88,-82"/>
<text text-anchor="middle" x="436.25" y="-68.5" font-family="Helvetica,sans-Serif" font-size="10.00">useful_macros.h</text>
</a>
</g>
</g>
<!-- Node9&#45;&gt;Node12 -->
<g id="edge19_Node000009_Node000012" class="edge">
<title>Node9&#45;&gt;Node12</title>
<g id="a_edge19_Node000009_Node000012"><a xlink:title=" ">
<path fill="none" stroke="#63b8ff" d="M612.59,-123.62C576.73,-113.33 518.99,-96.75 479.42,-85.39"/>
<polygon fill="#63b8ff" stroke="#63b8ff" points="480.6,-81.8 470.02,-82.41 478.67,-88.53 480.6,-81.8"/>
</a>
</g>
</g>
<!-- Node13 -->
<g id="Node000013" class="node">
<title>Node13</title>
<g id="a_Node000013"><a xlink:href="a00308_source.html" target="_top" xlink:title=" ">
<polygon fill="white" stroke="#666666" points="1050.12,-82 1000.38,-82 1000.38,-62 1050.12,-62 1050.12,-82"/>
<text text-anchor="middle" x="1025.25" y="-68.5" font-family="Helvetica,sans-Serif" font-size="10.00">config.h</text>
</a>
</g>
</g>
<!-- Node9&#45;&gt;Node13 -->
<g id="edge21_Node000009_Node000013" class="edge">
<title>Node9&#45;&gt;Node13</title>
<g id="a_edge21_Node000009_Node000013"><a xlink:title=" ">
<path fill="none" stroke="#63b8ff" d="M688.12,-130.59C753.36,-126.21 881.07,-114.77 986.25,-88 988.45,-87.44 990.69,-86.79 992.93,-86.09"/>
<polygon fill="#63b8ff" stroke="#63b8ff" points="993.98,-89.09 1002.27,-82.49 991.68,-82.47 993.98,-89.09"/>
</a>
</g>
</g>
<!-- Node14 -->
<g id="Node000014" class="node">
<title>Node14</title>
<g id="a_Node000014"><a xlink:href="a00311_source.html" target="_top" xlink:title=" ">
<polygon fill="white" stroke="#666666" points="663.88,-82 600.62,-82 600.62,-62 663.88,-62 663.88,-82"/>
<text text-anchor="middle" x="632.25" y="-68.5" font-family="Helvetica,sans-Serif" font-size="10.00">hardware.h</text>
</a>
</g>
</g>
<!-- Node9&#45;&gt;Node14 -->
<g id="edge26_Node000009_Node000014" class="edge">
<title>Node9&#45;&gt;Node14</title>
<g id="a_edge26_Node000009_Node000014"><a xlink:title=" ">
<path fill="none" stroke="#63b8ff" d="M643.22,-123.62C641.43,-115.39 638.78,-103.13 636.53,-92.74"/>
<polygon fill="#63b8ff" stroke="#63b8ff" points="639.76,-92.14 634.22,-83.11 632.92,-93.63 639.76,-92.14"/>
</a>
</g>
</g>
<!-- Node12&#45;&gt;Node2 -->
<g id="edge20_Node000012_Node000002" class="edge">
<title>Node12&#45;&gt;Node2</title>
<g id="a_edge20_Node000012_Node000002"><a xlink:title=" ">
<path fill="none" stroke="#63b8ff" d="M436.25,-61.62C436.25,-53.48 436.25,-41.39 436.25,-31.07"/>
<polygon fill="#63b8ff" stroke="#63b8ff" points="439.75,-31.11 436.25,-21.11 432.75,-31.11 439.75,-31.11"/>
</a>
</g>
</g>
<!-- Node13&#45;&gt;Node2 -->
<g id="edge22_Node000013_Node000002" class="edge">
<title>Node13&#45;&gt;Node2</title>
<g id="a_edge22_Node000013_Node000002"><a xlink:title=" ">
<path fill="none" stroke="#63b8ff" d="M1000.06,-64.99C986.3,-61.9 968.91,-58.31 953.25,-56 768,-28.74 542.79,-16.08 464.6,-12.28"/>
<polygon fill="#63b8ff" stroke="#63b8ff" points="464.9,-8.75 454.74,-11.77 464.57,-15.74 464.9,-8.75"/>
</a>
</g>
</g>
<!-- Node13&#45;&gt;Node5 -->
<g id="edge23_Node000013_Node000005" class="edge">
<title>Node13&#45;&gt;Node5</title>
<g id="a_edge23_Node000013_Node000005"><a xlink:title=" ">
<path fill="none" stroke="#63b8ff" d="M1000.2,-64.35C959.77,-53.62 880.03,-32.45 834.09,-20.25"/>
<polygon fill="#63b8ff" stroke="#63b8ff" points="835.29,-16.68 824.72,-17.5 833.49,-23.45 835.29,-16.68"/>
</a>
</g>
</g>
<!-- Node13&#45;&gt;Node6 -->
<g id="edge24_Node000013_Node000006" class="edge">
<title>Node13&#45;&gt;Node6</title>
<g id="a_edge24_Node000013_Node000006"><a xlink:title=" ">
<path fill="none" stroke="#63b8ff" d="M1032.44,-61.62C1039.16,-52.86 1049.38,-39.53 1057.64,-28.75"/>
<polygon fill="#63b8ff" stroke="#63b8ff" points="1060.96,-31.18 1064.26,-21.11 1055.4,-26.92 1060.96,-31.18"/>
</a>
</g>
</g>
<!-- Node13&#45;&gt;Node10 -->
<g id="edge25_Node000013_Node000010" class="edge">
<title>Node13&#45;&gt;Node10</title>
<g id="a_edge25_Node000013_Node000010"><a xlink:title=" ">
<path fill="none" stroke="#63b8ff" d="M1050.3,-67.04C1073.55,-63.53 1109.15,-58.58 1140.25,-56 1622.09,-16.05 2210.65,-11.54 2361.61,-11.05"/>
<polygon fill="#63b8ff" stroke="#63b8ff" points="2361.52,-14.55 2371.51,-11.02 2361.5,-7.55 2361.52,-14.55"/>
</a>
</g>
</g>
<!-- Node16 -->
<g id="Node000016" class="node">
<title>Node16</title>
<g id="a_Node000016"><a xlink:href="a00503_source.html" target="_top" xlink:title=" ">
<polygon fill="white" stroke="#666666" points="946,-200 856.5,-200 856.5,-180 946,-180 946,-200"/>
<text text-anchor="middle" x="901.25" y="-186.5" font-family="Helvetica,sans-Serif" font-size="10.00">pwrctrl_typedef.h</text>
</a>
</g>
</g>
<!-- Node15&#45;&gt;Node16 -->
<g id="edge28_Node000015_Node000016" class="edge">
<title>Node15&#45;&gt;Node16</title>
<g id="a_edge28_Node000015_Node000016"><a xlink:title=" ">
<path fill="none" stroke="#63b8ff" d="M820.23,-291.65C808.7,-278.52 791.57,-254.21 803.25,-236 813,-220.8 829.32,-210.66 845.87,-203.93"/>
<polygon fill="#63b8ff" stroke="#63b8ff" points="846.96,-206.89 855.15,-200.17 844.56,-200.32 846.96,-206.89"/>
</a>
</g>
</g>
<!-- Node19 -->
<g id="Node000019" class="node">
<title>Node19</title>
<g id="a_Node000019"><a xlink:href="a00476.html" target="_top" xlink:title="Contains the power control reusable functions.">
<polygon fill="white" stroke="#666666" points="1052,-256 956.5,-256 956.5,-236 1052,-236 1052,-256"/>
<text text-anchor="middle" x="1004.25" y="-242.5" font-family="Helvetica,sans-Serif" font-size="10.00">pwrctrl_common.h</text>
</a>
</g>
</g>
<!-- Node15&#45;&gt;Node19 -->
<g id="edge33_Node000015_Node000019" class="edge">
<title>Node15&#45;&gt;Node19</title>
<g id="a_edge33_Node000015_Node000019"><a xlink:title=" ">
<path fill="none" stroke="#63b8ff" d="M855.83,-292.8C884.39,-283.99 930.13,-269.87 963.3,-259.64"/>
<polygon fill="#63b8ff" stroke="#63b8ff" points="964.06,-262.76 972.58,-256.46 962,-256.07 964.06,-262.76"/>
</a>
</g>
</g>
<!-- Node20 -->
<g id="Node000020" class="node">
<title>Node20</title>
<g id="a_Node000020"><a xlink:href="a00482.html" target="_top" xlink:title="Contains public functions relevant for power control communication interface.">
<polygon fill="white" stroke="#666666" points="938.75,-256 811.75,-256 811.75,-236 938.75,-236 938.75,-256"/>
<text text-anchor="middle" x="875.25" y="-242.5" font-family="Helvetica,sans-Serif" font-size="10.00">pwrctrl_comm_interface.h</text>
</a>
</g>
</g>
<!-- Node15&#45;&gt;Node20 -->
<g id="edge34_Node000015_Node000020" class="edge">
<title>Node15&#45;&gt;Node20</title>
<g id="a_edge34_Node000015_Node000020"><a xlink:title=" ">
<path fill="none" stroke="#63b8ff" d="M837.26,-291.59C843.59,-284.16 852.61,-273.58 860.27,-264.58"/>
<polygon fill="#63b8ff" stroke="#63b8ff" points="863.51,-267.18 867.33,-257.3 858.18,-262.64 863.51,-267.18"/>
</a>
</g>
</g>
<!-- Node21 -->
<g id="Node000021" class="node">
<title>Node21</title>
<g id="a_Node000021"><a xlink:href="a00488.html" target="_top" xlink:title="Contains public function relevant for power control interrupt.">
<polygon fill="white" stroke="#666666" points="755.5,-256 687,-256 687,-236 755.5,-236 755.5,-256"/>
<text text-anchor="middle" x="721.25" y="-242.5" font-family="Helvetica,sans-Serif" font-size="10.00">pwrctrl_isr.h</text>
</a>
</g>
</g>
<!-- Node15&#45;&gt;Node21 -->
<g id="edge36_Node000015_Node000021" class="edge">
<title>Node15&#45;&gt;Node21</title>
<g id="a_edge36_Node000015_Node000021"><a xlink:title=" ">
<path fill="none" stroke="#63b8ff" d="M810.44,-291.59C793.74,-283.24 769.08,-270.92 749.93,-261.34"/>
<polygon fill="#63b8ff" stroke="#63b8ff" points="751.72,-257.82 741.21,-256.48 748.59,-264.08 751.72,-257.82"/>
</a>
</g>
</g>
<!-- Node22 -->
<g id="Node000022" class="node">
<title>Node22</title>
<g id="a_Node000022"><a xlink:href="a00497.html" target="_top" xlink:title="Contains public functions for PWM.">
<polygon fill="white" stroke="#666666" points="1148.38,-256 1070.12,-256 1070.12,-236 1148.38,-236 1148.38,-256"/>
<text text-anchor="middle" x="1109.25" y="-242.5" font-family="Helvetica,sans-Serif" font-size="10.00">pwrctrl_pwm.h</text>
</a>
</g>
</g>
<!-- Node15&#45;&gt;Node22 -->
<g id="edge37_Node000015_Node000022" class="edge">
<title>Node15&#45;&gt;Node22</title>
<g id="a_edge37_Node000015_Node000022"><a xlink:title=" ">
<path fill="none" stroke="#63b8ff" d="M856.1,-295.82C902.87,-286.8 999.98,-268.07 1059.4,-256.61"/>
<polygon fill="#63b8ff" stroke="#63b8ff" points="1059.88,-259.89 1069.03,-254.56 1058.55,-253.02 1059.88,-259.89"/>
</a>
</g>
</g>
<!-- Node17 -->
<g id="Node000017" class="node">
<title>Node17</title>
<g id="a_Node000017"><a xlink:href="a00401.html" target="_top" xlink:title="Contains fault data types.">
<polygon fill="white" stroke="#666666" points="951.25,-144 851.25,-144 851.25,-124 951.25,-124 951.25,-144"/>
<text text-anchor="middle" x="901.25" y="-130.5" font-family="Helvetica,sans-Serif" font-size="10.00">fault/fault_typedef.h</text>
</a>
</g>
</g>
<!-- Node16&#45;&gt;Node17 -->
<g id="edge29_Node000016_Node000017" class="edge">
<title>Node16&#45;&gt;Node17</title>
<g id="a_edge29_Node000016_Node000017"><a xlink:title=" ">
<path fill="none" stroke="#63b8ff" d="M901.25,-179.59C901.25,-172.86 901.25,-163.53 901.25,-155.15"/>
<polygon fill="#63b8ff" stroke="#63b8ff" points="904.75,-155.3 901.25,-145.3 897.75,-155.3 904.75,-155.3"/>
</a>
</g>
</g>
<!-- Node18 -->
<g id="Node000018" class="node">
<title>Node18</title>
<g id="a_Node000018"><a xlink:href="a00392.html" target="_top" xlink:title="Contains fault generic public functions.">
<polygon fill="white" stroke="#666666" points="943.75,-82 858.75,-82 858.75,-62 943.75,-62 943.75,-82"/>
<text text-anchor="middle" x="901.25" y="-68.5" font-family="Helvetica,sans-Serif" font-size="10.00">fault_common.h</text>
</a>
</g>
</g>
<!-- Node17&#45;&gt;Node18 -->
<g id="edge30_Node000017_Node000018" class="edge">
<title>Node17&#45;&gt;Node18</title>
<g id="a_edge30_Node000017_Node000018"><a xlink:title=" ">
<path fill="none" stroke="#63b8ff" d="M901.25,-123.62C901.25,-115.48 901.25,-103.39 901.25,-93.07"/>
<polygon fill="#63b8ff" stroke="#63b8ff" points="904.75,-93.11 901.25,-83.11 897.75,-93.11 904.75,-93.11"/>
</a>
</g>
</g>
<!-- Node18&#45;&gt;Node5 -->
<g id="edge31_Node000018_Node000005" class="edge">
<title>Node18&#45;&gt;Node5</title>
<g id="a_edge31_Node000018_Node000005"><a xlink:title=" ">
<path fill="none" stroke="#63b8ff" d="M885.31,-61.62C868.99,-52.03 843.39,-36.97 824.35,-25.77"/>
<polygon fill="#63b8ff" stroke="#63b8ff" points="826.47,-22.36 816.08,-20.31 822.92,-28.4 826.47,-22.36"/>
</a>
</g>
</g>
<!-- Node18&#45;&gt;Node6 -->
<g id="edge32_Node000018_Node000006" class="edge">
<title>Node18&#45;&gt;Node6</title>
<g id="a_edge32_Node000018_Node000006"><a xlink:title=" ">
<path fill="none" stroke="#63b8ff" d="M927.81,-61.62C956.42,-51.53 1002.15,-35.39 1034.27,-24.05"/>
<polygon fill="#63b8ff" stroke="#63b8ff" points="1035.33,-27.04 1043.59,-20.41 1033,-20.44 1035.33,-27.04"/>
</a>
</g>
</g>
<!-- Node20&#45;&gt;Node16 -->
<g id="edge35_Node000020_Node000016" class="edge">
<title>Node20&#45;&gt;Node16</title>
<g id="a_edge35_Node000020_Node000016"><a xlink:title=" ">
<path fill="none" stroke="#63b8ff" d="M879.78,-235.59C883.17,-228.55 887.93,-218.67 892.1,-210"/>
<polygon fill="#63b8ff" stroke="#63b8ff" points="895.59,-211.83 896.77,-201.3 889.28,-208.79 895.59,-211.83"/>
</a>
</g>
</g>
<!-- Node22&#45;&gt;Node16 -->
<g id="edge38_Node000022_Node000016" class="edge">
<title>Node22&#45;&gt;Node16</title>
<g id="a_edge38_Node000022_Node000016"><a xlink:title=" ">
<path fill="none" stroke="#63b8ff" d="M1073.02,-235.59C1038.34,-226.59 985.84,-212.96 948.02,-203.14"/>
<polygon fill="#63b8ff" stroke="#63b8ff" points="949.32,-199.6 938.76,-200.48 947.56,-206.38 949.32,-199.6"/>
</a>
</g>
</g>
<!-- Node23&#45;&gt;Node10 -->
<g id="edge40_Node000023_Node000010" class="edge">
<title>Node23&#45;&gt;Node10</title>
<g id="a_edge40_Node000023_Node000010"><a xlink:title=" ">
<path fill="none" stroke="#63b8ff" d="M1227.16,-297.87C1296.55,-290.99 1466.36,-273.73 1608.25,-256 1961.88,-211.8 2079.41,-294.95 2402.25,-144 2445.59,-123.74 2486.61,-98.3 2464.25,-56 2457.23,-42.71 2444.32,-32.61 2431.77,-25.38"/>
<polygon fill="#63b8ff" stroke="#63b8ff" points="2433.83,-21.98 2423.35,-20.4 2430.56,-28.17 2433.83,-21.98"/>
</a>
</g>
</g>
<!-- Node23&#45;&gt;Node13 -->
<g id="edge55_Node000023_Node000013" class="edge">
<title>Node23&#45;&gt;Node13</title>
<g id="a_edge55_Node000023_Node000013"><a xlink:title=" ">
<path fill="none" stroke="#63b8ff" d="M1194.64,-291.63C1193.45,-278.49 1190.02,-254.15 1180.25,-236 1146.09,-172.5 1080.58,-115.81 1046.7,-89.13"/>
<polygon fill="#63b8ff" stroke="#63b8ff" points="1049.09,-85.78 1039.04,-82.43 1044.81,-91.32 1049.09,-85.78"/>
</a>
</g>
</g>
<!-- Node23&#45;&gt;Node16 -->
<g id="edge53_Node000023_Node000016" class="edge">
<title>Node23&#45;&gt;Node16</title>
<g id="a_edge53_Node000023_Node000016"><a xlink:title=" ">
<path fill="none" stroke="#63b8ff" d="M1192.61,-291.73C1187.99,-277.31 1176.99,-249.74 1157.25,-236 1125.69,-214.04 1022.73,-201.38 957.4,-195.36"/>
<polygon fill="#63b8ff" stroke="#63b8ff" points="957.73,-191.79 947.46,-194.39 957.11,-198.76 957.73,-191.79"/>
</a>
</g>
</g>
<!-- Node23&#45;&gt;Node19 -->
<g id="edge54_Node000023_Node000019" class="edge">
<title>Node23&#45;&gt;Node19</title>
<g id="a_edge54_Node000023_Node000019"><a xlink:title=" ">
<path fill="none" stroke="#63b8ff" d="M1163.28,-291.96C1131.71,-283.04 1083.2,-269.32 1048.05,-259.38"/>
<polygon fill="#63b8ff" stroke="#63b8ff" points="1049.18,-255.78 1038.61,-256.43 1047.28,-262.52 1049.18,-255.78"/>
</a>
</g>
</g>
<!-- Node23&#45;&gt;Node22 -->
<g id="edge52_Node000023_Node000022" class="edge">
<title>Node23&#45;&gt;Node22</title>
<g id="a_edge52_Node000023_Node000022"><a xlink:title=" ">
<path fill="none" stroke="#63b8ff" d="M1180.27,-291.59C1167.4,-283.51 1148.6,-271.71 1133.58,-262.27"/>
<polygon fill="#63b8ff" stroke="#63b8ff" points="1135.68,-258.83 1125.35,-256.48 1131.95,-264.76 1135.68,-258.83"/>
</a>
</g>
</g>
<!-- Node23&#45;&gt;Node23 -->
<g id="edge51_Node000023_Node000023" class="edge">
<title>Node23&#45;&gt;Node23</title>
<g id="a_edge51_Node000023_Node000023"><a xlink:title=" ">
<path fill="none" stroke="#63b8ff" d="M1227.23,-312.49C1237.11,-312.28 1244.88,-308.78 1244.88,-302 1244.88,-297.97 1242.14,-295.11 1237.85,-293.39"/>
<polygon fill="#63b8ff" stroke="#63b8ff" points="1238.69,-289.81 1228.23,-291.51 1237.46,-296.7 1238.69,-289.81"/>
</a>
</g>
</g>
<!-- Node24 -->
<g id="Node000024" class="node">
<title>Node24</title>
<g id="a_Node000024"><a xlink:href="a00128.html" target="_top" xlink:title="This is the generated driver header file for the CMP1 driver.">
<polygon fill="white" stroke="#666666" points="2295.25,-144 2225.25,-144 2225.25,-124 2295.25,-124 2295.25,-144"/>
<text text-anchor="middle" x="2260.25" y="-130.5" font-family="Helvetica,sans-Serif" font-size="10.00">cmp/cmp1.h</text>
</a>
</g>
</g>
<!-- Node23&#45;&gt;Node24 -->
<g id="edge41_Node000023_Node000024" class="edge">
<title>Node23&#45;&gt;Node24</title>
<g id="a_edge41_Node000023_Node000024"><a xlink:title=" ">
<path fill="none" stroke="#63b8ff" d="M1227.35,-293.45C1317.57,-272.49 1581.28,-212.93 1803.25,-180 1952.72,-157.82 2131.37,-143.82 2214.06,-138.04"/>
<polygon fill="#63b8ff" stroke="#63b8ff" points="2214.11,-141.48 2223.84,-137.3 2213.62,-134.49 2214.11,-141.48"/>
</a>
</g>
</g>
<!-- Node26 -->
<g id="Node000026" class="node">
<title>Node26</title>
<g id="a_Node000026"><a xlink:href="a00134.html" target="_top" xlink:title="This is the generated driver header file for the CMP3 driver.">
<polygon fill="white" stroke="#666666" points="2393.25,-144 2323.25,-144 2323.25,-124 2393.25,-124 2393.25,-144"/>
<text text-anchor="middle" x="2358.25" y="-130.5" font-family="Helvetica,sans-Serif" font-size="10.00">cmp/cmp3.h</text>
</a>
</g>
</g>
<!-- Node23&#45;&gt;Node26 -->
<g id="edge47_Node000023_Node000026" class="edge">
<title>Node23&#45;&gt;Node26</title>
<g id="a_edge47_Node000023_Node000026"><a xlink:title=" ">
<path fill="none" stroke="#63b8ff" d="M1227.05,-296.79C1359.28,-279.22 1878.56,-209.6 2304.25,-144 2306.79,-143.61 2309.39,-143.2 2312.01,-142.78"/>
<polygon fill="#63b8ff" stroke="#63b8ff" points="2312.52,-146.08 2321.83,-141.03 2311.4,-139.17 2312.52,-146.08"/>
</a>
</g>
</g>
<!-- Node24&#45;&gt;Node6 -->
<g id="edge43_Node000024_Node000006" class="edge">
<title>Node24&#45;&gt;Node6</title>
<g id="a_edge43_Node000024_Node000006"><a xlink:title=" ">
<path fill="none" stroke="#63b8ff" d="M2260.37,-123.76C2260.04,-107.09 2256.66,-72.2 2235.25,-56 2189.44,-21.34 1307.93,-12.76 1110.33,-11.26"/>
<polygon fill="#63b8ff" stroke="#63b8ff" points="1110.37,-7.76 1100.35,-11.18 1110.32,-14.76 1110.37,-7.76"/>
</a>
</g>
</g>
<!-- Node24&#45;&gt;Node10 -->
<g id="edge42_Node000024_Node000010" class="edge">
<title>Node24&#45;&gt;Node10</title>
<g id="a_edge42_Node000024_Node000010"><a xlink:title=" ">
<path fill="none" stroke="#63b8ff" d="M2295.52,-125.11C2338.95,-115.03 2407.93,-97.75 2415.25,-88 2428.05,-70.96 2418.99,-46.17 2409.93,-29.35"/>
<polygon fill="#63b8ff" stroke="#63b8ff" points="2412.56,-27.91 2404.48,-21.06 2406.52,-31.45 2412.56,-27.91"/>
</a>
</g>
</g>
<!-- Node25 -->
<g id="Node000025" class="node">
<title>Node25</title>
<g id="a_Node000025"><a xlink:href="a00137_source.html" target="_top" xlink:title=" ">
<polygon fill="white" stroke="#666666" points="2405.75,-82 2320.75,-82 2320.75,-62 2405.75,-62 2405.75,-82"/>
<text text-anchor="middle" x="2363.25" y="-68.5" font-family="Helvetica,sans-Serif" font-size="10.00">cmp_interface.h</text>
</a>
</g>
</g>
<!-- Node24&#45;&gt;Node25 -->
<g id="edge44_Node000024_Node000025" class="edge">
<title>Node24&#45;&gt;Node25</title>
<g id="a_edge44_Node000024_Node000025"><a xlink:title=" ">
<path fill="none" stroke="#63b8ff" d="M2276.34,-123.62C2292.82,-114.03 2318.67,-98.97 2337.9,-87.77"/>
<polygon fill="#63b8ff" stroke="#63b8ff" points="2339.39,-90.37 2346.27,-82.31 2335.87,-84.32 2339.39,-90.37"/>
</a>
</g>
</g>
<!-- Node25&#45;&gt;Node6 -->
<g id="edge45_Node000025_Node000006" class="edge">
<title>Node25&#45;&gt;Node6</title>
<g id="a_edge45_Node000025_Node000006"><a xlink:title=" ">
<path fill="none" stroke="#63b8ff" d="M2332.45,-61.57C2324.03,-59.35 2314.85,-57.27 2306.25,-56 2067.43,-20.67 1294.08,-12.68 1110.57,-11.26"/>
<polygon fill="#63b8ff" stroke="#63b8ff" points="1110.61,-7.76 1100.59,-11.18 1110.56,-14.76 1110.61,-7.76"/>
</a>
</g>
</g>
<!-- Node25&#45;&gt;Node10 -->
<g id="edge46_Node000025_Node000010" class="edge">
<title>Node25&#45;&gt;Node10</title>
<g id="a_edge46_Node000025_Node000010"><a xlink:title=" ">
<path fill="none" stroke="#63b8ff" d="M2368.72,-61.62C2373.73,-53.03 2381.29,-40.07 2387.51,-29.41"/>
<polygon fill="#63b8ff" stroke="#63b8ff" points="2390.92,-31.51 2392.93,-21.11 2384.87,-27.99 2390.92,-31.51"/>
</a>
</g>
</g>
<!-- Node26&#45;&gt;Node6 -->
<g id="edge49_Node000026_Node000006" class="edge">
<title>Node26&#45;&gt;Node6</title>
<g id="a_edge49_Node000026_Node000006"><a xlink:title=" ">
<path fill="none" stroke="#63b8ff" d="M2350.04,-123.65C2334.28,-106.47 2297.81,-70.31 2258.25,-56 2148.38,-16.26 1302.92,-11.62 1110.25,-11.07"/>
<polygon fill="#63b8ff" stroke="#63b8ff" points="1110.53,-7.57 1100.52,-11.04 1110.51,-14.57 1110.53,-7.57"/>
</a>
</g>
</g>
<!-- Node26&#45;&gt;Node10 -->
<g id="edge48_Node000026_Node000010" class="edge">
<title>Node26&#45;&gt;Node10</title>
<g id="a_edge48_Node000026_Node000010"><a xlink:title=" ">
<path fill="none" stroke="#63b8ff" d="M2393.52,-125.07C2413.29,-118.62 2436.31,-107.32 2448.25,-88 2455.73,-75.9 2454.04,-68.99 2448.25,-56 2443.01,-44.24 2433.01,-34.26 2423.32,-26.71"/>
<polygon fill="#63b8ff" stroke="#63b8ff" points="2425.82,-23.48 2415.66,-20.48 2421.73,-29.16 2425.82,-23.48"/>
</a>
</g>
</g>
<!-- Node26&#45;&gt;Node25 -->
<g id="edge50_Node000026_Node000025" class="edge">
<title>Node26&#45;&gt;Node25</title>
<g id="a_edge50_Node000026_Node000025"><a xlink:title=" ">
<path fill="none" stroke="#63b8ff" d="M2359.03,-123.62C2359.71,-115.48 2360.72,-103.39 2361.58,-93.07"/>
<polygon fill="#63b8ff" stroke="#63b8ff" points="2365.15,-93.37 2362.49,-83.11 2358.17,-92.79 2365.15,-93.37"/>
</a>
</g>
</g>
<!-- Node27&#45;&gt;Node2 -->
<g id="edge58_Node000027_Node000002" class="edge">
<title>Node27&#45;&gt;Node2</title>
<g id="a_edge58_Node000027_Node000002"><a xlink:title=" ">
<path fill="none" stroke="#63b8ff" d="M1463.65,-132.27C1316.77,-129.75 885.86,-119.8 749.25,-88 713.55,-79.69 708.34,-66.59 673.25,-56 599.67,-33.79 509.78,-20.3 464.79,-14.44"/>
<polygon fill="#63b8ff" stroke="#63b8ff" points="465.46,-10.87 455.1,-13.08 464.58,-17.81 465.46,-10.87"/>
</a>
</g>
</g>
<!-- Node27&#45;&gt;Node5 -->
<g id="edge59_Node000027_Node000005" class="edge">
<title>Node27&#45;&gt;Node5</title>
<g id="a_edge59_Node000027_Node000005"><a xlink:title=" ">
<path fill="none" stroke="#63b8ff" d="M1463.61,-128.66C1397.07,-122.34 1275.46,-109 1173.25,-88 1121.7,-77.41 1110.58,-67.61 1059.25,-56 979.5,-37.95 884.55,-23.2 834.38,-15.91"/>
<polygon fill="#63b8ff" stroke="#63b8ff" points="835.19,-12.35 824.79,-14.39 834.19,-19.28 835.19,-12.35"/>
</a>
</g>
</g>
<!-- Node28 -->
<g id="Node000028" class="node">
<title>Node28</title>
<g id="a_Node000028"><a xlink:title=" ">
<polygon fill="#e0e0e0" stroke="#999999" points="1227.88,-82 1182.62,-82 1182.62,-62 1227.88,-62 1227.88,-82"/>
<text text-anchor="middle" x="1205.25" y="-68.5" font-family="Helvetica,sans-Serif" font-size="10.00">stdio.h</text>
</a>
</g>
</g>
<!-- Node27&#45;&gt;Node28 -->
<g id="edge57_Node000027_Node000028" class="edge">
<title>Node27&#45;&gt;Node28</title>
<g id="a_edge57_Node000027_Node000028"><a xlink:title=" ">
<path fill="none" stroke="#63b8ff" d="M1463.7,-129.08C1407.72,-123.7 1314.36,-111.85 1237.25,-88 1235.93,-87.59 1234.6,-87.14 1233.26,-86.65"/>
<polygon fill="#63b8ff" stroke="#63b8ff" points="1234.76,-83.07 1224.18,-82.46 1232.07,-89.53 1234.76,-83.07"/>
</a>
</g>
</g>
<!-- Node29 -->
<g id="Node000029" class="node">
<title>Node29</title>
<g id="a_Node000029"><a xlink:href="a00458.html" target="_top" xlink:title="Contains the DCDT generated functions and data types.">
<polygon fill="white" stroke="#666666" points="840.62,-82 757.88,-82 757.88,-62 840.62,-62 840.62,-82"/>
<text text-anchor="middle" x="799.25" y="-68.5" font-family="Helvetica,sans-Serif" font-size="10.00">smps_control.h</text>
</a>
</g>
</g>
<!-- Node27&#45;&gt;Node29 -->
<g id="edge60_Node000027_Node000029" class="edge">
<title>Node27&#45;&gt;Node29</title>
<g id="a_edge60_Node000027_Node000029"><a xlink:title=" ">
<path fill="none" stroke="#63b8ff" d="M1463.73,-133.31C1352.9,-133.21 1076.82,-128.51 850.25,-88 846.13,-87.26 841.86,-86.32 837.64,-85.26"/>
<polygon fill="#63b8ff" stroke="#63b8ff" points="838.88,-81.69 828.31,-82.45 837.04,-88.45 838.88,-81.69"/>
</a>
</g>
</g>
<!-- Node30 -->
<g id="Node000030" class="node">
<title>Node30</title>
<g id="a_Node000030"><a xlink:href="a00077_source.html" target="_top" xlink:title=" ">
<polygon fill="white" stroke="#666666" points="1360.75,-88 1245.75,-88 1245.75,-56 1360.75,-56 1360.75,-88"/>
<text text-anchor="start" x="1253.75" y="-74.5" font-family="Helvetica,sans-Serif" font-size="10.00">test1/dcdt_generated</text>
<text text-anchor="middle" x="1303.25" y="-62.5" font-family="Helvetica,sans-Serif" font-size="10.00">_code/pid_psvo_dcdt.h</text>
</a>
</g>
</g>
<!-- Node27&#45;&gt;Node30 -->
<g id="edge63_Node000027_Node000030" class="edge">
<title>Node27&#45;&gt;Node30</title>
<g id="a_edge63_Node000027_Node000030"><a xlink:title=" ">
<path fill="none" stroke="#63b8ff" d="M1480.44,-123.62C1450.39,-115.04 1405.04,-102.08 1367.75,-91.43"/>
<polygon fill="#63b8ff" stroke="#63b8ff" points="1369.04,-87.87 1358.47,-88.49 1367.12,-94.6 1369.04,-87.87"/>
</a>
</g>
</g>
<!-- Node31 -->
<g id="Node000031" class="node">
<title>Node31</title>
<g id="a_Node000031"><a xlink:href="a00053.html" target="_top" xlink:title="Generated by the Microchip Digital Compensator Design Tool (DCDT), contains system summaries and digi...">
<polygon fill="white" stroke="#666666" points="1503.62,-88 1378.88,-88 1378.88,-56 1503.62,-56 1503.62,-88"/>
<text text-anchor="start" x="1386.88" y="-74.5" font-family="Helvetica,sans-Serif" font-size="10.00">dab_psio/dcdt_generated</text>
<text text-anchor="middle" x="1441.25" y="-62.5" font-family="Helvetica,sans-Serif" font-size="10.00">_code/dab_psio_dcdt.h</text>
</a>
</g>
</g>
<!-- Node27&#45;&gt;Node31 -->
<g id="edge64_Node000027_Node000031" class="edge">
<title>Node27&#45;&gt;Node31</title>
<g id="a_edge64_Node000027_Node000031"><a xlink:title=" ">
<path fill="none" stroke="#63b8ff" d="M1502,-123.62C1492.9,-116.04 1479.7,-105.05 1467.94,-95.24"/>
<polygon fill="#63b8ff" stroke="#63b8ff" points="1470.62,-92.09 1460.7,-88.37 1466.14,-97.46 1470.62,-92.09"/>
</a>
</g>
</g>
<!-- Node32 -->
<g id="Node000032" class="node">
<title>Node32</title>
<g id="a_Node000032"><a xlink:href="a00062.html" target="_top" xlink:title="Generated by the Microchip Digital Compensator Design Tool (DCDT), contains system summaries and digi...">
<polygon fill="white" stroke="#666666" points="1649.12,-88 1521.38,-88 1521.38,-56 1649.12,-56 1649.12,-88"/>
<text text-anchor="start" x="1529.38" y="-74.5" font-family="Helvetica,sans-Serif" font-size="10.00">dab_pspo/dcdt_generated</text>
<text text-anchor="middle" x="1585.25" y="-62.5" font-family="Helvetica,sans-Serif" font-size="10.00">_code/dab_pspo_dcdt.h</text>
</a>
</g>
</g>
<!-- Node27&#45;&gt;Node32 -->
<g id="edge65_Node000027_Node000032" class="edge">
<title>Node27&#45;&gt;Node32</title>
<g id="a_edge65_Node000027_Node000032"><a xlink:title=" ">
<path fill="none" stroke="#63b8ff" d="M1524.5,-123.62C1533.6,-116.04 1546.8,-105.05 1558.56,-95.24"/>
<polygon fill="#63b8ff" stroke="#63b8ff" points="1560.36,-97.46 1565.8,-88.37 1555.88,-92.09 1560.36,-97.46"/>
</a>
</g>
</g>
<!-- Node33 -->
<g id="Node000033" class="node">
<title>Node33</title>
<g id="a_Node000033"><a xlink:href="a00065_source.html" target="_top" xlink:title=" ">
<polygon fill="white" stroke="#666666" points="1793.38,-88 1667.12,-88 1667.12,-56 1793.38,-56 1793.38,-88"/>
<text text-anchor="start" x="1675.12" y="-74.5" font-family="Helvetica,sans-Serif" font-size="10.00">dab_psvo/dcdt_generated</text>
<text text-anchor="middle" x="1730.25" y="-62.5" font-family="Helvetica,sans-Serif" font-size="10.00">_code/dab_psvo_dcdt.h</text>
</a>
</g>
</g>
<!-- Node27&#45;&gt;Node33 -->
<g id="edge66_Node000027_Node000033" class="edge">
<title>Node27&#45;&gt;Node33</title>
<g id="a_edge66_Node000027_Node000033"><a xlink:title=" ">
<path fill="none" stroke="#63b8ff" d="M1547.16,-123.62C1578.34,-115 1625.46,-101.97 1664.09,-91.29"/>
<polygon fill="#63b8ff" stroke="#63b8ff" points="1664.52,-94.53 1673.23,-88.49 1662.65,-87.78 1664.52,-94.53"/>
</a>
</g>
</g>
<!-- Node34 -->
<g id="Node000034" class="node">
<title>Node34</title>
<g id="a_Node000034"><a xlink:href="a00068_source.html" target="_top" xlink:title=" ">
<polygon fill="white" stroke="#666666" points="1936.62,-88 1811.88,-88 1811.88,-56 1936.62,-56 1936.62,-88"/>
<text text-anchor="start" x="1819.88" y="-74.5" font-family="Helvetica,sans-Serif" font-size="10.00">dab_spio/dcdt_generated</text>
<text text-anchor="middle" x="1874.25" y="-62.5" font-family="Helvetica,sans-Serif" font-size="10.00">_code/dab_spio_dcdt.h</text>
</a>
</g>
</g>
<!-- Node27&#45;&gt;Node34 -->
<g id="edge67_Node000027_Node000034" class="edge">
<title>Node27&#45;&gt;Node34</title>
<g id="a_edge67_Node000027_Node000034"><a xlink:title=" ">
<path fill="none" stroke="#63b8ff" d="M1562.98,-126.04C1618.47,-118.1 1711.17,-104.32 1800.83,-88.2"/>
<polygon fill="#63b8ff" stroke="#63b8ff" points="1801.24,-91.5 1810.46,-86.28 1799.99,-84.62 1801.24,-91.5"/>
</a>
</g>
</g>
<!-- Node35 -->
<g id="Node000035" class="node">
<title>Node35</title>
<g id="a_Node000035"><a xlink:href="a00071_source.html" target="_top" xlink:title=" ">
<polygon fill="white" stroke="#666666" points="2082.12,-88 1954.38,-88 1954.38,-56 2082.12,-56 2082.12,-88"/>
<text text-anchor="start" x="1962.38" y="-74.5" font-family="Helvetica,sans-Serif" font-size="10.00">dab_sppo/dcdt_generated</text>
<text text-anchor="middle" x="2018.25" y="-62.5" font-family="Helvetica,sans-Serif" font-size="10.00">_code/dab_sppo_dcdt.h</text>
</a>
</g>
</g>
<!-- Node27&#45;&gt;Node35 -->
<g id="edge68_Node000027_Node000035" class="edge">
<title>Node27&#45;&gt;Node35</title>
<g id="a_edge68_Node000027_Node000035"><a xlink:title=" ">
<path fill="none" stroke="#63b8ff" d="M1562.69,-129.45C1641.21,-123.46 1799.42,-109.97 1943.44,-88.18"/>
<polygon fill="#63b8ff" stroke="#63b8ff" points="1943.87,-91.5 1953.22,-86.53 1942.81,-84.58 1943.87,-91.5"/>
</a>
</g>
</g>
<!-- Node36 -->
<g id="Node000036" class="node">
<title>Node36</title>
<g id="a_Node000036"><a xlink:href="a00074.html" target="_top" xlink:title="Generated by the Microchip Digital Compensator Design Tool (DCDT), contains system summaries and digi...">
<polygon fill="white" stroke="#666666" points="2226.38,-88 2100.12,-88 2100.12,-56 2226.38,-56 2226.38,-88"/>
<text text-anchor="start" x="2108.12" y="-74.5" font-family="Helvetica,sans-Serif" font-size="10.00">dab_spvo/dcdt_generated</text>
<text text-anchor="middle" x="2163.25" y="-62.5" font-family="Helvetica,sans-Serif" font-size="10.00">_code/dab_spvo_dcdt.h</text>
</a>
</g>
</g>
<!-- Node27&#45;&gt;Node36 -->
<g id="edge69_Node000027_Node000036" class="edge">
<title>Node27&#45;&gt;Node36</title>
<g id="a_edge69_Node000027_Node000036"><a xlink:title=" ">
<path fill="none" stroke="#63b8ff" d="M1562.97,-131.27C1661.52,-127.37 1888.77,-116.09 2089,-88.21"/>
<polygon fill="#63b8ff" stroke="#63b8ff" points="2089.31,-91.56 2098.72,-86.69 2088.33,-84.63 2089.31,-91.56"/>
</a>
</g>
</g>
<!-- Node29&#45;&gt;Node2 -->
<g id="edge61_Node000029_Node000002" class="edge">
<title>Node29&#45;&gt;Node2</title>
<g id="a_edge61_Node000029_Node000002"><a xlink:title=" ">
<path fill="none" stroke="#63b8ff" d="M757.61,-64.12C683.1,-51.8 528.8,-26.3 464.91,-15.74"/>
<polygon fill="#63b8ff" stroke="#63b8ff" points="465.51,-12.12 455.08,-13.95 464.37,-19.03 465.51,-12.12"/>
</a>
</g>
</g>
<!-- Node29&#45;&gt;Node5 -->
<g id="edge62_Node000029_Node000005" class="edge">
<title>Node29&#45;&gt;Node5</title>
<g id="a_edge62_Node000029_Node000005"><a xlink:title=" ">
<path fill="none" stroke="#63b8ff" d="M799.25,-61.62C799.25,-53.48 799.25,-41.39 799.25,-31.07"/>
<polygon fill="#63b8ff" stroke="#63b8ff" points="802.75,-31.11 799.25,-21.11 795.75,-31.11 802.75,-31.11"/>
</a>
</g>
</g>
</g>
</svg>
