<?xml version="1.0" encoding="UTF-8" standalone="no"?>
<!DOCTYPE svg PUBLIC "-//W3C//DTD SVG 1.1//EN"
 "http://www.w3.org/Graphics/SVG/1.1/DTD/svg11.dtd">
<!-- Generated by graphviz version 8.1.0 (20230707.0739)
 -->
<!-- Title: Dev_PwrCtrl_UpdateADConverterData Pages: 1 -->
<svg width="366pt" height="104pt"
 viewBox="0.00 0.00 366.25 104.00" xmlns="http://www.w3.org/2000/svg" xmlns:xlink="http://www.w3.org/1999/xlink">
<g id="graph0" class="graph" transform="scale(1 1) rotate(0) translate(4 100)">
<title>Dev_PwrCtrl_UpdateADConverterData</title>
<!-- Node1 -->
<g id="Node000001" class="node">
<title>Node1</title>
<g id="a_Node000001"><a xlink:title="This function updates the DAB data members with ADC raw values.">
<polygon fill="#999999" stroke="#666666" points="178.75,-58 0,-58 0,-38 178.75,-38 178.75,-58"/>
<text text-anchor="middle" x="89.38" y="-44.5" font-family="Helvetica,sans-Serif" font-size="10.00">Dev_PwrCtrl_UpdateADConverterData</text>
</a>
</g>
</g>
<!-- Node2 -->
<g id="Node000002" class="node">
<title>Node2</title>
<g id="a_Node000002"><a xlink:href="a00510.html#gaf4b6f81a05012533b633a78dad7b6a98" target="_top" xlink:title="Returns the conversion value for the channel selected.">
<polygon fill="white" stroke="#666666" points="355.25,-96 217.75,-96 217.75,-76 355.25,-76 355.25,-96"/>
<text text-anchor="middle" x="286.5" y="-82.5" font-family="Helvetica,sans-Serif" font-size="10.00">ADC1_ConversionResultGet</text>
</a>
</g>
</g>
<!-- Node1&#45;&gt;Node2 -->
<g id="edge1_Node000001_Node000002" class="edge">
<title>Node1&#45;&gt;Node2</title>
<g id="a_edge1_Node000001_Node000002"><a xlink:title=" ">
<path fill="none" stroke="#63b8ff" d="M144.21,-58.48C168.1,-63.14 196.39,-68.65 221.36,-73.51"/>
<polygon fill="#63b8ff" stroke="#63b8ff" points="220.36,-77.07 230.84,-75.55 221.69,-70.2 220.36,-77.07"/>
</a>
</g>
</g>
<!-- Node3 -->
<g id="Node000003" class="node">
<title>Node3</title>
<g id="a_Node000003"><a xlink:href="a00510.html#ga0a80bc862861bd96a1034b39589adf9f" target="_top" xlink:title="This inline function returns the status of conversion.This function is used to determine if conversio...">
<polygon fill="white" stroke="#666666" points="357.88,-58 215.12,-58 215.12,-38 357.88,-38 357.88,-58"/>
<text text-anchor="middle" x="286.5" y="-44.5" font-family="Helvetica,sans-Serif" font-size="10.00">ADC1_IsConversionComplete</text>
</a>
</g>
</g>
<!-- Node1&#45;&gt;Node3 -->
<g id="edge2_Node000001_Node000003" class="edge">
<title>Node1&#45;&gt;Node3</title>
<g id="a_edge2_Node000001_Node000003"><a xlink:title=" ">
<path fill="none" stroke="#63b8ff" d="M179.09,-48C187.42,-48 195.83,-48 204.09,-48"/>
<polygon fill="#63b8ff" stroke="#63b8ff" points="203.84,-51.5 213.84,-48 203.84,-44.5 203.84,-51.5"/>
</a>
</g>
</g>
<!-- Node4 -->
<g id="Node000004" class="node">
<title>Node4</title>
<g id="a_Node000004"><a xlink:href="a00510.html#gaebc385db92ab49c593f635282b8491db" target="_top" xlink:title="This inline function sets software common trigger.">
<polygon fill="white" stroke="#666666" points="358.25,-20 214.75,-20 214.75,0 358.25,0 358.25,-20"/>
<text text-anchor="middle" x="286.5" y="-6.5" font-family="Helvetica,sans-Serif" font-size="10.00">ADC1_SoftwareTriggerEnable</text>
</a>
</g>
</g>
<!-- Node1&#45;&gt;Node4 -->
<g id="edge3_Node000001_Node000004" class="edge">
<title>Node1&#45;&gt;Node4</title>
<g id="a_edge3_Node000001_Node000004"><a xlink:title=" ">
<path fill="none" stroke="#63b8ff" d="M144.21,-37.52C168.1,-32.86 196.39,-27.35 221.36,-22.49"/>
<polygon fill="#63b8ff" stroke="#63b8ff" points="221.69,-25.8 230.84,-20.45 220.36,-18.93 221.69,-25.8"/>
</a>
</g>
</g>
</g>
</svg>
