<?xml version="1.0" encoding="UTF-8" standalone="no"?>
<!DOCTYPE svg PUBLIC "-//W3C//DTD SVG 1.1//EN"
 "http://www.w3.org/Graphics/SVG/1.1/DTD/svg11.dtd">
<!-- Generated by graphviz version 8.1.0 (20230707.0739)
 -->
<!-- Title: Device Layer Pages: 1 -->
<svg width="246pt" height="218pt"
 viewBox="0.00 0.00 245.50 218.00" xmlns="http://www.w3.org/2000/svg" xmlns:xlink="http://www.w3.org/1999/xlink">

<svg id="main" version="1.1" xmlns="http://www.w3.org/2000/svg" xmlns:xlink="http://www.w3.org/1999/xlink" xml:space="preserve" onload="init(evt)">
<style type="text/css"><![CDATA[
.node, .edge {opacity: 0.7;}
.node.selected, .edge.selected {opacity: 1;}
.edge:hover path { stroke: red; }
.edge:hover polygon { stroke: red; fill: red; }
]]></style>
<script type="application/ecmascript" xlink:href="svg.min.js"/>
<svg id="graph" class="graph">
<g id="graph0" class="graph" transform="scale(1 1) rotate(0) translate(4 214)">
<title>Device Layer</title>
<!-- Node4 -->
<g id="Node000004" class="node">
<title>Node4</title>
<g id="a_Node000004"><a xlink:href="a00499.html" target="_top" xlink:title="The Current Sensor Calibration device layer is a proprietary user code utilized for configuring the s...">
<polygon fill="white" stroke="#666666" points="237.5,-210 107.5,-210 107.5,-190 237.5,-190 237.5,-210"/>
<text text-anchor="middle" x="172.5" y="-196.5" font-family="Helvetica,sans-Serif" font-size="10.00">Current Sensor Calibration</text>
</a>
</g>
</g>
<!-- Node5 -->
<g id="Node000005" class="node">
<title>Node5</title>
<g id="a_Node000005"><a xlink:href="a00500.html" target="_top" xlink:title="The Fan control device layer is a proprietary user code utilized for configuring the fan control prop...">
<polygon fill="white" stroke="#666666" points="205.62,-172 139.38,-172 139.38,-152 205.62,-152 205.62,-172"/>
<text text-anchor="middle" x="172.5" y="-158.5" font-family="Helvetica,sans-Serif" font-size="10.00">Fan Control</text>
</a>
</g>
</g>
<!-- Node1 -->
<g id="Node000001" class="node">
<title>Node1</title>
<g id="a_Node000001"><a xlink:title="Contains all the application tasks that will be executed.">
<polygon fill="#999999" stroke="#666666" points="71.5,-115 0,-115 0,-95 71.5,-95 71.5,-115"/>
<text text-anchor="middle" x="35.75" y="-101.5" font-family="Helvetica,sans-Serif" font-size="10.00">Device Layer</text>
</a>
</g>
</g>
<!-- Node1&#45;&gt;Node4 -->
<g id="edge3" class="edge">
<title>Node1&#45;&gt;Node4</title>
<path fill="none" stroke="black" d="M49.74,-123.92C62.53,-141.17 83.58,-166.18 107.5,-181 113.02,-184.42 119.18,-187.25 125.45,-189.59"/>
<polygon fill="black" stroke="black" points="52.19,-122.33 43.52,-116.24 46.5,-126.41 52.19,-122.33"/>
</g>
<!-- Node1&#45;&gt;Node5 -->
<g id="edge4" class="edge">
<title>Node1&#45;&gt;Node5</title>
<path fill="none" stroke="black" d="M63.02,-120.77C76.08,-128.18 92.3,-136.74 107.5,-143 117.57,-147.15 128.88,-150.81 139.15,-153.79"/>
<polygon fill="black" stroke="black" points="65.12,-117.36 54.71,-115.39 61.62,-123.42 65.12,-117.36"/>
</g>
<!-- Node3 -->
<g id="Node000003" class="node">
<title>Node3</title>
<g id="a_Node000003"><a xlink:href="a00496.html" target="_top" xlink:title="The Fault Handler is an independent firmware task which is used to define certain so&#45;called Fault Obj...">
<polygon fill="white" stroke="#666666" points="209,-134 136,-134 136,-114 209,-114 209,-134"/>
<text text-anchor="middle" x="172.5" y="-120.5" font-family="Helvetica,sans-Serif" font-size="10.00">Fault Monitor</text>
</a>
</g>
</g>
<!-- Node1&#45;&gt;Node3 -->
<g id="edge2" class="edge">
<title>Node1&#45;&gt;Node3</title>
<path fill="none" stroke="black" d="M82.31,-111.42C99.72,-113.88 119.31,-116.64 135.69,-118.95"/>
<polygon fill="black" stroke="black" points="83.19,-107.87 72.8,-109.94 82.22,-114.8 83.19,-107.87"/>
</g>
<!-- Node2 -->
<g id="Node000002" class="node">
<title>Node2</title>
<g id="a_Node000002"><a xlink:href="a00487.html" target="_top" xlink:title="The Power Control layer contains the state machine managing the power converter.">
<polygon fill="white" stroke="#666666" points="210.88,-96 134.12,-96 134.12,-76 210.88,-76 210.88,-96"/>
<text text-anchor="middle" x="172.5" y="-82.5" font-family="Helvetica,sans-Serif" font-size="10.00">Power Control</text>
</a>
</g>
</g>
<!-- Node1&#45;&gt;Node2 -->
<g id="edge1" class="edge">
<title>Node1&#45;&gt;Node2</title>
<path fill="none" stroke="black" d="M82.45,-98.56C99.15,-96.2 117.85,-93.56 133.79,-91.32"/>
<polygon fill="black" stroke="black" points="82.22,-95.2 72.8,-100.06 83.19,-102.13 82.22,-95.2"/>
</g>
<!-- Node6 -->
<g id="Node000006" class="node">
<title>Node6</title>
<g id="a_Node000006"><a xlink:href="a00501.html" target="_top" xlink:title="The LED device layer is the proprietary user code used to configure and drive the on&#45;board debugging ...">
<polygon fill="white" stroke="#666666" points="207.5,-58 137.5,-58 137.5,-38 207.5,-38 207.5,-58"/>
<text text-anchor="middle" x="172.5" y="-44.5" font-family="Helvetica,sans-Serif" font-size="10.00">LED Display</text>
</a>
</g>
</g>
<!-- Node1&#45;&gt;Node6 -->
<g id="edge5" class="edge">
<title>Node1&#45;&gt;Node6</title>
<path fill="none" stroke="black" d="M63.02,-89.23C76.08,-81.82 92.3,-73.26 107.5,-67 116.93,-63.12 127.44,-59.66 137.17,-56.79"/>
<polygon fill="black" stroke="black" points="61.62,-86.58 54.71,-94.61 65.12,-92.64 61.62,-86.58"/>
</g>
<!-- Node7 -->
<g id="Node000007" class="node">
<title>Node7</title>
<g id="a_Node000007"><a xlink:href="a00502.html" target="_top" xlink:title="The Temperature device layer is the proprietary user code used to configure and detect the board temp...">
<polygon fill="white" stroke="#666666" points="229.62,-20 115.38,-20 115.38,0 229.62,0 229.62,-20"/>
<text text-anchor="middle" x="172.5" y="-6.5" font-family="Helvetica,sans-Serif" font-size="10.00">Temperature Detection</text>
</a>
</g>
</g>
<!-- Node1&#45;&gt;Node7 -->
<g id="edge6" class="edge">
<title>Node1&#45;&gt;Node7</title>
<path fill="none" stroke="black" d="M49.74,-86.08C62.53,-68.83 83.58,-43.82 107.5,-29 113.02,-25.58 119.18,-22.75 125.45,-20.41"/>
<polygon fill="black" stroke="black" points="46.5,-83.59 43.52,-93.76 52.19,-87.67 46.5,-83.59"/>
</g>
</g>
</svg>
</svg>

<style type='text/css'>
<![CDATA[
[data-mouse-over-selected='false'] { opacity: 0.7; }
[data-mouse-over-selected='true']  { opacity: 1.0; }
]]>
</style>
<script type="application/ecmascript"><![CDATA[
document.addEventListener('DOMContentLoaded', (event) => {
  highlightEdges();
  highlightAdjacentNodes();
});
]]></script>
</svg>
