<?xml version="1.0" encoding="UTF-8" standalone="no"?>
<!DOCTYPE svg PUBLIC "-//W3C//DTD SVG 1.1//EN"
 "http://www.w3.org/Graphics/SVG/1.1/DTD/svg11.dtd">
<!-- Generated by graphviz version 8.1.0 (20230707.0739)
 -->
<!-- Title: Dev_PwrCtrl_GetAdc_Temperature Pages: 1 -->
<svg width="568pt" height="40pt"
 viewBox="0.00 0.00 567.75 40.00" xmlns="http://www.w3.org/2000/svg" xmlns:xlink="http://www.w3.org/1999/xlink">
<g id="graph0" class="graph" transform="scale(1 1) rotate(0) translate(4 36)">
<title>Dev_PwrCtrl_GetAdc_Temperature</title>
<!-- Node1 -->
<g id="Node000001" class="node">
<title>Node1</title>
<g id="a_Node000001"><a xlink:title="API function to get the raw ADC value for temperature.">
<polygon fill="#999999" stroke="#666666" points="559.75,-32 453,-32 453,0 559.75,0 559.75,-32"/>
<text text-anchor="start" x="461" y="-18.5" font-family="Helvetica,sans-Serif" font-size="10.00">Dev_PwrCtrl_GetAdc</text>
<text text-anchor="middle" x="506.38" y="-6.5" font-family="Helvetica,sans-Serif" font-size="10.00">_Temperature</text>
</a>
</g>
</g>
<!-- Node2 -->
<g id="Node000002" class="node">
<title>Node2</title>
<g id="a_Node000002"><a xlink:href="a00503.html#ga6ce3446cb43022df6a5a96c90ec70a17" target="_top" xlink:title="Gets the temperature ADC sample.">
<polygon fill="white" stroke="#666666" points="417,-26 271.25,-26 271.25,-6 417,-6 417,-26"/>
<text text-anchor="middle" x="344.12" y="-12.5" font-family="Helvetica,sans-Serif" font-size="10.00">Dev_Temp_Get_ADC_Sample</text>
</a>
</g>
</g>
<!-- Node1&#45;&gt;Node2 -->
<g id="edge1_Node000001_Node000002" class="edge">
<title>Node1&#45;&gt;Node2</title>
<g id="a_edge1_Node000001_Node000002"><a xlink:title=" ">
<path fill="none" stroke="#63b8ff" d="M442.08,-16C434.01,-16 425.7,-16 417.5,-16"/>
<polygon fill="#63b8ff" stroke="#63b8ff" points="441.9,-19.5 451.9,-16 441.9,-12.5 441.9,-19.5"/>
</a>
</g>
</g>
<!-- Node3 -->
<g id="Node000003" class="node">
<title>Node3</title>
<g id="a_Node000003"><a xlink:href="a00498.html#ga86410f4477516eb5de88e12c3108162d" target="_top" xlink:title="Fault evaluation for Temperature.">
<polygon fill="white" stroke="#666666" points="235.25,-26 112.75,-26 112.75,-6 235.25,-6 235.25,-26"/>
<text text-anchor="middle" x="174" y="-12.5" font-family="Helvetica,sans-Serif" font-size="10.00">Dev_Fault_Temp_100ms</text>
</a>
</g>
</g>
<!-- Node2&#45;&gt;Node3 -->
<g id="edge2_Node000002_Node000003" class="edge">
<title>Node2&#45;&gt;Node3</title>
<g id="a_edge2_Node000002_Node000003"><a xlink:title=" ">
<path fill="none" stroke="#63b8ff" d="M260.05,-16C251.81,-16 243.56,-16 235.61,-16"/>
<polygon fill="#63b8ff" stroke="#63b8ff" points="259.85,-19.5 269.85,-16 259.85,-12.5 259.85,-19.5"/>
</a>
</g>
</g>
<!-- Node4 -->
<g id="Node000004" class="node">
<title>Node4</title>
<g id="a_Node000004"><a xlink:href="a00507.html#ga6d5c487ee3f418e6d0432867d11adaed" target="_top" xlink:title="Tasks_100ms gets called every 100 ms, put your things in it that need to be called regularly.">
<polygon fill="white" stroke="#666666" points="76.75,-26 0,-26 0,-6 76.75,-6 76.75,-26"/>
<text text-anchor="middle" x="38.38" y="-12.5" font-family="Helvetica,sans-Serif" font-size="10.00">Tasks_100ms</text>
</a>
</g>
</g>
<!-- Node3&#45;&gt;Node4 -->
<g id="edge3_Node000003_Node000004" class="edge">
<title>Node3&#45;&gt;Node4</title>
<g id="a_edge3_Node000003_Node000004"><a xlink:title=" ">
<path fill="none" stroke="#63b8ff" d="M101.71,-16C93.25,-16 84.88,-16 77.15,-16"/>
<polygon fill="#63b8ff" stroke="#63b8ff" points="101.44,-19.5 111.44,-16 101.44,-12.5 101.44,-19.5"/>
</a>
</g>
</g>
</g>
</svg>
