<?xml version="1.0" encoding="UTF-8" standalone="no"?>
<!DOCTYPE svg PUBLIC "-//W3C//DTD SVG 1.1//EN"
 "http://www.w3.org/Graphics/SVG/1.1/DTD/svg11.dtd">
<!-- Generated by graphviz version 8.1.0 (20230707.0739)
 -->
<!-- Title: dspic33ck&#45;dab.X/sources/pwrctrl/pwrctrl_pwm.c Pages: 1 -->
<svg width="769pt" height="388pt"
 viewBox="0.00 0.00 768.75 388.00" xmlns="http://www.w3.org/2000/svg" xmlns:xlink="http://www.w3.org/1999/xlink">
<g id="graph0" class="graph" transform="scale(1 1) rotate(0) translate(4 384)">
<title>dspic33ck&#45;dab.X/sources/pwrctrl/pwrctrl_pwm.c</title>
<!-- Node1 -->
<g id="Node000001" class="node">
<title>Node1</title>
<g id="a_Node000001"><a xlink:title="Contains DAB control phase calculation between primary and secondary, and the PWM distribution.">
<polygon fill="#999999" stroke="#666666" points="332.12,-380 207.38,-380 207.38,-348 332.12,-348 332.12,-380"/>
<text text-anchor="start" x="215.38" y="-366.5" font-family="Helvetica,sans-Serif" font-size="10.00">dspic33ck&#45;dab.X/sources</text>
<text text-anchor="middle" x="269.75" y="-354.5" font-family="Helvetica,sans-Serif" font-size="10.00">/pwrctrl/pwrctrl_pwm.c</text>
</a>
</g>
</g>
<!-- Node2 -->
<g id="Node000002" class="node">
<title>Node2</title>
<g id="a_Node000002"><a xlink:title=" ">
<polygon fill="#e0e0e0" stroke="#999999" points="303.12,-76 268.38,-76 268.38,-56 303.12,-56 303.12,-76"/>
<text text-anchor="middle" x="285.75" y="-62.5" font-family="Helvetica,sans-Serif" font-size="10.00">xc.h</text>
</a>
</g>
</g>
<!-- Node1&#45;&gt;Node2 -->
<g id="edge1_Node000001_Node000002" class="edge">
<title>Node1&#45;&gt;Node2</title>
<g id="a_edge1_Node000001_Node000002"><a xlink:title=" ">
<path fill="none" stroke="#63b8ff" d="M241.88,-347.51C211.37,-328.28 166.75,-292.38 166.75,-247 166.75,-247 166.75,-247 166.75,-189 166.75,-136.89 223.07,-98.74 258.22,-80"/>
<polygon fill="#63b8ff" stroke="#63b8ff" points="259.63,-82.7 266.93,-75.03 256.44,-76.47 259.63,-82.7"/>
</a>
</g>
</g>
<!-- Node3 -->
<g id="Node000003" class="node">
<title>Node3</title>
<g id="a_Node000003"><a xlink:title=" ">
<polygon fill="#e0e0e0" stroke="#999999" points="391.62,-20 335.88,-20 335.88,0 391.62,0 391.62,-20"/>
<text text-anchor="middle" x="363.75" y="-6.5" font-family="Helvetica,sans-Serif" font-size="10.00">stdbool.h</text>
</a>
</g>
</g>
<!-- Node1&#45;&gt;Node3 -->
<g id="edge2_Node000001_Node000003" class="edge">
<title>Node1&#45;&gt;Node3</title>
<g id="a_edge2_Node000001_Node000003"><a xlink:title=" ">
<path fill="none" stroke="#63b8ff" d="M332.43,-361.25C464.8,-355.85 760.75,-334.04 760.75,-247 760.75,-247 760.75,-247 760.75,-127 760.75,-52.93 502.94,-22.91 402.83,-14.04"/>
<polygon fill="#63b8ff" stroke="#63b8ff" points="403.25,-10.48 392.98,-13.11 402.65,-17.46 403.25,-10.48"/>
</a>
</g>
</g>
<!-- Node4 -->
<g id="Node000004" class="node">
<title>Node4</title>
<g id="a_Node000004"><a xlink:href="a00470_source.html" target="_top" xlink:title=" ">
<polygon fill="white" stroke="#666666" points="421.12,-312 368.38,-312 368.38,-292 421.12,-292 421.12,-312"/>
<text text-anchor="middle" x="394.75" y="-298.5" font-family="Helvetica,sans-Serif" font-size="10.00">pwrctrl.h</text>
</a>
</g>
</g>
<!-- Node1&#45;&gt;Node4 -->
<g id="edge3_Node000001_Node000004" class="edge">
<title>Node1&#45;&gt;Node4</title>
<g id="a_edge3_Node000001_Node000004"><a xlink:title=" ">
<path fill="none" stroke="#63b8ff" d="M301.94,-347.55C321.47,-338.17 346.21,-326.3 365.24,-317.17"/>
<polygon fill="#63b8ff" stroke="#63b8ff" points="366.65,-319.89 374.15,-312.41 363.62,-313.58 366.65,-319.89"/>
</a>
</g>
</g>
<!-- Node5 -->
<g id="Node000005" class="node">
<title>Node5</title>
<g id="a_Node000005"><a xlink:href="a00503_source.html" target="_top" xlink:title=" ">
<polygon fill="white" stroke="#666666" points="379.5,-200 290,-200 290,-180 379.5,-180 379.5,-200"/>
<text text-anchor="middle" x="334.75" y="-186.5" font-family="Helvetica,sans-Serif" font-size="10.00">pwrctrl_typedef.h</text>
</a>
</g>
</g>
<!-- Node1&#45;&gt;Node5 -->
<g id="edge25_Node000001_Node000005" class="edge">
<title>Node1&#45;&gt;Node5</title>
<g id="a_edge25_Node000001_Node000005"><a xlink:title=" ">
<path fill="none" stroke="#63b8ff" d="M261.9,-347.69C250.2,-322.51 231.67,-271.61 252.75,-236 261.22,-221.69 276.03,-211.63 290.75,-204.71"/>
<polygon fill="#63b8ff" stroke="#63b8ff" points="292.02,-207.55 299.85,-200.41 289.28,-201.11 292.02,-207.55"/>
</a>
</g>
</g>
<!-- Node13 -->
<g id="Node000013" class="node">
<title>Node13</title>
<g id="a_Node000013"><a xlink:href="a00173.html" target="_top" xlink:title="This is the generated driver header file for the PWM driver.">
<polygon fill="white" stroke="#666666" points="138.5,-138 55,-138 55,-118 138.5,-118 138.5,-138"/>
<text text-anchor="middle" x="96.75" y="-124.5" font-family="Helvetica,sans-Serif" font-size="10.00">pwm_hs/pwm.h</text>
</a>
</g>
</g>
<!-- Node1&#45;&gt;Node13 -->
<g id="edge15_Node000001_Node000013" class="edge">
<title>Node1&#45;&gt;Node13</title>
<g id="a_edge15_Node000001_Node000013"><a xlink:title=" ">
<path fill="none" stroke="#63b8ff" d="M208.49,-347.57C188.37,-339.82 167.43,-328.45 152.75,-312 110.43,-264.55 100.09,-185.78 97.56,-149.03"/>
<polygon fill="#63b8ff" stroke="#63b8ff" points="101.02,-149.08 96.97,-139.28 94.03,-149.46 101.02,-149.08"/>
</a>
</g>
</g>
<!-- Node17 -->
<g id="Node000017" class="node">
<title>Node17</title>
<g id="a_Node000017"><a xlink:href="a00368.html" target="_top" xlink:title="Contains public functions and defines for the MCC code extension for PWM.">
<polygon fill="white" stroke="#666666" points="540.75,-144 404.75,-144 404.75,-112 540.75,-112 540.75,-144"/>
<text text-anchor="start" x="412.75" y="-130.5" font-family="Helvetica,sans-Serif" font-size="10.00">../driver/mcc_extension</text>
<text text-anchor="middle" x="472.75" y="-118.5" font-family="Helvetica,sans-Serif" font-size="10.00">/drv_mcc_extension_pwm.h</text>
</a>
</g>
</g>
<!-- Node1&#45;&gt;Node17 -->
<g id="edge26_Node000001_Node000017" class="edge">
<title>Node1&#45;&gt;Node17</title>
<g id="a_edge26_Node000001_Node000017"><a xlink:title=" ">
<path fill="none" stroke="#63b8ff" d="M332.35,-356.9C441.24,-344.86 658.29,-314.04 703.75,-256 751.32,-195.28 636.13,-159.46 551.87,-142.08"/>
<polygon fill="#63b8ff" stroke="#63b8ff" points="552.73,-138.48 542.24,-139.95 551.36,-145.35 552.73,-138.48"/>
</a>
</g>
</g>
<!-- Node4&#45;&gt;Node5 -->
<g id="edge4_Node000004_Node000005" class="edge">
<title>Node4&#45;&gt;Node5</title>
<g id="a_edge4_Node000004_Node000005"><a xlink:title=" ">
<path fill="none" stroke="#63b8ff" d="M367.98,-300.58C336.63,-298.47 285.9,-289.67 261.75,-256 246.99,-235.43 274.23,-216.76 299.53,-204.76"/>
<polygon fill="#63b8ff" stroke="#63b8ff" points="300.7,-207.62 308.4,-200.34 297.84,-201.23 300.7,-207.62"/>
</a>
</g>
</g>
<!-- Node9 -->
<g id="Node000009" class="node">
<title>Node9</title>
<g id="a_Node000009"><a xlink:href="a00476.html" target="_top" xlink:title="Contains the power control reusable functions.">
<polygon fill="white" stroke="#666666" points="608.5,-256 513,-256 513,-236 608.5,-236 608.5,-256"/>
<text text-anchor="middle" x="560.75" y="-242.5" font-family="Helvetica,sans-Serif" font-size="10.00">pwrctrl_common.h</text>
</a>
</g>
</g>
<!-- Node4&#45;&gt;Node9 -->
<g id="edge9_Node000004_Node000009" class="edge">
<title>Node4&#45;&gt;Node9</title>
<g id="a_edge9_Node000004_Node000009"><a xlink:title=" ">
<path fill="none" stroke="#63b8ff" d="M421.42,-292.32C448.39,-283.55 490.39,-269.89 521.23,-259.86"/>
<polygon fill="#63b8ff" stroke="#63b8ff" points="522.2,-262.89 530.63,-256.47 520.04,-256.24 522.2,-262.89"/>
</a>
</g>
</g>
<!-- Node10 -->
<g id="Node000010" class="node">
<title>Node10</title>
<g id="a_Node000010"><a xlink:href="a00482.html" target="_top" xlink:title="Contains public functions relevant for power control communication interface.">
<polygon fill="white" stroke="#666666" points="398.25,-256 271.25,-256 271.25,-236 398.25,-236 398.25,-256"/>
<text text-anchor="middle" x="334.75" y="-242.5" font-family="Helvetica,sans-Serif" font-size="10.00">pwrctrl_comm_interface.h</text>
</a>
</g>
</g>
<!-- Node4&#45;&gt;Node10 -->
<g id="edge10_Node000004_Node000010" class="edge">
<title>Node4&#45;&gt;Node10</title>
<g id="a_edge10_Node000004_Node000010"><a xlink:title=" ">
<path fill="none" stroke="#63b8ff" d="M384.3,-291.59C375.7,-283.85 363.29,-272.69 353.05,-263.47"/>
<polygon fill="#63b8ff" stroke="#63b8ff" points="355.86,-261.39 346.08,-257.3 351.17,-266.59 355.86,-261.39"/>
</a>
</g>
</g>
<!-- Node11 -->
<g id="Node000011" class="node">
<title>Node11</title>
<g id="a_Node000011"><a xlink:href="a00488.html" target="_top" xlink:title="Contains public function relevant for power control interrupt.">
<polygon fill="white" stroke="#666666" points="695,-256 626.5,-256 626.5,-236 695,-236 695,-256"/>
<text text-anchor="middle" x="660.75" y="-242.5" font-family="Helvetica,sans-Serif" font-size="10.00">pwrctrl_isr.h</text>
</a>
</g>
</g>
<!-- Node4&#45;&gt;Node11 -->
<g id="edge12_Node000004_Node000011" class="edge">
<title>Node4&#45;&gt;Node11</title>
<g id="a_edge12_Node000004_Node000011"><a xlink:title=" ">
<path fill="none" stroke="#63b8ff" d="M421.54,-295.66C461.54,-287.67 539.53,-272.04 615.34,-256.48"/>
<polygon fill="#63b8ff" stroke="#63b8ff" points="615.93,-259.73 625.02,-254.29 614.52,-252.88 615.93,-259.73"/>
</a>
</g>
</g>
<!-- Node12 -->
<g id="Node000012" class="node">
<title>Node12</title>
<g id="a_Node000012"><a xlink:href="a00497.html" target="_top" xlink:title="Contains public functions for PWM.">
<polygon fill="white" stroke="#666666" points="494.88,-256 416.62,-256 416.62,-236 494.88,-236 494.88,-256"/>
<text text-anchor="middle" x="455.75" y="-242.5" font-family="Helvetica,sans-Serif" font-size="10.00">pwrctrl_pwm.h</text>
</a>
</g>
</g>
<!-- Node4&#45;&gt;Node12 -->
<g id="edge13_Node000004_Node000012" class="edge">
<title>Node4&#45;&gt;Node12</title>
<g id="a_edge13_Node000004_Node000012"><a xlink:title=" ">
<path fill="none" stroke="#63b8ff" d="M405.38,-291.59C414.12,-283.85 426.73,-272.69 437.15,-263.47"/>
<polygon fill="#63b8ff" stroke="#63b8ff" points="439.08,-266.55 444.25,-257.3 434.44,-261.31 439.08,-266.55"/>
</a>
</g>
</g>
<!-- Node6 -->
<g id="Node000006" class="node">
<title>Node6</title>
<g id="a_Node000006"><a xlink:href="a00401.html" target="_top" xlink:title="Contains fault data types.">
<polygon fill="white" stroke="#666666" points="385.75,-138 285.75,-138 285.75,-118 385.75,-118 385.75,-138"/>
<text text-anchor="middle" x="335.75" y="-124.5" font-family="Helvetica,sans-Serif" font-size="10.00">fault/fault_typedef.h</text>
</a>
</g>
</g>
<!-- Node5&#45;&gt;Node6 -->
<g id="edge5_Node000005_Node000006" class="edge">
<title>Node5&#45;&gt;Node6</title>
<g id="a_edge5_Node000005_Node000006"><a xlink:title=" ">
<path fill="none" stroke="#63b8ff" d="M334.91,-179.62C335.04,-171.48 335.24,-159.39 335.42,-149.07"/>
<polygon fill="#63b8ff" stroke="#63b8ff" points="338.93,-149.17 335.6,-139.11 331.93,-149.05 338.93,-149.17"/>
</a>
</g>
</g>
<!-- Node7 -->
<g id="Node000007" class="node">
<title>Node7</title>
<g id="a_Node000007"><a xlink:href="a00392.html" target="_top" xlink:title="Contains fault generic public functions.">
<polygon fill="white" stroke="#666666" points="406.25,-76 321.25,-76 321.25,-56 406.25,-56 406.25,-76"/>
<text text-anchor="middle" x="363.75" y="-62.5" font-family="Helvetica,sans-Serif" font-size="10.00">fault_common.h</text>
</a>
</g>
</g>
<!-- Node6&#45;&gt;Node7 -->
<g id="edge6_Node000006_Node000007" class="edge">
<title>Node6&#45;&gt;Node7</title>
<g id="a_edge6_Node000006_Node000007"><a xlink:title=" ">
<path fill="none" stroke="#63b8ff" d="M340.12,-117.62C344.05,-109.21 349.94,-96.6 354.85,-86.07"/>
<polygon fill="#63b8ff" stroke="#63b8ff" points="358.44,-87.65 359.5,-77.11 352.1,-84.69 358.44,-87.65"/>
</a>
</g>
</g>
<!-- Node7&#45;&gt;Node3 -->
<g id="edge8_Node000007_Node000003" class="edge">
<title>Node7&#45;&gt;Node3</title>
<g id="a_edge8_Node000007_Node000003"><a xlink:title=" ">
<path fill="none" stroke="#63b8ff" d="M363.75,-55.59C363.75,-48.86 363.75,-39.53 363.75,-31.15"/>
<polygon fill="#63b8ff" stroke="#63b8ff" points="367.25,-31.3 363.75,-21.3 360.25,-31.3 367.25,-31.3"/>
</a>
</g>
</g>
<!-- Node8 -->
<g id="Node000008" class="node">
<title>Node8</title>
<g id="a_Node000008"><a xlink:title=" ">
<polygon fill="#e0e0e0" stroke="#999999" points="170.88,-20 122.62,-20 122.62,0 170.88,0 170.88,-20"/>
<text text-anchor="middle" x="146.75" y="-6.5" font-family="Helvetica,sans-Serif" font-size="10.00">stdint.h</text>
</a>
</g>
</g>
<!-- Node7&#45;&gt;Node8 -->
<g id="edge7_Node000007_Node000008" class="edge">
<title>Node7&#45;&gt;Node8</title>
<g id="a_edge7_Node000007_Node000008"><a xlink:title=" ">
<path fill="none" stroke="#63b8ff" d="M325.95,-55.59C285.33,-45.48 221.28,-29.55 181.77,-19.71"/>
<polygon fill="#63b8ff" stroke="#63b8ff" points="182.86,-16.13 172.31,-17.11 181.17,-22.92 182.86,-16.13"/>
</a>
</g>
</g>
<!-- Node10&#45;&gt;Node5 -->
<g id="edge11_Node000010_Node000005" class="edge">
<title>Node10&#45;&gt;Node5</title>
<g id="a_edge11_Node000010_Node000005"><a xlink:title=" ">
<path fill="none" stroke="#63b8ff" d="M334.75,-235.59C334.75,-228.86 334.75,-219.53 334.75,-211.15"/>
<polygon fill="#63b8ff" stroke="#63b8ff" points="338.25,-211.3 334.75,-201.3 331.25,-211.3 338.25,-211.3"/>
</a>
</g>
</g>
<!-- Node12&#45;&gt;Node5 -->
<g id="edge14_Node000012_Node000005" class="edge">
<title>Node12&#45;&gt;Node5</title>
<g id="a_edge14_Node000012_Node000005"><a xlink:title=" ">
<path fill="none" stroke="#63b8ff" d="M434.67,-235.59C415.7,-227.13 387.58,-214.58 365.99,-204.94"/>
<polygon fill="#63b8ff" stroke="#63b8ff" points="367.55,-201.36 356.99,-200.48 364.7,-207.75 367.55,-201.36"/>
</a>
</g>
</g>
<!-- Node13&#45;&gt;Node2 -->
<g id="edge16_Node000013_Node000002" class="edge">
<title>Node13&#45;&gt;Node2</title>
<g id="a_edge16_Node000013_Node000002"><a xlink:title=" ">
<path fill="none" stroke="#63b8ff" d="M126.28,-117.62C162.32,-106.19 222.78,-86.99 257.99,-75.81"/>
<polygon fill="#63b8ff" stroke="#63b8ff" points="258.58,-78.98 267.05,-72.62 256.46,-72.31 258.58,-78.98"/>
</a>
</g>
</g>
<!-- Node13&#45;&gt;Node3 -->
<g id="edge18_Node000013_Node000003" class="edge">
<title>Node13&#45;&gt;Node3</title>
<g id="a_edge18_Node000013_Node000003"><a xlink:title=" ">
<path fill="none" stroke="#63b8ff" d="M121.96,-117.54C147.43,-107.8 187.76,-91.83 221.75,-76 239.05,-67.94 242.54,-64.24 259.75,-56 283.17,-44.79 310.09,-33.18 330.67,-24.56"/>
<polygon fill="#63b8ff" stroke="#63b8ff" points="331.92,-27.41 339.8,-20.34 329.23,-20.95 331.92,-27.41"/>
</a>
</g>
</g>
<!-- Node13&#45;&gt;Node8 -->
<g id="edge17_Node000013_Node000008" class="edge">
<title>Node13&#45;&gt;Node8</title>
<g id="a_edge17_Node000013_Node000008"><a xlink:title=" ">
<path fill="none" stroke="#63b8ff" d="M78.32,-117.7C54.99,-104.66 19.68,-79.86 35.75,-56 44.67,-42.75 82.86,-29.2 111.98,-20.48"/>
<polygon fill="#63b8ff" stroke="#63b8ff" points="112.6,-23.65 121.22,-17.49 110.64,-16.93 112.6,-23.65"/>
</a>
</g>
</g>
<!-- Node14 -->
<g id="Node000014" class="node">
<title>Node14</title>
<g id="a_Node000014"><a xlink:title=" ">
<polygon fill="#e0e0e0" stroke="#999999" points="212.5,-76 165,-76 165,-56 212.5,-56 212.5,-76"/>
<text text-anchor="middle" x="188.75" y="-62.5" font-family="Helvetica,sans-Serif" font-size="10.00">stdlib.h</text>
</a>
</g>
</g>
<!-- Node13&#45;&gt;Node14 -->
<g id="edge19_Node000013_Node000014" class="edge">
<title>Node13&#45;&gt;Node14</title>
<g id="a_edge19_Node000013_Node000014"><a xlink:title=" ">
<path fill="none" stroke="#63b8ff" d="M111.12,-117.62C125.71,-108.11 148.51,-93.24 165.63,-82.08"/>
<polygon fill="#63b8ff" stroke="#63b8ff" points="167.01,-84.7 173.48,-76.31 163.19,-78.84 167.01,-84.7"/>
</a>
</g>
</g>
<!-- Node15 -->
<g id="Node000015" class="node">
<title>Node15</title>
<g id="a_Node000015"><a xlink:href="a00182.html" target="_top" xlink:title="This is the generated driver types header file for the PWM driver.">
<polygon fill="white" stroke="#666666" points="89.5,-20 0,-20 0,0 89.5,0 89.5,-20"/>
<text text-anchor="middle" x="44.75" y="-6.5" font-family="Helvetica,sans-Serif" font-size="10.00">pwm_hs_types.h</text>
</a>
</g>
</g>
<!-- Node13&#45;&gt;Node15 -->
<g id="edge20_Node000013_Node000015" class="edge">
<title>Node13&#45;&gt;Node15</title>
<g id="a_edge20_Node000013_Node000015"><a xlink:title=" ">
<path fill="none" stroke="#63b8ff" d="M74.9,-117.6C58.61,-109.28 37.54,-95.42 27.75,-76 20.37,-61.37 26.21,-43.23 32.98,-29.83"/>
<polygon fill="#63b8ff" stroke="#63b8ff" points="36.51,-31.69 38.37,-21.26 30.41,-28.25 36.51,-31.69"/>
</a>
</g>
</g>
<!-- Node16 -->
<g id="Node000016" class="node">
<title>Node16</title>
<g id="a_Node000016"><a xlink:href="a00179_source.html" target="_top" xlink:title=" ">
<polygon fill="white" stroke="#666666" points="146.88,-76 44.62,-76 44.62,-56 146.88,-56 146.88,-76"/>
<text text-anchor="middle" x="95.75" y="-62.5" font-family="Helvetica,sans-Serif" font-size="10.00">pwm_hs_interface.h</text>
</a>
</g>
</g>
<!-- Node13&#45;&gt;Node16 -->
<g id="edge21_Node000013_Node000016" class="edge">
<title>Node13&#45;&gt;Node16</title>
<g id="a_edge21_Node000013_Node000016"><a xlink:title=" ">
<path fill="none" stroke="#63b8ff" d="M96.59,-117.62C96.46,-109.48 96.26,-97.39 96.08,-87.07"/>
<polygon fill="#63b8ff" stroke="#63b8ff" points="99.57,-87.05 95.9,-77.11 92.57,-87.17 99.57,-87.05"/>
</a>
</g>
</g>
<!-- Node16&#45;&gt;Node3 -->
<g id="edge22_Node000016_Node000003" class="edge">
<title>Node16&#45;&gt;Node3</title>
<g id="a_edge22_Node000016_Node000003"><a xlink:title=" ">
<path fill="none" stroke="#63b8ff" d="M142.74,-55.53C194.55,-45.09 276.93,-28.49 325.13,-18.78"/>
<polygon fill="#63b8ff" stroke="#63b8ff" points="325.63,-22.05 334.74,-16.64 324.24,-15.19 325.63,-22.05"/>
</a>
</g>
</g>
<!-- Node16&#45;&gt;Node8 -->
<g id="edge23_Node000016_Node000008" class="edge">
<title>Node16&#45;&gt;Node8</title>
<g id="a_edge23_Node000016_Node000008"><a xlink:title=" ">
<path fill="none" stroke="#63b8ff" d="M104.63,-55.59C111.8,-48.01 122.07,-37.13 130.67,-28.02"/>
<polygon fill="#63b8ff" stroke="#63b8ff" points="132.65,-30.97 136.97,-21.3 127.56,-26.17 132.65,-30.97"/>
</a>
</g>
</g>
<!-- Node16&#45;&gt;Node15 -->
<g id="edge24_Node000016_Node000015" class="edge">
<title>Node16&#45;&gt;Node15</title>
<g id="a_edge24_Node000016_Node000015"><a xlink:title=" ">
<path fill="none" stroke="#63b8ff" d="M86.87,-55.59C79.7,-48.01 69.43,-37.13 60.83,-28.02"/>
<polygon fill="#63b8ff" stroke="#63b8ff" points="63.94,-26.17 54.53,-21.3 58.85,-30.97 63.94,-26.17"/>
</a>
</g>
</g>
<!-- Node17&#45;&gt;Node2 -->
<g id="edge27_Node000017_Node000002" class="edge">
<title>Node17&#45;&gt;Node2</title>
<g id="a_edge27_Node000017_Node000002"><a xlink:title=" ">
<path fill="none" stroke="#63b8ff" d="M423.68,-111.54C394.34,-102.26 356.08,-90.08 313.72,-76.29"/>
<polygon fill="#63b8ff" stroke="#63b8ff" points="315.05,-72.71 304.46,-72.94 312.88,-79.37 315.05,-72.71"/>
</a>
</g>
</g>
<!-- Node17&#45;&gt;Node3 -->
<g id="edge29_Node000017_Node000003" class="edge">
<title>Node17&#45;&gt;Node3</title>
<g id="a_edge29_Node000017_Node000003"><a xlink:title=" ">
<path fill="none" stroke="#63b8ff" d="M470.9,-111.52C468.32,-95.92 462.32,-71.96 448.75,-56 436.39,-41.47 418.12,-30.94 401.69,-23.74"/>
<polygon fill="#63b8ff" stroke="#63b8ff" points="403.34,-20.23 392.76,-19.68 400.69,-26.71 403.34,-20.23"/>
</a>
</g>
</g>
<!-- Node17&#45;&gt;Node8 -->
<g id="edge28_Node000017_Node000008" class="edge">
<title>Node17&#45;&gt;Node8</title>
<g id="a_edge28_Node000017_Node000008"><a xlink:title=" ">
<path fill="none" stroke="#63b8ff" d="M464.96,-111.76C455.64,-95.18 438.39,-69.27 415.75,-56 376.63,-33.08 245.51,-19.27 181.92,-13.76"/>
<polygon fill="#63b8ff" stroke="#63b8ff" points="182.49,-10.22 172.23,-12.86 181.9,-17.19 182.49,-10.22"/>
</a>
</g>
</g>
<!-- Node18 -->
<g id="Node000018" class="node">
<title>Node18</title>
<g id="a_Node000018"><a xlink:title=" ">
<polygon fill="#e0e0e0" stroke="#999999" points="551,-76 500.5,-76 500.5,-56 551,-56 551,-76"/>
<text text-anchor="middle" x="525.75" y="-62.5" font-family="Helvetica,sans-Serif" font-size="10.00">stddef.h</text>
</a>
</g>
</g>
<!-- Node17&#45;&gt;Node18 -->
<g id="edge30_Node000017_Node000018" class="edge">
<title>Node17&#45;&gt;Node18</title>
<g id="a_edge30_Node000017_Node000018"><a xlink:title=" ">
<path fill="none" stroke="#63b8ff" d="M486.4,-111.55C493.68,-103.3 502.68,-93.12 510.23,-84.57"/>
<polygon fill="#63b8ff" stroke="#63b8ff" points="512.44,-87.22 516.44,-77.41 507.2,-82.59 512.44,-87.22"/>
</a>
</g>
</g>
</g>
</svg>
