<?xml version="1.0" encoding="UTF-8" standalone="no"?>
<!DOCTYPE svg PUBLIC "-//W3C//DTD SVG 1.1//EN"
 "http://www.w3.org/Graphics/SVG/1.1/DTD/svg11.dtd">
<!-- Generated by graphviz version 8.1.0 (20230707.0739)
 -->
<!-- Title: PCS_INIT_handler Pages: 1 -->
<svg width="464pt" height="242pt"
 viewBox="0.00 0.00 464.00 242.00" xmlns="http://www.w3.org/2000/svg" xmlns:xlink="http://www.w3.org/1999/xlink">
<g id="graph0" class="graph" transform="scale(1 1) rotate(0) translate(4 238)">
<title>PCS_INIT_handler</title>
<!-- Node1 -->
<g id="Node000001" class="node">
<title>Node1</title>
<g id="a_Node000001"><a xlink:title="Executes function for initialze state machine.">
<polygon fill="#999999" stroke="#666666" points="94.75,-134 0,-134 0,-114 94.75,-114 94.75,-134"/>
<text text-anchor="middle" x="47.38" y="-120.5" font-family="Helvetica,sans-Serif" font-size="10.00">PCS_INIT_handler</text>
</a>
</g>
</g>
<!-- Node2 -->
<g id="Node000002" class="node">
<title>Node2</title>
<g id="a_Node000002"><a xlink:href="a00499.html#ga218632f9814c3bf20c40cea0794ffc7d" target="_top" xlink:title="API function to get the calibration status.">
<polygon fill="white" stroke="#666666" points="258.5,-234 142,-234 142,-202 258.5,-202 258.5,-234"/>
<text text-anchor="start" x="150" y="-220.5" font-family="Helvetica,sans-Serif" font-size="10.00">Dev_CurrentSensor</text>
<text text-anchor="middle" x="200.25" y="-208.5" font-family="Helvetica,sans-Serif" font-size="10.00">_Get_CalibrationStatus</text>
</a>
</g>
</g>
<!-- Node1&#45;&gt;Node2 -->
<g id="edge1_Node000001_Node000002" class="edge">
<title>Node1&#45;&gt;Node2</title>
<g id="a_edge1_Node000001_Node000002"><a xlink:title=" ">
<path fill="none" stroke="#63b8ff" d="M58.16,-134.19C72.76,-148.92 101.67,-176.21 130.75,-193 133.23,-194.43 135.81,-195.81 138.46,-197.13"/>
<polygon fill="#63b8ff" stroke="#63b8ff" points="136.67,-200.62 147.22,-201.64 139.61,-194.27 136.67,-200.62"/>
</a>
</g>
</g>
<!-- Node3 -->
<g id="Node000003" class="node">
<title>Node3</title>
<g id="a_Node000003"><a xlink:href="a00499.html#ga9f581abf52dc00ba320faafa189fafb9" target="_top" xlink:title="API function to get the sensor offset.">
<polygon fill="white" stroke="#666666" points="249.88,-184 150.62,-184 150.62,-152 249.88,-152 249.88,-184"/>
<text text-anchor="start" x="158.62" y="-170.5" font-family="Helvetica,sans-Serif" font-size="10.00">Dev_CurrentSensor</text>
<text text-anchor="middle" x="200.25" y="-158.5" font-family="Helvetica,sans-Serif" font-size="10.00">_Get_Offset</text>
</a>
</g>
</g>
<!-- Node1&#45;&gt;Node3 -->
<g id="edge2_Node000001_Node000003" class="edge">
<title>Node1&#45;&gt;Node3</title>
<g id="a_edge2_Node000001_Node000003"><a xlink:title=" ">
<path fill="none" stroke="#63b8ff" d="M84.13,-134.43C100.82,-139.29 121.13,-145.22 140.02,-150.73"/>
<polygon fill="#63b8ff" stroke="#63b8ff" points="138.76,-154.3 149.34,-153.74 140.72,-147.58 138.76,-154.3"/>
</a>
</g>
</g>
<!-- Node4 -->
<g id="Node000004" class="node">
<title>Node4</title>
<g id="a_Node000004"><a xlink:href="a00499.html#gaaa75855922e60913d443c6203475256f" target="_top" xlink:title="Measures the currents sensor offset.">
<polygon fill="white" stroke="#666666" points="269.75,-134 130.75,-134 130.75,-114 269.75,-114 269.75,-134"/>
<text text-anchor="middle" x="200.25" y="-120.5" font-family="Helvetica,sans-Serif" font-size="10.00">Dev_CurrentSensorOffsetCal</text>
</a>
</g>
</g>
<!-- Node1&#45;&gt;Node4 -->
<g id="edge3_Node000001_Node000004" class="edge">
<title>Node1&#45;&gt;Node4</title>
<g id="a_edge3_Node000001_Node000004"><a xlink:title=" ">
<path fill="none" stroke="#63b8ff" d="M94.87,-124C102.79,-124 111.2,-124 119.69,-124"/>
<polygon fill="#63b8ff" stroke="#63b8ff" points="119.44,-127.5 129.44,-124 119.44,-120.5 119.44,-127.5"/>
</a>
</g>
</g>
<!-- Node7 -->
<g id="Node000007" class="node">
<title>Node7</title>
<g id="a_Node000007"><a xlink:href="a00497.html#ga81e895976c1ee1cb678be1d5b5c3505b" target="_top" xlink:title="Clears the fault object flag bits.">
<polygon fill="white" stroke="#666666" points="245,-96 155.5,-96 155.5,-76 245,-76 245,-96"/>
<text text-anchor="middle" x="200.25" y="-82.5" font-family="Helvetica,sans-Serif" font-size="10.00">Dev_Fault_Reset</text>
</a>
</g>
</g>
<!-- Node1&#45;&gt;Node7 -->
<g id="edge6_Node000001_Node000007" class="edge">
<title>Node1&#45;&gt;Node7</title>
<g id="a_edge6_Node000001_Node000007"><a xlink:title=" ">
<path fill="none" stroke="#63b8ff" d="M90,-113.52C107.73,-109.05 128.6,-103.79 147.32,-99.08"/>
<polygon fill="#63b8ff" stroke="#63b8ff" points="147.92,-102.29 156.76,-96.45 146.21,-95.5 147.92,-102.29"/>
</a>
</g>
</g>
<!-- Node8 -->
<g id="Node000008" class="node">
<title>Node8</title>
<g id="a_Node000008"><a xlink:href="a00490.html#ga209e7835d32aaf5a402b470b61284bdf" target="_top" xlink:title="Disable the PWM output.">
<polygon fill="white" stroke="#666666" points="268.25,-58 132.25,-58 132.25,-38 268.25,-38 268.25,-58"/>
<text text-anchor="middle" x="200.25" y="-44.5" font-family="Helvetica,sans-Serif" font-size="10.00">Dev_PwrCtrl_PWM_Disable</text>
</a>
</g>
</g>
<!-- Node1&#45;&gt;Node8 -->
<g id="edge7_Node000001_Node000008" class="edge">
<title>Node1&#45;&gt;Node8</title>
<g id="a_edge7_Node000001_Node000008"><a xlink:title=" ">
<path fill="none" stroke="#63b8ff" d="M60.41,-113.71C75.79,-101.06 103.66,-79.69 130.75,-67 134.6,-65.2 138.66,-63.53 142.79,-62.01"/>
<polygon fill="#63b8ff" stroke="#63b8ff" points="143.81,-65.02 152.16,-58.49 141.57,-58.39 143.81,-65.02"/>
</a>
</g>
</g>
<!-- Node5 -->
<g id="Node000005" class="node">
<title>Node5</title>
<g id="a_Node000005"><a xlink:href="a00506.html#gaf4b6f81a05012533b633a78dad7b6a98" target="_top" xlink:title="Returns the conversion value for the channel selected.">
<polygon fill="white" stroke="#666666" points="449.62,-172 312.12,-172 312.12,-152 449.62,-152 449.62,-172"/>
<text text-anchor="middle" x="380.88" y="-158.5" font-family="Helvetica,sans-Serif" font-size="10.00">ADC1_ConversionResultGet</text>
</a>
</g>
</g>
<!-- Node4&#45;&gt;Node5 -->
<g id="edge4_Node000004_Node000005" class="edge">
<title>Node4&#45;&gt;Node5</title>
<g id="a_edge4_Node000004_Node000005"><a xlink:title=" ">
<path fill="none" stroke="#63b8ff" d="M250.53,-134.48C272.11,-139.07 297.61,-144.5 320.24,-149.31"/>
<polygon fill="#63b8ff" stroke="#63b8ff" points="319.24,-152.89 329.75,-151.55 320.7,-146.05 319.24,-152.89"/>
</a>
</g>
</g>
<!-- Node6 -->
<g id="Node000006" class="node">
<title>Node6</title>
<g id="a_Node000006"><a xlink:href="a00499.html#ga03e8d61bbc0f4b686c400440f80dcf69" target="_top" xlink:title="Measure the sensor offset.">
<polygon fill="white" stroke="#666666" points="434.62,-134 327.12,-134 327.12,-114 434.62,-114 434.62,-134"/>
<text text-anchor="middle" x="380.88" y="-120.5" font-family="Helvetica,sans-Serif" font-size="10.00">Dev_SensorOffsetCal</text>
</a>
</g>
</g>
<!-- Node4&#45;&gt;Node6 -->
<g id="edge5_Node000004_Node000006" class="edge">
<title>Node4&#45;&gt;Node6</title>
<g id="a_edge5_Node000004_Node000006"><a xlink:title=" ">
<path fill="none" stroke="#63b8ff" d="M270.06,-124C285.16,-124 301.09,-124 316,-124"/>
<polygon fill="#63b8ff" stroke="#63b8ff" points="315.64,-127.5 325.64,-124 315.64,-120.5 315.64,-127.5"/>
</a>
</g>
</g>
<!-- Node9 -->
<g id="Node000009" class="node">
<title>Node9</title>
<g id="a_Node000009"><a xlink:href="a00512.html#ga531b59d8823e3ebda2da60f48582bcf3" target="_top" xlink:title="This inline function enables PWM override on PWMH output for specific PWM generator selected by the a...">
<polygon fill="white" stroke="#666666" points="446.25,-96 315.5,-96 315.5,-76 446.25,-76 446.25,-96"/>
<text text-anchor="middle" x="380.88" y="-82.5" font-family="Helvetica,sans-Serif" font-size="10.00">PWM_OverrideHighEnable</text>
</a>
</g>
</g>
<!-- Node8&#45;&gt;Node9 -->
<g id="edge8_Node000008_Node000009" class="edge">
<title>Node8&#45;&gt;Node9</title>
<g id="a_edge8_Node000008_Node000009"><a xlink:title=" ">
<path fill="none" stroke="#63b8ff" d="M250.53,-58.48C272.11,-63.07 297.61,-68.5 320.24,-73.31"/>
<polygon fill="#63b8ff" stroke="#63b8ff" points="319.24,-76.89 329.75,-75.55 320.7,-70.05 319.24,-76.89"/>
</a>
</g>
</g>
<!-- Node10 -->
<g id="Node000010" class="node">
<title>Node10</title>
<g id="a_Node000010"><a xlink:href="a00512.html#ga2548ca8feda75ba6ab784280679da6ae" target="_top" xlink:title="This inline function enables PWM override on PWML output for specific PWM generator selected by the a...">
<polygon fill="white" stroke="#666666" points="445.12,-58 316.62,-58 316.62,-38 445.12,-38 445.12,-58"/>
<text text-anchor="middle" x="380.88" y="-44.5" font-family="Helvetica,sans-Serif" font-size="10.00">PWM_OverrideLowEnable</text>
</a>
</g>
</g>
<!-- Node8&#45;&gt;Node10 -->
<g id="edge9_Node000008_Node000010" class="edge">
<title>Node8&#45;&gt;Node10</title>
<g id="a_edge9_Node000008_Node000010"><a xlink:title=" ">
<path fill="none" stroke="#63b8ff" d="M268.53,-48C280.61,-48 293.27,-48 305.54,-48"/>
<polygon fill="#63b8ff" stroke="#63b8ff" points="305.2,-51.5 315.2,-48 305.2,-44.5 305.2,-51.5"/>
</a>
</g>
</g>
<!-- Node11 -->
<g id="Node000011" class="node">
<title>Node11</title>
<g id="a_Node000011"><a xlink:href="a00512.html#ga83e780358618114f0d424ca7467cf751" target="_top" xlink:title="This inline function requests to update the data registers for specific PWM generator selected by the...">
<polygon fill="white" stroke="#666666" points="456,-20 305.75,-20 305.75,0 456,0 456,-20"/>
<text text-anchor="middle" x="380.88" y="-6.5" font-family="Helvetica,sans-Serif" font-size="10.00">PWM_SoftwareUpdateRequest</text>
</a>
</g>
</g>
<!-- Node8&#45;&gt;Node11 -->
<g id="edge10_Node000008_Node000011" class="edge">
<title>Node8&#45;&gt;Node11</title>
<g id="a_edge10_Node000008_Node000011"><a xlink:title=" ">
<path fill="none" stroke="#63b8ff" d="M250.53,-37.52C272.11,-32.93 297.61,-27.5 320.24,-22.69"/>
<polygon fill="#63b8ff" stroke="#63b8ff" points="320.7,-25.95 329.75,-20.45 319.24,-19.11 320.7,-25.95"/>
</a>
</g>
</g>
</g>
</svg>
