<?xml version="1.0" encoding="UTF-8" standalone="no"?>
<!DOCTYPE svg PUBLIC "-//W3C//DTD SVG 1.1//EN"
 "http://www.w3.org/Graphics/SVG/1.1/DTD/svg11.dtd">
<!-- Generated by graphviz version 8.1.0 (20230707.0739)
 -->
<!-- Title: Dev_PwrCtrl_Initialize Pages: 1 -->
<!--zoomable 444 -->

<svg id="main" version="1.1" xmlns="http://www.w3.org/2000/svg" xmlns:xlink="http://www.w3.org/1999/xlink" xml:space="preserve" onload="init(evt)">
<style type="text/css"><![CDATA[
.node, .edge {opacity: 0.7;}
.node.selected, .edge.selected {opacity: 1;}
.edge:hover path { stroke: red; }
.edge:hover polygon { stroke: red; fill: red; }
]]></style>

<defs>
  <circle id="rim" cx="0" cy="0" r="7"/>
  <circle id="rim2" cx="0" cy="0" r="3.5"/>
  <g id="zoomPlus">
    <use xlink:href="#rim" fill="#404040"><set attributeName="fill" to="#808080" begin="zoomplus.mouseover" end="zoomplus.mouseout"/></use>
    <path d="M-4,0h8M0,-4v8" fill="none" stroke="white" stroke-width="1.5" pointer-events="none"/>
  </g>
  <g id="zoomMin">
    <use xlink:href="#rim" fill="#404040"><set attributeName="fill" to="#808080" begin="zoomminus.mouseover" end="zoomminus.mouseout"/></use>
    <path d="M-4,0h8" fill="none" stroke="white" stroke-width="1.5" pointer-events="none"/>
  </g>
  <g id="arrowUp" transform="translate(30 24)">
    <use xlink:href="#rim"/>
    <path pointer-events="none" fill="none" stroke="white" stroke-width="1.5" d="M0,-3.0v7 M-2.5,-0.5L0,-3.0L2.5,-0.5"/>
  </g>
  <g id="arrowRight" transform="rotate(90) translate(36 -43)">
    <use xlink:href="#rim"/>
    <path pointer-events="none" fill="none" stroke="white" stroke-width="1.5" d="M0,-3.0v7 M-2.5,-0.5L0,-3.0L2.5,-0.5"/>
  </g>
  <g id="arrowDown" transform="rotate(180) translate(-30 -48)">
    <use xlink:href="#rim"/>
    <path pointer-events="none" fill="none" stroke="white" stroke-width="1.5" d="M0,-3.0v7 M-2.5,-0.5L0,-3.0L2.5,-0.5"/>
  </g>
  <g id="arrowLeft" transform="rotate(270) translate(-36 17)">
    <use xlink:href="#rim"/>
    <path pointer-events="none" fill="none" stroke="white" stroke-width="1.5" d="M0,-3.0v7 M-2.5,-0.5L0,-3.0L2.5,-0.5"/>
  </g>
  <g id="resetDef">
    <use xlink:href="#rim2" fill="#404040"><set attributeName="fill" to="#808080" begin="reset.mouseover" end="reset.mouseout"/></use>
  </g>
</defs>
<script type="application/ecmascript">
var viewWidth = 677;
var viewHeight = 444;
var sectionId = 'dynsection-4';
</script>
<script type="application/ecmascript" xlink:href="svg.min.js"/>
<svg id="graph" class="graph">
<g id="viewport">
<title>Dev_PwrCtrl_Initialize</title>
<!-- Node1 -->
<g id="Node000001" class="node">
<title>Node1</title>
<g id="a_Node000001"><a xlink:title="Initialize the power control parameters.">
<polygon fill="#999999" stroke="#666666" points="109,-153 0,-153 0,-133 109,-133 109,-153"/>
<text text-anchor="middle" x="54.5" y="-139.5" font-family="Helvetica,sans-Serif" font-size="10.00">Dev_PwrCtrl_Initialize</text>
</a>
</g>
</g>
<!-- Node2 -->
<g id="Node000002" class="node">
<title>Node2</title>
<g id="a_Node000002"><a xlink:href="a00488.html#ga2c8448f920be5d01bacbdc34f830f3e2" target="_top" xlink:title="Initializes the control loop.">
<polygon fill="white" stroke="#666666" points="278.75,-361 153.25,-361 153.25,-329 278.75,-329 278.75,-361"/>
<text text-anchor="start" x="161.25" y="-347.5" font-family="Helvetica,sans-Serif" font-size="10.00">Dev_PwrCtrl_ControlLoop</text>
<text text-anchor="middle" x="216" y="-335.5" font-family="Helvetica,sans-Serif" font-size="10.00">Initialize</text>
</a>
</g>
</g>
<!-- Node1&#45;&gt;Node2 -->
<g id="edge1_Node000001_Node000002" class="edge">
<title>Node1&#45;&gt;Node2</title>
<g id="a_edge1_Node000001_Node000002"><a xlink:title=" ">
<path fill="none" stroke="#63b8ff" d="M63.63,-153.29C87.86,-183.98 160.09,-275.46 195.29,-320.04"/>
<polygon fill="#63b8ff" stroke="#63b8ff" points="193.06,-321.87 202.01,-327.54 198.56,-317.53 193.06,-321.87"/>
</a>
</g>
</g>
<!-- Node7 -->
<g id="Node000007" class="node">
<title>Node7</title>
<g id="a_Node000007"><a xlink:href="a00490.html#ga209e7835d32aaf5a402b470b61284bdf" target="_top" xlink:title="Disable the PWM output.">
<polygon fill="white" stroke="#666666" points="284,-229 148,-229 148,-209 284,-209 284,-229"/>
<text text-anchor="middle" x="216" y="-215.5" font-family="Helvetica,sans-Serif" font-size="10.00">Dev_PwrCtrl_PWM_Disable</text>
</a>
</g>
</g>
<!-- Node1&#45;&gt;Node7 -->
<g id="edge8_Node000001_Node000007" class="edge">
<title>Node1&#45;&gt;Node7</title>
<g id="a_edge8_Node000001_Node000007"><a xlink:title=" ">
<path fill="none" stroke="#63b8ff" d="M77.34,-153.41C104.83,-166.5 152.22,-189.09 183.59,-204.03"/>
<polygon fill="#63b8ff" stroke="#63b8ff" points="181.63,-207.45 192.17,-208.6 184.64,-201.13 181.63,-207.45"/>
</a>
</g>
</g>
<!-- Node11 -->
<g id="Node000011" class="node">
<title>Node11</title>
<g id="a_Node000011"><a xlink:href="a00490.html#ga2da42ebbee6a24170cd69c0c798a572e" target="_top" xlink:title="PWM distribution for DAB converter.">
<polygon fill="white" stroke="#666666" points="283.25,-153 148.75,-153 148.75,-133 283.25,-133 283.25,-153"/>
<text text-anchor="middle" x="216" y="-139.5" font-family="Helvetica,sans-Serif" font-size="10.00">Dev_PwrCtrl_PWM_Update</text>
</a>
</g>
</g>
<!-- Node1&#45;&gt;Node11 -->
<g id="edge12_Node000001_Node000011" class="edge">
<title>Node1&#45;&gt;Node11</title>
<g id="a_edge12_Node000001_Node000011"><a xlink:title=" ">
<path fill="none" stroke="#63b8ff" d="M109.5,-143C118.46,-143 127.91,-143 137.33,-143"/>
<polygon fill="#63b8ff" stroke="#63b8ff" points="137.33,-146.5 147.33,-143 137.33,-139.5 137.33,-146.5"/>
</a>
</g>
</g>
<!-- Node17 -->
<g id="Node000017" class="node">
<title>Node17</title>
<g id="a_Node000017"><a xlink:href="a00488.html#ga36b70ecbc106c5f0d9bbec79aaf72a0c" target="_top" xlink:title="Initialize the StartUp Ramp configuration.">
<polygon fill="white" stroke="#666666" points="287,-115 145,-115 145,-95 287,-95 287,-115"/>
<text text-anchor="middle" x="216" y="-101.5" font-family="Helvetica,sans-Serif" font-size="10.00">Dev_PwrCtrl_StartUpInitialize</text>
</a>
</g>
</g>
<!-- Node1&#45;&gt;Node17 -->
<g id="edge19_Node000001_Node000017" class="edge">
<title>Node1&#45;&gt;Node17</title>
<g id="a_edge19_Node000001_Node000017"><a xlink:title=" ">
<path fill="none" stroke="#63b8ff" d="M99.51,-132.52C118.42,-128.01 140.72,-122.7 160.65,-117.95"/>
<polygon fill="#63b8ff" stroke="#63b8ff" points="161.22,-121.17 170.14,-115.45 159.6,-114.36 161.22,-121.17"/>
</a>
</g>
</g>
<!-- Node18 -->
<g id="Node000018" class="node">
<title>Node18</title>
<g id="a_Node000018"><a xlink:href="a00512.html#gaf61d06e6e907cd4dfcef3a40792ee82f" target="_top" xlink:title="This inline function will enable all the generators of PWM module.">
<polygon fill="white" stroke="#666666" points="254,-77 178,-77 178,-57 254,-57 254,-77"/>
<text text-anchor="middle" x="216" y="-63.5" font-family="Helvetica,sans-Serif" font-size="10.00">PWM_Enable</text>
</a>
</g>
</g>
<!-- Node1&#45;&gt;Node18 -->
<g id="edge20_Node000001_Node000018" class="edge">
<title>Node1&#45;&gt;Node18</title>
<g id="a_edge20_Node000001_Node000018"><a xlink:title=" ">
<path fill="none" stroke="#63b8ff" d="M69.02,-132.53C85.93,-119.89 116.19,-98.73 145,-86 151.97,-82.92 159.55,-80.24 167.07,-77.93"/>
<polygon fill="#63b8ff" stroke="#63b8ff" points="167.93,-81.04 176.59,-74.92 166.01,-74.31 167.93,-81.04"/>
</a>
</g>
</g>
<!-- Node3 -->
<g id="Node000003" class="node">
<title>Node3</title>
<g id="a_Node000003"><a xlink:href="a00492.html#gaaaac85e4a51c833160b5b86e33c8aa5e" target="_top" xlink:title="Initialize the Current Loop Control.">
<polygon fill="white" stroke="#666666" points="454.12,-436 352.62,-436 352.62,-404 454.12,-404 454.12,-436"/>
<text text-anchor="start" x="360.62" y="-422.5" font-family="Helvetica,sans-Serif" font-size="10.00">Dev_PwrCtrl_IComp</text>
<text text-anchor="middle" x="403.38" y="-410.5" font-family="Helvetica,sans-Serif" font-size="10.00">_Initialize</text>
</a>
</g>
</g>
<!-- Node2&#45;&gt;Node3 -->
<g id="edge2_Node000002_Node000003" class="edge">
<title>Node2&#45;&gt;Node3</title>
<g id="a_edge2_Node000002_Node000003"><a xlink:title=" ">
<path fill="none" stroke="#63b8ff" d="M248.98,-361.47C269.76,-371.83 297.61,-385.07 323,-395 329.18,-397.42 335.7,-399.77 342.24,-402.01"/>
<polygon fill="#63b8ff" stroke="#63b8ff" points="340.88,-405.58 351.47,-405.42 343.09,-398.94 340.88,-405.58"/>
</a>
</g>
</g>
<!-- Node5 -->
<g id="Node000005" class="node">
<title>Node5</title>
<g id="a_Node000005"><a xlink:href="a00492.html#ga516c60db39175332c838fb9d6bc6a3a3" target="_top" xlink:title="Initialize the Power Loop Control.">
<polygon fill="white" stroke="#666666" points="456.38,-386 350.38,-386 350.38,-354 456.38,-354 456.38,-386"/>
<text text-anchor="start" x="358.38" y="-372.5" font-family="Helvetica,sans-Serif" font-size="10.00">Dev_PwrCtrl_PComp</text>
<text text-anchor="middle" x="403.38" y="-360.5" font-family="Helvetica,sans-Serif" font-size="10.00">_Initialize</text>
</a>
</g>
</g>
<!-- Node2&#45;&gt;Node5 -->
<g id="edge4_Node000002_Node000005" class="edge">
<title>Node2&#45;&gt;Node5</title>
<g id="a_edge4_Node000002_Node000005"><a xlink:title=" ">
<path fill="none" stroke="#63b8ff" d="M279.24,-353.39C298.5,-355.99 319.73,-358.85 339.06,-361.46"/>
<polygon fill="#63b8ff" stroke="#63b8ff" points="338.51,-365.05 348.88,-362.92 339.44,-358.12 338.51,-365.05"/>
</a>
</g>
</g>
<!-- Node6 -->
<g id="Node000006" class="node">
<title>Node6</title>
<g id="a_Node000006"><a xlink:href="a00492.html#gab8788b6f0239ffe6b8b602dafb306f82" target="_top" xlink:title="Initialize the Voltage Loop Control.">
<polygon fill="white" stroke="#666666" points="456.38,-336 350.38,-336 350.38,-304 456.38,-304 456.38,-336"/>
<text text-anchor="start" x="358.38" y="-322.5" font-family="Helvetica,sans-Serif" font-size="10.00">Dev_PwrCtrl_VComp</text>
<text text-anchor="middle" x="403.38" y="-310.5" font-family="Helvetica,sans-Serif" font-size="10.00">_Initialize</text>
</a>
</g>
</g>
<!-- Node2&#45;&gt;Node6 -->
<g id="edge6_Node000002_Node000006" class="edge">
<title>Node2&#45;&gt;Node6</title>
<g id="a_edge6_Node000002_Node000006"><a xlink:title=" ">
<path fill="none" stroke="#63b8ff" d="M279.24,-336.61C298.5,-334.01 319.73,-331.15 339.06,-328.54"/>
<polygon fill="#63b8ff" stroke="#63b8ff" points="339.44,-331.88 348.88,-327.08 338.51,-324.95 339.44,-331.88"/>
</a>
</g>
</g>
<!-- Node4 -->
<g id="Node000004" class="node">
<title>Node4</title>
<g id="a_Node000004"><a xlink:href="a00353.html#a8d0d916c7a3ca172408fcded86a6baa2" target="_top" xlink:title=" ">
<polygon fill="white" stroke="#666666" points="668.5,-380 519.75,-380 519.75,-360 668.5,-360 668.5,-380"/>
<text text-anchor="middle" x="594.12" y="-366.5" font-family="Helvetica,sans-Serif" font-size="10.00">SMPS_Controller2P2ZInitialize</text>
</a>
</g>
</g>
<!-- Node3&#45;&gt;Node4 -->
<g id="edge3_Node000003_Node000004" class="edge">
<title>Node3&#45;&gt;Node4</title>
<g id="a_edge3_Node000003_Node000004"><a xlink:title=" ">
<path fill="none" stroke="#63b8ff" d="M454.46,-406.73C481.84,-399.48 515.66,-390.52 543.04,-383.27"/>
<polygon fill="#63b8ff" stroke="#63b8ff" points="543.8,-386.42 552.57,-380.48 542.01,-379.65 543.8,-386.42"/>
</a>
</g>
</g>
<!-- Node5&#45;&gt;Node4 -->
<g id="edge5_Node000005_Node000004" class="edge">
<title>Node5&#45;&gt;Node4</title>
<g id="a_edge5_Node000005_Node000004"><a xlink:title=" ">
<path fill="none" stroke="#63b8ff" d="M456.7,-370C472.78,-370 490.91,-370 508.58,-370"/>
<polygon fill="#63b8ff" stroke="#63b8ff" points="508.5,-373.5 518.5,-370 508.5,-366.5 508.5,-373.5"/>
</a>
</g>
</g>
<!-- Node6&#45;&gt;Node4 -->
<g id="edge7_Node000006_Node000004" class="edge">
<title>Node6&#45;&gt;Node4</title>
<g id="a_edge7_Node000006_Node000004"><a xlink:title=" ">
<path fill="none" stroke="#63b8ff" d="M456.7,-333.86C483.65,-341 516.34,-349.66 542.97,-356.71"/>
<polygon fill="#63b8ff" stroke="#63b8ff" points="542.03,-360.35 552.59,-359.53 543.82,-353.58 542.03,-360.35"/>
</a>
</g>
</g>
<!-- Node8 -->
<g id="Node000008" class="node">
<title>Node8</title>
<g id="a_Node000008"><a xlink:href="a00512.html#ga531b59d8823e3ebda2da60f48582bcf3" target="_top" xlink:title="This inline function enables PWM override on PWMH output for specific PWM generator selected by the a...">
<polygon fill="white" stroke="#666666" points="468.75,-286 338,-286 338,-266 468.75,-266 468.75,-286"/>
<text text-anchor="middle" x="403.38" y="-272.5" font-family="Helvetica,sans-Serif" font-size="10.00">PWM_OverrideHighEnable</text>
</a>
</g>
</g>
<!-- Node7&#45;&gt;Node8 -->
<g id="edge9_Node000007_Node000008" class="edge">
<title>Node7&#45;&gt;Node8</title>
<g id="a_edge9_Node000007_Node000008"><a xlink:title=" ">
<path fill="none" stroke="#63b8ff" d="M243.31,-229.34C264.6,-237.48 295.46,-248.79 323,-257 329.93,-259.07 337.26,-261.06 344.55,-262.94"/>
<polygon fill="#63b8ff" stroke="#63b8ff" points="343.59,-266.56 354.14,-265.59 345.29,-259.77 343.59,-266.56"/>
</a>
</g>
</g>
<!-- Node9 -->
<g id="Node000009" class="node">
<title>Node9</title>
<g id="a_Node000009"><a xlink:href="a00512.html#ga2548ca8feda75ba6ab784280679da6ae" target="_top" xlink:title="This inline function enables PWM override on PWML output for specific PWM generator selected by the a...">
<polygon fill="white" stroke="#666666" points="467.62,-248 339.12,-248 339.12,-228 467.62,-228 467.62,-248"/>
<text text-anchor="middle" x="403.38" y="-234.5" font-family="Helvetica,sans-Serif" font-size="10.00">PWM_OverrideLowEnable</text>
</a>
</g>
</g>
<!-- Node7&#45;&gt;Node9 -->
<g id="edge10_Node000007_Node000009" class="edge">
<title>Node7&#45;&gt;Node9</title>
<g id="a_edge10_Node000007_Node000009"><a xlink:title=" ">
<path fill="none" stroke="#63b8ff" d="M284.45,-225.91C298.56,-227.36 313.51,-228.89 327.85,-230.36"/>
<polygon fill="#63b8ff" stroke="#63b8ff" points="327.38,-233.93 337.68,-231.47 328.09,-226.97 327.38,-233.93"/>
</a>
</g>
</g>
<!-- Node10 -->
<g id="Node000010" class="node">
<title>Node10</title>
<g id="a_Node000010"><a xlink:href="a00512.html#ga83e780358618114f0d424ca7467cf751" target="_top" xlink:title="This inline function requests to update the data registers for specific PWM generator selected by the...">
<polygon fill="white" stroke="#666666" points="478.5,-210 328.25,-210 328.25,-190 478.5,-190 478.5,-210"/>
<text text-anchor="middle" x="403.38" y="-196.5" font-family="Helvetica,sans-Serif" font-size="10.00">PWM_SoftwareUpdateRequest</text>
</a>
</g>
</g>
<!-- Node7&#45;&gt;Node10 -->
<g id="edge11_Node000007_Node000010" class="edge">
<title>Node7&#45;&gt;Node10</title>
<g id="a_edge11_Node000007_Node000010"><a xlink:title=" ">
<path fill="none" stroke="#63b8ff" d="M284.45,-212.09C295.01,-211 306.04,-209.87 316.94,-208.76"/>
<polygon fill="#63b8ff" stroke="#63b8ff" points="317.18,-212.15 326.77,-207.65 316.46,-205.18 317.18,-212.15"/>
</a>
</g>
</g>
<!-- Node11&#45;&gt;Node10 -->
<g id="edge17_Node000011_Node000010" class="edge">
<title>Node11&#45;&gt;Node10</title>
<g id="a_edge17_Node000011_Node000010"><a xlink:title=" ">
<path fill="none" stroke="#63b8ff" d="M243.31,-153.34C264.6,-161.48 295.46,-172.79 323,-181 329.93,-183.07 337.26,-185.06 344.55,-186.94"/>
<polygon fill="#63b8ff" stroke="#63b8ff" points="343.59,-190.56 354.14,-189.59 345.29,-183.77 343.59,-190.56"/>
</a>
</g>
</g>
<!-- Node12 -->
<g id="Node000012" class="node">
<title>Node12</title>
<g id="a_Node000012"><a xlink:href="a00512.html#gaf368256a569a5a9e12f85f84d7d42287" target="_top" xlink:title="This inline function updates PWM Deadtime high register with the requested value for a specific PWM g...">
<polygon fill="white" stroke="#666666" points="465.38,-172 341.38,-172 341.38,-152 465.38,-152 465.38,-172"/>
<text text-anchor="middle" x="403.38" y="-158.5" font-family="Helvetica,sans-Serif" font-size="10.00">PWM_DeadTimeHighSet</text>
</a>
</g>
</g>
<!-- Node11&#45;&gt;Node12 -->
<g id="edge13_Node000011_Node000012" class="edge">
<title>Node11&#45;&gt;Node12</title>
<g id="a_edge13_Node000011_Node000012"><a xlink:title=" ">
<path fill="none" stroke="#63b8ff" d="M283.66,-149.83C298.84,-151.39 315.04,-153.05 330.43,-154.63"/>
<polygon fill="#63b8ff" stroke="#63b8ff" points="329.63,-158.16 339.93,-155.7 330.34,-151.2 329.63,-158.16"/>
</a>
</g>
</g>
<!-- Node13 -->
<g id="Node000013" class="node">
<title>Node13</title>
<g id="a_Node000013"><a xlink:href="a00512.html#ga124426b28426beb53948e9b57319ab4b" target="_top" xlink:title="This inline function updates PWM Deadtime low register with the requested value for a specific PWM ge...">
<polygon fill="white" stroke="#666666" points="464.25,-134 342.5,-134 342.5,-114 464.25,-114 464.25,-134"/>
<text text-anchor="middle" x="403.38" y="-120.5" font-family="Helvetica,sans-Serif" font-size="10.00">PWM_DeadTimeLowSet</text>
</a>
</g>
</g>
<!-- Node11&#45;&gt;Node13 -->
<g id="edge14_Node000011_Node000013" class="edge">
<title>Node11&#45;&gt;Node13</title>
<g id="a_edge14_Node000011_Node000013"><a xlink:title=" ">
<path fill="none" stroke="#63b8ff" d="M283.66,-136.17C299.18,-134.58 315.76,-132.88 331.45,-131.27"/>
<polygon fill="#63b8ff" stroke="#63b8ff" points="331.56,-134.67 341.15,-130.17 330.85,-127.71 331.56,-134.67"/>
</a>
</g>
</g>
<!-- Node14 -->
<g id="Node000014" class="node">
<title>Node14</title>
<g id="a_Node000014"><a xlink:href="a00512.html#ga37968a783e44cd80643478d2b559dbf4" target="_top" xlink:title="This inline function sets the PWM generator specific duty cycle register.">
<polygon fill="white" stroke="#666666" points="456.38,-96 350.38,-96 350.38,-76 456.38,-76 456.38,-96"/>
<text text-anchor="middle" x="403.38" y="-82.5" font-family="Helvetica,sans-Serif" font-size="10.00">PWM_DutyCycleSet</text>
</a>
</g>
</g>
<!-- Node11&#45;&gt;Node14 -->
<g id="edge15_Node000011_Node000014" class="edge">
<title>Node11&#45;&gt;Node14</title>
<g id="a_edge15_Node000011_Node000014"><a xlink:title=" ">
<path fill="none" stroke="#63b8ff" d="M261.17,-132.6C269.85,-130.12 278.8,-127.23 287,-124 303.83,-117.37 306.07,-111.38 323,-105 328.47,-102.94 334.24,-101.05 340.07,-99.33"/>
<polygon fill="#63b8ff" stroke="#63b8ff" points="340.87,-102.46 349.57,-96.41 339,-95.72 340.87,-102.46"/>
</a>
</g>
</g>
<!-- Node15 -->
<g id="Node000015" class="node">
<title>Node15</title>
<g id="a_Node000015"><a xlink:href="a00512.html#gada46160823b0892a1af14a17c5ab516e" target="_top" xlink:title="This inline function sets the period value in count for the PWM generator specific Time Base.">
<polygon fill="white" stroke="#666666" points="447.75,-58 359,-58 359,-38 447.75,-38 447.75,-58"/>
<text text-anchor="middle" x="403.38" y="-44.5" font-family="Helvetica,sans-Serif" font-size="10.00">PWM_PeriodSet</text>
</a>
</g>
</g>
<!-- Node11&#45;&gt;Node15 -->
<g id="edge16_Node000011_Node000015" class="edge">
<title>Node11&#45;&gt;Node15</title>
<g id="a_edge16_Node000011_Node000015"><a xlink:title=" ">
<path fill="none" stroke="#63b8ff" d="M271.63,-132.57C277.1,-130.26 282.34,-127.44 287,-124 311.1,-106.2 298.63,-84.44 323,-67 330.45,-61.67 339.21,-57.81 348.13,-55.04"/>
<polygon fill="#63b8ff" stroke="#63b8ff" points="348.85,-58.2 357.61,-52.24 347.05,-51.43 348.85,-58.2"/>
</a>
</g>
</g>
<!-- Node16 -->
<g id="Node000016" class="node">
<title>Node16</title>
<g id="a_Node000016"><a xlink:href="a00512.html#gacc5575148a6e8da6577d9be9e20541ce" target="_top" xlink:title="This inline function sets the Trigger C compare value in count for a specific PWM generator selected ...">
<polygon fill="white" stroke="#666666" points="483.75,-20 323,-20 323,0 483.75,0 483.75,-20"/>
<text text-anchor="middle" x="403.38" y="-6.5" font-family="Helvetica,sans-Serif" font-size="10.00">PWM_TriggerCCompareValueSet</text>
</a>
</g>
</g>
<!-- Node11&#45;&gt;Node16 -->
<g id="edge18_Node000011_Node000016" class="edge">
<title>Node11&#45;&gt;Node16</title>
<g id="a_edge18_Node000011_Node000016"><a xlink:title=" ">
<path fill="none" stroke="#63b8ff" d="M274.1,-132.65C278.78,-130.31 283.18,-127.47 287,-124 320.44,-93.66 289.11,-58.83 323,-29 324.23,-27.92 325.51,-26.89 326.83,-25.93"/>
<polygon fill="#63b8ff" stroke="#63b8ff" points="328.38,-28.48 335.14,-20.32 324.76,-22.49 328.38,-28.48"/>
</a>
</g>
</g>
</g>
</svg>

<g id="navigator" transform="translate(0 0)" fill="#404254">
  <rect fill="#f2f5e9" fill-opacity="0.5" stroke="#606060" stroke-width=".5" x="0" y="0" width="60" height="60"/>
  <use id="zoomplus" xlink:href="#zoomPlus" x="17" y="9" onmousedown="handleZoom(evt,'in')"/>
  <use id="zoomminus" xlink:href="#zoomMin" x="42" y="9" onmousedown="handleZoom(evt,'out')"/>
  <use id="reset" xlink:href="#resetDef" x="30" y="36" onmousedown="handleReset()"/>
   <use id="arrowup" xlink:href="#arrowUp" x="0" y="0" onmousedown="handlePan(0,-1)"/>
  <use id="arrowright" xlink:href="#arrowRight" x="0" y="0" onmousedown="handlePan(1,0)"/>
  <use id="arrowdown" xlink:href="#arrowDown" x="0" y="0" onmousedown="handlePan(0,1)"/>
  <use id="arrowleft" xlink:href="#arrowLeft" x="0" y="0" onmousedown="handlePan(-1,0)"/>
</g>
<svg viewBox="0 0 15 15" width="100%" height="30px" preserveAspectRatio="xMaxYMin meet">
 <g id="arrow_out" transform="scale(0.3 0.3)">
  <a xlink:href="a00488_ga6523e7af2c1c7f66d8495c072a5c7281_cgraph_org.svg" target="_base">
   <rect id="button" ry="5" rx="5" y="6" x="6" height="38" width="38"
        fill="#f2f5e9" fill-opacity="0.5" stroke="#606060" stroke-width="1.0"/>
   <path id="arrow"
     d="M 11.500037,31.436501 C 11.940474,20.09759 22.043105,11.32322 32.158766,21.979434 L 37.068811,17.246167 C 37.068811,17.246167 37.088388,32 37.088388,32 L 22.160133,31.978069 C 22.160133,31.978069 26.997745,27.140456 26.997745,27.140456 C 18.528582,18.264221 13.291696,25.230495 11.500037,31.436501 z"
     style="fill:#404040;"/>
  </a>
 </g>
</svg>

<style type='text/css'>
<![CDATA[
[data-mouse-over-selected='false'] { opacity: 0.7; }
[data-mouse-over-selected='true']  { opacity: 1.0; }
]]>
</style>
<script type="application/ecmascript"><![CDATA[
document.addEventListener('DOMContentLoaded', (event) => {
  highlightEdges();
  highlightAdjacentNodes();
});
]]></script>
</svg>
