<?xml version="1.0" encoding="UTF-8" standalone="no"?>
<!DOCTYPE svg PUBLIC "-//W3C//DTD SVG 1.1//EN"
 "http://www.w3.org/Graphics/SVG/1.1/DTD/svg11.dtd">
<!-- Generated by graphviz version 8.1.0 (20230707.0739)
 -->
<!-- Title: dab&#45;pwm&#45;configuration.X/sources/driver/mcc_extension/drv_custom_config_pwm.h Pages: 1 -->
<!--zoomable 312 -->

<svg id="main" version="1.1" xmlns="http://www.w3.org/2000/svg" xmlns:xlink="http://www.w3.org/1999/xlink" xml:space="preserve" onload="init(evt)">
<style type="text/css"><![CDATA[
.node, .edge {opacity: 0.7;}
.node.selected, .edge.selected {opacity: 1;}
.edge:hover path { stroke: red; }
.edge:hover polygon { stroke: red; fill: red; }
]]></style>

<defs>
  <circle id="rim" cx="0" cy="0" r="7"/>
  <circle id="rim2" cx="0" cy="0" r="3.5"/>
  <g id="zoomPlus">
    <use xlink:href="#rim" fill="#404040"><set attributeName="fill" to="#808080" begin="zoomplus.mouseover" end="zoomplus.mouseout"/></use>
    <path d="M-4,0h8M0,-4v8" fill="none" stroke="white" stroke-width="1.5" pointer-events="none"/>
  </g>
  <g id="zoomMin">
    <use xlink:href="#rim" fill="#404040"><set attributeName="fill" to="#808080" begin="zoomminus.mouseover" end="zoomminus.mouseout"/></use>
    <path d="M-4,0h8" fill="none" stroke="white" stroke-width="1.5" pointer-events="none"/>
  </g>
  <g id="arrowUp" transform="translate(30 24)">
    <use xlink:href="#rim"/>
    <path pointer-events="none" fill="none" stroke="white" stroke-width="1.5" d="M0,-3.0v7 M-2.5,-0.5L0,-3.0L2.5,-0.5"/>
  </g>
  <g id="arrowRight" transform="rotate(90) translate(36 -43)">
    <use xlink:href="#rim"/>
    <path pointer-events="none" fill="none" stroke="white" stroke-width="1.5" d="M0,-3.0v7 M-2.5,-0.5L0,-3.0L2.5,-0.5"/>
  </g>
  <g id="arrowDown" transform="rotate(180) translate(-30 -48)">
    <use xlink:href="#rim"/>
    <path pointer-events="none" fill="none" stroke="white" stroke-width="1.5" d="M0,-3.0v7 M-2.5,-0.5L0,-3.0L2.5,-0.5"/>
  </g>
  <g id="arrowLeft" transform="rotate(270) translate(-36 17)">
    <use xlink:href="#rim"/>
    <path pointer-events="none" fill="none" stroke="white" stroke-width="1.5" d="M0,-3.0v7 M-2.5,-0.5L0,-3.0L2.5,-0.5"/>
  </g>
  <g id="resetDef">
    <use xlink:href="#rim2" fill="#404040"><set attributeName="fill" to="#808080" begin="reset.mouseover" end="reset.mouseout"/></use>
  </g>
</defs>
<script type="application/ecmascript">
var viewWidth = 1017;
var viewHeight = 312;
var sectionId = 'dynsection-0';
</script>
<script type="application/ecmascript" xlink:href="svg.min.js"/>
<svg id="graph" class="graph">
<g id="viewport">
<title>dab&#45;pwm&#45;configuration.X/sources/driver/mcc_extension/drv_custom_config_pwm.h</title>
<!-- Node1 -->
<g id="Node000001" class="node">
<title>Node1</title>
<g id="a_Node000001"><a xlink:title="Contains PWM initialization that was not supported by MCC generated code.">
<polygon fill="#999999" stroke="#666666" points="609.62,-304 461.62,-304 461.62,-260 609.62,-260 609.62,-304"/>
<text text-anchor="start" x="469.62" y="-290.5" font-family="Helvetica,sans-Serif" font-size="10.00">dab&#45;pwm&#45;configuration.X</text>
<text text-anchor="start" x="469.62" y="-278.5" font-family="Helvetica,sans-Serif" font-size="10.00">/sources/driver/mcc_extension</text>
<text text-anchor="middle" x="535.62" y="-266.5" font-family="Helvetica,sans-Serif" font-size="10.00">/drv_custom_config_pwm.h</text>
</a>
</g>
</g>
<!-- Node2 -->
<g id="Node000002" class="node">
<title>Node2</title>
<g id="a_Node000002"><a xlink:href="a00389_source.html" target="_top" xlink:title=" ">
<polygon fill="white" stroke="#666666" points="681,-224 586.25,-224 586.25,-192 681,-192 681,-224"/>
<text text-anchor="start" x="594.25" y="-210.5" font-family="Helvetica,sans-Serif" font-size="10.00">device/pwrctrl/dev</text>
<text text-anchor="middle" x="633.62" y="-198.5" font-family="Helvetica,sans-Serif" font-size="10.00">_pwrctrl_typedef.h</text>
</a>
</g>
</g>
<!-- Node1&#45;&gt;Node2 -->
<g id="edge1_Node000001_Node000002" class="edge">
<title>Node1&#45;&gt;Node2</title>
<g id="a_edge1_Node000001_Node000002"><a xlink:title=" ">
<path fill="none" stroke="#63b8ff" d="M564.76,-259.59C577.11,-250.52 591.49,-239.96 603.9,-230.84"/>
<polygon fill="#63b8ff" stroke="#63b8ff" points="605.55,-233.24 611.53,-224.5 601.4,-227.6 605.55,-233.24"/>
</a>
</g>
</g>
<!-- Node7 -->
<g id="Node000007" class="node">
<title>Node7</title>
<g id="a_Node000007"><a xlink:href="a00410.html" target="_top" xlink:title="Contains public functions and defines for the MCC code extension for PWM.">
<polygon fill="white" stroke="#666666" points="533.25,-88 434,-88 434,-56 533.25,-56 533.25,-88"/>
<text text-anchor="start" x="442" y="-74.5" font-family="Helvetica,sans-Serif" font-size="10.00">drv_mcc_extension</text>
<text text-anchor="middle" x="483.62" y="-62.5" font-family="Helvetica,sans-Serif" font-size="10.00">_pwm.h</text>
</a>
</g>
</g>
<!-- Node1&#45;&gt;Node7 -->
<g id="edge6_Node000001_Node000007" class="edge">
<title>Node1&#45;&gt;Node7</title>
<g id="a_edge6_Node000001_Node000007"><a xlink:title=" ">
<path fill="none" stroke="#63b8ff" d="M530.26,-259.52C520.63,-221 500.46,-140.33 490.09,-98.85"/>
<polygon fill="#63b8ff" stroke="#63b8ff" points="493.26,-98.11 487.44,-89.26 486.47,-99.81 493.26,-98.11"/>
</a>
</g>
</g>
<!-- Node10 -->
<g id="Node000010" class="node">
<title>Node10</title>
<g id="a_Node000010"><a xlink:href="a00275_source.html" target="_top" xlink:title=" ">
<polygon fill="white" stroke="#666666" points="320.12,-150 235.12,-150 235.12,-130 320.12,-130 320.12,-150"/>
<text text-anchor="middle" x="277.62" y="-136.5" font-family="Helvetica,sans-Serif" font-size="10.00">config/macros.h</text>
</a>
</g>
</g>
<!-- Node1&#45;&gt;Node10 -->
<g id="edge11_Node000001_Node000010" class="edge">
<title>Node1&#45;&gt;Node10</title>
<g id="a_edge11_Node000001_Node000010"><a xlink:title=" ">
<path fill="none" stroke="#63b8ff" d="M496.16,-259.58C443.14,-230.81 350.31,-180.44 304.6,-155.64"/>
<polygon fill="#63b8ff" stroke="#63b8ff" points="306.54,-152.17 296.08,-150.47 303.2,-158.32 306.54,-152.17"/>
</a>
</g>
</g>
<!-- Node15 -->
<g id="Node000015" class="node">
<title>Node15</title>
<g id="a_Node000015"><a xlink:href="a00134.html" target="_top" xlink:title="This is the generated driver header file for the PWM driver.">
<polygon fill="white" stroke="#666666" points="880.38,-150 796.88,-150 796.88,-130 880.38,-130 880.38,-150"/>
<text text-anchor="middle" x="838.62" y="-136.5" font-family="Helvetica,sans-Serif" font-size="10.00">pwm_hs/pwm.h</text>
</a>
</g>
</g>
<!-- Node1&#45;&gt;Node15 -->
<g id="edge25_Node000001_Node000015" class="edge">
<title>Node1&#45;&gt;Node15</title>
<g id="a_edge25_Node000001_Node000015"><a xlink:title=" ">
<path fill="none" stroke="#63b8ff" d="M600.21,-259.59C628.11,-249.7 660.88,-237.23 689.62,-224 735.1,-203.07 785.5,-173.58 814.48,-155.97"/>
<polygon fill="#63b8ff" stroke="#63b8ff" points="816.09,-158.48 822.8,-150.27 812.44,-152.51 816.09,-158.48"/>
</a>
</g>
</g>
<!-- Node3 -->
<g id="Node000003" class="node">
<title>Node3</title>
<g id="a_Node000003"><a xlink:href="a00332_source.html" target="_top" xlink:title=" ">
<polygon fill="white" stroke="#666666" points="701.88,-156 597.38,-156 597.38,-124 701.88,-124 701.88,-156"/>
<text text-anchor="start" x="605.38" y="-142.5" font-family="Helvetica,sans-Serif" font-size="10.00">device/fault/dev_fault</text>
<text text-anchor="middle" x="649.62" y="-130.5" font-family="Helvetica,sans-Serif" font-size="10.00">_typedef.h</text>
</a>
</g>
</g>
<!-- Node2&#45;&gt;Node3 -->
<g id="edge2_Node000002_Node000003" class="edge">
<title>Node2&#45;&gt;Node3</title>
<g id="a_edge2_Node000002_Node000003"><a xlink:title=" ">
<path fill="none" stroke="#63b8ff" d="M637.34,-191.69C639.13,-184.28 641.34,-175.17 643.39,-166.74"/>
<polygon fill="#63b8ff" stroke="#63b8ff" points="646.98,-167.77 645.93,-157.22 640.18,-166.12 646.98,-167.77"/>
</a>
</g>
</g>
<!-- Node4 -->
<g id="Node000004" class="node">
<title>Node4</title>
<g id="a_Node000004"><a xlink:href="a00329_source.html" target="_top" xlink:title=" ">
<polygon fill="white" stroke="#666666" points="731.88,-82 627.38,-82 627.38,-62 731.88,-62 731.88,-82"/>
<text text-anchor="middle" x="679.62" y="-68.5" font-family="Helvetica,sans-Serif" font-size="10.00">dev_fault_common.h</text>
</a>
</g>
</g>
<!-- Node3&#45;&gt;Node4 -->
<g id="edge3_Node000003_Node000004" class="edge">
<title>Node3&#45;&gt;Node4</title>
<g id="a_edge3_Node000003_Node000004"><a xlink:title=" ">
<path fill="none" stroke="#63b8ff" d="M656.58,-123.69C660.85,-114.3 666.36,-102.18 670.92,-92.15"/>
<polygon fill="#63b8ff" stroke="#63b8ff" points="674.44,-93.87 675.39,-83.32 668.07,-90.97 674.44,-93.87"/>
</a>
</g>
</g>
<!-- Node5 -->
<g id="Node000005" class="node">
<title>Node5</title>
<g id="a_Node000005"><a xlink:title=" ">
<polygon fill="#e0e0e0" stroke="#999999" points="739.75,-20 691.5,-20 691.5,0 739.75,0 739.75,-20"/>
<text text-anchor="middle" x="715.62" y="-6.5" font-family="Helvetica,sans-Serif" font-size="10.00">stdint.h</text>
</a>
</g>
</g>
<!-- Node4&#45;&gt;Node5 -->
<g id="edge4_Node000004_Node000005" class="edge">
<title>Node4&#45;&gt;Node5</title>
<g id="a_edge4_Node000004_Node000005"><a xlink:title=" ">
<path fill="none" stroke="#63b8ff" d="M685.25,-61.62C690.41,-53.03 698.19,-40.07 704.58,-29.41"/>
<polygon fill="#63b8ff" stroke="#63b8ff" points="708.01,-31.49 710.16,-21.11 702.01,-27.89 708.01,-31.49"/>
</a>
</g>
</g>
<!-- Node6 -->
<g id="Node000006" class="node">
<title>Node6</title>
<g id="a_Node000006"><a xlink:title=" ">
<polygon fill="#e0e0e0" stroke="#999999" points="608.5,-20 552.75,-20 552.75,0 608.5,0 608.5,-20"/>
<text text-anchor="middle" x="580.62" y="-6.5" font-family="Helvetica,sans-Serif" font-size="10.00">stdbool.h</text>
</a>
</g>
</g>
<!-- Node4&#45;&gt;Node6 -->
<g id="edge5_Node000004_Node000006" class="edge">
<title>Node4&#45;&gt;Node6</title>
<g id="a_edge5_Node000004_Node000006"><a xlink:title=" ">
<path fill="none" stroke="#63b8ff" d="M664.16,-61.62C648.39,-52.07 623.7,-37.11 605.24,-25.92"/>
<polygon fill="#63b8ff" stroke="#63b8ff" points="607.35,-22.5 596.99,-20.31 603.72,-28.49 607.35,-22.5"/>
</a>
</g>
</g>
<!-- Node7&#45;&gt;Node5 -->
<g id="edge8_Node000007_Node000005" class="edge">
<title>Node7&#45;&gt;Node5</title>
<g id="a_edge8_Node000007_Node000005"><a xlink:title=" ">
<path fill="none" stroke="#63b8ff" d="M533.68,-58.05C578.03,-46.59 641.63,-30.14 680.7,-20.03"/>
<polygon fill="#63b8ff" stroke="#63b8ff" points="681.46,-23.19 690.27,-17.3 679.71,-16.41 681.46,-23.19"/>
</a>
</g>
</g>
<!-- Node7&#45;&gt;Node6 -->
<g id="edge9_Node000007_Node000006" class="edge">
<title>Node7&#45;&gt;Node6</title>
<g id="a_edge9_Node000007_Node000006"><a xlink:title=" ">
<path fill="none" stroke="#63b8ff" d="M508.6,-55.55C523.2,-46.52 541.54,-35.17 556.07,-26.19"/>
<polygon fill="#63b8ff" stroke="#63b8ff" points="557.75,-28.65 564.42,-20.41 554.07,-22.69 557.75,-28.65"/>
</a>
</g>
</g>
<!-- Node8 -->
<g id="Node000008" class="node">
<title>Node8</title>
<g id="a_Node000008"><a xlink:title=" ">
<polygon fill="#e0e0e0" stroke="#999999" points="351,-20 316.25,-20 316.25,0 351,0 351,-20"/>
<text text-anchor="middle" x="333.62" y="-6.5" font-family="Helvetica,sans-Serif" font-size="10.00">xc.h</text>
</a>
</g>
</g>
<!-- Node7&#45;&gt;Node8 -->
<g id="edge7_Node000007_Node000008" class="edge">
<title>Node7&#45;&gt;Node8</title>
<g id="a_edge7_Node000007_Node000008"><a xlink:title=" ">
<path fill="none" stroke="#63b8ff" d="M445,-55.55C418.8,-45.07 384.79,-31.47 361.28,-22.06"/>
<polygon fill="#63b8ff" stroke="#63b8ff" points="362.87,-18.53 352.29,-18.06 360.27,-25.03 362.87,-18.53"/>
</a>
</g>
</g>
<!-- Node9 -->
<g id="Node000009" class="node">
<title>Node9</title>
<g id="a_Node000009"><a xlink:title=" ">
<polygon fill="#e0e0e0" stroke="#999999" points="419.88,-20 369.38,-20 369.38,0 419.88,0 419.88,-20"/>
<text text-anchor="middle" x="394.62" y="-6.5" font-family="Helvetica,sans-Serif" font-size="10.00">stddef.h</text>
</a>
</g>
</g>
<!-- Node7&#45;&gt;Node9 -->
<g id="edge10_Node000007_Node000009" class="edge">
<title>Node7&#45;&gt;Node9</title>
<g id="a_edge10_Node000007_Node000009"><a xlink:title=" ">
<path fill="none" stroke="#63b8ff" d="M460.71,-55.55C447.44,-46.61 430.81,-35.39 417.54,-26.45"/>
<polygon fill="#63b8ff" stroke="#63b8ff" points="419.83,-23.1 409.58,-20.41 415.92,-28.9 419.83,-23.1"/>
</a>
</g>
</g>
<!-- Node10&#45;&gt;Node5 -->
<g id="edge13_Node000010_Node000005" class="edge">
<title>Node10&#45;&gt;Node5</title>
<g id="a_edge13_Node000010_Node000005"><a xlink:title=" ">
<path fill="none" stroke="#63b8ff" d="M320.53,-137.47C429.97,-133.14 712.83,-119.02 740.62,-88 755.42,-71.48 742.48,-46.08 730.38,-29.01"/>
<polygon fill="#63b8ff" stroke="#63b8ff" points="732.75,-27.35 723.92,-21.5 727.17,-31.58 732.75,-27.35"/>
</a>
</g>
</g>
<!-- Node10&#45;&gt;Node6 -->
<g id="edge14_Node000010_Node000006" class="edge">
<title>Node10&#45;&gt;Node6</title>
<g id="a_edge14_Node000010_Node000006"><a xlink:title=" ">
<path fill="none" stroke="#63b8ff" d="M320.58,-135.37C386.44,-129.04 508.34,-114.13 542.62,-88 561.02,-73.98 571.07,-48.68 576.14,-30.92"/>
<polygon fill="#63b8ff" stroke="#63b8ff" points="579.77,-31.85 578.84,-21.29 572.99,-30.12 579.77,-31.85"/>
</a>
</g>
</g>
<!-- Node10&#45;&gt;Node8 -->
<g id="edge12_Node000010_Node000008" class="edge">
<title>Node10&#45;&gt;Node8</title>
<g id="a_edge12_Node000010_Node000008"><a xlink:title=" ">
<path fill="none" stroke="#63b8ff" d="M234.9,-130.63C183.99,-118.74 109.36,-94.09 139.62,-56 159.99,-30.38 256.33,-18.04 305.14,-13.35"/>
<polygon fill="#63b8ff" stroke="#63b8ff" points="305.26,-16.77 314.9,-12.37 304.62,-9.79 305.26,-16.77"/>
</a>
</g>
</g>
<!-- Node10&#45;&gt;Node9 -->
<g id="edge15_Node000010_Node000009" class="edge">
<title>Node10&#45;&gt;Node9</title>
<g id="a_edge15_Node000010_Node000009"><a xlink:title=" ">
<path fill="none" stroke="#63b8ff" d="M234.64,-129.73C212.03,-122.44 186.23,-109.73 172.62,-88 165.08,-75.95 163.57,-66.97 172.62,-56 224.41,6.71 273.09,-34.99 358.46,-19.9"/>
<polygon fill="#63b8ff" stroke="#63b8ff" points="358.94,-23.17 368.05,-17.77 357.56,-16.31 358.94,-23.17"/>
</a>
</g>
</g>
<!-- Node11 -->
<g id="Node000011" class="node">
<title>Node11</title>
<g id="a_Node000011"><a xlink:title=" ">
<polygon fill="#e0e0e0" stroke="#999999" points="227.62,-82 181.62,-82 181.62,-62 227.62,-62 227.62,-82"/>
<text text-anchor="middle" x="204.62" y="-68.5" font-family="Helvetica,sans-Serif" font-size="10.00">math.h</text>
</a>
</g>
</g>
<!-- Node10&#45;&gt;Node11 -->
<g id="edge16_Node000010_Node000011" class="edge">
<title>Node10&#45;&gt;Node11</title>
<g id="a_edge16_Node000010_Node000011"><a xlink:title=" ">
<path fill="none" stroke="#63b8ff" d="M267.17,-129.54C255.67,-119.15 237,-102.27 223.04,-89.65"/>
<polygon fill="#63b8ff" stroke="#63b8ff" points="225.83,-87.55 216.06,-83.44 221.14,-92.74 225.83,-87.55"/>
</a>
</g>
</g>
<!-- Node12 -->
<g id="Node000012" class="node">
<title>Node12</title>
<g id="a_Node000012"><a xlink:href="a00278_source.html" target="_top" xlink:title=" ">
<polygon fill="white" stroke="#666666" points="87.25,-82 0,-82 0,-62 87.25,-62 87.25,-82"/>
<text text-anchor="middle" x="43.62" y="-68.5" font-family="Helvetica,sans-Serif" font-size="10.00">useful_macros.h</text>
</a>
</g>
</g>
<!-- Node10&#45;&gt;Node12 -->
<g id="edge17_Node000010_Node000012" class="edge">
<title>Node10&#45;&gt;Node12</title>
<g id="a_edge17_Node000010_Node000012"><a xlink:title=" ">
<path fill="none" stroke="#63b8ff" d="M244.1,-129.54C202.92,-117.93 132.95,-98.19 87.51,-85.38"/>
<polygon fill="#63b8ff" stroke="#63b8ff" points="88.66,-81.78 78.09,-82.44 86.76,-88.52 88.66,-81.78"/>
</a>
</g>
</g>
<!-- Node13 -->
<g id="Node000013" class="node">
<title>Node13</title>
<g id="a_Node000013"><a xlink:href="a00269_source.html" target="_top" xlink:title=" ">
<polygon fill="white" stroke="#666666" points="415.5,-82 365.75,-82 365.75,-62 415.5,-62 415.5,-82"/>
<text text-anchor="middle" x="390.62" y="-68.5" font-family="Helvetica,sans-Serif" font-size="10.00">config.h</text>
</a>
</g>
</g>
<!-- Node10&#45;&gt;Node13 -->
<g id="edge19_Node000010_Node000013" class="edge">
<title>Node10&#45;&gt;Node13</title>
<g id="a_edge19_Node000010_Node000013"><a xlink:title=" ">
<path fill="none" stroke="#63b8ff" d="M293.82,-129.54C312.44,-118.66 343.27,-100.66 365.13,-87.89"/>
<polygon fill="#63b8ff" stroke="#63b8ff" points="366.6,-90.5 373.46,-82.44 363.06,-84.46 366.6,-90.5"/>
</a>
</g>
</g>
<!-- Node14 -->
<g id="Node000014" class="node">
<title>Node14</title>
<g id="a_Node000014"><a xlink:href="a00272_source.html" target="_top" xlink:title=" ">
<polygon fill="white" stroke="#666666" points="309.25,-82 246,-82 246,-62 309.25,-62 309.25,-82"/>
<text text-anchor="middle" x="277.62" y="-68.5" font-family="Helvetica,sans-Serif" font-size="10.00">hardware.h</text>
</a>
</g>
</g>
<!-- Node10&#45;&gt;Node14 -->
<g id="edge24_Node000010_Node000014" class="edge">
<title>Node10&#45;&gt;Node14</title>
<g id="a_edge24_Node000010_Node000014"><a xlink:title=" ">
<path fill="none" stroke="#63b8ff" d="M277.62,-129.54C277.62,-120.13 277.62,-105.39 277.62,-93.32"/>
<polygon fill="#63b8ff" stroke="#63b8ff" points="281.13,-93.44 277.62,-83.44 274.13,-93.44 281.13,-93.44"/>
</a>
</g>
</g>
<!-- Node12&#45;&gt;Node8 -->
<g id="edge18_Node000012_Node000008" class="edge">
<title>Node12&#45;&gt;Node8</title>
<g id="a_edge18_Node000012_Node000008"><a xlink:title=" ">
<path fill="none" stroke="#63b8ff" d="M78.81,-61.53C86.32,-59.61 94.22,-57.67 101.62,-56 174.55,-39.51 261.2,-23.7 305.09,-15.95"/>
<polygon fill="#63b8ff" stroke="#63b8ff" points="305.55,-19.25 314.79,-14.07 304.34,-12.35 305.55,-19.25"/>
</a>
</g>
</g>
<!-- Node13&#45;&gt;Node5 -->
<g id="edge21_Node000013_Node000005" class="edge">
<title>Node13&#45;&gt;Node5</title>
<g id="a_edge21_Node000013_Node000005"><a xlink:title=" ">
<path fill="none" stroke="#63b8ff" d="M409.71,-61.53C414.49,-59.46 419.67,-57.45 424.62,-56 472.05,-42.13 613.79,-23.55 680.36,-15.28"/>
<polygon fill="#63b8ff" stroke="#63b8ff" points="680.63,-18.65 690.12,-13.95 679.77,-11.7 680.63,-18.65"/>
</a>
</g>
</g>
<!-- Node13&#45;&gt;Node6 -->
<g id="edge22_Node000013_Node000006" class="edge">
<title>Node13&#45;&gt;Node6</title>
<g id="a_edge22_Node000013_Node000006"><a xlink:title=" ">
<path fill="none" stroke="#63b8ff" d="M410.94,-61.51C415.4,-59.57 420.14,-57.63 424.62,-56 463.85,-41.76 509.88,-28.94 541.72,-20.66"/>
<polygon fill="#63b8ff" stroke="#63b8ff" points="542.55,-23.81 551.36,-17.93 540.81,-17.03 542.55,-23.81"/>
</a>
</g>
</g>
<!-- Node13&#45;&gt;Node8 -->
<g id="edge20_Node000013_Node000008" class="edge">
<title>Node13&#45;&gt;Node8</title>
<g id="a_edge20_Node000013_Node000008"><a xlink:title=" ">
<path fill="none" stroke="#63b8ff" d="M381.72,-61.62C373.14,-52.59 359.96,-38.72 349.56,-27.78"/>
<polygon fill="#63b8ff" stroke="#63b8ff" points="352.71,-25.95 343.28,-21.11 347.63,-30.77 352.71,-25.95"/>
</a>
</g>
</g>
<!-- Node13&#45;&gt;Node9 -->
<g id="edge23_Node000013_Node000009" class="edge">
<title>Node13&#45;&gt;Node9</title>
<g id="a_edge23_Node000013_Node000009"><a xlink:title=" ">
<path fill="none" stroke="#63b8ff" d="M391.25,-61.62C391.79,-53.48 392.6,-41.39 393.29,-31.07"/>
<polygon fill="#63b8ff" stroke="#63b8ff" points="396.84,-31.32 394.02,-21.11 389.86,-30.86 396.84,-31.32"/>
</a>
</g>
</g>
<!-- Node15&#45;&gt;Node5 -->
<g id="edge27_Node000015_Node000005" class="edge">
<title>Node15&#45;&gt;Node5</title>
<g id="a_edge27_Node000015_Node000005"><a xlink:title=" ">
<path fill="none" stroke="#63b8ff" d="M854.21,-129.61C878.11,-114.05 919.03,-82.03 898.62,-56 880.64,-33.06 799.01,-20.25 751.06,-14.58"/>
<polygon fill="#63b8ff" stroke="#63b8ff" points="751.56,-11.01 741.23,-13.36 750.77,-17.96 751.56,-11.01"/>
</a>
</g>
</g>
<!-- Node15&#45;&gt;Node6 -->
<g id="edge28_Node000015_Node000006" class="edge">
<title>Node15&#45;&gt;Node6</title>
<g id="a_edge28_Node000015_Node000006"><a xlink:title=" ">
<path fill="none" stroke="#63b8ff" d="M796.47,-133.58C740.58,-125.68 645.82,-109.55 618.62,-88 600.6,-73.71 590.5,-48.68 585.32,-31.04"/>
<polygon fill="#63b8ff" stroke="#63b8ff" points="588.46,-30.25 582.53,-21.47 581.69,-32.03 588.46,-30.25"/>
</a>
</g>
</g>
<!-- Node15&#45;&gt;Node8 -->
<g id="edge26_Node000015_Node000008" class="edge">
<title>Node15&#45;&gt;Node8</title>
<g id="a_edge26_Node000015_Node000008"><a xlink:title=" ">
<path fill="none" stroke="#63b8ff" d="M796.56,-133.91C771.59,-130.92 739.32,-127.14 710.62,-124 632.02,-115.4 417.56,-138.39 356.62,-88 340.03,-74.27 335.08,-49.1 333.77,-31.28"/>
<polygon fill="#63b8ff" stroke="#63b8ff" points="337.23,-31.2 333.35,-21.35 330.24,-31.47 337.23,-31.2"/>
</a>
</g>
</g>
<!-- Node16 -->
<g id="Node000016" class="node">
<title>Node16</title>
<g id="a_Node000016"><a xlink:title=" ">
<polygon fill="#e0e0e0" stroke="#999999" points="993.38,-82 945.88,-82 945.88,-62 993.38,-62 993.38,-82"/>
<text text-anchor="middle" x="969.62" y="-68.5" font-family="Helvetica,sans-Serif" font-size="10.00">stdlib.h</text>
</a>
</g>
</g>
<!-- Node15&#45;&gt;Node16 -->
<g id="edge29_Node000015_Node000016" class="edge">
<title>Node15&#45;&gt;Node16</title>
<g id="a_edge29_Node000015_Node000016"><a xlink:title=" ">
<path fill="none" stroke="#63b8ff" d="M857.39,-129.54C879.28,-118.52 915.7,-100.17 941.09,-87.38"/>
<polygon fill="#63b8ff" stroke="#63b8ff" points="942.53,-90.06 949.89,-82.44 939.39,-83.81 942.53,-90.06"/>
</a>
</g>
</g>
<!-- Node17 -->
<g id="Node000017" class="node">
<title>Node17</title>
<g id="a_Node000017"><a xlink:href="a00143.html" target="_top" xlink:title="This is the generated driver types header file for the PWM driver.">
<polygon fill="white" stroke="#666666" points="974.38,-20 884.88,-20 884.88,0 974.38,0 974.38,-20"/>
<text text-anchor="middle" x="929.62" y="-6.5" font-family="Helvetica,sans-Serif" font-size="10.00">pwm_hs_types.h</text>
</a>
</g>
</g>
<!-- Node15&#45;&gt;Node17 -->
<g id="edge30_Node000015_Node000017" class="edge">
<title>Node15&#45;&gt;Node17</title>
<g id="a_edge30_Node000015_Node000017"><a xlink:title=" ">
<path fill="none" stroke="#63b8ff" d="M880.78,-138.93C919.48,-136.34 974.87,-125.7 1002.62,-88 1011.06,-76.55 1009.56,-68.42 1002.62,-56 994.92,-42.19 981.04,-32.1 967.43,-25.01"/>
<polygon fill="#63b8ff" stroke="#63b8ff" points="969.21,-21.5 958.67,-20.37 966.2,-27.82 969.21,-21.5"/>
</a>
</g>
</g>
<!-- Node18 -->
<g id="Node000018" class="node">
<title>Node18</title>
<g id="a_Node000018"><a xlink:href="a00140_source.html" target="_top" xlink:title=" ">
<polygon fill="white" stroke="#666666" points="889.75,-82 787.5,-82 787.5,-62 889.75,-62 889.75,-82"/>
<text text-anchor="middle" x="838.62" y="-68.5" font-family="Helvetica,sans-Serif" font-size="10.00">pwm_hs_interface.h</text>
</a>
</g>
</g>
<!-- Node15&#45;&gt;Node18 -->
<g id="edge31_Node000015_Node000018" class="edge">
<title>Node15&#45;&gt;Node18</title>
<g id="a_edge31_Node000015_Node000018"><a xlink:title=" ">
<path fill="none" stroke="#63b8ff" d="M838.62,-129.54C838.62,-120.13 838.62,-105.39 838.62,-93.32"/>
<polygon fill="#63b8ff" stroke="#63b8ff" points="842.13,-93.44 838.62,-83.44 835.13,-93.44 842.13,-93.44"/>
</a>
</g>
</g>
<!-- Node18&#45;&gt;Node5 -->
<g id="edge33_Node000018_Node000005" class="edge">
<title>Node18&#45;&gt;Node5</title>
<g id="a_edge33_Node000018_Node000005"><a xlink:title=" ">
<path fill="none" stroke="#63b8ff" d="M819.41,-61.62C799.28,-51.81 767.44,-36.27 744.33,-25"/>
<polygon fill="#63b8ff" stroke="#63b8ff" points="746.23,-21.55 735.71,-20.31 743.16,-27.84 746.23,-21.55"/>
</a>
</g>
</g>
<!-- Node18&#45;&gt;Node6 -->
<g id="edge32_Node000018_Node000006" class="edge">
<title>Node18&#45;&gt;Node6</title>
<g id="a_edge32_Node000018_Node000006"><a xlink:title=" ">
<path fill="none" stroke="#63b8ff" d="M798.03,-61.56C749.05,-50.17 667.32,-31.16 619.25,-19.98"/>
<polygon fill="#63b8ff" stroke="#63b8ff" points="620.19,-16.38 609.66,-17.52 618.61,-23.19 620.19,-16.38"/>
</a>
</g>
</g>
<!-- Node18&#45;&gt;Node17 -->
<g id="edge34_Node000018_Node000017" class="edge">
<title>Node18&#45;&gt;Node17</title>
<g id="a_edge34_Node000018_Node000017"><a xlink:title=" ">
<path fill="none" stroke="#63b8ff" d="M852.84,-61.62C867.27,-52.11 889.82,-37.24 906.76,-26.08"/>
<polygon fill="#63b8ff" stroke="#63b8ff" points="908.08,-28.74 914.51,-20.31 904.23,-22.89 908.08,-28.74"/>
</a>
</g>
</g>
</g>
</svg>

<g id="navigator" transform="translate(0 0)" fill="#404254">
  <rect fill="#f2f5e9" fill-opacity="0.5" stroke="#606060" stroke-width=".5" x="0" y="0" width="60" height="60"/>
  <use id="zoomplus" xlink:href="#zoomPlus" x="17" y="9" onmousedown="handleZoom(evt,'in')"/>
  <use id="zoomminus" xlink:href="#zoomMin" x="42" y="9" onmousedown="handleZoom(evt,'out')"/>
  <use id="reset" xlink:href="#resetDef" x="30" y="36" onmousedown="handleReset()"/>
   <use id="arrowup" xlink:href="#arrowUp" x="0" y="0" onmousedown="handlePan(0,-1)"/>
  <use id="arrowright" xlink:href="#arrowRight" x="0" y="0" onmousedown="handlePan(1,0)"/>
  <use id="arrowdown" xlink:href="#arrowDown" x="0" y="0" onmousedown="handlePan(0,1)"/>
  <use id="arrowleft" xlink:href="#arrowLeft" x="0" y="0" onmousedown="handlePan(-1,0)"/>
</g>
<svg viewBox="0 0 15 15" width="100%" height="30px" preserveAspectRatio="xMaxYMin meet">
 <g id="arrow_out" transform="scale(0.3 0.3)">
  <a xlink:href="a00402_org.svg" target="_base">
   <rect id="button" ry="5" rx="5" y="6" x="6" height="38" width="38"
        fill="#f2f5e9" fill-opacity="0.5" stroke="#606060" stroke-width="1.0"/>
   <path id="arrow"
     d="M 11.500037,31.436501 C 11.940474,20.09759 22.043105,11.32322 32.158766,21.979434 L 37.068811,17.246167 C 37.068811,17.246167 37.088388,32 37.088388,32 L 22.160133,31.978069 C 22.160133,31.978069 26.997745,27.140456 26.997745,27.140456 C 18.528582,18.264221 13.291696,25.230495 11.500037,31.436501 z"
     style="fill:#404040;"/>
  </a>
 </g>
</svg>

<style type='text/css'>
<![CDATA[
[data-mouse-over-selected='false'] { opacity: 0.7; }
[data-mouse-over-selected='true']  { opacity: 1.0; }
]]>
</style>
<script type="application/ecmascript"><![CDATA[
document.addEventListener('DOMContentLoaded', (event) => {
  highlightEdges();
  highlightAdjacentNodes();
});
]]></script>
</svg>
