<?xml version="1.0" encoding="UTF-8" standalone="no"?>
<!DOCTYPE svg PUBLIC "-//W3C//DTD SVG 1.1//EN"
 "http://www.w3.org/Graphics/SVG/1.1/DTD/svg11.dtd">
<!-- Generated by graphviz version 8.1.0 (20230707.0739)
 -->
<!-- Title: dspic33ck&#45;dab.X/sources/pwrctrl/dcdt/pwrctrl_dcdt.h Pages: 1 -->
<svg width="1095pt" height="176pt"
 viewBox="0.00 0.00 1094.75 176.00" xmlns="http://www.w3.org/2000/svg" xmlns:xlink="http://www.w3.org/1999/xlink">
<g id="graph0" class="graph" transform="scale(1 1) rotate(0) translate(4 172)">
<title>dspic33ck&#45;dab.X/sources/pwrctrl/dcdt/pwrctrl_dcdt.h</title>
<!-- Node1 -->
<g id="Node000001" class="node">
<title>Node1</title>
<g id="a_Node000001"><a xlink:title="Contains public functions and data types relevant for DCDT file interface.">
<polygon fill="#999999" stroke="#666666" points="436,-168 311.25,-168 311.25,-124 436,-124 436,-168"/>
<text text-anchor="start" x="319.25" y="-154.5" font-family="Helvetica,sans-Serif" font-size="10.00">dspic33ck&#45;dab.X/sources</text>
<text text-anchor="start" x="319.25" y="-142.5" font-family="Helvetica,sans-Serif" font-size="10.00">/pwrctrl/dcdt/pwrctrl</text>
<text text-anchor="middle" x="373.62" y="-130.5" font-family="Helvetica,sans-Serif" font-size="10.00">_dcdt.h</text>
</a>
</g>
</g>
<!-- Node2 -->
<g id="Node000002" class="node">
<title>Node2</title>
<g id="a_Node000002"><a xlink:title=" ">
<polygon fill="#e0e0e0" stroke="#999999" points="45.25,-82 0,-82 0,-62 45.25,-62 45.25,-82"/>
<text text-anchor="middle" x="22.62" y="-68.5" font-family="Helvetica,sans-Serif" font-size="10.00">stdio.h</text>
</a>
</g>
</g>
<!-- Node1&#45;&gt;Node2 -->
<g id="edge1_Node000001_Node000002" class="edge">
<title>Node1&#45;&gt;Node2</title>
<g id="a_edge1_Node000001_Node000002"><a xlink:title=" ">
<path fill="none" stroke="#63b8ff" d="M310.79,-137.47C246.77,-128.89 145.03,-112.78 59.62,-88 57.84,-87.48 56.02,-86.91 54.2,-86.3"/>
<polygon fill="#63b8ff" stroke="#63b8ff" points="55.48,-82.67 44.88,-82.49 53.05,-89.23 55.48,-82.67"/>
</a>
</g>
</g>
<!-- Node3 -->
<g id="Node000003" class="node">
<title>Node3</title>
<g id="a_Node000003"><a xlink:title=" ">
<polygon fill="#e0e0e0" stroke="#999999" points="128,-20 93.25,-20 93.25,0 128,0 128,-20"/>
<text text-anchor="middle" x="110.62" y="-6.5" font-family="Helvetica,sans-Serif" font-size="10.00">xc.h</text>
</a>
</g>
</g>
<!-- Node1&#45;&gt;Node3 -->
<g id="edge2_Node000001_Node000003" class="edge">
<title>Node1&#45;&gt;Node3</title>
<g id="a_edge2_Node000001_Node000003"><a xlink:title=" ">
<path fill="none" stroke="#63b8ff" d="M310.82,-141.27C236.57,-135.4 119.64,-121.05 92.62,-88 79.04,-71.39 88.76,-46.35 98.39,-29.37"/>
<polygon fill="#63b8ff" stroke="#63b8ff" points="101.62,-31.79 103.87,-21.43 95.66,-28.13 101.62,-31.79"/>
</a>
</g>
</g>
<!-- Node4 -->
<g id="Node000004" class="node">
<title>Node4</title>
<g id="a_Node000004"><a xlink:title=" ">
<polygon fill="#e0e0e0" stroke="#999999" points="198.75,-20 150.5,-20 150.5,0 198.75,0 198.75,-20"/>
<text text-anchor="middle" x="174.62" y="-6.5" font-family="Helvetica,sans-Serif" font-size="10.00">stdint.h</text>
</a>
</g>
</g>
<!-- Node1&#45;&gt;Node4 -->
<g id="edge3_Node000001_Node000004" class="edge">
<title>Node1&#45;&gt;Node4</title>
<g id="a_edge3_Node000001_Node000004"><a xlink:title=" ">
<path fill="none" stroke="#63b8ff" d="M310.87,-128.5C284.31,-119.46 254.15,-106.29 230.62,-88 210.31,-72.21 193.99,-47.15 184.32,-29.93"/>
<polygon fill="#63b8ff" stroke="#63b8ff" points="187,-28.53 179.19,-21.38 180.84,-31.84 187,-28.53"/>
</a>
</g>
</g>
<!-- Node5 -->
<g id="Node000005" class="node">
<title>Node5</title>
<g id="a_Node000005"><a xlink:href="a00452.html" target="_top" xlink:title="Contains the DCDT generated functions and data types.">
<polygon fill="white" stroke="#666666" points="184,-82 101.25,-82 101.25,-62 184,-62 184,-82"/>
<text text-anchor="middle" x="142.62" y="-68.5" font-family="Helvetica,sans-Serif" font-size="10.00">smps_control.h</text>
</a>
</g>
</g>
<!-- Node1&#45;&gt;Node5 -->
<g id="edge4_Node000001_Node000005" class="edge">
<title>Node1&#45;&gt;Node5</title>
<g id="a_edge4_Node000001_Node000005"><a xlink:title=" ">
<path fill="none" stroke="#63b8ff" d="M310.81,-125.42C270.25,-112.78 218.66,-96.7 183.38,-85.7"/>
<polygon fill="#63b8ff" stroke="#63b8ff" points="184.57,-82.1 173.98,-82.46 182.49,-88.78 184.57,-82.1"/>
</a>
</g>
</g>
<!-- Node6 -->
<g id="Node000006" class="node">
<title>Node6</title>
<g id="a_Node000006"><a xlink:href="a00053.html" target="_top" xlink:title="Generated by the Microchip Digital Compensator Design Tool (DCDT), contains system summaries and digi...">
<polygon fill="white" stroke="#666666" points="364,-88 239.25,-88 239.25,-56 364,-56 364,-88"/>
<text text-anchor="start" x="247.25" y="-74.5" font-family="Helvetica,sans-Serif" font-size="10.00">dab_psio/dcdt_generated</text>
<text text-anchor="middle" x="301.62" y="-62.5" font-family="Helvetica,sans-Serif" font-size="10.00">_code/dab_psio_dcdt.h</text>
</a>
</g>
</g>
<!-- Node1&#45;&gt;Node6 -->
<g id="edge7_Node000001_Node000006" class="edge">
<title>Node1&#45;&gt;Node6</title>
<g id="a_edge7_Node000001_Node000006"><a xlink:title=" ">
<path fill="none" stroke="#63b8ff" d="M352.41,-123.79C343.56,-114.93 333.26,-104.63 324.26,-95.63"/>
<polygon fill="#63b8ff" stroke="#63b8ff" points="327.3,-93.72 317.75,-89.13 322.35,-98.67 327.3,-93.72"/>
</a>
</g>
</g>
<!-- Node7 -->
<g id="Node000007" class="node">
<title>Node7</title>
<g id="a_Node000007"><a xlink:href="a00062.html" target="_top" xlink:title="Generated by the Microchip Digital Compensator Design Tool (DCDT), contains system summaries and digi...">
<polygon fill="white" stroke="#666666" points="509.5,-88 381.75,-88 381.75,-56 509.5,-56 509.5,-88"/>
<text text-anchor="start" x="389.75" y="-74.5" font-family="Helvetica,sans-Serif" font-size="10.00">dab_pspo/dcdt_generated</text>
<text text-anchor="middle" x="445.62" y="-62.5" font-family="Helvetica,sans-Serif" font-size="10.00">_code/dab_pspo_dcdt.h</text>
</a>
</g>
</g>
<!-- Node1&#45;&gt;Node7 -->
<g id="edge8_Node000001_Node000007" class="edge">
<title>Node1&#45;&gt;Node7</title>
<g id="a_edge8_Node000001_Node000007"><a xlink:title=" ">
<path fill="none" stroke="#63b8ff" d="M394.84,-123.79C403.69,-114.93 413.99,-104.63 422.99,-95.63"/>
<polygon fill="#63b8ff" stroke="#63b8ff" points="424.9,-98.67 429.5,-89.13 419.95,-93.72 424.9,-98.67"/>
</a>
</g>
</g>
<!-- Node8 -->
<g id="Node000008" class="node">
<title>Node8</title>
<g id="a_Node000008"><a xlink:href="a00065_source.html" target="_top" xlink:title=" ">
<polygon fill="white" stroke="#666666" points="653.75,-88 527.5,-88 527.5,-56 653.75,-56 653.75,-88"/>
<text text-anchor="start" x="535.5" y="-74.5" font-family="Helvetica,sans-Serif" font-size="10.00">dab_psvo/dcdt_generated</text>
<text text-anchor="middle" x="590.62" y="-62.5" font-family="Helvetica,sans-Serif" font-size="10.00">_code/dab_psvo_dcdt.h</text>
</a>
</g>
</g>
<!-- Node1&#45;&gt;Node8 -->
<g id="edge9_Node000001_Node000008" class="edge">
<title>Node1&#45;&gt;Node8</title>
<g id="a_edge9_Node000001_Node000008"><a xlink:title=" ">
<path fill="none" stroke="#63b8ff" d="M436.39,-124.17C467.18,-113.96 503.99,-101.75 533.92,-91.81"/>
<polygon fill="#63b8ff" stroke="#63b8ff" points="534.82,-94.87 543.2,-88.4 532.61,-88.23 534.82,-94.87"/>
</a>
</g>
</g>
<!-- Node9 -->
<g id="Node000009" class="node">
<title>Node9</title>
<g id="a_Node000009"><a xlink:href="a00068_source.html" target="_top" xlink:title=" ">
<polygon fill="white" stroke="#666666" points="797,-88 672.25,-88 672.25,-56 797,-56 797,-88"/>
<text text-anchor="start" x="680.25" y="-74.5" font-family="Helvetica,sans-Serif" font-size="10.00">dab_spio/dcdt_generated</text>
<text text-anchor="middle" x="734.62" y="-62.5" font-family="Helvetica,sans-Serif" font-size="10.00">_code/dab_spio_dcdt.h</text>
</a>
</g>
</g>
<!-- Node1&#45;&gt;Node9 -->
<g id="edge10_Node000001_Node000009" class="edge">
<title>Node1&#45;&gt;Node9</title>
<g id="a_edge10_Node000001_Node000009"><a xlink:title=" ">
<path fill="none" stroke="#63b8ff" d="M436.24,-132.85C492.4,-121.91 577.37,-105.24 661.07,-88.3"/>
<polygon fill="#63b8ff" stroke="#63b8ff" points="661.7,-91.54 670.8,-86.13 660.31,-84.68 661.7,-91.54"/>
</a>
</g>
</g>
<!-- Node10 -->
<g id="Node000010" class="node">
<title>Node10</title>
<g id="a_Node000010"><a xlink:href="a00071_source.html" target="_top" xlink:title=" ">
<polygon fill="white" stroke="#666666" points="942.5,-88 814.75,-88 814.75,-56 942.5,-56 942.5,-88"/>
<text text-anchor="start" x="822.75" y="-74.5" font-family="Helvetica,sans-Serif" font-size="10.00">dab_sppo/dcdt_generated</text>
<text text-anchor="middle" x="878.62" y="-62.5" font-family="Helvetica,sans-Serif" font-size="10.00">_code/dab_sppo_dcdt.h</text>
</a>
</g>
</g>
<!-- Node1&#45;&gt;Node10 -->
<g id="edge11_Node000001_Node000010" class="edge">
<title>Node1&#45;&gt;Node10</title>
<g id="a_edge11_Node000001_Node000010"><a xlink:title=" ">
<path fill="none" stroke="#63b8ff" d="M436.43,-138.14C518.56,-128.85 667.11,-110.97 803.91,-88.22"/>
<polygon fill="#63b8ff" stroke="#63b8ff" points="804.3,-91.53 813.58,-86.43 803.14,-84.63 804.3,-91.53"/>
</a>
</g>
</g>
<!-- Node11 -->
<g id="Node000011" class="node">
<title>Node11</title>
<g id="a_Node000011"><a xlink:href="a00074.html" target="_top" xlink:title="Generated by the Microchip Digital Compensator Design Tool (DCDT), contains system summaries and digi...">
<polygon fill="white" stroke="#666666" points="1086.75,-88 960.5,-88 960.5,-56 1086.75,-56 1086.75,-88"/>
<text text-anchor="start" x="968.5" y="-74.5" font-family="Helvetica,sans-Serif" font-size="10.00">dab_spvo/dcdt_generated</text>
<text text-anchor="middle" x="1023.62" y="-62.5" font-family="Helvetica,sans-Serif" font-size="10.00">_code/dab_spvo_dcdt.h</text>
</a>
</g>
</g>
<!-- Node1&#45;&gt;Node11 -->
<g id="edge12_Node000001_Node000011" class="edge">
<title>Node1&#45;&gt;Node11</title>
<g id="a_edge12_Node000001_Node000011"><a xlink:title=" ">
<path fill="none" stroke="#63b8ff" d="M436.34,-141.03C540.76,-133.92 757.02,-117.16 949.21,-88.27"/>
<polygon fill="#63b8ff" stroke="#63b8ff" points="949.73,-91.58 959.09,-86.62 948.68,-84.66 949.73,-91.58"/>
</a>
</g>
</g>
<!-- Node5&#45;&gt;Node3 -->
<g id="edge5_Node000005_Node000003" class="edge">
<title>Node5&#45;&gt;Node3</title>
<g id="a_edge5_Node000005_Node000003"><a xlink:title=" ">
<path fill="none" stroke="#63b8ff" d="M137.62,-61.62C133.09,-53.12 126.27,-40.33 120.62,-29.74"/>
<polygon fill="#63b8ff" stroke="#63b8ff" points="123.28,-28.29 115.49,-21.11 117.1,-31.58 123.28,-28.29"/>
</a>
</g>
</g>
<!-- Node5&#45;&gt;Node4 -->
<g id="edge6_Node000005_Node000004" class="edge">
<title>Node5&#45;&gt;Node4</title>
<g id="a_edge6_Node000005_Node000004"><a xlink:title=" ">
<path fill="none" stroke="#63b8ff" d="M147.62,-61.62C152.16,-53.12 158.98,-40.33 164.63,-29.74"/>
<polygon fill="#63b8ff" stroke="#63b8ff" points="168.15,-31.58 169.76,-21.11 161.97,-28.29 168.15,-31.58"/>
</a>
</g>
</g>
</g>
</svg>
