<?xml version="1.0" encoding="UTF-8" standalone="no"?>
<!DOCTYPE svg PUBLIC "-//W3C//DTD SVG 1.1//EN"
 "http://www.w3.org/Graphics/SVG/1.1/DTD/svg11.dtd">
<!-- Generated by graphviz version 8.1.0 (20230707.0739)
 -->
<!-- Title: dab&#45;pwm&#45;configuration.X/sources/driver/mcc_extension/drv_mcc_extension_pwm.h Pages: 1 -->
<svg width="322pt" height="212pt"
 viewBox="0.00 0.00 322.00 212.00" xmlns="http://www.w3.org/2000/svg" xmlns:xlink="http://www.w3.org/1999/xlink">
<g id="graph0" class="graph" transform="scale(1 1) rotate(0) translate(4 208)">
<title>dab&#45;pwm&#45;configuration.X/sources/driver/mcc_extension/drv_mcc_extension_pwm.h</title>
<!-- Node1 -->
<g id="Node000001" class="node">
<title>Node1</title>
<g id="a_Node000001"><a xlink:title="Contains public functions and defines for the MCC code extension for PWM.">
<polygon fill="#999999" stroke="#666666" points="231,-204 83,-204 83,-160 231,-160 231,-204"/>
<text text-anchor="start" x="91" y="-190.5" font-family="Helvetica,sans-Serif" font-size="10.00">dab&#45;pwm&#45;configuration.X</text>
<text text-anchor="start" x="91" y="-178.5" font-family="Helvetica,sans-Serif" font-size="10.00">/sources/driver/mcc_extension</text>
<text text-anchor="middle" x="157" y="-166.5" font-family="Helvetica,sans-Serif" font-size="10.00">/drv_mcc_extension_pwm.h</text>
</a>
</g>
</g>
<!-- Node2 -->
<g id="Node000002" class="node">
<title>Node2</title>
<g id="a_Node000002"><a xlink:href="a00401.html" target="_top" xlink:title="Contains PWM initialization that was not supported by MCC generated code.">
<polygon fill="white" stroke="#666666" points="148,-124 0,-124 0,-80 148,-80 148,-124"/>
<text text-anchor="start" x="8" y="-110.5" font-family="Helvetica,sans-Serif" font-size="10.00">dab&#45;pwm&#45;configuration.X</text>
<text text-anchor="start" x="8" y="-98.5" font-family="Helvetica,sans-Serif" font-size="10.00">/sources/driver/mcc_extension</text>
<text text-anchor="middle" x="74" y="-86.5" font-family="Helvetica,sans-Serif" font-size="10.00">/drv_custom_config_pwm.h</text>
</a>
</g>
</g>
<!-- Node1&#45;&gt;Node2 -->
<g id="edge1_Node000001_Node000002" class="edge">
<title>Node1&#45;&gt;Node2</title>
<g id="a_edge1_Node000001_Node000002"><a xlink:title=" ">
<path fill="none" stroke="#63b8ff" d="M126.32,-152.17C116.5,-142.94 105.8,-132.88 96.65,-124.29"/>
<polygon fill="#63b8ff" stroke="#63b8ff" points="123.64,-154.39 133.32,-158.69 128.43,-149.29 123.64,-154.39"/>
</a>
</g>
</g>
<!-- Node4 -->
<g id="Node000004" class="node">
<title>Node4</title>
<g id="a_Node000004"><a xlink:href="a00404.html" target="_top" xlink:title="Contain the peripheral header files with MCC extension code.">
<polygon fill="white" stroke="#666666" points="314,-124 166,-124 166,-80 314,-80 314,-124"/>
<text text-anchor="start" x="174" y="-110.5" font-family="Helvetica,sans-Serif" font-size="10.00">dab&#45;pwm&#45;configuration.X</text>
<text text-anchor="start" x="174" y="-98.5" font-family="Helvetica,sans-Serif" font-size="10.00">/sources/driver/mcc_extension</text>
<text text-anchor="middle" x="240" y="-86.5" font-family="Helvetica,sans-Serif" font-size="10.00">/drv_mcc_extension.h</text>
</a>
</g>
</g>
<!-- Node1&#45;&gt;Node4 -->
<g id="edge3_Node000001_Node000004" class="edge">
<title>Node1&#45;&gt;Node4</title>
<g id="a_edge3_Node000001_Node000004"><a xlink:title=" ">
<path fill="none" stroke="#63b8ff" d="M187.68,-152.17C197.5,-142.94 208.2,-132.88 217.35,-124.29"/>
<polygon fill="#63b8ff" stroke="#63b8ff" points="185.57,-149.29 180.68,-158.69 190.36,-154.39 185.57,-149.29"/>
</a>
</g>
</g>
<!-- Node3 -->
<g id="Node000003" class="node">
<title>Node3</title>
<g id="a_Node000003"><a xlink:href="a00413_source.html" target="_top" xlink:title=" ">
<polygon fill="white" stroke="#666666" points="231,-44 83,-44 83,0 231,0 231,-44"/>
<text text-anchor="start" x="91" y="-30.5" font-family="Helvetica,sans-Serif" font-size="10.00">dab&#45;pwm&#45;configuration.X</text>
<text text-anchor="start" x="91" y="-18.5" font-family="Helvetica,sans-Serif" font-size="10.00">/sources/driver/mcc_extension</text>
<text text-anchor="middle" x="157" y="-6.5" font-family="Helvetica,sans-Serif" font-size="10.00">/mcc_custom_config.c</text>
</a>
</g>
</g>
<!-- Node2&#45;&gt;Node3 -->
<g id="edge2_Node000002_Node000003" class="edge">
<title>Node2&#45;&gt;Node3</title>
<g id="a_edge2_Node000002_Node000003"><a xlink:title=" ">
<path fill="none" stroke="#63b8ff" d="M104.68,-72.17C114.5,-62.94 125.2,-52.88 134.35,-44.29"/>
<polygon fill="#63b8ff" stroke="#63b8ff" points="102.57,-69.29 97.68,-78.69 107.36,-74.39 102.57,-69.29"/>
</a>
</g>
</g>
<!-- Node4&#45;&gt;Node3 -->
<g id="edge4_Node000004_Node000003" class="edge">
<title>Node4&#45;&gt;Node3</title>
<g id="a_edge4_Node000004_Node000003"><a xlink:title=" ">
<path fill="none" stroke="#63b8ff" d="M209.32,-72.17C199.5,-62.94 188.8,-52.88 179.65,-44.29"/>
<polygon fill="#63b8ff" stroke="#63b8ff" points="206.64,-74.39 216.32,-78.69 211.43,-69.29 206.64,-74.39"/>
</a>
</g>
</g>
</g>
</svg>
