<?xml version="1.0" encoding="UTF-8" standalone="no"?>
<!DOCTYPE svg PUBLIC "-//W3C//DTD SVG 1.1//EN"
 "http://www.w3.org/Graphics/SVG/1.1/DTD/svg11.dtd">
<!-- Generated by graphviz version 8.1.0 (20230707.0739)
 -->
<!-- Title: Power Control Pages: 1 -->
<svg width="376pt" height="330pt"
 viewBox="0.00 0.00 375.50 330.00" xmlns="http://www.w3.org/2000/svg" xmlns:xlink="http://www.w3.org/1999/xlink">

<svg id="main" version="1.1" xmlns="http://www.w3.org/2000/svg" xmlns:xlink="http://www.w3.org/1999/xlink" xml:space="preserve" onload="init(evt)">
<style type="text/css"><![CDATA[
.node, .edge {opacity: 0.7;}
.node.selected, .edge.selected {opacity: 1;}
.edge:hover path { stroke: red; }
.edge:hover polygon { stroke: red; fill: red; }
]]></style>
<script type="application/ecmascript" xlink:href="svg.min.js"/>
<svg id="graph" class="graph">
<g id="graph0" class="graph" transform="scale(1 1) rotate(0) translate(4 326)">
<title>Power Control</title>
<!-- Node2 -->
<g id="Node000002" class="node">
<title>Node2</title>
<g id="a_Node000002"><a xlink:href="a00486.html" target="_top" xlink:title="Contains all the application tasks that will be executed.">
<polygon fill="white" stroke="#666666" points="71.5,-162 0,-162 0,-142 71.5,-142 71.5,-162"/>
<text text-anchor="middle" x="35.75" y="-148.5" font-family="Helvetica,sans-Serif" font-size="10.00">Device Layer</text>
</a>
</g>
</g>
<!-- Node1 -->
<g id="Node000001" class="node">
<title>Node1</title>
<g id="a_Node000001"><a xlink:title="The Power Control layer contains the state machine managing the power converter.">
<polygon fill="#999999" stroke="#666666" points="184.25,-162 107.5,-162 107.5,-142 184.25,-142 184.25,-162"/>
<text text-anchor="middle" x="145.88" y="-148.5" font-family="Helvetica,sans-Serif" font-size="10.00">Power Control</text>
</a>
</g>
</g>
<!-- Node2&#45;&gt;Node1 -->
<g id="edge1" class="edge">
<title>Node2&#45;&gt;Node1</title>
<path fill="none" stroke="black" d="M82.79,-152C90.98,-152 99.42,-152 107.34,-152"/>
<polygon fill="black" stroke="black" points="82.86,-148.5 72.86,-152 82.86,-155.5 82.86,-148.5"/>
</g>
<!-- Node3 -->
<g id="Node000003" class="node">
<title>Node3</title>
<g id="a_Node000003"><a xlink:href="a00488.html" target="_top" xlink:title="Contains Power Control Configuration.">
<polygon fill="white" stroke="#666666" points="361.88,-322 225.88,-322 225.88,-302 361.88,-302 361.88,-322"/>
<text text-anchor="middle" x="293.88" y="-308.5" font-family="Helvetica,sans-Serif" font-size="10.00">Power Control Configuration</text>
</a>
</g>
</g>
<!-- Node1&#45;&gt;Node3 -->
<g id="edge2" class="edge">
<title>Node1&#45;&gt;Node3</title>
<path fill="none" stroke="black" d="M151.91,-172.8C160.52,-203.77 181.04,-261.72 220.25,-293 224.53,-296.41 229.36,-299.22 234.44,-301.52"/>
<polygon fill="black" stroke="black" points="155.1,-172.15 149.19,-163.36 148.33,-173.92 155.1,-172.15"/>
</g>
<!-- Node8 -->
<g id="Node000008" class="node">
<title>Node8</title>
<g id="a_Node000008"><a xlink:href="a00493.html" target="_top" xlink:title="Contains functions use to interface to Graphical User Interface or Power Board Visualizer.">
<polygon fill="white" stroke="#666666" points="367.5,-284 220.25,-284 220.25,-252 367.5,-252 367.5,-284"/>
<text text-anchor="start" x="228.25" y="-270.5" font-family="Helvetica,sans-Serif" font-size="10.00">Power Control Communication</text>
<text text-anchor="middle" x="293.88" y="-258.5" font-family="Helvetica,sans-Serif" font-size="10.00"> Interface</text>
</a>
</g>
</g>
<!-- Node1&#45;&gt;Node8 -->
<g id="edge7" class="edge">
<title>Node1&#45;&gt;Node8</title>
<path fill="none" stroke="black" d="M158.08,-171.63C170.72,-192.15 193.11,-223.95 220.25,-243 224.83,-246.22 229.87,-249.05 235.08,-251.54"/>
<polygon fill="black" stroke="black" points="160.65,-170.11 152.53,-163.31 154.64,-173.7 160.65,-170.11"/>
</g>
<!-- Node10 -->
<g id="Node000010" class="node">
<title>Node10</title>
<g id="a_Node000010"><a xlink:href="a00495.html" target="_top" xlink:title="Contains the collection of power control data types.">
<polygon fill="white" stroke="#666666" points="343.88,-234 243.88,-234 243.88,-202 343.88,-202 343.88,-234"/>
<text text-anchor="start" x="251.88" y="-220.5" font-family="Helvetica,sans-Serif" font-size="10.00">Power Control Data</text>
<text text-anchor="middle" x="293.88" y="-208.5" font-family="Helvetica,sans-Serif" font-size="10.00"> Types</text>
</a>
</g>
</g>
<!-- Node1&#45;&gt;Node10 -->
<g id="edge9" class="edge">
<title>Node1&#45;&gt;Node10</title>
<path fill="none" stroke="black" d="M172.95,-168.06C186.71,-176.16 204.06,-185.76 220.25,-193 227.68,-196.32 235.69,-199.48 243.58,-202.36"/>
<polygon fill="black" stroke="black" points="175.01,-164.62 164.63,-162.49 171.42,-170.63 175.01,-164.62"/>
</g>
<!-- Node7 -->
<g id="Node000007" class="node">
<title>Node7</title>
<g id="a_Node000007"><a xlink:href="a00492.html" target="_top" xlink:title="Contains the control loop configuration and initialization functions.">
<polygon fill="white" stroke="#666666" points="358.88,-184 228.88,-184 228.88,-164 358.88,-164 358.88,-184"/>
<text text-anchor="middle" x="293.88" y="-170.5" font-family="Helvetica,sans-Serif" font-size="10.00">Control Loop Configuration</text>
</a>
</g>
</g>
<!-- Node1&#45;&gt;Node7 -->
<g id="edge6" class="edge">
<title>Node1&#45;&gt;Node7</title>
<path fill="none" stroke="black" d="M195.24,-159.29C205.89,-160.89 217.33,-162.62 228.5,-164.3"/>
<polygon fill="black" stroke="black" points="195.88,-155.69 185.47,-157.67 194.84,-162.62 195.88,-155.69"/>
</g>
<!-- Node4 -->
<g id="Node000004" class="node">
<title>Node4</title>
<g id="a_Node000004"><a xlink:href="a00489.html" target="_top" xlink:title="Contains the interrupt routine and other functions called in the interrupt.">
<polygon fill="white" stroke="#666666" points="337.5,-146 250.25,-146 250.25,-114 337.5,-114 337.5,-146"/>
<text text-anchor="start" x="258.25" y="-132.5" font-family="Helvetica,sans-Serif" font-size="10.00">Interrupt Routine</text>
<text text-anchor="middle" x="293.88" y="-120.5" font-family="Helvetica,sans-Serif" font-size="10.00"> and Functions</text>
</a>
</g>
</g>
<!-- Node1&#45;&gt;Node4 -->
<g id="edge3" class="edge">
<title>Node1&#45;&gt;Node4</title>
<path fill="none" stroke="black" d="M195.17,-144.72C212.88,-142.05 232.78,-139.06 249.98,-136.46"/>
<polygon fill="black" stroke="black" points="194.84,-141.38 185.47,-146.33 195.88,-148.31 194.84,-141.38"/>
</g>
<!-- Node5 -->
<g id="Node000005" class="node">
<title>Node5</title>
<g id="a_Node000005"><a xlink:href="a00490.html" target="_top" xlink:title="Contains functions related to PWM properties.">
<polygon fill="white" stroke="#666666" points="343.88,-96 243.88,-96 243.88,-76 343.88,-76 343.88,-96"/>
<text text-anchor="middle" x="293.88" y="-82.5" font-family="Helvetica,sans-Serif" font-size="10.00">PWM Configuration</text>
</a>
</g>
</g>
<!-- Node1&#45;&gt;Node5 -->
<g id="edge4" class="edge">
<title>Node1&#45;&gt;Node5</title>
<path fill="none" stroke="black" d="M169.09,-135.15C183.13,-125.19 202.01,-112.99 220.25,-105 227.77,-101.71 235.99,-98.88 244.1,-96.5"/>
<polygon fill="black" stroke="black" points="167.23,-132.9 161.21,-141.62 171.35,-138.56 167.23,-132.9"/>
</g>
<!-- Node6 -->
<g id="Node000006" class="node">
<title>Node6</title>
<g id="a_Node000006"><a xlink:href="a00491.html" target="_top" xlink:title="Contains the state machine of the power control.">
<polygon fill="white" stroke="#666666" points="333.38,-58 254.38,-58 254.38,-38 333.38,-38 333.38,-58"/>
<text text-anchor="middle" x="293.88" y="-44.5" font-family="Helvetica,sans-Serif" font-size="10.00">State Machine</text>
</a>
</g>
</g>
<!-- Node1&#45;&gt;Node6 -->
<g id="edge5" class="edge">
<title>Node1&#45;&gt;Node6</title>
<path fill="none" stroke="black" d="M158.7,-132.41C171.47,-112.92 193.62,-83.59 220.25,-67 230.43,-60.66 242.67,-56.42 254.18,-53.59"/>
<polygon fill="black" stroke="black" points="155.28,-130.26 152.9,-140.59 161.2,-134 155.28,-130.26"/>
</g>
<!-- Node9 -->
<g id="Node000009" class="node">
<title>Node9</title>
<g id="a_Node000009"><a xlink:href="a00494.html" target="_top" xlink:title="Contains generic functions that is usable to the application.">
<polygon fill="white" stroke="#666666" points="338.25,-20 249.5,-20 249.5,0 338.25,0 338.25,-20"/>
<text text-anchor="middle" x="293.88" y="-6.5" font-family="Helvetica,sans-Serif" font-size="10.00">Useful Functions</text>
</a>
</g>
</g>
<!-- Node1&#45;&gt;Node9 -->
<g id="edge8" class="edge">
<title>Node1&#45;&gt;Node9</title>
<path fill="none" stroke="black" d="M153.53,-131.48C163.54,-103.93 185.13,-55.39 220.25,-29 228.69,-22.66 239.06,-18.43 249.29,-15.61"/>
<polygon fill="black" stroke="black" points="150.01,-129.97 150.05,-140.56 156.62,-132.26 150.01,-129.97"/>
</g>
</g>
</svg>
</svg>

<style type='text/css'>
<![CDATA[
[data-mouse-over-selected='false'] { opacity: 0.7; }
[data-mouse-over-selected='true']  { opacity: 1.0; }
]]>
</style>
<script type="application/ecmascript"><![CDATA[
document.addEventListener('DOMContentLoaded', (event) => {
  highlightEdges();
  highlightAdjacentNodes();
});
]]></script>
</svg>
