<?xml version="1.0" encoding="UTF-8" standalone="no"?>
<!DOCTYPE svg PUBLIC "-//W3C//DTD SVG 1.1//EN"
 "http://www.w3.org/Graphics/SVG/1.1/DTD/svg11.dtd">
<!-- Generated by graphviz version 8.1.0 (20230707.0739)
 -->
<!-- Title: dspic33ck&#45;dab.X/sources/pwrctrl/pwrctrl_isr.c Pages: 1 -->
<svg width="1188pt" height="388pt"
 viewBox="0.00 0.00 1188.44 388.00" xmlns="http://www.w3.org/2000/svg" xmlns:xlink="http://www.w3.org/1999/xlink">
<g id="graph0" class="graph" transform="scale(1 1) rotate(0) translate(4 384)">
<title>dspic33ck&#45;dab.X/sources/pwrctrl/pwrctrl_isr.c</title>
<!-- Node1 -->
<g id="Node000001" class="node">
<title>Node1</title>
<g id="a_Node000001"><a xlink:title="Contains Control loop interrupt Callback that acquires the ADC raw data and process it in the control...">
<polygon fill="#999999" stroke="#666666" points="576,-380 451.25,-380 451.25,-348 576,-348 576,-380"/>
<text text-anchor="start" x="459.25" y="-366.5" font-family="Helvetica,sans-Serif" font-size="10.00">dspic33ck&#45;dab.X/sources</text>
<text text-anchor="middle" x="513.62" y="-354.5" font-family="Helvetica,sans-Serif" font-size="10.00">/pwrctrl/pwrctrl_isr.c</text>
</a>
</g>
</g>
<!-- Node2 -->
<g id="Node000002" class="node">
<title>Node2</title>
<g id="a_Node000002"><a xlink:title=" ">
<polygon fill="#e0e0e0" stroke="#999999" points="524,-88 489.25,-88 489.25,-68 524,-68 524,-88"/>
<text text-anchor="middle" x="506.62" y="-74.5" font-family="Helvetica,sans-Serif" font-size="10.00">xc.h</text>
</a>
</g>
</g>
<!-- Node1&#45;&gt;Node2 -->
<g id="edge1_Node000001_Node000002" class="edge">
<title>Node1&#45;&gt;Node2</title>
<g id="a_edge1_Node000001_Node000002"><a xlink:title=" ">
<path fill="none" stroke="#63b8ff" d="M553.24,-347.64C601.07,-326.54 672.14,-285.53 646.62,-236 614.38,-173.4 555,-203.68 517.62,-144 509.17,-130.5 506.66,-112.46 506.12,-98.81"/>
<polygon fill="#63b8ff" stroke="#63b8ff" points="509.62,-99.15 506.07,-89.17 502.62,-99.19 509.62,-99.15"/>
</a>
</g>
</g>
<!-- Node3 -->
<g id="Node000003" class="node">
<title>Node3</title>
<g id="a_Node000003"><a xlink:title=" ">
<polygon fill="#e0e0e0" stroke="#999999" points="447.62,-144 401.62,-144 401.62,-124 447.62,-124 447.62,-144"/>
<text text-anchor="middle" x="424.62" y="-130.5" font-family="Helvetica,sans-Serif" font-size="10.00">math.h</text>
</a>
</g>
</g>
<!-- Node1&#45;&gt;Node3 -->
<g id="edge2_Node000001_Node000003" class="edge">
<title>Node1&#45;&gt;Node3</title>
<g id="a_edge2_Node000001_Node000003"><a xlink:title=" ">
<path fill="none" stroke="#63b8ff" d="M450.97,-354.78C352.22,-340.4 167.56,-307.23 128.62,-256 94.11,-210.58 305.79,-160.1 390.61,-141.96"/>
<polygon fill="#63b8ff" stroke="#63b8ff" points="391.18,-145.21 400.24,-139.72 389.73,-138.36 391.18,-145.21"/>
</a>
</g>
</g>
<!-- Node4 -->
<g id="Node000004" class="node">
<title>Node4</title>
<g id="a_Node000004"><a xlink:title=" ">
<polygon fill="#e0e0e0" stroke="#999999" points="782.5,-26 726.75,-26 726.75,-6 782.5,-6 782.5,-26"/>
<text text-anchor="middle" x="754.62" y="-12.5" font-family="Helvetica,sans-Serif" font-size="10.00">stdbool.h</text>
</a>
</g>
</g>
<!-- Node1&#45;&gt;Node4 -->
<g id="edge3_Node000001_Node000004" class="edge">
<title>Node1&#45;&gt;Node4</title>
<g id="a_edge3_Node000001_Node000004"><a xlink:title=" ">
<path fill="none" stroke="#63b8ff" d="M576.44,-358.34C739.32,-345.42 1162.62,-306.16 1162.62,-247 1162.62,-247 1162.62,-247 1162.62,-133 1162.62,-87.87 1125.75,-86.57 1084.62,-68 1058.48,-56.2 875.48,-32.16 793.81,-21.86"/>
<polygon fill="#63b8ff" stroke="#63b8ff" points="794.35,-18.27 783.99,-20.5 793.48,-25.22 794.35,-18.27"/>
</a>
</g>
</g>
<!-- Node5 -->
<g id="Node000005" class="node">
<title>Node5</title>
<g id="a_Node000005"><a xlink:title=" ">
<polygon fill="#e0e0e0" stroke="#999999" points="402.38,-312 354.88,-312 354.88,-292 402.38,-292 402.38,-312"/>
<text text-anchor="middle" x="378.62" y="-298.5" font-family="Helvetica,sans-Serif" font-size="10.00">stdlib.h</text>
</a>
</g>
</g>
<!-- Node1&#45;&gt;Node5 -->
<g id="edge4_Node000001_Node000005" class="edge">
<title>Node1&#45;&gt;Node5</title>
<g id="a_edge4_Node000001_Node000005"><a xlink:title=" ">
<path fill="none" stroke="#63b8ff" d="M478.86,-347.55C457.47,-338.04 430.3,-325.97 409.65,-316.79"/>
<polygon fill="#63b8ff" stroke="#63b8ff" points="411.35,-313.27 400.79,-312.41 408.51,-319.67 411.35,-313.27"/>
</a>
</g>
</g>
<!-- Node6 -->
<g id="Node000006" class="node">
<title>Node6</title>
<g id="a_Node000006"><a xlink:href="a00245.html" target="_top" xlink:title="This is the generated driver header file for the SCCP1&#45;TIMER driver.">
<polygon fill="white" stroke="#666666" points="227.25,-144 152,-144 152,-124 227.25,-124 227.25,-144"/>
<text text-anchor="middle" x="189.62" y="-130.5" font-family="Helvetica,sans-Serif" font-size="10.00">timer/sccp1.h</text>
</a>
</g>
</g>
<!-- Node1&#45;&gt;Node6 -->
<g id="edge5_Node000001_Node000006" class="edge">
<title>Node1&#45;&gt;Node6</title>
<g id="a_edge5_Node000001_Node000006"><a xlink:title=" ">
<path fill="none" stroke="#63b8ff" d="M450.85,-357.8C368.2,-350.19 227.93,-334.46 181.62,-312 142.91,-293.22 109.06,-277.16 121.62,-236 131.69,-203.01 156.55,-171.05 173.25,-152.2"/>
<polygon fill="#63b8ff" stroke="#63b8ff" points="175.33,-155.03 179.49,-145.28 170.16,-150.31 175.33,-155.03"/>
</a>
</g>
</g>
<!-- Node11 -->
<g id="Node000011" class="node">
<title>Node11</title>
<g id="a_Node000011"><a xlink:href="a00086.html" target="_top" xlink:title="This is the generated driver header file for the ADC1 driver.">
<polygon fill="white" stroke="#666666" points="116.62,-144 52.62,-144 52.62,-124 116.62,-124 116.62,-144"/>
<text text-anchor="middle" x="84.62" y="-130.5" font-family="Helvetica,sans-Serif" font-size="10.00">adc/adc1.h</text>
</a>
</g>
</g>
<!-- Node1&#45;&gt;Node11 -->
<g id="edge14_Node000001_Node000011" class="edge">
<title>Node1&#45;&gt;Node11</title>
<g id="a_edge14_Node000001_Node000011"><a xlink:title=" ">
<path fill="none" stroke="#63b8ff" d="M451.07,-361.54C358.15,-358.21 189.47,-347.34 141.62,-312 91.48,-274.96 84.55,-193.09 84.18,-155.1"/>
<polygon fill="#63b8ff" stroke="#63b8ff" points="87.68,-155.43 84.24,-145.41 80.68,-155.39 87.68,-155.43"/>
</a>
</g>
</g>
<!-- Node14 -->
<g id="Node000014" class="node">
<title>Node14</title>
<g id="a_Node000014"><a xlink:href="a00197_source.html" target="_top" xlink:title=" ">
<polygon fill="white" stroke="#666666" points="509.38,-200 431.88,-200 431.88,-180 509.38,-180 509.38,-200"/>
<text text-anchor="middle" x="470.62" y="-186.5" font-family="Helvetica,sans-Serif" font-size="10.00">system/pins.h</text>
</a>
</g>
</g>
<!-- Node1&#45;&gt;Node14 -->
<g id="edge24_Node000001_Node000014" class="edge">
<title>Node1&#45;&gt;Node14</title>
<g id="a_edge24_Node000001_Node000014"><a xlink:title=" ">
<path fill="none" stroke="#63b8ff" d="M513.02,-347.76C511.68,-323.52 507.5,-274.95 494.62,-236 491.61,-226.88 486.84,-217.41 482.35,-209.52"/>
<polygon fill="#63b8ff" stroke="#63b8ff" points="484.92,-208 476.77,-201.23 478.91,-211.61 484.92,-208"/>
</a>
</g>
</g>
<!-- Node15 -->
<g id="Node000015" class="node">
<title>Node15</title>
<g id="a_Node000015"><a xlink:href="a00311_source.html" target="_top" xlink:title=" ">
<polygon fill="white" stroke="#666666" points="747.12,-200 662.12,-200 662.12,-180 747.12,-180 747.12,-200"/>
<text text-anchor="middle" x="704.62" y="-186.5" font-family="Helvetica,sans-Serif" font-size="10.00">config/macros.h</text>
</a>
</g>
</g>
<!-- Node1&#45;&gt;Node15 -->
<g id="edge26_Node000001_Node000015" class="edge">
<title>Node1&#45;&gt;Node15</title>
<g id="a_edge26_Node000001_Node000015"><a xlink:title=" ">
<path fill="none" stroke="#63b8ff" d="M576.33,-359.04C611.5,-353.49 653.45,-340.77 679.62,-312 704.92,-284.2 707.3,-237.76 706.28,-211.22"/>
<polygon fill="#63b8ff" stroke="#63b8ff" points="709.72,-211.04 705.62,-201.27 702.73,-211.46 709.72,-211.04"/>
</a>
</g>
</g>
<!-- Node17 -->
<g id="Node000017" class="node">
<title>Node17</title>
<g id="a_Node000017"><a xlink:href="a00305_source.html" target="_top" xlink:title=" ">
<polygon fill="white" stroke="#666666" points="854.5,-144 804.75,-144 804.75,-124 854.5,-124 854.5,-144"/>
<text text-anchor="middle" x="829.62" y="-130.5" font-family="Helvetica,sans-Serif" font-size="10.00">config.h</text>
</a>
</g>
</g>
<!-- Node1&#45;&gt;Node17 -->
<g id="edge40_Node000001_Node000017" class="edge">
<title>Node1&#45;&gt;Node17</title>
<g id="a_edge40_Node000001_Node000017"><a xlink:title=" ">
<path fill="none" stroke="#63b8ff" d="M576.25,-363.17C666.06,-361.93 824.6,-353.7 860.62,-312 899.97,-266.45 862.4,-189.01 841.5,-153.63"/>
<polygon fill="#63b8ff" stroke="#63b8ff" points="844.09,-152.16 835.89,-145.45 838.12,-155.81 844.09,-152.16"/>
</a>
</g>
</g>
<!-- Node19 -->
<g id="Node000019" class="node">
<title>Node19</title>
<g id="a_Node000019"><a xlink:href="a00467_source.html" target="_top" xlink:title=" ">
<polygon fill="white" stroke="#666666" points="473,-312 420.25,-312 420.25,-292 473,-292 473,-312"/>
<text text-anchor="middle" x="446.62" y="-298.5" font-family="Helvetica,sans-Serif" font-size="10.00">pwrctrl.h</text>
</a>
</g>
</g>
<!-- Node1&#45;&gt;Node19 -->
<g id="edge41_Node000001_Node000019" class="edge">
<title>Node1&#45;&gt;Node19</title>
<g id="a_edge41_Node000001_Node000019"><a xlink:title=" ">
<path fill="none" stroke="#63b8ff" d="M496.37,-347.55C486.77,-338.95 474.83,-328.26 465.05,-319.5"/>
<polygon fill="#63b8ff" stroke="#63b8ff" points="467.92,-317.47 458.13,-313.41 463.25,-322.69 467.92,-317.47"/>
</a>
</g>
</g>
<!-- Node27 -->
<g id="Node000027" class="node">
<title>Node27</title>
<g id="a_Node000027"><a xlink:href="a00383.html" target="_top" xlink:title="Contains public fault functions.">
<polygon fill="white" stroke="#666666" points="833.25,-312 770,-312 770,-292 833.25,-292 833.25,-312"/>
<text text-anchor="middle" x="801.62" y="-298.5" font-family="Helvetica,sans-Serif" font-size="10.00">fault/fault.h</text>
</a>
</g>
</g>
<!-- Node1&#45;&gt;Node27 -->
<g id="edge53_Node000001_Node000027" class="edge">
<title>Node1&#45;&gt;Node27</title>
<g id="a_edge53_Node000001_Node000027"><a xlink:title=" ">
<path fill="none" stroke="#63b8ff" d="M576.47,-349.91C631.75,-338.39 710.72,-321.94 758.94,-311.89"/>
<polygon fill="#63b8ff" stroke="#63b8ff" points="759.55,-315.13 768.63,-309.67 758.13,-308.28 759.55,-315.13"/>
</a>
</g>
</g>
<!-- Node6&#45;&gt;Node2 -->
<g id="edge8_Node000006_Node000002" class="edge">
<title>Node6&#45;&gt;Node2</title>
<g id="a_edge8_Node000006_Node000002"><a xlink:title=" ">
<path fill="none" stroke="#63b8ff" d="M227.57,-125.6C230.63,-125.04 233.68,-124.5 236.62,-124 342.51,-105.9 370.7,-111.03 475.62,-88 476.58,-87.79 477.55,-87.57 478.53,-87.33"/>
<polygon fill="#63b8ff" stroke="#63b8ff" points="479.26,-90.5 488.02,-84.55 477.46,-83.73 479.26,-90.5"/>
</a>
</g>
</g>
<!-- Node7 -->
<g id="Node000007" class="node">
<title>Node7</title>
<g id="a_Node000007"><a xlink:title=" ">
<polygon fill="#e0e0e0" stroke="#999999" points="931.88,-26 881.38,-26 881.38,-6 931.88,-6 931.88,-26"/>
<text text-anchor="middle" x="906.62" y="-12.5" font-family="Helvetica,sans-Serif" font-size="10.00">stddef.h</text>
</a>
</g>
</g>
<!-- Node6&#45;&gt;Node7 -->
<g id="edge6_Node000006_Node000007" class="edge">
<title>Node6&#45;&gt;Node7</title>
<g id="a_edge6_Node000006_Node000007"><a xlink:title=" ">
<path fill="none" stroke="#63b8ff" d="M227.58,-125.68C230.64,-125.11 233.68,-124.54 236.62,-124 327.61,-107.3 353.93,-117.44 441.62,-88 460.09,-81.8 461.98,-73.66 480.62,-68 613.78,-27.61 653.52,-49 791.62,-32 817.95,-28.76 847.64,-24.88 870.25,-21.88"/>
<polygon fill="#63b8ff" stroke="#63b8ff" points="870.61,-25.23 880.06,-20.44 869.69,-18.29 870.61,-25.23"/>
</a>
</g>
</g>
<!-- Node8 -->
<g id="Node000008" class="node">
<title>Node8</title>
<g id="a_Node000008"><a xlink:title=" ">
<polygon fill="#e0e0e0" stroke="#999999" points="309.75,-26 261.5,-26 261.5,-6 309.75,-6 309.75,-26"/>
<text text-anchor="middle" x="285.62" y="-12.5" font-family="Helvetica,sans-Serif" font-size="10.00">stdint.h</text>
</a>
</g>
</g>
<!-- Node6&#45;&gt;Node8 -->
<g id="edge7_Node000006_Node000008" class="edge">
<title>Node6&#45;&gt;Node8</title>
<g id="a_edge7_Node000006_Node000008"><a xlink:title=" ">
<path fill="none" stroke="#63b8ff" d="M194.88,-123.73C202.44,-110.7 217.21,-86.51 232.62,-68 242.97,-55.58 256.04,-42.98 266.61,-33.41"/>
<polygon fill="#63b8ff" stroke="#63b8ff" points="268.63,-36.4 273.79,-27.15 263.99,-31.17 268.63,-36.4"/>
</a>
</g>
</g>
<!-- Node9 -->
<g id="Node000009" class="node">
<title>Node9</title>
<g id="a_Node000009"><a xlink:href="a00254_source.html" target="_top" xlink:title=" ">
<polygon fill="white" stroke="#666666" points="329.62,-88 241.62,-88 241.62,-68 329.62,-68 329.62,-88"/>
<text text-anchor="middle" x="285.62" y="-74.5" font-family="Helvetica,sans-Serif" font-size="10.00">timer_interface.h</text>
</a>
</g>
</g>
<!-- Node6&#45;&gt;Node9 -->
<g id="edge9_Node000006_Node000009" class="edge">
<title>Node6&#45;&gt;Node9</title>
<g id="a_edge9_Node000006_Node000009"><a xlink:title=" ">
<path fill="none" stroke="#63b8ff" d="M206.35,-123.59C220.99,-115.36 242.5,-103.26 259.43,-93.74"/>
<polygon fill="#63b8ff" stroke="#63b8ff" points="260.77,-96.43 267.77,-88.48 257.34,-90.33 260.77,-96.43"/>
</a>
</g>
</g>
<!-- Node9&#45;&gt;Node4 -->
<g id="edge12_Node000009_Node000004" class="edge">
<title>Node9&#45;&gt;Node4</title>
<g id="a_edge12_Node000009_Node000004"><a xlink:title=" ">
<path fill="none" stroke="#63b8ff" d="M329.85,-69.33C332.82,-68.87 335.76,-68.42 338.62,-68 476.96,-47.79 641.98,-29.19 715.7,-21.16"/>
<polygon fill="#63b8ff" stroke="#63b8ff" points="715.75,-24.57 725.32,-20.01 715,-17.61 715.75,-24.57"/>
</a>
</g>
</g>
<!-- Node9&#45;&gt;Node7 -->
<g id="edge10_Node000009_Node000007" class="edge">
<title>Node9&#45;&gt;Node7</title>
<g id="a_edge10_Node000009_Node000007"><a xlink:title=" ">
<path fill="none" stroke="#63b8ff" d="M330.12,-69.15C332.99,-68.73 335.85,-68.35 338.62,-68 539.05,-43.07 590.76,-53.07 791.62,-32 818.01,-29.23 847.69,-25.34 870.29,-22.22"/>
<polygon fill="#63b8ff" stroke="#63b8ff" points="870.67,-25.56 880.09,-20.71 869.7,-18.62 870.67,-25.56"/>
</a>
</g>
</g>
<!-- Node9&#45;&gt;Node8 -->
<g id="edge11_Node000009_Node000008" class="edge">
<title>Node9&#45;&gt;Node8</title>
<g id="a_edge11_Node000009_Node000008"><a xlink:title=" ">
<path fill="none" stroke="#63b8ff" d="M285.62,-67.62C285.62,-59.48 285.62,-47.39 285.62,-37.07"/>
<polygon fill="#63b8ff" stroke="#63b8ff" points="289.13,-37.11 285.62,-27.11 282.13,-37.11 289.13,-37.11"/>
</a>
</g>
</g>
<!-- Node10 -->
<g id="Node000010" class="node">
<title>Node10</title>
<g id="a_Node000010"><a xlink:href="a00194_source.html" target="_top" xlink:title=" ">
<polygon fill="white" stroke="#666666" points="230.38,-32 134.88,-32 134.88,0 230.38,0 230.38,-32"/>
<text text-anchor="start" x="142.88" y="-18.5" font-family="Helvetica,sans-Serif" font-size="10.00">../system/interrupt</text>
<text text-anchor="middle" x="182.62" y="-6.5" font-family="Helvetica,sans-Serif" font-size="10.00">_types.h</text>
</a>
</g>
</g>
<!-- Node9&#45;&gt;Node10 -->
<g id="edge13_Node000009_Node000010" class="edge">
<title>Node9&#45;&gt;Node10</title>
<g id="a_edge13_Node000009_Node000010"><a xlink:title=" ">
<path fill="none" stroke="#63b8ff" d="M269.53,-67.62C255.88,-59.67 235.79,-47.97 218.36,-37.82"/>
<polygon fill="#63b8ff" stroke="#63b8ff" points="220.42,-34.38 210.02,-32.37 216.9,-40.43 220.42,-34.38"/>
</a>
</g>
</g>
<!-- Node11&#45;&gt;Node2 -->
<g id="edge15_Node000011_Node000002" class="edge">
<title>Node11&#45;&gt;Node2</title>
<g id="a_edge15_Node000011_Node000002"><a xlink:title=" ">
<path fill="none" stroke="#63b8ff" d="M117.11,-127.76C125.42,-126.47 134.35,-125.14 142.62,-124 275.22,-105.74 308.88,-105.18 441.62,-88 453.66,-86.44 466.93,-84.62 478.32,-83.03"/>
<polygon fill="#63b8ff" stroke="#63b8ff" points="478.57,-86.39 487.98,-81.53 477.59,-79.46 478.57,-86.39"/>
</a>
</g>
</g>
<!-- Node11&#45;&gt;Node4 -->
<g id="edge16_Node000011_Node000004" class="edge">
<title>Node11&#45;&gt;Node4</title>
<g id="a_edge16_Node000011_Node000004"><a xlink:title=" ">
<path fill="none" stroke="#63b8ff" d="M101.31,-123.57C128.07,-108.92 182.67,-81.06 232.62,-68 408.6,-22.01 627.75,-16.74 715.58,-16.64"/>
<polygon fill="#63b8ff" stroke="#63b8ff" points="715.35,-20.14 725.35,-16.66 715.36,-13.14 715.35,-20.14"/>
</a>
</g>
</g>
<!-- Node11&#45;&gt;Node8 -->
<g id="edge17_Node000011_Node000008" class="edge">
<title>Node11&#45;&gt;Node8</title>
<g id="a_edge17_Node000011_Node000008"><a xlink:title=" ">
<path fill="none" stroke="#63b8ff" d="M93.84,-123.54C107.58,-109.84 134.71,-84.34 161.62,-68 190,-50.77 225.25,-36.91 250.9,-28.01"/>
<polygon fill="#63b8ff" stroke="#63b8ff" points="251.91,-31.03 260.26,-24.51 249.67,-24.4 251.91,-31.03"/>
</a>
</g>
</g>
<!-- Node12 -->
<g id="Node000012" class="node">
<title>Node12</title>
<g id="a_Node000012"><a xlink:href="a00095.html" target="_top" xlink:title="This is the generated driver types header file for the ADC driver.">
<polygon fill="white" stroke="#666666" points="69.25,-26 0,-26 0,-6 69.25,-6 69.25,-26"/>
<text text-anchor="middle" x="34.62" y="-12.5" font-family="Helvetica,sans-Serif" font-size="10.00">adc_types.h</text>
</a>
</g>
</g>
<!-- Node11&#45;&gt;Node12 -->
<g id="edge18_Node000011_Node000012" class="edge">
<title>Node11&#45;&gt;Node12</title>
<g id="a_edge18_Node000011_Node000012"><a xlink:title=" ">
<path fill="none" stroke="#63b8ff" d="M60.52,-123.6C45.51,-116.33 27.44,-104.68 18.62,-88 9.98,-71.64 16.46,-50.76 23.59,-35.89"/>
<polygon fill="#63b8ff" stroke="#63b8ff" points="27.1,-37.75 28.69,-27.27 20.92,-34.47 27.1,-37.75"/>
</a>
</g>
</g>
<!-- Node13 -->
<g id="Node000013" class="node">
<title>Node13</title>
<g id="a_Node000013"><a xlink:href="a00092_source.html" target="_top" xlink:title=" ">
<polygon fill="white" stroke="#666666" points="109.62,-88 27.62,-88 27.62,-68 109.62,-68 109.62,-88"/>
<text text-anchor="middle" x="68.62" y="-74.5" font-family="Helvetica,sans-Serif" font-size="10.00">adc_interface.h</text>
</a>
</g>
</g>
<!-- Node11&#45;&gt;Node13 -->
<g id="edge19_Node000011_Node000013" class="edge">
<title>Node11&#45;&gt;Node13</title>
<g id="a_edge19_Node000011_Node000013"><a xlink:title=" ">
<path fill="none" stroke="#63b8ff" d="M81.84,-123.59C79.8,-116.7 76.95,-107.1 74.42,-98.57"/>
<polygon fill="#63b8ff" stroke="#63b8ff" points="77.58,-97.89 71.38,-89.3 70.87,-99.88 77.58,-97.89"/>
</a>
</g>
</g>
<!-- Node13&#45;&gt;Node4 -->
<g id="edge21_Node000013_Node000004" class="edge">
<title>Node13&#45;&gt;Node4</title>
<g id="a_edge21_Node000013_Node000004"><a xlink:title=" ">
<path fill="none" stroke="#63b8ff" d="M109.82,-72.92C125.97,-71.34 144.66,-69.55 161.62,-68 370.52,-48.91 620.99,-28.03 715.76,-20.2"/>
<polygon fill="#63b8ff" stroke="#63b8ff" points="715.85,-23.62 725.53,-19.31 715.27,-16.64 715.85,-23.62"/>
</a>
</g>
</g>
<!-- Node13&#45;&gt;Node8 -->
<g id="edge20_Node000013_Node000008" class="edge">
<title>Node13&#45;&gt;Node8</title>
<g id="a_edge20_Node000013_Node000008"><a xlink:title=" ">
<path fill="none" stroke="#63b8ff" d="M107.17,-67.53C141.95,-58.83 194.42,-45.31 239.62,-32 243.39,-30.89 247.32,-29.69 251.22,-28.46"/>
<polygon fill="#63b8ff" stroke="#63b8ff" points="251.9,-31.59 260.36,-25.2 249.77,-24.93 251.9,-31.59"/>
</a>
</g>
</g>
<!-- Node13&#45;&gt;Node10 -->
<g id="edge23_Node000013_Node000010" class="edge">
<title>Node13&#45;&gt;Node10</title>
<g id="a_edge23_Node000013_Node000010"><a xlink:title=" ">
<path fill="none" stroke="#63b8ff" d="M86.44,-67.62C101.76,-59.56 124.4,-47.64 143.87,-37.4"/>
<polygon fill="#63b8ff" stroke="#63b8ff" points="145.2,-40.13 152.42,-32.37 141.94,-33.93 145.2,-40.13"/>
</a>
</g>
</g>
<!-- Node13&#45;&gt;Node12 -->
<g id="edge22_Node000013_Node000012" class="edge">
<title>Node13&#45;&gt;Node12</title>
<g id="a_edge22_Node000013_Node000012"><a xlink:title=" ">
<path fill="none" stroke="#63b8ff" d="M63.31,-67.62C58.44,-59.03 51.1,-46.07 45.06,-35.41"/>
<polygon fill="#63b8ff" stroke="#63b8ff" points="47.76,-34.09 39.79,-27.11 41.67,-37.54 47.76,-34.09"/>
</a>
</g>
</g>
<!-- Node14&#45;&gt;Node2 -->
<g id="edge25_Node000014_Node000002" class="edge">
<title>Node14&#45;&gt;Node2</title>
<g id="a_edge25_Node000014_Node000002"><a xlink:title=" ">
<path fill="none" stroke="#63b8ff" d="M442.38,-179.52C413.85,-168.34 376.17,-148.19 392.62,-124 397.73,-116.49 446.72,-98.99 478.79,-88.16"/>
<polygon fill="#63b8ff" stroke="#63b8ff" points="479.56,-91.26 487.93,-84.76 477.34,-84.62 479.56,-91.26"/>
</a>
</g>
</g>
<!-- Node15&#45;&gt;Node2 -->
<g id="edge27_Node000015_Node000002" class="edge">
<title>Node15&#45;&gt;Node2</title>
<g id="a_edge27_Node000015_Node000002"><a xlink:title=" ">
<path fill="none" stroke="#63b8ff" d="M661.7,-187.22C624.99,-183.6 572.69,-173.21 537.62,-144 523.68,-132.38 515.58,-113.04 511.18,-98.46"/>
<polygon fill="#63b8ff" stroke="#63b8ff" points="514.36,-97.8 508.41,-89.04 507.6,-99.6 514.36,-97.8"/>
</a>
</g>
</g>
<!-- Node15&#45;&gt;Node3 -->
<g id="edge31_Node000015_Node000003" class="edge">
<title>Node15&#45;&gt;Node3</title>
<g id="a_edge31_Node000015_Node000003"><a xlink:title=" ">
<path fill="none" stroke="#63b8ff" d="M661.79,-180.74C606.11,-170 509.94,-151.45 458.85,-141.6"/>
<polygon fill="#63b8ff" stroke="#63b8ff" points="459.55,-137.98 449.07,-139.52 458.22,-144.85 459.55,-137.98"/>
</a>
</g>
</g>
<!-- Node15&#45;&gt;Node4 -->
<g id="edge29_Node000015_Node000004" class="edge">
<title>Node15&#45;&gt;Node4</title>
<g id="a_edge29_Node000015_Node000004"><a xlink:title=" ">
<path fill="none" stroke="#63b8ff" d="M722.25,-179.59C734.69,-171.87 750.38,-159.66 757.62,-144 773.77,-109.11 766.54,-62.86 760.28,-36.89"/>
<polygon fill="#63b8ff" stroke="#63b8ff" points="763.48,-36.28 757.56,-27.5 756.71,-38.06 763.48,-36.28"/>
</a>
</g>
</g>
<!-- Node15&#45;&gt;Node7 -->
<g id="edge30_Node000015_Node000007" class="edge">
<title>Node15&#45;&gt;Node7</title>
<g id="a_edge30_Node000015_Node000007"><a xlink:title=" ">
<path fill="none" stroke="#63b8ff" d="M747.43,-187.53C782.88,-184.07 832.33,-173.75 863.62,-144 893.75,-115.36 902.77,-64.88 905.47,-36.96"/>
<polygon fill="#63b8ff" stroke="#63b8ff" points="909.02,-37.44 906.3,-27.2 902.04,-36.9 909.02,-37.44"/>
</a>
</g>
</g>
<!-- Node15&#45;&gt;Node8 -->
<g id="edge28_Node000015_Node000008" class="edge">
<title>Node15&#45;&gt;Node8</title>
<g id="a_edge28_Node000015_Node000008"><a xlink:title=" ">
<path fill="none" stroke="#63b8ff" d="M661.75,-183.29C633.13,-177.56 596.18,-166.22 570.62,-144 542.12,-119.22 562.57,-91.02 532.62,-68 499.85,-42.8 381.04,-27.03 320.95,-20.49"/>
<polygon fill="#63b8ff" stroke="#63b8ff" points="321.41,-16.91 311.1,-19.34 320.67,-23.87 321.41,-16.91"/>
</a>
</g>
</g>
<!-- Node16 -->
<g id="Node000016" class="node">
<title>Node16</title>
<g id="a_Node000016"><a xlink:href="a00314_source.html" target="_top" xlink:title=" ">
<polygon fill="white" stroke="#666666" points="748.25,-144 661,-144 661,-124 748.25,-124 748.25,-144"/>
<text text-anchor="middle" x="704.62" y="-130.5" font-family="Helvetica,sans-Serif" font-size="10.00">useful_macros.h</text>
</a>
</g>
</g>
<!-- Node15&#45;&gt;Node16 -->
<g id="edge32_Node000015_Node000016" class="edge">
<title>Node15&#45;&gt;Node16</title>
<g id="a_edge32_Node000015_Node000016"><a xlink:title=" ">
<path fill="none" stroke="#63b8ff" d="M704.62,-179.59C704.62,-172.86 704.62,-163.53 704.62,-155.15"/>
<polygon fill="#63b8ff" stroke="#63b8ff" points="708.13,-155.3 704.62,-145.3 701.13,-155.3 708.13,-155.3"/>
</a>
</g>
</g>
<!-- Node15&#45;&gt;Node17 -->
<g id="edge34_Node000015_Node000017" class="edge">
<title>Node15&#45;&gt;Node17</title>
<g id="a_edge34_Node000015_Node000017"><a xlink:title=" ">
<path fill="none" stroke="#63b8ff" d="M726.4,-179.59C746.08,-171.09 775.32,-158.46 797.65,-148.81"/>
<polygon fill="#63b8ff" stroke="#63b8ff" points="798.89,-151.66 806.68,-144.48 796.11,-145.23 798.89,-151.66"/>
</a>
</g>
</g>
<!-- Node18 -->
<g id="Node000018" class="node">
<title>Node18</title>
<g id="a_Node000018"><a xlink:href="a00308_source.html" target="_top" xlink:title=" ">
<polygon fill="white" stroke="#666666" points="643.25,-144 580,-144 580,-124 643.25,-124 643.25,-144"/>
<text text-anchor="middle" x="611.62" y="-130.5" font-family="Helvetica,sans-Serif" font-size="10.00">hardware.h</text>
</a>
</g>
</g>
<!-- Node15&#45;&gt;Node18 -->
<g id="edge39_Node000015_Node000018" class="edge">
<title>Node15&#45;&gt;Node18</title>
<g id="a_edge39_Node000015_Node000018"><a xlink:title=" ">
<path fill="none" stroke="#63b8ff" d="M688.43,-179.59C674.24,-171.36 653.4,-159.26 637.01,-149.74"/>
<polygon fill="#63b8ff" stroke="#63b8ff" points="639.36,-146.47 628.95,-144.48 635.84,-152.53 639.36,-146.47"/>
</a>
</g>
</g>
<!-- Node16&#45;&gt;Node2 -->
<g id="edge33_Node000016_Node000002" class="edge">
<title>Node16&#45;&gt;Node2</title>
<g id="a_edge33_Node000016_Node000002"><a xlink:title=" ">
<path fill="none" stroke="#63b8ff" d="M670.14,-123.59C631.68,-113.11 570.22,-96.34 534.62,-86.63"/>
<polygon fill="#63b8ff" stroke="#63b8ff" points="536.02,-83.12 525.45,-83.86 534.18,-89.87 536.02,-83.12"/>
</a>
</g>
</g>
<!-- Node17&#45;&gt;Node2 -->
<g id="edge35_Node000017_Node000002" class="edge">
<title>Node17&#45;&gt;Node2</title>
<g id="a_edge35_Node000017_Node000002"><a xlink:title=" ">
<path fill="none" stroke="#63b8ff" d="M804.28,-128.76C744.92,-118.84 597.2,-94.14 534.98,-83.74"/>
<polygon fill="#63b8ff" stroke="#63b8ff" points="535.83,-80.17 525.39,-81.97 534.68,-87.07 535.83,-80.17"/>
</a>
</g>
</g>
<!-- Node17&#45;&gt;Node4 -->
<g id="edge37_Node000017_Node000004" class="edge">
<title>Node17&#45;&gt;Node4</title>
<g id="a_edge37_Node000017_Node000004"><a xlink:title=" ">
<path fill="none" stroke="#63b8ff" d="M823.49,-123.51C811.07,-104.29 782.75,-60.5 766.57,-35.47"/>
<polygon fill="#63b8ff" stroke="#63b8ff" points="769.01,-33.8 760.64,-27.3 763.13,-37.6 769.01,-33.8"/>
</a>
</g>
</g>
<!-- Node17&#45;&gt;Node7 -->
<g id="edge38_Node000017_Node000007" class="edge">
<title>Node17&#45;&gt;Node7</title>
<g id="a_edge38_Node000017_Node000007"><a xlink:title=" ">
<path fill="none" stroke="#63b8ff" d="M831.88,-123.58C835.34,-110.39 842.81,-85.99 854.62,-68 863.19,-54.95 875.59,-42.63 886.13,-33.37"/>
<polygon fill="#63b8ff" stroke="#63b8ff" points="888.04,-35.49 893.42,-26.36 883.52,-30.14 888.04,-35.49"/>
</a>
</g>
</g>
<!-- Node17&#45;&gt;Node8 -->
<g id="edge36_Node000017_Node000008" class="edge">
<title>Node17&#45;&gt;Node8</title>
<g id="a_edge36_Node000017_Node000008"><a xlink:title=" ">
<path fill="none" stroke="#63b8ff" d="M804.26,-126.2C757.35,-113.76 653.79,-86.86 565.62,-68 477.89,-49.23 373.74,-31.43 320.61,-22.66"/>
<polygon fill="#63b8ff" stroke="#63b8ff" points="321.5,-19.1 311.07,-20.93 320.37,-26.01 321.5,-19.1"/>
</a>
</g>
</g>
<!-- Node20 -->
<g id="Node000020" class="node">
<title>Node20</title>
<g id="a_Node000020"><a xlink:href="a00500_source.html" target="_top" xlink:title=" ">
<polygon fill="white" stroke="#666666" points="370.38,-200 280.88,-200 280.88,-180 370.38,-180 370.38,-200"/>
<text text-anchor="middle" x="325.62" y="-186.5" font-family="Helvetica,sans-Serif" font-size="10.00">pwrctrl_typedef.h</text>
</a>
</g>
</g>
<!-- Node19&#45;&gt;Node20 -->
<g id="edge42_Node000019_Node000020" class="edge">
<title>Node19&#45;&gt;Node20</title>
<g id="a_edge42_Node000019_Node000020"><a xlink:title=" ">
<path fill="none" stroke="#63b8ff" d="M419.89,-294.04C417.1,-293.34 414.31,-292.65 411.62,-292 341.2,-274.98 297.85,-312.61 252.62,-256 236.66,-236.01 264.81,-217.03 290.65,-204.79"/>
<polygon fill="#63b8ff" stroke="#63b8ff" points="291.66,-207.73 299.35,-200.45 288.79,-201.34 291.66,-207.73"/>
</a>
</g>
</g>
<!-- Node23 -->
<g id="Node000023" class="node">
<title>Node23</title>
<g id="a_Node000023"><a xlink:href="a00473.html" target="_top" xlink:title="Contains the power control reusable functions.">
<polygon fill="white" stroke="#666666" points="637.38,-256 541.88,-256 541.88,-236 637.38,-236 637.38,-256"/>
<text text-anchor="middle" x="589.62" y="-242.5" font-family="Helvetica,sans-Serif" font-size="10.00">pwrctrl_common.h</text>
</a>
</g>
</g>
<!-- Node19&#45;&gt;Node23 -->
<g id="edge47_Node000019_Node000023" class="edge">
<title>Node19&#45;&gt;Node23</title>
<g id="a_edge47_Node000019_Node000023"><a xlink:title=" ">
<path fill="none" stroke="#63b8ff" d="M471.53,-291.59C494.46,-282.94 528.71,-270 554.43,-260.29"/>
<polygon fill="#63b8ff" stroke="#63b8ff" points="555.4,-263.29 563.52,-256.48 552.93,-256.74 555.4,-263.29"/>
</a>
</g>
</g>
<!-- Node24 -->
<g id="Node000024" class="node">
<title>Node24</title>
<g id="a_Node000024"><a xlink:href="a00479.html" target="_top" xlink:title="Contains public functions relevant for power control communication interface.">
<polygon fill="white" stroke="#666666" points="389.12,-256 262.12,-256 262.12,-236 389.12,-236 389.12,-256"/>
<text text-anchor="middle" x="325.62" y="-242.5" font-family="Helvetica,sans-Serif" font-size="10.00">pwrctrl_comm_interface.h</text>
</a>
</g>
</g>
<!-- Node19&#45;&gt;Node24 -->
<g id="edge48_Node000019_Node000024" class="edge">
<title>Node19&#45;&gt;Node24</title>
<g id="a_edge48_Node000019_Node000024"><a xlink:title=" ">
<path fill="none" stroke="#63b8ff" d="M425.55,-291.59C406.58,-283.13 378.45,-270.58 356.87,-260.94"/>
<polygon fill="#63b8ff" stroke="#63b8ff" points="358.42,-257.36 347.87,-256.48 355.57,-263.75 358.42,-257.36"/>
</a>
</g>
</g>
<!-- Node25 -->
<g id="Node000025" class="node">
<title>Node25</title>
<g id="a_Node000025"><a xlink:href="a00485.html" target="_top" xlink:title="Contains public function relevant for power control interrupt.">
<polygon fill="white" stroke="#666666" points="205.88,-256 137.38,-256 137.38,-236 205.88,-236 205.88,-256"/>
<text text-anchor="middle" x="171.62" y="-242.5" font-family="Helvetica,sans-Serif" font-size="10.00">pwrctrl_isr.h</text>
</a>
</g>
</g>
<!-- Node19&#45;&gt;Node25 -->
<g id="edge50_Node000019_Node000025" class="edge">
<title>Node19&#45;&gt;Node25</title>
<g id="a_edge50_Node000019_Node000025"><a xlink:title=" ">
<path fill="none" stroke="#63b8ff" d="M419.92,-293.94C417.12,-293.26 414.32,-292.6 411.62,-292 411.03,-291.87 286.15,-268.46 216.79,-255.46"/>
<polygon fill="#63b8ff" stroke="#63b8ff" points="217.63,-251.87 207.16,-253.47 216.34,-258.75 217.63,-251.87"/>
</a>
</g>
</g>
<!-- Node26 -->
<g id="Node000026" class="node">
<title>Node26</title>
<g id="a_Node000026"><a xlink:href="a00494.html" target="_top" xlink:title="Contains public functions for PWM.">
<polygon fill="white" stroke="#666666" points="485.75,-256 407.5,-256 407.5,-236 485.75,-236 485.75,-256"/>
<text text-anchor="middle" x="446.62" y="-242.5" font-family="Helvetica,sans-Serif" font-size="10.00">pwrctrl_pwm.h</text>
</a>
</g>
</g>
<!-- Node19&#45;&gt;Node26 -->
<g id="edge51_Node000019_Node000026" class="edge">
<title>Node19&#45;&gt;Node26</title>
<g id="a_edge51_Node000019_Node000026"><a xlink:title=" ">
<path fill="none" stroke="#63b8ff" d="M446.62,-291.59C446.62,-284.86 446.62,-275.53 446.62,-267.15"/>
<polygon fill="#63b8ff" stroke="#63b8ff" points="450.13,-267.3 446.62,-257.3 443.13,-267.3 450.13,-267.3"/>
</a>
</g>
</g>
<!-- Node21 -->
<g id="Node000021" class="node">
<title>Node21</title>
<g id="a_Node000021"><a xlink:href="a00398.html" target="_top" xlink:title="Contains fault data types.">
<polygon fill="white" stroke="#666666" points="345.62,-144 245.62,-144 245.62,-124 345.62,-124 345.62,-144"/>
<text text-anchor="middle" x="295.62" y="-130.5" font-family="Helvetica,sans-Serif" font-size="10.00">fault/fault_typedef.h</text>
</a>
</g>
</g>
<!-- Node20&#45;&gt;Node21 -->
<g id="edge43_Node000020_Node000021" class="edge">
<title>Node20&#45;&gt;Node21</title>
<g id="a_edge43_Node000020_Node000021"><a xlink:title=" ">
<path fill="none" stroke="#63b8ff" d="M320.4,-179.59C316.44,-172.47 310.88,-162.45 306.02,-153.72"/>
<polygon fill="#63b8ff" stroke="#63b8ff" points="308.71,-152.34 300.79,-145.3 302.59,-155.74 308.71,-152.34"/>
</a>
</g>
</g>
<!-- Node22 -->
<g id="Node000022" class="node">
<title>Node22</title>
<g id="a_Node000022"><a xlink:href="a00389.html" target="_top" xlink:title="Contains fault generic public functions.">
<polygon fill="white" stroke="#666666" points="433.12,-88 348.12,-88 348.12,-68 433.12,-68 433.12,-88"/>
<text text-anchor="middle" x="390.62" y="-74.5" font-family="Helvetica,sans-Serif" font-size="10.00">fault_common.h</text>
</a>
</g>
</g>
<!-- Node21&#45;&gt;Node22 -->
<g id="edge44_Node000021_Node000022" class="edge">
<title>Node21&#45;&gt;Node22</title>
<g id="a_edge44_Node000021_Node000022"><a xlink:title=" ">
<path fill="none" stroke="#63b8ff" d="M312.17,-123.59C326.66,-115.36 347.95,-103.26 364.7,-93.74"/>
<polygon fill="#63b8ff" stroke="#63b8ff" points="365.98,-96.46 372.95,-88.48 362.52,-90.38 365.98,-96.46"/>
</a>
</g>
</g>
<!-- Node22&#45;&gt;Node4 -->
<g id="edge46_Node000022_Node000004" class="edge">
<title>Node22&#45;&gt;Node4</title>
<g id="a_edge46_Node000022_Node000004"><a xlink:title=" ">
<path fill="none" stroke="#63b8ff" d="M433.45,-69.94C504.84,-58.17 647.08,-34.73 715.75,-23.41"/>
<polygon fill="#63b8ff" stroke="#63b8ff" points="716.21,-26.71 725.51,-21.63 715.07,-19.81 716.21,-26.71"/>
</a>
</g>
</g>
<!-- Node22&#45;&gt;Node8 -->
<g id="edge45_Node000022_Node000008" class="edge">
<title>Node22&#45;&gt;Node8</title>
<g id="a_edge45_Node000022_Node000008"><a xlink:title=" ">
<path fill="none" stroke="#63b8ff" d="M374.22,-67.62C357.42,-58.03 331.07,-42.97 311.47,-31.77"/>
<polygon fill="#63b8ff" stroke="#63b8ff" points="313.33,-28.23 302.92,-26.31 309.86,-34.31 313.33,-28.23"/>
</a>
</g>
</g>
<!-- Node24&#45;&gt;Node20 -->
<g id="edge49_Node000024_Node000020" class="edge">
<title>Node24&#45;&gt;Node20</title>
<g id="a_edge49_Node000024_Node000020"><a xlink:title=" ">
<path fill="none" stroke="#63b8ff" d="M325.62,-235.59C325.62,-228.86 325.62,-219.53 325.62,-211.15"/>
<polygon fill="#63b8ff" stroke="#63b8ff" points="329.13,-211.3 325.62,-201.3 322.13,-211.3 329.13,-211.3"/>
</a>
</g>
</g>
<!-- Node26&#45;&gt;Node20 -->
<g id="edge52_Node000026_Node000020" class="edge">
<title>Node26&#45;&gt;Node20</title>
<g id="a_edge52_Node000026_Node000020"><a xlink:title=" ">
<path fill="none" stroke="#63b8ff" d="M425.55,-235.59C406.58,-227.13 378.45,-214.58 356.87,-204.94"/>
<polygon fill="#63b8ff" stroke="#63b8ff" points="358.42,-201.36 347.87,-200.48 355.57,-207.75 358.42,-201.36"/>
</a>
</g>
</g>
<!-- Node27&#45;&gt;Node7 -->
<g id="edge54_Node000027_Node000007" class="edge">
<title>Node27&#45;&gt;Node7</title>
<g id="a_edge54_Node000027_Node000007"><a xlink:title=" ">
<path fill="none" stroke="#63b8ff" d="M833.74,-295.13C911.72,-278.87 1109.6,-225.04 1176.62,-88 1180.53,-80.01 1182.3,-74.84 1176.62,-68 1147.35,-32.67 1009.61,-21.64 942.95,-18.34"/>
<polygon fill="#63b8ff" stroke="#63b8ff" points="943.28,-14.8 933.13,-17.84 942.95,-21.8 943.28,-14.8"/>
</a>
</g>
</g>
<!-- Node27&#45;&gt;Node17 -->
<g id="edge69_Node000027_Node000017" class="edge">
<title>Node27&#45;&gt;Node17</title>
<g id="a_edge69_Node000027_Node000017"><a xlink:title=" ">
<path fill="none" stroke="#63b8ff" d="M803.21,-291.6C807.64,-265.35 820.21,-190.84 826.27,-154.89"/>
<polygon fill="#63b8ff" stroke="#63b8ff" points="829.84,-155.74 828.06,-145.3 822.94,-154.58 829.84,-155.74"/>
</a>
</g>
</g>
<!-- Node27&#45;&gt;Node20 -->
<g id="edge67_Node000027_Node000020" class="edge">
<title>Node27&#45;&gt;Node20</title>
<g id="a_edge67_Node000027_Node000020"><a xlink:title=" ">
<path fill="none" stroke="#63b8ff" d="M783.56,-291.61C755.2,-277.28 698.12,-250.15 646.62,-236 597.91,-222.61 459.62,-205.87 381.37,-197.06"/>
<polygon fill="#63b8ff" stroke="#63b8ff" points="382.07,-193.51 371.74,-195.87 381.29,-200.46 382.07,-193.51"/>
</a>
</g>
</g>
<!-- Node27&#45;&gt;Node23 -->
<g id="edge68_Node000027_Node000023" class="edge">
<title>Node27&#45;&gt;Node23</title>
<g id="a_edge68_Node000027_Node000023"><a xlink:title=" ">
<path fill="none" stroke="#63b8ff" d="M769.89,-292.92C734.68,-283.95 677.52,-269.39 637.01,-259.07"/>
<polygon fill="#63b8ff" stroke="#63b8ff" points="638.13,-255.49 627.58,-256.41 636.41,-262.27 638.13,-255.49"/>
</a>
</g>
</g>
<!-- Node27&#45;&gt;Node26 -->
<g id="edge66_Node000027_Node000026" class="edge">
<title>Node27&#45;&gt;Node26</title>
<g id="a_edge66_Node000027_Node000026"><a xlink:title=" ">
<path fill="none" stroke="#63b8ff" d="M769.81,-296.16C707.85,-286.73 570.58,-265.85 496.44,-254.58"/>
<polygon fill="#63b8ff" stroke="#63b8ff" points="497.39,-251.03 486.98,-252.99 496.34,-257.95 497.39,-251.03"/>
</a>
</g>
</g>
<!-- Node27&#45;&gt;Node27 -->
<g id="edge65_Node000027_Node000027" class="edge">
<title>Node27&#45;&gt;Node27</title>
<g id="a_edge65_Node000027_Node000027"><a xlink:title=" ">
<path fill="none" stroke="#63b8ff" d="M833.6,-312.49C843.49,-312.28 851.25,-308.78 851.25,-302 851.25,-297.97 848.51,-295.11 844.22,-293.39"/>
<polygon fill="#63b8ff" stroke="#63b8ff" points="845.06,-289.81 834.6,-291.51 843.84,-296.7 845.06,-289.81"/>
</a>
</g>
</g>
<!-- Node28 -->
<g id="Node000028" class="node">
<title>Node28</title>
<g id="a_Node000028"><a xlink:href="a00125.html" target="_top" xlink:title="This is the generated driver header file for the CMP1 driver.">
<polygon fill="white" stroke="#666666" points="980.62,-144 910.62,-144 910.62,-124 980.62,-124 980.62,-144"/>
<text text-anchor="middle" x="945.62" y="-130.5" font-family="Helvetica,sans-Serif" font-size="10.00">cmp/cmp1.h</text>
</a>
</g>
</g>
<!-- Node27&#45;&gt;Node28 -->
<g id="edge55_Node000027_Node000028" class="edge">
<title>Node27&#45;&gt;Node28</title>
<g id="a_edge55_Node000027_Node000028"><a xlink:title=" ">
<path fill="none" stroke="#63b8ff" d="M809.78,-291.6C833.05,-264.78 900.02,-187.57 930.36,-152.6"/>
<polygon fill="#63b8ff" stroke="#63b8ff" points="933.65,-155.14 937.56,-145.3 928.36,-150.56 933.65,-155.14"/>
</a>
</g>
</g>
<!-- Node30 -->
<g id="Node000030" class="node">
<title>Node30</title>
<g id="a_Node000030"><a xlink:href="a00131.html" target="_top" xlink:title="This is the generated driver header file for the CMP3 driver.">
<polygon fill="white" stroke="#666666" points="1095.62,-144 1025.62,-144 1025.62,-124 1095.62,-124 1095.62,-144"/>
<text text-anchor="middle" x="1060.62" y="-130.5" font-family="Helvetica,sans-Serif" font-size="10.00">cmp/cmp3.h</text>
</a>
</g>
</g>
<!-- Node27&#45;&gt;Node30 -->
<g id="edge61_Node000027_Node000030" class="edge">
<title>Node27&#45;&gt;Node30</title>
<g id="a_edge61_Node000027_Node000030"><a xlink:title=" ">
<path fill="none" stroke="#63b8ff" d="M816.29,-291.6C859.12,-264.15 984.28,-183.93 1036.89,-150.21"/>
<polygon fill="#63b8ff" stroke="#63b8ff" points="1038.59,-152.64 1045.12,-144.3 1034.81,-146.75 1038.59,-152.64"/>
</a>
</g>
</g>
<!-- Node28&#45;&gt;Node4 -->
<g id="edge57_Node000028_Node000004" class="edge">
<title>Node28&#45;&gt;Node4</title>
<g id="a_edge57_Node000028_Node000004"><a xlink:title=" ">
<path fill="none" stroke="#63b8ff" d="M929.99,-123.51C896.89,-103.4 819.49,-56.4 779.51,-32.11"/>
<polygon fill="#63b8ff" stroke="#63b8ff" points="781.57,-28.66 771.2,-26.46 777.93,-34.64 781.57,-28.66"/>
</a>
</g>
</g>
<!-- Node28&#45;&gt;Node7 -->
<g id="edge56_Node000028_Node000007" class="edge">
<title>Node28&#45;&gt;Node7</title>
<g id="a_edge56_Node000028_Node000007"><a xlink:title=" ">
<path fill="none" stroke="#63b8ff" d="M942.43,-123.51C936.06,-104.55 921.64,-61.67 913.17,-36.48"/>
<polygon fill="#63b8ff" stroke="#63b8ff" points="916.26,-35.66 909.75,-27.3 909.62,-37.89 916.26,-35.66"/>
</a>
</g>
</g>
<!-- Node29 -->
<g id="Node000029" class="node">
<title>Node29</title>
<g id="a_Node000029"><a xlink:href="a00134_source.html" target="_top" xlink:title=" ">
<polygon fill="white" stroke="#666666" points="1058.12,-88 973.12,-88 973.12,-68 1058.12,-68 1058.12,-88"/>
<text text-anchor="middle" x="1015.62" y="-74.5" font-family="Helvetica,sans-Serif" font-size="10.00">cmp_interface.h</text>
</a>
</g>
</g>
<!-- Node28&#45;&gt;Node29 -->
<g id="edge58_Node000028_Node000029" class="edge">
<title>Node28&#45;&gt;Node29</title>
<g id="a_edge58_Node000028_Node000029"><a xlink:title=" ">
<path fill="none" stroke="#63b8ff" d="M957.82,-123.59C968.06,-115.7 982.91,-104.24 994.99,-94.92"/>
<polygon fill="#63b8ff" stroke="#63b8ff" points="996.79,-97.18 1002.57,-88.3 992.52,-91.64 996.79,-97.18"/>
</a>
</g>
</g>
<!-- Node29&#45;&gt;Node4 -->
<g id="edge59_Node000029_Node000004" class="edge">
<title>Node29&#45;&gt;Node4</title>
<g id="a_edge59_Node000029_Node000004"><a xlink:title=" ">
<path fill="none" stroke="#63b8ff" d="M974.56,-67.56C925.01,-56.17 842.33,-37.16 793.7,-25.98"/>
<polygon fill="#63b8ff" stroke="#63b8ff" points="794.52,-22.35 783.99,-23.52 792.95,-29.17 794.52,-22.35"/>
</a>
</g>
</g>
<!-- Node29&#45;&gt;Node7 -->
<g id="edge60_Node000029_Node000007" class="edge">
<title>Node29&#45;&gt;Node7</title>
<g id="a_edge60_Node000029_Node000007"><a xlink:title=" ">
<path fill="none" stroke="#63b8ff" d="M998.59,-67.62C981.08,-57.98 953.55,-42.83 933.17,-31.61"/>
<polygon fill="#63b8ff" stroke="#63b8ff" points="934.98,-28.07 924.54,-26.31 931.61,-34.2 934.98,-28.07"/>
</a>
</g>
</g>
<!-- Node30&#45;&gt;Node4 -->
<g id="edge63_Node000030_Node000004" class="edge">
<title>Node30&#45;&gt;Node4</title>
<g id="a_edge63_Node000030_Node000004"><a xlink:title=" ">
<path fill="none" stroke="#63b8ff" d="M1065.4,-123.79C1071.82,-109.95 1081.01,-83.74 1067.62,-68 1058.78,-57.6 875.62,-32.68 793.67,-22"/>
<polygon fill="#63b8ff" stroke="#63b8ff" points="794.17,-18.41 783.8,-20.59 793.27,-25.35 794.17,-18.41"/>
</a>
</g>
</g>
<!-- Node30&#45;&gt;Node7 -->
<g id="edge62_Node000030_Node000007" class="edge">
<title>Node30&#45;&gt;Node7</title>
<g id="a_edge62_Node000030_Node000007"><a xlink:title=" ">
<path fill="none" stroke="#63b8ff" d="M1073.79,-123.56C1090.34,-110.54 1114.95,-86.57 1100.62,-68 1081.55,-43.26 993.91,-28.15 943.19,-21.32"/>
<polygon fill="#63b8ff" stroke="#63b8ff" points="943.73,-17.73 933.36,-19.91 942.83,-24.67 943.73,-17.73"/>
</a>
</g>
</g>
<!-- Node30&#45;&gt;Node29 -->
<g id="edge64_Node000030_Node000029" class="edge">
<title>Node30&#45;&gt;Node29</title>
<g id="a_edge64_Node000030_Node000029"><a xlink:title=" ">
<path fill="none" stroke="#63b8ff" d="M1052.79,-123.59C1046.59,-116.16 1037.77,-105.58 1030.28,-96.58"/>
<polygon fill="#63b8ff" stroke="#63b8ff" points="1032.46,-94.74 1023.37,-89.3 1027.09,-99.22 1032.46,-94.74"/>
</a>
</g>
</g>
</g>
</svg>
