<?xml version="1.0" encoding="UTF-8" standalone="no"?>
<!DOCTYPE svg PUBLIC "-//W3C//DTD SVG 1.1//EN"
 "http://www.w3.org/Graphics/SVG/1.1/DTD/svg11.dtd">
<!-- Generated by graphviz version 8.1.0 (20230707.0739)
 -->
<!-- Title: ControlLoop_Interrupt_CallBack Pages: 1 -->
<!--zoomable 653 -->

<svg id="main" version="1.1" xmlns="http://www.w3.org/2000/svg" xmlns:xlink="http://www.w3.org/1999/xlink" xml:space="preserve" onload="init(evt)">
<style type="text/css"><![CDATA[
.node, .edge {opacity: 0.7;}
.node.selected, .edge.selected {opacity: 1;}
.edge:hover path { stroke: red; }
.edge:hover polygon { stroke: red; fill: red; }
]]></style>

<defs>
  <circle id="rim" cx="0" cy="0" r="7"/>
  <circle id="rim2" cx="0" cy="0" r="3.5"/>
  <g id="zoomPlus">
    <use xlink:href="#rim" fill="#404040"><set attributeName="fill" to="#808080" begin="zoomplus.mouseover" end="zoomplus.mouseout"/></use>
    <path d="M-4,0h8M0,-4v8" fill="none" stroke="white" stroke-width="1.5" pointer-events="none"/>
  </g>
  <g id="zoomMin">
    <use xlink:href="#rim" fill="#404040"><set attributeName="fill" to="#808080" begin="zoomminus.mouseover" end="zoomminus.mouseout"/></use>
    <path d="M-4,0h8" fill="none" stroke="white" stroke-width="1.5" pointer-events="none"/>
  </g>
  <g id="arrowUp" transform="translate(30 24)">
    <use xlink:href="#rim"/>
    <path pointer-events="none" fill="none" stroke="white" stroke-width="1.5" d="M0,-3.0v7 M-2.5,-0.5L0,-3.0L2.5,-0.5"/>
  </g>
  <g id="arrowRight" transform="rotate(90) translate(36 -43)">
    <use xlink:href="#rim"/>
    <path pointer-events="none" fill="none" stroke="white" stroke-width="1.5" d="M0,-3.0v7 M-2.5,-0.5L0,-3.0L2.5,-0.5"/>
  </g>
  <g id="arrowDown" transform="rotate(180) translate(-30 -48)">
    <use xlink:href="#rim"/>
    <path pointer-events="none" fill="none" stroke="white" stroke-width="1.5" d="M0,-3.0v7 M-2.5,-0.5L0,-3.0L2.5,-0.5"/>
  </g>
  <g id="arrowLeft" transform="rotate(270) translate(-36 17)">
    <use xlink:href="#rim"/>
    <path pointer-events="none" fill="none" stroke="white" stroke-width="1.5" d="M0,-3.0v7 M-2.5,-0.5L0,-3.0L2.5,-0.5"/>
  </g>
  <g id="resetDef">
    <use xlink:href="#rim2" fill="#404040"><set attributeName="fill" to="#808080" begin="reset.mouseover" end="reset.mouseout"/></use>
  </g>
</defs>
<script type="application/ecmascript">
var viewWidth = 891;
var viewHeight = 653;
var sectionId = 'dynsection-1';
</script>
<script type="application/ecmascript" xlink:href="svg.min.js"/>
<svg id="graph" class="graph">
<g id="viewport">
<title>ControlLoop_Interrupt_CallBack</title>
<!-- Node1 -->
<g id="Node000001" class="node">
<title>Node1</title>
<g id="a_Node000001"><a xlink:title="Executes the power conveter&#39;s control loop.">
<polygon fill="#999999" stroke="#666666" points="108.25,-203 0,-203 0,-171 108.25,-171 108.25,-203"/>
<text text-anchor="start" x="8" y="-189.5" font-family="Helvetica,sans-Serif" font-size="10.00">ControlLoop_Interrupt</text>
<text text-anchor="middle" x="54.12" y="-177.5" font-family="Helvetica,sans-Serif" font-size="10.00">_CallBack</text>
</a>
</g>
</g>
<!-- Node2 -->
<g id="Node000002" class="node">
<title>Node2</title>
<g id="a_Node000002"><a xlink:href="a00510.html#gaebc385db92ab49c593f635282b8491db" target="_top" xlink:title="This inline function sets software common trigger.">
<polygon fill="white" stroke="#666666" points="513.75,-640 370.25,-640 370.25,-620 513.75,-620 513.75,-640"/>
<text text-anchor="middle" x="442" y="-626.5" font-family="Helvetica,sans-Serif" font-size="10.00">ADC1_SoftwareTriggerEnable</text>
</a>
</g>
</g>
<!-- Node1&#45;&gt;Node2 -->
<g id="edge1_Node000001_Node000002" class="edge">
<title>Node1&#45;&gt;Node2</title>
<g id="a_edge1_Node000001_Node000002"><a xlink:title=" ">
<path fill="none" stroke="#63b8ff" d="M56.27,-203.21C61.46,-271.91 85.14,-537.95 144.25,-592 205.25,-647.78 305.08,-648.9 371.9,-641.75"/>
<polygon fill="#63b8ff" stroke="#63b8ff" points="372.21,-645.12 381.74,-640.49 371.4,-638.17 372.21,-645.12"/>
</a>
</g>
</g>
<!-- Node3 -->
<g id="Node000003" class="node">
<title>Node3</title>
<g id="a_Node000003"><a xlink:href="a00498.html#ga7ca815f0afe45529a572a517f5d5e03e" target="_top" xlink:title="Executes the fault handlers.">
<polygon fill="white" stroke="#666666" points="283.62,-431 183.62,-431 183.62,-411 283.62,-411 283.62,-431"/>
<text text-anchor="middle" x="233.62" y="-417.5" font-family="Helvetica,sans-Serif" font-size="10.00">Dev_Fault_Execute</text>
</a>
</g>
</g>
<!-- Node1&#45;&gt;Node3 -->
<g id="edge2_Node000001_Node000003" class="edge">
<title>Node1&#45;&gt;Node3</title>
<g id="a_edge2_Node000001_Node000003"><a xlink:title=" ">
<path fill="none" stroke="#63b8ff" d="M67.61,-203.45C99.58,-245.61 184.29,-357.28 218.25,-402.05"/>
<polygon fill="#63b8ff" stroke="#63b8ff" points="215.85,-403.68 224.69,-409.54 221.43,-399.45 215.85,-403.68"/>
</a>
</g>
</g>
<!-- Node13 -->
<g id="Node000013" class="node">
<title>Node13</title>
<g id="a_Node000013"><a xlink:href="a00490.html#ga40b097e35c1c4428dc28b411d1162e9b" target="_top" xlink:title="This function prepares the data for control loop and selects which control loop will be executed.">
<polygon fill="white" stroke="#666666" points="302.38,-203 164.88,-203 164.88,-171 302.38,-171 302.38,-203"/>
<text text-anchor="start" x="172.88" y="-189.5" font-family="Helvetica,sans-Serif" font-size="10.00">Dev_PwrCtrl_10KHzVPLoop</text>
<text text-anchor="middle" x="233.62" y="-177.5" font-family="Helvetica,sans-Serif" font-size="10.00">PrepareData</text>
</a>
</g>
</g>
<!-- Node1&#45;&gt;Node13 -->
<g id="edge12_Node000001_Node000013" class="edge">
<title>Node1&#45;&gt;Node13</title>
<g id="a_edge12_Node000001_Node000013"><a xlink:title=" ">
<path fill="none" stroke="#63b8ff" d="M108.38,-187C122.73,-187 138.57,-187 154,-187"/>
<polygon fill="#63b8ff" stroke="#63b8ff" points="153.58,-190.5 163.58,-187 153.58,-183.5 153.58,-190.5"/>
</a>
</g>
</g>
<!-- Node15 -->
<g id="Node000015" class="node">
<title>Node15</title>
<g id="a_Node000015"><a xlink:href="a00490.html#ga9eb3a7eb915671d6fcf8acf2b80872fd" target="_top" xlink:title="Executes the power converter control loop.">
<polygon fill="white" stroke="#666666" points="296.38,-153 170.88,-153 170.88,-121 296.38,-121 296.38,-153"/>
<text text-anchor="start" x="178.88" y="-139.5" font-family="Helvetica,sans-Serif" font-size="10.00">Dev_PwrCtrl_ControlLoop</text>
<text text-anchor="middle" x="233.62" y="-127.5" font-family="Helvetica,sans-Serif" font-size="10.00">Execute</text>
</a>
</g>
</g>
<!-- Node1&#45;&gt;Node15 -->
<g id="edge14_Node000001_Node000015" class="edge">
<title>Node1&#45;&gt;Node15</title>
<g id="a_edge14_Node000001_Node000015"><a xlink:title=" ">
<path fill="none" stroke="#63b8ff" d="M108.38,-172C125.79,-167.09 145.38,-161.58 163.77,-156.4"/>
<polygon fill="#63b8ff" stroke="#63b8ff" points="164.46,-159.56 173.14,-153.48 162.56,-152.82 164.46,-159.56"/>
</a>
</g>
</g>
<!-- Node18 -->
<g id="Node000018" class="node">
<title>Node18</title>
<g id="a_Node000018"><a xlink:href="a00490.html#ga3f1b8c59115cf720971fed6975cdfe68" target="_top" xlink:title="This function updates the DAB data members dead time based on load.">
<polygon fill="white" stroke="#666666" points="306.12,-103 161.12,-103 161.12,-83 306.12,-83 306.12,-103"/>
<text text-anchor="middle" x="233.62" y="-89.5" font-family="Helvetica,sans-Serif" font-size="10.00">Dev_PwrCtrl_DeadTimeAdjust</text>
</a>
</g>
</g>
<!-- Node1&#45;&gt;Node18 -->
<g id="edge17_Node000001_Node000018" class="edge">
<title>Node1&#45;&gt;Node18</title>
<g id="a_edge17_Node000001_Node000018"><a xlink:title=" ">
<path fill="none" stroke="#63b8ff" d="M69.84,-170.56C86.27,-153.27 114.47,-126.59 144.25,-112 148.21,-110.06 152.37,-108.31 156.64,-106.75"/>
<polygon fill="#63b8ff" stroke="#63b8ff" points="157.34,-109.87 165.73,-103.4 155.14,-103.22 157.34,-109.87"/>
</a>
</g>
</g>
<!-- Node19 -->
<g id="Node000019" class="node">
<title>Node19</title>
<g id="a_Node000019"><a xlink:href="a00490.html#gafa907e54c56615f95c7746d35bddb681" target="_top" xlink:title="This function updates the DAB data members and modulates PWM period.">
<polygon fill="white" stroke="#666666" points="305.75,-65 161.5,-65 161.5,-45 305.75,-45 305.75,-65"/>
<text text-anchor="middle" x="233.62" y="-51.5" font-family="Helvetica,sans-Serif" font-size="10.00">Dev_PwrCtrl_PeriodModulator</text>
</a>
</g>
</g>
<!-- Node1&#45;&gt;Node19 -->
<g id="edge18_Node000001_Node000019" class="edge">
<title>Node1&#45;&gt;Node19</title>
<g id="a_edge18_Node000001_Node000019"><a xlink:title=" ">
<path fill="none" stroke="#63b8ff" d="M63.27,-170.57C76.58,-145.54 105.45,-98.19 144.25,-74 146.72,-72.46 149.3,-71.04 151.96,-69.73"/>
<polygon fill="#63b8ff" stroke="#63b8ff" points="153.06,-72.64 160.88,-65.49 150.31,-66.21 153.06,-72.64"/>
</a>
</g>
</g>
<!-- Node20 -->
<g id="Node000020" class="node">
<title>Node20</title>
<g id="a_Node000020"><a xlink:href="a00490.html#ga0d5826f3e0740fc03614792f748747d9" target="_top" xlink:title="This function updates the DAB data members with phase values normalized in degree.">
<polygon fill="white" stroke="#666666" points="316.62,-27 150.62,-27 150.62,-7 316.62,-7 316.62,-27"/>
<text text-anchor="middle" x="233.62" y="-13.5" font-family="Helvetica,sans-Serif" font-size="10.00">Dev_PwrCtrl_PrimToSecPHDegree</text>
</a>
</g>
</g>
<!-- Node1&#45;&gt;Node20 -->
<g id="edge19_Node000001_Node000020" class="edge">
<title>Node1&#45;&gt;Node20</title>
<g id="a_edge19_Node000001_Node000020"><a xlink:title=" ">
<path fill="none" stroke="#63b8ff" d="M59.85,-170.8C69.86,-139.45 96.35,-70.54 144.25,-36 146.16,-34.62 148.16,-33.34 150.21,-32.14"/>
<polygon fill="#63b8ff" stroke="#63b8ff" points="151.21,-35.06 158.6,-27.47 148.08,-28.8 151.21,-35.06"/>
</a>
</g>
</g>
<!-- Node21 -->
<g id="Node000021" class="node">
<title>Node21</title>
<g id="a_Node000021"><a xlink:href="a00491.html#ga2da42ebbee6a24170cd69c0c798a572e" target="_top" xlink:title="PWM distribution for DAB converter.">
<polygon fill="white" stroke="#666666" points="300.88,-241 166.38,-241 166.38,-221 300.88,-221 300.88,-241"/>
<text text-anchor="middle" x="233.62" y="-227.5" font-family="Helvetica,sans-Serif" font-size="10.00">Dev_PwrCtrl_PWM_Update</text>
</a>
</g>
</g>
<!-- Node1&#45;&gt;Node21 -->
<g id="edge20_Node000001_Node000021" class="edge">
<title>Node1&#45;&gt;Node21</title>
<g id="a_edge20_Node000001_Node000021"><a xlink:title=" ">
<path fill="none" stroke="#63b8ff" d="M108.71,-202.61C120.39,-205.85 132.71,-209.14 144.25,-212 152.9,-214.14 162.06,-216.27 171.08,-218.28"/>
<polygon fill="#63b8ff" stroke="#63b8ff" points="170.04,-221.85 180.56,-220.58 171.55,-215.02 170.04,-221.85"/>
</a>
</g>
</g>
<!-- Node27 -->
<g id="Node000027" class="node">
<title>Node27</title>
<g id="a_Node000027"><a xlink:href="a00490.html#ga4791758659b96e5cc584367e31cd3cc3" target="_top" xlink:title="This function updates the DAB data members with ADC raw values.">
<polygon fill="white" stroke="#666666" points="323,-583 144.25,-583 144.25,-563 323,-563 323,-583"/>
<text text-anchor="middle" x="233.62" y="-569.5" font-family="Helvetica,sans-Serif" font-size="10.00">Dev_PwrCtrl_UpdateADConverterData</text>
</a>
</g>
</g>
<!-- Node1&#45;&gt;Node27 -->
<g id="edge27_Node000001_Node000027" class="edge">
<title>Node1&#45;&gt;Node27</title>
<g id="a_edge27_Node000001_Node000027"><a xlink:title=" ">
<path fill="none" stroke="#63b8ff" d="M59.33,-203.25C70.28,-244.26 101.75,-354.77 144.25,-440 165.75,-483.12 198.79,-528.99 217.79,-554"/>
<polygon fill="#63b8ff" stroke="#63b8ff" points="215.47,-555.72 224.33,-561.52 221.02,-551.46 215.47,-555.72"/>
</a>
</g>
</g>
<!-- Node4 -->
<g id="Node000004" class="node">
<title>Node4</title>
<g id="a_Node000004"><a xlink:href="a00513.html#ga568e6ce9c8d08361412894ce59c8d1c2" target="_top" xlink:title="Returns the comparator output status.">
<polygon fill="white" stroke="#666666" points="488.25,-526 395.75,-526 395.75,-506 488.25,-506 488.25,-526"/>
<text text-anchor="middle" x="442" y="-512.5" font-family="Helvetica,sans-Serif" font-size="10.00">CMP1_StatusGet</text>
</a>
</g>
</g>
<!-- Node3&#45;&gt;Node4 -->
<g id="edge3_Node000003_Node000004" class="edge">
<title>Node3&#45;&gt;Node4</title>
<g id="a_edge3_Node000003_Node000004"><a xlink:title=" ">
<path fill="none" stroke="#63b8ff" d="M248.38,-431.47C270.5,-447.83 315.9,-479.38 359,-497 367.17,-500.34 376.06,-503.16 384.86,-505.53"/>
<polygon fill="#63b8ff" stroke="#63b8ff" points="383.96,-509.16 394.51,-508.18 385.65,-502.37 383.96,-509.16"/>
</a>
</g>
</g>
<!-- Node5 -->
<g id="Node000005" class="node">
<title>Node5</title>
<g id="a_Node000005"><a xlink:href="a00513.html#ga1f8da3d5ca79eeff2f2d0af0cfe7964a" target="_top" xlink:title="Returns the comparator output status.">
<polygon fill="white" stroke="#666666" points="488.25,-488 395.75,-488 395.75,-468 488.25,-468 488.25,-488"/>
<text text-anchor="middle" x="442" y="-474.5" font-family="Helvetica,sans-Serif" font-size="10.00">CMP3_StatusGet</text>
</a>
</g>
</g>
<!-- Node3&#45;&gt;Node5 -->
<g id="edge4_Node000003_Node000005" class="edge">
<title>Node3&#45;&gt;Node5</title>
<g id="a_edge4_Node000003_Node000005"><a xlink:title=" ">
<path fill="none" stroke="#63b8ff" d="M266.66,-431.45C291.68,-439.45 327.38,-450.52 359,-459 367.33,-461.23 376.17,-463.45 384.86,-465.53"/>
<polygon fill="#63b8ff" stroke="#63b8ff" points="383.78,-469.11 394.32,-468 385.39,-462.3 383.78,-469.11"/>
</a>
</g>
</g>
<!-- Node6 -->
<g id="Node000006" class="node">
<title>Node6</title>
<g id="a_Node000006"><a xlink:href="a00498.html#ga49e1c9ea3a6a543de5e0db0328595ab4" target="_top" xlink:title="Handles the fault trip by turning off the power control switching.">
<polygon fill="white" stroke="#666666" points="490.5,-450 393.5,-450 393.5,-430 490.5,-430 490.5,-450"/>
<text text-anchor="middle" x="442" y="-436.5" font-family="Helvetica,sans-Serif" font-size="10.00">Dev_Fault_Handler</text>
</a>
</g>
</g>
<!-- Node3&#45;&gt;Node6 -->
<g id="edge5_Node000003_Node000006" class="edge">
<title>Node3&#45;&gt;Node6</title>
<g id="a_edge5_Node000003_Node000006"><a xlink:title=" ">
<path fill="none" stroke="#63b8ff" d="M284.06,-425.55C313.6,-428.27 351.31,-431.74 382.36,-434.6"/>
<polygon fill="#63b8ff" stroke="#63b8ff" points="381.76,-438.15 392.04,-435.58 382.4,-431.18 381.76,-438.15"/>
</a>
</g>
</g>
<!-- Node11 -->
<g id="Node000011" class="node">
<title>Node11</title>
<g id="a_Node000011"><a xlink:href="a00499.html#ga1a12d5b7c5b1f234c50ea2214e91fcfc" target="_top" xlink:title="This function compares the fault source value with the threshold limits and sets (or) resets the faul...">
<polygon fill="white" stroke="#666666" points="490.88,-412 393.12,-412 393.12,-392 490.88,-392 490.88,-412"/>
<text text-anchor="middle" x="442" y="-398.5" font-family="Helvetica,sans-Serif" font-size="10.00">FAULT_CheckMax</text>
</a>
</g>
</g>
<!-- Node3&#45;&gt;Node11 -->
<g id="edge10_Node000003_Node000011" class="edge">
<title>Node3&#45;&gt;Node11</title>
<g id="a_edge10_Node000003_Node000011"><a xlink:title=" ">
<path fill="none" stroke="#63b8ff" d="M284.06,-416.45C313.5,-413.74 351.04,-410.28 382.02,-407.43"/>
<polygon fill="#63b8ff" stroke="#63b8ff" points="382.05,-410.85 391.68,-406.45 381.4,-403.88 382.05,-410.85"/>
</a>
</g>
</g>
<!-- Node12 -->
<g id="Node000012" class="node">
<title>Node12</title>
<g id="a_Node000012"><a xlink:href="a00499.html#gabe4788eb1b8be3ad755eb7daf6bba295" target="_top" xlink:title="This function compares the fault source value with the threshold limits and sets (or) resets the faul...">
<polygon fill="white" stroke="#666666" points="489.38,-374 394.62,-374 394.62,-354 489.38,-354 489.38,-374"/>
<text text-anchor="middle" x="442" y="-360.5" font-family="Helvetica,sans-Serif" font-size="10.00">FAULT_CheckMin</text>
</a>
</g>
</g>
<!-- Node3&#45;&gt;Node12 -->
<g id="edge11_Node000003_Node000012" class="edge">
<title>Node3&#45;&gt;Node12</title>
<g id="a_edge11_Node000003_Node000012"><a xlink:title=" ">
<path fill="none" stroke="#63b8ff" d="M266.66,-410.55C291.68,-402.55 327.38,-391.48 359,-383 367.04,-380.84 375.56,-378.71 383.95,-376.69"/>
<polygon fill="#63b8ff" stroke="#63b8ff" points="384.54,-379.91 393.46,-374.2 382.92,-373.1 384.54,-379.91"/>
</a>
</g>
</g>
<!-- Node7 -->
<g id="Node000007" class="node">
<title>Node7</title>
<g id="a_Node000007"><a xlink:href="a00491.html#ga209e7835d32aaf5a402b470b61284bdf" target="_top" xlink:title="Disable the PWM output.">
<polygon fill="white" stroke="#666666" points="697,-440 561,-440 561,-420 697,-420 697,-440"/>
<text text-anchor="middle" x="629" y="-426.5" font-family="Helvetica,sans-Serif" font-size="10.00">Dev_PwrCtrl_PWM_Disable</text>
</a>
</g>
</g>
<!-- Node6&#45;&gt;Node7 -->
<g id="edge6_Node000006_Node000007" class="edge">
<title>Node6&#45;&gt;Node7</title>
<g id="a_edge6_Node000006_Node000007"><a xlink:title=" ">
<path fill="none" stroke="#63b8ff" d="M490.64,-437.42C508.7,-436.45 529.77,-435.31 549.91,-434.22"/>
<polygon fill="#63b8ff" stroke="#63b8ff" points="549.85,-437.68 559.65,-433.64 549.47,-430.69 549.85,-437.68"/>
</a>
</g>
</g>
<!-- Node8 -->
<g id="Node000008" class="node">
<title>Node8</title>
<g id="a_Node000008"><a xlink:href="a00516.html#ga531b59d8823e3ebda2da60f48582bcf3" target="_top" xlink:title="This inline function enables PWM override on PWMH output for specific PWM generator selected by the a...">
<polygon fill="white" stroke="#666666" points="873.5,-469 742.75,-469 742.75,-449 873.5,-449 873.5,-469"/>
<text text-anchor="middle" x="808.12" y="-455.5" font-family="Helvetica,sans-Serif" font-size="10.00">PWM_OverrideHighEnable</text>
</a>
</g>
</g>
<!-- Node7&#45;&gt;Node8 -->
<g id="edge7_Node000007_Node000008" class="edge">
<title>Node7&#45;&gt;Node8</title>
<g id="a_edge7_Node000007_Node000008"><a xlink:title=" ">
<path fill="none" stroke="#63b8ff" d="M693.95,-440.47C706.49,-442.52 719.74,-444.69 732.6,-446.8"/>
<polygon fill="#63b8ff" stroke="#63b8ff" points="731.84,-450.38 742.27,-448.55 732.97,-443.48 731.84,-450.38"/>
</a>
</g>
</g>
<!-- Node9 -->
<g id="Node000009" class="node">
<title>Node9</title>
<g id="a_Node000009"><a xlink:href="a00516.html#ga2548ca8feda75ba6ab784280679da6ae" target="_top" xlink:title="This inline function enables PWM override on PWML output for specific PWM generator selected by the a...">
<polygon fill="white" stroke="#666666" points="872.38,-431 743.88,-431 743.88,-411 872.38,-411 872.38,-431"/>
<text text-anchor="middle" x="808.12" y="-417.5" font-family="Helvetica,sans-Serif" font-size="10.00">PWM_OverrideLowEnable</text>
</a>
</g>
</g>
<!-- Node7&#45;&gt;Node9 -->
<g id="edge8_Node000007_Node000009" class="edge">
<title>Node7&#45;&gt;Node9</title>
<g id="a_edge8_Node000007_Node000009"><a xlink:title=" ">
<path fill="none" stroke="#63b8ff" d="M697.47,-426.57C709.07,-425.98 721.19,-425.37 732.95,-424.77"/>
<polygon fill="#63b8ff" stroke="#63b8ff" points="732.83,-428.23 742.64,-424.23 732.47,-421.24 732.83,-428.23"/>
</a>
</g>
</g>
<!-- Node10 -->
<g id="Node000010" class="node">
<title>Node10</title>
<g id="a_Node000010"><a xlink:href="a00516.html#ga83e780358618114f0d424ca7467cf751" target="_top" xlink:title="This inline function requests to update the data registers for specific PWM generator selected by the...">
<polygon fill="white" stroke="#666666" points="883.25,-374 733,-374 733,-354 883.25,-354 883.25,-374"/>
<text text-anchor="middle" x="808.12" y="-360.5" font-family="Helvetica,sans-Serif" font-size="10.00">PWM_SoftwareUpdateRequest</text>
</a>
</g>
</g>
<!-- Node7&#45;&gt;Node10 -->
<g id="edge9_Node000007_Node000010" class="edge">
<title>Node7&#45;&gt;Node10</title>
<g id="a_edge9_Node000007_Node000010"><a xlink:title=" ">
<path fill="none" stroke="#63b8ff" d="M658.07,-419.54C687.99,-408.39 735.58,-390.66 768.91,-378.24"/>
<polygon fill="#63b8ff" stroke="#63b8ff" points="770.04,-381.18 778.19,-374.41 767.6,-374.62 770.04,-381.18"/>
</a>
</g>
</g>
<!-- Node14 -->
<g id="Node000014" class="node">
<title>Node14</title>
<g id="a_Node000014"><a xlink:href="a00490.html#gafc6207e90c0346f42233f3136516c27e" target="_top" xlink:title="Updates the Adaptive gain for the power converter control loop.">
<polygon fill="white" stroke="#666666" points="507.38,-108 376.62,-108 376.62,-76 507.38,-76 507.38,-108"/>
<text text-anchor="start" x="384.62" y="-94.5" font-family="Helvetica,sans-Serif" font-size="10.00">Dev_PwrCtrl_AdaptiveGain</text>
<text text-anchor="middle" x="442" y="-82.5" font-family="Helvetica,sans-Serif" font-size="10.00">Update</text>
</a>
</g>
</g>
<!-- Node13&#45;&gt;Node14 -->
<g id="edge13_Node000013_Node000014" class="edge">
<title>Node13&#45;&gt;Node14</title>
<g id="a_edge13_Node000013_Node000014"><a xlink:title=" ">
<path fill="none" stroke="#63b8ff" d="M302.67,-172.5C309.83,-169.61 316.76,-166.14 323,-162 344.34,-147.84 337.8,-131.38 359,-117 361.4,-115.37 363.91,-113.85 366.5,-112.42"/>
<polygon fill="#63b8ff" stroke="#63b8ff" points="367.74,-115.22 375.16,-107.66 364.65,-108.94 367.74,-115.22"/>
</a>
</g>
</g>
<!-- Node16 -->
<g id="Node000016" class="node">
<title>Node16</title>
<g id="a_Node000016"><a xlink:href="a00353.html#ac4c8852561395f2969c08ff062325e03" target="_top" xlink:title=" ">
<polygon fill="white" stroke="#666666" points="514.12,-58 369.88,-58 369.88,-38 514.12,-38 514.12,-58"/>
<text text-anchor="middle" x="442" y="-44.5" font-family="Helvetica,sans-Serif" font-size="10.00">SMPS_Controller2P2ZUpdate</text>
</a>
</g>
</g>
<!-- Node15&#45;&gt;Node16 -->
<g id="edge15_Node000015_Node000016" class="edge">
<title>Node15&#45;&gt;Node16</title>
<g id="a_edge15_Node000015_Node000016"><a xlink:title=" ">
<path fill="none" stroke="#63b8ff" d="M296.69,-124.78C305.94,-121.47 315.03,-117.29 323,-112 344.34,-97.84 337.33,-80.65 359,-67 361.47,-65.45 364.04,-64.02 366.7,-62.71"/>
<polygon fill="#63b8ff" stroke="#63b8ff" points="367.82,-65.62 375.63,-58.46 365.06,-59.18 367.82,-65.62"/>
</a>
</g>
</g>
<!-- Node17 -->
<g id="Node000017" class="node">
<title>Node17</title>
<g id="a_Node000017"><a xlink:href="a00353.html#a4fd6e889896907ceaae34b73435d5627" target="_top" xlink:title=" ">
<polygon fill="white" stroke="#666666" points="525,-20 359,-20 359,0 525,0 525,-20"/>
<text text-anchor="middle" x="442" y="-6.5" font-family="Helvetica,sans-Serif" font-size="10.00">XFT_SMPS_Controller2P2ZUpdate</text>
</a>
</g>
</g>
<!-- Node15&#45;&gt;Node17 -->
<g id="edge16_Node000015_Node000017" class="edge">
<title>Node15&#45;&gt;Node17</title>
<g id="a_edge16_Node000015_Node000017"><a xlink:title=" ">
<path fill="none" stroke="#63b8ff" d="M296.68,-127.07C306.25,-123.49 315.44,-118.61 323,-112 353.27,-85.53 328.11,-54.74 359,-29 360.43,-27.81 361.92,-26.69 363.46,-25.64"/>
<polygon fill="#63b8ff" stroke="#63b8ff" points="364.82,-28.32 371.76,-20.33 361.34,-22.25 364.82,-28.32"/>
</a>
</g>
</g>
<!-- Node21&#45;&gt;Node10 -->
<g id="edge25_Node000021_Node000010" class="edge">
<title>Node21&#45;&gt;Node10</title>
<g id="a_edge25_Node000021_Node000010"><a xlink:title=" ">
<path fill="none" stroke="#63b8ff" d="M247.48,-241.44C269.06,-258.36 314.59,-291.41 359,-307 424.08,-329.84 611.28,-348.2 722.07,-357.46"/>
<polygon fill="#63b8ff" stroke="#63b8ff" points="721.62,-361.02 731.87,-358.35 722.19,-354.04 721.62,-361.02"/>
</a>
</g>
</g>
<!-- Node22 -->
<g id="Node000022" class="node">
<title>Node22</title>
<g id="a_Node000022"><a xlink:href="a00516.html#gaf368256a569a5a9e12f85f84d7d42287" target="_top" xlink:title="This inline function updates PWM Deadtime high register with the requested value for a specific PWM g...">
<polygon fill="white" stroke="#666666" points="504,-298 380,-298 380,-278 504,-278 504,-298"/>
<text text-anchor="middle" x="442" y="-284.5" font-family="Helvetica,sans-Serif" font-size="10.00">PWM_DeadTimeHighSet</text>
</a>
</g>
</g>
<!-- Node21&#45;&gt;Node22 -->
<g id="edge21_Node000021_Node000022" class="edge">
<title>Node21&#45;&gt;Node22</title>
<g id="a_edge21_Node000021_Node000022"><a xlink:title=" ">
<path fill="none" stroke="#63b8ff" d="M266.66,-241.45C291.68,-249.45 327.38,-260.52 359,-269 366.57,-271.03 374.56,-273.04 382.48,-274.96"/>
<polygon fill="#63b8ff" stroke="#63b8ff" points="381.63,-278.59 392.17,-277.5 383.25,-271.78 381.63,-278.59"/>
</a>
</g>
</g>
<!-- Node23 -->
<g id="Node000023" class="node">
<title>Node23</title>
<g id="a_Node000023"><a xlink:href="a00516.html#ga124426b28426beb53948e9b57319ab4b" target="_top" xlink:title="This inline function updates PWM Deadtime low register with the requested value for a specific PWM ge...">
<polygon fill="white" stroke="#666666" points="502.88,-260 381.12,-260 381.12,-240 502.88,-240 502.88,-260"/>
<text text-anchor="middle" x="442" y="-246.5" font-family="Helvetica,sans-Serif" font-size="10.00">PWM_DeadTimeLowSet</text>
</a>
</g>
</g>
<!-- Node21&#45;&gt;Node23 -->
<g id="edge22_Node000021_Node000023" class="edge">
<title>Node21&#45;&gt;Node23</title>
<g id="a_edge22_Node000021_Node000023"><a xlink:title=" ">
<path fill="none" stroke="#63b8ff" d="M301.34,-237.14C323.31,-239.16 347.8,-241.42 370.06,-243.47"/>
<polygon fill="#63b8ff" stroke="#63b8ff" points="369.51,-247.03 379.79,-244.46 370.15,-240.05 369.51,-247.03"/>
</a>
</g>
</g>
<!-- Node24 -->
<g id="Node000024" class="node">
<title>Node24</title>
<g id="a_Node000024"><a xlink:href="a00516.html#ga37968a783e44cd80643478d2b559dbf4" target="_top" xlink:title="This inline function sets the PWM generator specific duty cycle register.">
<polygon fill="white" stroke="#666666" points="495,-222 389,-222 389,-202 495,-202 495,-222"/>
<text text-anchor="middle" x="442" y="-208.5" font-family="Helvetica,sans-Serif" font-size="10.00">PWM_DutyCycleSet</text>
</a>
</g>
</g>
<!-- Node21&#45;&gt;Node24 -->
<g id="edge23_Node000021_Node000024" class="edge">
<title>Node21&#45;&gt;Node24</title>
<g id="a_edge23_Node000021_Node000024"><a xlink:title=" ">
<path fill="none" stroke="#63b8ff" d="M301.34,-224.86C325.85,-222.6 353.51,-220.05 377.71,-217.83"/>
<polygon fill="#63b8ff" stroke="#63b8ff" points="377.93,-221.23 387.56,-216.83 377.29,-214.26 377.93,-221.23"/>
</a>
</g>
</g>
<!-- Node25 -->
<g id="Node000025" class="node">
<title>Node25</title>
<g id="a_Node000025"><a xlink:href="a00516.html#gada46160823b0892a1af14a17c5ab516e" target="_top" xlink:title="This inline function sets the period value in count for the PWM generator specific Time Base.">
<polygon fill="white" stroke="#666666" points="486.38,-184 397.62,-184 397.62,-164 486.38,-164 486.38,-184"/>
<text text-anchor="middle" x="442" y="-170.5" font-family="Helvetica,sans-Serif" font-size="10.00">PWM_PeriodSet</text>
</a>
</g>
</g>
<!-- Node21&#45;&gt;Node25 -->
<g id="edge24_Node000021_Node000025" class="edge">
<title>Node21&#45;&gt;Node25</title>
<g id="a_edge24_Node000021_Node000025"><a xlink:title=" ">
<path fill="none" stroke="#63b8ff" d="M294.21,-220.53C303.96,-218.15 313.86,-215.32 323,-212 340,-205.82 342.05,-199.32 359,-193 367.85,-189.7 377.47,-186.86 386.89,-184.45"/>
<polygon fill="#63b8ff" stroke="#63b8ff" points="387.5,-187.66 396.4,-181.91 385.86,-180.85 387.5,-187.66"/>
</a>
</g>
</g>
<!-- Node26 -->
<g id="Node000026" class="node">
<title>Node26</title>
<g id="a_Node000026"><a xlink:href="a00516.html#gacc5575148a6e8da6577d9be9e20541ce" target="_top" xlink:title="This inline function sets the Trigger C compare value in count for a specific PWM generator selected ...">
<polygon fill="white" stroke="#666666" points="522.38,-146 361.62,-146 361.62,-126 522.38,-126 522.38,-146"/>
<text text-anchor="middle" x="442" y="-132.5" font-family="Helvetica,sans-Serif" font-size="10.00">PWM_TriggerCCompareValueSet</text>
</a>
</g>
</g>
<!-- Node21&#45;&gt;Node26 -->
<g id="edge26_Node000021_Node000026" class="edge">
<title>Node21&#45;&gt;Node26</title>
<g id="a_edge26_Node000021_Node000026"><a xlink:title=" ">
<path fill="none" stroke="#63b8ff" d="M301.25,-222.78C308.98,-220.09 316.44,-216.58 323,-212 347.57,-194.84 334.57,-172.35 359,-155 360.98,-153.59 363.06,-152.28 365.2,-151.07"/>
<polygon fill="#63b8ff" stroke="#63b8ff" points="366.49,-153.85 373.97,-146.35 363.45,-147.55 366.49,-153.85"/>
</a>
</g>
</g>
<!-- Node27&#45;&gt;Node2 -->
<g id="edge30_Node000027_Node000002" class="edge">
<title>Node27&#45;&gt;Node2</title>
<g id="a_edge30_Node000027_Node000002"><a xlink:title=" ">
<path fill="none" stroke="#63b8ff" d="M266.66,-583.45C291.68,-591.45 327.38,-602.52 359,-611 366.57,-613.03 374.56,-615.04 382.48,-616.96"/>
<polygon fill="#63b8ff" stroke="#63b8ff" points="381.63,-620.59 392.17,-619.5 383.25,-613.78 381.63,-620.59"/>
</a>
</g>
</g>
<!-- Node28 -->
<g id="Node000028" class="node">
<title>Node28</title>
<g id="a_Node000028"><a xlink:href="a00510.html#gaf4b6f81a05012533b633a78dad7b6a98" target="_top" xlink:title="Returns the conversion value for the channel selected.">
<polygon fill="white" stroke="#666666" points="510.75,-602 373.25,-602 373.25,-582 510.75,-582 510.75,-602"/>
<text text-anchor="middle" x="442" y="-588.5" font-family="Helvetica,sans-Serif" font-size="10.00">ADC1_ConversionResultGet</text>
</a>
</g>
</g>
<!-- Node27&#45;&gt;Node28 -->
<g id="edge28_Node000027_Node000028" class="edge">
<title>Node27&#45;&gt;Node28</title>
<g id="a_edge28_Node000027_Node000028"><a xlink:title=" ">
<path fill="none" stroke="#63b8ff" d="M323.34,-581.17C336.19,-582.35 349.34,-583.56 361.97,-584.72"/>
<polygon fill="#63b8ff" stroke="#63b8ff" points="361.65,-588.3 371.92,-585.73 362.29,-581.33 361.65,-588.3"/>
</a>
</g>
</g>
<!-- Node29 -->
<g id="Node000029" class="node">
<title>Node29</title>
<g id="a_Node000029"><a xlink:href="a00510.html#ga0a80bc862861bd96a1034b39589adf9f" target="_top" xlink:title="This inline function returns the status of conversion.This function is used to determine if conversio...">
<polygon fill="white" stroke="#666666" points="513.38,-564 370.62,-564 370.62,-544 513.38,-544 513.38,-564"/>
<text text-anchor="middle" x="442" y="-550.5" font-family="Helvetica,sans-Serif" font-size="10.00">ADC1_IsConversionComplete</text>
</a>
</g>
</g>
<!-- Node27&#45;&gt;Node29 -->
<g id="edge29_Node000027_Node000029" class="edge">
<title>Node27&#45;&gt;Node29</title>
<g id="a_edge29_Node000027_Node000029"><a xlink:title=" ">
<path fill="none" stroke="#63b8ff" d="M323.34,-564.83C335.39,-563.72 347.7,-562.59 359.61,-561.49"/>
<polygon fill="#63b8ff" stroke="#63b8ff" points="359.77,-564.9 369.41,-560.5 359.13,-557.93 359.77,-564.9"/>
</a>
</g>
</g>
</g>
</svg>

<g id="navigator" transform="translate(0 0)" fill="#404254">
  <rect fill="#f2f5e9" fill-opacity="0.5" stroke="#606060" stroke-width=".5" x="0" y="0" width="60" height="60"/>
  <use id="zoomplus" xlink:href="#zoomPlus" x="17" y="9" onmousedown="handleZoom(evt,'in')"/>
  <use id="zoomminus" xlink:href="#zoomMin" x="42" y="9" onmousedown="handleZoom(evt,'out')"/>
  <use id="reset" xlink:href="#resetDef" x="30" y="36" onmousedown="handleReset()"/>
   <use id="arrowup" xlink:href="#arrowUp" x="0" y="0" onmousedown="handlePan(0,-1)"/>
  <use id="arrowright" xlink:href="#arrowRight" x="0" y="0" onmousedown="handlePan(1,0)"/>
  <use id="arrowdown" xlink:href="#arrowDown" x="0" y="0" onmousedown="handlePan(0,1)"/>
  <use id="arrowleft" xlink:href="#arrowLeft" x="0" y="0" onmousedown="handlePan(-1,0)"/>
</g>
<svg viewBox="0 0 15 15" width="100%" height="30px" preserveAspectRatio="xMaxYMin meet">
 <g id="arrow_out" transform="scale(0.3 0.3)">
  <a xlink:href="a00490_gae32c9e5ed4d1fb98fc13b26601782c10_cgraph_org.svg" target="_base">
   <rect id="button" ry="5" rx="5" y="6" x="6" height="38" width="38"
        fill="#f2f5e9" fill-opacity="0.5" stroke="#606060" stroke-width="1.0"/>
   <path id="arrow"
     d="M 11.500037,31.436501 C 11.940474,20.09759 22.043105,11.32322 32.158766,21.979434 L 37.068811,17.246167 C 37.068811,17.246167 37.088388,32 37.088388,32 L 22.160133,31.978069 C 22.160133,31.978069 26.997745,27.140456 26.997745,27.140456 C 18.528582,18.264221 13.291696,25.230495 11.500037,31.436501 z"
     style="fill:#404040;"/>
  </a>
 </g>
</svg>

<style type='text/css'>
<![CDATA[
[data-mouse-over-selected='false'] { opacity: 0.7; }
[data-mouse-over-selected='true']  { opacity: 1.0; }
]]>
</style>
<script type="application/ecmascript"><![CDATA[
document.addEventListener('DOMContentLoaded', (event) => {
  highlightEdges();
  highlightAdjacentNodes();
});
]]></script>
</svg>
