<?xml version="1.0" encoding="UTF-8" standalone="no"?>
<!DOCTYPE svg PUBLIC "-//W3C//DTD SVG 1.1//EN"
 "http://www.w3.org/Graphics/SVG/1.1/DTD/svg11.dtd">
<!-- Generated by graphviz version 8.1.0 (20230707.0739)
 -->
<!-- Title: dspic33ck&#45;dab.X/sources/pwrctrl/dcdt/pwrctrl_dcdt.h Pages: 1 -->
<svg width="1229pt" height="176pt"
 viewBox="0.00 0.00 1228.75 176.00" xmlns="http://www.w3.org/2000/svg" xmlns:xlink="http://www.w3.org/1999/xlink">
<g id="graph0" class="graph" transform="scale(1 1) rotate(0) translate(4 172)">
<title>dspic33ck&#45;dab.X/sources/pwrctrl/dcdt/pwrctrl_dcdt.h</title>
<!-- Node1 -->
<g id="Node000001" class="node">
<title>Node1</title>
<g id="a_Node000001"><a xlink:title="Contains public functions and data types relevant for DCDT file interface.">
<polygon fill="#999999" stroke="#666666" points="498,-168 373.25,-168 373.25,-124 498,-124 498,-168"/>
<text text-anchor="start" x="381.25" y="-154.5" font-family="Helvetica,sans-Serif" font-size="10.00">dspic33ck&#45;dab.X/sources</text>
<text text-anchor="start" x="381.25" y="-142.5" font-family="Helvetica,sans-Serif" font-size="10.00">/pwrctrl/dcdt/pwrctrl</text>
<text text-anchor="middle" x="435.62" y="-130.5" font-family="Helvetica,sans-Serif" font-size="10.00">_dcdt.h</text>
</a>
</g>
</g>
<!-- Node2 -->
<g id="Node000002" class="node">
<title>Node2</title>
<g id="a_Node000002"><a xlink:title=" ">
<polygon fill="#e0e0e0" stroke="#999999" points="45.25,-82 0,-82 0,-62 45.25,-62 45.25,-82"/>
<text text-anchor="middle" x="22.62" y="-68.5" font-family="Helvetica,sans-Serif" font-size="10.00">stdio.h</text>
</a>
</g>
</g>
<!-- Node1&#45;&gt;Node2 -->
<g id="edge1_Node000001_Node000002" class="edge">
<title>Node1&#45;&gt;Node2</title>
<g id="a_edge1_Node000001_Node000002"><a xlink:title=" ">
<path fill="none" stroke="#63b8ff" d="M372.82,-140.02C297.39,-133 167.55,-117.61 59.62,-88 57.7,-87.47 55.75,-86.87 53.79,-86.23"/>
<polygon fill="#63b8ff" stroke="#63b8ff" points="55.05,-82.6 44.46,-82.44 52.64,-89.17 55.05,-82.6"/>
</a>
</g>
</g>
<!-- Node3 -->
<g id="Node000003" class="node">
<title>Node3</title>
<g id="a_Node000003"><a xlink:title=" ">
<polygon fill="#e0e0e0" stroke="#999999" points="128,-20 93.25,-20 93.25,0 128,0 128,-20"/>
<text text-anchor="middle" x="110.62" y="-6.5" font-family="Helvetica,sans-Serif" font-size="10.00">xc.h</text>
</a>
</g>
</g>
<!-- Node1&#45;&gt;Node3 -->
<g id="edge2_Node000001_Node000003" class="edge">
<title>Node1&#45;&gt;Node3</title>
<g id="a_edge2_Node000001_Node000003"><a xlink:title=" ">
<path fill="none" stroke="#63b8ff" d="M372.91,-143.9C283.92,-140.85 127.85,-129.56 92.62,-88 78.75,-71.63 88.53,-46.54 98.25,-29.48"/>
<polygon fill="#63b8ff" stroke="#63b8ff" points="101.52,-31.85 103.79,-21.5 95.56,-28.18 101.52,-31.85"/>
</a>
</g>
</g>
<!-- Node4 -->
<g id="Node000004" class="node">
<title>Node4</title>
<g id="a_Node000004"><a xlink:title=" ">
<polygon fill="#e0e0e0" stroke="#999999" points="198.75,-20 150.5,-20 150.5,0 198.75,0 198.75,-20"/>
<text text-anchor="middle" x="174.62" y="-6.5" font-family="Helvetica,sans-Serif" font-size="10.00">stdint.h</text>
</a>
</g>
</g>
<!-- Node1&#45;&gt;Node4 -->
<g id="edge3_Node000001_Node000004" class="edge">
<title>Node1&#45;&gt;Node4</title>
<g id="a_edge3_Node000001_Node000004"><a xlink:title=" ">
<path fill="none" stroke="#63b8ff" d="M373.12,-138.33C330.25,-131.3 273.72,-116.99 231.62,-88 210.18,-73.24 193.65,-47.74 184.04,-30.16"/>
<polygon fill="#63b8ff" stroke="#63b8ff" points="186.69,-28.66 178.97,-21.4 180.48,-31.89 186.69,-28.66"/>
</a>
</g>
</g>
<!-- Node5 -->
<g id="Node000005" class="node">
<title>Node5</title>
<g id="a_Node000005"><a xlink:href="a00458.html" target="_top" xlink:title="Contains the DCDT generated functions and data types.">
<polygon fill="white" stroke="#666666" points="184,-82 101.25,-82 101.25,-62 184,-62 184,-82"/>
<text text-anchor="middle" x="142.62" y="-68.5" font-family="Helvetica,sans-Serif" font-size="10.00">smps_control.h</text>
</a>
</g>
</g>
<!-- Node1&#45;&gt;Node5 -->
<g id="edge4_Node000001_Node000005" class="edge">
<title>Node1&#45;&gt;Node5</title>
<g id="a_edge4_Node000001_Node000005"><a xlink:title=" ">
<path fill="none" stroke="#63b8ff" d="M372.86,-130.53C324.79,-119.31 256.9,-103.18 197.62,-88 194.22,-87.13 190.7,-86.21 187.17,-85.27"/>
<polygon fill="#63b8ff" stroke="#63b8ff" points="188.18,-81.65 177.61,-82.45 186.37,-88.42 188.18,-81.65"/>
</a>
</g>
</g>
<!-- Node6 -->
<g id="Node000006" class="node">
<title>Node6</title>
<g id="a_Node000006"><a xlink:href="a00077_source.html" target="_top" xlink:title=" ">
<polygon fill="white" stroke="#666666" points="355.12,-88 240.12,-88 240.12,-56 355.12,-56 355.12,-88"/>
<text text-anchor="start" x="248.12" y="-74.5" font-family="Helvetica,sans-Serif" font-size="10.00">test1/dcdt_generated</text>
<text text-anchor="middle" x="297.62" y="-62.5" font-family="Helvetica,sans-Serif" font-size="10.00">_code/pid_psvo_dcdt.h</text>
</a>
</g>
</g>
<!-- Node1&#45;&gt;Node6 -->
<g id="edge7_Node000001_Node000006" class="edge">
<title>Node1&#45;&gt;Node6</title>
<g id="a_edge7_Node000001_Node000006"><a xlink:title=" ">
<path fill="none" stroke="#63b8ff" d="M394.59,-123.59C376.36,-114.08 354.99,-102.93 336.96,-93.52"/>
<polygon fill="#63b8ff" stroke="#63b8ff" points="338.81,-90.02 328.32,-88.5 335.57,-96.22 338.81,-90.02"/>
</a>
</g>
</g>
<!-- Node7 -->
<g id="Node000007" class="node">
<title>Node7</title>
<g id="a_Node000007"><a xlink:href="a00053.html" target="_top" xlink:title="Generated by the Microchip Digital Compensator Design Tool (DCDT), contains system summaries and digi...">
<polygon fill="white" stroke="#666666" points="498,-88 373.25,-88 373.25,-56 498,-56 498,-88"/>
<text text-anchor="start" x="381.25" y="-74.5" font-family="Helvetica,sans-Serif" font-size="10.00">dab_psio/dcdt_generated</text>
<text text-anchor="middle" x="435.62" y="-62.5" font-family="Helvetica,sans-Serif" font-size="10.00">_code/dab_psio_dcdt.h</text>
</a>
</g>
</g>
<!-- Node1&#45;&gt;Node7 -->
<g id="edge8_Node000001_Node000007" class="edge">
<title>Node1&#45;&gt;Node7</title>
<g id="a_edge8_Node000001_Node000007"><a xlink:title=" ">
<path fill="none" stroke="#63b8ff" d="M435.62,-123.79C435.62,-116.01 435.62,-107.11 435.62,-98.96"/>
<polygon fill="#63b8ff" stroke="#63b8ff" points="439.13,-99.13 435.62,-89.13 432.13,-99.13 439.13,-99.13"/>
</a>
</g>
</g>
<!-- Node8 -->
<g id="Node000008" class="node">
<title>Node8</title>
<g id="a_Node000008"><a xlink:href="a00062.html" target="_top" xlink:title="Generated by the Microchip Digital Compensator Design Tool (DCDT), contains system summaries and digi...">
<polygon fill="white" stroke="#666666" points="643.5,-88 515.75,-88 515.75,-56 643.5,-56 643.5,-88"/>
<text text-anchor="start" x="523.75" y="-74.5" font-family="Helvetica,sans-Serif" font-size="10.00">dab_pspo/dcdt_generated</text>
<text text-anchor="middle" x="579.62" y="-62.5" font-family="Helvetica,sans-Serif" font-size="10.00">_code/dab_pspo_dcdt.h</text>
</a>
</g>
</g>
<!-- Node1&#45;&gt;Node8 -->
<g id="edge9_Node000001_Node000008" class="edge">
<title>Node1&#45;&gt;Node8</title>
<g id="a_edge9_Node000001_Node000008"><a xlink:title=" ">
<path fill="none" stroke="#63b8ff" d="M478.44,-123.59C497.55,-114.04 519.97,-102.83 538.84,-93.39"/>
<polygon fill="#63b8ff" stroke="#63b8ff" points="540.25,-96.1 547.63,-88.5 537.12,-89.84 540.25,-96.1"/>
</a>
</g>
</g>
<!-- Node9 -->
<g id="Node000009" class="node">
<title>Node9</title>
<g id="a_Node000009"><a xlink:href="a00065_source.html" target="_top" xlink:title=" ">
<polygon fill="white" stroke="#666666" points="787.75,-88 661.5,-88 661.5,-56 787.75,-56 787.75,-88"/>
<text text-anchor="start" x="669.5" y="-74.5" font-family="Helvetica,sans-Serif" font-size="10.00">dab_psvo/dcdt_generated</text>
<text text-anchor="middle" x="724.62" y="-62.5" font-family="Helvetica,sans-Serif" font-size="10.00">_code/dab_psvo_dcdt.h</text>
</a>
</g>
</g>
<!-- Node1&#45;&gt;Node9 -->
<g id="edge10_Node000001_Node000009" class="edge">
<title>Node1&#45;&gt;Node9</title>
<g id="a_edge10_Node000001_Node000009"><a xlink:title=" ">
<path fill="none" stroke="#63b8ff" d="M498.33,-129.38C543.55,-118.11 604.71,-102.87 652.05,-91.08"/>
<polygon fill="#63b8ff" stroke="#63b8ff" points="652.68,-94.28 661.54,-88.47 650.99,-87.49 652.68,-94.28"/>
</a>
</g>
</g>
<!-- Node10 -->
<g id="Node000010" class="node">
<title>Node10</title>
<g id="a_Node000010"><a xlink:href="a00068_source.html" target="_top" xlink:title=" ">
<polygon fill="white" stroke="#666666" points="931,-88 806.25,-88 806.25,-56 931,-56 931,-88"/>
<text text-anchor="start" x="814.25" y="-74.5" font-family="Helvetica,sans-Serif" font-size="10.00">dab_spio/dcdt_generated</text>
<text text-anchor="middle" x="868.62" y="-62.5" font-family="Helvetica,sans-Serif" font-size="10.00">_code/dab_spio_dcdt.h</text>
</a>
</g>
</g>
<!-- Node1&#45;&gt;Node10 -->
<g id="edge11_Node000001_Node000010" class="edge">
<title>Node1&#45;&gt;Node10</title>
<g id="a_edge11_Node000001_Node000010"><a xlink:title=" ">
<path fill="none" stroke="#63b8ff" d="M498.39,-136.04C568.27,-125.85 684.83,-108.22 795.17,-88.21"/>
<polygon fill="#63b8ff" stroke="#63b8ff" points="795.62,-91.51 804.83,-86.27 794.37,-84.62 795.62,-91.51"/>
</a>
</g>
</g>
<!-- Node11 -->
<g id="Node000011" class="node">
<title>Node11</title>
<g id="a_Node000011"><a xlink:href="a00071_source.html" target="_top" xlink:title=" ">
<polygon fill="white" stroke="#666666" points="1076.5,-88 948.75,-88 948.75,-56 1076.5,-56 1076.5,-88"/>
<text text-anchor="start" x="956.75" y="-74.5" font-family="Helvetica,sans-Serif" font-size="10.00">dab_sppo/dcdt_generated</text>
<text text-anchor="middle" x="1012.62" y="-62.5" font-family="Helvetica,sans-Serif" font-size="10.00">_code/dab_sppo_dcdt.h</text>
</a>
</g>
</g>
<!-- Node1&#45;&gt;Node11 -->
<g id="edge12_Node000001_Node000011" class="edge">
<title>Node1&#45;&gt;Node11</title>
<g id="a_edge12_Node000001_Node000011"><a xlink:title=" ">
<path fill="none" stroke="#63b8ff" d="M498.33,-139.74C591.85,-131.49 773.54,-113.9 937.8,-88.2"/>
<polygon fill="#63b8ff" stroke="#63b8ff" points="938.26,-91.51 947.59,-86.5 937.17,-84.6 938.26,-91.51"/>
</a>
</g>
</g>
<!-- Node12 -->
<g id="Node000012" class="node">
<title>Node12</title>
<g id="a_Node000012"><a xlink:href="a00074.html" target="_top" xlink:title="Generated by the Microchip Digital Compensator Design Tool (DCDT), contains system summaries and digi...">
<polygon fill="white" stroke="#666666" points="1220.75,-88 1094.5,-88 1094.5,-56 1220.75,-56 1220.75,-88"/>
<text text-anchor="start" x="1102.5" y="-74.5" font-family="Helvetica,sans-Serif" font-size="10.00">dab_spvo/dcdt_generated</text>
<text text-anchor="middle" x="1157.62" y="-62.5" font-family="Helvetica,sans-Serif" font-size="10.00">_code/dab_spvo_dcdt.h</text>
</a>
</g>
</g>
<!-- Node1&#45;&gt;Node12 -->
<g id="edge13_Node000001_Node000012" class="edge">
<title>Node1&#45;&gt;Node12</title>
<g id="a_edge13_Node000001_Node000012"><a xlink:title=" ">
<path fill="none" stroke="#63b8ff" d="M498.2,-141.97C612.56,-135.9 863.05,-120.13 1083.3,-88.24"/>
<polygon fill="#63b8ff" stroke="#63b8ff" points="1083.71,-91.57 1093.09,-86.66 1082.69,-84.64 1083.71,-91.57"/>
</a>
</g>
</g>
<!-- Node5&#45;&gt;Node3 -->
<g id="edge5_Node000005_Node000003" class="edge">
<title>Node5&#45;&gt;Node3</title>
<g id="a_edge5_Node000005_Node000003"><a xlink:title=" ">
<path fill="none" stroke="#63b8ff" d="M137.62,-61.62C133.09,-53.12 126.27,-40.33 120.62,-29.74"/>
<polygon fill="#63b8ff" stroke="#63b8ff" points="123.28,-28.29 115.49,-21.11 117.1,-31.58 123.28,-28.29"/>
</a>
</g>
</g>
<!-- Node5&#45;&gt;Node4 -->
<g id="edge6_Node000005_Node000004" class="edge">
<title>Node5&#45;&gt;Node4</title>
<g id="a_edge6_Node000005_Node000004"><a xlink:title=" ">
<path fill="none" stroke="#63b8ff" d="M147.62,-61.62C152.16,-53.12 158.98,-40.33 164.63,-29.74"/>
<polygon fill="#63b8ff" stroke="#63b8ff" points="168.15,-31.58 169.76,-21.11 161.97,-28.29 168.15,-31.58"/>
</a>
</g>
</g>
</g>
</svg>
