<?xml version="1.0" encoding="UTF-8" standalone="no"?>
<!DOCTYPE svg PUBLIC "-//W3C//DTD SVG 1.1//EN"
 "http://www.w3.org/Graphics/SVG/1.1/DTD/svg11.dtd">
<!-- Generated by graphviz version 8.1.0 (20230707.0739)
 -->
<!-- Title: Device Layer Pages: 1 -->
<svg width="246pt" height="142pt"
 viewBox="0.00 0.00 245.50 142.00" xmlns="http://www.w3.org/2000/svg" xmlns:xlink="http://www.w3.org/1999/xlink">

<svg id="main" version="1.1" xmlns="http://www.w3.org/2000/svg" xmlns:xlink="http://www.w3.org/1999/xlink" xml:space="preserve" onload="init(evt)">
<style type="text/css"><![CDATA[
.node, .edge {opacity: 0.7;}
.node.selected, .edge.selected {opacity: 1;}
.edge:hover path { stroke: red; }
.edge:hover polygon { stroke: red; fill: red; }
]]></style>
<script type="application/ecmascript" xlink:href="svg.min.js"/>
<svg id="graph" class="graph">
<g id="graph0" class="graph" transform="scale(1 1) rotate(0) translate(4 138)">
<title>Device Layer</title>
<!-- Node2 -->
<g id="Node000002" class="node">
<title>Node2</title>
<g id="a_Node000002"><a xlink:href="a00510.html" target="_top" xlink:title="The Current Sensor Calibration device layer is a proprietary user code utilized for configuring the s...">
<polygon fill="white" stroke="#666666" points="237.5,-134 107.5,-134 107.5,-114 237.5,-114 237.5,-134"/>
<text text-anchor="middle" x="172.5" y="-120.5" font-family="Helvetica,sans-Serif" font-size="10.00">Current Sensor Calibration</text>
</a>
</g>
</g>
<!-- Node3 -->
<g id="Node000003" class="node">
<title>Node3</title>
<g id="a_Node000003"><a xlink:href="a00511.html" target="_top" xlink:title="The Fan control device layer is a proprietary user code utilized for configuring the fan control prop...">
<polygon fill="white" stroke="#666666" points="205.62,-96 139.38,-96 139.38,-76 205.62,-76 205.62,-96"/>
<text text-anchor="middle" x="172.5" y="-82.5" font-family="Helvetica,sans-Serif" font-size="10.00">Fan Control</text>
</a>
</g>
</g>
<!-- Node1 -->
<g id="Node000001" class="node">
<title>Node1</title>
<g id="a_Node000001"><a xlink:title="Contains all the application tasks that will be executed.">
<polygon fill="#999999" stroke="#666666" points="71.5,-77 0,-77 0,-57 71.5,-57 71.5,-77"/>
<text text-anchor="middle" x="35.75" y="-63.5" font-family="Helvetica,sans-Serif" font-size="10.00">Device Layer</text>
</a>
</g>
</g>
<!-- Node1&#45;&gt;Node2 -->
<g id="edge1" class="edge">
<title>Node1&#45;&gt;Node2</title>
<path fill="none" stroke="black" d="M63.02,-82.77C76.08,-90.18 92.3,-98.74 107.5,-105 115.22,-108.18 123.65,-111.07 131.8,-113.59"/>
<polygon fill="black" stroke="black" points="65.12,-79.36 54.71,-77.39 61.62,-85.42 65.12,-79.36"/>
</g>
<!-- Node1&#45;&gt;Node3 -->
<g id="edge2" class="edge">
<title>Node1&#45;&gt;Node3</title>
<path fill="none" stroke="black" d="M82.66,-73.47C101.15,-76.08 122.05,-79.03 138.94,-81.41"/>
<polygon fill="black" stroke="black" points="83.19,-69.87 72.8,-71.94 82.22,-76.8 83.19,-69.87"/>
</g>
<!-- Node4 -->
<g id="Node000004" class="node">
<title>Node4</title>
<g id="a_Node000004"><a xlink:href="a00512.html" target="_top" xlink:title="The LED device layer is the proprietary user code used to configure and drive the on&#45;board debugging ...">
<polygon fill="white" stroke="#666666" points="207.5,-58 137.5,-58 137.5,-38 207.5,-38 207.5,-58"/>
<text text-anchor="middle" x="172.5" y="-44.5" font-family="Helvetica,sans-Serif" font-size="10.00">LED Display</text>
</a>
</g>
</g>
<!-- Node1&#45;&gt;Node4 -->
<g id="edge3" class="edge">
<title>Node1&#45;&gt;Node4</title>
<path fill="none" stroke="black" d="M82.57,-60.54C100.42,-58.02 120.52,-55.19 137.09,-52.85"/>
<polygon fill="black" stroke="black" points="82.22,-57.2 72.8,-62.06 83.19,-64.13 82.22,-57.2"/>
</g>
<!-- Node5 -->
<g id="Node000005" class="node">
<title>Node5</title>
<g id="a_Node000005"><a xlink:href="a00513.html" target="_top" xlink:title="The Temperature device layer is the proprietary user code used to configure and detect the board temp...">
<polygon fill="white" stroke="#666666" points="229.62,-20 115.38,-20 115.38,0 229.62,0 229.62,-20"/>
<text text-anchor="middle" x="172.5" y="-6.5" font-family="Helvetica,sans-Serif" font-size="10.00">Temperature Detection</text>
</a>
</g>
</g>
<!-- Node1&#45;&gt;Node5 -->
<g id="edge4" class="edge">
<title>Node1&#45;&gt;Node5</title>
<path fill="none" stroke="black" d="M63.02,-51.23C76.08,-43.82 92.3,-35.26 107.5,-29 115.22,-25.82 123.65,-22.93 131.8,-20.41"/>
<polygon fill="black" stroke="black" points="61.62,-48.58 54.71,-56.61 65.12,-54.64 61.62,-48.58"/>
</g>
</g>
</svg>
</svg>

<style type='text/css'>
<![CDATA[
[data-mouse-over-selected='false'] { opacity: 0.7; }
[data-mouse-over-selected='true']  { opacity: 1.0; }
]]>
</style>
<script type="application/ecmascript"><![CDATA[
document.addEventListener('DOMContentLoaded', (event) => {
  highlightEdges();
  highlightAdjacentNodes();
});
]]></script>
</svg>
