<?xml version="1.0" encoding="UTF-8" standalone="no"?>
<!DOCTYPE svg PUBLIC "-//W3C//DTD SVG 1.1//EN"
 "http://www.w3.org/Graphics/SVG/1.1/DTD/svg11.dtd">
<!-- Generated by graphviz version 8.1.0 (20230707.0739)
 -->
<!-- Title: CAN1_DlcToDataBytesGet Pages: 1 -->
<svg width="679pt" height="113pt"
 viewBox="0.00 0.00 678.75 113.00" xmlns="http://www.w3.org/2000/svg" xmlns:xlink="http://www.w3.org/1999/xlink">
<g id="graph0" class="graph" transform="scale(1 1) rotate(0) translate(4 109)">
<title>CAN1_DlcToDataBytesGet</title>
<!-- Node1 -->
<g id="Node000001" class="node">
<title>Node1</title>
<g id="a_Node000001"><a xlink:title="This function get the DLC enum based decimal value.">
<polygon fill="#999999" stroke="#666666" points="670.75,-48 537.75,-48 537.75,-28 670.75,-28 670.75,-48"/>
<text text-anchor="middle" x="604.25" y="-34.5" font-family="Helvetica,sans-Serif" font-size="10.00">CAN1_DlcToDataBytesGet</text>
</a>
</g>
</g>
<!-- Node2 -->
<g id="Node000002" class="node">
<title>Node2</title>
<g id="a_Node000002"><a xlink:href="a00511.html#gaa89329ca22f234476d55536c446b70e3" target="_top" xlink:title="This function read the message object from receive FIFO and update to the user &#160;&#160;message object point...">
<polygon fill="white" stroke="#666666" points="501.75,-86 354.5,-86 354.5,-66 501.75,-66 501.75,-86"/>
<text text-anchor="middle" x="428.12" y="-72.5" font-family="Helvetica,sans-Serif" font-size="10.00">CAN1_MessageReadFromFifo</text>
</a>
</g>
</g>
<!-- Node1&#45;&gt;Node2 -->
<g id="edge1_Node000001_Node000002" class="edge">
<title>Node1&#45;&gt;Node2</title>
<g id="a_edge1_Node000001_Node000002"><a xlink:title=" ">
<path fill="none" stroke="#63b8ff" d="M544.66,-50.79C522.65,-55.59 497.93,-60.99 477.01,-65.55"/>
<polygon fill="#63b8ff" stroke="#63b8ff" points="545.18,-54.04 554.21,-48.48 543.69,-47.2 545.18,-54.04"/>
</a>
</g>
</g>
<!-- Node6 -->
<g id="Node000006" class="node">
<title>Node6</title>
<g id="a_Node000006"><a xlink:href="a00511.html#ga0980f888cad241edaa859783bb4a89d7" target="_top" xlink:title="This function Read the message object from user input and update to the CAN1 TX FIFO.">
<polygon fill="white" stroke="#666666" points="496.12,-48 360.12,-48 360.12,-28 496.12,-28 496.12,-48"/>
<text text-anchor="middle" x="428.12" y="-34.5" font-family="Helvetica,sans-Serif" font-size="10.00">CAN1_MessageWriteToFifo</text>
</a>
</g>
</g>
<!-- Node1&#45;&gt;Node6 -->
<g id="edge5_Node000001_Node000006" class="edge">
<title>Node1&#45;&gt;Node6</title>
<g id="a_edge5_Node000001_Node000006"><a xlink:title=" ">
<path fill="none" stroke="#63b8ff" d="M526.63,-38C516.59,-38 506.36,-38 496.49,-38"/>
<polygon fill="#63b8ff" stroke="#63b8ff" points="526.42,-41.5 536.42,-38 526.42,-34.5 526.42,-41.5"/>
</a>
</g>
</g>
<!-- Node7 -->
<g id="Node000007" class="node">
<title>Node7</title>
<g id="a_Node000007"><a xlink:href="a00511.html#gad99c960d1ed589ce80aca873a90e068e" target="_top" xlink:title="Writes the CAN message object to specified transmit FIFO channel.">
<polygon fill="white" stroke="#666666" points="292.62,-20 208.38,-20 208.38,0 292.62,0 292.62,-20"/>
<text text-anchor="middle" x="250.5" y="-6.5" font-family="Helvetica,sans-Serif" font-size="10.00">CAN1_Transmit</text>
</a>
</g>
</g>
<!-- Node1&#45;&gt;Node7 -->
<g id="edge7_Node000001_Node000007" class="edge">
<title>Node1&#45;&gt;Node7</title>
<g id="a_edge7_Node000001_Node000007"><a xlink:title=" ">
<path fill="none" stroke="#63b8ff" d="M544.91,-25.54C530.84,-22.96 515.81,-20.56 501.75,-19 428.51,-10.87 342.55,-9.56 292.82,-9.6"/>
<polygon fill="#63b8ff" stroke="#63b8ff" points="543.98,-29.11 554.45,-27.54 545.28,-22.24 543.98,-29.11"/>
</a>
</g>
</g>
<!-- Node3 -->
<g id="Node000003" class="node">
<title>Node3</title>
<g id="a_Node000003"><a xlink:href="a00511.html#ga4fe1df4cd9f0ce122687dcfab0713b5b" target="_top" xlink:title="Reads the received single message object.">
<polygon fill="white" stroke="#666666" points="290.75,-105 210.25,-105 210.25,-85 290.75,-85 290.75,-105"/>
<text text-anchor="middle" x="250.5" y="-91.5" font-family="Helvetica,sans-Serif" font-size="10.00">CAN1_Receive</text>
</a>
</g>
</g>
<!-- Node2&#45;&gt;Node3 -->
<g id="edge2_Node000002_Node000003" class="edge">
<title>Node2&#45;&gt;Node3</title>
<g id="a_edge2_Node000002_Node000003"><a xlink:title=" ">
<path fill="none" stroke="#63b8ff" d="M343.43,-85.06C325.09,-87.04 306.51,-89.05 290.9,-90.74"/>
<polygon fill="#63b8ff" stroke="#63b8ff" points="343.6,-88.45 353.17,-83.89 342.85,-81.49 343.6,-88.45"/>
</a>
</g>
</g>
<!-- Node5 -->
<g id="Node000005" class="node">
<title>Node5</title>
<g id="a_Node000005"><a xlink:href="a00511.html#ga2c655a58965fff8578916b59bed47297" target="_top" xlink:title="Reads the received single message object from the CAN1 receive FIFO.">
<polygon fill="white" stroke="#666666" points="318.5,-67 182.5,-67 182.5,-47 318.5,-47 318.5,-67"/>
<text text-anchor="middle" x="250.5" y="-53.5" font-family="Helvetica,sans-Serif" font-size="10.00">CAN1_ReceiveMessageGet</text>
</a>
</g>
</g>
<!-- Node2&#45;&gt;Node5 -->
<g id="edge4_Node000002_Node000005" class="edge">
<title>Node2&#45;&gt;Node5</title>
<g id="a_edge4_Node000002_Node000005"><a xlink:title=" ">
<path fill="none" stroke="#63b8ff" d="M343.41,-66.94C335.19,-66.05 326.92,-65.16 318.89,-64.29"/>
<polygon fill="#63b8ff" stroke="#63b8ff" points="342.85,-70.51 353.17,-68.11 343.6,-63.55 342.85,-70.51"/>
</a>
</g>
</g>
<!-- Node4 -->
<g id="Node000004" class="node">
<title>Node4</title>
<g id="a_Node000004"><a xlink:href="a00482.html#ga5fb4f1d3c69d1871c10a2c0a0ad27f8a" target="_top" xlink:title=" ">
<polygon fill="white" stroke="#666666" points="146.5,-105 0,-105 0,-85 146.5,-85 146.5,-105"/>
<text text-anchor="middle" x="73.25" y="-91.5" font-family="Helvetica,sans-Serif" font-size="10.00">PBV_CAN_Receive_from_GUI</text>
</a>
</g>
</g>
<!-- Node3&#45;&gt;Node4 -->
<g id="edge3_Node000003_Node000004" class="edge">
<title>Node3&#45;&gt;Node4</title>
<g id="a_edge3_Node000003_Node000004"><a xlink:title=" ">
<path fill="none" stroke="#63b8ff" d="M199.26,-95C182.95,-95 164.52,-95 146.91,-95"/>
<polygon fill="#63b8ff" stroke="#63b8ff" points="199.17,-98.5 209.17,-95 199.17,-91.5 199.17,-98.5"/>
</a>
</g>
</g>
<!-- Node6&#45;&gt;Node7 -->
<g id="edge6_Node000006_Node000007" class="edge">
<title>Node6&#45;&gt;Node7</title>
<g id="a_edge6_Node000006_Node000007"><a xlink:title=" ">
<path fill="none" stroke="#63b8ff" d="M350.84,-25.84C330.93,-22.66 310.21,-19.36 292.88,-16.6"/>
<polygon fill="#63b8ff" stroke="#63b8ff" points="350.05,-29.42 360.48,-27.53 351.15,-22.5 350.05,-29.42"/>
</a>
</g>
</g>
</g>
</svg>
