<?xml version="1.0" encoding="UTF-8" standalone="no"?>
<!DOCTYPE svg PUBLIC "-//W3C//DTD SVG 1.1//EN"
 "http://www.w3.org/Graphics/SVG/1.1/DTD/svg11.dtd">
<!-- Generated by graphviz version 8.1.0 (20230707.0739)
 -->
<!-- Title: PwrCtrl_SetPeriodTarget Pages: 1 -->
<svg width="671pt" height="40pt"
 viewBox="0.00 0.00 670.75 40.00" xmlns="http://www.w3.org/2000/svg" xmlns:xlink="http://www.w3.org/1999/xlink">
<g id="graph0" class="graph" transform="scale(1 1) rotate(0) translate(4 36)">
<title>PwrCtrl_SetPeriodTarget</title>
<!-- Node1 -->
<g id="Node000001" class="node">
<title>Node1</title>
<g id="a_Node000001"><a xlink:title="API function to set the target period.">
<polygon fill="#999999" stroke="#666666" points="662.75,-26 540.25,-26 540.25,-6 662.75,-6 662.75,-26"/>
<text text-anchor="middle" x="601.5" y="-12.5" font-family="Helvetica,sans-Serif" font-size="10.00">PwrCtrl_SetPeriodTarget</text>
</a>
</g>
</g>
<!-- Node2 -->
<g id="Node000002" class="node">
<title>Node2</title>
<g id="a_Node000002"><a xlink:href="a00528.html#gaf2b5ec7aa4bf88b00eaa69cfeba83160" target="_top" xlink:title="process received data">
<polygon fill="white" stroke="#666666" points="504.25,-32 378.75,-32 378.75,0 504.25,0 504.25,-32"/>
<text text-anchor="start" x="386.75" y="-18.5" font-family="Helvetica,sans-Serif" font-size="10.00">App_PBV_DAB_Process</text>
<text text-anchor="middle" x="441.5" y="-6.5" font-family="Helvetica,sans-Serif" font-size="10.00">_Rx_Data</text>
</a>
</g>
</g>
<!-- Node1&#45;&gt;Node2 -->
<g id="edge1_Node000001_Node000002" class="edge">
<title>Node1&#45;&gt;Node2</title>
<g id="a_edge1_Node000001_Node000002"><a xlink:title=" ">
<path fill="none" stroke="#63b8ff" d="M528.88,-16C520.76,-16 512.53,-16 504.54,-16"/>
<polygon fill="#63b8ff" stroke="#63b8ff" points="528.86,-19.5 538.86,-16 528.86,-12.5 528.86,-19.5"/>
</a>
</g>
</g>
<!-- Node3 -->
<g id="Node000003" class="node">
<title>Node3</title>
<g id="a_Node000003"><a xlink:href="a00528.html#gae7f76d2864d9f99538052487fb4c9570" target="_top" xlink:title="default callback">
<polygon fill="white" stroke="#666666" points="342.75,-26 283.25,-26 283.25,-6 342.75,-6 342.75,-26"/>
<text text-anchor="middle" x="313" y="-12.5" font-family="Helvetica,sans-Serif" font-size="10.00">protocolID</text>
</a>
</g>
</g>
<!-- Node2&#45;&gt;Node3 -->
<g id="edge2_Node000002_Node000003" class="edge">
<title>Node2&#45;&gt;Node3</title>
<g id="a_edge2_Node000002_Node000003"><a xlink:title=" ">
<path fill="none" stroke="#63b8ff" d="M367.38,-16C358.77,-16 350.42,-16 342.97,-16"/>
<polygon fill="#63b8ff" stroke="#63b8ff" points="367.36,-19.5 377.36,-16 367.36,-12.5 367.36,-19.5"/>
</a>
</g>
</g>
<!-- Node4 -->
<g id="Node000004" class="node">
<title>Node4</title>
<g id="a_Node000004"><a xlink:href="a00528.html#ga4de477d51ea04cdcfcb1e3eb3ef0053a" target="_top" xlink:title="10ms PBV task to be execution">
<polygon fill="white" stroke="#666666" points="247.25,-26 107.5,-26 107.5,-6 247.25,-6 247.25,-26"/>
<text text-anchor="middle" x="177.38" y="-12.5" font-family="Helvetica,sans-Serif" font-size="10.00">App_PBV_DAB_Task_10ms</text>
</a>
</g>
</g>
<!-- Node3&#45;&gt;Node4 -->
<g id="edge3_Node000003_Node000004" class="edge">
<title>Node3&#45;&gt;Node4</title>
<g id="a_edge3_Node000003_Node000004"><a xlink:title=" ">
<path fill="none" stroke="#63b8ff" d="M272.11,-16C264.35,-16 256.01,-16 247.62,-16"/>
<polygon fill="#63b8ff" stroke="#63b8ff" points="272.01,-19.5 282.01,-16 272.01,-12.5 272.01,-19.5"/>
</a>
</g>
</g>
<!-- Node5 -->
<g id="Node000005" class="node">
<title>Node5</title>
<g id="a_Node000005"><a xlink:href="a00550.html#ga05751024e03719cbe14d88fb0af408dd" target="_top" xlink:title="Tasks_10ms gets called every 10ms, put your things in it that need to be called regularly.">
<polygon fill="white" stroke="#666666" points="71.5,-26 0,-26 0,-6 71.5,-6 71.5,-26"/>
<text text-anchor="middle" x="35.75" y="-12.5" font-family="Helvetica,sans-Serif" font-size="10.00">Tasks_10ms</text>
</a>
</g>
</g>
<!-- Node4&#45;&gt;Node5 -->
<g id="edge4_Node000004_Node000005" class="edge">
<title>Node4&#45;&gt;Node5</title>
<g id="a_edge4_Node000004_Node000005"><a xlink:title=" ">
<path fill="none" stroke="#63b8ff" d="M96.4,-16C87.78,-16 79.38,-16 71.73,-16"/>
<polygon fill="#63b8ff" stroke="#63b8ff" points="96.38,-19.5 106.38,-16 96.38,-12.5 96.38,-19.5"/>
</a>
</g>
</g>
</g>
</svg>
