<?xml version="1.0" encoding="UTF-8" standalone="no"?>
<!DOCTYPE svg PUBLIC "-//W3C//DTD SVG 1.1//EN"
 "http://www.w3.org/Graphics/SVG/1.1/DTD/svg11.dtd">
<!-- Generated by graphviz version 8.1.0 (20230707.0739)
 -->
<!-- Title: PwrCtrl_StateMachine Pages: 1 -->
<svg width="1036pt" height="646pt"
 viewBox="0.00 0.00 1036.25 646.00" xmlns="http://www.w3.org/2000/svg" xmlns:xlink="http://www.w3.org/1999/xlink">
<g id="graph0" class="graph" transform="scale(1 1) rotate(0) translate(4 642)">
<title>PwrCtrl_StateMachine</title>
<!-- Node1 -->
<g id="Node000001" class="node">
<title>Node1</title>
<g id="a_Node000001"><a xlink:title="Manages the power control state machine.">
<polygon fill="#999999" stroke="#666666" points="112.75,-140 0,-140 0,-120 112.75,-120 112.75,-140"/>
<text text-anchor="middle" x="56.38" y="-126.5" font-family="Helvetica,sans-Serif" font-size="10.00">PwrCtrl_StateMachine</text>
</a>
</g>
</g>
<!-- Node2 -->
<g id="Node000002" class="node">
<title>Node2</title>
<g id="a_Node000002"><a xlink:href="a00545.html#ga8307344d190a5459682d315fc7bfe198" target="_top" xlink:title="Executes function for initialze state machine.">
<polygon fill="white" stroke="#666666" points="266,-464 171.25,-464 171.25,-444 266,-444 266,-464"/>
<text text-anchor="middle" x="218.62" y="-450.5" font-family="Helvetica,sans-Serif" font-size="10.00">PCS_INIT_handler</text>
</a>
</g>
</g>
<!-- Node1&#45;&gt;Node2 -->
<g id="edge1_Node000001_Node000002" class="edge">
<title>Node1&#45;&gt;Node2</title>
<g id="a_edge1_Node000001_Node000002"><a xlink:title=" ">
<path fill="none" stroke="#63b8ff" d="M62.53,-140.41C85.32,-186.5 177.33,-372.53 207.78,-434.1"/>
<polygon fill="#63b8ff" stroke="#63b8ff" points="205,-435.38 212.57,-442.79 211.28,-432.27 205,-435.38"/>
</a>
</g>
</g>
<!-- Node29 -->
<g id="Node000029" class="node">
<title>Node29</title>
<g id="a_Node000029"><a xlink:href="a00545.html#gabda6b853bb6547821acd0ec87e0a4842" target="_top" xlink:title="Executes the power control soft start state machine.">
<polygon fill="white" stroke="#666666" points="288.5,-96 148.75,-96 148.75,-76 288.5,-76 288.5,-96"/>
<text text-anchor="middle" x="218.62" y="-82.5" font-family="Helvetica,sans-Serif" font-size="10.00">PCS_SOFT_START_handler</text>
</a>
</g>
</g>
<!-- Node1&#45;&gt;Node29 -->
<g id="edge32_Node000001_Node000029" class="edge">
<title>Node1&#45;&gt;Node29</title>
<g id="a_edge32_Node000001_Node000029"><a xlink:title=" ">
<path fill="none" stroke="#63b8ff" d="M95.35,-119.57C117.42,-113.51 145.46,-105.81 169.12,-99.32"/>
<polygon fill="#63b8ff" stroke="#63b8ff" points="169.93,-102.45 178.64,-96.43 168.07,-95.7 169.93,-102.45"/>
</a>
</g>
</g>
<!-- Node31 -->
<g id="Node000031" class="node">
<title>Node31</title>
<g id="a_Node000031"><a xlink:href="a00545.html#ga42f7c8f65745b2f81bb6dbd381ea8121" target="_top" xlink:title="Executes Standby State machine.">
<polygon fill="white" stroke="#666666" points="280.62,-291 156.62,-291 156.62,-271 280.62,-271 280.62,-291"/>
<text text-anchor="middle" x="218.62" y="-277.5" font-family="Helvetica,sans-Serif" font-size="10.00">PCS_STANDBY_handler</text>
</a>
</g>
</g>
<!-- Node1&#45;&gt;Node31 -->
<g id="edge35_Node000001_Node000031" class="edge">
<title>Node1&#45;&gt;Node31</title>
<g id="a_edge35_Node000001_Node000031"><a xlink:title=" ">
<path fill="none" stroke="#63b8ff" d="M68.39,-140.38C95.38,-165.81 165.05,-231.46 198.78,-263.24"/>
<polygon fill="#63b8ff" stroke="#63b8ff" points="195.85,-265.24 205.53,-269.55 200.66,-260.14 195.85,-265.24"/>
</a>
</g>
</g>
<!-- Node40 -->
<g id="Node000040" class="node">
<title>Node40</title>
<g id="a_Node000040"><a xlink:href="a00545.html#ga8752fbb48416e60141e205f1cbda0f98" target="_top" xlink:title="Executes the Online state.">
<polygon fill="white" stroke="#666666" points="283.25,-146 154,-146 154,-114 283.25,-114 283.25,-146"/>
<text text-anchor="start" x="162" y="-132.5" font-family="Helvetica,sans-Serif" font-size="10.00">PCS_UP_AND_RUNNING</text>
<text text-anchor="middle" x="218.62" y="-120.5" font-family="Helvetica,sans-Serif" font-size="10.00">_handler</text>
</a>
</g>
</g>
<!-- Node1&#45;&gt;Node40 -->
<g id="edge54_Node000001_Node000040" class="edge">
<title>Node1&#45;&gt;Node40</title>
<g id="a_edge54_Node000001_Node000040"><a xlink:title=" ">
<path fill="none" stroke="#63b8ff" d="M112.97,-130C122.6,-130 132.75,-130 142.79,-130"/>
<polygon fill="#63b8ff" stroke="#63b8ff" points="142.6,-133.5 152.6,-130 142.6,-126.5 142.6,-133.5"/>
</a>
</g>
</g>
<!-- Node41 -->
<g id="Node000041" class="node">
<title>Node41</title>
<g id="a_Node000041"><a xlink:href="a00545.html#gaad6ef2378120876a621b349c1380aef7" target="_top" xlink:title="Executes the fault handler state machine.">
<polygon fill="white" stroke="#666666" points="275.75,-58 161.5,-58 161.5,-26 275.75,-26 275.75,-58"/>
<text text-anchor="start" x="169.5" y="-44.5" font-family="Helvetica,sans-Serif" font-size="10.00">PCS_WAIT_IF_FAULT</text>
<text text-anchor="middle" x="218.62" y="-32.5" font-family="Helvetica,sans-Serif" font-size="10.00">_ACTIVE_handler</text>
</a>
</g>
</g>
<!-- Node1&#45;&gt;Node41 -->
<g id="edge56_Node000001_Node000041" class="edge">
<title>Node1&#45;&gt;Node41</title>
<g id="a_edge56_Node000001_Node000041"><a xlink:title=" ">
<path fill="none" stroke="#63b8ff" d="M70.03,-119.71C87.08,-106.22 118.78,-82.45 148.75,-67 151.65,-65.5 154.67,-64.06 157.74,-62.66"/>
<polygon fill="#63b8ff" stroke="#63b8ff" points="158.87,-65.56 166.69,-58.4 156.12,-59.12 158.87,-65.56"/>
</a>
</g>
</g>
<!-- Node3 -->
<g id="Node000003" class="node">
<title>Node3</title>
<g id="a_Node000003"><a xlink:href="a00534.html#ga218632f9814c3bf20c40cea0794ffc7d" target="_top" xlink:title="API function to get the calibration status.">
<polygon fill="white" stroke="#666666" points="456,-448 339.5,-448 339.5,-416 456,-416 456,-448"/>
<text text-anchor="start" x="347.5" y="-434.5" font-family="Helvetica,sans-Serif" font-size="10.00">Dev_CurrentSensor</text>
<text text-anchor="middle" x="397.75" y="-422.5" font-family="Helvetica,sans-Serif" font-size="10.00">_Get_CalibrationStatus</text>
</a>
</g>
</g>
<!-- Node2&#45;&gt;Node3 -->
<g id="edge2_Node000002_Node000003" class="edge">
<title>Node2&#45;&gt;Node3</title>
<g id="a_edge2_Node000002_Node000003"><a xlink:title=" ">
<path fill="none" stroke="#63b8ff" d="M266.16,-448.22C285.19,-445.86 307.59,-443.07 328.41,-440.49"/>
<polygon fill="#63b8ff" stroke="#63b8ff" points="328.64,-443.86 338.13,-439.16 327.77,-436.92 328.64,-443.86"/>
</a>
</g>
</g>
<!-- Node4 -->
<g id="Node000004" class="node">
<title>Node4</title>
<g id="a_Node000004"><a xlink:href="a00534.html#ga9f581abf52dc00ba320faafa189fafb9" target="_top" xlink:title="API function to get the sensor offset.">
<polygon fill="white" stroke="#666666" points="447.38,-398 348.12,-398 348.12,-366 447.38,-366 447.38,-398"/>
<text text-anchor="start" x="356.12" y="-384.5" font-family="Helvetica,sans-Serif" font-size="10.00">Dev_CurrentSensor</text>
<text text-anchor="middle" x="397.75" y="-372.5" font-family="Helvetica,sans-Serif" font-size="10.00">_Get_Offset</text>
</a>
</g>
</g>
<!-- Node2&#45;&gt;Node4 -->
<g id="edge3_Node000002_Node000004" class="edge">
<title>Node2&#45;&gt;Node4</title>
<g id="a_edge3_Node000002_Node000004"><a xlink:title=" ">
<path fill="none" stroke="#63b8ff" d="M241.48,-443.53C262.53,-433.6 295.38,-418.54 324.5,-407 328.85,-405.28 333.38,-403.55 337.94,-401.86"/>
<polygon fill="#63b8ff" stroke="#63b8ff" points="338.75,-404.93 346.95,-398.23 336.36,-398.35 338.75,-404.93"/>
</a>
</g>
</g>
<!-- Node5 -->
<g id="Node000005" class="node">
<title>Node5</title>
<g id="a_Node000005"><a xlink:href="a00534.html#gaaa75855922e60913d443c6203475256f" target="_top" xlink:title="Measures the currents sensor offset.">
<polygon fill="white" stroke="#666666" points="467.25,-600 328.25,-600 328.25,-580 467.25,-580 467.25,-600"/>
<text text-anchor="middle" x="397.75" y="-586.5" font-family="Helvetica,sans-Serif" font-size="10.00">Dev_CurrentSensorOffsetCal</text>
</a>
</g>
</g>
<!-- Node2&#45;&gt;Node5 -->
<g id="edge4_Node000002_Node000005" class="edge">
<title>Node2&#45;&gt;Node5</title>
<g id="a_edge4_Node000002_Node000005"><a xlink:title=" ">
<path fill="none" stroke="#63b8ff" d="M225.8,-464.26C240.12,-487.14 277.95,-542.55 324.5,-571 327.15,-572.62 329.93,-574.1 332.8,-575.45"/>
<polygon fill="#63b8ff" stroke="#63b8ff" points="331.24,-579.01 341.82,-579.6 333.91,-572.54 331.24,-579.01"/>
</a>
</g>
</g>
<!-- Node8 -->
<g id="Node000008" class="node">
<title>Node8</title>
<g id="a_Node000008"><a xlink:href="a00551.html#ga8ed0fee0d3aff71d49470aab1728a6ae" target="_top" xlink:title="Clears the fault object flag bits.">
<polygon fill="white" stroke="#666666" points="432,-348 363.5,-348 363.5,-328 432,-328 432,-348"/>
<text text-anchor="middle" x="397.75" y="-334.5" font-family="Helvetica,sans-Serif" font-size="10.00">Fault_Reset</text>
</a>
</g>
</g>
<!-- Node2&#45;&gt;Node8 -->
<g id="edge7_Node000002_Node000008" class="edge">
<title>Node2&#45;&gt;Node8</title>
<g id="a_edge7_Node000002_Node000008"><a xlink:title=" ">
<path fill="none" stroke="#63b8ff" d="M227.68,-443.76C243.84,-423.91 282.32,-380.14 324.5,-357 333.09,-352.29 342.91,-348.7 352.47,-345.99"/>
<polygon fill="#63b8ff" stroke="#63b8ff" points="353.27,-349.14 362.09,-343.28 351.54,-342.36 353.27,-349.14"/>
</a>
</g>
</g>
<!-- Node9 -->
<g id="Node000009" class="node">
<title>Node9</title>
<g id="a_Node000009"><a xlink:href="a00562.html#ga5a3ef0885c3937caeb4107df9fb91e81" target="_top" xlink:title="This inline function will disable all the generators of PWM module.">
<polygon fill="white" stroke="#666666" points="616,-313 537.75,-313 537.75,-293 616,-293 616,-313"/>
<text text-anchor="middle" x="576.88" y="-299.5" font-family="Helvetica,sans-Serif" font-size="10.00">PWM_Disable</text>
</a>
</g>
</g>
<!-- Node2&#45;&gt;Node9 -->
<g id="edge8_Node000002_Node000009" class="edge">
<title>Node2&#45;&gt;Node9</title>
<g id="a_edge8_Node000002_Node000009"><a xlink:title=" ">
<path fill="none" stroke="#63b8ff" d="M237.21,-464.48C281.8,-489.55 400.72,-546.82 471,-490 530.38,-441.99 454.59,-377.54 507,-322 512.44,-316.23 519.46,-312.16 526.93,-309.3"/>
<polygon fill="#63b8ff" stroke="#63b8ff" points="527.77,-312.39 536.29,-306.09 525.71,-305.7 527.77,-312.39"/>
</a>
</g>
</g>
<!-- Node10 -->
<g id="Node000010" class="node">
<title>Node10</title>
<g id="a_Node000010"><a xlink:href="a00542.html#ga2c39b57545ef7b5c79bac36ab30da7d8" target="_top" xlink:title="Initialize the power control parameters.">
<polygon fill="white" stroke="#666666" points="441.75,-562 353.75,-562 353.75,-542 441.75,-542 441.75,-562"/>
<text text-anchor="middle" x="397.75" y="-548.5" font-family="Helvetica,sans-Serif" font-size="10.00">PwrCtrl_Initialize</text>
</a>
</g>
</g>
<!-- Node2&#45;&gt;Node10 -->
<g id="edge9_Node000002_Node000010" class="edge">
<title>Node2&#45;&gt;Node10</title>
<g id="a_edge9_Node000002_Node000010"><a xlink:title=" ">
<path fill="none" stroke="#63b8ff" d="M231.77,-464.39C250.56,-480.03 288.3,-509.72 324.5,-528 331.97,-531.77 340.16,-535.14 348.26,-538.08"/>
<polygon fill="#63b8ff" stroke="#63b8ff" points="346.81,-541.63 357.41,-541.58 349.09,-535.01 346.81,-541.63"/>
</a>
</g>
</g>
<!-- Node18 -->
<g id="Node000018" class="node">
<title>Node18</title>
<g id="a_Node000018"><a xlink:href="a00544.html#ga79ec0c0e524a03b3a3d423308b89bb99" target="_top" xlink:title="Disable the PWM output.">
<polygon fill="white" stroke="#666666" points="634.38,-184 519.38,-184 519.38,-164 634.38,-164 634.38,-184"/>
<text text-anchor="middle" x="576.88" y="-170.5" font-family="Helvetica,sans-Serif" font-size="10.00">PwrCtrl_PWM_Disable</text>
</a>
</g>
</g>
<!-- Node2&#45;&gt;Node18 -->
<g id="edge31_Node000002_Node000018" class="edge">
<title>Node2&#45;&gt;Node18</title>
<g id="a_edge31_Node000002_Node000018"><a xlink:title=" ">
<path fill="none" stroke="#63b8ff" d="M246.15,-464.38C296.56,-482.17 406.87,-511.61 471,-457 547.44,-391.91 458.24,-321.76 507,-234 516.95,-216.09 534.4,-200.98 549.24,-190.4"/>
<polygon fill="#63b8ff" stroke="#63b8ff" points="550.75,-192.93 557.06,-184.41 546.82,-187.14 550.75,-192.93"/>
</a>
</g>
</g>
<!-- Node6 -->
<g id="Node000006" class="node">
<title>Node6</title>
<g id="a_Node000006"><a xlink:href="a00556.html#gaf4b6f81a05012533b633a78dad7b6a98" target="_top" xlink:title="Returns the conversion value for the channel selected.">
<polygon fill="white" stroke="#666666" points="645.62,-638 508.12,-638 508.12,-618 645.62,-618 645.62,-638"/>
<text text-anchor="middle" x="576.88" y="-624.5" font-family="Helvetica,sans-Serif" font-size="10.00">ADC1_ConversionResultGet</text>
</a>
</g>
</g>
<!-- Node5&#45;&gt;Node6 -->
<g id="edge5_Node000005_Node000006" class="edge">
<title>Node5&#45;&gt;Node6</title>
<g id="a_edge5_Node000005_Node000006"><a xlink:title=" ">
<path fill="none" stroke="#63b8ff" d="M447.62,-600.48C468.91,-605.05 494.07,-610.45 516.44,-615.25"/>
<polygon fill="#63b8ff" stroke="#63b8ff" points="515.65,-618.87 526.17,-617.55 517.12,-612.03 515.65,-618.87"/>
</a>
</g>
</g>
<!-- Node7 -->
<g id="Node000007" class="node">
<title>Node7</title>
<g id="a_Node000007"><a xlink:href="a00534.html#ga03e8d61bbc0f4b686c400440f80dcf69" target="_top" xlink:title="Measure the sensor offset.">
<polygon fill="white" stroke="#666666" points="630.62,-600 523.12,-600 523.12,-580 630.62,-580 630.62,-600"/>
<text text-anchor="middle" x="576.88" y="-586.5" font-family="Helvetica,sans-Serif" font-size="10.00">Dev_SensorOffsetCal</text>
</a>
</g>
</g>
<!-- Node5&#45;&gt;Node7 -->
<g id="edge6_Node000005_Node000007" class="edge">
<title>Node5&#45;&gt;Node7</title>
<g id="a_edge6_Node000005_Node000007"><a xlink:title=" ">
<path fill="none" stroke="#63b8ff" d="M467.74,-590C482.29,-590 497.58,-590 511.94,-590"/>
<polygon fill="#63b8ff" stroke="#63b8ff" points="511.71,-593.5 521.71,-590 511.71,-586.5 511.71,-593.5"/>
</a>
</g>
</g>
<!-- Node11 -->
<g id="Node000011" class="node">
<title>Node11</title>
<g id="a_Node000011"><a xlink:href="a00562.html#gaf61d06e6e907cd4dfcef3a40792ee82f" target="_top" xlink:title="This inline function will enable all the generators of PWM module.">
<polygon fill="white" stroke="#666666" points="614.88,-351 538.88,-351 538.88,-331 614.88,-331 614.88,-351"/>
<text text-anchor="middle" x="576.88" y="-337.5" font-family="Helvetica,sans-Serif" font-size="10.00">PWM_Enable</text>
</a>
</g>
</g>
<!-- Node10&#45;&gt;Node11 -->
<g id="edge10_Node000010_Node000011" class="edge">
<title>Node10&#45;&gt;Node11</title>
<g id="a_edge10_Node000010_Node000011"><a xlink:title=" ">
<path fill="none" stroke="#63b8ff" d="M441.98,-545.51C452.77,-541.95 463.41,-536.47 471,-528 521.96,-471.13 454.59,-415.54 507,-360 512.81,-353.85 520.41,-349.62 528.43,-346.74"/>
<polygon fill="#63b8ff" stroke="#63b8ff" points="529.1,-349.9 537.73,-343.76 527.15,-343.18 529.1,-349.9"/>
</a>
</g>
</g>
<!-- Node12 -->
<g id="Node000012" class="node">
<title>Node12</title>
<g id="a_Node000012"><a xlink:href="a00542.html#gae58162e874535adf2003e9ed8a13b656" target="_top" xlink:title="Initializes the control loop.">
<polygon fill="white" stroke="#666666" points="646.75,-562 507,-562 507,-542 646.75,-542 646.75,-562"/>
<text text-anchor="middle" x="576.88" y="-548.5" font-family="Helvetica,sans-Serif" font-size="10.00">PwrCtrl_ControlLoopInitialize</text>
</a>
</g>
</g>
<!-- Node10&#45;&gt;Node12 -->
<g id="edge11_Node000010_Node000012" class="edge">
<title>Node10&#45;&gt;Node12</title>
<g id="a_edge11_Node000010_Node000012"><a xlink:title=" ">
<path fill="none" stroke="#63b8ff" d="M442.08,-552C458.35,-552 477.4,-552 495.94,-552"/>
<polygon fill="#63b8ff" stroke="#63b8ff" points="495.77,-555.5 505.77,-552 495.77,-548.5 495.77,-555.5"/>
</a>
</g>
</g>
<!-- Node10&#45;&gt;Node18 -->
<g id="edge19_Node000010_Node000018" class="edge">
<title>Node10&#45;&gt;Node18</title>
<g id="a_edge19_Node000010_Node000018"><a xlink:title=" ">
<path fill="none" stroke="#63b8ff" d="M417.22,-541.57C434.19,-530.93 458.54,-512.77 471,-490 526.15,-389.2 452.22,-335 507,-234 516.77,-215.99 534.22,-200.88 549.11,-190.33"/>
<polygon fill="#63b8ff" stroke="#63b8ff" points="550.62,-192.85 556.96,-184.36 546.71,-187.05 550.62,-192.85"/>
</a>
</g>
</g>
<!-- Node22 -->
<g id="Node000022" class="node">
<title>Node22</title>
<g id="a_Node000022"><a xlink:href="a00544.html#ga73f526371cadb7674354635462e836cc" target="_top" xlink:title="PWM distribution for DAB converter.">
<polygon fill="white" stroke="#666666" points="633.62,-389 520.12,-389 520.12,-369 633.62,-369 633.62,-389"/>
<text text-anchor="middle" x="576.88" y="-375.5" font-family="Helvetica,sans-Serif" font-size="10.00">PwrCtrl_PWM_Update</text>
</a>
</g>
</g>
<!-- Node10&#45;&gt;Node22 -->
<g id="edge23_Node000010_Node000022" class="edge">
<title>Node10&#45;&gt;Node22</title>
<g id="a_edge23_Node000010_Node000022"><a xlink:title=" ">
<path fill="none" stroke="#63b8ff" d="M442.21,-542.51C452.27,-539.02 462.51,-534.31 471,-528 517.79,-493.23 551.56,-431.31 566.81,-399.35"/>
<polygon fill="#63b8ff" stroke="#63b8ff" points="570.4,-400.93 571.42,-390.38 564.04,-397.99 570.4,-400.93"/>
</a>
</g>
</g>
<!-- Node28 -->
<g id="Node000028" class="node">
<title>Node28</title>
<g id="a_Node000028"><a xlink:href="a00542.html#ga45940145031d4886842c27f5e5277e9b" target="_top" xlink:title="Initialize the StartUp Ramp configuration.">
<polygon fill="white" stroke="#666666" points="637.38,-524 516.38,-524 516.38,-504 637.38,-504 637.38,-524"/>
<text text-anchor="middle" x="576.88" y="-510.5" font-family="Helvetica,sans-Serif" font-size="10.00">PwrCtrl_StartUpInitialize</text>
</a>
</g>
</g>
<!-- Node10&#45;&gt;Node28 -->
<g id="edge30_Node000010_Node000028" class="edge">
<title>Node10&#45;&gt;Node28</title>
<g id="a_edge30_Node000010_Node000028"><a xlink:title=" ">
<path fill="none" stroke="#63b8ff" d="M442.08,-542.7C464.47,-537.9 492.14,-531.96 516.49,-526.74"/>
<polygon fill="#63b8ff" stroke="#63b8ff" points="517.01,-529.99 526.06,-524.47 515.55,-523.15 517.01,-529.99"/>
</a>
</g>
</g>
<!-- Node13 -->
<g id="Node000013" class="node">
<title>Node13</title>
<g id="a_Node000013"><a xlink:href="a00546.html#ga4d5efa27da3185177a7e9451a59ced82" target="_top" xlink:title="Initialize the Current Loop Control.">
<polygon fill="white" stroke="#666666" points="823.62,-562 702.62,-562 702.62,-542 823.62,-542 823.62,-562"/>
<text text-anchor="middle" x="763.12" y="-548.5" font-family="Helvetica,sans-Serif" font-size="10.00">PwrCtrl_IComp_Initialize</text>
</a>
</g>
</g>
<!-- Node12&#45;&gt;Node13 -->
<g id="edge12_Node000012_Node000013" class="edge">
<title>Node12&#45;&gt;Node13</title>
<g id="a_edge12_Node000012_Node000013"><a xlink:title=" ">
<path fill="none" stroke="#63b8ff" d="M647.01,-552C661.49,-552 676.79,-552 691.33,-552"/>
<polygon fill="#63b8ff" stroke="#63b8ff" points="691.28,-555.5 701.28,-552 691.28,-548.5 691.28,-555.5"/>
</a>
</g>
</g>
<!-- Node15 -->
<g id="Node000015" class="node">
<title>Node15</title>
<g id="a_Node000015"><a xlink:href="a00546.html#ga5d45f928f4747df3d3fe50876e78efc5" target="_top" xlink:title="Initialize the Power Loop Control.">
<polygon fill="white" stroke="#666666" points="825.88,-600 700.38,-600 700.38,-580 825.88,-580 825.88,-600"/>
<text text-anchor="middle" x="763.12" y="-586.5" font-family="Helvetica,sans-Serif" font-size="10.00">PwrCtrl_PComp_Initialize</text>
</a>
</g>
</g>
<!-- Node12&#45;&gt;Node15 -->
<g id="edge14_Node000012_Node000015" class="edge">
<title>Node12&#45;&gt;Node15</title>
<g id="a_edge14_Node000012_Node000015"><a xlink:title=" ">
<path fill="none" stroke="#63b8ff" d="M628.71,-562.48C651.06,-567.09 677.51,-572.55 700.93,-577.38"/>
<polygon fill="#63b8ff" stroke="#63b8ff" points="699.96,-580.96 710.46,-579.55 701.37,-574.1 699.96,-580.96"/>
</a>
</g>
</g>
<!-- Node16 -->
<g id="Node000016" class="node">
<title>Node16</title>
<g id="a_Node000016"><a xlink:href="a00546.html#ga8603aa8f7d4f64fa925228cf9c99de83" target="_top" xlink:title="Initialize the Voltage Loop Control.">
<polygon fill="white" stroke="#666666" points="825.88,-524 700.38,-524 700.38,-504 825.88,-504 825.88,-524"/>
<text text-anchor="middle" x="763.12" y="-510.5" font-family="Helvetica,sans-Serif" font-size="10.00">PwrCtrl_VComp_Initialize</text>
</a>
</g>
</g>
<!-- Node12&#45;&gt;Node16 -->
<g id="edge16_Node000012_Node000016" class="edge">
<title>Node12&#45;&gt;Node16</title>
<g id="a_edge16_Node000012_Node000016"><a xlink:title=" ">
<path fill="none" stroke="#63b8ff" d="M628.71,-541.52C651.06,-536.91 677.51,-531.45 700.93,-526.62"/>
<polygon fill="#63b8ff" stroke="#63b8ff" points="701.37,-529.9 710.46,-524.45 699.96,-523.04 701.37,-529.9"/>
</a>
</g>
</g>
<!-- Node14 -->
<g id="Node000014" class="node">
<title>Node14</title>
<g id="a_Node000014"><a xlink:href="a00458.html#a8d0d916c7a3ca172408fcded86a6baa2" target="_top" xlink:title=" ">
<polygon fill="white" stroke="#666666" points="1028.25,-562 879.5,-562 879.5,-542 1028.25,-542 1028.25,-562"/>
<text text-anchor="middle" x="953.88" y="-548.5" font-family="Helvetica,sans-Serif" font-size="10.00">SMPS_Controller2P2ZInitialize</text>
</a>
</g>
</g>
<!-- Node13&#45;&gt;Node14 -->
<g id="edge13_Node000013_Node000014" class="edge">
<title>Node13&#45;&gt;Node14</title>
<g id="a_edge13_Node000013_Node000014"><a xlink:title=" ">
<path fill="none" stroke="#63b8ff" d="M824.11,-552C838.18,-552 853.43,-552 868.35,-552"/>
<polygon fill="#63b8ff" stroke="#63b8ff" points="868.14,-555.5 878.14,-552 868.14,-548.5 868.14,-555.5"/>
</a>
</g>
</g>
<!-- Node15&#45;&gt;Node14 -->
<g id="edge15_Node000015_Node000014" class="edge">
<title>Node15&#45;&gt;Node14</title>
<g id="a_edge15_Node000015_Node000014"><a xlink:title=" ">
<path fill="none" stroke="#63b8ff" d="M816.2,-579.52C839.1,-574.91 866.19,-569.45 890.19,-564.62"/>
<polygon fill="#63b8ff" stroke="#63b8ff" points="890.86,-567.85 899.97,-562.45 889.47,-560.99 890.86,-567.85"/>
</a>
</g>
</g>
<!-- Node16&#45;&gt;Node14 -->
<g id="edge17_Node000016_Node000014" class="edge">
<title>Node16&#45;&gt;Node14</title>
<g id="a_edge17_Node000016_Node000014"><a xlink:title=" ">
<path fill="none" stroke="#63b8ff" d="M816.2,-524.48C839.1,-529.09 866.19,-534.55 890.19,-539.38"/>
<polygon fill="#63b8ff" stroke="#63b8ff" points="889.47,-543.01 899.97,-541.55 890.86,-536.15 889.47,-543.01"/>
</a>
</g>
</g>
<!-- Node17 -->
<g id="Node000017" class="node">
<title>Node17</title>
<g id="a_Node000017"><a xlink:href="a00458.html#ad495211ff0d3998ba64f08121e48db0a" target="_top" xlink:title=" ">
<polygon fill="white" stroke="#666666" points="1024.88,-524 882.88,-524 882.88,-504 1024.88,-504 1024.88,-524"/>
<text text-anchor="middle" x="953.88" y="-510.5" font-family="Helvetica,sans-Serif" font-size="10.00">SMPS_ControllerPIDInitialize</text>
</a>
</g>
</g>
<!-- Node16&#45;&gt;Node17 -->
<g id="edge18_Node000016_Node000017" class="edge">
<title>Node16&#45;&gt;Node17</title>
<g id="a_edge18_Node000016_Node000017"><a xlink:title=" ">
<path fill="none" stroke="#63b8ff" d="M826.19,-514C840.72,-514 856.4,-514 871.63,-514"/>
<polygon fill="#63b8ff" stroke="#63b8ff" points="871.6,-517.5 881.6,-514 871.6,-510.5 871.6,-517.5"/>
</a>
</g>
</g>
<!-- Node19 -->
<g id="Node000019" class="node">
<title>Node19</title>
<g id="a_Node000019"><a xlink:href="a00562.html#ga531b59d8823e3ebda2da60f48582bcf3" target="_top" xlink:title="This inline function enables PWM override on PWMH output for specific PWM generator selected by the a...">
<polygon fill="white" stroke="#666666" points="828.5,-184 697.75,-184 697.75,-164 828.5,-164 828.5,-184"/>
<text text-anchor="middle" x="763.12" y="-170.5" font-family="Helvetica,sans-Serif" font-size="10.00">PWM_OverrideHighEnable</text>
</a>
</g>
</g>
<!-- Node18&#45;&gt;Node19 -->
<g id="edge20_Node000018_Node000019" class="edge">
<title>Node18&#45;&gt;Node19</title>
<g id="a_edge20_Node000018_Node000019"><a xlink:title=" ">
<path fill="none" stroke="#63b8ff" d="M634.66,-174C651.12,-174 669.36,-174 686.77,-174"/>
<polygon fill="#63b8ff" stroke="#63b8ff" points="686.48,-177.5 696.48,-174 686.48,-170.5 686.48,-177.5"/>
</a>
</g>
</g>
<!-- Node20 -->
<g id="Node000020" class="node">
<title>Node20</title>
<g id="a_Node000020"><a xlink:href="a00562.html#ga2548ca8feda75ba6ab784280679da6ae" target="_top" xlink:title="This inline function enables PWM override on PWML output for specific PWM generator selected by the a...">
<polygon fill="white" stroke="#666666" points="827.38,-146 698.88,-146 698.88,-126 827.38,-126 827.38,-146"/>
<text text-anchor="middle" x="763.12" y="-132.5" font-family="Helvetica,sans-Serif" font-size="10.00">PWM_OverrideLowEnable</text>
</a>
</g>
</g>
<!-- Node18&#45;&gt;Node20 -->
<g id="edge21_Node000018_Node000020" class="edge">
<title>Node18&#45;&gt;Node20</title>
<g id="a_edge21_Node000018_Node000020"><a xlink:title=" ">
<path fill="none" stroke="#63b8ff" d="M628.71,-163.52C651.06,-158.91 677.51,-153.45 700.93,-148.62"/>
<polygon fill="#63b8ff" stroke="#63b8ff" points="701.37,-151.9 710.46,-146.45 699.96,-145.04 701.37,-151.9"/>
</a>
</g>
</g>
<!-- Node21 -->
<g id="Node000021" class="node">
<title>Node21</title>
<g id="a_Node000021"><a xlink:href="a00562.html#ga83e780358618114f0d424ca7467cf751" target="_top" xlink:title="This inline function requests to update the data registers for specific PWM generator selected by the...">
<polygon fill="white" stroke="#666666" points="838.25,-222 688,-222 688,-202 838.25,-202 838.25,-222"/>
<text text-anchor="middle" x="763.12" y="-208.5" font-family="Helvetica,sans-Serif" font-size="10.00">PWM_SoftwareUpdateRequest</text>
</a>
</g>
</g>
<!-- Node18&#45;&gt;Node21 -->
<g id="edge22_Node000018_Node000021" class="edge">
<title>Node18&#45;&gt;Node21</title>
<g id="a_edge22_Node000018_Node000021"><a xlink:title=" ">
<path fill="none" stroke="#63b8ff" d="M628.71,-184.48C651.06,-189.09 677.51,-194.55 700.93,-199.38"/>
<polygon fill="#63b8ff" stroke="#63b8ff" points="699.96,-202.96 710.46,-201.55 701.37,-196.1 699.96,-202.96"/>
</a>
</g>
</g>
<!-- Node22&#45;&gt;Node21 -->
<g id="edge28_Node000022_Node000021" class="edge">
<title>Node22&#45;&gt;Node21</title>
<g id="a_edge28_Node000022_Node000021"><a xlink:title=" ">
<path fill="none" stroke="#63b8ff" d="M633.09,-368.55C638.01,-366.25 642.67,-363.43 646.75,-360 675.37,-335.96 660.48,-314.02 682.75,-284 698.8,-262.37 722.08,-242.18 739.28,-228.72"/>
<polygon fill="#63b8ff" stroke="#63b8ff" points="740.83,-231.17 746.65,-222.32 736.58,-225.61 740.83,-231.17"/>
</a>
</g>
</g>
<!-- Node23 -->
<g id="Node000023" class="node">
<title>Node23</title>
<g id="a_Node000023"><a xlink:href="a00562.html#gaf368256a569a5a9e12f85f84d7d42287" target="_top" xlink:title="This inline function updates PWM Deadtime high register with the requested value for a specific PWM g...">
<polygon fill="white" stroke="#666666" points="825.12,-389 701.12,-389 701.12,-369 825.12,-369 825.12,-389"/>
<text text-anchor="middle" x="763.12" y="-375.5" font-family="Helvetica,sans-Serif" font-size="10.00">PWM_DeadTimeHighSet</text>
</a>
</g>
</g>
<!-- Node22&#45;&gt;Node23 -->
<g id="edge24_Node000022_Node000023" class="edge">
<title>Node22&#45;&gt;Node23</title>
<g id="a_edge24_Node000022_Node000023"><a xlink:title=" ">
<path fill="none" stroke="#63b8ff" d="M633.91,-379C651.61,-379 671.42,-379 690.08,-379"/>
<polygon fill="#63b8ff" stroke="#63b8ff" points="689.9,-382.5 699.9,-379 689.9,-375.5 689.9,-382.5"/>
</a>
</g>
</g>
<!-- Node24 -->
<g id="Node000024" class="node">
<title>Node24</title>
<g id="a_Node000024"><a xlink:href="a00562.html#ga124426b28426beb53948e9b57319ab4b" target="_top" xlink:title="This inline function updates PWM Deadtime low register with the requested value for a specific PWM ge...">
<polygon fill="white" stroke="#666666" points="824,-351 702.25,-351 702.25,-331 824,-331 824,-351"/>
<text text-anchor="middle" x="763.12" y="-337.5" font-family="Helvetica,sans-Serif" font-size="10.00">PWM_DeadTimeLowSet</text>
</a>
</g>
</g>
<!-- Node22&#45;&gt;Node24 -->
<g id="edge25_Node000022_Node000024" class="edge">
<title>Node22&#45;&gt;Node24</title>
<g id="a_edge25_Node000022_Node000024"><a xlink:title=" ">
<path fill="none" stroke="#63b8ff" d="M628.71,-368.52C651.06,-363.91 677.51,-358.45 700.93,-353.62"/>
<polygon fill="#63b8ff" stroke="#63b8ff" points="701.37,-356.9 710.46,-351.45 699.96,-350.04 701.37,-356.9"/>
</a>
</g>
</g>
<!-- Node25 -->
<g id="Node000025" class="node">
<title>Node25</title>
<g id="a_Node000025"><a xlink:href="a00562.html#ga37968a783e44cd80643478d2b559dbf4" target="_top" xlink:title="This inline function sets the PWM generator specific duty cycle register.">
<polygon fill="white" stroke="#666666" points="816.12,-313 710.12,-313 710.12,-293 816.12,-293 816.12,-313"/>
<text text-anchor="middle" x="763.12" y="-299.5" font-family="Helvetica,sans-Serif" font-size="10.00">PWM_DutyCycleSet</text>
</a>
</g>
</g>
<!-- Node22&#45;&gt;Node25 -->
<g id="edge26_Node000022_Node000025" class="edge">
<title>Node22&#45;&gt;Node25</title>
<g id="a_edge26_Node000022_Node000025"><a xlink:title=" ">
<path fill="none" stroke="#63b8ff" d="M628.12,-368.62C634.62,-366.29 641.01,-363.45 646.75,-360 666.69,-348.02 662.6,-333.63 682.75,-322 687.89,-319.03 693.47,-316.53 699.21,-314.41"/>
<polygon fill="#63b8ff" stroke="#63b8ff" points="700.23,-317.44 708.66,-311.01 698.07,-310.78 700.23,-317.44"/>
</a>
</g>
</g>
<!-- Node26 -->
<g id="Node000026" class="node">
<title>Node26</title>
<g id="a_Node000026"><a xlink:href="a00562.html#gada46160823b0892a1af14a17c5ab516e" target="_top" xlink:title="This inline function sets the period value in count for the PWM generator specific Time Base.">
<polygon fill="white" stroke="#666666" points="807.5,-465 718.75,-465 718.75,-445 807.5,-445 807.5,-465"/>
<text text-anchor="middle" x="763.12" y="-451.5" font-family="Helvetica,sans-Serif" font-size="10.00">PWM_PeriodSet</text>
</a>
</g>
</g>
<!-- Node22&#45;&gt;Node26 -->
<g id="edge27_Node000022_Node000026" class="edge">
<title>Node22&#45;&gt;Node26</title>
<g id="a_edge27_Node000022_Node000026"><a xlink:title=" ">
<path fill="none" stroke="#63b8ff" d="M593.94,-389.48C613.99,-402.14 649.67,-423.3 682.75,-436 690.84,-439.1 699.59,-441.81 708.23,-444.13"/>
<polygon fill="#63b8ff" stroke="#63b8ff" points="707.1,-447.71 717.66,-446.77 708.82,-440.92 707.1,-447.71"/>
</a>
</g>
</g>
<!-- Node27 -->
<g id="Node000027" class="node">
<title>Node27</title>
<g id="a_Node000027"><a xlink:href="a00562.html#gacc5575148a6e8da6577d9be9e20541ce" target="_top" xlink:title="This inline function sets the Trigger C compare value in count for a specific PWM generator selected ...">
<polygon fill="white" stroke="#666666" points="843.5,-427 682.75,-427 682.75,-407 843.5,-407 843.5,-427"/>
<text text-anchor="middle" x="763.12" y="-413.5" font-family="Helvetica,sans-Serif" font-size="10.00">PWM_TriggerCCompareValueSet</text>
</a>
</g>
</g>
<!-- Node22&#45;&gt;Node27 -->
<g id="edge29_Node000022_Node000027" class="edge">
<title>Node22&#45;&gt;Node27</title>
<g id="a_edge29_Node000022_Node000027"><a xlink:title=" ">
<path fill="none" stroke="#63b8ff" d="M628.71,-389.48C651.06,-394.09 677.51,-399.55 700.93,-404.38"/>
<polygon fill="#63b8ff" stroke="#63b8ff" points="699.96,-407.96 710.46,-406.55 701.37,-401.1 699.96,-407.96"/>
</a>
</g>
</g>
<!-- Node29&#45;&gt;Node18 -->
<g id="edge33_Node000029_Node000018" class="edge">
<title>Node29&#45;&gt;Node18</title>
<g id="a_edge33_Node000029_Node000018"><a xlink:title=" ">
<path fill="none" stroke="#63b8ff" d="M288.86,-86.84C341,-89.78 413.14,-98.86 471,-125 489.98,-133.57 488.55,-145.35 507,-155 510.45,-156.8 514.08,-158.45 517.8,-159.95"/>
<polygon fill="#63b8ff" stroke="#63b8ff" points="516.22,-163.46 526.81,-163.59 518.61,-156.88 516.22,-163.46"/>
</a>
</g>
</g>
<!-- Node30 -->
<g id="Node000030" class="node">
<title>Node30</title>
<g id="a_Node000030"><a xlink:href="a00548.html#ga59bb2fab32dc783d76f800283b4c7e2b" target="_top" xlink:title="Softly increment / decrement to the set reference target.">
<polygon fill="white" stroke="#666666" points="458.62,-20 336.88,-20 336.88,0 458.62,0 458.62,-20"/>
<text text-anchor="middle" x="397.75" y="-6.5" font-family="Helvetica,sans-Serif" font-size="10.00">PwrCtrl_RampReference</text>
</a>
</g>
</g>
<!-- Node29&#45;&gt;Node30 -->
<g id="edge34_Node000029_Node000030" class="edge">
<title>Node29&#45;&gt;Node30</title>
<g id="a_edge34_Node000029_Node000030"><a xlink:title=" ">
<path fill="none" stroke="#63b8ff" d="M269.87,-75.62C276.37,-73.29 282.76,-70.45 288.5,-67 308.44,-55.02 304.48,-40.86 324.5,-29 327.31,-27.34 330.27,-25.81 333.31,-24.42"/>
<polygon fill="#63b8ff" stroke="#63b8ff" points="334.31,-27.39 342.29,-20.42 331.7,-20.9 334.31,-27.39"/>
</a>
</g>
</g>
<!-- Node31&#45;&gt;Node3 -->
<g id="edge37_Node000031_Node000003" class="edge">
<title>Node31&#45;&gt;Node3</title>
<g id="a_edge37_Node000031_Node000003"><a xlink:title=" ">
<path fill="none" stroke="#63b8ff" d="M225.55,-291.44C239.63,-315.35 277.44,-374.47 324.5,-407 326.26,-408.22 328.09,-409.38 329.96,-410.49"/>
<polygon fill="#63b8ff" stroke="#63b8ff" points="328.2,-414.05 338.68,-415.62 331.47,-407.86 328.2,-414.05"/>
</a>
</g>
</g>
<!-- Node31&#45;&gt;Node4 -->
<g id="edge38_Node000031_Node000004" class="edge">
<title>Node31&#45;&gt;Node4</title>
<g id="a_edge38_Node000031_Node000004"><a xlink:title=" ">
<path fill="none" stroke="#63b8ff" d="M231.44,-291.38C250.09,-307.32 288,-337.99 324.5,-357 328.72,-359.2 333.17,-361.27 337.71,-363.21"/>
<polygon fill="#63b8ff" stroke="#63b8ff" points="336.15,-366.75 346.74,-367.24 338.76,-360.26 336.15,-366.75"/>
</a>
</g>
</g>
<!-- Node31&#45;&gt;Node5 -->
<g id="edge39_Node000031_Node000005" class="edge">
<title>Node31&#45;&gt;Node5</title>
<g id="a_edge39_Node000031_Node000005"><a xlink:title=" ">
<path fill="none" stroke="#63b8ff" d="M224.89,-291.22C237.3,-315.58 268.79,-379.22 288.5,-435 309.33,-493.95 280.25,-526.82 324.5,-571 325.35,-571.85 326.23,-572.66 327.14,-573.44"/>
<polygon fill="#63b8ff" stroke="#63b8ff" points="324.82,-576.77 335.05,-579.52 328.77,-570.99 324.82,-576.77"/>
</a>
</g>
</g>
<!-- Node31&#45;&gt;Node8 -->
<g id="edge40_Node000031_Node000008" class="edge">
<title>Node31&#45;&gt;Node8</title>
<g id="a_edge40_Node000031_Node000008"><a xlink:title=" ">
<path fill="none" stroke="#63b8ff" d="M252.11,-291.45C280.74,-300.67 322.64,-314.15 353.98,-324.24"/>
<polygon fill="#63b8ff" stroke="#63b8ff" points="352.58,-327.78 363.17,-327.52 354.72,-321.12 352.58,-327.78"/>
</a>
</g>
</g>
<!-- Node31&#45;&gt;Node22 -->
<g id="edge51_Node000031_Node000022" class="edge">
<title>Node31&#45;&gt;Node22</title>
<g id="a_edge51_Node000031_Node000022"><a xlink:title=" ">
<path fill="none" stroke="#63b8ff" d="M281.09,-285.45C344.72,-290.9 439.19,-301.62 471,-319 492.28,-330.63 486.45,-347.12 507,-360 509.48,-361.55 512.08,-362.98 514.77,-364.29"/>
<polygon fill="#63b8ff" stroke="#63b8ff" points="513.21,-367.86 523.78,-368.56 515.96,-361.42 513.21,-367.86"/>
</a>
</g>
</g>
<!-- Node32 -->
<g id="Node000032" class="node">
<title>Node32</title>
<g id="a_Node000032"><a xlink:href="a00534.html#ga494b4a948891fd5757ccc647f9962529" target="_top" xlink:title="API function to clear the sensor offset.">
<polygon fill="white" stroke="#666666" points="447.38,-234 348.12,-234 348.12,-202 447.38,-202 447.38,-234"/>
<text text-anchor="start" x="356.12" y="-220.5" font-family="Helvetica,sans-Serif" font-size="10.00">Dev_CurrentSensor</text>
<text text-anchor="middle" x="397.75" y="-208.5" font-family="Helvetica,sans-Serif" font-size="10.00">_Clr_Offset</text>
</a>
</g>
</g>
<!-- Node31&#45;&gt;Node32 -->
<g id="edge36_Node000031_Node000032" class="edge">
<title>Node31&#45;&gt;Node32</title>
<g id="a_edge36_Node000031_Node000032"><a xlink:title=" ">
<path fill="none" stroke="#63b8ff" d="M248.07,-270.57C269.15,-262.87 298.58,-252.18 324.5,-243 329.06,-241.39 333.78,-239.73 338.53,-238.06"/>
<polygon fill="#63b8ff" stroke="#63b8ff" points="339.62,-241.04 347.91,-234.44 337.32,-234.43 339.62,-241.04"/>
</a>
</g>
</g>
<!-- Node33 -->
<g id="Node000033" class="node">
<title>Node33</title>
<g id="a_Node000033"><a xlink:href="a00544.html#ga09cbca9d9eea8e033ba27cb0f77417c3" target="_top" xlink:title="Forward/Reverse Direction related swap pattern on PWM output.">
<polygon fill="white" stroke="#666666" points="471,-184 324.5,-184 324.5,-152 471,-152 471,-184"/>
<text text-anchor="start" x="332.5" y="-170.5" font-family="Helvetica,sans-Serif" font-size="10.00">PwrCtrl_PWM_DAB_Direction</text>
<text text-anchor="middle" x="397.75" y="-158.5" font-family="Helvetica,sans-Serif" font-size="10.00">SpecificSwapCfg</text>
</a>
</g>
</g>
<!-- Node31&#45;&gt;Node33 -->
<g id="edge41_Node000031_Node000033" class="edge">
<title>Node31&#45;&gt;Node33</title>
<g id="a_edge41_Node000031_Node000033"><a xlink:title=" ">
<path fill="none" stroke="#63b8ff" d="M229.38,-270.62C246.88,-252.56 285.42,-215.15 324.5,-193 327.01,-191.58 329.62,-190.21 332.28,-188.91"/>
<polygon fill="#63b8ff" stroke="#63b8ff" points="333.47,-191.77 341.14,-184.47 330.59,-185.39 333.47,-191.77"/>
</a>
</g>
</g>
<!-- Node35 -->
<g id="Node000035" class="node">
<title>Node35</title>
<g id="a_Node000035"><a xlink:href="a00544.html#gae20d34fb8fc7fbaa57f6c68b2907807f" target="_top" xlink:title="Enable the PWM output.">
<polygon fill="white" stroke="#666666" points="454.12,-58 341.38,-58 341.38,-38 454.12,-38 454.12,-58"/>
<text text-anchor="middle" x="397.75" y="-44.5" font-family="Helvetica,sans-Serif" font-size="10.00">PwrCtrl_PWM_Enable</text>
</a>
</g>
</g>
<!-- Node31&#45;&gt;Node35 -->
<g id="edge47_Node000031_Node000035" class="edge">
<title>Node31&#45;&gt;Node35</title>
<g id="a_edge47_Node000031_Node000035"><a xlink:title=" ">
<path fill="none" stroke="#63b8ff" d="M227.52,-270.61C244.99,-247.62 288.26,-190.67 324.5,-143 344.56,-116.61 367.76,-86.11 382.35,-66.93"/>
<polygon fill="#63b8ff" stroke="#63b8ff" points="385.68,-69.34 388.94,-59.26 380.1,-65.1 385.68,-69.34"/>
</a>
</g>
</g>
<!-- Node38 -->
<g id="Node000038" class="node">
<title>Node38</title>
<g id="a_Node000038"><a xlink:href="a00542.html#ga8c07187b0c96b5916e4b46daa47500c5" target="_top" xlink:title="Resets the power control properties.">
<polygon fill="white" stroke="#666666" points="436.88,-272 358.62,-272 358.62,-252 436.88,-252 436.88,-272"/>
<text text-anchor="middle" x="397.75" y="-258.5" font-family="Helvetica,sans-Serif" font-size="10.00">PwrCtrl_Reset</text>
</a>
</g>
</g>
<!-- Node31&#45;&gt;Node38 -->
<g id="edge52_Node000031_Node000038" class="edge">
<title>Node31&#45;&gt;Node38</title>
<g id="a_edge52_Node000031_Node000038"><a xlink:title=" ">
<path fill="none" stroke="#63b8ff" d="M281.08,-274.41C302.84,-272.07 327.03,-269.48 347.63,-267.27"/>
<polygon fill="#63b8ff" stroke="#63b8ff" points="347.79,-270.66 357.36,-266.12 347.05,-263.7 347.79,-270.66"/>
</a>
</g>
</g>
<!-- Node33&#45;&gt;Node9 -->
<g id="edge42_Node000033_Node000009" class="edge">
<title>Node33&#45;&gt;Node9</title>
<g id="a_edge42_Node000033_Node000009"><a xlink:title=" ">
<path fill="none" stroke="#63b8ff" d="M459.47,-184.33C463.64,-186.83 467.55,-189.7 471,-193 502.42,-223.08 474.64,-254.94 507,-284 512.71,-289.13 519.68,-292.88 526.97,-295.64"/>
<polygon fill="#63b8ff" stroke="#63b8ff" points="525.8,-299.25 536.39,-298.89 527.89,-292.57 525.8,-299.25"/>
</a>
</g>
</g>
<!-- Node33&#45;&gt;Node11 -->
<g id="edge43_Node000033_Node000011" class="edge">
<title>Node33&#45;&gt;Node11</title>
<g id="a_edge43_Node000033_Node000011"><a xlink:title=" ">
<path fill="none" stroke="#63b8ff" d="M460.54,-184.38C464.36,-186.86 467.91,-189.71 471,-193 511.79,-236.35 464.85,-279.97 507,-322 512.86,-327.85 520.35,-331.94 528.22,-334.79"/>
<polygon fill="#63b8ff" stroke="#63b8ff" points="527.09,-338.4 537.67,-337.86 529.07,-331.68 527.09,-338.4"/>
</a>
</g>
</g>
<!-- Node33&#45;&gt;Node18 -->
<g id="edge46_Node000033_Node000018" class="edge">
<title>Node33&#45;&gt;Node18</title>
<g id="a_edge46_Node000033_Node000018"><a xlink:title=" ">
<path fill="none" stroke="#63b8ff" d="M471.3,-170.46C483.45,-170.87 496,-171.29 508.02,-171.7"/>
<polygon fill="#63b8ff" stroke="#63b8ff" points="507.77,-175.23 517.88,-172.07 508.01,-168.23 507.77,-175.23"/>
</a>
</g>
</g>
<!-- Node33&#45;&gt;Node21 -->
<g id="edge44_Node000033_Node000021" class="edge">
<title>Node33&#45;&gt;Node21</title>
<g id="a_edge44_Node000033_Node000021"><a xlink:title=" ">
<path fill="none" stroke="#63b8ff" d="M462.83,-184.5C477.28,-187.74 492.6,-190.81 507,-193 563.25,-201.54 627.09,-206.29 676.84,-208.91"/>
<polygon fill="#63b8ff" stroke="#63b8ff" points="676.39,-212.44 686.55,-209.45 676.74,-205.45 676.39,-212.44"/>
</a>
</g>
</g>
<!-- Node34 -->
<g id="Node000034" class="node">
<title>Node34</title>
<g id="a_Node000034"><a xlink:href="a00539.html#gaab156f2b7ad138cf32e734bbf7145ef4" target="_top" xlink:title="Enable/Disable the PWM instance output swap bit.">
<polygon fill="white" stroke="#666666" points="642.62,-146 511.12,-146 511.12,-114 642.62,-114 642.62,-146"/>
<text text-anchor="start" x="519.12" y="-132.5" font-family="Helvetica,sans-Serif" font-size="10.00">PWM_Swap_PWMxL_and</text>
<text text-anchor="middle" x="576.88" y="-120.5" font-family="Helvetica,sans-Serif" font-size="10.00">_PWMxH</text>
</a>
</g>
</g>
<!-- Node33&#45;&gt;Node34 -->
<g id="edge45_Node000033_Node000034" class="edge">
<title>Node33&#45;&gt;Node34</title>
<g id="a_edge45_Node000033_Node000034"><a xlink:title=" ">
<path fill="none" stroke="#63b8ff" d="M471.3,-152.43C480.81,-150.39 490.58,-148.3 500.14,-146.25"/>
<polygon fill="#63b8ff" stroke="#63b8ff" points="500.78,-149.48 509.82,-143.96 499.31,-142.63 500.78,-149.48"/>
</a>
</g>
</g>
<!-- Node35&#45;&gt;Node21 -->
<g id="edge50_Node000035_Node000021" class="edge">
<title>Node35&#45;&gt;Node21</title>
<g id="a_edge50_Node000035_Node000021"><a xlink:title=" ">
<path fill="none" stroke="#63b8ff" d="M454.57,-58.02C523.11,-70.76 632.12,-92.58 646.75,-105 678.96,-132.36 650.67,-165.5 682.75,-193 683.99,-194.07 685.29,-195.08 686.62,-196.03"/>
<polygon fill="#63b8ff" stroke="#63b8ff" points="684.59,-199.49 694.98,-201.57 688.16,-193.46 684.59,-199.49"/>
</a>
</g>
</g>
<!-- Node36 -->
<g id="Node000036" class="node">
<title>Node36</title>
<g id="a_Node000036"><a xlink:href="a00562.html#ga957b002605bfb2239a26f174808b2ad8" target="_top" xlink:title="This inline function disables PWM override on PWMH output for specific PWM generator selected by the ...">
<polygon fill="white" stroke="#666666" points="643.38,-58 510.38,-58 510.38,-38 643.38,-38 643.38,-58"/>
<text text-anchor="middle" x="576.88" y="-44.5" font-family="Helvetica,sans-Serif" font-size="10.00">PWM_OverrideHighDisable</text>
</a>
</g>
</g>
<!-- Node35&#45;&gt;Node36 -->
<g id="edge48_Node000035_Node000036" class="edge">
<title>Node35&#45;&gt;Node36</title>
<g id="a_edge48_Node000035_Node000036"><a xlink:title=" ">
<path fill="none" stroke="#63b8ff" d="M454.31,-48C468.51,-48 484.04,-48 499.1,-48"/>
<polygon fill="#63b8ff" stroke="#63b8ff" points="498.97,-51.5 508.97,-48 498.97,-44.5 498.97,-51.5"/>
</a>
</g>
</g>
<!-- Node37 -->
<g id="Node000037" class="node">
<title>Node37</title>
<g id="a_Node000037"><a xlink:href="a00562.html#gabbedef830c43428e96c7d5125662a8a6" target="_top" xlink:title="This inline function disables PWM override on PWML output for specific PWM generator selected by the ...">
<polygon fill="white" stroke="#666666" points="642.25,-20 511.5,-20 511.5,0 642.25,0 642.25,-20"/>
<text text-anchor="middle" x="576.88" y="-6.5" font-family="Helvetica,sans-Serif" font-size="10.00">PWM_OverrideLowDisable</text>
</a>
</g>
</g>
<!-- Node35&#45;&gt;Node37 -->
<g id="edge49_Node000035_Node000037" class="edge">
<title>Node35&#45;&gt;Node37</title>
<g id="a_edge49_Node000035_Node000037"><a xlink:title=" ">
<path fill="none" stroke="#63b8ff" d="M447.62,-37.52C468.91,-32.95 494.07,-27.55 516.44,-22.75"/>
<polygon fill="#63b8ff" stroke="#63b8ff" points="517.12,-25.97 526.17,-20.45 515.65,-19.13 517.12,-25.97"/>
</a>
</g>
</g>
<!-- Node39 -->
<g id="Node000039" class="node">
<title>Node39</title>
<g id="a_Node000039"><a xlink:href="a00546.html#gae5d978249e235e284da922df5ec4363a" target="_top" xlink:title="Clear the control and error histories of the control loops.">
<polygon fill="white" stroke="#666666" points="641.88,-275 511.88,-275 511.88,-243 641.88,-243 641.88,-275"/>
<text text-anchor="start" x="519.88" y="-261.5" font-family="Helvetica,sans-Serif" font-size="10.00">PwrCtrl_ResetControlLoop</text>
<text text-anchor="middle" x="576.88" y="-249.5" font-family="Helvetica,sans-Serif" font-size="10.00">Histories</text>
</a>
</g>
</g>
<!-- Node38&#45;&gt;Node39 -->
<g id="edge53_Node000038_Node000039" class="edge">
<title>Node38&#45;&gt;Node39</title>
<g id="a_edge53_Node000038_Node000039"><a xlink:title=" ">
<path fill="none" stroke="#63b8ff" d="M437.18,-261.35C455.72,-261.04 478.63,-260.65 500.45,-260.28"/>
<polygon fill="#63b8ff" stroke="#63b8ff" points="500.46,-263.76 510.39,-260.09 500.34,-256.76 500.46,-263.76"/>
</a>
</g>
</g>
<!-- Node40&#45;&gt;Node18 -->
<g id="edge55_Node000040_Node000018" class="edge">
<title>Node40&#45;&gt;Node18</title>
<g id="a_edge55_Node000040_Node000018"><a xlink:title=" ">
<path fill="none" stroke="#63b8ff" d="M283.73,-128.58C334.86,-128.58 408.09,-131.12 471,-143 487.57,-146.13 490.87,-150.09 507,-155 513.08,-156.85 519.49,-158.72 525.85,-160.53"/>
<polygon fill="#63b8ff" stroke="#63b8ff" points="524.86,-164.17 535.44,-163.5 526.75,-157.43 524.86,-164.17"/>
</a>
</g>
</g>
</g>
</svg>
