<?xml version="1.0" encoding="UTF-8" standalone="no"?>
<!DOCTYPE svg PUBLIC "-//W3C//DTD SVG 1.1//EN"
 "http://www.w3.org/Graphics/SVG/1.1/DTD/svg11.dtd">
<!-- Generated by graphviz version 8.1.0 (20230707.0739)
 -->
<!-- Title: Tasks_Realtime_100us Pages: 1 -->
<svg width="992pt" height="551pt"
 viewBox="0.00 0.00 992.00 551.00" xmlns="http://www.w3.org/2000/svg" xmlns:xlink="http://www.w3.org/1999/xlink">
<g id="graph0" class="graph" transform="scale(1 1) rotate(0) translate(4 547)">
<title>Tasks_Realtime_100us</title>
<!-- Node1 -->
<g id="Node000001" class="node">
<title>Node1</title>
<g id="a_Node000001"><a xlink:title="Tasks_Realtime_100us gets called directly from the timer interrupt every 100 µs.">
<polygon fill="#999999" stroke="#666666" points="117.25,-423 0,-423 0,-403 117.25,-403 117.25,-423"/>
<text text-anchor="middle" x="58.62" y="-409.5" font-family="Helvetica,sans-Serif" font-size="10.00">Tasks_Realtime_100us</text>
</a>
</g>
</g>
<!-- Node2 -->
<g id="Node000002" class="node">
<title>Node2</title>
<g id="a_Node000002"><a xlink:href="a00489.html#gad5d6590aeda3bb06b60874802edc14f6" target="_top" xlink:title="Executes the power control state machine.">
<polygon fill="white" stroke="#666666" points="263,-423 153.25,-423 153.25,-403 263,-403 263,-423"/>
<text text-anchor="middle" x="208.12" y="-409.5" font-family="Helvetica,sans-Serif" font-size="10.00">Dev_PwrCtrl_Execute</text>
</a>
</g>
</g>
<!-- Node1&#45;&gt;Node2 -->
<g id="edge1_Node000001_Node000002" class="edge">
<title>Node1&#45;&gt;Node2</title>
<g id="a_edge1_Node000001_Node000002"><a xlink:title=" ">
<path fill="none" stroke="#63b8ff" d="M117.5,-413C125.49,-413 133.74,-413 141.85,-413"/>
<polygon fill="#63b8ff" stroke="#63b8ff" points="141.79,-416.5 151.79,-413 141.79,-409.5 141.79,-416.5"/>
</a>
</g>
</g>
<!-- Node3 -->
<g id="Node000003" class="node">
<title>Node3</title>
<g id="a_Node000003"><a xlink:href="a00492.html#gaebef55c78d9df043c293ffcf8a06b63f" target="_top" xlink:title="Manages the power control state machine.">
<polygon fill="white" stroke="#666666" points="432.75,-423 299,-423 299,-403 432.75,-403 432.75,-423"/>
<text text-anchor="middle" x="365.88" y="-409.5" font-family="Helvetica,sans-Serif" font-size="10.00">Dev_PwrCtrl_StateMachine</text>
</a>
</g>
</g>
<!-- Node2&#45;&gt;Node3 -->
<g id="edge2_Node000002_Node000003" class="edge">
<title>Node2&#45;&gt;Node3</title>
<g id="a_edge2_Node000002_Node000003"><a xlink:title=" ">
<path fill="none" stroke="#63b8ff" d="M263.16,-413C271.1,-413 279.41,-413 287.71,-413"/>
<polygon fill="#63b8ff" stroke="#63b8ff" points="287.58,-416.5 297.58,-413 287.58,-409.5 287.58,-416.5"/>
</a>
</g>
</g>
<!-- Node4 -->
<g id="Node000004" class="node">
<title>Node4</title>
<g id="a_Node000004"><a xlink:href="a00492.html#ga8307344d190a5459682d315fc7bfe198" target="_top" xlink:title="Executes function for initialze state machine.">
<polygon fill="white" stroke="#666666" points="586,-423 491.25,-423 491.25,-403 586,-403 586,-423"/>
<text text-anchor="middle" x="538.62" y="-409.5" font-family="Helvetica,sans-Serif" font-size="10.00">PCS_INIT_handler</text>
</a>
</g>
</g>
<!-- Node3&#45;&gt;Node4 -->
<g id="edge3_Node000003_Node000004" class="edge">
<title>Node3&#45;&gt;Node4</title>
<g id="a_edge3_Node000003_Node000004"><a xlink:title=" ">
<path fill="none" stroke="#63b8ff" d="M432.89,-413C448.45,-413 464.91,-413 480.06,-413"/>
<polygon fill="#63b8ff" stroke="#63b8ff" points="479.83,-416.5 489.83,-413 479.83,-409.5 479.83,-416.5"/>
</a>
</g>
</g>
<!-- Node15 -->
<g id="Node000015" class="node">
<title>Node15</title>
<g id="a_Node000015"><a xlink:href="a00492.html#gabda6b853bb6547821acd0ec87e0a4842" target="_top" xlink:title="Executes the power control soft start state machine.">
<polygon fill="white" stroke="#666666" points="608.5,-511 468.75,-511 468.75,-491 608.5,-491 608.5,-511"/>
<text text-anchor="middle" x="538.62" y="-497.5" font-family="Helvetica,sans-Serif" font-size="10.00">PCS_SOFT_START_handler</text>
</a>
</g>
</g>
<!-- Node3&#45;&gt;Node15 -->
<g id="edge14_Node000003_Node000015" class="edge">
<title>Node3&#45;&gt;Node15</title>
<g id="a_edge14_Node000003_Node000015"><a xlink:title=" ">
<path fill="none" stroke="#63b8ff" d="M379.25,-423.37C397.65,-438.32 433.84,-465.89 468.75,-482 472.8,-483.87 477.08,-485.59 481.44,-487.17"/>
<polygon fill="#63b8ff" stroke="#63b8ff" points="480.08,-490.74 490.68,-490.58 482.3,-484.1 480.08,-490.74"/>
</a>
</g>
</g>
<!-- Node17 -->
<g id="Node000017" class="node">
<title>Node17</title>
<g id="a_Node000017"><a xlink:href="a00492.html#ga42f7c8f65745b2f81bb6dbd381ea8121" target="_top" xlink:title="Executes Standby State machine.">
<polygon fill="white" stroke="#666666" points="600.62,-363 476.62,-363 476.62,-343 600.62,-343 600.62,-363"/>
<text text-anchor="middle" x="538.62" y="-349.5" font-family="Helvetica,sans-Serif" font-size="10.00">PCS_STANDBY_handler</text>
</a>
</g>
</g>
<!-- Node3&#45;&gt;Node17 -->
<g id="edge17_Node000003_Node000017" class="edge">
<title>Node3&#45;&gt;Node17</title>
<g id="a_edge17_Node000003_Node000017"><a xlink:title=" ">
<path fill="none" stroke="#63b8ff" d="M396.62,-402.55C424.69,-392.68 466.97,-377.83 497.92,-366.95"/>
<polygon fill="#63b8ff" stroke="#63b8ff" points="498.66,-370.05 506.94,-363.43 496.34,-363.45 498.66,-370.05"/>
</a>
</g>
</g>
<!-- Node30 -->
<g id="Node000030" class="node">
<title>Node30</title>
<g id="a_Node000030"><a xlink:href="a00492.html#ga8752fbb48416e60141e205f1cbda0f98" target="_top" xlink:title="Executes the Online state.">
<polygon fill="white" stroke="#666666" points="603.25,-473 474,-473 474,-441 603.25,-441 603.25,-473"/>
<text text-anchor="start" x="482" y="-459.5" font-family="Helvetica,sans-Serif" font-size="10.00">PCS_UP_AND_RUNNING</text>
<text text-anchor="middle" x="538.62" y="-447.5" font-family="Helvetica,sans-Serif" font-size="10.00">_handler</text>
</a>
</g>
</g>
<!-- Node3&#45;&gt;Node30 -->
<g id="edge36_Node000003_Node000030" class="edge">
<title>Node3&#45;&gt;Node30</title>
<g id="a_edge36_Node000003_Node000030"><a xlink:title=" ">
<path fill="none" stroke="#63b8ff" d="M407.34,-423.43C424.07,-427.74 444.01,-432.88 463.2,-437.82"/>
<polygon fill="#63b8ff" stroke="#63b8ff" points="462.2,-441.44 472.75,-440.54 463.94,-434.66 462.2,-441.44"/>
</a>
</g>
</g>
<!-- Node31 -->
<g id="Node000031" class="node">
<title>Node31</title>
<g id="a_Node000031"><a xlink:href="a00492.html#gaad6ef2378120876a621b349c1380aef7" target="_top" xlink:title="Executes the fault handler state machine.">
<polygon fill="white" stroke="#666666" points="595.75,-325 481.5,-325 481.5,-293 595.75,-293 595.75,-325"/>
<text text-anchor="start" x="489.5" y="-311.5" font-family="Helvetica,sans-Serif" font-size="10.00">PCS_WAIT_IF_FAULT</text>
<text text-anchor="middle" x="538.62" y="-299.5" font-family="Helvetica,sans-Serif" font-size="10.00">_ACTIVE_handler</text>
</a>
</g>
</g>
<!-- Node3&#45;&gt;Node31 -->
<g id="edge38_Node000003_Node000031" class="edge">
<title>Node3&#45;&gt;Node31</title>
<g id="a_edge38_Node000003_Node000031"><a xlink:title=" ">
<path fill="none" stroke="#63b8ff" d="M377.67,-402.75C395.44,-386.35 432.49,-353.99 468.75,-334 471.41,-332.53 474.18,-331.12 477.01,-329.77"/>
<polygon fill="#63b8ff" stroke="#63b8ff" points="478.09,-332.67 485.79,-325.39 475.23,-326.28 478.09,-332.67"/>
</a>
</g>
</g>
<!-- Node5 -->
<g id="Node000005" class="node">
<title>Node5</title>
<g id="a_Node000005"><a xlink:href="a00500.html#ga218632f9814c3bf20c40cea0794ffc7d" target="_top" xlink:title="API function to get the calibration status.">
<polygon fill="white" stroke="#666666" points="774.12,-391 657.62,-391 657.62,-359 774.12,-359 774.12,-391"/>
<text text-anchor="start" x="665.62" y="-377.5" font-family="Helvetica,sans-Serif" font-size="10.00">Dev_CurrentSensor</text>
<text text-anchor="middle" x="715.88" y="-365.5" font-family="Helvetica,sans-Serif" font-size="10.00">_Get_CalibrationStatus</text>
</a>
</g>
</g>
<!-- Node4&#45;&gt;Node5 -->
<g id="edge4_Node000004_Node000005" class="edge">
<title>Node4&#45;&gt;Node5</title>
<g id="a_edge4_Node000004_Node000005"><a xlink:title=" ">
<path fill="none" stroke="#63b8ff" d="M586.13,-402.92C604.61,-398.91 626.25,-394.22 646.45,-389.84"/>
<polygon fill="#63b8ff" stroke="#63b8ff" points="647.15,-393.05 656.18,-387.51 645.66,-386.21 647.15,-393.05"/>
</a>
</g>
</g>
<!-- Node6 -->
<g id="Node000006" class="node">
<title>Node6</title>
<g id="a_Node000006"><a xlink:href="a00500.html#ga9f581abf52dc00ba320faafa189fafb9" target="_top" xlink:title="API function to get the sensor offset.">
<polygon fill="white" stroke="#666666" points="765.5,-341 666.25,-341 666.25,-309 765.5,-309 765.5,-341"/>
<text text-anchor="start" x="674.25" y="-327.5" font-family="Helvetica,sans-Serif" font-size="10.00">Dev_CurrentSensor</text>
<text text-anchor="middle" x="715.88" y="-315.5" font-family="Helvetica,sans-Serif" font-size="10.00">_Get_Offset</text>
</a>
</g>
</g>
<!-- Node4&#45;&gt;Node6 -->
<g id="edge5_Node000004_Node000006" class="edge">
<title>Node4&#45;&gt;Node6</title>
<g id="a_edge5_Node000004_Node000006"><a xlink:title=" ">
<path fill="none" stroke="#63b8ff" d="M557.21,-402.61C571.15,-394.35 591.1,-382.49 608.5,-372 624.56,-362.32 627.57,-358.07 644.5,-350 648.11,-348.28 651.86,-346.61 655.68,-345.01"/>
<polygon fill="#63b8ff" stroke="#63b8ff" points="656.9,-347.89 664.88,-340.92 654.3,-341.39 656.9,-347.89"/>
</a>
</g>
</g>
<!-- Node7 -->
<g id="Node000007" class="node">
<title>Node7</title>
<g id="a_Node000007"><a xlink:href="a00500.html#gaaa75855922e60913d443c6203475256f" target="_top" xlink:title="Measures the currents sensor offset.">
<polygon fill="white" stroke="#666666" points="785.38,-467 646.38,-467 646.38,-447 785.38,-447 785.38,-467"/>
<text text-anchor="middle" x="715.88" y="-453.5" font-family="Helvetica,sans-Serif" font-size="10.00">Dev_CurrentSensorOffsetCal</text>
</a>
</g>
</g>
<!-- Node4&#45;&gt;Node7 -->
<g id="edge6_Node000004_Node000007" class="edge">
<title>Node4&#45;&gt;Node7</title>
<g id="a_edge6_Node000004_Node000007"><a xlink:title=" ">
<path fill="none" stroke="#63b8ff" d="M581.16,-423.43C605.62,-429.57 636.79,-437.39 662.87,-443.94"/>
<polygon fill="#63b8ff" stroke="#63b8ff" points="661.79,-447.53 672.34,-446.57 663.49,-440.74 661.79,-447.53"/>
</a>
</g>
</g>
<!-- Node10 -->
<g id="Node000010" class="node">
<title>Node10</title>
<g id="a_Node000010"><a xlink:href="a00498.html#ga81e895976c1ee1cb678be1d5b5c3505b" target="_top" xlink:title="Clears the fault object flag bits.">
<polygon fill="white" stroke="#666666" points="760.62,-429 671.12,-429 671.12,-409 760.62,-409 760.62,-429"/>
<text text-anchor="middle" x="715.88" y="-415.5" font-family="Helvetica,sans-Serif" font-size="10.00">Dev_Fault_Reset</text>
</a>
</g>
</g>
<!-- Node4&#45;&gt;Node10 -->
<g id="edge9_Node000004_Node000010" class="edge">
<title>Node4&#45;&gt;Node10</title>
<g id="a_edge9_Node000004_Node000010"><a xlink:title=" ">
<path fill="none" stroke="#63b8ff" d="M586.13,-414.59C608.8,-415.37 636.22,-416.31 659.93,-417.12"/>
<polygon fill="#63b8ff" stroke="#63b8ff" points="659.76,-420.65 669.87,-417.49 660,-413.65 659.76,-420.65"/>
</a>
</g>
</g>
<!-- Node11 -->
<g id="Node000011" class="node">
<title>Node11</title>
<g id="a_Node000011"><a xlink:href="a00491.html#ga209e7835d32aaf5a402b470b61284bdf" target="_top" xlink:title="Disable the PWM output.">
<polygon fill="white" stroke="#666666" points="783.88,-505 647.88,-505 647.88,-485 783.88,-485 783.88,-505"/>
<text text-anchor="middle" x="715.88" y="-491.5" font-family="Helvetica,sans-Serif" font-size="10.00">Dev_PwrCtrl_PWM_Disable</text>
</a>
</g>
</g>
<!-- Node4&#45;&gt;Node11 -->
<g id="edge10_Node000004_Node000011" class="edge">
<title>Node4&#45;&gt;Node11</title>
<g id="a_edge10_Node000004_Node000011"><a xlink:title=" ">
<path fill="none" stroke="#63b8ff" d="M586.15,-421.6C593.98,-424.21 601.74,-427.6 608.5,-432 629.67,-445.79 623.29,-462.27 644.5,-476 646.82,-477.5 649.26,-478.89 651.79,-480.17"/>
<polygon fill="#63b8ff" stroke="#63b8ff" points="650.26,-483.76 660.82,-484.57 653.07,-477.35 650.26,-483.76"/>
</a>
</g>
</g>
<!-- Node8 -->
<g id="Node000008" class="node">
<title>Node8</title>
<g id="a_Node000008"><a xlink:href="a00510.html#gaf4b6f81a05012533b633a78dad7b6a98" target="_top" xlink:title="Returns the conversion value for the channel selected.">
<polygon fill="white" stroke="#666666" points="972.38,-467 834.88,-467 834.88,-447 972.38,-447 972.38,-467"/>
<text text-anchor="middle" x="903.62" y="-453.5" font-family="Helvetica,sans-Serif" font-size="10.00">ADC1_ConversionResultGet</text>
</a>
</g>
</g>
<!-- Node7&#45;&gt;Node8 -->
<g id="edge7_Node000007_Node000008" class="edge">
<title>Node7&#45;&gt;Node8</title>
<g id="a_edge7_Node000007_Node000008"><a xlink:title=" ">
<path fill="none" stroke="#63b8ff" d="M785.78,-457C798.08,-457 810.97,-457 823.53,-457"/>
<polygon fill="#63b8ff" stroke="#63b8ff" points="823.45,-460.5 833.45,-457 823.45,-453.5 823.45,-460.5"/>
</a>
</g>
</g>
<!-- Node9 -->
<g id="Node000009" class="node">
<title>Node9</title>
<g id="a_Node000009"><a xlink:href="a00500.html#ga03e8d61bbc0f4b686c400440f80dcf69" target="_top" xlink:title="Measure the sensor offset.">
<polygon fill="white" stroke="#666666" points="957.38,-429 849.88,-429 849.88,-409 957.38,-409 957.38,-429"/>
<text text-anchor="middle" x="903.62" y="-415.5" font-family="Helvetica,sans-Serif" font-size="10.00">Dev_SensorOffsetCal</text>
</a>
</g>
</g>
<!-- Node7&#45;&gt;Node9 -->
<g id="edge8_Node000007_Node000009" class="edge">
<title>Node7&#45;&gt;Node9</title>
<g id="a_edge8_Node000007_Node000009"><a xlink:title=" ">
<path fill="none" stroke="#63b8ff" d="M768.12,-446.52C790.66,-441.91 817.32,-436.45 840.93,-431.62"/>
<polygon fill="#63b8ff" stroke="#63b8ff" points="841.45,-434.88 850.54,-429.45 840.04,-428.03 841.45,-434.88"/>
</a>
</g>
</g>
<!-- Node12 -->
<g id="Node000012" class="node">
<title>Node12</title>
<g id="a_Node000012"><a xlink:href="a00516.html#ga531b59d8823e3ebda2da60f48582bcf3" target="_top" xlink:title="This inline function enables PWM override on PWMH output for specific PWM generator selected by the a...">
<polygon fill="white" stroke="#666666" points="969,-543 838.25,-543 838.25,-523 969,-523 969,-543"/>
<text text-anchor="middle" x="903.62" y="-529.5" font-family="Helvetica,sans-Serif" font-size="10.00">PWM_OverrideHighEnable</text>
</a>
</g>
</g>
<!-- Node11&#45;&gt;Node12 -->
<g id="edge11_Node000011_Node000012" class="edge">
<title>Node11&#45;&gt;Node12</title>
<g id="a_edge11_Node000011_Node000012"><a xlink:title=" ">
<path fill="none" stroke="#63b8ff" d="M768.12,-505.48C790.66,-510.09 817.32,-515.55 840.93,-520.38"/>
<polygon fill="#63b8ff" stroke="#63b8ff" points="840.04,-523.97 850.54,-522.55 841.45,-517.12 840.04,-523.97"/>
</a>
</g>
</g>
<!-- Node13 -->
<g id="Node000013" class="node">
<title>Node13</title>
<g id="a_Node000013"><a xlink:href="a00516.html#ga2548ca8feda75ba6ab784280679da6ae" target="_top" xlink:title="This inline function enables PWM override on PWML output for specific PWM generator selected by the a...">
<polygon fill="white" stroke="#666666" points="967.88,-505 839.38,-505 839.38,-485 967.88,-485 967.88,-505"/>
<text text-anchor="middle" x="903.62" y="-491.5" font-family="Helvetica,sans-Serif" font-size="10.00">PWM_OverrideLowEnable</text>
</a>
</g>
</g>
<!-- Node11&#45;&gt;Node13 -->
<g id="edge12_Node000011_Node000013" class="edge">
<title>Node11&#45;&gt;Node13</title>
<g id="a_edge12_Node000011_Node000013"><a xlink:title=" ">
<path fill="none" stroke="#63b8ff" d="M784.2,-495C798.43,-495 813.53,-495 828.01,-495"/>
<polygon fill="#63b8ff" stroke="#63b8ff" points="827.94,-498.5 837.94,-495 827.94,-491.5 827.94,-498.5"/>
</a>
</g>
</g>
<!-- Node14 -->
<g id="Node000014" class="node">
<title>Node14</title>
<g id="a_Node000014"><a xlink:href="a00516.html#ga83e780358618114f0d424ca7467cf751" target="_top" xlink:title="This inline function requests to update the data registers for specific PWM generator selected by the...">
<polygon fill="white" stroke="#666666" points="978.75,-298 828.5,-298 828.5,-278 978.75,-278 978.75,-298"/>
<text text-anchor="middle" x="903.62" y="-284.5" font-family="Helvetica,sans-Serif" font-size="10.00">PWM_SoftwareUpdateRequest</text>
</a>
</g>
</g>
<!-- Node11&#45;&gt;Node14 -->
<g id="edge13_Node000011_Node000014" class="edge">
<title>Node11&#45;&gt;Node14</title>
<g id="a_edge13_Node000011_Node000014"><a xlink:title=" ">
<path fill="none" stroke="#63b8ff" d="M776.19,-484.54C780.27,-482.21 784.03,-479.4 787.25,-476 840.07,-420.26 769.63,-361.98 823.25,-307 824.09,-306.14 824.96,-305.31 825.86,-304.52"/>
<polygon fill="#63b8ff" stroke="#63b8ff" points="827.52,-306.93 833.67,-298.3 823.48,-301.21 827.52,-306.93"/>
</a>
</g>
</g>
<!-- Node15&#45;&gt;Node11 -->
<g id="edge15_Node000015_Node000011" class="edge">
<title>Node15&#45;&gt;Node11</title>
<g id="a_edge15_Node000015_Node000011"><a xlink:title=" ">
<path fill="none" stroke="#63b8ff" d="M608.89,-498.63C618.03,-498.32 627.46,-497.99 636.74,-497.68"/>
<polygon fill="#63b8ff" stroke="#63b8ff" points="636.67,-501.15 646.55,-497.31 636.43,-494.15 636.67,-501.15"/>
</a>
</g>
</g>
<!-- Node16 -->
<g id="Node000016" class="node">
<title>Node16</title>
<g id="a_Node000016"><a xlink:href="a00495.html#gae958b8e13bf04622c6c67ea391639f41" target="_top" xlink:title="Softly increment / decrement to the set reference target.">
<polygon fill="white" stroke="#666666" points="787.25,-543 644.5,-543 644.5,-523 787.25,-523 787.25,-543"/>
<text text-anchor="middle" x="715.88" y="-529.5" font-family="Helvetica,sans-Serif" font-size="10.00">Dev_PwrCtrl_RampReference</text>
</a>
</g>
</g>
<!-- Node15&#45;&gt;Node16 -->
<g id="edge16_Node000015_Node000016" class="edge">
<title>Node15&#45;&gt;Node16</title>
<g id="a_edge16_Node000015_Node000016"><a xlink:title=" ">
<path fill="none" stroke="#63b8ff" d="M597.01,-511.48C612.98,-514.39 630.47,-517.59 646.98,-520.6"/>
<polygon fill="#63b8ff" stroke="#63b8ff" points="646.2,-524.2 656.66,-522.55 647.45,-517.31 646.2,-524.2"/>
</a>
</g>
</g>
<!-- Node17&#45;&gt;Node5 -->
<g id="edge19_Node000017_Node000005" class="edge">
<title>Node17&#45;&gt;Node5</title>
<g id="a_edge19_Node000017_Node000005"><a xlink:title=" ">
<path fill="none" stroke="#63b8ff" d="M600.92,-360.69C615.61,-362.54 631.4,-364.52 646.39,-366.4"/>
<polygon fill="#63b8ff" stroke="#63b8ff" points="645.79,-369.98 656.15,-367.75 646.66,-363.03 645.79,-369.98"/>
</a>
</g>
</g>
<!-- Node17&#45;&gt;Node6 -->
<g id="edge20_Node000017_Node000006" class="edge">
<title>Node17&#45;&gt;Node6</title>
<g id="a_edge20_Node000017_Node000006"><a xlink:title=" ">
<path fill="none" stroke="#63b8ff" d="M600.92,-343.21C618.57,-340.39 637.8,-337.31 655.35,-334.51"/>
<polygon fill="#63b8ff" stroke="#63b8ff" points="655.71,-337.84 665.03,-332.8 654.6,-330.93 655.71,-337.84"/>
</a>
</g>
</g>
<!-- Node17&#45;&gt;Node7 -->
<g id="edge21_Node000017_Node000007" class="edge">
<title>Node17&#45;&gt;Node7</title>
<g id="a_edge21_Node000017_Node000007"><a xlink:title=" ">
<path fill="none" stroke="#63b8ff" d="M561.39,-363.44C575.62,-370.85 594.16,-381.65 608.5,-394 627.64,-410.49 623.29,-424.27 644.5,-438 646.82,-439.5 649.26,-440.89 651.79,-442.17"/>
<polygon fill="#63b8ff" stroke="#63b8ff" points="650.26,-445.76 660.82,-446.57 653.07,-439.35 650.26,-445.76"/>
</a>
</g>
</g>
<!-- Node17&#45;&gt;Node10 -->
<g id="edge22_Node000017_Node000010" class="edge">
<title>Node17&#45;&gt;Node10</title>
<g id="a_edge22_Node000017_Node000010"><a xlink:title=" ">
<path fill="none" stroke="#63b8ff" d="M560.12,-363.35C580.98,-373.6 614.43,-389.28 644.5,-400 649.94,-401.94 655.67,-403.79 661.43,-405.52"/>
<polygon fill="#63b8ff" stroke="#63b8ff" points="660.16,-409.09 670.74,-408.51 662.11,-402.37 660.16,-409.09"/>
</a>
</g>
</g>
<!-- Node18 -->
<g id="Node000018" class="node">
<title>Node18</title>
<g id="a_Node000018"><a xlink:href="a00500.html#ga494b4a948891fd5757ccc647f9962529" target="_top" xlink:title="API function to clear the sensor offset.">
<polygon fill="white" stroke="#666666" points="765.5,-291 666.25,-291 666.25,-259 765.5,-259 765.5,-291"/>
<text text-anchor="start" x="674.25" y="-277.5" font-family="Helvetica,sans-Serif" font-size="10.00">Dev_CurrentSensor</text>
<text text-anchor="middle" x="715.88" y="-265.5" font-family="Helvetica,sans-Serif" font-size="10.00">_Clr_Offset</text>
</a>
</g>
</g>
<!-- Node17&#45;&gt;Node18 -->
<g id="edge18_Node000017_Node000018" class="edge">
<title>Node17&#45;&gt;Node18</title>
<g id="a_edge18_Node000017_Node000018"><a xlink:title=" ">
<path fill="none" stroke="#63b8ff" d="M588.97,-342.57C595.75,-340.24 602.45,-337.41 608.5,-334 627.67,-323.2 625.73,-311.49 644.5,-300 648.13,-297.78 651.98,-295.72 655.95,-293.81"/>
<polygon fill="#63b8ff" stroke="#63b8ff" points="657.23,-296.63 664.95,-289.38 654.39,-290.23 657.23,-296.63"/>
</a>
</g>
</g>
<!-- Node19 -->
<g id="Node000019" class="node">
<title>Node19</title>
<g id="a_Node000019"><a xlink:href="a00491.html#gaff82d75556566202a8dd302e0a7fde8b" target="_top" xlink:title="Enable the PWM output.">
<polygon fill="white" stroke="#666666" points="782.75,-241 649,-241 649,-221 782.75,-221 782.75,-241"/>
<text text-anchor="middle" x="715.88" y="-227.5" font-family="Helvetica,sans-Serif" font-size="10.00">Dev_PwrCtrl_PWM_Enable</text>
</a>
</g>
</g>
<!-- Node17&#45;&gt;Node19 -->
<g id="edge23_Node000017_Node000019" class="edge">
<title>Node17&#45;&gt;Node19</title>
<g id="a_edge23_Node000017_Node000019"><a xlink:title=" ">
<path fill="none" stroke="#63b8ff" d="M595.32,-342.55C600.08,-340.24 604.57,-337.43 608.5,-334 639.1,-307.29 613.82,-276.62 644.5,-250 645.72,-248.94 647,-247.93 648.33,-246.98"/>
<polygon fill="#63b8ff" stroke="#63b8ff" points="649.79,-249.59 656.63,-241.5 646.24,-243.56 649.79,-249.59"/>
</a>
</g>
</g>
<!-- Node22 -->
<g id="Node000022" class="node">
<title>Node22</title>
<g id="a_Node000022"><a xlink:href="a00491.html#ga2da42ebbee6a24170cd69c0c798a572e" target="_top" xlink:title="PWM distribution for DAB converter.">
<polygon fill="white" stroke="#666666" points="783.12,-184 648.62,-184 648.62,-164 783.12,-164 783.12,-184"/>
<text text-anchor="middle" x="715.88" y="-170.5" font-family="Helvetica,sans-Serif" font-size="10.00">Dev_PwrCtrl_PWM_Update</text>
</a>
</g>
</g>
<!-- Node17&#45;&gt;Node22 -->
<g id="edge27_Node000017_Node000022" class="edge">
<title>Node17&#45;&gt;Node22</title>
<g id="a_edge27_Node000017_Node000022"><a xlink:title=" ">
<path fill="none" stroke="#63b8ff" d="M596.42,-342.67C600.85,-340.33 604.96,-337.48 608.5,-334 648.83,-294.38 608.89,-255.91 644.5,-212 652.27,-202.42 663.11,-194.92 673.97,-189.2"/>
<polygon fill="#63b8ff" stroke="#63b8ff" points="675.36,-191.93 682.86,-184.44 672.33,-185.62 675.36,-191.93"/>
</a>
</g>
</g>
<!-- Node28 -->
<g id="Node000028" class="node">
<title>Node28</title>
<g id="a_Node000028"><a xlink:href="a00492.html#ga89ec53d01888c9648d6e9588e5be082f" target="_top" xlink:title="Resets the power control properties.">
<polygon fill="white" stroke="#666666" points="765.5,-86 666.25,-86 666.25,-66 765.5,-66 765.5,-86"/>
<text text-anchor="middle" x="715.88" y="-72.5" font-family="Helvetica,sans-Serif" font-size="10.00">Dev_PwrCtrl_Reset</text>
</a>
</g>
</g>
<!-- Node17&#45;&gt;Node28 -->
<g id="edge34_Node000017_Node000028" class="edge">
<title>Node17&#45;&gt;Node28</title>
<g id="a_edge34_Node000017_Node000028"><a xlink:title=" ">
<path fill="none" stroke="#63b8ff" d="M597.41,-342.63C601.51,-340.29 605.29,-337.45 608.5,-334 663.82,-274.63 608.25,-227.6 644.5,-155 656.66,-130.65 678.32,-108.02 694.41,-93.28"/>
<polygon fill="#63b8ff" stroke="#63b8ff" points="696.09,-96.58 701.23,-87.32 691.43,-91.35 696.09,-96.58"/>
</a>
</g>
</g>
<!-- Node19&#45;&gt;Node14 -->
<g id="edge26_Node000019_Node000014" class="edge">
<title>Node19&#45;&gt;Node14</title>
<g id="a_edge26_Node000019_Node000014"><a xlink:title=" ">
<path fill="none" stroke="#63b8ff" d="M761.66,-241.49C770.27,-243.95 779.12,-246.8 787.25,-250 804.09,-256.62 806.32,-262.62 823.25,-269 828.72,-271.06 834.49,-272.95 840.32,-274.67"/>
<polygon fill="#63b8ff" stroke="#63b8ff" points="839.25,-278.28 849.82,-277.59 841.12,-271.54 839.25,-278.28"/>
</a>
</g>
</g>
<!-- Node20 -->
<g id="Node000020" class="node">
<title>Node20</title>
<g id="a_Node000020"><a xlink:href="a00516.html#ga957b002605bfb2239a26f174808b2ad8" target="_top" xlink:title="This inline function disables PWM override on PWMH output for specific PWM generator selected by the ...">
<polygon fill="white" stroke="#666666" points="970.12,-336 837.12,-336 837.12,-316 970.12,-316 970.12,-336"/>
<text text-anchor="middle" x="903.62" y="-322.5" font-family="Helvetica,sans-Serif" font-size="10.00">PWM_OverrideHighDisable</text>
</a>
</g>
</g>
<!-- Node19&#45;&gt;Node20 -->
<g id="edge24_Node000019_Node000020" class="edge">
<title>Node19&#45;&gt;Node20</title>
<g id="a_edge24_Node000019_Node000020"><a xlink:title=" ">
<path fill="none" stroke="#63b8ff" d="M771.79,-241.4C777.29,-243.72 782.57,-246.54 787.25,-250 811.36,-267.79 798.88,-289.56 823.25,-307 825.22,-308.41 827.27,-309.71 829.4,-310.92"/>
<polygon fill="#63b8ff" stroke="#63b8ff" points="827.58,-314.41 838.1,-315.63 830.63,-308.11 827.58,-314.41"/>
</a>
</g>
</g>
<!-- Node21 -->
<g id="Node000021" class="node">
<title>Node21</title>
<g id="a_Node000021"><a xlink:href="a00516.html#gabbedef830c43428e96c7d5125662a8a6" target="_top" xlink:title="This inline function disables PWM override on PWML output for specific PWM generator selected by the ...">
<polygon fill="white" stroke="#666666" points="969,-260 838.25,-260 838.25,-240 969,-240 969,-260"/>
<text text-anchor="middle" x="903.62" y="-246.5" font-family="Helvetica,sans-Serif" font-size="10.00">PWM_OverrideLowDisable</text>
</a>
</g>
</g>
<!-- Node19&#45;&gt;Node21 -->
<g id="edge25_Node000019_Node000021" class="edge">
<title>Node19&#45;&gt;Node21</title>
<g id="a_edge25_Node000019_Node000021"><a xlink:title=" ">
<path fill="none" stroke="#63b8ff" d="M783.15,-237.78C797.48,-239.25 812.75,-240.81 827.4,-242.31"/>
<polygon fill="#63b8ff" stroke="#63b8ff" points="826.63,-245.85 836.94,-243.38 827.34,-238.88 826.63,-245.85"/>
</a>
</g>
</g>
<!-- Node22&#45;&gt;Node14 -->
<g id="edge32_Node000022_Node000014" class="edge">
<title>Node22&#45;&gt;Node14</title>
<g id="a_edge32_Node000022_Node000014"><a xlink:title=" ">
<path fill="none" stroke="#63b8ff" d="M743.33,-184.36C757.49,-190.82 774.57,-200.15 787.25,-212 809.15,-232.45 798.88,-251.56 823.25,-269 825.22,-270.41 827.27,-271.71 829.4,-272.92"/>
<polygon fill="#63b8ff" stroke="#63b8ff" points="827.58,-276.41 838.1,-277.63 830.63,-270.11 827.58,-276.41"/>
</a>
</g>
</g>
<!-- Node23 -->
<g id="Node000023" class="node">
<title>Node23</title>
<g id="a_Node000023"><a xlink:href="a00516.html#gaf368256a569a5a9e12f85f84d7d42287" target="_top" xlink:title="This inline function updates PWM Deadtime high register with the requested value for a specific PWM g...">
<polygon fill="white" stroke="#666666" points="965.62,-146 841.62,-146 841.62,-126 965.62,-126 965.62,-146"/>
<text text-anchor="middle" x="903.62" y="-132.5" font-family="Helvetica,sans-Serif" font-size="10.00">PWM_DeadTimeHighSet</text>
</a>
</g>
</g>
<!-- Node22&#45;&gt;Node23 -->
<g id="edge28_Node000022_Node000023" class="edge">
<title>Node22&#45;&gt;Node23</title>
<g id="a_edge28_Node000022_Node000023"><a xlink:title=" ">
<path fill="none" stroke="#63b8ff" d="M768.12,-163.52C790.66,-158.91 817.32,-153.45 840.93,-148.62"/>
<polygon fill="#63b8ff" stroke="#63b8ff" points="841.45,-151.88 850.54,-146.45 840.04,-145.03 841.45,-151.88"/>
</a>
</g>
</g>
<!-- Node24 -->
<g id="Node000024" class="node">
<title>Node24</title>
<g id="a_Node000024"><a xlink:href="a00516.html#ga124426b28426beb53948e9b57319ab4b" target="_top" xlink:title="This inline function updates PWM Deadtime low register with the requested value for a specific PWM ge...">
<polygon fill="white" stroke="#666666" points="964.5,-70 842.75,-70 842.75,-50 964.5,-50 964.5,-70"/>
<text text-anchor="middle" x="903.62" y="-56.5" font-family="Helvetica,sans-Serif" font-size="10.00">PWM_DeadTimeLowSet</text>
</a>
</g>
</g>
<!-- Node22&#45;&gt;Node24 -->
<g id="edge29_Node000022_Node000024" class="edge">
<title>Node22&#45;&gt;Node24</title>
<g id="a_edge29_Node000022_Node000024"><a xlink:title=" ">
<path fill="none" stroke="#63b8ff" d="M725.34,-163.6C741.95,-143.9 780.91,-101.15 823.25,-79 826.72,-77.19 830.36,-75.54 834.1,-74.05"/>
<polygon fill="#63b8ff" stroke="#63b8ff" points="834.94,-77.11 843.18,-70.46 832.59,-70.52 834.94,-77.11"/>
</a>
</g>
</g>
<!-- Node25 -->
<g id="Node000025" class="node">
<title>Node25</title>
<g id="a_Node000025"><a xlink:href="a00516.html#ga37968a783e44cd80643478d2b559dbf4" target="_top" xlink:title="This inline function sets the PWM generator specific duty cycle register.">
<polygon fill="white" stroke="#666666" points="956.62,-222 850.62,-222 850.62,-202 956.62,-202 956.62,-222"/>
<text text-anchor="middle" x="903.62" y="-208.5" font-family="Helvetica,sans-Serif" font-size="10.00">PWM_DutyCycleSet</text>
</a>
</g>
</g>
<!-- Node22&#45;&gt;Node25 -->
<g id="edge30_Node000022_Node000025" class="edge">
<title>Node22&#45;&gt;Node25</title>
<g id="a_edge30_Node000022_Node000025"><a xlink:title=" ">
<path fill="none" stroke="#63b8ff" d="M768.12,-184.48C790.66,-189.09 817.32,-194.55 840.93,-199.38"/>
<polygon fill="#63b8ff" stroke="#63b8ff" points="840.04,-202.97 850.54,-201.55 841.45,-196.12 840.04,-202.97"/>
</a>
</g>
</g>
<!-- Node26 -->
<g id="Node000026" class="node">
<title>Node26</title>
<g id="a_Node000026"><a xlink:href="a00516.html#gada46160823b0892a1af14a17c5ab516e" target="_top" xlink:title="This inline function sets the period value in count for the PWM generator specific Time Base.">
<polygon fill="white" stroke="#666666" points="948,-108 859.25,-108 859.25,-88 948,-88 948,-108"/>
<text text-anchor="middle" x="903.62" y="-94.5" font-family="Helvetica,sans-Serif" font-size="10.00">PWM_PeriodSet</text>
</a>
</g>
</g>
<!-- Node22&#45;&gt;Node26 -->
<g id="edge31_Node000022_Node000026" class="edge">
<title>Node22&#45;&gt;Node26</title>
<g id="a_edge31_Node000022_Node000026"><a xlink:title=" ">
<path fill="none" stroke="#63b8ff" d="M733.19,-163.53C753.55,-150.89 789.76,-129.74 823.25,-117 831.17,-113.99 839.71,-111.35 848.16,-109.07"/>
<polygon fill="#63b8ff" stroke="#63b8ff" points="848.93,-112.23 857.76,-106.38 847.21,-105.45 848.93,-112.23"/>
</a>
</g>
</g>
<!-- Node27 -->
<g id="Node000027" class="node">
<title>Node27</title>
<g id="a_Node000027"><a xlink:href="a00516.html#gacc5575148a6e8da6577d9be9e20541ce" target="_top" xlink:title="This inline function sets the Trigger C compare value in count for a specific PWM generator selected ...">
<polygon fill="white" stroke="#666666" points="984,-184 823.25,-184 823.25,-164 984,-164 984,-184"/>
<text text-anchor="middle" x="903.62" y="-170.5" font-family="Helvetica,sans-Serif" font-size="10.00">PWM_TriggerCCompareValueSet</text>
</a>
</g>
</g>
<!-- Node22&#45;&gt;Node27 -->
<g id="edge33_Node000022_Node000027" class="edge">
<title>Node22&#45;&gt;Node27</title>
<g id="a_edge33_Node000022_Node000027"><a xlink:title=" ">
<path fill="none" stroke="#63b8ff" d="M783.41,-174C792.71,-174 802.4,-174 812.06,-174"/>
<polygon fill="#63b8ff" stroke="#63b8ff" points="811.92,-177.5 821.92,-174 811.92,-170.5 811.92,-177.5"/>
</a>
</g>
</g>
<!-- Node29 -->
<g id="Node000029" class="node">
<title>Node29</title>
<g id="a_Node000029"><a xlink:href="a00493.html#ga9b1748de6edbef1aebeb340c642d6beb" target="_top" xlink:title="Clear the control and error histories of the control loops.">
<polygon fill="white" stroke="#666666" points="968.62,-32 838.62,-32 838.62,0 968.62,0 968.62,-32"/>
<text text-anchor="start" x="846.62" y="-18.5" font-family="Helvetica,sans-Serif" font-size="10.00">Dev_PwrCtrl_ResetControl</text>
<text text-anchor="middle" x="903.62" y="-6.5" font-family="Helvetica,sans-Serif" font-size="10.00">LoopHistories</text>
</a>
</g>
</g>
<!-- Node28&#45;&gt;Node29 -->
<g id="edge35_Node000028_Node000029" class="edge">
<title>Node28&#45;&gt;Node29</title>
<g id="a_edge35_Node000028_Node000029"><a xlink:title=" ">
<path fill="none" stroke="#63b8ff" d="M748.03,-65.63C769.21,-58.61 797.9,-49.16 823.25,-41 828.67,-39.26 834.29,-37.46 839.94,-35.66"/>
<polygon fill="#63b8ff" stroke="#63b8ff" points="840.6,-38.81 849.08,-32.45 838.49,-32.13 840.6,-38.81"/>
</a>
</g>
</g>
<!-- Node30&#45;&gt;Node11 -->
<g id="edge37_Node000030_Node000011" class="edge">
<title>Node30&#45;&gt;Node11</title>
<g id="a_edge37_Node000030_Node000011"><a xlink:title=" ">
<path fill="none" stroke="#63b8ff" d="M603.39,-470.83C620.65,-474.57 639.25,-478.6 656.22,-482.28"/>
<polygon fill="#63b8ff" stroke="#63b8ff" points="655.03,-485.82 665.55,-484.52 656.52,-478.98 655.03,-485.82"/>
</a>
</g>
</g>
</g>
</svg>
