<?xml version="1.0" encoding="UTF-8" standalone="no"?>
<!DOCTYPE svg PUBLIC "-//W3C//DTD SVG 1.1//EN"
 "http://www.w3.org/Graphics/SVG/1.1/DTD/svg11.dtd">
<!-- Generated by graphviz version 8.1.0 (20230707.0739)
 -->
<!-- Title: PWM_Initialize Pages: 1 -->
<svg width="297pt" height="78pt"
 viewBox="0.00 0.00 296.50 78.00" xmlns="http://www.w3.org/2000/svg" xmlns:xlink="http://www.w3.org/1999/xlink">
<g id="graph0" class="graph" transform="scale(1 1) rotate(0) translate(4 74)">
<title>PWM_Initialize</title>
<!-- Node1 -->
<g id="Node000001" class="node">
<title>Node1</title>
<g id="a_Node000001"><a xlink:title="Initializes PWM module, using the given initialization data.">
<polygon fill="#999999" stroke="#666666" points="81.25,-48 0,-48 0,-28 81.25,-28 81.25,-48"/>
<text text-anchor="middle" x="40.62" y="-34.5" font-family="Helvetica,sans-Serif" font-size="10.00">PWM_Initialize</text>
</a>
</g>
</g>
<!-- Node2 -->
<g id="Node000002" class="node">
<title>Node2</title>
<g id="a_Node000002"><a xlink:href="a00512.html#ga3bd2ebdd8c0f5cbd912d441ad8bf0253" target="_top" xlink:title="This is the default callback with weak attribute. The user can override and implement the default cal...">
<polygon fill="white" stroke="#666666" points="288.5,-70 117.25,-70 117.25,-50 288.5,-50 288.5,-70"/>
<text text-anchor="middle" x="202.88" y="-56.5" font-family="Helvetica,sans-Serif" font-size="10.00">PWM_GeneratorEOCEventCallback</text>
</a>
</g>
</g>
<!-- Node1&#45;&gt;Node2 -->
<g id="edge1_Node000001_Node000002" class="edge">
<title>Node1&#45;&gt;Node2</title>
<g id="a_edge1_Node000001_Node000002"><a xlink:title=" ">
<path fill="none" stroke="#63b8ff" d="M81.65,-43.49C91.87,-44.9 103.26,-46.46 114.85,-48.05"/>
<polygon fill="#63b8ff" stroke="#63b8ff" points="114.14,-51.62 124.52,-49.52 115.09,-44.69 114.14,-51.62"/>
</a>
</g>
</g>
<!-- Node3 -->
<g id="Node000003" class="node">
<title>Node3</title>
<g id="a_Node000003"><a xlink:href="a00512.html#gafb860e72fa5f565c22ceb026b37eb901" target="_top" xlink:title="This function can be used to override default callback PWM_GeneratorEOCEventCallback and to define cu...">
<polygon fill="white" stroke="#666666" points="288.5,-32 117.25,-32 117.25,0 288.5,0 288.5,-32"/>
<text text-anchor="start" x="125.25" y="-18.5" font-family="Helvetica,sans-Serif" font-size="10.00">PWM_GeneratorEOCEventCallback</text>
<text text-anchor="middle" x="202.88" y="-6.5" font-family="Helvetica,sans-Serif" font-size="10.00">Register</text>
</a>
</g>
</g>
<!-- Node1&#45;&gt;Node3 -->
<g id="edge2_Node000001_Node000003" class="edge">
<title>Node1&#45;&gt;Node3</title>
<g id="a_edge2_Node000001_Node000003"><a xlink:title=" ">
<path fill="none" stroke="#63b8ff" d="M81.65,-32.51C89.36,-31.45 97.74,-30.3 106.37,-29.11"/>
<polygon fill="#63b8ff" stroke="#63b8ff" points="106.55,-32.48 115.98,-27.65 105.6,-25.55 106.55,-32.48"/>
</a>
</g>
</g>
</g>
</svg>
