<?xml version="1.0" encoding="UTF-8" standalone="no"?>
<!DOCTYPE svg PUBLIC "-//W3C//DTD SVG 1.1//EN"
 "http://www.w3.org/Graphics/SVG/1.1/DTD/svg11.dtd">
<!-- Generated by graphviz version 8.1.0 (20230707.0739)
 -->
<!-- Title: Dev_Temp_Get_Temperature_Celcius Pages: 1 -->
<svg width="424pt" height="104pt"
 viewBox="0.00 0.00 424.25 104.00" xmlns="http://www.w3.org/2000/svg" xmlns:xlink="http://www.w3.org/1999/xlink">
<g id="graph0" class="graph" transform="scale(1 1) rotate(0) translate(4 100)">
<title>Dev_Temp_Get_Temperature_Celcius</title>
<!-- Node1 -->
<g id="Node000001" class="node">
<title>Node1</title>
<g id="a_Node000001"><a xlink:title="This converts the raw values to temperature celcius as per device lookup table.">
<polygon fill="#999999" stroke="#666666" points="416.25,-64 275,-64 275,-32 416.25,-32 416.25,-64"/>
<text text-anchor="start" x="283" y="-50.5" font-family="Helvetica,sans-Serif" font-size="10.00">Dev_Temp_Get_Temperature</text>
<text text-anchor="middle" x="345.62" y="-38.5" font-family="Helvetica,sans-Serif" font-size="10.00">_Celcius</text>
</a>
</g>
</g>
<!-- Node2 -->
<g id="Node000002" class="node">
<title>Node2</title>
<g id="a_Node000002"><a xlink:href="a00528.html#gad255673713bb77bc36791875207a4393" target="_top" xlink:title="1 second PBV task to be execution">
<polygon fill="white" stroke="#666666" points="239,-96 112.75,-96 112.75,-76 239,-76 239,-96"/>
<text text-anchor="middle" x="175.88" y="-82.5" font-family="Helvetica,sans-Serif" font-size="10.00">App_PBV_DAB_Task_1s</text>
</a>
</g>
</g>
<!-- Node1&#45;&gt;Node2 -->
<g id="edge1_Node000001_Node000002" class="edge">
<title>Node1&#45;&gt;Node2</title>
<g id="a_edge1_Node000001_Node000002"><a xlink:title=" ">
<path fill="none" stroke="#63b8ff" d="M264.22,-66.21C250.13,-69.4 235.92,-72.63 223.16,-75.51"/>
<polygon fill="#63b8ff" stroke="#63b8ff" points="264.96,-69.41 273.94,-63.79 263.42,-62.58 264.96,-69.41"/>
</a>
</g>
</g>
<!-- Node4 -->
<g id="Node000004" class="node">
<title>Node4</title>
<g id="a_Node000004"><a xlink:href="a00532.html#gafd7dde7baca2e1dd3a745bf5f8258da7" target="_top" xlink:title="This function needs to be called every 1s to keep the temperature of the board at a certain temperatu...">
<polygon fill="white" stroke="#666666" points="223.62,-58 128.12,-58 128.12,-38 223.62,-38 223.62,-58"/>
<text text-anchor="middle" x="175.88" y="-44.5" font-family="Helvetica,sans-Serif" font-size="10.00">Dev_Fan_Task_1s</text>
</a>
</g>
</g>
<!-- Node1&#45;&gt;Node4 -->
<g id="edge3_Node000001_Node000004" class="edge">
<title>Node1&#45;&gt;Node4</title>
<g id="a_edge3_Node000001_Node000004"><a xlink:title=" ">
<path fill="none" stroke="#63b8ff" d="M264.33,-48C250.39,-48 236.32,-48 223.66,-48"/>
<polygon fill="#63b8ff" stroke="#63b8ff" points="263.94,-51.5 273.94,-48 263.94,-44.5 263.94,-51.5"/>
</a>
</g>
</g>
<!-- Node5 -->
<g id="Node000005" class="node">
<title>Node5</title>
<g id="a_Node000005"><a xlink:href="a00548.html#ga35608d94d8d76de809bb7588a325abc9" target="_top" xlink:title="Fault evaluation for Temperature and other slow fault detection executed every 100ms.">
<polygon fill="white" stroke="#666666" points="232.62,-20 119.12,-20 119.12,0 232.62,0 232.62,-20"/>
<text text-anchor="middle" x="175.88" y="-6.5" font-family="Helvetica,sans-Serif" font-size="10.00">Fault_Execute_100ms</text>
</a>
</g>
</g>
<!-- Node1&#45;&gt;Node5 -->
<g id="edge5_Node000001_Node000005" class="edge">
<title>Node1&#45;&gt;Node5</title>
<g id="a_edge5_Node000001_Node000005"><a xlink:title=" ">
<path fill="none" stroke="#63b8ff" d="M264.22,-29.79C250.13,-26.6 235.92,-23.37 223.16,-20.49"/>
<polygon fill="#63b8ff" stroke="#63b8ff" points="263.42,-33.42 273.94,-32.21 264.96,-26.59 263.42,-33.42"/>
</a>
</g>
</g>
<!-- Node3 -->
<g id="Node000003" class="node">
<title>Node3</title>
<g id="a_Node000003"><a xlink:href="a00550.html#gac181d28cf7f396a9ee79b7c8b76b97ad" target="_top" xlink:title="Tasks_1s gets called every second, put your things in it that need to be called regularly.">
<polygon fill="white" stroke="#666666" points="67.38,-77 9.38,-77 9.38,-57 67.38,-57 67.38,-77"/>
<text text-anchor="middle" x="38.38" y="-63.5" font-family="Helvetica,sans-Serif" font-size="10.00">Tasks_1s</text>
</a>
</g>
</g>
<!-- Node2&#45;&gt;Node3 -->
<g id="edge2_Node000002_Node000003" class="edge">
<title>Node2&#45;&gt;Node3</title>
<g id="a_edge2_Node000002_Node000003"><a xlink:title=" ">
<path fill="none" stroke="#63b8ff" d="M101.61,-75.73C89.5,-74.03 77.62,-72.36 67.54,-70.95"/>
<polygon fill="#63b8ff" stroke="#63b8ff" points="100.89,-79.3 111.28,-77.22 101.86,-72.37 100.89,-79.3"/>
</a>
</g>
</g>
<!-- Node4&#45;&gt;Node3 -->
<g id="edge4_Node000004_Node000003" class="edge">
<title>Node4&#45;&gt;Node3</title>
<g id="a_edge4_Node000004_Node000003"><a xlink:title=" ">
<path fill="none" stroke="#63b8ff" d="M117.34,-56.07C100.19,-58.47 82.15,-61 67.74,-63.02"/>
<polygon fill="#63b8ff" stroke="#63b8ff" points="117.45,-59.45 126.86,-54.59 116.47,-52.51 117.45,-59.45"/>
</a>
</g>
</g>
<!-- Node6 -->
<g id="Node000006" class="node">
<title>Node6</title>
<g id="a_Node000006"><a xlink:href="a00550.html#ga6d5c487ee3f418e6d0432867d11adaed" target="_top" xlink:title="Tasks_100ms gets called every 100 ms, put your things in it that need to be called regularly.">
<polygon fill="white" stroke="#666666" points="76.75,-20 0,-20 0,0 76.75,0 76.75,-20"/>
<text text-anchor="middle" x="38.38" y="-6.5" font-family="Helvetica,sans-Serif" font-size="10.00">Tasks_100ms</text>
</a>
</g>
</g>
<!-- Node5&#45;&gt;Node6 -->
<g id="edge6_Node000005_Node000006" class="edge">
<title>Node5&#45;&gt;Node6</title>
<g id="a_edge6_Node000005_Node000006"><a xlink:title=" ">
<path fill="none" stroke="#63b8ff" d="M108.28,-10C97.53,-10 86.73,-10 76.99,-10"/>
<polygon fill="#63b8ff" stroke="#63b8ff" points="107.98,-13.5 117.98,-10 107.98,-6.5 107.98,-13.5"/>
</a>
</g>
</g>
</g>
</svg>
