<?xml version="1.0" encoding="UTF-8" standalone="no"?>
<!DOCTYPE svg PUBLIC "-//W3C//DTD SVG 1.1//EN"
 "http://www.w3.org/Graphics/SVG/1.1/DTD/svg11.dtd">
<!-- Generated by graphviz version 8.1.0 (20230707.0739)
 -->
<!-- Title: Fault_Execute_100ms Pages: 1 -->
<!--zoomable 154 -->

<svg id="main" version="1.1" xmlns="http://www.w3.org/2000/svg" xmlns:xlink="http://www.w3.org/1999/xlink" xml:space="preserve" onload="init(evt)">
<style type="text/css"><![CDATA[
.node, .edge {opacity: 0.7;}
.node.selected, .edge.selected {opacity: 1;}
.edge:hover path { stroke: red; }
.edge:hover polygon { stroke: red; fill: red; }
]]></style>

<defs>
  <circle id="rim" cx="0" cy="0" r="7"/>
  <circle id="rim2" cx="0" cy="0" r="3.5"/>
  <g id="zoomPlus">
    <use xlink:href="#rim" fill="#404040"><set attributeName="fill" to="#808080" begin="zoomplus.mouseover" end="zoomplus.mouseout"/></use>
    <path d="M-4,0h8M0,-4v8" fill="none" stroke="white" stroke-width="1.5" pointer-events="none"/>
  </g>
  <g id="zoomMin">
    <use xlink:href="#rim" fill="#404040"><set attributeName="fill" to="#808080" begin="zoomminus.mouseover" end="zoomminus.mouseout"/></use>
    <path d="M-4,0h8" fill="none" stroke="white" stroke-width="1.5" pointer-events="none"/>
  </g>
  <g id="arrowUp" transform="translate(30 24)">
    <use xlink:href="#rim"/>
    <path pointer-events="none" fill="none" stroke="white" stroke-width="1.5" d="M0,-3.0v7 M-2.5,-0.5L0,-3.0L2.5,-0.5"/>
  </g>
  <g id="arrowRight" transform="rotate(90) translate(36 -43)">
    <use xlink:href="#rim"/>
    <path pointer-events="none" fill="none" stroke="white" stroke-width="1.5" d="M0,-3.0v7 M-2.5,-0.5L0,-3.0L2.5,-0.5"/>
  </g>
  <g id="arrowDown" transform="rotate(180) translate(-30 -48)">
    <use xlink:href="#rim"/>
    <path pointer-events="none" fill="none" stroke="white" stroke-width="1.5" d="M0,-3.0v7 M-2.5,-0.5L0,-3.0L2.5,-0.5"/>
  </g>
  <g id="arrowLeft" transform="rotate(270) translate(-36 17)">
    <use xlink:href="#rim"/>
    <path pointer-events="none" fill="none" stroke="white" stroke-width="1.5" d="M0,-3.0v7 M-2.5,-0.5L0,-3.0L2.5,-0.5"/>
  </g>
  <g id="resetDef">
    <use xlink:href="#rim2" fill="#404040"><set attributeName="fill" to="#808080" begin="reset.mouseover" end="reset.mouseout"/></use>
  </g>
</defs>
<script type="application/ecmascript">
var viewWidth = 636;
var viewHeight = 154;
var sectionId = 'dynsection-4';
</script>
<script type="application/ecmascript" xlink:href="svg.min.js"/>
<svg id="graph" class="graph">
<g id="viewport">
<title>Fault_Execute_100ms</title>
<!-- Node1 -->
<g id="Node000001" class="node">
<title>Node1</title>
<g id="a_Node000001"><a xlink:title="Fault evaluation for Temperature and other slow fault detection executed every 100ms.">
<polygon fill="#999999" stroke="#666666" points="113.5,-96 0,-96 0,-76 113.5,-76 113.5,-96"/>
<text text-anchor="middle" x="56.75" y="-82.5" font-family="Helvetica,sans-Serif" font-size="10.00">Fault_Execute_100ms</text>
</a>
</g>
</g>
<!-- Node2 -->
<g id="Node000002" class="node">
<title>Node2</title>
<g id="a_Node000002"><a xlink:href="a00537.html#gac9618e1ca87e77920c94cdfdcc80321a" target="_top" xlink:title="This converts the raw values to temperature celcius as per device lookup table.">
<polygon fill="white" stroke="#666666" points="290.75,-146 149.5,-146 149.5,-114 290.75,-114 290.75,-146"/>
<text text-anchor="start" x="157.5" y="-132.5" font-family="Helvetica,sans-Serif" font-size="10.00">Dev_Temp_Get_Temperature</text>
<text text-anchor="middle" x="220.12" y="-120.5" font-family="Helvetica,sans-Serif" font-size="10.00">_Celcius</text>
</a>
</g>
</g>
<!-- Node1&#45;&gt;Node2 -->
<g id="edge1_Node000001_Node000002" class="edge">
<title>Node1&#45;&gt;Node2</title>
<g id="a_edge1_Node000001_Node000002"><a xlink:title=" ">
<path fill="none" stroke="#63b8ff" d="M95.99,-96.43C111.65,-100.7 130.3,-105.78 148.28,-110.68"/>
<polygon fill="#63b8ff" stroke="#63b8ff" points="147.19,-114.29 157.76,-113.54 149.03,-107.53 147.19,-114.29"/>
</a>
</g>
</g>
<!-- Node3 -->
<g id="Node000003" class="node">
<title>Node3</title>
<g id="a_Node000003"><a xlink:href="a00552.html#ga1a12d5b7c5b1f234c50ea2214e91fcfc" target="_top" xlink:title="This function compares the fault source value with the threshold limits and sets (or) resets the faul...">
<polygon fill="white" stroke="#666666" points="269,-96 171.25,-96 171.25,-76 269,-76 269,-96"/>
<text text-anchor="middle" x="220.12" y="-82.5" font-family="Helvetica,sans-Serif" font-size="10.00">FAULT_CheckMax</text>
</a>
</g>
</g>
<!-- Node1&#45;&gt;Node3 -->
<g id="edge2_Node000001_Node000003" class="edge">
<title>Node1&#45;&gt;Node3</title>
<g id="a_edge2_Node000001_Node000003"><a xlink:title=" ">
<path fill="none" stroke="#63b8ff" d="M113.74,-86C128.68,-86 144.88,-86 159.98,-86"/>
<polygon fill="#63b8ff" stroke="#63b8ff" points="159.76,-89.5 169.76,-86 159.76,-82.5 159.76,-89.5"/>
</a>
</g>
</g>
<!-- Node4 -->
<g id="Node000004" class="node">
<title>Node4</title>
<g id="a_Node000004"><a xlink:href="a00551.html#gaf27f2f24932cec222273df148f8765cb" target="_top" xlink:title="Handles the fault trip by turning off the power control switching.">
<polygon fill="white" stroke="#666666" points="258.12,-58 182.12,-58 182.12,-38 258.12,-38 258.12,-58"/>
<text text-anchor="middle" x="220.12" y="-44.5" font-family="Helvetica,sans-Serif" font-size="10.00">Fault_Handler</text>
</a>
</g>
</g>
<!-- Node1&#45;&gt;Node4 -->
<g id="edge3_Node000001_Node000004" class="edge">
<title>Node1&#45;&gt;Node4</title>
<g id="a_edge3_Node000001_Node000004"><a xlink:title=" ">
<path fill="none" stroke="#63b8ff" d="M102.27,-75.52C123.66,-70.48 149.33,-64.44 171.15,-59.3"/>
<polygon fill="#63b8ff" stroke="#63b8ff" points="171.91,-62.48 180.84,-56.78 170.3,-55.67 171.91,-62.48"/>
</a>
</g>
</g>
<!-- Node5 -->
<g id="Node000005" class="node">
<title>Node5</title>
<g id="a_Node000005"><a xlink:href="a00544.html#ga79ec0c0e524a03b3a3d423308b89bb99" target="_top" xlink:title="Disable the PWM output.">
<polygon fill="white" stroke="#666666" points="441.75,-58 326.75,-58 326.75,-38 441.75,-38 441.75,-58"/>
<text text-anchor="middle" x="384.25" y="-44.5" font-family="Helvetica,sans-Serif" font-size="10.00">PwrCtrl_PWM_Disable</text>
</a>
</g>
</g>
<!-- Node4&#45;&gt;Node5 -->
<g id="edge4_Node000004_Node000005" class="edge">
<title>Node4&#45;&gt;Node5</title>
<g id="a_edge4_Node000004_Node000005"><a xlink:title=" ">
<path fill="none" stroke="#63b8ff" d="M258.32,-48C275.36,-48 296.1,-48 315.74,-48"/>
<polygon fill="#63b8ff" stroke="#63b8ff" points="315.51,-51.5 325.51,-48 315.51,-44.5 315.51,-51.5"/>
</a>
</g>
</g>
<!-- Node6 -->
<g id="Node000006" class="node">
<title>Node6</title>
<g id="a_Node000006"><a xlink:href="a00562.html#ga531b59d8823e3ebda2da60f48582bcf3" target="_top" xlink:title="This inline function enables PWM override on PWMH output for specific PWM generator selected by the a...">
<polygon fill="white" stroke="#666666" points="618.25,-96 487.5,-96 487.5,-76 618.25,-76 618.25,-96"/>
<text text-anchor="middle" x="552.88" y="-82.5" font-family="Helvetica,sans-Serif" font-size="10.00">PWM_OverrideHighEnable</text>
</a>
</g>
</g>
<!-- Node5&#45;&gt;Node6 -->
<g id="edge5_Node000005_Node000006" class="edge">
<title>Node5&#45;&gt;Node6</title>
<g id="a_edge5_Node000005_Node000006"><a xlink:title=" ">
<path fill="none" stroke="#63b8ff" d="M431.22,-58.48C451.07,-63.01 474.49,-68.35 495.39,-73.12"/>
<polygon fill="#63b8ff" stroke="#63b8ff" points="494.53,-76.74 505.05,-75.55 496.08,-69.91 494.53,-76.74"/>
</a>
</g>
</g>
<!-- Node7 -->
<g id="Node000007" class="node">
<title>Node7</title>
<g id="a_Node000007"><a xlink:href="a00562.html#ga2548ca8feda75ba6ab784280679da6ae" target="_top" xlink:title="This inline function enables PWM override on PWML output for specific PWM generator selected by the a...">
<polygon fill="white" stroke="#666666" points="617.12,-58 488.62,-58 488.62,-38 617.12,-38 617.12,-58"/>
<text text-anchor="middle" x="552.88" y="-44.5" font-family="Helvetica,sans-Serif" font-size="10.00">PWM_OverrideLowEnable</text>
</a>
</g>
</g>
<!-- Node5&#45;&gt;Node7 -->
<g id="edge6_Node000005_Node000007" class="edge">
<title>Node5&#45;&gt;Node7</title>
<g id="a_edge6_Node000005_Node000007"><a xlink:title=" ">
<path fill="none" stroke="#63b8ff" d="M442.13,-48C453.53,-48 465.67,-48 477.57,-48"/>
<polygon fill="#63b8ff" stroke="#63b8ff" points="477.39,-51.5 487.39,-48 477.39,-44.5 477.39,-51.5"/>
</a>
</g>
</g>
<!-- Node8 -->
<g id="Node000008" class="node">
<title>Node8</title>
<g id="a_Node000008"><a xlink:href="a00562.html#ga83e780358618114f0d424ca7467cf751" target="_top" xlink:title="This inline function requests to update the data registers for specific PWM generator selected by the...">
<polygon fill="white" stroke="#666666" points="628,-20 477.75,-20 477.75,0 628,0 628,-20"/>
<text text-anchor="middle" x="552.88" y="-6.5" font-family="Helvetica,sans-Serif" font-size="10.00">PWM_SoftwareUpdateRequest</text>
</a>
</g>
</g>
<!-- Node5&#45;&gt;Node8 -->
<g id="edge7_Node000005_Node000008" class="edge">
<title>Node5&#45;&gt;Node8</title>
<g id="a_edge7_Node000005_Node000008"><a xlink:title=" ">
<path fill="none" stroke="#63b8ff" d="M431.22,-37.52C451.07,-32.99 474.49,-27.65 495.39,-22.88"/>
<polygon fill="#63b8ff" stroke="#63b8ff" points="496.08,-26.09 505.05,-20.45 494.53,-19.26 496.08,-26.09"/>
</a>
</g>
</g>
</g>
</svg>

<g id="navigator" transform="translate(0 0)" fill="#404254">
  <rect fill="#f2f5e9" fill-opacity="0.5" stroke="#606060" stroke-width=".5" x="0" y="0" width="60" height="60"/>
  <use id="zoomplus" xlink:href="#zoomPlus" x="17" y="9" onmousedown="handleZoom(evt,'in')"/>
  <use id="zoomminus" xlink:href="#zoomMin" x="42" y="9" onmousedown="handleZoom(evt,'out')"/>
  <use id="reset" xlink:href="#resetDef" x="30" y="36" onmousedown="handleReset()"/>
   <use id="arrowup" xlink:href="#arrowUp" x="0" y="0" onmousedown="handlePan(0,-1)"/>
  <use id="arrowright" xlink:href="#arrowRight" x="0" y="0" onmousedown="handlePan(1,0)"/>
  <use id="arrowdown" xlink:href="#arrowDown" x="0" y="0" onmousedown="handlePan(0,1)"/>
  <use id="arrowleft" xlink:href="#arrowLeft" x="0" y="0" onmousedown="handlePan(-1,0)"/>
</g>
<svg viewBox="0 0 15 15" width="100%" height="30px" preserveAspectRatio="xMaxYMin meet">
 <g id="arrow_out" transform="scale(0.3 0.3)">
  <a xlink:href="a00551_ga35608d94d8d76de809bb7588a325abc9_cgraph_org.svg" target="_base">
   <rect id="button" ry="5" rx="5" y="6" x="6" height="38" width="38"
        fill="#f2f5e9" fill-opacity="0.5" stroke="#606060" stroke-width="1.0"/>
   <path id="arrow"
     d="M 11.500037,31.436501 C 11.940474,20.09759 22.043105,11.32322 32.158766,21.979434 L 37.068811,17.246167 C 37.068811,17.246167 37.088388,32 37.088388,32 L 22.160133,31.978069 C 22.160133,31.978069 26.997745,27.140456 26.997745,27.140456 C 18.528582,18.264221 13.291696,25.230495 11.500037,31.436501 z"
     style="fill:#404040;"/>
  </a>
 </g>
</svg>

<style type='text/css'>
<![CDATA[
[data-mouse-over-selected='false'] { opacity: 0.7; }
[data-mouse-over-selected='true']  { opacity: 1.0; }
]]>
</style>
<script type="application/ecmascript"><![CDATA[
document.addEventListener('DOMContentLoaded', (event) => {
  highlightEdges();
  highlightAdjacentNodes();
});
]]></script>
</svg>
