<?xml version="1.0" encoding="UTF-8" standalone="no"?>
<!DOCTYPE svg PUBLIC "-//W3C//DTD SVG 1.1//EN"
 "http://www.w3.org/Graphics/SVG/1.1/DTD/svg11.dtd">
<!-- Generated by graphviz version 8.1.0 (20230707.0739)
 -->
<!-- Title: PwrCtrl_ControlLoopInitialize Pages: 1 -->
<svg width="494pt" height="104pt"
 viewBox="0.00 0.00 494.00 104.00" xmlns="http://www.w3.org/2000/svg" xmlns:xlink="http://www.w3.org/1999/xlink">

<svg id="main" version="1.1" xmlns="http://www.w3.org/2000/svg" xmlns:xlink="http://www.w3.org/1999/xlink" xml:space="preserve" onload="init(evt)">
<style type="text/css"><![CDATA[
.node, .edge {opacity: 0.7;}
.node.selected, .edge.selected {opacity: 1;}
.edge:hover path { stroke: red; }
.edge:hover polygon { stroke: red; fill: red; }
]]></style>
<script type="application/ecmascript" xlink:href="svg.min.js"/>
<svg id="graph" class="graph">
<g id="graph0" class="graph" transform="scale(1 1) rotate(0) translate(4 100)">
<title>PwrCtrl_ControlLoopInitialize</title>
<!-- Node1 -->
<g id="Node000001" class="node">
<title>Node1</title>
<g id="a_Node000001"><a xlink:title="Initializes the control loop.">
<polygon fill="#999999" stroke="#666666" points="139.75,-58 0,-58 0,-38 139.75,-38 139.75,-58"/>
<text text-anchor="middle" x="69.88" y="-44.5" font-family="Helvetica,sans-Serif" font-size="10.00">PwrCtrl_ControlLoopInitialize</text>
</a>
</g>
</g>
<!-- Node2 -->
<g id="Node000002" class="node">
<title>Node2</title>
<g id="a_Node000002"><a xlink:href="a00540.html#ga4d5efa27da3185177a7e9451a59ced82" target="_top" xlink:title="Initialize the Current Loop Control.">
<polygon fill="white" stroke="#666666" points="299,-96 178,-96 178,-76 299,-76 299,-96"/>
<text text-anchor="middle" x="238.5" y="-82.5" font-family="Helvetica,sans-Serif" font-size="10.00">PwrCtrl_IComp_Initialize</text>
</a>
</g>
</g>
<!-- Node1&#45;&gt;Node2 -->
<g id="edge1_Node000001_Node000002" class="edge">
<title>Node1&#45;&gt;Node2</title>
<g id="a_edge1_Node000001_Node000002"><a xlink:title=" ">
<path fill="none" stroke="#63b8ff" d="M116.85,-58.48C136.7,-63.01 160.12,-68.35 181.01,-73.12"/>
<polygon fill="#63b8ff" stroke="#63b8ff" points="180.15,-76.74 190.68,-75.55 181.71,-69.91 180.15,-76.74"/>
</a>
</g>
</g>
<!-- Node4 -->
<g id="Node000004" class="node">
<title>Node4</title>
<g id="a_Node000004"><a xlink:href="a00540.html#ga5d45f928f4747df3d3fe50876e78efc5" target="_top" xlink:title="Initialize the Power Loop Control.">
<polygon fill="white" stroke="#666666" points="301.25,-58 175.75,-58 175.75,-38 301.25,-38 301.25,-58"/>
<text text-anchor="middle" x="238.5" y="-44.5" font-family="Helvetica,sans-Serif" font-size="10.00">PwrCtrl_PComp_Initialize</text>
</a>
</g>
</g>
<!-- Node1&#45;&gt;Node4 -->
<g id="edge3_Node000001_Node000004" class="edge">
<title>Node1&#45;&gt;Node4</title>
<g id="a_edge3_Node000001_Node000004"><a xlink:title=" ">
<path fill="none" stroke="#63b8ff" d="M140.09,-48C148.14,-48 156.38,-48 164.48,-48"/>
<polygon fill="#63b8ff" stroke="#63b8ff" points="164.42,-51.5 174.42,-48 164.42,-44.5 164.42,-51.5"/>
</a>
</g>
</g>
<!-- Node5 -->
<g id="Node000005" class="node">
<title>Node5</title>
<g id="a_Node000005"><a xlink:href="a00540.html#ga8603aa8f7d4f64fa925228cf9c99de83" target="_top" xlink:title="Initialize the Voltage Loop Control.">
<polygon fill="white" stroke="#666666" points="301.25,-20 175.75,-20 175.75,0 301.25,0 301.25,-20"/>
<text text-anchor="middle" x="238.5" y="-6.5" font-family="Helvetica,sans-Serif" font-size="10.00">PwrCtrl_VComp_Initialize</text>
</a>
</g>
</g>
<!-- Node1&#45;&gt;Node5 -->
<g id="edge5_Node000001_Node000005" class="edge">
<title>Node1&#45;&gt;Node5</title>
<g id="a_edge5_Node000001_Node000005"><a xlink:title=" ">
<path fill="none" stroke="#63b8ff" d="M116.85,-37.52C136.7,-32.99 160.12,-27.65 181.01,-22.88"/>
<polygon fill="#63b8ff" stroke="#63b8ff" points="181.71,-26.09 190.68,-20.45 180.15,-19.26 181.71,-26.09"/>
</a>
</g>
</g>
<!-- Node3 -->
<g id="Node000003" class="node">
<title>Node3</title>
<g id="a_Node000003"><a xlink:href="a00452.html#a8d0d916c7a3ca172408fcded86a6baa2" target="_top" xlink:title=" ">
<polygon fill="white" stroke="#666666" points="486,-58 337.25,-58 337.25,-38 486,-38 486,-58"/>
<text text-anchor="middle" x="411.62" y="-44.5" font-family="Helvetica,sans-Serif" font-size="10.00">SMPS_Controller2P2ZInitialize</text>
</a>
</g>
</g>
<!-- Node2&#45;&gt;Node3 -->
<g id="edge2_Node000002_Node000003" class="edge">
<title>Node2&#45;&gt;Node3</title>
<g id="a_edge2_Node000002_Node000003"><a xlink:title=" ">
<path fill="none" stroke="#63b8ff" d="M286.71,-75.52C307.19,-70.97 331.37,-65.6 352.91,-60.82"/>
<polygon fill="#63b8ff" stroke="#63b8ff" points="353.56,-64.03 362.57,-58.45 352.04,-57.2 353.56,-64.03"/>
</a>
</g>
</g>
<!-- Node4&#45;&gt;Node3 -->
<g id="edge4_Node000004_Node000003" class="edge">
<title>Node4&#45;&gt;Node3</title>
<g id="a_edge4_Node000004_Node000003"><a xlink:title=" ">
<path fill="none" stroke="#63b8ff" d="M301.28,-48C309.33,-48 317.69,-48 326.04,-48"/>
<polygon fill="#63b8ff" stroke="#63b8ff" points="325.98,-51.5 335.98,-48 325.98,-44.5 325.98,-51.5"/>
</a>
</g>
</g>
<!-- Node5&#45;&gt;Node3 -->
<g id="edge6_Node000005_Node000003" class="edge">
<title>Node5&#45;&gt;Node3</title>
<g id="a_edge6_Node000005_Node000003"><a xlink:title=" ">
<path fill="none" stroke="#63b8ff" d="M286.71,-20.48C307.19,-25.03 331.37,-30.4 352.91,-35.18"/>
<polygon fill="#63b8ff" stroke="#63b8ff" points="352.04,-38.8 362.57,-37.55 353.56,-31.97 352.04,-38.8"/>
</a>
</g>
</g>
</g>
</svg>
</svg>

<style type='text/css'>
<![CDATA[
[data-mouse-over-selected='false'] { opacity: 0.7; }
[data-mouse-over-selected='true']  { opacity: 1.0; }
]]>
</style>
<script type="application/ecmascript"><![CDATA[
document.addEventListener('DOMContentLoaded', (event) => {
  highlightEdges();
  highlightAdjacentNodes();
});
]]></script>
</svg>
