<?xml version="1.0" encoding="UTF-8" standalone="no"?>
<!DOCTYPE svg PUBLIC "-//W3C//DTD SVG 1.1//EN"
 "http://www.w3.org/Graphics/SVG/1.1/DTD/svg11.dtd">
<!-- Generated by graphviz version 8.1.0 (20230707.0739)
 -->
<!-- Title: Tasks_Realtime_100us Pages: 1 -->
<!--zoomable 551 -->

<svg id="main" version="1.1" xmlns="http://www.w3.org/2000/svg" xmlns:xlink="http://www.w3.org/1999/xlink" xml:space="preserve" onload="init(evt)">
<style type="text/css"><![CDATA[
.node, .edge {opacity: 0.7;}
.node.selected, .edge.selected {opacity: 1;}
.edge:hover path { stroke: red; }
.edge:hover polygon { stroke: red; fill: red; }
]]></style>

<defs>
  <circle id="rim" cx="0" cy="0" r="7"/>
  <circle id="rim2" cx="0" cy="0" r="3.5"/>
  <g id="zoomPlus">
    <use xlink:href="#rim" fill="#404040"><set attributeName="fill" to="#808080" begin="zoomplus.mouseover" end="zoomplus.mouseout"/></use>
    <path d="M-4,0h8M0,-4v8" fill="none" stroke="white" stroke-width="1.5" pointer-events="none"/>
  </g>
  <g id="zoomMin">
    <use xlink:href="#rim" fill="#404040"><set attributeName="fill" to="#808080" begin="zoomminus.mouseover" end="zoomminus.mouseout"/></use>
    <path d="M-4,0h8" fill="none" stroke="white" stroke-width="1.5" pointer-events="none"/>
  </g>
  <g id="arrowUp" transform="translate(30 24)">
    <use xlink:href="#rim"/>
    <path pointer-events="none" fill="none" stroke="white" stroke-width="1.5" d="M0,-3.0v7 M-2.5,-0.5L0,-3.0L2.5,-0.5"/>
  </g>
  <g id="arrowRight" transform="rotate(90) translate(36 -43)">
    <use xlink:href="#rim"/>
    <path pointer-events="none" fill="none" stroke="white" stroke-width="1.5" d="M0,-3.0v7 M-2.5,-0.5L0,-3.0L2.5,-0.5"/>
  </g>
  <g id="arrowDown" transform="rotate(180) translate(-30 -48)">
    <use xlink:href="#rim"/>
    <path pointer-events="none" fill="none" stroke="white" stroke-width="1.5" d="M0,-3.0v7 M-2.5,-0.5L0,-3.0L2.5,-0.5"/>
  </g>
  <g id="arrowLeft" transform="rotate(270) translate(-36 17)">
    <use xlink:href="#rim"/>
    <path pointer-events="none" fill="none" stroke="white" stroke-width="1.5" d="M0,-3.0v7 M-2.5,-0.5L0,-3.0L2.5,-0.5"/>
  </g>
  <g id="resetDef">
    <use xlink:href="#rim2" fill="#404040"><set attributeName="fill" to="#808080" begin="reset.mouseover" end="reset.mouseout"/></use>
  </g>
</defs>
<script type="application/ecmascript">
var viewWidth = 946;
var viewHeight = 551;
var sectionId = 'dynsection-3';
</script>
<script type="application/ecmascript" xlink:href="svg.min.js"/>
<svg id="graph" class="graph">
<g id="viewport">
<title>Tasks_Realtime_100us</title>
<!-- Node1 -->
<g id="Node000001" class="node">
<title>Node1</title>
<g id="a_Node000001"><a xlink:title="Tasks_Realtime_100us gets called directly from the timer interrupt every 100 µs.">
<polygon fill="#999999" stroke="#666666" points="117.25,-423 0,-423 0,-403 117.25,-403 117.25,-423"/>
<text text-anchor="middle" x="58.62" y="-409.5" font-family="Helvetica,sans-Serif" font-size="10.00">Tasks_Realtime_100us</text>
</a>
</g>
</g>
<!-- Node2 -->
<g id="Node000002" class="node">
<title>Node2</title>
<g id="a_Node000002"><a xlink:href="a00506.html#ga48dcb018afa53b60b6112cde00561c4b" target="_top" xlink:title="Executes the power control state machine.">
<polygon fill="white" stroke="#666666" points="242,-423 153.25,-423 153.25,-403 242,-403 242,-423"/>
<text text-anchor="middle" x="197.62" y="-409.5" font-family="Helvetica,sans-Serif" font-size="10.00">PwrCtrl_Execute</text>
</a>
</g>
</g>
<!-- Node1&#45;&gt;Node2 -->
<g id="edge1_Node000001_Node000002" class="edge">
<title>Node1&#45;&gt;Node2</title>
<g id="a_edge1_Node000001_Node000002"><a xlink:title=" ">
<path fill="none" stroke="#63b8ff" d="M117.73,-413C125.85,-413 134.17,-413 142.22,-413"/>
<polygon fill="#63b8ff" stroke="#63b8ff" points="141.99,-416.5 151.99,-413 141.99,-409.5 141.99,-416.5"/>
</a>
</g>
</g>
<!-- Node3 -->
<g id="Node000003" class="node">
<title>Node3</title>
<g id="a_Node000003"><a xlink:href="a00509.html#ga2408c0b52cd2c2487f43716f261434e6" target="_top" xlink:title="Manages the power control state machine.">
<polygon fill="white" stroke="#666666" points="390.75,-423 278,-423 278,-403 390.75,-403 390.75,-423"/>
<text text-anchor="middle" x="334.38" y="-409.5" font-family="Helvetica,sans-Serif" font-size="10.00">PwrCtrl_StateMachine</text>
</a>
</g>
</g>
<!-- Node2&#45;&gt;Node3 -->
<g id="edge2_Node000002_Node000003" class="edge">
<title>Node2&#45;&gt;Node3</title>
<g id="a_edge2_Node000002_Node000003"><a xlink:title=" ">
<path fill="none" stroke="#63b8ff" d="M242.37,-413C250.18,-413 258.46,-413 266.73,-413"/>
<polygon fill="#63b8ff" stroke="#63b8ff" points="266.55,-416.5 276.55,-413 266.55,-409.5 266.55,-416.5"/>
</a>
</g>
</g>
<!-- Node4 -->
<g id="Node000004" class="node">
<title>Node4</title>
<g id="a_Node000004"><a xlink:href="a00509.html#ga8307344d190a5459682d315fc7bfe198" target="_top" xlink:title="Executes function for initialze state machine.">
<polygon fill="white" stroke="#666666" points="544,-423 449.25,-423 449.25,-403 544,-403 544,-423"/>
<text text-anchor="middle" x="496.62" y="-409.5" font-family="Helvetica,sans-Serif" font-size="10.00">PCS_INIT_handler</text>
</a>
</g>
</g>
<!-- Node3&#45;&gt;Node4 -->
<g id="edge3_Node000003_Node000004" class="edge">
<title>Node3&#45;&gt;Node4</title>
<g id="a_edge3_Node000003_Node000004"><a xlink:title=" ">
<path fill="none" stroke="#63b8ff" d="M390.97,-413C406.18,-413 422.68,-413 438,-413"/>
<polygon fill="#63b8ff" stroke="#63b8ff" points="437.9,-416.5 447.9,-413 437.9,-409.5 437.9,-416.5"/>
</a>
</g>
</g>
<!-- Node15 -->
<g id="Node000015" class="node">
<title>Node15</title>
<g id="a_Node000015"><a xlink:href="a00509.html#gabda6b853bb6547821acd0ec87e0a4842" target="_top" xlink:title="Executes the power control soft start state machine.">
<polygon fill="white" stroke="#666666" points="566.5,-511 426.75,-511 426.75,-491 566.5,-491 566.5,-511"/>
<text text-anchor="middle" x="496.62" y="-497.5" font-family="Helvetica,sans-Serif" font-size="10.00">PCS_SOFT_START_handler</text>
</a>
</g>
</g>
<!-- Node3&#45;&gt;Node15 -->
<g id="edge14_Node000003_Node000015" class="edge">
<title>Node3&#45;&gt;Node15</title>
<g id="a_edge14_Node000003_Node000015"><a xlink:title=" ">
<path fill="none" stroke="#63b8ff" d="M346.27,-423.45C362.52,-438.49 394.66,-466.18 426.75,-482 430.46,-483.83 434.38,-485.5 438.38,-487.04"/>
<polygon fill="#63b8ff" stroke="#63b8ff" points="436.84,-490.55 447.43,-490.55 439.14,-483.95 436.84,-490.55"/>
</a>
</g>
</g>
<!-- Node17 -->
<g id="Node000017" class="node">
<title>Node17</title>
<g id="a_Node000017"><a xlink:href="a00509.html#ga42f7c8f65745b2f81bb6dbd381ea8121" target="_top" xlink:title="Executes Standby State machine.">
<polygon fill="white" stroke="#666666" points="558.62,-363 434.62,-363 434.62,-343 558.62,-343 558.62,-363"/>
<text text-anchor="middle" x="496.62" y="-349.5" font-family="Helvetica,sans-Serif" font-size="10.00">PCS_STANDBY_handler</text>
</a>
</g>
</g>
<!-- Node3&#45;&gt;Node17 -->
<g id="edge17_Node000003_Node000017" class="edge">
<title>Node3&#45;&gt;Node17</title>
<g id="a_edge17_Node000003_Node000017"><a xlink:title=" ">
<path fill="none" stroke="#63b8ff" d="M363.29,-402.55C389.4,-392.77 428.63,-378.08 457.6,-367.24"/>
<polygon fill="#63b8ff" stroke="#63b8ff" points="458.63,-370.22 466.76,-363.43 456.17,-363.66 458.63,-370.22"/>
</a>
</g>
</g>
<!-- Node30 -->
<g id="Node000030" class="node">
<title>Node30</title>
<g id="a_Node000030"><a xlink:href="a00509.html#ga8752fbb48416e60141e205f1cbda0f98" target="_top" xlink:title="Executes the Online state.">
<polygon fill="white" stroke="#666666" points="561.25,-473 432,-473 432,-441 561.25,-441 561.25,-473"/>
<text text-anchor="start" x="440" y="-459.5" font-family="Helvetica,sans-Serif" font-size="10.00">PCS_UP_AND_RUNNING</text>
<text text-anchor="middle" x="496.62" y="-447.5" font-family="Helvetica,sans-Serif" font-size="10.00">_handler</text>
</a>
</g>
</g>
<!-- Node3&#45;&gt;Node30 -->
<g id="edge36_Node000003_Node000030" class="edge">
<title>Node3&#45;&gt;Node30</title>
<g id="a_edge36_Node000003_Node000030"><a xlink:title=" ">
<path fill="none" stroke="#63b8ff" d="M373.35,-423.43C388.9,-427.7 407.42,-432.78 425.27,-437.68"/>
<polygon fill="#63b8ff" stroke="#63b8ff" points="424.11,-441.27 434.68,-440.54 425.97,-434.52 424.11,-441.27"/>
</a>
</g>
</g>
<!-- Node31 -->
<g id="Node000031" class="node">
<title>Node31</title>
<g id="a_Node000031"><a xlink:href="a00509.html#gaad6ef2378120876a621b349c1380aef7" target="_top" xlink:title="Executes the fault handler state machine.">
<polygon fill="white" stroke="#666666" points="553.75,-325 439.5,-325 439.5,-293 553.75,-293 553.75,-325"/>
<text text-anchor="start" x="447.5" y="-311.5" font-family="Helvetica,sans-Serif" font-size="10.00">PCS_WAIT_IF_FAULT</text>
<text text-anchor="middle" x="496.62" y="-299.5" font-family="Helvetica,sans-Serif" font-size="10.00">_ACTIVE_handler</text>
</a>
</g>
</g>
<!-- Node3&#45;&gt;Node31 -->
<g id="edge38_Node000003_Node000031" class="edge">
<title>Node3&#45;&gt;Node31</title>
<g id="a_edge38_Node000003_Node000031"><a xlink:title=" ">
<path fill="none" stroke="#63b8ff" d="M344.84,-402.67C360.47,-386.15 393.29,-353.63 426.75,-334 429.1,-332.62 431.54,-331.3 434.04,-330.03"/>
<polygon fill="#63b8ff" stroke="#63b8ff" points="435.32,-332.82 442.9,-325.42 432.36,-326.48 435.32,-332.82"/>
</a>
</g>
</g>
<!-- Node5 -->
<g id="Node000005" class="node">
<title>Node5</title>
<g id="a_Node000005"><a xlink:href="a00498.html#ga218632f9814c3bf20c40cea0794ffc7d" target="_top" xlink:title="API function to get the calibration status.">
<polygon fill="white" stroke="#666666" points="730.25,-391 613.75,-391 613.75,-359 730.25,-359 730.25,-391"/>
<text text-anchor="start" x="621.75" y="-377.5" font-family="Helvetica,sans-Serif" font-size="10.00">Dev_CurrentSensor</text>
<text text-anchor="middle" x="672" y="-365.5" font-family="Helvetica,sans-Serif" font-size="10.00">_Get_CalibrationStatus</text>
</a>
</g>
</g>
<!-- Node4&#45;&gt;Node5 -->
<g id="edge4_Node000004_Node000005" class="edge">
<title>Node4&#45;&gt;Node5</title>
<g id="a_edge4_Node000004_Node000005"><a xlink:title=" ">
<path fill="none" stroke="#63b8ff" d="M544.09,-402.82C562.2,-398.85 583.32,-394.22 603.07,-389.89"/>
<polygon fill="#63b8ff" stroke="#63b8ff" points="603.55,-393.15 612.56,-387.59 602.05,-386.31 603.55,-393.15"/>
</a>
</g>
</g>
<!-- Node6 -->
<g id="Node000006" class="node">
<title>Node6</title>
<g id="a_Node000006"><a xlink:href="a00498.html#ga9f581abf52dc00ba320faafa189fafb9" target="_top" xlink:title="API function to get the sensor offset.">
<polygon fill="white" stroke="#666666" points="721.62,-341 622.38,-341 622.38,-309 721.62,-309 721.62,-341"/>
<text text-anchor="start" x="630.38" y="-327.5" font-family="Helvetica,sans-Serif" font-size="10.00">Dev_CurrentSensor</text>
<text text-anchor="middle" x="672" y="-315.5" font-family="Helvetica,sans-Serif" font-size="10.00">_Get_Offset</text>
</a>
</g>
</g>
<!-- Node4&#45;&gt;Node6 -->
<g id="edge5_Node000004_Node000006" class="edge">
<title>Node4&#45;&gt;Node6</title>
<g id="a_edge5_Node000004_Node000006"><a xlink:title=" ">
<path fill="none" stroke="#63b8ff" d="M515.21,-402.61C529.15,-394.35 549.1,-382.49 566.5,-372 582.56,-362.32 585.61,-358.14 602.5,-350 605.64,-348.49 608.89,-347.01 612.2,-345.58"/>
<polygon fill="#63b8ff" stroke="#63b8ff" points="613.32,-348.49 621.23,-341.44 610.65,-342.02 613.32,-348.49"/>
</a>
</g>
</g>
<!-- Node7 -->
<g id="Node000007" class="node">
<title>Node7</title>
<g id="a_Node000007"><a xlink:href="a00498.html#gaaa75855922e60913d443c6203475256f" target="_top" xlink:title="Measures the currents sensor offset.">
<polygon fill="white" stroke="#666666" points="741.5,-467 602.5,-467 602.5,-447 741.5,-447 741.5,-467"/>
<text text-anchor="middle" x="672" y="-453.5" font-family="Helvetica,sans-Serif" font-size="10.00">Dev_CurrentSensorOffsetCal</text>
</a>
</g>
</g>
<!-- Node4&#45;&gt;Node7 -->
<g id="edge6_Node000004_Node000007" class="edge">
<title>Node4&#45;&gt;Node7</title>
<g id="a_edge6_Node000004_Node000007"><a xlink:title=" ">
<path fill="none" stroke="#63b8ff" d="M538.71,-423.43C562.92,-429.57 593.75,-437.39 619.56,-443.94"/>
<polygon fill="#63b8ff" stroke="#63b8ff" points="618.35,-447.5 628.91,-446.57 620.08,-440.72 618.35,-447.5"/>
</a>
</g>
</g>
<!-- Node10 -->
<g id="Node000010" class="node">
<title>Node10</title>
<g id="a_Node000010"><a xlink:href="a00515.html#ga8ed0fee0d3aff71d49470aab1728a6ae" target="_top" xlink:title="Clears the fault object flag bits.">
<polygon fill="white" stroke="#666666" points="706.25,-429 637.75,-429 637.75,-409 706.25,-409 706.25,-429"/>
<text text-anchor="middle" x="672" y="-415.5" font-family="Helvetica,sans-Serif" font-size="10.00">Fault_Reset</text>
</a>
</g>
</g>
<!-- Node4&#45;&gt;Node10 -->
<g id="edge9_Node000004_Node000010" class="edge">
<title>Node4&#45;&gt;Node10</title>
<g id="a_edge9_Node000004_Node000010"><a xlink:title=" ">
<path fill="none" stroke="#63b8ff" d="M544.09,-414.61C569.69,-415.49 601.3,-416.59 626.57,-417.46"/>
<polygon fill="#63b8ff" stroke="#63b8ff" points="626.22,-420.99 636.34,-417.83 626.46,-413.99 626.22,-420.99"/>
</a>
</g>
</g>
<!-- Node11 -->
<g id="Node000011" class="node">
<title>Node11</title>
<g id="a_Node000011"><a xlink:href="a00508.html#ga79ec0c0e524a03b3a3d423308b89bb99" target="_top" xlink:title="Disable the PWM output.">
<polygon fill="white" stroke="#666666" points="729.5,-505 614.5,-505 614.5,-485 729.5,-485 729.5,-505"/>
<text text-anchor="middle" x="672" y="-491.5" font-family="Helvetica,sans-Serif" font-size="10.00">PwrCtrl_PWM_Disable</text>
</a>
</g>
</g>
<!-- Node4&#45;&gt;Node11 -->
<g id="edge10_Node000004_Node000011" class="edge">
<title>Node4&#45;&gt;Node11</title>
<g id="a_edge10_Node000004_Node000011"><a xlink:title=" ">
<path fill="none" stroke="#63b8ff" d="M544.15,-421.6C551.98,-424.21 559.74,-427.6 566.5,-432 587.67,-445.79 581.33,-462.2 602.5,-476 604.81,-477.5 607.23,-478.89 609.74,-480.17"/>
<polygon fill="#63b8ff" stroke="#63b8ff" points="608.15,-483.74 618.72,-484.58 610.98,-477.33 608.15,-483.74"/>
</a>
</g>
</g>
<!-- Node8 -->
<g id="Node000008" class="node">
<title>Node8</title>
<g id="a_Node000008"><a xlink:href="a00520.html#gaf4b6f81a05012533b633a78dad7b6a98" target="_top" xlink:title="Returns the conversion value for the channel selected.">
<polygon fill="white" stroke="#666666" points="926.62,-467 789.12,-467 789.12,-447 926.62,-447 926.62,-467"/>
<text text-anchor="middle" x="857.88" y="-453.5" font-family="Helvetica,sans-Serif" font-size="10.00">ADC1_ConversionResultGet</text>
</a>
</g>
</g>
<!-- Node7&#45;&gt;Node8 -->
<g id="edge7_Node000007_Node000008" class="edge">
<title>Node7&#45;&gt;Node8</title>
<g id="a_edge7_Node000007_Node000008"><a xlink:title=" ">
<path fill="none" stroke="#63b8ff" d="M741.99,-457C753.69,-457 765.93,-457 777.86,-457"/>
<polygon fill="#63b8ff" stroke="#63b8ff" points="777.72,-460.5 787.72,-457 777.72,-453.5 777.72,-460.5"/>
</a>
</g>
</g>
<!-- Node9 -->
<g id="Node000009" class="node">
<title>Node9</title>
<g id="a_Node000009"><a xlink:href="a00498.html#ga03e8d61bbc0f4b686c400440f80dcf69" target="_top" xlink:title="Measure the sensor offset.">
<polygon fill="white" stroke="#666666" points="911.62,-429 804.12,-429 804.12,-409 911.62,-409 911.62,-429"/>
<text text-anchor="middle" x="857.88" y="-415.5" font-family="Helvetica,sans-Serif" font-size="10.00">Dev_SensorOffsetCal</text>
</a>
</g>
</g>
<!-- Node7&#45;&gt;Node9 -->
<g id="edge8_Node000007_Node000009" class="edge">
<title>Node7&#45;&gt;Node9</title>
<g id="a_edge8_Node000007_Node000009"><a xlink:title=" ">
<path fill="none" stroke="#63b8ff" d="M723.73,-446.52C746.04,-441.91 772.43,-436.45 795.81,-431.62"/>
<polygon fill="#63b8ff" stroke="#63b8ff" points="796.22,-434.9 805.31,-429.45 794.81,-428.05 796.22,-434.9"/>
</a>
</g>
</g>
<!-- Node12 -->
<g id="Node000012" class="node">
<title>Node12</title>
<g id="a_Node000012"><a xlink:href="a00526.html#ga531b59d8823e3ebda2da60f48582bcf3" target="_top" xlink:title="This inline function enables PWM override on PWMH output for specific PWM generator selected by the a...">
<polygon fill="white" stroke="#666666" points="923.25,-543 792.5,-543 792.5,-523 923.25,-523 923.25,-543"/>
<text text-anchor="middle" x="857.88" y="-529.5" font-family="Helvetica,sans-Serif" font-size="10.00">PWM_OverrideHighEnable</text>
</a>
</g>
</g>
<!-- Node11&#45;&gt;Node12 -->
<g id="edge11_Node000011_Node000012" class="edge">
<title>Node11&#45;&gt;Node12</title>
<g id="a_edge11_Node000011_Node000012"><a xlink:title=" ">
<path fill="none" stroke="#63b8ff" d="M723.73,-505.48C746.04,-510.09 772.43,-515.55 795.81,-520.38"/>
<polygon fill="#63b8ff" stroke="#63b8ff" points="794.81,-523.95 805.31,-522.55 796.22,-517.1 794.81,-523.95"/>
</a>
</g>
</g>
<!-- Node13 -->
<g id="Node000013" class="node">
<title>Node13</title>
<g id="a_Node000013"><a xlink:href="a00526.html#ga2548ca8feda75ba6ab784280679da6ae" target="_top" xlink:title="This inline function enables PWM override on PWML output for specific PWM generator selected by the a...">
<polygon fill="white" stroke="#666666" points="922.12,-505 793.62,-505 793.62,-485 922.12,-485 922.12,-505"/>
<text text-anchor="middle" x="857.88" y="-491.5" font-family="Helvetica,sans-Serif" font-size="10.00">PWM_OverrideLowEnable</text>
</a>
</g>
</g>
<!-- Node11&#45;&gt;Node13 -->
<g id="edge12_Node000011_Node000013" class="edge">
<title>Node11&#45;&gt;Node13</title>
<g id="a_edge12_Node000011_Node000013"><a xlink:title=" ">
<path fill="none" stroke="#63b8ff" d="M729.92,-495C746.52,-495 764.9,-495 782.41,-495"/>
<polygon fill="#63b8ff" stroke="#63b8ff" points="782.17,-498.5 792.17,-495 782.17,-491.5 782.17,-498.5"/>
</a>
</g>
</g>
<!-- Node14 -->
<g id="Node000014" class="node">
<title>Node14</title>
<g id="a_Node000014"><a xlink:href="a00526.html#ga83e780358618114f0d424ca7467cf751" target="_top" xlink:title="This inline function requests to update the data registers for specific PWM generator selected by the...">
<polygon fill="white" stroke="#666666" points="933,-298 782.75,-298 782.75,-278 933,-278 933,-298"/>
<text text-anchor="middle" x="857.88" y="-284.5" font-family="Helvetica,sans-Serif" font-size="10.00">PWM_SoftwareUpdateRequest</text>
</a>
</g>
</g>
<!-- Node11&#45;&gt;Node14 -->
<g id="edge13_Node000011_Node000014" class="edge">
<title>Node11&#45;&gt;Node14</title>
<g id="a_edge13_Node000011_Node000014"><a xlink:title=" ">
<path fill="none" stroke="#63b8ff" d="M729.78,-484.92C734.12,-482.53 738.12,-479.59 741.5,-476 794.13,-420.07 723.88,-361.98 777.5,-307 778.34,-306.14 779.21,-305.31 780.11,-304.52"/>
<polygon fill="#63b8ff" stroke="#63b8ff" points="781.77,-306.93 787.92,-298.3 777.73,-301.21 781.77,-306.93"/>
</a>
</g>
</g>
<!-- Node15&#45;&gt;Node11 -->
<g id="edge15_Node000015_Node000011" class="edge">
<title>Node15&#45;&gt;Node11</title>
<g id="a_edge15_Node000015_Node000011"><a xlink:title=" ">
<path fill="none" stroke="#63b8ff" d="M566.65,-498.61C578.72,-498.19 591.27,-497.76 603.31,-497.34"/>
<polygon fill="#63b8ff" stroke="#63b8ff" points="603.32,-500.81 613.19,-496.97 603.08,-493.81 603.32,-500.81"/>
</a>
</g>
</g>
<!-- Node16 -->
<g id="Node000016" class="node">
<title>Node16</title>
<g id="a_Node000016"><a xlink:href="a00512.html#ga59bb2fab32dc783d76f800283b4c7e2b" target="_top" xlink:title="Softly increment / decrement to the set reference target.">
<polygon fill="white" stroke="#666666" points="732.88,-543 611.12,-543 611.12,-523 732.88,-523 732.88,-543"/>
<text text-anchor="middle" x="672" y="-529.5" font-family="Helvetica,sans-Serif" font-size="10.00">PwrCtrl_RampReference</text>
</a>
</g>
</g>
<!-- Node15&#45;&gt;Node16 -->
<g id="edge16_Node000015_Node000016" class="edge">
<title>Node15&#45;&gt;Node16</title>
<g id="a_edge16_Node000015_Node000016"><a xlink:title=" ">
<path fill="none" stroke="#63b8ff" d="M554.39,-511.48C570.19,-514.39 587.5,-517.59 603.83,-520.6"/>
<polygon fill="#63b8ff" stroke="#63b8ff" points="602.93,-524.18 613.4,-522.55 604.2,-517.3 602.93,-524.18"/>
</a>
</g>
</g>
<!-- Node17&#45;&gt;Node5 -->
<g id="edge19_Node000017_Node000005" class="edge">
<title>Node17&#45;&gt;Node5</title>
<g id="a_edge19_Node000017_Node000005"><a xlink:title=" ">
<path fill="none" stroke="#63b8ff" d="M558.75,-360.76C572.89,-362.55 588.03,-364.47 602.46,-366.3"/>
<polygon fill="#63b8ff" stroke="#63b8ff" points="601.97,-369.9 612.33,-367.68 602.85,-362.95 601.97,-369.9"/>
</a>
</g>
</g>
<!-- Node17&#45;&gt;Node6 -->
<g id="edge20_Node000017_Node000006" class="edge">
<title>Node17&#45;&gt;Node6</title>
<g id="a_edge20_Node000017_Node000006"><a xlink:title=" ">
<path fill="none" stroke="#63b8ff" d="M558.75,-343.13C575.95,-340.35 594.62,-337.34 611.71,-334.58"/>
<polygon fill="#63b8ff" stroke="#63b8ff" points="611.8,-337.94 621.11,-332.9 610.68,-331.03 611.8,-337.94"/>
</a>
</g>
</g>
<!-- Node17&#45;&gt;Node7 -->
<g id="edge21_Node000017_Node000007" class="edge">
<title>Node17&#45;&gt;Node7</title>
<g id="a_edge21_Node000017_Node000007"><a xlink:title=" ">
<path fill="none" stroke="#63b8ff" d="M519.39,-363.44C533.62,-370.85 552.16,-381.65 566.5,-394 585.64,-410.49 581.33,-424.2 602.5,-438 604.81,-439.5 607.23,-440.89 609.74,-442.17"/>
<polygon fill="#63b8ff" stroke="#63b8ff" points="608.15,-445.74 618.72,-446.58 610.98,-439.33 608.15,-445.74"/>
</a>
</g>
</g>
<!-- Node17&#45;&gt;Node10 -->
<g id="edge22_Node000017_Node000010" class="edge">
<title>Node17&#45;&gt;Node10</title>
<g id="a_edge22_Node000017_Node000010"><a xlink:title=" ">
<path fill="none" stroke="#63b8ff" d="M518.53,-363.5C539.43,-373.72 572.66,-389.24 602.5,-400 610.33,-402.82 618.79,-405.48 627,-407.85"/>
<polygon fill="#63b8ff" stroke="#63b8ff" points="626.01,-411.49 636.58,-410.81 627.9,-404.75 626.01,-411.49"/>
</a>
</g>
</g>
<!-- Node18 -->
<g id="Node000018" class="node">
<title>Node18</title>
<g id="a_Node000018"><a xlink:href="a00498.html#ga494b4a948891fd5757ccc647f9962529" target="_top" xlink:title="API function to clear the sensor offset.">
<polygon fill="white" stroke="#666666" points="721.62,-291 622.38,-291 622.38,-259 721.62,-259 721.62,-291"/>
<text text-anchor="start" x="630.38" y="-277.5" font-family="Helvetica,sans-Serif" font-size="10.00">Dev_CurrentSensor</text>
<text text-anchor="middle" x="672" y="-265.5" font-family="Helvetica,sans-Serif" font-size="10.00">_Clr_Offset</text>
</a>
</g>
</g>
<!-- Node17&#45;&gt;Node18 -->
<g id="edge18_Node000017_Node000018" class="edge">
<title>Node17&#45;&gt;Node18</title>
<g id="a_edge18_Node000017_Node000018"><a xlink:title=" ">
<path fill="none" stroke="#63b8ff" d="M546.97,-342.57C553.75,-340.24 560.45,-337.41 566.5,-334 585.67,-323.2 583.78,-311.57 602.5,-300 605.61,-298.08 608.89,-296.27 612.26,-294.58"/>
<polygon fill="#63b8ff" stroke="#63b8ff" points="613.33,-297.48 620.94,-290.11 610.4,-291.13 613.33,-297.48"/>
</a>
</g>
</g>
<!-- Node19 -->
<g id="Node000019" class="node">
<title>Node19</title>
<g id="a_Node000019"><a xlink:href="a00508.html#gae20d34fb8fc7fbaa57f6c68b2907807f" target="_top" xlink:title="Enable the PWM output.">
<polygon fill="white" stroke="#666666" points="728.38,-241 615.62,-241 615.62,-221 728.38,-221 728.38,-241"/>
<text text-anchor="middle" x="672" y="-227.5" font-family="Helvetica,sans-Serif" font-size="10.00">PwrCtrl_PWM_Enable</text>
</a>
</g>
</g>
<!-- Node17&#45;&gt;Node19 -->
<g id="edge23_Node000017_Node000019" class="edge">
<title>Node17&#45;&gt;Node19</title>
<g id="a_edge23_Node000017_Node000019"><a xlink:title=" ">
<path fill="none" stroke="#63b8ff" d="M553.32,-342.55C558.08,-340.24 562.57,-337.43 566.5,-334 597.1,-307.29 571.92,-276.73 602.5,-250 603.72,-248.93 604.99,-247.93 606.32,-246.98"/>
<polygon fill="#63b8ff" stroke="#63b8ff" points="607.78,-249.58 614.61,-241.48 604.22,-243.56 607.78,-249.58"/>
</a>
</g>
</g>
<!-- Node22 -->
<g id="Node000022" class="node">
<title>Node22</title>
<g id="a_Node000022"><a xlink:href="a00508.html#ga73f526371cadb7674354635462e836cc" target="_top" xlink:title="PWM distribution for DAB converter.">
<polygon fill="white" stroke="#666666" points="728.75,-184 615.25,-184 615.25,-164 728.75,-164 728.75,-184"/>
<text text-anchor="middle" x="672" y="-170.5" font-family="Helvetica,sans-Serif" font-size="10.00">PwrCtrl_PWM_Update</text>
</a>
</g>
</g>
<!-- Node17&#45;&gt;Node22 -->
<g id="edge27_Node000017_Node000022" class="edge">
<title>Node17&#45;&gt;Node22</title>
<g id="a_edge27_Node000017_Node000022"><a xlink:title=" ">
<path fill="none" stroke="#63b8ff" d="M554.42,-342.67C558.85,-340.33 562.96,-337.48 566.5,-334 606.83,-294.38 567.14,-256.11 602.5,-212 610.12,-202.49 620.79,-194.99 631.45,-189.25"/>
<polygon fill="#63b8ff" stroke="#63b8ff" points="632.73,-192.03 640.15,-184.46 629.63,-185.75 632.73,-192.03"/>
</a>
</g>
</g>
<!-- Node28 -->
<g id="Node000028" class="node">
<title>Node28</title>
<g id="a_Node000028"><a xlink:href="a00509.html#ga843ba4773988fd10e4f4d653bb1034dc" target="_top" xlink:title="Resets the power control properties.">
<polygon fill="white" stroke="#666666" points="711.12,-86 632.88,-86 632.88,-66 711.12,-66 711.12,-86"/>
<text text-anchor="middle" x="672" y="-72.5" font-family="Helvetica,sans-Serif" font-size="10.00">PwrCtrl_Reset</text>
</a>
</g>
</g>
<!-- Node17&#45;&gt;Node28 -->
<g id="edge34_Node000017_Node000028" class="edge">
<title>Node17&#45;&gt;Node28</title>
<g id="a_edge34_Node000017_Node000028"><a xlink:title=" ">
<path fill="none" stroke="#63b8ff" d="M555.41,-342.63C559.51,-340.29 563.29,-337.45 566.5,-334 621.82,-274.63 566.74,-227.84 602.5,-155 614.25,-131.08 635.05,-108.61 650.66,-93.8"/>
<polygon fill="#63b8ff" stroke="#63b8ff" points="652.71,-96.74 657.7,-87.4 647.97,-91.59 652.71,-96.74"/>
</a>
</g>
</g>
<!-- Node19&#45;&gt;Node14 -->
<g id="edge26_Node000019_Node000014" class="edge">
<title>Node19&#45;&gt;Node14</title>
<g id="a_edge26_Node000019_Node000014"><a xlink:title=" ">
<path fill="none" stroke="#63b8ff" d="M716.22,-241.46C724.71,-243.95 733.47,-246.81 741.5,-250 758.31,-256.68 760.57,-262.62 777.5,-269 782.97,-271.06 788.74,-272.95 794.57,-274.67"/>
<polygon fill="#63b8ff" stroke="#63b8ff" points="793.5,-278.28 804.07,-277.59 795.37,-271.54 793.5,-278.28"/>
</a>
</g>
</g>
<!-- Node20 -->
<g id="Node000020" class="node">
<title>Node20</title>
<g id="a_Node000020"><a xlink:href="a00526.html#ga957b002605bfb2239a26f174808b2ad8" target="_top" xlink:title="This inline function disables PWM override on PWMH output for specific PWM generator selected by the ...">
<polygon fill="white" stroke="#666666" points="924.38,-336 791.38,-336 791.38,-316 924.38,-316 924.38,-336"/>
<text text-anchor="middle" x="857.88" y="-322.5" font-family="Helvetica,sans-Serif" font-size="10.00">PWM_OverrideHighDisable</text>
</a>
</g>
</g>
<!-- Node19&#45;&gt;Node20 -->
<g id="edge24_Node000019_Node000020" class="edge">
<title>Node19&#45;&gt;Node20</title>
<g id="a_edge24_Node000019_Node000020"><a xlink:title=" ">
<path fill="none" stroke="#63b8ff" d="M726.11,-241.4C731.59,-243.71 736.84,-246.54 741.5,-250 765.55,-267.87 753.13,-289.56 777.5,-307 779.47,-308.41 781.52,-309.71 783.65,-310.92"/>
<polygon fill="#63b8ff" stroke="#63b8ff" points="781.83,-314.41 792.35,-315.63 784.88,-308.11 781.83,-314.41"/>
</a>
</g>
</g>
<!-- Node21 -->
<g id="Node000021" class="node">
<title>Node21</title>
<g id="a_Node000021"><a xlink:href="a00526.html#gabbedef830c43428e96c7d5125662a8a6" target="_top" xlink:title="This inline function disables PWM override on PWML output for specific PWM generator selected by the ...">
<polygon fill="white" stroke="#666666" points="923.25,-260 792.5,-260 792.5,-240 923.25,-240 923.25,-260"/>
<text text-anchor="middle" x="857.88" y="-246.5" font-family="Helvetica,sans-Serif" font-size="10.00">PWM_OverrideLowDisable</text>
</a>
</g>
</g>
<!-- Node19&#45;&gt;Node21 -->
<g id="edge25_Node000019_Node000021" class="edge">
<title>Node19&#45;&gt;Node21</title>
<g id="a_edge25_Node000019_Node000021"><a xlink:title=" ">
<path fill="none" stroke="#63b8ff" d="M728.67,-236.75C745.21,-238.46 763.62,-240.36 781.21,-242.18"/>
<polygon fill="#63b8ff" stroke="#63b8ff" points="780.73,-245.75 791.03,-243.3 781.45,-238.79 780.73,-245.75"/>
</a>
</g>
</g>
<!-- Node22&#45;&gt;Node14 -->
<g id="edge32_Node000022_Node000014" class="edge">
<title>Node22&#45;&gt;Node14</title>
<g id="a_edge32_Node000022_Node000014"><a xlink:title=" ">
<path fill="none" stroke="#63b8ff" d="M698.75,-184.5C712.52,-190.99 729.14,-200.33 741.5,-212 763.28,-232.58 753.13,-251.56 777.5,-269 779.47,-270.41 781.52,-271.71 783.65,-272.92"/>
<polygon fill="#63b8ff" stroke="#63b8ff" points="781.83,-276.41 792.35,-277.63 784.88,-270.11 781.83,-276.41"/>
</a>
</g>
</g>
<!-- Node23 -->
<g id="Node000023" class="node">
<title>Node23</title>
<g id="a_Node000023"><a xlink:href="a00526.html#gaf368256a569a5a9e12f85f84d7d42287" target="_top" xlink:title="This inline function updates PWM Deadtime high register with the requested value for a specific PWM g...">
<polygon fill="white" stroke="#666666" points="919.88,-146 795.88,-146 795.88,-126 919.88,-126 919.88,-146"/>
<text text-anchor="middle" x="857.88" y="-132.5" font-family="Helvetica,sans-Serif" font-size="10.00">PWM_DeadTimeHighSet</text>
</a>
</g>
</g>
<!-- Node22&#45;&gt;Node23 -->
<g id="edge28_Node000022_Node000023" class="edge">
<title>Node22&#45;&gt;Node23</title>
<g id="a_edge28_Node000022_Node000023"><a xlink:title=" ">
<path fill="none" stroke="#63b8ff" d="M723.73,-163.52C746.04,-158.91 772.43,-153.45 795.81,-148.62"/>
<polygon fill="#63b8ff" stroke="#63b8ff" points="796.22,-151.9 805.31,-146.45 794.81,-145.05 796.22,-151.9"/>
</a>
</g>
</g>
<!-- Node24 -->
<g id="Node000024" class="node">
<title>Node24</title>
<g id="a_Node000024"><a xlink:href="a00526.html#ga124426b28426beb53948e9b57319ab4b" target="_top" xlink:title="This inline function updates PWM Deadtime low register with the requested value for a specific PWM ge...">
<polygon fill="white" stroke="#666666" points="918.75,-70 797,-70 797,-50 918.75,-50 918.75,-70"/>
<text text-anchor="middle" x="857.88" y="-56.5" font-family="Helvetica,sans-Serif" font-size="10.00">PWM_DeadTimeLowSet</text>
</a>
</g>
</g>
<!-- Node22&#45;&gt;Node24 -->
<g id="edge29_Node000022_Node000024" class="edge">
<title>Node22&#45;&gt;Node24</title>
<g id="a_edge29_Node000022_Node000024"><a xlink:title=" ">
<path fill="none" stroke="#63b8ff" d="M681.27,-163.59C697.52,-143.88 735.67,-101.12 777.5,-79 780.96,-77.17 784.6,-75.51 788.34,-74.02"/>
<polygon fill="#63b8ff" stroke="#63b8ff" points="789.17,-77.08 797.4,-70.41 786.81,-70.49 789.17,-77.08"/>
</a>
</g>
</g>
<!-- Node25 -->
<g id="Node000025" class="node">
<title>Node25</title>
<g id="a_Node000025"><a xlink:href="a00526.html#ga37968a783e44cd80643478d2b559dbf4" target="_top" xlink:title="This inline function sets the PWM generator specific duty cycle register.">
<polygon fill="white" stroke="#666666" points="910.88,-222 804.88,-222 804.88,-202 910.88,-202 910.88,-222"/>
<text text-anchor="middle" x="857.88" y="-208.5" font-family="Helvetica,sans-Serif" font-size="10.00">PWM_DutyCycleSet</text>
</a>
</g>
</g>
<!-- Node22&#45;&gt;Node25 -->
<g id="edge30_Node000022_Node000025" class="edge">
<title>Node22&#45;&gt;Node25</title>
<g id="a_edge30_Node000022_Node000025"><a xlink:title=" ">
<path fill="none" stroke="#63b8ff" d="M723.73,-184.48C746.04,-189.09 772.43,-194.55 795.81,-199.38"/>
<polygon fill="#63b8ff" stroke="#63b8ff" points="794.81,-202.95 805.31,-201.55 796.22,-196.1 794.81,-202.95"/>
</a>
</g>
</g>
<!-- Node26 -->
<g id="Node000026" class="node">
<title>Node26</title>
<g id="a_Node000026"><a xlink:href="a00526.html#gada46160823b0892a1af14a17c5ab516e" target="_top" xlink:title="This inline function sets the period value in count for the PWM generator specific Time Base.">
<polygon fill="white" stroke="#666666" points="902.25,-108 813.5,-108 813.5,-88 902.25,-88 902.25,-108"/>
<text text-anchor="middle" x="857.88" y="-94.5" font-family="Helvetica,sans-Serif" font-size="10.00">PWM_PeriodSet</text>
</a>
</g>
</g>
<!-- Node22&#45;&gt;Node26 -->
<g id="edge31_Node000022_Node000026" class="edge">
<title>Node22&#45;&gt;Node26</title>
<g id="a_edge31_Node000022_Node000026"><a xlink:title=" ">
<path fill="none" stroke="#63b8ff" d="M689,-163.52C708.97,-150.86 744.52,-129.68 777.5,-117 785.59,-113.89 794.34,-111.18 802.97,-108.86"/>
<polygon fill="#63b8ff" stroke="#63b8ff" points="803.57,-112.07 812.4,-106.22 801.85,-105.28 803.57,-112.07"/>
</a>
</g>
</g>
<!-- Node27 -->
<g id="Node000027" class="node">
<title>Node27</title>
<g id="a_Node000027"><a xlink:href="a00526.html#gacc5575148a6e8da6577d9be9e20541ce" target="_top" xlink:title="This inline function sets the Trigger C compare value in count for a specific PWM generator selected ...">
<polygon fill="white" stroke="#666666" points="938.25,-184 777.5,-184 777.5,-164 938.25,-164 938.25,-184"/>
<text text-anchor="middle" x="857.88" y="-170.5" font-family="Helvetica,sans-Serif" font-size="10.00">PWM_TriggerCCompareValueSet</text>
</a>
</g>
</g>
<!-- Node22&#45;&gt;Node27 -->
<g id="edge33_Node000022_Node000027" class="edge">
<title>Node22&#45;&gt;Node27</title>
<g id="a_edge33_Node000022_Node000027"><a xlink:title=" ">
<path fill="none" stroke="#63b8ff" d="M729.17,-174C740.97,-174 753.7,-174 766.39,-174"/>
<polygon fill="#63b8ff" stroke="#63b8ff" points="766.02,-177.5 776.02,-174 766.02,-170.5 766.02,-177.5"/>
</a>
</g>
</g>
<!-- Node29 -->
<g id="Node000029" class="node">
<title>Node29</title>
<g id="a_Node000029"><a xlink:href="a00510.html#gae5d978249e235e284da922df5ec4363a" target="_top" xlink:title="Clear the control and error histories of the control loops.">
<polygon fill="white" stroke="#666666" points="922.88,-32 792.88,-32 792.88,0 922.88,0 922.88,-32"/>
<text text-anchor="start" x="800.88" y="-18.5" font-family="Helvetica,sans-Serif" font-size="10.00">PwrCtrl_ResetControlLoop</text>
<text text-anchor="middle" x="857.88" y="-6.5" font-family="Helvetica,sans-Serif" font-size="10.00">Histories</text>
</a>
</g>
</g>
<!-- Node28&#45;&gt;Node29 -->
<g id="edge35_Node000028_Node000029" class="edge">
<title>Node28&#45;&gt;Node29</title>
<g id="a_edge35_Node000028_Node000029"><a xlink:title=" ">
<path fill="none" stroke="#63b8ff" d="M703.59,-65.59C724.4,-58.55 752.57,-49.1 777.5,-41 782.91,-39.24 788.53,-37.43 794.18,-35.63"/>
<polygon fill="#63b8ff" stroke="#63b8ff" points="794.85,-38.77 803.32,-32.41 792.73,-32.1 794.85,-38.77"/>
</a>
</g>
</g>
<!-- Node30&#45;&gt;Node11 -->
<g id="edge37_Node000030_Node000011" class="edge">
<title>Node30&#45;&gt;Node11</title>
<g id="a_edge37_Node000030_Node000011"><a xlink:title=" ">
<path fill="none" stroke="#63b8ff" d="M561.69,-471.04C578.39,-474.7 596.29,-478.62 612.67,-482.21"/>
<polygon fill="#63b8ff" stroke="#63b8ff" points="611.67,-485.8 622.19,-484.52 613.17,-478.96 611.67,-485.8"/>
</a>
</g>
</g>
</g>
</svg>

<g id="navigator" transform="translate(0 0)" fill="#404254">
  <rect fill="#f2f5e9" fill-opacity="0.5" stroke="#606060" stroke-width=".5" x="0" y="0" width="60" height="60"/>
  <use id="zoomplus" xlink:href="#zoomPlus" x="17" y="9" onmousedown="handleZoom(evt,'in')"/>
  <use id="zoomminus" xlink:href="#zoomMin" x="42" y="9" onmousedown="handleZoom(evt,'out')"/>
  <use id="reset" xlink:href="#resetDef" x="30" y="36" onmousedown="handleReset()"/>
   <use id="arrowup" xlink:href="#arrowUp" x="0" y="0" onmousedown="handlePan(0,-1)"/>
  <use id="arrowright" xlink:href="#arrowRight" x="0" y="0" onmousedown="handlePan(1,0)"/>
  <use id="arrowdown" xlink:href="#arrowDown" x="0" y="0" onmousedown="handlePan(0,1)"/>
  <use id="arrowleft" xlink:href="#arrowLeft" x="0" y="0" onmousedown="handlePan(-1,0)"/>
</g>
<svg viewBox="0 0 15 15" width="100%" height="30px" preserveAspectRatio="xMaxYMin meet">
 <g id="arrow_out" transform="scale(0.3 0.3)">
  <a xlink:href="a00517_gad258f19a1b6a855fef3c71f54bb5539e_cgraph_org.svg" target="_base">
   <rect id="button" ry="5" rx="5" y="6" x="6" height="38" width="38"
        fill="#f2f5e9" fill-opacity="0.5" stroke="#606060" stroke-width="1.0"/>
   <path id="arrow"
     d="M 11.500037,31.436501 C 11.940474,20.09759 22.043105,11.32322 32.158766,21.979434 L 37.068811,17.246167 C 37.068811,17.246167 37.088388,32 37.088388,32 L 22.160133,31.978069 C 22.160133,31.978069 26.997745,27.140456 26.997745,27.140456 C 18.528582,18.264221 13.291696,25.230495 11.500037,31.436501 z"
     style="fill:#404040;"/>
  </a>
 </g>
</svg>

<style type='text/css'>
<![CDATA[
[data-mouse-over-selected='false'] { opacity: 0.7; }
[data-mouse-over-selected='true']  { opacity: 1.0; }
]]>
</style>
<script type="application/ecmascript"><![CDATA[
document.addEventListener('DOMContentLoaded', (event) => {
  highlightEdges();
  highlightAdjacentNodes();
});
]]></script>
</svg>
