<?xml version="1.0" encoding="UTF-8" standalone="no"?>
<!DOCTYPE svg PUBLIC "-//W3C//DTD SVG 1.1//EN"
 "http://www.w3.org/Graphics/SVG/1.1/DTD/svg11.dtd">
<!-- Generated by graphviz version 8.1.0 (20230707.0739)
 -->
<!-- Title: PwrCtrl_VComp_Initialize Pages: 1 -->
<svg width="318pt" height="66pt"
 viewBox="0.00 0.00 318.25 66.00" xmlns="http://www.w3.org/2000/svg" xmlns:xlink="http://www.w3.org/1999/xlink">
<g id="graph0" class="graph" transform="scale(1 1) rotate(0) translate(4 62)">
<title>PwrCtrl_VComp_Initialize</title>
<!-- Node1 -->
<g id="Node000001" class="node">
<title>Node1</title>
<g id="a_Node000001"><a xlink:title="Initialize the Voltage Loop Control.">
<polygon fill="#999999" stroke="#666666" points="125.5,-39 0,-39 0,-19 125.5,-19 125.5,-39"/>
<text text-anchor="middle" x="62.75" y="-25.5" font-family="Helvetica,sans-Serif" font-size="10.00">PwrCtrl_VComp_Initialize</text>
</a>
</g>
</g>
<!-- Node2 -->
<g id="Node000002" class="node">
<title>Node2</title>
<g id="a_Node000002"><a xlink:href="a00458.html#a8d0d916c7a3ca172408fcded86a6baa2" target="_top" xlink:title=" ">
<polygon fill="white" stroke="#666666" points="310.25,-58 161.5,-58 161.5,-38 310.25,-38 310.25,-58"/>
<text text-anchor="middle" x="235.88" y="-44.5" font-family="Helvetica,sans-Serif" font-size="10.00">SMPS_Controller2P2ZInitialize</text>
</a>
</g>
</g>
<!-- Node1&#45;&gt;Node2 -->
<g id="edge1_Node000001_Node000002" class="edge">
<title>Node1&#45;&gt;Node2</title>
<g id="a_edge1_Node000001_Node000002"><a xlink:title=" ">
<path fill="none" stroke="#63b8ff" d="M125.53,-35.86C133.68,-36.76 142.13,-37.7 150.57,-38.64"/>
<polygon fill="#63b8ff" stroke="#63b8ff" points="149.91,-42.2 160.23,-39.82 150.68,-35.24 149.91,-42.2"/>
</a>
</g>
</g>
<!-- Node3 -->
<g id="Node000003" class="node">
<title>Node3</title>
<g id="a_Node000003"><a xlink:href="a00458.html#ad495211ff0d3998ba64f08121e48db0a" target="_top" xlink:title=" ">
<polygon fill="white" stroke="#666666" points="306.88,-20 164.88,-20 164.88,0 306.88,0 306.88,-20"/>
<text text-anchor="middle" x="235.88" y="-6.5" font-family="Helvetica,sans-Serif" font-size="10.00">SMPS_ControllerPIDInitialize</text>
</a>
</g>
</g>
<!-- Node1&#45;&gt;Node3 -->
<g id="edge2_Node000001_Node000003" class="edge">
<title>Node1&#45;&gt;Node3</title>
<g id="a_edge2_Node000001_Node000003"><a xlink:title=" ">
<path fill="none" stroke="#63b8ff" d="M125.53,-22.14C134.71,-21.12 144.29,-20.06 153.79,-19"/>
<polygon fill="#63b8ff" stroke="#63b8ff" points="153.92,-22.4 163.47,-17.82 153.14,-15.44 153.92,-22.4"/>
</a>
</g>
</g>
</g>
</svg>
