<?xml version="1.0" encoding="UTF-8" standalone="no"?>
<!DOCTYPE svg PUBLIC "-//W3C//DTD SVG 1.1//EN"
 "http://www.w3.org/Graphics/SVG/1.1/DTD/svg11.dtd">
<!-- Generated by graphviz version 8.1.0 (20230707.0739)
 -->
<!-- Title: ControlLoop_Interrupt_CallBack Pages: 1 -->
<svg width="484pt" height="218pt"
 viewBox="0.00 0.00 483.50 218.00" xmlns="http://www.w3.org/2000/svg" xmlns:xlink="http://www.w3.org/1999/xlink">

<svg id="main" version="1.1" xmlns="http://www.w3.org/2000/svg" xmlns:xlink="http://www.w3.org/1999/xlink" xml:space="preserve" onload="init(evt)">
<style type="text/css"><![CDATA[
.node, .edge {opacity: 0.7;}
.node.selected, .edge.selected {opacity: 1;}
.edge:hover path { stroke: red; }
.edge:hover polygon { stroke: red; fill: red; }
]]></style>
<script type="application/ecmascript" xlink:href="svg.min.js"/>
<svg id="graph" class="graph">
<g id="graph0" class="graph" transform="scale(1 1) rotate(0) translate(4 214)">
<title>ControlLoop_Interrupt_CallBack</title>
<!-- Node1 -->
<g id="Node000001" class="node">
<title>Node1</title>
<g id="a_Node000001"><a xlink:title="Executes the power conveter&#39;s control loop.">
<polygon fill="#999999" stroke="#666666" points="108.25,-140 0,-140 0,-108 108.25,-108 108.25,-140"/>
<text text-anchor="start" x="8" y="-126.5" font-family="Helvetica,sans-Serif" font-size="10.00">ControlLoop_Interrupt</text>
<text text-anchor="middle" x="54.12" y="-114.5" font-family="Helvetica,sans-Serif" font-size="10.00">_CallBack</text>
</a>
</g>
</g>
<!-- Node2 -->
<g id="Node000002" class="node">
<title>Node2</title>
<g id="a_Node000002"><a xlink:href="a00531.html#gae0ce419d4615d091cb65cb32c168cc77" target="_top" xlink:title="CMP DAC Data write to register.">
<polygon fill="white" stroke="#666666" points="267.5,-153 155.5,-153 155.5,-133 267.5,-133 267.5,-153"/>
<text text-anchor="middle" x="211.5" y="-139.5" font-family="Helvetica,sans-Serif" font-size="10.00">CMP2_DACDataWrite</text>
</a>
</g>
</g>
<!-- Node1&#45;&gt;Node2 -->
<g id="edge1_Node000001_Node000002" class="edge">
<title>Node1&#45;&gt;Node2</title>
<g id="a_edge1_Node000001_Node000002"><a xlink:title=" ">
<path fill="none" stroke="#63b8ff" d="M108.6,-130.54C120.09,-131.94 132.37,-133.45 144.28,-134.9"/>
<polygon fill="#63b8ff" stroke="#63b8ff" points="143.73,-138.48 154.08,-136.22 144.58,-131.53 143.73,-138.48"/>
</a>
</g>
</g>
<!-- Node3 -->
<g id="Node000003" class="node">
<title>Node3</title>
<g id="a_Node000003"><a xlink:href="a00518.html#ga2da42ebbee6a24170cd69c0c798a572e" target="_top" xlink:title="PWM distribution for DAB converter.">
<polygon fill="white" stroke="#666666" points="278.75,-115 144.25,-115 144.25,-95 278.75,-95 278.75,-115"/>
<text text-anchor="middle" x="211.5" y="-101.5" font-family="Helvetica,sans-Serif" font-size="10.00">Dev_PwrCtrl_PWM_Update</text>
</a>
</g>
</g>
<!-- Node1&#45;&gt;Node3 -->
<g id="edge2_Node000001_Node000003" class="edge">
<title>Node1&#45;&gt;Node3</title>
<g id="a_edge2_Node000001_Node000003"><a xlink:title=" ">
<path fill="none" stroke="#63b8ff" d="M108.6,-117.46C116.47,-116.5 124.71,-115.49 132.95,-114.48"/>
<polygon fill="#63b8ff" stroke="#63b8ff" points="133.25,-117.85 142.75,-113.16 132.4,-110.9 133.25,-117.85"/>
</a>
</g>
</g>
<!-- Node4 -->
<g id="Node000004" class="node">
<title>Node4</title>
<g id="a_Node000004"><a xlink:href="a00534.html#gaf368256a569a5a9e12f85f84d7d42287" target="_top" xlink:title="This inline function updates PWM Deadtime high register with the requested value for a specific PWM g...">
<polygon fill="white" stroke="#666666" points="457.12,-210 333.12,-210 333.12,-190 457.12,-190 457.12,-210"/>
<text text-anchor="middle" x="395.12" y="-196.5" font-family="Helvetica,sans-Serif" font-size="10.00">PWM_DeadTimeHighSet</text>
</a>
</g>
</g>
<!-- Node3&#45;&gt;Node4 -->
<g id="edge3_Node000003_Node000004" class="edge">
<title>Node3&#45;&gt;Node4</title>
<g id="a_edge3_Node000003_Node000004"><a xlink:title=" ">
<path fill="none" stroke="#63b8ff" d="M263.54,-115.42C268.95,-117.73 274.15,-120.55 278.75,-124 302.72,-141.98 290.38,-163.56 314.75,-181 317.43,-182.92 320.28,-184.64 323.24,-186.2"/>
<polygon fill="#63b8ff" stroke="#63b8ff" points="321.47,-189.69 332.03,-190.59 324.34,-183.3 321.47,-189.69"/>
</a>
</g>
</g>
<!-- Node5 -->
<g id="Node000005" class="node">
<title>Node5</title>
<g id="a_Node000005"><a xlink:href="a00534.html#ga124426b28426beb53948e9b57319ab4b" target="_top" xlink:title="This inline function updates PWM Deadtime low register with the requested value for a specific PWM ge...">
<polygon fill="white" stroke="#666666" points="456,-172 334.25,-172 334.25,-152 456,-152 456,-172"/>
<text text-anchor="middle" x="395.12" y="-158.5" font-family="Helvetica,sans-Serif" font-size="10.00">PWM_DeadTimeLowSet</text>
</a>
</g>
</g>
<!-- Node3&#45;&gt;Node5 -->
<g id="edge4_Node000003_Node000005" class="edge">
<title>Node3&#45;&gt;Node5</title>
<g id="a_edge4_Node000003_Node000005"><a xlink:title=" ">
<path fill="none" stroke="#63b8ff" d="M253.94,-115.46C262.26,-117.96 270.87,-120.83 278.75,-124 295.53,-130.75 297.82,-136.62 314.75,-143 320.22,-145.06 325.99,-146.95 331.82,-148.67"/>
<polygon fill="#63b8ff" stroke="#63b8ff" points="330.75,-152.28 341.32,-151.59 332.62,-145.54 330.75,-152.28"/>
</a>
</g>
</g>
<!-- Node6 -->
<g id="Node000006" class="node">
<title>Node6</title>
<g id="a_Node000006"><a xlink:href="a00534.html#ga37968a783e44cd80643478d2b559dbf4" target="_top" xlink:title="This inline function sets the PWM generator specific duty cycle register.">
<polygon fill="white" stroke="#666666" points="448.12,-134 342.12,-134 342.12,-114 448.12,-114 448.12,-134"/>
<text text-anchor="middle" x="395.12" y="-120.5" font-family="Helvetica,sans-Serif" font-size="10.00">PWM_DutyCycleSet</text>
</a>
</g>
</g>
<!-- Node3&#45;&gt;Node6 -->
<g id="edge5_Node000003_Node000006" class="edge">
<title>Node3&#45;&gt;Node6</title>
<g id="a_edge5_Node000003_Node000006"><a xlink:title=" ">
<path fill="none" stroke="#63b8ff" d="M279.1,-111.97C296.04,-113.74 314.2,-115.64 330.96,-117.39"/>
<polygon fill="#63b8ff" stroke="#63b8ff" points="330.44,-120.96 340.75,-118.52 331.17,-114 330.44,-120.96"/>
</a>
</g>
</g>
<!-- Node7 -->
<g id="Node000007" class="node">
<title>Node7</title>
<g id="a_Node000007"><a xlink:href="a00534.html#gada46160823b0892a1af14a17c5ab516e" target="_top" xlink:title="This inline function sets the period value in count for the PWM generator specific Time Base.">
<polygon fill="white" stroke="#666666" points="439.5,-96 350.75,-96 350.75,-76 439.5,-76 439.5,-96"/>
<text text-anchor="middle" x="395.12" y="-82.5" font-family="Helvetica,sans-Serif" font-size="10.00">PWM_PeriodSet</text>
</a>
</g>
</g>
<!-- Node3&#45;&gt;Node7 -->
<g id="edge6_Node000003_Node000007" class="edge">
<title>Node3&#45;&gt;Node7</title>
<g id="a_edge6_Node000003_Node000007"><a xlink:title=" ">
<path fill="none" stroke="#63b8ff" d="M279.1,-98.03C298.99,-95.95 320.55,-93.7 339.57,-91.71"/>
<polygon fill="#63b8ff" stroke="#63b8ff" points="339.86,-95.09 349.44,-90.57 339.13,-88.13 339.86,-95.09"/>
</a>
</g>
</g>
<!-- Node8 -->
<g id="Node000008" class="node">
<title>Node8</title>
<g id="a_Node000008"><a xlink:href="a00534.html#ga83e780358618114f0d424ca7467cf751" target="_top" xlink:title="This inline function requests to update the data registers for specific PWM generator selected by the...">
<polygon fill="white" stroke="#666666" points="470.25,-58 320,-58 320,-38 470.25,-38 470.25,-58"/>
<text text-anchor="middle" x="395.12" y="-44.5" font-family="Helvetica,sans-Serif" font-size="10.00">PWM_SoftwareUpdateRequest</text>
</a>
</g>
</g>
<!-- Node3&#45;&gt;Node8 -->
<g id="edge7_Node000003_Node000008" class="edge">
<title>Node3&#45;&gt;Node8</title>
<g id="a_edge7_Node000003_Node000008"><a xlink:title=" ">
<path fill="none" stroke="#63b8ff" d="M237.84,-94.61C258.36,-86.43 288.12,-75.1 314.75,-67 321.58,-64.92 328.8,-62.92 335.98,-61.06"/>
<polygon fill="#63b8ff" stroke="#63b8ff" points="336.6,-64.26 345.44,-58.42 334.89,-57.47 336.6,-64.26"/>
</a>
</g>
</g>
<!-- Node9 -->
<g id="Node000009" class="node">
<title>Node9</title>
<g id="a_Node000009"><a xlink:href="a00534.html#gacc5575148a6e8da6577d9be9e20541ce" target="_top" xlink:title="This inline function sets the Trigger C compare value in count for a specific PWM generator selected ...">
<polygon fill="white" stroke="#666666" points="475.5,-20 314.75,-20 314.75,0 475.5,0 475.5,-20"/>
<text text-anchor="middle" x="395.12" y="-6.5" font-family="Helvetica,sans-Serif" font-size="10.00">PWM_TriggerCCompareValueSet</text>
</a>
</g>
</g>
<!-- Node3&#45;&gt;Node9 -->
<g id="edge8_Node000003_Node000009" class="edge">
<title>Node3&#45;&gt;Node9</title>
<g id="a_edge8_Node000003_Node000009"><a xlink:title=" ">
<path fill="none" stroke="#63b8ff" d="M223.18,-94.7C240.79,-78.3 277.68,-46.32 314.75,-29 318.87,-27.08 323.2,-25.34 327.62,-23.77"/>
<polygon fill="#63b8ff" stroke="#63b8ff" points="328.63,-26.8 337.07,-20.4 326.48,-20.14 328.63,-26.8"/>
</a>
</g>
</g>
</g>
</svg>
</svg>

<style type='text/css'>
<![CDATA[
[data-mouse-over-selected='false'] { opacity: 0.7; }
[data-mouse-over-selected='true']  { opacity: 1.0; }
]]>
</style>
<script type="application/ecmascript"><![CDATA[
document.addEventListener('DOMContentLoaded', (event) => {
  highlightEdges();
  highlightAdjacentNodes();
});
]]></script>
</svg>
