<?xml version="1.0" encoding="UTF-8" standalone="no"?>
<!DOCTYPE svg PUBLIC "-//W3C//DTD SVG 1.1//EN"
 "http://www.w3.org/Graphics/SVG/1.1/DTD/svg11.dtd">
<!-- Generated by graphviz version 8.1.0 (20230707.0739)
 -->
<!-- Title: App_Send_To_PBV Pages: 1 -->
<svg width="394pt" height="66pt"
 viewBox="0.00 0.00 393.50 66.00" xmlns="http://www.w3.org/2000/svg" xmlns:xlink="http://www.w3.org/1999/xlink">
<g id="graph0" class="graph" transform="scale(1 1) rotate(0) translate(4 62)">
<title>App_Send_To_PBV</title>
<!-- Node1 -->
<g id="Node000001" class="node">
<title>Node1</title>
<g id="a_Node000001"><a xlink:title="This function links the data from application object to the CAN or UART object and &#160;&#160;This function ch...">
<polygon fill="#999999" stroke="#666666" points="385.5,-39 283.25,-39 283.25,-19 385.5,-19 385.5,-39"/>
<text text-anchor="middle" x="334.38" y="-25.5" font-family="Helvetica,sans-Serif" font-size="10.00">App_Send_To_PBV</text>
</a>
</g>
</g>
<!-- Node2 -->
<g id="Node000002" class="node">
<title>Node2</title>
<g id="a_Node000002"><a xlink:href="a00531.html#ga4de477d51ea04cdcfcb1e3eb3ef0053a" target="_top" xlink:title="10ms PBV task to be execution">
<polygon fill="white" stroke="#666666" points="247.25,-58 107.5,-58 107.5,-38 247.25,-38 247.25,-58"/>
<text text-anchor="middle" x="177.38" y="-44.5" font-family="Helvetica,sans-Serif" font-size="10.00">App_PBV_DAB_Task_10ms</text>
</a>
</g>
</g>
<!-- Node1&#45;&gt;Node2 -->
<g id="edge1_Node000001_Node000002" class="edge">
<title>Node1&#45;&gt;Node2</title>
<g id="a_edge1_Node000001_Node000002"><a xlink:title=" ">
<path fill="none" stroke="#63b8ff" d="M272.22,-36.5C264.14,-37.49 255.81,-38.51 247.6,-39.51"/>
<polygon fill="#63b8ff" stroke="#63b8ff" points="272.55,-39.86 282.05,-35.17 271.7,-32.91 272.55,-39.86"/>
</a>
</g>
</g>
<!-- Node4 -->
<g id="Node000004" class="node">
<title>Node4</title>
<g id="a_Node000004"><a xlink:href="a00531.html#gad255673713bb77bc36791875207a4393" target="_top" xlink:title="1 second PBV task to be execution">
<polygon fill="white" stroke="#666666" points="240.5,-20 114.25,-20 114.25,0 240.5,0 240.5,-20"/>
<text text-anchor="middle" x="177.38" y="-6.5" font-family="Helvetica,sans-Serif" font-size="10.00">App_PBV_DAB_Task_1s</text>
</a>
</g>
</g>
<!-- Node1&#45;&gt;Node4 -->
<g id="edge3_Node000001_Node000004" class="edge">
<title>Node1&#45;&gt;Node4</title>
<g id="a_edge3_Node000001_Node000004"><a xlink:title=" ">
<path fill="none" stroke="#63b8ff" d="M272.44,-21.53C262.09,-20.26 251.32,-18.94 240.92,-17.67"/>
<polygon fill="#63b8ff" stroke="#63b8ff" points="271.7,-25.09 282.05,-22.83 272.55,-18.14 271.7,-25.09"/>
</a>
</g>
</g>
<!-- Node3 -->
<g id="Node000003" class="node">
<title>Node3</title>
<g id="a_Node000003"><a xlink:href="a00553.html#ga05751024e03719cbe14d88fb0af408dd" target="_top" xlink:title="Tasks_10ms gets called every 10ms, put your things in it that need to be called regularly.">
<polygon fill="white" stroke="#666666" points="71.5,-58 0,-58 0,-38 71.5,-38 71.5,-58"/>
<text text-anchor="middle" x="35.75" y="-44.5" font-family="Helvetica,sans-Serif" font-size="10.00">Tasks_10ms</text>
</a>
</g>
</g>
<!-- Node2&#45;&gt;Node3 -->
<g id="edge2_Node000002_Node000003" class="edge">
<title>Node2&#45;&gt;Node3</title>
<g id="a_edge2_Node000002_Node000003"><a xlink:title=" ">
<path fill="none" stroke="#63b8ff" d="M96.4,-48C87.78,-48 79.38,-48 71.73,-48"/>
<polygon fill="#63b8ff" stroke="#63b8ff" points="96.38,-51.5 106.38,-48 96.38,-44.5 96.38,-51.5"/>
</a>
</g>
</g>
<!-- Node5 -->
<g id="Node000005" class="node">
<title>Node5</title>
<g id="a_Node000005"><a xlink:href="a00553.html#gac181d28cf7f396a9ee79b7c8b76b97ad" target="_top" xlink:title="Tasks_1s gets called every second, put your things in it that need to be called regularly.">
<polygon fill="white" stroke="#666666" points="64.75,-20 6.75,-20 6.75,0 64.75,0 64.75,-20"/>
<text text-anchor="middle" x="35.75" y="-6.5" font-family="Helvetica,sans-Serif" font-size="10.00">Tasks_1s</text>
</a>
</g>
</g>
<!-- Node4&#45;&gt;Node5 -->
<g id="edge4_Node000004_Node000005" class="edge">
<title>Node4&#45;&gt;Node5</title>
<g id="a_edge4_Node000004_Node000005"><a xlink:title=" ">
<path fill="none" stroke="#63b8ff" d="M103.03,-10C89.46,-10 76.06,-10 64.91,-10"/>
<polygon fill="#63b8ff" stroke="#63b8ff" points="102.91,-13.5 112.91,-10 102.91,-6.5 102.91,-13.5"/>
</a>
</g>
</g>
</g>
</svg>
