<?xml version="1.0" encoding="UTF-8" standalone="no"?>
<!DOCTYPE svg PUBLIC "-//W3C//DTD SVG 1.1//EN"
 "http://www.w3.org/Graphics/SVG/1.1/DTD/svg11.dtd">
<!-- Generated by graphviz version 8.1.0 (20230707.0739)
 -->
<!-- Title: Power Board Visualizer Pages: 1 -->
<svg width="420pt" height="180pt"
 viewBox="0.00 0.00 419.75 180.00" xmlns="http://www.w3.org/2000/svg" xmlns:xlink="http://www.w3.org/1999/xlink">

<svg id="main" version="1.1" xmlns="http://www.w3.org/2000/svg" xmlns:xlink="http://www.w3.org/1999/xlink" xml:space="preserve" onload="init(evt)">
<style type="text/css"><![CDATA[
.node, .edge {opacity: 0.7;}
.node.selected, .edge.selected {opacity: 1;}
.edge:hover path { stroke: red; }
.edge:hover polygon { stroke: red; fill: red; }
]]></style>
<script type="application/ecmascript" xlink:href="svg.min.js"/>
<svg id="graph" class="graph">
<g id="graph0" class="graph" transform="scale(1 1) rotate(0) translate(4 176)">
<title>Power Board Visualizer</title>
<!-- Node5 -->
<g id="Node000005" class="node">
<title>Node5</title>
<g id="a_Node000005"><a xlink:href="a00505.html" target="_top" xlink:title="These implement the PBV state machine of RX and TX, as well as link data that is received by peripher...">
<polygon fill="white" stroke="#666666" points="393.75,-172 317.75,-172 317.75,-152 393.75,-152 393.75,-172"/>
<text text-anchor="middle" x="355.75" y="-158.5" font-family="Helvetica,sans-Serif" font-size="10.00">PBV Interface</text>
</a>
</g>
</g>
<!-- Node3 -->
<g id="Node000003" class="node">
<title>Node3</title>
<g id="a_Node000003"><a xlink:href="a00503.html" target="_top" xlink:title="This abstracts the MCC driver api.">
<polygon fill="white" stroke="#666666" points="409.12,-134 302.38,-134 302.38,-114 409.12,-114 409.12,-134"/>
<text text-anchor="middle" x="355.75" y="-120.5" font-family="Helvetica,sans-Serif" font-size="10.00">CAN Communication</text>
</a>
</g>
</g>
<!-- Node4 -->
<g id="Node000004" class="node">
<title>Node4</title>
<g id="a_Node000004"><a xlink:href="a00504.html" target="_top" xlink:title="This is where the framing/deframing and transmission happens for UART frames.">
<polygon fill="white" stroke="#666666" points="411.75,-96 299.75,-96 299.75,-76 411.75,-76 411.75,-96"/>
<text text-anchor="middle" x="355.75" y="-82.5" font-family="Helvetica,sans-Serif" font-size="10.00">UART Communication</text>
</a>
</g>
</g>
<!-- Node6 -->
<g id="Node000006" class="node">
<title>Node6</title>
<g id="a_Node000006"><a xlink:href="a00506.html" target="_top" xlink:title="This provides a mechanism to abstract away the underlying physical layer by using function pointers,...">
<polygon fill="white" stroke="#666666" points="403.5,-58 308,-58 308,-38 403.5,-38 403.5,-58"/>
<text text-anchor="middle" x="355.75" y="-44.5" font-family="Helvetica,sans-Serif" font-size="10.00">User Configuration</text>
</a>
</g>
</g>
<!-- Node7 -->
<g id="Node000007" class="node">
<title>Node7</title>
<g id="a_Node000007"><a xlink:href="a00507.html" target="_top" xlink:title="This is the main application file.">
<polygon fill="white" stroke="#666666" points="407.25,-20 304.25,-20 304.25,0 407.25,0 407.25,-20"/>
<text text-anchor="middle" x="355.75" y="-6.5" font-family="Helvetica,sans-Serif" font-size="10.00">PBV Data DAB App</text>
</a>
</g>
</g>
<!-- Node2 -->
<g id="Node000002" class="node">
<title>Node2</title>
<g id="a_Node000002"><a xlink:href="a00501.html" target="_top" xlink:title="The communication layer establish the data to be displayed and the communication connection between t...">
<polygon fill="white" stroke="#666666" points="110.5,-96 0,-96 0,-76 110.5,-76 110.5,-96"/>
<text text-anchor="middle" x="55.25" y="-82.5" font-family="Helvetica,sans-Serif" font-size="10.00">Communication Layer</text>
</a>
</g>
</g>
<!-- Node1 -->
<g id="Node000001" class="node">
<title>Node1</title>
<g id="a_Node000001"><a xlink:title="Driver for Power Board Visualizer.">
<polygon fill="#999999" stroke="#666666" points="263.75,-96 146.5,-96 146.5,-76 263.75,-76 263.75,-96"/>
<text text-anchor="middle" x="205.12" y="-82.5" font-family="Helvetica,sans-Serif" font-size="10.00">Power Board Visualizer</text>
</a>
</g>
</g>
<!-- Node2&#45;&gt;Node1 -->
<g id="edge1" class="edge">
<title>Node2&#45;&gt;Node1</title>
<path fill="none" stroke="black" d="M121.85,-86C129.98,-86 138.24,-86 146.23,-86"/>
<polygon fill="black" stroke="black" points="121.89,-82.5 111.89,-86 121.89,-89.5 121.89,-82.5"/>
</g>
<!-- Node1&#45;&gt;Node5 -->
<g id="edge4" class="edge">
<title>Node1&#45;&gt;Node5</title>
<path fill="none" stroke="black" d="M229.93,-102.46C248.39,-114.73 274.94,-131.33 299.75,-143 306.42,-146.14 313.76,-149.03 320.85,-151.57"/>
<polygon fill="black" stroke="black" points="232.06,-99 221.81,-96.31 228.15,-104.81 232.06,-99"/>
</g>
<!-- Node1&#45;&gt;Node3 -->
<g id="edge2" class="edge">
<title>Node1&#45;&gt;Node3</title>
<path fill="none" stroke="black" d="M257.68,-99.18C276.07,-103.88 296.51,-109.11 313.88,-113.55"/>
<polygon fill="black" stroke="black" points="258.69,-95.57 248.13,-96.48 256.95,-102.35 258.69,-95.57"/>
</g>
<!-- Node1&#45;&gt;Node4 -->
<g id="edge3" class="edge">
<title>Node1&#45;&gt;Node4</title>
<path fill="none" stroke="black" d="M274.87,-86C283.19,-86 291.61,-86 299.7,-86"/>
<polygon fill="black" stroke="black" points="275.01,-82.5 265.01,-86 275.01,-89.5 275.01,-82.5"/>
</g>
<!-- Node1&#45;&gt;Node6 -->
<g id="edge5" class="edge">
<title>Node1&#45;&gt;Node6</title>
<path fill="none" stroke="black" d="M257.68,-72.82C276.07,-68.12 296.51,-62.89 313.88,-58.45"/>
<polygon fill="black" stroke="black" points="256.95,-69.65 248.13,-75.52 258.69,-76.43 256.95,-69.65"/>
</g>
<!-- Node1&#45;&gt;Node7 -->
<g id="edge6" class="edge">
<title>Node1&#45;&gt;Node7</title>
<path fill="none" stroke="black" d="M229.93,-69.54C248.39,-57.27 274.94,-40.67 299.75,-29 306.42,-25.86 313.76,-22.97 320.85,-20.43"/>
<polygon fill="black" stroke="black" points="228.15,-67.19 221.81,-75.69 232.06,-73 228.15,-67.19"/>
</g>
</g>
</svg>
</svg>

<style type='text/css'>
<![CDATA[
[data-mouse-over-selected='false'] { opacity: 0.7; }
[data-mouse-over-selected='true']  { opacity: 1.0; }
]]>
</style>
<script type="application/ecmascript"><![CDATA[
document.addEventListener('DOMContentLoaded', (event) => {
  highlightEdges();
  highlightAdjacentNodes();
});
]]></script>
</svg>
