<?xml version="1.0" encoding="UTF-8" standalone="no"?>
<!DOCTYPE svg PUBLIC "-//W3C//DTD SVG 1.1//EN"
 "http://www.w3.org/Graphics/SVG/1.1/DTD/svg11.dtd">
<!-- Generated by graphviz version 8.1.0 (20230707.0739)
 -->
<!-- Title: PwrCtrl_PWM_Disable Pages: 1 -->
<svg width="746pt" height="223pt"
 viewBox="0.00 0.00 745.75 223.00" xmlns="http://www.w3.org/2000/svg" xmlns:xlink="http://www.w3.org/1999/xlink">
<g id="graph0" class="graph" transform="scale(1 1) rotate(0) translate(4 219)">
<title>PwrCtrl_PWM_Disable</title>
<!-- Node1 -->
<g id="Node000001" class="node">
<title>Node1</title>
<g id="a_Node000001"><a xlink:title="Disable the PWM output.">
<polygon fill="#999999" stroke="#666666" points="737.75,-108 622.75,-108 622.75,-88 737.75,-88 737.75,-108"/>
<text text-anchor="middle" x="680.25" y="-94.5" font-family="Helvetica,sans-Serif" font-size="10.00">PwrCtrl_PWM_Disable</text>
</a>
</g>
</g>
<!-- Node2 -->
<g id="Node000002" class="node">
<title>Node2</title>
<g id="a_Node000002"><a xlink:href="a00515.html#gaf27f2f24932cec222273df148f8765cb" target="_top" xlink:title="Handles the fault trip by turning off the power control switching.">
<polygon fill="white" stroke="#666666" points="554.88,-184 478.88,-184 478.88,-164 554.88,-164 554.88,-184"/>
<text text-anchor="middle" x="516.88" y="-170.5" font-family="Helvetica,sans-Serif" font-size="10.00">Fault_Handler</text>
</a>
</g>
</g>
<!-- Node1&#45;&gt;Node2 -->
<g id="edge1_Node000001_Node000002" class="edge">
<title>Node1&#45;&gt;Node2</title>
<g id="a_edge1_Node000001_Node000002"><a xlink:title=" ">
<path fill="none" stroke="#63b8ff" d="M656.53,-114.54C638.4,-127.1 611.93,-144.03 586.75,-155 576.86,-159.31 565.73,-162.88 555.36,-165.72"/>
<polygon fill="#63b8ff" stroke="#63b8ff" points="658.05,-117.04 664.21,-108.42 654.02,-111.32 658.05,-117.04"/>
</a>
</g>
</g>
<!-- Node7 -->
<g id="Node000007" class="node">
<title>Node7</title>
<g id="a_Node000007"><a xlink:href="a00509.html#ga8307344d190a5459682d315fc7bfe198" target="_top" xlink:title="Executes function for initialze state machine.">
<polygon fill="white" stroke="#666666" points="564.25,-146 469.5,-146 469.5,-126 564.25,-126 564.25,-146"/>
<text text-anchor="middle" x="516.88" y="-132.5" font-family="Helvetica,sans-Serif" font-size="10.00">PCS_INIT_handler</text>
</a>
</g>
</g>
<!-- Node1&#45;&gt;Node7 -->
<g id="edge6_Node000001_Node000007" class="edge">
<title>Node1&#45;&gt;Node7</title>
<g id="a_edge6_Node000001_Node000007"><a xlink:title=" ">
<path fill="none" stroke="#63b8ff" d="M624.11,-110.98C603.93,-115.74 581.37,-121.05 562.25,-125.55"/>
<polygon fill="#63b8ff" stroke="#63b8ff" points="624.79,-114.18 633.73,-108.48 623.19,-107.37 624.79,-114.18"/>
</a>
</g>
</g>
<!-- Node11 -->
<g id="Node000011" class="node">
<title>Node11</title>
<g id="a_Node000011"><a xlink:href="a00509.html#gabda6b853bb6547821acd0ec87e0a4842" target="_top" xlink:title="Executes the power control soft start state machine.">
<polygon fill="white" stroke="#666666" points="586.75,-108 447,-108 447,-88 586.75,-88 586.75,-108"/>
<text text-anchor="middle" x="516.88" y="-94.5" font-family="Helvetica,sans-Serif" font-size="10.00">PCS_SOFT_START_handler</text>
</a>
</g>
</g>
<!-- Node1&#45;&gt;Node11 -->
<g id="edge10_Node000001_Node000011" class="edge">
<title>Node1&#45;&gt;Node11</title>
<g id="a_edge10_Node000001_Node000011"><a xlink:title=" ">
<path fill="none" stroke="#63b8ff" d="M611.46,-98C603.37,-98 595.1,-98 586.99,-98"/>
<polygon fill="#63b8ff" stroke="#63b8ff" points="611.36,-101.5 621.36,-98 611.36,-94.5 611.36,-101.5"/>
</a>
</g>
</g>
<!-- Node12 -->
<g id="Node000012" class="node">
<title>Node12</title>
<g id="a_Node000012"><a xlink:href="a00509.html#ga8752fbb48416e60141e205f1cbda0f98" target="_top" xlink:title="Executes the Online state.">
<polygon fill="white" stroke="#666666" points="581.5,-70 452.25,-70 452.25,-38 581.5,-38 581.5,-70"/>
<text text-anchor="start" x="460.25" y="-56.5" font-family="Helvetica,sans-Serif" font-size="10.00">PCS_UP_AND_RUNNING</text>
<text text-anchor="middle" x="516.88" y="-44.5" font-family="Helvetica,sans-Serif" font-size="10.00">_handler</text>
</a>
</g>
</g>
<!-- Node1&#45;&gt;Node12 -->
<g id="edge12_Node000001_Node000012" class="edge">
<title>Node1&#45;&gt;Node12</title>
<g id="a_edge12_Node000001_Node000012"><a xlink:title=" ">
<path fill="none" stroke="#63b8ff" d="M630.53,-84.72C614.07,-80.23 595.49,-75.16 578.24,-70.46"/>
<polygon fill="#63b8ff" stroke="#63b8ff" points="629.44,-88.32 640.01,-87.57 631.28,-81.57 629.44,-88.32"/>
</a>
</g>
</g>
<!-- Node13 -->
<g id="Node000013" class="node">
<title>Node13</title>
<g id="a_Node000013"><a xlink:href="a00506.html#ga2c39b57545ef7b5c79bac36ab30da7d8" target="_top" xlink:title="Initialize the power control parameters.">
<polygon fill="white" stroke="#666666" points="560.88,-20 472.88,-20 472.88,0 560.88,0 560.88,-20"/>
<text text-anchor="middle" x="516.88" y="-6.5" font-family="Helvetica,sans-Serif" font-size="10.00">PwrCtrl_Initialize</text>
</a>
</g>
</g>
<!-- Node1&#45;&gt;Node13 -->
<g id="edge14_Node000001_Node000013" class="edge">
<title>Node1&#45;&gt;Node13</title>
<g id="a_edge14_Node000001_Node000013"><a xlink:title=" ">
<path fill="none" stroke="#63b8ff" d="M660.33,-80.53C642.56,-64.97 614.59,-42.62 586.75,-29 578.73,-25.07 569.77,-21.85 561.04,-19.25"/>
<polygon fill="#63b8ff" stroke="#63b8ff" points="657.41,-82.51 667.2,-86.56 662.07,-77.29 657.41,-82.51"/>
</a>
</g>
</g>
<!-- Node3 -->
<g id="Node000003" class="node">
<title>Node3</title>
<g id="a_Node000003"><a xlink:href="a00515.html#gacd1ca209275dae0bc2388ac954858d83" target="_top" xlink:title="Executes the fault handlers.">
<polygon fill="white" stroke="#666666" points="393.75,-207 314.75,-207 314.75,-187 393.75,-187 393.75,-207"/>
<text text-anchor="middle" x="354.25" y="-193.5" font-family="Helvetica,sans-Serif" font-size="10.00">Fault_Execute</text>
</a>
</g>
</g>
<!-- Node2&#45;&gt;Node3 -->
<g id="edge2_Node000002_Node000003" class="edge">
<title>Node2&#45;&gt;Node3</title>
<g id="a_edge2_Node000002_Node000003"><a xlink:title=" ">
<path fill="none" stroke="#63b8ff" d="M467.79,-180.89C444.2,-184.26 416.17,-188.28 393.98,-191.45"/>
<polygon fill="#63b8ff" stroke="#63b8ff" points="468.22,-184.22 477.62,-179.33 467.23,-177.29 468.22,-184.22"/>
</a>
</g>
</g>
<!-- Node5 -->
<g id="Node000005" class="node">
<title>Node5</title>
<g id="a_Node000005"><a xlink:href="a00515.html#ga35608d94d8d76de809bb7588a325abc9" target="_top" xlink:title="Fault evaluation for Temperature and other slow fault detection executed every 100ms.">
<polygon fill="white" stroke="#666666" points="411,-168 297.5,-168 297.5,-148 411,-148 411,-168"/>
<text text-anchor="middle" x="354.25" y="-154.5" font-family="Helvetica,sans-Serif" font-size="10.00">Fault_Execute_100ms</text>
</a>
</g>
</g>
<!-- Node2&#45;&gt;Node5 -->
<g id="edge4_Node000002_Node000005" class="edge">
<title>Node2&#45;&gt;Node5</title>
<g id="a_edge4_Node000002_Node000005"><a xlink:title=" ">
<path fill="none" stroke="#63b8ff" d="M467.89,-169.22C450.06,-167.44 429.68,-165.41 411.2,-163.57"/>
<polygon fill="#63b8ff" stroke="#63b8ff" points="467.32,-172.78 477.62,-170.29 468.02,-165.82 467.32,-172.78"/>
</a>
</g>
</g>
<!-- Node4 -->
<g id="Node000004" class="node">
<title>Node4</title>
<g id="a_Node000004"><a xlink:href="a00507.html#gae32c9e5ed4d1fb98fc13b26601782c10" target="_top" xlink:title="Executes the power converter control loop.">
<polygon fill="white" stroke="#666666" points="261.5,-215 153.25,-215 153.25,-183 261.5,-183 261.5,-215"/>
<text text-anchor="start" x="161.25" y="-201.5" font-family="Helvetica,sans-Serif" font-size="10.00">ControlLoop_Interrupt</text>
<text text-anchor="middle" x="207.38" y="-189.5" font-family="Helvetica,sans-Serif" font-size="10.00">_CallBack</text>
</a>
</g>
</g>
<!-- Node3&#45;&gt;Node4 -->
<g id="edge3_Node000003_Node000004" class="edge">
<title>Node3&#45;&gt;Node4</title>
<g id="a_edge3_Node000003_Node000004"><a xlink:title=" ">
<path fill="none" stroke="#63b8ff" d="M303.44,-197.69C289.99,-197.87 275.38,-198.07 261.74,-198.26"/>
<polygon fill="#63b8ff" stroke="#63b8ff" points="303.48,-201.17 313.43,-197.54 303.38,-194.17 303.48,-201.17"/>
</a>
</g>
</g>
<!-- Node6 -->
<g id="Node000006" class="node">
<title>Node6</title>
<g id="a_Node000006"><a xlink:href="a00517.html#ga6d5c487ee3f418e6d0432867d11adaed" target="_top" xlink:title="Tasks_100ms gets called every 100 ms, put your things in it that need to be called regularly.">
<polygon fill="white" stroke="#666666" points="245.75,-165 169,-165 169,-145 245.75,-145 245.75,-165"/>
<text text-anchor="middle" x="207.38" y="-151.5" font-family="Helvetica,sans-Serif" font-size="10.00">Tasks_100ms</text>
</a>
</g>
</g>
<!-- Node5&#45;&gt;Node6 -->
<g id="edge5_Node000005_Node000006" class="edge">
<title>Node5&#45;&gt;Node6</title>
<g id="a_edge5_Node000005_Node000006"><a xlink:title=" ">
<path fill="none" stroke="#63b8ff" d="M286.63,-156.62C272.64,-156.33 258.36,-156.04 245.89,-155.78"/>
<polygon fill="#63b8ff" stroke="#63b8ff" points="286.17,-160.13 296.24,-156.84 286.31,-153.13 286.17,-160.13"/>
</a>
</g>
</g>
<!-- Node8 -->
<g id="Node000008" class="node">
<title>Node8</title>
<g id="a_Node000008"><a xlink:href="a00509.html#ga2408c0b52cd2c2487f43716f261434e6" target="_top" xlink:title="Manages the power control state machine.">
<polygon fill="white" stroke="#666666" points="410.62,-108 297.88,-108 297.88,-88 410.62,-88 410.62,-108"/>
<text text-anchor="middle" x="354.25" y="-94.5" font-family="Helvetica,sans-Serif" font-size="10.00">PwrCtrl_StateMachine</text>
</a>
</g>
</g>
<!-- Node7&#45;&gt;Node8 -->
<g id="edge7_Node000007_Node000008" class="edge">
<title>Node7&#45;&gt;Node8</title>
<g id="a_edge7_Node000007_Node000008"><a xlink:title=" ">
<path fill="none" stroke="#63b8ff" d="M460.99,-123.02C440.91,-118.26 418.45,-112.95 399.42,-108.45"/>
<polygon fill="#63b8ff" stroke="#63b8ff" points="460.02,-126.62 470.56,-125.52 461.63,-119.81 460.02,-126.62"/>
</a>
</g>
</g>
<!-- Node9 -->
<g id="Node000009" class="node">
<title>Node9</title>
<g id="a_Node000009"><a xlink:href="a00506.html#ga48dcb018afa53b60b6112cde00561c4b" target="_top" xlink:title="Executes the power control state machine.">
<polygon fill="white" stroke="#666666" points="251.75,-108 163,-108 163,-88 251.75,-88 251.75,-108"/>
<text text-anchor="middle" x="207.38" y="-94.5" font-family="Helvetica,sans-Serif" font-size="10.00">PwrCtrl_Execute</text>
</a>
</g>
</g>
<!-- Node8&#45;&gt;Node9 -->
<g id="edge8_Node000008_Node000009" class="edge">
<title>Node8&#45;&gt;Node9</title>
<g id="a_edge8_Node000008_Node000009"><a xlink:title=" ">
<path fill="none" stroke="#63b8ff" d="M286.86,-98C275,-98 262.92,-98 251.9,-98"/>
<polygon fill="#63b8ff" stroke="#63b8ff" points="286.65,-101.5 296.65,-98 286.65,-94.5 286.65,-101.5"/>
</a>
</g>
</g>
<!-- Node10 -->
<g id="Node000010" class="node">
<title>Node10</title>
<g id="a_Node000010"><a xlink:href="a00517.html#gad258f19a1b6a855fef3c71f54bb5539e" target="_top" xlink:title="Tasks_Realtime_100us gets called directly from the timer interrupt every 100 µs.">
<polygon fill="white" stroke="#666666" points="117.25,-108 0,-108 0,-88 117.25,-88 117.25,-108"/>
<text text-anchor="middle" x="58.62" y="-94.5" font-family="Helvetica,sans-Serif" font-size="10.00">Tasks_Realtime_100us</text>
</a>
</g>
</g>
<!-- Node9&#45;&gt;Node10 -->
<g id="edge9_Node000009_Node000010" class="edge">
<title>Node9&#45;&gt;Node10</title>
<g id="a_edge9_Node000009_Node000010"><a xlink:title=" ">
<path fill="none" stroke="#63b8ff" d="M151.8,-98C140.61,-98 128.8,-98 117.5,-98"/>
<polygon fill="#63b8ff" stroke="#63b8ff" points="151.74,-101.5 161.74,-98 151.74,-94.5 151.74,-101.5"/>
</a>
</g>
</g>
<!-- Node11&#45;&gt;Node8 -->
<g id="edge11_Node000011_Node000008" class="edge">
<title>Node11&#45;&gt;Node8</title>
<g id="a_edge11_Node000011_Node000008"><a xlink:title=" ">
<path fill="none" stroke="#63b8ff" d="M436.01,-98C427.44,-98 418.87,-98 410.68,-98"/>
<polygon fill="#63b8ff" stroke="#63b8ff" points="435.82,-101.5 445.82,-98 435.82,-94.5 435.82,-101.5"/>
</a>
</g>
</g>
<!-- Node12&#45;&gt;Node8 -->
<g id="edge13_Node000012_Node000008" class="edge">
<title>Node12&#45;&gt;Node8</title>
<g id="a_edge13_Node000012_Node000008"><a xlink:title=" ">
<path fill="none" stroke="#63b8ff" d="M445.57,-73.26C427.56,-78.19 408.87,-83.31 393.2,-87.6"/>
<polygon fill="#63b8ff" stroke="#63b8ff" points="446.34,-76.4 455.06,-70.38 444.49,-69.65 446.34,-76.4"/>
</a>
</g>
</g>
</g>
</svg>
