<?xml version="1.0" encoding="UTF-8" standalone="no"?>
<!DOCTYPE svg PUBLIC "-//W3C//DTD SVG 1.1//EN"
 "http://www.w3.org/Graphics/SVG/1.1/DTD/svg11.dtd">
<!-- Generated by graphviz version 8.1.0 (20230707.0739)
 -->
<!-- Title: Dev_CurrentSensorOffsetCal Pages: 1 -->
<svg width="321pt" height="66pt"
 viewBox="0.00 0.00 320.50 66.00" xmlns="http://www.w3.org/2000/svg" xmlns:xlink="http://www.w3.org/1999/xlink">
<g id="graph0" class="graph" transform="scale(1 1) rotate(0) translate(4 62)">
<title>Dev_CurrentSensorOffsetCal</title>
<!-- Node1 -->
<g id="Node000001" class="node">
<title>Node1</title>
<g id="a_Node000001"><a xlink:title="Measures the currents sensor offset.">
<polygon fill="#999999" stroke="#666666" points="139,-39 0,-39 0,-19 139,-19 139,-39"/>
<text text-anchor="middle" x="69.5" y="-25.5" font-family="Helvetica,sans-Serif" font-size="10.00">Dev_CurrentSensorOffsetCal</text>
</a>
</g>
</g>
<!-- Node2 -->
<g id="Node000002" class="node">
<title>Node2</title>
<g id="a_Node000002"><a xlink:href="a00510.html#gaf4b6f81a05012533b633a78dad7b6a98" target="_top" xlink:title="Returns the conversion value for the channel selected.">
<polygon fill="white" stroke="#666666" points="312.5,-58 175,-58 175,-38 312.5,-38 312.5,-58"/>
<text text-anchor="middle" x="243.75" y="-44.5" font-family="Helvetica,sans-Serif" font-size="10.00">ADC1_ConversionResultGet</text>
</a>
</g>
</g>
<!-- Node1&#45;&gt;Node2 -->
<g id="edge1_Node000001_Node000002" class="edge">
<title>Node1&#45;&gt;Node2</title>
<g id="a_edge1_Node000001_Node000002"><a xlink:title=" ">
<path fill="none" stroke="#63b8ff" d="M139.07,-36.56C147.23,-37.46 155.6,-38.39 163.88,-39.3"/>
<polygon fill="#63b8ff" stroke="#63b8ff" points="163.37,-42.88 173.69,-40.49 164.14,-35.92 163.37,-42.88"/>
</a>
</g>
</g>
<!-- Node3 -->
<g id="Node000003" class="node">
<title>Node3</title>
<g id="a_Node000003"><a xlink:href="a00500.html#ga03e8d61bbc0f4b686c400440f80dcf69" target="_top" xlink:title="Measure the sensor offset.">
<polygon fill="white" stroke="#666666" points="297.5,-20 190,-20 190,0 297.5,0 297.5,-20"/>
<text text-anchor="middle" x="243.75" y="-6.5" font-family="Helvetica,sans-Serif" font-size="10.00">Dev_SensorOffsetCal</text>
</a>
</g>
</g>
<!-- Node1&#45;&gt;Node3 -->
<g id="edge2_Node000001_Node000003" class="edge">
<title>Node1&#45;&gt;Node3</title>
<g id="a_edge2_Node000001_Node000003"><a xlink:title=" ">
<path fill="none" stroke="#63b8ff" d="M139.07,-21.44C152.19,-19.99 165.88,-18.48 178.85,-17.05"/>
<polygon fill="#63b8ff" stroke="#63b8ff" points="178.98,-20.44 188.54,-15.87 178.22,-13.49 178.98,-20.44"/>
</a>
</g>
</g>
</g>
</svg>
