<?xml version="1.0" encoding="UTF-8" standalone="no"?>
<!DOCTYPE svg PUBLIC "-//W3C//DTD SVG 1.1//EN"
 "http://www.w3.org/Graphics/SVG/1.1/DTD/svg11.dtd">
<!-- Generated by graphviz version 8.1.0 (20230707.0739)
 -->
<!-- Title: Tasks_10ms Pages: 1 -->
<svg width="756pt" height="332pt"
 viewBox="0.00 0.00 756.25 332.00" xmlns="http://www.w3.org/2000/svg" xmlns:xlink="http://www.w3.org/1999/xlink">
<g id="graph0" class="graph" transform="scale(1 1) rotate(0) translate(4 328)">
<title>Tasks_10ms</title>
<!-- Node1 -->
<g id="Node000001" class="node">
<title>Node1</title>
<g id="a_Node000001"><a xlink:title="Tasks_10ms gets called every 10ms, put your things in it that need to be called regularly.">
<polygon fill="#999999" stroke="#666666" points="71.5,-147 0,-147 0,-127 71.5,-127 71.5,-147"/>
<text text-anchor="middle" x="35.75" y="-133.5" font-family="Helvetica,sans-Serif" font-size="10.00">Tasks_10ms</text>
</a>
</g>
</g>
<!-- Node2 -->
<g id="Node000002" class="node">
<title>Node2</title>
<g id="a_Node000002"><a xlink:href="a00495.html#ga4de477d51ea04cdcfcb1e3eb3ef0053a" target="_top" xlink:title="10ms PBV task to be execution">
<polygon fill="white" stroke="#666666" points="247.25,-185 107.5,-185 107.5,-165 247.25,-165 247.25,-185"/>
<text text-anchor="middle" x="177.38" y="-171.5" font-family="Helvetica,sans-Serif" font-size="10.00">App_PBV_DAB_Task_10ms</text>
</a>
</g>
</g>
<!-- Node1&#45;&gt;Node2 -->
<g id="edge1_Node000001_Node000002" class="edge">
<title>Node1&#45;&gt;Node2</title>
<g id="a_edge1_Node000001_Node000002"><a xlink:title=" ">
<path fill="none" stroke="#63b8ff" d="M71.98,-146.59C88.87,-151.18 109.36,-156.76 127.7,-161.75"/>
<polygon fill="#63b8ff" stroke="#63b8ff" points="126.64,-165.36 137.21,-164.61 128.48,-158.61 126.64,-165.36"/>
</a>
</g>
</g>
<!-- Node18 -->
<g id="Node000018" class="node">
<title>Node18</title>
<g id="a_Node000018"><a xlink:href="a00493.html#ga29c25924bdc76c615288681bf1b17893" target="_top" xlink:title="task to be executed every 10ms">
<polygon fill="white" stroke="#666666" points="234.5,-128 120.25,-128 120.25,-108 234.5,-108 234.5,-128"/>
<text text-anchor="middle" x="177.38" y="-114.5" font-family="Helvetica,sans-Serif" font-size="10.00">App_PBV_Task_10ms</text>
</a>
</g>
</g>
<!-- Node1&#45;&gt;Node18 -->
<g id="edge17_Node000001_Node000018" class="edge">
<title>Node1&#45;&gt;Node18</title>
<g id="a_edge17_Node000001_Node000018"><a xlink:title=" ">
<path fill="none" stroke="#63b8ff" d="M71.98,-132.21C83.34,-130.66 96.34,-128.89 109.21,-127.14"/>
<polygon fill="#63b8ff" stroke="#63b8ff" points="109.52,-130.49 118.96,-125.68 108.58,-123.56 109.52,-130.49"/>
</a>
</g>
</g>
<!-- Node3 -->
<g id="Node000003" class="node">
<title>Node3</title>
<g id="a_Node000003"><a xlink:href="a00493.html#ga7b078af24577006b714fabf52a93c4f1" target="_top" xlink:title=" ">
<polygon fill="white" stroke="#666666" points="398.62,-273 293.38,-273 293.38,-241 398.62,-241 398.62,-273"/>
<text text-anchor="start" x="301.38" y="-259.5" font-family="Helvetica,sans-Serif" font-size="10.00">App_Read_Received</text>
<text text-anchor="middle" x="346" y="-247.5" font-family="Helvetica,sans-Serif" font-size="10.00">_From_PBV</text>
</a>
</g>
</g>
<!-- Node2&#45;&gt;Node3 -->
<g id="edge2_Node000002_Node000003" class="edge">
<title>Node2&#45;&gt;Node3</title>
<g id="a_edge2_Node000002_Node000003"><a xlink:title=" ">
<path fill="none" stroke="#63b8ff" d="M195.87,-185.3C216.44,-197.23 251.77,-217.13 283.25,-232 286.24,-233.41 289.33,-234.82 292.46,-236.21"/>
<polygon fill="#63b8ff" stroke="#63b8ff" points="290.97,-239.81 301.54,-240.55 293.74,-233.38 290.97,-239.81"/>
</a>
</g>
</g>
<!-- Node4 -->
<g id="Node000004" class="node">
<title>Node4</title>
<g id="a_Node000004"><a xlink:href="a00493.html#gaf88c754c75b6057cf183685d282a2fe6" target="_top" xlink:title=" ">
<polygon fill="white" stroke="#666666" points="408.75,-223 283.25,-223 283.25,-203 408.75,-203 408.75,-223"/>
<text text-anchor="middle" x="346" y="-209.5" font-family="Helvetica,sans-Serif" font-size="10.00">App_Receive_From_PBV</text>
</a>
</g>
</g>
<!-- Node2&#45;&gt;Node4 -->
<g id="edge3_Node000002_Node000004" class="edge">
<title>Node2&#45;&gt;Node4</title>
<g id="a_edge3_Node000002_Node000004"><a xlink:title=" ">
<path fill="none" stroke="#63b8ff" d="M224.35,-185.48C244.2,-190.01 267.62,-195.35 288.51,-200.12"/>
<polygon fill="#63b8ff" stroke="#63b8ff" points="287.65,-203.74 298.18,-202.55 289.21,-196.91 287.65,-203.74"/>
</a>
</g>
</g>
<!-- Node5 -->
<g id="Node000005" class="node">
<title>Node5</title>
<g id="a_Node000005"><a xlink:href="a00493.html#ga39ed8d2ee366abaf4aa95a424f9108e3" target="_top" xlink:title=" ">
<polygon fill="white" stroke="#666666" points="397.12,-185 294.88,-185 294.88,-165 397.12,-165 397.12,-185"/>
<text text-anchor="middle" x="346" y="-171.5" font-family="Helvetica,sans-Serif" font-size="10.00">App_Send_To_PBV</text>
</a>
</g>
</g>
<!-- Node2&#45;&gt;Node5 -->
<g id="edge4_Node000002_Node000005" class="edge">
<title>Node2&#45;&gt;Node5</title>
<g id="a_edge4_Node000002_Node000005"><a xlink:title=" ">
<path fill="none" stroke="#63b8ff" d="M247.59,-175C259.52,-175 271.84,-175 283.54,-175"/>
<polygon fill="#63b8ff" stroke="#63b8ff" points="283.54,-178.5 293.54,-175 283.54,-171.5 283.54,-178.5"/>
</a>
</g>
</g>
<!-- Node6 -->
<g id="Node000006" class="node">
<title>Node6</title>
<g id="a_Node000006"><a xlink:href="a00495.html#gae7f76d2864d9f99538052487fb4c9570" target="_top" xlink:title="default callback">
<polygon fill="white" stroke="#666666" points="375.75,-147 316.25,-147 316.25,-127 375.75,-127 375.75,-147"/>
<text text-anchor="middle" x="346" y="-133.5" font-family="Helvetica,sans-Serif" font-size="10.00">protocolID</text>
</a>
</g>
</g>
<!-- Node2&#45;&gt;Node6 -->
<g id="edge5_Node000002_Node000006" class="edge">
<title>Node2&#45;&gt;Node6</title>
<g id="a_edge5_Node000002_Node000006"><a xlink:title=" ">
<path fill="none" stroke="#63b8ff" d="M224.35,-164.52C249.74,-158.72 280.97,-151.6 305.3,-146.05"/>
<polygon fill="#63b8ff" stroke="#63b8ff" points="305.97,-149.26 314.94,-143.63 304.41,-142.44 305.97,-149.26"/>
</a>
</g>
</g>
<!-- Node7 -->
<g id="Node000007" class="node">
<title>Node7</title>
<g id="a_Node000007"><a xlink:href="a00495.html#gaf2b5ec7aa4bf88b00eaa69cfeba83160" target="_top" xlink:title="process received data">
<polygon fill="white" stroke="#666666" points="570.62,-178 445.12,-178 445.12,-146 570.62,-146 570.62,-178"/>
<text text-anchor="start" x="453.12" y="-164.5" font-family="Helvetica,sans-Serif" font-size="10.00">App_PBV_DAB_Process</text>
<text text-anchor="middle" x="507.88" y="-152.5" font-family="Helvetica,sans-Serif" font-size="10.00">_Rx_Data</text>
</a>
</g>
</g>
<!-- Node6&#45;&gt;Node7 -->
<g id="edge6_Node000006_Node000007" class="edge">
<title>Node6&#45;&gt;Node7</title>
<g id="a_edge6_Node000006_Node000007"><a xlink:title=" ">
<path fill="none" stroke="#63b8ff" d="M375.95,-141.53C392.27,-144.08 413.46,-147.39 434.02,-150.61"/>
<polygon fill="#63b8ff" stroke="#63b8ff" points="433.26,-154.19 443.68,-152.28 434.35,-147.27 433.26,-154.19"/>
</a>
</g>
</g>
<!-- Node17 -->
<g id="Node000017" class="node">
<title>Node17</title>
<g id="a_Node000017"><a xlink:href="a00493.html#gaf92cac9156ceacf492c28455ba3c75f5" target="_top" xlink:title=" ">
<polygon fill="white" stroke="#666666" points="571,-128 444.75,-128 444.75,-96 571,-96 571,-128"/>
<text text-anchor="start" x="452.75" y="-114.5" font-family="Helvetica,sans-Serif" font-size="10.00">PBV_Change_from_Eight</text>
<text text-anchor="middle" x="507.88" y="-102.5" font-family="Helvetica,sans-Serif" font-size="10.00">_to_Sixteen</text>
</a>
</g>
</g>
<!-- Node6&#45;&gt;Node17 -->
<g id="edge16_Node000006_Node000017" class="edge">
<title>Node6&#45;&gt;Node17</title>
<g id="a_edge16_Node000006_Node000017"><a xlink:title=" ">
<path fill="none" stroke="#63b8ff" d="M375.95,-132.47C392.2,-129.93 413.26,-126.64 433.73,-123.44"/>
<polygon fill="#63b8ff" stroke="#63b8ff" points="434.01,-126.78 443.35,-121.78 432.93,-119.86 434.01,-126.78"/>
</a>
</g>
</g>
<!-- Node8 -->
<g id="Node000008" class="node">
<title>Node8</title>
<g id="a_Node000008"><a xlink:href="a00499.html#ga5cfd61659ae6b17ad25e51bfc211723b" target="_top" xlink:title="Sets the fan speed.">
<polygon fill="white" stroke="#666666" points="731,-324 624.25,-324 624.25,-304 731,-304 731,-324"/>
<text text-anchor="middle" x="677.62" y="-310.5" font-family="Helvetica,sans-Serif" font-size="10.00">Dev_Fan_Set_Speed</text>
</a>
</g>
</g>
<!-- Node7&#45;&gt;Node8 -->
<g id="edge7_Node000007_Node000008" class="edge">
<title>Node7&#45;&gt;Node8</title>
<g id="a_edge7_Node000007_Node000008"><a xlink:title=" ">
<path fill="none" stroke="#63b8ff" d="M516.33,-178.26C530.1,-206.46 562.26,-264.34 607,-295 609.26,-296.55 611.64,-297.97 614.11,-299.28"/>
<polygon fill="#63b8ff" stroke="#63b8ff" points="612.42,-302.81 622.97,-303.77 615.32,-296.44 612.42,-302.81"/>
</a>
</g>
</g>
<!-- Node9 -->
<g id="Node000009" class="node">
<title>Node9</title>
<g id="a_Node000009"><a xlink:href="a00511.html#gad6514b638a32baed68543a56bedd5c5d" target="_top" xlink:title="API function to get the PWM duty cycle.">
<polygon fill="white" stroke="#666666" points="747.5,-286 607.75,-286 607.75,-266 747.5,-266 747.5,-286"/>
<text text-anchor="middle" x="677.62" y="-272.5" font-family="Helvetica,sans-Serif" font-size="10.00">Dev_PwrCtrl_Get_DutyCycle</text>
</a>
</g>
</g>
<!-- Node7&#45;&gt;Node9 -->
<g id="edge8_Node000007_Node000009" class="edge">
<title>Node7&#45;&gt;Node9</title>
<g id="a_edge8_Node000007_Node000009"><a xlink:title=" ">
<path fill="none" stroke="#63b8ff" d="M521.3,-178.34C538.33,-199.61 570.94,-236.46 607,-257 609.99,-258.71 613.15,-260.26 616.39,-261.69"/>
<polygon fill="#63b8ff" stroke="#63b8ff" points="614.75,-265.19 625.33,-265.56 617.29,-258.67 614.75,-265.19"/>
</a>
</g>
</g>
<!-- Node10 -->
<g id="Node000010" class="node">
<title>Node10</title>
<g id="a_Node000010"><a xlink:href="a00511.html#ga071b955cb9687b27b8ce895a29febc66" target="_top" xlink:title="API function to set the power control enable bit.">
<polygon fill="white" stroke="#666666" points="726.5,-248 628.75,-248 628.75,-228 726.5,-228 726.5,-248"/>
<text text-anchor="middle" x="677.62" y="-234.5" font-family="Helvetica,sans-Serif" font-size="10.00">PwrCtrl_SetEnable</text>
</a>
</g>
</g>
<!-- Node7&#45;&gt;Node10 -->
<g id="edge9_Node000007_Node000010" class="edge">
<title>Node7&#45;&gt;Node10</title>
<g id="a_edge9_Node000007_Node000010"><a xlink:title=" ">
<path fill="none" stroke="#63b8ff" d="M532.96,-178.38C552.28,-190.92 580.47,-207.9 607,-219 611.6,-220.92 616.45,-222.71 621.36,-224.35"/>
<polygon fill="#63b8ff" stroke="#63b8ff" points="619.88,-227.87 630.47,-227.52 621.98,-221.19 619.88,-227.87"/>
</a>
</g>
</g>
<!-- Node11 -->
<g id="Node000011" class="node">
<title>Node11</title>
<g id="a_Node000011"><a xlink:href="a00511.html#ga70c7b962e7df84e7d49fd37a76826059" target="_top" xlink:title="API function to set the current controller reference.">
<polygon fill="white" stroke="#666666" points="734.38,-210 620.88,-210 620.88,-190 734.38,-190 734.38,-210"/>
<text text-anchor="middle" x="677.62" y="-196.5" font-family="Helvetica,sans-Serif" font-size="10.00">PwrCtrl_SetIReference</text>
</a>
</g>
</g>
<!-- Node7&#45;&gt;Node11 -->
<g id="edge10_Node000007_Node000011" class="edge">
<title>Node7&#45;&gt;Node11</title>
<g id="a_edge10_Node000007_Node000011"><a xlink:title=" ">
<path fill="none" stroke="#63b8ff" d="M570.86,-176.04C586.86,-179.67 604.01,-183.55 619.73,-187.11"/>
<polygon fill="#63b8ff" stroke="#63b8ff" points="618.84,-190.72 629.36,-189.52 620.38,-183.9 618.84,-190.72"/>
</a>
</g>
</g>
<!-- Node12 -->
<g id="Node000012" class="node">
<title>Node12</title>
<g id="a_Node000012"><a xlink:href="a00511.html#ga80737f595e2855e9361772d2c1a9852d" target="_top" xlink:title="API function to set the target prim to sec phase which will steer other modulation.">
<polygon fill="white" stroke="#666666" points="748.25,-172 607,-172 607,-152 748.25,-152 748.25,-172"/>
<text text-anchor="middle" x="677.62" y="-158.5" font-family="Helvetica,sans-Serif" font-size="10.00">PwrCtrl_SetP2SPhaseTarget</text>
</a>
</g>
</g>
<!-- Node7&#45;&gt;Node12 -->
<g id="edge11_Node000007_Node000012" class="edge">
<title>Node7&#45;&gt;Node12</title>
<g id="a_edge11_Node000007_Node000012"><a xlink:title=" ">
<path fill="none" stroke="#63b8ff" d="M570.86,-162C578.97,-162 587.38,-162 595.75,-162"/>
<polygon fill="#63b8ff" stroke="#63b8ff" points="595.69,-165.5 605.69,-162 595.69,-158.5 595.69,-165.5"/>
</a>
</g>
</g>
<!-- Node13 -->
<g id="Node000013" class="node">
<title>Node13</title>
<g id="a_Node000013"><a xlink:href="a00511.html#ga75fdd46231baccc4830fa08d2b39a3d2" target="_top" xlink:title="API function to set the target period.">
<polygon fill="white" stroke="#666666" points="738.88,-134 616.38,-134 616.38,-114 738.88,-114 738.88,-134"/>
<text text-anchor="middle" x="677.62" y="-120.5" font-family="Helvetica,sans-Serif" font-size="10.00">PwrCtrl_SetPeriodTarget</text>
</a>
</g>
</g>
<!-- Node7&#45;&gt;Node13 -->
<g id="edge12_Node000007_Node000013" class="edge">
<title>Node7&#45;&gt;Node13</title>
<g id="a_edge12_Node000007_Node000013"><a xlink:title=" ">
<path fill="none" stroke="#63b8ff" d="M570.86,-147.96C586.86,-144.33 604.01,-140.45 619.73,-136.89"/>
<polygon fill="#63b8ff" stroke="#63b8ff" points="620.38,-140.1 629.36,-134.48 618.84,-133.28 620.38,-140.1"/>
</a>
</g>
</g>
<!-- Node14 -->
<g id="Node000014" class="node">
<title>Node14</title>
<g id="a_Node000014"><a xlink:href="a00511.html#gae62d241af8152bb7989d448f30adc55e" target="_top" xlink:title="API function to set the target PWM phase.">
<polygon fill="white" stroke="#666666" points="738.88,-96 616.38,-96 616.38,-76 738.88,-76 738.88,-96"/>
<text text-anchor="middle" x="677.62" y="-82.5" font-family="Helvetica,sans-Serif" font-size="10.00">PwrCtrl_SetPhaseTarget</text>
</a>
</g>
</g>
<!-- Node7&#45;&gt;Node14 -->
<g id="edge13_Node000007_Node000014" class="edge">
<title>Node7&#45;&gt;Node14</title>
<g id="a_edge13_Node000007_Node000014"><a xlink:title=" ">
<path fill="none" stroke="#63b8ff" d="M554.89,-145.59C560.46,-142.99 565.96,-140.12 571,-137 589.2,-125.73 588.18,-115.2 607,-105 610.24,-103.25 613.65,-101.64 617.15,-100.18"/>
<polygon fill="#63b8ff" stroke="#63b8ff" points="618.06,-103.21 626.2,-96.43 615.61,-96.65 618.06,-103.21"/>
</a>
</g>
</g>
<!-- Node15 -->
<g id="Node000015" class="node">
<title>Node15</title>
<g id="a_Node000015"><a xlink:href="a00511.html#ga574faff7b911d52ae6d2cf53b68a8963" target="_top" xlink:title="API function to set the power controller reference.">
<polygon fill="white" stroke="#666666" points="741.5,-58 613.75,-58 613.75,-38 741.5,-38 741.5,-58"/>
<text text-anchor="middle" x="677.62" y="-44.5" font-family="Helvetica,sans-Serif" font-size="10.00">PwrCtrl_SetPwrReference</text>
</a>
</g>
</g>
<!-- Node7&#45;&gt;Node15 -->
<g id="edge14_Node000007_Node000015" class="edge">
<title>Node7&#45;&gt;Node15</title>
<g id="a_edge14_Node000007_Node000015"><a xlink:title=" ">
<path fill="none" stroke="#63b8ff" d="M559.28,-145.51C563.49,-143.04 567.48,-140.21 571,-137 596.85,-113.43 579.82,-89.03 607,-67 608.61,-65.7 610.29,-64.49 612.05,-63.36"/>
<polygon fill="#63b8ff" stroke="#63b8ff" points="613.14,-66.2 620.28,-58.37 609.81,-60.04 613.14,-66.2"/>
</a>
</g>
</g>
<!-- Node16 -->
<g id="Node000016" class="node">
<title>Node16</title>
<g id="a_Node000016"><a xlink:href="a00511.html#ga919933b7bef6f9fa8094848c413e7881" target="_top" xlink:title="API function to set the secondary voltage controller reference.">
<polygon fill="white" stroke="#666666" points="745.25,-20 610,-20 610,0 745.25,0 745.25,-20"/>
<text text-anchor="middle" x="677.62" y="-6.5" font-family="Helvetica,sans-Serif" font-size="10.00">PwrCtrl_SetVSecReference</text>
</a>
</g>
</g>
<!-- Node7&#45;&gt;Node16 -->
<g id="edge15_Node000007_Node000016" class="edge">
<title>Node7&#45;&gt;Node16</title>
<g id="a_edge15_Node000007_Node000016"><a xlink:title=" ">
<path fill="none" stroke="#63b8ff" d="M560.42,-145.68C564.29,-143.18 567.89,-140.3 571,-137 605.67,-100.15 570.25,-63.77 607,-29 608.02,-28.03 609.09,-27.11 610.2,-26.24"/>
<polygon fill="#63b8ff" stroke="#63b8ff" points="611.8,-28.73 618.34,-20.4 608.03,-22.83 611.8,-28.73"/>
</a>
</g>
</g>
<!-- Node19 -->
<g id="Node000019" class="node">
<title>Node19</title>
<g id="a_Node000019"><a xlink:href="a00493.html#ga779af4e1b7fd3111ccb7ade537d98efb" target="_top" xlink:title=" ">
<polygon fill="white" stroke="#666666" points="388.5,-109 303.5,-109 303.5,-89 388.5,-89 388.5,-109"/>
<text text-anchor="middle" x="346" y="-95.5" font-family="Helvetica,sans-Serif" font-size="10.00">App_PBV_Task</text>
</a>
</g>
</g>
<!-- Node18&#45;&gt;Node19 -->
<g id="edge18_Node000018_Node000019" class="edge">
<title>Node18&#45;&gt;Node19</title>
<g id="a_edge18_Node000018_Node000019"><a xlink:title=" ">
<path fill="none" stroke="#63b8ff" d="M234.79,-111.57C253.4,-109.44 274.03,-107.09 292.35,-105"/>
<polygon fill="#63b8ff" stroke="#63b8ff" points="292.6,-108.38 302.13,-103.77 291.8,-101.43 292.6,-108.38"/>
</a>
</g>
</g>
</g>
</svg>
