<?xml version="1.0" encoding="UTF-8" standalone="no"?>
<!DOCTYPE svg PUBLIC "-//W3C//DTD SVG 1.1//EN"
 "http://www.w3.org/Graphics/SVG/1.1/DTD/svg11.dtd">
<!-- Generated by graphviz version 8.1.0 (20230707.0739)
 -->
<!-- Title: ADC1_SoftwareTriggerEnable Pages: 1 -->
<svg width="490pt" height="53pt"
 viewBox="0.00 0.00 489.50 53.00" xmlns="http://www.w3.org/2000/svg" xmlns:xlink="http://www.w3.org/1999/xlink">
<g id="graph0" class="graph" transform="scale(1 1) rotate(0) translate(4 49)">
<title>ADC1_SoftwareTriggerEnable</title>
<!-- Node1 -->
<g id="Node000001" class="node">
<title>Node1</title>
<g id="a_Node000001"><a xlink:title="This inline function sets software common trigger.">
<polygon fill="#999999" stroke="#666666" points="481.5,-39 338,-39 338,-19 481.5,-19 481.5,-39"/>
<text text-anchor="middle" x="409.75" y="-25.5" font-family="Helvetica,sans-Serif" font-size="10.00">ADC1_SoftwareTriggerEnable</text>
</a>
</g>
</g>
<!-- Node2 -->
<g id="Node000002" class="node">
<title>Node2</title>
<g id="a_Node000002"><a xlink:href="a00540.html#gae32c9e5ed4d1fb98fc13b26601782c10" target="_top" xlink:title="Executes the power converter control loop.">
<polygon fill="white" stroke="#666666" points="108.25,-45 0,-45 0,-13 108.25,-13 108.25,-45"/>
<text text-anchor="start" x="8" y="-31.5" font-family="Helvetica,sans-Serif" font-size="10.00">ControlLoop_Interrupt</text>
<text text-anchor="middle" x="54.12" y="-19.5" font-family="Helvetica,sans-Serif" font-size="10.00">_CallBack</text>
</a>
</g>
</g>
<!-- Node1&#45;&gt;Node2 -->
<g id="edge1_Node000001_Node000002" class="edge">
<title>Node1&#45;&gt;Node2</title>
<g id="a_edge1_Node000001_Node000002"><a xlink:title=" ">
<path fill="none" stroke="#63b8ff" d="M326.65,-29C259.48,-29 166.44,-29 108.57,-29"/>
<polygon fill="#63b8ff" stroke="#63b8ff" points="326.61,-32.5 336.61,-29 326.61,-25.5 326.61,-32.5"/>
</a>
</g>
</g>
<!-- Node3 -->
<g id="Node000003" class="node">
<title>Node3</title>
<g id="a_Node000003"><a xlink:href="a00540.html#gaa34c5b66d8f20f01daef50d0e88cf20e" target="_top" xlink:title="This function updates the DAB data members with ADC raw values.">
<polygon fill="white" stroke="#666666" points="302,-20 144.25,-20 144.25,0 302,0 302,-20"/>
<text text-anchor="middle" x="223.12" y="-6.5" font-family="Helvetica,sans-Serif" font-size="10.00">PwrCtrl_UpdateADConverterData</text>
</a>
</g>
</g>
<!-- Node1&#45;&gt;Node3 -->
<g id="edge2_Node000001_Node000003" class="edge">
<title>Node1&#45;&gt;Node3</title>
<g id="a_edge2_Node000001_Node000003"><a xlink:title=" ">
<path fill="none" stroke="#63b8ff" d="M326.94,-20.58C318.74,-19.74 310.43,-18.88 302.26,-18.04"/>
<polygon fill="#63b8ff" stroke="#63b8ff" points="326.33,-24.14 336.63,-21.68 327.04,-17.18 326.33,-24.14"/>
</a>
</g>
</g>
<!-- Node3&#45;&gt;Node2 -->
<g id="edge3_Node000003_Node000002" class="edge">
<title>Node3&#45;&gt;Node2</title>
<g id="a_edge3_Node000003_Node000002"><a xlink:title=" ">
<path fill="none" stroke="#63b8ff" d="M133.25,-20.11C124.78,-21.08 116.38,-22.03 108.4,-22.94"/>
<polygon fill="#63b8ff" stroke="#63b8ff" points="133.46,-23.5 143,-18.89 132.67,-16.54 133.46,-23.5"/>
</a>
</g>
</g>
</g>
</svg>
