<?xml version="1.0" encoding="UTF-8" standalone="no"?>
<!DOCTYPE svg PUBLIC "-//W3C//DTD SVG 1.1//EN"
 "http://www.w3.org/Graphics/SVG/1.1/DTD/svg11.dtd">
<!-- Generated by graphviz version 8.1.0 (20230707.0739)
 -->
<!-- Title: CAN1_RX_FIFO_StatusGet Pages: 1 -->
<svg width="529pt" height="104pt"
 viewBox="0.00 0.00 528.50 104.00" xmlns="http://www.w3.org/2000/svg" xmlns:xlink="http://www.w3.org/1999/xlink">
<g id="graph0" class="graph" transform="scale(1 1) rotate(0) translate(4 100)">
<title>CAN1_RX_FIFO_StatusGet</title>
<!-- Node1 -->
<g id="Node000001" class="node">
<title>Node1</title>
<g id="a_Node000001"><a xlink:title="This returns the CAN1 receive FIFO status.">
<polygon fill="#999999" stroke="#666666" points="520.5,-58 385.25,-58 385.25,-38 520.5,-38 520.5,-58"/>
<text text-anchor="middle" x="452.88" y="-44.5" font-family="Helvetica,sans-Serif" font-size="10.00">CAN1_RX_FIFO_StatusGet</text>
</a>
</g>
</g>
<!-- Node2 -->
<g id="Node000002" class="node">
<title>Node2</title>
<g id="a_Node000002"><a xlink:href="a00507.html#ga4fe1df4cd9f0ce122687dcfab0713b5b" target="_top" xlink:title="Reads the received single message object.">
<polygon fill="white" stroke="#666666" points="306.12,-96 225.62,-96 225.62,-76 306.12,-76 306.12,-96"/>
<text text-anchor="middle" x="265.88" y="-82.5" font-family="Helvetica,sans-Serif" font-size="10.00">CAN1_Receive</text>
</a>
</g>
</g>
<!-- Node1&#45;&gt;Node2 -->
<g id="edge1_Node000001_Node000002" class="edge">
<title>Node1&#45;&gt;Node2</title>
<g id="a_edge1_Node000001_Node000002"><a xlink:title=" ">
<path fill="none" stroke="#63b8ff" d="M390.11,-60.69C362.57,-66.34 330.93,-72.84 306.61,-77.84"/>
<polygon fill="#63b8ff" stroke="#63b8ff" points="390.74,-63.92 399.83,-58.48 389.33,-57.07 390.74,-63.92"/>
</a>
</g>
</g>
<!-- Node4 -->
<g id="Node000004" class="node">
<title>Node4</title>
<g id="a_Node000004"><a xlink:href="a00507.html#gac27e97593d8d9bd7787d116910adc40d" target="_top" xlink:title="Returns the number of CAN messages received in all the FIFO.">
<polygon fill="white" stroke="#666666" points="349.25,-58 182.5,-58 182.5,-38 349.25,-38 349.25,-58"/>
<text text-anchor="middle" x="265.88" y="-44.5" font-family="Helvetica,sans-Serif" font-size="10.00">CAN1_ReceivedMessageCountGet</text>
</a>
</g>
</g>
<!-- Node1&#45;&gt;Node4 -->
<g id="edge3_Node000001_Node000004" class="edge">
<title>Node1&#45;&gt;Node4</title>
<g id="a_edge3_Node000001_Node000004"><a xlink:title=" ">
<path fill="none" stroke="#63b8ff" d="M373.92,-48C365.84,-48 357.61,-48 349.47,-48"/>
<polygon fill="#63b8ff" stroke="#63b8ff" points="373.82,-51.5 383.82,-48 373.82,-44.5 373.82,-51.5"/>
</a>
</g>
</g>
<!-- Node5 -->
<g id="Node000005" class="node">
<title>Node5</title>
<g id="a_Node000005"><a xlink:href="a00507.html#ga2c655a58965fff8578916b59bed47297" target="_top" xlink:title="Reads the received single message object from the CAN1 receive FIFO.">
<polygon fill="white" stroke="#666666" points="333.88,-20 197.88,-20 197.88,0 333.88,0 333.88,-20"/>
<text text-anchor="middle" x="265.88" y="-6.5" font-family="Helvetica,sans-Serif" font-size="10.00">CAN1_ReceiveMessageGet</text>
</a>
</g>
</g>
<!-- Node1&#45;&gt;Node5 -->
<g id="edge5_Node000001_Node000005" class="edge">
<title>Node1&#45;&gt;Node5</title>
<g id="a_edge5_Node000001_Node000005"><a xlink:title=" ">
<path fill="none" stroke="#63b8ff" d="M390.26,-35.34C366.72,-30.51 340.17,-25.06 317.75,-20.45"/>
<polygon fill="#63b8ff" stroke="#63b8ff" points="389.33,-38.93 399.83,-37.52 390.74,-32.08 389.33,-38.93"/>
</a>
</g>
</g>
<!-- Node3 -->
<g id="Node000003" class="node">
<title>Node3</title>
<g id="a_Node000003"><a xlink:href="a00481.html#ga5fb4f1d3c69d1871c10a2c0a0ad27f8a" target="_top" xlink:title=" ">
<polygon fill="white" stroke="#666666" points="146.5,-77 0,-77 0,-57 146.5,-57 146.5,-77"/>
<text text-anchor="middle" x="73.25" y="-63.5" font-family="Helvetica,sans-Serif" font-size="10.00">PBV_CAN_Receive_from_GUI</text>
</a>
</g>
</g>
<!-- Node2&#45;&gt;Node3 -->
<g id="edge2_Node000002_Node000003" class="edge">
<title>Node2&#45;&gt;Node3</title>
<g id="a_edge2_Node000002_Node000003"><a xlink:title=" ">
<path fill="none" stroke="#63b8ff" d="M214.59,-80.99C193.86,-78.92 169.44,-76.49 146.83,-74.23"/>
<polygon fill="#63b8ff" stroke="#63b8ff" points="214.08,-84.55 224.38,-82.06 214.77,-77.59 214.08,-84.55"/>
</a>
</g>
</g>
<!-- Node4&#45;&gt;Node3 -->
<g id="edge4_Node000004_Node000003" class="edge">
<title>Node4&#45;&gt;Node3</title>
<g id="a_edge4_Node000004_Node000003"><a xlink:title=" ">
<path fill="none" stroke="#63b8ff" d="M171.3,-57.33C163.06,-58.15 154.81,-58.97 146.78,-59.77"/>
<polygon fill="#63b8ff" stroke="#63b8ff" points="171.49,-60.73 181.1,-56.25 170.8,-53.76 171.49,-60.73"/>
</a>
</g>
</g>
</g>
</svg>
