<?xml version="1.0" encoding="UTF-8" standalone="no"?>
<!DOCTYPE svg PUBLIC "-//W3C//DTD SVG 1.1//EN"
 "http://www.w3.org/Graphics/SVG/1.1/DTD/svg11.dtd">
<!-- Generated by graphviz version 8.1.0 (20230707.0739)
 -->
<!-- Title: Fault_Handler Pages: 1 -->
<svg width="366pt" height="110pt"
 viewBox="0.00 0.00 365.75 110.00" xmlns="http://www.w3.org/2000/svg" xmlns:xlink="http://www.w3.org/1999/xlink">

<svg id="main" version="1.1" xmlns="http://www.w3.org/2000/svg" xmlns:xlink="http://www.w3.org/1999/xlink" xml:space="preserve" onload="init(evt)">
<style type="text/css"><![CDATA[
.node, .edge {opacity: 0.7;}
.node.selected, .edge.selected {opacity: 1;}
.edge:hover path { stroke: red; }
.edge:hover polygon { stroke: red; fill: red; }
]]></style>
<script type="application/ecmascript" xlink:href="svg.min.js"/>
<svg id="graph" class="graph">
<g id="graph0" class="graph" transform="scale(1 1) rotate(0) translate(4 106)">
<title>Fault_Handler</title>
<!-- Node1 -->
<g id="Node000001" class="node">
<title>Node1</title>
<g id="a_Node000001"><a xlink:title="Handles the fault trip by turning off the power control switching.">
<polygon fill="#999999" stroke="#666666" points="357.75,-58 281.75,-58 281.75,-38 357.75,-38 357.75,-58"/>
<text text-anchor="middle" x="319.75" y="-44.5" font-family="Helvetica,sans-Serif" font-size="10.00">Fault_Handler</text>
</a>
</g>
</g>
<!-- Node2 -->
<g id="Node000002" class="node">
<title>Node2</title>
<g id="a_Node000002"><a xlink:href="a00515.html#gacd1ca209275dae0bc2388ac954858d83" target="_top" xlink:title="Executes the fault handlers.">
<polygon fill="white" stroke="#666666" points="234.5,-96 155.5,-96 155.5,-76 234.5,-76 234.5,-96"/>
<text text-anchor="middle" x="195" y="-82.5" font-family="Helvetica,sans-Serif" font-size="10.00">Fault_Execute</text>
</a>
</g>
</g>
<!-- Node1&#45;&gt;Node2 -->
<g id="edge1_Node000001_Node000002" class="edge">
<title>Node1&#45;&gt;Node2</title>
<g id="a_edge1_Node000001_Node000002"><a xlink:title=" ">
<path fill="none" stroke="#63b8ff" d="M274.46,-61.71C259.73,-66.27 243.56,-71.28 229.76,-75.55"/>
<polygon fill="#63b8ff" stroke="#63b8ff" points="275.37,-64.79 283.88,-58.48 273.3,-58.1 275.37,-64.79"/>
</a>
</g>
</g>
<!-- Node4 -->
<g id="Node000004" class="node">
<title>Node4</title>
<g id="a_Node000004"><a xlink:href="a00515.html#gaaa5a7a6dc7ce982dec4f07edcd73e874" target="_top" xlink:title="Initialize the fault objects.">
<polygon fill="white" stroke="#666666" points="234.12,-58 155.88,-58 155.88,-38 234.12,-38 234.12,-58"/>
<text text-anchor="middle" x="195" y="-44.5" font-family="Helvetica,sans-Serif" font-size="10.00">Fault_Initialize</text>
</a>
</g>
</g>
<!-- Node1&#45;&gt;Node4 -->
<g id="edge3_Node000001_Node000004" class="edge">
<title>Node1&#45;&gt;Node4</title>
<g id="a_edge3_Node000001_Node000004"><a xlink:title=" ">
<path fill="none" stroke="#63b8ff" d="M270.54,-48C258.59,-48 245.95,-48 234.54,-48"/>
<polygon fill="#63b8ff" stroke="#63b8ff" points="270.25,-51.5 280.25,-48 270.25,-44.5 270.25,-51.5"/>
</a>
</g>
</g>
<!-- Node5 -->
<g id="Node000005" class="node">
<title>Node5</title>
<g id="a_Node000005"><a xlink:href="a00515.html#ga5ba282b74826532870235580973f788e" target="_top" xlink:title="Fault evaluation for Temperature.">
<polygon fill="white" stroke="#666666" points="245.75,-20 144.25,-20 144.25,0 245.75,0 245.75,-20"/>
<text text-anchor="middle" x="195" y="-6.5" font-family="Helvetica,sans-Serif" font-size="10.00">Fault_Temp_100ms</text>
</a>
</g>
</g>
<!-- Node1&#45;&gt;Node5 -->
<g id="edge4_Node000001_Node000005" class="edge">
<title>Node1&#45;&gt;Node5</title>
<g id="a_edge4_Node000001_Node000005"><a xlink:title=" ">
<path fill="none" stroke="#63b8ff" d="M274.46,-34.29C259.73,-29.73 243.56,-24.72 229.76,-20.45"/>
<polygon fill="#63b8ff" stroke="#63b8ff" points="273.3,-37.9 283.88,-37.52 275.37,-31.21 273.3,-37.9"/>
</a>
</g>
</g>
<!-- Node3 -->
<g id="Node000003" class="node">
<title>Node3</title>
<g id="a_Node000003"><a xlink:href="a00507.html#gae32c9e5ed4d1fb98fc13b26601782c10" target="_top" xlink:title="Executes the power converter control loop.">
<polygon fill="white" stroke="#666666" points="108.25,-102 0,-102 0,-70 108.25,-70 108.25,-102"/>
<text text-anchor="start" x="8" y="-88.5" font-family="Helvetica,sans-Serif" font-size="10.00">ControlLoop_Interrupt</text>
<text text-anchor="middle" x="54.12" y="-76.5" font-family="Helvetica,sans-Serif" font-size="10.00">_CallBack</text>
</a>
</g>
</g>
<!-- Node2&#45;&gt;Node3 -->
<g id="edge2_Node000002_Node000003" class="edge">
<title>Node2&#45;&gt;Node3</title>
<g id="a_edge2_Node000002_Node000003"><a xlink:title=" ">
<path fill="none" stroke="#63b8ff" d="M144.48,-86C132.86,-86 120.43,-86 108.65,-86"/>
<polygon fill="#63b8ff" stroke="#63b8ff" points="144.32,-89.5 154.32,-86 144.32,-82.5 144.32,-89.5"/>
</a>
</g>
</g>
<!-- Node6 -->
<g id="Node000006" class="node">
<title>Node6</title>
<g id="a_Node000006"><a xlink:href="a00517.html#ga6d5c487ee3f418e6d0432867d11adaed" target="_top" xlink:title="Tasks_100ms gets called every 100 ms, put your things in it that need to be called regularly.">
<polygon fill="white" stroke="#666666" points="92.5,-20 15.75,-20 15.75,0 92.5,0 92.5,-20"/>
<text text-anchor="middle" x="54.12" y="-6.5" font-family="Helvetica,sans-Serif" font-size="10.00">Tasks_100ms</text>
</a>
</g>
</g>
<!-- Node5&#45;&gt;Node6 -->
<g id="edge5_Node000005_Node000006" class="edge">
<title>Node5&#45;&gt;Node6</title>
<g id="a_edge5_Node000005_Node000006"><a xlink:title=" ">
<path fill="none" stroke="#63b8ff" d="M133.07,-10C119.43,-10 105.36,-10 92.98,-10"/>
<polygon fill="#63b8ff" stroke="#63b8ff" points="132.86,-13.5 142.86,-10 132.86,-6.5 132.86,-13.5"/>
</a>
</g>
</g>
</g>
</svg>
</svg>

<style type='text/css'>
<![CDATA[
[data-mouse-over-selected='false'] { opacity: 0.7; }
[data-mouse-over-selected='true']  { opacity: 1.0; }
]]>
</style>
<script type="application/ecmascript"><![CDATA[
document.addEventListener('DOMContentLoaded', (event) => {
  highlightEdges();
  highlightAdjacentNodes();
});
]]></script>
</svg>
