<?xml version="1.0" encoding="UTF-8" standalone="no"?>
<!DOCTYPE svg PUBLIC "-//W3C//DTD SVG 1.1//EN"
 "http://www.w3.org/Graphics/SVG/1.1/DTD/svg11.dtd">
<!-- Generated by graphviz version 8.1.0 (20230707.0739)
 -->
<!-- Title: PCS_INIT_handler Pages: 1 -->
<svg width="461pt" height="104pt"
 viewBox="0.00 0.00 461.00 104.00" xmlns="http://www.w3.org/2000/svg" xmlns:xlink="http://www.w3.org/1999/xlink">
<g id="graph0" class="graph" transform="scale(1 1) rotate(0) translate(4 100)">
<title>PCS_INIT_handler</title>
<!-- Node1 -->
<g id="Node000001" class="node">
<title>Node1</title>
<g id="a_Node000001"><a xlink:title="Executes function for initialze state machine.">
<polygon fill="#999999" stroke="#666666" points="94.75,-58 0,-58 0,-38 94.75,-38 94.75,-58"/>
<text text-anchor="middle" x="47.38" y="-44.5" font-family="Helvetica,sans-Serif" font-size="10.00">PCS_INIT_handler</text>
</a>
</g>
</g>
<!-- Node2 -->
<g id="Node000002" class="node">
<title>Node2</title>
<g id="a_Node000002"><a xlink:href="a00518.html#ga1da8b184470e7693ac0467bf255272c4" target="_top" xlink:title="Disable the PWM output.">
<polygon fill="white" stroke="#666666" points="266.75,-58 130.75,-58 130.75,-38 266.75,-38 266.75,-58"/>
<text text-anchor="middle" x="198.75" y="-44.5" font-family="Helvetica,sans-Serif" font-size="10.00">Dev_PwrCtrl_PWM_Disable</text>
</a>
</g>
</g>
<!-- Node1&#45;&gt;Node2 -->
<g id="edge1_Node000001_Node000002" class="edge">
<title>Node1&#45;&gt;Node2</title>
<g id="a_edge1_Node000001_Node000002"><a xlink:title=" ">
<path fill="none" stroke="#63b8ff" d="M95.23,-48C102.96,-48 111.16,-48 119.42,-48"/>
<polygon fill="#63b8ff" stroke="#63b8ff" points="119.27,-51.5 129.27,-48 119.27,-44.5 119.27,-51.5"/>
</a>
</g>
</g>
<!-- Node3 -->
<g id="Node000003" class="node">
<title>Node3</title>
<g id="a_Node000003"><a xlink:href="a00534.html#ga531b59d8823e3ebda2da60f48582bcf3" target="_top" xlink:title="This inline function enables PWM override on PWMH output for specific PWM generator selected by the a...">
<polygon fill="white" stroke="#666666" points="443.25,-96 312.5,-96 312.5,-76 443.25,-76 443.25,-96"/>
<text text-anchor="middle" x="377.88" y="-82.5" font-family="Helvetica,sans-Serif" font-size="10.00">PWM_OverrideHighEnable</text>
</a>
</g>
</g>
<!-- Node2&#45;&gt;Node3 -->
<g id="edge2_Node000002_Node000003" class="edge">
<title>Node2&#45;&gt;Node3</title>
<g id="a_edge2_Node000002_Node000003"><a xlink:title=" ">
<path fill="none" stroke="#63b8ff" d="M248.62,-58.48C269.91,-63.05 295.07,-68.45 317.44,-73.25"/>
<polygon fill="#63b8ff" stroke="#63b8ff" points="316.65,-76.87 327.17,-75.55 318.12,-70.03 316.65,-76.87"/>
</a>
</g>
</g>
<!-- Node4 -->
<g id="Node000004" class="node">
<title>Node4</title>
<g id="a_Node000004"><a xlink:href="a00534.html#ga2548ca8feda75ba6ab784280679da6ae" target="_top" xlink:title="This inline function enables PWM override on PWML output for specific PWM generator selected by the a...">
<polygon fill="white" stroke="#666666" points="442.12,-58 313.62,-58 313.62,-38 442.12,-38 442.12,-58"/>
<text text-anchor="middle" x="377.88" y="-44.5" font-family="Helvetica,sans-Serif" font-size="10.00">PWM_OverrideLowEnable</text>
</a>
</g>
</g>
<!-- Node2&#45;&gt;Node4 -->
<g id="edge3_Node000002_Node000004" class="edge">
<title>Node2&#45;&gt;Node4</title>
<g id="a_edge3_Node000002_Node000004"><a xlink:title=" ">
<path fill="none" stroke="#63b8ff" d="M267.22,-48C278.82,-48 290.94,-48 302.7,-48"/>
<polygon fill="#63b8ff" stroke="#63b8ff" points="302.39,-51.5 312.39,-48 302.39,-44.5 302.39,-51.5"/>
</a>
</g>
</g>
<!-- Node5 -->
<g id="Node000005" class="node">
<title>Node5</title>
<g id="a_Node000005"><a xlink:href="a00534.html#ga83e780358618114f0d424ca7467cf751" target="_top" xlink:title="This inline function requests to update the data registers for specific PWM generator selected by the...">
<polygon fill="white" stroke="#666666" points="453,-20 302.75,-20 302.75,0 453,0 453,-20"/>
<text text-anchor="middle" x="377.88" y="-6.5" font-family="Helvetica,sans-Serif" font-size="10.00">PWM_SoftwareUpdateRequest</text>
</a>
</g>
</g>
<!-- Node2&#45;&gt;Node5 -->
<g id="edge4_Node000002_Node000005" class="edge">
<title>Node2&#45;&gt;Node5</title>
<g id="a_edge4_Node000002_Node000005"><a xlink:title=" ">
<path fill="none" stroke="#63b8ff" d="M248.62,-37.52C269.91,-32.95 295.07,-27.55 317.44,-22.75"/>
<polygon fill="#63b8ff" stroke="#63b8ff" points="318.12,-25.97 327.17,-20.45 316.65,-19.13 318.12,-25.97"/>
</a>
</g>
</g>
</g>
</svg>
