<?xml version="1.0" encoding="UTF-8" standalone="no"?>
<!DOCTYPE svg PUBLIC "-//W3C//DTD SVG 1.1//EN"
 "http://www.w3.org/Graphics/SVG/1.1/DTD/svg11.dtd">
<!-- Generated by graphviz version 8.1.0 (20230707.0739)
 -->
<!-- Title: Tasks_10ms Pages: 1 -->
<svg width="1242pt" height="408pt"
 viewBox="0.00 0.00 1241.50 408.00" xmlns="http://www.w3.org/2000/svg" xmlns:xlink="http://www.w3.org/1999/xlink">
<g id="graph0" class="graph" transform="scale(1 1) rotate(0) translate(4 404)">
<title>Tasks_10ms</title>
<!-- Node1 -->
<g id="Node000001" class="node">
<title>Node1</title>
<g id="a_Node000001"><a xlink:title="Tasks_10ms gets called every 10ms, put your things in it that need to be called regularly.">
<polygon fill="#999999" stroke="#666666" points="71.5,-185 0,-185 0,-165 71.5,-165 71.5,-185"/>
<text text-anchor="middle" x="35.75" y="-171.5" font-family="Helvetica,sans-Serif" font-size="10.00">Tasks_10ms</text>
</a>
</g>
</g>
<!-- Node2 -->
<g id="Node000002" class="node">
<title>Node2</title>
<g id="a_Node000002"><a xlink:href="a00528.html#ga4de477d51ea04cdcfcb1e3eb3ef0053a" target="_top" xlink:title="10ms PBV task to be execution">
<polygon fill="white" stroke="#666666" points="247.25,-223 107.5,-223 107.5,-203 247.25,-203 247.25,-223"/>
<text text-anchor="middle" x="177.38" y="-209.5" font-family="Helvetica,sans-Serif" font-size="10.00">App_PBV_DAB_Task_10ms</text>
</a>
</g>
</g>
<!-- Node1&#45;&gt;Node2 -->
<g id="edge1_Node000001_Node000002" class="edge">
<title>Node1&#45;&gt;Node2</title>
<g id="a_edge1_Node000001_Node000002"><a xlink:title=" ">
<path fill="none" stroke="#63b8ff" d="M71.98,-184.59C88.87,-189.18 109.36,-194.76 127.7,-199.75"/>
<polygon fill="#63b8ff" stroke="#63b8ff" points="126.64,-203.36 137.21,-202.61 128.48,-196.61 126.64,-203.36"/>
</a>
</g>
</g>
<!-- Node24 -->
<g id="Node000024" class="node">
<title>Node24</title>
<g id="a_Node000024"><a xlink:href="a00526.html#ga29c25924bdc76c615288681bf1b17893" target="_top" xlink:title="task to be executed every 10ms">
<polygon fill="white" stroke="#666666" points="234.5,-166 120.25,-166 120.25,-146 234.5,-146 234.5,-166"/>
<text text-anchor="middle" x="177.38" y="-152.5" font-family="Helvetica,sans-Serif" font-size="10.00">App_PBV_Task_10ms</text>
</a>
</g>
</g>
<!-- Node1&#45;&gt;Node24 -->
<g id="edge24_Node000001_Node000024" class="edge">
<title>Node1&#45;&gt;Node24</title>
<g id="a_edge24_Node000001_Node000024"><a xlink:title=" ">
<path fill="none" stroke="#63b8ff" d="M71.98,-170.21C83.34,-168.66 96.34,-166.89 109.21,-165.14"/>
<polygon fill="#63b8ff" stroke="#63b8ff" points="109.52,-168.49 118.96,-163.68 108.58,-161.56 109.52,-168.49"/>
</a>
</g>
</g>
<!-- Node3 -->
<g id="Node000003" class="node">
<title>Node3</title>
<g id="a_Node000003"><a xlink:href="a00526.html#ga7b078af24577006b714fabf52a93c4f1" target="_top" xlink:title="This function links the data received by CAN or UART objects to the application object.">
<polygon fill="white" stroke="#666666" points="398.62,-311 293.38,-311 293.38,-279 398.62,-279 398.62,-311"/>
<text text-anchor="start" x="301.38" y="-297.5" font-family="Helvetica,sans-Serif" font-size="10.00">App_Read_Received</text>
<text text-anchor="middle" x="346" y="-285.5" font-family="Helvetica,sans-Serif" font-size="10.00">_From_PBV</text>
</a>
</g>
</g>
<!-- Node2&#45;&gt;Node3 -->
<g id="edge2_Node000002_Node000003" class="edge">
<title>Node2&#45;&gt;Node3</title>
<g id="a_edge2_Node000002_Node000003"><a xlink:title=" ">
<path fill="none" stroke="#63b8ff" d="M195.87,-223.3C216.44,-235.23 251.77,-255.13 283.25,-270 286.24,-271.41 289.33,-272.82 292.46,-274.21"/>
<polygon fill="#63b8ff" stroke="#63b8ff" points="290.97,-277.81 301.54,-278.55 293.74,-271.38 290.97,-277.81"/>
</a>
</g>
</g>
<!-- Node4 -->
<g id="Node000004" class="node">
<title>Node4</title>
<g id="a_Node000004"><a xlink:href="a00526.html#gaf88c754c75b6057cf183685d282a2fe6" target="_top" xlink:title="This function changes the state of the application object. this acts as a trigger for the periodic ta...">
<polygon fill="white" stroke="#666666" points="408.75,-261 283.25,-261 283.25,-241 408.75,-241 408.75,-261"/>
<text text-anchor="middle" x="346" y="-247.5" font-family="Helvetica,sans-Serif" font-size="10.00">App_Receive_From_PBV</text>
</a>
</g>
</g>
<!-- Node2&#45;&gt;Node4 -->
<g id="edge3_Node000002_Node000004" class="edge">
<title>Node2&#45;&gt;Node4</title>
<g id="a_edge3_Node000002_Node000004"><a xlink:title=" ">
<path fill="none" stroke="#63b8ff" d="M224.35,-223.48C244.2,-228.01 267.62,-233.35 288.51,-238.12"/>
<polygon fill="#63b8ff" stroke="#63b8ff" points="287.65,-241.74 298.18,-240.55 289.21,-234.91 287.65,-241.74"/>
</a>
</g>
</g>
<!-- Node5 -->
<g id="Node000005" class="node">
<title>Node5</title>
<g id="a_Node000005"><a xlink:href="a00526.html#ga39ed8d2ee366abaf4aa95a424f9108e3" target="_top" xlink:title="This function links the data from application object to the CAN or UART object and &#160;&#160;This function ch...">
<polygon fill="white" stroke="#666666" points="397.12,-223 294.88,-223 294.88,-203 397.12,-203 397.12,-223"/>
<text text-anchor="middle" x="346" y="-209.5" font-family="Helvetica,sans-Serif" font-size="10.00">App_Send_To_PBV</text>
</a>
</g>
</g>
<!-- Node2&#45;&gt;Node5 -->
<g id="edge4_Node000002_Node000005" class="edge">
<title>Node2&#45;&gt;Node5</title>
<g id="a_edge4_Node000002_Node000005"><a xlink:title=" ">
<path fill="none" stroke="#63b8ff" d="M247.59,-213C259.52,-213 271.84,-213 283.54,-213"/>
<polygon fill="#63b8ff" stroke="#63b8ff" points="283.54,-216.5 293.54,-213 283.54,-209.5 283.54,-216.5"/>
</a>
</g>
</g>
<!-- Node6 -->
<g id="Node000006" class="node">
<title>Node6</title>
<g id="a_Node000006"><a xlink:href="a00528.html#gae7f76d2864d9f99538052487fb4c9570" target="_top" xlink:title="default callback">
<polygon fill="white" stroke="#666666" points="375.75,-185 316.25,-185 316.25,-165 375.75,-165 375.75,-185"/>
<text text-anchor="middle" x="346" y="-171.5" font-family="Helvetica,sans-Serif" font-size="10.00">protocolID</text>
</a>
</g>
</g>
<!-- Node2&#45;&gt;Node6 -->
<g id="edge5_Node000002_Node000006" class="edge">
<title>Node2&#45;&gt;Node6</title>
<g id="a_edge5_Node000002_Node000006"><a xlink:title=" ">
<path fill="none" stroke="#63b8ff" d="M224.35,-202.52C249.74,-196.72 280.97,-189.6 305.3,-184.05"/>
<polygon fill="#63b8ff" stroke="#63b8ff" points="305.97,-187.26 314.94,-181.63 304.41,-180.44 305.97,-187.26"/>
</a>
</g>
</g>
<!-- Node7 -->
<g id="Node000007" class="node">
<title>Node7</title>
<g id="a_Node000007"><a xlink:href="a00528.html#gaf2b5ec7aa4bf88b00eaa69cfeba83160" target="_top" xlink:title="process received data">
<polygon fill="white" stroke="#666666" points="570.62,-216 445.12,-216 445.12,-184 570.62,-184 570.62,-216"/>
<text text-anchor="start" x="453.12" y="-202.5" font-family="Helvetica,sans-Serif" font-size="10.00">App_PBV_DAB_Process</text>
<text text-anchor="middle" x="507.88" y="-190.5" font-family="Helvetica,sans-Serif" font-size="10.00">_Rx_Data</text>
</a>
</g>
</g>
<!-- Node6&#45;&gt;Node7 -->
<g id="edge6_Node000006_Node000007" class="edge">
<title>Node6&#45;&gt;Node7</title>
<g id="a_edge6_Node000006_Node000007"><a xlink:title=" ">
<path fill="none" stroke="#63b8ff" d="M375.95,-179.53C392.27,-182.08 413.46,-185.39 434.02,-188.61"/>
<polygon fill="#63b8ff" stroke="#63b8ff" points="433.26,-192.19 443.68,-190.28 434.35,-185.27 433.26,-192.19"/>
</a>
</g>
</g>
<!-- Node23 -->
<g id="Node000023" class="node">
<title>Node23</title>
<g id="a_Node000023"><a xlink:href="a00526.html#gaf92cac9156ceacf492c28455ba3c75f5" target="_top" xlink:title="This function changes 8 bit data to sixteen bit data.">
<polygon fill="white" stroke="#666666" points="571,-166 444.75,-166 444.75,-134 571,-134 571,-166"/>
<text text-anchor="start" x="452.75" y="-152.5" font-family="Helvetica,sans-Serif" font-size="10.00">PBV_Change_from_Eight</text>
<text text-anchor="middle" x="507.88" y="-140.5" font-family="Helvetica,sans-Serif" font-size="10.00">_to_Sixteen</text>
</a>
</g>
</g>
<!-- Node6&#45;&gt;Node23 -->
<g id="edge23_Node000006_Node000023" class="edge">
<title>Node6&#45;&gt;Node23</title>
<g id="a_edge23_Node000006_Node000023"><a xlink:title=" ">
<path fill="none" stroke="#63b8ff" d="M375.95,-170.47C392.2,-167.93 413.26,-164.64 433.73,-161.44"/>
<polygon fill="#63b8ff" stroke="#63b8ff" points="434.01,-164.78 443.35,-159.78 432.93,-157.86 434.01,-164.78"/>
</a>
</g>
</g>
<!-- Node8 -->
<g id="Node000008" class="node">
<title>Node8</title>
<g id="a_Node000008"><a xlink:href="a00532.html#ga5cfd61659ae6b17ad25e51bfc211723b" target="_top" xlink:title="Sets the fan speed.">
<polygon fill="white" stroke="#666666" points="731,-400 624.25,-400 624.25,-380 731,-380 731,-400"/>
<text text-anchor="middle" x="677.62" y="-386.5" font-family="Helvetica,sans-Serif" font-size="10.00">Dev_Fan_Set_Speed</text>
</a>
</g>
</g>
<!-- Node7&#45;&gt;Node8 -->
<g id="edge7_Node000007_Node000008" class="edge">
<title>Node7&#45;&gt;Node8</title>
<g id="a_edge7_Node000007_Node000008"><a xlink:title=" ">
<path fill="none" stroke="#63b8ff" d="M513.61,-216.49C524.3,-250.73 553.65,-329.76 607,-371 609.21,-372.71 611.57,-374.27 614.02,-375.68"/>
<polygon fill="#63b8ff" stroke="#63b8ff" points="612.39,-379.26 622.91,-380.48 615.44,-372.97 612.39,-379.26"/>
</a>
</g>
</g>
<!-- Node9 -->
<g id="Node000009" class="node">
<title>Node9</title>
<g id="a_Node000009"><a xlink:href="a00544.html#gad6514b638a32baed68543a56bedd5c5d" target="_top" xlink:title="API function to get the PWM duty cycle.">
<polygon fill="white" stroke="#666666" points="747.5,-362 607.75,-362 607.75,-342 747.5,-342 747.5,-362"/>
<text text-anchor="middle" x="677.62" y="-348.5" font-family="Helvetica,sans-Serif" font-size="10.00">Dev_PwrCtrl_Get_DutyCycle</text>
</a>
</g>
</g>
<!-- Node7&#45;&gt;Node9 -->
<g id="edge8_Node000007_Node000009" class="edge">
<title>Node7&#45;&gt;Node9</title>
<g id="a_edge8_Node000007_Node000009"><a xlink:title=" ">
<path fill="none" stroke="#63b8ff" d="M517.16,-216.21C531.74,-243.2 564.52,-297.39 607,-328 612.05,-331.64 617.7,-334.76 623.53,-337.43"/>
<polygon fill="#63b8ff" stroke="#63b8ff" points="621.88,-340.95 632.46,-341.51 624.54,-334.47 621.88,-340.95"/>
</a>
</g>
</g>
<!-- Node10 -->
<g id="Node000010" class="node">
<title>Node10</title>
<g id="a_Node000010"><a xlink:href="a00544.html#gae5e607ebc1cfbf0fcb8caa5775d5e782" target="_top" xlink:title="API function to set the power control State.">
<polygon fill="white" stroke="#666666" points="896.25,-305 784.25,-305 784.25,-285 896.25,-285 896.25,-305"/>
<text text-anchor="middle" x="840.25" y="-291.5" font-family="Helvetica,sans-Serif" font-size="10.00">Dev_PwrCtrl_SetState</text>
</a>
</g>
</g>
<!-- Node7&#45;&gt;Node10 -->
<g id="edge9_Node000007_Node000010" class="edge">
<title>Node7&#45;&gt;Node10</title>
<g id="a_edge9_Node000007_Node000010"><a xlink:title=" ">
<path fill="none" stroke="#63b8ff" d="M519.49,-216.29C535.36,-238.97 567.66,-279.08 607,-295 662.07,-317.29 730.7,-313.92 779.02,-307.05"/>
<polygon fill="#63b8ff" stroke="#63b8ff" points="779.26,-310.4 788.62,-305.43 778.21,-303.48 779.26,-310.4"/>
</a>
</g>
</g>
<!-- Node15 -->
<g id="Node000015" class="node">
<title>Node15</title>
<g id="a_Node000015"><a xlink:href="a00544.html#gae5951bb40b236569aa345e1753808858" target="_top" xlink:title="API function to set the power control state forward, reverse or stop.">
<polygon fill="white" stroke="#666666" points="726.5,-286 628.75,-286 628.75,-266 726.5,-266 726.5,-286"/>
<text text-anchor="middle" x="677.62" y="-272.5" font-family="Helvetica,sans-Serif" font-size="10.00">PwrCtrl_SetEnable</text>
</a>
</g>
</g>
<!-- Node7&#45;&gt;Node15 -->
<g id="edge14_Node000007_Node000015" class="edge">
<title>Node7&#45;&gt;Node15</title>
<g id="a_edge14_Node000007_Node000015"><a xlink:title=" ">
<path fill="none" stroke="#63b8ff" d="M532.96,-216.38C552.28,-228.92 580.47,-245.9 607,-257 611.6,-258.92 616.45,-260.71 621.36,-262.35"/>
<polygon fill="#63b8ff" stroke="#63b8ff" points="619.88,-265.87 630.47,-265.52 621.98,-259.19 619.88,-265.87"/>
</a>
</g>
</g>
<!-- Node16 -->
<g id="Node000016" class="node">
<title>Node16</title>
<g id="a_Node000016"><a xlink:href="a00544.html#ga70c7b962e7df84e7d49fd37a76826059" target="_top" xlink:title="API function to set the current controller reference.">
<polygon fill="white" stroke="#666666" points="734.38,-248 620.88,-248 620.88,-228 734.38,-228 734.38,-248"/>
<text text-anchor="middle" x="677.62" y="-234.5" font-family="Helvetica,sans-Serif" font-size="10.00">PwrCtrl_SetIReference</text>
</a>
</g>
</g>
<!-- Node7&#45;&gt;Node16 -->
<g id="edge16_Node000007_Node000016" class="edge">
<title>Node7&#45;&gt;Node16</title>
<g id="a_edge16_Node000007_Node000016"><a xlink:title=" ">
<path fill="none" stroke="#63b8ff" d="M570.86,-214.04C586.86,-217.67 604.01,-221.55 619.73,-225.11"/>
<polygon fill="#63b8ff" stroke="#63b8ff" points="618.84,-228.72 629.36,-227.52 620.38,-221.9 618.84,-228.72"/>
</a>
</g>
</g>
<!-- Node17 -->
<g id="Node000017" class="node">
<title>Node17</title>
<g id="a_Node000017"><a xlink:href="a00544.html#ga80737f595e2855e9361772d2c1a9852d" target="_top" xlink:title="API function to set the target prim to sec phase which will steer other modulation.">
<polygon fill="white" stroke="#666666" points="748.25,-210 607,-210 607,-190 748.25,-190 748.25,-210"/>
<text text-anchor="middle" x="677.62" y="-196.5" font-family="Helvetica,sans-Serif" font-size="10.00">PwrCtrl_SetP2SPhaseTarget</text>
</a>
</g>
</g>
<!-- Node7&#45;&gt;Node17 -->
<g id="edge17_Node000007_Node000017" class="edge">
<title>Node7&#45;&gt;Node17</title>
<g id="a_edge17_Node000007_Node000017"><a xlink:title=" ">
<path fill="none" stroke="#63b8ff" d="M570.86,-200C578.97,-200 587.38,-200 595.75,-200"/>
<polygon fill="#63b8ff" stroke="#63b8ff" points="595.69,-203.5 605.69,-200 595.69,-196.5 595.69,-203.5"/>
</a>
</g>
</g>
<!-- Node18 -->
<g id="Node000018" class="node">
<title>Node18</title>
<g id="a_Node000018"><a xlink:href="a00544.html#ga75fdd46231baccc4830fa08d2b39a3d2" target="_top" xlink:title="API function to set the target period.">
<polygon fill="white" stroke="#666666" points="738.88,-172 616.38,-172 616.38,-152 738.88,-152 738.88,-172"/>
<text text-anchor="middle" x="677.62" y="-158.5" font-family="Helvetica,sans-Serif" font-size="10.00">PwrCtrl_SetPeriodTarget</text>
</a>
</g>
</g>
<!-- Node7&#45;&gt;Node18 -->
<g id="edge18_Node000007_Node000018" class="edge">
<title>Node7&#45;&gt;Node18</title>
<g id="a_edge18_Node000007_Node000018"><a xlink:title=" ">
<path fill="none" stroke="#63b8ff" d="M570.86,-185.96C586.86,-182.33 604.01,-178.45 619.73,-174.89"/>
<polygon fill="#63b8ff" stroke="#63b8ff" points="620.38,-178.1 629.36,-172.48 618.84,-171.28 620.38,-178.1"/>
</a>
</g>
</g>
<!-- Node19 -->
<g id="Node000019" class="node">
<title>Node19</title>
<g id="a_Node000019"><a xlink:href="a00544.html#gae62d241af8152bb7989d448f30adc55e" target="_top" xlink:title="API function to set the target PWM phase.">
<polygon fill="white" stroke="#666666" points="738.88,-134 616.38,-134 616.38,-114 738.88,-114 738.88,-134"/>
<text text-anchor="middle" x="677.62" y="-120.5" font-family="Helvetica,sans-Serif" font-size="10.00">PwrCtrl_SetPhaseTarget</text>
</a>
</g>
</g>
<!-- Node7&#45;&gt;Node19 -->
<g id="edge19_Node000007_Node000019" class="edge">
<title>Node7&#45;&gt;Node19</title>
<g id="a_edge19_Node000007_Node000019"><a xlink:title=" ">
<path fill="none" stroke="#63b8ff" d="M554.89,-183.59C560.46,-180.99 565.96,-178.12 571,-175 589.2,-163.73 588.18,-153.2 607,-143 610.24,-141.25 613.65,-139.64 617.15,-138.18"/>
<polygon fill="#63b8ff" stroke="#63b8ff" points="618.06,-141.21 626.2,-134.43 615.61,-134.65 618.06,-141.21"/>
</a>
</g>
</g>
<!-- Node20 -->
<g id="Node000020" class="node">
<title>Node20</title>
<g id="a_Node000020"><a xlink:href="a00544.html#ga574faff7b911d52ae6d2cf53b68a8963" target="_top" xlink:title="API function to set the power controller reference.">
<polygon fill="white" stroke="#666666" points="741.5,-96 613.75,-96 613.75,-76 741.5,-76 741.5,-96"/>
<text text-anchor="middle" x="677.62" y="-82.5" font-family="Helvetica,sans-Serif" font-size="10.00">PwrCtrl_SetPwrReference</text>
</a>
</g>
</g>
<!-- Node7&#45;&gt;Node20 -->
<g id="edge20_Node000007_Node000020" class="edge">
<title>Node7&#45;&gt;Node20</title>
<g id="a_edge20_Node000007_Node000020"><a xlink:title=" ">
<path fill="none" stroke="#63b8ff" d="M559.28,-183.51C563.49,-181.04 567.48,-178.21 571,-175 596.85,-151.43 579.82,-127.03 607,-105 608.61,-103.7 610.29,-102.49 612.05,-101.36"/>
<polygon fill="#63b8ff" stroke="#63b8ff" points="613.14,-104.2 620.28,-96.37 609.81,-98.04 613.14,-104.2"/>
</a>
</g>
</g>
<!-- Node21 -->
<g id="Node000021" class="node">
<title>Node21</title>
<g id="a_Node000021"><a xlink:href="a00544.html#gad75e0996f58a7795b51212ca644aebd3" target="_top" xlink:title="API function to set the primary voltage controller reference, in reverse mode.">
<polygon fill="white" stroke="#666666" points="742.62,-58 612.62,-58 612.62,-38 742.62,-38 742.62,-58"/>
<text text-anchor="middle" x="677.62" y="-44.5" font-family="Helvetica,sans-Serif" font-size="10.00">PwrCtrl_SetVPriReference</text>
</a>
</g>
</g>
<!-- Node7&#45;&gt;Node21 -->
<g id="edge21_Node000007_Node000021" class="edge">
<title>Node7&#45;&gt;Node21</title>
<g id="a_edge21_Node000007_Node000021"><a xlink:title=" ">
<path fill="none" stroke="#63b8ff" d="M560.42,-183.68C564.29,-181.18 567.89,-178.3 571,-175 605.67,-138.15 570.25,-101.77 607,-67 608.02,-66.03 609.09,-65.11 610.2,-64.24"/>
<polygon fill="#63b8ff" stroke="#63b8ff" points="611.8,-66.73 618.34,-58.4 608.03,-60.83 611.8,-66.73"/>
</a>
</g>
</g>
<!-- Node22 -->
<g id="Node000022" class="node">
<title>Node22</title>
<g id="a_Node000022"><a xlink:href="a00544.html#ga919933b7bef6f9fa8094848c413e7881" target="_top" xlink:title="API function to set the secondary voltage controller reference.">
<polygon fill="white" stroke="#666666" points="745.25,-20 610,-20 610,0 745.25,0 745.25,-20"/>
<text text-anchor="middle" x="677.62" y="-6.5" font-family="Helvetica,sans-Serif" font-size="10.00">PwrCtrl_SetVSecReference</text>
</a>
</g>
</g>
<!-- Node7&#45;&gt;Node22 -->
<g id="edge22_Node000007_Node000022" class="edge">
<title>Node7&#45;&gt;Node22</title>
<g id="a_edge22_Node000007_Node000022"><a xlink:title=" ">
<path fill="none" stroke="#63b8ff" d="M561.29,-183.55C564.88,-181.08 568.18,-178.25 571,-175 614.82,-124.53 560.33,-76.84 607,-29 607.83,-28.15 608.7,-27.33 609.59,-26.55"/>
<polygon fill="#63b8ff" stroke="#63b8ff" points="611.16,-29.03 617.38,-20.45 607.17,-23.28 611.16,-29.03"/>
</a>
</g>
</g>
<!-- Node11 -->
<g id="Node000011" class="node">
<title>Node11</title>
<g id="a_Node000011"><a xlink:href="a00541.html#ga79ec0c0e524a03b3a3d423308b89bb99" target="_top" xlink:title="Disable the PWM output.">
<polygon fill="white" stroke="#666666" points="1047.25,-305 932.25,-305 932.25,-285 1047.25,-285 1047.25,-305"/>
<text text-anchor="middle" x="989.75" y="-291.5" font-family="Helvetica,sans-Serif" font-size="10.00">PwrCtrl_PWM_Disable</text>
</a>
</g>
</g>
<!-- Node10&#45;&gt;Node11 -->
<g id="edge10_Node000010_Node000011" class="edge">
<title>Node10&#45;&gt;Node11</title>
<g id="a_edge10_Node000010_Node000011"><a xlink:title=" ">
<path fill="none" stroke="#63b8ff" d="M896.59,-295C904.66,-295 913.05,-295 921.33,-295"/>
<polygon fill="#63b8ff" stroke="#63b8ff" points="921.11,-298.5 931.11,-295 921.11,-291.5 921.11,-298.5"/>
</a>
</g>
</g>
<!-- Node12 -->
<g id="Node000012" class="node">
<title>Node12</title>
<g id="a_Node000012"><a xlink:href="a00559.html#ga531b59d8823e3ebda2da60f48582bcf3" target="_top" xlink:title="This inline function enables PWM override on PWMH output for specific PWM generator selected by the a...">
<polygon fill="white" stroke="#666666" points="1223.75,-343 1093,-343 1093,-323 1223.75,-323 1223.75,-343"/>
<text text-anchor="middle" x="1158.38" y="-329.5" font-family="Helvetica,sans-Serif" font-size="10.00">PWM_OverrideHighEnable</text>
</a>
</g>
</g>
<!-- Node11&#45;&gt;Node12 -->
<g id="edge11_Node000011_Node000012" class="edge">
<title>Node11&#45;&gt;Node12</title>
<g id="a_edge11_Node000011_Node000012"><a xlink:title=" ">
<path fill="none" stroke="#63b8ff" d="M1036.72,-305.48C1056.57,-310.01 1079.99,-315.35 1100.89,-320.12"/>
<polygon fill="#63b8ff" stroke="#63b8ff" points="1100.03,-323.74 1110.55,-322.55 1101.58,-316.91 1100.03,-323.74"/>
</a>
</g>
</g>
<!-- Node13 -->
<g id="Node000013" class="node">
<title>Node13</title>
<g id="a_Node000013"><a xlink:href="a00559.html#ga2548ca8feda75ba6ab784280679da6ae" target="_top" xlink:title="This inline function enables PWM override on PWML output for specific PWM generator selected by the a...">
<polygon fill="white" stroke="#666666" points="1222.62,-305 1094.12,-305 1094.12,-285 1222.62,-285 1222.62,-305"/>
<text text-anchor="middle" x="1158.38" y="-291.5" font-family="Helvetica,sans-Serif" font-size="10.00">PWM_OverrideLowEnable</text>
</a>
</g>
</g>
<!-- Node11&#45;&gt;Node13 -->
<g id="edge12_Node000011_Node000013" class="edge">
<title>Node11&#45;&gt;Node13</title>
<g id="a_edge12_Node000011_Node000013"><a xlink:title=" ">
<path fill="none" stroke="#63b8ff" d="M1047.63,-295C1059.03,-295 1071.17,-295 1083.07,-295"/>
<polygon fill="#63b8ff" stroke="#63b8ff" points="1082.89,-298.5 1092.89,-295 1082.89,-291.5 1082.89,-298.5"/>
</a>
</g>
</g>
<!-- Node14 -->
<g id="Node000014" class="node">
<title>Node14</title>
<g id="a_Node000014"><a xlink:href="a00559.html#ga83e780358618114f0d424ca7467cf751" target="_top" xlink:title="This inline function requests to update the data registers for specific PWM generator selected by the...">
<polygon fill="white" stroke="#666666" points="1233.5,-267 1083.25,-267 1083.25,-247 1233.5,-247 1233.5,-267"/>
<text text-anchor="middle" x="1158.38" y="-253.5" font-family="Helvetica,sans-Serif" font-size="10.00">PWM_SoftwareUpdateRequest</text>
</a>
</g>
</g>
<!-- Node11&#45;&gt;Node14 -->
<g id="edge13_Node000011_Node000014" class="edge">
<title>Node11&#45;&gt;Node14</title>
<g id="a_edge13_Node000011_Node000014"><a xlink:title=" ">
<path fill="none" stroke="#63b8ff" d="M1036.72,-284.52C1056.57,-279.99 1079.99,-274.65 1100.89,-269.88"/>
<polygon fill="#63b8ff" stroke="#63b8ff" points="1101.58,-273.09 1110.55,-267.45 1100.03,-266.26 1101.58,-273.09"/>
</a>
</g>
</g>
<!-- Node15&#45;&gt;Node10 -->
<g id="edge15_Node000015_Node000010" class="edge">
<title>Node15&#45;&gt;Node10</title>
<g id="a_edge15_Node000015_Node000010"><a xlink:title=" ">
<path fill="none" stroke="#63b8ff" d="M726.82,-281.7C741.38,-283.42 757.64,-285.35 773.16,-287.18"/>
<polygon fill="#63b8ff" stroke="#63b8ff" points="772.42,-290.74 782.76,-288.44 773.24,-283.79 772.42,-290.74"/>
</a>
</g>
</g>
<!-- Node25 -->
<g id="Node000025" class="node">
<title>Node25</title>
<g id="a_Node000025"><a xlink:href="a00526.html#ga779af4e1b7fd3111ccb7ade537d98efb" target="_top" xlink:title="Main application task for Power Board Visualizer.">
<polygon fill="white" stroke="#666666" points="388.5,-147 303.5,-147 303.5,-127 388.5,-127 388.5,-147"/>
<text text-anchor="middle" x="346" y="-133.5" font-family="Helvetica,sans-Serif" font-size="10.00">App_PBV_Task</text>
</a>
</g>
</g>
<!-- Node24&#45;&gt;Node25 -->
<g id="edge25_Node000024_Node000025" class="edge">
<title>Node24&#45;&gt;Node25</title>
<g id="a_edge25_Node000024_Node000025"><a xlink:title=" ">
<path fill="none" stroke="#63b8ff" d="M234.79,-149.57C253.4,-147.44 274.03,-145.09 292.35,-143"/>
<polygon fill="#63b8ff" stroke="#63b8ff" points="292.6,-146.38 302.13,-141.77 291.8,-139.43 292.6,-146.38"/>
</a>
</g>
</g>
</g>
</svg>
