<?xml version="1.0" encoding="UTF-8" standalone="no"?>
<!DOCTYPE svg PUBLIC "-//W3C//DTD SVG 1.1//EN"
 "http://www.w3.org/Graphics/SVG/1.1/DTD/svg11.dtd">
<!-- Generated by graphviz version 8.1.0 (20230707.0739)
 -->
<!-- Title: Dev_PwrCtrl_Execute Pages: 1 -->
<svg width="828pt" height="204pt"
 viewBox="0.00 0.00 828.25 204.00" xmlns="http://www.w3.org/2000/svg" xmlns:xlink="http://www.w3.org/1999/xlink">
<g id="graph0" class="graph" transform="scale(1 1) rotate(0) translate(4 200)">
<title>Dev_PwrCtrl_Execute</title>
<!-- Node1 -->
<g id="Node000001" class="node">
<title>Node1</title>
<g id="a_Node000001"><a xlink:title="Executes the power control state machine.">
<polygon fill="#999999" stroke="#666666" points="109.75,-108 0,-108 0,-88 109.75,-88 109.75,-108"/>
<text text-anchor="middle" x="54.88" y="-94.5" font-family="Helvetica,sans-Serif" font-size="10.00">Dev_PwrCtrl_Execute</text>
</a>
</g>
</g>
<!-- Node2 -->
<g id="Node000002" class="node">
<title>Node2</title>
<g id="a_Node000002"><a xlink:href="a00518.html#gaebef55c78d9df043c293ffcf8a06b63f" target="_top" xlink:title="Manages the power control state machine.">
<polygon fill="white" stroke="#666666" points="279.5,-108 145.75,-108 145.75,-88 279.5,-88 279.5,-108"/>
<text text-anchor="middle" x="212.62" y="-94.5" font-family="Helvetica,sans-Serif" font-size="10.00">Dev_PwrCtrl_StateMachine</text>
</a>
</g>
</g>
<!-- Node1&#45;&gt;Node2 -->
<g id="edge1_Node000001_Node000002" class="edge">
<title>Node1&#45;&gt;Node2</title>
<g id="a_edge1_Node000001_Node000002"><a xlink:title=" ">
<path fill="none" stroke="#63b8ff" d="M109.91,-98C117.85,-98 126.16,-98 134.46,-98"/>
<polygon fill="#63b8ff" stroke="#63b8ff" points="134.33,-101.5 144.33,-98 134.33,-94.5 134.33,-101.5"/>
</a>
</g>
</g>
<!-- Node3 -->
<g id="Node000003" class="node">
<title>Node3</title>
<g id="a_Node000003"><a xlink:href="a00518.html#ga8307344d190a5459682d315fc7bfe198" target="_top" xlink:title="Executes function for initialze state machine.">
<polygon fill="white" stroke="#666666" points="432.75,-196 338,-196 338,-176 432.75,-176 432.75,-196"/>
<text text-anchor="middle" x="385.38" y="-182.5" font-family="Helvetica,sans-Serif" font-size="10.00">PCS_INIT_handler</text>
</a>
</g>
</g>
<!-- Node2&#45;&gt;Node3 -->
<g id="edge2_Node000002_Node000003" class="edge">
<title>Node2&#45;&gt;Node3</title>
<g id="a_edge2_Node000002_Node000003"><a xlink:title=" ">
<path fill="none" stroke="#63b8ff" d="M226,-108.37C244.4,-123.32 280.59,-150.89 315.5,-167 319.55,-168.87 323.83,-170.59 328.19,-172.17"/>
<polygon fill="#63b8ff" stroke="#63b8ff" points="326.83,-175.74 337.43,-175.58 329.05,-169.1 326.83,-175.74"/>
</a>
</g>
</g>
<!-- Node8 -->
<g id="Node000008" class="node">
<title>Node8</title>
<g id="a_Node000008"><a xlink:href="a00518.html#gabda6b853bb6547821acd0ec87e0a4842" target="_top" xlink:title="Executes the power control soft start state machine.">
<polygon fill="white" stroke="#666666" points="455.25,-108 315.5,-108 315.5,-88 455.25,-88 455.25,-108"/>
<text text-anchor="middle" x="385.38" y="-94.5" font-family="Helvetica,sans-Serif" font-size="10.00">PCS_SOFT_START_handler</text>
</a>
</g>
</g>
<!-- Node2&#45;&gt;Node8 -->
<g id="edge7_Node000002_Node000008" class="edge">
<title>Node2&#45;&gt;Node8</title>
<g id="a_edge7_Node000002_Node000008"><a xlink:title=" ">
<path fill="none" stroke="#63b8ff" d="M279.64,-98C287.73,-98 296.07,-98 304.34,-98"/>
<polygon fill="#63b8ff" stroke="#63b8ff" points="304.14,-101.5 314.14,-98 304.14,-94.5 304.14,-101.5"/>
</a>
</g>
</g>
<!-- Node10 -->
<g id="Node000010" class="node">
<title>Node10</title>
<g id="a_Node000010"><a xlink:href="a00518.html#ga42f7c8f65745b2f81bb6dbd381ea8121" target="_top" xlink:title="Executes Standby State machine.">
<polygon fill="white" stroke="#666666" points="447.38,-70 323.38,-70 323.38,-50 447.38,-50 447.38,-70"/>
<text text-anchor="middle" x="385.38" y="-56.5" font-family="Helvetica,sans-Serif" font-size="10.00">PCS_STANDBY_handler</text>
</a>
</g>
</g>
<!-- Node2&#45;&gt;Node10 -->
<g id="edge10_Node000002_Node000010" class="edge">
<title>Node2&#45;&gt;Node10</title>
<g id="a_edge10_Node000002_Node000010"><a xlink:title=" ">
<path fill="none" stroke="#63b8ff" d="M260.74,-87.52C281.17,-82.97 305.29,-77.6 326.78,-72.82"/>
<polygon fill="#63b8ff" stroke="#63b8ff" points="327.42,-76.04 336.42,-70.45 325.9,-69.21 327.42,-76.04"/>
</a>
</g>
</g>
<!-- Node14 -->
<g id="Node000014" class="node">
<title>Node14</title>
<g id="a_Node000014"><a xlink:href="a00518.html#ga8752fbb48416e60141e205f1cbda0f98" target="_top" xlink:title="Executes the Online state.">
<polygon fill="white" stroke="#666666" points="450,-158 320.75,-158 320.75,-126 450,-126 450,-158"/>
<text text-anchor="start" x="328.75" y="-144.5" font-family="Helvetica,sans-Serif" font-size="10.00">PCS_UP_AND_RUNNING</text>
<text text-anchor="middle" x="385.38" y="-132.5" font-family="Helvetica,sans-Serif" font-size="10.00">_handler</text>
</a>
</g>
</g>
<!-- Node2&#45;&gt;Node14 -->
<g id="edge15_Node000002_Node000014" class="edge">
<title>Node2&#45;&gt;Node14</title>
<g id="a_edge15_Node000002_Node000014"><a xlink:title=" ">
<path fill="none" stroke="#63b8ff" d="M254.09,-108.43C270.82,-112.74 290.76,-117.88 309.95,-122.82"/>
<polygon fill="#63b8ff" stroke="#63b8ff" points="308.95,-126.44 319.5,-125.54 310.69,-119.66 308.95,-126.44"/>
</a>
</g>
</g>
<!-- Node15 -->
<g id="Node000015" class="node">
<title>Node15</title>
<g id="a_Node000015"><a xlink:href="a00518.html#gaad6ef2378120876a621b349c1380aef7" target="_top" xlink:title="Executes the fault handler state machine.">
<polygon fill="white" stroke="#666666" points="442.5,-32 328.25,-32 328.25,0 442.5,0 442.5,-32"/>
<text text-anchor="start" x="336.25" y="-18.5" font-family="Helvetica,sans-Serif" font-size="10.00">PCS_WAIT_IF_FAULT</text>
<text text-anchor="middle" x="385.38" y="-6.5" font-family="Helvetica,sans-Serif" font-size="10.00">_ACTIVE_handler</text>
</a>
</g>
</g>
<!-- Node2&#45;&gt;Node15 -->
<g id="edge17_Node000002_Node000015" class="edge">
<title>Node2&#45;&gt;Node15</title>
<g id="a_edge17_Node000002_Node000015"><a xlink:title=" ">
<path fill="none" stroke="#63b8ff" d="M230.13,-87.66C249.93,-75.53 284.35,-55.25 315.5,-41 318.9,-39.44 322.43,-37.92 326.01,-36.43"/>
<polygon fill="#63b8ff" stroke="#63b8ff" points="327.19,-39.33 335.18,-32.36 324.59,-32.83 327.19,-39.33"/>
</a>
</g>
</g>
<!-- Node4 -->
<g id="Node000004" class="node">
<title>Node4</title>
<g id="a_Node000004"><a xlink:href="a00518.html#ga1da8b184470e7693ac0467bf255272c4" target="_top" xlink:title="Disable the PWM output.">
<polygon fill="white" stroke="#666666" points="630.62,-149 494.62,-149 494.62,-129 630.62,-129 630.62,-149"/>
<text text-anchor="middle" x="562.62" y="-135.5" font-family="Helvetica,sans-Serif" font-size="10.00">Dev_PwrCtrl_PWM_Disable</text>
</a>
</g>
</g>
<!-- Node3&#45;&gt;Node4 -->
<g id="edge3_Node000003_Node000004" class="edge">
<title>Node3&#45;&gt;Node4</title>
<g id="a_edge3_Node000003_Node000004"><a xlink:title=" ">
<path fill="none" stroke="#63b8ff" d="M425.27,-175.57C450.82,-168.72 484.47,-159.69 511.95,-152.32"/>
<polygon fill="#63b8ff" stroke="#63b8ff" points="512.79,-155.45 521.54,-149.48 510.97,-148.69 512.79,-155.45"/>
</a>
</g>
</g>
<!-- Node5 -->
<g id="Node000005" class="node">
<title>Node5</title>
<g id="a_Node000005"><a xlink:href="a00534.html#ga531b59d8823e3ebda2da60f48582bcf3" target="_top" xlink:title="This inline function enables PWM override on PWMH output for specific PWM generator selected by the a...">
<polygon fill="white" stroke="#666666" points="810.5,-187 679.75,-187 679.75,-167 810.5,-167 810.5,-187"/>
<text text-anchor="middle" x="745.12" y="-173.5" font-family="Helvetica,sans-Serif" font-size="10.00">PWM_OverrideHighEnable</text>
</a>
</g>
</g>
<!-- Node4&#45;&gt;Node5 -->
<g id="edge4_Node000004_Node000005" class="edge">
<title>Node4&#45;&gt;Node5</title>
<g id="a_edge4_Node000004_Node000005"><a xlink:title=" ">
<path fill="none" stroke="#63b8ff" d="M613.43,-149.48C635.23,-154.07 661,-159.5 683.87,-164.31"/>
<polygon fill="#63b8ff" stroke="#63b8ff" points="682.98,-167.91 693.49,-166.55 684.42,-161.06 682.98,-167.91"/>
</a>
</g>
</g>
<!-- Node6 -->
<g id="Node000006" class="node">
<title>Node6</title>
<g id="a_Node000006"><a xlink:href="a00534.html#ga2548ca8feda75ba6ab784280679da6ae" target="_top" xlink:title="This inline function enables PWM override on PWML output for specific PWM generator selected by the a...">
<polygon fill="white" stroke="#666666" points="809.38,-149 680.88,-149 680.88,-129 809.38,-129 809.38,-149"/>
<text text-anchor="middle" x="745.12" y="-135.5" font-family="Helvetica,sans-Serif" font-size="10.00">PWM_OverrideLowEnable</text>
</a>
</g>
</g>
<!-- Node4&#45;&gt;Node6 -->
<g id="edge5_Node000004_Node000006" class="edge">
<title>Node4&#45;&gt;Node6</title>
<g id="a_edge5_Node000004_Node000006"><a xlink:title=" ">
<path fill="none" stroke="#63b8ff" d="M631.09,-139C643.77,-139 657.08,-139 669.95,-139"/>
<polygon fill="#63b8ff" stroke="#63b8ff" points="669.62,-142.5 679.62,-139 669.62,-135.5 669.62,-142.5"/>
</a>
</g>
</g>
<!-- Node7 -->
<g id="Node000007" class="node">
<title>Node7</title>
<g id="a_Node000007"><a xlink:href="a00534.html#ga83e780358618114f0d424ca7467cf751" target="_top" xlink:title="This inline function requests to update the data registers for specific PWM generator selected by the...">
<polygon fill="white" stroke="#666666" points="820.25,-110 670,-110 670,-90 820.25,-90 820.25,-110"/>
<text text-anchor="middle" x="745.12" y="-96.5" font-family="Helvetica,sans-Serif" font-size="10.00">PWM_SoftwareUpdateRequest</text>
</a>
</g>
</g>
<!-- Node4&#45;&gt;Node7 -->
<g id="edge6_Node000004_Node000007" class="edge">
<title>Node4&#45;&gt;Node7</title>
<g id="a_edge6_Node000004_Node000007"><a xlink:title=" ">
<path fill="none" stroke="#63b8ff" d="M612,-128.55C634.45,-123.7 661.36,-117.88 685.01,-112.77"/>
<polygon fill="#63b8ff" stroke="#63b8ff" points="685.59,-116.01 694.62,-110.48 684.11,-109.17 685.59,-116.01"/>
</a>
</g>
</g>
<!-- Node8&#45;&gt;Node4 -->
<g id="edge8_Node000008_Node000004" class="edge">
<title>Node8&#45;&gt;Node4</title>
<g id="a_edge8_Node000008_Node000004"><a xlink:title=" ">
<path fill="none" stroke="#63b8ff" d="M431.05,-108.45C454.02,-113.83 482.22,-120.42 506.52,-126.11"/>
<polygon fill="#63b8ff" stroke="#63b8ff" points="505.5,-129.7 516.03,-128.57 507.09,-122.88 505.5,-129.7"/>
</a>
</g>
</g>
<!-- Node9 -->
<g id="Node000009" class="node">
<title>Node9</title>
<g id="a_Node000009"><a xlink:href="a00518.html#gae958b8e13bf04622c6c67ea391639f41" target="_top" xlink:title="Softly increment / decrement to the set reference target.">
<polygon fill="white" stroke="#666666" points="634,-108 491.25,-108 491.25,-88 634,-88 634,-108"/>
<text text-anchor="middle" x="562.62" y="-94.5" font-family="Helvetica,sans-Serif" font-size="10.00">Dev_PwrCtrl_RampReference</text>
</a>
</g>
</g>
<!-- Node8&#45;&gt;Node9 -->
<g id="edge9_Node000008_Node000009" class="edge">
<title>Node8&#45;&gt;Node9</title>
<g id="a_edge9_Node000008_Node000009"><a xlink:title=" ">
<path fill="none" stroke="#63b8ff" d="M455.64,-98C463.6,-98 471.77,-98 479.87,-98"/>
<polygon fill="#63b8ff" stroke="#63b8ff" points="479.85,-101.5 489.85,-98 479.85,-94.5 479.85,-101.5"/>
</a>
</g>
</g>
<!-- Node11 -->
<g id="Node000011" class="node">
<title>Node11</title>
<g id="a_Node000011"><a xlink:href="a00518.html#ga785129640802350613ea99da4e099ce4" target="_top" xlink:title="Enable the PWM output.">
<polygon fill="white" stroke="#666666" points="629.5,-70 495.75,-70 495.75,-50 629.5,-50 629.5,-70"/>
<text text-anchor="middle" x="562.62" y="-56.5" font-family="Helvetica,sans-Serif" font-size="10.00">Dev_PwrCtrl_PWM_Enable</text>
</a>
</g>
</g>
<!-- Node10&#45;&gt;Node11 -->
<g id="edge11_Node000010_Node000011" class="edge">
<title>Node10&#45;&gt;Node11</title>
<g id="a_edge11_Node000010_Node000011"><a xlink:title=" ">
<path fill="none" stroke="#63b8ff" d="M447.67,-60C459.58,-60 472.2,-60 484.54,-60"/>
<polygon fill="#63b8ff" stroke="#63b8ff" points="484.29,-63.5 494.29,-60 484.29,-56.5 484.29,-63.5"/>
</a>
</g>
</g>
<!-- Node11&#45;&gt;Node7 -->
<g id="edge14_Node000011_Node000007" class="edge">
<title>Node11&#45;&gt;Node7</title>
<g id="a_edge14_Node000011_Node000007"><a xlink:title=" ">
<path fill="none" stroke="#63b8ff" d="M610.58,-70.41C633.69,-75.53 661.77,-81.75 686.2,-87.16"/>
<polygon fill="#63b8ff" stroke="#63b8ff" points="685.26,-90.76 695.78,-89.51 686.77,-83.93 685.26,-90.76"/>
</a>
</g>
</g>
<!-- Node12 -->
<g id="Node000012" class="node">
<title>Node12</title>
<g id="a_Node000012"><a xlink:href="a00534.html#ga957b002605bfb2239a26f174808b2ad8" target="_top" xlink:title="This inline function disables PWM override on PWMH output for specific PWM generator selected by the ...">
<polygon fill="white" stroke="#666666" points="811.62,-71 678.62,-71 678.62,-51 811.62,-51 811.62,-71"/>
<text text-anchor="middle" x="745.12" y="-57.5" font-family="Helvetica,sans-Serif" font-size="10.00">PWM_OverrideHighDisable</text>
</a>
</g>
</g>
<!-- Node11&#45;&gt;Node12 -->
<g id="edge12_Node000011_Node000012" class="edge">
<title>Node11&#45;&gt;Node12</title>
<g id="a_edge12_Node000011_Node000012"><a xlink:title=" ">
<path fill="none" stroke="#63b8ff" d="M629.81,-60.37C642.03,-60.43 654.88,-60.51 667.38,-60.57"/>
<polygon fill="#63b8ff" stroke="#63b8ff" points="667.23,-64.08 677.25,-60.64 667.27,-57.08 667.23,-64.08"/>
</a>
</g>
</g>
<!-- Node13 -->
<g id="Node000013" class="node">
<title>Node13</title>
<g id="a_Node000013"><a xlink:href="a00534.html#gabbedef830c43428e96c7d5125662a8a6" target="_top" xlink:title="This inline function disables PWM override on PWML output for specific PWM generator selected by the ...">
<polygon fill="white" stroke="#666666" points="810.5,-33 679.75,-33 679.75,-13 810.5,-13 810.5,-33"/>
<text text-anchor="middle" x="745.12" y="-19.5" font-family="Helvetica,sans-Serif" font-size="10.00">PWM_OverrideLowDisable</text>
</a>
</g>
</g>
<!-- Node11&#45;&gt;Node13 -->
<g id="edge13_Node000011_Node000013" class="edge">
<title>Node11&#45;&gt;Node13</title>
<g id="a_edge13_Node000011_Node000013"><a xlink:title=" ">
<path fill="none" stroke="#63b8ff" d="M614.38,-49.59C635.53,-45.26 660.28,-40.19 682.47,-35.64"/>
<polygon fill="#63b8ff" stroke="#63b8ff" points="683.03,-38.89 692.12,-33.46 681.62,-32.03 683.03,-38.89"/>
</a>
</g>
</g>
<!-- Node14&#45;&gt;Node4 -->
<g id="edge16_Node000014_Node000004" class="edge">
<title>Node14&#45;&gt;Node4</title>
<g id="a_edge16_Node000014_Node000004"><a xlink:title=" ">
<path fill="none" stroke="#63b8ff" d="M450.14,-140.91C461.04,-140.72 472.48,-140.53 483.7,-140.33"/>
<polygon fill="#63b8ff" stroke="#63b8ff" points="483.43,-143.82 493.37,-140.15 483.31,-136.82 483.43,-143.82"/>
</a>
</g>
</g>
</g>
</svg>
