<?xml version="1.0" encoding="UTF-8" standalone="no"?>
<!DOCTYPE svg PUBLIC "-//W3C//DTD SVG 1.1//EN"
 "http://www.w3.org/Graphics/SVG/1.1/DTD/svg11.dtd">
<!-- Generated by graphviz version 8.1.0 (20230707.0739)
 -->
<!-- Title: CRC_CalculationResultReverseGet Pages: 1 -->
<svg width="532pt" height="66pt"
 viewBox="0.00 0.00 532.25 66.00" xmlns="http://www.w3.org/2000/svg" xmlns:xlink="http://www.w3.org/1999/xlink">
<g id="graph0" class="graph" transform="scale(1 1) rotate(0) translate(4 62)">
<title>CRC_CalculationResultReverseGet</title>
<!-- Node1 -->
<g id="Node000001" class="node">
<title>Node1</title>
<g id="a_Node000001"><a xlink:title="Gets the CRC reversed value of result if the calculation is done.">
<polygon fill="#999999" stroke="#666666" points="524.25,-39 356.75,-39 356.75,-19 524.25,-19 524.25,-39"/>
<text text-anchor="middle" x="440.5" y="-25.5" font-family="Helvetica,sans-Serif" font-size="10.00">CRC_CalculationResultReverseGet</text>
</a>
</g>
</g>
<!-- Node2 -->
<g id="Node000002" class="node">
<title>Node2</title>
<g id="a_Node000002"><a xlink:href="a00536.html#ga595814562acde8c6c22c92af9c33ca16" target="_top" xlink:title="Gets the CRC result if the calculation is done.">
<polygon fill="white" stroke="#666666" points="320.75,-58 187.75,-58 187.75,-38 320.75,-38 320.75,-58"/>
<text text-anchor="middle" x="254.25" y="-44.5" font-family="Helvetica,sans-Serif" font-size="10.00">CRC_CalculationResultGet</text>
</a>
</g>
</g>
<!-- Node1&#45;&gt;Node2 -->
<g id="edge1_Node000001_Node000002" class="edge">
<title>Node1&#45;&gt;Node2</title>
<g id="a_edge1_Node000001_Node000002"><a xlink:title=" ">
<path fill="none" stroke="#63b8ff" d="M345.43,-38.7C337.17,-39.55 328.94,-40.4 320.99,-41.22"/>
<polygon fill="#63b8ff" stroke="#63b8ff" points="345.68,-42.09 355.27,-37.58 344.96,-35.13 345.68,-42.09"/>
</a>
</g>
</g>
<!-- Node3 -->
<g id="Node000003" class="node">
<title>Node3</title>
<g id="a_Node000003"><a xlink:href="a00504.html#ga24413d8db99647b26a8e7ae233c5c63e" target="_top" xlink:title="Calculates the CRC on 16 bit stream of data.">
<polygon fill="white" stroke="#666666" points="308,-20 200.5,-20 200.5,0 308,0 308,-20"/>
<text text-anchor="middle" x="254.25" y="-6.5" font-family="Helvetica,sans-Serif" font-size="10.00">PBV_Calculate_CRC</text>
</a>
</g>
</g>
<!-- Node1&#45;&gt;Node3 -->
<g id="edge2_Node000001_Node000003" class="edge">
<title>Node1&#45;&gt;Node3</title>
<g id="a_edge2_Node000001_Node000003"><a xlink:title=" ">
<path fill="none" stroke="#63b8ff" d="M345.54,-19.31C332.74,-17.99 320,-16.68 308.29,-15.47"/>
<polygon fill="#63b8ff" stroke="#63b8ff" points="344.96,-22.87 355.27,-20.42 345.68,-15.91 344.96,-22.87"/>
</a>
</g>
</g>
<!-- Node4 -->
<g id="Node000004" class="node">
<title>Node4</title>
<g id="a_Node000004"><a xlink:href="a00504.html#ga89e085a040c28fbc1aa46e802a199aef" target="_top" xlink:title="implements the state machine for UART Frame receiving from PBV.">
<polygon fill="white" stroke="#666666" points="151.75,-20 0,-20 0,0 151.75,0 151.75,-20"/>
<text text-anchor="middle" x="75.88" y="-6.5" font-family="Helvetica,sans-Serif" font-size="10.00">PBV_UART_Receive_from_GUI</text>
</a>
</g>
</g>
<!-- Node3&#45;&gt;Node4 -->
<g id="edge3_Node000003_Node000004" class="edge">
<title>Node3&#45;&gt;Node4</title>
<g id="a_edge3_Node000003_Node000004"><a xlink:title=" ">
<path fill="none" stroke="#63b8ff" d="M189.38,-10C177.22,-10 164.4,-10 151.93,-10"/>
<polygon fill="#63b8ff" stroke="#63b8ff" points="189.33,-13.5 199.33,-10 189.33,-6.5 189.33,-13.5"/>
</a>
</g>
</g>
</g>
</svg>
