<?xml version="1.0" encoding="UTF-8" standalone="no"?>
<!DOCTYPE svg PUBLIC "-//W3C//DTD SVG 1.1//EN"
 "http://www.w3.org/Graphics/SVG/1.1/DTD/svg11.dtd">
<!-- Generated by graphviz version 8.1.0 (20230707.0739)
 -->
<!-- Title: PwrCtrl_PWM_Disable Pages: 1 -->
<!--zoomable 305 -->

<svg id="main" version="1.1" xmlns="http://www.w3.org/2000/svg" xmlns:xlink="http://www.w3.org/1999/xlink" xml:space="preserve" onload="init(evt)">
<style type="text/css"><![CDATA[
.node, .edge {opacity: 0.7;}
.node.selected, .edge.selected {opacity: 1;}
.edge:hover path { stroke: red; }
.edge:hover polygon { stroke: red; fill: red; }
]]></style>

<defs>
  <circle id="rim" cx="0" cy="0" r="7"/>
  <circle id="rim2" cx="0" cy="0" r="3.5"/>
  <g id="zoomPlus">
    <use xlink:href="#rim" fill="#404040"><set attributeName="fill" to="#808080" begin="zoomplus.mouseover" end="zoomplus.mouseout"/></use>
    <path d="M-4,0h8M0,-4v8" fill="none" stroke="white" stroke-width="1.5" pointer-events="none"/>
  </g>
  <g id="zoomMin">
    <use xlink:href="#rim" fill="#404040"><set attributeName="fill" to="#808080" begin="zoomminus.mouseover" end="zoomminus.mouseout"/></use>
    <path d="M-4,0h8" fill="none" stroke="white" stroke-width="1.5" pointer-events="none"/>
  </g>
  <g id="arrowUp" transform="translate(30 24)">
    <use xlink:href="#rim"/>
    <path pointer-events="none" fill="none" stroke="white" stroke-width="1.5" d="M0,-3.0v7 M-2.5,-0.5L0,-3.0L2.5,-0.5"/>
  </g>
  <g id="arrowRight" transform="rotate(90) translate(36 -43)">
    <use xlink:href="#rim"/>
    <path pointer-events="none" fill="none" stroke="white" stroke-width="1.5" d="M0,-3.0v7 M-2.5,-0.5L0,-3.0L2.5,-0.5"/>
  </g>
  <g id="arrowDown" transform="rotate(180) translate(-30 -48)">
    <use xlink:href="#rim"/>
    <path pointer-events="none" fill="none" stroke="white" stroke-width="1.5" d="M0,-3.0v7 M-2.5,-0.5L0,-3.0L2.5,-0.5"/>
  </g>
  <g id="arrowLeft" transform="rotate(270) translate(-36 17)">
    <use xlink:href="#rim"/>
    <path pointer-events="none" fill="none" stroke="white" stroke-width="1.5" d="M0,-3.0v7 M-2.5,-0.5L0,-3.0L2.5,-0.5"/>
  </g>
  <g id="resetDef">
    <use xlink:href="#rim2" fill="#404040"><set attributeName="fill" to="#808080" begin="reset.mouseover" end="reset.mouseout"/></use>
  </g>
</defs>
<script type="application/ecmascript">
var viewWidth = 1040;
var viewHeight = 305;
var sectionId = 'dynsection-4';
</script>
<script type="application/ecmascript" xlink:href="svg.min.js"/>
<svg id="graph" class="graph">
<g id="viewport">
<title>PwrCtrl_PWM_Disable</title>
<!-- Node1 -->
<g id="Node000001" class="node">
<title>Node1</title>
<g id="a_Node000001"><a xlink:title="Disable the PWM output.">
<polygon fill="#999999" stroke="#666666" points="1032.25,-148 917.25,-148 917.25,-128 1032.25,-128 1032.25,-148"/>
<text text-anchor="middle" x="974.75" y="-134.5" font-family="Helvetica,sans-Serif" font-size="10.00">PwrCtrl_PWM_Disable</text>
</a>
</g>
</g>
<!-- Node2 -->
<g id="Node000002" class="node">
<title>Node2</title>
<g id="a_Node000002"><a xlink:href="a00544.html#gae5e607ebc1cfbf0fcb8caa5775d5e782" target="_top" xlink:title="API function to set the power control State.">
<polygon fill="white" stroke="#666666" points="864,-265 752,-265 752,-245 864,-245 864,-265"/>
<text text-anchor="middle" x="808" y="-251.5" font-family="Helvetica,sans-Serif" font-size="10.00">Dev_PwrCtrl_SetState</text>
</a>
</g>
</g>
<!-- Node1&#45;&gt;Node2 -->
<g id="edge1_Node000001_Node000002" class="edge">
<title>Node1&#45;&gt;Node2</title>
<g id="a_edge1_Node000001_Node000002"><a xlink:title=" ">
<path fill="none" stroke="#63b8ff" d="M960.22,-156.78C943.84,-178.2 914.3,-212.87 881.25,-233 873.41,-237.78 864.46,-241.58 855.58,-244.6"/>
<polygon fill="#63b8ff" stroke="#63b8ff" points="963.42,-159.34 966.59,-149.23 957.81,-155.15 963.42,-159.34"/>
</a>
</g>
</g>
<!-- Node8 -->
<g id="Node000008" class="node">
<title>Node8</title>
<g id="a_Node000008"><a xlink:href="a00548.html#gaf27f2f24932cec222273df148f8765cb" target="_top" xlink:title="Handles the fault trip by turning off the power control switching.">
<polygon fill="white" stroke="#666666" points="846,-224 770,-224 770,-204 846,-204 846,-224"/>
<text text-anchor="middle" x="808" y="-210.5" font-family="Helvetica,sans-Serif" font-size="10.00">Fault_Handler</text>
</a>
</g>
</g>
<!-- Node1&#45;&gt;Node8 -->
<g id="edge8_Node000001_Node000008" class="edge">
<title>Node1&#45;&gt;Node8</title>
<g id="a_edge8_Node000001_Node000008"><a xlink:title=" ">
<path fill="none" stroke="#63b8ff" d="M948.21,-154.11C930.01,-165.16 904.71,-179.63 881.25,-190 869.65,-195.13 856.58,-199.79 844.79,-203.61"/>
<polygon fill="#63b8ff" stroke="#63b8ff" points="949.85,-156.6 956.53,-148.38 946.18,-150.64 949.85,-156.6"/>
</a>
</g>
</g>
<!-- Node13 -->
<g id="Node000013" class="node">
<title>Node13</title>
<g id="a_Node000013"><a xlink:href="a00542.html#ga8307344d190a5459682d315fc7bfe198" target="_top" xlink:title="Executes function for initialze state machine.">
<polygon fill="white" stroke="#666666" points="681.5,-151 586.75,-151 586.75,-131 681.5,-131 681.5,-151"/>
<text text-anchor="middle" x="634.12" y="-137.5" font-family="Helvetica,sans-Serif" font-size="10.00">PCS_INIT_handler</text>
</a>
</g>
</g>
<!-- Node1&#45;&gt;Node13 -->
<g id="edge13_Node000001_Node000013" class="edge">
<title>Node1&#45;&gt;Node13</title>
<g id="a_edge13_Node000001_Node000013"><a xlink:title=" ">
<path fill="none" stroke="#63b8ff" d="M921.43,-150.67C908.39,-153.29 894.37,-155.67 881.25,-157 816.47,-163.58 799.65,-162.18 734.75,-157 717.38,-155.61 698.46,-152.89 681.82,-150.07"/>
<polygon fill="#63b8ff" stroke="#63b8ff" points="922.06,-153.9 931.12,-148.42 920.62,-147.05 922.06,-153.9"/>
</a>
</g>
</g>
<!-- Node16 -->
<g id="Node000016" class="node">
<title>Node16</title>
<g id="a_Node000016"><a xlink:href="a00542.html#gabda6b853bb6547821acd0ec87e0a4842" target="_top" xlink:title="Executes the power control soft start state machine.">
<polygon fill="white" stroke="#666666" points="877.88,-110 738.12,-110 738.12,-90 877.88,-90 877.88,-110"/>
<text text-anchor="middle" x="808" y="-96.5" font-family="Helvetica,sans-Serif" font-size="10.00">PCS_SOFT_START_handler</text>
</a>
</g>
</g>
<!-- Node1&#45;&gt;Node16 -->
<g id="edge16_Node000001_Node000016" class="edge">
<title>Node1&#45;&gt;Node16</title>
<g id="a_edge16_Node000001_Node000016"><a xlink:title=" ">
<path fill="none" stroke="#63b8ff" d="M917.74,-125.08C897.07,-120.31 873.92,-114.97 854.31,-110.45"/>
<polygon fill="#63b8ff" stroke="#63b8ff" points="916.76,-128.68 927.3,-127.52 918.34,-121.86 916.76,-128.68"/>
</a>
</g>
</g>
<!-- Node17 -->
<g id="Node000017" class="node">
<title>Node17</title>
<g id="a_Node000017"><a xlink:href="a00542.html#ga8752fbb48416e60141e205f1cbda0f98" target="_top" xlink:title="Executes the Online state.">
<polygon fill="white" stroke="#666666" points="698.75,-75 569.5,-75 569.5,-43 698.75,-43 698.75,-75"/>
<text text-anchor="start" x="577.5" y="-61.5" font-family="Helvetica,sans-Serif" font-size="10.00">PCS_UP_AND_RUNNING</text>
<text text-anchor="middle" x="634.12" y="-49.5" font-family="Helvetica,sans-Serif" font-size="10.00">_handler</text>
</a>
</g>
</g>
<!-- Node1&#45;&gt;Node17 -->
<g id="edge18_Node000001_Node000017" class="edge">
<title>Node1&#45;&gt;Node17</title>
<g id="a_edge18_Node000001_Node000017"><a xlink:title=" ">
<path fill="none" stroke="#63b8ff" d="M952.77,-121.1C934.89,-107.72 907.93,-89.86 881.25,-81 821.71,-61.22 749.87,-56.86 699.22,-56.76"/>
<polygon fill="#63b8ff" stroke="#63b8ff" points="950.18,-124.29 960.24,-127.62 954.45,-118.75 950.18,-124.29"/>
</a>
</g>
</g>
<!-- Node18 -->
<g id="Node000018" class="node">
<title>Node18</title>
<g id="a_Node000018"><a xlink:href="a00539.html#ga2c39b57545ef7b5c79bac36ab30da7d8" target="_top" xlink:title="Initialize the power control parameters.">
<polygon fill="white" stroke="#666666" points="852,-148 764,-148 764,-128 852,-128 852,-148"/>
<text text-anchor="middle" x="808" y="-134.5" font-family="Helvetica,sans-Serif" font-size="10.00">PwrCtrl_Initialize</text>
</a>
</g>
</g>
<!-- Node1&#45;&gt;Node18 -->
<g id="edge20_Node000001_Node000018" class="edge">
<title>Node1&#45;&gt;Node18</title>
<g id="a_edge20_Node000001_Node000018"><a xlink:title=" ">
<path fill="none" stroke="#63b8ff" d="M906.18,-138C887.96,-138 868.75,-138 852.27,-138"/>
<polygon fill="#63b8ff" stroke="#63b8ff" points="906.05,-141.5 916.05,-138 906.05,-134.5 906.05,-141.5"/>
</a>
</g>
</g>
<!-- Node19 -->
<g id="Node000019" class="node">
<title>Node19</title>
<g id="a_Node000019"><a xlink:href="a00541.html#ga09cbca9d9eea8e033ba27cb0f77417c3" target="_top" xlink:title="Forward/Reverse Direction related swap pattern on PWM output.">
<polygon fill="white" stroke="#666666" points="881.25,-32 734.75,-32 734.75,0 881.25,0 881.25,-32"/>
<text text-anchor="start" x="742.75" y="-18.5" font-family="Helvetica,sans-Serif" font-size="10.00">PwrCtrl_PWM_DAB_Direction</text>
<text text-anchor="middle" x="808" y="-6.5" font-family="Helvetica,sans-Serif" font-size="10.00">SpecificSwapCfg</text>
</a>
</g>
</g>
<!-- Node1&#45;&gt;Node19 -->
<g id="edge22_Node000001_Node000019" class="edge">
<title>Node1&#45;&gt;Node19</title>
<g id="a_edge22_Node000001_Node000019"><a xlink:title=" ">
<path fill="none" stroke="#63b8ff" d="M958.62,-119.45C941.53,-99.44 912.07,-67.69 881.25,-47 872.98,-41.45 863.55,-36.54 854.29,-32.36"/>
<polygon fill="#63b8ff" stroke="#63b8ff" points="956.46,-121.31 965.56,-126.73 961.82,-116.82 956.46,-121.31"/>
</a>
</g>
</g>
<!-- Node3 -->
<g id="Node000003" class="node">
<title>Node3</title>
<g id="a_Node000003"><a xlink:href="a00528.html#gaf2b5ec7aa4bf88b00eaa69cfeba83160" target="_top" xlink:title="process received data">
<polygon fill="white" stroke="#666666" points="533.5,-297 408,-297 408,-265 533.5,-265 533.5,-297"/>
<text text-anchor="start" x="416" y="-283.5" font-family="Helvetica,sans-Serif" font-size="10.00">App_PBV_DAB_Process</text>
<text text-anchor="middle" x="470.75" y="-271.5" font-family="Helvetica,sans-Serif" font-size="10.00">_Rx_Data</text>
</a>
</g>
</g>
<!-- Node2&#45;&gt;Node3 -->
<g id="edge2_Node000002_Node000003" class="edge">
<title>Node2&#45;&gt;Node3</title>
<g id="a_edge2_Node000002_Node000003"><a xlink:title=" ">
<path fill="none" stroke="#63b8ff" d="M745.2,-267.42C730.06,-270.02 713.87,-272.45 698.75,-274 643.05,-279.72 579.3,-281.25 533.57,-281.47"/>
<polygon fill="#63b8ff" stroke="#63b8ff" points="745.77,-270.69 755,-265.5 744.54,-263.8 745.77,-270.69"/>
</a>
</g>
</g>
<!-- Node7 -->
<g id="Node000007" class="node">
<title>Node7</title>
<g id="a_Node000007"><a xlink:href="a00544.html#gae5951bb40b236569aa345e1753808858" target="_top" xlink:title="API function to set the power control state forward, reverse or stop.">
<polygon fill="white" stroke="#666666" points="683,-265 585.25,-265 585.25,-245 683,-245 683,-265"/>
<text text-anchor="middle" x="634.12" y="-251.5" font-family="Helvetica,sans-Serif" font-size="10.00">PwrCtrl_SetEnable</text>
</a>
</g>
</g>
<!-- Node2&#45;&gt;Node7 -->
<g id="edge6_Node000002_Node000007" class="edge">
<title>Node2&#45;&gt;Node7</title>
<g id="a_edge6_Node000002_Node000007"><a xlink:title=" ">
<path fill="none" stroke="#63b8ff" d="M740.9,-255C721.76,-255 701.23,-255 683.4,-255"/>
<polygon fill="#63b8ff" stroke="#63b8ff" points="740.67,-258.5 750.67,-255 740.67,-251.5 740.67,-258.5"/>
</a>
</g>
</g>
<!-- Node4 -->
<g id="Node000004" class="node">
<title>Node4</title>
<g id="a_Node000004"><a xlink:href="a00528.html#gae7f76d2864d9f99538052487fb4c9570" target="_top" xlink:title="default callback">
<polygon fill="white" stroke="#666666" points="357.38,-291 297.88,-291 297.88,-271 357.38,-271 357.38,-291"/>
<text text-anchor="middle" x="327.62" y="-277.5" font-family="Helvetica,sans-Serif" font-size="10.00">protocolID</text>
</a>
</g>
</g>
<!-- Node3&#45;&gt;Node4 -->
<g id="edge3_Node000003_Node000004" class="edge">
<title>Node3&#45;&gt;Node4</title>
<g id="a_edge3_Node000003_Node000004"><a xlink:title=" ">
<path fill="none" stroke="#63b8ff" d="M397.15,-281C383.13,-281 369.22,-281 357.63,-281"/>
<polygon fill="#63b8ff" stroke="#63b8ff" points="396.85,-284.5 406.85,-281 396.85,-277.5 396.85,-284.5"/>
</a>
</g>
</g>
<!-- Node5 -->
<g id="Node000005" class="node">
<title>Node5</title>
<g id="a_Node000005"><a xlink:href="a00528.html#ga4de477d51ea04cdcfcb1e3eb3ef0053a" target="_top" xlink:title="10ms PBV task to be execution">
<polygon fill="white" stroke="#666666" points="247.25,-291 107.5,-291 107.5,-271 247.25,-271 247.25,-291"/>
<text text-anchor="middle" x="177.38" y="-277.5" font-family="Helvetica,sans-Serif" font-size="10.00">App_PBV_DAB_Task_10ms</text>
</a>
</g>
</g>
<!-- Node4&#45;&gt;Node5 -->
<g id="edge4_Node000004_Node000005" class="edge">
<title>Node4&#45;&gt;Node5</title>
<g id="a_edge4_Node000004_Node000005"><a xlink:title=" ">
<path fill="none" stroke="#63b8ff" d="M287,-281C274.82,-281 261.04,-281 247.48,-281"/>
<polygon fill="#63b8ff" stroke="#63b8ff" points="286.69,-284.5 296.69,-281 286.69,-277.5 286.69,-284.5"/>
</a>
</g>
</g>
<!-- Node6 -->
<g id="Node000006" class="node">
<title>Node6</title>
<g id="a_Node000006"><a xlink:href="a00550.html#ga05751024e03719cbe14d88fb0af408dd" target="_top" xlink:title="Tasks_10ms gets called every 10ms, put your things in it that need to be called regularly.">
<polygon fill="white" stroke="#666666" points="71.5,-291 0,-291 0,-271 71.5,-271 71.5,-291"/>
<text text-anchor="middle" x="35.75" y="-277.5" font-family="Helvetica,sans-Serif" font-size="10.00">Tasks_10ms</text>
</a>
</g>
</g>
<!-- Node5&#45;&gt;Node6 -->
<g id="edge5_Node000005_Node000006" class="edge">
<title>Node5&#45;&gt;Node6</title>
<g id="a_edge5_Node000005_Node000006"><a xlink:title=" ">
<path fill="none" stroke="#63b8ff" d="M96.4,-281C87.78,-281 79.38,-281 71.73,-281"/>
<polygon fill="#63b8ff" stroke="#63b8ff" points="96.38,-284.5 106.38,-281 96.38,-277.5 96.38,-284.5"/>
</a>
</g>
</g>
<!-- Node7&#45;&gt;Node3 -->
<g id="edge7_Node000007_Node000003" class="edge">
<title>Node7&#45;&gt;Node3</title>
<g id="a_edge7_Node000007_Node000003"><a xlink:title=" ">
<path fill="none" stroke="#63b8ff" d="M574.33,-264.47C561.18,-266.59 547.2,-268.84 533.92,-270.98"/>
<polygon fill="#63b8ff" stroke="#63b8ff" points="574.83,-267.78 584.14,-262.73 573.71,-260.87 574.83,-267.78"/>
</a>
</g>
</g>
<!-- Node9 -->
<g id="Node000009" class="node">
<title>Node9</title>
<g id="a_Node000009"><a xlink:href="a00548.html#gacd1ca209275dae0bc2388ac954858d83" target="_top" xlink:title="Executes the fault handlers.">
<polygon fill="white" stroke="#666666" points="673.62,-227 594.62,-227 594.62,-207 673.62,-207 673.62,-227"/>
<text text-anchor="middle" x="634.12" y="-213.5" font-family="Helvetica,sans-Serif" font-size="10.00">Fault_Execute</text>
</a>
</g>
</g>
<!-- Node8&#45;&gt;Node9 -->
<g id="edge9_Node000008_Node000009" class="edge">
<title>Node8&#45;&gt;Node9</title>
<g id="a_edge9_Node000008_Node000009"><a xlink:title=" ">
<path fill="none" stroke="#63b8ff" d="M758.99,-214.84C732.11,-215.31 699.04,-215.88 673.84,-216.32"/>
<polygon fill="#63b8ff" stroke="#63b8ff" points="758.77,-218.33 768.71,-214.65 758.65,-211.33 758.77,-218.33"/>
</a>
</g>
</g>
<!-- Node11 -->
<g id="Node000011" class="node">
<title>Node11</title>
<g id="a_Node000011"><a xlink:href="a00548.html#ga35608d94d8d76de809bb7588a325abc9" target="_top" xlink:title="Fault evaluation for Temperature and other slow fault detection executed every 100ms.">
<polygon fill="white" stroke="#666666" points="690.88,-189 577.38,-189 577.38,-169 690.88,-169 690.88,-189"/>
<text text-anchor="middle" x="634.12" y="-175.5" font-family="Helvetica,sans-Serif" font-size="10.00">Fault_Execute_100ms</text>
</a>
</g>
</g>
<!-- Node8&#45;&gt;Node11 -->
<g id="edge11_Node000008_Node000011" class="edge">
<title>Node8&#45;&gt;Node11</title>
<g id="a_edge11_Node000008_Node000011"><a xlink:title=" ">
<path fill="none" stroke="#63b8ff" d="M758.99,-204.22C736.38,-199.62 709.38,-194.12 686.36,-189.43"/>
<polygon fill="#63b8ff" stroke="#63b8ff" points="758.21,-207.84 768.71,-206.41 759.61,-200.98 758.21,-207.84"/>
</a>
</g>
</g>
<!-- Node10 -->
<g id="Node000010" class="node">
<title>Node10</title>
<g id="a_Node000010"><a xlink:href="a00540.html#gae32c9e5ed4d1fb98fc13b26601782c10" target="_top" xlink:title="Executes the power converter control loop.">
<polygon fill="white" stroke="#666666" points="524.88,-236 416.62,-236 416.62,-204 524.88,-204 524.88,-236"/>
<text text-anchor="start" x="424.62" y="-222.5" font-family="Helvetica,sans-Serif" font-size="10.00">ControlLoop_Interrupt</text>
<text text-anchor="middle" x="470.75" y="-210.5" font-family="Helvetica,sans-Serif" font-size="10.00">_CallBack</text>
</a>
</g>
</g>
<!-- Node9&#45;&gt;Node10 -->
<g id="edge10_Node000009_Node000010" class="edge">
<title>Node9&#45;&gt;Node10</title>
<g id="a_edge10_Node000009_Node000010"><a xlink:title=" ">
<path fill="none" stroke="#63b8ff" d="M583.65,-217.92C565.19,-218.26 544.15,-218.65 525.34,-219"/>
<polygon fill="#63b8ff" stroke="#63b8ff" points="583.54,-221.4 593.47,-217.72 583.41,-214.41 583.54,-221.4"/>
</a>
</g>
</g>
<!-- Node12 -->
<g id="Node000012" class="node">
<title>Node12</title>
<g id="a_Node000012"><a xlink:href="a00550.html#ga6d5c487ee3f418e6d0432867d11adaed" target="_top" xlink:title="Tasks_100ms gets called every 100 ms, put your things in it that need to be called regularly.">
<polygon fill="white" stroke="#666666" points="509.12,-186 432.38,-186 432.38,-166 509.12,-166 509.12,-186"/>
<text text-anchor="middle" x="470.75" y="-172.5" font-family="Helvetica,sans-Serif" font-size="10.00">Tasks_100ms</text>
</a>
</g>
</g>
<!-- Node11&#45;&gt;Node12 -->
<g id="edge12_Node000011_Node000012" class="edge">
<title>Node11&#45;&gt;Node12</title>
<g id="a_edge12_Node000011_Node000012"><a xlink:title=" ">
<path fill="none" stroke="#63b8ff" d="M566.19,-177.76C546.8,-177.4 526.31,-177.01 509.4,-176.7"/>
<polygon fill="#63b8ff" stroke="#63b8ff" points="566.07,-181.27 576.14,-177.96 566.2,-174.27 566.07,-181.27"/>
</a>
</g>
</g>
<!-- Node14 -->
<g id="Node000014" class="node">
<title>Node14</title>
<g id="a_Node000014"><a xlink:href="a00542.html#ga2408c0b52cd2c2487f43716f261434e6" target="_top" xlink:title="Manages the power control state machine.">
<polygon fill="white" stroke="#666666" points="527.12,-91 414.38,-91 414.38,-71 527.12,-71 527.12,-91"/>
<text text-anchor="middle" x="470.75" y="-77.5" font-family="Helvetica,sans-Serif" font-size="10.00">PwrCtrl_StateMachine</text>
</a>
</g>
</g>
<!-- Node13&#45;&gt;Node14 -->
<g id="edge14_Node000013_Node000014" class="edge">
<title>Node13&#45;&gt;Node14</title>
<g id="a_edge14_Node000013_Node000014"><a xlink:title=" ">
<path fill="none" stroke="#63b8ff" d="M594.77,-126.74C565.59,-115.89 526.09,-101.2 499.81,-91.43"/>
<polygon fill="#63b8ff" stroke="#63b8ff" points="593.42,-130.34 604.02,-130.55 595.86,-123.78 593.42,-130.34"/>
</a>
</g>
</g>
<!-- Node15 -->
<g id="Node000015" class="node">
<title>Node15</title>
<g id="a_Node000015"><a xlink:href="a00539.html#ga48dcb018afa53b60b6112cde00561c4b" target="_top" xlink:title="Executes the power control state machine.">
<polygon fill="white" stroke="#666666" points="372,-91 283.25,-91 283.25,-71 372,-71 372,-91"/>
<text text-anchor="middle" x="327.62" y="-77.5" font-family="Helvetica,sans-Serif" font-size="10.00">PwrCtrl_Execute</text>
</a>
</g>
</g>
<!-- Node14&#45;&gt;Node15 -->
<g id="edge15_Node000014_Node000015" class="edge">
<title>Node14&#45;&gt;Node15</title>
<g id="a_edge15_Node000014_Node000015"><a xlink:title=" ">
<path fill="none" stroke="#63b8ff" d="M403.13,-81C392.64,-81 382.04,-81 372.25,-81"/>
<polygon fill="#63b8ff" stroke="#63b8ff" points="402.97,-84.5 412.97,-81 402.97,-77.5 402.97,-84.5"/>
</a>
</g>
</g>
<!-- Node16&#45;&gt;Node14 -->
<g id="edge17_Node000016_Node000014" class="edge">
<title>Node16&#45;&gt;Node14</title>
<g id="a_edge17_Node000016_Node000014"><a xlink:title=" ">
<path fill="none" stroke="#63b8ff" d="M727.1,-95.47C665.5,-91.98 581.91,-87.24 527.41,-84.15"/>
<polygon fill="#63b8ff" stroke="#63b8ff" points="726.76,-99.01 736.94,-96.09 727.16,-92.03 726.76,-99.01"/>
</a>
</g>
</g>
<!-- Node17&#45;&gt;Node14 -->
<g id="edge19_Node000017_Node000014" class="edge">
<title>Node17&#45;&gt;Node14</title>
<g id="a_edge19_Node000017_Node000014"><a xlink:title=" ">
<path fill="none" stroke="#63b8ff" d="M558.54,-69.17C548.09,-70.59 537.51,-72.04 527.49,-73.4"/>
<polygon fill="#63b8ff" stroke="#63b8ff" points="558.91,-72.51 568.35,-67.69 557.96,-65.58 558.91,-72.51"/>
</a>
</g>
</g>
<!-- Node18&#45;&gt;Node13 -->
<g id="edge21_Node000018_Node000013" class="edge">
<title>Node18&#45;&gt;Node13</title>
<g id="a_edge21_Node000018_Node000013"><a xlink:title=" ">
<path fill="none" stroke="#63b8ff" d="M752.75,-138.95C729.96,-139.34 703.71,-139.8 681.8,-140.19"/>
<polygon fill="#63b8ff" stroke="#63b8ff" points="752.69,-142.43 762.63,-138.76 752.57,-135.43 752.69,-142.43"/>
</a>
</g>
</g>
<!-- Node20 -->
<g id="Node000020" class="node">
<title>Node20</title>
<g id="a_Node000020"><a xlink:href="a00542.html#ga42f7c8f65745b2f81bb6dbd381ea8121" target="_top" xlink:title="Executes Standby State machine.">
<polygon fill="white" stroke="#666666" points="696.12,-25 572.12,-25 572.12,-5 696.12,-5 696.12,-25"/>
<text text-anchor="middle" x="634.12" y="-11.5" font-family="Helvetica,sans-Serif" font-size="10.00">PCS_STANDBY_handler</text>
</a>
</g>
</g>
<!-- Node19&#45;&gt;Node20 -->
<g id="edge23_Node000019_Node000020" class="edge">
<title>Node19&#45;&gt;Node20</title>
<g id="a_edge23_Node000019_Node000020"><a xlink:title=" ">
<path fill="none" stroke="#63b8ff" d="M723.86,-15.52C714.66,-15.46 705.42,-15.41 696.56,-15.36"/>
<polygon fill="#63b8ff" stroke="#63b8ff" points="723.59,-19.02 733.61,-15.58 723.63,-12.02 723.59,-19.02"/>
</a>
</g>
</g>
<!-- Node20&#45;&gt;Node14 -->
<g id="edge24_Node000020_Node000014" class="edge">
<title>Node20&#45;&gt;Node14</title>
<g id="a_edge24_Node000020_Node000014"><a xlink:title=" ">
<path fill="none" stroke="#63b8ff" d="M584.2,-28.75C579.2,-30.41 574.22,-32.17 569.5,-34 541.58,-44.8 510.63,-60.32 491.19,-70.52"/>
<polygon fill="#63b8ff" stroke="#63b8ff" points="584.97,-31.86 593.44,-25.49 582.85,-25.19 584.97,-31.86"/>
</a>
</g>
</g>
</g>
</svg>

<g id="navigator" transform="translate(0 0)" fill="#404254">
  <rect fill="#f2f5e9" fill-opacity="0.5" stroke="#606060" stroke-width=".5" x="0" y="0" width="60" height="60"/>
  <use id="zoomplus" xlink:href="#zoomPlus" x="17" y="9" onmousedown="handleZoom(evt,'in')"/>
  <use id="zoomminus" xlink:href="#zoomMin" x="42" y="9" onmousedown="handleZoom(evt,'out')"/>
  <use id="reset" xlink:href="#resetDef" x="30" y="36" onmousedown="handleReset()"/>
   <use id="arrowup" xlink:href="#arrowUp" x="0" y="0" onmousedown="handlePan(0,-1)"/>
  <use id="arrowright" xlink:href="#arrowRight" x="0" y="0" onmousedown="handlePan(1,0)"/>
  <use id="arrowdown" xlink:href="#arrowDown" x="0" y="0" onmousedown="handlePan(0,1)"/>
  <use id="arrowleft" xlink:href="#arrowLeft" x="0" y="0" onmousedown="handlePan(-1,0)"/>
</g>
<svg viewBox="0 0 15 15" width="100%" height="30px" preserveAspectRatio="xMaxYMin meet">
 <g id="arrow_out" transform="scale(0.3 0.3)">
  <a xlink:href="a00541_ga79ec0c0e524a03b3a3d423308b89bb99_icgraph_org.svg" target="_base">
   <rect id="button" ry="5" rx="5" y="6" x="6" height="38" width="38"
        fill="#f2f5e9" fill-opacity="0.5" stroke="#606060" stroke-width="1.0"/>
   <path id="arrow"
     d="M 11.500037,31.436501 C 11.940474,20.09759 22.043105,11.32322 32.158766,21.979434 L 37.068811,17.246167 C 37.068811,17.246167 37.088388,32 37.088388,32 L 22.160133,31.978069 C 22.160133,31.978069 26.997745,27.140456 26.997745,27.140456 C 18.528582,18.264221 13.291696,25.230495 11.500037,31.436501 z"
     style="fill:#404040;"/>
  </a>
 </g>
</svg>

<style type='text/css'>
<![CDATA[
[data-mouse-over-selected='false'] { opacity: 0.7; }
[data-mouse-over-selected='true']  { opacity: 1.0; }
]]>
</style>
<script type="application/ecmascript"><![CDATA[
document.addEventListener('DOMContentLoaded', (event) => {
  highlightEdges();
  highlightAdjacentNodes();
});
]]></script>
</svg>
