<?xml version="1.0" encoding="UTF-8" standalone="no"?>
<!DOCTYPE svg PUBLIC "-//W3C//DTD SVG 1.1//EN"
 "http://www.w3.org/Graphics/SVG/1.1/DTD/svg11.dtd">
<!-- Generated by graphviz version 8.1.0 (20230707.0739)
 -->
<!-- Title: App_PBV_DAB_Process_Rx_Data Pages: 1 -->
<svg width="796pt" height="408pt"
 viewBox="0.00 0.00 796.00 408.00" xmlns="http://www.w3.org/2000/svg" xmlns:xlink="http://www.w3.org/1999/xlink">
<g id="graph0" class="graph" transform="scale(1 1) rotate(0) translate(4 404)">
<title>App_PBV_DAB_Process_Rx_Data</title>
<!-- Node1 -->
<g id="Node000001" class="node">
<title>Node1</title>
<g id="a_Node000001"><a xlink:title="process received data">
<polygon fill="#999999" stroke="#666666" points="125.5,-216 0,-216 0,-184 125.5,-184 125.5,-216"/>
<text text-anchor="start" x="8" y="-202.5" font-family="Helvetica,sans-Serif" font-size="10.00">App_PBV_DAB_Process</text>
<text text-anchor="middle" x="62.75" y="-190.5" font-family="Helvetica,sans-Serif" font-size="10.00">_Rx_Data</text>
</a>
</g>
</g>
<!-- Node2 -->
<g id="Node000002" class="node">
<title>Node2</title>
<g id="a_Node000002"><a xlink:href="a00535.html#ga5cfd61659ae6b17ad25e51bfc211723b" target="_top" xlink:title="Sets the fan speed.">
<polygon fill="white" stroke="#666666" points="285.5,-400 178.75,-400 178.75,-380 285.5,-380 285.5,-400"/>
<text text-anchor="middle" x="232.12" y="-386.5" font-family="Helvetica,sans-Serif" font-size="10.00">Dev_Fan_Set_Speed</text>
</a>
</g>
</g>
<!-- Node1&#45;&gt;Node2 -->
<g id="edge1_Node000001_Node000002" class="edge">
<title>Node1&#45;&gt;Node2</title>
<g id="a_edge1_Node000001_Node000002"><a xlink:title=" ">
<path fill="none" stroke="#63b8ff" d="M68.45,-216.49C79.06,-250.73 108.24,-329.75 161.5,-371 163.71,-372.71 166.06,-374.27 168.52,-375.69"/>
<polygon fill="#63b8ff" stroke="#63b8ff" points="166.88,-379.27 177.41,-380.49 169.94,-372.97 166.88,-379.27"/>
</a>
</g>
</g>
<!-- Node3 -->
<g id="Node000003" class="node">
<title>Node3</title>
<g id="a_Node000003"><a xlink:href="a00547.html#gad6514b638a32baed68543a56bedd5c5d" target="_top" xlink:title="API function to get the PWM duty cycle.">
<polygon fill="white" stroke="#666666" points="302,-362 162.25,-362 162.25,-342 302,-342 302,-362"/>
<text text-anchor="middle" x="232.12" y="-348.5" font-family="Helvetica,sans-Serif" font-size="10.00">Dev_PwrCtrl_Get_DutyCycle</text>
</a>
</g>
</g>
<!-- Node1&#45;&gt;Node3 -->
<g id="edge2_Node000001_Node000003" class="edge">
<title>Node1&#45;&gt;Node3</title>
<g id="a_edge2_Node000001_Node000003"><a xlink:title=" ">
<path fill="none" stroke="#63b8ff" d="M71.99,-216.21C86.49,-243.2 119.11,-297.4 161.5,-328 166.55,-331.64 172.19,-334.77 178.03,-337.44"/>
<polygon fill="#63b8ff" stroke="#63b8ff" points="176.37,-340.96 186.95,-341.53 179.03,-334.48 176.37,-340.96"/>
</a>
</g>
</g>
<!-- Node4 -->
<g id="Node000004" class="node">
<title>Node4</title>
<g id="a_Node000004"><a xlink:href="a00547.html#gae5e607ebc1cfbf0fcb8caa5775d5e782" target="_top" xlink:title="API function to set the power control State.">
<polygon fill="white" stroke="#666666" points="450.75,-305 338.75,-305 338.75,-285 450.75,-285 450.75,-305"/>
<text text-anchor="middle" x="394.75" y="-291.5" font-family="Helvetica,sans-Serif" font-size="10.00">Dev_PwrCtrl_SetState</text>
</a>
</g>
</g>
<!-- Node1&#45;&gt;Node4 -->
<g id="edge3_Node000001_Node000004" class="edge">
<title>Node1&#45;&gt;Node4</title>
<g id="a_edge3_Node000001_Node000004"><a xlink:title=" ">
<path fill="none" stroke="#63b8ff" d="M74.31,-216.29C90.1,-238.97 122.25,-279.07 161.5,-295 216.55,-317.35 285.18,-313.97 333.51,-307.07"/>
<polygon fill="#63b8ff" stroke="#63b8ff" points="333.75,-310.42 343.11,-305.46 332.7,-303.5 333.75,-310.42"/>
</a>
</g>
</g>
<!-- Node9 -->
<g id="Node000009" class="node">
<title>Node9</title>
<g id="a_Node000009"><a xlink:href="a00547.html#gae5951bb40b236569aa345e1753808858" target="_top" xlink:title="API function to set the power control state forward, reverse or stop.">
<polygon fill="white" stroke="#666666" points="281,-286 183.25,-286 183.25,-266 281,-266 281,-286"/>
<text text-anchor="middle" x="232.12" y="-272.5" font-family="Helvetica,sans-Serif" font-size="10.00">PwrCtrl_SetEnable</text>
</a>
</g>
</g>
<!-- Node1&#45;&gt;Node9 -->
<g id="edge8_Node000001_Node000009" class="edge">
<title>Node1&#45;&gt;Node9</title>
<g id="a_edge8_Node000001_Node000009"><a xlink:title=" ">
<path fill="none" stroke="#63b8ff" d="M87.73,-216.38C106.98,-228.93 135.05,-245.91 161.5,-257 166.1,-258.93 170.95,-260.72 175.86,-262.36"/>
<polygon fill="#63b8ff" stroke="#63b8ff" points="174.38,-265.88 184.97,-265.53 176.48,-259.2 174.38,-265.88"/>
</a>
</g>
</g>
<!-- Node10 -->
<g id="Node000010" class="node">
<title>Node10</title>
<g id="a_Node000010"><a xlink:href="a00547.html#ga70c7b962e7df84e7d49fd37a76826059" target="_top" xlink:title="API function to set the current controller reference.">
<polygon fill="white" stroke="#666666" points="288.88,-248 175.38,-248 175.38,-228 288.88,-228 288.88,-248"/>
<text text-anchor="middle" x="232.12" y="-234.5" font-family="Helvetica,sans-Serif" font-size="10.00">PwrCtrl_SetIReference</text>
</a>
</g>
</g>
<!-- Node1&#45;&gt;Node10 -->
<g id="edge10_Node000001_Node000010" class="edge">
<title>Node1&#45;&gt;Node10</title>
<g id="a_edge10_Node000001_Node000010"><a xlink:title=" ">
<path fill="none" stroke="#63b8ff" d="M125.6,-214.04C141.56,-217.67 158.67,-221.55 174.36,-225.11"/>
<polygon fill="#63b8ff" stroke="#63b8ff" points="173.44,-228.72 183.97,-227.52 174.99,-221.89 173.44,-228.72"/>
</a>
</g>
</g>
<!-- Node11 -->
<g id="Node000011" class="node">
<title>Node11</title>
<g id="a_Node000011"><a xlink:href="a00547.html#ga80737f595e2855e9361772d2c1a9852d" target="_top" xlink:title="API function to set the target prim to sec phase which will steer other modulation.">
<polygon fill="white" stroke="#666666" points="302.75,-210 161.5,-210 161.5,-190 302.75,-190 302.75,-210"/>
<text text-anchor="middle" x="232.12" y="-196.5" font-family="Helvetica,sans-Serif" font-size="10.00">PwrCtrl_SetP2SPhaseTarget</text>
</a>
</g>
</g>
<!-- Node1&#45;&gt;Node11 -->
<g id="edge11_Node000001_Node000011" class="edge">
<title>Node1&#45;&gt;Node11</title>
<g id="a_edge11_Node000001_Node000011"><a xlink:title=" ">
<path fill="none" stroke="#63b8ff" d="M125.6,-200C133.63,-200 141.94,-200 150.23,-200"/>
<polygon fill="#63b8ff" stroke="#63b8ff" points="150.06,-203.5 160.06,-200 150.06,-196.5 150.06,-203.5"/>
</a>
</g>
</g>
<!-- Node12 -->
<g id="Node000012" class="node">
<title>Node12</title>
<g id="a_Node000012"><a xlink:href="a00547.html#ga75fdd46231baccc4830fa08d2b39a3d2" target="_top" xlink:title="API function to set the target period.">
<polygon fill="white" stroke="#666666" points="293.38,-172 170.88,-172 170.88,-152 293.38,-152 293.38,-172"/>
<text text-anchor="middle" x="232.12" y="-158.5" font-family="Helvetica,sans-Serif" font-size="10.00">PwrCtrl_SetPeriodTarget</text>
</a>
</g>
</g>
<!-- Node1&#45;&gt;Node12 -->
<g id="edge12_Node000001_Node000012" class="edge">
<title>Node1&#45;&gt;Node12</title>
<g id="a_edge12_Node000001_Node000012"><a xlink:title=" ">
<path fill="none" stroke="#63b8ff" d="M125.6,-185.96C141.56,-182.33 158.67,-178.45 174.36,-174.89"/>
<polygon fill="#63b8ff" stroke="#63b8ff" points="174.99,-178.11 183.97,-172.48 173.44,-171.28 174.99,-178.11"/>
</a>
</g>
</g>
<!-- Node13 -->
<g id="Node000013" class="node">
<title>Node13</title>
<g id="a_Node000013"><a xlink:href="a00547.html#gae62d241af8152bb7989d448f30adc55e" target="_top" xlink:title="API function to set the target PWM phase.">
<polygon fill="white" stroke="#666666" points="293.38,-134 170.88,-134 170.88,-114 293.38,-114 293.38,-134"/>
<text text-anchor="middle" x="232.12" y="-120.5" font-family="Helvetica,sans-Serif" font-size="10.00">PwrCtrl_SetPhaseTarget</text>
</a>
</g>
</g>
<!-- Node1&#45;&gt;Node13 -->
<g id="edge13_Node000001_Node000013" class="edge">
<title>Node1&#45;&gt;Node13</title>
<g id="a_edge13_Node000001_Node000013"><a xlink:title=" ">
<path fill="none" stroke="#63b8ff" d="M87.73,-183.62C106.98,-171.07 135.05,-154.09 161.5,-143 166.1,-141.07 170.95,-139.28 175.86,-137.64"/>
<polygon fill="#63b8ff" stroke="#63b8ff" points="176.48,-140.8 184.97,-134.47 174.38,-134.12 176.48,-140.8"/>
</a>
</g>
</g>
<!-- Node14 -->
<g id="Node000014" class="node">
<title>Node14</title>
<g id="a_Node000014"><a xlink:href="a00547.html#ga574faff7b911d52ae6d2cf53b68a8963" target="_top" xlink:title="API function to set the power controller reference.">
<polygon fill="white" stroke="#666666" points="296,-96 168.25,-96 168.25,-76 296,-76 296,-96"/>
<text text-anchor="middle" x="232.12" y="-82.5" font-family="Helvetica,sans-Serif" font-size="10.00">PwrCtrl_SetPwrReference</text>
</a>
</g>
</g>
<!-- Node1&#45;&gt;Node14 -->
<g id="edge14_Node000001_Node000014" class="edge">
<title>Node1&#45;&gt;Node14</title>
<g id="a_edge14_Node000001_Node000014"><a xlink:title=" ">
<path fill="none" stroke="#63b8ff" d="M76.11,-183.65C93.06,-162.39 125.54,-125.53 161.5,-105 164.49,-103.29 167.65,-101.73 170.89,-100.31"/>
<polygon fill="#63b8ff" stroke="#63b8ff" points="171.79,-103.32 179.83,-96.43 169.24,-96.8 171.79,-103.32"/>
</a>
</g>
</g>
<!-- Node15 -->
<g id="Node000015" class="node">
<title>Node15</title>
<g id="a_Node000015"><a xlink:href="a00547.html#gad75e0996f58a7795b51212ca644aebd3" target="_top" xlink:title="API function to set the primary voltage controller reference, in reverse mode.">
<polygon fill="white" stroke="#666666" points="297.12,-58 167.12,-58 167.12,-38 297.12,-38 297.12,-58"/>
<text text-anchor="middle" x="232.12" y="-44.5" font-family="Helvetica,sans-Serif" font-size="10.00">PwrCtrl_SetVPriReference</text>
</a>
</g>
</g>
<!-- Node1&#45;&gt;Node15 -->
<g id="edge15_Node000001_Node000015" class="edge">
<title>Node1&#45;&gt;Node15</title>
<g id="a_edge15_Node000001_Node000015"><a xlink:title=" ">
<path fill="none" stroke="#63b8ff" d="M71.16,-183.74C84.85,-155.54 116.85,-97.66 161.5,-67 163.64,-65.53 165.88,-64.18 168.2,-62.93"/>
<polygon fill="#63b8ff" stroke="#63b8ff" points="169.49,-65.73 177.1,-58.36 166.56,-59.37 169.49,-65.73"/>
</a>
</g>
</g>
<!-- Node16 -->
<g id="Node000016" class="node">
<title>Node16</title>
<g id="a_Node000016"><a xlink:href="a00547.html#ga919933b7bef6f9fa8094848c413e7881" target="_top" xlink:title="API function to set the secondary voltage controller reference.">
<polygon fill="white" stroke="#666666" points="299.75,-20 164.5,-20 164.5,0 299.75,0 299.75,-20"/>
<text text-anchor="middle" x="232.12" y="-6.5" font-family="Helvetica,sans-Serif" font-size="10.00">PwrCtrl_SetVSecReference</text>
</a>
</g>
</g>
<!-- Node1&#45;&gt;Node16 -->
<g id="edge16_Node000001_Node000016" class="edge">
<title>Node1&#45;&gt;Node16</title>
<g id="a_edge16_Node000001_Node000016"><a xlink:title=" ">
<path fill="none" stroke="#63b8ff" d="M68.45,-183.51C79.06,-149.27 108.24,-70.25 161.5,-29 163.17,-27.71 164.93,-26.5 166.74,-25.37"/>
<polygon fill="#63b8ff" stroke="#63b8ff" points="168.03,-28.13 175.28,-20.41 164.8,-21.92 168.03,-28.13"/>
</a>
</g>
</g>
<!-- Node5 -->
<g id="Node000005" class="node">
<title>Node5</title>
<g id="a_Node000005"><a xlink:href="a00544.html#ga79ec0c0e524a03b3a3d423308b89bb99" target="_top" xlink:title="Disable the PWM output.">
<polygon fill="white" stroke="#666666" points="601.75,-305 486.75,-305 486.75,-285 601.75,-285 601.75,-305"/>
<text text-anchor="middle" x="544.25" y="-291.5" font-family="Helvetica,sans-Serif" font-size="10.00">PwrCtrl_PWM_Disable</text>
</a>
</g>
</g>
<!-- Node4&#45;&gt;Node5 -->
<g id="edge4_Node000004_Node000005" class="edge">
<title>Node4&#45;&gt;Node5</title>
<g id="a_edge4_Node000004_Node000005"><a xlink:title=" ">
<path fill="none" stroke="#63b8ff" d="M451.09,-295C459.16,-295 467.55,-295 475.83,-295"/>
<polygon fill="#63b8ff" stroke="#63b8ff" points="475.61,-298.5 485.61,-295 475.61,-291.5 475.61,-298.5"/>
</a>
</g>
</g>
<!-- Node6 -->
<g id="Node000006" class="node">
<title>Node6</title>
<g id="a_Node000006"><a xlink:href="a00562.html#ga531b59d8823e3ebda2da60f48582bcf3" target="_top" xlink:title="This inline function enables PWM override on PWMH output for specific PWM generator selected by the a...">
<polygon fill="white" stroke="#666666" points="778.25,-343 647.5,-343 647.5,-323 778.25,-323 778.25,-343"/>
<text text-anchor="middle" x="712.88" y="-329.5" font-family="Helvetica,sans-Serif" font-size="10.00">PWM_OverrideHighEnable</text>
</a>
</g>
</g>
<!-- Node5&#45;&gt;Node6 -->
<g id="edge5_Node000005_Node000006" class="edge">
<title>Node5&#45;&gt;Node6</title>
<g id="a_edge5_Node000005_Node000006"><a xlink:title=" ">
<path fill="none" stroke="#63b8ff" d="M591.22,-305.48C611.07,-310.01 634.49,-315.35 655.39,-320.12"/>
<polygon fill="#63b8ff" stroke="#63b8ff" points="654.53,-323.74 665.05,-322.55 656.08,-316.91 654.53,-323.74"/>
</a>
</g>
</g>
<!-- Node7 -->
<g id="Node000007" class="node">
<title>Node7</title>
<g id="a_Node000007"><a xlink:href="a00562.html#ga2548ca8feda75ba6ab784280679da6ae" target="_top" xlink:title="This inline function enables PWM override on PWML output for specific PWM generator selected by the a...">
<polygon fill="white" stroke="#666666" points="777.12,-305 648.62,-305 648.62,-285 777.12,-285 777.12,-305"/>
<text text-anchor="middle" x="712.88" y="-291.5" font-family="Helvetica,sans-Serif" font-size="10.00">PWM_OverrideLowEnable</text>
</a>
</g>
</g>
<!-- Node5&#45;&gt;Node7 -->
<g id="edge6_Node000005_Node000007" class="edge">
<title>Node5&#45;&gt;Node7</title>
<g id="a_edge6_Node000005_Node000007"><a xlink:title=" ">
<path fill="none" stroke="#63b8ff" d="M602.13,-295C613.53,-295 625.67,-295 637.57,-295"/>
<polygon fill="#63b8ff" stroke="#63b8ff" points="637.39,-298.5 647.39,-295 637.39,-291.5 637.39,-298.5"/>
</a>
</g>
</g>
<!-- Node8 -->
<g id="Node000008" class="node">
<title>Node8</title>
<g id="a_Node000008"><a xlink:href="a00562.html#ga83e780358618114f0d424ca7467cf751" target="_top" xlink:title="This inline function requests to update the data registers for specific PWM generator selected by the...">
<polygon fill="white" stroke="#666666" points="788,-267 637.75,-267 637.75,-247 788,-247 788,-267"/>
<text text-anchor="middle" x="712.88" y="-253.5" font-family="Helvetica,sans-Serif" font-size="10.00">PWM_SoftwareUpdateRequest</text>
</a>
</g>
</g>
<!-- Node5&#45;&gt;Node8 -->
<g id="edge7_Node000005_Node000008" class="edge">
<title>Node5&#45;&gt;Node8</title>
<g id="a_edge7_Node000005_Node000008"><a xlink:title=" ">
<path fill="none" stroke="#63b8ff" d="M591.22,-284.52C611.07,-279.99 634.49,-274.65 655.39,-269.88"/>
<polygon fill="#63b8ff" stroke="#63b8ff" points="656.08,-273.09 665.05,-267.45 654.53,-266.26 656.08,-273.09"/>
</a>
</g>
</g>
<!-- Node9&#45;&gt;Node4 -->
<g id="edge9_Node000009_Node000004" class="edge">
<title>Node9&#45;&gt;Node4</title>
<g id="a_edge9_Node000009_Node000004"><a xlink:title=" ">
<path fill="none" stroke="#63b8ff" d="M281.32,-281.7C295.88,-283.42 312.14,-285.35 327.66,-287.18"/>
<polygon fill="#63b8ff" stroke="#63b8ff" points="326.92,-290.74 337.26,-288.44 327.74,-283.79 326.92,-290.74"/>
</a>
</g>
</g>
</g>
</svg>
