<?xml version="1.0" encoding="UTF-8" standalone="no"?>
<!DOCTYPE svg PUBLIC "-//W3C//DTD SVG 1.1//EN"
 "http://www.w3.org/Graphics/SVG/1.1/DTD/svg11.dtd">
<!-- Generated by graphviz version 8.1.0 (20230707.0739)
 -->
<!-- Title: PWM_OverrideHighDisable Pages: 1 -->
<svg width="723pt" height="28pt"
 viewBox="0.00 0.00 723.25 28.00" xmlns="http://www.w3.org/2000/svg" xmlns:xlink="http://www.w3.org/1999/xlink">
<g id="graph0" class="graph" transform="scale(1 1) rotate(0) translate(4 24)">
<title>PWM_OverrideHighDisable</title>
<!-- Node1 -->
<g id="Node000001" class="node">
<title>Node1</title>
<g id="a_Node000001"><a xlink:title="This inline function disables PWM override on PWMH output for specific PWM generator selected by the ...">
<polygon fill="#999999" stroke="#666666" points="715.25,-20 582.25,-20 582.25,0 715.25,0 715.25,-20"/>
<text text-anchor="middle" x="648.75" y="-6.5" font-family="Helvetica,sans-Serif" font-size="10.00">PWM_OverrideHighDisable</text>
</a>
</g>
</g>
<!-- Node2 -->
<g id="Node000002" class="node">
<title>Node2</title>
<g id="a_Node000002"><a xlink:href="a00508.html#gae20d34fb8fc7fbaa57f6c68b2907807f" target="_top" xlink:title="Enable the PWM output.">
<polygon fill="white" stroke="#666666" points="546.25,-20 433.5,-20 433.5,0 546.25,0 546.25,-20"/>
<text text-anchor="middle" x="489.88" y="-6.5" font-family="Helvetica,sans-Serif" font-size="10.00">PwrCtrl_PWM_Enable</text>
</a>
</g>
</g>
<!-- Node1&#45;&gt;Node2 -->
<g id="edge1_Node000001_Node000002" class="edge">
<title>Node1&#45;&gt;Node2</title>
<g id="a_edge1_Node000001_Node000002"><a xlink:title=" ">
<path fill="none" stroke="#63b8ff" d="M571.15,-10C562.76,-10 554.35,-10 546.29,-10"/>
<polygon fill="#63b8ff" stroke="#63b8ff" points="571.13,-13.5 581.13,-10 571.13,-6.5 571.13,-13.5"/>
</a>
</g>
</g>
<!-- Node3 -->
<g id="Node000003" class="node">
<title>Node3</title>
<g id="a_Node000003"><a xlink:href="a00509.html#ga42f7c8f65745b2f81bb6dbd381ea8121" target="_top" xlink:title="Executes Standby State machine.">
<polygon fill="white" stroke="#666666" points="397.5,-20 273.5,-20 273.5,0 397.5,0 397.5,-20"/>
<text text-anchor="middle" x="335.5" y="-6.5" font-family="Helvetica,sans-Serif" font-size="10.00">PCS_STANDBY_handler</text>
</a>
</g>
</g>
<!-- Node2&#45;&gt;Node3 -->
<g id="edge2_Node000002_Node000003" class="edge">
<title>Node2&#45;&gt;Node3</title>
<g id="a_edge2_Node000002_Node000003"><a xlink:title=" ">
<path fill="none" stroke="#63b8ff" d="M422.09,-10C414,-10 405.77,-10 397.76,-10"/>
<polygon fill="#63b8ff" stroke="#63b8ff" points="422,-13.5 432,-10 422,-6.5 422,-13.5"/>
</a>
</g>
</g>
<!-- Node4 -->
<g id="Node000004" class="node">
<title>Node4</title>
<g id="a_Node000004"><a xlink:href="a00509.html#ga2408c0b52cd2c2487f43716f261434e6" target="_top" xlink:title="Manages the power control state machine.">
<polygon fill="white" stroke="#666666" points="237.5,-20 124.75,-20 124.75,0 237.5,0 237.5,-20"/>
<text text-anchor="middle" x="181.12" y="-6.5" font-family="Helvetica,sans-Serif" font-size="10.00">PwrCtrl_StateMachine</text>
</a>
</g>
</g>
<!-- Node3&#45;&gt;Node4 -->
<g id="edge3_Node000003_Node000004" class="edge">
<title>Node3&#45;&gt;Node4</title>
<g id="a_edge3_Node000003_Node000004"><a xlink:title=" ">
<path fill="none" stroke="#63b8ff" d="M262.55,-10C254.24,-10 245.86,-10 237.81,-10"/>
<polygon fill="#63b8ff" stroke="#63b8ff" points="262.4,-13.5 272.4,-10 262.4,-6.5 262.4,-13.5"/>
</a>
</g>
</g>
<!-- Node5 -->
<g id="Node000005" class="node">
<title>Node5</title>
<g id="a_Node000005"><a xlink:href="a00506.html#ga48dcb018afa53b60b6112cde00561c4b" target="_top" xlink:title="Executes the power control state machine.">
<polygon fill="white" stroke="#666666" points="88.75,-20 0,-20 0,0 88.75,0 88.75,-20"/>
<text text-anchor="middle" x="44.38" y="-6.5" font-family="Helvetica,sans-Serif" font-size="10.00">PwrCtrl_Execute</text>
</a>
</g>
</g>
<!-- Node4&#45;&gt;Node5 -->
<g id="edge4_Node000004_Node000005" class="edge">
<title>Node4&#45;&gt;Node5</title>
<g id="a_edge4_Node000004_Node000005"><a xlink:title=" ">
<path fill="none" stroke="#63b8ff" d="M113.57,-10C105.19,-10 96.79,-10 88.9,-10"/>
<polygon fill="#63b8ff" stroke="#63b8ff" points="113.54,-13.5 123.54,-10 113.54,-6.5 113.54,-13.5"/>
</a>
</g>
</g>
</g>
</svg>
