<?xml version="1.0" encoding="UTF-8" standalone="no"?>
<!DOCTYPE svg PUBLIC "-//W3C//DTD SVG 1.1//EN"
 "http://www.w3.org/Graphics/SVG/1.1/DTD/svg11.dtd">
<!-- Generated by graphviz version 8.1.0 (20230707.0739)
 -->
<!-- Title: App_PBV_Re_Init Pages: 1 -->
<svg width="358pt" height="28pt"
 viewBox="0.00 0.00 358.25 28.00" xmlns="http://www.w3.org/2000/svg" xmlns:xlink="http://www.w3.org/1999/xlink">
<g id="graph0" class="graph" transform="scale(1 1) rotate(0) translate(4 24)">
<title>App_PBV_Re_Init</title>
<!-- Node1 -->
<g id="Node000001" class="node">
<title>Node1</title>
<g id="a_Node000001"><a xlink:title="Reinitializes the objects if any parameters( ID, length, etc) are to be changed to the CAN or UART ob...">
<polygon fill="#999999" stroke="#666666" points="350.25,-20 256.25,-20 256.25,0 350.25,0 350.25,-20"/>
<text text-anchor="middle" x="303.25" y="-6.5" font-family="Helvetica,sans-Serif" font-size="10.00">App_PBV_Re_Init</text>
</a>
</g>
</g>
<!-- Node2 -->
<g id="Node000002" class="node">
<title>Node2</title>
<g id="a_Node000002"><a xlink:href="a00531.html#gad255673713bb77bc36791875207a4393" target="_top" xlink:title="1 second PBV task to be execution">
<polygon fill="white" stroke="#666666" points="220.25,-20 94,-20 94,0 220.25,0 220.25,-20"/>
<text text-anchor="middle" x="157.12" y="-6.5" font-family="Helvetica,sans-Serif" font-size="10.00">App_PBV_DAB_Task_1s</text>
</a>
</g>
</g>
<!-- Node1&#45;&gt;Node2 -->
<g id="edge1_Node000001_Node000002" class="edge">
<title>Node1&#45;&gt;Node2</title>
<g id="a_edge1_Node000001_Node000002"><a xlink:title=" ">
<path fill="none" stroke="#63b8ff" d="M245.12,-10C237.11,-10 228.84,-10 220.72,-10"/>
<polygon fill="#63b8ff" stroke="#63b8ff" points="244.85,-13.5 254.85,-10 244.85,-6.5 244.85,-13.5"/>
</a>
</g>
</g>
<!-- Node3 -->
<g id="Node000003" class="node">
<title>Node3</title>
<g id="a_Node000003"><a xlink:href="a00553.html#gac181d28cf7f396a9ee79b7c8b76b97ad" target="_top" xlink:title="Tasks_1s gets called every second, put your things in it that need to be called regularly.">
<polygon fill="white" stroke="#666666" points="58,-20 0,-20 0,0 58,0 58,-20"/>
<text text-anchor="middle" x="29" y="-6.5" font-family="Helvetica,sans-Serif" font-size="10.00">Tasks_1s</text>
</a>
</g>
</g>
<!-- Node2&#45;&gt;Node3 -->
<g id="edge2_Node000002_Node000003" class="edge">
<title>Node2&#45;&gt;Node3</title>
<g id="a_edge2_Node000002_Node000003"><a xlink:title=" ">
<path fill="none" stroke="#63b8ff" d="M83.07,-10C74.35,-10 65.88,-10 58.37,-10"/>
<polygon fill="#63b8ff" stroke="#63b8ff" points="82.8,-13.5 92.8,-10 82.8,-6.5 82.8,-13.5"/>
</a>
</g>
</g>
</g>
</svg>
