<?xml version="1.0" encoding="UTF-8" standalone="no"?>
<!DOCTYPE svg PUBLIC "-//W3C//DTD SVG 1.1//EN"
 "http://www.w3.org/Graphics/SVG/1.1/DTD/svg11.dtd">
<!-- Generated by graphviz version 8.1.0 (20230707.0739)
 -->
<!-- Title: CAN1_RX_FIFO_MessageIndexGet Pages: 1 -->
<svg width="563pt" height="28pt"
 viewBox="0.00 0.00 563.00 28.00" xmlns="http://www.w3.org/2000/svg" xmlns:xlink="http://www.w3.org/1999/xlink">
<g id="graph0" class="graph" transform="scale(1 1) rotate(0) translate(4 24)">
<title>CAN1_RX_FIFO_MessageIndexGet</title>
<!-- Node1 -->
<g id="Node000001" class="node">
<title>Node1</title>
<g id="a_Node000001"><a xlink:title="This function get the Receiver FIFO message index value.">
<polygon fill="#999999" stroke="#666666" points="555,-20 385.25,-20 385.25,0 555,0 555,-20"/>
<text text-anchor="middle" x="470.12" y="-6.5" font-family="Helvetica,sans-Serif" font-size="10.00">CAN1_RX_FIFO_MessageIndexGet</text>
</a>
</g>
</g>
<!-- Node2 -->
<g id="Node000002" class="node">
<title>Node2</title>
<g id="a_Node000002"><a xlink:href="a00521.html#gac27e97593d8d9bd7787d116910adc40d" target="_top" xlink:title="Returns the number of CAN messages received in all the FIFO.">
<polygon fill="white" stroke="#666666" points="349.25,-20 182.5,-20 182.5,0 349.25,0 349.25,-20"/>
<text text-anchor="middle" x="265.88" y="-6.5" font-family="Helvetica,sans-Serif" font-size="10.00">CAN1_ReceivedMessageCountGet</text>
</a>
</g>
</g>
<!-- Node1&#45;&gt;Node2 -->
<g id="edge1_Node000001_Node000002" class="edge">
<title>Node1&#45;&gt;Node2</title>
<g id="a_edge1_Node000001_Node000002"><a xlink:title=" ">
<path fill="none" stroke="#63b8ff" d="M373.87,-10C365.81,-10 357.7,-10 349.75,-10"/>
<polygon fill="#63b8ff" stroke="#63b8ff" points="373.82,-13.5 383.82,-10 373.82,-6.5 373.82,-13.5"/>
</a>
</g>
</g>
<!-- Node3 -->
<g id="Node000003" class="node">
<title>Node3</title>
<g id="a_Node000003"><a xlink:href="a00491.html#ga5fb4f1d3c69d1871c10a2c0a0ad27f8a" target="_top" xlink:title="checks the queue and if a message is received then links the data pointer to can object">
<polygon fill="white" stroke="#666666" points="146.5,-20 0,-20 0,0 146.5,0 146.5,-20"/>
<text text-anchor="middle" x="73.25" y="-6.5" font-family="Helvetica,sans-Serif" font-size="10.00">PBV_CAN_Receive_from_GUI</text>
</a>
</g>
</g>
<!-- Node2&#45;&gt;Node3 -->
<g id="edge2_Node000002_Node000003" class="edge">
<title>Node2&#45;&gt;Node3</title>
<g id="a_edge2_Node000002_Node000003"><a xlink:title=" ">
<path fill="none" stroke="#63b8ff" d="M171.3,-10C163.06,-10 154.81,-10 146.78,-10"/>
<polygon fill="#63b8ff" stroke="#63b8ff" points="171.1,-13.5 181.1,-10 171.1,-6.5 171.1,-13.5"/>
</a>
</g>
</g>
</g>
</svg>
