<?xml version="1.0" encoding="UTF-8" standalone="no"?>
<!DOCTYPE svg PUBLIC "-//W3C//DTD SVG 1.1//EN"
 "http://www.w3.org/Graphics/SVG/1.1/DTD/svg11.dtd">
<!-- Generated by graphviz version 8.1.0 (20230707.0739)
 -->
<!-- Title: PWM_SoftwareUpdateRequest Pages: 1 -->
<svg width="931pt" height="267pt"
 viewBox="0.00 0.00 931.25 266.70" xmlns="http://www.w3.org/2000/svg" xmlns:xlink="http://www.w3.org/1999/xlink">
<g id="graph0" class="graph" transform="scale(1 1) rotate(0) translate(4 262.7)">
<title>PWM_SoftwareUpdateRequest</title>
<!-- Node1 -->
<g id="Node000001" class="node">
<title>Node1</title>
<g id="a_Node000001"><a xlink:title="This inline function requests to update the data registers for specific PWM generator selected by the...">
<polygon fill="#999999" stroke="#666666" points="923.25,-75.7 773,-75.7 773,-55.7 923.25,-55.7 923.25,-75.7"/>
<text text-anchor="middle" x="848.12" y="-62.2" font-family="Helvetica,sans-Serif" font-size="10.00">PWM_SoftwareUpdateRequest</text>
</a>
</g>
</g>
<!-- Node2 -->
<g id="Node000002" class="node">
<title>Node2</title>
<g id="a_Node000002"><a xlink:href="a00508.html#ga79ec0c0e524a03b3a3d423308b89bb99" target="_top" xlink:title="Disable the PWM output.">
<polygon fill="white" stroke="#666666" points="737,-141.7 622,-141.7 622,-121.7 737,-121.7 737,-141.7"/>
<text text-anchor="middle" x="679.5" y="-128.2" font-family="Helvetica,sans-Serif" font-size="10.00">PwrCtrl_PWM_Disable</text>
</a>
</g>
</g>
<!-- Node1&#45;&gt;Node2 -->
<g id="edge1_Node000001_Node000002" class="edge">
<title>Node1&#45;&gt;Node2</title>
<g id="a_edge1_Node000001_Node000002"><a xlink:title=" ">
<path fill="none" stroke="#63b8ff" d="M810.63,-80.16C779.25,-92.59 734.76,-110.21 706.78,-121.29"/>
<polygon fill="#63b8ff" stroke="#63b8ff" points="811.71,-83.1 819.72,-76.16 809.14,-76.59 811.71,-83.1"/>
</a>
</g>
</g>
<!-- Node16 -->
<g id="Node000016" class="node">
<title>Node16</title>
<g id="a_Node000016"><a xlink:href="a00508.html#gae20d34fb8fc7fbaa57f6c68b2907807f" target="_top" xlink:title="Enable the PWM output.">
<polygon fill="white" stroke="#666666" points="735.88,-75.7 623.12,-75.7 623.12,-55.7 735.88,-55.7 735.88,-75.7"/>
<text text-anchor="middle" x="679.5" y="-62.2" font-family="Helvetica,sans-Serif" font-size="10.00">PwrCtrl_PWM_Enable</text>
</a>
</g>
</g>
<!-- Node1&#45;&gt;Node16 -->
<g id="edge17_Node000001_Node000016" class="edge">
<title>Node1&#45;&gt;Node16</title>
<g id="a_edge17_Node000001_Node000016"><a xlink:title=" ">
<path fill="none" stroke="#63b8ff" d="M761.59,-65.7C752.89,-65.7 744.24,-65.7 735.99,-65.7"/>
<polygon fill="#63b8ff" stroke="#63b8ff" points="761.58,-69.2 771.58,-65.7 761.58,-62.2 761.58,-69.2"/>
</a>
</g>
</g>
<!-- Node18 -->
<g id="Node000018" class="node">
<title>Node18</title>
<g id="a_Node000018"><a xlink:href="a00508.html#ga73f526371cadb7674354635462e836cc" target="_top" xlink:title="PWM distribution for DAB converter.">
<polygon fill="white" stroke="#666666" points="736.25,-37.7 622.75,-37.7 622.75,-17.7 736.25,-17.7 736.25,-37.7"/>
<text text-anchor="middle" x="679.5" y="-24.2" font-family="Helvetica,sans-Serif" font-size="10.00">PwrCtrl_PWM_Update</text>
</a>
</g>
</g>
<!-- Node1&#45;&gt;Node18 -->
<g id="edge20_Node000001_Node000018" class="edge">
<title>Node1&#45;&gt;Node18</title>
<g id="a_edge20_Node000001_Node000018"><a xlink:title=" ">
<path fill="none" stroke="#63b8ff" d="M790.48,-52.79C769.57,-48.02 746.16,-42.68 726.32,-38.15"/>
<polygon fill="#63b8ff" stroke="#63b8ff" points="789.62,-56.41 800.15,-55.22 791.18,-49.58 789.62,-56.41"/>
</a>
</g>
</g>
<!-- Node3 -->
<g id="Node000003" class="node">
<title>Node3</title>
<g id="a_Node000003"><a xlink:href="a00515.html#gaf27f2f24932cec222273df148f8765cb" target="_top" xlink:title="Handles the fault trip by turning off the power control switching.">
<polygon fill="white" stroke="#666666" points="554.12,-239.7 478.12,-239.7 478.12,-219.7 554.12,-219.7 554.12,-239.7"/>
<text text-anchor="middle" x="516.12" y="-226.2" font-family="Helvetica,sans-Serif" font-size="10.00">Fault_Handler</text>
</a>
</g>
</g>
<!-- Node2&#45;&gt;Node3 -->
<g id="edge2_Node000002_Node000003" class="edge">
<title>Node2&#45;&gt;Node3</title>
<g id="a_edge2_Node000002_Node000003"><a xlink:title=" ">
<path fill="none" stroke="#63b8ff" d="M662.24,-149.58C644.98,-167.53 616.09,-194.73 586,-210.7 576.25,-215.88 564.95,-219.75 554.37,-222.6"/>
<polygon fill="#63b8ff" stroke="#63b8ff" points="664.01,-152.74 668.32,-143.06 658.91,-147.95 664.01,-152.74"/>
</a>
</g>
</g>
<!-- Node9 -->
<g id="Node000009" class="node">
<title>Node9</title>
<g id="a_Node000009"><a xlink:href="a00509.html#ga8307344d190a5459682d315fc7bfe198" target="_top" xlink:title="Executes function for initialze state machine.">
<polygon fill="white" stroke="#666666" points="563.5,-201.7 468.75,-201.7 468.75,-181.7 563.5,-181.7 563.5,-201.7"/>
<text text-anchor="middle" x="516.12" y="-188.2" font-family="Helvetica,sans-Serif" font-size="10.00">PCS_INIT_handler</text>
</a>
</g>
</g>
<!-- Node2&#45;&gt;Node9 -->
<g id="edge8_Node000002_Node000009" class="edge">
<title>Node2&#45;&gt;Node9</title>
<g id="a_edge8_Node000002_Node000009"><a xlink:title=" ">
<path fill="none" stroke="#63b8ff" d="M647.74,-146.71C629.96,-155.04 607.02,-165.19 586,-172.7 577.36,-175.79 567.95,-178.68 558.96,-181.23"/>
<polygon fill="#63b8ff" stroke="#63b8ff" points="649.02,-149.5 656.55,-142.06 646.02,-143.18 649.02,-149.5"/>
</a>
</g>
</g>
<!-- Node13 -->
<g id="Node000013" class="node">
<title>Node13</title>
<g id="a_Node000013"><a xlink:href="a00509.html#gabda6b853bb6547821acd0ec87e0a4842" target="_top" xlink:title="Executes the power control soft start state machine.">
<polygon fill="white" stroke="#666666" points="586,-163.7 446.25,-163.7 446.25,-143.7 586,-143.7 586,-163.7"/>
<text text-anchor="middle" x="516.12" y="-150.2" font-family="Helvetica,sans-Serif" font-size="10.00">PCS_SOFT_START_handler</text>
</a>
</g>
</g>
<!-- Node2&#45;&gt;Node13 -->
<g id="edge12_Node000002_Node000013" class="edge">
<title>Node2&#45;&gt;Node13</title>
<g id="a_edge12_Node000002_Node000013"><a xlink:title=" ">
<path fill="none" stroke="#63b8ff" d="M610.71,-140.94C602.62,-142.05 594.35,-143.18 586.24,-144.28"/>
<polygon fill="#63b8ff" stroke="#63b8ff" points="611.17,-144.28 620.61,-139.46 610.22,-137.34 611.17,-144.28"/>
</a>
</g>
</g>
<!-- Node14 -->
<g id="Node000014" class="node">
<title>Node14</title>
<g id="a_Node000014"><a xlink:href="a00509.html#ga8752fbb48416e60141e205f1cbda0f98" target="_top" xlink:title="Executes the Online state.">
<polygon fill="white" stroke="#666666" points="580.75,-125.7 451.5,-125.7 451.5,-93.7 580.75,-93.7 580.75,-125.7"/>
<text text-anchor="start" x="459.5" y="-112.2" font-family="Helvetica,sans-Serif" font-size="10.00">PCS_UP_AND_RUNNING</text>
<text text-anchor="middle" x="516.12" y="-100.2" font-family="Helvetica,sans-Serif" font-size="10.00">_handler</text>
</a>
</g>
</g>
<!-- Node2&#45;&gt;Node14 -->
<g id="edge14_Node000002_Node000014" class="edge">
<title>Node2&#45;&gt;Node14</title>
<g id="a_edge14_Node000002_Node000014"><a xlink:title=" ">
<path fill="none" stroke="#63b8ff" d="M610.71,-122.46C600.94,-121.13 590.91,-119.76 581.21,-118.44"/>
<polygon fill="#63b8ff" stroke="#63b8ff" points="610.22,-126.06 620.61,-123.95 611.17,-119.13 610.22,-126.06"/>
</a>
</g>
</g>
<!-- Node15 -->
<g id="Node000015" class="node">
<title>Node15</title>
<g id="a_Node000015"><a xlink:href="a00506.html#ga2c39b57545ef7b5c79bac36ab30da7d8" target="_top" xlink:title="Initialize the power control parameters.">
<polygon fill="white" stroke="#666666" points="560.12,-75.7 472.12,-75.7 472.12,-55.7 560.12,-55.7 560.12,-75.7"/>
<text text-anchor="middle" x="516.12" y="-62.2" font-family="Helvetica,sans-Serif" font-size="10.00">PwrCtrl_Initialize</text>
</a>
</g>
</g>
<!-- Node2&#45;&gt;Node15 -->
<g id="edge16_Node000002_Node000015" class="edge">
<title>Node2&#45;&gt;Node15</title>
<g id="a_edge16_Node000002_Node000015"><a xlink:title=" ">
<path fill="none" stroke="#63b8ff" d="M650.99,-115.88C632.93,-105.96 608.57,-93.45 586,-84.7 577.79,-81.52 568.83,-78.64 560.18,-76.14"/>
<polygon fill="#63b8ff" stroke="#63b8ff" points="649.13,-119.41 659.57,-121.23 652.54,-113.3 649.13,-119.41"/>
</a>
</g>
</g>
<!-- Node4 -->
<g id="Node000004" class="node">
<title>Node4</title>
<g id="a_Node000004"><a xlink:href="a00515.html#gacd1ca209275dae0bc2388ac954858d83" target="_top" xlink:title="Executes the fault handlers.">
<polygon fill="white" stroke="#666666" points="393.38,-258.7 314.38,-258.7 314.38,-238.7 393.38,-238.7 393.38,-258.7"/>
<text text-anchor="middle" x="353.88" y="-245.2" font-family="Helvetica,sans-Serif" font-size="10.00">Fault_Execute</text>
</a>
</g>
</g>
<!-- Node3&#45;&gt;Node4 -->
<g id="edge3_Node000003_Node000004" class="edge">
<title>Node3&#45;&gt;Node4</title>
<g id="a_edge3_Node000003_Node000004"><a xlink:title=" ">
<path fill="none" stroke="#63b8ff" d="M467.19,-235.39C443.75,-238.17 415.9,-241.47 393.79,-244.09"/>
<polygon fill="#63b8ff" stroke="#63b8ff" points="467.44,-238.76 476.96,-234.11 466.62,-231.81 467.44,-238.76"/>
</a>
</g>
</g>
<!-- Node6 -->
<g id="Node000006" class="node">
<title>Node6</title>
<g id="a_Node000006"><a xlink:href="a00515.html#gaaa5a7a6dc7ce982dec4f07edcd73e874" target="_top" xlink:title="Initialize the fault objects.">
<polygon fill="white" stroke="#666666" points="393,-220.7 314.75,-220.7 314.75,-200.7 393,-200.7 393,-220.7"/>
<text text-anchor="middle" x="353.88" y="-207.2" font-family="Helvetica,sans-Serif" font-size="10.00">Fault_Initialize</text>
</a>
</g>
</g>
<!-- Node3&#45;&gt;Node6 -->
<g id="edge5_Node000003_Node000006" class="edge">
<title>Node3&#45;&gt;Node6</title>
<g id="a_edge5_Node000003_Node000006"><a xlink:title=" ">
<path fill="none" stroke="#63b8ff" d="M467.11,-224.01C443.49,-221.21 415.4,-217.88 393.23,-215.25"/>
<polygon fill="#63b8ff" stroke="#63b8ff" points="466.62,-227.59 476.96,-225.3 467.44,-220.64 466.62,-227.59"/>
</a>
</g>
</g>
<!-- Node7 -->
<g id="Node000007" class="node">
<title>Node7</title>
<g id="a_Node000007"><a xlink:href="a00515.html#ga5ba282b74826532870235580973f788e" target="_top" xlink:title="Fault evaluation for Temperature.">
<polygon fill="white" stroke="#666666" points="404.62,-182.7 303.12,-182.7 303.12,-162.7 404.62,-162.7 404.62,-182.7"/>
<text text-anchor="middle" x="353.88" y="-169.2" font-family="Helvetica,sans-Serif" font-size="10.00">Fault_Temp_100ms</text>
</a>
</g>
</g>
<!-- Node3&#45;&gt;Node7 -->
<g id="edge6_Node000003_Node000007" class="edge">
<title>Node3&#45;&gt;Node7</title>
<g id="a_edge6_Node000003_Node000007"><a xlink:title=" ">
<path fill="none" stroke="#63b8ff" d="M467.42,-218C460.24,-215.82 452.99,-213.38 446.25,-210.7 429.43,-204.04 426.86,-198.88 410.25,-191.7 403.16,-188.64 395.4,-185.72 387.99,-183.13"/>
<polygon fill="#63b8ff" stroke="#63b8ff" points="466.25,-221.59 476.82,-220.99 468.18,-214.86 466.25,-221.59"/>
</a>
</g>
</g>
<!-- Node5 -->
<g id="Node000005" class="node">
<title>Node5</title>
<g id="a_Node000005"><a xlink:href="a00507.html#gae32c9e5ed4d1fb98fc13b26601782c10" target="_top" xlink:title="Executes the power converter control loop.">
<polygon fill="white" stroke="#666666" points="261.5,-248.7 153.25,-248.7 153.25,-216.7 261.5,-216.7 261.5,-248.7"/>
<text text-anchor="start" x="161.25" y="-235.2" font-family="Helvetica,sans-Serif" font-size="10.00">ControlLoop_Interrupt</text>
<text text-anchor="middle" x="207.38" y="-223.2" font-family="Helvetica,sans-Serif" font-size="10.00">_CallBack</text>
</a>
</g>
</g>
<!-- Node4&#45;&gt;Node5 -->
<g id="edge4_Node000004_Node000005" class="edge">
<title>Node4&#45;&gt;Node5</title>
<g id="a_edge4_Node000004_Node000005"><a xlink:title=" ">
<path fill="none" stroke="#63b8ff" d="M303.26,-243.21C289.91,-241.73 275.42,-240.13 261.87,-238.63"/>
<polygon fill="#63b8ff" stroke="#63b8ff" points="302.83,-246.79 313.15,-244.42 303.6,-239.84 302.83,-246.79"/>
</a>
</g>
</g>
<!-- Node8 -->
<g id="Node000008" class="node">
<title>Node8</title>
<g id="a_Node000008"><a xlink:href="a00517.html#ga6d5c487ee3f418e6d0432867d11adaed" target="_top" xlink:title="Tasks_100ms gets called every 100 ms, put your things in it that need to be called regularly.">
<polygon fill="white" stroke="#666666" points="245.75,-182.7 169,-182.7 169,-162.7 245.75,-162.7 245.75,-182.7"/>
<text text-anchor="middle" x="207.38" y="-169.2" font-family="Helvetica,sans-Serif" font-size="10.00">Tasks_100ms</text>
</a>
</g>
</g>
<!-- Node7&#45;&gt;Node8 -->
<g id="edge7_Node000007_Node000008" class="edge">
<title>Node7&#45;&gt;Node8</title>
<g id="a_edge7_Node000007_Node000008"><a xlink:title=" ">
<path fill="none" stroke="#63b8ff" d="M292.1,-172.7C276.5,-172.7 260.17,-172.7 246.11,-172.7"/>
<polygon fill="#63b8ff" stroke="#63b8ff" points="291.74,-176.2 301.74,-172.7 291.74,-169.2 291.74,-176.2"/>
</a>
</g>
</g>
<!-- Node10 -->
<g id="Node000010" class="node">
<title>Node10</title>
<g id="a_Node000010"><a xlink:href="a00509.html#ga2408c0b52cd2c2487f43716f261434e6" target="_top" xlink:title="Manages the power control state machine.">
<polygon fill="white" stroke="#666666" points="410.25,-122.7 297.5,-122.7 297.5,-102.7 410.25,-102.7 410.25,-122.7"/>
<text text-anchor="middle" x="353.88" y="-109.2" font-family="Helvetica,sans-Serif" font-size="10.00">PwrCtrl_StateMachine</text>
</a>
</g>
</g>
<!-- Node9&#45;&gt;Node10 -->
<g id="edge9_Node000009_Node000010" class="edge">
<title>Node9&#45;&gt;Node10</title>
<g id="a_edge9_Node000009_Node000010"><a xlink:title=" ">
<path fill="none" stroke="#63b8ff" d="M459.17,-177.88C454.74,-176.3 450.38,-174.57 446.25,-172.7 416.17,-159.09 384.77,-136.26 367.73,-123.04"/>
<polygon fill="#63b8ff" stroke="#63b8ff" points="457.99,-181.5 468.58,-181.31 460.18,-174.86 457.99,-181.5"/>
</a>
</g>
</g>
<!-- Node11 -->
<g id="Node000011" class="node">
<title>Node11</title>
<g id="a_Node000011"><a xlink:href="a00506.html#ga48dcb018afa53b60b6112cde00561c4b" target="_top" xlink:title="Executes the power control state machine.">
<polygon fill="white" stroke="#666666" points="251.75,-122.7 163,-122.7 163,-102.7 251.75,-102.7 251.75,-122.7"/>
<text text-anchor="middle" x="207.38" y="-109.2" font-family="Helvetica,sans-Serif" font-size="10.00">PwrCtrl_Execute</text>
</a>
</g>
</g>
<!-- Node10&#45;&gt;Node11 -->
<g id="edge10_Node000010_Node000011" class="edge">
<title>Node10&#45;&gt;Node11</title>
<g id="a_edge10_Node000010_Node000011"><a xlink:title=" ">
<path fill="none" stroke="#63b8ff" d="M286.02,-112.7C274.47,-112.7 262.73,-112.7 252,-112.7"/>
<polygon fill="#63b8ff" stroke="#63b8ff" points="286.01,-116.2 296.01,-112.7 286.01,-109.2 286.01,-116.2"/>
</a>
</g>
</g>
<!-- Node12 -->
<g id="Node000012" class="node">
<title>Node12</title>
<g id="a_Node000012"><a xlink:href="a00517.html#gad258f19a1b6a855fef3c71f54bb5539e" target="_top" xlink:title="Tasks_Realtime_100us gets called directly from the timer interrupt every 100 µs.">
<polygon fill="white" stroke="#666666" points="117.25,-122.7 0,-122.7 0,-102.7 117.25,-102.7 117.25,-122.7"/>
<text text-anchor="middle" x="58.62" y="-109.2" font-family="Helvetica,sans-Serif" font-size="10.00">Tasks_Realtime_100us</text>
</a>
</g>
</g>
<!-- Node11&#45;&gt;Node12 -->
<g id="edge11_Node000011_Node000012" class="edge">
<title>Node11&#45;&gt;Node12</title>
<g id="a_edge11_Node000011_Node000012"><a xlink:title=" ">
<path fill="none" stroke="#63b8ff" d="M151.8,-112.7C140.61,-112.7 128.8,-112.7 117.5,-112.7"/>
<polygon fill="#63b8ff" stroke="#63b8ff" points="151.74,-116.2 161.74,-112.7 151.74,-109.2 151.74,-116.2"/>
</a>
</g>
</g>
<!-- Node13&#45;&gt;Node10 -->
<g id="edge13_Node000013_Node000010" class="edge">
<title>Node13&#45;&gt;Node10</title>
<g id="a_edge13_Node000013_Node000010"><a xlink:title=" ">
<path fill="none" stroke="#63b8ff" d="M463.76,-140.56C441.73,-134.93 416.36,-128.43 395.65,-123.14"/>
<polygon fill="#63b8ff" stroke="#63b8ff" points="462.72,-144.16 473.27,-143.25 464.45,-137.38 462.72,-144.16"/>
</a>
</g>
</g>
<!-- Node14&#45;&gt;Node10 -->
<g id="edge15_Node000014_Node000010" class="edge">
<title>Node14&#45;&gt;Node10</title>
<g id="a_edge15_Node000014_Node000010"><a xlink:title=" ">
<path fill="none" stroke="#63b8ff" d="M440.51,-111.1C430.47,-111.29 420.32,-111.48 410.69,-111.66"/>
<polygon fill="#63b8ff" stroke="#63b8ff" points="440.4,-114.58 450.33,-110.9 440.27,-107.59 440.4,-114.58"/>
</a>
</g>
</g>
<!-- Node17 -->
<g id="Node000017" class="node">
<title>Node17</title>
<g id="a_Node000017"><a xlink:href="a00509.html#ga42f7c8f65745b2f81bb6dbd381ea8121" target="_top" xlink:title="Executes Standby State machine.">
<polygon fill="white" stroke="#666666" points="578.12,-37.7 454.12,-37.7 454.12,-17.7 578.12,-17.7 578.12,-37.7"/>
<text text-anchor="middle" x="516.12" y="-24.2" font-family="Helvetica,sans-Serif" font-size="10.00">PCS_STANDBY_handler</text>
</a>
</g>
</g>
<!-- Node16&#45;&gt;Node17 -->
<g id="edge18_Node000016_Node000017" class="edge">
<title>Node16&#45;&gt;Node17</title>
<g id="a_edge18_Node000016_Node000017"><a xlink:title=" ">
<path fill="none" stroke="#63b8ff" d="M623.36,-52.72C603.18,-47.97 580.62,-42.66 561.5,-38.15"/>
<polygon fill="#63b8ff" stroke="#63b8ff" points="622.44,-56.33 632.98,-55.22 624.04,-49.52 622.44,-56.33"/>
</a>
</g>
</g>
<!-- Node17&#45;&gt;Node10 -->
<g id="edge19_Node000017_Node000010" class="edge">
<title>Node17&#45;&gt;Node10</title>
<g id="a_edge19_Node000017_Node000010"><a xlink:title=" ">
<path fill="none" stroke="#63b8ff" d="M458.12,-41.68C454.04,-43.21 450.04,-44.88 446.25,-46.7 414.84,-61.77 382.94,-87.79 366.41,-102.25"/>
<polygon fill="#63b8ff" stroke="#63b8ff" points="459.04,-44.73 467.36,-38.17 456.76,-38.1 459.04,-44.73"/>
</a>
</g>
</g>
<!-- Node18&#45;&gt;Node5 -->
<g id="edge21_Node000018_Node000005" class="edge">
<title>Node18&#45;&gt;Node5</title>
<g id="a_edge21_Node000018_Node000005"><a xlink:title=" ">
<path fill="none" stroke="#63b8ff" d="M631.44,-14.69C583.93,-3.67 508.82,7.91 446.25,-8.7 372.66,-28.25 346.66,-35.56 297.5,-93.7 267.54,-129.14 288.94,-154.29 261.5,-191.7 254.54,-201.19 244.8,-209.58 235.56,-216.25"/>
<polygon fill="#63b8ff" stroke="#63b8ff" points="630.48,-18.3 641.02,-17.24 632.12,-11.49 630.48,-18.3"/>
</a>
</g>
</g>
<!-- Node18&#45;&gt;Node15 -->
<g id="edge23_Node000018_Node000015" class="edge">
<title>Node18&#45;&gt;Node15</title>
<g id="a_edge23_Node000018_Node000015"><a xlink:title=" ">
<path fill="none" stroke="#63b8ff" d="M623.46,-40.66C602.86,-45.51 579.78,-50.95 560.39,-55.52"/>
<polygon fill="#63b8ff" stroke="#63b8ff" points="624.04,-43.89 632.98,-38.19 622.44,-37.07 624.04,-43.89"/>
</a>
</g>
</g>
<!-- Node18&#45;&gt;Node17 -->
<g id="edge22_Node000018_Node000017" class="edge">
<title>Node18&#45;&gt;Node17</title>
<g id="a_edge22_Node000018_Node000017"><a xlink:title=" ">
<path fill="none" stroke="#63b8ff" d="M611.68,-27.7C600.7,-27.7 589.37,-27.7 578.53,-27.7"/>
<polygon fill="#63b8ff" stroke="#63b8ff" points="611.51,-31.2 621.51,-27.7 611.51,-24.2 611.51,-31.2"/>
</a>
</g>
</g>
</g>
</svg>
