<?xml version="1.0" encoding="UTF-8" standalone="no"?>
<!DOCTYPE svg PUBLIC "-//W3C//DTD SVG 1.1//EN"
 "http://www.w3.org/Graphics/SVG/1.1/DTD/svg11.dtd">
<!-- Generated by graphviz version 8.1.0 (20230707.0739)
 -->
<!-- Title: CAN1_FIFO_InfoGet Pages: 1 -->
<svg width="498pt" height="142pt"
 viewBox="0.00 0.00 497.75 142.00" xmlns="http://www.w3.org/2000/svg" xmlns:xlink="http://www.w3.org/1999/xlink">
<g id="graph0" class="graph" transform="scale(1 1) rotate(0) translate(4 138)">
<title>CAN1_FIFO_InfoGet</title>
<!-- Node1 -->
<g id="Node000001" class="node">
<title>Node1</title>
<g id="a_Node000001"><a xlink:title="This function get the FIFO user address, message depth and payload size information.">
<polygon fill="#999999" stroke="#666666" points="489.75,-77 385.25,-77 385.25,-57 489.75,-57 489.75,-77"/>
<text text-anchor="middle" x="437.5" y="-63.5" font-family="Helvetica,sans-Serif" font-size="10.00">CAN1_FIFO_InfoGet</text>
</a>
</g>
</g>
<!-- Node2 -->
<g id="Node000002" class="node">
<title>Node2</title>
<g id="a_Node000002"><a xlink:href="a00511.html#ga4fe1df4cd9f0ce122687dcfab0713b5b" target="_top" xlink:title="Reads the received single message object.">
<polygon fill="white" stroke="#666666" points="306.12,-134 225.62,-134 225.62,-114 306.12,-114 306.12,-134"/>
<text text-anchor="middle" x="265.88" y="-120.5" font-family="Helvetica,sans-Serif" font-size="10.00">CAN1_Receive</text>
</a>
</g>
</g>
<!-- Node1&#45;&gt;Node2 -->
<g id="edge1_Node000001_Node000002" class="edge">
<title>Node1&#45;&gt;Node2</title>
<g id="a_edge1_Node000001_Node000002"><a xlink:title=" ">
<path fill="none" stroke="#63b8ff" d="M405.77,-82.04C389.3,-89.68 368.48,-98.65 349.25,-105 335.45,-109.55 320.01,-113.43 306.25,-116.46"/>
<polygon fill="#63b8ff" stroke="#63b8ff" points="406.86,-84.92 414.41,-77.49 403.88,-78.59 406.86,-84.92"/>
</a>
</g>
</g>
<!-- Node4 -->
<g id="Node000004" class="node">
<title>Node4</title>
<g id="a_Node000004"><a xlink:href="a00511.html#gac27e97593d8d9bd7787d116910adc40d" target="_top" xlink:title="Returns the number of CAN messages received in all the FIFO.">
<polygon fill="white" stroke="#666666" points="349.25,-96 182.5,-96 182.5,-76 349.25,-76 349.25,-96"/>
<text text-anchor="middle" x="265.88" y="-82.5" font-family="Helvetica,sans-Serif" font-size="10.00">CAN1_ReceivedMessageCountGet</text>
</a>
</g>
</g>
<!-- Node1&#45;&gt;Node4 -->
<g id="edge3_Node000001_Node000004" class="edge">
<title>Node1&#45;&gt;Node4</title>
<g id="a_edge3_Node000001_Node000004"><a xlink:title=" ">
<path fill="none" stroke="#63b8ff" d="M374.39,-73.96C366.35,-74.86 358.01,-75.79 349.7,-76.72"/>
<polygon fill="#63b8ff" stroke="#63b8ff" points="374.6,-77.34 384.15,-72.75 373.82,-70.39 374.6,-77.34"/>
</a>
</g>
</g>
<!-- Node5 -->
<g id="Node000005" class="node">
<title>Node5</title>
<g id="a_Node000005"><a xlink:href="a00511.html#ga2c655a58965fff8578916b59bed47297" target="_top" xlink:title="Reads the received single message object from the CAN1 receive FIFO.">
<polygon fill="white" stroke="#666666" points="333.88,-58 197.88,-58 197.88,-38 333.88,-38 333.88,-58"/>
<text text-anchor="middle" x="265.88" y="-44.5" font-family="Helvetica,sans-Serif" font-size="10.00">CAN1_ReceiveMessageGet</text>
</a>
</g>
</g>
<!-- Node1&#45;&gt;Node5 -->
<g id="edge5_Node000001_Node000005" class="edge">
<title>Node1&#45;&gt;Node5</title>
<g id="a_edge5_Node000001_Node000005"><a xlink:title=" ">
<path fill="none" stroke="#63b8ff" d="M374.41,-60.05C361.38,-58.59 347.57,-57.04 334.35,-55.56"/>
<polygon fill="#63b8ff" stroke="#63b8ff" points="373.82,-63.61 384.15,-61.25 374.6,-56.66 373.82,-63.61"/>
</a>
</g>
</g>
<!-- Node6 -->
<g id="Node000006" class="node">
<title>Node6</title>
<g id="a_Node000006"><a xlink:href="a00511.html#gad99c960d1ed589ce80aca873a90e068e" target="_top" xlink:title="Writes the CAN message object to specified transmit FIFO channel.">
<polygon fill="white" stroke="#666666" points="308,-20 223.75,-20 223.75,0 308,0 308,-20"/>
<text text-anchor="middle" x="265.88" y="-6.5" font-family="Helvetica,sans-Serif" font-size="10.00">CAN1_Transmit</text>
</a>
</g>
</g>
<!-- Node1&#45;&gt;Node6 -->
<g id="edge6_Node000001_Node000006" class="edge">
<title>Node1&#45;&gt;Node6</title>
<g id="a_edge6_Node000001_Node000006"><a xlink:title=" ">
<path fill="none" stroke="#63b8ff" d="M405.77,-51.96C389.3,-44.32 368.48,-35.35 349.25,-29 336.15,-24.68 321.56,-20.97 308.35,-18"/>
<polygon fill="#63b8ff" stroke="#63b8ff" points="403.88,-55.41 414.41,-56.51 406.86,-49.08 403.88,-55.41"/>
</a>
</g>
</g>
<!-- Node3 -->
<g id="Node000003" class="node">
<title>Node3</title>
<g id="a_Node000003"><a xlink:href="a00482.html#ga5fb4f1d3c69d1871c10a2c0a0ad27f8a" target="_top" xlink:title=" ">
<polygon fill="white" stroke="#666666" points="146.5,-115 0,-115 0,-95 146.5,-95 146.5,-115"/>
<text text-anchor="middle" x="73.25" y="-101.5" font-family="Helvetica,sans-Serif" font-size="10.00">PBV_CAN_Receive_from_GUI</text>
</a>
</g>
</g>
<!-- Node2&#45;&gt;Node3 -->
<g id="edge2_Node000002_Node000003" class="edge">
<title>Node2&#45;&gt;Node3</title>
<g id="a_edge2_Node000002_Node000003"><a xlink:title=" ">
<path fill="none" stroke="#63b8ff" d="M214.59,-118.99C193.86,-116.92 169.44,-114.49 146.83,-112.23"/>
<polygon fill="#63b8ff" stroke="#63b8ff" points="214.08,-122.55 224.38,-120.06 214.77,-115.59 214.08,-122.55"/>
</a>
</g>
</g>
<!-- Node4&#45;&gt;Node3 -->
<g id="edge4_Node000004_Node000003" class="edge">
<title>Node4&#45;&gt;Node3</title>
<g id="a_edge4_Node000004_Node000003"><a xlink:title=" ">
<path fill="none" stroke="#63b8ff" d="M171.3,-95.33C163.06,-96.15 154.81,-96.97 146.78,-97.77"/>
<polygon fill="#63b8ff" stroke="#63b8ff" points="171.49,-98.73 181.1,-94.25 170.8,-91.76 171.49,-98.73"/>
</a>
</g>
</g>
</g>
</svg>
