<?xml version="1.0" encoding="UTF-8" standalone="no"?>
<!DOCTYPE svg PUBLIC "-//W3C//DTD SVG 1.1//EN"
 "http://www.w3.org/Graphics/SVG/1.1/DTD/svg11.dtd">
<!-- Generated by graphviz version 8.1.0 (20230707.0739)
 -->
<!-- Title: PWM_OverrideHighEnable Pages: 1 -->
<!--zoomable 238 -->

<svg id="main" version="1.1" xmlns="http://www.w3.org/2000/svg" xmlns:xlink="http://www.w3.org/1999/xlink" xml:space="preserve" onload="init(evt)">
<style type="text/css"><![CDATA[
.node, .edge {opacity: 0.7;}
.node.selected, .edge.selected {opacity: 1;}
.edge:hover path { stroke: red; }
.edge:hover polygon { stroke: red; fill: red; }
]]></style>

<defs>
  <circle id="rim" cx="0" cy="0" r="7"/>
  <circle id="rim2" cx="0" cy="0" r="3.5"/>
  <g id="zoomPlus">
    <use xlink:href="#rim" fill="#404040"><set attributeName="fill" to="#808080" begin="zoomplus.mouseover" end="zoomplus.mouseout"/></use>
    <path d="M-4,0h8M0,-4v8" fill="none" stroke="white" stroke-width="1.5" pointer-events="none"/>
  </g>
  <g id="zoomMin">
    <use xlink:href="#rim" fill="#404040"><set attributeName="fill" to="#808080" begin="zoomminus.mouseover" end="zoomminus.mouseout"/></use>
    <path d="M-4,0h8" fill="none" stroke="white" stroke-width="1.5" pointer-events="none"/>
  </g>
  <g id="arrowUp" transform="translate(30 24)">
    <use xlink:href="#rim"/>
    <path pointer-events="none" fill="none" stroke="white" stroke-width="1.5" d="M0,-3.0v7 M-2.5,-0.5L0,-3.0L2.5,-0.5"/>
  </g>
  <g id="arrowRight" transform="rotate(90) translate(36 -43)">
    <use xlink:href="#rim"/>
    <path pointer-events="none" fill="none" stroke="white" stroke-width="1.5" d="M0,-3.0v7 M-2.5,-0.5L0,-3.0L2.5,-0.5"/>
  </g>
  <g id="arrowDown" transform="rotate(180) translate(-30 -48)">
    <use xlink:href="#rim"/>
    <path pointer-events="none" fill="none" stroke="white" stroke-width="1.5" d="M0,-3.0v7 M-2.5,-0.5L0,-3.0L2.5,-0.5"/>
  </g>
  <g id="arrowLeft" transform="rotate(270) translate(-36 17)">
    <use xlink:href="#rim"/>
    <path pointer-events="none" fill="none" stroke="white" stroke-width="1.5" d="M0,-3.0v7 M-2.5,-0.5L0,-3.0L2.5,-0.5"/>
  </g>
  <g id="resetDef">
    <use xlink:href="#rim2" fill="#404040"><set attributeName="fill" to="#808080" begin="reset.mouseover" end="reset.mouseout"/></use>
  </g>
</defs>
<script type="application/ecmascript">
var viewWidth = 912;
var viewHeight = 238;
var sectionId = 'dynsection-12';
</script>
<script type="application/ecmascript" xlink:href="svg.min.js"/>
<svg id="graph" class="graph">
<g id="viewport">
<title>PWM_OverrideHighEnable</title>
<!-- Node1 -->
<g id="Node000001" class="node">
<title>Node1</title>
<g id="a_Node000001"><a xlink:title="This inline function enables PWM override on PWMH output for specific PWM generator selected by the a...">
<polygon fill="#999999" stroke="#666666" points="903.75,-127 773,-127 773,-107 903.75,-107 903.75,-127"/>
<text text-anchor="middle" x="838.38" y="-113.5" font-family="Helvetica,sans-Serif" font-size="10.00">PWM_OverrideHighEnable</text>
</a>
</g>
</g>
<!-- Node2 -->
<g id="Node000002" class="node">
<title>Node2</title>
<g id="a_Node000002"><a xlink:href="a00508.html#ga79ec0c0e524a03b3a3d423308b89bb99" target="_top" xlink:title="Disable the PWM output.">
<polygon fill="white" stroke="#666666" points="737,-127 622,-127 622,-107 737,-107 737,-127"/>
<text text-anchor="middle" x="679.5" y="-113.5" font-family="Helvetica,sans-Serif" font-size="10.00">PwrCtrl_PWM_Disable</text>
</a>
</g>
</g>
<!-- Node1&#45;&gt;Node2 -->
<g id="edge1_Node000001_Node000002" class="edge">
<title>Node1&#45;&gt;Node2</title>
<g id="a_edge1_Node000001_Node000002"><a xlink:title=" ">
<path fill="none" stroke="#63b8ff" d="M761.77,-117C753.45,-117 745.08,-117 737.05,-117"/>
<polygon fill="#63b8ff" stroke="#63b8ff" points="761.66,-120.5 771.66,-117 761.66,-113.5 761.66,-120.5"/>
</a>
</g>
</g>
<!-- Node3 -->
<g id="Node000003" class="node">
<title>Node3</title>
<g id="a_Node000003"><a xlink:href="a00515.html#gacd1ca209275dae0bc2388ac954858d83" target="_top" xlink:title="Executes the fault handlers.">
<polygon fill="white" stroke="#666666" points="393.38,-222 314.38,-222 314.38,-202 393.38,-202 393.38,-222"/>
<text text-anchor="middle" x="353.88" y="-208.5" font-family="Helvetica,sans-Serif" font-size="10.00">Fault_Execute</text>
</a>
</g>
</g>
<!-- Node2&#45;&gt;Node3 -->
<g id="edge2_Node000002_Node000003" class="edge">
<title>Node2&#45;&gt;Node3</title>
<g id="a_edge2_Node000002_Node000003"><a xlink:title=" ">
<path fill="none" stroke="#63b8ff" d="M662.46,-135.54C645.5,-153.71 616.96,-180.46 586,-193 522.38,-218.77 440.98,-218.64 393.71,-215.68"/>
<polygon fill="#63b8ff" stroke="#63b8ff" points="664.7,-138.17 668.81,-128.41 659.51,-133.48 664.7,-138.17"/>
</a>
</g>
</g>
<!-- Node5 -->
<g id="Node000005" class="node">
<title>Node5</title>
<g id="a_Node000005"><a xlink:href="a00515.html#gaf27f2f24932cec222273df148f8765cb" target="_top" xlink:title="Handles the fault trip by turning off the power control switching.">
<polygon fill="white" stroke="#666666" points="554.12,-184 478.12,-184 478.12,-164 554.12,-164 554.12,-184"/>
<text text-anchor="middle" x="516.12" y="-170.5" font-family="Helvetica,sans-Serif" font-size="10.00">Fault_Handler</text>
</a>
</g>
</g>
<!-- Node2&#45;&gt;Node5 -->
<g id="edge4_Node000002_Node000005" class="edge">
<title>Node2&#45;&gt;Node5</title>
<g id="a_edge4_Node000002_Node000005"><a xlink:title=" ">
<path fill="none" stroke="#63b8ff" d="M645.49,-131.69C628.01,-139.19 606.05,-148.14 586,-155 575.91,-158.45 564.82,-161.73 554.55,-164.56"/>
<polygon fill="#63b8ff" stroke="#63b8ff" points="646.44,-134.66 654.23,-127.48 643.66,-128.24 646.44,-134.66"/>
</a>
</g>
</g>
<!-- Node8 -->
<g id="Node000008" class="node">
<title>Node8</title>
<g id="a_Node000008"><a xlink:href="a00509.html#ga8307344d190a5459682d315fc7bfe198" target="_top" xlink:title="Executes function for initialze state machine.">
<polygon fill="white" stroke="#666666" points="563.5,-146 468.75,-146 468.75,-126 563.5,-126 563.5,-146"/>
<text text-anchor="middle" x="516.12" y="-132.5" font-family="Helvetica,sans-Serif" font-size="10.00">PCS_INIT_handler</text>
</a>
</g>
</g>
<!-- Node2&#45;&gt;Node8 -->
<g id="edge8_Node000002_Node000008" class="edge">
<title>Node2&#45;&gt;Node8</title>
<g id="a_edge8_Node000002_Node000008"><a xlink:title=" ">
<path fill="none" stroke="#63b8ff" d="M610.82,-124.97C595.03,-126.83 578.57,-128.77 563.92,-130.49"/>
<polygon fill="#63b8ff" stroke="#63b8ff" points="611.08,-128.34 620.61,-123.7 610.26,-121.39 611.08,-128.34"/>
</a>
</g>
</g>
<!-- Node12 -->
<g id="Node000012" class="node">
<title>Node12</title>
<g id="a_Node000012"><a xlink:href="a00509.html#gabda6b853bb6547821acd0ec87e0a4842" target="_top" xlink:title="Executes the power control soft start state machine.">
<polygon fill="white" stroke="#666666" points="586,-108 446.25,-108 446.25,-88 586,-88 586,-108"/>
<text text-anchor="middle" x="516.12" y="-94.5" font-family="Helvetica,sans-Serif" font-size="10.00">PCS_SOFT_START_handler</text>
</a>
</g>
</g>
<!-- Node2&#45;&gt;Node12 -->
<g id="edge12_Node000002_Node000012" class="edge">
<title>Node2&#45;&gt;Node12</title>
<g id="a_edge12_Node000002_Node000012"><a xlink:title=" ">
<path fill="none" stroke="#63b8ff" d="M610.71,-109.02C602.62,-108.07 594.35,-107.09 586.24,-106.14"/>
<polygon fill="#63b8ff" stroke="#63b8ff" points="610.26,-112.61 620.61,-110.3 611.08,-105.66 610.26,-112.61"/>
</a>
</g>
</g>
<!-- Node13 -->
<g id="Node000013" class="node">
<title>Node13</title>
<g id="a_Node000013"><a xlink:href="a00509.html#ga8752fbb48416e60141e205f1cbda0f98" target="_top" xlink:title="Executes the Online state.">
<polygon fill="white" stroke="#666666" points="580.75,-70 451.5,-70 451.5,-38 580.75,-38 580.75,-70"/>
<text text-anchor="start" x="459.5" y="-56.5" font-family="Helvetica,sans-Serif" font-size="10.00">PCS_UP_AND_RUNNING</text>
<text text-anchor="middle" x="516.12" y="-44.5" font-family="Helvetica,sans-Serif" font-size="10.00">_handler</text>
</a>
</g>
</g>
<!-- Node2&#45;&gt;Node13 -->
<g id="edge14_Node000002_Node000013" class="edge">
<title>Node2&#45;&gt;Node13</title>
<g id="a_edge14_Node000002_Node000013"><a xlink:title=" ">
<path fill="none" stroke="#63b8ff" d="M644.17,-102.5C626.81,-95.27 605.36,-86.49 586,-79 578.64,-76.16 570.81,-73.22 563.16,-70.41"/>
<polygon fill="#63b8ff" stroke="#63b8ff" points="642.3,-105.93 652.88,-106.56 645,-99.47 642.3,-105.93"/>
</a>
</g>
</g>
<!-- Node14 -->
<g id="Node000014" class="node">
<title>Node14</title>
<g id="a_Node000014"><a xlink:href="a00506.html#ga2c39b57545ef7b5c79bac36ab30da7d8" target="_top" xlink:title="Initialize the power control parameters.">
<polygon fill="white" stroke="#666666" points="560.12,-20 472.12,-20 472.12,0 560.12,0 560.12,-20"/>
<text text-anchor="middle" x="516.12" y="-6.5" font-family="Helvetica,sans-Serif" font-size="10.00">PwrCtrl_Initialize</text>
</a>
</g>
</g>
<!-- Node2&#45;&gt;Node14 -->
<g id="edge16_Node000002_Node000014" class="edge">
<title>Node2&#45;&gt;Node14</title>
<g id="a_edge16_Node000002_Node000014"><a xlink:title=" ">
<path fill="none" stroke="#63b8ff" d="M663.74,-98.29C646.97,-78.27 617.79,-46.98 586,-29 578.12,-24.54 569.13,-21.08 560.31,-18.41"/>
<polygon fill="#63b8ff" stroke="#63b8ff" points="661.5,-100.07 670.53,-105.6 666.92,-95.64 661.5,-100.07"/>
</a>
</g>
</g>
<!-- Node4 -->
<g id="Node000004" class="node">
<title>Node4</title>
<g id="a_Node000004"><a xlink:href="a00507.html#gae32c9e5ed4d1fb98fc13b26601782c10" target="_top" xlink:title="Executes the power converter control loop.">
<polygon fill="white" stroke="#666666" points="261.5,-230 153.25,-230 153.25,-198 261.5,-198 261.5,-230"/>
<text text-anchor="start" x="161.25" y="-216.5" font-family="Helvetica,sans-Serif" font-size="10.00">ControlLoop_Interrupt</text>
<text text-anchor="middle" x="207.38" y="-204.5" font-family="Helvetica,sans-Serif" font-size="10.00">_CallBack</text>
</a>
</g>
</g>
<!-- Node3&#45;&gt;Node4 -->
<g id="edge3_Node000003_Node000004" class="edge">
<title>Node3&#45;&gt;Node4</title>
<g id="a_edge3_Node000003_Node000004"><a xlink:title=" ">
<path fill="none" stroke="#63b8ff" d="M303.26,-212.69C289.91,-212.87 275.42,-213.07 261.87,-213.26"/>
<polygon fill="#63b8ff" stroke="#63b8ff" points="303.2,-216.17 313.15,-212.54 303.1,-209.17 303.2,-216.17"/>
</a>
</g>
</g>
<!-- Node5&#45;&gt;Node3 -->
<g id="edge5_Node000005_Node000003" class="edge">
<title>Node5&#45;&gt;Node3</title>
<g id="a_edge5_Node000005_Node000003"><a xlink:title=" ">
<path fill="none" stroke="#63b8ff" d="M467.51,-185.29C444,-190.87 416,-197.51 393.79,-202.77"/>
<polygon fill="#63b8ff" stroke="#63b8ff" points="468.04,-188.53 476.96,-182.81 466.42,-181.72 468.04,-188.53"/>
</a>
</g>
</g>
<!-- Node6 -->
<g id="Node000006" class="node">
<title>Node6</title>
<g id="a_Node000006"><a xlink:href="a00515.html#ga5ba282b74826532870235580973f788e" target="_top" xlink:title="Fault evaluation for Temperature.">
<polygon fill="white" stroke="#666666" points="404.62,-183 303.12,-183 303.12,-163 404.62,-163 404.62,-183"/>
<text text-anchor="middle" x="353.88" y="-169.5" font-family="Helvetica,sans-Serif" font-size="10.00">Fault_Temp_100ms</text>
</a>
</g>
</g>
<!-- Node5&#45;&gt;Node6 -->
<g id="edge6_Node000005_Node000006" class="edge">
<title>Node5&#45;&gt;Node6</title>
<g id="a_edge6_Node000005_Node000006"><a xlink:title=" ">
<path fill="none" stroke="#63b8ff" d="M467.1,-173.7C447.46,-173.58 424.73,-173.44 404.89,-173.31"/>
<polygon fill="#63b8ff" stroke="#63b8ff" points="466.94,-177.21 476.96,-173.77 466.98,-170.21 466.94,-177.21"/>
</a>
</g>
</g>
<!-- Node7 -->
<g id="Node000007" class="node">
<title>Node7</title>
<g id="a_Node000007"><a xlink:href="a00517.html#ga6d5c487ee3f418e6d0432867d11adaed" target="_top" xlink:title="Tasks_100ms gets called every 100 ms, put your things in it that need to be called regularly.">
<polygon fill="white" stroke="#666666" points="245.75,-180 169,-180 169,-160 245.75,-160 245.75,-180"/>
<text text-anchor="middle" x="207.38" y="-166.5" font-family="Helvetica,sans-Serif" font-size="10.00">Tasks_100ms</text>
</a>
</g>
</g>
<!-- Node6&#45;&gt;Node7 -->
<g id="edge7_Node000006_Node000007" class="edge">
<title>Node6&#45;&gt;Node7</title>
<g id="a_edge7_Node000006_Node000007"><a xlink:title=" ">
<path fill="none" stroke="#63b8ff" d="M292.1,-171.74C276.5,-171.41 260.17,-171.08 246.11,-170.78"/>
<polygon fill="#63b8ff" stroke="#63b8ff" points="291.67,-175.25 301.74,-171.96 291.82,-168.25 291.67,-175.25"/>
</a>
</g>
</g>
<!-- Node9 -->
<g id="Node000009" class="node">
<title>Node9</title>
<g id="a_Node000009"><a xlink:href="a00509.html#ga2408c0b52cd2c2487f43716f261434e6" target="_top" xlink:title="Manages the power control state machine.">
<polygon fill="white" stroke="#666666" points="410.25,-108 297.5,-108 297.5,-88 410.25,-88 410.25,-108"/>
<text text-anchor="middle" x="353.88" y="-94.5" font-family="Helvetica,sans-Serif" font-size="10.00">PwrCtrl_StateMachine</text>
</a>
</g>
</g>
<!-- Node8&#45;&gt;Node9 -->
<g id="edge9_Node000008_Node000009" class="edge">
<title>Node8&#45;&gt;Node9</title>
<g id="a_edge9_Node000008_Node000009"><a xlink:title=" ">
<path fill="none" stroke="#63b8ff" d="M460.37,-123.02C440.33,-118.26 417.93,-112.95 398.94,-108.45"/>
<polygon fill="#63b8ff" stroke="#63b8ff" points="459.37,-126.61 469.91,-125.52 460.99,-119.8 459.37,-126.61"/>
</a>
</g>
</g>
<!-- Node10 -->
<g id="Node000010" class="node">
<title>Node10</title>
<g id="a_Node000010"><a xlink:href="a00506.html#ga48dcb018afa53b60b6112cde00561c4b" target="_top" xlink:title="Executes the power control state machine.">
<polygon fill="white" stroke="#666666" points="251.75,-108 163,-108 163,-88 251.75,-88 251.75,-108"/>
<text text-anchor="middle" x="207.38" y="-94.5" font-family="Helvetica,sans-Serif" font-size="10.00">PwrCtrl_Execute</text>
</a>
</g>
</g>
<!-- Node9&#45;&gt;Node10 -->
<g id="edge10_Node000009_Node000010" class="edge">
<title>Node9&#45;&gt;Node10</title>
<g id="a_edge10_Node000009_Node000010"><a xlink:title=" ">
<path fill="none" stroke="#63b8ff" d="M286.02,-98C274.47,-98 262.73,-98 252,-98"/>
<polygon fill="#63b8ff" stroke="#63b8ff" points="286.01,-101.5 296.01,-98 286.01,-94.5 286.01,-101.5"/>
</a>
</g>
</g>
<!-- Node11 -->
<g id="Node000011" class="node">
<title>Node11</title>
<g id="a_Node000011"><a xlink:href="a00517.html#gad258f19a1b6a855fef3c71f54bb5539e" target="_top" xlink:title="Tasks_Realtime_100us gets called directly from the timer interrupt every 100 µs.">
<polygon fill="white" stroke="#666666" points="117.25,-108 0,-108 0,-88 117.25,-88 117.25,-108"/>
<text text-anchor="middle" x="58.62" y="-94.5" font-family="Helvetica,sans-Serif" font-size="10.00">Tasks_Realtime_100us</text>
</a>
</g>
</g>
<!-- Node10&#45;&gt;Node11 -->
<g id="edge11_Node000010_Node000011" class="edge">
<title>Node10&#45;&gt;Node11</title>
<g id="a_edge11_Node000010_Node000011"><a xlink:title=" ">
<path fill="none" stroke="#63b8ff" d="M151.8,-98C140.61,-98 128.8,-98 117.5,-98"/>
<polygon fill="#63b8ff" stroke="#63b8ff" points="151.74,-101.5 161.74,-98 151.74,-94.5 151.74,-101.5"/>
</a>
</g>
</g>
<!-- Node12&#45;&gt;Node9 -->
<g id="edge13_Node000012_Node000009" class="edge">
<title>Node12&#45;&gt;Node9</title>
<g id="a_edge13_Node000012_Node000009"><a xlink:title=" ">
<path fill="none" stroke="#63b8ff" d="M434.89,-98C426.58,-98 418.28,-98 410.34,-98"/>
<polygon fill="#63b8ff" stroke="#63b8ff" points="434.77,-101.5 444.77,-98 434.77,-94.5 434.77,-101.5"/>
</a>
</g>
</g>
<!-- Node13&#45;&gt;Node9 -->
<g id="edge15_Node000013_Node000009" class="edge">
<title>Node13&#45;&gt;Node9</title>
<g id="a_edge15_Node000013_Node000009"><a xlink:title=" ">
<path fill="none" stroke="#63b8ff" d="M444.98,-73.26C427.02,-78.19 408.37,-83.31 392.74,-87.6"/>
<polygon fill="#63b8ff" stroke="#63b8ff" points="445.74,-76.41 454.45,-70.38 443.88,-69.66 445.74,-76.41"/>
</a>
</g>
</g>
</g>
</svg>

<g id="navigator" transform="translate(0 0)" fill="#404254">
  <rect fill="#f2f5e9" fill-opacity="0.5" stroke="#606060" stroke-width=".5" x="0" y="0" width="60" height="60"/>
  <use id="zoomplus" xlink:href="#zoomPlus" x="17" y="9" onmousedown="handleZoom(evt,'in')"/>
  <use id="zoomminus" xlink:href="#zoomMin" x="42" y="9" onmousedown="handleZoom(evt,'out')"/>
  <use id="reset" xlink:href="#resetDef" x="30" y="36" onmousedown="handleReset()"/>
   <use id="arrowup" xlink:href="#arrowUp" x="0" y="0" onmousedown="handlePan(0,-1)"/>
  <use id="arrowright" xlink:href="#arrowRight" x="0" y="0" onmousedown="handlePan(1,0)"/>
  <use id="arrowdown" xlink:href="#arrowDown" x="0" y="0" onmousedown="handlePan(0,1)"/>
  <use id="arrowleft" xlink:href="#arrowLeft" x="0" y="0" onmousedown="handlePan(-1,0)"/>
</g>
<svg viewBox="0 0 15 15" width="100%" height="30px" preserveAspectRatio="xMaxYMin meet">
 <g id="arrow_out" transform="scale(0.3 0.3)">
  <a xlink:href="a00526_ga531b59d8823e3ebda2da60f48582bcf3_icgraph_org.svg" target="_base">
   <rect id="button" ry="5" rx="5" y="6" x="6" height="38" width="38"
        fill="#f2f5e9" fill-opacity="0.5" stroke="#606060" stroke-width="1.0"/>
   <path id="arrow"
     d="M 11.500037,31.436501 C 11.940474,20.09759 22.043105,11.32322 32.158766,21.979434 L 37.068811,17.246167 C 37.068811,17.246167 37.088388,32 37.088388,32 L 22.160133,31.978069 C 22.160133,31.978069 26.997745,27.140456 26.997745,27.140456 C 18.528582,18.264221 13.291696,25.230495 11.500037,31.436501 z"
     style="fill:#404040;"/>
  </a>
 </g>
</svg>

<style type='text/css'>
<![CDATA[
[data-mouse-over-selected='false'] { opacity: 0.7; }
[data-mouse-over-selected='true']  { opacity: 1.0; }
]]>
</style>
<script type="application/ecmascript"><![CDATA[
document.addEventListener('DOMContentLoaded', (event) => {
  highlightEdges();
  highlightAdjacentNodes();
});
]]></script>
</svg>
