<?xml version="1.0" encoding="UTF-8" standalone="no"?>
<!DOCTYPE svg PUBLIC "-//W3C//DTD SVG 1.1//EN"
 "http://www.w3.org/Graphics/SVG/1.1/DTD/svg11.dtd">
<!-- Generated by graphviz version 8.1.0 (20230707.0739)
 -->
<!-- Title: Tasks_1s Pages: 1 -->
<svg width="752pt" height="116pt"
 viewBox="0.00 0.00 751.75 116.00" xmlns="http://www.w3.org/2000/svg" xmlns:xlink="http://www.w3.org/1999/xlink">
<g id="graph0" class="graph" transform="scale(1 1) rotate(0) translate(4 112)">
<title>Tasks_1s</title>
<!-- Node1 -->
<g id="Node000001" class="node">
<title>Node1</title>
<g id="a_Node000001"><a xlink:title="Tasks_1s gets called every second, put your things in it that need to be called regularly.">
<polygon fill="#999999" stroke="#666666" points="58,-70 0,-70 0,-50 58,-50 58,-70"/>
<text text-anchor="middle" x="29" y="-56.5" font-family="Helvetica,sans-Serif" font-size="10.00">Tasks_1s</text>
</a>
</g>
</g>
<!-- Node2 -->
<g id="Node000002" class="node">
<title>Node2</title>
<g id="a_Node000002"><a xlink:href="a00495.html#gad255673713bb77bc36791875207a4393" target="_top" xlink:title="1 second PBV task to be execution">
<polygon fill="white" stroke="#666666" points="220.25,-70 94,-70 94,-50 220.25,-50 220.25,-70"/>
<text text-anchor="middle" x="157.12" y="-56.5" font-family="Helvetica,sans-Serif" font-size="10.00">App_PBV_DAB_Task_1s</text>
</a>
</g>
</g>
<!-- Node1&#45;&gt;Node2 -->
<g id="edge1_Node000001_Node000002" class="edge">
<title>Node1&#45;&gt;Node2</title>
<g id="a_edge1_Node000001_Node000002"><a xlink:title=" ">
<path fill="none" stroke="#63b8ff" d="M58.3,-60C65.71,-60 74.04,-60 82.64,-60"/>
<polygon fill="#63b8ff" stroke="#63b8ff" points="82.63,-63.5 92.63,-60 82.63,-56.5 82.63,-63.5"/>
</a>
</g>
</g>
<!-- Node3 -->
<g id="Node000003" class="node">
<title>Node3</title>
<g id="a_Node000003"><a xlink:href="a00493.html#gab70a27b3aad7113c3983e82413ca5e4f" target="_top" xlink:title=" ">
<polygon fill="white" stroke="#666666" points="373.88,-108 279.88,-108 279.88,-88 373.88,-88 373.88,-108"/>
<text text-anchor="middle" x="326.88" y="-94.5" font-family="Helvetica,sans-Serif" font-size="10.00">App_PBV_Re_Init</text>
</a>
</g>
</g>
<!-- Node2&#45;&gt;Node3 -->
<g id="edge2_Node000002_Node000003" class="edge">
<title>Node2&#45;&gt;Node3</title>
<g id="a_edge2_Node000002_Node000003"><a xlink:title=" ">
<path fill="none" stroke="#63b8ff" d="M204.41,-70.48C224.48,-75.03 248.18,-80.4 269.3,-85.18"/>
<polygon fill="#63b8ff" stroke="#63b8ff" points="268.22,-88.75 278.74,-87.55 269.76,-81.93 268.22,-88.75"/>
</a>
</g>
</g>
<!-- Node4 -->
<g id="Node000004" class="node">
<title>Node4</title>
<g id="a_Node000004"><a xlink:href="a00493.html#ga39ed8d2ee366abaf4aa95a424f9108e3" target="_top" xlink:title=" ">
<polygon fill="white" stroke="#666666" points="378,-70 275.75,-70 275.75,-50 378,-50 378,-70"/>
<text text-anchor="middle" x="326.88" y="-56.5" font-family="Helvetica,sans-Serif" font-size="10.00">App_Send_To_PBV</text>
</a>
</g>
</g>
<!-- Node2&#45;&gt;Node4 -->
<g id="edge3_Node000002_Node000004" class="edge">
<title>Node2&#45;&gt;Node4</title>
<g id="a_edge3_Node000002_Node000004"><a xlink:title=" ">
<path fill="none" stroke="#63b8ff" d="M220.59,-60C234.99,-60 250.29,-60 264.64,-60"/>
<polygon fill="#63b8ff" stroke="#63b8ff" points="264.4,-63.5 274.4,-60 264.4,-56.5 264.4,-63.5"/>
</a>
</g>
</g>
<!-- Node5 -->
<g id="Node000005" class="node">
<title>Node5</title>
<g id="a_Node000005"><a xlink:href="a00501.html#gac9618e1ca87e77920c94cdfdcc80321a" target="_top" xlink:title="This converts the raw values to temperature celcius as per device lookup table.">
<polygon fill="white" stroke="#666666" points="397.5,-32 256.25,-32 256.25,0 397.5,0 397.5,-32"/>
<text text-anchor="start" x="264.25" y="-18.5" font-family="Helvetica,sans-Serif" font-size="10.00">Dev_Temp_Get_Temperature</text>
<text text-anchor="middle" x="326.88" y="-6.5" font-family="Helvetica,sans-Serif" font-size="10.00">_Celcius</text>
</a>
</g>
</g>
<!-- Node2&#45;&gt;Node5 -->
<g id="edge4_Node000002_Node000005" class="edge">
<title>Node2&#45;&gt;Node5</title>
<g id="a_edge4_Node000002_Node000005"><a xlink:title=" ">
<path fill="none" stroke="#63b8ff" d="M197.88,-49.57C214.23,-45.28 233.72,-40.17 252.49,-35.25"/>
<polygon fill="#63b8ff" stroke="#63b8ff" points="253.34,-38.38 262.13,-32.46 251.57,-31.61 253.34,-38.38"/>
</a>
</g>
</g>
<!-- Node6 -->
<g id="Node000006" class="node">
<title>Node6</title>
<g id="a_Node000006"><a xlink:href="a00501.html#gaed1c98bc3ba65035d1ac0bdda433d812" target="_top" xlink:title="Returns the temperature average value.">
<polygon fill="white" stroke="#666666" points="582.25,-26 433.5,-26 433.5,-6 582.25,-6 582.25,-26"/>
<text text-anchor="middle" x="507.88" y="-12.5" font-family="Helvetica,sans-Serif" font-size="10.00">Average_Temp_ADC_Samples</text>
</a>
</g>
</g>
<!-- Node5&#45;&gt;Node6 -->
<g id="edge5_Node000005_Node000006" class="edge">
<title>Node5&#45;&gt;Node6</title>
<g id="a_edge5_Node000005_Node000006"><a xlink:title=" ">
<path fill="none" stroke="#63b8ff" d="M397.85,-16C405.9,-16 414.16,-16 422.37,-16"/>
<polygon fill="#63b8ff" stroke="#63b8ff" points="422.11,-19.5 432.11,-16 422.11,-12.5 422.11,-19.5"/>
</a>
</g>
</g>
<!-- Node7 -->
<g id="Node000007" class="node">
<title>Node7</title>
<g id="a_Node000007"><a xlink:href="a00501.html#ga87aa48cb3d8848b8dc9bee6ce978b1b1" target="_top" xlink:title="Averages the temperature ADC samples.">
<polygon fill="white" stroke="#666666" points="743.75,-26 618.25,-26 618.25,-6 743.75,-6 743.75,-26"/>
<text text-anchor="middle" x="681" y="-12.5" font-family="Helvetica,sans-Serif" font-size="10.00">Temp_Calculate_Average</text>
</a>
</g>
</g>
<!-- Node6&#45;&gt;Node7 -->
<g id="edge6_Node000006_Node000007" class="edge">
<title>Node6&#45;&gt;Node7</title>
<g id="a_edge6_Node000006_Node000007"><a xlink:title=" ">
<path fill="none" stroke="#63b8ff" d="M582.44,-16C590.54,-16 598.78,-16 606.87,-16"/>
<polygon fill="#63b8ff" stroke="#63b8ff" points="606.78,-19.5 616.78,-16 606.78,-12.5 606.78,-19.5"/>
</a>
</g>
</g>
</g>
</svg>
