<?xml version="1.0" encoding="UTF-8" standalone="no"?>
<!DOCTYPE svg PUBLIC "-//W3C//DTD SVG 1.1//EN"
 "http://www.w3.org/Graphics/SVG/1.1/DTD/svg11.dtd">
<!-- Generated by graphviz version 8.1.0 (20230707.0739)
 -->
<!-- Title: Convert_From_Percentage Pages: 1 -->
<svg width="532pt" height="66pt"
 viewBox="0.00 0.00 531.75 66.00" xmlns="http://www.w3.org/2000/svg" xmlns:xlink="http://www.w3.org/1999/xlink">
<g id="graph0" class="graph" transform="scale(1 1) rotate(0) translate(4 62)">
<title>Convert_From_Percentage</title>
<!-- Node1 -->
<g id="Node000001" class="node">
<title>Node1</title>
<g id="a_Node000001"><a xlink:title="Converts the percentage value to number of ticks.">
<polygon fill="#999999" stroke="#666666" points="523.75,-39 393,-39 393,-19 523.75,-19 523.75,-39"/>
<text text-anchor="middle" x="458.38" y="-25.5" font-family="Helvetica,sans-Serif" font-size="10.00">Convert_From_Percentage</text>
</a>
</g>
</g>
<!-- Node2 -->
<g id="Node000002" class="node">
<title>Node2</title>
<g id="a_Node000002"><a xlink:href="a00535.html#ga66c5db181798514534d7f97b622ca35e" target="_top" xlink:title="Calculates the fan speed.">
<polygon fill="white" stroke="#666666" points="354.75,-58 265.25,-58 265.25,-38 354.75,-38 354.75,-58"/>
<text text-anchor="middle" x="310" y="-44.5" font-family="Helvetica,sans-Serif" font-size="10.00">Calculate_Speed</text>
</a>
</g>
</g>
<!-- Node1&#45;&gt;Node2 -->
<g id="edge1_Node000001_Node000002" class="edge">
<title>Node1&#45;&gt;Node2</title>
<g id="a_edge1_Node000001_Node000002"><a xlink:title=" ">
<path fill="none" stroke="#63b8ff" d="M381.97,-38.79C372.78,-39.98 363.64,-41.17 355.12,-42.27"/>
<polygon fill="#63b8ff" stroke="#63b8ff" points="382.28,-42.15 391.75,-37.39 381.38,-35.21 382.28,-42.15"/>
</a>
</g>
</g>
<!-- Node5 -->
<g id="Node000005" class="node">
<title>Node5</title>
<g id="a_Node000005"><a xlink:href="a00535.html#gad4274efc956bcca058565b186c2fd1a0" target="_top" xlink:title="This function initializes the fan object.">
<polygon fill="white" stroke="#666666" points="357,-20 263,-20 263,0 357,0 357,-20"/>
<text text-anchor="middle" x="310" y="-6.5" font-family="Helvetica,sans-Serif" font-size="10.00">Dev_Fan_Initialize</text>
</a>
</g>
</g>
<!-- Node1&#45;&gt;Node5 -->
<g id="edge4_Node000001_Node000005" class="edge">
<title>Node1&#45;&gt;Node5</title>
<g id="a_edge4_Node000001_Node000005"><a xlink:title=" ">
<path fill="none" stroke="#63b8ff" d="M382.06,-19.22C373.61,-18.13 365.2,-17.04 357.28,-16.01"/>
<polygon fill="#63b8ff" stroke="#63b8ff" points="381.38,-22.79 391.75,-20.61 382.28,-15.85 381.38,-22.79"/>
</a>
</g>
</g>
<!-- Node3 -->
<g id="Node000003" class="node">
<title>Node3</title>
<g id="a_Node000003"><a xlink:href="a00535.html#ga1bd7dce99469a41bbb705d939ea512ad" target="_top" xlink:title="this function needs to be called every 100ms it contains the code to update the status of the fan">
<polygon fill="white" stroke="#666666" points="227,-58 112.75,-58 112.75,-38 227,-38 227,-58"/>
<text text-anchor="middle" x="169.88" y="-44.5" font-family="Helvetica,sans-Serif" font-size="10.00">Dev_Fan_Task_100ms</text>
</a>
</g>
</g>
<!-- Node2&#45;&gt;Node3 -->
<g id="edge2_Node000002_Node000003" class="edge">
<title>Node2&#45;&gt;Node3</title>
<g id="a_edge2_Node000002_Node000003"><a xlink:title=" ">
<path fill="none" stroke="#63b8ff" d="M253.97,-48C245.15,-48 236.02,-48 227.17,-48"/>
<polygon fill="#63b8ff" stroke="#63b8ff" points="253.92,-51.5 263.92,-48 253.92,-44.5 253.92,-51.5"/>
</a>
</g>
</g>
<!-- Node4 -->
<g id="Node000004" class="node">
<title>Node4</title>
<g id="a_Node000004"><a xlink:href="a00553.html#ga6d5c487ee3f418e6d0432867d11adaed" target="_top" xlink:title="Tasks_100ms gets called every 100 ms, put your things in it that need to be called regularly.">
<polygon fill="white" stroke="#666666" points="76.75,-58 0,-58 0,-38 76.75,-38 76.75,-58"/>
<text text-anchor="middle" x="38.38" y="-44.5" font-family="Helvetica,sans-Serif" font-size="10.00">Tasks_100ms</text>
</a>
</g>
</g>
<!-- Node3&#45;&gt;Node4 -->
<g id="edge3_Node000003_Node000004" class="edge">
<title>Node3&#45;&gt;Node4</title>
<g id="a_edge3_Node000003_Node000004"><a xlink:title=" ">
<path fill="none" stroke="#63b8ff" d="M101.71,-48C93.22,-48 84.78,-48 76.98,-48"/>
<polygon fill="#63b8ff" stroke="#63b8ff" points="101.45,-51.5 111.45,-48 101.45,-44.5 101.45,-51.5"/>
</a>
</g>
</g>
</g>
</svg>
