<?xml version="1.0" encoding="UTF-8" standalone="no"?>
<!DOCTYPE svg PUBLIC "-//W3C//DTD SVG 1.1//EN"
 "http://www.w3.org/Graphics/SVG/1.1/DTD/svg11.dtd">
<!-- Generated by graphviz version 8.1.0 (20230707.0739)
 -->
<!-- Title: CRC_CalculationResultRawGet Pages: 1 -->
<svg width="720pt" height="104pt"
 viewBox="0.00 0.00 720.00 104.00" xmlns="http://www.w3.org/2000/svg" xmlns:xlink="http://www.w3.org/1999/xlink">
<g id="graph0" class="graph" transform="scale(1 1) rotate(0) translate(4 100)">
<title>CRC_CalculationResultRawGet</title>
<!-- Node1 -->
<g id="Node000001" class="node">
<title>Node1</title>
<g id="a_Node000001"><a xlink:title="Gets the CRC raw result if the calculation is done.">
<polygon fill="#999999" stroke="#666666" points="712,-58 560.25,-58 560.25,-38 712,-38 712,-58"/>
<text text-anchor="middle" x="636.12" y="-44.5" font-family="Helvetica,sans-Serif" font-size="10.00">CRC_CalculationResultRawGet</text>
</a>
</g>
</g>
<!-- Node2 -->
<g id="Node000002" class="node">
<title>Node2</title>
<g id="a_Node000002"><a xlink:href="a00557.html#ga595814562acde8c6c22c92af9c33ca16" target="_top" xlink:title="Gets the CRC result if the calculation is done.">
<polygon fill="white" stroke="#666666" points="320.75,-96 187.75,-96 187.75,-76 320.75,-76 320.75,-96"/>
<text text-anchor="middle" x="254.25" y="-82.5" font-family="Helvetica,sans-Serif" font-size="10.00">CRC_CalculationResultGet</text>
</a>
</g>
</g>
<!-- Node1&#45;&gt;Node2 -->
<g id="edge1_Node000001_Node000002" class="edge">
<title>Node1&#45;&gt;Node2</title>
<g id="a_edge1_Node000001_Node000002"><a xlink:title=" ">
<path fill="none" stroke="#63b8ff" d="M569.88,-60.29C554.93,-62.8 539.07,-65.21 524.25,-67 455.23,-75.33 375.77,-80.39 321.2,-83.17"/>
<polygon fill="#63b8ff" stroke="#63b8ff" points="570.32,-63.59 579.58,-58.45 569.13,-56.69 570.32,-63.59"/>
</a>
</g>
</g>
<!-- Node3 -->
<g id="Node000003" class="node">
<title>Node3</title>
<g id="a_Node000003"><a xlink:href="a00557.html#gae32b26f5e43c6cb51a808454b8645c3a" target="_top" xlink:title="Gets the CRC reversed value of result if the calculation is done.">
<polygon fill="white" stroke="#666666" points="524.25,-58 356.75,-58 356.75,-38 524.25,-38 524.25,-58"/>
<text text-anchor="middle" x="440.5" y="-44.5" font-family="Helvetica,sans-Serif" font-size="10.00">CRC_CalculationResultReverseGet</text>
</a>
</g>
</g>
<!-- Node1&#45;&gt;Node3 -->
<g id="edge2_Node000001_Node000003" class="edge">
<title>Node1&#45;&gt;Node3</title>
<g id="a_edge2_Node000001_Node000003"><a xlink:title=" ">
<path fill="none" stroke="#63b8ff" d="M549.02,-48C540.91,-48 532.71,-48 524.63,-48"/>
<polygon fill="#63b8ff" stroke="#63b8ff" points="548.99,-51.5 558.99,-48 548.99,-44.5 548.99,-51.5"/>
</a>
</g>
</g>
<!-- Node6 -->
<g id="Node000006" class="node">
<title>Node6</title>
<g id="a_Node000006"><a xlink:href="a00557.html#gad79b80b3d8a690fbfa807ce0a3a7d399" target="_top" xlink:title="Gets the CRC XOR&#39;d value of the result if the calculation is done.">
<polygon fill="white" stroke="#666666" points="516.75,-20 364.25,-20 364.25,0 516.75,0 516.75,-20"/>
<text text-anchor="middle" x="440.5" y="-6.5" font-family="Helvetica,sans-Serif" font-size="10.00">CRC_CalculationResultXORGet</text>
</a>
</g>
</g>
<!-- Node1&#45;&gt;Node6 -->
<g id="edge6_Node000001_Node000006" class="edge">
<title>Node1&#45;&gt;Node6</title>
<g id="a_edge6_Node000001_Node000006"><a xlink:title=" ">
<path fill="none" stroke="#63b8ff" d="M570.97,-35.41C546.25,-30.56 518.32,-25.08 494.75,-20.45"/>
<polygon fill="#63b8ff" stroke="#63b8ff" points="570.22,-39.02 580.7,-37.52 571.56,-32.16 570.22,-39.02"/>
</a>
</g>
</g>
<!-- Node3&#45;&gt;Node2 -->
<g id="edge3_Node000003_Node000002" class="edge">
<title>Node3&#45;&gt;Node2</title>
<g id="a_edge3_Node000003_Node000002"><a xlink:title=" ">
<path fill="none" stroke="#63b8ff" d="M378.13,-60.66C354.69,-65.49 328.25,-70.94 305.92,-75.55"/>
<polygon fill="#63b8ff" stroke="#63b8ff" points="378.58,-63.93 387.67,-58.48 377.16,-57.08 378.58,-63.93"/>
</a>
</g>
</g>
<!-- Node4 -->
<g id="Node000004" class="node">
<title>Node4</title>
<g id="a_Node000004"><a xlink:href="a00525.html#ga24413d8db99647b26a8e7ae233c5c63e" target="_top" xlink:title="Calculates the CRC on 16 bit stream of data.">
<polygon fill="white" stroke="#666666" points="308,-58 200.5,-58 200.5,-38 308,-38 308,-58"/>
<text text-anchor="middle" x="254.25" y="-44.5" font-family="Helvetica,sans-Serif" font-size="10.00">PBV_Calculate_CRC</text>
</a>
</g>
</g>
<!-- Node3&#45;&gt;Node4 -->
<g id="edge4_Node000003_Node000004" class="edge">
<title>Node3&#45;&gt;Node4</title>
<g id="a_edge4_Node000003_Node000004"><a xlink:title=" ">
<path fill="none" stroke="#63b8ff" d="M345.54,-48C332.74,-48 320,-48 308.29,-48"/>
<polygon fill="#63b8ff" stroke="#63b8ff" points="345.27,-51.5 355.27,-48 345.27,-44.5 345.27,-51.5"/>
</a>
</g>
</g>
<!-- Node5 -->
<g id="Node000005" class="node">
<title>Node5</title>
<g id="a_Node000005"><a xlink:href="a00525.html#ga89e085a040c28fbc1aa46e802a199aef" target="_top" xlink:title="implements the state machine for UART Frame receiving from PBV.">
<polygon fill="white" stroke="#666666" points="151.75,-58 0,-58 0,-38 151.75,-38 151.75,-58"/>
<text text-anchor="middle" x="75.88" y="-44.5" font-family="Helvetica,sans-Serif" font-size="10.00">PBV_UART_Receive_from_GUI</text>
</a>
</g>
</g>
<!-- Node4&#45;&gt;Node5 -->
<g id="edge5_Node000004_Node000005" class="edge">
<title>Node4&#45;&gt;Node5</title>
<g id="a_edge5_Node000004_Node000005"><a xlink:title=" ">
<path fill="none" stroke="#63b8ff" d="M189.38,-48C177.22,-48 164.4,-48 151.93,-48"/>
<polygon fill="#63b8ff" stroke="#63b8ff" points="189.33,-51.5 199.33,-48 189.33,-44.5 189.33,-51.5"/>
</a>
</g>
</g>
</g>
</svg>
