<?xml version="1.0" encoding="UTF-8" standalone="no"?>
<!DOCTYPE svg PUBLIC "-//W3C//DTD SVG 1.1//EN"
 "http://www.w3.org/Graphics/SVG/1.1/DTD/svg11.dtd">
<!-- Generated by graphviz version 8.1.0 (20230707.0739)
 -->
<!-- Title: PWM_PCI_Fault_TimetoTerminateAfterEvent Pages: 1 -->
<svg width="518pt" height="40pt"
 viewBox="0.00 0.00 518.00 40.00" xmlns="http://www.w3.org/2000/svg" xmlns:xlink="http://www.w3.org/1999/xlink">
<g id="graph0" class="graph" transform="scale(1 1) rotate(0) translate(4 36)">
<title>PWM_PCI_Fault_TimetoTerminateAfterEvent</title>
<!-- Node1 -->
<g id="Node000001" class="node">
<title>Node1</title>
<g id="a_Node000001"><a xlink:title="Set TSYNCDIS bit to determine when PWM should stop after a fault occurs.">
<polygon fill="#999999" stroke="#666666" points="510,-32 344,-32 344,0 510,0 510,-32"/>
<text text-anchor="start" x="352" y="-18.5" font-family="Helvetica,sans-Serif" font-size="10.00">PWM_PCI_Fault_TimetoTerminate</text>
<text text-anchor="middle" x="427" y="-6.5" font-family="Helvetica,sans-Serif" font-size="10.00">AfterEvent</text>
</a>
</g>
</g>
<!-- Node2 -->
<g id="Node000002" class="node">
<title>Node2</title>
<g id="a_Node000002"><a xlink:href="a00536.html#gac779b9d8bce64e8de686bd78be25ea09" target="_top" xlink:title="Contains PWM initialization that was not supported by MCC generated code.">
<polygon fill="white" stroke="#666666" points="308,-26 170.5,-26 170.5,-6 308,-6 308,-26"/>
<text text-anchor="middle" x="239.25" y="-12.5" font-family="Helvetica,sans-Serif" font-size="10.00">DRV_Config_Custom_PWM</text>
</a>
</g>
</g>
<!-- Node1&#45;&gt;Node2 -->
<g id="edge1_Node000001_Node000002" class="edge">
<title>Node1&#45;&gt;Node2</title>
<g id="a_edge1_Node000001_Node000002"><a xlink:title=" ">
<path fill="none" stroke="#63b8ff" d="M332.85,-16C324.57,-16 316.3,-16 308.28,-16"/>
<polygon fill="#63b8ff" stroke="#63b8ff" points="332.72,-19.5 342.72,-16 332.72,-12.5 332.72,-19.5"/>
</a>
</g>
</g>
<!-- Node3 -->
<g id="Node000003" class="node">
<title>Node3</title>
<g id="a_Node000003"><a xlink:href="a00535.html#gafe646acf69be10085d651f4561909f69" target="_top" xlink:title="Contains custom peripheral initialization.">
<polygon fill="white" stroke="#666666" points="134.5,-26 0,-26 0,-6 134.5,-6 134.5,-26"/>
<text text-anchor="middle" x="67.25" y="-12.5" font-family="Helvetica,sans-Serif" font-size="10.00">MCC_Custom_User_Config</text>
</a>
</g>
</g>
<!-- Node2&#45;&gt;Node3 -->
<g id="edge2_Node000002_Node000003" class="edge">
<title>Node2&#45;&gt;Node3</title>
<g id="a_edge2_Node000002_Node000003"><a xlink:title=" ">
<path fill="none" stroke="#63b8ff" d="M159.35,-16C151.13,-16 142.83,-16 134.77,-16"/>
<polygon fill="#63b8ff" stroke="#63b8ff" points="159.08,-19.5 169.08,-16 159.08,-12.5 159.08,-19.5"/>
</a>
</g>
</g>
</g>
</svg>
