<?xml version="1.0" encoding="UTF-8" standalone="no"?>
<!DOCTYPE svg PUBLIC "-//W3C//DTD SVG 1.1//EN"
 "http://www.w3.org/Graphics/SVG/1.1/DTD/svg11.dtd">
<!-- Generated by graphviz version 8.1.0 (20230707.0739)
 -->
<!-- Title: MCC_Custom_User_Config Pages: 1 -->
<svg width="518pt" height="216pt"
 viewBox="0.00 0.00 518.00 216.00" xmlns="http://www.w3.org/2000/svg" xmlns:xlink="http://www.w3.org/1999/xlink">
<g id="graph0" class="graph" transform="scale(1 1) rotate(0) translate(4 212)">
<title>MCC_Custom_User_Config</title>
<!-- Node1 -->
<g id="Node000001" class="node">
<title>Node1</title>
<g id="a_Node000001"><a xlink:title="Contains custom peripheral initialization.">
<polygon fill="#999999" stroke="#666666" points="134.5,-114 0,-114 0,-94 134.5,-94 134.5,-114"/>
<text text-anchor="middle" x="67.25" y="-100.5" font-family="Helvetica,sans-Serif" font-size="10.00">MCC_Custom_User_Config</text>
</a>
</g>
</g>
<!-- Node2 -->
<g id="Node000002" class="node">
<title>Node2</title>
<g id="a_Node000002"><a xlink:href="a00503.html#gac779b9d8bce64e8de686bd78be25ea09" target="_top" xlink:title="Contains PWM initialization that was not supported by MCC generated code.">
<polygon fill="white" stroke="#666666" points="308,-114 170.5,-114 170.5,-94 308,-94 308,-114"/>
<text text-anchor="middle" x="239.25" y="-100.5" font-family="Helvetica,sans-Serif" font-size="10.00">DRV_Config_Custom_PWM</text>
</a>
</g>
</g>
<!-- Node1&#45;&gt;Node2 -->
<g id="edge1_Node000001_Node000002" class="edge">
<title>Node1&#45;&gt;Node2</title>
<g id="a_edge1_Node000001_Node000002"><a xlink:title=" ">
<path fill="none" stroke="#63b8ff" d="M134.95,-104C142.88,-104 151.03,-104 159.12,-104"/>
<polygon fill="#63b8ff" stroke="#63b8ff" points="159.06,-107.5 169.06,-104 159.06,-100.5 159.06,-107.5"/>
</a>
</g>
</g>
<!-- Node3 -->
<g id="Node000003" class="node">
<title>Node3</title>
<g id="a_Node000003"><a xlink:href="a00503.html#gaaf5d1e32e8b272aa4785219fa041b394" target="_top" xlink:title="Set the data mode of fault PCI.">
<polygon fill="white" stroke="#666666" points="485.62,-208 368.38,-208 368.38,-188 485.62,-188 485.62,-208"/>
<text text-anchor="middle" x="427" y="-194.5" font-family="Helvetica,sans-Serif" font-size="10.00">PWM_Fault_DataMode</text>
</a>
</g>
</g>
<!-- Node2&#45;&gt;Node3 -->
<g id="edge2_Node000002_Node000003" class="edge">
<title>Node2&#45;&gt;Node3</title>
<g id="a_edge2_Node000002_Node000003"><a xlink:title=" ">
<path fill="none" stroke="#63b8ff" d="M251.42,-114.44C269.46,-130.73 306.77,-162.07 344,-179 348.38,-180.99 353,-182.79 357.71,-184.4"/>
<polygon fill="#63b8ff" stroke="#63b8ff" points="356.54,-188.02 367.13,-187.66 358.63,-181.34 356.54,-188.02"/>
</a>
</g>
</g>
<!-- Node4 -->
<g id="Node000004" class="node">
<title>Node4</title>
<g id="a_Node000004"><a xlink:href="a00503.html#ga30d00d0393fc5b7bef92269fa3662a8f" target="_top" xlink:title="Set PCI fault acceptance criteria.">
<polygon fill="white" stroke="#666666" points="499.88,-170 354.12,-170 354.12,-138 499.88,-138 499.88,-170"/>
<text text-anchor="start" x="362.12" y="-156.5" font-family="Helvetica,sans-Serif" font-size="10.00">PWM_PCI_Fault_Acceptance</text>
<text text-anchor="middle" x="427" y="-144.5" font-family="Helvetica,sans-Serif" font-size="10.00">Criteria</text>
</a>
</g>
</g>
<!-- Node2&#45;&gt;Node4 -->
<g id="edge3_Node000002_Node000004" class="edge">
<title>Node2&#45;&gt;Node4</title>
<g id="a_edge3_Node000002_Node000004"><a xlink:title=" ">
<path fill="none" stroke="#63b8ff" d="M279.19,-114.48C300.97,-120.35 328.82,-127.84 354.39,-134.72"/>
<polygon fill="#63b8ff" stroke="#63b8ff" points="353.24,-138.31 363.81,-137.53 355.06,-131.55 353.24,-138.31"/>
</a>
</g>
</g>
<!-- Node5 -->
<g id="Node000005" class="node">
<title>Node5</title>
<g id="a_Node000005"><a xlink:href="a00503.html#ga3e7243475a0867eddc73f8c453acf105" target="_top" xlink:title="Set TSYNCDIS bit to determine when PWM should stop after a fault occurs.">
<polygon fill="white" stroke="#666666" points="510,-120 344,-120 344,-88 510,-88 510,-120"/>
<text text-anchor="start" x="352" y="-106.5" font-family="Helvetica,sans-Serif" font-size="10.00">PWM_PCI_Fault_TimetoTerminate</text>
<text text-anchor="middle" x="427" y="-94.5" font-family="Helvetica,sans-Serif" font-size="10.00">AfterEvent</text>
</a>
</g>
</g>
<!-- Node2&#45;&gt;Node5 -->
<g id="edge4_Node000002_Node000005" class="edge">
<title>Node2&#45;&gt;Node5</title>
<g id="a_edge4_Node000002_Node000005"><a xlink:title=" ">
<path fill="none" stroke="#63b8ff" d="M308.36,-104C316.35,-104 324.61,-104 332.87,-104"/>
<polygon fill="#63b8ff" stroke="#63b8ff" points="332.7,-107.5 342.7,-104 332.7,-100.5 332.7,-107.5"/>
</a>
</g>
</g>
<!-- Node6 -->
<g id="Node000006" class="node">
<title>Node6</title>
<g id="a_Node000006"><a xlink:href="a00503.html#gaab156f2b7ad138cf32e734bbf7145ef4" target="_top" xlink:title="Enable/Disable the PWM instance output swap bit.">
<polygon fill="white" stroke="#666666" points="492.75,-70 361.25,-70 361.25,-38 492.75,-38 492.75,-70"/>
<text text-anchor="start" x="369.25" y="-56.5" font-family="Helvetica,sans-Serif" font-size="10.00">PWM_Swap_PWMxL_and</text>
<text text-anchor="middle" x="427" y="-44.5" font-family="Helvetica,sans-Serif" font-size="10.00">_PWMxH</text>
</a>
</g>
</g>
<!-- Node2&#45;&gt;Node6 -->
<g id="edge5_Node000002_Node000006" class="edge">
<title>Node2&#45;&gt;Node6</title>
<g id="a_edge5_Node000002_Node000006"><a xlink:title=" ">
<path fill="none" stroke="#63b8ff" d="M279.19,-93.52C300.97,-87.65 328.82,-80.16 354.39,-73.28"/>
<polygon fill="#63b8ff" stroke="#63b8ff" points="355.06,-76.45 363.81,-70.47 353.24,-69.69 355.06,-76.45"/>
</a>
</g>
</g>
<!-- Node7 -->
<g id="Node000007" class="node">
<title>Node7</title>
<g id="a_Node000007"><a xlink:href="a00503.html#ga51d53c1db006afc7c11a0ab15f07093d" target="_top" xlink:title="Set source of fault PCI acceptance qualifier.">
<polygon fill="white" stroke="#666666" points="479.25,-20 374.75,-20 374.75,0 479.25,0 479.25,-20"/>
<text text-anchor="middle" x="427" y="-6.5" font-family="Helvetica,sans-Serif" font-size="10.00">PWM_Trigger_Mode</text>
</a>
</g>
</g>
<!-- Node2&#45;&gt;Node7 -->
<g id="edge6_Node000002_Node000007" class="edge">
<title>Node2&#45;&gt;Node7</title>
<g id="a_edge6_Node000002_Node000007"><a xlink:title=" ">
<path fill="none" stroke="#63b8ff" d="M251.42,-93.56C269.46,-77.27 306.77,-45.93 344,-29 350.44,-26.07 357.37,-23.57 364.38,-21.45"/>
<polygon fill="#63b8ff" stroke="#63b8ff" points="364.96,-24.64 373.65,-18.59 363.08,-17.9 364.96,-24.64"/>
</a>
</g>
</g>
</g>
</svg>
