<?xml version="1.0" encoding="UTF-8" standalone="no"?>
<!DOCTYPE svg PUBLIC "-//W3C//DTD SVG 1.1//EN"
 "http://www.w3.org/Graphics/SVG/1.1/DTD/svg11.dtd">
<!-- Generated by graphviz version 8.1.0 (20230707.0739)
 -->
<!-- Title: PWM_OverrideLowEnable Pages: 1 -->
<svg width="910pt" height="236pt"
 viewBox="0.00 0.00 909.50 236.00" xmlns="http://www.w3.org/2000/svg" xmlns:xlink="http://www.w3.org/1999/xlink">
<g id="graph0" class="graph" transform="scale(1 1) rotate(0) translate(4 232)">
<title>PWM_OverrideLowEnable</title>
<!-- Node1 -->
<g id="Node000001" class="node">
<title>Node1</title>
<g id="a_Node000001"><a xlink:title="This inline function enables PWM override on PWML output for specific PWM generator selected by the a...">
<polygon fill="#999999" stroke="#666666" points="901.5,-108 773,-108 773,-88 901.5,-88 901.5,-108"/>
<text text-anchor="middle" x="837.25" y="-94.5" font-family="Helvetica,sans-Serif" font-size="10.00">PWM_OverrideLowEnable</text>
</a>
</g>
</g>
<!-- Node2 -->
<g id="Node000002" class="node">
<title>Node2</title>
<g id="a_Node000002"><a xlink:href="a00508.html#ga79ec0c0e524a03b3a3d423308b89bb99" target="_top" xlink:title="Disable the PWM output.">
<polygon fill="white" stroke="#666666" points="737,-108 622,-108 622,-88 737,-88 737,-108"/>
<text text-anchor="middle" x="679.5" y="-94.5" font-family="Helvetica,sans-Serif" font-size="10.00">PwrCtrl_PWM_Disable</text>
</a>
</g>
</g>
<!-- Node1&#45;&gt;Node2 -->
<g id="edge1_Node000001_Node000002" class="edge">
<title>Node1&#45;&gt;Node2</title>
<g id="a_edge1_Node000001_Node000002"><a xlink:title=" ">
<path fill="none" stroke="#63b8ff" d="M762.03,-98C753.71,-98 745.33,-98 737.28,-98"/>
<polygon fill="#63b8ff" stroke="#63b8ff" points="761.9,-101.5 771.9,-98 761.9,-94.5 761.9,-101.5"/>
</a>
</g>
</g>
<!-- Node3 -->
<g id="Node000003" class="node">
<title>Node3</title>
<g id="a_Node000003"><a xlink:href="a00515.html#gaf27f2f24932cec222273df148f8765cb" target="_top" xlink:title="Handles the fault trip by turning off the power control switching.">
<polygon fill="white" stroke="#666666" points="554.12,-184 478.12,-184 478.12,-164 554.12,-164 554.12,-184"/>
<text text-anchor="middle" x="516.12" y="-170.5" font-family="Helvetica,sans-Serif" font-size="10.00">Fault_Handler</text>
</a>
</g>
</g>
<!-- Node2&#45;&gt;Node3 -->
<g id="edge2_Node000002_Node000003" class="edge">
<title>Node2&#45;&gt;Node3</title>
<g id="a_edge2_Node000002_Node000003"><a xlink:title=" ">
<path fill="none" stroke="#63b8ff" d="M655.78,-114.54C637.65,-127.1 611.18,-144.03 586,-155 576.11,-159.31 564.98,-162.88 554.61,-165.72"/>
<polygon fill="#63b8ff" stroke="#63b8ff" points="657.3,-117.04 663.46,-108.42 653.27,-111.32 657.3,-117.04"/>
</a>
</g>
</g>
<!-- Node9 -->
<g id="Node000009" class="node">
<title>Node9</title>
<g id="a_Node000009"><a xlink:href="a00509.html#ga8307344d190a5459682d315fc7bfe198" target="_top" xlink:title="Executes function for initialze state machine.">
<polygon fill="white" stroke="#666666" points="563.5,-146 468.75,-146 468.75,-126 563.5,-126 563.5,-146"/>
<text text-anchor="middle" x="516.12" y="-132.5" font-family="Helvetica,sans-Serif" font-size="10.00">PCS_INIT_handler</text>
</a>
</g>
</g>
<!-- Node2&#45;&gt;Node9 -->
<g id="edge8_Node000002_Node000009" class="edge">
<title>Node2&#45;&gt;Node9</title>
<g id="a_edge8_Node000002_Node000009"><a xlink:title=" ">
<path fill="none" stroke="#63b8ff" d="M623.36,-110.98C603.18,-115.74 580.62,-121.05 561.5,-125.55"/>
<polygon fill="#63b8ff" stroke="#63b8ff" points="624.04,-114.18 632.98,-108.48 622.44,-107.37 624.04,-114.18"/>
</a>
</g>
</g>
<!-- Node13 -->
<g id="Node000013" class="node">
<title>Node13</title>
<g id="a_Node000013"><a xlink:href="a00509.html#gabda6b853bb6547821acd0ec87e0a4842" target="_top" xlink:title="Executes the power control soft start state machine.">
<polygon fill="white" stroke="#666666" points="586,-108 446.25,-108 446.25,-88 586,-88 586,-108"/>
<text text-anchor="middle" x="516.12" y="-94.5" font-family="Helvetica,sans-Serif" font-size="10.00">PCS_SOFT_START_handler</text>
</a>
</g>
</g>
<!-- Node2&#45;&gt;Node13 -->
<g id="edge12_Node000002_Node000013" class="edge">
<title>Node2&#45;&gt;Node13</title>
<g id="a_edge12_Node000002_Node000013"><a xlink:title=" ">
<path fill="none" stroke="#63b8ff" d="M610.71,-98C602.62,-98 594.35,-98 586.24,-98"/>
<polygon fill="#63b8ff" stroke="#63b8ff" points="610.61,-101.5 620.61,-98 610.61,-94.5 610.61,-101.5"/>
</a>
</g>
</g>
<!-- Node14 -->
<g id="Node000014" class="node">
<title>Node14</title>
<g id="a_Node000014"><a xlink:href="a00509.html#ga8752fbb48416e60141e205f1cbda0f98" target="_top" xlink:title="Executes the Online state.">
<polygon fill="white" stroke="#666666" points="580.75,-70 451.5,-70 451.5,-38 580.75,-38 580.75,-70"/>
<text text-anchor="start" x="459.5" y="-56.5" font-family="Helvetica,sans-Serif" font-size="10.00">PCS_UP_AND_RUNNING</text>
<text text-anchor="middle" x="516.12" y="-44.5" font-family="Helvetica,sans-Serif" font-size="10.00">_handler</text>
</a>
</g>
</g>
<!-- Node2&#45;&gt;Node14 -->
<g id="edge14_Node000002_Node000014" class="edge">
<title>Node2&#45;&gt;Node14</title>
<g id="a_edge14_Node000002_Node000014"><a xlink:title=" ">
<path fill="none" stroke="#63b8ff" d="M629.78,-84.72C613.32,-80.23 594.74,-75.16 577.49,-70.46"/>
<polygon fill="#63b8ff" stroke="#63b8ff" points="628.69,-88.32 639.26,-87.57 630.53,-81.57 628.69,-88.32"/>
</a>
</g>
</g>
<!-- Node15 -->
<g id="Node000015" class="node">
<title>Node15</title>
<g id="a_Node000015"><a xlink:href="a00506.html#ga2c39b57545ef7b5c79bac36ab30da7d8" target="_top" xlink:title="Initialize the power control parameters.">
<polygon fill="white" stroke="#666666" points="560.12,-20 472.12,-20 472.12,0 560.12,0 560.12,-20"/>
<text text-anchor="middle" x="516.12" y="-6.5" font-family="Helvetica,sans-Serif" font-size="10.00">PwrCtrl_Initialize</text>
</a>
</g>
</g>
<!-- Node2&#45;&gt;Node15 -->
<g id="edge16_Node000002_Node000015" class="edge">
<title>Node2&#45;&gt;Node15</title>
<g id="a_edge16_Node000002_Node000015"><a xlink:title=" ">
<path fill="none" stroke="#63b8ff" d="M659.58,-80.53C641.81,-64.97 613.84,-42.62 586,-29 577.98,-25.07 569.02,-21.85 560.29,-19.25"/>
<polygon fill="#63b8ff" stroke="#63b8ff" points="656.66,-82.51 666.45,-86.56 661.32,-77.29 656.66,-82.51"/>
</a>
</g>
</g>
<!-- Node4 -->
<g id="Node000004" class="node">
<title>Node4</title>
<g id="a_Node000004"><a xlink:href="a00515.html#gacd1ca209275dae0bc2388ac954858d83" target="_top" xlink:title="Executes the fault handlers.">
<polygon fill="white" stroke="#666666" points="393.38,-222 314.38,-222 314.38,-202 393.38,-202 393.38,-222"/>
<text text-anchor="middle" x="353.88" y="-208.5" font-family="Helvetica,sans-Serif" font-size="10.00">Fault_Execute</text>
</a>
</g>
</g>
<!-- Node3&#45;&gt;Node4 -->
<g id="edge3_Node000003_Node000004" class="edge">
<title>Node3&#45;&gt;Node4</title>
<g id="a_edge3_Node000003_Node000004"><a xlink:title=" ">
<path fill="none" stroke="#63b8ff" d="M467.51,-185.29C444,-190.87 416,-197.51 393.79,-202.77"/>
<polygon fill="#63b8ff" stroke="#63b8ff" points="468.04,-188.53 476.96,-182.81 466.42,-181.72 468.04,-188.53"/>
</a>
</g>
</g>
<!-- Node6 -->
<g id="Node000006" class="node">
<title>Node6</title>
<g id="a_Node000006"><a xlink:href="a00515.html#gaaa5a7a6dc7ce982dec4f07edcd73e874" target="_top" xlink:title="Initialize the fault objects.">
<polygon fill="white" stroke="#666666" points="393,-184 314.75,-184 314.75,-164 393,-164 393,-184"/>
<text text-anchor="middle" x="353.88" y="-170.5" font-family="Helvetica,sans-Serif" font-size="10.00">Fault_Initialize</text>
</a>
</g>
</g>
<!-- Node3&#45;&gt;Node6 -->
<g id="edge5_Node000003_Node000006" class="edge">
<title>Node3&#45;&gt;Node6</title>
<g id="a_edge5_Node000003_Node000006"><a xlink:title=" ">
<path fill="none" stroke="#63b8ff" d="M467.11,-174C443.49,-174 415.4,-174 393.23,-174"/>
<polygon fill="#63b8ff" stroke="#63b8ff" points="466.96,-177.5 476.96,-174 466.96,-170.5 466.96,-177.5"/>
</a>
</g>
</g>
<!-- Node7 -->
<g id="Node000007" class="node">
<title>Node7</title>
<g id="a_Node000007"><a xlink:href="a00515.html#ga5ba282b74826532870235580973f788e" target="_top" xlink:title="Fault evaluation for Temperature.">
<polygon fill="white" stroke="#666666" points="404.62,-146 303.12,-146 303.12,-126 404.62,-126 404.62,-146"/>
<text text-anchor="middle" x="353.88" y="-132.5" font-family="Helvetica,sans-Serif" font-size="10.00">Fault_Temp_100ms</text>
</a>
</g>
</g>
<!-- Node3&#45;&gt;Node7 -->
<g id="edge6_Node000003_Node000007" class="edge">
<title>Node3&#45;&gt;Node7</title>
<g id="a_edge6_Node000003_Node000007"><a xlink:title=" ">
<path fill="none" stroke="#63b8ff" d="M467.33,-162.67C445.65,-157.53 420.17,-151.48 398.96,-146.45"/>
<polygon fill="#63b8ff" stroke="#63b8ff" points="466.42,-166.28 476.96,-165.19 468.04,-159.47 466.42,-166.28"/>
</a>
</g>
</g>
<!-- Node5 -->
<g id="Node000005" class="node">
<title>Node5</title>
<g id="a_Node000005"><a xlink:href="a00507.html#gae32c9e5ed4d1fb98fc13b26601782c10" target="_top" xlink:title="Executes the power converter control loop.">
<polygon fill="white" stroke="#666666" points="261.5,-228 153.25,-228 153.25,-196 261.5,-196 261.5,-228"/>
<text text-anchor="start" x="161.25" y="-214.5" font-family="Helvetica,sans-Serif" font-size="10.00">ControlLoop_Interrupt</text>
<text text-anchor="middle" x="207.38" y="-202.5" font-family="Helvetica,sans-Serif" font-size="10.00">_CallBack</text>
</a>
</g>
</g>
<!-- Node4&#45;&gt;Node5 -->
<g id="edge4_Node000004_Node000005" class="edge">
<title>Node4&#45;&gt;Node5</title>
<g id="a_edge4_Node000004_Node000005"><a xlink:title=" ">
<path fill="none" stroke="#63b8ff" d="M303.26,-212C289.91,-212 275.42,-212 261.87,-212"/>
<polygon fill="#63b8ff" stroke="#63b8ff" points="303.15,-215.5 313.15,-212 303.15,-208.5 303.15,-215.5"/>
</a>
</g>
</g>
<!-- Node8 -->
<g id="Node000008" class="node">
<title>Node8</title>
<g id="a_Node000008"><a xlink:href="a00517.html#ga6d5c487ee3f418e6d0432867d11adaed" target="_top" xlink:title="Tasks_100ms gets called every 100 ms, put your things in it that need to be called regularly.">
<polygon fill="white" stroke="#666666" points="245.75,-146 169,-146 169,-126 245.75,-126 245.75,-146"/>
<text text-anchor="middle" x="207.38" y="-132.5" font-family="Helvetica,sans-Serif" font-size="10.00">Tasks_100ms</text>
</a>
</g>
</g>
<!-- Node7&#45;&gt;Node8 -->
<g id="edge7_Node000007_Node000008" class="edge">
<title>Node7&#45;&gt;Node8</title>
<g id="a_edge7_Node000007_Node000008"><a xlink:title=" ">
<path fill="none" stroke="#63b8ff" d="M292.1,-136C276.5,-136 260.17,-136 246.11,-136"/>
<polygon fill="#63b8ff" stroke="#63b8ff" points="291.74,-139.5 301.74,-136 291.74,-132.5 291.74,-139.5"/>
</a>
</g>
</g>
<!-- Node10 -->
<g id="Node000010" class="node">
<title>Node10</title>
<g id="a_Node000010"><a xlink:href="a00509.html#ga2408c0b52cd2c2487f43716f261434e6" target="_top" xlink:title="Manages the power control state machine.">
<polygon fill="white" stroke="#666666" points="410.25,-108 297.5,-108 297.5,-88 410.25,-88 410.25,-108"/>
<text text-anchor="middle" x="353.88" y="-94.5" font-family="Helvetica,sans-Serif" font-size="10.00">PwrCtrl_StateMachine</text>
</a>
</g>
</g>
<!-- Node9&#45;&gt;Node10 -->
<g id="edge9_Node000009_Node000010" class="edge">
<title>Node9&#45;&gt;Node10</title>
<g id="a_edge9_Node000009_Node000010"><a xlink:title=" ">
<path fill="none" stroke="#63b8ff" d="M460.37,-123.02C440.33,-118.26 417.93,-112.95 398.94,-108.45"/>
<polygon fill="#63b8ff" stroke="#63b8ff" points="459.37,-126.61 469.91,-125.52 460.99,-119.8 459.37,-126.61"/>
</a>
</g>
</g>
<!-- Node11 -->
<g id="Node000011" class="node">
<title>Node11</title>
<g id="a_Node000011"><a xlink:href="a00506.html#ga48dcb018afa53b60b6112cde00561c4b" target="_top" xlink:title="Executes the power control state machine.">
<polygon fill="white" stroke="#666666" points="251.75,-108 163,-108 163,-88 251.75,-88 251.75,-108"/>
<text text-anchor="middle" x="207.38" y="-94.5" font-family="Helvetica,sans-Serif" font-size="10.00">PwrCtrl_Execute</text>
</a>
</g>
</g>
<!-- Node10&#45;&gt;Node11 -->
<g id="edge10_Node000010_Node000011" class="edge">
<title>Node10&#45;&gt;Node11</title>
<g id="a_edge10_Node000010_Node000011"><a xlink:title=" ">
<path fill="none" stroke="#63b8ff" d="M286.02,-98C274.47,-98 262.73,-98 252,-98"/>
<polygon fill="#63b8ff" stroke="#63b8ff" points="286.01,-101.5 296.01,-98 286.01,-94.5 286.01,-101.5"/>
</a>
</g>
</g>
<!-- Node12 -->
<g id="Node000012" class="node">
<title>Node12</title>
<g id="a_Node000012"><a xlink:href="a00517.html#gad258f19a1b6a855fef3c71f54bb5539e" target="_top" xlink:title="Tasks_Realtime_100us gets called directly from the timer interrupt every 100 µs.">
<polygon fill="white" stroke="#666666" points="117.25,-108 0,-108 0,-88 117.25,-88 117.25,-108"/>
<text text-anchor="middle" x="58.62" y="-94.5" font-family="Helvetica,sans-Serif" font-size="10.00">Tasks_Realtime_100us</text>
</a>
</g>
</g>
<!-- Node11&#45;&gt;Node12 -->
<g id="edge11_Node000011_Node000012" class="edge">
<title>Node11&#45;&gt;Node12</title>
<g id="a_edge11_Node000011_Node000012"><a xlink:title=" ">
<path fill="none" stroke="#63b8ff" d="M151.8,-98C140.61,-98 128.8,-98 117.5,-98"/>
<polygon fill="#63b8ff" stroke="#63b8ff" points="151.74,-101.5 161.74,-98 151.74,-94.5 151.74,-101.5"/>
</a>
</g>
</g>
<!-- Node13&#45;&gt;Node10 -->
<g id="edge13_Node000013_Node000010" class="edge">
<title>Node13&#45;&gt;Node10</title>
<g id="a_edge13_Node000013_Node000010"><a xlink:title=" ">
<path fill="none" stroke="#63b8ff" d="M434.89,-98C426.58,-98 418.28,-98 410.34,-98"/>
<polygon fill="#63b8ff" stroke="#63b8ff" points="434.77,-101.5 444.77,-98 434.77,-94.5 434.77,-101.5"/>
</a>
</g>
</g>
<!-- Node14&#45;&gt;Node10 -->
<g id="edge15_Node000014_Node000010" class="edge">
<title>Node14&#45;&gt;Node10</title>
<g id="a_edge15_Node000014_Node000010"><a xlink:title=" ">
<path fill="none" stroke="#63b8ff" d="M444.98,-73.26C427.02,-78.19 408.37,-83.31 392.74,-87.6"/>
<polygon fill="#63b8ff" stroke="#63b8ff" points="445.74,-76.41 454.45,-70.38 443.88,-69.66 445.74,-76.41"/>
</a>
</g>
</g>
</g>
</svg>
