<?xml version="1.0" encoding="UTF-8" standalone="no"?>
<!DOCTYPE svg PUBLIC "-//W3C//DTD SVG 1.1//EN"
 "http://www.w3.org/Graphics/SVG/1.1/DTD/svg11.dtd">
<!-- Generated by graphviz version 8.1.0 (20230707.0739)
 -->
<!-- Title: protocolID Pages: 1 -->
<svg width="892pt" height="408pt"
 viewBox="0.00 0.00 892.25 408.00" xmlns="http://www.w3.org/2000/svg" xmlns:xlink="http://www.w3.org/1999/xlink">
<g id="graph0" class="graph" transform="scale(1 1) rotate(0) translate(4 404)">
<title>protocolID</title>
<!-- Node1 -->
<g id="Node000001" class="node">
<title>Node1</title>
<g id="a_Node000001"><a xlink:title="default callback">
<polygon fill="#999999" stroke="#666666" points="59.5,-185 0,-185 0,-165 59.5,-165 59.5,-185"/>
<text text-anchor="middle" x="29.75" y="-171.5" font-family="Helvetica,sans-Serif" font-size="10.00">protocolID</text>
</a>
</g>
</g>
<!-- Node2 -->
<g id="Node000002" class="node">
<title>Node2</title>
<g id="a_Node000002"><a xlink:href="a00528.html#gaf2b5ec7aa4bf88b00eaa69cfeba83160" target="_top" xlink:title="process received data">
<polygon fill="white" stroke="#666666" points="221.38,-216 95.88,-216 95.88,-184 221.38,-184 221.38,-216"/>
<text text-anchor="start" x="103.88" y="-202.5" font-family="Helvetica,sans-Serif" font-size="10.00">App_PBV_DAB_Process</text>
<text text-anchor="middle" x="158.62" y="-190.5" font-family="Helvetica,sans-Serif" font-size="10.00">_Rx_Data</text>
</a>
</g>
</g>
<!-- Node1&#45;&gt;Node2 -->
<g id="edge1_Node000001_Node000002" class="edge">
<title>Node1&#45;&gt;Node2</title>
<g id="a_edge1_Node000001_Node000002"><a xlink:title=" ">
<path fill="none" stroke="#63b8ff" d="M59.86,-180.74C67.45,-182.23 75.98,-183.91 84.76,-185.64"/>
<polygon fill="#63b8ff" stroke="#63b8ff" points="84.06,-189.27 94.55,-187.77 85.41,-182.4 84.06,-189.27"/>
</a>
</g>
</g>
<!-- Node18 -->
<g id="Node000018" class="node">
<title>Node18</title>
<g id="a_Node000018"><a xlink:href="a00526.html#gaf92cac9156ceacf492c28455ba3c75f5" target="_top" xlink:title="This function changes 8 bit data to sixteen bit data.">
<polygon fill="white" stroke="#666666" points="221.75,-166 95.5,-166 95.5,-134 221.75,-134 221.75,-166"/>
<text text-anchor="start" x="103.5" y="-152.5" font-family="Helvetica,sans-Serif" font-size="10.00">PBV_Change_from_Eight</text>
<text text-anchor="middle" x="158.62" y="-140.5" font-family="Helvetica,sans-Serif" font-size="10.00">_to_Sixteen</text>
</a>
</g>
</g>
<!-- Node1&#45;&gt;Node18 -->
<g id="edge18_Node000001_Node000018" class="edge">
<title>Node1&#45;&gt;Node18</title>
<g id="a_edge18_Node000001_Node000018"><a xlink:title=" ">
<path fill="none" stroke="#63b8ff" d="M59.86,-169.26C67.35,-167.79 75.75,-166.13 84.4,-164.43"/>
<polygon fill="#63b8ff" stroke="#63b8ff" points="84.9,-167.7 94.04,-162.33 83.55,-160.83 84.9,-167.7"/>
</a>
</g>
</g>
<!-- Node3 -->
<g id="Node000003" class="node">
<title>Node3</title>
<g id="a_Node000003"><a xlink:href="a00532.html#ga5cfd61659ae6b17ad25e51bfc211723b" target="_top" xlink:title="Sets the fan speed.">
<polygon fill="white" stroke="#666666" points="381.75,-400 275,-400 275,-380 381.75,-380 381.75,-400"/>
<text text-anchor="middle" x="328.38" y="-386.5" font-family="Helvetica,sans-Serif" font-size="10.00">Dev_Fan_Set_Speed</text>
</a>
</g>
</g>
<!-- Node2&#45;&gt;Node3 -->
<g id="edge2_Node000002_Node000003" class="edge">
<title>Node2&#45;&gt;Node3</title>
<g id="a_edge2_Node000002_Node000003"><a xlink:title=" ">
<path fill="none" stroke="#63b8ff" d="M164.36,-216.49C175.05,-250.73 204.4,-329.76 257.75,-371 259.96,-372.71 262.32,-374.27 264.77,-375.68"/>
<polygon fill="#63b8ff" stroke="#63b8ff" points="263.14,-379.26 273.66,-380.48 266.19,-372.97 263.14,-379.26"/>
</a>
</g>
</g>
<!-- Node4 -->
<g id="Node000004" class="node">
<title>Node4</title>
<g id="a_Node000004"><a xlink:href="a00544.html#gad6514b638a32baed68543a56bedd5c5d" target="_top" xlink:title="API function to get the PWM duty cycle.">
<polygon fill="white" stroke="#666666" points="398.25,-362 258.5,-362 258.5,-342 398.25,-342 398.25,-362"/>
<text text-anchor="middle" x="328.38" y="-348.5" font-family="Helvetica,sans-Serif" font-size="10.00">Dev_PwrCtrl_Get_DutyCycle</text>
</a>
</g>
</g>
<!-- Node2&#45;&gt;Node4 -->
<g id="edge3_Node000002_Node000004" class="edge">
<title>Node2&#45;&gt;Node4</title>
<g id="a_edge3_Node000002_Node000004"><a xlink:title=" ">
<path fill="none" stroke="#63b8ff" d="M167.91,-216.21C182.49,-243.2 215.27,-297.39 257.75,-328 262.8,-331.64 268.45,-334.76 274.28,-337.43"/>
<polygon fill="#63b8ff" stroke="#63b8ff" points="272.63,-340.95 283.21,-341.51 275.29,-334.47 272.63,-340.95"/>
</a>
</g>
</g>
<!-- Node5 -->
<g id="Node000005" class="node">
<title>Node5</title>
<g id="a_Node000005"><a xlink:href="a00544.html#gae5e607ebc1cfbf0fcb8caa5775d5e782" target="_top" xlink:title="API function to set the power control State.">
<polygon fill="white" stroke="#666666" points="547,-305 435,-305 435,-285 547,-285 547,-305"/>
<text text-anchor="middle" x="491" y="-291.5" font-family="Helvetica,sans-Serif" font-size="10.00">Dev_PwrCtrl_SetState</text>
</a>
</g>
</g>
<!-- Node2&#45;&gt;Node5 -->
<g id="edge4_Node000002_Node000005" class="edge">
<title>Node2&#45;&gt;Node5</title>
<g id="a_edge4_Node000002_Node000005"><a xlink:title=" ">
<path fill="none" stroke="#63b8ff" d="M170.24,-216.29C186.11,-238.97 218.41,-279.08 257.75,-295 312.82,-317.29 381.45,-313.92 429.77,-307.05"/>
<polygon fill="#63b8ff" stroke="#63b8ff" points="430.01,-310.4 439.37,-305.43 428.96,-303.48 430.01,-310.4"/>
</a>
</g>
</g>
<!-- Node10 -->
<g id="Node000010" class="node">
<title>Node10</title>
<g id="a_Node000010"><a xlink:href="a00544.html#gae5951bb40b236569aa345e1753808858" target="_top" xlink:title="API function to set the power control state forward, reverse or stop.">
<polygon fill="white" stroke="#666666" points="377.25,-286 279.5,-286 279.5,-266 377.25,-266 377.25,-286"/>
<text text-anchor="middle" x="328.38" y="-272.5" font-family="Helvetica,sans-Serif" font-size="10.00">PwrCtrl_SetEnable</text>
</a>
</g>
</g>
<!-- Node2&#45;&gt;Node10 -->
<g id="edge9_Node000002_Node000010" class="edge">
<title>Node2&#45;&gt;Node10</title>
<g id="a_edge9_Node000002_Node000010"><a xlink:title=" ">
<path fill="none" stroke="#63b8ff" d="M183.71,-216.38C203.03,-228.92 231.22,-245.9 257.75,-257 262.35,-258.92 267.2,-260.71 272.11,-262.35"/>
<polygon fill="#63b8ff" stroke="#63b8ff" points="270.63,-265.87 281.22,-265.52 272.73,-259.19 270.63,-265.87"/>
</a>
</g>
</g>
<!-- Node11 -->
<g id="Node000011" class="node">
<title>Node11</title>
<g id="a_Node000011"><a xlink:href="a00544.html#ga70c7b962e7df84e7d49fd37a76826059" target="_top" xlink:title="API function to set the current controller reference.">
<polygon fill="white" stroke="#666666" points="385.12,-248 271.62,-248 271.62,-228 385.12,-228 385.12,-248"/>
<text text-anchor="middle" x="328.38" y="-234.5" font-family="Helvetica,sans-Serif" font-size="10.00">PwrCtrl_SetIReference</text>
</a>
</g>
</g>
<!-- Node2&#45;&gt;Node11 -->
<g id="edge11_Node000002_Node000011" class="edge">
<title>Node2&#45;&gt;Node11</title>
<g id="a_edge11_Node000002_Node000011"><a xlink:title=" ">
<path fill="none" stroke="#63b8ff" d="M221.61,-214.04C237.61,-217.67 254.76,-221.55 270.48,-225.11"/>
<polygon fill="#63b8ff" stroke="#63b8ff" points="269.59,-228.72 280.11,-227.52 271.13,-221.9 269.59,-228.72"/>
</a>
</g>
</g>
<!-- Node12 -->
<g id="Node000012" class="node">
<title>Node12</title>
<g id="a_Node000012"><a xlink:href="a00544.html#ga80737f595e2855e9361772d2c1a9852d" target="_top" xlink:title="API function to set the target prim to sec phase which will steer other modulation.">
<polygon fill="white" stroke="#666666" points="399,-210 257.75,-210 257.75,-190 399,-190 399,-210"/>
<text text-anchor="middle" x="328.38" y="-196.5" font-family="Helvetica,sans-Serif" font-size="10.00">PwrCtrl_SetP2SPhaseTarget</text>
</a>
</g>
</g>
<!-- Node2&#45;&gt;Node12 -->
<g id="edge12_Node000002_Node000012" class="edge">
<title>Node2&#45;&gt;Node12</title>
<g id="a_edge12_Node000002_Node000012"><a xlink:title=" ">
<path fill="none" stroke="#63b8ff" d="M221.61,-200C229.72,-200 238.13,-200 246.5,-200"/>
<polygon fill="#63b8ff" stroke="#63b8ff" points="246.44,-203.5 256.44,-200 246.44,-196.5 246.44,-203.5"/>
</a>
</g>
</g>
<!-- Node13 -->
<g id="Node000013" class="node">
<title>Node13</title>
<g id="a_Node000013"><a xlink:href="a00544.html#ga75fdd46231baccc4830fa08d2b39a3d2" target="_top" xlink:title="API function to set the target period.">
<polygon fill="white" stroke="#666666" points="389.62,-172 267.12,-172 267.12,-152 389.62,-152 389.62,-172"/>
<text text-anchor="middle" x="328.38" y="-158.5" font-family="Helvetica,sans-Serif" font-size="10.00">PwrCtrl_SetPeriodTarget</text>
</a>
</g>
</g>
<!-- Node2&#45;&gt;Node13 -->
<g id="edge13_Node000002_Node000013" class="edge">
<title>Node2&#45;&gt;Node13</title>
<g id="a_edge13_Node000002_Node000013"><a xlink:title=" ">
<path fill="none" stroke="#63b8ff" d="M221.61,-185.96C237.61,-182.33 254.76,-178.45 270.48,-174.89"/>
<polygon fill="#63b8ff" stroke="#63b8ff" points="271.13,-178.1 280.11,-172.48 269.59,-171.28 271.13,-178.1"/>
</a>
</g>
</g>
<!-- Node14 -->
<g id="Node000014" class="node">
<title>Node14</title>
<g id="a_Node000014"><a xlink:href="a00544.html#gae62d241af8152bb7989d448f30adc55e" target="_top" xlink:title="API function to set the target PWM phase.">
<polygon fill="white" stroke="#666666" points="389.62,-134 267.12,-134 267.12,-114 389.62,-114 389.62,-134"/>
<text text-anchor="middle" x="328.38" y="-120.5" font-family="Helvetica,sans-Serif" font-size="10.00">PwrCtrl_SetPhaseTarget</text>
</a>
</g>
</g>
<!-- Node2&#45;&gt;Node14 -->
<g id="edge14_Node000002_Node000014" class="edge">
<title>Node2&#45;&gt;Node14</title>
<g id="a_edge14_Node000002_Node000014"><a xlink:title=" ">
<path fill="none" stroke="#63b8ff" d="M205.64,-183.59C211.21,-180.99 216.71,-178.12 221.75,-175 239.95,-163.73 238.93,-153.2 257.75,-143 260.99,-141.25 264.4,-139.64 267.9,-138.18"/>
<polygon fill="#63b8ff" stroke="#63b8ff" points="268.81,-141.21 276.95,-134.43 266.36,-134.65 268.81,-141.21"/>
</a>
</g>
</g>
<!-- Node15 -->
<g id="Node000015" class="node">
<title>Node15</title>
<g id="a_Node000015"><a xlink:href="a00544.html#ga574faff7b911d52ae6d2cf53b68a8963" target="_top" xlink:title="API function to set the power controller reference.">
<polygon fill="white" stroke="#666666" points="392.25,-96 264.5,-96 264.5,-76 392.25,-76 392.25,-96"/>
<text text-anchor="middle" x="328.38" y="-82.5" font-family="Helvetica,sans-Serif" font-size="10.00">PwrCtrl_SetPwrReference</text>
</a>
</g>
</g>
<!-- Node2&#45;&gt;Node15 -->
<g id="edge15_Node000002_Node000015" class="edge">
<title>Node2&#45;&gt;Node15</title>
<g id="a_edge15_Node000002_Node000015"><a xlink:title=" ">
<path fill="none" stroke="#63b8ff" d="M210.03,-183.51C214.24,-181.04 218.23,-178.21 221.75,-175 247.6,-151.43 230.57,-127.03 257.75,-105 259.36,-103.7 261.04,-102.49 262.8,-101.36"/>
<polygon fill="#63b8ff" stroke="#63b8ff" points="263.89,-104.2 271.03,-96.37 260.56,-98.04 263.89,-104.2"/>
</a>
</g>
</g>
<!-- Node16 -->
<g id="Node000016" class="node">
<title>Node16</title>
<g id="a_Node000016"><a xlink:href="a00544.html#gad75e0996f58a7795b51212ca644aebd3" target="_top" xlink:title="API function to set the primary voltage controller reference, in reverse mode.">
<polygon fill="white" stroke="#666666" points="393.38,-58 263.38,-58 263.38,-38 393.38,-38 393.38,-58"/>
<text text-anchor="middle" x="328.38" y="-44.5" font-family="Helvetica,sans-Serif" font-size="10.00">PwrCtrl_SetVPriReference</text>
</a>
</g>
</g>
<!-- Node2&#45;&gt;Node16 -->
<g id="edge16_Node000002_Node000016" class="edge">
<title>Node2&#45;&gt;Node16</title>
<g id="a_edge16_Node000002_Node000016"><a xlink:title=" ">
<path fill="none" stroke="#63b8ff" d="M211.17,-183.68C215.04,-181.18 218.64,-178.3 221.75,-175 256.42,-138.15 221,-101.77 257.75,-67 258.77,-66.03 259.84,-65.11 260.95,-64.24"/>
<polygon fill="#63b8ff" stroke="#63b8ff" points="262.55,-66.73 269.09,-58.4 258.78,-60.83 262.55,-66.73"/>
</a>
</g>
</g>
<!-- Node17 -->
<g id="Node000017" class="node">
<title>Node17</title>
<g id="a_Node000017"><a xlink:href="a00544.html#ga919933b7bef6f9fa8094848c413e7881" target="_top" xlink:title="API function to set the secondary voltage controller reference.">
<polygon fill="white" stroke="#666666" points="396,-20 260.75,-20 260.75,0 396,0 396,-20"/>
<text text-anchor="middle" x="328.38" y="-6.5" font-family="Helvetica,sans-Serif" font-size="10.00">PwrCtrl_SetVSecReference</text>
</a>
</g>
</g>
<!-- Node2&#45;&gt;Node17 -->
<g id="edge17_Node000002_Node000017" class="edge">
<title>Node2&#45;&gt;Node17</title>
<g id="a_edge17_Node000002_Node000017"><a xlink:title=" ">
<path fill="none" stroke="#63b8ff" d="M212.04,-183.55C215.63,-181.08 218.93,-178.25 221.75,-175 265.57,-124.53 211.08,-76.84 257.75,-29 258.58,-28.15 259.45,-27.33 260.34,-26.55"/>
<polygon fill="#63b8ff" stroke="#63b8ff" points="261.91,-29.03 268.13,-20.45 257.92,-23.28 261.91,-29.03"/>
</a>
</g>
</g>
<!-- Node6 -->
<g id="Node000006" class="node">
<title>Node6</title>
<g id="a_Node000006"><a xlink:href="a00541.html#ga79ec0c0e524a03b3a3d423308b89bb99" target="_top" xlink:title="Disable the PWM output.">
<polygon fill="white" stroke="#666666" points="698,-305 583,-305 583,-285 698,-285 698,-305"/>
<text text-anchor="middle" x="640.5" y="-291.5" font-family="Helvetica,sans-Serif" font-size="10.00">PwrCtrl_PWM_Disable</text>
</a>
</g>
</g>
<!-- Node5&#45;&gt;Node6 -->
<g id="edge5_Node000005_Node000006" class="edge">
<title>Node5&#45;&gt;Node6</title>
<g id="a_edge5_Node000005_Node000006"><a xlink:title=" ">
<path fill="none" stroke="#63b8ff" d="M547.34,-295C555.41,-295 563.8,-295 572.08,-295"/>
<polygon fill="#63b8ff" stroke="#63b8ff" points="571.86,-298.5 581.86,-295 571.86,-291.5 571.86,-298.5"/>
</a>
</g>
</g>
<!-- Node7 -->
<g id="Node000007" class="node">
<title>Node7</title>
<g id="a_Node000007"><a xlink:href="a00559.html#ga531b59d8823e3ebda2da60f48582bcf3" target="_top" xlink:title="This inline function enables PWM override on PWMH output for specific PWM generator selected by the a...">
<polygon fill="white" stroke="#666666" points="874.5,-343 743.75,-343 743.75,-323 874.5,-323 874.5,-343"/>
<text text-anchor="middle" x="809.12" y="-329.5" font-family="Helvetica,sans-Serif" font-size="10.00">PWM_OverrideHighEnable</text>
</a>
</g>
</g>
<!-- Node6&#45;&gt;Node7 -->
<g id="edge6_Node000006_Node000007" class="edge">
<title>Node6&#45;&gt;Node7</title>
<g id="a_edge6_Node000006_Node000007"><a xlink:title=" ">
<path fill="none" stroke="#63b8ff" d="M687.47,-305.48C707.32,-310.01 730.74,-315.35 751.64,-320.12"/>
<polygon fill="#63b8ff" stroke="#63b8ff" points="750.78,-323.74 761.3,-322.55 752.33,-316.91 750.78,-323.74"/>
</a>
</g>
</g>
<!-- Node8 -->
<g id="Node000008" class="node">
<title>Node8</title>
<g id="a_Node000008"><a xlink:href="a00559.html#ga2548ca8feda75ba6ab784280679da6ae" target="_top" xlink:title="This inline function enables PWM override on PWML output for specific PWM generator selected by the a...">
<polygon fill="white" stroke="#666666" points="873.38,-305 744.88,-305 744.88,-285 873.38,-285 873.38,-305"/>
<text text-anchor="middle" x="809.12" y="-291.5" font-family="Helvetica,sans-Serif" font-size="10.00">PWM_OverrideLowEnable</text>
</a>
</g>
</g>
<!-- Node6&#45;&gt;Node8 -->
<g id="edge7_Node000006_Node000008" class="edge">
<title>Node6&#45;&gt;Node8</title>
<g id="a_edge7_Node000006_Node000008"><a xlink:title=" ">
<path fill="none" stroke="#63b8ff" d="M698.38,-295C709.78,-295 721.92,-295 733.82,-295"/>
<polygon fill="#63b8ff" stroke="#63b8ff" points="733.64,-298.5 743.64,-295 733.64,-291.5 733.64,-298.5"/>
</a>
</g>
</g>
<!-- Node9 -->
<g id="Node000009" class="node">
<title>Node9</title>
<g id="a_Node000009"><a xlink:href="a00559.html#ga83e780358618114f0d424ca7467cf751" target="_top" xlink:title="This inline function requests to update the data registers for specific PWM generator selected by the...">
<polygon fill="white" stroke="#666666" points="884.25,-267 734,-267 734,-247 884.25,-247 884.25,-267"/>
<text text-anchor="middle" x="809.12" y="-253.5" font-family="Helvetica,sans-Serif" font-size="10.00">PWM_SoftwareUpdateRequest</text>
</a>
</g>
</g>
<!-- Node6&#45;&gt;Node9 -->
<g id="edge8_Node000006_Node000009" class="edge">
<title>Node6&#45;&gt;Node9</title>
<g id="a_edge8_Node000006_Node000009"><a xlink:title=" ">
<path fill="none" stroke="#63b8ff" d="M687.47,-284.52C707.32,-279.99 730.74,-274.65 751.64,-269.88"/>
<polygon fill="#63b8ff" stroke="#63b8ff" points="752.33,-273.09 761.3,-267.45 750.78,-266.26 752.33,-273.09"/>
</a>
</g>
</g>
<!-- Node10&#45;&gt;Node5 -->
<g id="edge10_Node000010_Node000005" class="edge">
<title>Node10&#45;&gt;Node5</title>
<g id="a_edge10_Node000010_Node000005"><a xlink:title=" ">
<path fill="none" stroke="#63b8ff" d="M377.57,-281.7C392.13,-283.42 408.39,-285.35 423.91,-287.18"/>
<polygon fill="#63b8ff" stroke="#63b8ff" points="423.17,-290.74 433.51,-288.44 423.99,-283.79 423.17,-290.74"/>
</a>
</g>
</g>
</g>
</svg>
