<?xml version="1.0" encoding="UTF-8" standalone="no"?>
<!DOCTYPE svg PUBLIC "-//W3C//DTD SVG 1.1//EN"
 "http://www.w3.org/Graphics/SVG/1.1/DTD/svg11.dtd">
<!-- Generated by graphviz version 8.1.0 (20230707.0739)
 -->
<!-- Title: Dev_PwrCtrl_SetState Pages: 1 -->
<svg width="794pt" height="53pt"
 viewBox="0.00 0.00 794.00 53.00" xmlns="http://www.w3.org/2000/svg" xmlns:xlink="http://www.w3.org/1999/xlink">
<g id="graph0" class="graph" transform="scale(1 1) rotate(0) translate(4 49)">
<title>Dev_PwrCtrl_SetState</title>
<!-- Node1 -->
<g id="Node000001" class="node">
<title>Node1</title>
<g id="a_Node000001"><a xlink:title="API function to set the power control State.">
<polygon fill="#999999" stroke="#666666" points="786,-39 674,-39 674,-19 786,-19 786,-39"/>
<text text-anchor="middle" x="730" y="-25.5" font-family="Helvetica,sans-Serif" font-size="10.00">Dev_PwrCtrl_SetState</text>
</a>
</g>
</g>
<!-- Node2 -->
<g id="Node000002" class="node">
<title>Node2</title>
<g id="a_Node000002"><a xlink:href="a00531.html#gaf2b5ec7aa4bf88b00eaa69cfeba83160" target="_top" xlink:title="process received data">
<polygon fill="white" stroke="#666666" points="504.25,-45 378.75,-45 378.75,-13 504.25,-13 504.25,-45"/>
<text text-anchor="start" x="386.75" y="-31.5" font-family="Helvetica,sans-Serif" font-size="10.00">App_PBV_DAB_Process</text>
<text text-anchor="middle" x="441.5" y="-19.5" font-family="Helvetica,sans-Serif" font-size="10.00">_Rx_Data</text>
</a>
</g>
</g>
<!-- Node1&#45;&gt;Node2 -->
<g id="edge1_Node000001_Node000002" class="edge">
<title>Node1&#45;&gt;Node2</title>
<g id="a_edge1_Node000001_Node000002"><a xlink:title=" ">
<path fill="none" stroke="#63b8ff" d="M662.93,-29C615.23,-29 551.27,-29 504.53,-29"/>
<polygon fill="#63b8ff" stroke="#63b8ff" points="662.76,-32.5 672.76,-29 662.76,-25.5 662.76,-32.5"/>
</a>
</g>
</g>
<!-- Node6 -->
<g id="Node000006" class="node">
<title>Node6</title>
<g id="a_Node000006"><a xlink:href="a00547.html#gae5951bb40b236569aa345e1753808858" target="_top" xlink:title="API function to set the power control state forward, reverse or stop.">
<polygon fill="white" stroke="#666666" points="638,-20 540.25,-20 540.25,0 638,0 638,-20"/>
<text text-anchor="middle" x="589.12" y="-6.5" font-family="Helvetica,sans-Serif" font-size="10.00">PwrCtrl_SetEnable</text>
</a>
</g>
</g>
<!-- Node1&#45;&gt;Node6 -->
<g id="edge5_Node000001_Node000006" class="edge">
<title>Node1&#45;&gt;Node6</title>
<g id="a_edge5_Node000001_Node000006"><a xlink:title=" ">
<path fill="none" stroke="#63b8ff" d="M662.95,-19.96C654.71,-18.84 646.4,-17.7 638.49,-16.62"/>
<polygon fill="#63b8ff" stroke="#63b8ff" points="662.33,-23.55 672.71,-21.44 663.28,-16.61 662.33,-23.55"/>
</a>
</g>
</g>
<!-- Node3 -->
<g id="Node000003" class="node">
<title>Node3</title>
<g id="a_Node000003"><a xlink:href="a00531.html#gae7f76d2864d9f99538052487fb4c9570" target="_top" xlink:title="default callback">
<polygon fill="white" stroke="#666666" points="342.75,-39 283.25,-39 283.25,-19 342.75,-19 342.75,-39"/>
<text text-anchor="middle" x="313" y="-25.5" font-family="Helvetica,sans-Serif" font-size="10.00">protocolID</text>
</a>
</g>
</g>
<!-- Node2&#45;&gt;Node3 -->
<g id="edge2_Node000002_Node000003" class="edge">
<title>Node2&#45;&gt;Node3</title>
<g id="a_edge2_Node000002_Node000003"><a xlink:title=" ">
<path fill="none" stroke="#63b8ff" d="M367.38,-29C358.77,-29 350.42,-29 342.97,-29"/>
<polygon fill="#63b8ff" stroke="#63b8ff" points="367.36,-32.5 377.36,-29 367.36,-25.5 367.36,-32.5"/>
</a>
</g>
</g>
<!-- Node4 -->
<g id="Node000004" class="node">
<title>Node4</title>
<g id="a_Node000004"><a xlink:href="a00531.html#ga4de477d51ea04cdcfcb1e3eb3ef0053a" target="_top" xlink:title="10ms PBV task to be execution">
<polygon fill="white" stroke="#666666" points="247.25,-39 107.5,-39 107.5,-19 247.25,-19 247.25,-39"/>
<text text-anchor="middle" x="177.38" y="-25.5" font-family="Helvetica,sans-Serif" font-size="10.00">App_PBV_DAB_Task_10ms</text>
</a>
</g>
</g>
<!-- Node3&#45;&gt;Node4 -->
<g id="edge3_Node000003_Node000004" class="edge">
<title>Node3&#45;&gt;Node4</title>
<g id="a_edge3_Node000003_Node000004"><a xlink:title=" ">
<path fill="none" stroke="#63b8ff" d="M272.11,-29C264.35,-29 256.01,-29 247.62,-29"/>
<polygon fill="#63b8ff" stroke="#63b8ff" points="272.01,-32.5 282.01,-29 272.01,-25.5 272.01,-32.5"/>
</a>
</g>
</g>
<!-- Node5 -->
<g id="Node000005" class="node">
<title>Node5</title>
<g id="a_Node000005"><a xlink:href="a00553.html#ga05751024e03719cbe14d88fb0af408dd" target="_top" xlink:title="Tasks_10ms gets called every 10ms, put your things in it that need to be called regularly.">
<polygon fill="white" stroke="#666666" points="71.5,-39 0,-39 0,-19 71.5,-19 71.5,-39"/>
<text text-anchor="middle" x="35.75" y="-25.5" font-family="Helvetica,sans-Serif" font-size="10.00">Tasks_10ms</text>
</a>
</g>
</g>
<!-- Node4&#45;&gt;Node5 -->
<g id="edge4_Node000004_Node000005" class="edge">
<title>Node4&#45;&gt;Node5</title>
<g id="a_edge4_Node000004_Node000005"><a xlink:title=" ">
<path fill="none" stroke="#63b8ff" d="M96.4,-29C87.78,-29 79.38,-29 71.73,-29"/>
<polygon fill="#63b8ff" stroke="#63b8ff" points="96.38,-32.5 106.38,-29 96.38,-25.5 96.38,-32.5"/>
</a>
</g>
</g>
<!-- Node6&#45;&gt;Node2 -->
<g id="edge6_Node000006_Node000002" class="edge">
<title>Node6&#45;&gt;Node2</title>
<g id="a_edge6_Node000006_Node000002"><a xlink:title=" ">
<path fill="none" stroke="#63b8ff" d="M529.17,-17.69C521.06,-18.75 512.72,-19.84 504.56,-20.9"/>
<polygon fill="#63b8ff" stroke="#63b8ff" points="529.58,-21.04 539.04,-16.27 528.67,-14.1 529.58,-21.04"/>
</a>
</g>
</g>
</g>
</svg>
