<?xml version="1.0" encoding="UTF-8" standalone="no"?>
<!DOCTYPE svg PUBLIC "-//W3C//DTD SVG 1.1//EN"
 "http://www.w3.org/Graphics/SVG/1.1/DTD/svg11.dtd">
<!-- Generated by graphviz version 8.1.0 (20230707.0739)
 -->
<!-- Title: Fault_Initialize Pages: 1 -->
<svg width="605pt" height="192pt"
 viewBox="0.00 0.00 605.25 192.00" xmlns="http://www.w3.org/2000/svg" xmlns:xlink="http://www.w3.org/1999/xlink">
<g id="graph0" class="graph" transform="scale(1 1) rotate(0) translate(4 188)">
<title>Fault_Initialize</title>
<!-- Node1 -->
<g id="Node000001" class="node">
<title>Node1</title>
<g id="a_Node000001"><a xlink:title="Initialize the fault objects.">
<polygon fill="#999999" stroke="#666666" points="78.25,-102 0,-102 0,-82 78.25,-82 78.25,-102"/>
<text text-anchor="middle" x="39.12" y="-88.5" font-family="Helvetica,sans-Serif" font-size="10.00">Fault_Initialize</text>
</a>
</g>
</g>
<!-- Node2 -->
<g id="Node000002" class="node">
<title>Node2</title>
<g id="a_Node000002"><a xlink:href="a00523.html#gada13a4830178c3947f7df4fdfafc7d07" target="_top" xlink:title="This function can be used to override default callback and to define custom callback for CMP1 Event e...">
<polygon fill="white" stroke="#666666" points="260,-184 114.25,-184 114.25,-164 260,-164 260,-184"/>
<text text-anchor="middle" x="187.12" y="-170.5" font-family="Helvetica,sans-Serif" font-size="10.00">CMP1_EventCallbackRegister</text>
</a>
</g>
</g>
<!-- Node1&#45;&gt;Node2 -->
<g id="edge1_Node000001_Node000002" class="edge">
<title>Node1&#45;&gt;Node2</title>
<g id="a_edge1_Node000001_Node000002"><a xlink:title=" ">
<path fill="none" stroke="#63b8ff" d="M49.15,-102.1C62.18,-116.06 87.6,-141.08 114.25,-155 117.71,-156.81 121.36,-158.46 125.11,-159.96"/>
<polygon fill="#63b8ff" stroke="#63b8ff" points="123.58,-163.49 134.17,-163.58 125.95,-156.9 123.58,-163.49"/>
</a>
</g>
</g>
<!-- Node3 -->
<g id="Node000003" class="node">
<title>Node3</title>
<g id="a_Node000003"><a xlink:href="a00523.html#ga0d7c1a0ccd35767078e0a677eff7e5d9" target="_top" xlink:title="This function can be used to override default callback and to define custom callback for CMP3 Event e...">
<polygon fill="white" stroke="#666666" points="260,-146 114.25,-146 114.25,-126 260,-126 260,-146"/>
<text text-anchor="middle" x="187.12" y="-132.5" font-family="Helvetica,sans-Serif" font-size="10.00">CMP3_EventCallbackRegister</text>
</a>
</g>
</g>
<!-- Node1&#45;&gt;Node3 -->
<g id="edge2_Node000001_Node000003" class="edge">
<title>Node1&#45;&gt;Node3</title>
<g id="a_edge2_Node000001_Node000003"><a xlink:title=" ">
<path fill="none" stroke="#63b8ff" d="M69.56,-102.43C83.1,-107.1 99.42,-112.55 114.25,-117 120.66,-118.93 127.42,-120.85 134.13,-122.7"/>
<polygon fill="#63b8ff" stroke="#63b8ff" points="133,-126.29 143.56,-125.52 134.83,-119.53 133,-126.29"/>
</a>
</g>
</g>
<!-- Node4 -->
<g id="Node000004" class="node">
<title>Node4</title>
<g id="a_Node000004"><a xlink:href="a00515.html#gaa8479905c2a8b34126d4fe56c1882b1b" target="_top" xlink:title="Enable Short circuit hardware protection.">
<polygon fill="white" stroke="#666666" points="249.12,-108 125.12,-108 125.12,-76 249.12,-76 249.12,-108"/>
<text text-anchor="start" x="133.12" y="-94.5" font-family="Helvetica,sans-Serif" font-size="10.00">Fault_EnableShortCircuit</text>
<text text-anchor="middle" x="187.12" y="-82.5" font-family="Helvetica,sans-Serif" font-size="10.00">Protection</text>
</a>
</g>
</g>
<!-- Node1&#45;&gt;Node4 -->
<g id="edge3_Node000001_Node000004" class="edge">
<title>Node1&#45;&gt;Node4</title>
<g id="a_edge3_Node000001_Node000004"><a xlink:title=" ">
<path fill="none" stroke="#63b8ff" d="M78.48,-92C89.46,-92 101.8,-92 114.1,-92"/>
<polygon fill="#63b8ff" stroke="#63b8ff" points="113.87,-95.5 123.87,-92 113.87,-88.5 113.87,-95.5"/>
</a>
</g>
</g>
<!-- Node5 -->
<g id="Node000005" class="node">
<title>Node5</title>
<g id="a_Node000005"><a xlink:href="a00515.html#gaf27f2f24932cec222273df148f8765cb" target="_top" xlink:title="Handles the fault trip by turning off the power control switching.">
<polygon fill="white" stroke="#666666" points="225.12,-58 149.12,-58 149.12,-38 225.12,-38 225.12,-58"/>
<text text-anchor="middle" x="187.12" y="-44.5" font-family="Helvetica,sans-Serif" font-size="10.00">Fault_Handler</text>
</a>
</g>
</g>
<!-- Node1&#45;&gt;Node5 -->
<g id="edge4_Node000001_Node000005" class="edge">
<title>Node1&#45;&gt;Node5</title>
<g id="a_edge4_Node000001_Node000005"><a xlink:title=" ">
<path fill="none" stroke="#63b8ff" d="M69.56,-81.57C83.1,-76.9 99.42,-71.45 114.25,-67 121.99,-64.68 130.23,-62.35 138.28,-60.17"/>
<polygon fill="#63b8ff" stroke="#63b8ff" points="138.93,-63.35 147.69,-57.39 137.12,-56.59 138.93,-63.35"/>
</a>
</g>
</g>
<!-- Node10 -->
<g id="Node000010" class="node">
<title>Node10</title>
<g id="a_Node000010"><a xlink:href="a00516.html#gae9aa4b1a3733fa6ee5fb7778bdf74103" target="_top" xlink:title="This function initializes the fault object data structure with the values that required to detect a f...">
<polygon fill="white" stroke="#666666" points="219.12,-20 155.12,-20 155.12,0 219.12,0 219.12,-20"/>
<text text-anchor="middle" x="187.12" y="-6.5" font-family="Helvetica,sans-Serif" font-size="10.00">FAULT_Init</text>
</a>
</g>
</g>
<!-- Node1&#45;&gt;Node10 -->
<g id="edge9_Node000001_Node000010" class="edge">
<title>Node1&#45;&gt;Node10</title>
<g id="a_edge9_Node000001_Node000010"><a xlink:title=" ">
<path fill="none" stroke="#63b8ff" d="M49.15,-81.9C62.18,-67.94 87.6,-42.92 114.25,-29 123.59,-24.12 134.28,-20.42 144.51,-17.65"/>
<polygon fill="#63b8ff" stroke="#63b8ff" points="145.06,-20.87 153.94,-15.08 143.39,-14.07 145.06,-20.87"/>
</a>
</g>
</g>
<!-- Node6 -->
<g id="Node000006" class="node">
<title>Node6</title>
<g id="a_Node000006"><a xlink:href="a00508.html#ga79ec0c0e524a03b3a3d423308b89bb99" target="_top" xlink:title="Disable the PWM output.">
<polygon fill="white" stroke="#666666" points="411,-58 296,-58 296,-38 411,-38 411,-58"/>
<text text-anchor="middle" x="353.5" y="-44.5" font-family="Helvetica,sans-Serif" font-size="10.00">PwrCtrl_PWM_Disable</text>
</a>
</g>
</g>
<!-- Node5&#45;&gt;Node6 -->
<g id="edge5_Node000005_Node000006" class="edge">
<title>Node5&#45;&gt;Node6</title>
<g id="a_edge5_Node000005_Node000006"><a xlink:title=" ">
<path fill="none" stroke="#63b8ff" d="M225.42,-48C243.01,-48 264.55,-48 284.86,-48"/>
<polygon fill="#63b8ff" stroke="#63b8ff" points="284.66,-51.5 294.66,-48 284.66,-44.5 284.66,-51.5"/>
</a>
</g>
</g>
<!-- Node7 -->
<g id="Node000007" class="node">
<title>Node7</title>
<g id="a_Node000007"><a xlink:href="a00526.html#ga531b59d8823e3ebda2da60f48582bcf3" target="_top" xlink:title="This inline function enables PWM override on PWMH output for specific PWM generator selected by the a...">
<polygon fill="white" stroke="#666666" points="587.5,-96 456.75,-96 456.75,-76 587.5,-76 587.5,-96"/>
<text text-anchor="middle" x="522.12" y="-82.5" font-family="Helvetica,sans-Serif" font-size="10.00">PWM_OverrideHighEnable</text>
</a>
</g>
</g>
<!-- Node6&#45;&gt;Node7 -->
<g id="edge6_Node000006_Node000007" class="edge">
<title>Node6&#45;&gt;Node7</title>
<g id="a_edge6_Node000006_Node000007"><a xlink:title=" ">
<path fill="none" stroke="#63b8ff" d="M400.47,-58.48C420.32,-63.01 443.74,-68.35 464.64,-73.12"/>
<polygon fill="#63b8ff" stroke="#63b8ff" points="463.78,-76.74 474.3,-75.55 465.33,-69.91 463.78,-76.74"/>
</a>
</g>
</g>
<!-- Node8 -->
<g id="Node000008" class="node">
<title>Node8</title>
<g id="a_Node000008"><a xlink:href="a00526.html#ga2548ca8feda75ba6ab784280679da6ae" target="_top" xlink:title="This inline function enables PWM override on PWML output for specific PWM generator selected by the a...">
<polygon fill="white" stroke="#666666" points="586.38,-58 457.88,-58 457.88,-38 586.38,-38 586.38,-58"/>
<text text-anchor="middle" x="522.12" y="-44.5" font-family="Helvetica,sans-Serif" font-size="10.00">PWM_OverrideLowEnable</text>
</a>
</g>
</g>
<!-- Node6&#45;&gt;Node8 -->
<g id="edge7_Node000006_Node000008" class="edge">
<title>Node6&#45;&gt;Node8</title>
<g id="a_edge7_Node000006_Node000008"><a xlink:title=" ">
<path fill="none" stroke="#63b8ff" d="M411.38,-48C422.78,-48 434.92,-48 446.82,-48"/>
<polygon fill="#63b8ff" stroke="#63b8ff" points="446.64,-51.5 456.64,-48 446.64,-44.5 446.64,-51.5"/>
</a>
</g>
</g>
<!-- Node9 -->
<g id="Node000009" class="node">
<title>Node9</title>
<g id="a_Node000009"><a xlink:href="a00526.html#ga83e780358618114f0d424ca7467cf751" target="_top" xlink:title="This inline function requests to update the data registers for specific PWM generator selected by the...">
<polygon fill="white" stroke="#666666" points="597.25,-20 447,-20 447,0 597.25,0 597.25,-20"/>
<text text-anchor="middle" x="522.12" y="-6.5" font-family="Helvetica,sans-Serif" font-size="10.00">PWM_SoftwareUpdateRequest</text>
</a>
</g>
</g>
<!-- Node6&#45;&gt;Node9 -->
<g id="edge8_Node000006_Node000009" class="edge">
<title>Node6&#45;&gt;Node9</title>
<g id="a_edge8_Node000006_Node000009"><a xlink:title=" ">
<path fill="none" stroke="#63b8ff" d="M400.47,-37.52C420.32,-32.99 443.74,-27.65 464.64,-22.88"/>
<polygon fill="#63b8ff" stroke="#63b8ff" points="465.33,-26.09 474.3,-20.45 463.78,-19.26 465.33,-26.09"/>
</a>
</g>
</g>
</g>
</svg>
