<?xml version="1.0" encoding="UTF-8" standalone="no"?>
<!DOCTYPE svg PUBLIC "-//W3C//DTD SVG 1.1//EN"
 "http://www.w3.org/Graphics/SVG/1.1/DTD/svg11.dtd">
<!-- Generated by graphviz version 8.1.0 (20230707.0739)
 -->
<!-- Title: Tasks_100ms Pages: 1 -->
<!--zoomable 344 -->

<svg id="main" version="1.1" xmlns="http://www.w3.org/2000/svg" xmlns:xlink="http://www.w3.org/1999/xlink" xml:space="preserve" onload="init(evt)">
<style type="text/css"><![CDATA[
.node, .edge {opacity: 0.7;}
.node.selected, .edge.selected {opacity: 1;}
.edge:hover path { stroke: red; }
.edge:hover polygon { stroke: red; fill: red; }
]]></style>

<defs>
  <circle id="rim" cx="0" cy="0" r="7"/>
  <circle id="rim2" cx="0" cy="0" r="3.5"/>
  <g id="zoomPlus">
    <use xlink:href="#rim" fill="#404040"><set attributeName="fill" to="#808080" begin="zoomplus.mouseover" end="zoomplus.mouseout"/></use>
    <path d="M-4,0h8M0,-4v8" fill="none" stroke="white" stroke-width="1.5" pointer-events="none"/>
  </g>
  <g id="zoomMin">
    <use xlink:href="#rim" fill="#404040"><set attributeName="fill" to="#808080" begin="zoomminus.mouseover" end="zoomminus.mouseout"/></use>
    <path d="M-4,0h8" fill="none" stroke="white" stroke-width="1.5" pointer-events="none"/>
  </g>
  <g id="arrowUp" transform="translate(30 24)">
    <use xlink:href="#rim"/>
    <path pointer-events="none" fill="none" stroke="white" stroke-width="1.5" d="M0,-3.0v7 M-2.5,-0.5L0,-3.0L2.5,-0.5"/>
  </g>
  <g id="arrowRight" transform="rotate(90) translate(36 -43)">
    <use xlink:href="#rim"/>
    <path pointer-events="none" fill="none" stroke="white" stroke-width="1.5" d="M0,-3.0v7 M-2.5,-0.5L0,-3.0L2.5,-0.5"/>
  </g>
  <g id="arrowDown" transform="rotate(180) translate(-30 -48)">
    <use xlink:href="#rim"/>
    <path pointer-events="none" fill="none" stroke="white" stroke-width="1.5" d="M0,-3.0v7 M-2.5,-0.5L0,-3.0L2.5,-0.5"/>
  </g>
  <g id="arrowLeft" transform="rotate(270) translate(-36 17)">
    <use xlink:href="#rim"/>
    <path pointer-events="none" fill="none" stroke="white" stroke-width="1.5" d="M0,-3.0v7 M-2.5,-0.5L0,-3.0L2.5,-0.5"/>
  </g>
  <g id="resetDef">
    <use xlink:href="#rim2" fill="#404040"><set attributeName="fill" to="#808080" begin="reset.mouseover" end="reset.mouseout"/></use>
  </g>
</defs>
<script type="application/ecmascript">
var viewWidth = 795;
var viewHeight = 344;
var sectionId = 'dynsection-0';
</script>
<script type="application/ecmascript" xlink:href="svg.min.js"/>
<svg id="graph" class="graph">
<g id="viewport">
<title>Tasks_100ms</title>
<!-- Node1 -->
<g id="Node000001" class="node">
<title>Node1</title>
<g id="a_Node000001"><a xlink:title="Tasks_100ms gets called every 100 ms, put your things in it that need to be called regularly.">
<polygon fill="#999999" stroke="#666666" points="76.75,-222 0,-222 0,-202 76.75,-202 76.75,-222"/>
<text text-anchor="middle" x="38.38" y="-208.5" font-family="Helvetica,sans-Serif" font-size="10.00">Tasks_100ms</text>
</a>
</g>
</g>
<!-- Node2 -->
<g id="Node000002" class="node">
<title>Node2</title>
<g id="a_Node000002"><a xlink:href="a00511.html#ga1bd7dce99469a41bbb705d939ea512ad" target="_top" xlink:title="this function needs to be called every 100ms it contains the code to update the status of the fan">
<polygon fill="white" stroke="#666666" points="230.75,-288 116.5,-288 116.5,-268 230.75,-268 230.75,-288"/>
<text text-anchor="middle" x="173.62" y="-274.5" font-family="Helvetica,sans-Serif" font-size="10.00">Dev_Fan_Task_100ms</text>
</a>
</g>
</g>
<!-- Node1&#45;&gt;Node2 -->
<g id="edge1_Node000001_Node000002" class="edge">
<title>Node1&#45;&gt;Node2</title>
<g id="a_edge1_Node000001_Node000002"><a xlink:title=" ">
<path fill="none" stroke="#63b8ff" d="M58.89,-222.38C73.61,-230.14 94.35,-240.94 112.75,-250 121.48,-254.3 131,-258.82 139.82,-262.95"/>
<polygon fill="#63b8ff" stroke="#63b8ff" points="138.23,-266.54 148.78,-267.58 141.18,-260.19 138.23,-266.54"/>
</a>
</g>
</g>
<!-- Node8 -->
<g id="Node000008" class="node">
<title>Node8</title>
<g id="a_Node000008"><a xlink:href="a00512.html#gad26b3effecb0675aad3bcba8993a0bb2" target="_top" xlink:title="This function needs to be called every 100ms and contains the code to update the status of the LEDs.">
<polygon fill="white" stroke="#666666" points="231.88,-241 115.38,-241 115.38,-221 231.88,-221 231.88,-241"/>
<text text-anchor="middle" x="173.62" y="-227.5" font-family="Helvetica,sans-Serif" font-size="10.00">Dev_LED_Task_100ms</text>
</a>
</g>
</g>
<!-- Node1&#45;&gt;Node8 -->
<g id="edge7_Node000001_Node000008" class="edge">
<title>Node1&#45;&gt;Node8</title>
<g id="a_edge7_Node000001_Node000008"><a xlink:title=" ">
<path fill="none" stroke="#63b8ff" d="M77.2,-217.39C85.66,-218.6 94.89,-219.92 104.17,-221.24"/>
<polygon fill="#63b8ff" stroke="#63b8ff" points="103.64,-224.84 114.04,-222.79 104.63,-217.91 103.64,-224.84"/>
</a>
</g>
</g>
<!-- Node9 -->
<g id="Node000009" class="node">
<title>Node9</title>
<g id="a_Node000009"><a xlink:href="a00513.html#ga642e882a6d78b8915f39b54f7183f71f" target="_top" xlink:title="Executes the Temperature reading every 100ms.">
<polygon fill="white" stroke="#666666" points="234.5,-203 112.75,-203 112.75,-183 234.5,-183 234.5,-203"/>
<text text-anchor="middle" x="173.62" y="-189.5" font-family="Helvetica,sans-Serif" font-size="10.00">Dev_Temp_Task_100ms</text>
</a>
</g>
</g>
<!-- Node1&#45;&gt;Node9 -->
<g id="edge8_Node000001_Node000009" class="edge">
<title>Node1&#45;&gt;Node9</title>
<g id="a_edge8_Node000001_Node000009"><a xlink:title=" ">
<path fill="none" stroke="#63b8ff" d="M77.2,-206.61C84.88,-205.51 93.2,-204.33 101.61,-203.13"/>
<polygon fill="#63b8ff" stroke="#63b8ff" points="101.86,-206.48 111.27,-201.61 100.87,-199.55 101.86,-206.48"/>
</a>
</g>
</g>
<!-- Node14 -->
<g id="Node000014" class="node">
<title>Node14</title>
<g id="a_Node000014"><a xlink:href="a00527.html#ga35608d94d8d76de809bb7588a325abc9" target="_top" xlink:title="Fault evaluation for Temperature and other slow fault detection executed every 100ms.">
<polygon fill="white" stroke="#666666" points="230.38,-118 116.88,-118 116.88,-98 230.38,-98 230.38,-118"/>
<text text-anchor="middle" x="173.62" y="-104.5" font-family="Helvetica,sans-Serif" font-size="10.00">Fault_Execute_100ms</text>
</a>
</g>
</g>
<!-- Node1&#45;&gt;Node14 -->
<g id="edge13_Node000001_Node000014" class="edge">
<title>Node1&#45;&gt;Node14</title>
<g id="a_edge13_Node000001_Node000014"><a xlink:title=" ">
<path fill="none" stroke="#63b8ff" d="M52.64,-201.65C75.59,-183.74 122.91,-146.81 150.77,-125.05"/>
<polygon fill="#63b8ff" stroke="#63b8ff" points="152.69,-127.22 158.41,-118.31 148.38,-121.7 152.69,-127.22"/>
</a>
</g>
</g>
<!-- Node3 -->
<g id="Node000003" class="node">
<title>Node3</title>
<g id="a_Node000003"><a xlink:href="a00511.html#ga66c5db181798514534d7f97b622ca35e" target="_top" xlink:title="Calculates the fan speed.">
<polygon fill="white" stroke="#666666" points="389.62,-336 300.12,-336 300.12,-316 389.62,-316 389.62,-336"/>
<text text-anchor="middle" x="344.88" y="-322.5" font-family="Helvetica,sans-Serif" font-size="10.00">Calculate_Speed</text>
</a>
</g>
</g>
<!-- Node2&#45;&gt;Node3 -->
<g id="edge2_Node000002_Node000003" class="edge">
<title>Node2&#45;&gt;Node3</title>
<g id="a_edge2_Node000002_Node000003"><a xlink:title=" ">
<path fill="none" stroke="#63b8ff" d="M207.81,-288.4C226.22,-294.08 249.57,-301.13 270.5,-307 277.4,-308.93 284.67,-310.91 291.86,-312.81"/>
<polygon fill="#63b8ff" stroke="#63b8ff" points="290.71,-316.39 301.28,-315.54 292.49,-309.62 290.71,-316.39"/>
</a>
</g>
</g>
<!-- Node5 -->
<g id="Node000005" class="node">
<title>Node5</title>
<g id="a_Node000005"><a xlink:href="a00511.html#ga0d2b426f7411623a821415f02956aac8" target="_top" xlink:title="Override the fan speed with maximum speed.">
<polygon fill="white" stroke="#666666" points="387,-298 302.75,-298 302.75,-278 387,-278 387,-298"/>
<text text-anchor="middle" x="344.88" y="-284.5" font-family="Helvetica,sans-Serif" font-size="10.00">Override_Speed</text>
</a>
</g>
</g>
<!-- Node2&#45;&gt;Node5 -->
<g id="edge4_Node000002_Node000005" class="edge">
<title>Node2&#45;&gt;Node5</title>
<g id="a_edge4_Node000002_Node000005"><a xlink:title=" ">
<path fill="none" stroke="#63b8ff" d="M230.98,-281.33C250.52,-282.48 272.32,-283.77 291.52,-284.91"/>
<polygon fill="#63b8ff" stroke="#63b8ff" points="291.29,-288.46 301.48,-285.55 291.71,-281.47 291.29,-288.46"/>
</a>
</g>
</g>
<!-- Node6 -->
<g id="Node000006" class="node">
<title>Node6</title>
<g id="a_Node000006"><a xlink:href="a00511.html#gad7e38e334c2209a2a296bf3f573fed78" target="_top" xlink:title="Update the fan speed.">
<polygon fill="white" stroke="#666666" points="384.75,-260 305,-260 305,-240 384.75,-240 384.75,-260"/>
<text text-anchor="middle" x="344.88" y="-246.5" font-family="Helvetica,sans-Serif" font-size="10.00">Update_Speed</text>
</a>
</g>
</g>
<!-- Node2&#45;&gt;Node6 -->
<g id="edge5_Node000002_Node000006" class="edge">
<title>Node2&#45;&gt;Node6</title>
<g id="a_edge5_Node000002_Node000006"><a xlink:title=" ">
<path fill="none" stroke="#63b8ff" d="M230.98,-268.68C251.35,-265.31 274.18,-261.53 293.96,-258.26"/>
<polygon fill="#63b8ff" stroke="#63b8ff" points="294.3,-261.58 303.59,-256.5 293.15,-254.68 294.3,-261.58"/>
</a>
</g>
</g>
<!-- Node4 -->
<g id="Node000004" class="node">
<title>Node4</title>
<g id="a_Node000004"><a xlink:href="a00511.html#ga3ba0ef09cbd1274a9c325fc04cab411d" target="_top" xlink:title="Converts the percentage value to number of ticks.">
<polygon fill="white" stroke="#666666" points="593.12,-336 462.38,-336 462.38,-316 593.12,-316 593.12,-336"/>
<text text-anchor="middle" x="527.75" y="-322.5" font-family="Helvetica,sans-Serif" font-size="10.00">Convert_From_Percentage</text>
</a>
</g>
</g>
<!-- Node3&#45;&gt;Node4 -->
<g id="edge3_Node000003_Node000004" class="edge">
<title>Node3&#45;&gt;Node4</title>
<g id="a_edge3_Node000003_Node000004"><a xlink:title=" ">
<path fill="none" stroke="#63b8ff" d="M390.12,-326C408.56,-326 430.49,-326 451.33,-326"/>
<polygon fill="#63b8ff" stroke="#63b8ff" points="451.11,-329.5 461.11,-326 451.11,-322.5 451.11,-329.5"/>
</a>
</g>
</g>
<!-- Node7 -->
<g id="Node000007" class="node">
<title>Node7</title>
<g id="a_Node000007"><a xlink:href="a00311.html#a1adc887cf6c46c0eed096f1e8d203cae" target="_top" xlink:title=" ">
<polygon fill="white" stroke="#666666" points="577.75,-260 477.75,-260 477.75,-240 577.75,-240 577.75,-260"/>
<text text-anchor="middle" x="527.75" y="-246.5" font-family="Helvetica,sans-Serif" font-size="10.00">Convert_From_Raw</text>
</a>
</g>
</g>
<!-- Node6&#45;&gt;Node7 -->
<g id="edge6_Node000006_Node000007" class="edge">
<title>Node6&#45;&gt;Node7</title>
<g id="a_edge6_Node000006_Node000007"><a xlink:title=" ">
<path fill="none" stroke="#63b8ff" d="M385.12,-250C408.96,-250 439.86,-250 466.72,-250"/>
<polygon fill="#63b8ff" stroke="#63b8ff" points="466.56,-253.5 476.56,-250 466.56,-246.5 466.56,-253.5"/>
</a>
</g>
</g>
<!-- Node10 -->
<g id="Node000010" class="node">
<title>Node10</title>
<g id="a_Node000010"><a xlink:href="a00513.html#gaed1c98bc3ba65035d1ac0bdda433d812" target="_top" xlink:title="Returns the temperature average value.">
<polygon fill="white" stroke="#666666" points="419.25,-222 270.5,-222 270.5,-202 419.25,-202 419.25,-222"/>
<text text-anchor="middle" x="344.88" y="-208.5" font-family="Helvetica,sans-Serif" font-size="10.00">Average_Temp_ADC_Samples</text>
</a>
</g>
</g>
<!-- Node9&#45;&gt;Node10 -->
<g id="edge9_Node000009_Node000010" class="edge">
<title>Node9&#45;&gt;Node10</title>
<g id="a_edge9_Node000009_Node000010"><a xlink:title=" ">
<path fill="none" stroke="#63b8ff" d="M234.77,-199.75C242.77,-200.65 251.08,-201.58 259.39,-202.52"/>
<polygon fill="#63b8ff" stroke="#63b8ff" points="258.96,-206.1 269.29,-203.74 259.74,-199.15 258.96,-206.1"/>
</a>
</g>
</g>
<!-- Node12 -->
<g id="Node000012" class="node">
<title>Node12</title>
<g id="a_Node000012"><a xlink:href="a00513.html#ga6ce3446cb43022df6a5a96c90ec70a17" target="_top" xlink:title="Gets the temperature ADC sample.">
<polygon fill="white" stroke="#666666" points="417.75,-184 272,-184 272,-164 417.75,-164 417.75,-184"/>
<text text-anchor="middle" x="344.88" y="-170.5" font-family="Helvetica,sans-Serif" font-size="10.00">Dev_Temp_Get_ADC_Sample</text>
</a>
</g>
</g>
<!-- Node9&#45;&gt;Node12 -->
<g id="edge11_Node000009_Node000012" class="edge">
<title>Node9&#45;&gt;Node12</title>
<g id="a_edge11_Node000009_Node000012"><a xlink:title=" ">
<path fill="none" stroke="#63b8ff" d="M234.77,-186.25C243.28,-185.29 252.16,-184.3 261,-183.3"/>
<polygon fill="#63b8ff" stroke="#63b8ff" points="261.21,-186.69 270.76,-182.1 260.43,-179.73 261.21,-186.69"/>
</a>
</g>
</g>
<!-- Node11 -->
<g id="Node000011" class="node">
<title>Node11</title>
<g id="a_Node000011"><a xlink:href="a00513.html#ga87aa48cb3d8848b8dc9bee6ce978b1b1" target="_top" xlink:title="Averages the temperature ADC samples.">
<polygon fill="white" stroke="#666666" points="590.5,-222 465,-222 465,-202 590.5,-202 590.5,-222"/>
<text text-anchor="middle" x="527.75" y="-208.5" font-family="Helvetica,sans-Serif" font-size="10.00">Temp_Calculate_Average</text>
</a>
</g>
</g>
<!-- Node10&#45;&gt;Node11 -->
<g id="edge10_Node000010_Node000011" class="edge">
<title>Node10&#45;&gt;Node11</title>
<g id="a_edge10_Node000010_Node000011"><a xlink:title=" ">
<path fill="none" stroke="#63b8ff" d="M419.7,-212C431.03,-212 442.72,-212 454.02,-212"/>
<polygon fill="#63b8ff" stroke="#63b8ff" points="453.71,-215.5 463.71,-212 453.71,-208.5 453.71,-215.5"/>
</a>
</g>
</g>
<!-- Node13 -->
<g id="Node000013" class="node">
<title>Node13</title>
<g id="a_Node000013"><a xlink:href="a00523.html#gac82d4ab7cf3f3ca8180033a4d17d789f" target="_top" xlink:title="API function to get the raw ADC value for temperature.">
<polygon fill="white" stroke="#666666" points="600.25,-184 455.25,-184 455.25,-164 600.25,-164 600.25,-184"/>
<text text-anchor="middle" x="527.75" y="-170.5" font-family="Helvetica,sans-Serif" font-size="10.00">PwrCtrl_GetAdc_Temperature</text>
</a>
</g>
</g>
<!-- Node12&#45;&gt;Node13 -->
<g id="edge12_Node000012_Node000013" class="edge">
<title>Node12&#45;&gt;Node13</title>
<g id="a_edge12_Node000012_Node000013"><a xlink:title=" ">
<path fill="none" stroke="#63b8ff" d="M418.14,-174C426.65,-174 435.39,-174 444.02,-174"/>
<polygon fill="#63b8ff" stroke="#63b8ff" points="443.89,-177.5 453.89,-174 443.89,-170.5 443.89,-177.5"/>
</a>
</g>
</g>
<!-- Node15 -->
<g id="Node000015" class="node">
<title>Node15</title>
<g id="a_Node000015"><a xlink:href="a00513.html#gac9618e1ca87e77920c94cdfdcc80321a" target="_top" xlink:title="This converts the raw values to temperature celcius as per device lookup table.">
<polygon fill="white" stroke="#666666" points="415.5,-146 274.25,-146 274.25,-114 415.5,-114 415.5,-146"/>
<text text-anchor="start" x="282.25" y="-132.5" font-family="Helvetica,sans-Serif" font-size="10.00">Dev_Temp_Get_Temperature</text>
<text text-anchor="middle" x="344.88" y="-120.5" font-family="Helvetica,sans-Serif" font-size="10.00">_Celcius</text>
</a>
</g>
</g>
<!-- Node14&#45;&gt;Node15 -->
<g id="edge14_Node000014_Node000015" class="edge">
<title>Node14&#45;&gt;Node15</title>
<g id="a_edge14_Node000014_Node000015"><a xlink:title=" ">
<path fill="none" stroke="#63b8ff" d="M230.51,-115.26C241.02,-116.63 252.2,-118.08 263.28,-119.52"/>
<polygon fill="#63b8ff" stroke="#63b8ff" points="262.49,-123.08 272.86,-120.9 263.39,-116.14 262.49,-123.08"/>
</a>
</g>
</g>
<!-- Node16 -->
<g id="Node000016" class="node">
<title>Node16</title>
<g id="a_Node000016"><a xlink:href="a00528.html#ga1a12d5b7c5b1f234c50ea2214e91fcfc" target="_top" xlink:title="This function compares the fault source value with the threshold limits and sets (or) resets the faul...">
<polygon fill="white" stroke="#666666" points="393.75,-96 296,-96 296,-76 393.75,-76 393.75,-96"/>
<text text-anchor="middle" x="344.88" y="-82.5" font-family="Helvetica,sans-Serif" font-size="10.00">FAULT_CheckMax</text>
</a>
</g>
</g>
<!-- Node14&#45;&gt;Node16 -->
<g id="edge15_Node000014_Node000016" class="edge">
<title>Node14&#45;&gt;Node16</title>
<g id="a_edge15_Node000014_Node000016"><a xlink:title=" ">
<path fill="none" stroke="#63b8ff" d="M230.51,-100.74C247.98,-98.47 267.29,-95.95 284.95,-93.66"/>
<polygon fill="#63b8ff" stroke="#63b8ff" points="285.24,-97.02 294.71,-92.26 284.34,-90.08 285.24,-97.02"/>
</a>
</g>
</g>
<!-- Node17 -->
<g id="Node000017" class="node">
<title>Node17</title>
<g id="a_Node000017"><a xlink:href="a00527.html#gaf27f2f24932cec222273df148f8765cb" target="_top" xlink:title="Handles the fault trip by turning off the power control switching.">
<polygon fill="white" stroke="#666666" points="382.88,-58 306.88,-58 306.88,-38 382.88,-38 382.88,-58"/>
<text text-anchor="middle" x="344.88" y="-44.5" font-family="Helvetica,sans-Serif" font-size="10.00">Fault_Handler</text>
</a>
</g>
</g>
<!-- Node14&#45;&gt;Node17 -->
<g id="edge16_Node000014_Node000017" class="edge">
<title>Node14&#45;&gt;Node17</title>
<g id="a_edge16_Node000014_Node000017"><a xlink:title=" ">
<path fill="none" stroke="#63b8ff" d="M196.34,-97.6C215.54,-88.67 244.46,-75.88 270.5,-67 278.73,-64.19 287.61,-61.57 296.25,-59.22"/>
<polygon fill="#63b8ff" stroke="#63b8ff" points="296.82,-62.42 305.6,-56.49 295.04,-55.65 296.82,-62.42"/>
</a>
</g>
</g>
<!-- Node18 -->
<g id="Node000018" class="node">
<title>Node18</title>
<g id="a_Node000018"><a xlink:href="a00520.html#ga79ec0c0e524a03b3a3d423308b89bb99" target="_top" xlink:title="Disable the PWM output.">
<polygon fill="white" stroke="#666666" points="585.25,-58 470.25,-58 470.25,-38 585.25,-38 585.25,-58"/>
<text text-anchor="middle" x="527.75" y="-44.5" font-family="Helvetica,sans-Serif" font-size="10.00">PwrCtrl_PWM_Disable</text>
</a>
</g>
</g>
<!-- Node17&#45;&gt;Node18 -->
<g id="edge17_Node000017_Node000018" class="edge">
<title>Node17&#45;&gt;Node18</title>
<g id="a_edge17_Node000017_Node000018"><a xlink:title=" ">
<path fill="none" stroke="#63b8ff" d="M383.35,-48C405.26,-48 433.58,-48 459.25,-48"/>
<polygon fill="#63b8ff" stroke="#63b8ff" points="459.07,-51.5 469.07,-48 459.07,-44.5 459.07,-51.5"/>
</a>
</g>
</g>
<!-- Node19 -->
<g id="Node000019" class="node">
<title>Node19</title>
<g id="a_Node000019"><a xlink:href="a00538.html#ga531b59d8823e3ebda2da60f48582bcf3" target="_top" xlink:title="This inline function enables PWM override on PWMH output for specific PWM generator selected by the a...">
<polygon fill="white" stroke="#666666" points="776.75,-96 646,-96 646,-76 776.75,-76 776.75,-96"/>
<text text-anchor="middle" x="711.38" y="-82.5" font-family="Helvetica,sans-Serif" font-size="10.00">PWM_OverrideHighEnable</text>
</a>
</g>
</g>
<!-- Node18&#45;&gt;Node19 -->
<g id="edge18_Node000018_Node000019" class="edge">
<title>Node18&#45;&gt;Node19</title>
<g id="a_edge18_Node000018_Node000019"><a xlink:title=" ">
<path fill="none" stroke="#63b8ff" d="M578.86,-58.48C600.8,-63.07 626.73,-68.5 649.74,-73.31"/>
<polygon fill="#63b8ff" stroke="#63b8ff" points="648.92,-76.93 659.43,-75.55 650.36,-70.08 648.92,-76.93"/>
</a>
</g>
</g>
<!-- Node20 -->
<g id="Node000020" class="node">
<title>Node20</title>
<g id="a_Node000020"><a xlink:href="a00538.html#ga2548ca8feda75ba6ab784280679da6ae" target="_top" xlink:title="This inline function enables PWM override on PWML output for specific PWM generator selected by the a...">
<polygon fill="white" stroke="#666666" points="775.62,-58 647.12,-58 647.12,-38 775.62,-38 775.62,-58"/>
<text text-anchor="middle" x="711.38" y="-44.5" font-family="Helvetica,sans-Serif" font-size="10.00">PWM_OverrideLowEnable</text>
</a>
</g>
</g>
<!-- Node18&#45;&gt;Node20 -->
<g id="edge19_Node000018_Node000020" class="edge">
<title>Node18&#45;&gt;Node20</title>
<g id="a_edge19_Node000018_Node000020"><a xlink:title=" ">
<path fill="none" stroke="#63b8ff" d="M585.72,-48C601.59,-48 619.07,-48 635.8,-48"/>
<polygon fill="#63b8ff" stroke="#63b8ff" points="635.65,-51.5 645.65,-48 635.65,-44.5 635.65,-51.5"/>
</a>
</g>
</g>
<!-- Node21 -->
<g id="Node000021" class="node">
<title>Node21</title>
<g id="a_Node000021"><a xlink:href="a00538.html#ga83e780358618114f0d424ca7467cf751" target="_top" xlink:title="This inline function requests to update the data registers for specific PWM generator selected by the...">
<polygon fill="white" stroke="#666666" points="786.5,-20 636.25,-20 636.25,0 786.5,0 786.5,-20"/>
<text text-anchor="middle" x="711.38" y="-6.5" font-family="Helvetica,sans-Serif" font-size="10.00">PWM_SoftwareUpdateRequest</text>
</a>
</g>
</g>
<!-- Node18&#45;&gt;Node21 -->
<g id="edge20_Node000018_Node000021" class="edge">
<title>Node18&#45;&gt;Node21</title>
<g id="a_edge20_Node000018_Node000021"><a xlink:title=" ">
<path fill="none" stroke="#63b8ff" d="M578.86,-37.52C600.8,-32.93 626.73,-27.5 649.74,-22.69"/>
<polygon fill="#63b8ff" stroke="#63b8ff" points="650.36,-25.92 659.43,-20.45 648.92,-19.07 650.36,-25.92"/>
</a>
</g>
</g>
</g>
</svg>

<g id="navigator" transform="translate(0 0)" fill="#404254">
  <rect fill="#f2f5e9" fill-opacity="0.5" stroke="#606060" stroke-width=".5" x="0" y="0" width="60" height="60"/>
  <use id="zoomplus" xlink:href="#zoomPlus" x="17" y="9" onmousedown="handleZoom(evt,'in')"/>
  <use id="zoomminus" xlink:href="#zoomMin" x="42" y="9" onmousedown="handleZoom(evt,'out')"/>
  <use id="reset" xlink:href="#resetDef" x="30" y="36" onmousedown="handleReset()"/>
   <use id="arrowup" xlink:href="#arrowUp" x="0" y="0" onmousedown="handlePan(0,-1)"/>
  <use id="arrowright" xlink:href="#arrowRight" x="0" y="0" onmousedown="handlePan(1,0)"/>
  <use id="arrowdown" xlink:href="#arrowDown" x="0" y="0" onmousedown="handlePan(0,1)"/>
  <use id="arrowleft" xlink:href="#arrowLeft" x="0" y="0" onmousedown="handlePan(-1,0)"/>
</g>
<svg viewBox="0 0 15 15" width="100%" height="30px" preserveAspectRatio="xMaxYMin meet">
 <g id="arrow_out" transform="scale(0.3 0.3)">
  <a xlink:href="a00529_ga6d5c487ee3f418e6d0432867d11adaed_cgraph_org.svg" target="_base">
   <rect id="button" ry="5" rx="5" y="6" x="6" height="38" width="38"
        fill="#f2f5e9" fill-opacity="0.5" stroke="#606060" stroke-width="1.0"/>
   <path id="arrow"
     d="M 11.500037,31.436501 C 11.940474,20.09759 22.043105,11.32322 32.158766,21.979434 L 37.068811,17.246167 C 37.068811,17.246167 37.088388,32 37.088388,32 L 22.160133,31.978069 C 22.160133,31.978069 26.997745,27.140456 26.997745,27.140456 C 18.528582,18.264221 13.291696,25.230495 11.500037,31.436501 z"
     style="fill:#404040;"/>
  </a>
 </g>
</svg>

<style type='text/css'>
<![CDATA[
[data-mouse-over-selected='false'] { opacity: 0.7; }
[data-mouse-over-selected='true']  { opacity: 1.0; }
]]>
</style>
<script type="application/ecmascript"><![CDATA[
document.addEventListener('DOMContentLoaded', (event) => {
  highlightEdges();
  highlightAdjacentNodes();
});
]]></script>
</svg>
