<?xml version="1.0" encoding="UTF-8" standalone="no"?>
<!DOCTYPE svg PUBLIC "-//W3C//DTD SVG 1.1//EN"
 "http://www.w3.org/Graphics/SVG/1.1/DTD/svg11.dtd">
<!-- Generated by graphviz version 8.1.0 (20230707.0739)
 -->
<!-- Title: PBV_UART_Receive_from_GUI Pages: 1 -->
<svg width="695pt" height="142pt"
 viewBox="0.00 0.00 694.50 142.00" xmlns="http://www.w3.org/2000/svg" xmlns:xlink="http://www.w3.org/1999/xlink">
<g id="graph0" class="graph" transform="scale(1 1) rotate(0) translate(4 138)">
<title>PBV_UART_Receive_from_GUI</title>
<!-- Node1 -->
<g id="Node000001" class="node">
<title>Node1</title>
<g id="a_Node000001"><a xlink:title="implements the state machine for UART Frame receiving from PBV.">
<polygon fill="#999999" stroke="#666666" points="151.75,-77 0,-77 0,-57 151.75,-57 151.75,-77"/>
<text text-anchor="middle" x="75.88" y="-63.5" font-family="Helvetica,sans-Serif" font-size="10.00">PBV_UART_Receive_from_GUI</text>
</a>
</g>
</g>
<!-- Node2 -->
<g id="Node000002" class="node">
<title>Node2</title>
<g id="a_Node000002"><a xlink:href="a00522.html#ga24413d8db99647b26a8e7ae233c5c63e" target="_top" xlink:title="Calculates the CRC on 16 bit stream of data.">
<polygon fill="white" stroke="#666666" points="295.25,-77 187.75,-77 187.75,-57 295.25,-57 295.25,-77"/>
<text text-anchor="middle" x="241.5" y="-63.5" font-family="Helvetica,sans-Serif" font-size="10.00">PBV_Calculate_CRC</text>
</a>
</g>
</g>
<!-- Node1&#45;&gt;Node2 -->
<g id="edge1_Node000001_Node000002" class="edge">
<title>Node1&#45;&gt;Node2</title>
<g id="a_edge1_Node000001_Node000002"><a xlink:title=" ">
<path fill="none" stroke="#63b8ff" d="M151.98,-67C160.18,-67 168.48,-67 176.53,-67"/>
<polygon fill="#63b8ff" stroke="#63b8ff" points="176.32,-70.5 186.32,-67 176.32,-63.5 176.32,-70.5"/>
</a>
</g>
</g>
<!-- Node3 -->
<g id="Node000003" class="node">
<title>Node3</title>
<g id="a_Node000003"><a xlink:href="a00554.html#ga9deaccba0d18fa00991e60c07770f9d5" target="_top" xlink:title="CRC module calculation on a buffer in data space.">
<polygon fill="white" stroke="#666666" points="478.88,-134 351.12,-134 351.12,-114 478.88,-114 478.88,-134"/>
<text text-anchor="middle" x="415" y="-120.5" font-family="Helvetica,sans-Serif" font-size="10.00">CRC_CalculateBufferStart</text>
</a>
</g>
</g>
<!-- Node2&#45;&gt;Node3 -->
<g id="edge2_Node000002_Node000003" class="edge">
<title>Node2&#45;&gt;Node3</title>
<g id="a_edge2_Node000002_Node000003"><a xlink:title=" ">
<path fill="none" stroke="#63b8ff" d="M263.97,-77.48C281.69,-85.81 307.67,-97.31 331.25,-105 337.84,-107.15 344.8,-109.15 351.78,-110.98"/>
<polygon fill="#63b8ff" stroke="#63b8ff" points="350.41,-114.5 360.96,-113.55 352.12,-107.71 350.41,-114.5"/>
</a>
</g>
</g>
<!-- Node4 -->
<g id="Node000004" class="node">
<title>Node4</title>
<g id="a_Node000004"><a xlink:href="a00554.html#gaf55c3e382b50ab182645f68e85873e0a" target="_top" xlink:title="Returns the CRC calculation complete status">
<polygon fill="white" stroke="#666666" points="474.75,-96 355.25,-96 355.25,-76 474.75,-76 474.75,-96"/>
<text text-anchor="middle" x="415" y="-82.5" font-family="Helvetica,sans-Serif" font-size="10.00">CRC_CalculationIsDone</text>
</a>
</g>
</g>
<!-- Node2&#45;&gt;Node4 -->
<g id="edge3_Node000002_Node000004" class="edge">
<title>Node2&#45;&gt;Node4</title>
<g id="a_edge3_Node000002_Node000004"><a xlink:title=" ">
<path fill="none" stroke="#63b8ff" d="M295.36,-72.86C310.86,-74.57 328.05,-76.48 344.42,-78.29"/>
<polygon fill="#63b8ff" stroke="#63b8ff" points="343.71,-81.85 354.04,-79.47 344.49,-74.89 343.71,-81.85"/>
</a>
</g>
</g>
<!-- Node5 -->
<g id="Node000005" class="node">
<title>Node5</title>
<g id="a_Node000005"><a xlink:href="a00554.html#gae32b26f5e43c6cb51a808454b8645c3a" target="_top" xlink:title="Gets the CRC reversed value of result if the calculation is done.">
<polygon fill="white" stroke="#666666" points="498.75,-58 331.25,-58 331.25,-38 498.75,-38 498.75,-58"/>
<text text-anchor="middle" x="415" y="-44.5" font-family="Helvetica,sans-Serif" font-size="10.00">CRC_CalculationResultReverseGet</text>
</a>
</g>
</g>
<!-- Node2&#45;&gt;Node5 -->
<g id="edge4_Node000002_Node000005" class="edge">
<title>Node2&#45;&gt;Node5</title>
<g id="a_edge4_Node000002_Node000005"><a xlink:title=" ">
<path fill="none" stroke="#63b8ff" d="M295.36,-61.14C303.31,-60.26 311.72,-59.33 320.23,-58.39"/>
<polygon fill="#63b8ff" stroke="#63b8ff" points="320.48,-61.77 330.04,-57.19 319.71,-54.81 320.48,-61.77"/>
</a>
</g>
</g>
<!-- Node7 -->
<g id="Node000007" class="node">
<title>Node7</title>
<g id="a_Node000007"><a xlink:href="a00554.html#gac36ee878e4256e6b5c82e180f5196b40" target="_top" xlink:title="This function cycles through the CRC calculations. &#160;&#160;This function will load the CRC module FIFO with...">
<polygon fill="white" stroke="#666666" points="448.88,-20 381.12,-20 381.12,0 448.88,0 448.88,-20"/>
<text text-anchor="middle" x="415" y="-6.5" font-family="Helvetica,sans-Serif" font-size="10.00">CRC_Tasks</text>
</a>
</g>
</g>
<!-- Node2&#45;&gt;Node7 -->
<g id="edge6_Node000002_Node000007" class="edge">
<title>Node2&#45;&gt;Node7</title>
<g id="a_edge6_Node000002_Node000007"><a xlink:title=" ">
<path fill="none" stroke="#63b8ff" d="M263.97,-56.52C281.69,-48.19 307.67,-36.69 331.25,-29 343.84,-24.9 357.79,-21.33 370.58,-18.43"/>
<polygon fill="#63b8ff" stroke="#63b8ff" points="370.99,-21.71 380.01,-16.16 369.49,-14.87 370.99,-21.71"/>
</a>
</g>
</g>
<!-- Node6 -->
<g id="Node000006" class="node">
<title>Node6</title>
<g id="a_Node000006"><a xlink:href="a00554.html#ga3a06d9e9df1840cb7bda3f8c3b48f14e" target="_top" xlink:title="Gets the CRC raw result if the calculation is done.">
<polygon fill="white" stroke="#666666" points="686.5,-58 534.75,-58 534.75,-38 686.5,-38 686.5,-58"/>
<text text-anchor="middle" x="610.62" y="-44.5" font-family="Helvetica,sans-Serif" font-size="10.00">CRC_CalculationResultRawGet</text>
</a>
</g>
</g>
<!-- Node5&#45;&gt;Node6 -->
<g id="edge5_Node000005_Node000006" class="edge">
<title>Node5&#45;&gt;Node6</title>
<g id="a_edge5_Node000005_Node000006"><a xlink:title=" ">
<path fill="none" stroke="#63b8ff" d="M499.24,-48C507.27,-48 515.43,-48 523.49,-48"/>
<polygon fill="#63b8ff" stroke="#63b8ff" points="523.4,-51.5 533.4,-48 523.4,-44.5 523.4,-51.5"/>
</a>
</g>
</g>
</g>
</svg>
