<?xml version="1.0" encoding="UTF-8" standalone="no"?>
<!DOCTYPE svg PUBLIC "-//W3C//DTD SVG 1.1//EN"
 "http://www.w3.org/Graphics/SVG/1.1/DTD/svg11.dtd">
<!-- Generated by graphviz version 8.1.0 (20230707.0739)
 -->
<!-- Title: PWM_DeadTimeHighSet Pages: 1 -->
<svg width="715pt" height="116pt"
 viewBox="0.00 0.00 715.00 116.00" xmlns="http://www.w3.org/2000/svg" xmlns:xlink="http://www.w3.org/1999/xlink">
<g id="graph0" class="graph" transform="scale(1 1) rotate(0) translate(4 112)">
<title>PWM_DeadTimeHighSet</title>
<!-- Node1 -->
<g id="Node000001" class="node">
<title>Node1</title>
<g id="a_Node000001"><a xlink:title="This inline function updates PWM Deadtime high register with the requested value for a specific PWM g...">
<polygon fill="#999999" stroke="#666666" points="707,-58 583,-58 583,-38 707,-38 707,-58"/>
<text text-anchor="middle" x="645" y="-44.5" font-family="Helvetica,sans-Serif" font-size="10.00">PWM_DeadTimeHighSet</text>
</a>
</g>
</g>
<!-- Node2 -->
<g id="Node000002" class="node">
<title>Node2</title>
<g id="a_Node000002"><a xlink:href="a00520.html#ga73f526371cadb7674354635462e836cc" target="_top" xlink:title="PWM distribution for DAB converter.">
<polygon fill="white" stroke="#666666" points="547,-58 433.5,-58 433.5,-38 547,-38 547,-58"/>
<text text-anchor="middle" x="490.25" y="-44.5" font-family="Helvetica,sans-Serif" font-size="10.00">PwrCtrl_PWM_Update</text>
</a>
</g>
</g>
<!-- Node1&#45;&gt;Node2 -->
<g id="edge1_Node000001_Node000002" class="edge">
<title>Node1&#45;&gt;Node2</title>
<g id="a_edge1_Node000001_Node000002"><a xlink:title=" ">
<path fill="none" stroke="#63b8ff" d="M571.87,-48C563.54,-48 555.14,-48 547.08,-48"/>
<polygon fill="#63b8ff" stroke="#63b8ff" points="571.75,-51.5 581.75,-48 571.75,-44.5 571.75,-51.5"/>
</a>
</g>
</g>
<!-- Node3 -->
<g id="Node000003" class="node">
<title>Node3</title>
<g id="a_Node000003"><a xlink:href="a00519.html#gae32c9e5ed4d1fb98fc13b26601782c10" target="_top" xlink:title="Executes the power converter control loop.">
<polygon fill="white" stroke="#666666" points="389.62,-108 281.38,-108 281.38,-76 389.62,-76 389.62,-108"/>
<text text-anchor="start" x="289.38" y="-94.5" font-family="Helvetica,sans-Serif" font-size="10.00">ControlLoop_Interrupt</text>
<text text-anchor="middle" x="335.5" y="-82.5" font-family="Helvetica,sans-Serif" font-size="10.00">_CallBack</text>
</a>
</g>
</g>
<!-- Node2&#45;&gt;Node3 -->
<g id="edge2_Node000002_Node000003" class="edge">
<title>Node2&#45;&gt;Node3</title>
<g id="a_edge2_Node000002_Node000003"><a xlink:title=" ">
<path fill="none" stroke="#63b8ff" d="M442.52,-61.46C425.96,-66.23 407.19,-71.64 390.09,-76.56"/>
<polygon fill="#63b8ff" stroke="#63b8ff" points="443.41,-64.56 452.05,-58.43 441.47,-57.83 443.41,-64.56"/>
</a>
</g>
</g>
<!-- Node4 -->
<g id="Node000004" class="node">
<title>Node4</title>
<g id="a_Node000004"><a xlink:href="a00521.html#ga42f7c8f65745b2f81bb6dbd381ea8121" target="_top" xlink:title="Executes Standby State machine.">
<polygon fill="white" stroke="#666666" points="397.5,-58 273.5,-58 273.5,-38 397.5,-38 397.5,-58"/>
<text text-anchor="middle" x="335.5" y="-44.5" font-family="Helvetica,sans-Serif" font-size="10.00">PCS_STANDBY_handler</text>
</a>
</g>
</g>
<!-- Node2&#45;&gt;Node4 -->
<g id="edge3_Node000002_Node000004" class="edge">
<title>Node2&#45;&gt;Node4</title>
<g id="a_edge3_Node000002_Node000004"><a xlink:title=" ">
<path fill="none" stroke="#63b8ff" d="M422.3,-48C414.19,-48 405.94,-48 397.91,-48"/>
<polygon fill="#63b8ff" stroke="#63b8ff" points="422.24,-51.5 432.24,-48 422.24,-44.5 422.24,-51.5"/>
</a>
</g>
</g>
<!-- Node7 -->
<g id="Node000007" class="node">
<title>Node7</title>
<g id="a_Node000007"><a xlink:href="a00518.html#ga2c39b57545ef7b5c79bac36ab30da7d8" target="_top" xlink:title="Initialize the power control parameters.">
<polygon fill="white" stroke="#666666" points="379.5,-20 291.5,-20 291.5,0 379.5,0 379.5,-20"/>
<text text-anchor="middle" x="335.5" y="-6.5" font-family="Helvetica,sans-Serif" font-size="10.00">PwrCtrl_Initialize</text>
</a>
</g>
</g>
<!-- Node2&#45;&gt;Node7 -->
<g id="edge6_Node000002_Node000007" class="edge">
<title>Node2&#45;&gt;Node7</title>
<g id="a_edge6_Node000002_Node000007"><a xlink:title=" ">
<path fill="none" stroke="#63b8ff" d="M436.53,-34.88C417.56,-30.17 396.44,-24.91 378.51,-20.45"/>
<polygon fill="#63b8ff" stroke="#63b8ff" points="435.56,-38.5 446.11,-37.52 437.25,-31.71 435.56,-38.5"/>
</a>
</g>
</g>
<!-- Node5 -->
<g id="Node000005" class="node">
<title>Node5</title>
<g id="a_Node000005"><a xlink:href="a00521.html#ga2408c0b52cd2c2487f43716f261434e6" target="_top" xlink:title="Manages the power control state machine.">
<polygon fill="white" stroke="#666666" points="237.5,-58 124.75,-58 124.75,-38 237.5,-38 237.5,-58"/>
<text text-anchor="middle" x="181.12" y="-44.5" font-family="Helvetica,sans-Serif" font-size="10.00">PwrCtrl_StateMachine</text>
</a>
</g>
</g>
<!-- Node4&#45;&gt;Node5 -->
<g id="edge4_Node000004_Node000005" class="edge">
<title>Node4&#45;&gt;Node5</title>
<g id="a_edge4_Node000004_Node000005"><a xlink:title=" ">
<path fill="none" stroke="#63b8ff" d="M262.55,-48C254.24,-48 245.86,-48 237.81,-48"/>
<polygon fill="#63b8ff" stroke="#63b8ff" points="262.4,-51.5 272.4,-48 262.4,-44.5 262.4,-51.5"/>
</a>
</g>
</g>
<!-- Node6 -->
<g id="Node000006" class="node">
<title>Node6</title>
<g id="a_Node000006"><a xlink:href="a00518.html#ga48dcb018afa53b60b6112cde00561c4b" target="_top" xlink:title="Executes the power control state machine.">
<polygon fill="white" stroke="#666666" points="88.75,-58 0,-58 0,-38 88.75,-38 88.75,-58"/>
<text text-anchor="middle" x="44.38" y="-44.5" font-family="Helvetica,sans-Serif" font-size="10.00">PwrCtrl_Execute</text>
</a>
</g>
</g>
<!-- Node5&#45;&gt;Node6 -->
<g id="edge5_Node000005_Node000006" class="edge">
<title>Node5&#45;&gt;Node6</title>
<g id="a_edge5_Node000005_Node000006"><a xlink:title=" ">
<path fill="none" stroke="#63b8ff" d="M113.57,-48C105.19,-48 96.79,-48 88.9,-48"/>
<polygon fill="#63b8ff" stroke="#63b8ff" points="113.54,-51.5 123.54,-48 113.54,-44.5 113.54,-51.5"/>
</a>
</g>
</g>
</g>
</svg>
