<?xml version="1.0" encoding="UTF-8" standalone="no"?>
<!DOCTYPE svg PUBLIC "-//W3C//DTD SVG 1.1//EN"
 "http://www.w3.org/Graphics/SVG/1.1/DTD/svg11.dtd">
<!-- Generated by graphviz version 8.1.0 (20230707.0739)
 -->
<!-- Title: PCS_INIT_handler Pages: 1 -->
<svg width="835pt" height="422pt"
 viewBox="0.00 0.00 835.00 422.00" xmlns="http://www.w3.org/2000/svg" xmlns:xlink="http://www.w3.org/1999/xlink">
<g id="graph0" class="graph" transform="scale(1 1) rotate(0) translate(4 418)">
<title>PCS_INIT_handler</title>
<!-- Node1 -->
<g id="Node000001" class="node">
<title>Node1</title>
<g id="a_Node000001"><a xlink:title="Executes function for initialze state machine.">
<polygon fill="#999999" stroke="#666666" points="94.75,-276 0,-276 0,-256 94.75,-256 94.75,-276"/>
<text text-anchor="middle" x="47.38" y="-262.5" font-family="Helvetica,sans-Serif" font-size="10.00">PCS_INIT_handler</text>
</a>
</g>
</g>
<!-- Node2 -->
<g id="Node000002" class="node">
<title>Node2</title>
<g id="a_Node000002"><a xlink:href="a00528.html#ga218632f9814c3bf20c40cea0794ffc7d" target="_top" xlink:title="API function to get the calibration status.">
<polygon fill="white" stroke="#666666" points="258.5,-414 142,-414 142,-382 258.5,-382 258.5,-414"/>
<text text-anchor="start" x="150" y="-400.5" font-family="Helvetica,sans-Serif" font-size="10.00">Dev_CurrentSensor</text>
<text text-anchor="middle" x="200.25" y="-388.5" font-family="Helvetica,sans-Serif" font-size="10.00">_Get_CalibrationStatus</text>
</a>
</g>
</g>
<!-- Node1&#45;&gt;Node2 -->
<g id="edge1_Node000001_Node000002" class="edge">
<title>Node1&#45;&gt;Node2</title>
<g id="a_edge1_Node000001_Node000002"><a xlink:title=" ">
<path fill="none" stroke="#63b8ff" d="M53.72,-276.4C65.09,-297.55 93.68,-345.84 130.75,-373 132.26,-374.11 133.82,-375.17 135.43,-376.19"/>
<polygon fill="#63b8ff" stroke="#63b8ff" points="133.58,-379.72 144.02,-381.56 137.01,-373.62 133.58,-379.72"/>
</a>
</g>
</g>
<!-- Node3 -->
<g id="Node000003" class="node">
<title>Node3</title>
<g id="a_Node000003"><a xlink:href="a00528.html#ga9f581abf52dc00ba320faafa189fafb9" target="_top" xlink:title="API function to get the sensor offset.">
<polygon fill="white" stroke="#666666" points="249.88,-364 150.62,-364 150.62,-332 249.88,-332 249.88,-364"/>
<text text-anchor="start" x="158.62" y="-350.5" font-family="Helvetica,sans-Serif" font-size="10.00">Dev_CurrentSensor</text>
<text text-anchor="middle" x="200.25" y="-338.5" font-family="Helvetica,sans-Serif" font-size="10.00">_Get_Offset</text>
</a>
</g>
</g>
<!-- Node1&#45;&gt;Node3 -->
<g id="edge2_Node000001_Node000003" class="edge">
<title>Node1&#45;&gt;Node3</title>
<g id="a_edge2_Node000001_Node000003"><a xlink:title=" ">
<path fill="none" stroke="#63b8ff" d="M61.13,-276.37C76.78,-288.73 104.49,-309.41 130.75,-323 133.84,-324.6 137.06,-326.15 140.34,-327.63"/>
<polygon fill="#63b8ff" stroke="#63b8ff" points="138.74,-331.18 149.31,-331.89 141.49,-324.74 138.74,-331.18"/>
</a>
</g>
</g>
<!-- Node4 -->
<g id="Node000004" class="node">
<title>Node4</title>
<g id="a_Node000004"><a xlink:href="a00528.html#gaaa75855922e60913d443c6203475256f" target="_top" xlink:title="Measures the currents sensor offset.">
<polygon fill="white" stroke="#666666" points="269.75,-314 130.75,-314 130.75,-294 269.75,-294 269.75,-314"/>
<text text-anchor="middle" x="200.25" y="-300.5" font-family="Helvetica,sans-Serif" font-size="10.00">Dev_CurrentSensorOffsetCal</text>
</a>
</g>
</g>
<!-- Node1&#45;&gt;Node4 -->
<g id="edge3_Node000001_Node000004" class="edge">
<title>Node1&#45;&gt;Node4</title>
<g id="a_edge3_Node000001_Node000004"><a xlink:title=" ">
<path fill="none" stroke="#63b8ff" d="M90,-276.48C107.73,-280.95 128.6,-286.21 147.32,-290.92"/>
<polygon fill="#63b8ff" stroke="#63b8ff" points="146.21,-294.5 156.76,-293.55 147.92,-287.71 146.21,-294.5"/>
</a>
</g>
</g>
<!-- Node7 -->
<g id="Node000007" class="node">
<title>Node7</title>
<g id="a_Node000007"><a xlink:href="a00545.html#ga8ed0fee0d3aff71d49470aab1728a6ae" target="_top" xlink:title="Clears the fault object flag bits.">
<polygon fill="white" stroke="#666666" points="234.5,-276 166,-276 166,-256 234.5,-256 234.5,-276"/>
<text text-anchor="middle" x="200.25" y="-262.5" font-family="Helvetica,sans-Serif" font-size="10.00">Fault_Reset</text>
</a>
</g>
</g>
<!-- Node1&#45;&gt;Node7 -->
<g id="edge6_Node000001_Node000007" class="edge">
<title>Node1&#45;&gt;Node7</title>
<g id="a_edge6_Node000001_Node000007"><a xlink:title=" ">
<path fill="none" stroke="#63b8ff" d="M94.87,-266C113.89,-266 135.8,-266 154.62,-266"/>
<polygon fill="#63b8ff" stroke="#63b8ff" points="154.6,-269.5 164.6,-266 154.6,-262.5 154.6,-269.5"/>
</a>
</g>
</g>
<!-- Node8 -->
<g id="Node000008" class="node">
<title>Node8</title>
<g id="a_Node000008"><a xlink:href="a00556.html#ga5a3ef0885c3937caeb4107df9fb91e81" target="_top" xlink:title="This inline function will disable all the generators of PWM module.">
<polygon fill="white" stroke="#666666" points="239.38,-238 161.12,-238 161.12,-218 239.38,-218 239.38,-238"/>
<text text-anchor="middle" x="200.25" y="-224.5" font-family="Helvetica,sans-Serif" font-size="10.00">PWM_Disable</text>
</a>
</g>
</g>
<!-- Node1&#45;&gt;Node8 -->
<g id="edge7_Node000001_Node000008" class="edge">
<title>Node1&#45;&gt;Node8</title>
<g id="a_edge7_Node000001_Node000008"><a xlink:title=" ">
<path fill="none" stroke="#63b8ff" d="M90,-255.52C108.69,-250.81 130.88,-245.22 150.36,-240.31"/>
<polygon fill="#63b8ff" stroke="#63b8ff" points="151.02,-243.5 159.86,-237.67 149.31,-236.72 151.02,-243.5"/>
</a>
</g>
</g>
<!-- Node9 -->
<g id="Node000009" class="node">
<title>Node9</title>
<g id="a_Node000009"><a xlink:href="a00536.html#ga2c39b57545ef7b5c79bac36ab30da7d8" target="_top" xlink:title="Initialize the power control parameters.">
<polygon fill="white" stroke="#666666" points="244.25,-191 156.25,-191 156.25,-171 244.25,-171 244.25,-191"/>
<text text-anchor="middle" x="200.25" y="-177.5" font-family="Helvetica,sans-Serif" font-size="10.00">PwrCtrl_Initialize</text>
</a>
</g>
</g>
<!-- Node1&#45;&gt;Node9 -->
<g id="edge8_Node000001_Node000009" class="edge">
<title>Node1&#45;&gt;Node9</title>
<g id="a_edge8_Node000001_Node000009"><a xlink:title=" ">
<path fill="none" stroke="#63b8ff" d="M61.5,-255.58C77.29,-243.36 104.91,-223 130.75,-209 139.79,-204.1 149.88,-199.53 159.47,-195.55"/>
<polygon fill="#63b8ff" stroke="#63b8ff" points="160.63,-198.46 168.61,-191.49 158.02,-191.96 160.63,-198.46"/>
</a>
</g>
</g>
<!-- Node16 -->
<g id="Node000016" class="node">
<title>Node16</title>
<g id="a_Node000016"><a xlink:href="a00538.html#ga79ec0c0e524a03b3a3d423308b89bb99" target="_top" xlink:title="Disable the PWM output.">
<polygon fill="white" stroke="#666666" points="433.12,-96 318.12,-96 318.12,-76 433.12,-76 433.12,-96"/>
<text text-anchor="middle" x="375.62" y="-82.5" font-family="Helvetica,sans-Serif" font-size="10.00">PwrCtrl_PWM_Disable</text>
</a>
</g>
</g>
<!-- Node1&#45;&gt;Node16 -->
<g id="edge29_Node000001_Node000016" class="edge">
<title>Node1&#45;&gt;Node16</title>
<g id="a_edge29_Node000001_Node000016"><a xlink:title=" ">
<path fill="none" stroke="#63b8ff" d="M53.72,-255.79C65.09,-235.05 93.69,-187.78 130.75,-162 183.68,-125.17 255.16,-105.66 307.04,-95.68"/>
<polygon fill="#63b8ff" stroke="#63b8ff" points="307.61,-98.95 316.8,-93.69 306.33,-92.06 307.61,-98.95"/>
</a>
</g>
</g>
<!-- Node5 -->
<g id="Node000005" class="node">
<title>Node5</title>
<g id="a_Node000005"><a xlink:href="a00550.html#gaf4b6f81a05012533b633a78dad7b6a98" target="_top" xlink:title="Returns the conversion value for the channel selected.">
<polygon fill="white" stroke="#666666" points="444.38,-352 306.88,-352 306.88,-332 444.38,-332 444.38,-352"/>
<text text-anchor="middle" x="375.62" y="-338.5" font-family="Helvetica,sans-Serif" font-size="10.00">ADC1_ConversionResultGet</text>
</a>
</g>
</g>
<!-- Node4&#45;&gt;Node5 -->
<g id="edge4_Node000004_Node000005" class="edge">
<title>Node4&#45;&gt;Node5</title>
<g id="a_edge4_Node000004_Node000005"><a xlink:title=" ">
<path fill="none" stroke="#63b8ff" d="M249.08,-314.48C269.93,-319.05 294.55,-324.45 316.45,-329.25"/>
<polygon fill="#63b8ff" stroke="#63b8ff" points="315.43,-332.83 325.95,-331.55 316.93,-325.99 315.43,-332.83"/>
</a>
</g>
</g>
<!-- Node6 -->
<g id="Node000006" class="node">
<title>Node6</title>
<g id="a_Node000006"><a xlink:href="a00528.html#ga03e8d61bbc0f4b686c400440f80dcf69" target="_top" xlink:title="Measure the sensor offset.">
<polygon fill="white" stroke="#666666" points="429.38,-390 321.88,-390 321.88,-370 429.38,-370 429.38,-390"/>
<text text-anchor="middle" x="375.62" y="-376.5" font-family="Helvetica,sans-Serif" font-size="10.00">Dev_SensorOffsetCal</text>
</a>
</g>
</g>
<!-- Node4&#45;&gt;Node6 -->
<g id="edge5_Node000004_Node000006" class="edge">
<title>Node4&#45;&gt;Node6</title>
<g id="a_edge5_Node000004_Node000006"><a xlink:title=" ">
<path fill="none" stroke="#63b8ff" d="M251.22,-314.4C257.69,-316.73 264.04,-319.57 269.75,-323 289.69,-334.99 285.81,-349.02 305.75,-361 308.53,-362.67 311.46,-364.2 314.49,-365.59"/>
<polygon fill="#63b8ff" stroke="#63b8ff" points="312.8,-369.09 323.38,-369.62 315.43,-362.61 312.8,-369.09"/>
</a>
</g>
</g>
<!-- Node10 -->
<g id="Node000010" class="node">
<title>Node10</title>
<g id="a_Node000010"><a xlink:href="a00556.html#gaf61d06e6e907cd4dfcef3a40792ee82f" target="_top" xlink:title="This inline function will enable all the generators of PWM module.">
<polygon fill="white" stroke="#666666" points="413.62,-134 337.62,-134 337.62,-114 413.62,-114 413.62,-134"/>
<text text-anchor="middle" x="375.62" y="-120.5" font-family="Helvetica,sans-Serif" font-size="10.00">PWM_Enable</text>
</a>
</g>
</g>
<!-- Node9&#45;&gt;Node10 -->
<g id="edge9_Node000009_Node000010" class="edge">
<title>Node9&#45;&gt;Node10</title>
<g id="a_edge9_Node000009_Node000010"><a xlink:title=" ">
<path fill="none" stroke="#63b8ff" d="M228.11,-170.56C249.1,-162.57 279.08,-151.51 305.75,-143 312.58,-140.82 319.83,-138.66 326.97,-136.61"/>
<polygon fill="#63b8ff" stroke="#63b8ff" points="327.61,-139.79 336.29,-133.72 325.72,-133.05 327.61,-139.79"/>
</a>
</g>
</g>
<!-- Node11 -->
<g id="Node000011" class="node">
<title>Node11</title>
<g id="a_Node000011"><a xlink:href="a00536.html#gae58162e874535adf2003e9ed8a13b656" target="_top" xlink:title="Initializes the control loop.">
<polygon fill="white" stroke="#666666" points="445.5,-314 305.75,-314 305.75,-294 445.5,-294 445.5,-314"/>
<text text-anchor="middle" x="375.62" y="-300.5" font-family="Helvetica,sans-Serif" font-size="10.00">PwrCtrl_ControlLoopInitialize</text>
</a>
</g>
</g>
<!-- Node9&#45;&gt;Node11 -->
<g id="edge10_Node000009_Node000011" class="edge">
<title>Node9&#45;&gt;Node11</title>
<g id="a_edge10_Node000009_Node000011"><a xlink:title=" ">
<path fill="none" stroke="#63b8ff" d="M233.41,-191.49C245.28,-196.04 258.55,-201.95 269.75,-209 304.49,-230.88 338.57,-264.68 358.04,-285.51"/>
<polygon fill="#63b8ff" stroke="#63b8ff" points="355.11,-287.58 364.45,-292.57 360.26,-282.84 355.11,-287.58"/>
</a>
</g>
</g>
<!-- Node9&#45;&gt;Node16 -->
<g id="edge17_Node000009_Node000016" class="edge">
<title>Node9&#45;&gt;Node16</title>
<g id="a_edge17_Node000009_Node000016"><a xlink:title=" ">
<path fill="none" stroke="#63b8ff" d="M219.88,-170.55C234.01,-162.33 253.67,-150.26 269.75,-138 287.01,-124.84 286.76,-115.51 305.75,-105 308.84,-103.29 312.1,-101.72 315.45,-100.29"/>
<polygon fill="#63b8ff" stroke="#63b8ff" points="316.59,-103.22 324.69,-96.39 314.1,-96.68 316.59,-103.22"/>
</a>
</g>
</g>
<!-- Node20 -->
<g id="Node000020" class="node">
<title>Node20</title>
<g id="a_Node000020"><a xlink:href="a00538.html#ga73f526371cadb7674354635462e836cc" target="_top" xlink:title="PWM distribution for DAB converter.">
<polygon fill="white" stroke="#666666" points="432.38,-210 318.88,-210 318.88,-190 432.38,-190 432.38,-210"/>
<text text-anchor="middle" x="375.62" y="-196.5" font-family="Helvetica,sans-Serif" font-size="10.00">PwrCtrl_PWM_Update</text>
</a>
</g>
</g>
<!-- Node9&#45;&gt;Node20 -->
<g id="edge21_Node000009_Node000020" class="edge">
<title>Node9&#45;&gt;Node20</title>
<g id="a_edge21_Node000009_Node000020"><a xlink:title=" ">
<path fill="none" stroke="#63b8ff" d="M244.55,-185.75C263.6,-187.83 286.41,-190.33 307.57,-192.65"/>
<polygon fill="#63b8ff" stroke="#63b8ff" points="307.14,-196.23 317.46,-193.85 307.9,-189.28 307.14,-196.23"/>
</a>
</g>
</g>
<!-- Node26 -->
<g id="Node000026" class="node">
<title>Node26</title>
<g id="a_Node000026"><a xlink:href="a00536.html#ga45940145031d4886842c27f5e5277e9b" target="_top" xlink:title="Initialize the StartUp Ramp configuration.">
<polygon fill="white" stroke="#666666" points="436.12,-172 315.12,-172 315.12,-152 436.12,-152 436.12,-172"/>
<text text-anchor="middle" x="375.62" y="-158.5" font-family="Helvetica,sans-Serif" font-size="10.00">PwrCtrl_StartUpInitialize</text>
</a>
</g>
</g>
<!-- Node9&#45;&gt;Node26 -->
<g id="edge28_Node000009_Node000026" class="edge">
<title>Node9&#45;&gt;Node26</title>
<g id="a_edge28_Node000009_Node000026"><a xlink:title=" ">
<path fill="none" stroke="#63b8ff" d="M244.55,-176.25C262.58,-174.28 283.97,-171.93 304.15,-169.72"/>
<polygon fill="#63b8ff" stroke="#63b8ff" points="304.33,-173.12 313.89,-168.55 303.57,-166.16 304.33,-173.12"/>
</a>
</g>
</g>
<!-- Node12 -->
<g id="Node000012" class="node">
<title>Node12</title>
<g id="a_Node000012"><a xlink:href="a00540.html#ga4d5efa27da3185177a7e9451a59ced82" target="_top" xlink:title="Initialize the Current Loop Control.">
<polygon fill="white" stroke="#666666" points="622.38,-324 501.38,-324 501.38,-304 622.38,-304 622.38,-324"/>
<text text-anchor="middle" x="561.88" y="-310.5" font-family="Helvetica,sans-Serif" font-size="10.00">PwrCtrl_IComp_Initialize</text>
</a>
</g>
</g>
<!-- Node11&#45;&gt;Node12 -->
<g id="edge11_Node000011_Node000012" class="edge">
<title>Node11&#45;&gt;Node12</title>
<g id="a_edge11_Node000011_Node000012"><a xlink:title=" ">
<path fill="none" stroke="#63b8ff" d="M445.76,-307.75C460.24,-308.54 475.54,-309.37 490.08,-310.16"/>
<polygon fill="#63b8ff" stroke="#63b8ff" points="489.85,-313.7 500.03,-310.75 490.23,-306.71 489.85,-313.7"/>
</a>
</g>
</g>
<!-- Node14 -->
<g id="Node000014" class="node">
<title>Node14</title>
<g id="a_Node000014"><a xlink:href="a00540.html#ga5d45f928f4747df3d3fe50876e78efc5" target="_top" xlink:title="Initialize the Power Loop Control.">
<polygon fill="white" stroke="#666666" points="624.62,-400 499.12,-400 499.12,-380 624.62,-380 624.62,-400"/>
<text text-anchor="middle" x="561.88" y="-386.5" font-family="Helvetica,sans-Serif" font-size="10.00">PwrCtrl_PComp_Initialize</text>
</a>
</g>
</g>
<!-- Node11&#45;&gt;Node14 -->
<g id="edge13_Node000011_Node000014" class="edge">
<title>Node11&#45;&gt;Node14</title>
<g id="a_edge13_Node000011_Node000014"><a xlink:title=" ">
<path fill="none" stroke="#63b8ff" d="M429.04,-314.46C434.85,-316.77 440.48,-319.58 445.5,-323 467.54,-338.02 459.21,-356.36 481.5,-371 483.92,-372.59 486.45,-374.04 489.07,-375.37"/>
<polygon fill="#63b8ff" stroke="#63b8ff" points="487.3,-378.86 497.86,-379.69 490.12,-372.45 487.3,-378.86"/>
</a>
</g>
</g>
<!-- Node15 -->
<g id="Node000015" class="node">
<title>Node15</title>
<g id="a_Node000015"><a xlink:href="a00540.html#ga8603aa8f7d4f64fa925228cf9c99de83" target="_top" xlink:title="Initialize the Voltage Loop Control.">
<polygon fill="white" stroke="#666666" points="624.62,-362 499.12,-362 499.12,-342 624.62,-342 624.62,-362"/>
<text text-anchor="middle" x="561.88" y="-348.5" font-family="Helvetica,sans-Serif" font-size="10.00">PwrCtrl_VComp_Initialize</text>
</a>
</g>
</g>
<!-- Node11&#45;&gt;Node15 -->
<g id="edge15_Node000011_Node000015" class="edge">
<title>Node11&#45;&gt;Node15</title>
<g id="a_edge15_Node000011_Node000015"><a xlink:title=" ">
<path fill="none" stroke="#63b8ff" d="M414.52,-314.44C424.59,-317.22 435.46,-320.22 445.5,-323 461.5,-327.43 465.42,-328.84 481.5,-333 489.23,-335 497.4,-337.04 505.44,-339"/>
<polygon fill="#63b8ff" stroke="#63b8ff" points="504.35,-342.58 514.89,-341.53 505.99,-335.77 504.35,-342.58"/>
</a>
</g>
</g>
<!-- Node13 -->
<g id="Node000013" class="node">
<title>Node13</title>
<g id="a_Node000013"><a xlink:href="a00452.html#a8d0d916c7a3ca172408fcded86a6baa2" target="_top" xlink:title=" ">
<polygon fill="white" stroke="#666666" points="827,-362 678.25,-362 678.25,-342 827,-342 827,-362"/>
<text text-anchor="middle" x="752.62" y="-348.5" font-family="Helvetica,sans-Serif" font-size="10.00">SMPS_Controller2P2ZInitialize</text>
</a>
</g>
</g>
<!-- Node12&#45;&gt;Node13 -->
<g id="edge12_Node000012_Node000013" class="edge">
<title>Node12&#45;&gt;Node13</title>
<g id="a_edge12_Node000012_Node000013"><a xlink:title=" ">
<path fill="none" stroke="#63b8ff" d="M614.95,-324.48C637.85,-329.09 664.94,-334.55 688.94,-339.38"/>
<polygon fill="#63b8ff" stroke="#63b8ff" points="688.22,-343.01 698.72,-341.55 689.61,-336.15 688.22,-343.01"/>
</a>
</g>
</g>
<!-- Node14&#45;&gt;Node13 -->
<g id="edge14_Node000014_Node000013" class="edge">
<title>Node14&#45;&gt;Node13</title>
<g id="a_edge14_Node000014_Node000013"><a xlink:title=" ">
<path fill="none" stroke="#63b8ff" d="M614.95,-379.52C637.85,-374.91 664.94,-369.45 688.94,-364.62"/>
<polygon fill="#63b8ff" stroke="#63b8ff" points="689.61,-367.85 698.72,-362.45 688.22,-360.99 689.61,-367.85"/>
</a>
</g>
</g>
<!-- Node15&#45;&gt;Node13 -->
<g id="edge16_Node000015_Node000013" class="edge">
<title>Node15&#45;&gt;Node13</title>
<g id="a_edge16_Node000015_Node000013"><a xlink:title=" ">
<path fill="none" stroke="#63b8ff" d="M624.94,-352C638.47,-352 653,-352 667.23,-352"/>
<polygon fill="#63b8ff" stroke="#63b8ff" points="667.03,-355.5 677.03,-352 667.03,-348.5 667.03,-355.5"/>
</a>
</g>
</g>
<!-- Node17 -->
<g id="Node000017" class="node">
<title>Node17</title>
<g id="a_Node000017"><a xlink:href="a00556.html#ga531b59d8823e3ebda2da60f48582bcf3" target="_top" xlink:title="This inline function enables PWM override on PWMH output for specific PWM generator selected by the a...">
<polygon fill="white" stroke="#666666" points="627.25,-20 496.5,-20 496.5,0 627.25,0 627.25,-20"/>
<text text-anchor="middle" x="561.88" y="-6.5" font-family="Helvetica,sans-Serif" font-size="10.00">PWM_OverrideHighEnable</text>
</a>
</g>
</g>
<!-- Node16&#45;&gt;Node17 -->
<g id="edge18_Node000016_Node000017" class="edge">
<title>Node16&#45;&gt;Node17</title>
<g id="a_edge18_Node000016_Node000017"><a xlink:title=" ">
<path fill="none" stroke="#63b8ff" d="M392.69,-75.52C412.74,-62.86 448.42,-41.7 481.5,-29 486.87,-26.94 492.54,-25.05 498.27,-23.34"/>
<polygon fill="#63b8ff" stroke="#63b8ff" points="498.93,-26.51 507.61,-20.44 497.04,-19.77 498.93,-26.51"/>
</a>
</g>
</g>
<!-- Node18 -->
<g id="Node000018" class="node">
<title>Node18</title>
<g id="a_Node000018"><a xlink:href="a00556.html#ga2548ca8feda75ba6ab784280679da6ae" target="_top" xlink:title="This inline function enables PWM override on PWML output for specific PWM generator selected by the a...">
<polygon fill="white" stroke="#666666" points="626.12,-58 497.62,-58 497.62,-38 626.12,-38 626.12,-58"/>
<text text-anchor="middle" x="561.88" y="-44.5" font-family="Helvetica,sans-Serif" font-size="10.00">PWM_OverrideLowEnable</text>
</a>
</g>
</g>
<!-- Node16&#45;&gt;Node18 -->
<g id="edge19_Node000016_Node000018" class="edge">
<title>Node16&#45;&gt;Node18</title>
<g id="a_edge19_Node000016_Node000018"><a xlink:title=" ">
<path fill="none" stroke="#63b8ff" d="M427.46,-75.52C449.81,-70.91 476.26,-65.45 499.68,-60.62"/>
<polygon fill="#63b8ff" stroke="#63b8ff" points="500.12,-63.9 509.21,-58.45 498.71,-57.04 500.12,-63.9"/>
</a>
</g>
</g>
<!-- Node19 -->
<g id="Node000019" class="node">
<title>Node19</title>
<g id="a_Node000019"><a xlink:href="a00556.html#ga83e780358618114f0d424ca7467cf751" target="_top" xlink:title="This inline function requests to update the data registers for specific PWM generator selected by the...">
<polygon fill="white" stroke="#666666" points="637,-96 486.75,-96 486.75,-76 637,-76 637,-96"/>
<text text-anchor="middle" x="561.88" y="-82.5" font-family="Helvetica,sans-Serif" font-size="10.00">PWM_SoftwareUpdateRequest</text>
</a>
</g>
</g>
<!-- Node16&#45;&gt;Node19 -->
<g id="edge20_Node000016_Node000019" class="edge">
<title>Node16&#45;&gt;Node19</title>
<g id="a_edge20_Node000016_Node000019"><a xlink:title=" ">
<path fill="none" stroke="#63b8ff" d="M433.41,-86C446.72,-86 461.2,-86 475.45,-86"/>
<polygon fill="#63b8ff" stroke="#63b8ff" points="475.29,-89.5 485.29,-86 475.29,-82.5 475.29,-89.5"/>
</a>
</g>
</g>
<!-- Node20&#45;&gt;Node19 -->
<g id="edge26_Node000020_Node000019" class="edge">
<title>Node20&#45;&gt;Node19</title>
<g id="a_edge26_Node000020_Node000019"><a xlink:title=" ">
<path fill="none" stroke="#63b8ff" d="M431.84,-189.55C436.76,-187.25 441.42,-184.43 445.5,-181 474.12,-156.96 452.48,-128.55 481.5,-105 482.94,-103.83 484.43,-102.74 485.98,-101.71"/>
<polygon fill="#63b8ff" stroke="#63b8ff" points="487.3,-104.42 494.32,-96.49 483.89,-98.31 487.3,-104.42"/>
</a>
</g>
</g>
<!-- Node21 -->
<g id="Node000021" class="node">
<title>Node21</title>
<g id="a_Node000021"><a xlink:href="a00556.html#gaf368256a569a5a9e12f85f84d7d42287" target="_top" xlink:title="This inline function updates PWM Deadtime high register with the requested value for a specific PWM g...">
<polygon fill="white" stroke="#666666" points="623.88,-248 499.88,-248 499.88,-228 623.88,-228 623.88,-248"/>
<text text-anchor="middle" x="561.88" y="-234.5" font-family="Helvetica,sans-Serif" font-size="10.00">PWM_DeadTimeHighSet</text>
</a>
</g>
</g>
<!-- Node20&#45;&gt;Node21 -->
<g id="edge22_Node000020_Node000021" class="edge">
<title>Node20&#45;&gt;Node21</title>
<g id="a_edge22_Node000020_Node000021"><a xlink:title=" ">
<path fill="none" stroke="#63b8ff" d="M427.46,-210.48C449.81,-215.09 476.26,-220.55 499.68,-225.38"/>
<polygon fill="#63b8ff" stroke="#63b8ff" points="498.71,-228.96 509.21,-227.55 500.12,-222.1 498.71,-228.96"/>
</a>
</g>
</g>
<!-- Node22 -->
<g id="Node000022" class="node">
<title>Node22</title>
<g id="a_Node000022"><a xlink:href="a00556.html#ga124426b28426beb53948e9b57319ab4b" target="_top" xlink:title="This inline function updates PWM Deadtime low register with the requested value for a specific PWM ge...">
<polygon fill="white" stroke="#666666" points="622.75,-210 501,-210 501,-190 622.75,-190 622.75,-210"/>
<text text-anchor="middle" x="561.88" y="-196.5" font-family="Helvetica,sans-Serif" font-size="10.00">PWM_DeadTimeLowSet</text>
</a>
</g>
</g>
<!-- Node20&#45;&gt;Node22 -->
<g id="edge23_Node000020_Node000022" class="edge">
<title>Node20&#45;&gt;Node22</title>
<g id="a_edge23_Node000020_Node000022"><a xlink:title=" ">
<path fill="none" stroke="#63b8ff" d="M432.66,-200C450.62,-200 470.76,-200 489.67,-200"/>
<polygon fill="#63b8ff" stroke="#63b8ff" points="489.63,-203.5 499.63,-200 489.63,-196.5 489.63,-203.5"/>
</a>
</g>
</g>
<!-- Node23 -->
<g id="Node000023" class="node">
<title>Node23</title>
<g id="a_Node000023"><a xlink:href="a00556.html#ga37968a783e44cd80643478d2b559dbf4" target="_top" xlink:title="This inline function sets the PWM generator specific duty cycle register.">
<polygon fill="white" stroke="#666666" points="614.88,-172 508.88,-172 508.88,-152 614.88,-152 614.88,-172"/>
<text text-anchor="middle" x="561.88" y="-158.5" font-family="Helvetica,sans-Serif" font-size="10.00">PWM_DutyCycleSet</text>
</a>
</g>
</g>
<!-- Node20&#45;&gt;Node23 -->
<g id="edge24_Node000020_Node000023" class="edge">
<title>Node20&#45;&gt;Node23</title>
<g id="a_edge24_Node000020_Node000023"><a xlink:title=" ">
<path fill="none" stroke="#63b8ff" d="M427.46,-189.52C449.81,-184.91 476.26,-179.45 499.68,-174.62"/>
<polygon fill="#63b8ff" stroke="#63b8ff" points="500.12,-177.9 509.21,-172.45 498.71,-171.04 500.12,-177.9"/>
</a>
</g>
</g>
<!-- Node24 -->
<g id="Node000024" class="node">
<title>Node24</title>
<g id="a_Node000024"><a xlink:href="a00556.html#gada46160823b0892a1af14a17c5ab516e" target="_top" xlink:title="This inline function sets the period value in count for the PWM generator specific Time Base.">
<polygon fill="white" stroke="#666666" points="606.25,-134 517.5,-134 517.5,-114 606.25,-114 606.25,-134"/>
<text text-anchor="middle" x="561.88" y="-120.5" font-family="Helvetica,sans-Serif" font-size="10.00">PWM_PeriodSet</text>
</a>
</g>
</g>
<!-- Node20&#45;&gt;Node24 -->
<g id="edge25_Node000020_Node000024" class="edge">
<title>Node20&#45;&gt;Node24</title>
<g id="a_edge25_Node000020_Node000024"><a xlink:title=" ">
<path fill="none" stroke="#63b8ff" d="M426.87,-189.62C433.37,-187.29 439.76,-184.45 445.5,-181 465.44,-169.02 461.35,-154.63 481.5,-143 489.18,-138.57 497.84,-135.17 506.55,-132.56"/>
<polygon fill="#63b8ff" stroke="#63b8ff" points="507.37,-135.7 516.14,-129.75 505.58,-128.93 507.37,-135.7"/>
</a>
</g>
</g>
<!-- Node25 -->
<g id="Node000025" class="node">
<title>Node25</title>
<g id="a_Node000025"><a xlink:href="a00556.html#gacc5575148a6e8da6577d9be9e20541ce" target="_top" xlink:title="This inline function sets the Trigger C compare value in count for a specific PWM generator selected ...">
<polygon fill="white" stroke="#666666" points="642.25,-286 481.5,-286 481.5,-266 642.25,-266 642.25,-286"/>
<text text-anchor="middle" x="561.88" y="-272.5" font-family="Helvetica,sans-Serif" font-size="10.00">PWM_TriggerCCompareValueSet</text>
</a>
</g>
</g>
<!-- Node20&#45;&gt;Node25 -->
<g id="edge27_Node000020_Node000025" class="edge">
<title>Node20&#45;&gt;Node25</title>
<g id="a_edge27_Node000020_Node000025"><a xlink:title=" ">
<path fill="none" stroke="#63b8ff" d="M392.69,-210.48C412.74,-223.14 448.42,-244.3 481.5,-257 486.87,-259.06 492.54,-260.95 498.27,-262.66"/>
<polygon fill="#63b8ff" stroke="#63b8ff" points="497.04,-266.23 507.61,-265.56 498.93,-259.49 497.04,-266.23"/>
</a>
</g>
</g>
</g>
</svg>
