<?xml version="1.0" encoding="UTF-8" standalone="no"?>
<!DOCTYPE svg PUBLIC "-//W3C//DTD SVG 1.1//EN"
 "http://www.w3.org/Graphics/SVG/1.1/DTD/svg11.dtd">
<!-- Generated by graphviz version 8.1.0 (20230707.0739)
 -->
<!-- Title: PWM_OverrideLowDisable Pages: 1 -->
<svg width="937pt" height="28pt"
 viewBox="0.00 0.00 937.25 28.00" xmlns="http://www.w3.org/2000/svg" xmlns:xlink="http://www.w3.org/1999/xlink">
<g id="graph0" class="graph" transform="scale(1 1) rotate(0) translate(4 24)">
<title>PWM_OverrideLowDisable</title>
<!-- Node1 -->
<g id="Node000001" class="node">
<title>Node1</title>
<g id="a_Node000001"><a xlink:title="This inline function disables PWM override on PWML output for specific PWM generator selected by the ...">
<polygon fill="#999999" stroke="#666666" points="929.25,-20 798.5,-20 798.5,0 929.25,0 929.25,-20"/>
<text text-anchor="middle" x="863.88" y="-6.5" font-family="Helvetica,sans-Serif" font-size="10.00">PWM_OverrideLowDisable</text>
</a>
</g>
</g>
<!-- Node2 -->
<g id="Node000002" class="node">
<title>Node2</title>
<g id="a_Node000002"><a xlink:href="a00491.html#gaff82d75556566202a8dd302e0a7fde8b" target="_top" xlink:title="Enable the PWM output.">
<polygon fill="white" stroke="#666666" points="762.5,-20 628.75,-20 628.75,0 762.5,0 762.5,-20"/>
<text text-anchor="middle" x="695.62" y="-6.5" font-family="Helvetica,sans-Serif" font-size="10.00">Dev_PwrCtrl_PWM_Enable</text>
</a>
</g>
</g>
<!-- Node1&#45;&gt;Node2 -->
<g id="edge1_Node000001_Node000002" class="edge">
<title>Node1&#45;&gt;Node2</title>
<g id="a_edge1_Node000001_Node000002"><a xlink:title=" ">
<path fill="none" stroke="#63b8ff" d="M787.15,-10C779.04,-10 770.83,-10 762.84,-10"/>
<polygon fill="#63b8ff" stroke="#63b8ff" points="787.12,-13.5 797.12,-10 787.12,-6.5 787.12,-13.5"/>
</a>
</g>
</g>
<!-- Node3 -->
<g id="Node000003" class="node">
<title>Node3</title>
<g id="a_Node000003"><a xlink:href="a00492.html#ga42f7c8f65745b2f81bb6dbd381ea8121" target="_top" xlink:title="Executes Standby State machine.">
<polygon fill="white" stroke="#666666" points="592.75,-20 468.75,-20 468.75,0 592.75,0 592.75,-20"/>
<text text-anchor="middle" x="530.75" y="-6.5" font-family="Helvetica,sans-Serif" font-size="10.00">PCS_STANDBY_handler</text>
</a>
</g>
</g>
<!-- Node2&#45;&gt;Node3 -->
<g id="edge2_Node000002_Node000003" class="edge">
<title>Node2&#45;&gt;Node3</title>
<g id="a_edge2_Node000002_Node000003"><a xlink:title=" ">
<path fill="none" stroke="#63b8ff" d="M617.38,-10C609.27,-10 601.11,-10 593.21,-10"/>
<polygon fill="#63b8ff" stroke="#63b8ff" points="617.38,-13.5 627.38,-10 617.38,-6.5 617.38,-13.5"/>
</a>
</g>
</g>
<!-- Node4 -->
<g id="Node000004" class="node">
<title>Node4</title>
<g id="a_Node000004"><a xlink:href="a00492.html#gaebef55c78d9df043c293ffcf8a06b63f" target="_top" xlink:title="Manages the power control state machine.">
<polygon fill="white" stroke="#666666" points="432.75,-20 299,-20 299,0 432.75,0 432.75,-20"/>
<text text-anchor="middle" x="365.88" y="-6.5" font-family="Helvetica,sans-Serif" font-size="10.00">Dev_PwrCtrl_StateMachine</text>
</a>
</g>
</g>
<!-- Node3&#45;&gt;Node4 -->
<g id="edge3_Node000003_Node000004" class="edge">
<title>Node3&#45;&gt;Node4</title>
<g id="a_edge3_Node000003_Node000004"><a xlink:title=" ">
<path fill="none" stroke="#63b8ff" d="M457.67,-10C449.54,-10 441.29,-10 433.24,-10"/>
<polygon fill="#63b8ff" stroke="#63b8ff" points="457.64,-13.5 467.64,-10 457.64,-6.5 457.64,-13.5"/>
</a>
</g>
</g>
<!-- Node5 -->
<g id="Node000005" class="node">
<title>Node5</title>
<g id="a_Node000005"><a xlink:href="a00489.html#gad5d6590aeda3bb06b60874802edc14f6" target="_top" xlink:title="Executes the power control state machine.">
<polygon fill="white" stroke="#666666" points="263,-20 153.25,-20 153.25,0 263,0 263,-20"/>
<text text-anchor="middle" x="208.12" y="-6.5" font-family="Helvetica,sans-Serif" font-size="10.00">Dev_PwrCtrl_Execute</text>
</a>
</g>
</g>
<!-- Node4&#45;&gt;Node5 -->
<g id="edge4_Node000004_Node000005" class="edge">
<title>Node4&#45;&gt;Node5</title>
<g id="a_edge4_Node000004_Node000005"><a xlink:title=" ">
<path fill="none" stroke="#63b8ff" d="M287.84,-10C279.45,-10 271.05,-10 263.03,-10"/>
<polygon fill="#63b8ff" stroke="#63b8ff" points="287.82,-13.5 297.82,-10 287.82,-6.5 287.82,-13.5"/>
</a>
</g>
</g>
<!-- Node6 -->
<g id="Node000006" class="node">
<title>Node6</title>
<g id="a_Node000006"><a xlink:href="a00507.html#gad258f19a1b6a855fef3c71f54bb5539e" target="_top" xlink:title="Tasks_Realtime_100us gets called directly from the timer interrupt every 100 µs.">
<polygon fill="white" stroke="#666666" points="117.25,-20 0,-20 0,0 117.25,0 117.25,-20"/>
<text text-anchor="middle" x="58.62" y="-6.5" font-family="Helvetica,sans-Serif" font-size="10.00">Tasks_Realtime_100us</text>
</a>
</g>
</g>
<!-- Node5&#45;&gt;Node6 -->
<g id="edge5_Node000005_Node000006" class="edge">
<title>Node5&#45;&gt;Node6</title>
<g id="a_edge5_Node000005_Node000006"><a xlink:title=" ">
<path fill="none" stroke="#63b8ff" d="M142.08,-10C133.96,-10 125.69,-10 117.68,-10"/>
<polygon fill="#63b8ff" stroke="#63b8ff" points="142.04,-13.5 152.04,-10 142.04,-6.5 142.04,-13.5"/>
</a>
</g>
</g>
</g>
</svg>
