<?xml version="1.0" encoding="UTF-8" standalone="no"?>
<!DOCTYPE svg PUBLIC "-//W3C//DTD SVG 1.1//EN"
 "http://www.w3.org/Graphics/SVG/1.1/DTD/svg11.dtd">
<!-- Generated by graphviz version 8.1.0 (20230707.0739)
 -->
<!-- Title: Fault_Reset Pages: 1 -->
<svg width="510pt" height="66pt"
 viewBox="0.00 0.00 510.00 66.00" xmlns="http://www.w3.org/2000/svg" xmlns:xlink="http://www.w3.org/1999/xlink">
<g id="graph0" class="graph" transform="scale(1 1) rotate(0) translate(4 62)">
<title>Fault_Reset</title>
<!-- Node1 -->
<g id="Node000001" class="node">
<title>Node1</title>
<g id="a_Node000001"><a xlink:title="Clears the fault object flag bits.">
<polygon fill="#999999" stroke="#666666" points="502,-39 433.5,-39 433.5,-19 502,-19 502,-39"/>
<text text-anchor="middle" x="467.75" y="-25.5" font-family="Helvetica,sans-Serif" font-size="10.00">Fault_Reset</text>
</a>
</g>
</g>
<!-- Node2 -->
<g id="Node000002" class="node">
<title>Node2</title>
<g id="a_Node000002"><a xlink:href="a00521.html#ga8307344d190a5459682d315fc7bfe198" target="_top" xlink:title="Executes function for initialze state machine.">
<polygon fill="white" stroke="#666666" points="382.88,-58 288.12,-58 288.12,-38 382.88,-38 382.88,-58"/>
<text text-anchor="middle" x="335.5" y="-44.5" font-family="Helvetica,sans-Serif" font-size="10.00">PCS_INIT_handler</text>
</a>
</g>
</g>
<!-- Node1&#45;&gt;Node2 -->
<g id="edge1_Node000001_Node000002" class="edge">
<title>Node1&#45;&gt;Node2</title>
<g id="a_edge1_Node000001_Node000002"><a xlink:title=" ">
<path fill="none" stroke="#63b8ff" d="M422.45,-35.46C409.79,-37.31 395.97,-39.32 383.18,-41.19"/>
<polygon fill="#63b8ff" stroke="#63b8ff" points="422.82,-38.8 432.21,-33.89 421.81,-31.87 422.82,-38.8"/>
</a>
</g>
</g>
<!-- Node5 -->
<g id="Node000005" class="node">
<title>Node5</title>
<g id="a_Node000005"><a xlink:href="a00521.html#ga42f7c8f65745b2f81bb6dbd381ea8121" target="_top" xlink:title="Executes Standby State machine.">
<polygon fill="white" stroke="#666666" points="397.5,-20 273.5,-20 273.5,0 397.5,0 397.5,-20"/>
<text text-anchor="middle" x="335.5" y="-6.5" font-family="Helvetica,sans-Serif" font-size="10.00">PCS_STANDBY_handler</text>
</a>
</g>
</g>
<!-- Node1&#45;&gt;Node5 -->
<g id="edge4_Node000001_Node000005" class="edge">
<title>Node1&#45;&gt;Node5</title>
<g id="a_edge4_Node000001_Node000005"><a xlink:title=" ">
<path fill="none" stroke="#63b8ff" d="M422.44,-22.54C414.57,-21.39 406.24,-20.17 397.99,-18.97"/>
<polygon fill="#63b8ff" stroke="#63b8ff" points="421.81,-26.13 432.21,-24.11 422.82,-19.2 421.81,-26.13"/>
</a>
</g>
</g>
<!-- Node3 -->
<g id="Node000003" class="node">
<title>Node3</title>
<g id="a_Node000003"><a xlink:href="a00521.html#ga2408c0b52cd2c2487f43716f261434e6" target="_top" xlink:title="Manages the power control state machine.">
<polygon fill="white" stroke="#666666" points="237.5,-39 124.75,-39 124.75,-19 237.5,-19 237.5,-39"/>
<text text-anchor="middle" x="181.12" y="-25.5" font-family="Helvetica,sans-Serif" font-size="10.00">PwrCtrl_StateMachine</text>
</a>
</g>
</g>
<!-- Node2&#45;&gt;Node3 -->
<g id="edge2_Node000002_Node000003" class="edge">
<title>Node2&#45;&gt;Node3</title>
<g id="a_edge2_Node000002_Node000003"><a xlink:title=" ">
<path fill="none" stroke="#63b8ff" d="M277.3,-40.87C264.36,-39.25 250.64,-37.54 237.77,-35.94"/>
<polygon fill="#63b8ff" stroke="#63b8ff" points="276.6,-44.43 286.95,-42.2 277.46,-37.49 276.6,-44.43"/>
</a>
</g>
</g>
<!-- Node4 -->
<g id="Node000004" class="node">
<title>Node4</title>
<g id="a_Node000004"><a xlink:href="a00518.html#ga48dcb018afa53b60b6112cde00561c4b" target="_top" xlink:title="Executes the power control state machine.">
<polygon fill="white" stroke="#666666" points="88.75,-39 0,-39 0,-19 88.75,-19 88.75,-39"/>
<text text-anchor="middle" x="44.38" y="-25.5" font-family="Helvetica,sans-Serif" font-size="10.00">PwrCtrl_Execute</text>
</a>
</g>
</g>
<!-- Node3&#45;&gt;Node4 -->
<g id="edge3_Node000003_Node000004" class="edge">
<title>Node3&#45;&gt;Node4</title>
<g id="a_edge3_Node000003_Node000004"><a xlink:title=" ">
<path fill="none" stroke="#63b8ff" d="M113.57,-29C105.19,-29 96.79,-29 88.9,-29"/>
<polygon fill="#63b8ff" stroke="#63b8ff" points="113.54,-32.5 123.54,-29 113.54,-25.5 113.54,-32.5"/>
</a>
</g>
</g>
<!-- Node5&#45;&gt;Node3 -->
<g id="edge5_Node000005_Node000003" class="edge">
<title>Node5&#45;&gt;Node3</title>
<g id="a_edge5_Node000005_Node000003"><a xlink:title=" ">
<path fill="none" stroke="#63b8ff" d="M262.55,-18.97C254.24,-20.01 245.86,-21.05 237.81,-22.06"/>
<polygon fill="#63b8ff" stroke="#63b8ff" points="262.91,-22.33 272.4,-17.62 262.04,-15.38 262.91,-22.33"/>
</a>
</g>
</g>
</g>
</svg>
