<?xml version="1.0" encoding="UTF-8" standalone="no"?>
<!DOCTYPE svg PUBLIC "-//W3C//DTD SVG 1.1//EN"
 "http://www.w3.org/Graphics/SVG/1.1/DTD/svg11.dtd">
<!-- Generated by graphviz version 8.1.0 (20230707.0739)
 -->
<!-- Title: PWM_SoftwareUpdateRequest Pages: 1 -->
<!--zoomable 411 -->

<svg id="main" version="1.1" xmlns="http://www.w3.org/2000/svg" xmlns:xlink="http://www.w3.org/1999/xlink" xml:space="preserve" onload="init(evt)">
<style type="text/css"><![CDATA[
.node, .edge {opacity: 0.7;}
.node.selected, .edge.selected {opacity: 1;}
.edge:hover path { stroke: red; }
.edge:hover polygon { stroke: red; fill: red; }
]]></style>

<defs>
  <circle id="rim" cx="0" cy="0" r="7"/>
  <circle id="rim2" cx="0" cy="0" r="3.5"/>
  <g id="zoomPlus">
    <use xlink:href="#rim" fill="#404040"><set attributeName="fill" to="#808080" begin="zoomplus.mouseover" end="zoomplus.mouseout"/></use>
    <path d="M-4,0h8M0,-4v8" fill="none" stroke="white" stroke-width="1.5" pointer-events="none"/>
  </g>
  <g id="zoomMin">
    <use xlink:href="#rim" fill="#404040"><set attributeName="fill" to="#808080" begin="zoomminus.mouseover" end="zoomminus.mouseout"/></use>
    <path d="M-4,0h8" fill="none" stroke="white" stroke-width="1.5" pointer-events="none"/>
  </g>
  <g id="arrowUp" transform="translate(30 24)">
    <use xlink:href="#rim"/>
    <path pointer-events="none" fill="none" stroke="white" stroke-width="1.5" d="M0,-3.0v7 M-2.5,-0.5L0,-3.0L2.5,-0.5"/>
  </g>
  <g id="arrowRight" transform="rotate(90) translate(36 -43)">
    <use xlink:href="#rim"/>
    <path pointer-events="none" fill="none" stroke="white" stroke-width="1.5" d="M0,-3.0v7 M-2.5,-0.5L0,-3.0L2.5,-0.5"/>
  </g>
  <g id="arrowDown" transform="rotate(180) translate(-30 -48)">
    <use xlink:href="#rim"/>
    <path pointer-events="none" fill="none" stroke="white" stroke-width="1.5" d="M0,-3.0v7 M-2.5,-0.5L0,-3.0L2.5,-0.5"/>
  </g>
  <g id="arrowLeft" transform="rotate(270) translate(-36 17)">
    <use xlink:href="#rim"/>
    <path pointer-events="none" fill="none" stroke="white" stroke-width="1.5" d="M0,-3.0v7 M-2.5,-0.5L0,-3.0L2.5,-0.5"/>
  </g>
  <g id="resetDef">
    <use xlink:href="#rim2" fill="#404040"><set attributeName="fill" to="#808080" begin="reset.mouseover" end="reset.mouseout"/></use>
  </g>
</defs>
<script type="application/ecmascript">
var viewWidth = 1237;
var viewHeight = 411;
var sectionId = 'dynsection-16';
</script>
<script type="application/ecmascript" xlink:href="svg.min.js"/>
<svg id="graph" class="graph">
<g id="viewport">
<title>PWM_SoftwareUpdateRequest</title>
<!-- Node1 -->
<g id="Node000001" class="node">
<title>Node1</title>
<g id="a_Node000001"><a xlink:title="This inline function requests to update the data registers for specific PWM generator selected by the...">
<polygon fill="#999999" stroke="#666666" points="1229,-319 1078.75,-319 1078.75,-299 1229,-299 1229,-319"/>
<text text-anchor="middle" x="1153.88" y="-305.5" font-family="Helvetica,sans-Serif" font-size="10.00">PWM_SoftwareUpdateRequest</text>
</a>
</g>
</g>
<!-- Node2 -->
<g id="Node000002" class="node">
<title>Node2</title>
<g id="a_Node000002"><a xlink:href="a00541.html#ga09cbca9d9eea8e033ba27cb0f77417c3" target="_top" xlink:title="Forward/Reverse Direction related swap pattern on PWM output.">
<polygon fill="white" stroke="#666666" points="891.75,-348 745.25,-348 745.25,-316 891.75,-316 891.75,-348"/>
<text text-anchor="start" x="753.25" y="-334.5" font-family="Helvetica,sans-Serif" font-size="10.00">PwrCtrl_PWM_DAB_Direction</text>
<text text-anchor="middle" x="818.5" y="-322.5" font-family="Helvetica,sans-Serif" font-size="10.00">SpecificSwapCfg</text>
</a>
</g>
</g>
<!-- Node1&#45;&gt;Node2 -->
<g id="edge1_Node000001_Node000002" class="edge">
<title>Node1&#45;&gt;Node2</title>
<g id="a_edge1_Node000001_Node000002"><a xlink:title=" ">
<path fill="none" stroke="#63b8ff" d="M1067.83,-314.87C1013.56,-318.61 943.94,-323.41 892.24,-326.98"/>
<polygon fill="#63b8ff" stroke="#63b8ff" points="1067.74,-318.31 1077.47,-314.13 1067.26,-311.33 1067.74,-318.31"/>
</a>
</g>
</g>
<!-- Node6 -->
<g id="Node000006" class="node">
<title>Node6</title>
<g id="a_Node000006"><a xlink:href="a00541.html#ga79ec0c0e524a03b3a3d423308b89bb99" target="_top" xlink:title="Disable the PWM output.">
<polygon fill="white" stroke="#666666" points="1042.75,-203 927.75,-203 927.75,-183 1042.75,-183 1042.75,-203"/>
<text text-anchor="middle" x="985.25" y="-189.5" font-family="Helvetica,sans-Serif" font-size="10.00">PwrCtrl_PWM_Disable</text>
</a>
</g>
</g>
<!-- Node1&#45;&gt;Node6 -->
<g id="edge5_Node000001_Node000006" class="edge">
<title>Node1&#45;&gt;Node6</title>
<g id="a_edge5_Node000001_Node000006"><a xlink:title=" ">
<path fill="none" stroke="#63b8ff" d="M1129.19,-292.51C1094.32,-268.24 1030.17,-223.58 1001.18,-203.39"/>
<polygon fill="#63b8ff" stroke="#63b8ff" points="1126.59,-295.66 1136.79,-298.5 1130.59,-289.92 1126.59,-295.66"/>
</a>
</g>
</g>
<!-- Node22 -->
<g id="Node000022" class="node">
<title>Node22</title>
<g id="a_Node000022"><a xlink:href="a00541.html#gae20d34fb8fc7fbaa57f6c68b2907807f" target="_top" xlink:title="Enable the PWM output.">
<polygon fill="white" stroke="#666666" points="1041.62,-403 928.88,-403 928.88,-383 1041.62,-383 1041.62,-403"/>
<text text-anchor="middle" x="985.25" y="-389.5" font-family="Helvetica,sans-Serif" font-size="10.00">PwrCtrl_PWM_Enable</text>
</a>
</g>
</g>
<!-- Node1&#45;&gt;Node22 -->
<g id="edge27_Node000001_Node000022" class="edge">
<title>Node1&#45;&gt;Node22</title>
<g id="a_edge27_Node000001_Node000022"><a xlink:title=" ">
<path fill="none" stroke="#63b8ff" d="M1122.39,-324.37C1088.9,-341.25 1036.03,-367.9 1007.02,-382.53"/>
<polygon fill="#63b8ff" stroke="#63b8ff" points="1123.75,-327.1 1131.11,-319.47 1120.6,-320.85 1123.75,-327.1"/>
</a>
</g>
</g>
<!-- Node23 -->
<g id="Node000023" class="node">
<title>Node23</title>
<g id="a_Node000023"><a xlink:href="a00541.html#ga73f526371cadb7674354635462e836cc" target="_top" xlink:title="PWM distribution for DAB converter.">
<polygon fill="white" stroke="#666666" points="1042,-299 928.5,-299 928.5,-279 1042,-279 1042,-299"/>
<text text-anchor="middle" x="985.25" y="-285.5" font-family="Helvetica,sans-Serif" font-size="10.00">PwrCtrl_PWM_Update</text>
</a>
</g>
</g>
<!-- Node1&#45;&gt;Node23 -->
<g id="edge29_Node000001_Node000023" class="edge">
<title>Node1&#45;&gt;Node23</title>
<g id="a_edge29_Node000001_Node000023"><a xlink:title=" ">
<path fill="none" stroke="#63b8ff" d="M1067.49,-298.75C1058.92,-297.72 1050.38,-296.7 1042.23,-295.72"/>
<polygon fill="#63b8ff" stroke="#63b8ff" points="1066.99,-302.34 1077.33,-300.05 1067.82,-295.39 1066.99,-302.34"/>
</a>
</g>
</g>
<!-- Node3 -->
<g id="Node000003" class="node">
<title>Node3</title>
<g id="a_Node000003"><a xlink:href="a00542.html#ga42f7c8f65745b2f81bb6dbd381ea8121" target="_top" xlink:title="Executes Standby State machine.">
<polygon fill="white" stroke="#666666" points="701.38,-364 577.38,-364 577.38,-344 701.38,-344 701.38,-364"/>
<text text-anchor="middle" x="639.38" y="-350.5" font-family="Helvetica,sans-Serif" font-size="10.00">PCS_STANDBY_handler</text>
</a>
</g>
</g>
<!-- Node2&#45;&gt;Node3 -->
<g id="edge2_Node000002_Node000003" class="edge">
<title>Node2&#45;&gt;Node3</title>
<g id="a_edge2_Node000002_Node000003"><a xlink:title=" ">
<path fill="none" stroke="#63b8ff" d="M734.11,-342.36C723.22,-343.71 712.23,-345.08 701.79,-346.37"/>
<polygon fill="#63b8ff" stroke="#63b8ff" points="734.45,-345.72 743.95,-341.01 733.59,-338.77 734.45,-345.72"/>
</a>
</g>
</g>
<!-- Node4 -->
<g id="Node000004" class="node">
<title>Node4</title>
<g id="a_Node000004"><a xlink:href="a00542.html#ga2408c0b52cd2c2487f43716f261434e6" target="_top" xlink:title="Manages the power control state machine.">
<polygon fill="white" stroke="#666666" points="527.12,-229 414.38,-229 414.38,-209 527.12,-209 527.12,-229"/>
<text text-anchor="middle" x="470.75" y="-215.5" font-family="Helvetica,sans-Serif" font-size="10.00">PwrCtrl_StateMachine</text>
</a>
</g>
</g>
<!-- Node3&#45;&gt;Node4 -->
<g id="edge3_Node000003_Node000004" class="edge">
<title>Node3&#45;&gt;Node4</title>
<g id="a_edge3_Node000003_Node000004"><a xlink:title=" ">
<path fill="none" stroke="#63b8ff" d="M615.54,-337.27C602.01,-327.23 584.61,-314.1 569.5,-302 537.88,-276.67 501.81,-245.41 483.6,-229.45"/>
<polygon fill="#63b8ff" stroke="#63b8ff" points="613.09,-340.55 623.21,-343.68 617.25,-334.92 613.09,-340.55"/>
</a>
</g>
</g>
<!-- Node5 -->
<g id="Node000005" class="node">
<title>Node5</title>
<g id="a_Node000005"><a xlink:href="a00539.html#ga48dcb018afa53b60b6112cde00561c4b" target="_top" xlink:title="Executes the power control state machine.">
<polygon fill="white" stroke="#666666" points="372,-229 283.25,-229 283.25,-209 372,-209 372,-229"/>
<text text-anchor="middle" x="327.62" y="-215.5" font-family="Helvetica,sans-Serif" font-size="10.00">PwrCtrl_Execute</text>
</a>
</g>
</g>
<!-- Node4&#45;&gt;Node5 -->
<g id="edge4_Node000004_Node000005" class="edge">
<title>Node4&#45;&gt;Node5</title>
<g id="a_edge4_Node000004_Node000005"><a xlink:title=" ">
<path fill="none" stroke="#63b8ff" d="M403.13,-219C392.64,-219 382.04,-219 372.25,-219"/>
<polygon fill="#63b8ff" stroke="#63b8ff" points="402.97,-222.5 412.97,-219 402.97,-215.5 402.97,-222.5"/>
</a>
</g>
</g>
<!-- Node6&#45;&gt;Node2 -->
<g id="edge26_Node000006_Node000002" class="edge">
<title>Node6&#45;&gt;Node2</title>
<g id="a_edge26_Node000006_Node000002"><a xlink:title=" ">
<path fill="none" stroke="#63b8ff" d="M963.66,-210.37C931.64,-237.39 870.33,-289.12 838.99,-315.56"/>
<polygon fill="#63b8ff" stroke="#63b8ff" points="965.48,-212.57 970.87,-203.45 960.97,-207.22 965.48,-212.57"/>
</a>
</g>
</g>
<!-- Node7 -->
<g id="Node000007" class="node">
<title>Node7</title>
<g id="a_Node000007"><a xlink:href="a00544.html#gae5e607ebc1cfbf0fcb8caa5775d5e782" target="_top" xlink:title="API function to set the power control State.">
<polygon fill="white" stroke="#666666" points="874.5,-58 762.5,-58 762.5,-38 874.5,-38 874.5,-58"/>
<text text-anchor="middle" x="818.5" y="-44.5" font-family="Helvetica,sans-Serif" font-size="10.00">Dev_PwrCtrl_SetState</text>
</a>
</g>
</g>
<!-- Node6&#45;&gt;Node7 -->
<g id="edge6_Node000006_Node000007" class="edge">
<title>Node6&#45;&gt;Node7</title>
<g id="a_edge6_Node000006_Node000007"><a xlink:title=" ">
<path fill="none" stroke="#63b8ff" d="M974.92,-172.76C960.92,-144.66 931.76,-94.22 891.75,-67 886.6,-63.5 880.85,-60.64 874.89,-58.31"/>
<polygon fill="#63b8ff" stroke="#63b8ff" points="972.2,-174.17 979.69,-181.66 978.51,-171.13 972.2,-174.17"/>
</a>
</g>
</g>
<!-- Node13 -->
<g id="Node000013" class="node">
<title>Node13</title>
<g id="a_Node000013"><a xlink:href="a00548.html#gaf27f2f24932cec222273df148f8765cb" target="_top" xlink:title="Handles the fault trip by turning off the power control switching.">
<polygon fill="white" stroke="#666666" points="856.5,-96 780.5,-96 780.5,-76 856.5,-76 856.5,-96"/>
<text text-anchor="middle" x="818.5" y="-82.5" font-family="Helvetica,sans-Serif" font-size="10.00">Fault_Handler</text>
</a>
</g>
</g>
<!-- Node6&#45;&gt;Node13 -->
<g id="edge13_Node000006_Node000013" class="edge">
<title>Node6&#45;&gt;Node13</title>
<g id="a_edge13_Node000006_Node000013"><a xlink:title=" ">
<path fill="none" stroke="#63b8ff" d="M969.53,-174.21C952.8,-154.13 923.64,-122.79 891.75,-105 881.1,-99.06 868.53,-94.92 856.89,-92.06"/>
<polygon fill="#63b8ff" stroke="#63b8ff" points="967.29,-176 976.31,-181.56 972.72,-171.59 967.29,-176"/>
</a>
</g>
</g>
<!-- Node18 -->
<g id="Node000018" class="node">
<title>Node18</title>
<g id="a_Node000018"><a xlink:href="a00542.html#ga8307344d190a5459682d315fc7bfe198" target="_top" xlink:title="Executes function for initialze state machine.">
<polygon fill="white" stroke="#666666" points="686.75,-248 592,-248 592,-228 686.75,-228 686.75,-248"/>
<text text-anchor="middle" x="639.38" y="-234.5" font-family="Helvetica,sans-Serif" font-size="10.00">PCS_INIT_handler</text>
</a>
</g>
</g>
<!-- Node6&#45;&gt;Node18 -->
<g id="edge18_Node000006_Node000018" class="edge">
<title>Node6&#45;&gt;Node18</title>
<g id="a_edge18_Node000006_Node000018"><a xlink:title=" ">
<path fill="none" stroke="#63b8ff" d="M916.9,-201.81C849.1,-210.69 746.32,-224.14 687.02,-231.9"/>
<polygon fill="#63b8ff" stroke="#63b8ff" points="917,-205.2 926.47,-200.43 916.1,-198.26 917,-205.2"/>
</a>
</g>
</g>
<!-- Node19 -->
<g id="Node000019" class="node">
<title>Node19</title>
<g id="a_Node000019"><a xlink:href="a00542.html#gabda6b853bb6547821acd0ec87e0a4842" target="_top" xlink:title="Executes the power control soft start state machine.">
<polygon fill="white" stroke="#666666" points="709.25,-210 569.5,-210 569.5,-190 709.25,-190 709.25,-210"/>
<text text-anchor="middle" x="639.38" y="-196.5" font-family="Helvetica,sans-Serif" font-size="10.00">PCS_SOFT_START_handler</text>
</a>
</g>
</g>
<!-- Node6&#45;&gt;Node19 -->
<g id="edge20_Node000006_Node000019" class="edge">
<title>Node6&#45;&gt;Node19</title>
<g id="a_edge20_Node000006_Node000019"><a xlink:title=" ">
<path fill="none" stroke="#63b8ff" d="M916.63,-194.38C856.84,-195.59 770.01,-197.36 709.71,-198.59"/>
<polygon fill="#63b8ff" stroke="#63b8ff" points="916.54,-197.86 926.47,-194.16 916.4,-190.86 916.54,-197.86"/>
</a>
</g>
</g>
<!-- Node20 -->
<g id="Node000020" class="node">
<title>Node20</title>
<g id="a_Node000020"><a xlink:href="a00542.html#ga8752fbb48416e60141e205f1cbda0f98" target="_top" xlink:title="Executes the Online state.">
<polygon fill="white" stroke="#666666" points="883.12,-146 753.88,-146 753.88,-114 883.12,-114 883.12,-146"/>
<text text-anchor="start" x="761.88" y="-132.5" font-family="Helvetica,sans-Serif" font-size="10.00">PCS_UP_AND_RUNNING</text>
<text text-anchor="middle" x="818.5" y="-120.5" font-family="Helvetica,sans-Serif" font-size="10.00">_handler</text>
</a>
</g>
</g>
<!-- Node6&#45;&gt;Node20 -->
<g id="edge22_Node000006_Node000020" class="edge">
<title>Node6&#45;&gt;Node20</title>
<g id="a_edge22_Node000006_Node000020"><a xlink:title=" ">
<path fill="none" stroke="#63b8ff" d="M946.84,-178.69C921.77,-169.11 888.7,-156.46 862.55,-146.46"/>
<polygon fill="#63b8ff" stroke="#63b8ff" points="945.45,-182.29 956.04,-182.6 947.95,-175.76 945.45,-182.29"/>
</a>
</g>
</g>
<!-- Node21 -->
<g id="Node000021" class="node">
<title>Node21</title>
<g id="a_Node000021"><a xlink:href="a00539.html#ga2c39b57545ef7b5c79bac36ab30da7d8" target="_top" xlink:title="Initialize the power control parameters.">
<polygon fill="white" stroke="#666666" points="862.5,-260 774.5,-260 774.5,-240 862.5,-240 862.5,-260"/>
<text text-anchor="middle" x="818.5" y="-246.5" font-family="Helvetica,sans-Serif" font-size="10.00">PwrCtrl_Initialize</text>
</a>
</g>
</g>
<!-- Node6&#45;&gt;Node21 -->
<g id="edge24_Node000006_Node000021" class="edge">
<title>Node6&#45;&gt;Node21</title>
<g id="a_edge24_Node000006_Node000021"><a xlink:title=" ">
<path fill="none" stroke="#63b8ff" d="M945.68,-206.98C929.11,-212.92 909.51,-219.88 891.75,-226 878.63,-230.52 864.12,-235.37 851.56,-239.52"/>
<polygon fill="#63b8ff" stroke="#63b8ff" points="946.33,-210.1 954.56,-203.42 943.96,-203.51 946.33,-210.1"/>
</a>
</g>
</g>
<!-- Node8 -->
<g id="Node000008" class="node">
<title>Node8</title>
<g id="a_Node000008"><a xlink:href="a00528.html#gaf2b5ec7aa4bf88b00eaa69cfeba83160" target="_top" xlink:title="process received data">
<polygon fill="white" stroke="#666666" points="533.5,-42 408,-42 408,-10 533.5,-10 533.5,-42"/>
<text text-anchor="start" x="416" y="-28.5" font-family="Helvetica,sans-Serif" font-size="10.00">App_PBV_DAB_Process</text>
<text text-anchor="middle" x="470.75" y="-16.5" font-family="Helvetica,sans-Serif" font-size="10.00">_Rx_Data</text>
</a>
</g>
</g>
<!-- Node7&#45;&gt;Node8 -->
<g id="edge7_Node000007_Node000008" class="edge">
<title>Node7&#45;&gt;Node8</title>
<g id="a_edge7_Node000007_Node000008"><a xlink:title=" ">
<path fill="none" stroke="#63b8ff" d="M751.38,-43.79C688.64,-39.8 595.07,-33.85 533.73,-29.94"/>
<polygon fill="#63b8ff" stroke="#63b8ff" points="751.13,-47.35 761.33,-44.49 751.58,-40.36 751.13,-47.35"/>
</a>
</g>
</g>
<!-- Node12 -->
<g id="Node000012" class="node">
<title>Node12</title>
<g id="a_Node000012"><a xlink:href="a00544.html#gae5951bb40b236569aa345e1753808858" target="_top" xlink:title="API function to set the power control state forward, reverse or stop.">
<polygon fill="white" stroke="#666666" points="688.25,-20 590.5,-20 590.5,0 688.25,0 688.25,-20"/>
<text text-anchor="middle" x="639.38" y="-6.5" font-family="Helvetica,sans-Serif" font-size="10.00">PwrCtrl_SetEnable</text>
</a>
</g>
</g>
<!-- Node7&#45;&gt;Node12 -->
<g id="edge11_Node000007_Node000012" class="edge">
<title>Node7&#45;&gt;Node12</title>
<g id="a_edge11_Node000007_Node000012"><a xlink:title=" ">
<path fill="none" stroke="#63b8ff" d="M758.11,-35.26C735.46,-30.4 709.95,-24.93 688.47,-20.32"/>
<polygon fill="#63b8ff" stroke="#63b8ff" points="757.12,-38.84 767.63,-37.52 758.59,-32 757.12,-38.84"/>
</a>
</g>
</g>
<!-- Node9 -->
<g id="Node000009" class="node">
<title>Node9</title>
<g id="a_Node000009"><a xlink:href="a00528.html#gae7f76d2864d9f99538052487fb4c9570" target="_top" xlink:title="default callback">
<polygon fill="white" stroke="#666666" points="357.38,-36 297.88,-36 297.88,-16 357.38,-16 357.38,-36"/>
<text text-anchor="middle" x="327.62" y="-22.5" font-family="Helvetica,sans-Serif" font-size="10.00">protocolID</text>
</a>
</g>
</g>
<!-- Node8&#45;&gt;Node9 -->
<g id="edge8_Node000008_Node000009" class="edge">
<title>Node8&#45;&gt;Node9</title>
<g id="a_edge8_Node000008_Node000009"><a xlink:title=" ">
<path fill="none" stroke="#63b8ff" d="M397.15,-26C383.13,-26 369.22,-26 357.63,-26"/>
<polygon fill="#63b8ff" stroke="#63b8ff" points="396.85,-29.5 406.85,-26 396.85,-22.5 396.85,-29.5"/>
</a>
</g>
</g>
<!-- Node10 -->
<g id="Node000010" class="node">
<title>Node10</title>
<g id="a_Node000010"><a xlink:href="a00528.html#ga4de477d51ea04cdcfcb1e3eb3ef0053a" target="_top" xlink:title="10ms PBV task to be execution">
<polygon fill="white" stroke="#666666" points="247.25,-36 107.5,-36 107.5,-16 247.25,-16 247.25,-36"/>
<text text-anchor="middle" x="177.38" y="-22.5" font-family="Helvetica,sans-Serif" font-size="10.00">App_PBV_DAB_Task_10ms</text>
</a>
</g>
</g>
<!-- Node9&#45;&gt;Node10 -->
<g id="edge9_Node000009_Node000010" class="edge">
<title>Node9&#45;&gt;Node10</title>
<g id="a_edge9_Node000009_Node000010"><a xlink:title=" ">
<path fill="none" stroke="#63b8ff" d="M287,-26C274.82,-26 261.04,-26 247.48,-26"/>
<polygon fill="#63b8ff" stroke="#63b8ff" points="286.69,-29.5 296.69,-26 286.69,-22.5 286.69,-29.5"/>
</a>
</g>
</g>
<!-- Node11 -->
<g id="Node000011" class="node">
<title>Node11</title>
<g id="a_Node000011"><a xlink:href="a00550.html#ga05751024e03719cbe14d88fb0af408dd" target="_top" xlink:title="Tasks_10ms gets called every 10ms, put your things in it that need to be called regularly.">
<polygon fill="white" stroke="#666666" points="71.5,-36 0,-36 0,-16 71.5,-16 71.5,-36"/>
<text text-anchor="middle" x="35.75" y="-22.5" font-family="Helvetica,sans-Serif" font-size="10.00">Tasks_10ms</text>
</a>
</g>
</g>
<!-- Node10&#45;&gt;Node11 -->
<g id="edge10_Node000010_Node000011" class="edge">
<title>Node10&#45;&gt;Node11</title>
<g id="a_edge10_Node000010_Node000011"><a xlink:title=" ">
<path fill="none" stroke="#63b8ff" d="M96.4,-26C87.78,-26 79.38,-26 71.73,-26"/>
<polygon fill="#63b8ff" stroke="#63b8ff" points="96.38,-29.5 106.38,-26 96.38,-22.5 96.38,-29.5"/>
</a>
</g>
</g>
<!-- Node12&#45;&gt;Node8 -->
<g id="edge12_Node000012_Node000008" class="edge">
<title>Node12&#45;&gt;Node8</title>
<g id="a_edge12_Node000012_Node000008"><a xlink:title=" ">
<path fill="none" stroke="#63b8ff" d="M579.61,-15.64C564.78,-17.07 548.81,-18.6 533.82,-20.04"/>
<polygon fill="#63b8ff" stroke="#63b8ff" points="579.56,-19.07 589.18,-14.63 578.89,-12.1 579.56,-19.07"/>
</a>
</g>
</g>
<!-- Node14 -->
<g id="Node000014" class="node">
<title>Node14</title>
<g id="a_Node000014"><a xlink:href="a00548.html#gacd1ca209275dae0bc2388ac954858d83" target="_top" xlink:title="Executes the fault handlers.">
<polygon fill="white" stroke="#666666" points="678.88,-134 599.88,-134 599.88,-114 678.88,-114 678.88,-134"/>
<text text-anchor="middle" x="639.38" y="-120.5" font-family="Helvetica,sans-Serif" font-size="10.00">Fault_Execute</text>
</a>
</g>
</g>
<!-- Node13&#45;&gt;Node14 -->
<g id="edge14_Node000013_Node000014" class="edge">
<title>Node13&#45;&gt;Node14</title>
<g id="a_edge14_Node000013_Node000014"><a xlink:title=" ">
<path fill="none" stroke="#63b8ff" d="M769.88,-96.22C741.52,-102.3 705.97,-109.93 679.3,-115.65"/>
<polygon fill="#63b8ff" stroke="#63b8ff" points="770.33,-99.49 779.37,-93.97 768.86,-92.64 770.33,-99.49"/>
</a>
</g>
</g>
<!-- Node16 -->
<g id="Node000016" class="node">
<title>Node16</title>
<g id="a_Node000016"><a xlink:href="a00548.html#ga35608d94d8d76de809bb7588a325abc9" target="_top" xlink:title="Fault evaluation for Temperature and other slow fault detection executed every 100ms.">
<polygon fill="white" stroke="#666666" points="696.12,-96 582.62,-96 582.62,-76 696.12,-76 696.12,-96"/>
<text text-anchor="middle" x="639.38" y="-82.5" font-family="Helvetica,sans-Serif" font-size="10.00">Fault_Execute_100ms</text>
</a>
</g>
</g>
<!-- Node13&#45;&gt;Node16 -->
<g id="edge16_Node000013_Node000016" class="edge">
<title>Node13&#45;&gt;Node16</title>
<g id="a_edge16_Node000013_Node000016"><a xlink:title=" ">
<path fill="none" stroke="#63b8ff" d="M769.66,-86C747.04,-86 719.88,-86 696.31,-86"/>
<polygon fill="#63b8ff" stroke="#63b8ff" points="769.37,-89.5 779.37,-86 769.37,-82.5 769.37,-89.5"/>
</a>
</g>
</g>
<!-- Node15 -->
<g id="Node000015" class="node">
<title>Node15</title>
<g id="a_Node000015"><a xlink:href="a00540.html#gae32c9e5ed4d1fb98fc13b26601782c10" target="_top" xlink:title="Executes the power converter control loop.">
<polygon fill="white" stroke="#666666" points="524.88,-178 416.62,-178 416.62,-146 524.88,-146 524.88,-178"/>
<text text-anchor="start" x="424.62" y="-164.5" font-family="Helvetica,sans-Serif" font-size="10.00">ControlLoop_Interrupt</text>
<text text-anchor="middle" x="470.75" y="-152.5" font-family="Helvetica,sans-Serif" font-size="10.00">_CallBack</text>
</a>
</g>
</g>
<!-- Node14&#45;&gt;Node15 -->
<g id="edge15_Node000014_Node000015" class="edge">
<title>Node14&#45;&gt;Node15</title>
<g id="a_edge15_Node000014_Node000015"><a xlink:title=" ">
<path fill="none" stroke="#63b8ff" d="M589.24,-135.2C569.15,-139.79 545.86,-145.1 525.33,-149.78"/>
<polygon fill="#63b8ff" stroke="#63b8ff" points="589.76,-138.45 598.73,-132.81 588.2,-131.62 589.76,-138.45"/>
</a>
</g>
</g>
<!-- Node17 -->
<g id="Node000017" class="node">
<title>Node17</title>
<g id="a_Node000017"><a xlink:href="a00550.html#ga6d5c487ee3f418e6d0432867d11adaed" target="_top" xlink:title="Tasks_100ms gets called every 100 ms, put your things in it that need to be called regularly.">
<polygon fill="white" stroke="#666666" points="509.12,-96 432.38,-96 432.38,-76 509.12,-76 509.12,-96"/>
<text text-anchor="middle" x="470.75" y="-82.5" font-family="Helvetica,sans-Serif" font-size="10.00">Tasks_100ms</text>
</a>
</g>
</g>
<!-- Node16&#45;&gt;Node17 -->
<g id="edge17_Node000016_Node000017" class="edge">
<title>Node16&#45;&gt;Node17</title>
<g id="a_edge17_Node000016_Node000017"><a xlink:title=" ">
<path fill="none" stroke="#63b8ff" d="M571.54,-86C550.4,-86 527.79,-86 509.44,-86"/>
<polygon fill="#63b8ff" stroke="#63b8ff" points="571.43,-89.5 581.43,-86 571.43,-82.5 571.43,-89.5"/>
</a>
</g>
</g>
<!-- Node18&#45;&gt;Node4 -->
<g id="edge19_Node000018_Node000004" class="edge">
<title>Node18&#45;&gt;Node4</title>
<g id="a_edge19_Node000018_Node000004"><a xlink:title=" ">
<path fill="none" stroke="#63b8ff" d="M580.97,-231.45C563.63,-229.48 544.63,-227.31 527.4,-225.35"/>
<polygon fill="#63b8ff" stroke="#63b8ff" points="580.19,-235 590.52,-232.66 580.98,-228.05 580.19,-235"/>
</a>
</g>
</g>
<!-- Node19&#45;&gt;Node4 -->
<g id="edge21_Node000019_Node000004" class="edge">
<title>Node19&#45;&gt;Node4</title>
<g id="a_edge21_Node000019_Node000004"><a xlink:title=" ">
<path fill="none" stroke="#63b8ff" d="M558.36,-209.12C547.95,-210.31 537.47,-211.51 527.57,-212.64"/>
<polygon fill="#63b8ff" stroke="#63b8ff" points="558.62,-212.5 568.16,-207.89 557.83,-205.55 558.62,-212.5"/>
</a>
</g>
</g>
<!-- Node20&#45;&gt;Node4 -->
<g id="edge23_Node000020_Node000004" class="edge">
<title>Node20&#45;&gt;Node4</title>
<g id="a_edge23_Node000020_Node000004"><a xlink:title=" ">
<path fill="none" stroke="#63b8ff" d="M742.93,-141.96C693.27,-150.75 626.85,-164.09 569.5,-181 543.48,-188.67 514.63,-200.29 495.07,-208.66"/>
<polygon fill="#63b8ff" stroke="#63b8ff" points="743.33,-145.27 752.58,-140.1 742.13,-138.37 743.33,-145.27"/>
</a>
</g>
</g>
<!-- Node21&#45;&gt;Node18 -->
<g id="edge25_Node000021_Node000018" class="edge">
<title>Node21&#45;&gt;Node18</title>
<g id="a_edge25_Node000021_Node000018"><a xlink:title=" ">
<path fill="none" stroke="#63b8ff" d="M763.29,-246.33C738.9,-244.67 710.39,-242.74 686.98,-241.16"/>
<polygon fill="#63b8ff" stroke="#63b8ff" points="762.96,-249.88 773.17,-247.06 763.43,-242.9 762.96,-249.88"/>
</a>
</g>
</g>
<!-- Node22&#45;&gt;Node3 -->
<g id="edge28_Node000022_Node000003" class="edge">
<title>Node22&#45;&gt;Node3</title>
<g id="a_edge28_Node000022_Node000003"><a xlink:title=" ">
<path fill="none" stroke="#63b8ff" d="M917.81,-397.78C869.56,-399.89 802.91,-399.99 745.25,-390 716.23,-384.97 684.44,-373.09 663.55,-364.35"/>
<polygon fill="#63b8ff" stroke="#63b8ff" points="917.92,-401.23 927.74,-397.25 917.58,-394.23 917.92,-401.23"/>
</a>
</g>
</g>
<!-- Node23&#45;&gt;Node3 -->
<g id="edge31_Node000023_Node000003" class="edge">
<title>Node23&#45;&gt;Node3</title>
<g id="a_edge31_Node000023_Node000003"><a xlink:title=" ">
<path fill="none" stroke="#63b8ff" d="M967.16,-306.91C949.94,-323.55 921.7,-347.18 891.75,-357 826.23,-378.49 745.83,-372.31 693.88,-364.43"/>
<polygon fill="#63b8ff" stroke="#63b8ff" points="969.08,-309.94 973.68,-300.4 964.13,-304.99 969.08,-309.94"/>
</a>
</g>
</g>
<!-- Node23&#45;&gt;Node15 -->
<g id="edge30_Node000023_Node000015" class="edge">
<title>Node23&#45;&gt;Node15</title>
<g id="a_edge30_Node000023_Node000015"><a xlink:title=" ">
<path fill="none" stroke="#63b8ff" d="M917.46,-290.97C815.37,-292.81 626.35,-291.25 569.5,-257 543.84,-241.54 554.81,-221.06 533.5,-200 525.08,-191.68 514.52,-184.35 504.53,-178.4"/>
<polygon fill="#63b8ff" stroke="#63b8ff" points="917.33,-294.46 927.26,-290.76 917.19,-287.46 917.33,-294.46"/>
</a>
</g>
</g>
<!-- Node23&#45;&gt;Node21 -->
<g id="edge32_Node000023_Node000021" class="edge">
<title>Node23&#45;&gt;Node21</title>
<g id="a_edge32_Node000023_Node000021"><a xlink:title=" ">
<path fill="none" stroke="#63b8ff" d="M929.41,-276.02C907.78,-270.9 883.28,-265.1 862.92,-260.28"/>
<polygon fill="#63b8ff" stroke="#63b8ff" points="928.56,-279.65 939.1,-278.55 930.18,-272.84 928.56,-279.65"/>
</a>
</g>
</g>
</g>
</svg>

<g id="navigator" transform="translate(0 0)" fill="#404254">
  <rect fill="#f2f5e9" fill-opacity="0.5" stroke="#606060" stroke-width=".5" x="0" y="0" width="60" height="60"/>
  <use id="zoomplus" xlink:href="#zoomPlus" x="17" y="9" onmousedown="handleZoom(evt,'in')"/>
  <use id="zoomminus" xlink:href="#zoomMin" x="42" y="9" onmousedown="handleZoom(evt,'out')"/>
  <use id="reset" xlink:href="#resetDef" x="30" y="36" onmousedown="handleReset()"/>
   <use id="arrowup" xlink:href="#arrowUp" x="0" y="0" onmousedown="handlePan(0,-1)"/>
  <use id="arrowright" xlink:href="#arrowRight" x="0" y="0" onmousedown="handlePan(1,0)"/>
  <use id="arrowdown" xlink:href="#arrowDown" x="0" y="0" onmousedown="handlePan(0,1)"/>
  <use id="arrowleft" xlink:href="#arrowLeft" x="0" y="0" onmousedown="handlePan(-1,0)"/>
</g>
<svg viewBox="0 0 15 15" width="100%" height="30px" preserveAspectRatio="xMaxYMin meet">
 <g id="arrow_out" transform="scale(0.3 0.3)">
  <a xlink:href="a00559_ga83e780358618114f0d424ca7467cf751_icgraph_org.svg" target="_base">
   <rect id="button" ry="5" rx="5" y="6" x="6" height="38" width="38"
        fill="#f2f5e9" fill-opacity="0.5" stroke="#606060" stroke-width="1.0"/>
   <path id="arrow"
     d="M 11.500037,31.436501 C 11.940474,20.09759 22.043105,11.32322 32.158766,21.979434 L 37.068811,17.246167 C 37.068811,17.246167 37.088388,32 37.088388,32 L 22.160133,31.978069 C 22.160133,31.978069 26.997745,27.140456 26.997745,27.140456 C 18.528582,18.264221 13.291696,25.230495 11.500037,31.436501 z"
     style="fill:#404040;"/>
  </a>
 </g>
</svg>

<style type='text/css'>
<![CDATA[
[data-mouse-over-selected='false'] { opacity: 0.7; }
[data-mouse-over-selected='true']  { opacity: 1.0; }
]]>
</style>
<script type="application/ecmascript"><![CDATA[
document.addEventListener('DOMContentLoaded', (event) => {
  highlightEdges();
  highlightAdjacentNodes();
});
]]></script>
</svg>
