<?xml version="1.0" encoding="UTF-8" standalone="no"?>
<!DOCTYPE svg PUBLIC "-//W3C//DTD SVG 1.1//EN"
 "http://www.w3.org/Graphics/SVG/1.1/DTD/svg11.dtd">
<!-- Generated by graphviz version 8.1.0 (20230707.0739)
 -->
<!-- Title: Dev_CurrentSensor_Get_Offset Pages: 1 -->
<svg width="736pt" height="66pt"
 viewBox="0.00 0.00 736.00 66.00" xmlns="http://www.w3.org/2000/svg" xmlns:xlink="http://www.w3.org/1999/xlink">
<g id="graph0" class="graph" transform="scale(1 1) rotate(0) translate(4 62)">
<title>Dev_CurrentSensor_Get_Offset</title>
<!-- Node1 -->
<g id="Node000001" class="node">
<title>Node1</title>
<g id="a_Node000001"><a xlink:title="API function to get the sensor offset.">
<polygon fill="#999999" stroke="#666666" points="728,-45 628.75,-45 628.75,-13 728,-13 728,-45"/>
<text text-anchor="start" x="636.75" y="-31.5" font-family="Helvetica,sans-Serif" font-size="10.00">Dev_CurrentSensor</text>
<text text-anchor="middle" x="678.38" y="-19.5" font-family="Helvetica,sans-Serif" font-size="10.00">_Get_Offset</text>
</a>
</g>
</g>
<!-- Node2 -->
<g id="Node000002" class="node">
<title>Node2</title>
<g id="a_Node000002"><a xlink:href="a00492.html#ga8307344d190a5459682d315fc7bfe198" target="_top" xlink:title="Executes function for initialze state machine.">
<polygon fill="white" stroke="#666666" points="578.12,-58 483.38,-58 483.38,-38 578.12,-38 578.12,-58"/>
<text text-anchor="middle" x="530.75" y="-44.5" font-family="Helvetica,sans-Serif" font-size="10.00">PCS_INIT_handler</text>
</a>
</g>
</g>
<!-- Node1&#45;&gt;Node2 -->
<g id="edge1_Node000001_Node000002" class="edge">
<title>Node1&#45;&gt;Node2</title>
<g id="a_edge1_Node000001_Node000002"><a xlink:title=" ">
<path fill="none" stroke="#63b8ff" d="M617.63,-36.79C604.52,-38.51 590.81,-40.29 578.3,-41.93"/>
<polygon fill="#63b8ff" stroke="#63b8ff" points="618.02,-40.14 627.48,-35.38 617.11,-33.2 618.02,-40.14"/>
</a>
</g>
</g>
<!-- Node6 -->
<g id="Node000006" class="node">
<title>Node6</title>
<g id="a_Node000006"><a xlink:href="a00492.html#ga42f7c8f65745b2f81bb6dbd381ea8121" target="_top" xlink:title="Executes Standby State machine.">
<polygon fill="white" stroke="#666666" points="592.75,-20 468.75,-20 468.75,0 592.75,0 592.75,-20"/>
<text text-anchor="middle" x="530.75" y="-6.5" font-family="Helvetica,sans-Serif" font-size="10.00">PCS_STANDBY_handler</text>
</a>
</g>
</g>
<!-- Node1&#45;&gt;Node6 -->
<g id="edge5_Node000001_Node000006" class="edge">
<title>Node1&#45;&gt;Node6</title>
<g id="a_edge5_Node000001_Node000006"><a xlink:title=" ">
<path fill="none" stroke="#63b8ff" d="M617.65,-21.21C609.58,-20.15 601.29,-19.07 593.19,-18.02"/>
<polygon fill="#63b8ff" stroke="#63b8ff" points="617.11,-24.8 627.48,-22.62 618.02,-17.86 617.11,-24.8"/>
</a>
</g>
</g>
<!-- Node3 -->
<g id="Node000003" class="node">
<title>Node3</title>
<g id="a_Node000003"><a xlink:href="a00492.html#gaebef55c78d9df043c293ffcf8a06b63f" target="_top" xlink:title="Manages the power control state machine.">
<polygon fill="white" stroke="#666666" points="432.75,-39 299,-39 299,-19 432.75,-19 432.75,-39"/>
<text text-anchor="middle" x="365.88" y="-25.5" font-family="Helvetica,sans-Serif" font-size="10.00">Dev_PwrCtrl_StateMachine</text>
</a>
</g>
</g>
<!-- Node2&#45;&gt;Node3 -->
<g id="edge2_Node000002_Node000003" class="edge">
<title>Node2&#45;&gt;Node3</title>
<g id="a_edge2_Node000002_Node000003"><a xlink:title=" ">
<path fill="none" stroke="#63b8ff" d="M472.18,-41.28C459.5,-39.8 445.97,-38.23 432.97,-36.71"/>
<polygon fill="#63b8ff" stroke="#63b8ff" points="471.74,-44.87 482.08,-42.56 472.55,-37.92 471.74,-44.87"/>
</a>
</g>
</g>
<!-- Node4 -->
<g id="Node000004" class="node">
<title>Node4</title>
<g id="a_Node000004"><a xlink:href="a00489.html#gad5d6590aeda3bb06b60874802edc14f6" target="_top" xlink:title="Executes the power control state machine.">
<polygon fill="white" stroke="#666666" points="263,-39 153.25,-39 153.25,-19 263,-19 263,-39"/>
<text text-anchor="middle" x="208.12" y="-25.5" font-family="Helvetica,sans-Serif" font-size="10.00">Dev_PwrCtrl_Execute</text>
</a>
</g>
</g>
<!-- Node3&#45;&gt;Node4 -->
<g id="edge3_Node000003_Node000004" class="edge">
<title>Node3&#45;&gt;Node4</title>
<g id="a_edge3_Node000003_Node000004"><a xlink:title=" ">
<path fill="none" stroke="#63b8ff" d="M287.84,-29C279.45,-29 271.05,-29 263.03,-29"/>
<polygon fill="#63b8ff" stroke="#63b8ff" points="287.82,-32.5 297.82,-29 287.82,-25.5 287.82,-32.5"/>
</a>
</g>
</g>
<!-- Node5 -->
<g id="Node000005" class="node">
<title>Node5</title>
<g id="a_Node000005"><a xlink:href="a00507.html#gad258f19a1b6a855fef3c71f54bb5539e" target="_top" xlink:title="Tasks_Realtime_100us gets called directly from the timer interrupt every 100 µs.">
<polygon fill="white" stroke="#666666" points="117.25,-39 0,-39 0,-19 117.25,-19 117.25,-39"/>
<text text-anchor="middle" x="58.62" y="-25.5" font-family="Helvetica,sans-Serif" font-size="10.00">Tasks_Realtime_100us</text>
</a>
</g>
</g>
<!-- Node4&#45;&gt;Node5 -->
<g id="edge4_Node000004_Node000005" class="edge">
<title>Node4&#45;&gt;Node5</title>
<g id="a_edge4_Node000004_Node000005"><a xlink:title=" ">
<path fill="none" stroke="#63b8ff" d="M142.08,-29C133.96,-29 125.69,-29 117.68,-29"/>
<polygon fill="#63b8ff" stroke="#63b8ff" points="142.04,-32.5 152.04,-29 142.04,-25.5 142.04,-32.5"/>
</a>
</g>
</g>
<!-- Node6&#45;&gt;Node3 -->
<g id="edge6_Node000006_Node000003" class="edge">
<title>Node6&#45;&gt;Node3</title>
<g id="a_edge6_Node000006_Node000003"><a xlink:title=" ">
<path fill="none" stroke="#63b8ff" d="M457.94,-18.38C449.73,-19.33 441.38,-20.31 433.24,-21.26"/>
<polygon fill="#63b8ff" stroke="#63b8ff" points="458.11,-21.76 467.64,-17.13 457.3,-14.81 458.11,-21.76"/>
</a>
</g>
</g>
</g>
</svg>
