<?xml version="1.0" encoding="UTF-8" standalone="no"?>
<!DOCTYPE svg PUBLIC "-//W3C//DTD SVG 1.1//EN"
 "http://www.w3.org/Graphics/SVG/1.1/DTD/svg11.dtd">
<!-- Generated by graphviz version 8.1.0 (20230707.0739)
 -->
<!-- Title: Update_Speed Pages: 1 -->
<svg width="351pt" height="28pt"
 viewBox="0.00 0.00 350.75 28.00" xmlns="http://www.w3.org/2000/svg" xmlns:xlink="http://www.w3.org/1999/xlink">
<g id="graph0" class="graph" transform="scale(1 1) rotate(0) translate(4 24)">
<title>Update_Speed</title>
<!-- Node1 -->
<g id="Node000001" class="node">
<title>Node1</title>
<g id="a_Node000001"><a xlink:title="Update the fan speed.">
<polygon fill="#999999" stroke="#666666" points="342.75,-20 263,-20 263,0 342.75,0 342.75,-20"/>
<text text-anchor="middle" x="302.88" y="-6.5" font-family="Helvetica,sans-Serif" font-size="10.00">Update_Speed</text>
</a>
</g>
</g>
<!-- Node2 -->
<g id="Node000002" class="node">
<title>Node2</title>
<g id="a_Node000002"><a xlink:href="a00529.html#ga1bd7dce99469a41bbb705d939ea512ad" target="_top" xlink:title="this function needs to be called every 100ms it contains the code to update the status of the fan">
<polygon fill="white" stroke="#666666" points="227,-20 112.75,-20 112.75,0 227,0 227,-20"/>
<text text-anchor="middle" x="169.88" y="-6.5" font-family="Helvetica,sans-Serif" font-size="10.00">Dev_Fan_Task_100ms</text>
</a>
</g>
</g>
<!-- Node1&#45;&gt;Node2 -->
<g id="edge1_Node000001_Node000002" class="edge">
<title>Node1&#45;&gt;Node2</title>
<g id="a_edge1_Node000001_Node000002"><a xlink:title=" ">
<path fill="none" stroke="#63b8ff" d="M251.81,-10C243.73,-10 235.32,-10 227.1,-10"/>
<polygon fill="#63b8ff" stroke="#63b8ff" points="251.57,-13.5 261.57,-10 251.57,-6.5 251.57,-13.5"/>
</a>
</g>
</g>
<!-- Node3 -->
<g id="Node000003" class="node">
<title>Node3</title>
<g id="a_Node000003"><a xlink:href="a00547.html#ga6d5c487ee3f418e6d0432867d11adaed" target="_top" xlink:title="Tasks_100ms gets called every 100 ms, put your things in it that need to be called regularly.">
<polygon fill="white" stroke="#666666" points="76.75,-20 0,-20 0,0 76.75,0 76.75,-20"/>
<text text-anchor="middle" x="38.38" y="-6.5" font-family="Helvetica,sans-Serif" font-size="10.00">Tasks_100ms</text>
</a>
</g>
</g>
<!-- Node2&#45;&gt;Node3 -->
<g id="edge2_Node000002_Node000003" class="edge">
<title>Node2&#45;&gt;Node3</title>
<g id="a_edge2_Node000002_Node000003"><a xlink:title=" ">
<path fill="none" stroke="#63b8ff" d="M101.71,-10C93.22,-10 84.78,-10 76.98,-10"/>
<polygon fill="#63b8ff" stroke="#63b8ff" points="101.45,-13.5 111.45,-10 101.45,-6.5 101.45,-13.5"/>
</a>
</g>
</g>
</g>
</svg>
