<?xml version="1.0" encoding="UTF-8" standalone="no"?>
<!DOCTYPE svg PUBLIC "-//W3C//DTD SVG 1.1//EN"
 "http://www.w3.org/Graphics/SVG/1.1/DTD/svg11.dtd">
<!-- Generated by graphviz version 8.1.0 (20230707.0739)
 -->
<!-- Title: ControlLoop_Interrupt_CallBack Pages: 1 -->
<!--zoomable 678 -->

<svg id="main" version="1.1" xmlns="http://www.w3.org/2000/svg" xmlns:xlink="http://www.w3.org/1999/xlink" xml:space="preserve" onload="init(evt)">
<style type="text/css"><![CDATA[
.node, .edge {opacity: 0.7;}
.node.selected, .edge.selected {opacity: 1;}
.edge:hover path { stroke: red; }
.edge:hover polygon { stroke: red; fill: red; }
]]></style>

<defs>
  <circle id="rim" cx="0" cy="0" r="7"/>
  <circle id="rim2" cx="0" cy="0" r="3.5"/>
  <g id="zoomPlus">
    <use xlink:href="#rim" fill="#404040"><set attributeName="fill" to="#808080" begin="zoomplus.mouseover" end="zoomplus.mouseout"/></use>
    <path d="M-4,0h8M0,-4v8" fill="none" stroke="white" stroke-width="1.5" pointer-events="none"/>
  </g>
  <g id="zoomMin">
    <use xlink:href="#rim" fill="#404040"><set attributeName="fill" to="#808080" begin="zoomminus.mouseover" end="zoomminus.mouseout"/></use>
    <path d="M-4,0h8" fill="none" stroke="white" stroke-width="1.5" pointer-events="none"/>
  </g>
  <g id="arrowUp" transform="translate(30 24)">
    <use xlink:href="#rim"/>
    <path pointer-events="none" fill="none" stroke="white" stroke-width="1.5" d="M0,-3.0v7 M-2.5,-0.5L0,-3.0L2.5,-0.5"/>
  </g>
  <g id="arrowRight" transform="rotate(90) translate(36 -43)">
    <use xlink:href="#rim"/>
    <path pointer-events="none" fill="none" stroke="white" stroke-width="1.5" d="M0,-3.0v7 M-2.5,-0.5L0,-3.0L2.5,-0.5"/>
  </g>
  <g id="arrowDown" transform="rotate(180) translate(-30 -48)">
    <use xlink:href="#rim"/>
    <path pointer-events="none" fill="none" stroke="white" stroke-width="1.5" d="M0,-3.0v7 M-2.5,-0.5L0,-3.0L2.5,-0.5"/>
  </g>
  <g id="arrowLeft" transform="rotate(270) translate(-36 17)">
    <use xlink:href="#rim"/>
    <path pointer-events="none" fill="none" stroke="white" stroke-width="1.5" d="M0,-3.0v7 M-2.5,-0.5L0,-3.0L2.5,-0.5"/>
  </g>
  <g id="resetDef">
    <use xlink:href="#rim2" fill="#404040"><set attributeName="fill" to="#808080" begin="reset.mouseover" end="reset.mouseout"/></use>
  </g>
</defs>
<script type="application/ecmascript">
var viewWidth = 862;
var viewHeight = 678;
var sectionId = 'dynsection-1';
</script>
<script type="application/ecmascript" xlink:href="svg.min.js"/>
<svg id="graph" class="graph">
<g id="viewport">
<title>ControlLoop_Interrupt_CallBack</title>
<!-- Node1 -->
<g id="Node000001" class="node">
<title>Node1</title>
<g id="a_Node000001"><a xlink:title="Executes the power converter control loop.">
<polygon fill="#999999" stroke="#666666" points="108.25,-197 0,-197 0,-165 108.25,-165 108.25,-197"/>
<text text-anchor="start" x="8" y="-183.5" font-family="Helvetica,sans-Serif" font-size="10.00">ControlLoop_Interrupt</text>
<text text-anchor="middle" x="54.12" y="-171.5" font-family="Helvetica,sans-Serif" font-size="10.00">_CallBack</text>
</a>
</g>
</g>
<!-- Node2 -->
<g id="Node000002" class="node">
<title>Node2</title>
<g id="a_Node000002"><a xlink:href="a00532.html#gaebc385db92ab49c593f635282b8491db" target="_top" xlink:title="This inline function sets software common trigger.">
<polygon fill="white" stroke="#666666" points="505.5,-666 362,-666 362,-646 505.5,-646 505.5,-666"/>
<text text-anchor="middle" x="433.75" y="-652.5" font-family="Helvetica,sans-Serif" font-size="10.00">ADC1_SoftwareTriggerEnable</text>
</a>
</g>
</g>
<!-- Node1&#45;&gt;Node2 -->
<g id="edge1_Node000001_Node000002" class="edge">
<title>Node1&#45;&gt;Node2</title>
<g id="a_edge1_Node000001_Node000002"><a xlink:title=" ">
<path fill="none" stroke="#63b8ff" d="M56.01,-197.49C60.25,-269.93 80.96,-559 144.25,-618 202.18,-672 297.36,-674.11 362.43,-667.64"/>
<polygon fill="#63b8ff" stroke="#63b8ff" points="362.45,-671.05 372.01,-666.48 361.69,-664.09 362.45,-671.05"/>
</a>
</g>
</g>
<!-- Node3 -->
<g id="Node000003" class="node">
<title>Node3</title>
<g id="a_Node000003"><a xlink:href="a00527.html#gacd1ca209275dae0bc2388ac954858d83" target="_top" xlink:title="Executes the fault handlers.">
<polygon fill="white" stroke="#666666" points="269,-438 190,-438 190,-418 269,-418 269,-438"/>
<text text-anchor="middle" x="229.5" y="-424.5" font-family="Helvetica,sans-Serif" font-size="10.00">Fault_Execute</text>
</a>
</g>
</g>
<!-- Node1&#45;&gt;Node3 -->
<g id="edge2_Node000001_Node000003" class="edge">
<title>Node1&#45;&gt;Node3</title>
<g id="a_edge2_Node000001_Node000003"><a xlink:title=" ">
<path fill="none" stroke="#63b8ff" d="M66.5,-197.21C97.24,-240.99 181.85,-361.54 214.96,-408.71"/>
<polygon fill="#63b8ff" stroke="#63b8ff" points="212.6,-410.44 221.21,-416.61 218.33,-406.42 212.6,-410.44"/>
</a>
</g>
</g>
<!-- Node14 -->
<g id="Node000014" class="node">
<title>Node14</title>
<g id="a_Node000014"><a xlink:href="a00519.html#gaaf49f142990b8dc3f750e88365bf8fed" target="_top" xlink:title="This function prepares the data for control loop and selects which control loop will be executed.">
<polygon fill="white" stroke="#666666" points="314.75,-191 144.25,-191 144.25,-171 314.75,-171 314.75,-191"/>
<text text-anchor="middle" x="229.5" y="-177.5" font-family="Helvetica,sans-Serif" font-size="10.00">PwrCtrl_10KHzVPLoopPrepareData</text>
</a>
</g>
</g>
<!-- Node1&#45;&gt;Node14 -->
<g id="edge13_Node000001_Node000014" class="edge">
<title>Node1&#45;&gt;Node14</title>
<g id="a_edge13_Node000001_Node000014"><a xlink:title=" ">
<path fill="none" stroke="#63b8ff" d="M108.56,-181C116.46,-181 124.8,-181 133.25,-181"/>
<polygon fill="#63b8ff" stroke="#63b8ff" points="132.99,-184.5 142.99,-181 132.99,-177.5 132.99,-184.5"/>
</a>
</g>
</g>
<!-- Node16 -->
<g id="Node000016" class="node">
<title>Node16</title>
<g id="a_Node000016"><a xlink:href="a00519.html#ga2eeebdb0cef4bbfeed446752525dd879" target="_top" xlink:title="Executes the power converter control loop.">
<polygon fill="white" stroke="#666666" points="299.75,-153 159.25,-153 159.25,-133 299.75,-133 299.75,-153"/>
<text text-anchor="middle" x="229.5" y="-139.5" font-family="Helvetica,sans-Serif" font-size="10.00">PwrCtrl_ControlLoopExecute</text>
</a>
</g>
</g>
<!-- Node1&#45;&gt;Node16 -->
<g id="edge15_Node000001_Node000016" class="edge">
<title>Node1&#45;&gt;Node16</title>
<g id="a_edge15_Node000001_Node000016"><a xlink:title=" ">
<path fill="none" stroke="#63b8ff" d="M108.56,-169.29C128.12,-165 150.35,-160.13 170.32,-155.75"/>
<polygon fill="#63b8ff" stroke="#63b8ff" points="170.81,-159.01 179.83,-153.45 169.31,-152.17 170.81,-159.01"/>
</a>
</g>
</g>
<!-- Node19 -->
<g id="Node000019" class="node">
<title>Node19</title>
<g id="a_Node000019"><a xlink:href="a00519.html#ga80c3a681fbe9c0d7041146d82134f0cb" target="_top" xlink:title="This function updates the DAB data members dead time based on load.">
<polygon fill="white" stroke="#666666" points="291.5,-115 167.5,-115 167.5,-95 291.5,-95 291.5,-115"/>
<text text-anchor="middle" x="229.5" y="-101.5" font-family="Helvetica,sans-Serif" font-size="10.00">PwrCtrl_DeadTimeAdjust</text>
</a>
</g>
</g>
<!-- Node1&#45;&gt;Node19 -->
<g id="edge18_Node000001_Node000019" class="edge">
<title>Node1&#45;&gt;Node19</title>
<g id="a_edge18_Node000001_Node000019"><a xlink:title=" ">
<path fill="none" stroke="#63b8ff" d="M75.93,-164.72C93.3,-151.89 119.16,-134.47 144.25,-124 149.22,-121.92 154.46,-120.06 159.8,-118.38"/>
<polygon fill="#63b8ff" stroke="#63b8ff" points="160.49,-121.53 169.12,-115.38 158.54,-114.81 160.49,-121.53"/>
</a>
</g>
</g>
<!-- Node20 -->
<g id="Node000020" class="node">
<title>Node20</title>
<g id="a_Node000020"><a xlink:href="a00461.html#ac4d366f40ad4926202db3d6334f0cc41" target="_top" xlink:title=" ">
<polygon fill="white" stroke="#666666" points="291.12,-77 167.88,-77 167.88,-57 291.12,-57 291.12,-77"/>
<text text-anchor="middle" x="229.5" y="-63.5" font-family="Helvetica,sans-Serif" font-size="10.00">PwrCtrl_PeriodModulator</text>
</a>
</g>
</g>
<!-- Node1&#45;&gt;Node20 -->
<g id="edge19_Node000001_Node000020" class="edge">
<title>Node1&#45;&gt;Node20</title>
<g id="a_edge19_Node000001_Node000020"><a xlink:title=" ">
<path fill="none" stroke="#63b8ff" d="M65.67,-164.76C80.53,-143.25 109.7,-105.76 144.25,-86 148.39,-83.63 152.8,-81.56 157.35,-79.75"/>
<polygon fill="#63b8ff" stroke="#63b8ff" points="158.22,-82.8 166.48,-76.17 155.89,-76.2 158.22,-82.8"/>
</a>
</g>
</g>
<!-- Node21 -->
<g id="Node000021" class="node">
<title>Node21</title>
<g id="a_Node000021"><a xlink:href="a00519.html#gabda1b0b4f44a931cc725c3f5fa45be7b" target="_top" xlink:title="This function updates the DAB data members with phase values normalized in degree.">
<polygon fill="white" stroke="#666666" points="302,-39 157,-39 157,-19 302,-19 302,-39"/>
<text text-anchor="middle" x="229.5" y="-25.5" font-family="Helvetica,sans-Serif" font-size="10.00">PwrCtrl_PrimToSecPHDegree</text>
</a>
</g>
</g>
<!-- Node1&#45;&gt;Node21 -->
<g id="edge20_Node000001_Node000021" class="edge">
<title>Node1&#45;&gt;Node21</title>
<g id="a_edge20_Node000001_Node000021"><a xlink:title=" ">
<path fill="none" stroke="#63b8ff" d="M61.34,-164.54C72.99,-136.04 100.93,-77.71 144.25,-48 146.39,-46.53 148.62,-45.18 150.93,-43.93"/>
<polygon fill="#63b8ff" stroke="#63b8ff" points="152.19,-46.74 159.77,-39.34 149.23,-40.39 152.19,-46.74"/>
</a>
</g>
</g>
<!-- Node22 -->
<g id="Node000022" class="node">
<title>Node22</title>
<g id="a_Node000022"><a xlink:href="a00520.html#ga73f526371cadb7674354635462e836cc" target="_top" xlink:title="PWM distribution for DAB converter.">
<polygon fill="white" stroke="#666666" points="286.25,-229 172.75,-229 172.75,-209 286.25,-209 286.25,-229"/>
<text text-anchor="middle" x="229.5" y="-215.5" font-family="Helvetica,sans-Serif" font-size="10.00">PwrCtrl_PWM_Update</text>
</a>
</g>
</g>
<!-- Node1&#45;&gt;Node22 -->
<g id="edge21_Node000001_Node000022" class="edge">
<title>Node1&#45;&gt;Node22</title>
<g id="a_edge21_Node000001_Node000022"><a xlink:title=" ">
<path fill="none" stroke="#63b8ff" d="M108.56,-192.71C128.12,-197 150.35,-201.87 170.32,-206.25"/>
<polygon fill="#63b8ff" stroke="#63b8ff" points="169.31,-209.83 179.83,-208.55 170.81,-202.99 169.31,-209.83"/>
</a>
</g>
</g>
<!-- Node28 -->
<g id="Node000028" class="node">
<title>Node28</title>
<g id="a_Node000028"><a xlink:href="a00519.html#gaa34c5b66d8f20f01daef50d0e88cf20e" target="_top" xlink:title="This function updates the DAB data members with ADC raw values.">
<polygon fill="white" stroke="#666666" points="308.38,-609 150.62,-609 150.62,-589 308.38,-589 308.38,-609"/>
<text text-anchor="middle" x="229.5" y="-595.5" font-family="Helvetica,sans-Serif" font-size="10.00">PwrCtrl_UpdateADConverterData</text>
</a>
</g>
</g>
<!-- Node1&#45;&gt;Node28 -->
<g id="edge28_Node000001_Node000028" class="edge">
<title>Node1&#45;&gt;Node28</title>
<g id="a_edge28_Node000001_Node000028"><a xlink:title=" ">
<path fill="none" stroke="#63b8ff" d="M59.45,-197.28C70.91,-239.45 103.92,-355.4 144.25,-447 166.01,-496.43 198.54,-551.06 216.13,-579.44"/>
<polygon fill="#63b8ff" stroke="#63b8ff" points="213.62,-581.03 221.89,-587.65 219.56,-577.32 213.62,-581.03"/>
</a>
</g>
</g>
<!-- Node4 -->
<g id="Node000004" class="node">
<title>Node4</title>
<g id="a_Node000004"><a xlink:href="a00535.html#ga568e6ce9c8d08361412894ce59c8d1c2" target="_top" xlink:title="Returns the comparator output status.">
<polygon fill="white" stroke="#666666" points="480,-552 387.5,-552 387.5,-532 480,-532 480,-552"/>
<text text-anchor="middle" x="433.75" y="-538.5" font-family="Helvetica,sans-Serif" font-size="10.00">CMP1_StatusGet</text>
</a>
</g>
</g>
<!-- Node3&#45;&gt;Node4 -->
<g id="edge3_Node000003_Node000004" class="edge">
<title>Node3&#45;&gt;Node4</title>
<g id="a_edge3_Node000003_Node000004"><a xlink:title=" ">
<path fill="none" stroke="#63b8ff" d="M240.36,-438.39C259.63,-458.05 304.47,-500.75 350.75,-523 358.89,-526.91 367.88,-530.05 376.84,-532.54"/>
<polygon fill="#63b8ff" stroke="#63b8ff" points="375.72,-536.13 386.28,-535.2 377.45,-529.34 375.72,-536.13"/>
</a>
</g>
</g>
<!-- Node5 -->
<g id="Node000005" class="node">
<title>Node5</title>
<g id="a_Node000005"><a xlink:href="a00535.html#ga1f8da3d5ca79eeff2f2d0af0cfe7964a" target="_top" xlink:title="Returns the comparator output status.">
<polygon fill="white" stroke="#666666" points="480,-514 387.5,-514 387.5,-494 480,-494 480,-514"/>
<text text-anchor="middle" x="433.75" y="-500.5" font-family="Helvetica,sans-Serif" font-size="10.00">CMP3_StatusGet</text>
</a>
</g>
</g>
<!-- Node3&#45;&gt;Node5 -->
<g id="edge4_Node000003_Node000005" class="edge">
<title>Node3&#45;&gt;Node5</title>
<g id="a_edge4_Node000003_Node000005"><a xlink:title=" ">
<path fill="none" stroke="#63b8ff" d="M249.13,-438.38C272.32,-450.94 313.44,-472.01 350.75,-485 358.99,-487.87 367.85,-490.44 376.59,-492.68"/>
<polygon fill="#63b8ff" stroke="#63b8ff" points="375.6,-496.29 386.14,-495.26 377.26,-489.49 375.6,-496.29"/>
</a>
</g>
</g>
<!-- Node6 -->
<g id="Node000006" class="node">
<title>Node6</title>
<g id="a_Node000006"><a xlink:href="a00528.html#ga1a12d5b7c5b1f234c50ea2214e91fcfc" target="_top" xlink:title="This function compares the fault source value with the threshold limits and sets (or) resets the faul...">
<polygon fill="white" stroke="#666666" points="482.62,-476 384.88,-476 384.88,-456 482.62,-456 482.62,-476"/>
<text text-anchor="middle" x="433.75" y="-462.5" font-family="Helvetica,sans-Serif" font-size="10.00">FAULT_CheckMax</text>
</a>
</g>
</g>
<!-- Node3&#45;&gt;Node6 -->
<g id="edge5_Node000003_Node000006" class="edge">
<title>Node3&#45;&gt;Node6</title>
<g id="a_edge5_Node000003_Node000006"><a xlink:title=" ">
<path fill="none" stroke="#63b8ff" d="M269.5,-435.33C299.12,-440.89 340.36,-448.64 373.97,-454.96"/>
<polygon fill="#63b8ff" stroke="#63b8ff" points="373.12,-458.55 383.6,-456.95 374.41,-451.67 373.12,-458.55"/>
</a>
</g>
</g>
<!-- Node7 -->
<g id="Node000007" class="node">
<title>Node7</title>
<g id="a_Node000007"><a xlink:href="a00528.html#gabe4788eb1b8be3ad755eb7daf6bba295" target="_top" xlink:title="This function compares the fault source value with the threshold limits and sets (or) resets the faul...">
<polygon fill="white" stroke="#666666" points="481.12,-438 386.38,-438 386.38,-418 481.12,-418 481.12,-438"/>
<text text-anchor="middle" x="433.75" y="-424.5" font-family="Helvetica,sans-Serif" font-size="10.00">FAULT_CheckMin</text>
</a>
</g>
</g>
<!-- Node3&#45;&gt;Node7 -->
<g id="edge6_Node000003_Node000007" class="edge">
<title>Node3&#45;&gt;Node7</title>
<g id="a_edge6_Node000003_Node000007"><a xlink:title=" ">
<path fill="none" stroke="#63b8ff" d="M269.5,-428C299.53,-428 341.51,-428 375.38,-428"/>
<polygon fill="#63b8ff" stroke="#63b8ff" points="375.06,-431.5 385.06,-428 375.06,-424.5 375.06,-431.5"/>
</a>
</g>
</g>
<!-- Node8 -->
<g id="Node000008" class="node">
<title>Node8</title>
<g id="a_Node000008"><a xlink:href="a00374.html#a525a7d54ffe10a34fc0de37c1d43aa6a" target="_top" xlink:title=" ">
<polygon fill="white" stroke="#666666" points="475.12,-400 392.38,-400 392.38,-380 475.12,-380 475.12,-400"/>
<text text-anchor="middle" x="433.75" y="-386.5" font-family="Helvetica,sans-Serif" font-size="10.00">Fault_GetFlags</text>
</a>
</g>
</g>
<!-- Node3&#45;&gt;Node8 -->
<g id="edge7_Node000003_Node000008" class="edge">
<title>Node3&#45;&gt;Node8</title>
<g id="a_edge7_Node000003_Node000008"><a xlink:title=" ">
<path fill="none" stroke="#63b8ff" d="M269.5,-420.67C301.43,-414.67 346.87,-406.14 381.7,-399.59"/>
<polygon fill="#63b8ff" stroke="#63b8ff" points="381.96,-402.92 391.14,-397.63 380.67,-396.04 381.96,-402.92"/>
</a>
</g>
</g>
<!-- Node9 -->
<g id="Node000009" class="node">
<title>Node9</title>
<g id="a_Node000009"><a xlink:href="a00527.html#gaf27f2f24932cec222273df148f8765cb" target="_top" xlink:title="Handles the fault trip by turning off the power control switching.">
<polygon fill="white" stroke="#666666" points="471.75,-362 395.75,-362 395.75,-342 471.75,-342 471.75,-362"/>
<text text-anchor="middle" x="433.75" y="-348.5" font-family="Helvetica,sans-Serif" font-size="10.00">Fault_Handler</text>
</a>
</g>
</g>
<!-- Node3&#45;&gt;Node9 -->
<g id="edge8_Node000003_Node000009" class="edge">
<title>Node3&#45;&gt;Node9</title>
<g id="a_edge8_Node000003_Node000009"><a xlink:title=" ">
<path fill="none" stroke="#63b8ff" d="M249.13,-417.62C272.32,-405.06 313.44,-383.99 350.75,-371 361.63,-367.21 373.58,-363.96 384.91,-361.26"/>
<polygon fill="#63b8ff" stroke="#63b8ff" points="385.55,-364.48 394.53,-358.85 384.01,-357.65 385.55,-364.48"/>
</a>
</g>
</g>
<!-- Node10 -->
<g id="Node000010" class="node">
<title>Node10</title>
<g id="a_Node000010"><a xlink:href="a00520.html#ga79ec0c0e524a03b3a3d423308b89bb99" target="_top" xlink:title="Disable the PWM output.">
<polygon fill="white" stroke="#666666" points="667.75,-362 552.75,-362 552.75,-342 667.75,-342 667.75,-362"/>
<text text-anchor="middle" x="610.25" y="-348.5" font-family="Helvetica,sans-Serif" font-size="10.00">PwrCtrl_PWM_Disable</text>
</a>
</g>
</g>
<!-- Node9&#45;&gt;Node10 -->
<g id="edge9_Node000009_Node000010" class="edge">
<title>Node9&#45;&gt;Node10</title>
<g id="a_edge9_Node000009_Node000010"><a xlink:title=" ">
<path fill="none" stroke="#63b8ff" d="M472.18,-352C492.33,-352 517.8,-352 541.3,-352"/>
<polygon fill="#63b8ff" stroke="#63b8ff" points="541.29,-355.5 551.29,-352 541.29,-348.5 541.29,-355.5"/>
</a>
</g>
</g>
<!-- Node11 -->
<g id="Node000011" class="node">
<title>Node11</title>
<g id="a_Node000011"><a xlink:href="a00538.html#ga531b59d8823e3ebda2da60f48582bcf3" target="_top" xlink:title="This inline function enables PWM override on PWMH output for specific PWM generator selected by the a...">
<polygon fill="white" stroke="#666666" points="844.25,-400 713.5,-400 713.5,-380 844.25,-380 844.25,-400"/>
<text text-anchor="middle" x="778.88" y="-386.5" font-family="Helvetica,sans-Serif" font-size="10.00">PWM_OverrideHighEnable</text>
</a>
</g>
</g>
<!-- Node10&#45;&gt;Node11 -->
<g id="edge10_Node000010_Node000011" class="edge">
<title>Node10&#45;&gt;Node11</title>
<g id="a_edge10_Node000010_Node000011"><a xlink:title=" ">
<path fill="none" stroke="#63b8ff" d="M657.22,-362.48C677.07,-367.01 700.49,-372.35 721.39,-377.12"/>
<polygon fill="#63b8ff" stroke="#63b8ff" points="720.53,-380.74 731.05,-379.55 722.08,-373.91 720.53,-380.74"/>
</a>
</g>
</g>
<!-- Node12 -->
<g id="Node000012" class="node">
<title>Node12</title>
<g id="a_Node000012"><a xlink:href="a00538.html#ga2548ca8feda75ba6ab784280679da6ae" target="_top" xlink:title="This inline function enables PWM override on PWML output for specific PWM generator selected by the a...">
<polygon fill="white" stroke="#666666" points="843.12,-362 714.62,-362 714.62,-342 843.12,-342 843.12,-362"/>
<text text-anchor="middle" x="778.88" y="-348.5" font-family="Helvetica,sans-Serif" font-size="10.00">PWM_OverrideLowEnable</text>
</a>
</g>
</g>
<!-- Node10&#45;&gt;Node12 -->
<g id="edge11_Node000010_Node000012" class="edge">
<title>Node10&#45;&gt;Node12</title>
<g id="a_edge11_Node000010_Node000012"><a xlink:title=" ">
<path fill="none" stroke="#63b8ff" d="M668.13,-352C679.53,-352 691.67,-352 703.57,-352"/>
<polygon fill="#63b8ff" stroke="#63b8ff" points="703.39,-355.5 713.39,-352 703.39,-348.5 703.39,-355.5"/>
</a>
</g>
</g>
<!-- Node13 -->
<g id="Node000013" class="node">
<title>Node13</title>
<g id="a_Node000013"><a xlink:href="a00538.html#ga83e780358618114f0d424ca7467cf751" target="_top" xlink:title="This inline function requests to update the data registers for specific PWM generator selected by the...">
<polygon fill="white" stroke="#666666" points="854,-324 703.75,-324 703.75,-304 854,-304 854,-324"/>
<text text-anchor="middle" x="778.88" y="-310.5" font-family="Helvetica,sans-Serif" font-size="10.00">PWM_SoftwareUpdateRequest</text>
</a>
</g>
</g>
<!-- Node10&#45;&gt;Node13 -->
<g id="edge12_Node000010_Node000013" class="edge">
<title>Node10&#45;&gt;Node13</title>
<g id="a_edge12_Node000010_Node000013"><a xlink:title=" ">
<path fill="none" stroke="#63b8ff" d="M657.22,-341.52C677.07,-336.99 700.49,-331.65 721.39,-326.88"/>
<polygon fill="#63b8ff" stroke="#63b8ff" points="722.08,-330.09 731.05,-324.45 720.53,-323.26 722.08,-330.09"/>
</a>
</g>
</g>
<!-- Node15 -->
<g id="Node000015" class="node">
<title>Node15</title>
<g id="a_Node000015"><a xlink:href="a00519.html#ga8e52f74dc17c38d13a3980af0968fc2f" target="_top" xlink:title="Updates the Adaptive gain for the power converter control loop.">
<polygon fill="white" stroke="#666666" points="504,-96 363.5,-96 363.5,-76 504,-76 504,-96"/>
<text text-anchor="middle" x="433.75" y="-82.5" font-family="Helvetica,sans-Serif" font-size="10.00">PwrCtrl_AdaptiveGainUpdate</text>
</a>
</g>
</g>
<!-- Node14&#45;&gt;Node15 -->
<g id="edge14_Node000014_Node000015" class="edge">
<title>Node14&#45;&gt;Node15</title>
<g id="a_edge14_Node000014_Node000015"><a xlink:title=" ">
<path fill="none" stroke="#63b8ff" d="M298.76,-170.63C304.42,-168.3 309.85,-165.46 314.75,-162 339.23,-144.72 326.32,-122.35 350.75,-105 352.73,-103.59 354.81,-102.28 356.95,-101.07"/>
<polygon fill="#63b8ff" stroke="#63b8ff" points="358.24,-103.85 365.72,-96.35 355.2,-97.55 358.24,-103.85"/>
</a>
</g>
</g>
<!-- Node17 -->
<g id="Node000017" class="node">
<title>Node17</title>
<g id="a_Node000017"><a xlink:href="a00437.html#ac4c8852561395f2969c08ff062325e03" target="_top" xlink:title=" ">
<polygon fill="white" stroke="#666666" points="505.88,-58 361.62,-58 361.62,-38 505.88,-38 505.88,-58"/>
<text text-anchor="middle" x="433.75" y="-44.5" font-family="Helvetica,sans-Serif" font-size="10.00">SMPS_Controller2P2ZUpdate</text>
</a>
</g>
</g>
<!-- Node16&#45;&gt;Node17 -->
<g id="edge16_Node000016_Node000017" class="edge">
<title>Node16&#45;&gt;Node17</title>
<g id="a_edge16_Node000016_Node000017"><a xlink:title=" ">
<path fill="none" stroke="#63b8ff" d="M298.76,-132.63C304.42,-130.3 309.85,-127.46 314.75,-124 339.23,-106.72 326.32,-84.35 350.75,-67 352.73,-65.59 354.81,-64.28 356.95,-63.07"/>
<polygon fill="#63b8ff" stroke="#63b8ff" points="358.24,-65.85 365.72,-58.35 355.2,-59.55 358.24,-65.85"/>
</a>
</g>
</g>
<!-- Node18 -->
<g id="Node000018" class="node">
<title>Node18</title>
<g id="a_Node000018"><a xlink:href="a00437.html#a4fd6e889896907ceaae34b73435d5627" target="_top" xlink:title=" ">
<polygon fill="white" stroke="#666666" points="516.75,-20 350.75,-20 350.75,0 516.75,0 516.75,-20"/>
<text text-anchor="middle" x="433.75" y="-6.5" font-family="Helvetica,sans-Serif" font-size="10.00">XFT_SMPS_Controller2P2ZUpdate</text>
</a>
</g>
</g>
<!-- Node16&#45;&gt;Node18 -->
<g id="edge17_Node000016_Node000018" class="edge">
<title>Node16&#45;&gt;Node18</title>
<g id="a_edge17_Node000016_Node000018"><a xlink:title=" ">
<path fill="none" stroke="#63b8ff" d="M299.96,-133.45C305.31,-130.94 310.34,-127.83 314.75,-124 348.84,-94.39 316.75,-58.71 350.75,-29 351.99,-27.92 353.28,-26.89 354.61,-25.93"/>
<polygon fill="#63b8ff" stroke="#63b8ff" points="356.17,-28.47 362.94,-20.31 352.56,-22.47 356.17,-28.47"/>
</a>
</g>
</g>
<!-- Node22&#45;&gt;Node13 -->
<g id="edge26_Node000022_Node000013" class="edge">
<title>Node22&#45;&gt;Node13</title>
<g id="a_edge26_Node000022_Node000013"><a xlink:title=" ">
<path fill="none" stroke="#63b8ff" d="M242.07,-229.3C262.36,-246.63 306.45,-281.1 350.75,-295 464.97,-330.84 604.79,-329.06 692.63,-322.84"/>
<polygon fill="#63b8ff" stroke="#63b8ff" points="692.63,-326.28 702.34,-322.04 692.11,-319.3 692.63,-326.28"/>
</a>
</g>
</g>
<!-- Node23 -->
<g id="Node000023" class="node">
<title>Node23</title>
<g id="a_Node000023"><a xlink:href="a00538.html#gaf368256a569a5a9e12f85f84d7d42287" target="_top" xlink:title="This inline function updates PWM Deadtime high register with the requested value for a specific PWM g...">
<polygon fill="white" stroke="#666666" points="495.75,-286 371.75,-286 371.75,-266 495.75,-266 495.75,-286"/>
<text text-anchor="middle" x="433.75" y="-272.5" font-family="Helvetica,sans-Serif" font-size="10.00">PWM_DeadTimeHighSet</text>
</a>
</g>
</g>
<!-- Node22&#45;&gt;Node23 -->
<g id="edge22_Node000022_Node000023" class="edge">
<title>Node22&#45;&gt;Node23</title>
<g id="a_edge22_Node000022_Node000023"><a xlink:title=" ">
<path fill="none" stroke="#63b8ff" d="M260.95,-229.35C285.14,-237.4 319.92,-248.57 350.75,-257 358.31,-259.07 366.3,-261.1 374.21,-263.03"/>
<polygon fill="#63b8ff" stroke="#63b8ff" points="373.36,-266.66 383.9,-265.58 374.98,-259.85 373.36,-266.66"/>
</a>
</g>
</g>
<!-- Node24 -->
<g id="Node000024" class="node">
<title>Node24</title>
<g id="a_Node000024"><a xlink:href="a00538.html#ga124426b28426beb53948e9b57319ab4b" target="_top" xlink:title="This inline function updates PWM Deadtime low register with the requested value for a specific PWM ge...">
<polygon fill="white" stroke="#666666" points="494.62,-248 372.88,-248 372.88,-228 494.62,-228 494.62,-248"/>
<text text-anchor="middle" x="433.75" y="-234.5" font-family="Helvetica,sans-Serif" font-size="10.00">PWM_DeadTimeLowSet</text>
</a>
</g>
</g>
<!-- Node22&#45;&gt;Node24 -->
<g id="edge23_Node000022_Node000024" class="edge">
<title>Node22&#45;&gt;Node24</title>
<g id="a_edge23_Node000022_Node000024"><a xlink:title=" ">
<path fill="none" stroke="#63b8ff" d="M286.57,-224.27C309.89,-226.46 337.23,-229.03 361.91,-231.35"/>
<polygon fill="#63b8ff" stroke="#63b8ff" points="361.39,-234.91 371.68,-232.36 362.05,-227.94 361.39,-234.91"/>
</a>
</g>
</g>
<!-- Node25 -->
<g id="Node000025" class="node">
<title>Node25</title>
<g id="a_Node000025"><a xlink:href="a00538.html#ga37968a783e44cd80643478d2b559dbf4" target="_top" xlink:title="This inline function sets the PWM generator specific duty cycle register.">
<polygon fill="white" stroke="#666666" points="486.75,-210 380.75,-210 380.75,-190 486.75,-190 486.75,-210"/>
<text text-anchor="middle" x="433.75" y="-196.5" font-family="Helvetica,sans-Serif" font-size="10.00">PWM_DutyCycleSet</text>
</a>
</g>
</g>
<!-- Node22&#45;&gt;Node25 -->
<g id="edge24_Node000022_Node000025" class="edge">
<title>Node22&#45;&gt;Node25</title>
<g id="a_edge24_Node000022_Node000025"><a xlink:title=" ">
<path fill="none" stroke="#63b8ff" d="M286.57,-213.73C312.36,-211.31 343.06,-208.43 369.66,-205.93"/>
<polygon fill="#63b8ff" stroke="#63b8ff" points="369.77,-209.34 379.39,-204.92 369.11,-202.37 369.77,-209.34"/>
</a>
</g>
</g>
<!-- Node26 -->
<g id="Node000026" class="node">
<title>Node26</title>
<g id="a_Node000026"><a xlink:href="a00538.html#gada46160823b0892a1af14a17c5ab516e" target="_top" xlink:title="This inline function sets the period value in count for the PWM generator specific Time Base.">
<polygon fill="white" stroke="#666666" points="478.12,-172 389.38,-172 389.38,-152 478.12,-152 478.12,-172"/>
<text text-anchor="middle" x="433.75" y="-158.5" font-family="Helvetica,sans-Serif" font-size="10.00">PWM_PeriodSet</text>
</a>
</g>
</g>
<!-- Node22&#45;&gt;Node26 -->
<g id="edge25_Node000022_Node000026" class="edge">
<title>Node22&#45;&gt;Node26</title>
<g id="a_edge25_Node000022_Node000026"><a xlink:title=" ">
<path fill="none" stroke="#63b8ff" d="M286.39,-208.58C295.98,-206.17 305.75,-203.32 314.75,-200 331.72,-193.73 333.8,-187.32 350.75,-181 359.6,-177.7 369.22,-174.86 378.64,-172.45"/>
<polygon fill="#63b8ff" stroke="#63b8ff" points="379.25,-175.66 388.15,-169.91 377.61,-168.85 379.25,-175.66"/>
</a>
</g>
</g>
<!-- Node27 -->
<g id="Node000027" class="node">
<title>Node27</title>
<g id="a_Node000027"><a xlink:href="a00538.html#gacc5575148a6e8da6577d9be9e20541ce" target="_top" xlink:title="This inline function sets the Trigger C compare value in count for a specific PWM generator selected ...">
<polygon fill="white" stroke="#666666" points="514.12,-134 353.38,-134 353.38,-114 514.12,-114 514.12,-134"/>
<text text-anchor="middle" x="433.75" y="-120.5" font-family="Helvetica,sans-Serif" font-size="10.00">PWM_TriggerCCompareValueSet</text>
</a>
</g>
</g>
<!-- Node22&#45;&gt;Node27 -->
<g id="edge27_Node000022_Node000027" class="edge">
<title>Node22&#45;&gt;Node27</title>
<g id="a_edge27_Node000022_Node000027"><a xlink:title=" ">
<path fill="none" stroke="#63b8ff" d="M286.6,-212.82C296.57,-209.98 306.42,-205.88 314.75,-200 339.23,-182.72 326.32,-160.35 350.75,-143 352.73,-141.59 354.81,-140.28 356.95,-139.07"/>
<polygon fill="#63b8ff" stroke="#63b8ff" points="358.24,-141.85 365.72,-134.35 355.2,-135.55 358.24,-141.85"/>
</a>
</g>
</g>
<!-- Node28&#45;&gt;Node2 -->
<g id="edge31_Node000028_Node000002" class="edge">
<title>Node28&#45;&gt;Node2</title>
<g id="a_edge31_Node000028_Node000002"><a xlink:title=" ">
<path fill="none" stroke="#63b8ff" d="M260.95,-609.35C285.14,-617.4 319.92,-628.57 350.75,-637 358.31,-639.07 366.3,-641.1 374.21,-643.03"/>
<polygon fill="#63b8ff" stroke="#63b8ff" points="373.36,-646.66 383.9,-645.58 374.98,-639.85 373.36,-646.66"/>
</a>
</g>
</g>
<!-- Node29 -->
<g id="Node000029" class="node">
<title>Node29</title>
<g id="a_Node000029"><a xlink:href="a00532.html#gaf4b6f81a05012533b633a78dad7b6a98" target="_top" xlink:title="Returns the conversion value for the channel selected.">
<polygon fill="white" stroke="#666666" points="502.5,-628 365,-628 365,-608 502.5,-608 502.5,-628"/>
<text text-anchor="middle" x="433.75" y="-614.5" font-family="Helvetica,sans-Serif" font-size="10.00">ADC1_ConversionResultGet</text>
</a>
</g>
</g>
<!-- Node28&#45;&gt;Node29 -->
<g id="edge29_Node000028_Node000029" class="edge">
<title>Node28&#45;&gt;Node29</title>
<g id="a_edge29_Node000028_Node000029"><a xlink:title=" ">
<path fill="none" stroke="#63b8ff" d="M308.7,-606.35C323.54,-607.74 339.09,-609.2 353.95,-610.6"/>
<polygon fill="#63b8ff" stroke="#63b8ff" points="353.36,-614.15 363.64,-611.6 354.01,-607.18 353.36,-614.15"/>
</a>
</g>
</g>
<!-- Node30 -->
<g id="Node000030" class="node">
<title>Node30</title>
<g id="a_Node000030"><a xlink:href="a00532.html#ga0a80bc862861bd96a1034b39589adf9f" target="_top" xlink:title="This inline function returns the status of conversion.This function is used to determine if conversio...">
<polygon fill="white" stroke="#666666" points="505.12,-590 362.38,-590 362.38,-570 505.12,-570 505.12,-590"/>
<text text-anchor="middle" x="433.75" y="-576.5" font-family="Helvetica,sans-Serif" font-size="10.00">ADC1_IsConversionComplete</text>
</a>
</g>
</g>
<!-- Node28&#45;&gt;Node30 -->
<g id="edge30_Node000028_Node000030" class="edge">
<title>Node28&#45;&gt;Node30</title>
<g id="a_edge30_Node000028_Node000030"><a xlink:title=" ">
<path fill="none" stroke="#63b8ff" d="M308.7,-591.65C322.69,-590.34 337.3,-588.97 351.39,-587.64"/>
<polygon fill="#63b8ff" stroke="#63b8ff" points="351.4,-591.06 361.03,-586.64 350.75,-584.09 351.4,-591.06"/>
</a>
</g>
</g>
</g>
</svg>

<g id="navigator" transform="translate(0 0)" fill="#404254">
  <rect fill="#f2f5e9" fill-opacity="0.5" stroke="#606060" stroke-width=".5" x="0" y="0" width="60" height="60"/>
  <use id="zoomplus" xlink:href="#zoomPlus" x="17" y="9" onmousedown="handleZoom(evt,'in')"/>
  <use id="zoomminus" xlink:href="#zoomMin" x="42" y="9" onmousedown="handleZoom(evt,'out')"/>
  <use id="reset" xlink:href="#resetDef" x="30" y="36" onmousedown="handleReset()"/>
   <use id="arrowup" xlink:href="#arrowUp" x="0" y="0" onmousedown="handlePan(0,-1)"/>
  <use id="arrowright" xlink:href="#arrowRight" x="0" y="0" onmousedown="handlePan(1,0)"/>
  <use id="arrowdown" xlink:href="#arrowDown" x="0" y="0" onmousedown="handlePan(0,1)"/>
  <use id="arrowleft" xlink:href="#arrowLeft" x="0" y="0" onmousedown="handlePan(-1,0)"/>
</g>
<svg viewBox="0 0 15 15" width="100%" height="30px" preserveAspectRatio="xMaxYMin meet">
 <g id="arrow_out" transform="scale(0.3 0.3)">
  <a xlink:href="a00519_gae32c9e5ed4d1fb98fc13b26601782c10_cgraph_org.svg" target="_base">
   <rect id="button" ry="5" rx="5" y="6" x="6" height="38" width="38"
        fill="#f2f5e9" fill-opacity="0.5" stroke="#606060" stroke-width="1.0"/>
   <path id="arrow"
     d="M 11.500037,31.436501 C 11.940474,20.09759 22.043105,11.32322 32.158766,21.979434 L 37.068811,17.246167 C 37.068811,17.246167 37.088388,32 37.088388,32 L 22.160133,31.978069 C 22.160133,31.978069 26.997745,27.140456 26.997745,27.140456 C 18.528582,18.264221 13.291696,25.230495 11.500037,31.436501 z"
     style="fill:#404040;"/>
  </a>
 </g>
</svg>

<style type='text/css'>
<![CDATA[
[data-mouse-over-selected='false'] { opacity: 0.7; }
[data-mouse-over-selected='true']  { opacity: 1.0; }
]]>
</style>
<script type="application/ecmascript"><![CDATA[
document.addEventListener('DOMContentLoaded', (event) => {
  highlightEdges();
  highlightAdjacentNodes();
});
]]></script>
</svg>
