<?xml version="1.0" encoding="UTF-8" standalone="no"?>
<!DOCTYPE svg PUBLIC "-//W3C//DTD SVG 1.1//EN"
 "http://www.w3.org/Graphics/SVG/1.1/DTD/svg11.dtd">
<!-- Generated by graphviz version 8.1.0 (20230707.0739)
 -->
<!-- Title: PwrCtrl_Execute Pages: 1 -->
<svg width="1161pt" height="646pt"
 viewBox="0.00 0.00 1161.00 646.00" xmlns="http://www.w3.org/2000/svg" xmlns:xlink="http://www.w3.org/1999/xlink">
<g id="graph0" class="graph" transform="scale(1 1) rotate(0) translate(4 642)">
<title>PwrCtrl_Execute</title>
<!-- Node1 -->
<g id="Node000001" class="node">
<title>Node1</title>
<g id="a_Node000001"><a xlink:title="Executes the power control state machine.">
<polygon fill="#999999" stroke="#666666" points="88.75,-140 0,-140 0,-120 88.75,-120 88.75,-140"/>
<text text-anchor="middle" x="44.38" y="-126.5" font-family="Helvetica,sans-Serif" font-size="10.00">PwrCtrl_Execute</text>
</a>
</g>
</g>
<!-- Node2 -->
<g id="Node000002" class="node">
<title>Node2</title>
<g id="a_Node000002"><a xlink:href="a00539.html#ga2408c0b52cd2c2487f43716f261434e6" target="_top" xlink:title="Manages the power control state machine.">
<polygon fill="white" stroke="#666666" points="237.5,-140 124.75,-140 124.75,-120 237.5,-120 237.5,-140"/>
<text text-anchor="middle" x="181.12" y="-126.5" font-family="Helvetica,sans-Serif" font-size="10.00">PwrCtrl_StateMachine</text>
</a>
</g>
</g>
<!-- Node1&#45;&gt;Node2 -->
<g id="edge1_Node000001_Node000002" class="edge">
<title>Node1&#45;&gt;Node2</title>
<g id="a_edge1_Node000001_Node000002"><a xlink:title=" ">
<path fill="none" stroke="#63b8ff" d="M89.12,-130C96.93,-130 105.21,-130 113.48,-130"/>
<polygon fill="#63b8ff" stroke="#63b8ff" points="113.3,-133.5 123.3,-130 113.3,-126.5 113.3,-133.5"/>
</a>
</g>
</g>
<!-- Node3 -->
<g id="Node000003" class="node">
<title>Node3</title>
<g id="a_Node000003"><a xlink:href="a00539.html#ga8307344d190a5459682d315fc7bfe198" target="_top" xlink:title="Executes function for initialze state machine.">
<polygon fill="white" stroke="#666666" points="390.75,-464 296,-464 296,-444 390.75,-444 390.75,-464"/>
<text text-anchor="middle" x="343.38" y="-450.5" font-family="Helvetica,sans-Serif" font-size="10.00">PCS_INIT_handler</text>
</a>
</g>
</g>
<!-- Node2&#45;&gt;Node3 -->
<g id="edge2_Node000002_Node000003" class="edge">
<title>Node2&#45;&gt;Node3</title>
<g id="a_edge2_Node000002_Node000003"><a xlink:title=" ">
<path fill="none" stroke="#63b8ff" d="M187.28,-140.41C210.07,-186.5 302.08,-372.53 332.53,-434.1"/>
<polygon fill="#63b8ff" stroke="#63b8ff" points="329.75,-435.38 337.32,-442.79 336.03,-432.27 329.75,-435.38"/>
</a>
</g>
</g>
<!-- Node29 -->
<g id="Node000029" class="node">
<title>Node29</title>
<g id="a_Node000029"><a xlink:href="a00539.html#gabda6b853bb6547821acd0ec87e0a4842" target="_top" xlink:title="Executes the power control soft start state machine.">
<polygon fill="white" stroke="#666666" points="413.25,-96 273.5,-96 273.5,-76 413.25,-76 413.25,-96"/>
<text text-anchor="middle" x="343.38" y="-82.5" font-family="Helvetica,sans-Serif" font-size="10.00">PCS_SOFT_START_handler</text>
</a>
</g>
</g>
<!-- Node2&#45;&gt;Node29 -->
<g id="edge32_Node000002_Node000029" class="edge">
<title>Node2&#45;&gt;Node29</title>
<g id="a_edge32_Node000002_Node000029"><a xlink:title=" ">
<path fill="none" stroke="#63b8ff" d="M220.1,-119.57C242.17,-113.51 270.21,-105.81 293.87,-99.32"/>
<polygon fill="#63b8ff" stroke="#63b8ff" points="294.68,-102.45 303.39,-96.43 292.82,-95.7 294.68,-102.45"/>
</a>
</g>
</g>
<!-- Node31 -->
<g id="Node000031" class="node">
<title>Node31</title>
<g id="a_Node000031"><a xlink:href="a00539.html#ga42f7c8f65745b2f81bb6dbd381ea8121" target="_top" xlink:title="Executes Standby State machine.">
<polygon fill="white" stroke="#666666" points="405.38,-291 281.38,-291 281.38,-271 405.38,-271 405.38,-291"/>
<text text-anchor="middle" x="343.38" y="-277.5" font-family="Helvetica,sans-Serif" font-size="10.00">PCS_STANDBY_handler</text>
</a>
</g>
</g>
<!-- Node2&#45;&gt;Node31 -->
<g id="edge35_Node000002_Node000031" class="edge">
<title>Node2&#45;&gt;Node31</title>
<g id="a_edge35_Node000002_Node000031"><a xlink:title=" ">
<path fill="none" stroke="#63b8ff" d="M193.14,-140.38C220.13,-165.81 289.8,-231.46 323.53,-263.24"/>
<polygon fill="#63b8ff" stroke="#63b8ff" points="320.6,-265.24 330.28,-269.55 325.41,-260.14 320.6,-265.24"/>
</a>
</g>
</g>
<!-- Node40 -->
<g id="Node000040" class="node">
<title>Node40</title>
<g id="a_Node000040"><a xlink:href="a00539.html#ga8752fbb48416e60141e205f1cbda0f98" target="_top" xlink:title="Executes the Online state.">
<polygon fill="white" stroke="#666666" points="408,-146 278.75,-146 278.75,-114 408,-114 408,-146"/>
<text text-anchor="start" x="286.75" y="-132.5" font-family="Helvetica,sans-Serif" font-size="10.00">PCS_UP_AND_RUNNING</text>
<text text-anchor="middle" x="343.38" y="-120.5" font-family="Helvetica,sans-Serif" font-size="10.00">_handler</text>
</a>
</g>
</g>
<!-- Node2&#45;&gt;Node40 -->
<g id="edge54_Node000002_Node000040" class="edge">
<title>Node2&#45;&gt;Node40</title>
<g id="a_edge54_Node000002_Node000040"><a xlink:title=" ">
<path fill="none" stroke="#63b8ff" d="M237.72,-130C247.35,-130 257.5,-130 267.54,-130"/>
<polygon fill="#63b8ff" stroke="#63b8ff" points="267.35,-133.5 277.35,-130 267.35,-126.5 267.35,-133.5"/>
</a>
</g>
</g>
<!-- Node41 -->
<g id="Node000041" class="node">
<title>Node41</title>
<g id="a_Node000041"><a xlink:href="a00539.html#gaad6ef2378120876a621b349c1380aef7" target="_top" xlink:title="Executes the fault handler state machine.">
<polygon fill="white" stroke="#666666" points="400.5,-58 286.25,-58 286.25,-26 400.5,-26 400.5,-58"/>
<text text-anchor="start" x="294.25" y="-44.5" font-family="Helvetica,sans-Serif" font-size="10.00">PCS_WAIT_IF_FAULT</text>
<text text-anchor="middle" x="343.38" y="-32.5" font-family="Helvetica,sans-Serif" font-size="10.00">_ACTIVE_handler</text>
</a>
</g>
</g>
<!-- Node2&#45;&gt;Node41 -->
<g id="edge56_Node000002_Node000041" class="edge">
<title>Node2&#45;&gt;Node41</title>
<g id="a_edge56_Node000002_Node000041"><a xlink:title=" ">
<path fill="none" stroke="#63b8ff" d="M194.78,-119.71C211.83,-106.22 243.53,-82.45 273.5,-67 276.4,-65.5 279.42,-64.06 282.49,-62.66"/>
<polygon fill="#63b8ff" stroke="#63b8ff" points="283.62,-65.56 291.44,-58.4 280.87,-59.12 283.62,-65.56"/>
</a>
</g>
</g>
<!-- Node4 -->
<g id="Node000004" class="node">
<title>Node4</title>
<g id="a_Node000004"><a xlink:href="a00528.html#ga218632f9814c3bf20c40cea0794ffc7d" target="_top" xlink:title="API function to get the calibration status.">
<polygon fill="white" stroke="#666666" points="580.75,-448 464.25,-448 464.25,-416 580.75,-416 580.75,-448"/>
<text text-anchor="start" x="472.25" y="-434.5" font-family="Helvetica,sans-Serif" font-size="10.00">Dev_CurrentSensor</text>
<text text-anchor="middle" x="522.5" y="-422.5" font-family="Helvetica,sans-Serif" font-size="10.00">_Get_CalibrationStatus</text>
</a>
</g>
</g>
<!-- Node3&#45;&gt;Node4 -->
<g id="edge3_Node000003_Node000004" class="edge">
<title>Node3&#45;&gt;Node4</title>
<g id="a_edge3_Node000003_Node000004"><a xlink:title=" ">
<path fill="none" stroke="#63b8ff" d="M390.91,-448.22C409.94,-445.86 432.34,-443.07 453.16,-440.49"/>
<polygon fill="#63b8ff" stroke="#63b8ff" points="453.39,-443.86 462.88,-439.16 452.52,-436.92 453.39,-443.86"/>
</a>
</g>
</g>
<!-- Node5 -->
<g id="Node000005" class="node">
<title>Node5</title>
<g id="a_Node000005"><a xlink:href="a00528.html#ga9f581abf52dc00ba320faafa189fafb9" target="_top" xlink:title="API function to get the sensor offset.">
<polygon fill="white" stroke="#666666" points="572.12,-398 472.88,-398 472.88,-366 572.12,-366 572.12,-398"/>
<text text-anchor="start" x="480.88" y="-384.5" font-family="Helvetica,sans-Serif" font-size="10.00">Dev_CurrentSensor</text>
<text text-anchor="middle" x="522.5" y="-372.5" font-family="Helvetica,sans-Serif" font-size="10.00">_Get_Offset</text>
</a>
</g>
</g>
<!-- Node3&#45;&gt;Node5 -->
<g id="edge4_Node000003_Node000005" class="edge">
<title>Node3&#45;&gt;Node5</title>
<g id="a_edge4_Node000003_Node000005"><a xlink:title=" ">
<path fill="none" stroke="#63b8ff" d="M366.23,-443.53C387.28,-433.6 420.13,-418.54 449.25,-407 453.6,-405.28 458.13,-403.55 462.69,-401.86"/>
<polygon fill="#63b8ff" stroke="#63b8ff" points="463.5,-404.93 471.7,-398.23 461.11,-398.35 463.5,-404.93"/>
</a>
</g>
</g>
<!-- Node6 -->
<g id="Node000006" class="node">
<title>Node6</title>
<g id="a_Node000006"><a xlink:href="a00528.html#gaaa75855922e60913d443c6203475256f" target="_top" xlink:title="Measures the currents sensor offset.">
<polygon fill="white" stroke="#666666" points="592,-600 453,-600 453,-580 592,-580 592,-600"/>
<text text-anchor="middle" x="522.5" y="-586.5" font-family="Helvetica,sans-Serif" font-size="10.00">Dev_CurrentSensorOffsetCal</text>
</a>
</g>
</g>
<!-- Node3&#45;&gt;Node6 -->
<g id="edge5_Node000003_Node000006" class="edge">
<title>Node3&#45;&gt;Node6</title>
<g id="a_edge5_Node000003_Node000006"><a xlink:title=" ">
<path fill="none" stroke="#63b8ff" d="M350.55,-464.26C364.87,-487.14 402.7,-542.55 449.25,-571 451.9,-572.62 454.68,-574.1 457.55,-575.45"/>
<polygon fill="#63b8ff" stroke="#63b8ff" points="455.99,-579.01 466.57,-579.6 458.66,-572.54 455.99,-579.01"/>
</a>
</g>
</g>
<!-- Node9 -->
<g id="Node000009" class="node">
<title>Node9</title>
<g id="a_Node000009"><a xlink:href="a00545.html#ga8ed0fee0d3aff71d49470aab1728a6ae" target="_top" xlink:title="Clears the fault object flag bits.">
<polygon fill="white" stroke="#666666" points="556.75,-348 488.25,-348 488.25,-328 556.75,-328 556.75,-348"/>
<text text-anchor="middle" x="522.5" y="-334.5" font-family="Helvetica,sans-Serif" font-size="10.00">Fault_Reset</text>
</a>
</g>
</g>
<!-- Node3&#45;&gt;Node9 -->
<g id="edge8_Node000003_Node000009" class="edge">
<title>Node3&#45;&gt;Node9</title>
<g id="a_edge8_Node000003_Node000009"><a xlink:title=" ">
<path fill="none" stroke="#63b8ff" d="M352.43,-443.76C368.59,-423.91 407.07,-380.14 449.25,-357 457.84,-352.29 467.66,-348.7 477.22,-345.99"/>
<polygon fill="#63b8ff" stroke="#63b8ff" points="478.02,-349.14 486.84,-343.28 476.29,-342.36 478.02,-349.14"/>
</a>
</g>
</g>
<!-- Node10 -->
<g id="Node000010" class="node">
<title>Node10</title>
<g id="a_Node000010"><a xlink:href="a00556.html#ga5a3ef0885c3937caeb4107df9fb91e81" target="_top" xlink:title="This inline function will disable all the generators of PWM module.">
<polygon fill="white" stroke="#666666" points="740.75,-313 662.5,-313 662.5,-293 740.75,-293 740.75,-313"/>
<text text-anchor="middle" x="701.62" y="-299.5" font-family="Helvetica,sans-Serif" font-size="10.00">PWM_Disable</text>
</a>
</g>
</g>
<!-- Node3&#45;&gt;Node10 -->
<g id="edge9_Node000003_Node000010" class="edge">
<title>Node3&#45;&gt;Node10</title>
<g id="a_edge9_Node000003_Node000010"><a xlink:title=" ">
<path fill="none" stroke="#63b8ff" d="M361.96,-464.48C406.55,-489.55 525.47,-546.82 595.75,-490 655.13,-441.99 579.34,-377.54 631.75,-322 637.19,-316.23 644.21,-312.16 651.68,-309.3"/>
<polygon fill="#63b8ff" stroke="#63b8ff" points="652.52,-312.39 661.04,-306.09 650.46,-305.7 652.52,-312.39"/>
</a>
</g>
</g>
<!-- Node11 -->
<g id="Node000011" class="node">
<title>Node11</title>
<g id="a_Node000011"><a xlink:href="a00536.html#ga2c39b57545ef7b5c79bac36ab30da7d8" target="_top" xlink:title="Initialize the power control parameters.">
<polygon fill="white" stroke="#666666" points="566.5,-562 478.5,-562 478.5,-542 566.5,-542 566.5,-562"/>
<text text-anchor="middle" x="522.5" y="-548.5" font-family="Helvetica,sans-Serif" font-size="10.00">PwrCtrl_Initialize</text>
</a>
</g>
</g>
<!-- Node3&#45;&gt;Node11 -->
<g id="edge10_Node000003_Node000011" class="edge">
<title>Node3&#45;&gt;Node11</title>
<g id="a_edge10_Node000003_Node000011"><a xlink:title=" ">
<path fill="none" stroke="#63b8ff" d="M356.52,-464.39C375.31,-480.03 413.05,-509.72 449.25,-528 456.72,-531.77 464.91,-535.14 473.01,-538.08"/>
<polygon fill="#63b8ff" stroke="#63b8ff" points="471.56,-541.63 482.16,-541.58 473.84,-535.01 471.56,-541.63"/>
</a>
</g>
</g>
<!-- Node18 -->
<g id="Node000018" class="node">
<title>Node18</title>
<g id="a_Node000018"><a xlink:href="a00538.html#ga79ec0c0e524a03b3a3d423308b89bb99" target="_top" xlink:title="Disable the PWM output.">
<polygon fill="white" stroke="#666666" points="759.12,-184 644.12,-184 644.12,-164 759.12,-164 759.12,-184"/>
<text text-anchor="middle" x="701.62" y="-170.5" font-family="Helvetica,sans-Serif" font-size="10.00">PwrCtrl_PWM_Disable</text>
</a>
</g>
</g>
<!-- Node3&#45;&gt;Node18 -->
<g id="edge31_Node000003_Node000018" class="edge">
<title>Node3&#45;&gt;Node18</title>
<g id="a_edge31_Node000003_Node000018"><a xlink:title=" ">
<path fill="none" stroke="#63b8ff" d="M370.9,-464.38C421.31,-482.17 531.62,-511.61 595.75,-457 672.19,-391.91 582.99,-321.76 631.75,-234 641.7,-216.09 659.15,-200.98 673.99,-190.4"/>
<polygon fill="#63b8ff" stroke="#63b8ff" points="675.5,-192.93 681.81,-184.41 671.57,-187.14 675.5,-192.93"/>
</a>
</g>
</g>
<!-- Node7 -->
<g id="Node000007" class="node">
<title>Node7</title>
<g id="a_Node000007"><a xlink:href="a00550.html#gaf4b6f81a05012533b633a78dad7b6a98" target="_top" xlink:title="Returns the conversion value for the channel selected.">
<polygon fill="white" stroke="#666666" points="770.38,-638 632.88,-638 632.88,-618 770.38,-618 770.38,-638"/>
<text text-anchor="middle" x="701.62" y="-624.5" font-family="Helvetica,sans-Serif" font-size="10.00">ADC1_ConversionResultGet</text>
</a>
</g>
</g>
<!-- Node6&#45;&gt;Node7 -->
<g id="edge6_Node000006_Node000007" class="edge">
<title>Node6&#45;&gt;Node7</title>
<g id="a_edge6_Node000006_Node000007"><a xlink:title=" ">
<path fill="none" stroke="#63b8ff" d="M572.37,-600.48C593.66,-605.05 618.82,-610.45 641.19,-615.25"/>
<polygon fill="#63b8ff" stroke="#63b8ff" points="640.4,-618.87 650.92,-617.55 641.87,-612.03 640.4,-618.87"/>
</a>
</g>
</g>
<!-- Node8 -->
<g id="Node000008" class="node">
<title>Node8</title>
<g id="a_Node000008"><a xlink:href="a00528.html#ga03e8d61bbc0f4b686c400440f80dcf69" target="_top" xlink:title="Measure the sensor offset.">
<polygon fill="white" stroke="#666666" points="755.38,-600 647.88,-600 647.88,-580 755.38,-580 755.38,-600"/>
<text text-anchor="middle" x="701.62" y="-586.5" font-family="Helvetica,sans-Serif" font-size="10.00">Dev_SensorOffsetCal</text>
</a>
</g>
</g>
<!-- Node6&#45;&gt;Node8 -->
<g id="edge7_Node000006_Node000008" class="edge">
<title>Node6&#45;&gt;Node8</title>
<g id="a_edge7_Node000006_Node000008"><a xlink:title=" ">
<path fill="none" stroke="#63b8ff" d="M592.49,-590C607.04,-590 622.33,-590 636.69,-590"/>
<polygon fill="#63b8ff" stroke="#63b8ff" points="636.46,-593.5 646.46,-590 636.46,-586.5 636.46,-593.5"/>
</a>
</g>
</g>
<!-- Node12 -->
<g id="Node000012" class="node">
<title>Node12</title>
<g id="a_Node000012"><a xlink:href="a00556.html#gaf61d06e6e907cd4dfcef3a40792ee82f" target="_top" xlink:title="This inline function will enable all the generators of PWM module.">
<polygon fill="white" stroke="#666666" points="739.62,-351 663.62,-351 663.62,-331 739.62,-331 739.62,-351"/>
<text text-anchor="middle" x="701.62" y="-337.5" font-family="Helvetica,sans-Serif" font-size="10.00">PWM_Enable</text>
</a>
</g>
</g>
<!-- Node11&#45;&gt;Node12 -->
<g id="edge11_Node000011_Node000012" class="edge">
<title>Node11&#45;&gt;Node12</title>
<g id="a_edge11_Node000011_Node000012"><a xlink:title=" ">
<path fill="none" stroke="#63b8ff" d="M566.73,-545.51C577.52,-541.95 588.16,-536.47 595.75,-528 646.71,-471.13 579.34,-415.54 631.75,-360 637.56,-353.85 645.16,-349.62 653.18,-346.74"/>
<polygon fill="#63b8ff" stroke="#63b8ff" points="653.85,-349.9 662.48,-343.76 651.9,-343.18 653.85,-349.9"/>
</a>
</g>
</g>
<!-- Node13 -->
<g id="Node000013" class="node">
<title>Node13</title>
<g id="a_Node000013"><a xlink:href="a00536.html#gae58162e874535adf2003e9ed8a13b656" target="_top" xlink:title="Initializes the control loop.">
<polygon fill="white" stroke="#666666" points="771.5,-562 631.75,-562 631.75,-542 771.5,-542 771.5,-562"/>
<text text-anchor="middle" x="701.62" y="-548.5" font-family="Helvetica,sans-Serif" font-size="10.00">PwrCtrl_ControlLoopInitialize</text>
</a>
</g>
</g>
<!-- Node11&#45;&gt;Node13 -->
<g id="edge12_Node000011_Node000013" class="edge">
<title>Node11&#45;&gt;Node13</title>
<g id="a_edge12_Node000011_Node000013"><a xlink:title=" ">
<path fill="none" stroke="#63b8ff" d="M566.83,-552C583.1,-552 602.15,-552 620.69,-552"/>
<polygon fill="#63b8ff" stroke="#63b8ff" points="620.52,-555.5 630.52,-552 620.52,-548.5 620.52,-555.5"/>
</a>
</g>
</g>
<!-- Node11&#45;&gt;Node18 -->
<g id="edge19_Node000011_Node000018" class="edge">
<title>Node11&#45;&gt;Node18</title>
<g id="a_edge19_Node000011_Node000018"><a xlink:title=" ">
<path fill="none" stroke="#63b8ff" d="M541.97,-541.57C558.94,-530.93 583.29,-512.77 595.75,-490 650.9,-389.2 576.97,-335 631.75,-234 641.52,-215.99 658.97,-200.88 673.86,-190.33"/>
<polygon fill="#63b8ff" stroke="#63b8ff" points="675.37,-192.85 681.71,-184.36 671.46,-187.05 675.37,-192.85"/>
</a>
</g>
</g>
<!-- Node22 -->
<g id="Node000022" class="node">
<title>Node22</title>
<g id="a_Node000022"><a xlink:href="a00538.html#ga73f526371cadb7674354635462e836cc" target="_top" xlink:title="PWM distribution for DAB converter.">
<polygon fill="white" stroke="#666666" points="758.38,-389 644.88,-389 644.88,-369 758.38,-369 758.38,-389"/>
<text text-anchor="middle" x="701.62" y="-375.5" font-family="Helvetica,sans-Serif" font-size="10.00">PwrCtrl_PWM_Update</text>
</a>
</g>
</g>
<!-- Node11&#45;&gt;Node22 -->
<g id="edge23_Node000011_Node000022" class="edge">
<title>Node11&#45;&gt;Node22</title>
<g id="a_edge23_Node000011_Node000022"><a xlink:title=" ">
<path fill="none" stroke="#63b8ff" d="M566.96,-542.51C577.02,-539.02 587.26,-534.31 595.75,-528 642.54,-493.23 676.31,-431.31 691.56,-399.35"/>
<polygon fill="#63b8ff" stroke="#63b8ff" points="695.15,-400.93 696.17,-390.38 688.79,-397.99 695.15,-400.93"/>
</a>
</g>
</g>
<!-- Node28 -->
<g id="Node000028" class="node">
<title>Node28</title>
<g id="a_Node000028"><a xlink:href="a00536.html#ga45940145031d4886842c27f5e5277e9b" target="_top" xlink:title="Initialize the StartUp Ramp configuration.">
<polygon fill="white" stroke="#666666" points="762.12,-524 641.12,-524 641.12,-504 762.12,-504 762.12,-524"/>
<text text-anchor="middle" x="701.62" y="-510.5" font-family="Helvetica,sans-Serif" font-size="10.00">PwrCtrl_StartUpInitialize</text>
</a>
</g>
</g>
<!-- Node11&#45;&gt;Node28 -->
<g id="edge30_Node000011_Node000028" class="edge">
<title>Node11&#45;&gt;Node28</title>
<g id="a_edge30_Node000011_Node000028"><a xlink:title=" ">
<path fill="none" stroke="#63b8ff" d="M566.83,-542.7C589.22,-537.9 616.89,-531.96 641.24,-526.74"/>
<polygon fill="#63b8ff" stroke="#63b8ff" points="641.76,-529.99 650.81,-524.47 640.3,-523.15 641.76,-529.99"/>
</a>
</g>
</g>
<!-- Node14 -->
<g id="Node000014" class="node">
<title>Node14</title>
<g id="a_Node000014"><a xlink:href="a00540.html#ga4d5efa27da3185177a7e9451a59ced82" target="_top" xlink:title="Initialize the Current Loop Control.">
<polygon fill="white" stroke="#666666" points="948.38,-600 827.38,-600 827.38,-580 948.38,-580 948.38,-600"/>
<text text-anchor="middle" x="887.88" y="-586.5" font-family="Helvetica,sans-Serif" font-size="10.00">PwrCtrl_IComp_Initialize</text>
</a>
</g>
</g>
<!-- Node13&#45;&gt;Node14 -->
<g id="edge13_Node000013_Node000014" class="edge">
<title>Node13&#45;&gt;Node14</title>
<g id="a_edge13_Node000013_Node000014"><a xlink:title=" ">
<path fill="none" stroke="#63b8ff" d="M753.46,-562.48C775.81,-567.09 802.26,-572.55 825.68,-577.38"/>
<polygon fill="#63b8ff" stroke="#63b8ff" points="824.71,-580.96 835.21,-579.55 826.12,-574.1 824.71,-580.96"/>
</a>
</g>
</g>
<!-- Node16 -->
<g id="Node000016" class="node">
<title>Node16</title>
<g id="a_Node000016"><a xlink:href="a00540.html#ga5d45f928f4747df3d3fe50876e78efc5" target="_top" xlink:title="Initialize the Power Loop Control.">
<polygon fill="white" stroke="#666666" points="950.62,-562 825.12,-562 825.12,-542 950.62,-542 950.62,-562"/>
<text text-anchor="middle" x="887.88" y="-548.5" font-family="Helvetica,sans-Serif" font-size="10.00">PwrCtrl_PComp_Initialize</text>
</a>
</g>
</g>
<!-- Node13&#45;&gt;Node16 -->
<g id="edge15_Node000013_Node000016" class="edge">
<title>Node13&#45;&gt;Node16</title>
<g id="a_edge15_Node000013_Node000016"><a xlink:title=" ">
<path fill="none" stroke="#63b8ff" d="M771.76,-552C785.45,-552 799.88,-552 813.7,-552"/>
<polygon fill="#63b8ff" stroke="#63b8ff" points="813.64,-555.5 823.64,-552 813.64,-548.5 813.64,-555.5"/>
</a>
</g>
</g>
<!-- Node17 -->
<g id="Node000017" class="node">
<title>Node17</title>
<g id="a_Node000017"><a xlink:href="a00540.html#ga8603aa8f7d4f64fa925228cf9c99de83" target="_top" xlink:title="Initialize the Voltage Loop Control.">
<polygon fill="white" stroke="#666666" points="950.62,-524 825.12,-524 825.12,-504 950.62,-504 950.62,-524"/>
<text text-anchor="middle" x="887.88" y="-510.5" font-family="Helvetica,sans-Serif" font-size="10.00">PwrCtrl_VComp_Initialize</text>
</a>
</g>
</g>
<!-- Node13&#45;&gt;Node17 -->
<g id="edge17_Node000013_Node000017" class="edge">
<title>Node13&#45;&gt;Node17</title>
<g id="a_edge17_Node000013_Node000017"><a xlink:title=" ">
<path fill="none" stroke="#63b8ff" d="M753.46,-541.52C775.81,-536.91 802.26,-531.45 825.68,-526.62"/>
<polygon fill="#63b8ff" stroke="#63b8ff" points="826.12,-529.9 835.21,-524.45 824.71,-523.04 826.12,-529.9"/>
</a>
</g>
</g>
<!-- Node15 -->
<g id="Node000015" class="node">
<title>Node15</title>
<g id="a_Node000015"><a xlink:href="a00452.html#a8d0d916c7a3ca172408fcded86a6baa2" target="_top" xlink:title=" ">
<polygon fill="white" stroke="#666666" points="1153,-562 1004.25,-562 1004.25,-542 1153,-542 1153,-562"/>
<text text-anchor="middle" x="1078.62" y="-548.5" font-family="Helvetica,sans-Serif" font-size="10.00">SMPS_Controller2P2ZInitialize</text>
</a>
</g>
</g>
<!-- Node14&#45;&gt;Node15 -->
<g id="edge14_Node000014_Node000015" class="edge">
<title>Node14&#45;&gt;Node15</title>
<g id="a_edge14_Node000014_Node000015"><a xlink:title=" ">
<path fill="none" stroke="#63b8ff" d="M940.95,-579.52C963.85,-574.91 990.94,-569.45 1014.94,-564.62"/>
<polygon fill="#63b8ff" stroke="#63b8ff" points="1015.61,-567.85 1024.72,-562.45 1014.22,-560.99 1015.61,-567.85"/>
</a>
</g>
</g>
<!-- Node16&#45;&gt;Node15 -->
<g id="edge16_Node000016_Node000015" class="edge">
<title>Node16&#45;&gt;Node15</title>
<g id="a_edge16_Node000016_Node000015"><a xlink:title=" ">
<path fill="none" stroke="#63b8ff" d="M950.94,-552C964.47,-552 979,-552 993.23,-552"/>
<polygon fill="#63b8ff" stroke="#63b8ff" points="993.03,-555.5 1003.03,-552 993.03,-548.5 993.03,-555.5"/>
</a>
</g>
</g>
<!-- Node17&#45;&gt;Node15 -->
<g id="edge18_Node000017_Node000015" class="edge">
<title>Node17&#45;&gt;Node15</title>
<g id="a_edge18_Node000017_Node000015"><a xlink:title=" ">
<path fill="none" stroke="#63b8ff" d="M940.95,-524.48C963.85,-529.09 990.94,-534.55 1014.94,-539.38"/>
<polygon fill="#63b8ff" stroke="#63b8ff" points="1014.22,-543.01 1024.72,-541.55 1015.61,-536.15 1014.22,-543.01"/>
</a>
</g>
</g>
<!-- Node19 -->
<g id="Node000019" class="node">
<title>Node19</title>
<g id="a_Node000019"><a xlink:href="a00556.html#ga531b59d8823e3ebda2da60f48582bcf3" target="_top" xlink:title="This inline function enables PWM override on PWMH output for specific PWM generator selected by the a...">
<polygon fill="white" stroke="#666666" points="953.25,-184 822.5,-184 822.5,-164 953.25,-164 953.25,-184"/>
<text text-anchor="middle" x="887.88" y="-170.5" font-family="Helvetica,sans-Serif" font-size="10.00">PWM_OverrideHighEnable</text>
</a>
</g>
</g>
<!-- Node18&#45;&gt;Node19 -->
<g id="edge20_Node000018_Node000019" class="edge">
<title>Node18&#45;&gt;Node19</title>
<g id="a_edge20_Node000018_Node000019"><a xlink:title=" ">
<path fill="none" stroke="#63b8ff" d="M759.41,-174C775.87,-174 794.11,-174 811.52,-174"/>
<polygon fill="#63b8ff" stroke="#63b8ff" points="811.23,-177.5 821.23,-174 811.23,-170.5 811.23,-177.5"/>
</a>
</g>
</g>
<!-- Node20 -->
<g id="Node000020" class="node">
<title>Node20</title>
<g id="a_Node000020"><a xlink:href="a00556.html#ga2548ca8feda75ba6ab784280679da6ae" target="_top" xlink:title="This inline function enables PWM override on PWML output for specific PWM generator selected by the a...">
<polygon fill="white" stroke="#666666" points="952.12,-146 823.62,-146 823.62,-126 952.12,-126 952.12,-146"/>
<text text-anchor="middle" x="887.88" y="-132.5" font-family="Helvetica,sans-Serif" font-size="10.00">PWM_OverrideLowEnable</text>
</a>
</g>
</g>
<!-- Node18&#45;&gt;Node20 -->
<g id="edge21_Node000018_Node000020" class="edge">
<title>Node18&#45;&gt;Node20</title>
<g id="a_edge21_Node000018_Node000020"><a xlink:title=" ">
<path fill="none" stroke="#63b8ff" d="M753.46,-163.52C775.81,-158.91 802.26,-153.45 825.68,-148.62"/>
<polygon fill="#63b8ff" stroke="#63b8ff" points="826.12,-151.9 835.21,-146.45 824.71,-145.04 826.12,-151.9"/>
</a>
</g>
</g>
<!-- Node21 -->
<g id="Node000021" class="node">
<title>Node21</title>
<g id="a_Node000021"><a xlink:href="a00556.html#ga83e780358618114f0d424ca7467cf751" target="_top" xlink:title="This inline function requests to update the data registers for specific PWM generator selected by the...">
<polygon fill="white" stroke="#666666" points="963,-222 812.75,-222 812.75,-202 963,-202 963,-222"/>
<text text-anchor="middle" x="887.88" y="-208.5" font-family="Helvetica,sans-Serif" font-size="10.00">PWM_SoftwareUpdateRequest</text>
</a>
</g>
</g>
<!-- Node18&#45;&gt;Node21 -->
<g id="edge22_Node000018_Node000021" class="edge">
<title>Node18&#45;&gt;Node21</title>
<g id="a_edge22_Node000018_Node000021"><a xlink:title=" ">
<path fill="none" stroke="#63b8ff" d="M753.46,-184.48C775.81,-189.09 802.26,-194.55 825.68,-199.38"/>
<polygon fill="#63b8ff" stroke="#63b8ff" points="824.71,-202.96 835.21,-201.55 826.12,-196.1 824.71,-202.96"/>
</a>
</g>
</g>
<!-- Node22&#45;&gt;Node21 -->
<g id="edge28_Node000022_Node000021" class="edge">
<title>Node22&#45;&gt;Node21</title>
<g id="a_edge28_Node000022_Node000021"><a xlink:title=" ">
<path fill="none" stroke="#63b8ff" d="M757.84,-368.55C762.76,-366.25 767.42,-363.43 771.5,-360 800.12,-335.96 785.23,-314.02 807.5,-284 823.55,-262.37 846.83,-242.18 864.03,-228.72"/>
<polygon fill="#63b8ff" stroke="#63b8ff" points="865.58,-231.17 871.4,-222.32 861.33,-225.61 865.58,-231.17"/>
</a>
</g>
</g>
<!-- Node23 -->
<g id="Node000023" class="node">
<title>Node23</title>
<g id="a_Node000023"><a xlink:href="a00556.html#gaf368256a569a5a9e12f85f84d7d42287" target="_top" xlink:title="This inline function updates PWM Deadtime high register with the requested value for a specific PWM g...">
<polygon fill="white" stroke="#666666" points="949.88,-389 825.88,-389 825.88,-369 949.88,-369 949.88,-389"/>
<text text-anchor="middle" x="887.88" y="-375.5" font-family="Helvetica,sans-Serif" font-size="10.00">PWM_DeadTimeHighSet</text>
</a>
</g>
</g>
<!-- Node22&#45;&gt;Node23 -->
<g id="edge24_Node000022_Node000023" class="edge">
<title>Node22&#45;&gt;Node23</title>
<g id="a_edge24_Node000022_Node000023"><a xlink:title=" ">
<path fill="none" stroke="#63b8ff" d="M758.66,-379C776.36,-379 796.17,-379 814.83,-379"/>
<polygon fill="#63b8ff" stroke="#63b8ff" points="814.65,-382.5 824.65,-379 814.65,-375.5 814.65,-382.5"/>
</a>
</g>
</g>
<!-- Node24 -->
<g id="Node000024" class="node">
<title>Node24</title>
<g id="a_Node000024"><a xlink:href="a00556.html#ga124426b28426beb53948e9b57319ab4b" target="_top" xlink:title="This inline function updates PWM Deadtime low register with the requested value for a specific PWM ge...">
<polygon fill="white" stroke="#666666" points="948.75,-351 827,-351 827,-331 948.75,-331 948.75,-351"/>
<text text-anchor="middle" x="887.88" y="-337.5" font-family="Helvetica,sans-Serif" font-size="10.00">PWM_DeadTimeLowSet</text>
</a>
</g>
</g>
<!-- Node22&#45;&gt;Node24 -->
<g id="edge25_Node000022_Node000024" class="edge">
<title>Node22&#45;&gt;Node24</title>
<g id="a_edge25_Node000022_Node000024"><a xlink:title=" ">
<path fill="none" stroke="#63b8ff" d="M753.46,-368.52C775.81,-363.91 802.26,-358.45 825.68,-353.62"/>
<polygon fill="#63b8ff" stroke="#63b8ff" points="826.12,-356.9 835.21,-351.45 824.71,-350.04 826.12,-356.9"/>
</a>
</g>
</g>
<!-- Node25 -->
<g id="Node000025" class="node">
<title>Node25</title>
<g id="a_Node000025"><a xlink:href="a00556.html#ga37968a783e44cd80643478d2b559dbf4" target="_top" xlink:title="This inline function sets the PWM generator specific duty cycle register.">
<polygon fill="white" stroke="#666666" points="940.88,-313 834.88,-313 834.88,-293 940.88,-293 940.88,-313"/>
<text text-anchor="middle" x="887.88" y="-299.5" font-family="Helvetica,sans-Serif" font-size="10.00">PWM_DutyCycleSet</text>
</a>
</g>
</g>
<!-- Node22&#45;&gt;Node25 -->
<g id="edge26_Node000022_Node000025" class="edge">
<title>Node22&#45;&gt;Node25</title>
<g id="a_edge26_Node000022_Node000025"><a xlink:title=" ">
<path fill="none" stroke="#63b8ff" d="M752.87,-368.62C759.37,-366.29 765.76,-363.45 771.5,-360 791.44,-348.02 787.35,-333.63 807.5,-322 812.64,-319.03 818.22,-316.53 823.96,-314.41"/>
<polygon fill="#63b8ff" stroke="#63b8ff" points="824.98,-317.44 833.41,-311.01 822.82,-310.78 824.98,-317.44"/>
</a>
</g>
</g>
<!-- Node26 -->
<g id="Node000026" class="node">
<title>Node26</title>
<g id="a_Node000026"><a xlink:href="a00556.html#gada46160823b0892a1af14a17c5ab516e" target="_top" xlink:title="This inline function sets the period value in count for the PWM generator specific Time Base.">
<polygon fill="white" stroke="#666666" points="932.25,-465 843.5,-465 843.5,-445 932.25,-445 932.25,-465"/>
<text text-anchor="middle" x="887.88" y="-451.5" font-family="Helvetica,sans-Serif" font-size="10.00">PWM_PeriodSet</text>
</a>
</g>
</g>
<!-- Node22&#45;&gt;Node26 -->
<g id="edge27_Node000022_Node000026" class="edge">
<title>Node22&#45;&gt;Node26</title>
<g id="a_edge27_Node000022_Node000026"><a xlink:title=" ">
<path fill="none" stroke="#63b8ff" d="M718.69,-389.48C738.74,-402.14 774.42,-423.3 807.5,-436 815.59,-439.1 824.34,-441.81 832.98,-444.13"/>
<polygon fill="#63b8ff" stroke="#63b8ff" points="831.85,-447.71 842.41,-446.77 833.57,-440.92 831.85,-447.71"/>
</a>
</g>
</g>
<!-- Node27 -->
<g id="Node000027" class="node">
<title>Node27</title>
<g id="a_Node000027"><a xlink:href="a00556.html#gacc5575148a6e8da6577d9be9e20541ce" target="_top" xlink:title="This inline function sets the Trigger C compare value in count for a specific PWM generator selected ...">
<polygon fill="white" stroke="#666666" points="968.25,-427 807.5,-427 807.5,-407 968.25,-407 968.25,-427"/>
<text text-anchor="middle" x="887.88" y="-413.5" font-family="Helvetica,sans-Serif" font-size="10.00">PWM_TriggerCCompareValueSet</text>
</a>
</g>
</g>
<!-- Node22&#45;&gt;Node27 -->
<g id="edge29_Node000022_Node000027" class="edge">
<title>Node22&#45;&gt;Node27</title>
<g id="a_edge29_Node000022_Node000027"><a xlink:title=" ">
<path fill="none" stroke="#63b8ff" d="M753.46,-389.48C775.81,-394.09 802.26,-399.55 825.68,-404.38"/>
<polygon fill="#63b8ff" stroke="#63b8ff" points="824.71,-407.96 835.21,-406.55 826.12,-401.1 824.71,-407.96"/>
</a>
</g>
</g>
<!-- Node29&#45;&gt;Node18 -->
<g id="edge33_Node000029_Node000018" class="edge">
<title>Node29&#45;&gt;Node18</title>
<g id="a_edge33_Node000029_Node000018"><a xlink:title=" ">
<path fill="none" stroke="#63b8ff" d="M413.61,-86.84C465.75,-89.78 537.89,-98.86 595.75,-125 614.73,-133.57 613.3,-145.35 631.75,-155 635.2,-156.8 638.83,-158.45 642.55,-159.95"/>
<polygon fill="#63b8ff" stroke="#63b8ff" points="640.97,-163.46 651.56,-163.59 643.36,-156.88 640.97,-163.46"/>
</a>
</g>
</g>
<!-- Node30 -->
<g id="Node000030" class="node">
<title>Node30</title>
<g id="a_Node000030"><a xlink:href="a00542.html#ga59bb2fab32dc783d76f800283b4c7e2b" target="_top" xlink:title="Softly increment / decrement to the set reference target.">
<polygon fill="white" stroke="#666666" points="583.38,-20 461.62,-20 461.62,0 583.38,0 583.38,-20"/>
<text text-anchor="middle" x="522.5" y="-6.5" font-family="Helvetica,sans-Serif" font-size="10.00">PwrCtrl_RampReference</text>
</a>
</g>
</g>
<!-- Node29&#45;&gt;Node30 -->
<g id="edge34_Node000029_Node000030" class="edge">
<title>Node29&#45;&gt;Node30</title>
<g id="a_edge34_Node000029_Node000030"><a xlink:title=" ">
<path fill="none" stroke="#63b8ff" d="M394.62,-75.62C401.12,-73.29 407.51,-70.45 413.25,-67 433.19,-55.02 429.23,-40.86 449.25,-29 452.06,-27.34 455.02,-25.81 458.06,-24.42"/>
<polygon fill="#63b8ff" stroke="#63b8ff" points="459.06,-27.39 467.04,-20.42 456.45,-20.9 459.06,-27.39"/>
</a>
</g>
</g>
<!-- Node31&#45;&gt;Node4 -->
<g id="edge37_Node000031_Node000004" class="edge">
<title>Node31&#45;&gt;Node4</title>
<g id="a_edge37_Node000031_Node000004"><a xlink:title=" ">
<path fill="none" stroke="#63b8ff" d="M350.3,-291.44C364.38,-315.35 402.19,-374.47 449.25,-407 451.01,-408.22 452.84,-409.38 454.71,-410.49"/>
<polygon fill="#63b8ff" stroke="#63b8ff" points="452.95,-414.05 463.43,-415.62 456.22,-407.86 452.95,-414.05"/>
</a>
</g>
</g>
<!-- Node31&#45;&gt;Node5 -->
<g id="edge38_Node000031_Node000005" class="edge">
<title>Node31&#45;&gt;Node5</title>
<g id="a_edge38_Node000031_Node000005"><a xlink:title=" ">
<path fill="none" stroke="#63b8ff" d="M356.19,-291.38C374.84,-307.32 412.75,-337.99 449.25,-357 453.47,-359.2 457.92,-361.27 462.46,-363.21"/>
<polygon fill="#63b8ff" stroke="#63b8ff" points="460.9,-366.75 471.49,-367.24 463.51,-360.26 460.9,-366.75"/>
</a>
</g>
</g>
<!-- Node31&#45;&gt;Node6 -->
<g id="edge39_Node000031_Node000006" class="edge">
<title>Node31&#45;&gt;Node6</title>
<g id="a_edge39_Node000031_Node000006"><a xlink:title=" ">
<path fill="none" stroke="#63b8ff" d="M349.64,-291.22C362.05,-315.58 393.54,-379.22 413.25,-435 434.08,-493.95 405,-526.82 449.25,-571 450.1,-571.85 450.98,-572.66 451.89,-573.44"/>
<polygon fill="#63b8ff" stroke="#63b8ff" points="449.57,-576.77 459.8,-579.52 453.52,-570.99 449.57,-576.77"/>
</a>
</g>
</g>
<!-- Node31&#45;&gt;Node9 -->
<g id="edge40_Node000031_Node000009" class="edge">
<title>Node31&#45;&gt;Node9</title>
<g id="a_edge40_Node000031_Node000009"><a xlink:title=" ">
<path fill="none" stroke="#63b8ff" d="M376.86,-291.45C405.49,-300.67 447.39,-314.15 478.73,-324.24"/>
<polygon fill="#63b8ff" stroke="#63b8ff" points="477.33,-327.78 487.92,-327.52 479.47,-321.12 477.33,-327.78"/>
</a>
</g>
</g>
<!-- Node31&#45;&gt;Node22 -->
<g id="edge51_Node000031_Node000022" class="edge">
<title>Node31&#45;&gt;Node22</title>
<g id="a_edge51_Node000031_Node000022"><a xlink:title=" ">
<path fill="none" stroke="#63b8ff" d="M405.84,-285.45C469.47,-290.9 563.94,-301.62 595.75,-319 617.03,-330.63 611.2,-347.12 631.75,-360 634.23,-361.55 636.83,-362.98 639.52,-364.29"/>
<polygon fill="#63b8ff" stroke="#63b8ff" points="637.96,-367.86 648.53,-368.56 640.71,-361.42 637.96,-367.86"/>
</a>
</g>
</g>
<!-- Node32 -->
<g id="Node000032" class="node">
<title>Node32</title>
<g id="a_Node000032"><a xlink:href="a00528.html#ga494b4a948891fd5757ccc647f9962529" target="_top" xlink:title="API function to clear the sensor offset.">
<polygon fill="white" stroke="#666666" points="572.12,-234 472.88,-234 472.88,-202 572.12,-202 572.12,-234"/>
<text text-anchor="start" x="480.88" y="-220.5" font-family="Helvetica,sans-Serif" font-size="10.00">Dev_CurrentSensor</text>
<text text-anchor="middle" x="522.5" y="-208.5" font-family="Helvetica,sans-Serif" font-size="10.00">_Clr_Offset</text>
</a>
</g>
</g>
<!-- Node31&#45;&gt;Node32 -->
<g id="edge36_Node000031_Node000032" class="edge">
<title>Node31&#45;&gt;Node32</title>
<g id="a_edge36_Node000031_Node000032"><a xlink:title=" ">
<path fill="none" stroke="#63b8ff" d="M372.82,-270.57C393.9,-262.87 423.33,-252.18 449.25,-243 453.81,-241.39 458.53,-239.73 463.28,-238.06"/>
<polygon fill="#63b8ff" stroke="#63b8ff" points="464.37,-241.04 472.66,-234.44 462.07,-234.43 464.37,-241.04"/>
</a>
</g>
</g>
<!-- Node33 -->
<g id="Node000033" class="node">
<title>Node33</title>
<g id="a_Node000033"><a xlink:href="a00538.html#ga09cbca9d9eea8e033ba27cb0f77417c3" target="_top" xlink:title="Forward/Reverse Direction related swap pattern on PWM output.">
<polygon fill="white" stroke="#666666" points="595.75,-184 449.25,-184 449.25,-152 595.75,-152 595.75,-184"/>
<text text-anchor="start" x="457.25" y="-170.5" font-family="Helvetica,sans-Serif" font-size="10.00">PwrCtrl_PWM_DAB_Direction</text>
<text text-anchor="middle" x="522.5" y="-158.5" font-family="Helvetica,sans-Serif" font-size="10.00">SpecificSwapCfg</text>
</a>
</g>
</g>
<!-- Node31&#45;&gt;Node33 -->
<g id="edge41_Node000031_Node000033" class="edge">
<title>Node31&#45;&gt;Node33</title>
<g id="a_edge41_Node000031_Node000033"><a xlink:title=" ">
<path fill="none" stroke="#63b8ff" d="M354.13,-270.62C371.63,-252.56 410.17,-215.15 449.25,-193 451.76,-191.58 454.37,-190.21 457.03,-188.91"/>
<polygon fill="#63b8ff" stroke="#63b8ff" points="458.22,-191.77 465.89,-184.47 455.34,-185.39 458.22,-191.77"/>
</a>
</g>
</g>
<!-- Node35 -->
<g id="Node000035" class="node">
<title>Node35</title>
<g id="a_Node000035"><a xlink:href="a00538.html#gae20d34fb8fc7fbaa57f6c68b2907807f" target="_top" xlink:title="Enable the PWM output.">
<polygon fill="white" stroke="#666666" points="578.88,-58 466.12,-58 466.12,-38 578.88,-38 578.88,-58"/>
<text text-anchor="middle" x="522.5" y="-44.5" font-family="Helvetica,sans-Serif" font-size="10.00">PwrCtrl_PWM_Enable</text>
</a>
</g>
</g>
<!-- Node31&#45;&gt;Node35 -->
<g id="edge47_Node000031_Node000035" class="edge">
<title>Node31&#45;&gt;Node35</title>
<g id="a_edge47_Node000031_Node000035"><a xlink:title=" ">
<path fill="none" stroke="#63b8ff" d="M352.27,-270.61C369.74,-247.62 413.01,-190.67 449.25,-143 469.31,-116.61 492.51,-86.11 507.1,-66.93"/>
<polygon fill="#63b8ff" stroke="#63b8ff" points="510.43,-69.34 513.69,-59.26 504.85,-65.1 510.43,-69.34"/>
</a>
</g>
</g>
<!-- Node38 -->
<g id="Node000038" class="node">
<title>Node38</title>
<g id="a_Node000038"><a xlink:href="a00536.html#ga8c07187b0c96b5916e4b46daa47500c5" target="_top" xlink:title="Resets the power control properties.">
<polygon fill="white" stroke="#666666" points="561.62,-272 483.38,-272 483.38,-252 561.62,-252 561.62,-272"/>
<text text-anchor="middle" x="522.5" y="-258.5" font-family="Helvetica,sans-Serif" font-size="10.00">PwrCtrl_Reset</text>
</a>
</g>
</g>
<!-- Node31&#45;&gt;Node38 -->
<g id="edge52_Node000031_Node000038" class="edge">
<title>Node31&#45;&gt;Node38</title>
<g id="a_edge52_Node000031_Node000038"><a xlink:title=" ">
<path fill="none" stroke="#63b8ff" d="M405.83,-274.41C427.59,-272.07 451.78,-269.48 472.38,-267.27"/>
<polygon fill="#63b8ff" stroke="#63b8ff" points="472.54,-270.66 482.11,-266.12 471.8,-263.7 472.54,-270.66"/>
</a>
</g>
</g>
<!-- Node33&#45;&gt;Node10 -->
<g id="edge42_Node000033_Node000010" class="edge">
<title>Node33&#45;&gt;Node10</title>
<g id="a_edge42_Node000033_Node000010"><a xlink:title=" ">
<path fill="none" stroke="#63b8ff" d="M584.22,-184.33C588.39,-186.83 592.3,-189.7 595.75,-193 627.17,-223.08 599.39,-254.94 631.75,-284 637.46,-289.13 644.43,-292.88 651.72,-295.64"/>
<polygon fill="#63b8ff" stroke="#63b8ff" points="650.55,-299.25 661.14,-298.89 652.64,-292.57 650.55,-299.25"/>
</a>
</g>
</g>
<!-- Node33&#45;&gt;Node12 -->
<g id="edge43_Node000033_Node000012" class="edge">
<title>Node33&#45;&gt;Node12</title>
<g id="a_edge43_Node000033_Node000012"><a xlink:title=" ">
<path fill="none" stroke="#63b8ff" d="M585.29,-184.38C589.11,-186.86 592.66,-189.71 595.75,-193 636.54,-236.35 589.6,-279.97 631.75,-322 637.61,-327.85 645.1,-331.94 652.97,-334.79"/>
<polygon fill="#63b8ff" stroke="#63b8ff" points="651.84,-338.4 662.42,-337.86 653.82,-331.68 651.84,-338.4"/>
</a>
</g>
</g>
<!-- Node33&#45;&gt;Node18 -->
<g id="edge46_Node000033_Node000018" class="edge">
<title>Node33&#45;&gt;Node18</title>
<g id="a_edge46_Node000033_Node000018"><a xlink:title=" ">
<path fill="none" stroke="#63b8ff" d="M596.05,-170.46C608.2,-170.87 620.75,-171.29 632.77,-171.7"/>
<polygon fill="#63b8ff" stroke="#63b8ff" points="632.52,-175.23 642.63,-172.07 632.76,-168.23 632.52,-175.23"/>
</a>
</g>
</g>
<!-- Node33&#45;&gt;Node21 -->
<g id="edge44_Node000033_Node000021" class="edge">
<title>Node33&#45;&gt;Node21</title>
<g id="a_edge44_Node000033_Node000021"><a xlink:title=" ">
<path fill="none" stroke="#63b8ff" d="M587.58,-184.5C602.03,-187.74 617.35,-190.81 631.75,-193 688,-201.54 751.84,-206.29 801.59,-208.91"/>
<polygon fill="#63b8ff" stroke="#63b8ff" points="801.14,-212.44 811.3,-209.45 801.49,-205.45 801.14,-212.44"/>
</a>
</g>
</g>
<!-- Node34 -->
<g id="Node000034" class="node">
<title>Node34</title>
<g id="a_Node000034"><a xlink:href="a00533.html#gaab156f2b7ad138cf32e734bbf7145ef4" target="_top" xlink:title="Enable/Disable the PWM instance output swap bit.">
<polygon fill="white" stroke="#666666" points="767.38,-146 635.88,-146 635.88,-114 767.38,-114 767.38,-146"/>
<text text-anchor="start" x="643.88" y="-132.5" font-family="Helvetica,sans-Serif" font-size="10.00">PWM_Swap_PWMxL_and</text>
<text text-anchor="middle" x="701.62" y="-120.5" font-family="Helvetica,sans-Serif" font-size="10.00">_PWMxH</text>
</a>
</g>
</g>
<!-- Node33&#45;&gt;Node34 -->
<g id="edge45_Node000033_Node000034" class="edge">
<title>Node33&#45;&gt;Node34</title>
<g id="a_edge45_Node000033_Node000034"><a xlink:title=" ">
<path fill="none" stroke="#63b8ff" d="M596.05,-152.43C605.56,-150.39 615.33,-148.3 624.89,-146.25"/>
<polygon fill="#63b8ff" stroke="#63b8ff" points="625.53,-149.48 634.57,-143.96 624.06,-142.63 625.53,-149.48"/>
</a>
</g>
</g>
<!-- Node35&#45;&gt;Node21 -->
<g id="edge50_Node000035_Node000021" class="edge">
<title>Node35&#45;&gt;Node21</title>
<g id="a_edge50_Node000035_Node000021"><a xlink:title=" ">
<path fill="none" stroke="#63b8ff" d="M579.32,-58.02C647.86,-70.76 756.87,-92.58 771.5,-105 803.71,-132.36 775.42,-165.5 807.5,-193 808.74,-194.07 810.04,-195.08 811.37,-196.03"/>
<polygon fill="#63b8ff" stroke="#63b8ff" points="809.34,-199.49 819.73,-201.57 812.91,-193.46 809.34,-199.49"/>
</a>
</g>
</g>
<!-- Node36 -->
<g id="Node000036" class="node">
<title>Node36</title>
<g id="a_Node000036"><a xlink:href="a00556.html#ga957b002605bfb2239a26f174808b2ad8" target="_top" xlink:title="This inline function disables PWM override on PWMH output for specific PWM generator selected by the ...">
<polygon fill="white" stroke="#666666" points="768.12,-58 635.12,-58 635.12,-38 768.12,-38 768.12,-58"/>
<text text-anchor="middle" x="701.62" y="-44.5" font-family="Helvetica,sans-Serif" font-size="10.00">PWM_OverrideHighDisable</text>
</a>
</g>
</g>
<!-- Node35&#45;&gt;Node36 -->
<g id="edge48_Node000035_Node000036" class="edge">
<title>Node35&#45;&gt;Node36</title>
<g id="a_edge48_Node000035_Node000036"><a xlink:title=" ">
<path fill="none" stroke="#63b8ff" d="M579.06,-48C593.26,-48 608.79,-48 623.85,-48"/>
<polygon fill="#63b8ff" stroke="#63b8ff" points="623.72,-51.5 633.72,-48 623.72,-44.5 623.72,-51.5"/>
</a>
</g>
</g>
<!-- Node37 -->
<g id="Node000037" class="node">
<title>Node37</title>
<g id="a_Node000037"><a xlink:href="a00556.html#gabbedef830c43428e96c7d5125662a8a6" target="_top" xlink:title="This inline function disables PWM override on PWML output for specific PWM generator selected by the ...">
<polygon fill="white" stroke="#666666" points="767,-20 636.25,-20 636.25,0 767,0 767,-20"/>
<text text-anchor="middle" x="701.62" y="-6.5" font-family="Helvetica,sans-Serif" font-size="10.00">PWM_OverrideLowDisable</text>
</a>
</g>
</g>
<!-- Node35&#45;&gt;Node37 -->
<g id="edge49_Node000035_Node000037" class="edge">
<title>Node35&#45;&gt;Node37</title>
<g id="a_edge49_Node000035_Node000037"><a xlink:title=" ">
<path fill="none" stroke="#63b8ff" d="M572.37,-37.52C593.66,-32.95 618.82,-27.55 641.19,-22.75"/>
<polygon fill="#63b8ff" stroke="#63b8ff" points="641.87,-25.97 650.92,-20.45 640.4,-19.13 641.87,-25.97"/>
</a>
</g>
</g>
<!-- Node39 -->
<g id="Node000039" class="node">
<title>Node39</title>
<g id="a_Node000039"><a xlink:href="a00540.html#gae5d978249e235e284da922df5ec4363a" target="_top" xlink:title="Clear the control and error histories of the control loops.">
<polygon fill="white" stroke="#666666" points="766.62,-275 636.62,-275 636.62,-243 766.62,-243 766.62,-275"/>
<text text-anchor="start" x="644.62" y="-261.5" font-family="Helvetica,sans-Serif" font-size="10.00">PwrCtrl_ResetControlLoop</text>
<text text-anchor="middle" x="701.62" y="-249.5" font-family="Helvetica,sans-Serif" font-size="10.00">Histories</text>
</a>
</g>
</g>
<!-- Node38&#45;&gt;Node39 -->
<g id="edge53_Node000038_Node000039" class="edge">
<title>Node38&#45;&gt;Node39</title>
<g id="a_edge53_Node000038_Node000039"><a xlink:title=" ">
<path fill="none" stroke="#63b8ff" d="M561.93,-261.35C580.47,-261.04 603.38,-260.65 625.2,-260.28"/>
<polygon fill="#63b8ff" stroke="#63b8ff" points="625.21,-263.76 635.14,-260.09 625.09,-256.76 625.21,-263.76"/>
</a>
</g>
</g>
<!-- Node40&#45;&gt;Node18 -->
<g id="edge55_Node000040_Node000018" class="edge">
<title>Node40&#45;&gt;Node18</title>
<g id="a_edge55_Node000040_Node000018"><a xlink:title=" ">
<path fill="none" stroke="#63b8ff" d="M408.48,-128.58C459.61,-128.58 532.84,-131.12 595.75,-143 612.32,-146.13 615.62,-150.09 631.75,-155 637.83,-156.85 644.24,-158.72 650.6,-160.53"/>
<polygon fill="#63b8ff" stroke="#63b8ff" points="649.61,-164.17 660.19,-163.5 651.5,-157.43 649.61,-164.17"/>
</a>
</g>
</g>
</g>
</svg>
