<?xml version="1.0" encoding="UTF-8" standalone="no"?>
<!DOCTYPE svg PUBLIC "-//W3C//DTD SVG 1.1//EN"
 "http://www.w3.org/Graphics/SVG/1.1/DTD/svg11.dtd">
<!-- Generated by graphviz version 8.1.0 (20230707.0739)
 -->
<!-- Title: PBV_CAN_Transmit_to_GUI Pages: 1 -->
<svg width="625pt" height="217pt"
 viewBox="0.00 0.00 624.75 216.62" xmlns="http://www.w3.org/2000/svg" xmlns:xlink="http://www.w3.org/1999/xlink">
<g id="graph0" class="graph" transform="scale(1 1) rotate(0) translate(4 212.62)">
<title>PBV_CAN_Transmit_to_GUI</title>
<!-- Node1 -->
<g id="Node000001" class="node">
<title>Node1</title>
<g id="a_Node000001"><a xlink:title="Transmits the numerical msg to PBV.">
<polygon fill="#999999" stroke="#666666" points="139.75,-127 0,-127 0,-107 139.75,-107 139.75,-127"/>
<text text-anchor="middle" x="69.88" y="-113.5" font-family="Helvetica,sans-Serif" font-size="10.00">PBV_CAN_Transmit_to_GUI</text>
</a>
</g>
</g>
<!-- Node2 -->
<g id="Node000002" class="node">
<title>Node2</title>
<g id="a_Node000002"><a xlink:href="a00557.html#gad99c960d1ed589ce80aca873a90e068e" target="_top" xlink:title="Writes the CAN message object to specified transmit FIFO channel.">
<polygon fill="white" stroke="#666666" points="260,-127 175.75,-127 175.75,-107 260,-107 260,-127"/>
<text text-anchor="middle" x="217.88" y="-113.5" font-family="Helvetica,sans-Serif" font-size="10.00">CAN1_Transmit</text>
</a>
</g>
</g>
<!-- Node1&#45;&gt;Node2 -->
<g id="edge1_Node000001_Node000002" class="edge">
<title>Node1&#45;&gt;Node2</title>
<g id="a_edge1_Node000001_Node000002"><a xlink:title=" ">
<path fill="none" stroke="#63b8ff" d="M140.03,-117C148.24,-117 156.52,-117 164.45,-117"/>
<polygon fill="#63b8ff" stroke="#63b8ff" points="164.38,-120.5 174.38,-117 164.38,-113.5 164.38,-120.5"/>
</a>
</g>
</g>
<!-- Node3 -->
<g id="Node000003" class="node">
<title>Node3</title>
<g id="a_Node000003"><a xlink:href="a00557.html#ga61d156b0e75424f9b630cef5c424ac13" target="_top" xlink:title="This function get the DLC enum based decimal value.">
<polygon fill="white" stroke="#666666" points="616.75,-184 483.75,-184 483.75,-164 616.75,-164 616.75,-184"/>
<text text-anchor="middle" x="550.25" y="-170.5" font-family="Helvetica,sans-Serif" font-size="10.00">CAN1_DlcToDataBytesGet</text>
</a>
</g>
</g>
<!-- Node2&#45;&gt;Node3 -->
<g id="edge2_Node000002_Node000003" class="edge">
<title>Node2&#45;&gt;Node3</title>
<g id="a_edge2_Node000002_Node000003"><a xlink:title=" ">
<path fill="none" stroke="#63b8ff" d="M225.39,-127.4C237.03,-144.89 263.3,-179.6 296,-193 366.84,-222.04 458.1,-202.94 509.48,-187.65"/>
<polygon fill="#63b8ff" stroke="#63b8ff" points="510.3,-190.75 518.82,-184.46 508.23,-184.06 510.3,-190.75"/>
</a>
</g>
</g>
<!-- Node4 -->
<g id="Node000004" class="node">
<title>Node4</title>
<g id="a_Node000004"><a xlink:href="a00557.html#ga57b30800d7bd3b3c936f578ca1fd7e32" target="_top" xlink:title="This function get the FIFO user address, message depth and payload size information.">
<polygon fill="white" stroke="#666666" points="424.12,-184 319.62,-184 319.62,-164 424.12,-164 424.12,-184"/>
<text text-anchor="middle" x="371.88" y="-170.5" font-family="Helvetica,sans-Serif" font-size="10.00">CAN1_FIFO_InfoGet</text>
</a>
</g>
</g>
<!-- Node2&#45;&gt;Node4 -->
<g id="edge3_Node000002_Node000004" class="edge">
<title>Node2&#45;&gt;Node4</title>
<g id="a_edge3_Node000002_Node000004"><a xlink:title=" ">
<path fill="none" stroke="#63b8ff" d="M237.1,-127.33C252.43,-135.7 275.13,-147.31 296,-155 301.43,-157 307.15,-158.87 312.92,-160.59"/>
<polygon fill="#63b8ff" stroke="#63b8ff" points="311.71,-164.16 322.28,-163.52 313.62,-157.43 311.71,-164.16"/>
</a>
</g>
</g>
<!-- Node5 -->
<g id="Node000005" class="node">
<title>Node5</title>
<g id="a_Node000005"><a xlink:href="a00557.html#ga0980f888cad241edaa859783bb4a89d7" target="_top" xlink:title="This function Read the message object from user input and update to the CAN1 TX FIFO.">
<polygon fill="white" stroke="#666666" points="439.88,-146 303.88,-146 303.88,-126 439.88,-126 439.88,-146"/>
<text text-anchor="middle" x="371.88" y="-132.5" font-family="Helvetica,sans-Serif" font-size="10.00">CAN1_MessageWriteToFifo</text>
</a>
</g>
</g>
<!-- Node2&#45;&gt;Node5 -->
<g id="edge4_Node000002_Node000005" class="edge">
<title>Node2&#45;&gt;Node5</title>
<g id="a_edge4_Node000002_Node000005"><a xlink:title=" ">
<path fill="none" stroke="#63b8ff" d="M260.41,-122.19C270.53,-123.46 281.69,-124.85 292.91,-126.25"/>
<polygon fill="#63b8ff" stroke="#63b8ff" points="292.3,-129.83 302.65,-127.6 293.16,-122.88 292.3,-129.83"/>
</a>
</g>
</g>
<!-- Node6 -->
<g id="Node000006" class="node">
<title>Node6</title>
<g id="a_Node000006"><a xlink:href="a00557.html#gaedd6e334545a38cd71fe86ff4f9e78c3" target="_top" xlink:title="Get the CAN1 operation mode.">
<polygon fill="white" stroke="#666666" points="436.12,-108 307.62,-108 307.62,-88 436.12,-88 436.12,-108"/>
<text text-anchor="middle" x="371.88" y="-94.5" font-family="Helvetica,sans-Serif" font-size="10.00">CAN1_OperationModeGet</text>
</a>
</g>
</g>
<!-- Node2&#45;&gt;Node6 -->
<g id="edge6_Node000002_Node000006" class="edge">
<title>Node2&#45;&gt;Node6</title>
<g id="a_edge6_Node000002_Node000006"><a xlink:title=" ">
<path fill="none" stroke="#63b8ff" d="M260.41,-111.81C271.56,-110.41 283.96,-108.86 296.32,-107.32"/>
<polygon fill="#63b8ff" stroke="#63b8ff" points="296.64,-110.68 306.13,-105.97 295.77,-103.74 296.64,-110.68"/>
</a>
</g>
</g>
<!-- Node7 -->
<g id="Node000007" class="node">
<title>Node7</title>
<g id="a_Node000007"><a xlink:href="a00557.html#ga1d293f033f5d27b360cf00d4644c63eb" target="_top" xlink:title="Returns the CAN1 transmitter FIFO status.">
<polygon fill="white" stroke="#666666" points="447,-70 296.75,-70 296.75,-50 447,-50 447,-70"/>
<text text-anchor="middle" x="371.88" y="-56.5" font-family="Helvetica,sans-Serif" font-size="10.00">CAN1_TransmitFIFOStatusGet</text>
</a>
</g>
</g>
<!-- Node2&#45;&gt;Node7 -->
<g id="edge7_Node000002_Node000007" class="edge">
<title>Node2&#45;&gt;Node7</title>
<g id="a_edge7_Node000002_Node000007"><a xlink:title=" ">
<path fill="none" stroke="#63b8ff" d="M237.1,-106.67C252.43,-98.3 275.13,-86.69 296,-79 301.43,-77 307.15,-75.13 312.92,-73.41"/>
<polygon fill="#63b8ff" stroke="#63b8ff" points="313.62,-76.57 322.28,-70.48 311.71,-69.84 313.62,-76.57"/>
</a>
</g>
</g>
<!-- Node8 -->
<g id="Node000008" class="node">
<title>Node8</title>
<g id="a_Node000008"><a xlink:href="a00557.html#gaedb86f6e4e8ac0efba711d7f3d7b688c" target="_top" xlink:title="This function enables The FIFO transmit message send request bit.">
<polygon fill="white" stroke="#666666" points="447.75,-32 296,-32 296,0 447.75,0 447.75,-32"/>
<text text-anchor="start" x="304" y="-18.5" font-family="Helvetica,sans-Serif" font-size="10.00">CAN1_TX_FIFO_MessageSend</text>
<text text-anchor="middle" x="371.88" y="-6.5" font-family="Helvetica,sans-Serif" font-size="10.00">Request</text>
</a>
</g>
</g>
<!-- Node2&#45;&gt;Node8 -->
<g id="edge8_Node000002_Node000008" class="edge">
<title>Node2&#45;&gt;Node8</title>
<g id="a_edge8_Node000002_Node000008"><a xlink:title=" ">
<path fill="none" stroke="#63b8ff" d="M226.75,-106.64C239.57,-90.43 266.51,-59.08 296,-41 298.3,-39.59 300.69,-38.25 303.14,-36.97"/>
<polygon fill="#63b8ff" stroke="#63b8ff" points="304.3,-39.82 311.84,-32.38 301.31,-33.5 304.3,-39.82"/>
</a>
</g>
</g>
<!-- Node5&#45;&gt;Node3 -->
<g id="edge5_Node000005_Node000003" class="edge">
<title>Node5&#45;&gt;Node3</title>
<g id="a_edge5_Node000005_Node000003"><a xlink:title=" ">
<path fill="none" stroke="#63b8ff" d="M421.54,-146.48C442.74,-151.05 467.79,-156.45 490.07,-161.25"/>
<polygon fill="#63b8ff" stroke="#63b8ff" points="489.23,-164.87 499.75,-163.55 490.71,-158.02 489.23,-164.87"/>
</a>
</g>
</g>
</g>
</svg>
