<?xml version="1.0" encoding="UTF-8" standalone="no"?>
<!DOCTYPE svg PUBLIC "-//W3C//DTD SVG 1.1//EN"
 "http://www.w3.org/Graphics/SVG/1.1/DTD/svg11.dtd">
<!-- Generated by graphviz version 8.1.0 (20230707.0739)
 -->
<!-- Title: Tasks_10ms Pages: 1 -->
<svg width="690pt" height="370pt"
 viewBox="0.00 0.00 689.50 370.00" xmlns="http://www.w3.org/2000/svg" xmlns:xlink="http://www.w3.org/1999/xlink">
<g id="graph0" class="graph" transform="scale(1 1) rotate(0) translate(4 366)">
<title>Tasks_10ms</title>
<!-- Node1 -->
<g id="Node000001" class="node">
<title>Node1</title>
<g id="a_Node000001"><a xlink:title="Tasks_10ms gets called every 10ms, put your things in it that need to be called regularly.">
<polygon fill="#999999" stroke="#666666" points="71.5,-191 0,-191 0,-171 71.5,-171 71.5,-191"/>
<text text-anchor="middle" x="35.75" y="-177.5" font-family="Helvetica,sans-Serif" font-size="10.00">Tasks_10ms</text>
</a>
</g>
</g>
<!-- Node2 -->
<g id="Node000002" class="node">
<title>Node2</title>
<g id="a_Node000002"><a xlink:href="a00495.html#ga4de477d51ea04cdcfcb1e3eb3ef0053a" target="_top" xlink:title="this is high frequency task to simulate sending of high frequency numeric data. Also to check if ther...">
<polygon fill="white" stroke="#666666" points="247.25,-191 107.5,-191 107.5,-171 247.25,-171 247.25,-191"/>
<text text-anchor="middle" x="177.38" y="-177.5" font-family="Helvetica,sans-Serif" font-size="10.00">App_PBV_DAB_Task_10ms</text>
</a>
</g>
</g>
<!-- Node1&#45;&gt;Node2 -->
<g id="edge1_Node000001_Node000002" class="edge">
<title>Node1&#45;&gt;Node2</title>
<g id="a_edge1_Node000001_Node000002"><a xlink:title=" ">
<path fill="none" stroke="#63b8ff" d="M71.98,-181C79.54,-181 87.82,-181 96.3,-181"/>
<polygon fill="#63b8ff" stroke="#63b8ff" points="96.12,-184.5 106.12,-181 96.12,-177.5 96.12,-184.5"/>
</a>
</g>
</g>
<!-- Node3 -->
<g id="Node000003" class="node">
<title>Node3</title>
<g id="a_Node000003"><a xlink:href="a00495.html#gae7f76d2864d9f99538052487fb4c9570" target="_top" xlink:title="default callback">
<polygon fill="white" stroke="#666666" points="342.75,-191 283.25,-191 283.25,-171 342.75,-171 342.75,-191"/>
<text text-anchor="middle" x="313" y="-177.5" font-family="Helvetica,sans-Serif" font-size="10.00">protocolID</text>
</a>
</g>
</g>
<!-- Node2&#45;&gt;Node3 -->
<g id="edge2_Node000002_Node000003" class="edge">
<title>Node2&#45;&gt;Node3</title>
<g id="a_edge2_Node000002_Node000003"><a xlink:title=" ">
<path fill="none" stroke="#63b8ff" d="M247.54,-181C255.92,-181 264.26,-181 272.02,-181"/>
<polygon fill="#63b8ff" stroke="#63b8ff" points="271.91,-184.5 281.91,-181 271.91,-177.5 271.91,-184.5"/>
</a>
</g>
</g>
<!-- Node4 -->
<g id="Node000004" class="node">
<title>Node4</title>
<g id="a_Node000004"><a xlink:href="a00495.html#gaf2b5ec7aa4bf88b00eaa69cfeba83160" target="_top" xlink:title="process received data">
<polygon fill="white" stroke="#666666" points="504.25,-197 378.75,-197 378.75,-165 504.25,-165 504.25,-197"/>
<text text-anchor="start" x="386.75" y="-183.5" font-family="Helvetica,sans-Serif" font-size="10.00">App_PBV_DAB_Process</text>
<text text-anchor="middle" x="441.5" y="-171.5" font-family="Helvetica,sans-Serif" font-size="10.00">_Rx_Data</text>
</a>
</g>
</g>
<!-- Node3&#45;&gt;Node4 -->
<g id="edge3_Node000003_Node000004" class="edge">
<title>Node3&#45;&gt;Node4</title>
<g id="a_edge3_Node000003_Node000004"><a xlink:title=" ">
<path fill="none" stroke="#63b8ff" d="M343.02,-181C350.46,-181 358.8,-181 367.39,-181"/>
<polygon fill="#63b8ff" stroke="#63b8ff" points="367.35,-184.5 377.35,-181 367.35,-177.5 367.35,-184.5"/>
</a>
</g>
</g>
<!-- Node5 -->
<g id="Node000005" class="node">
<title>Node5</title>
<g id="a_Node000005"><a xlink:href="a00499.html#ga5cfd61659ae6b17ad25e51bfc211723b" target="_top" xlink:title="Sets the fan speed.">
<polygon fill="white" stroke="#666666" points="664.25,-362 557.5,-362 557.5,-342 664.25,-342 664.25,-362"/>
<text text-anchor="middle" x="610.88" y="-348.5" font-family="Helvetica,sans-Serif" font-size="10.00">Dev_Fan_Set_Speed</text>
</a>
</g>
</g>
<!-- Node4&#45;&gt;Node5 -->
<g id="edge4_Node000004_Node000005" class="edge">
<title>Node4&#45;&gt;Node5</title>
<g id="a_edge4_Node000004_Node000005"><a xlink:title=" ">
<path fill="none" stroke="#63b8ff" d="M448.29,-197.09C460.34,-228.27 491.17,-297 540.25,-333 542.58,-334.71 545.07,-336.27 547.65,-337.69"/>
<polygon fill="#63b8ff" stroke="#63b8ff" points="545.81,-341.16 556.35,-342.23 548.78,-334.82 545.81,-341.16"/>
</a>
</g>
</g>
<!-- Node6 -->
<g id="Node000006" class="node">
<title>Node6</title>
<g id="a_Node000006"><a xlink:href="a00511.html#gad6514b638a32baed68543a56bedd5c5d" target="_top" xlink:title="API function to get the PWM duty cycle.">
<polygon fill="white" stroke="#666666" points="680.75,-324 541,-324 541,-304 680.75,-304 680.75,-324"/>
<text text-anchor="middle" x="610.88" y="-310.5" font-family="Helvetica,sans-Serif" font-size="10.00">Dev_PwrCtrl_Get_DutyCycle</text>
</a>
</g>
</g>
<!-- Node4&#45;&gt;Node6 -->
<g id="edge5_Node000004_Node000006" class="edge">
<title>Node4&#45;&gt;Node6</title>
<g id="a_edge5_Node000004_Node000006"><a xlink:title=" ">
<path fill="none" stroke="#63b8ff" d="M451.98,-197.3C467.31,-222.2 499.93,-269.49 540.25,-295 542.7,-296.55 545.27,-297.97 547.92,-299.28"/>
<polygon fill="#63b8ff" stroke="#63b8ff" points="546.26,-302.8 556.83,-303.54 549.02,-296.37 546.26,-302.8"/>
</a>
</g>
</g>
<!-- Node7 -->
<g id="Node000007" class="node">
<title>Node7</title>
<g id="a_Node000007"><a xlink:href="a00511.html#gae5e607ebc1cfbf0fcb8caa5775d5e782" target="_top" xlink:title="API function to set the power control State.">
<polygon fill="white" stroke="#666666" points="666.88,-286 554.88,-286 554.88,-266 666.88,-266 666.88,-286"/>
<text text-anchor="middle" x="610.88" y="-272.5" font-family="Helvetica,sans-Serif" font-size="10.00">Dev_PwrCtrl_SetState</text>
</a>
</g>
</g>
<!-- Node4&#45;&gt;Node7 -->
<g id="edge6_Node000004_Node000007" class="edge">
<title>Node4&#45;&gt;Node7</title>
<g id="a_edge6_Node000004_Node000007"><a xlink:title=" ">
<path fill="none" stroke="#63b8ff" d="M459.08,-197.28C477.47,-214.48 508.72,-241.23 540.25,-257 543.82,-258.79 547.58,-260.42 551.43,-261.92"/>
<polygon fill="#63b8ff" stroke="#63b8ff" points="550.16,-265.53 560.76,-265.55 552.49,-258.93 550.16,-265.53"/>
</a>
</g>
</g>
<!-- Node8 -->
<g id="Node000008" class="node">
<title>Node8</title>
<g id="a_Node000008"><a xlink:href="a00511.html#ga071b955cb9687b27b8ce895a29febc66" target="_top" xlink:title="API function to set the power control enable bit.">
<polygon fill="white" stroke="#666666" points="659.75,-248 562,-248 562,-228 659.75,-228 659.75,-248"/>
<text text-anchor="middle" x="610.88" y="-234.5" font-family="Helvetica,sans-Serif" font-size="10.00">PwrCtrl_SetEnable</text>
</a>
</g>
</g>
<!-- Node4&#45;&gt;Node8 -->
<g id="edge7_Node000004_Node000008" class="edge">
<title>Node4&#45;&gt;Node8</title>
<g id="a_edge7_Node000004_Node000008"><a xlink:title=" ">
<path fill="none" stroke="#63b8ff" d="M482.11,-197.48C499.75,-204.54 520.88,-212.61 540.25,-219 546.12,-220.94 552.31,-222.83 558.49,-224.63"/>
<polygon fill="#63b8ff" stroke="#63b8ff" points="557.22,-228.19 567.8,-227.56 559.13,-221.46 557.22,-228.19"/>
</a>
</g>
</g>
<!-- Node9 -->
<g id="Node000009" class="node">
<title>Node9</title>
<g id="a_Node000009"><a xlink:href="a00511.html#ga70c7b962e7df84e7d49fd37a76826059" target="_top" xlink:title="API function to set the current controller reference.">
<polygon fill="white" stroke="#666666" points="667.62,-210 554.12,-210 554.12,-190 667.62,-190 667.62,-210"/>
<text text-anchor="middle" x="610.88" y="-196.5" font-family="Helvetica,sans-Serif" font-size="10.00">PwrCtrl_SetIReference</text>
</a>
</g>
</g>
<!-- Node4&#45;&gt;Node9 -->
<g id="edge8_Node000004_Node000009" class="edge">
<title>Node4&#45;&gt;Node9</title>
<g id="a_edge8_Node000004_Node000009"><a xlink:title=" ">
<path fill="none" stroke="#63b8ff" d="M504.35,-188.02C517.01,-189.46 530.38,-190.98 543.2,-192.43"/>
<polygon fill="#63b8ff" stroke="#63b8ff" points="542.48,-195.99 552.81,-193.64 543.27,-189.03 542.48,-195.99"/>
</a>
</g>
</g>
<!-- Node10 -->
<g id="Node000010" class="node">
<title>Node10</title>
<g id="a_Node000010"><a xlink:href="a00511.html#ga80737f595e2855e9361772d2c1a9852d" target="_top" xlink:title="API function to set the target prim to sec phase which will steer other modulation.">
<polygon fill="white" stroke="#666666" points="681.5,-172 540.25,-172 540.25,-152 681.5,-152 681.5,-172"/>
<text text-anchor="middle" x="610.88" y="-158.5" font-family="Helvetica,sans-Serif" font-size="10.00">PwrCtrl_SetP2SPhaseTarget</text>
</a>
</g>
</g>
<!-- Node4&#45;&gt;Node10 -->
<g id="edge9_Node000004_Node000010" class="edge">
<title>Node4&#45;&gt;Node10</title>
<g id="a_edge9_Node000004_Node000010"><a xlink:title=" ">
<path fill="none" stroke="#63b8ff" d="M504.35,-173.98C512.38,-173.07 520.69,-172.12 528.98,-171.18"/>
<polygon fill="#63b8ff" stroke="#63b8ff" points="529.27,-174.56 538.81,-169.95 528.48,-167.6 529.27,-174.56"/>
</a>
</g>
</g>
<!-- Node11 -->
<g id="Node000011" class="node">
<title>Node11</title>
<g id="a_Node000011"><a xlink:href="a00511.html#ga75fdd46231baccc4830fa08d2b39a3d2" target="_top" xlink:title="API function to set the target period.">
<polygon fill="white" stroke="#666666" points="672.12,-134 549.62,-134 549.62,-114 672.12,-114 672.12,-134"/>
<text text-anchor="middle" x="610.88" y="-120.5" font-family="Helvetica,sans-Serif" font-size="10.00">PwrCtrl_SetPeriodTarget</text>
</a>
</g>
</g>
<!-- Node4&#45;&gt;Node11 -->
<g id="edge10_Node000004_Node000011" class="edge">
<title>Node4&#45;&gt;Node11</title>
<g id="a_edge10_Node000004_Node000011"><a xlink:title=" ">
<path fill="none" stroke="#63b8ff" d="M482.11,-164.52C499.75,-157.46 520.88,-149.39 540.25,-143 546.12,-141.06 552.31,-139.17 558.49,-137.37"/>
<polygon fill="#63b8ff" stroke="#63b8ff" points="559.13,-140.54 567.8,-134.44 557.22,-133.81 559.13,-140.54"/>
</a>
</g>
</g>
<!-- Node12 -->
<g id="Node000012" class="node">
<title>Node12</title>
<g id="a_Node000012"><a xlink:href="a00511.html#gae62d241af8152bb7989d448f30adc55e" target="_top" xlink:title="API function to set the target PWM phase.">
<polygon fill="white" stroke="#666666" points="672.12,-96 549.62,-96 549.62,-76 672.12,-76 672.12,-96"/>
<text text-anchor="middle" x="610.88" y="-82.5" font-family="Helvetica,sans-Serif" font-size="10.00">PwrCtrl_SetPhaseTarget</text>
</a>
</g>
</g>
<!-- Node4&#45;&gt;Node12 -->
<g id="edge11_Node000004_Node000012" class="edge">
<title>Node4&#45;&gt;Node12</title>
<g id="a_edge11_Node000004_Node000012"><a xlink:title=" ">
<path fill="none" stroke="#63b8ff" d="M459.08,-164.72C477.47,-147.52 508.72,-120.77 540.25,-105 543.82,-103.21 547.58,-101.58 551.43,-100.08"/>
<polygon fill="#63b8ff" stroke="#63b8ff" points="552.49,-103.07 560.76,-96.45 550.16,-96.47 552.49,-103.07"/>
</a>
</g>
</g>
<!-- Node13 -->
<g id="Node000013" class="node">
<title>Node13</title>
<g id="a_Node000013"><a xlink:href="a00511.html#ga574faff7b911d52ae6d2cf53b68a8963" target="_top" xlink:title="API function to set the power controller reference.">
<polygon fill="white" stroke="#666666" points="674.75,-58 547,-58 547,-38 674.75,-38 674.75,-58"/>
<text text-anchor="middle" x="610.88" y="-44.5" font-family="Helvetica,sans-Serif" font-size="10.00">PwrCtrl_SetPwrReference</text>
</a>
</g>
</g>
<!-- Node4&#45;&gt;Node13 -->
<g id="edge12_Node000004_Node000013" class="edge">
<title>Node4&#45;&gt;Node13</title>
<g id="a_edge12_Node000004_Node000013"><a xlink:title=" ">
<path fill="none" stroke="#63b8ff" d="M451.98,-164.7C467.31,-139.8 499.93,-92.51 540.25,-67 542.7,-65.45 545.27,-64.03 547.92,-62.72"/>
<polygon fill="#63b8ff" stroke="#63b8ff" points="549.02,-65.63 556.83,-58.46 546.26,-59.2 549.02,-65.63"/>
</a>
</g>
</g>
<!-- Node14 -->
<g id="Node000014" class="node">
<title>Node14</title>
<g id="a_Node000014"><a xlink:href="a00511.html#ga919933b7bef6f9fa8094848c413e7881" target="_top" xlink:title="API function to set the secondary voltage controller reference.">
<polygon fill="white" stroke="#666666" points="678.5,-20 543.25,-20 543.25,0 678.5,0 678.5,-20"/>
<text text-anchor="middle" x="610.88" y="-6.5" font-family="Helvetica,sans-Serif" font-size="10.00">PwrCtrl_SetVSecReference</text>
</a>
</g>
</g>
<!-- Node4&#45;&gt;Node14 -->
<g id="edge13_Node000004_Node000014" class="edge">
<title>Node4&#45;&gt;Node14</title>
<g id="a_edge13_Node000004_Node000014"><a xlink:title=" ">
<path fill="none" stroke="#63b8ff" d="M448.29,-164.91C460.34,-133.73 491.17,-65 540.25,-29 542.14,-27.62 544.12,-26.33 546.18,-25.14"/>
<polygon fill="#63b8ff" stroke="#63b8ff" points="547.15,-28.07 554.57,-20.5 544.05,-21.79 547.15,-28.07"/>
</a>
</g>
</g>
</g>
</svg>
