<?xml version="1.0" encoding="UTF-8" standalone="no"?>
<!DOCTYPE svg PUBLIC "-//W3C//DTD SVG 1.1//EN"
 "http://www.w3.org/Graphics/SVG/1.1/DTD/svg11.dtd">
<!-- Generated by graphviz version 8.1.0 (20230707.0739)
 -->
<!-- Title: Tasks_1s Pages: 1 -->
<svg width="406pt" height="192pt"
 viewBox="0.00 0.00 405.50 192.00" xmlns="http://www.w3.org/2000/svg" xmlns:xlink="http://www.w3.org/1999/xlink">
<g id="graph0" class="graph" transform="scale(1 1) rotate(0) translate(4 188)">
<title>Tasks_1s</title>
<!-- Node1 -->
<g id="Node000001" class="node">
<title>Node1</title>
<g id="a_Node000001"><a xlink:title="Tasks_1s gets called every second, put your things in it that need to be called regularly.">
<polygon fill="#999999" stroke="#666666" points="58,-80 0,-80 0,-60 58,-60 58,-80"/>
<text text-anchor="middle" x="29" y="-66.5" font-family="Helvetica,sans-Serif" font-size="10.00">Tasks_1s</text>
</a>
</g>
</g>
<!-- Node2 -->
<g id="Node000002" class="node">
<title>Node2</title>
<g id="a_Node000002"><a xlink:href="a00495.html#gad255673713bb77bc36791875207a4393" target="_top" xlink:title="1 second PBV task to be execution">
<polygon fill="white" stroke="#666666" points="220.25,-124 94,-124 94,-104 220.25,-104 220.25,-124"/>
<text text-anchor="middle" x="157.12" y="-110.5" font-family="Helvetica,sans-Serif" font-size="10.00">App_PBV_DAB_Task_1s</text>
</a>
</g>
</g>
<!-- Node1&#45;&gt;Node2 -->
<g id="edge1_Node000001_Node000002" class="edge">
<title>Node1&#45;&gt;Node2</title>
<g id="a_edge1_Node000001_Node000002"><a xlink:title=" ">
<path fill="none" stroke="#63b8ff" d="M58.3,-79.87C75.26,-85.79 97.1,-93.41 115.83,-99.94"/>
<polygon fill="#63b8ff" stroke="#63b8ff" points="114.56,-103.56 125.16,-103.55 116.87,-96.95 114.56,-103.56"/>
</a>
</g>
</g>
<!-- Node6 -->
<g id="Node000006" class="node">
<title>Node6</title>
<g id="a_Node000006"><a xlink:href="a00499.html#gafd7dde7baca2e1dd3a745bf5f8258da7" target="_top" xlink:title="This function needs to be called every 1s to keep the temperature of the board at a certain temperatu...">
<polygon fill="white" stroke="#666666" points="204.88,-58 109.38,-58 109.38,-38 204.88,-38 204.88,-58"/>
<text text-anchor="middle" x="157.12" y="-44.5" font-family="Helvetica,sans-Serif" font-size="10.00">Dev_Fan_Task_1s</text>
</a>
</g>
</g>
<!-- Node1&#45;&gt;Node6 -->
<g id="edge5_Node000001_Node000006" class="edge">
<title>Node1&#45;&gt;Node6</title>
<g id="a_edge5_Node000001_Node000006"><a xlink:title=" ">
<path fill="none" stroke="#63b8ff" d="M58.3,-65.06C70.23,-62.98 84.56,-60.48 98.53,-58.05"/>
<polygon fill="#63b8ff" stroke="#63b8ff" points="98.85,-61.37 108.1,-56.2 97.65,-54.47 98.85,-61.37"/>
</a>
</g>
</g>
<!-- Node3 -->
<g id="Node000003" class="node">
<title>Node3</title>
<g id="a_Node000003"><a xlink:href="a00493.html#gab70a27b3aad7113c3983e82413ca5e4f" target="_top" xlink:title=" ">
<polygon fill="white" stroke="#666666" points="373.88,-184 279.88,-184 279.88,-164 373.88,-164 373.88,-184"/>
<text text-anchor="middle" x="326.88" y="-170.5" font-family="Helvetica,sans-Serif" font-size="10.00">App_PBV_Re_Init</text>
</a>
</g>
</g>
<!-- Node2&#45;&gt;Node3 -->
<g id="edge2_Node000002_Node000003" class="edge">
<title>Node2&#45;&gt;Node3</title>
<g id="a_edge2_Node000002_Node000003"><a xlink:title=" ">
<path fill="none" stroke="#63b8ff" d="M180.8,-124.46C200.48,-133.3 229.89,-145.94 256.25,-155 261.8,-156.91 267.66,-158.76 273.52,-160.5"/>
<polygon fill="#63b8ff" stroke="#63b8ff" points="272.43,-164.12 283,-163.52 274.36,-157.39 272.43,-164.12"/>
</a>
</g>
</g>
<!-- Node4 -->
<g id="Node000004" class="node">
<title>Node4</title>
<g id="a_Node000004"><a xlink:href="a00493.html#ga39ed8d2ee366abaf4aa95a424f9108e3" target="_top" xlink:title=" ">
<polygon fill="white" stroke="#666666" points="378,-146 275.75,-146 275.75,-126 378,-126 378,-146"/>
<text text-anchor="middle" x="326.88" y="-132.5" font-family="Helvetica,sans-Serif" font-size="10.00">App_Send_To_PBV</text>
</a>
</g>
</g>
<!-- Node2&#45;&gt;Node4 -->
<g id="edge3_Node000002_Node000004" class="edge">
<title>Node2&#45;&gt;Node4</title>
<g id="a_edge3_Node000002_Node000004"><a xlink:title=" ">
<path fill="none" stroke="#63b8ff" d="M220.59,-122.19C234.99,-124.08 250.29,-126.09 264.64,-127.97"/>
<polygon fill="#63b8ff" stroke="#63b8ff" points="264.02,-131.55 274.4,-129.38 264.94,-124.61 264.02,-131.55"/>
</a>
</g>
</g>
<!-- Node5 -->
<g id="Node000005" class="node">
<title>Node5</title>
<g id="a_Node000005"><a xlink:href="a00501.html#gac9618e1ca87e77920c94cdfdcc80321a" target="_top" xlink:title="This converts the raw values to temperature celcius as per device lookup table.">
<polygon fill="white" stroke="#666666" points="397.5,-108 256.25,-108 256.25,-76 397.5,-76 397.5,-108"/>
<text text-anchor="start" x="264.25" y="-94.5" font-family="Helvetica,sans-Serif" font-size="10.00">Dev_Temp_Get_Temperature</text>
<text text-anchor="middle" x="326.88" y="-82.5" font-family="Helvetica,sans-Serif" font-size="10.00">_Celcius</text>
</a>
</g>
</g>
<!-- Node2&#45;&gt;Node5 -->
<g id="edge4_Node000002_Node000005" class="edge">
<title>Node2&#45;&gt;Node5</title>
<g id="a_edge4_Node000002_Node000005"><a xlink:title=" ">
<path fill="none" stroke="#63b8ff" d="M220.59,-105.81C228.62,-104.75 236.93,-103.66 245.2,-102.58"/>
<polygon fill="#63b8ff" stroke="#63b8ff" points="245.56,-105.93 255.02,-101.16 244.65,-98.99 245.56,-105.93"/>
</a>
</g>
</g>
<!-- Node7 -->
<g id="Node000007" class="node">
<title>Node7</title>
<g id="a_Node000007"><a xlink:href="a00499.html#ga5cfd61659ae6b17ad25e51bfc211723b" target="_top" xlink:title="Sets the fan speed.">
<polygon fill="white" stroke="#666666" points="380.25,-58 273.5,-58 273.5,-38 380.25,-38 380.25,-58"/>
<text text-anchor="middle" x="326.88" y="-44.5" font-family="Helvetica,sans-Serif" font-size="10.00">Dev_Fan_Set_Speed</text>
</a>
</g>
</g>
<!-- Node6&#45;&gt;Node7 -->
<g id="edge6_Node000006_Node000007" class="edge">
<title>Node6&#45;&gt;Node7</title>
<g id="a_edge6_Node000006_Node000007"><a xlink:title=" ">
<path fill="none" stroke="#63b8ff" d="M205.3,-48C222.96,-48 243.32,-48 262.23,-48"/>
<polygon fill="#63b8ff" stroke="#63b8ff" points="262.16,-51.5 272.16,-48 262.16,-44.5 262.16,-51.5"/>
</a>
</g>
</g>
<!-- Node8 -->
<g id="Node000008" class="node">
<title>Node8</title>
<g id="a_Node000008"><a xlink:href="a00501.html#ga2d219d0b5470ff7bae4c51c403c19065" target="_top" xlink:title="Returns the average adc temperature reading.">
<polygon fill="white" stroke="#666666" points="389.62,-20 264.12,-20 264.12,0 389.62,0 389.62,-20"/>
<text text-anchor="middle" x="326.88" y="-6.5" font-family="Helvetica,sans-Serif" font-size="10.00">Dev_Temp_AverageValue</text>
</a>
</g>
</g>
<!-- Node6&#45;&gt;Node8 -->
<g id="edge7_Node000006_Node000008" class="edge">
<title>Node6&#45;&gt;Node8</title>
<g id="a_edge7_Node000006_Node000008"><a xlink:title=" ">
<path fill="none" stroke="#63b8ff" d="M204.41,-37.52C224.48,-32.97 248.18,-27.6 269.3,-22.82"/>
<polygon fill="#63b8ff" stroke="#63b8ff" points="269.76,-26.07 278.74,-20.45 268.22,-19.25 269.76,-26.07"/>
</a>
</g>
</g>
</g>
</svg>
