<?xml version="1.0" encoding="UTF-8" standalone="no"?>
<!DOCTYPE svg PUBLIC "-//W3C//DTD SVG 1.1//EN"
 "http://www.w3.org/Graphics/SVG/1.1/DTD/svg11.dtd">
<!-- Generated by graphviz version 8.1.0 (20230707.0739)
 -->
<!-- Title: DRV_Config_Custom_PWM Pages: 1 -->
<svg width="348pt" height="216pt"
 viewBox="0.00 0.00 347.50 216.00" xmlns="http://www.w3.org/2000/svg" xmlns:xlink="http://www.w3.org/1999/xlink">
<g id="graph0" class="graph" transform="scale(1 1) rotate(0) translate(4 212)">
<title>DRV_Config_Custom_PWM</title>
<!-- Node1 -->
<g id="Node000001" class="node">
<title>Node1</title>
<g id="a_Node000001"><a xlink:title="Contains PWM initialization that was not supported by MCC generated code.">
<polygon fill="#999999" stroke="#666666" points="137.5,-114 0,-114 0,-94 137.5,-94 137.5,-114"/>
<text text-anchor="middle" x="68.75" y="-100.5" font-family="Helvetica,sans-Serif" font-size="10.00">DRV_Config_Custom_PWM</text>
</a>
</g>
</g>
<!-- Node2 -->
<g id="Node000002" class="node">
<title>Node2</title>
<g id="a_Node000002"><a xlink:href="a00515.html#gaaf5d1e32e8b272aa4785219fa041b394" target="_top" xlink:title="Set the data mode of fault PCI.">
<polygon fill="white" stroke="#666666" points="315.12,-208 197.88,-208 197.88,-188 315.12,-188 315.12,-208"/>
<text text-anchor="middle" x="256.5" y="-194.5" font-family="Helvetica,sans-Serif" font-size="10.00">PWM_Fault_DataMode</text>
</a>
</g>
</g>
<!-- Node1&#45;&gt;Node2 -->
<g id="edge1_Node000001_Node000002" class="edge">
<title>Node1&#45;&gt;Node2</title>
<g id="a_edge1_Node000001_Node000002"><a xlink:title=" ">
<path fill="none" stroke="#63b8ff" d="M80.92,-114.44C98.96,-130.73 136.27,-162.07 173.5,-179 177.88,-180.99 182.5,-182.79 187.21,-184.4"/>
<polygon fill="#63b8ff" stroke="#63b8ff" points="186.04,-188.02 196.63,-187.66 188.13,-181.34 186.04,-188.02"/>
</a>
</g>
</g>
<!-- Node3 -->
<g id="Node000003" class="node">
<title>Node3</title>
<g id="a_Node000003"><a xlink:href="a00515.html#ga30d00d0393fc5b7bef92269fa3662a8f" target="_top" xlink:title="Set PCI fault acceptance criteria.">
<polygon fill="white" stroke="#666666" points="329.38,-170 183.62,-170 183.62,-138 329.38,-138 329.38,-170"/>
<text text-anchor="start" x="191.62" y="-156.5" font-family="Helvetica,sans-Serif" font-size="10.00">PWM_PCI_Fault_Acceptance</text>
<text text-anchor="middle" x="256.5" y="-144.5" font-family="Helvetica,sans-Serif" font-size="10.00">Criteria</text>
</a>
</g>
</g>
<!-- Node1&#45;&gt;Node3 -->
<g id="edge2_Node000001_Node000003" class="edge">
<title>Node1&#45;&gt;Node3</title>
<g id="a_edge2_Node000001_Node000003"><a xlink:title=" ">
<path fill="none" stroke="#63b8ff" d="M108.69,-114.48C130.47,-120.35 158.32,-127.84 183.89,-134.72"/>
<polygon fill="#63b8ff" stroke="#63b8ff" points="182.74,-138.31 193.31,-137.53 184.56,-131.55 182.74,-138.31"/>
</a>
</g>
</g>
<!-- Node4 -->
<g id="Node000004" class="node">
<title>Node4</title>
<g id="a_Node000004"><a xlink:href="a00515.html#ga3e7243475a0867eddc73f8c453acf105" target="_top" xlink:title="Set TSYNCDIS bit to determine when PWM should stop after a fault occurs.">
<polygon fill="white" stroke="#666666" points="339.5,-120 173.5,-120 173.5,-88 339.5,-88 339.5,-120"/>
<text text-anchor="start" x="181.5" y="-106.5" font-family="Helvetica,sans-Serif" font-size="10.00">PWM_PCI_Fault_TimetoTerminate</text>
<text text-anchor="middle" x="256.5" y="-94.5" font-family="Helvetica,sans-Serif" font-size="10.00">AfterEvent</text>
</a>
</g>
</g>
<!-- Node1&#45;&gt;Node4 -->
<g id="edge3_Node000001_Node000004" class="edge">
<title>Node1&#45;&gt;Node4</title>
<g id="a_edge3_Node000001_Node000004"><a xlink:title=" ">
<path fill="none" stroke="#63b8ff" d="M137.86,-104C145.85,-104 154.11,-104 162.37,-104"/>
<polygon fill="#63b8ff" stroke="#63b8ff" points="162.2,-107.5 172.2,-104 162.2,-100.5 162.2,-107.5"/>
</a>
</g>
</g>
<!-- Node5 -->
<g id="Node000005" class="node">
<title>Node5</title>
<g id="a_Node000005"><a xlink:href="a00515.html#gaab156f2b7ad138cf32e734bbf7145ef4" target="_top" xlink:title="Enable/Disable the PWM instance output swap bit.">
<polygon fill="white" stroke="#666666" points="322.25,-70 190.75,-70 190.75,-38 322.25,-38 322.25,-70"/>
<text text-anchor="start" x="198.75" y="-56.5" font-family="Helvetica,sans-Serif" font-size="10.00">PWM_Swap_PWMxL_and</text>
<text text-anchor="middle" x="256.5" y="-44.5" font-family="Helvetica,sans-Serif" font-size="10.00">_PWMxH</text>
</a>
</g>
</g>
<!-- Node1&#45;&gt;Node5 -->
<g id="edge4_Node000001_Node000005" class="edge">
<title>Node1&#45;&gt;Node5</title>
<g id="a_edge4_Node000001_Node000005"><a xlink:title=" ">
<path fill="none" stroke="#63b8ff" d="M108.69,-93.52C130.47,-87.65 158.32,-80.16 183.89,-73.28"/>
<polygon fill="#63b8ff" stroke="#63b8ff" points="184.56,-76.45 193.31,-70.47 182.74,-69.69 184.56,-76.45"/>
</a>
</g>
</g>
<!-- Node6 -->
<g id="Node000006" class="node">
<title>Node6</title>
<g id="a_Node000006"><a xlink:href="a00515.html#ga51d53c1db006afc7c11a0ab15f07093d" target="_top" xlink:title="Set source of fault PCI acceptance qualifier.">
<polygon fill="white" stroke="#666666" points="308.75,-20 204.25,-20 204.25,0 308.75,0 308.75,-20"/>
<text text-anchor="middle" x="256.5" y="-6.5" font-family="Helvetica,sans-Serif" font-size="10.00">PWM_Trigger_Mode</text>
</a>
</g>
</g>
<!-- Node1&#45;&gt;Node6 -->
<g id="edge5_Node000001_Node000006" class="edge">
<title>Node1&#45;&gt;Node6</title>
<g id="a_edge5_Node000001_Node000006"><a xlink:title=" ">
<path fill="none" stroke="#63b8ff" d="M80.92,-93.56C98.96,-77.27 136.27,-45.93 173.5,-29 179.94,-26.07 186.87,-23.57 193.88,-21.45"/>
<polygon fill="#63b8ff" stroke="#63b8ff" points="194.46,-24.64 203.15,-18.59 192.58,-17.9 194.46,-24.64"/>
</a>
</g>
</g>
</g>
</svg>
