<?xml version="1.0" encoding="UTF-8" standalone="no"?>
<!DOCTYPE svg PUBLIC "-//W3C//DTD SVG 1.1//EN"
 "http://www.w3.org/Graphics/SVG/1.1/DTD/svg11.dtd">
<!-- Generated by graphviz version 8.1.0 (20230707.0739)
 -->
<!-- Title: Primary Voltage Feedback Pages: 1 -->
<svg width="409pt" height="28pt"
 viewBox="0.00 0.00 409.25 28.00" xmlns="http://www.w3.org/2000/svg" xmlns:xlink="http://www.w3.org/1999/xlink">
<g id="graph0" class="graph" transform="scale(1 1) rotate(0) translate(4 24)">
<title>Primary Voltage Feedback</title>
<!-- Node2 -->
<g id="Node000002" class="node">
<title>Node2</title>
<g id="a_Node000002"><a xlink:href="a00529.html" target="_top" xlink:title="Allow user to quickly change fundamental system parameters, hardware changes and even migrating the f...">
<polygon fill="white" stroke="#666666" points="99.25,-20 0,-20 0,0 99.25,0 99.25,-20"/>
<text text-anchor="middle" x="49.62" y="-6.5" font-family="Helvetica,sans-Serif" font-size="10.00">Configuration Layer</text>
</a>
</g>
</g>
<!-- Node1 -->
<g id="Node000001" class="node">
<title>Node1</title>
<g id="a_Node000001"><a xlink:title="Declaration of Primary Voltage Feedback parameters, fault configuration and macros.">
<polygon fill="#999999" stroke="#666666" points="266.75,-20 135.25,-20 135.25,0 266.75,0 266.75,-20"/>
<text text-anchor="middle" x="201" y="-6.5" font-family="Helvetica,sans-Serif" font-size="10.00">Primary Voltage Feedback</text>
</a>
</g>
</g>
<!-- Node2&#45;&gt;Node1 -->
<g id="edge1" class="edge">
<title>Node2&#45;&gt;Node1</title>
<path fill="none" stroke="black" d="M110.37,-10C118.46,-10 126.78,-10 134.95,-10"/>
<polygon fill="black" stroke="black" points="110.54,-6.5 100.54,-10 110.54,-13.5 110.54,-6.5"/>
</g>
<!-- Node3 -->
<g id="Node000003" class="node">
<title>Node3</title>
<g id="a_Node000003"><a xlink:href="a00506.html" target="_top" xlink:title="Conversion macros for user&#45;declarations of Primary Voltage Feedback parameters.">
<polygon fill="white" stroke="#666666" points="401.25,-20 302.75,-20 302.75,0 401.25,0 401.25,-20"/>
<text text-anchor="middle" x="352" y="-6.5" font-family="Helvetica,sans-Serif" font-size="10.00">Conversion Macros</text>
</a>
</g>
</g>
<!-- Node1&#45;&gt;Node3 -->
<g id="edge2" class="edge">
<title>Node1&#45;&gt;Node3</title>
<path fill="none" stroke="black" d="M277.87,-10C286.22,-10 294.55,-10 302.43,-10"/>
<polygon fill="black" stroke="black" points="277.92,-6.5 267.92,-10 277.92,-13.5 277.92,-6.5"/>
</g>
</g>
</svg>
