<?xml version="1.0" encoding="UTF-8" standalone="no"?>
<!DOCTYPE svg PUBLIC "-//W3C//DTD SVG 1.1//EN"
 "http://www.w3.org/Graphics/SVG/1.1/DTD/svg11.dtd">
<!-- Generated by graphviz version 8.1.0 (20230707.0739)
 -->
<!-- Title: App_PBV_DAB_Task_10ms Pages: 1 -->
<!--zoomable 370 -->

<svg id="main" version="1.1" xmlns="http://www.w3.org/2000/svg" xmlns:xlink="http://www.w3.org/1999/xlink" xml:space="preserve" onload="init(evt)">
<style type="text/css"><![CDATA[
.node, .edge {opacity: 0.7;}
.node.selected, .edge.selected {opacity: 1;}
.edge:hover path { stroke: red; }
.edge:hover polygon { stroke: red; fill: red; }
]]></style>

<defs>
  <circle id="rim" cx="0" cy="0" r="7"/>
  <circle id="rim2" cx="0" cy="0" r="3.5"/>
  <g id="zoomPlus">
    <use xlink:href="#rim" fill="#404040"><set attributeName="fill" to="#808080" begin="zoomplus.mouseover" end="zoomplus.mouseout"/></use>
    <path d="M-4,0h8M0,-4v8" fill="none" stroke="white" stroke-width="1.5" pointer-events="none"/>
  </g>
  <g id="zoomMin">
    <use xlink:href="#rim" fill="#404040"><set attributeName="fill" to="#808080" begin="zoomminus.mouseover" end="zoomminus.mouseout"/></use>
    <path d="M-4,0h8" fill="none" stroke="white" stroke-width="1.5" pointer-events="none"/>
  </g>
  <g id="arrowUp" transform="translate(30 24)">
    <use xlink:href="#rim"/>
    <path pointer-events="none" fill="none" stroke="white" stroke-width="1.5" d="M0,-3.0v7 M-2.5,-0.5L0,-3.0L2.5,-0.5"/>
  </g>
  <g id="arrowRight" transform="rotate(90) translate(36 -43)">
    <use xlink:href="#rim"/>
    <path pointer-events="none" fill="none" stroke="white" stroke-width="1.5" d="M0,-3.0v7 M-2.5,-0.5L0,-3.0L2.5,-0.5"/>
  </g>
  <g id="arrowDown" transform="rotate(180) translate(-30 -48)">
    <use xlink:href="#rim"/>
    <path pointer-events="none" fill="none" stroke="white" stroke-width="1.5" d="M0,-3.0v7 M-2.5,-0.5L0,-3.0L2.5,-0.5"/>
  </g>
  <g id="arrowLeft" transform="rotate(270) translate(-36 17)">
    <use xlink:href="#rim"/>
    <path pointer-events="none" fill="none" stroke="white" stroke-width="1.5" d="M0,-3.0v7 M-2.5,-0.5L0,-3.0L2.5,-0.5"/>
  </g>
  <g id="resetDef">
    <use xlink:href="#rim2" fill="#404040"><set attributeName="fill" to="#808080" begin="reset.mouseover" end="reset.mouseout"/></use>
  </g>
</defs>
<script type="application/ecmascript">
var viewWidth = 649;
var viewHeight = 370;
var sectionId = 'dynsection-4';
</script>
<script type="application/ecmascript" xlink:href="svg.min.js"/>
<svg id="graph" class="graph">
<g id="viewport">
<title>App_PBV_DAB_Task_10ms</title>
<!-- Node1 -->
<g id="Node000001" class="node">
<title>Node1</title>
<g id="a_Node000001"><a xlink:title="10ms PBV task to be execution">
<polygon fill="#999999" stroke="#666666" points="139.75,-223 0,-223 0,-203 139.75,-203 139.75,-223"/>
<text text-anchor="middle" x="69.88" y="-209.5" font-family="Helvetica,sans-Serif" font-size="10.00">App_PBV_DAB_Task_10ms</text>
</a>
</g>
</g>
<!-- Node2 -->
<g id="Node000002" class="node">
<title>Node2</title>
<g id="a_Node000002"><a xlink:href="a00505.html#ga7b078af24577006b714fabf52a93c4f1" target="_top" xlink:title="This function links the data received by CAN or UART objects to the application object.">
<polygon fill="white" stroke="#666666" points="291.12,-292 185.88,-292 185.88,-260 291.12,-260 291.12,-292"/>
<text text-anchor="start" x="193.88" y="-278.5" font-family="Helvetica,sans-Serif" font-size="10.00">App_Read_Received</text>
<text text-anchor="middle" x="238.5" y="-266.5" font-family="Helvetica,sans-Serif" font-size="10.00">_From_PBV</text>
</a>
</g>
</g>
<!-- Node1&#45;&gt;Node2 -->
<g id="edge1_Node000001_Node000002" class="edge">
<title>Node1&#45;&gt;Node2</title>
<g id="a_edge1_Node000001_Node000002"><a xlink:title=" ">
<path fill="none" stroke="#63b8ff" d="M98.39,-223.4C121.52,-232.15 155.28,-244.91 183.74,-255.68"/>
<polygon fill="#63b8ff" stroke="#63b8ff" points="182.37,-259.28 192.96,-259.54 184.85,-252.73 182.37,-259.28"/>
</a>
</g>
</g>
<!-- Node3 -->
<g id="Node000003" class="node">
<title>Node3</title>
<g id="a_Node000003"><a xlink:href="a00505.html#gaf88c754c75b6057cf183685d282a2fe6" target="_top" xlink:title="This function changes the state of the application object. this acts as a trigger for the periodic ta...">
<polygon fill="white" stroke="#666666" points="301.25,-242 175.75,-242 175.75,-222 301.25,-222 301.25,-242"/>
<text text-anchor="middle" x="238.5" y="-228.5" font-family="Helvetica,sans-Serif" font-size="10.00">App_Receive_From_PBV</text>
</a>
</g>
</g>
<!-- Node1&#45;&gt;Node3 -->
<g id="edge2_Node000001_Node000003" class="edge">
<title>Node1&#45;&gt;Node3</title>
<g id="a_edge2_Node000001_Node000003"><a xlink:title=" ">
<path fill="none" stroke="#63b8ff" d="M140.09,-220.89C148.24,-221.82 156.57,-222.77 164.76,-223.71"/>
<polygon fill="#63b8ff" stroke="#63b8ff" points="164.08,-227.27 174.42,-224.92 164.88,-220.31 164.08,-227.27"/>
</a>
</g>
</g>
<!-- Node4 -->
<g id="Node000004" class="node">
<title>Node4</title>
<g id="a_Node000004"><a xlink:href="a00505.html#ga39ed8d2ee366abaf4aa95a424f9108e3" target="_top" xlink:title="This function links the data from application object to the CAN or UART object and &#160;&#160;This function ch...">
<polygon fill="white" stroke="#666666" points="289.62,-204 187.38,-204 187.38,-184 289.62,-184 289.62,-204"/>
<text text-anchor="middle" x="238.5" y="-190.5" font-family="Helvetica,sans-Serif" font-size="10.00">App_Send_To_PBV</text>
</a>
</g>
</g>
<!-- Node1&#45;&gt;Node4 -->
<g id="edge3_Node000001_Node000004" class="edge">
<title>Node1&#45;&gt;Node4</title>
<g id="a_edge3_Node000001_Node000004"><a xlink:title=" ">
<path fill="none" stroke="#63b8ff" d="M140.09,-205.11C152.14,-203.73 164.59,-202.31 176.4,-200.97"/>
<polygon fill="#63b8ff" stroke="#63b8ff" points="176.5,-204.36 186.04,-199.75 175.71,-197.41 176.5,-204.36"/>
</a>
</g>
</g>
<!-- Node5 -->
<g id="Node000005" class="node">
<title>Node5</title>
<g id="a_Node000005"><a xlink:href="a00507.html#gae7f76d2864d9f99538052487fb4c9570" target="_top" xlink:title="default callback">
<polygon fill="white" stroke="#666666" points="268.25,-166 208.75,-166 208.75,-146 268.25,-146 268.25,-166"/>
<text text-anchor="middle" x="238.5" y="-152.5" font-family="Helvetica,sans-Serif" font-size="10.00">protocolID</text>
</a>
</g>
</g>
<!-- Node1&#45;&gt;Node5 -->
<g id="edge4_Node000001_Node000005" class="edge">
<title>Node1&#45;&gt;Node5</title>
<g id="a_edge4_Node000001_Node000005"><a xlink:title=" ">
<path fill="none" stroke="#63b8ff" d="M98.35,-202.63C119.43,-194.77 149.31,-183.85 175.75,-175 182.98,-172.58 190.72,-170.11 198.2,-167.78"/>
<polygon fill="#63b8ff" stroke="#63b8ff" points="198.98,-170.89 207.5,-164.6 196.92,-164.2 198.98,-170.89"/>
</a>
</g>
</g>
<!-- Node6 -->
<g id="Node000006" class="node">
<title>Node6</title>
<g id="a_Node000006"><a xlink:href="a00507.html#gaf2b5ec7aa4bf88b00eaa69cfeba83160" target="_top" xlink:title="process received data">
<polygon fill="white" stroke="#666666" points="463.12,-197 337.62,-197 337.62,-165 463.12,-165 463.12,-197"/>
<text text-anchor="start" x="345.62" y="-183.5" font-family="Helvetica,sans-Serif" font-size="10.00">App_PBV_DAB_Process</text>
<text text-anchor="middle" x="400.38" y="-171.5" font-family="Helvetica,sans-Serif" font-size="10.00">_Rx_Data</text>
</a>
</g>
</g>
<!-- Node5&#45;&gt;Node6 -->
<g id="edge5_Node000005_Node000006" class="edge">
<title>Node5&#45;&gt;Node6</title>
<g id="a_edge5_Node000005_Node000006"><a xlink:title=" ">
<path fill="none" stroke="#63b8ff" d="M268.45,-160.53C284.77,-163.08 305.96,-166.39 326.52,-169.61"/>
<polygon fill="#63b8ff" stroke="#63b8ff" points="325.76,-173.19 336.18,-171.28 326.85,-166.27 325.76,-173.19"/>
</a>
</g>
</g>
<!-- Node17 -->
<g id="Node000017" class="node">
<title>Node17</title>
<g id="a_Node000017"><a xlink:href="a00505.html#gaf92cac9156ceacf492c28455ba3c75f5" target="_top" xlink:title="This function changes 8 bit data to sixteen bit data.">
<polygon fill="white" stroke="#666666" points="463.5,-147 337.25,-147 337.25,-115 463.5,-115 463.5,-147"/>
<text text-anchor="start" x="345.25" y="-133.5" font-family="Helvetica,sans-Serif" font-size="10.00">PBV_Change_from_Eight</text>
<text text-anchor="middle" x="400.38" y="-121.5" font-family="Helvetica,sans-Serif" font-size="10.00">_to_Sixteen</text>
</a>
</g>
</g>
<!-- Node5&#45;&gt;Node17 -->
<g id="edge16_Node000005_Node000017" class="edge">
<title>Node5&#45;&gt;Node17</title>
<g id="a_edge16_Node000005_Node000017"><a xlink:title=" ">
<path fill="none" stroke="#63b8ff" d="M268.45,-151.47C284.7,-148.93 305.76,-145.64 326.23,-142.44"/>
<polygon fill="#63b8ff" stroke="#63b8ff" points="326.51,-145.78 335.85,-140.78 325.43,-138.86 326.51,-145.78"/>
</a>
</g>
</g>
<!-- Node7 -->
<g id="Node000007" class="node">
<title>Node7</title>
<g id="a_Node000007"><a xlink:href="a00511.html#ga5cfd61659ae6b17ad25e51bfc211723b" target="_top" xlink:title="Sets the fan speed.">
<polygon fill="white" stroke="#666666" points="623.5,-362 516.75,-362 516.75,-342 623.5,-342 623.5,-362"/>
<text text-anchor="middle" x="570.12" y="-348.5" font-family="Helvetica,sans-Serif" font-size="10.00">Dev_Fan_Set_Speed</text>
</a>
</g>
</g>
<!-- Node6&#45;&gt;Node7 -->
<g id="edge6_Node000006_Node000007" class="edge">
<title>Node6&#45;&gt;Node7</title>
<g id="a_edge6_Node000006_Node000007"><a xlink:title=" ">
<path fill="none" stroke="#63b8ff" d="M407.2,-197.09C419.33,-228.27 450.33,-297 499.5,-333 501.84,-334.71 504.32,-336.27 506.9,-337.68"/>
<polygon fill="#63b8ff" stroke="#63b8ff" points="505.07,-341.16 515.61,-342.22 508.03,-334.82 505.07,-341.16"/>
</a>
</g>
</g>
<!-- Node8 -->
<g id="Node000008" class="node">
<title>Node8</title>
<g id="a_Node000008"><a xlink:href="a00523.html#gad6514b638a32baed68543a56bedd5c5d" target="_top" xlink:title="API function to get the PWM duty cycle.">
<polygon fill="white" stroke="#666666" points="640,-324 500.25,-324 500.25,-304 640,-304 640,-324"/>
<text text-anchor="middle" x="570.12" y="-310.5" font-family="Helvetica,sans-Serif" font-size="10.00">Dev_PwrCtrl_Get_DutyCycle</text>
</a>
</g>
</g>
<!-- Node6&#45;&gt;Node8 -->
<g id="edge7_Node000006_Node000008" class="edge">
<title>Node6&#45;&gt;Node8</title>
<g id="a_edge7_Node000006_Node000008"><a xlink:title=" ">
<path fill="none" stroke="#63b8ff" d="M410.9,-197.3C426.31,-222.19 459.09,-269.48 499.5,-295 501.95,-296.55 504.52,-297.97 507.18,-299.28"/>
<polygon fill="#63b8ff" stroke="#63b8ff" points="505.51,-302.8 516.08,-303.53 508.27,-296.37 505.51,-302.8"/>
</a>
</g>
</g>
<!-- Node9 -->
<g id="Node000009" class="node">
<title>Node9</title>
<g id="a_Node000009"><a xlink:href="a00523.html#gae5e607ebc1cfbf0fcb8caa5775d5e782" target="_top" xlink:title="API function to set the power control State.">
<polygon fill="white" stroke="#666666" points="626.12,-286 514.12,-286 514.12,-266 626.12,-266 626.12,-286"/>
<text text-anchor="middle" x="570.12" y="-272.5" font-family="Helvetica,sans-Serif" font-size="10.00">Dev_PwrCtrl_SetState</text>
</a>
</g>
</g>
<!-- Node6&#45;&gt;Node9 -->
<g id="edge8_Node000006_Node000009" class="edge">
<title>Node6&#45;&gt;Node9</title>
<g id="a_edge8_Node000006_Node000009"><a xlink:title=" ">
<path fill="none" stroke="#63b8ff" d="M418.03,-197.28C436.5,-214.47 467.88,-241.23 499.5,-257 503.07,-258.78 506.84,-260.42 510.69,-261.91"/>
<polygon fill="#63b8ff" stroke="#63b8ff" points="509.42,-265.52 520.01,-265.54 511.74,-258.92 509.42,-265.52"/>
</a>
</g>
</g>
<!-- Node10 -->
<g id="Node000010" class="node">
<title>Node10</title>
<g id="a_Node000010"><a xlink:href="a00523.html#ga071b955cb9687b27b8ce895a29febc66" target="_top" xlink:title="API function to set the power control enable bit.">
<polygon fill="white" stroke="#666666" points="619,-248 521.25,-248 521.25,-228 619,-228 619,-248"/>
<text text-anchor="middle" x="570.12" y="-234.5" font-family="Helvetica,sans-Serif" font-size="10.00">PwrCtrl_SetEnable</text>
</a>
</g>
</g>
<!-- Node6&#45;&gt;Node10 -->
<g id="edge9_Node000006_Node000010" class="edge">
<title>Node6&#45;&gt;Node10</title>
<g id="a_edge9_Node000006_Node000010"><a xlink:title=" ">
<path fill="none" stroke="#63b8ff" d="M441.14,-197.47C458.85,-204.53 480.06,-212.6 499.5,-219 505.37,-220.93 511.56,-222.83 517.74,-224.62"/>
<polygon fill="#63b8ff" stroke="#63b8ff" points="516.47,-228.19 527.05,-227.55 518.38,-221.45 516.47,-228.19"/>
</a>
</g>
</g>
<!-- Node11 -->
<g id="Node000011" class="node">
<title>Node11</title>
<g id="a_Node000011"><a xlink:href="a00523.html#ga70c7b962e7df84e7d49fd37a76826059" target="_top" xlink:title="API function to set the current controller reference.">
<polygon fill="white" stroke="#666666" points="626.88,-210 513.38,-210 513.38,-190 626.88,-190 626.88,-210"/>
<text text-anchor="middle" x="570.12" y="-196.5" font-family="Helvetica,sans-Serif" font-size="10.00">PwrCtrl_SetIReference</text>
</a>
</g>
</g>
<!-- Node6&#45;&gt;Node11 -->
<g id="edge10_Node000006_Node000011" class="edge">
<title>Node6&#45;&gt;Node11</title>
<g id="a_edge10_Node000006_Node000011"><a xlink:title=" ">
<path fill="none" stroke="#63b8ff" d="M463.36,-188.02C476.05,-189.46 489.46,-190.98 502.3,-192.43"/>
<polygon fill="#63b8ff" stroke="#63b8ff" points="501.61,-195.99 511.94,-193.64 502.39,-189.03 501.61,-195.99"/>
</a>
</g>
</g>
<!-- Node12 -->
<g id="Node000012" class="node">
<title>Node12</title>
<g id="a_Node000012"><a xlink:href="a00523.html#ga80737f595e2855e9361772d2c1a9852d" target="_top" xlink:title="API function to set the target prim to sec phase which will steer other modulation.">
<polygon fill="white" stroke="#666666" points="640.75,-172 499.5,-172 499.5,-152 640.75,-152 640.75,-172"/>
<text text-anchor="middle" x="570.12" y="-158.5" font-family="Helvetica,sans-Serif" font-size="10.00">PwrCtrl_SetP2SPhaseTarget</text>
</a>
</g>
</g>
<!-- Node6&#45;&gt;Node12 -->
<g id="edge11_Node000006_Node000012" class="edge">
<title>Node6&#45;&gt;Node12</title>
<g id="a_edge11_Node000006_Node000012"><a xlink:title=" ">
<path fill="none" stroke="#63b8ff" d="M463.36,-173.98C471.57,-173.05 480.07,-172.09 488.53,-171.13"/>
<polygon fill="#63b8ff" stroke="#63b8ff" points="488.65,-174.52 498.19,-169.92 487.86,-167.57 488.65,-174.52"/>
</a>
</g>
</g>
<!-- Node13 -->
<g id="Node000013" class="node">
<title>Node13</title>
<g id="a_Node000013"><a xlink:href="a00523.html#ga75fdd46231baccc4830fa08d2b39a3d2" target="_top" xlink:title="API function to set the target period.">
<polygon fill="white" stroke="#666666" points="631.38,-134 508.88,-134 508.88,-114 631.38,-114 631.38,-134"/>
<text text-anchor="middle" x="570.12" y="-120.5" font-family="Helvetica,sans-Serif" font-size="10.00">PwrCtrl_SetPeriodTarget</text>
</a>
</g>
</g>
<!-- Node6&#45;&gt;Node13 -->
<g id="edge12_Node000006_Node000013" class="edge">
<title>Node6&#45;&gt;Node13</title>
<g id="a_edge12_Node000006_Node000013"><a xlink:title=" ">
<path fill="none" stroke="#63b8ff" d="M442.62,-164.54C464.25,-156.01 488.48,-146.63 499.5,-143 505.37,-141.07 511.56,-139.17 517.74,-137.38"/>
<polygon fill="#63b8ff" stroke="#63b8ff" points="518.38,-140.55 527.05,-134.45 516.47,-133.81 518.38,-140.55"/>
</a>
</g>
</g>
<!-- Node14 -->
<g id="Node000014" class="node">
<title>Node14</title>
<g id="a_Node000014"><a xlink:href="a00523.html#gae62d241af8152bb7989d448f30adc55e" target="_top" xlink:title="API function to set the target PWM phase.">
<polygon fill="white" stroke="#666666" points="631.38,-96 508.88,-96 508.88,-76 631.38,-76 631.38,-96"/>
<text text-anchor="middle" x="570.12" y="-82.5" font-family="Helvetica,sans-Serif" font-size="10.00">PwrCtrl_SetPhaseTarget</text>
</a>
</g>
</g>
<!-- Node6&#45;&gt;Node14 -->
<g id="edge13_Node000006_Node000014" class="edge">
<title>Node6&#45;&gt;Node14</title>
<g id="a_edge13_Node000006_Node000014"><a xlink:title=" ">
<path fill="none" stroke="#63b8ff" d="M450.05,-164.66C454.82,-162.12 459.4,-159.25 463.5,-156 485.26,-138.78 476.78,-120.92 499.5,-105 501.5,-103.6 503.6,-102.3 505.77,-101.1"/>
<polygon fill="#63b8ff" stroke="#63b8ff" points="507.14,-103.85 514.68,-96.41 504.14,-97.52 507.14,-103.85"/>
</a>
</g>
</g>
<!-- Node15 -->
<g id="Node000015" class="node">
<title>Node15</title>
<g id="a_Node000015"><a xlink:href="a00523.html#ga574faff7b911d52ae6d2cf53b68a8963" target="_top" xlink:title="API function to set the power controller reference.">
<polygon fill="white" stroke="#666666" points="634,-58 506.25,-58 506.25,-38 634,-38 634,-58"/>
<text text-anchor="middle" x="570.12" y="-44.5" font-family="Helvetica,sans-Serif" font-size="10.00">PwrCtrl_SetPwrReference</text>
</a>
</g>
</g>
<!-- Node6&#45;&gt;Node15 -->
<g id="edge14_Node000006_Node000015" class="edge">
<title>Node6&#45;&gt;Node15</title>
<g id="a_edge14_Node000006_Node000015"><a xlink:title=" ">
<path fill="none" stroke="#63b8ff" d="M452.39,-164.66C456.43,-162.15 460.21,-159.29 463.5,-156 493.7,-125.86 467.6,-95.34 499.5,-67 500.7,-65.93 501.95,-64.93 503.25,-63.98"/>
<polygon fill="#63b8ff" stroke="#63b8ff" points="504.64,-66.62 511.41,-58.47 501.04,-60.62 504.64,-66.62"/>
</a>
</g>
</g>
<!-- Node16 -->
<g id="Node000016" class="node">
<title>Node16</title>
<g id="a_Node000016"><a xlink:href="a00523.html#ga919933b7bef6f9fa8094848c413e7881" target="_top" xlink:title="API function to set the secondary voltage controller reference.">
<polygon fill="white" stroke="#666666" points="637.75,-20 502.5,-20 502.5,0 637.75,0 637.75,-20"/>
<text text-anchor="middle" x="570.12" y="-6.5" font-family="Helvetica,sans-Serif" font-size="10.00">PwrCtrl_SetVSecReference</text>
</a>
</g>
</g>
<!-- Node6&#45;&gt;Node16 -->
<g id="edge15_Node000006_Node000016" class="edge">
<title>Node6&#45;&gt;Node16</title>
<g id="a_edge15_Node000006_Node000016"><a xlink:title=" ">
<path fill="none" stroke="#63b8ff" d="M453.37,-164.64C457.1,-162.15 460.55,-159.29 463.5,-156 502.72,-112.37 457.81,-70.28 499.5,-29 500.48,-28.03 501.5,-27.11 502.56,-26.24"/>
<polygon fill="#63b8ff" stroke="#63b8ff" points="503.95,-28.85 510.34,-20.4 500.07,-23.02 503.95,-28.85"/>
</a>
</g>
</g>
</g>
</svg>

<g id="navigator" transform="translate(0 0)" fill="#404254">
  <rect fill="#f2f5e9" fill-opacity="0.5" stroke="#606060" stroke-width=".5" x="0" y="0" width="60" height="60"/>
  <use id="zoomplus" xlink:href="#zoomPlus" x="17" y="9" onmousedown="handleZoom(evt,'in')"/>
  <use id="zoomminus" xlink:href="#zoomMin" x="42" y="9" onmousedown="handleZoom(evt,'out')"/>
  <use id="reset" xlink:href="#resetDef" x="30" y="36" onmousedown="handleReset()"/>
   <use id="arrowup" xlink:href="#arrowUp" x="0" y="0" onmousedown="handlePan(0,-1)"/>
  <use id="arrowright" xlink:href="#arrowRight" x="0" y="0" onmousedown="handlePan(1,0)"/>
  <use id="arrowdown" xlink:href="#arrowDown" x="0" y="0" onmousedown="handlePan(0,1)"/>
  <use id="arrowleft" xlink:href="#arrowLeft" x="0" y="0" onmousedown="handlePan(-1,0)"/>
</g>
<svg viewBox="0 0 15 15" width="100%" height="30px" preserveAspectRatio="xMaxYMin meet">
 <g id="arrow_out" transform="scale(0.3 0.3)">
  <a xlink:href="a00507_ga4de477d51ea04cdcfcb1e3eb3ef0053a_cgraph_org.svg" target="_base">
   <rect id="button" ry="5" rx="5" y="6" x="6" height="38" width="38"
        fill="#f2f5e9" fill-opacity="0.5" stroke="#606060" stroke-width="1.0"/>
   <path id="arrow"
     d="M 11.500037,31.436501 C 11.940474,20.09759 22.043105,11.32322 32.158766,21.979434 L 37.068811,17.246167 C 37.068811,17.246167 37.088388,32 37.088388,32 L 22.160133,31.978069 C 22.160133,31.978069 26.997745,27.140456 26.997745,27.140456 C 18.528582,18.264221 13.291696,25.230495 11.500037,31.436501 z"
     style="fill:#404040;"/>
  </a>
 </g>
</svg>

<style type='text/css'>
<![CDATA[
[data-mouse-over-selected='false'] { opacity: 0.7; }
[data-mouse-over-selected='true']  { opacity: 1.0; }
]]>
</style>
<script type="application/ecmascript"><![CDATA[
document.addEventListener('DOMContentLoaded', (event) => {
  highlightEdges();
  highlightAdjacentNodes();
});
]]></script>
</svg>
