<?xml version="1.0" encoding="UTF-8" standalone="no"?>
<!DOCTYPE svg PUBLIC "-//W3C//DTD SVG 1.1//EN"
 "http://www.w3.org/Graphics/SVG/1.1/DTD/svg11.dtd">
<!-- Generated by graphviz version 8.1.0 (20230707.0739)
 -->
<!-- Title: PBV_CAN_Receive_from_GUI Pages: 1 -->
<svg width="732pt" height="230pt"
 viewBox="0.00 0.00 732.00 230.00" xmlns="http://www.w3.org/2000/svg" xmlns:xlink="http://www.w3.org/1999/xlink">
<g id="graph0" class="graph" transform="scale(1 1) rotate(0) translate(4 226)">
<title>PBV_CAN_Receive_from_GUI</title>
<!-- Node1 -->
<g id="Node000001" class="node">
<title>Node1</title>
<g id="a_Node000001"><a xlink:title="Checks the queue and if a message is received then links the data pointer to can object.">
<polygon fill="#999999" stroke="#666666" points="146.5,-145 0,-145 0,-125 146.5,-125 146.5,-145"/>
<text text-anchor="middle" x="73.25" y="-131.5" font-family="Helvetica,sans-Serif" font-size="10.00">PBV_CAN_Receive_from_GUI</text>
</a>
</g>
</g>
<!-- Node2 -->
<g id="Node000002" class="node">
<title>Node2</title>
<g id="a_Node000002"><a xlink:href="a00551.html#ga4fe1df4cd9f0ce122687dcfab0713b5b" target="_top" xlink:title="Reads the received single message object.">
<polygon fill="white" stroke="#666666" points="306.12,-117 225.62,-117 225.62,-97 306.12,-97 306.12,-117"/>
<text text-anchor="middle" x="265.88" y="-103.5" font-family="Helvetica,sans-Serif" font-size="10.00">CAN1_Receive</text>
</a>
</g>
</g>
<!-- Node1&#45;&gt;Node2 -->
<g id="edge1_Node000001_Node000002" class="edge">
<title>Node1&#45;&gt;Node2</title>
<g id="a_edge1_Node000001_Node000002"><a xlink:title=" ">
<path fill="none" stroke="#63b8ff" d="M145.5,-124.53C168.47,-121.16 193.42,-117.5 214.55,-114.39"/>
<polygon fill="#63b8ff" stroke="#63b8ff" points="214.84,-117.74 224.22,-112.82 213.82,-110.81 214.84,-117.74"/>
</a>
</g>
</g>
<!-- Node9 -->
<g id="Node000009" class="node">
<title>Node9</title>
<g id="a_Node000009"><a xlink:href="a00551.html#gac27e97593d8d9bd7787d116910adc40d" target="_top" xlink:title="Returns the number of CAN messages received in all the FIFO.">
<polygon fill="white" stroke="#666666" points="349.25,-174 182.5,-174 182.5,-154 349.25,-154 349.25,-174"/>
<text text-anchor="middle" x="265.88" y="-160.5" font-family="Helvetica,sans-Serif" font-size="10.00">CAN1_ReceivedMessageCountGet</text>
</a>
</g>
</g>
<!-- Node1&#45;&gt;Node9 -->
<g id="edge8_Node000001_Node000009" class="edge">
<title>Node1&#45;&gt;Node9</title>
<g id="a_edge8_Node000001_Node000009"><a xlink:title=" ">
<path fill="none" stroke="#63b8ff" d="M143.07,-145.47C156.84,-147.56 171.41,-149.78 185.5,-151.92"/>
<polygon fill="#63b8ff" stroke="#63b8ff" points="184.74,-155.5 195.16,-153.55 185.8,-148.58 184.74,-155.5"/>
</a>
</g>
</g>
<!-- Node3 -->
<g id="Node000003" class="node">
<title>Node3</title>
<g id="a_Node000003"><a xlink:href="a00551.html#ga57b30800d7bd3b3c936f578ca1fd7e32" target="_top" xlink:title="This function get the FIFO user address, message depth and payload size information.">
<polygon fill="white" stroke="#666666" points="522.38,-184 417.88,-184 417.88,-164 522.38,-164 522.38,-184"/>
<text text-anchor="middle" x="470.12" y="-170.5" font-family="Helvetica,sans-Serif" font-size="10.00">CAN1_FIFO_InfoGet</text>
</a>
</g>
</g>
<!-- Node2&#45;&gt;Node3 -->
<g id="edge2_Node000002_Node000003" class="edge">
<title>Node2&#45;&gt;Node3</title>
<g id="a_edge2_Node000002_Node000003"><a xlink:title=" ">
<path fill="none" stroke="#63b8ff" d="M289.17,-117.31C312.67,-127.88 350.97,-144.25 385.25,-155 392.32,-157.22 399.8,-159.29 407.26,-161.19"/>
<polygon fill="#63b8ff" stroke="#63b8ff" points="406.22,-164.78 416.76,-163.76 407.88,-157.98 406.22,-164.78"/>
</a>
</g>
</g>
<!-- Node4 -->
<g id="Node000004" class="node">
<title>Node4</title>
<g id="a_Node000004"><a xlink:href="a00551.html#gaa89329ca22f234476d55536c446b70e3" target="_top" xlink:title="This function read the message object from receive FIFO and update to the user &#160;&#160;message object point...">
<polygon fill="white" stroke="#666666" points="543.75,-108 396.5,-108 396.5,-88 543.75,-88 543.75,-108"/>
<text text-anchor="middle" x="470.12" y="-94.5" font-family="Helvetica,sans-Serif" font-size="10.00">CAN1_MessageReadFromFifo</text>
</a>
</g>
</g>
<!-- Node2&#45;&gt;Node4 -->
<g id="edge3_Node000002_Node000004" class="edge">
<title>Node2&#45;&gt;Node4</title>
<g id="a_edge3_Node000002_Node000004"><a xlink:title=" ">
<path fill="none" stroke="#63b8ff" d="M306.35,-105.24C328.88,-104.24 358.01,-102.94 385.39,-101.73"/>
<polygon fill="#63b8ff" stroke="#63b8ff" points="385.35,-105.19 395.18,-101.25 385.04,-98.19 385.35,-105.19"/>
</a>
</g>
</g>
<!-- Node6 -->
<g id="Node000006" class="node">
<title>Node6</title>
<g id="a_Node000006"><a xlink:href="a00551.html#ga0dab5f41a5a5ef032d23c2ba4890a866" target="_top" xlink:title="This function Update the receive FIFO message increment tail position.">
<polygon fill="white" stroke="#666666" points="552.75,-70 387.5,-70 387.5,-50 552.75,-50 552.75,-70"/>
<text text-anchor="middle" x="470.12" y="-56.5" font-family="Helvetica,sans-Serif" font-size="10.00">CAN1_RX_FIFO_IncrementMsgPtr</text>
</a>
</g>
</g>
<!-- Node2&#45;&gt;Node6 -->
<g id="edge5_Node000002_Node000006" class="edge">
<title>Node2&#45;&gt;Node6</title>
<g id="a_edge5_Node000002_Node000006"><a xlink:title=" ">
<path fill="none" stroke="#63b8ff" d="M306.58,-97.51C329.55,-92.04 359.02,-85.07 385.25,-79 393.83,-77.01 402.92,-74.93 411.81,-72.91"/>
<polygon fill="#63b8ff" stroke="#63b8ff" points="412.55,-76.1 421.52,-70.47 411,-69.28 412.55,-76.1"/>
</a>
</g>
</g>
<!-- Node7 -->
<g id="Node000007" class="node">
<title>Node7</title>
<g id="a_Node000007"><a xlink:href="a00551.html#ga224fbf549503a57f5818cc8391105b8f" target="_top" xlink:title="This function is used to clear the CAN1 receive FIFO overflow status bit.">
<polygon fill="white" stroke="#666666" points="547.88,-32 392.38,-32 392.38,0 547.88,0 547.88,-32"/>
<text text-anchor="start" x="400.38" y="-18.5" font-family="Helvetica,sans-Serif" font-size="10.00">CAN1_RX_FIFO_OverflowStatus</text>
<text text-anchor="middle" x="470.12" y="-6.5" font-family="Helvetica,sans-Serif" font-size="10.00">FlagClear</text>
</a>
</g>
</g>
<!-- Node2&#45;&gt;Node7 -->
<g id="edge6_Node000002_Node000007" class="edge">
<title>Node2&#45;&gt;Node7</title>
<g id="a_edge6_Node000002_Node000007"><a xlink:title=" ">
<path fill="none" stroke="#63b8ff" d="M282.77,-96.65C304.98,-82.54 346.88,-57.19 385.25,-41 389.35,-39.27 393.6,-37.61 397.92,-36.03"/>
<polygon fill="#63b8ff" stroke="#63b8ff" points="398.81,-39.08 407.09,-32.47 396.5,-32.47 398.81,-39.08"/>
</a>
</g>
</g>
<!-- Node8 -->
<g id="Node000008" class="node">
<title>Node8</title>
<g id="a_Node000008"><a xlink:href="a00551.html#ga4a6437adcdf1917fffef4e7e5761fda1" target="_top" xlink:title="This returns the CAN1 receive FIFO status.">
<polygon fill="white" stroke="#666666" points="537.75,-146 402.5,-146 402.5,-126 537.75,-126 537.75,-146"/>
<text text-anchor="middle" x="470.12" y="-132.5" font-family="Helvetica,sans-Serif" font-size="10.00">CAN1_RX_FIFO_StatusGet</text>
</a>
</g>
</g>
<!-- Node2&#45;&gt;Node8 -->
<g id="edge7_Node000002_Node000008" class="edge">
<title>Node2&#45;&gt;Node8</title>
<g id="a_edge7_Node000002_Node000008"><a xlink:title=" ">
<path fill="none" stroke="#63b8ff" d="M306.35,-112.66C330.62,-116.14 362.54,-120.72 391.68,-124.9"/>
<polygon fill="#63b8ff" stroke="#63b8ff" points="390.88,-128.46 401.27,-126.41 391.87,-121.53 390.88,-128.46"/>
</a>
</g>
</g>
<!-- Node5 -->
<g id="Node000005" class="node">
<title>Node5</title>
<g id="a_Node000005"><a xlink:href="a00551.html#ga61d156b0e75424f9b630cef5c424ac13" target="_top" xlink:title="This function get the DLC enum based decimal value.">
<polygon fill="white" stroke="#666666" points="724,-108 591,-108 591,-88 724,-88 724,-108"/>
<text text-anchor="middle" x="657.5" y="-94.5" font-family="Helvetica,sans-Serif" font-size="10.00">CAN1_DlcToDataBytesGet</text>
</a>
</g>
</g>
<!-- Node4&#45;&gt;Node5 -->
<g id="edge4_Node000004_Node000005" class="edge">
<title>Node4&#45;&gt;Node5</title>
<g id="a_edge4_Node000004_Node000005"><a xlink:title=" ">
<path fill="none" stroke="#63b8ff" d="M544.12,-98C555.91,-98 568.15,-98 580.02,-98"/>
<polygon fill="#63b8ff" stroke="#63b8ff" points="579.8,-101.5 589.8,-98 579.8,-94.5 579.8,-101.5"/>
</a>
</g>
</g>
<!-- Node9&#45;&gt;Node3 -->
<g id="edge9_Node000009_Node000003" class="edge">
<title>Node9&#45;&gt;Node3</title>
<g id="a_edge9_Node000009_Node000003"><a xlink:title=" ">
<path fill="none" stroke="#63b8ff" d="M349.72,-168.1C368.69,-169.03 388.55,-170.02 406.51,-170.9"/>
<polygon fill="#63b8ff" stroke="#63b8ff" points="406.26,-174.45 416.42,-171.44 406.6,-167.45 406.26,-174.45"/>
</a>
</g>
</g>
<!-- Node9&#45;&gt;Node8 -->
<g id="edge11_Node000009_Node000008" class="edge">
<title>Node9&#45;&gt;Node8</title>
<g id="a_edge11_Node000009_Node000008"><a xlink:title=" ">
<path fill="none" stroke="#63b8ff" d="M342.47,-153.53C358.58,-151.3 375.61,-148.95 391.78,-146.71"/>
<polygon fill="#63b8ff" stroke="#63b8ff" points="391.84,-150.09 401.27,-145.26 390.88,-143.16 391.84,-150.09"/>
</a>
</g>
</g>
<!-- Node10 -->
<g id="Node000010" class="node">
<title>Node10</title>
<g id="a_Node000010"><a xlink:href="a00551.html#ga5532c9a884cedd0805a011bf8baaabdd" target="_top" xlink:title="This function get the Receiver FIFO message index value.">
<polygon fill="white" stroke="#666666" points="555,-222 385.25,-222 385.25,-202 555,-202 555,-222"/>
<text text-anchor="middle" x="470.12" y="-208.5" font-family="Helvetica,sans-Serif" font-size="10.00">CAN1_RX_FIFO_MessageIndexGet</text>
</a>
</g>
</g>
<!-- Node9&#45;&gt;Node10 -->
<g id="edge10_Node000009_Node000010" class="edge">
<title>Node9&#45;&gt;Node10</title>
<g id="a_edge10_Node000009_Node000010"><a xlink:title=" ">
<path fill="none" stroke="#63b8ff" d="M308.74,-174.45C331.37,-180.04 359.82,-187 385.25,-193 393.83,-195.02 402.9,-197.12 411.8,-199.15"/>
<polygon fill="#63b8ff" stroke="#63b8ff" points="410.98,-202.79 421.51,-201.59 412.53,-195.96 410.98,-202.79"/>
</a>
</g>
</g>
</g>
</svg>
