<?xml version="1.0" encoding="UTF-8" standalone="no"?>
<!DOCTYPE svg PUBLIC "-//W3C//DTD SVG 1.1//EN"
 "http://www.w3.org/Graphics/SVG/1.1/DTD/svg11.dtd">
<!-- Generated by graphviz version 8.1.0 (20230707.0739)
 -->
<!-- Title: Tasks_100ms Pages: 1 -->
<svg width="783pt" height="218pt"
 viewBox="0.00 0.00 783.25 218.00" xmlns="http://www.w3.org/2000/svg" xmlns:xlink="http://www.w3.org/1999/xlink">
<g id="graph0" class="graph" transform="scale(1 1) rotate(0) translate(4 214)">
<title>Tasks_100ms</title>
<!-- Node1 -->
<g id="Node000001" class="node">
<title>Node1</title>
<g id="a_Node000001"><a xlink:title="Tasks_100ms gets called every 100 ms, put your things in it that need to be called regularly.">
<polygon fill="#999999" stroke="#666666" points="76.75,-86 0,-86 0,-66 76.75,-66 76.75,-86"/>
<text text-anchor="middle" x="38.38" y="-72.5" font-family="Helvetica,sans-Serif" font-size="10.00">Tasks_100ms</text>
</a>
</g>
</g>
<!-- Node2 -->
<g id="Node000002" class="node">
<title>Node2</title>
<g id="a_Node000002"><a xlink:href="a00501.html#ga1bd7dce99469a41bbb705d939ea512ad" target="_top" xlink:title="this function needs to be called every 100ms it contains the code to update the status of the fan">
<polygon fill="white" stroke="#666666" points="231.12,-143 116.88,-143 116.88,-123 231.12,-123 231.12,-143"/>
<text text-anchor="middle" x="174" y="-129.5" font-family="Helvetica,sans-Serif" font-size="10.00">Dev_Fan_Task_100ms</text>
</a>
</g>
</g>
<!-- Node1&#45;&gt;Node2 -->
<g id="edge1_Node000001_Node000002" class="edge">
<title>Node1&#45;&gt;Node2</title>
<g id="a_edge1_Node000001_Node000002"><a xlink:title=" ">
<path fill="none" stroke="#63b8ff" d="M63.88,-86.45C84.89,-95.41 115.36,-108.41 138.77,-118.4"/>
<polygon fill="#63b8ff" stroke="#63b8ff" points="137.08,-121.91 147.65,-122.61 139.82,-115.47 137.08,-121.91"/>
</a>
</g>
</g>
<!-- Node8 -->
<g id="Node000008" class="node">
<title>Node8</title>
<g id="a_Node000008"><a xlink:href="a00498.html#ga86410f4477516eb5de88e12c3108162d" target="_top" xlink:title="Fault evaluation for Temperature.">
<polygon fill="white" stroke="#666666" points="235.25,-86 112.75,-86 112.75,-66 235.25,-66 235.25,-86"/>
<text text-anchor="middle" x="174" y="-72.5" font-family="Helvetica,sans-Serif" font-size="10.00">Dev_Fault_Temp_100ms</text>
</a>
</g>
</g>
<!-- Node1&#45;&gt;Node8 -->
<g id="edge7_Node000001_Node000008" class="edge">
<title>Node1&#45;&gt;Node8</title>
<g id="a_edge7_Node000001_Node000008"><a xlink:title=" ">
<path fill="none" stroke="#63b8ff" d="M76.95,-76C84.71,-76 93.13,-76 101.65,-76"/>
<polygon fill="#63b8ff" stroke="#63b8ff" points="101.45,-79.5 111.45,-76 101.45,-72.5 101.45,-79.5"/>
</a>
</g>
</g>
<!-- Node17 -->
<g id="Node000017" class="node">
<title>Node17</title>
<g id="a_Node000017"><a xlink:href="a00502.html#gad26b3effecb0675aad3bcba8993a0bb2" target="_top" xlink:title="This function needs to be called every 100ms and contains the code to update the status of the LEDs.">
<polygon fill="white" stroke="#666666" points="232.25,-48 115.75,-48 115.75,-28 232.25,-28 232.25,-48"/>
<text text-anchor="middle" x="174" y="-34.5" font-family="Helvetica,sans-Serif" font-size="10.00">Dev_LED_Task_100ms</text>
</a>
</g>
</g>
<!-- Node1&#45;&gt;Node17 -->
<g id="edge16_Node000001_Node000017" class="edge">
<title>Node1&#45;&gt;Node17</title>
<g id="a_edge16_Node000001_Node000017"><a xlink:title=" ">
<path fill="none" stroke="#63b8ff" d="M76.24,-65.52C91.58,-61.15 109.57,-56.04 125.85,-51.41"/>
<polygon fill="#63b8ff" stroke="#63b8ff" points="126.59,-54.55 135.25,-48.45 124.68,-47.82 126.59,-54.55"/>
</a>
</g>
</g>
<!-- Node3 -->
<g id="Node000003" class="node">
<title>Node3</title>
<g id="a_Node000003"><a xlink:href="a00501.html#ga66c5db181798514534d7f97b622ca35e" target="_top" xlink:title="Calculates the fan speed.">
<polygon fill="white" stroke="#666666" points="388.88,-210 299.38,-210 299.38,-190 388.88,-190 388.88,-210"/>
<text text-anchor="middle" x="344.12" y="-196.5" font-family="Helvetica,sans-Serif" font-size="10.00">Calculate_Speed</text>
</a>
</g>
</g>
<!-- Node2&#45;&gt;Node3 -->
<g id="edge2_Node000002_Node000003" class="edge">
<title>Node2&#45;&gt;Node3</title>
<g id="a_edge2_Node000002_Node000003"><a xlink:title=" ">
<path fill="none" stroke="#63b8ff" d="M192.95,-143.35C211.92,-153.94 242.94,-170.33 271.25,-181 276.76,-183.08 282.59,-185.02 288.45,-186.8"/>
<polygon fill="#63b8ff" stroke="#63b8ff" points="287.39,-190.43 297.97,-189.85 289.33,-183.71 287.39,-190.43"/>
</a>
</g>
</g>
<!-- Node5 -->
<g id="Node000005" class="node">
<title>Node5</title>
<g id="a_Node000005"><a xlink:href="a00501.html#ga0d2b426f7411623a821415f02956aac8" target="_top" xlink:title="Override the fan speed with maximum speed.">
<polygon fill="white" stroke="#666666" points="386.25,-172 302,-172 302,-152 386.25,-152 386.25,-172"/>
<text text-anchor="middle" x="344.12" y="-158.5" font-family="Helvetica,sans-Serif" font-size="10.00">Override_Speed</text>
</a>
</g>
</g>
<!-- Node2&#45;&gt;Node5 -->
<g id="edge4_Node000002_Node000005" class="edge">
<title>Node2&#45;&gt;Node5</title>
<g id="a_edge4_Node000002_Node000005"><a xlink:title=" ">
<path fill="none" stroke="#63b8ff" d="M231.45,-142.74C250.67,-146.05 272.05,-149.74 290.92,-153"/>
<polygon fill="#63b8ff" stroke="#63b8ff" points="290.26,-156.61 300.71,-154.86 291.45,-149.71 290.26,-156.61"/>
</a>
</g>
</g>
<!-- Node6 -->
<g id="Node000006" class="node">
<title>Node6</title>
<g id="a_Node000006"><a xlink:href="a00501.html#gad7e38e334c2209a2a296bf3f573fed78" target="_top" xlink:title="Update the fan speed.">
<polygon fill="white" stroke="#666666" points="384,-134 304.25,-134 304.25,-114 384,-114 384,-134"/>
<text text-anchor="middle" x="344.12" y="-120.5" font-family="Helvetica,sans-Serif" font-size="10.00">Update_Speed</text>
</a>
</g>
</g>
<!-- Node2&#45;&gt;Node6 -->
<g id="edge5_Node000002_Node000006" class="edge">
<title>Node2&#45;&gt;Node6</title>
<g id="a_edge5_Node000002_Node000006"><a xlink:title=" ">
<path fill="none" stroke="#63b8ff" d="M231.45,-129.98C251.4,-128.91 273.68,-127.72 293.07,-126.68"/>
<polygon fill="#63b8ff" stroke="#63b8ff" points="293,-130.13 302.8,-126.11 292.63,-123.14 293,-130.13"/>
</a>
</g>
</g>
<!-- Node4 -->
<g id="Node000004" class="node">
<title>Node4</title>
<g id="a_Node000004"><a xlink:href="a00501.html#ga3ba0ef09cbd1274a9c325fc04cab411d" target="_top" xlink:title="Converts the percentage value to number of ticks.">
<polygon fill="white" stroke="#666666" points="586.38,-210 455.62,-210 455.62,-190 586.38,-190 586.38,-210"/>
<text text-anchor="middle" x="521" y="-196.5" font-family="Helvetica,sans-Serif" font-size="10.00">Convert_From_Percentage</text>
</a>
</g>
</g>
<!-- Node3&#45;&gt;Node4 -->
<g id="edge3_Node000003_Node000004" class="edge">
<title>Node3&#45;&gt;Node4</title>
<g id="a_edge3_Node000003_Node000004"><a xlink:title=" ">
<path fill="none" stroke="#63b8ff" d="M389.25,-200C406,-200 425.58,-200 444.42,-200"/>
<polygon fill="#63b8ff" stroke="#63b8ff" points="444.4,-203.5 454.4,-200 444.4,-196.5 444.4,-203.5"/>
</a>
</g>
</g>
<!-- Node7 -->
<g id="Node000007" class="node">
<title>Node7</title>
<g id="a_Node000007"><a xlink:href="a00290.html#a1adc887cf6c46c0eed096f1e8d203cae" target="_top" xlink:title=" ">
<polygon fill="white" stroke="#666666" points="571,-134 471,-134 471,-114 571,-114 571,-134"/>
<text text-anchor="middle" x="521" y="-120.5" font-family="Helvetica,sans-Serif" font-size="10.00">Convert_From_Raw</text>
</a>
</g>
</g>
<!-- Node6&#45;&gt;Node7 -->
<g id="edge6_Node000006_Node000007" class="edge">
<title>Node6&#45;&gt;Node7</title>
<g id="a_edge6_Node000006_Node000007"><a xlink:title=" ">
<path fill="none" stroke="#63b8ff" d="M384.37,-124C406.56,-124 434.78,-124 459.72,-124"/>
<polygon fill="#63b8ff" stroke="#63b8ff" points="459.55,-127.5 469.55,-124 459.55,-120.5 459.55,-127.5"/>
</a>
</g>
</g>
<!-- Node9 -->
<g id="Node000009" class="node">
<title>Node9</title>
<g id="a_Node000009"><a xlink:href="a00498.html#ga49e1c9ea3a6a543de5e0db0328595ab4" target="_top" xlink:title="Handles the fault trip by turning off the power control switching.">
<polygon fill="white" stroke="#666666" points="392.62,-96 295.62,-96 295.62,-76 392.62,-76 392.62,-96"/>
<text text-anchor="middle" x="344.12" y="-82.5" font-family="Helvetica,sans-Serif" font-size="10.00">Dev_Fault_Handler</text>
</a>
</g>
</g>
<!-- Node8&#45;&gt;Node9 -->
<g id="edge8_Node000008_Node000009" class="edge">
<title>Node8&#45;&gt;Node9</title>
<g id="a_edge8_Node000008_Node000009"><a xlink:title=" ">
<path fill="none" stroke="#63b8ff" d="M235.7,-79.61C251.59,-80.56 268.7,-81.57 284.49,-82.51"/>
<polygon fill="#63b8ff" stroke="#63b8ff" points="283.98,-86.05 294.17,-83.15 284.4,-79.06 283.98,-86.05"/>
</a>
</g>
</g>
<!-- Node14 -->
<g id="Node000014" class="node">
<title>Node14</title>
<g id="a_Node000014"><a xlink:href="a00503.html#ga6ce3446cb43022df6a5a96c90ec70a17" target="_top" xlink:title="Gets the temperature ADC sample.">
<polygon fill="white" stroke="#666666" points="417,-58 271.25,-58 271.25,-38 417,-38 417,-58"/>
<text text-anchor="middle" x="344.12" y="-44.5" font-family="Helvetica,sans-Serif" font-size="10.00">Dev_Temp_Get_ADC_Sample</text>
</a>
</g>
</g>
<!-- Node8&#45;&gt;Node14 -->
<g id="edge13_Node000008_Node000014" class="edge">
<title>Node8&#45;&gt;Node14</title>
<g id="a_edge13_Node000008_Node000014"><a xlink:title=" ">
<path fill="none" stroke="#63b8ff" d="M235.7,-65.89C246.67,-64.06 258.23,-62.14 269.53,-60.26"/>
<polygon fill="#63b8ff" stroke="#63b8ff" points="269.96,-63.57 279.25,-58.47 268.81,-56.66 269.96,-63.57"/>
</a>
</g>
</g>
<!-- Node16 -->
<g id="Node000016" class="node">
<title>Node16</title>
<g id="a_Node000016"><a xlink:href="a00499.html#gabe4788eb1b8be3ad755eb7daf6bba295" target="_top" xlink:title="This function compares the fault source value with the threshold limits and sets (or) resets the faul...">
<polygon fill="white" stroke="#666666" points="391.5,-20 296.75,-20 296.75,0 391.5,0 391.5,-20"/>
<text text-anchor="middle" x="344.12" y="-6.5" font-family="Helvetica,sans-Serif" font-size="10.00">FAULT_CheckMin</text>
</a>
</g>
</g>
<!-- Node8&#45;&gt;Node16 -->
<g id="edge15_Node000008_Node000016" class="edge">
<title>Node8&#45;&gt;Node16</title>
<g id="a_edge15_Node000008_Node000016"><a xlink:title=" ">
<path fill="none" stroke="#63b8ff" d="M215.03,-65.58C221.95,-63.17 228.94,-60.31 235.25,-57 253.2,-47.58 253.08,-37.99 271.25,-29 276.04,-26.63 281.17,-24.52 286.39,-22.67"/>
<polygon fill="#63b8ff" stroke="#63b8ff" points="287.06,-25.8 295.5,-19.39 284.9,-19.15 287.06,-25.8"/>
</a>
</g>
</g>
<!-- Node10 -->
<g id="Node000010" class="node">
<title>Node10</title>
<g id="a_Node000010"><a xlink:href="a00491.html#ga209e7835d32aaf5a402b470b61284bdf" target="_top" xlink:title="Disable the PWM output.">
<polygon fill="white" stroke="#666666" points="589,-96 453,-96 453,-76 589,-76 589,-96"/>
<text text-anchor="middle" x="521" y="-82.5" font-family="Helvetica,sans-Serif" font-size="10.00">Dev_PwrCtrl_PWM_Disable</text>
</a>
</g>
</g>
<!-- Node9&#45;&gt;Node10 -->
<g id="edge9_Node000009_Node000010" class="edge">
<title>Node9&#45;&gt;Node10</title>
<g id="a_edge9_Node000009_Node000010"><a xlink:title=" ">
<path fill="none" stroke="#63b8ff" d="M392.91,-86C408.01,-86 425.11,-86 441.76,-86"/>
<polygon fill="#63b8ff" stroke="#63b8ff" points="441.61,-89.5 451.61,-86 441.61,-82.5 441.61,-89.5"/>
</a>
</g>
</g>
<!-- Node11 -->
<g id="Node000011" class="node">
<title>Node11</title>
<g id="a_Node000011"><a xlink:href="a00516.html#ga531b59d8823e3ebda2da60f48582bcf3" target="_top" xlink:title="This inline function enables PWM override on PWMH output for specific PWM generator selected by the a...">
<polygon fill="white" stroke="#666666" points="765.5,-134 634.75,-134 634.75,-114 765.5,-114 765.5,-134"/>
<text text-anchor="middle" x="700.12" y="-120.5" font-family="Helvetica,sans-Serif" font-size="10.00">PWM_OverrideHighEnable</text>
</a>
</g>
</g>
<!-- Node10&#45;&gt;Node11 -->
<g id="edge10_Node000010_Node000011" class="edge">
<title>Node10&#45;&gt;Node11</title>
<g id="a_edge10_Node000010_Node000011"><a xlink:title=" ">
<path fill="none" stroke="#63b8ff" d="M570.87,-96.48C592.16,-101.05 617.32,-106.45 639.69,-111.25"/>
<polygon fill="#63b8ff" stroke="#63b8ff" points="638.9,-114.87 649.42,-113.55 640.37,-108.03 638.9,-114.87"/>
</a>
</g>
</g>
<!-- Node12 -->
<g id="Node000012" class="node">
<title>Node12</title>
<g id="a_Node000012"><a xlink:href="a00516.html#ga2548ca8feda75ba6ab784280679da6ae" target="_top" xlink:title="This inline function enables PWM override on PWML output for specific PWM generator selected by the a...">
<polygon fill="white" stroke="#666666" points="764.38,-96 635.88,-96 635.88,-76 764.38,-76 764.38,-96"/>
<text text-anchor="middle" x="700.12" y="-82.5" font-family="Helvetica,sans-Serif" font-size="10.00">PWM_OverrideLowEnable</text>
</a>
</g>
</g>
<!-- Node10&#45;&gt;Node12 -->
<g id="edge11_Node000010_Node000012" class="edge">
<title>Node10&#45;&gt;Node12</title>
<g id="a_edge11_Node000010_Node000012"><a xlink:title=" ">
<path fill="none" stroke="#63b8ff" d="M589.47,-86C601.07,-86 613.19,-86 624.95,-86"/>
<polygon fill="#63b8ff" stroke="#63b8ff" points="624.64,-89.5 634.64,-86 624.64,-82.5 624.64,-89.5"/>
</a>
</g>
</g>
<!-- Node13 -->
<g id="Node000013" class="node">
<title>Node13</title>
<g id="a_Node000013"><a xlink:href="a00516.html#ga83e780358618114f0d424ca7467cf751" target="_top" xlink:title="This inline function requests to update the data registers for specific PWM generator selected by the...">
<polygon fill="white" stroke="#666666" points="775.25,-58 625,-58 625,-38 775.25,-38 775.25,-58"/>
<text text-anchor="middle" x="700.12" y="-44.5" font-family="Helvetica,sans-Serif" font-size="10.00">PWM_SoftwareUpdateRequest</text>
</a>
</g>
</g>
<!-- Node10&#45;&gt;Node13 -->
<g id="edge12_Node000010_Node000013" class="edge">
<title>Node10&#45;&gt;Node13</title>
<g id="a_edge12_Node000010_Node000013"><a xlink:title=" ">
<path fill="none" stroke="#63b8ff" d="M570.87,-75.52C592.16,-70.95 617.32,-65.55 639.69,-60.75"/>
<polygon fill="#63b8ff" stroke="#63b8ff" points="640.37,-63.97 649.42,-58.45 638.9,-57.13 640.37,-63.97"/>
</a>
</g>
</g>
<!-- Node15 -->
<g id="Node000015" class="node">
<title>Node15</title>
<g id="a_Node000015"><a xlink:href="a00494.html#ga97590a3e3a8b680b67e206dd91fb8dce" target="_top" xlink:title="API function to get the raw ADC value for temperature.">
<polygon fill="white" stroke="#666666" points="574.38,-58 467.62,-58 467.62,-26 574.38,-26 574.38,-58"/>
<text text-anchor="start" x="475.62" y="-44.5" font-family="Helvetica,sans-Serif" font-size="10.00">Dev_PwrCtrl_GetAdc</text>
<text text-anchor="middle" x="521" y="-32.5" font-family="Helvetica,sans-Serif" font-size="10.00">_Temperature</text>
</a>
</g>
</g>
<!-- Node14&#45;&gt;Node15 -->
<g id="edge14_Node000014_Node000015" class="edge">
<title>Node14&#45;&gt;Node15</title>
<g id="a_edge14_Node000014_Node000015"><a xlink:title=" ">
<path fill="none" stroke="#63b8ff" d="M417.26,-45.52C430.22,-45.08 443.63,-44.62 456.32,-44.18"/>
<polygon fill="#63b8ff" stroke="#63b8ff" points="456.39,-47.65 466.26,-43.81 456.15,-40.65 456.39,-47.65"/>
</a>
</g>
</g>
</g>
</svg>
