<?xml version="1.0" encoding="UTF-8" standalone="no"?>
<!DOCTYPE svg PUBLIC "-//W3C//DTD SVG 1.1//EN"
 "http://www.w3.org/Graphics/SVG/1.1/DTD/svg11.dtd">
<!-- Generated by graphviz version 8.1.0 (20230707.0739)
 -->
<!-- Title: Tasks_10ms Pages: 1 -->
<svg width="756pt" height="370pt"
 viewBox="0.00 0.00 756.25 370.00" xmlns="http://www.w3.org/2000/svg" xmlns:xlink="http://www.w3.org/1999/xlink">
<g id="graph0" class="graph" transform="scale(1 1) rotate(0) translate(4 366)">
<title>Tasks_10ms</title>
<!-- Node1 -->
<g id="Node000001" class="node">
<title>Node1</title>
<g id="a_Node000001"><a xlink:title="Tasks_10ms gets called every 10ms, put your things in it that need to be called regularly.">
<polygon fill="#999999" stroke="#666666" points="71.5,-166 0,-166 0,-146 71.5,-146 71.5,-166"/>
<text text-anchor="middle" x="35.75" y="-152.5" font-family="Helvetica,sans-Serif" font-size="10.00">Tasks_10ms</text>
</a>
</g>
</g>
<!-- Node2 -->
<g id="Node000002" class="node">
<title>Node2</title>
<g id="a_Node000002"><a xlink:href="a00495.html#ga4de477d51ea04cdcfcb1e3eb3ef0053a" target="_top" xlink:title="10ms PBV task to be execution">
<polygon fill="white" stroke="#666666" points="247.25,-204 107.5,-204 107.5,-184 247.25,-184 247.25,-204"/>
<text text-anchor="middle" x="177.38" y="-190.5" font-family="Helvetica,sans-Serif" font-size="10.00">App_PBV_DAB_Task_10ms</text>
</a>
</g>
</g>
<!-- Node1&#45;&gt;Node2 -->
<g id="edge1_Node000001_Node000002" class="edge">
<title>Node1&#45;&gt;Node2</title>
<g id="a_edge1_Node000001_Node000002"><a xlink:title=" ">
<path fill="none" stroke="#63b8ff" d="M71.98,-165.59C88.87,-170.18 109.36,-175.76 127.7,-180.75"/>
<polygon fill="#63b8ff" stroke="#63b8ff" points="126.64,-184.36 137.21,-183.61 128.48,-177.61 126.64,-184.36"/>
</a>
</g>
</g>
<!-- Node19 -->
<g id="Node000019" class="node">
<title>Node19</title>
<g id="a_Node000019"><a xlink:href="a00493.html#ga29c25924bdc76c615288681bf1b17893" target="_top" xlink:title="task to be executed every 10ms">
<polygon fill="white" stroke="#666666" points="234.5,-147 120.25,-147 120.25,-127 234.5,-127 234.5,-147"/>
<text text-anchor="middle" x="177.38" y="-133.5" font-family="Helvetica,sans-Serif" font-size="10.00">App_PBV_Task_10ms</text>
</a>
</g>
</g>
<!-- Node1&#45;&gt;Node19 -->
<g id="edge18_Node000001_Node000019" class="edge">
<title>Node1&#45;&gt;Node19</title>
<g id="a_edge18_Node000001_Node000019"><a xlink:title=" ">
<path fill="none" stroke="#63b8ff" d="M71.98,-151.21C83.34,-149.66 96.34,-147.89 109.21,-146.14"/>
<polygon fill="#63b8ff" stroke="#63b8ff" points="109.52,-149.49 118.96,-144.68 108.58,-142.56 109.52,-149.49"/>
</a>
</g>
</g>
<!-- Node3 -->
<g id="Node000003" class="node">
<title>Node3</title>
<g id="a_Node000003"><a xlink:href="a00493.html#ga7b078af24577006b714fabf52a93c4f1" target="_top" xlink:title=" ">
<polygon fill="white" stroke="#666666" points="398.62,-292 293.38,-292 293.38,-260 398.62,-260 398.62,-292"/>
<text text-anchor="start" x="301.38" y="-278.5" font-family="Helvetica,sans-Serif" font-size="10.00">App_Read_Received</text>
<text text-anchor="middle" x="346" y="-266.5" font-family="Helvetica,sans-Serif" font-size="10.00">_From_PBV</text>
</a>
</g>
</g>
<!-- Node2&#45;&gt;Node3 -->
<g id="edge2_Node000002_Node000003" class="edge">
<title>Node2&#45;&gt;Node3</title>
<g id="a_edge2_Node000002_Node000003"><a xlink:title=" ">
<path fill="none" stroke="#63b8ff" d="M195.87,-204.3C216.44,-216.23 251.77,-236.13 283.25,-251 286.24,-252.41 289.33,-253.82 292.46,-255.21"/>
<polygon fill="#63b8ff" stroke="#63b8ff" points="290.97,-258.81 301.54,-259.55 293.74,-252.38 290.97,-258.81"/>
</a>
</g>
</g>
<!-- Node4 -->
<g id="Node000004" class="node">
<title>Node4</title>
<g id="a_Node000004"><a xlink:href="a00493.html#gaf88c754c75b6057cf183685d282a2fe6" target="_top" xlink:title=" ">
<polygon fill="white" stroke="#666666" points="408.75,-242 283.25,-242 283.25,-222 408.75,-222 408.75,-242"/>
<text text-anchor="middle" x="346" y="-228.5" font-family="Helvetica,sans-Serif" font-size="10.00">App_Receive_From_PBV</text>
</a>
</g>
</g>
<!-- Node2&#45;&gt;Node4 -->
<g id="edge3_Node000002_Node000004" class="edge">
<title>Node2&#45;&gt;Node4</title>
<g id="a_edge3_Node000002_Node000004"><a xlink:title=" ">
<path fill="none" stroke="#63b8ff" d="M224.35,-204.48C244.2,-209.01 267.62,-214.35 288.51,-219.12"/>
<polygon fill="#63b8ff" stroke="#63b8ff" points="287.65,-222.74 298.18,-221.55 289.21,-215.91 287.65,-222.74"/>
</a>
</g>
</g>
<!-- Node5 -->
<g id="Node000005" class="node">
<title>Node5</title>
<g id="a_Node000005"><a xlink:href="a00493.html#ga39ed8d2ee366abaf4aa95a424f9108e3" target="_top" xlink:title=" ">
<polygon fill="white" stroke="#666666" points="397.12,-204 294.88,-204 294.88,-184 397.12,-184 397.12,-204"/>
<text text-anchor="middle" x="346" y="-190.5" font-family="Helvetica,sans-Serif" font-size="10.00">App_Send_To_PBV</text>
</a>
</g>
</g>
<!-- Node2&#45;&gt;Node5 -->
<g id="edge4_Node000002_Node000005" class="edge">
<title>Node2&#45;&gt;Node5</title>
<g id="a_edge4_Node000002_Node000005"><a xlink:title=" ">
<path fill="none" stroke="#63b8ff" d="M247.59,-194C259.52,-194 271.84,-194 283.54,-194"/>
<polygon fill="#63b8ff" stroke="#63b8ff" points="283.54,-197.5 293.54,-194 283.54,-190.5 283.54,-197.5"/>
</a>
</g>
</g>
<!-- Node6 -->
<g id="Node000006" class="node">
<title>Node6</title>
<g id="a_Node000006"><a xlink:href="a00495.html#gae7f76d2864d9f99538052487fb4c9570" target="_top" xlink:title="default callback">
<polygon fill="white" stroke="#666666" points="375.75,-166 316.25,-166 316.25,-146 375.75,-146 375.75,-166"/>
<text text-anchor="middle" x="346" y="-152.5" font-family="Helvetica,sans-Serif" font-size="10.00">protocolID</text>
</a>
</g>
</g>
<!-- Node2&#45;&gt;Node6 -->
<g id="edge5_Node000002_Node000006" class="edge">
<title>Node2&#45;&gt;Node6</title>
<g id="a_edge5_Node000002_Node000006"><a xlink:title=" ">
<path fill="none" stroke="#63b8ff" d="M224.35,-183.52C249.74,-177.72 280.97,-170.6 305.3,-165.05"/>
<polygon fill="#63b8ff" stroke="#63b8ff" points="305.97,-168.26 314.94,-162.63 304.41,-161.44 305.97,-168.26"/>
</a>
</g>
</g>
<!-- Node7 -->
<g id="Node000007" class="node">
<title>Node7</title>
<g id="a_Node000007"><a xlink:href="a00495.html#gaf2b5ec7aa4bf88b00eaa69cfeba83160" target="_top" xlink:title="process received data">
<polygon fill="white" stroke="#666666" points="570.62,-197 445.12,-197 445.12,-165 570.62,-165 570.62,-197"/>
<text text-anchor="start" x="453.12" y="-183.5" font-family="Helvetica,sans-Serif" font-size="10.00">App_PBV_DAB_Process</text>
<text text-anchor="middle" x="507.88" y="-171.5" font-family="Helvetica,sans-Serif" font-size="10.00">_Rx_Data</text>
</a>
</g>
</g>
<!-- Node6&#45;&gt;Node7 -->
<g id="edge6_Node000006_Node000007" class="edge">
<title>Node6&#45;&gt;Node7</title>
<g id="a_edge6_Node000006_Node000007"><a xlink:title=" ">
<path fill="none" stroke="#63b8ff" d="M375.95,-160.53C392.27,-163.08 413.46,-166.39 434.02,-169.61"/>
<polygon fill="#63b8ff" stroke="#63b8ff" points="433.26,-173.19 443.68,-171.28 434.35,-166.27 433.26,-173.19"/>
</a>
</g>
</g>
<!-- Node18 -->
<g id="Node000018" class="node">
<title>Node18</title>
<g id="a_Node000018"><a xlink:href="a00493.html#gaf92cac9156ceacf492c28455ba3c75f5" target="_top" xlink:title=" ">
<polygon fill="white" stroke="#666666" points="571,-147 444.75,-147 444.75,-115 571,-115 571,-147"/>
<text text-anchor="start" x="452.75" y="-133.5" font-family="Helvetica,sans-Serif" font-size="10.00">PBV_Change_from_Eight</text>
<text text-anchor="middle" x="507.88" y="-121.5" font-family="Helvetica,sans-Serif" font-size="10.00">_to_Sixteen</text>
</a>
</g>
</g>
<!-- Node6&#45;&gt;Node18 -->
<g id="edge17_Node000006_Node000018" class="edge">
<title>Node6&#45;&gt;Node18</title>
<g id="a_edge17_Node000006_Node000018"><a xlink:title=" ">
<path fill="none" stroke="#63b8ff" d="M375.95,-151.47C392.2,-148.93 413.26,-145.64 433.73,-142.44"/>
<polygon fill="#63b8ff" stroke="#63b8ff" points="434.01,-145.78 443.35,-140.78 432.93,-138.86 434.01,-145.78"/>
</a>
</g>
</g>
<!-- Node8 -->
<g id="Node000008" class="node">
<title>Node8</title>
<g id="a_Node000008"><a xlink:href="a00499.html#ga5cfd61659ae6b17ad25e51bfc211723b" target="_top" xlink:title="Sets the fan speed.">
<polygon fill="white" stroke="#666666" points="731,-362 624.25,-362 624.25,-342 731,-342 731,-362"/>
<text text-anchor="middle" x="677.62" y="-348.5" font-family="Helvetica,sans-Serif" font-size="10.00">Dev_Fan_Set_Speed</text>
</a>
</g>
</g>
<!-- Node7&#45;&gt;Node8 -->
<g id="edge7_Node000007_Node000008" class="edge">
<title>Node7&#45;&gt;Node8</title>
<g id="a_edge7_Node000007_Node000008"><a xlink:title=" ">
<path fill="none" stroke="#63b8ff" d="M514.7,-197.09C526.83,-228.27 557.83,-297 607,-333 609.34,-334.71 611.82,-336.27 614.4,-337.68"/>
<polygon fill="#63b8ff" stroke="#63b8ff" points="612.57,-341.16 623.11,-342.22 615.53,-334.82 612.57,-341.16"/>
</a>
</g>
</g>
<!-- Node9 -->
<g id="Node000009" class="node">
<title>Node9</title>
<g id="a_Node000009"><a xlink:href="a00511.html#gad6514b638a32baed68543a56bedd5c5d" target="_top" xlink:title="API function to get the PWM duty cycle.">
<polygon fill="white" stroke="#666666" points="747.5,-324 607.75,-324 607.75,-304 747.5,-304 747.5,-324"/>
<text text-anchor="middle" x="677.62" y="-310.5" font-family="Helvetica,sans-Serif" font-size="10.00">Dev_PwrCtrl_Get_DutyCycle</text>
</a>
</g>
</g>
<!-- Node7&#45;&gt;Node9 -->
<g id="edge8_Node000007_Node000009" class="edge">
<title>Node7&#45;&gt;Node9</title>
<g id="a_edge8_Node000007_Node000009"><a xlink:title=" ">
<path fill="none" stroke="#63b8ff" d="M518.4,-197.3C533.81,-222.19 566.59,-269.48 607,-295 609.45,-296.55 612.02,-297.97 614.68,-299.28"/>
<polygon fill="#63b8ff" stroke="#63b8ff" points="613.01,-302.8 623.58,-303.53 615.77,-296.37 613.01,-302.8"/>
</a>
</g>
</g>
<!-- Node10 -->
<g id="Node000010" class="node">
<title>Node10</title>
<g id="a_Node000010"><a xlink:href="a00511.html#gae5e607ebc1cfbf0fcb8caa5775d5e782" target="_top" xlink:title="API function to set the power control State.">
<polygon fill="white" stroke="#666666" points="733.62,-286 621.62,-286 621.62,-266 733.62,-266 733.62,-286"/>
<text text-anchor="middle" x="677.62" y="-272.5" font-family="Helvetica,sans-Serif" font-size="10.00">Dev_PwrCtrl_SetState</text>
</a>
</g>
</g>
<!-- Node7&#45;&gt;Node10 -->
<g id="edge9_Node000007_Node000010" class="edge">
<title>Node7&#45;&gt;Node10</title>
<g id="a_edge9_Node000007_Node000010"><a xlink:title=" ">
<path fill="none" stroke="#63b8ff" d="M525.53,-197.28C544,-214.47 575.38,-241.23 607,-257 610.57,-258.78 614.34,-260.42 618.19,-261.91"/>
<polygon fill="#63b8ff" stroke="#63b8ff" points="616.92,-265.52 627.51,-265.54 619.24,-258.92 616.92,-265.52"/>
</a>
</g>
</g>
<!-- Node11 -->
<g id="Node000011" class="node">
<title>Node11</title>
<g id="a_Node000011"><a xlink:href="a00511.html#ga071b955cb9687b27b8ce895a29febc66" target="_top" xlink:title="API function to set the power control enable bit.">
<polygon fill="white" stroke="#666666" points="726.5,-248 628.75,-248 628.75,-228 726.5,-228 726.5,-248"/>
<text text-anchor="middle" x="677.62" y="-234.5" font-family="Helvetica,sans-Serif" font-size="10.00">PwrCtrl_SetEnable</text>
</a>
</g>
</g>
<!-- Node7&#45;&gt;Node11 -->
<g id="edge10_Node000007_Node000011" class="edge">
<title>Node7&#45;&gt;Node11</title>
<g id="a_edge10_Node000007_Node000011"><a xlink:title=" ">
<path fill="none" stroke="#63b8ff" d="M548.64,-197.47C566.35,-204.53 587.56,-212.6 607,-219 612.87,-220.93 619.06,-222.83 625.24,-224.62"/>
<polygon fill="#63b8ff" stroke="#63b8ff" points="623.97,-228.19 634.55,-227.55 625.88,-221.45 623.97,-228.19"/>
</a>
</g>
</g>
<!-- Node12 -->
<g id="Node000012" class="node">
<title>Node12</title>
<g id="a_Node000012"><a xlink:href="a00511.html#ga70c7b962e7df84e7d49fd37a76826059" target="_top" xlink:title="API function to set the current controller reference.">
<polygon fill="white" stroke="#666666" points="734.38,-210 620.88,-210 620.88,-190 734.38,-190 734.38,-210"/>
<text text-anchor="middle" x="677.62" y="-196.5" font-family="Helvetica,sans-Serif" font-size="10.00">PwrCtrl_SetIReference</text>
</a>
</g>
</g>
<!-- Node7&#45;&gt;Node12 -->
<g id="edge11_Node000007_Node000012" class="edge">
<title>Node7&#45;&gt;Node12</title>
<g id="a_edge11_Node000007_Node000012"><a xlink:title=" ">
<path fill="none" stroke="#63b8ff" d="M570.86,-188.02C583.55,-189.46 596.96,-190.98 609.8,-192.43"/>
<polygon fill="#63b8ff" stroke="#63b8ff" points="609.11,-195.99 619.44,-193.64 609.89,-189.03 609.11,-195.99"/>
</a>
</g>
</g>
<!-- Node13 -->
<g id="Node000013" class="node">
<title>Node13</title>
<g id="a_Node000013"><a xlink:href="a00511.html#ga80737f595e2855e9361772d2c1a9852d" target="_top" xlink:title="API function to set the target prim to sec phase which will steer other modulation.">
<polygon fill="white" stroke="#666666" points="748.25,-172 607,-172 607,-152 748.25,-152 748.25,-172"/>
<text text-anchor="middle" x="677.62" y="-158.5" font-family="Helvetica,sans-Serif" font-size="10.00">PwrCtrl_SetP2SPhaseTarget</text>
</a>
</g>
</g>
<!-- Node7&#45;&gt;Node13 -->
<g id="edge12_Node000007_Node000013" class="edge">
<title>Node7&#45;&gt;Node13</title>
<g id="a_edge12_Node000007_Node000013"><a xlink:title=" ">
<path fill="none" stroke="#63b8ff" d="M570.86,-173.98C579.07,-173.05 587.57,-172.09 596.03,-171.13"/>
<polygon fill="#63b8ff" stroke="#63b8ff" points="596.15,-174.52 605.69,-169.92 595.36,-167.57 596.15,-174.52"/>
</a>
</g>
</g>
<!-- Node14 -->
<g id="Node000014" class="node">
<title>Node14</title>
<g id="a_Node000014"><a xlink:href="a00511.html#ga75fdd46231baccc4830fa08d2b39a3d2" target="_top" xlink:title="API function to set the target period.">
<polygon fill="white" stroke="#666666" points="738.88,-134 616.38,-134 616.38,-114 738.88,-114 738.88,-134"/>
<text text-anchor="middle" x="677.62" y="-120.5" font-family="Helvetica,sans-Serif" font-size="10.00">PwrCtrl_SetPeriodTarget</text>
</a>
</g>
</g>
<!-- Node7&#45;&gt;Node14 -->
<g id="edge13_Node000007_Node000014" class="edge">
<title>Node7&#45;&gt;Node14</title>
<g id="a_edge13_Node000007_Node000014"><a xlink:title=" ">
<path fill="none" stroke="#63b8ff" d="M550.12,-164.54C571.75,-156.01 595.98,-146.63 607,-143 612.87,-141.07 619.06,-139.17 625.24,-137.38"/>
<polygon fill="#63b8ff" stroke="#63b8ff" points="625.88,-140.55 634.55,-134.45 623.97,-133.81 625.88,-140.55"/>
</a>
</g>
</g>
<!-- Node15 -->
<g id="Node000015" class="node">
<title>Node15</title>
<g id="a_Node000015"><a xlink:href="a00511.html#gae62d241af8152bb7989d448f30adc55e" target="_top" xlink:title="API function to set the target PWM phase.">
<polygon fill="white" stroke="#666666" points="738.88,-96 616.38,-96 616.38,-76 738.88,-76 738.88,-96"/>
<text text-anchor="middle" x="677.62" y="-82.5" font-family="Helvetica,sans-Serif" font-size="10.00">PwrCtrl_SetPhaseTarget</text>
</a>
</g>
</g>
<!-- Node7&#45;&gt;Node15 -->
<g id="edge14_Node000007_Node000015" class="edge">
<title>Node7&#45;&gt;Node15</title>
<g id="a_edge14_Node000007_Node000015"><a xlink:title=" ">
<path fill="none" stroke="#63b8ff" d="M557.55,-164.66C562.32,-162.12 566.9,-159.25 571,-156 592.76,-138.78 584.28,-120.92 607,-105 609,-103.6 611.1,-102.3 613.27,-101.1"/>
<polygon fill="#63b8ff" stroke="#63b8ff" points="614.64,-103.85 622.18,-96.41 611.64,-97.52 614.64,-103.85"/>
</a>
</g>
</g>
<!-- Node16 -->
<g id="Node000016" class="node">
<title>Node16</title>
<g id="a_Node000016"><a xlink:href="a00511.html#ga574faff7b911d52ae6d2cf53b68a8963" target="_top" xlink:title="API function to set the power controller reference.">
<polygon fill="white" stroke="#666666" points="741.5,-58 613.75,-58 613.75,-38 741.5,-38 741.5,-58"/>
<text text-anchor="middle" x="677.62" y="-44.5" font-family="Helvetica,sans-Serif" font-size="10.00">PwrCtrl_SetPwrReference</text>
</a>
</g>
</g>
<!-- Node7&#45;&gt;Node16 -->
<g id="edge15_Node000007_Node000016" class="edge">
<title>Node7&#45;&gt;Node16</title>
<g id="a_edge15_Node000007_Node000016"><a xlink:title=" ">
<path fill="none" stroke="#63b8ff" d="M559.89,-164.66C563.93,-162.15 567.71,-159.29 571,-156 601.2,-125.86 575.1,-95.34 607,-67 608.2,-65.93 609.45,-64.93 610.75,-63.98"/>
<polygon fill="#63b8ff" stroke="#63b8ff" points="612.14,-66.62 618.91,-58.47 608.54,-60.62 612.14,-66.62"/>
</a>
</g>
</g>
<!-- Node17 -->
<g id="Node000017" class="node">
<title>Node17</title>
<g id="a_Node000017"><a xlink:href="a00511.html#ga919933b7bef6f9fa8094848c413e7881" target="_top" xlink:title="API function to set the secondary voltage controller reference.">
<polygon fill="white" stroke="#666666" points="745.25,-20 610,-20 610,0 745.25,0 745.25,-20"/>
<text text-anchor="middle" x="677.62" y="-6.5" font-family="Helvetica,sans-Serif" font-size="10.00">PwrCtrl_SetVSecReference</text>
</a>
</g>
</g>
<!-- Node7&#45;&gt;Node17 -->
<g id="edge16_Node000007_Node000017" class="edge">
<title>Node7&#45;&gt;Node17</title>
<g id="a_edge16_Node000007_Node000017"><a xlink:title=" ">
<path fill="none" stroke="#63b8ff" d="M560.87,-164.64C564.6,-162.15 568.05,-159.29 571,-156 610.22,-112.37 565.31,-70.28 607,-29 607.98,-28.03 609,-27.11 610.06,-26.24"/>
<polygon fill="#63b8ff" stroke="#63b8ff" points="611.45,-28.85 617.84,-20.4 607.57,-23.02 611.45,-28.85"/>
</a>
</g>
</g>
<!-- Node20 -->
<g id="Node000020" class="node">
<title>Node20</title>
<g id="a_Node000020"><a xlink:href="a00493.html#ga779af4e1b7fd3111ccb7ade537d98efb" target="_top" xlink:title=" ">
<polygon fill="white" stroke="#666666" points="388.5,-128 303.5,-128 303.5,-108 388.5,-108 388.5,-128"/>
<text text-anchor="middle" x="346" y="-114.5" font-family="Helvetica,sans-Serif" font-size="10.00">App_PBV_Task</text>
</a>
</g>
</g>
<!-- Node19&#45;&gt;Node20 -->
<g id="edge19_Node000019_Node000020" class="edge">
<title>Node19&#45;&gt;Node20</title>
<g id="a_edge19_Node000019_Node000020"><a xlink:title=" ">
<path fill="none" stroke="#63b8ff" d="M234.79,-130.57C253.4,-128.44 274.03,-126.09 292.35,-124"/>
<polygon fill="#63b8ff" stroke="#63b8ff" points="292.6,-127.38 302.13,-122.77 291.8,-120.43 292.6,-127.38"/>
</a>
</g>
</g>
</g>
</svg>
