<?xml version="1.0" encoding="UTF-8" standalone="no"?>
<!DOCTYPE svg PUBLIC "-//W3C//DTD SVG 1.1//EN"
 "http://www.w3.org/Graphics/SVG/1.1/DTD/svg11.dtd">
<!-- Generated by graphviz version 8.1.0 (20230707.0739)
 -->
<!-- Title: Tasks_1s Pages: 1 -->
<svg width="406pt" height="154pt"
 viewBox="0.00 0.00 405.50 154.00" xmlns="http://www.w3.org/2000/svg" xmlns:xlink="http://www.w3.org/1999/xlink">

<svg id="main" version="1.1" xmlns="http://www.w3.org/2000/svg" xmlns:xlink="http://www.w3.org/1999/xlink" xml:space="preserve" onload="init(evt)">
<style type="text/css"><![CDATA[
.node, .edge {opacity: 0.7;}
.node.selected, .edge.selected {opacity: 1;}
.edge:hover path { stroke: red; }
.edge:hover polygon { stroke: red; fill: red; }
]]></style>
<script type="application/ecmascript" xlink:href="svg.min.js"/>
<svg id="graph" class="graph">
<g id="graph0" class="graph" transform="scale(1 1) rotate(0) translate(4 150)">
<title>Tasks_1s</title>
<!-- Node1 -->
<g id="Node000001" class="node">
<title>Node1</title>
<g id="a_Node000001"><a xlink:title="Tasks_1s gets called every second, put your things in it that need to be called regularly.">
<polygon fill="#999999" stroke="#666666" points="58,-83 0,-83 0,-63 58,-63 58,-83"/>
<text text-anchor="middle" x="29" y="-69.5" font-family="Helvetica,sans-Serif" font-size="10.00">Tasks_1s</text>
</a>
</g>
</g>
<!-- Node2 -->
<g id="Node000002" class="node">
<title>Node2</title>
<g id="a_Node000002"><a xlink:href="a00507.html#gad255673713bb77bc36791875207a4393" target="_top" xlink:title="1 second PBV task to be execution">
<polygon fill="white" stroke="#666666" points="220.25,-105 94,-105 94,-85 220.25,-85 220.25,-105"/>
<text text-anchor="middle" x="157.12" y="-91.5" font-family="Helvetica,sans-Serif" font-size="10.00">App_PBV_DAB_Task_1s</text>
</a>
</g>
</g>
<!-- Node1&#45;&gt;Node2 -->
<g id="edge1_Node000001_Node000002" class="edge">
<title>Node1&#45;&gt;Node2</title>
<g id="a_edge1_Node000001_Node000002"><a xlink:title=" ">
<path fill="none" stroke="#63b8ff" d="M58.3,-77.94C66.43,-79.35 75.68,-80.97 85.17,-82.62"/>
<polygon fill="#63b8ff" stroke="#63b8ff" points="84.48,-86.23 94.94,-84.5 85.69,-79.33 84.48,-86.23"/>
</a>
</g>
</g>
<!-- Node6 -->
<g id="Node000006" class="node">
<title>Node6</title>
<g id="a_Node000006"><a xlink:href="a00511.html#gafd7dde7baca2e1dd3a745bf5f8258da7" target="_top" xlink:title="This function needs to be called every 1s to keep the temperature of the board at a certain temperatu...">
<polygon fill="white" stroke="#666666" points="204.88,-64 109.38,-64 109.38,-44 204.88,-44 204.88,-64"/>
<text text-anchor="middle" x="157.12" y="-50.5" font-family="Helvetica,sans-Serif" font-size="10.00">Dev_Fan_Task_1s</text>
</a>
</g>
</g>
<!-- Node1&#45;&gt;Node6 -->
<g id="edge5_Node000001_Node000006" class="edge">
<title>Node1&#45;&gt;Node6</title>
<g id="a_edge5_Node000001_Node000006"><a xlink:title=" ">
<path fill="none" stroke="#63b8ff" d="M58.3,-68.74C70.23,-66.94 84.56,-64.78 98.53,-62.68"/>
<polygon fill="#63b8ff" stroke="#63b8ff" points="98.73,-66.03 108.1,-61.08 97.69,-59.11 98.73,-66.03"/>
</a>
</g>
</g>
<!-- Node3 -->
<g id="Node000003" class="node">
<title>Node3</title>
<g id="a_Node000003"><a xlink:href="a00505.html#gab70a27b3aad7113c3983e82413ca5e4f" target="_top" xlink:title="Reinitializes the objects if any parameters( ID, length, etc) are to be changed to the CAN or UART ob...">
<polygon fill="white" stroke="#666666" points="373.88,-146 279.88,-146 279.88,-126 373.88,-126 373.88,-146"/>
<text text-anchor="middle" x="326.88" y="-132.5" font-family="Helvetica,sans-Serif" font-size="10.00">App_PBV_Re_Init</text>
</a>
</g>
</g>
<!-- Node2&#45;&gt;Node3 -->
<g id="edge2_Node000002_Node000003" class="edge">
<title>Node2&#45;&gt;Node3</title>
<g id="a_edge2_Node000002_Node000003"><a xlink:title=" ">
<path fill="none" stroke="#63b8ff" d="M200.89,-105.45C222.68,-110.78 249.38,-117.3 272.51,-122.96"/>
<polygon fill="#63b8ff" stroke="#63b8ff" points="271.64,-126.59 282.19,-125.57 273.31,-119.79 271.64,-126.59"/>
</a>
</g>
</g>
<!-- Node4 -->
<g id="Node000004" class="node">
<title>Node4</title>
<g id="a_Node000004"><a xlink:href="a00505.html#ga39ed8d2ee366abaf4aa95a424f9108e3" target="_top" xlink:title="This function links the data from application object to the CAN or UART object and &#160;&#160;This function ch...">
<polygon fill="white" stroke="#666666" points="378,-108 275.75,-108 275.75,-88 378,-88 378,-108"/>
<text text-anchor="middle" x="326.88" y="-94.5" font-family="Helvetica,sans-Serif" font-size="10.00">App_Send_To_PBV</text>
</a>
</g>
</g>
<!-- Node2&#45;&gt;Node4 -->
<g id="edge3_Node000002_Node000004" class="edge">
<title>Node2&#45;&gt;Node4</title>
<g id="a_edge3_Node000002_Node000004"><a xlink:title=" ">
<path fill="none" stroke="#63b8ff" d="M220.59,-96.12C234.99,-96.37 250.29,-96.65 264.64,-96.9"/>
<polygon fill="#63b8ff" stroke="#63b8ff" points="264.33,-100.42 274.4,-97.1 264.46,-93.42 264.33,-100.42"/>
</a>
</g>
</g>
<!-- Node5 -->
<g id="Node000005" class="node">
<title>Node5</title>
<g id="a_Node000005"><a xlink:href="a00513.html#gac9618e1ca87e77920c94cdfdcc80321a" target="_top" xlink:title="This converts the raw values to temperature celcius as per device lookup table.">
<polygon fill="white" stroke="#666666" points="397.5,-70 256.25,-70 256.25,-38 397.5,-38 397.5,-70"/>
<text text-anchor="start" x="264.25" y="-56.5" font-family="Helvetica,sans-Serif" font-size="10.00">Dev_Temp_Get_Temperature</text>
<text text-anchor="middle" x="326.88" y="-44.5" font-family="Helvetica,sans-Serif" font-size="10.00">_Celcius</text>
</a>
</g>
</g>
<!-- Node2&#45;&gt;Node5 -->
<g id="edge4_Node000002_Node000005" class="edge">
<title>Node2&#45;&gt;Node5</title>
<g id="a_edge4_Node000002_Node000005"><a xlink:title=" ">
<path fill="none" stroke="#63b8ff" d="M200.89,-84.55C215.22,-81.04 231.68,-77.02 247.85,-73.07"/>
<polygon fill="#63b8ff" stroke="#63b8ff" points="248.53,-76.26 257.41,-70.49 246.87,-69.46 248.53,-76.26"/>
</a>
</g>
</g>
<!-- Node6&#45;&gt;Node5 -->
<g id="edge7_Node000006_Node000005" class="edge">
<title>Node6&#45;&gt;Node5</title>
<g id="a_edge7_Node000006_Node000005"><a xlink:title=" ">
<path fill="none" stroke="#63b8ff" d="M205.3,-54C217.69,-54 231.4,-54 245.02,-54"/>
<polygon fill="#63b8ff" stroke="#63b8ff" points="244.88,-57.5 254.88,-54 244.88,-50.5 244.88,-57.5"/>
</a>
</g>
</g>
<!-- Node7 -->
<g id="Node000007" class="node">
<title>Node7</title>
<g id="a_Node000007"><a xlink:href="a00511.html#ga5cfd61659ae6b17ad25e51bfc211723b" target="_top" xlink:title="Sets the fan speed.">
<polygon fill="white" stroke="#666666" points="380.25,-20 273.5,-20 273.5,0 380.25,0 380.25,-20"/>
<text text-anchor="middle" x="326.88" y="-6.5" font-family="Helvetica,sans-Serif" font-size="10.00">Dev_Fan_Set_Speed</text>
</a>
</g>
</g>
<!-- Node6&#45;&gt;Node7 -->
<g id="edge6_Node000006_Node000007" class="edge">
<title>Node6&#45;&gt;Node7</title>
<g id="a_edge6_Node000006_Node000007"><a xlink:title=" ">
<path fill="none" stroke="#63b8ff" d="M197.88,-43.57C221.19,-37.46 250.86,-29.68 275.77,-23.14"/>
<polygon fill="#63b8ff" stroke="#63b8ff" points="276.33,-26.35 285.12,-20.43 274.55,-19.58 276.33,-26.35"/>
</a>
</g>
</g>
</g>
</svg>
</svg>

<style type='text/css'>
<![CDATA[
[data-mouse-over-selected='false'] { opacity: 0.7; }
[data-mouse-over-selected='true']  { opacity: 1.0; }
]]>
</style>
<script type="application/ecmascript"><![CDATA[
document.addEventListener('DOMContentLoaded', (event) => {
  highlightEdges();
  highlightAdjacentNodes();
});
]]></script>
</svg>
