<?xml version="1.0" encoding="UTF-8" standalone="no"?>
<!DOCTYPE svg PUBLIC "-//W3C//DTD SVG 1.1//EN"
 "http://www.w3.org/Graphics/SVG/1.1/DTD/svg11.dtd">
<!-- Generated by graphviz version 8.1.0 (20230707.0739)
 -->
<!-- Title: PwrCtrl_StartUpInitialize Pages: 1 -->
<svg width="657pt" height="28pt"
 viewBox="0.00 0.00 657.25 28.00" xmlns="http://www.w3.org/2000/svg" xmlns:xlink="http://www.w3.org/1999/xlink">
<g id="graph0" class="graph" transform="scale(1 1) rotate(0) translate(4 24)">
<title>PwrCtrl_StartUpInitialize</title>
<!-- Node1 -->
<g id="Node000001" class="node">
<title>Node1</title>
<g id="a_Node000001"><a xlink:title="Initialize the StartUp Ramp configuration.">
<polygon fill="#999999" stroke="#666666" points="649.25,-20 528.25,-20 528.25,0 649.25,0 649.25,-20"/>
<text text-anchor="middle" x="588.75" y="-6.5" font-family="Helvetica,sans-Serif" font-size="10.00">PwrCtrl_StartUpInitialize</text>
</a>
</g>
</g>
<!-- Node2 -->
<g id="Node000002" class="node">
<title>Node2</title>
<g id="a_Node000002"><a xlink:href="a00542.html#ga2c39b57545ef7b5c79bac36ab30da7d8" target="_top" xlink:title="Initialize the power control parameters.">
<polygon fill="white" stroke="#666666" points="492.25,-20 404.25,-20 404.25,0 492.25,0 492.25,-20"/>
<text text-anchor="middle" x="448.25" y="-6.5" font-family="Helvetica,sans-Serif" font-size="10.00">PwrCtrl_Initialize</text>
</a>
</g>
</g>
<!-- Node1&#45;&gt;Node2 -->
<g id="edge1_Node000001_Node000002" class="edge">
<title>Node1&#45;&gt;Node2</title>
<g id="a_edge1_Node000001_Node000002"><a xlink:title=" ">
<path fill="none" stroke="#63b8ff" d="M516.92,-10C508.62,-10 500.35,-10 492.59,-10"/>
<polygon fill="#63b8ff" stroke="#63b8ff" points="516.81,-13.5 526.81,-10 516.81,-6.5 516.81,-13.5"/>
</a>
</g>
</g>
<!-- Node3 -->
<g id="Node000003" class="node">
<title>Node3</title>
<g id="a_Node000003"><a xlink:href="a00545.html#ga8307344d190a5459682d315fc7bfe198" target="_top" xlink:title="Executes function for initialze state machine.">
<polygon fill="white" stroke="#666666" points="368.25,-20 273.5,-20 273.5,0 368.25,0 368.25,-20"/>
<text text-anchor="middle" x="320.88" y="-6.5" font-family="Helvetica,sans-Serif" font-size="10.00">PCS_INIT_handler</text>
</a>
</g>
</g>
<!-- Node2&#45;&gt;Node3 -->
<g id="edge2_Node000002_Node000003" class="edge">
<title>Node2&#45;&gt;Node3</title>
<g id="a_edge2_Node000002_Node000003"><a xlink:title=" ">
<path fill="none" stroke="#63b8ff" d="M392.92,-10C384.86,-10 376.61,-10 368.72,-10"/>
<polygon fill="#63b8ff" stroke="#63b8ff" points="392.75,-13.5 402.75,-10 392.75,-6.5 392.75,-13.5"/>
</a>
</g>
</g>
<!-- Node4 -->
<g id="Node000004" class="node">
<title>Node4</title>
<g id="a_Node000004"><a xlink:href="a00545.html#ga2408c0b52cd2c2487f43716f261434e6" target="_top" xlink:title="Manages the power control state machine.">
<polygon fill="white" stroke="#666666" points="237.5,-20 124.75,-20 124.75,0 237.5,0 237.5,-20"/>
<text text-anchor="middle" x="181.12" y="-6.5" font-family="Helvetica,sans-Serif" font-size="10.00">PwrCtrl_StateMachine</text>
</a>
</g>
</g>
<!-- Node3&#45;&gt;Node4 -->
<g id="edge3_Node000003_Node000004" class="edge">
<title>Node3&#45;&gt;Node4</title>
<g id="a_edge3_Node000003_Node000004"><a xlink:title=" ">
<path fill="none" stroke="#63b8ff" d="M262.33,-10C254.21,-10 245.86,-10 237.77,-10"/>
<polygon fill="#63b8ff" stroke="#63b8ff" points="262.24,-13.5 272.24,-10 262.24,-6.5 262.24,-13.5"/>
</a>
</g>
</g>
<!-- Node5 -->
<g id="Node000005" class="node">
<title>Node5</title>
<g id="a_Node000005"><a xlink:href="a00542.html#ga48dcb018afa53b60b6112cde00561c4b" target="_top" xlink:title="Executes the power control state machine.">
<polygon fill="white" stroke="#666666" points="88.75,-20 0,-20 0,0 88.75,0 88.75,-20"/>
<text text-anchor="middle" x="44.38" y="-6.5" font-family="Helvetica,sans-Serif" font-size="10.00">PwrCtrl_Execute</text>
</a>
</g>
</g>
<!-- Node4&#45;&gt;Node5 -->
<g id="edge4_Node000004_Node000005" class="edge">
<title>Node4&#45;&gt;Node5</title>
<g id="a_edge4_Node000004_Node000005"><a xlink:title=" ">
<path fill="none" stroke="#63b8ff" d="M113.57,-10C105.19,-10 96.79,-10 88.9,-10"/>
<polygon fill="#63b8ff" stroke="#63b8ff" points="113.54,-13.5 123.54,-10 113.54,-6.5 113.54,-13.5"/>
</a>
</g>
</g>
</g>
</svg>
