<?xml version="1.0" encoding="UTF-8" standalone="no"?>
<!DOCTYPE svg PUBLIC "-//W3C//DTD SVG 1.1//EN"
 "http://www.w3.org/Graphics/SVG/1.1/DTD/svg11.dtd">
<!-- Generated by graphviz version 8.1.0 (20230707.0739)
 -->
<!-- Title: MCC_Custom_User_Config Pages: 1 -->
<svg width="518pt" height="178pt"
 viewBox="0.00 0.00 518.00 178.00" xmlns="http://www.w3.org/2000/svg" xmlns:xlink="http://www.w3.org/1999/xlink">
<g id="graph0" class="graph" transform="scale(1 1) rotate(0) translate(4 174)">
<title>MCC_Custom_User_Config</title>
<!-- Node1 -->
<g id="Node000001" class="node">
<title>Node1</title>
<g id="a_Node000001"><a xlink:title="Contains custom peripheral initialization.">
<polygon fill="#999999" stroke="#666666" points="134.5,-89 0,-89 0,-69 134.5,-69 134.5,-89"/>
<text text-anchor="middle" x="67.25" y="-75.5" font-family="Helvetica,sans-Serif" font-size="10.00">MCC_Custom_User_Config</text>
</a>
</g>
</g>
<!-- Node2 -->
<g id="Node000002" class="node">
<title>Node2</title>
<g id="a_Node000002"><a xlink:href="a00503.html#gac779b9d8bce64e8de686bd78be25ea09" target="_top" xlink:title="Contains PWM initialization that was not supported by MCC generated code.">
<polygon fill="white" stroke="#666666" points="308,-89 170.5,-89 170.5,-69 308,-69 308,-89"/>
<text text-anchor="middle" x="239.25" y="-75.5" font-family="Helvetica,sans-Serif" font-size="10.00">DRV_Config_Custom_PWM</text>
</a>
</g>
</g>
<!-- Node1&#45;&gt;Node2 -->
<g id="edge1_Node000001_Node000002" class="edge">
<title>Node1&#45;&gt;Node2</title>
<g id="a_edge1_Node000001_Node000002"><a xlink:title=" ">
<path fill="none" stroke="#63b8ff" d="M134.95,-79C142.88,-79 151.03,-79 159.12,-79"/>
<polygon fill="#63b8ff" stroke="#63b8ff" points="159.06,-82.5 169.06,-79 159.06,-75.5 159.06,-82.5"/>
</a>
</g>
</g>
<!-- Node3 -->
<g id="Node000003" class="node">
<title>Node3</title>
<g id="a_Node000003"><a xlink:href="a00503.html#ga30d00d0393fc5b7bef92269fa3662a8f" target="_top" xlink:title="Set PCI fault acceptance criteria.">
<polygon fill="white" stroke="#666666" points="499.88,-170 354.12,-170 354.12,-138 499.88,-138 499.88,-170"/>
<text text-anchor="start" x="362.12" y="-156.5" font-family="Helvetica,sans-Serif" font-size="10.00">PWM_PCI_Fault_Acceptance</text>
<text text-anchor="middle" x="427" y="-144.5" font-family="Helvetica,sans-Serif" font-size="10.00">Criteria</text>
</a>
</g>
</g>
<!-- Node2&#45;&gt;Node3 -->
<g id="edge2_Node000002_Node000003" class="edge">
<title>Node2&#45;&gt;Node3</title>
<g id="a_edge2_Node000002_Node000003"><a xlink:title=" ">
<path fill="none" stroke="#63b8ff" d="M259.36,-89.31C279.88,-100.11 313.64,-117.14 344,-129 348.49,-130.75 353.15,-132.46 357.88,-134.11"/>
<polygon fill="#63b8ff" stroke="#63b8ff" points="356.67,-137.74 367.27,-137.62 358.91,-131.11 356.67,-137.74"/>
</a>
</g>
</g>
<!-- Node4 -->
<g id="Node000004" class="node">
<title>Node4</title>
<g id="a_Node000004"><a xlink:href="a00503.html#ga3e7243475a0867eddc73f8c453acf105" target="_top" xlink:title="Set TSYNCDIS bit to determine when PWM should stop after a fault occurs.">
<polygon fill="white" stroke="#666666" points="510,-120 344,-120 344,-88 510,-88 510,-120"/>
<text text-anchor="start" x="352" y="-106.5" font-family="Helvetica,sans-Serif" font-size="10.00">PWM_PCI_Fault_TimetoTerminate</text>
<text text-anchor="middle" x="427" y="-94.5" font-family="Helvetica,sans-Serif" font-size="10.00">AfterEvent</text>
</a>
</g>
</g>
<!-- Node2&#45;&gt;Node4 -->
<g id="edge3_Node000002_Node000004" class="edge">
<title>Node2&#45;&gt;Node4</title>
<g id="a_edge3_Node000002_Node000004"><a xlink:title=" ">
<path fill="none" stroke="#63b8ff" d="M308.36,-88.17C316.35,-89.24 324.61,-90.35 332.87,-91.47"/>
<polygon fill="#63b8ff" stroke="#63b8ff" points="332.32,-95.06 342.7,-92.92 333.26,-88.12 332.32,-95.06"/>
</a>
</g>
</g>
<!-- Node5 -->
<g id="Node000005" class="node">
<title>Node5</title>
<g id="a_Node000005"><a xlink:href="a00503.html#gaab156f2b7ad138cf32e734bbf7145ef4" target="_top" xlink:title="Enable/Disable the PWM instance output swap bit.">
<polygon fill="white" stroke="#666666" points="492.75,-70 361.25,-70 361.25,-38 492.75,-38 492.75,-70"/>
<text text-anchor="start" x="369.25" y="-56.5" font-family="Helvetica,sans-Serif" font-size="10.00">PWM_Swap_PWMxL_and</text>
<text text-anchor="middle" x="427" y="-44.5" font-family="Helvetica,sans-Serif" font-size="10.00">_PWMxH</text>
</a>
</g>
</g>
<!-- Node2&#45;&gt;Node5 -->
<g id="edge4_Node000002_Node000005" class="edge">
<title>Node2&#45;&gt;Node5</title>
<g id="a_edge4_Node000002_Node000005"><a xlink:title=" ">
<path fill="none" stroke="#63b8ff" d="M308.36,-69.83C322.06,-67.99 336.53,-66.04 350.46,-64.17"/>
<polygon fill="#63b8ff" stroke="#63b8ff" points="350.55,-67.55 359.99,-62.75 349.61,-60.62 350.55,-67.55"/>
</a>
</g>
</g>
<!-- Node6 -->
<g id="Node000006" class="node">
<title>Node6</title>
<g id="a_Node000006"><a xlink:href="a00503.html#ga51d53c1db006afc7c11a0ab15f07093d" target="_top" xlink:title="Set source of fault PCI acceptance qualifier.">
<polygon fill="white" stroke="#666666" points="479.25,-20 374.75,-20 374.75,0 479.25,0 479.25,-20"/>
<text text-anchor="middle" x="427" y="-6.5" font-family="Helvetica,sans-Serif" font-size="10.00">PWM_Trigger_Mode</text>
</a>
</g>
</g>
<!-- Node2&#45;&gt;Node6 -->
<g id="edge5_Node000002_Node000006" class="edge">
<title>Node2&#45;&gt;Node6</title>
<g id="a_edge5_Node000002_Node000006"><a xlink:title=" ">
<path fill="none" stroke="#63b8ff" d="M258.46,-68.69C278.78,-57.56 312.88,-39.95 344,-29 350.33,-26.77 357.03,-24.73 363.76,-22.88"/>
<polygon fill="#63b8ff" stroke="#63b8ff" points="364.52,-26.04 373.32,-20.14 362.76,-19.27 364.52,-26.04"/>
</a>
</g>
</g>
</g>
</svg>
