<?xml version="1.0" encoding="UTF-8" standalone="no"?>
<!DOCTYPE svg PUBLIC "-//W3C//DTD SVG 1.1//EN"
 "http://www.w3.org/Graphics/SVG/1.1/DTD/svg11.dtd">
<!-- Generated by graphviz version 8.1.0 (20230707.0739)
 -->
<!-- Title: Dev_Fan_Set_Speed Pages: 1 -->
<svg width="655pt" height="78pt"
 viewBox="0.00 0.00 655.00 78.00" xmlns="http://www.w3.org/2000/svg" xmlns:xlink="http://www.w3.org/1999/xlink">
<g id="graph0" class="graph" transform="scale(1 1) rotate(0) translate(4 74)">
<title>Dev_Fan_Set_Speed</title>
<!-- Node1 -->
<g id="Node000001" class="node">
<title>Node1</title>
<g id="a_Node000001"><a xlink:title="Sets the fan speed.">
<polygon fill="#999999" stroke="#666666" points="647,-42 540.25,-42 540.25,-22 647,-22 647,-42"/>
<text text-anchor="middle" x="593.62" y="-28.5" font-family="Helvetica,sans-Serif" font-size="10.00">Dev_Fan_Set_Speed</text>
</a>
</g>
</g>
<!-- Node2 -->
<g id="Node000002" class="node">
<title>Node2</title>
<g id="a_Node000002"><a xlink:href="a00525.html#gaf2b5ec7aa4bf88b00eaa69cfeba83160" target="_top" xlink:title="process received data">
<polygon fill="white" stroke="#666666" points="504.25,-70 378.75,-70 378.75,-38 504.25,-38 504.25,-70"/>
<text text-anchor="start" x="386.75" y="-56.5" font-family="Helvetica,sans-Serif" font-size="10.00">App_PBV_DAB_Process</text>
<text text-anchor="middle" x="441.5" y="-44.5" font-family="Helvetica,sans-Serif" font-size="10.00">_Rx_Data</text>
</a>
</g>
</g>
<!-- Node1&#45;&gt;Node2 -->
<g id="edge1_Node000001_Node000002" class="edge">
<title>Node1&#45;&gt;Node2</title>
<g id="a_edge1_Node000001_Node000002"><a xlink:title=" ">
<path fill="none" stroke="#63b8ff" d="M529.43,-41.26C521.18,-42.47 512.74,-43.71 504.51,-44.91"/>
<polygon fill="#63b8ff" stroke="#63b8ff" points="529.73,-44.61 539.12,-39.69 528.72,-37.68 529.73,-44.61"/>
</a>
</g>
</g>
<!-- Node6 -->
<g id="Node000006" class="node">
<title>Node6</title>
<g id="a_Node000006"><a xlink:href="a00529.html#gafd7dde7baca2e1dd3a745bf5f8258da7" target="_top" xlink:title="This function needs to be called every 1s to keep the temperature of the board at a certain temperatu...">
<polygon fill="white" stroke="#666666" points="489.25,-20 393.75,-20 393.75,0 489.25,0 489.25,-20"/>
<text text-anchor="middle" x="441.5" y="-6.5" font-family="Helvetica,sans-Serif" font-size="10.00">Dev_Fan_Task_1s</text>
</a>
</g>
</g>
<!-- Node1&#45;&gt;Node6 -->
<g id="edge5_Node000001_Node000006" class="edge">
<title>Node1&#45;&gt;Node6</title>
<g id="a_edge5_Node000001_Node000006"><a xlink:title=" ">
<path fill="none" stroke="#63b8ff" d="M529.56,-22.76C516.21,-20.8 502.35,-18.77 489.71,-16.92"/>
<polygon fill="#63b8ff" stroke="#63b8ff" points="528.72,-26.32 539.12,-24.31 529.73,-19.39 528.72,-26.32"/>
</a>
</g>
</g>
<!-- Node3 -->
<g id="Node000003" class="node">
<title>Node3</title>
<g id="a_Node000003"><a xlink:href="a00525.html#gae7f76d2864d9f99538052487fb4c9570" target="_top" xlink:title="default callback">
<polygon fill="white" stroke="#666666" points="342.75,-64 283.25,-64 283.25,-44 342.75,-44 342.75,-64"/>
<text text-anchor="middle" x="313" y="-50.5" font-family="Helvetica,sans-Serif" font-size="10.00">protocolID</text>
</a>
</g>
</g>
<!-- Node2&#45;&gt;Node3 -->
<g id="edge2_Node000002_Node000003" class="edge">
<title>Node2&#45;&gt;Node3</title>
<g id="a_edge2_Node000002_Node000003"><a xlink:title=" ">
<path fill="none" stroke="#63b8ff" d="M367.38,-54C358.77,-54 350.42,-54 342.97,-54"/>
<polygon fill="#63b8ff" stroke="#63b8ff" points="367.36,-57.5 377.36,-54 367.36,-50.5 367.36,-57.5"/>
</a>
</g>
</g>
<!-- Node4 -->
<g id="Node000004" class="node">
<title>Node4</title>
<g id="a_Node000004"><a xlink:href="a00525.html#ga4de477d51ea04cdcfcb1e3eb3ef0053a" target="_top" xlink:title="10ms PBV task to be execution">
<polygon fill="white" stroke="#666666" points="247.25,-64 107.5,-64 107.5,-44 247.25,-44 247.25,-64"/>
<text text-anchor="middle" x="177.38" y="-50.5" font-family="Helvetica,sans-Serif" font-size="10.00">App_PBV_DAB_Task_10ms</text>
</a>
</g>
</g>
<!-- Node3&#45;&gt;Node4 -->
<g id="edge3_Node000003_Node000004" class="edge">
<title>Node3&#45;&gt;Node4</title>
<g id="a_edge3_Node000003_Node000004"><a xlink:title=" ">
<path fill="none" stroke="#63b8ff" d="M272.11,-54C264.35,-54 256.01,-54 247.62,-54"/>
<polygon fill="#63b8ff" stroke="#63b8ff" points="272.01,-57.5 282.01,-54 272.01,-50.5 272.01,-57.5"/>
</a>
</g>
</g>
<!-- Node5 -->
<g id="Node000005" class="node">
<title>Node5</title>
<g id="a_Node000005"><a xlink:href="a00547.html#ga05751024e03719cbe14d88fb0af408dd" target="_top" xlink:title="Tasks_10ms gets called every 10ms, put your things in it that need to be called regularly.">
<polygon fill="white" stroke="#666666" points="71.5,-64 0,-64 0,-44 71.5,-44 71.5,-64"/>
<text text-anchor="middle" x="35.75" y="-50.5" font-family="Helvetica,sans-Serif" font-size="10.00">Tasks_10ms</text>
</a>
</g>
</g>
<!-- Node4&#45;&gt;Node5 -->
<g id="edge4_Node000004_Node000005" class="edge">
<title>Node4&#45;&gt;Node5</title>
<g id="a_edge4_Node000004_Node000005"><a xlink:title=" ">
<path fill="none" stroke="#63b8ff" d="M96.4,-54C87.78,-54 79.38,-54 71.73,-54"/>
<polygon fill="#63b8ff" stroke="#63b8ff" points="96.38,-57.5 106.38,-54 96.38,-50.5 96.38,-57.5"/>
</a>
</g>
</g>
<!-- Node7 -->
<g id="Node000007" class="node">
<title>Node7</title>
<g id="a_Node000007"><a xlink:href="a00547.html#gac181d28cf7f396a9ee79b7c8b76b97ad" target="_top" xlink:title="Tasks_1s gets called every second, put your things in it that need to be called regularly.">
<polygon fill="white" stroke="#666666" points="342,-20 284,-20 284,0 342,0 342,-20"/>
<text text-anchor="middle" x="313" y="-6.5" font-family="Helvetica,sans-Serif" font-size="10.00">Tasks_1s</text>
</a>
</g>
</g>
<!-- Node6&#45;&gt;Node7 -->
<g id="edge6_Node000006_Node000007" class="edge">
<title>Node6&#45;&gt;Node7</title>
<g id="a_edge6_Node000006_Node000007"><a xlink:title=" ">
<path fill="none" stroke="#63b8ff" d="M382.79,-10C368.76,-10 354.37,-10 342.4,-10"/>
<polygon fill="#63b8ff" stroke="#63b8ff" points="382.4,-13.5 392.4,-10 382.4,-6.5 382.4,-13.5"/>
</a>
</g>
</g>
</g>
</svg>
