<?xml version="1.0" encoding="UTF-8" standalone="no"?>
<!DOCTYPE svg PUBLIC "-//W3C//DTD SVG 1.1//EN"
 "http://www.w3.org/Graphics/SVG/1.1/DTD/svg11.dtd">
<!-- Generated by graphviz version 8.1.0 (20230707.0739)
 -->
<!-- Title: PwrCtrl_ResetControlLoopHistories Pages: 1 -->
<svg width="839pt" height="40pt"
 viewBox="0.00 0.00 839.00 40.00" xmlns="http://www.w3.org/2000/svg" xmlns:xlink="http://www.w3.org/1999/xlink">
<g id="graph0" class="graph" transform="scale(1 1) rotate(0) translate(4 36)">
<title>PwrCtrl_ResetControlLoopHistories</title>
<!-- Node1 -->
<g id="Node000001" class="node">
<title>Node1</title>
<g id="a_Node000001"><a xlink:title="Clear the control and error histories of the control loops.">
<polygon fill="#999999" stroke="#666666" points="831,-32 701,-32 701,0 831,0 831,-32"/>
<text text-anchor="start" x="709" y="-18.5" font-family="Helvetica,sans-Serif" font-size="10.00">PwrCtrl_ResetControlLoop</text>
<text text-anchor="middle" x="766" y="-6.5" font-family="Helvetica,sans-Serif" font-size="10.00">Histories</text>
</a>
</g>
</g>
<!-- Node2 -->
<g id="Node000002" class="node">
<title>Node2</title>
<g id="a_Node000002"><a xlink:href="a00506.html#ga8c07187b0c96b5916e4b46daa47500c5" target="_top" xlink:title="Resets the power control properties.">
<polygon fill="white" stroke="#666666" points="665,-26 586.75,-26 586.75,-6 665,-6 665,-26"/>
<text text-anchor="middle" x="625.88" y="-12.5" font-family="Helvetica,sans-Serif" font-size="10.00">PwrCtrl_Reset</text>
</a>
</g>
</g>
<!-- Node1&#45;&gt;Node2 -->
<g id="edge1_Node000001_Node000002" class="edge">
<title>Node1&#45;&gt;Node2</title>
<g id="a_edge1_Node000001_Node000002"><a xlink:title=" ">
<path fill="none" stroke="#63b8ff" d="M689.98,-16C681.47,-16 673.08,-16 665.34,-16"/>
<polygon fill="#63b8ff" stroke="#63b8ff" points="689.79,-19.5 699.79,-16 689.79,-12.5 689.79,-19.5"/>
</a>
</g>
</g>
<!-- Node3 -->
<g id="Node000003" class="node">
<title>Node3</title>
<g id="a_Node000003"><a xlink:href="a00509.html#ga42f7c8f65745b2f81bb6dbd381ea8121" target="_top" xlink:title="Executes Standby State machine.">
<polygon fill="white" stroke="#666666" points="550.75,-26 426.75,-26 426.75,-6 550.75,-6 550.75,-26"/>
<text text-anchor="middle" x="488.75" y="-12.5" font-family="Helvetica,sans-Serif" font-size="10.00">PCS_STANDBY_handler</text>
</a>
</g>
</g>
<!-- Node2&#45;&gt;Node3 -->
<g id="edge2_Node000002_Node000003" class="edge">
<title>Node2&#45;&gt;Node3</title>
<g id="a_edge2_Node000002_Node000003"><a xlink:title=" ">
<path fill="none" stroke="#63b8ff" d="M575.6,-16C567.67,-16 559.38,-16 551.21,-16"/>
<polygon fill="#63b8ff" stroke="#63b8ff" points="575.52,-19.5 585.52,-16 575.52,-12.5 575.52,-19.5"/>
</a>
</g>
</g>
<!-- Node4 -->
<g id="Node000004" class="node">
<title>Node4</title>
<g id="a_Node000004"><a xlink:href="a00509.html#ga2408c0b52cd2c2487f43716f261434e6" target="_top" xlink:title="Manages the power control state machine.">
<polygon fill="white" stroke="#666666" points="390.75,-26 278,-26 278,-6 390.75,-6 390.75,-26"/>
<text text-anchor="middle" x="334.38" y="-12.5" font-family="Helvetica,sans-Serif" font-size="10.00">PwrCtrl_StateMachine</text>
</a>
</g>
</g>
<!-- Node3&#45;&gt;Node4 -->
<g id="edge3_Node000003_Node000004" class="edge">
<title>Node3&#45;&gt;Node4</title>
<g id="a_edge3_Node000003_Node000004"><a xlink:title=" ">
<path fill="none" stroke="#63b8ff" d="M415.8,-16C407.49,-16 399.11,-16 391.06,-16"/>
<polygon fill="#63b8ff" stroke="#63b8ff" points="415.65,-19.5 425.65,-16 415.65,-12.5 415.65,-19.5"/>
</a>
</g>
</g>
<!-- Node5 -->
<g id="Node000005" class="node">
<title>Node5</title>
<g id="a_Node000005"><a xlink:href="a00506.html#ga48dcb018afa53b60b6112cde00561c4b" target="_top" xlink:title="Executes the power control state machine.">
<polygon fill="white" stroke="#666666" points="242,-26 153.25,-26 153.25,-6 242,-6 242,-26"/>
<text text-anchor="middle" x="197.62" y="-12.5" font-family="Helvetica,sans-Serif" font-size="10.00">PwrCtrl_Execute</text>
</a>
</g>
</g>
<!-- Node4&#45;&gt;Node5 -->
<g id="edge4_Node000004_Node000005" class="edge">
<title>Node4&#45;&gt;Node5</title>
<g id="a_edge4_Node000004_Node000005"><a xlink:title=" ">
<path fill="none" stroke="#63b8ff" d="M266.82,-16C258.44,-16 250.04,-16 242.15,-16"/>
<polygon fill="#63b8ff" stroke="#63b8ff" points="266.79,-19.5 276.79,-16 266.79,-12.5 266.79,-19.5"/>
</a>
</g>
</g>
<!-- Node6 -->
<g id="Node000006" class="node">
<title>Node6</title>
<g id="a_Node000006"><a xlink:href="a00517.html#gad258f19a1b6a855fef3c71f54bb5539e" target="_top" xlink:title="Tasks_Realtime_100us gets called directly from the timer interrupt every 100 µs.">
<polygon fill="white" stroke="#666666" points="117.25,-26 0,-26 0,-6 117.25,-6 117.25,-26"/>
<text text-anchor="middle" x="58.62" y="-12.5" font-family="Helvetica,sans-Serif" font-size="10.00">Tasks_Realtime_100us</text>
</a>
</g>
</g>
<!-- Node5&#45;&gt;Node6 -->
<g id="edge5_Node000005_Node000006" class="edge">
<title>Node5&#45;&gt;Node6</title>
<g id="a_edge5_Node000005_Node000006"><a xlink:title=" ">
<path fill="none" stroke="#63b8ff" d="M142.07,-16C133.97,-16 125.6,-16 117.44,-16"/>
<polygon fill="#63b8ff" stroke="#63b8ff" points="141.9,-19.5 151.9,-16 141.9,-12.5 141.9,-19.5"/>
</a>
</g>
</g>
</g>
</svg>
