<?xml version="1.0" encoding="UTF-8" standalone="no"?>
<!DOCTYPE svg PUBLIC "-//W3C//DTD SVG 1.1//EN"
 "http://www.w3.org/Graphics/SVG/1.1/DTD/svg11.dtd">
<!-- Generated by graphviz version 8.1.0 (20230707.0739)
 -->
<!-- Title: Driver Layer Pages: 1 -->
<svg width="239pt" height="66pt"
 viewBox="0.00 0.00 238.75 66.00" xmlns="http://www.w3.org/2000/svg" xmlns:xlink="http://www.w3.org/1999/xlink">
<g id="graph0" class="graph" transform="scale(1 1) rotate(0) translate(4 62)">
<title>Driver Layer</title>
<!-- Node1 -->
<g id="Node000001" class="node">
<title>Node1</title>
<g id="a_Node000001"><a xlink:title="Contain functions and properties of the Driver layer.">
<polygon fill="#999999" stroke="#666666" points="67,-39 0,-39 0,-19 67,-19 67,-39"/>
<text text-anchor="middle" x="33.5" y="-25.5" font-family="Helvetica,sans-Serif" font-size="10.00">Driver Layer</text>
</a>
</g>
</g>
<!-- Node3 -->
<g id="Node000003" class="node">
<title>Node3</title>
<g id="a_Node000003"><a xlink:href="a00504.html" target="_top" xlink:title="Contain functions and data types as MCC extension for ADC.">
<polygon fill="white" stroke="#666666" points="228.5,-58 105.25,-58 105.25,-38 228.5,-38 228.5,-58"/>
<text text-anchor="middle" x="166.88" y="-44.5" font-family="Helvetica,sans-Serif" font-size="10.00">MCC Custom Code ADC</text>
</a>
</g>
</g>
<!-- Node1&#45;&gt;Node3 -->
<g id="edge2" class="edge">
<title>Node1&#45;&gt;Node3</title>
<path fill="none" stroke="black" d="M78.17,-35.32C86.72,-36.55 95.83,-37.87 104.83,-39.17"/>
<polygon fill="black" stroke="black" points="78.71,-31.71 68.31,-33.75 77.71,-38.64 78.71,-31.71"/>
</g>
<!-- Node2 -->
<g id="Node000002" class="node">
<title>Node2</title>
<g id="a_Node000002"><a xlink:href="a00503.html" target="_top" xlink:title="Contain functions and data types as MCC extension for PWM.">
<polygon fill="white" stroke="#666666" points="230.75,-20 103,-20 103,0 230.75,0 230.75,-20"/>
<text text-anchor="middle" x="166.88" y="-6.5" font-family="Helvetica,sans-Serif" font-size="10.00">MCC Custom Code PWM</text>
</a>
</g>
</g>
<!-- Node1&#45;&gt;Node2 -->
<g id="edge1" class="edge">
<title>Node1&#45;&gt;Node2</title>
<path fill="none" stroke="black" d="M78.04,-22.7C85.89,-21.57 94.22,-20.36 102.5,-19.17"/>
<polygon fill="black" stroke="black" points="77.71,-19.36 68.31,-24.25 78.71,-26.29 77.71,-19.36"/>
</g>
</g>
</svg>
