<?xml version="1.0" encoding="UTF-8" standalone="no"?>
<!DOCTYPE svg PUBLIC "-//W3C//DTD SVG 1.1//EN"
 "http://www.w3.org/Graphics/SVG/1.1/DTD/svg11.dtd">
<!-- Generated by graphviz version 8.1.0 (20230707.0739)
 -->
<!-- Title: PWM_SoftwareUpdateRequest Pages: 1 -->
<svg width="822pt" height="268pt"
 viewBox="0.00 0.00 821.50 267.87" xmlns="http://www.w3.org/2000/svg" xmlns:xlink="http://www.w3.org/1999/xlink">
<g id="graph0" class="graph" transform="scale(1 1) rotate(0) translate(4 263.87)">
<title>PWM_SoftwareUpdateRequest</title>
<!-- Node1 -->
<g id="Node000001" class="node">
<title>Node1</title>
<g id="a_Node000001"><a xlink:title="This inline function requests to update the data registers for specific PWM generator selected by the...">
<polygon fill="#999999" stroke="#666666" points="813.5,-76.87 663.25,-76.87 663.25,-56.87 813.5,-56.87 813.5,-76.87"/>
<text text-anchor="middle" x="738.38" y="-63.37" font-family="Helvetica,sans-Serif" font-size="10.00">PWM_SoftwareUpdateRequest</text>
</a>
</g>
</g>
<!-- Node2 -->
<g id="Node000002" class="node">
<title>Node2</title>
<g id="a_Node000002"><a xlink:href="a00491.html#ga209e7835d32aaf5a402b470b61284bdf" target="_top" xlink:title="Disable the PWM output.">
<polygon fill="white" stroke="#666666" points="627.25,-142.87 491.25,-142.87 491.25,-122.87 627.25,-122.87 627.25,-142.87"/>
<text text-anchor="middle" x="559.25" y="-129.37" font-family="Helvetica,sans-Serif" font-size="10.00">Dev_PwrCtrl_PWM_Disable</text>
</a>
</g>
</g>
<!-- Node1&#45;&gt;Node2 -->
<g id="edge1_Node000001_Node000002" class="edge">
<title>Node1&#45;&gt;Node2</title>
<g id="a_edge1_Node000001_Node000002"><a xlink:title=" ">
<path fill="none" stroke="#63b8ff" d="M699.01,-81.17C665.64,-93.61 618.06,-111.33 588.18,-122.47"/>
<polygon fill="#63b8ff" stroke="#63b8ff" points="700.16,-84.1 708.31,-77.33 697.72,-77.54 700.16,-84.1"/>
</a>
</g>
</g>
<!-- Node14 -->
<g id="Node000014" class="node">
<title>Node14</title>
<g id="a_Node000014"><a xlink:href="a00491.html#gaff82d75556566202a8dd302e0a7fde8b" target="_top" xlink:title="Enable the PWM output.">
<polygon fill="white" stroke="#666666" points="626.12,-76.87 492.38,-76.87 492.38,-56.87 626.12,-56.87 626.12,-76.87"/>
<text text-anchor="middle" x="559.25" y="-63.37" font-family="Helvetica,sans-Serif" font-size="10.00">Dev_PwrCtrl_PWM_Enable</text>
</a>
</g>
</g>
<!-- Node1&#45;&gt;Node14 -->
<g id="edge15_Node000001_Node000014" class="edge">
<title>Node1&#45;&gt;Node14</title>
<g id="a_edge15_Node000001_Node000014"><a xlink:title=" ">
<path fill="none" stroke="#63b8ff" d="M652.01,-66.87C643.48,-66.87 634.9,-66.87 626.61,-66.87"/>
<polygon fill="#63b8ff" stroke="#63b8ff" points="651.77,-70.38 661.77,-66.87 651.77,-63.38 651.77,-70.38"/>
</a>
</g>
</g>
<!-- Node16 -->
<g id="Node000016" class="node">
<title>Node16</title>
<g id="a_Node000016"><a xlink:href="a00491.html#ga2da42ebbee6a24170cd69c0c798a572e" target="_top" xlink:title="PWM distribution for DAB converter.">
<polygon fill="white" stroke="#666666" points="626.5,-38.87 492,-38.87 492,-18.87 626.5,-18.87 626.5,-38.87"/>
<text text-anchor="middle" x="559.25" y="-25.37" font-family="Helvetica,sans-Serif" font-size="10.00">Dev_PwrCtrl_PWM_Update</text>
</a>
</g>
</g>
<!-- Node1&#45;&gt;Node16 -->
<g id="edge18_Node000001_Node000016" class="edge">
<title>Node1&#45;&gt;Node16</title>
<g id="a_edge18_Node000001_Node000016"><a xlink:title=" ">
<path fill="none" stroke="#63b8ff" d="M677.77,-54.09C655.39,-49.29 630.24,-43.89 608.96,-39.33"/>
<polygon fill="#63b8ff" stroke="#63b8ff" points="676.99,-57.72 687.51,-56.39 678.46,-50.87 676.99,-57.72"/>
</a>
</g>
</g>
<!-- Node3 -->
<g id="Node000003" class="node">
<title>Node3</title>
<g id="a_Node000003"><a xlink:href="a00498.html#ga49e1c9ea3a6a543de5e0db0328595ab4" target="_top" xlink:title="Handles the fault trip by turning off the power control switching.">
<polygon fill="white" stroke="#666666" points="433.88,-240.87 336.88,-240.87 336.88,-220.87 433.88,-220.87 433.88,-240.87"/>
<text text-anchor="middle" x="385.38" y="-227.37" font-family="Helvetica,sans-Serif" font-size="10.00">Dev_Fault_Handler</text>
</a>
</g>
</g>
<!-- Node2&#45;&gt;Node3 -->
<g id="edge2_Node000002_Node000003" class="edge">
<title>Node2&#45;&gt;Node3</title>
<g id="a_edge2_Node000002_Node000003"><a xlink:title=" ">
<path fill="none" stroke="#63b8ff" d="M539.75,-150.66C520.22,-168.53 487.79,-195.68 455.25,-211.87 448.48,-215.25 441.02,-218.09 433.59,-220.46"/>
<polygon fill="#63b8ff" stroke="#63b8ff" points="541.85,-153.56 546.78,-144.18 537.08,-148.44 541.85,-153.56"/>
</a>
</g>
</g>
<!-- Node8 -->
<g id="Node000008" class="node">
<title>Node8</title>
<g id="a_Node000008"><a xlink:href="a00489.html#ga6523e7af2c1c7f66d8495c072a5c7281" target="_top" xlink:title="Initialize the power control parameters.">
<polygon fill="white" stroke="#666666" points="439.88,-76.87 330.88,-76.87 330.88,-56.87 439.88,-56.87 439.88,-76.87"/>
<text text-anchor="middle" x="385.38" y="-63.37" font-family="Helvetica,sans-Serif" font-size="10.00">Dev_PwrCtrl_Initialize</text>
</a>
</g>
</g>
<!-- Node2&#45;&gt;Node8 -->
<g id="edge7_Node000002_Node000008" class="edge">
<title>Node2&#45;&gt;Node8</title>
<g id="a_edge7_Node000002_Node000008"><a xlink:title=" ">
<path fill="none" stroke="#63b8ff" d="M528.52,-117.79C508.23,-107.86 480.54,-95.07 455.25,-85.87 446.62,-82.74 437.23,-79.83 428.23,-77.28"/>
<polygon fill="#63b8ff" stroke="#63b8ff" points="526.61,-121.24 537.13,-122.54 529.72,-114.97 526.61,-121.24"/>
</a>
</g>
</g>
<!-- Node9 -->
<g id="Node000009" class="node">
<title>Node9</title>
<g id="a_Node000009"><a xlink:href="a00492.html#ga8307344d190a5459682d315fc7bfe198" target="_top" xlink:title="Executes function for initialze state machine.">
<polygon fill="white" stroke="#666666" points="432.75,-202.87 338,-202.87 338,-182.87 432.75,-182.87 432.75,-202.87"/>
<text text-anchor="middle" x="385.38" y="-189.37" font-family="Helvetica,sans-Serif" font-size="10.00">PCS_INIT_handler</text>
</a>
</g>
</g>
<!-- Node2&#45;&gt;Node9 -->
<g id="edge8_Node000002_Node000009" class="edge">
<title>Node2&#45;&gt;Node9</title>
<g id="a_edge8_Node000002_Node000009"><a xlink:title=" ">
<path fill="none" stroke="#63b8ff" d="M524.26,-147.49C504.35,-155.78 478.6,-166.03 455.25,-173.87 446.2,-176.92 436.36,-179.85 427.03,-182.46"/>
<polygon fill="#63b8ff" stroke="#63b8ff" points="525.52,-150.34 533.39,-143.24 522.81,-143.89 525.52,-150.34"/>
</a>
</g>
</g>
<!-- Node12 -->
<g id="Node000012" class="node">
<title>Node12</title>
<g id="a_Node000012"><a xlink:href="a00492.html#gabda6b853bb6547821acd0ec87e0a4842" target="_top" xlink:title="Executes the power control soft start state machine.">
<polygon fill="white" stroke="#666666" points="455.25,-164.87 315.5,-164.87 315.5,-144.87 455.25,-144.87 455.25,-164.87"/>
<text text-anchor="middle" x="385.38" y="-151.37" font-family="Helvetica,sans-Serif" font-size="10.00">PCS_SOFT_START_handler</text>
</a>
</g>
</g>
<!-- Node2&#45;&gt;Node12 -->
<g id="edge11_Node000002_Node000012" class="edge">
<title>Node2&#45;&gt;Node12</title>
<g id="a_edge11_Node000002_Node000012"><a xlink:title=" ">
<path fill="none" stroke="#63b8ff" d="M480.13,-142.87C471.95,-143.92 463.67,-144.98 455.6,-146.01"/>
<polygon fill="#63b8ff" stroke="#63b8ff" points="480.34,-146.25 489.81,-141.51 479.45,-139.3 480.34,-146.25"/>
</a>
</g>
</g>
<!-- Node13 -->
<g id="Node000013" class="node">
<title>Node13</title>
<g id="a_Node000013"><a xlink:href="a00492.html#ga8752fbb48416e60141e205f1cbda0f98" target="_top" xlink:title="Executes the Online state.">
<polygon fill="white" stroke="#666666" points="450,-126.87 320.75,-126.87 320.75,-94.87 450,-94.87 450,-126.87"/>
<text text-anchor="start" x="328.75" y="-113.37" font-family="Helvetica,sans-Serif" font-size="10.00">PCS_UP_AND_RUNNING</text>
<text text-anchor="middle" x="385.38" y="-101.37" font-family="Helvetica,sans-Serif" font-size="10.00">_handler</text>
</a>
</g>
</g>
<!-- Node2&#45;&gt;Node13 -->
<g id="edge13_Node000002_Node000013" class="edge">
<title>Node2&#45;&gt;Node13</title>
<g id="a_edge13_Node000002_Node000013"><a xlink:title=" ">
<path fill="none" stroke="#63b8ff" d="M480.07,-122.87C470.08,-121.59 459.96,-120.29 450.25,-119.05"/>
<polygon fill="#63b8ff" stroke="#63b8ff" points="479.45,-126.45 489.81,-124.24 480.34,-119.5 479.45,-126.45"/>
</a>
</g>
</g>
<!-- Node4 -->
<g id="Node000004" class="node">
<title>Node4</title>
<g id="a_Node000004"><a xlink:href="a00498.html#ga7ca815f0afe45529a572a517f5d5e03e" target="_top" xlink:title="Executes the fault handlers.">
<polygon fill="white" stroke="#666666" points="262.62,-259.87 162.62,-259.87 162.62,-239.87 262.62,-239.87 262.62,-259.87"/>
<text text-anchor="middle" x="212.62" y="-246.37" font-family="Helvetica,sans-Serif" font-size="10.00">Dev_Fault_Execute</text>
</a>
</g>
</g>
<!-- Node3&#45;&gt;Node4 -->
<g id="edge3_Node000003_Node000004" class="edge">
<title>Node3&#45;&gt;Node4</title>
<g id="a_edge3_Node000003_Node000004"><a xlink:title=" ">
<path fill="none" stroke="#63b8ff" d="M326.02,-237.37C305.52,-239.65 282.7,-242.19 263.01,-244.38"/>
<polygon fill="#63b8ff" stroke="#63b8ff" points="326.26,-240.75 335.81,-236.17 325.49,-233.8 326.26,-240.75"/>
</a>
</g>
</g>
<!-- Node6 -->
<g id="Node000006" class="node">
<title>Node6</title>
<g id="a_Node000006"><a xlink:href="a00498.html#gaf5d210df8b3540e4dd911cb3d8c77fcd" target="_top" xlink:title="Initialize the fault objects.">
<polygon fill="white" stroke="#666666" points="262.25,-221.87 163,-221.87 163,-201.87 262.25,-201.87 262.25,-221.87"/>
<text text-anchor="middle" x="212.62" y="-208.37" font-family="Helvetica,sans-Serif" font-size="10.00">Dev_Fault_Initialize</text>
</a>
</g>
</g>
<!-- Node3&#45;&gt;Node6 -->
<g id="edge5_Node000003_Node000006" class="edge">
<title>Node3&#45;&gt;Node6</title>
<g id="a_edge5_Node000003_Node000006"><a xlink:title=" ">
<path fill="none" stroke="#63b8ff" d="M325.97,-224.38C305.38,-222.08 282.46,-219.53 262.72,-217.34"/>
<polygon fill="#63b8ff" stroke="#63b8ff" points="325.49,-227.95 335.81,-225.58 326.26,-221 325.49,-227.95"/>
</a>
</g>
</g>
<!-- Node7 -->
<g id="Node000007" class="node">
<title>Node7</title>
<g id="a_Node000007"><a xlink:href="a00498.html#ga86410f4477516eb5de88e12c3108162d" target="_top" xlink:title="Fault evaluation for Temperature.">
<polygon fill="white" stroke="#666666" points="273.88,-183.87 151.38,-183.87 151.38,-163.87 273.88,-163.87 273.88,-183.87"/>
<text text-anchor="middle" x="212.62" y="-170.37" font-family="Helvetica,sans-Serif" font-size="10.00">Dev_Fault_Temp_100ms</text>
</a>
</g>
</g>
<!-- Node3&#45;&gt;Node7 -->
<g id="edge6_Node000003_Node000007" class="edge">
<title>Node3&#45;&gt;Node7</title>
<g id="a_edge6_Node000003_Node000007"><a xlink:title=" ">
<path fill="none" stroke="#63b8ff" d="M330.45,-217.21C325.34,-215.56 320.29,-213.77 315.5,-211.87 298.68,-205.21 296.28,-199.64 279.5,-192.87 271.66,-189.72 263.1,-186.85 254.83,-184.35"/>
<polygon fill="#63b8ff" stroke="#63b8ff" points="329.33,-220.84 339.92,-220.43 331.38,-214.15 329.33,-220.84"/>
</a>
</g>
</g>
<!-- Node5 -->
<g id="Node000005" class="node">
<title>Node5</title>
<g id="a_Node000005"><a xlink:href="a00490.html#gae32c9e5ed4d1fb98fc13b26601782c10" target="_top" xlink:title="Executes the power conveter&#39;s control loop.">
<polygon fill="white" stroke="#666666" points="109,-228.87 0.75,-228.87 0.75,-196.87 109,-196.87 109,-228.87"/>
<text text-anchor="start" x="8.75" y="-215.37" font-family="Helvetica,sans-Serif" font-size="10.00">ControlLoop_Interrupt</text>
<text text-anchor="middle" x="54.88" y="-203.37" font-family="Helvetica,sans-Serif" font-size="10.00">_CallBack</text>
</a>
</g>
</g>
<!-- Node4&#45;&gt;Node5 -->
<g id="edge4_Node000004_Node000005" class="edge">
<title>Node4&#45;&gt;Node5</title>
<g id="a_edge4_Node000004_Node000005"><a xlink:title=" ">
<path fill="none" stroke="#63b8ff" d="M157.31,-236.97C141.75,-233.28 124.81,-229.25 109.31,-225.57"/>
<polygon fill="#63b8ff" stroke="#63b8ff" points="156.29,-240.56 166.83,-239.47 157.91,-233.75 156.29,-240.56"/>
</a>
</g>
</g>
<!-- Node10 -->
<g id="Node000010" class="node">
<title>Node10</title>
<g id="a_Node000010"><a xlink:href="a00492.html#gaebef55c78d9df043c293ffcf8a06b63f" target="_top" xlink:title="Manages the power control state machine.">
<polygon fill="white" stroke="#666666" points="279.5,-142.87 145.75,-142.87 145.75,-122.87 279.5,-122.87 279.5,-142.87"/>
<text text-anchor="middle" x="212.62" y="-129.37" font-family="Helvetica,sans-Serif" font-size="10.00">Dev_PwrCtrl_StateMachine</text>
</a>
</g>
</g>
<!-- Node9&#45;&gt;Node10 -->
<g id="edge9_Node000009_Node000010" class="edge">
<title>Node9&#45;&gt;Node10</title>
<g id="a_edge9_Node000009_Node000010"><a xlink:title=" ">
<path fill="none" stroke="#63b8ff" d="M330.45,-179.21C325.34,-177.56 320.29,-175.77 315.5,-173.87 298.68,-167.21 296.14,-161.99 279.5,-154.87 269.63,-150.66 258.66,-146.71 248.55,-143.36"/>
<polygon fill="#63b8ff" stroke="#63b8ff" points="329.33,-182.84 339.92,-182.43 331.38,-176.15 329.33,-182.84"/>
</a>
</g>
</g>
<!-- Node11 -->
<g id="Node000011" class="node">
<title>Node11</title>
<g id="a_Node000011"><a xlink:href="a00489.html#gad5d6590aeda3bb06b60874802edc14f6" target="_top" xlink:title="Executes the power control state machine.">
<polygon fill="white" stroke="#666666" points="109.75,-142.87 0,-142.87 0,-122.87 109.75,-122.87 109.75,-142.87"/>
<text text-anchor="middle" x="54.88" y="-129.37" font-family="Helvetica,sans-Serif" font-size="10.00">Dev_PwrCtrl_Execute</text>
</a>
</g>
</g>
<!-- Node10&#45;&gt;Node11 -->
<g id="edge10_Node000010_Node000011" class="edge">
<title>Node10&#45;&gt;Node11</title>
<g id="a_edge10_Node000010_Node000011"><a xlink:title=" ">
<path fill="none" stroke="#63b8ff" d="M134.59,-132.87C126.2,-132.87 117.8,-132.87 109.78,-132.87"/>
<polygon fill="#63b8ff" stroke="#63b8ff" points="134.57,-136.38 144.57,-132.87 134.57,-129.38 134.57,-136.38"/>
</a>
</g>
</g>
<!-- Node12&#45;&gt;Node10 -->
<g id="edge12_Node000012_Node000010" class="edge">
<title>Node12&#45;&gt;Node10</title>
<g id="a_edge12_Node000012_Node000010"><a xlink:title=" ">
<path fill="none" stroke="#63b8ff" d="M304.58,-144.59C296.28,-143.52 287.92,-142.45 279.8,-141.4"/>
<polygon fill="#63b8ff" stroke="#63b8ff" points="304.05,-148.18 314.42,-145.99 304.95,-141.24 304.05,-148.18"/>
</a>
</g>
</g>
<!-- Node13&#45;&gt;Node10 -->
<g id="edge14_Node000013_Node000010" class="edge">
<title>Node13&#45;&gt;Node10</title>
<g id="a_edge14_Node000013_Node000010"><a xlink:title=" ">
<path fill="none" stroke="#63b8ff" d="M309.62,-120.51C299.68,-121.79 289.54,-123.09 279.76,-124.35"/>
<polygon fill="#63b8ff" stroke="#63b8ff" points="309.84,-123.88 319.31,-119.13 308.94,-116.94 309.84,-123.88"/>
</a>
</g>
</g>
<!-- Node15 -->
<g id="Node000015" class="node">
<title>Node15</title>
<g id="a_Node000015"><a xlink:href="a00492.html#ga42f7c8f65745b2f81bb6dbd381ea8121" target="_top" xlink:title="Executes Standby State machine.">
<polygon fill="white" stroke="#666666" points="447.38,-38.87 323.38,-38.87 323.38,-18.87 447.38,-18.87 447.38,-38.87"/>
<text text-anchor="middle" x="385.38" y="-25.37" font-family="Helvetica,sans-Serif" font-size="10.00">PCS_STANDBY_handler</text>
</a>
</g>
</g>
<!-- Node14&#45;&gt;Node15 -->
<g id="edge16_Node000014_Node000015" class="edge">
<title>Node14&#45;&gt;Node15</title>
<g id="a_edge16_Node000014_Node000015"><a xlink:title=" ">
<path fill="none" stroke="#63b8ff" d="M500.12,-54.02C478.47,-49.24 454.19,-43.87 433.64,-39.33"/>
<polygon fill="#63b8ff" stroke="#63b8ff" points="499.31,-57.65 509.83,-56.39 500.82,-50.81 499.31,-57.65"/>
</a>
</g>
</g>
<!-- Node15&#45;&gt;Node10 -->
<g id="edge17_Node000015_Node000010" class="edge">
<title>Node15&#45;&gt;Node10</title>
<g id="a_edge17_Node000015_Node000010"><a xlink:title=" ">
<path fill="none" stroke="#63b8ff" d="M326.3,-42.92C322.58,-44.43 318.94,-46.07 315.5,-47.87 276.93,-68.07 239.78,-104.77 222.98,-122.6"/>
<polygon fill="#63b8ff" stroke="#63b8ff" points="327.11,-45.99 335.31,-39.28 324.71,-39.41 327.11,-45.99"/>
</a>
</g>
</g>
<!-- Node16&#45;&gt;Node5 -->
<g id="edge19_Node000016_Node000005" class="edge">
<title>Node16&#45;&gt;Node5</title>
<g id="a_edge19_Node000016_Node000005"><a xlink:title=" ">
<path fill="none" stroke="#63b8ff" d="M512.13,-15.88C462.59,-4.07 382.02,8.88 315.5,-9.87 230.34,-33.89 213.89,-57.44 145.75,-113.87 137.39,-120.8 93.29,-170.43 70.12,-196.68"/>
<polygon fill="#63b8ff" stroke="#63b8ff" points="510.97,-19.44 521.52,-18.45 512.65,-12.65 510.97,-19.44"/>
</a>
</g>
</g>
<!-- Node16&#45;&gt;Node8 -->
<g id="edge20_Node000016_Node000008" class="edge">
<title>Node16&#45;&gt;Node8</title>
<g id="a_edge20_Node000016_Node000008"><a xlink:title=" ">
<path fill="none" stroke="#63b8ff" d="M500.12,-41.73C478.47,-46.51 454.19,-51.88 433.64,-56.42"/>
<polygon fill="#63b8ff" stroke="#63b8ff" points="500.82,-44.94 509.83,-39.36 499.31,-38.1 500.82,-44.94"/>
</a>
</g>
</g>
<!-- Node16&#45;&gt;Node15 -->
<g id="edge21_Node000016_Node000015" class="edge">
<title>Node16&#45;&gt;Node15</title>
<g id="a_edge21_Node000016_Node000015"><a xlink:title=" ">
<path fill="none" stroke="#63b8ff" d="M480.84,-28.87C469.79,-28.87 458.55,-28.87 447.87,-28.87"/>
<polygon fill="#63b8ff" stroke="#63b8ff" points="480.8,-32.38 490.8,-28.87 480.8,-25.38 480.8,-32.38"/>
</a>
</g>
</g>
</g>
</svg>
