<?xml version="1.0" encoding="UTF-8" standalone="no"?>
<!DOCTYPE svg PUBLIC "-//W3C//DTD SVG 1.1//EN"
 "http://www.w3.org/Graphics/SVG/1.1/DTD/svg11.dtd">
<!-- Generated by graphviz version 8.1.0 (20230707.0739)
 -->
<!-- Title: PWM_OverrideLowDisable Pages: 1 -->
<svg width="784pt" height="28pt"
 viewBox="0.00 0.00 784.00 28.00" xmlns="http://www.w3.org/2000/svg" xmlns:xlink="http://www.w3.org/1999/xlink">
<g id="graph0" class="graph" transform="scale(1 1) rotate(0) translate(4 24)">
<title>PWM_OverrideLowDisable</title>
<!-- Node1 -->
<g id="Node000001" class="node">
<title>Node1</title>
<g id="a_Node000001"><a xlink:title="This inline function disables PWM override on PWML output for specific PWM generator selected by the ...">
<polygon fill="#999999" stroke="#666666" points="776,-20 645.25,-20 645.25,0 776,0 776,-20"/>
<text text-anchor="middle" x="710.62" y="-6.5" font-family="Helvetica,sans-Serif" font-size="10.00">PWM_OverrideLowDisable</text>
</a>
</g>
</g>
<!-- Node2 -->
<g id="Node000002" class="node">
<title>Node2</title>
<g id="a_Node000002"><a xlink:href="a00518.html#ga785129640802350613ea99da4e099ce4" target="_top" xlink:title="Enable the PWM output.">
<polygon fill="white" stroke="#666666" points="609.25,-20 475.5,-20 475.5,0 609.25,0 609.25,-20"/>
<text text-anchor="middle" x="542.38" y="-6.5" font-family="Helvetica,sans-Serif" font-size="10.00">Dev_PwrCtrl_PWM_Enable</text>
</a>
</g>
</g>
<!-- Node1&#45;&gt;Node2 -->
<g id="edge1_Node000001_Node000002" class="edge">
<title>Node1&#45;&gt;Node2</title>
<g id="a_edge1_Node000001_Node000002"><a xlink:title=" ">
<path fill="none" stroke="#63b8ff" d="M633.9,-10C625.79,-10 617.58,-10 609.59,-10"/>
<polygon fill="#63b8ff" stroke="#63b8ff" points="633.87,-13.5 643.87,-10 633.87,-6.5 633.87,-13.5"/>
</a>
</g>
</g>
<!-- Node3 -->
<g id="Node000003" class="node">
<title>Node3</title>
<g id="a_Node000003"><a xlink:href="a00518.html#ga42f7c8f65745b2f81bb6dbd381ea8121" target="_top" xlink:title="Executes Standby State machine.">
<polygon fill="white" stroke="#666666" points="439.5,-20 315.5,-20 315.5,0 439.5,0 439.5,-20"/>
<text text-anchor="middle" x="377.5" y="-6.5" font-family="Helvetica,sans-Serif" font-size="10.00">PCS_STANDBY_handler</text>
</a>
</g>
</g>
<!-- Node2&#45;&gt;Node3 -->
<g id="edge2_Node000002_Node000003" class="edge">
<title>Node2&#45;&gt;Node3</title>
<g id="a_edge2_Node000002_Node000003"><a xlink:title=" ">
<path fill="none" stroke="#63b8ff" d="M464.13,-10C456.02,-10 447.86,-10 439.96,-10"/>
<polygon fill="#63b8ff" stroke="#63b8ff" points="464.13,-13.5 474.13,-10 464.13,-6.5 464.13,-13.5"/>
</a>
</g>
</g>
<!-- Node4 -->
<g id="Node000004" class="node">
<title>Node4</title>
<g id="a_Node000004"><a xlink:href="a00518.html#gaebef55c78d9df043c293ffcf8a06b63f" target="_top" xlink:title="Manages the power control state machine.">
<polygon fill="white" stroke="#666666" points="279.5,-20 145.75,-20 145.75,0 279.5,0 279.5,-20"/>
<text text-anchor="middle" x="212.62" y="-6.5" font-family="Helvetica,sans-Serif" font-size="10.00">Dev_PwrCtrl_StateMachine</text>
</a>
</g>
</g>
<!-- Node3&#45;&gt;Node4 -->
<g id="edge3_Node000003_Node000004" class="edge">
<title>Node3&#45;&gt;Node4</title>
<g id="a_edge3_Node000003_Node000004"><a xlink:title=" ">
<path fill="none" stroke="#63b8ff" d="M304.42,-10C296.29,-10 288.04,-10 279.99,-10"/>
<polygon fill="#63b8ff" stroke="#63b8ff" points="304.39,-13.5 314.39,-10 304.39,-6.5 304.39,-13.5"/>
</a>
</g>
</g>
<!-- Node5 -->
<g id="Node000005" class="node">
<title>Node5</title>
<g id="a_Node000005"><a xlink:href="a00518.html#gad5d6590aeda3bb06b60874802edc14f6" target="_top" xlink:title="Executes the power control state machine.">
<polygon fill="white" stroke="#666666" points="109.75,-20 0,-20 0,0 109.75,0 109.75,-20"/>
<text text-anchor="middle" x="54.88" y="-6.5" font-family="Helvetica,sans-Serif" font-size="10.00">Dev_PwrCtrl_Execute</text>
</a>
</g>
</g>
<!-- Node4&#45;&gt;Node5 -->
<g id="edge4_Node000004_Node000005" class="edge">
<title>Node4&#45;&gt;Node5</title>
<g id="a_edge4_Node000004_Node000005"><a xlink:title=" ">
<path fill="none" stroke="#63b8ff" d="M134.59,-10C126.2,-10 117.8,-10 109.78,-10"/>
<polygon fill="#63b8ff" stroke="#63b8ff" points="134.57,-13.5 144.57,-10 134.57,-6.5 134.57,-13.5"/>
</a>
</g>
</g>
</g>
</svg>
