<?xml version="1.0" encoding="UTF-8" standalone="no"?>
<!DOCTYPE svg PUBLIC "-//W3C//DTD SVG 1.1//EN"
 "http://www.w3.org/Graphics/SVG/1.1/DTD/svg11.dtd">
<!-- Generated by graphviz version 8.1.0 (20230707.0739)
 -->
<!-- Title: PCS_SOFT_START_handler Pages: 1 -->
<svg width="492pt" height="104pt"
 viewBox="0.00 0.00 491.75 104.00" xmlns="http://www.w3.org/2000/svg" xmlns:xlink="http://www.w3.org/1999/xlink">
<g id="graph0" class="graph" transform="scale(1 1) rotate(0) translate(4 100)">
<title>PCS_SOFT_START_handler</title>
<!-- Node1 -->
<g id="Node000001" class="node">
<title>Node1</title>
<g id="a_Node000001"><a xlink:title="Executes the power control soft start state machine.">
<polygon fill="#999999" stroke="#666666" points="139.75,-39 0,-39 0,-19 139.75,-19 139.75,-39"/>
<text text-anchor="middle" x="69.88" y="-25.5" font-family="Helvetica,sans-Serif" font-size="10.00">PCS_SOFT_START_handler</text>
</a>
</g>
</g>
<!-- Node2 -->
<g id="Node000002" class="node">
<title>Node2</title>
<g id="a_Node000002"><a xlink:href="a00544.html#ga79ec0c0e524a03b3a3d423308b89bb99" target="_top" xlink:title="Disable the PWM output.">
<polygon fill="white" stroke="#666666" points="294.12,-58 179.12,-58 179.12,-38 294.12,-38 294.12,-58"/>
<text text-anchor="middle" x="236.62" y="-44.5" font-family="Helvetica,sans-Serif" font-size="10.00">PwrCtrl_PWM_Disable</text>
</a>
</g>
</g>
<!-- Node1&#45;&gt;Node2 -->
<g id="edge1_Node000001_Node000002" class="edge">
<title>Node1&#45;&gt;Node2</title>
<g id="a_edge1_Node000001_Node000002"><a xlink:title=" ">
<path fill="none" stroke="#63b8ff" d="M139.79,-36.95C149.11,-38.02 158.66,-39.12 167.95,-40.2"/>
<polygon fill="#63b8ff" stroke="#63b8ff" points="167.38,-43.77 177.71,-41.44 168.18,-36.81 167.38,-43.77"/>
</a>
</g>
</g>
<!-- Node6 -->
<g id="Node000006" class="node">
<title>Node6</title>
<g id="a_Node000006"><a xlink:href="a00548.html#ga59bb2fab32dc783d76f800283b4c7e2b" target="_top" xlink:title="Softly increment / decrement to the set reference target.">
<polygon fill="white" stroke="#666666" points="297.5,-20 175.75,-20 175.75,0 297.5,0 297.5,-20"/>
<text text-anchor="middle" x="236.62" y="-6.5" font-family="Helvetica,sans-Serif" font-size="10.00">PwrCtrl_RampReference</text>
</a>
</g>
</g>
<!-- Node1&#45;&gt;Node6 -->
<g id="edge5_Node000001_Node000006" class="edge">
<title>Node1&#45;&gt;Node6</title>
<g id="a_edge5_Node000001_Node000006"><a xlink:title=" ">
<path fill="none" stroke="#63b8ff" d="M139.79,-21.05C148,-20.1 156.4,-19.14 164.65,-18.19"/>
<polygon fill="#63b8ff" stroke="#63b8ff" points="164.83,-21.57 174.37,-16.95 164.03,-14.62 164.83,-21.57"/>
</a>
</g>
</g>
<!-- Node3 -->
<g id="Node000003" class="node">
<title>Node3</title>
<g id="a_Node000003"><a xlink:href="a00562.html#ga531b59d8823e3ebda2da60f48582bcf3" target="_top" xlink:title="This inline function enables PWM override on PWMH output for specific PWM generator selected by the a...">
<polygon fill="white" stroke="#666666" points="474,-96 343.25,-96 343.25,-76 474,-76 474,-96"/>
<text text-anchor="middle" x="408.62" y="-82.5" font-family="Helvetica,sans-Serif" font-size="10.00">PWM_OverrideHighEnable</text>
</a>
</g>
</g>
<!-- Node2&#45;&gt;Node3 -->
<g id="edge2_Node000002_Node000003" class="edge">
<title>Node2&#45;&gt;Node3</title>
<g id="a_edge2_Node000002_Node000003"><a xlink:title=" ">
<path fill="none" stroke="#63b8ff" d="M284.53,-58.48C304.87,-63.03 328.89,-68.4 350.29,-73.18"/>
<polygon fill="#63b8ff" stroke="#63b8ff" points="349.35,-76.78 359.87,-75.55 350.88,-69.95 349.35,-76.78"/>
</a>
</g>
</g>
<!-- Node4 -->
<g id="Node000004" class="node">
<title>Node4</title>
<g id="a_Node000004"><a xlink:href="a00562.html#ga2548ca8feda75ba6ab784280679da6ae" target="_top" xlink:title="This inline function enables PWM override on PWML output for specific PWM generator selected by the a...">
<polygon fill="white" stroke="#666666" points="472.88,-58 344.38,-58 344.38,-38 472.88,-38 472.88,-58"/>
<text text-anchor="middle" x="408.62" y="-44.5" font-family="Helvetica,sans-Serif" font-size="10.00">PWM_OverrideLowEnable</text>
</a>
</g>
</g>
<!-- Node2&#45;&gt;Node4 -->
<g id="edge3_Node000002_Node000004" class="edge">
<title>Node2&#45;&gt;Node4</title>
<g id="a_edge3_Node000002_Node000004"><a xlink:title=" ">
<path fill="none" stroke="#63b8ff" d="M294.23,-48C306.68,-48 320.05,-48 333.09,-48"/>
<polygon fill="#63b8ff" stroke="#63b8ff" points="332.93,-51.5 342.93,-48 332.93,-44.5 332.93,-51.5"/>
</a>
</g>
</g>
<!-- Node5 -->
<g id="Node000005" class="node">
<title>Node5</title>
<g id="a_Node000005"><a xlink:href="a00562.html#ga83e780358618114f0d424ca7467cf751" target="_top" xlink:title="This inline function requests to update the data registers for specific PWM generator selected by the...">
<polygon fill="white" stroke="#666666" points="483.75,-20 333.5,-20 333.5,0 483.75,0 483.75,-20"/>
<text text-anchor="middle" x="408.62" y="-6.5" font-family="Helvetica,sans-Serif" font-size="10.00">PWM_SoftwareUpdateRequest</text>
</a>
</g>
</g>
<!-- Node2&#45;&gt;Node5 -->
<g id="edge4_Node000002_Node000005" class="edge">
<title>Node2&#45;&gt;Node5</title>
<g id="a_edge4_Node000002_Node000005"><a xlink:title=" ">
<path fill="none" stroke="#63b8ff" d="M284.53,-37.52C304.87,-32.97 328.89,-27.6 350.29,-22.82"/>
<polygon fill="#63b8ff" stroke="#63b8ff" points="350.88,-26.05 359.87,-20.45 349.35,-19.22 350.88,-26.05"/>
</a>
</g>
</g>
</g>
</svg>
