<?xml version="1.0" encoding="UTF-8" standalone="no"?>
<!DOCTYPE svg PUBLIC "-//W3C//DTD SVG 1.1//EN"
 "http://www.w3.org/Graphics/SVG/1.1/DTD/svg11.dtd">
<!-- Generated by graphviz version 8.1.0 (20230707.0739)
 -->
<!-- Title: Fault_Temp_100ms Pages: 1 -->
<svg width="659pt" height="142pt"
 viewBox="0.00 0.00 658.50 142.00" xmlns="http://www.w3.org/2000/svg" xmlns:xlink="http://www.w3.org/1999/xlink">
<g id="graph0" class="graph" transform="scale(1 1) rotate(0) translate(4 138)">
<title>Fault_Temp_100ms</title>
<!-- Node1 -->
<g id="Node000001" class="node">
<title>Node1</title>
<g id="a_Node000001"><a xlink:title="Fault evaluation for Temperature.">
<polygon fill="#999999" stroke="#666666" points="101.5,-96 0,-96 0,-76 101.5,-76 101.5,-96"/>
<text text-anchor="middle" x="50.75" y="-82.5" font-family="Helvetica,sans-Serif" font-size="10.00">Fault_Temp_100ms</text>
</a>
</g>
</g>
<!-- Node2 -->
<g id="Node000002" class="node">
<title>Node2</title>
<g id="a_Node000002"><a xlink:href="a00501.html#ga6ce3446cb43022df6a5a96c90ec70a17" target="_top" xlink:title="Gets the temperature ADC sample.">
<polygon fill="white" stroke="#666666" points="283.25,-134 137.5,-134 137.5,-114 283.25,-114 283.25,-134"/>
<text text-anchor="middle" x="210.38" y="-120.5" font-family="Helvetica,sans-Serif" font-size="10.00">Dev_Temp_Get_ADC_Sample</text>
</a>
</g>
</g>
<!-- Node1&#45;&gt;Node2 -->
<g id="edge1_Node000001_Node000002" class="edge">
<title>Node1&#45;&gt;Node2</title>
<g id="a_edge1_Node000001_Node000002"><a xlink:title=" ">
<path fill="none" stroke="#63b8ff" d="M95.24,-96.48C113.85,-100.97 135.76,-106.25 155.39,-110.99"/>
<polygon fill="#63b8ff" stroke="#63b8ff" points="154.49,-114.61 165.03,-113.55 156.13,-107.8 154.49,-114.61"/>
</a>
</g>
</g>
<!-- Node4 -->
<g id="Node000004" class="node">
<title>Node4</title>
<g id="a_Node000004"><a xlink:href="a00516.html#gabe4788eb1b8be3ad755eb7daf6bba295" target="_top" xlink:title="This function compares the fault source value with the threshold limits and sets (or) resets the faul...">
<polygon fill="white" stroke="#666666" points="257.75,-96 163,-96 163,-76 257.75,-76 257.75,-96"/>
<text text-anchor="middle" x="210.38" y="-82.5" font-family="Helvetica,sans-Serif" font-size="10.00">FAULT_CheckMin</text>
</a>
</g>
</g>
<!-- Node1&#45;&gt;Node4 -->
<g id="edge3_Node000001_Node000004" class="edge">
<title>Node1&#45;&gt;Node4</title>
<g id="a_edge3_Node000001_Node000004"><a xlink:title=" ">
<path fill="none" stroke="#63b8ff" d="M101.62,-86C117.6,-86 135.43,-86 151.91,-86"/>
<polygon fill="#63b8ff" stroke="#63b8ff" points="151.51,-89.5 161.51,-86 151.51,-82.5 151.51,-89.5"/>
</a>
</g>
</g>
<!-- Node5 -->
<g id="Node000005" class="node">
<title>Node5</title>
<g id="a_Node000005"><a xlink:href="a00515.html#gaf27f2f24932cec222273df148f8765cb" target="_top" xlink:title="Handles the fault trip by turning off the power control switching.">
<polygon fill="white" stroke="#666666" points="248.38,-58 172.38,-58 172.38,-38 248.38,-38 248.38,-58"/>
<text text-anchor="middle" x="210.38" y="-44.5" font-family="Helvetica,sans-Serif" font-size="10.00">Fault_Handler</text>
</a>
</g>
</g>
<!-- Node1&#45;&gt;Node5 -->
<g id="edge4_Node000001_Node000005" class="edge">
<title>Node1&#45;&gt;Node5</title>
<g id="a_edge4_Node000001_Node000005"><a xlink:title=" ">
<path fill="none" stroke="#63b8ff" d="M95.24,-75.52C115.73,-70.58 140.23,-64.67 161.27,-59.6"/>
<polygon fill="#63b8ff" stroke="#63b8ff" points="162.01,-62.78 170.91,-57.03 160.37,-55.97 162.01,-62.78"/>
</a>
</g>
</g>
<!-- Node3 -->
<g id="Node000003" class="node">
<title>Node3</title>
<g id="a_Node000003"><a xlink:href="a00511.html#gac82d4ab7cf3f3ca8180033a4d17d789f" target="_top" xlink:title="API function to get the raw ADC value for temperature.">
<polygon fill="white" stroke="#666666" points="464.25,-134 319.25,-134 319.25,-114 464.25,-114 464.25,-134"/>
<text text-anchor="middle" x="391.75" y="-120.5" font-family="Helvetica,sans-Serif" font-size="10.00">PwrCtrl_GetAdc_Temperature</text>
</a>
</g>
</g>
<!-- Node2&#45;&gt;Node3 -->
<g id="edge2_Node000002_Node000003" class="edge">
<title>Node2&#45;&gt;Node3</title>
<g id="a_edge2_Node000002_Node000003"><a xlink:title=" ">
<path fill="none" stroke="#63b8ff" d="M283.56,-124C291.68,-124 300,-124 308.24,-124"/>
<polygon fill="#63b8ff" stroke="#63b8ff" points="308.01,-127.5 318.01,-124 308.01,-120.5 308.01,-127.5"/>
</a>
</g>
</g>
<!-- Node6 -->
<g id="Node000006" class="node">
<title>Node6</title>
<g id="a_Node000006"><a xlink:href="a00508.html#ga79ec0c0e524a03b3a3d423308b89bb99" target="_top" xlink:title="Disable the PWM output.">
<polygon fill="white" stroke="#666666" points="449.25,-58 334.25,-58 334.25,-38 449.25,-38 449.25,-58"/>
<text text-anchor="middle" x="391.75" y="-44.5" font-family="Helvetica,sans-Serif" font-size="10.00">PwrCtrl_PWM_Disable</text>
</a>
</g>
</g>
<!-- Node5&#45;&gt;Node6 -->
<g id="edge5_Node000005_Node000006" class="edge">
<title>Node5&#45;&gt;Node6</title>
<g id="a_edge5_Node000005_Node000006"><a xlink:title=" ">
<path fill="none" stroke="#63b8ff" d="M248.54,-48C270,-48 297.64,-48 322.84,-48"/>
<polygon fill="#63b8ff" stroke="#63b8ff" points="322.84,-51.5 332.84,-48 322.84,-44.5 322.84,-51.5"/>
</a>
</g>
</g>
<!-- Node7 -->
<g id="Node000007" class="node">
<title>Node7</title>
<g id="a_Node000007"><a xlink:href="a00526.html#ga531b59d8823e3ebda2da60f48582bcf3" target="_top" xlink:title="This inline function enables PWM override on PWMH output for specific PWM generator selected by the a...">
<polygon fill="white" stroke="#666666" points="640.75,-96 510,-96 510,-76 640.75,-76 640.75,-96"/>
<text text-anchor="middle" x="575.38" y="-82.5" font-family="Helvetica,sans-Serif" font-size="10.00">PWM_OverrideHighEnable</text>
</a>
</g>
</g>
<!-- Node6&#45;&gt;Node7 -->
<g id="edge6_Node000006_Node000007" class="edge">
<title>Node6&#45;&gt;Node7</title>
<g id="a_edge6_Node000006_Node000007"><a xlink:title=" ">
<path fill="none" stroke="#63b8ff" d="M442.86,-58.48C464.8,-63.07 490.73,-68.5 513.74,-73.31"/>
<polygon fill="#63b8ff" stroke="#63b8ff" points="512.92,-76.93 523.43,-75.55 514.36,-70.08 512.92,-76.93"/>
</a>
</g>
</g>
<!-- Node8 -->
<g id="Node000008" class="node">
<title>Node8</title>
<g id="a_Node000008"><a xlink:href="a00526.html#ga2548ca8feda75ba6ab784280679da6ae" target="_top" xlink:title="This inline function enables PWM override on PWML output for specific PWM generator selected by the a...">
<polygon fill="white" stroke="#666666" points="639.62,-58 511.12,-58 511.12,-38 639.62,-38 639.62,-58"/>
<text text-anchor="middle" x="575.38" y="-44.5" font-family="Helvetica,sans-Serif" font-size="10.00">PWM_OverrideLowEnable</text>
</a>
</g>
</g>
<!-- Node6&#45;&gt;Node8 -->
<g id="edge7_Node000006_Node000008" class="edge">
<title>Node6&#45;&gt;Node8</title>
<g id="a_edge7_Node000006_Node000008"><a xlink:title=" ">
<path fill="none" stroke="#63b8ff" d="M449.72,-48C465.59,-48 483.07,-48 499.8,-48"/>
<polygon fill="#63b8ff" stroke="#63b8ff" points="499.65,-51.5 509.65,-48 499.65,-44.5 499.65,-51.5"/>
</a>
</g>
</g>
<!-- Node9 -->
<g id="Node000009" class="node">
<title>Node9</title>
<g id="a_Node000009"><a xlink:href="a00526.html#ga83e780358618114f0d424ca7467cf751" target="_top" xlink:title="This inline function requests to update the data registers for specific PWM generator selected by the...">
<polygon fill="white" stroke="#666666" points="650.5,-20 500.25,-20 500.25,0 650.5,0 650.5,-20"/>
<text text-anchor="middle" x="575.38" y="-6.5" font-family="Helvetica,sans-Serif" font-size="10.00">PWM_SoftwareUpdateRequest</text>
</a>
</g>
</g>
<!-- Node6&#45;&gt;Node9 -->
<g id="edge8_Node000006_Node000009" class="edge">
<title>Node6&#45;&gt;Node9</title>
<g id="a_edge8_Node000006_Node000009"><a xlink:title=" ">
<path fill="none" stroke="#63b8ff" d="M442.86,-37.52C464.8,-32.93 490.73,-27.5 513.74,-22.69"/>
<polygon fill="#63b8ff" stroke="#63b8ff" points="514.36,-25.92 523.43,-20.45 512.92,-19.07 514.36,-25.92"/>
</a>
</g>
</g>
</g>
</svg>
