<?xml version="1.0" encoding="UTF-8" standalone="no"?>
<!DOCTYPE svg PUBLIC "-//W3C//DTD SVG 1.1//EN"
 "http://www.w3.org/Graphics/SVG/1.1/DTD/svg11.dtd">
<!-- Generated by graphviz version 8.1.0 (20230707.0739)
 -->
<!-- Title: Dev_PwrCtrl_Initialize Pages: 1 -->
<svg width="486pt" height="294pt"
 viewBox="0.00 0.00 485.75 294.00" xmlns="http://www.w3.org/2000/svg" xmlns:xlink="http://www.w3.org/1999/xlink">
<g id="graph0" class="graph" transform="scale(1 1) rotate(0) translate(4 290)">
<title>Dev_PwrCtrl_Initialize</title>
<!-- Node1 -->
<g id="Node000001" class="node">
<title>Node1</title>
<g id="a_Node000001"><a xlink:title="Initialize the power control parameters.">
<polygon fill="#999999" stroke="#666666" points="109,-134 0,-134 0,-114 109,-114 109,-134"/>
<text text-anchor="middle" x="54.5" y="-120.5" font-family="Helvetica,sans-Serif" font-size="10.00">Dev_PwrCtrl_Initialize</text>
</a>
</g>
</g>
<!-- Node2 -->
<g id="Node000002" class="node">
<title>Node2</title>
<g id="a_Node000002"><a xlink:href="a00518.html#ga1da8b184470e7693ac0467bf255272c4" target="_top" xlink:title="Disable the PWM output.">
<polygon fill="white" stroke="#666666" points="281,-229 145,-229 145,-209 281,-209 281,-229"/>
<text text-anchor="middle" x="213" y="-215.5" font-family="Helvetica,sans-Serif" font-size="10.00">Dev_PwrCtrl_PWM_Disable</text>
</a>
</g>
</g>
<!-- Node1&#45;&gt;Node2 -->
<g id="edge1_Node000001_Node000002" class="edge">
<title>Node1&#45;&gt;Node2</title>
<g id="a_edge1_Node000001_Node000002"><a xlink:title=" ">
<path fill="none" stroke="#63b8ff" d="M72.55,-134.35C99.83,-150.91 153.5,-183.49 185.72,-203.05"/>
<polygon fill="#63b8ff" stroke="#63b8ff" points="183.61,-206.47 193.97,-208.67 187.24,-200.48 183.61,-206.47"/>
</a>
</g>
</g>
<!-- Node6 -->
<g id="Node000006" class="node">
<title>Node6</title>
<g id="a_Node000006"><a xlink:href="a00518.html#ga2da42ebbee6a24170cd69c0c798a572e" target="_top" xlink:title="PWM distribution for DAB converter.">
<polygon fill="white" stroke="#666666" points="280.25,-134 145.75,-134 145.75,-114 280.25,-114 280.25,-134"/>
<text text-anchor="middle" x="213" y="-120.5" font-family="Helvetica,sans-Serif" font-size="10.00">Dev_PwrCtrl_PWM_Update</text>
</a>
</g>
</g>
<!-- Node1&#45;&gt;Node6 -->
<g id="edge5_Node000001_Node000006" class="edge">
<title>Node1&#45;&gt;Node6</title>
<g id="a_edge5_Node000001_Node000006"><a xlink:title=" ">
<path fill="none" stroke="#63b8ff" d="M109.36,-124C117.5,-124 126.04,-124 134.56,-124"/>
<polygon fill="#63b8ff" stroke="#63b8ff" points="134.32,-127.5 144.32,-124 134.32,-120.5 134.32,-127.5"/>
</a>
</g>
</g>
<!-- Node12 -->
<g id="Node000012" class="node">
<title>Node12</title>
<g id="a_Node000012"><a xlink:href="a00534.html#gaf61d06e6e907cd4dfcef3a40792ee82f" target="_top" xlink:title="This inline function will enable all the generators of PWM module.">
<polygon fill="white" stroke="#666666" points="251,-96 175,-96 175,-76 251,-76 251,-96"/>
<text text-anchor="middle" x="213" y="-82.5" font-family="Helvetica,sans-Serif" font-size="10.00">PWM_Enable</text>
</a>
</g>
</g>
<!-- Node1&#45;&gt;Node12 -->
<g id="edge12_Node000001_Node000012" class="edge">
<title>Node1&#45;&gt;Node12</title>
<g id="a_edge12_Node000001_Node000012"><a xlink:title=" ">
<path fill="none" stroke="#63b8ff" d="M98.68,-113.52C118.94,-108.6 143.16,-102.72 164,-97.66"/>
<polygon fill="#63b8ff" stroke="#63b8ff" points="164.65,-100.86 173.55,-95.09 163,-94.05 164.65,-100.86"/>
</a>
</g>
</g>
<!-- Node3 -->
<g id="Node000003" class="node">
<title>Node3</title>
<g id="a_Node000003"><a xlink:href="a00534.html#ga531b59d8823e3ebda2da60f48582bcf3" target="_top" xlink:title="This inline function enables PWM override on PWMH output for specific PWM generator selected by the a...">
<polygon fill="white" stroke="#666666" points="462.75,-286 332,-286 332,-266 462.75,-266 462.75,-286"/>
<text text-anchor="middle" x="397.38" y="-272.5" font-family="Helvetica,sans-Serif" font-size="10.00">PWM_OverrideHighEnable</text>
</a>
</g>
</g>
<!-- Node2&#45;&gt;Node3 -->
<g id="edge2_Node000002_Node000003" class="edge">
<title>Node2&#45;&gt;Node3</title>
<g id="a_edge2_Node000002_Node000003"><a xlink:title=" ">
<path fill="none" stroke="#63b8ff" d="M239.53,-229.38C260.2,-237.55 290.19,-248.88 317,-257 323.83,-259.07 331.05,-261.06 338.24,-262.93"/>
<polygon fill="#63b8ff" stroke="#63b8ff" points="337.15,-266.51 347.7,-265.56 338.86,-259.72 337.15,-266.51"/>
</a>
</g>
</g>
<!-- Node4 -->
<g id="Node000004" class="node">
<title>Node4</title>
<g id="a_Node000004"><a xlink:href="a00534.html#ga2548ca8feda75ba6ab784280679da6ae" target="_top" xlink:title="This inline function enables PWM override on PWML output for specific PWM generator selected by the a...">
<polygon fill="white" stroke="#666666" points="461.62,-248 333.12,-248 333.12,-228 461.62,-228 461.62,-248"/>
<text text-anchor="middle" x="397.38" y="-234.5" font-family="Helvetica,sans-Serif" font-size="10.00">PWM_OverrideLowEnable</text>
</a>
</g>
</g>
<!-- Node2&#45;&gt;Node4 -->
<g id="edge3_Node000002_Node000004" class="edge">
<title>Node2&#45;&gt;Node4</title>
<g id="a_edge3_Node000002_Node000004"><a xlink:title=" ">
<path fill="none" stroke="#63b8ff" d="M281.39,-226.02C294.68,-227.41 308.7,-228.87 322.2,-230.27"/>
<polygon fill="#63b8ff" stroke="#63b8ff" points="321.58,-233.83 331.89,-231.39 322.31,-226.87 321.58,-233.83"/>
</a>
</g>
</g>
<!-- Node5 -->
<g id="Node000005" class="node">
<title>Node5</title>
<g id="a_Node000005"><a xlink:href="a00534.html#ga83e780358618114f0d424ca7467cf751" target="_top" xlink:title="This inline function requests to update the data registers for specific PWM generator selected by the...">
<polygon fill="white" stroke="#666666" points="472.5,-210 322.25,-210 322.25,-190 472.5,-190 472.5,-210"/>
<text text-anchor="middle" x="397.38" y="-196.5" font-family="Helvetica,sans-Serif" font-size="10.00">PWM_SoftwareUpdateRequest</text>
</a>
</g>
</g>
<!-- Node2&#45;&gt;Node5 -->
<g id="edge4_Node000002_Node000005" class="edge">
<title>Node2&#45;&gt;Node5</title>
<g id="a_edge4_Node000002_Node000005"><a xlink:title=" ">
<path fill="none" stroke="#63b8ff" d="M281.39,-211.98C291.08,-210.97 301.15,-209.92 311.13,-208.88"/>
<polygon fill="#63b8ff" stroke="#63b8ff" points="311.31,-212.28 320.89,-207.76 310.59,-205.31 311.31,-212.28"/>
</a>
</g>
</g>
<!-- Node6&#45;&gt;Node5 -->
<g id="edge10_Node000006_Node000005" class="edge">
<title>Node6&#45;&gt;Node5</title>
<g id="a_edge10_Node000006_Node000005"><a xlink:title=" ">
<path fill="none" stroke="#63b8ff" d="M229.75,-134.5C249.41,-147.17 284.42,-168.36 317,-181 322.28,-183.05 327.85,-184.92 333.49,-186.63"/>
<polygon fill="#63b8ff" stroke="#63b8ff" points="332.09,-190.15 342.67,-189.51 334,-183.42 332.09,-190.15"/>
</a>
</g>
</g>
<!-- Node7 -->
<g id="Node000007" class="node">
<title>Node7</title>
<g id="a_Node000007"><a xlink:href="a00534.html#gaf368256a569a5a9e12f85f84d7d42287" target="_top" xlink:title="This inline function updates PWM Deadtime high register with the requested value for a specific PWM g...">
<polygon fill="white" stroke="#666666" points="459.38,-172 335.38,-172 335.38,-152 459.38,-152 459.38,-172"/>
<text text-anchor="middle" x="397.38" y="-158.5" font-family="Helvetica,sans-Serif" font-size="10.00">PWM_DeadTimeHighSet</text>
</a>
</g>
</g>
<!-- Node6&#45;&gt;Node7 -->
<g id="edge6_Node000006_Node000007" class="edge">
<title>Node6&#45;&gt;Node7</title>
<g id="a_edge6_Node000006_Node000007"><a xlink:title=" ">
<path fill="none" stroke="#63b8ff" d="M264.32,-134.48C286.34,-139.07 312.38,-144.5 335.49,-149.31"/>
<polygon fill="#63b8ff" stroke="#63b8ff" points="334.72,-152.94 345.22,-151.55 336.15,-146.08 334.72,-152.94"/>
</a>
</g>
</g>
<!-- Node8 -->
<g id="Node000008" class="node">
<title>Node8</title>
<g id="a_Node000008"><a xlink:href="a00534.html#ga124426b28426beb53948e9b57319ab4b" target="_top" xlink:title="This inline function updates PWM Deadtime low register with the requested value for a specific PWM ge...">
<polygon fill="white" stroke="#666666" points="458.25,-134 336.5,-134 336.5,-114 458.25,-114 458.25,-134"/>
<text text-anchor="middle" x="397.38" y="-120.5" font-family="Helvetica,sans-Serif" font-size="10.00">PWM_DeadTimeLowSet</text>
</a>
</g>
</g>
<!-- Node6&#45;&gt;Node8 -->
<g id="edge7_Node000006_Node000008" class="edge">
<title>Node6&#45;&gt;Node8</title>
<g id="a_edge7_Node000006_Node000008"><a xlink:title=" ">
<path fill="none" stroke="#63b8ff" d="M280.62,-124C295.27,-124 310.84,-124 325.66,-124"/>
<polygon fill="#63b8ff" stroke="#63b8ff" points="325.28,-127.5 335.28,-124 325.28,-120.5 325.28,-127.5"/>
</a>
</g>
</g>
<!-- Node9 -->
<g id="Node000009" class="node">
<title>Node9</title>
<g id="a_Node000009"><a xlink:href="a00534.html#ga37968a783e44cd80643478d2b559dbf4" target="_top" xlink:title="This inline function sets the PWM generator specific duty cycle register.">
<polygon fill="white" stroke="#666666" points="450.38,-96 344.38,-96 344.38,-76 450.38,-76 450.38,-96"/>
<text text-anchor="middle" x="397.38" y="-82.5" font-family="Helvetica,sans-Serif" font-size="10.00">PWM_DutyCycleSet</text>
</a>
</g>
</g>
<!-- Node6&#45;&gt;Node9 -->
<g id="edge8_Node000006_Node000009" class="edge">
<title>Node6&#45;&gt;Node9</title>
<g id="a_edge8_Node000006_Node000009"><a xlink:title=" ">
<path fill="none" stroke="#63b8ff" d="M264.32,-113.52C286.34,-108.93 312.38,-103.5 335.49,-98.69"/>
<polygon fill="#63b8ff" stroke="#63b8ff" points="336.15,-101.92 345.22,-96.45 334.72,-95.06 336.15,-101.92"/>
</a>
</g>
</g>
<!-- Node10 -->
<g id="Node000010" class="node">
<title>Node10</title>
<g id="a_Node000010"><a xlink:href="a00534.html#gada46160823b0892a1af14a17c5ab516e" target="_top" xlink:title="This inline function sets the period value in count for the PWM generator specific Time Base.">
<polygon fill="white" stroke="#666666" points="441.75,-58 353,-58 353,-38 441.75,-38 441.75,-58"/>
<text text-anchor="middle" x="397.38" y="-44.5" font-family="Helvetica,sans-Serif" font-size="10.00">PWM_PeriodSet</text>
</a>
</g>
</g>
<!-- Node6&#45;&gt;Node10 -->
<g id="edge9_Node000006_Node000010" class="edge">
<title>Node6&#45;&gt;Node10</title>
<g id="a_edge9_Node000006_Node000010"><a xlink:title=" ">
<path fill="none" stroke="#63b8ff" d="M262.53,-113.62C268.97,-111.28 275.31,-108.44 281,-105 300.9,-92.95 296.85,-78.63 317,-67 324.68,-62.57 333.34,-59.17 342.05,-56.56"/>
<polygon fill="#63b8ff" stroke="#63b8ff" points="342.87,-59.7 351.64,-53.75 341.08,-52.93 342.87,-59.7"/>
</a>
</g>
</g>
<!-- Node11 -->
<g id="Node000011" class="node">
<title>Node11</title>
<g id="a_Node000011"><a xlink:href="a00534.html#gacc5575148a6e8da6577d9be9e20541ce" target="_top" xlink:title="This inline function sets the Trigger C compare value in count for a specific PWM generator selected ...">
<polygon fill="white" stroke="#666666" points="477.75,-20 317,-20 317,0 477.75,0 477.75,-20"/>
<text text-anchor="middle" x="397.38" y="-6.5" font-family="Helvetica,sans-Serif" font-size="10.00">PWM_TriggerCCompareValueSet</text>
</a>
</g>
</g>
<!-- Node6&#45;&gt;Node11 -->
<g id="edge11_Node000006_Node000011" class="edge">
<title>Node6&#45;&gt;Node11</title>
<g id="a_edge11_Node000006_Node000011"><a xlink:title=" ">
<path fill="none" stroke="#63b8ff" d="M267.39,-113.56C272.3,-111.25 276.94,-108.44 281,-105 309.53,-80.85 287.98,-52.55 317,-29 318.44,-27.83 319.93,-26.74 321.48,-25.71"/>
<polygon fill="#63b8ff" stroke="#63b8ff" points="322.8,-28.42 329.82,-20.49 319.39,-22.31 322.8,-28.42"/>
</a>
</g>
</g>
</g>
</svg>
