<?xml version="1.0" encoding="UTF-8" standalone="no"?>
<!DOCTYPE svg PUBLIC "-//W3C//DTD SVG 1.1//EN"
 "http://www.w3.org/Graphics/SVG/1.1/DTD/svg11.dtd">
<!-- Generated by graphviz version 8.1.0 (20230707.0739)
 -->
<!-- Title: DRV_Config_Custom_PWM Pages: 1 -->
<svg width="348pt" height="166pt"
 viewBox="0.00 0.00 347.50 166.00" xmlns="http://www.w3.org/2000/svg" xmlns:xlink="http://www.w3.org/1999/xlink">
<g id="graph0" class="graph" transform="scale(1 1) rotate(0) translate(4 162)">
<title>DRV_Config_Custom_PWM</title>
<!-- Node1 -->
<g id="Node000001" class="node">
<title>Node1</title>
<g id="a_Node000001"><a xlink:title="Contains PWM initialization that was not supported by MCC generated code.">
<polygon fill="#999999" stroke="#666666" points="137.5,-89 0,-89 0,-69 137.5,-69 137.5,-89"/>
<text text-anchor="middle" x="68.75" y="-75.5" font-family="Helvetica,sans-Serif" font-size="10.00">DRV_Config_Custom_PWM</text>
</a>
</g>
</g>
<!-- Node2 -->
<g id="Node000002" class="node">
<title>Node2</title>
<g id="a_Node000002"><a xlink:href="a00539.html#gaaf5d1e32e8b272aa4785219fa041b394" target="_top" xlink:title="Set the data mode of fault PCI.">
<polygon fill="white" stroke="#666666" points="315.12,-158 197.88,-158 197.88,-138 315.12,-138 315.12,-158"/>
<text text-anchor="middle" x="256.5" y="-144.5" font-family="Helvetica,sans-Serif" font-size="10.00">PWM_Fault_DataMode</text>
</a>
</g>
</g>
<!-- Node1&#45;&gt;Node2 -->
<g id="edge1_Node000001_Node000002" class="edge">
<title>Node1&#45;&gt;Node2</title>
<g id="a_edge1_Node000001_Node000002"><a xlink:title=" ">
<path fill="none" stroke="#63b8ff" d="M87.96,-89.31C108.28,-100.44 142.38,-118.05 173.5,-129 179.42,-131.08 185.65,-133 191.94,-134.75"/>
<polygon fill="#63b8ff" stroke="#63b8ff" points="190.95,-138.37 201.51,-137.54 192.73,-131.6 190.95,-138.37"/>
</a>
</g>
</g>
<!-- Node3 -->
<g id="Node000003" class="node">
<title>Node3</title>
<g id="a_Node000003"><a xlink:href="a00539.html#ga30d00d0393fc5b7bef92269fa3662a8f" target="_top" xlink:title="Set PCI fault acceptance criteria.">
<polygon fill="white" stroke="#666666" points="329.38,-120 183.62,-120 183.62,-88 329.38,-88 329.38,-120"/>
<text text-anchor="start" x="191.62" y="-106.5" font-family="Helvetica,sans-Serif" font-size="10.00">PWM_PCI_Fault_Acceptance</text>
<text text-anchor="middle" x="256.5" y="-94.5" font-family="Helvetica,sans-Serif" font-size="10.00">Criteria</text>
</a>
</g>
</g>
<!-- Node1&#45;&gt;Node3 -->
<g id="edge2_Node000001_Node000003" class="edge">
<title>Node1&#45;&gt;Node3</title>
<g id="a_edge2_Node000001_Node000003"><a xlink:title=" ">
<path fill="none" stroke="#63b8ff" d="M137.86,-88.17C149.2,-89.69 161.06,-91.29 172.72,-92.86"/>
<polygon fill="#63b8ff" stroke="#63b8ff" points="171.96,-96.42 182.34,-94.29 172.89,-89.48 171.96,-96.42"/>
</a>
</g>
</g>
<!-- Node4 -->
<g id="Node000004" class="node">
<title>Node4</title>
<g id="a_Node000004"><a xlink:href="a00539.html#ga3e7243475a0867eddc73f8c453acf105" target="_top" xlink:title="Set TSYNCDIS bit to determine when PWM should stop after a fault occurs.">
<polygon fill="white" stroke="#666666" points="339.5,-70 173.5,-70 173.5,-38 339.5,-38 339.5,-70"/>
<text text-anchor="start" x="181.5" y="-56.5" font-family="Helvetica,sans-Serif" font-size="10.00">PWM_PCI_Fault_TimetoTerminate</text>
<text text-anchor="middle" x="256.5" y="-44.5" font-family="Helvetica,sans-Serif" font-size="10.00">AfterEvent</text>
</a>
</g>
</g>
<!-- Node1&#45;&gt;Node4 -->
<g id="edge3_Node000001_Node000004" class="edge">
<title>Node1&#45;&gt;Node4</title>
<g id="a_edge3_Node000001_Node000004"><a xlink:title=" ">
<path fill="none" stroke="#63b8ff" d="M137.86,-69.83C145.85,-68.76 154.11,-67.65 162.37,-66.53"/>
<polygon fill="#63b8ff" stroke="#63b8ff" points="162.76,-69.88 172.2,-65.08 161.82,-62.94 162.76,-69.88"/>
</a>
</g>
</g>
<!-- Node5 -->
<g id="Node000005" class="node">
<title>Node5</title>
<g id="a_Node000005"><a xlink:href="a00539.html#ga51d53c1db006afc7c11a0ab15f07093d" target="_top" xlink:title="Set source of fault PCI acceptance qualifier.">
<polygon fill="white" stroke="#666666" points="308.75,-20 204.25,-20 204.25,0 308.75,0 308.75,-20"/>
<text text-anchor="middle" x="256.5" y="-6.5" font-family="Helvetica,sans-Serif" font-size="10.00">PWM_Trigger_Mode</text>
</a>
</g>
</g>
<!-- Node1&#45;&gt;Node5 -->
<g id="edge4_Node000001_Node000005" class="edge">
<title>Node1&#45;&gt;Node5</title>
<g id="a_edge4_Node000001_Node000005"><a xlink:title=" ">
<path fill="none" stroke="#63b8ff" d="M87.96,-68.69C108.28,-57.56 142.38,-39.95 173.5,-29 179.83,-26.77 186.53,-24.73 193.26,-22.88"/>
<polygon fill="#63b8ff" stroke="#63b8ff" points="194.02,-26.04 202.82,-20.14 192.26,-19.27 194.02,-26.04"/>
</a>
</g>
</g>
</g>
</svg>
