<?xml version="1.0" encoding="UTF-8" standalone="no"?>
<!DOCTYPE svg PUBLIC "-//W3C//DTD SVG 1.1//EN"
 "http://www.w3.org/Graphics/SVG/1.1/DTD/svg11.dtd">
<!-- Generated by graphviz version 8.1.0 (20230707.0739)
 -->
<!-- Title: PwrCtrl_VComp_Initialize Pages: 1 -->
<svg width="433pt" height="28pt"
 viewBox="0.00 0.00 433.25 28.00" xmlns="http://www.w3.org/2000/svg" xmlns:xlink="http://www.w3.org/1999/xlink">
<g id="graph0" class="graph" transform="scale(1 1) rotate(0) translate(4 24)">
<title>PwrCtrl_VComp_Initialize</title>
<!-- Node1 -->
<g id="Node000001" class="node">
<title>Node1</title>
<g id="a_Node000001"><a xlink:title="Initialize the Voltage Loop Control.">
<polygon fill="#999999" stroke="#666666" points="425.25,-20 299.75,-20 299.75,0 425.25,0 425.25,-20"/>
<text text-anchor="middle" x="362.5" y="-6.5" font-family="Helvetica,sans-Serif" font-size="10.00">PwrCtrl_VComp_Initialize</text>
</a>
</g>
</g>
<!-- Node2 -->
<g id="Node000002" class="node">
<title>Node2</title>
<g id="a_Node000002"><a xlink:href="a00518.html#gae58162e874535adf2003e9ed8a13b656" target="_top" xlink:title="Initializes the control loop.">
<polygon fill="white" stroke="#666666" points="263.75,-20 124,-20 124,0 263.75,0 263.75,-20"/>
<text text-anchor="middle" x="193.88" y="-6.5" font-family="Helvetica,sans-Serif" font-size="10.00">PwrCtrl_ControlLoopInitialize</text>
</a>
</g>
</g>
<!-- Node1&#45;&gt;Node2 -->
<g id="edge1_Node000001_Node000002" class="edge">
<title>Node1&#45;&gt;Node2</title>
<g id="a_edge1_Node000001_Node000002"><a xlink:title=" ">
<path fill="none" stroke="#63b8ff" d="M288.47,-10C280.33,-10 272.06,-10 263.97,-10"/>
<polygon fill="#63b8ff" stroke="#63b8ff" points="288.46,-13.5 298.46,-10 288.45,-6.5 288.46,-13.5"/>
</a>
</g>
</g>
<!-- Node3 -->
<g id="Node000003" class="node">
<title>Node3</title>
<g id="a_Node000003"><a xlink:href="a00518.html#ga2c39b57545ef7b5c79bac36ab30da7d8" target="_top" xlink:title="Initialize the power control parameters.">
<polygon fill="white" stroke="#666666" points="88,-20 0,-20 0,0 88,0 88,-20"/>
<text text-anchor="middle" x="44" y="-6.5" font-family="Helvetica,sans-Serif" font-size="10.00">PwrCtrl_Initialize</text>
</a>
</g>
</g>
<!-- Node2&#45;&gt;Node3 -->
<g id="edge2_Node000002_Node000003" class="edge">
<title>Node2&#45;&gt;Node3</title>
<g id="a_edge2_Node000002_Node000003"><a xlink:title=" ">
<path fill="none" stroke="#63b8ff" d="M112.98,-10C104.53,-10 96.19,-10 88.39,-10"/>
<polygon fill="#63b8ff" stroke="#63b8ff" points="112.7,-13.5 122.7,-10 112.7,-6.5 112.7,-13.5"/>
</a>
</g>
</g>
</g>
</svg>
