<?xml version="1.0" encoding="UTF-8" standalone="no"?>
<!DOCTYPE svg PUBLIC "-//W3C//DTD SVG 1.1//EN"
 "http://www.w3.org/Graphics/SVG/1.1/DTD/svg11.dtd">
<!-- Generated by graphviz version 8.1.0 (20230707.0739)
 -->
<!-- Title: MCC_Custom_User_Config Pages: 1 -->
<svg width="484pt" height="230pt"
 viewBox="0.00 0.00 483.50 230.00" xmlns="http://www.w3.org/2000/svg" xmlns:xlink="http://www.w3.org/1999/xlink">

<svg id="main" version="1.1" xmlns="http://www.w3.org/2000/svg" xmlns:xlink="http://www.w3.org/1999/xlink" xml:space="preserve" onload="init(evt)">
<style type="text/css"><![CDATA[
.node, .edge {opacity: 0.7;}
.node.selected, .edge.selected {opacity: 1;}
.edge:hover path { stroke: red; }
.edge:hover polygon { stroke: red; fill: red; }
]]></style>
<script type="application/ecmascript" xlink:href="svg.min.js"/>
<svg id="graph" class="graph">
<g id="graph0" class="graph" transform="scale(1 1) rotate(0) translate(4 226)">
<title>MCC_Custom_User_Config</title>
<!-- Node1 -->
<g id="Node000001" class="node">
<title>Node1</title>
<g id="a_Node000001"><a xlink:title="Contains custom peripheral initialization.">
<polygon fill="#999999" stroke="#666666" points="134.5,-105 0,-105 0,-85 134.5,-85 134.5,-105"/>
<text text-anchor="middle" x="67.25" y="-91.5" font-family="Helvetica,sans-Serif" font-size="10.00">MCC_Custom_User_Config</text>
</a>
</g>
</g>
<!-- Node2 -->
<g id="Node000002" class="node">
<title>Node2</title>
<g id="a_Node000002"><a xlink:href="a00506.html#gae714c168949aee8009c9482933cd85dc" target="_top" xlink:title="Customize configuration for ADC.">
<polygon fill="white" stroke="#666666" points="305.75,-146 172.75,-146 172.75,-126 305.75,-126 305.75,-146"/>
<text text-anchor="middle" x="239.25" y="-132.5" font-family="Helvetica,sans-Serif" font-size="10.00">DRV_Config_Custom_ADC</text>
</a>
</g>
</g>
<!-- Node1&#45;&gt;Node2 -->
<g id="edge1_Node000001_Node000002" class="edge">
<title>Node1&#45;&gt;Node2</title>
<g id="a_edge1_Node000001_Node000002"><a xlink:title=" ">
<path fill="none" stroke="#63b8ff" d="M111.59,-105.45C133.77,-110.8 160.98,-117.36 184.48,-123.03"/>
<polygon fill="#63b8ff" stroke="#63b8ff" points="183.45,-126.62 193.99,-125.57 185.09,-119.82 183.45,-126.62"/>
</a>
</g>
</g>
<!-- Node7 -->
<g id="Node000007" class="node">
<title>Node7</title>
<g id="a_Node000007"><a xlink:href="a00505.html#gac779b9d8bce64e8de686bd78be25ea09" target="_top" xlink:title="Contains PWM initialization that was not supported by MCC generated code.">
<polygon fill="white" stroke="#666666" points="308,-64 170.5,-64 170.5,-44 308,-44 308,-64"/>
<text text-anchor="middle" x="239.25" y="-50.5" font-family="Helvetica,sans-Serif" font-size="10.00">DRV_Config_Custom_PWM</text>
</a>
</g>
</g>
<!-- Node1&#45;&gt;Node7 -->
<g id="edge6_Node000001_Node000007" class="edge">
<title>Node1&#45;&gt;Node7</title>
<g id="a_edge6_Node000001_Node000007"><a xlink:title=" ">
<path fill="none" stroke="#63b8ff" d="M111.59,-84.55C133.77,-79.2 160.98,-72.64 184.48,-66.97"/>
<polygon fill="#63b8ff" stroke="#63b8ff" points="185.09,-70.18 193.99,-64.43 183.45,-63.38 185.09,-70.18"/>
</a>
</g>
</g>
<!-- Node3 -->
<g id="Node000003" class="node">
<title>Node3</title>
<g id="a_Node000003"><a xlink:href="a00506.html#ga7475de7e65b22a255c8587d7535359b3" target="_top" xlink:title="Sets the ADC instance number of samples to average.">
<polygon fill="white" stroke="#666666" points="465,-222 354.5,-222 354.5,-202 465,-202 465,-222"/>
<text text-anchor="middle" x="409.75" y="-208.5" font-family="Helvetica,sans-Serif" font-size="10.00">ADC_Filter_Averaging</text>
</a>
</g>
</g>
<!-- Node2&#45;&gt;Node3 -->
<g id="edge2_Node000002_Node000003" class="edge">
<title>Node2&#45;&gt;Node3</title>
<g id="a_edge2_Node000002_Node000003"><a xlink:title=" ">
<path fill="none" stroke="#63b8ff" d="M256.59,-146.44C276.57,-158.86 311.74,-179.59 344,-193 348.44,-194.85 353.12,-196.59 357.85,-198.21"/>
<polygon fill="#63b8ff" stroke="#63b8ff" points="356.62,-201.82 367.21,-201.58 358.78,-195.16 356.62,-201.82"/>
</a>
</g>
</g>
<!-- Node4 -->
<g id="Node000004" class="node">
<title>Node4</title>
<g id="a_Node000004"><a xlink:href="a00506.html#ga71c6250f386033c07dae0150d67b100f" target="_top" xlink:title="Enables the ADC filter feature of the ADC.">
<polygon fill="white" stroke="#666666" points="459,-184 360.5,-184 360.5,-164 459,-164 459,-184"/>
<text text-anchor="middle" x="409.75" y="-170.5" font-family="Helvetica,sans-Serif" font-size="10.00">ADC_Filter_Enable</text>
</a>
</g>
</g>
<!-- Node2&#45;&gt;Node4 -->
<g id="edge3_Node000002_Node000004" class="edge">
<title>Node2&#45;&gt;Node4</title>
<g id="a_edge3_Node000002_Node000004"><a xlink:title=" ">
<path fill="none" stroke="#63b8ff" d="M286.74,-146.48C306.91,-151.03 330.71,-156.4 351.92,-161.18"/>
<polygon fill="#63b8ff" stroke="#63b8ff" points="350.89,-164.76 361.41,-163.55 352.43,-157.94 350.89,-164.76"/>
</a>
</g>
</g>
<!-- Node5 -->
<g id="Node000005" class="node">
<title>Node5</title>
<g id="a_Node000005"><a xlink:href="a00506.html#ga0645000c951ca217ee18beb7233da254" target="_top" xlink:title="Sets the ADC instance to be filtered.">
<polygon fill="white" stroke="#666666" points="454.5,-146 365,-146 365,-126 454.5,-126 454.5,-146"/>
<text text-anchor="middle" x="409.75" y="-132.5" font-family="Helvetica,sans-Serif" font-size="10.00">ADC_Filter_Input</text>
</a>
</g>
</g>
<!-- Node2&#45;&gt;Node5 -->
<g id="edge4_Node000002_Node000005" class="edge">
<title>Node2&#45;&gt;Node5</title>
<g id="a_edge4_Node000002_Node000005"><a xlink:title=" ">
<path fill="none" stroke="#63b8ff" d="M305.88,-136C321.72,-136 338.48,-136 353.77,-136"/>
<polygon fill="#63b8ff" stroke="#63b8ff" points="353.61,-139.5 363.61,-136 353.61,-132.5 353.61,-139.5"/>
</a>
</g>
</g>
<!-- Node6 -->
<g id="Node000006" class="node">
<title>Node6</title>
<g id="a_Node000006"><a xlink:href="a00506.html#ga6ef63752d3c218e541d437721a3559fa" target="_top" xlink:title="Sets the ADC instance filter mode.">
<polygon fill="white" stroke="#666666" points="456,-108 363.5,-108 363.5,-88 456,-88 456,-108"/>
<text text-anchor="middle" x="409.75" y="-94.5" font-family="Helvetica,sans-Serif" font-size="10.00">ADC_Filter_Mode</text>
</a>
</g>
</g>
<!-- Node2&#45;&gt;Node6 -->
<g id="edge5_Node000002_Node000006" class="edge">
<title>Node2&#45;&gt;Node6</title>
<g id="a_edge5_Node000002_Node000006"><a xlink:title=" ">
<path fill="none" stroke="#63b8ff" d="M286.74,-125.52C307.16,-120.91 331.3,-115.47 352.7,-110.64"/>
<polygon fill="#63b8ff" stroke="#63b8ff" points="353.3,-113.87 362.29,-108.25 351.76,-107.04 353.3,-113.87"/>
</a>
</g>
</g>
<!-- Node8 -->
<g id="Node000008" class="node">
<title>Node8</title>
<g id="a_Node000008"><a xlink:href="a00505.html#gaab156f2b7ad138cf32e734bbf7145ef4" target="_top" xlink:title="Enable/Disable the PWM instance output swap bit.">
<polygon fill="white" stroke="#666666" points="475.5,-70 344,-70 344,-38 475.5,-38 475.5,-70"/>
<text text-anchor="start" x="352" y="-56.5" font-family="Helvetica,sans-Serif" font-size="10.00">PWM_Swap_PWMxL_and</text>
<text text-anchor="middle" x="409.75" y="-44.5" font-family="Helvetica,sans-Serif" font-size="10.00">_PWMxH</text>
</a>
</g>
</g>
<!-- Node7&#45;&gt;Node8 -->
<g id="edge7_Node000007_Node000008" class="edge">
<title>Node7&#45;&gt;Node8</title>
<g id="a_edge7_Node000007_Node000008"><a xlink:title=" ">
<path fill="none" stroke="#63b8ff" d="M308.3,-54C316.43,-54 324.77,-54 333,-54"/>
<polygon fill="#63b8ff" stroke="#63b8ff" points="332.72,-57.5 342.72,-54 332.72,-50.5 332.72,-57.5"/>
</a>
</g>
</g>
<!-- Node9 -->
<g id="Node000009" class="node">
<title>Node9</title>
<g id="a_Node000009"><a xlink:href="a00505.html#ga51d53c1db006afc7c11a0ab15f07093d" target="_top" xlink:title="Set source of fault PCI acceptance qualifier.">
<polygon fill="white" stroke="#666666" points="462,-20 357.5,-20 357.5,0 462,0 462,-20"/>
<text text-anchor="middle" x="409.75" y="-6.5" font-family="Helvetica,sans-Serif" font-size="10.00">PWM_Trigger_Mode</text>
</a>
</g>
</g>
<!-- Node7&#45;&gt;Node9 -->
<g id="edge8_Node000007_Node000009" class="edge">
<title>Node7&#45;&gt;Node9</title>
<g id="a_edge8_Node000007_Node000009"><a xlink:title=" ">
<path fill="none" stroke="#63b8ff" d="M280.18,-43.57C303.6,-37.46 333.4,-29.68 358.42,-23.14"/>
<polygon fill="#63b8ff" stroke="#63b8ff" points="359.02,-26.34 367.81,-20.43 357.25,-19.57 359.02,-26.34"/>
</a>
</g>
</g>
</g>
</svg>
</svg>

<style type='text/css'>
<![CDATA[
[data-mouse-over-selected='false'] { opacity: 0.7; }
[data-mouse-over-selected='true']  { opacity: 1.0; }
]]>
</style>
<script type="application/ecmascript"><![CDATA[
document.addEventListener('DOMContentLoaded', (event) => {
  highlightEdges();
  highlightAdjacentNodes();
});
]]></script>
</svg>
