<?xml version="1.0" encoding="UTF-8" standalone="no"?>
<!DOCTYPE svg PUBLIC "-//W3C//DTD SVG 1.1//EN"
 "http://www.w3.org/Graphics/SVG/1.1/DTD/svg11.dtd">
<!-- Generated by graphviz version 8.1.0 (20230707.0739)
 -->
<!-- Title: PWM_SoftwareUpdateRequest Pages: 1 -->
<svg width="931pt" height="276pt"
 viewBox="0.00 0.00 931.25 276.07" xmlns="http://www.w3.org/2000/svg" xmlns:xlink="http://www.w3.org/1999/xlink">
<g id="graph0" class="graph" transform="scale(1 1) rotate(0) translate(4 272.07)">
<title>PWM_SoftwareUpdateRequest</title>
<!-- Node1 -->
<g id="Node000001" class="node">
<title>Node1</title>
<g id="a_Node000001"><a xlink:title="This inline function requests to update the data registers for specific PWM generator selected by the...">
<polygon fill="#999999" stroke="#666666" points="923.25,-77.31 773,-77.31 773,-57.31 923.25,-57.31 923.25,-77.31"/>
<text text-anchor="middle" x="848.12" y="-63.81" font-family="Helvetica,sans-Serif" font-size="10.00">PWM_SoftwareUpdateRequest</text>
</a>
</g>
</g>
<!-- Node2 -->
<g id="Node000002" class="node">
<title>Node2</title>
<g id="a_Node000002"><a xlink:href="a00508.html#ga79ec0c0e524a03b3a3d423308b89bb99" target="_top" xlink:title="Disable the PWM output.">
<polygon fill="white" stroke="#666666" points="737,-165.31 622,-165.31 622,-145.31 737,-145.31 737,-165.31"/>
<text text-anchor="middle" x="679.5" y="-151.81" font-family="Helvetica,sans-Serif" font-size="10.00">PwrCtrl_PWM_Disable</text>
</a>
</g>
</g>
<!-- Node1&#45;&gt;Node2 -->
<g id="edge1_Node000001_Node000002" class="edge">
<title>Node1&#45;&gt;Node2</title>
<g id="a_edge1_Node000001_Node000002"><a xlink:title=" ">
<path fill="none" stroke="#63b8ff" d="M818.01,-82.69C784.22,-100.53 729.41,-129.48 700.24,-144.89"/>
<polygon fill="#63b8ff" stroke="#63b8ff" points="819.15,-85.52 826.36,-77.75 815.88,-79.33 819.15,-85.52"/>
</a>
</g>
</g>
<!-- Node15 -->
<g id="Node000015" class="node">
<title>Node15</title>
<g id="a_Node000015"><a xlink:href="a00508.html#gae20d34fb8fc7fbaa57f6c68b2907807f" target="_top" xlink:title="Enable the PWM output.">
<polygon fill="white" stroke="#666666" points="735.88,-77.31 623.12,-77.31 623.12,-57.31 735.88,-57.31 735.88,-77.31"/>
<text text-anchor="middle" x="679.5" y="-63.81" font-family="Helvetica,sans-Serif" font-size="10.00">PwrCtrl_PWM_Enable</text>
</a>
</g>
</g>
<!-- Node1&#45;&gt;Node15 -->
<g id="edge17_Node000001_Node000015" class="edge">
<title>Node1&#45;&gt;Node15</title>
<g id="a_edge17_Node000001_Node000015"><a xlink:title=" ">
<path fill="none" stroke="#63b8ff" d="M761.59,-67.31C752.89,-67.31 744.24,-67.31 735.99,-67.31"/>
<polygon fill="#63b8ff" stroke="#63b8ff" points="761.58,-70.81 771.58,-67.31 761.58,-63.81 761.58,-70.81"/>
</a>
</g>
</g>
<!-- Node17 -->
<g id="Node000017" class="node">
<title>Node17</title>
<g id="a_Node000017"><a xlink:href="a00508.html#ga73f526371cadb7674354635462e836cc" target="_top" xlink:title="PWM distribution for DAB converter.">
<polygon fill="white" stroke="#666666" points="736.25,-39.31 622.75,-39.31 622.75,-19.31 736.25,-19.31 736.25,-39.31"/>
<text text-anchor="middle" x="679.5" y="-25.81" font-family="Helvetica,sans-Serif" font-size="10.00">PwrCtrl_PWM_Update</text>
</a>
</g>
</g>
<!-- Node1&#45;&gt;Node17 -->
<g id="edge20_Node000001_Node000017" class="edge">
<title>Node1&#45;&gt;Node17</title>
<g id="a_edge20_Node000001_Node000017"><a xlink:title=" ">
<path fill="none" stroke="#63b8ff" d="M790.48,-54.39C769.57,-49.62 746.16,-44.29 726.32,-39.76"/>
<polygon fill="#63b8ff" stroke="#63b8ff" points="789.62,-58.02 800.15,-56.83 791.18,-51.19 789.62,-58.02"/>
</a>
</g>
</g>
<!-- Node3 -->
<g id="Node000003" class="node">
<title>Node3</title>
<g id="a_Node000003"><a xlink:href="a00515.html#gacd1ca209275dae0bc2388ac954858d83" target="_top" xlink:title="Executes the fault handlers.">
<polygon fill="white" stroke="#666666" points="393.38,-260.31 314.38,-260.31 314.38,-240.31 393.38,-240.31 393.38,-260.31"/>
<text text-anchor="middle" x="353.88" y="-246.81" font-family="Helvetica,sans-Serif" font-size="10.00">Fault_Execute</text>
</a>
</g>
</g>
<!-- Node2&#45;&gt;Node3 -->
<g id="edge2_Node000002_Node000003" class="edge">
<title>Node2&#45;&gt;Node3</title>
<g id="a_edge2_Node000002_Node000003"><a xlink:title=" ">
<path fill="none" stroke="#63b8ff" d="M666.6,-174.82C651.26,-197.88 622.21,-235.03 586,-250.31 522.78,-276.99 440.9,-268.03 393.49,-259.14"/>
<polygon fill="#63b8ff" stroke="#63b8ff" points="670.04,-176.94 672.49,-166.63 664.15,-173.16 670.04,-176.94"/>
</a>
</g>
</g>
<!-- Node5 -->
<g id="Node000005" class="node">
<title>Node5</title>
<g id="a_Node000005"><a xlink:href="a00515.html#gaf27f2f24932cec222273df148f8765cb" target="_top" xlink:title="Handles the fault trip by turning off the power control switching.">
<polygon fill="white" stroke="#666666" points="554.12,-241.31 478.12,-241.31 478.12,-221.31 554.12,-221.31 554.12,-241.31"/>
<text text-anchor="middle" x="516.12" y="-227.81" font-family="Helvetica,sans-Serif" font-size="10.00">Fault_Handler</text>
</a>
</g>
</g>
<!-- Node2&#45;&gt;Node5 -->
<g id="edge4_Node000002_Node000005" class="edge">
<title>Node2&#45;&gt;Node5</title>
<g id="a_edge4_Node000002_Node000005"><a xlink:title=" ">
<path fill="none" stroke="#63b8ff" d="M655.78,-171.85C637.65,-184.41 611.18,-201.34 586,-212.31 576.11,-216.62 564.98,-220.2 554.61,-223.04"/>
<polygon fill="#63b8ff" stroke="#63b8ff" points="657.3,-174.35 663.46,-165.73 653.27,-168.63 657.3,-174.35"/>
</a>
</g>
</g>
<!-- Node8 -->
<g id="Node000008" class="node">
<title>Node8</title>
<g id="a_Node000008"><a xlink:href="a00509.html#ga8307344d190a5459682d315fc7bfe198" target="_top" xlink:title="Executes function for initialze state machine.">
<polygon fill="white" stroke="#666666" points="563.5,-203.31 468.75,-203.31 468.75,-183.31 563.5,-183.31 563.5,-203.31"/>
<text text-anchor="middle" x="516.12" y="-189.81" font-family="Helvetica,sans-Serif" font-size="10.00">PCS_INIT_handler</text>
</a>
</g>
</g>
<!-- Node2&#45;&gt;Node8 -->
<g id="edge8_Node000002_Node000008" class="edge">
<title>Node2&#45;&gt;Node8</title>
<g id="a_edge8_Node000002_Node000008"><a xlink:title=" ">
<path fill="none" stroke="#63b8ff" d="M623.36,-168.3C603.18,-173.05 580.62,-178.36 561.5,-182.86"/>
<polygon fill="#63b8ff" stroke="#63b8ff" points="624.04,-171.5 632.98,-165.8 622.44,-164.68 624.04,-171.5"/>
</a>
</g>
</g>
<!-- Node12 -->
<g id="Node000012" class="node">
<title>Node12</title>
<g id="a_Node000012"><a xlink:href="a00509.html#gabda6b853bb6547821acd0ec87e0a4842" target="_top" xlink:title="Executes the power control soft start state machine.">
<polygon fill="white" stroke="#666666" points="586,-165.31 446.25,-165.31 446.25,-145.31 586,-145.31 586,-165.31"/>
<text text-anchor="middle" x="516.12" y="-151.81" font-family="Helvetica,sans-Serif" font-size="10.00">PCS_SOFT_START_handler</text>
</a>
</g>
</g>
<!-- Node2&#45;&gt;Node12 -->
<g id="edge12_Node000002_Node000012" class="edge">
<title>Node2&#45;&gt;Node12</title>
<g id="a_edge12_Node000002_Node000012"><a xlink:title=" ">
<path fill="none" stroke="#63b8ff" d="M610.71,-155.31C602.62,-155.31 594.35,-155.31 586.24,-155.31"/>
<polygon fill="#63b8ff" stroke="#63b8ff" points="610.61,-158.81 620.61,-155.31 610.61,-151.81 610.61,-158.81"/>
</a>
</g>
</g>
<!-- Node13 -->
<g id="Node000013" class="node">
<title>Node13</title>
<g id="a_Node000013"><a xlink:href="a00509.html#ga8752fbb48416e60141e205f1cbda0f98" target="_top" xlink:title="Executes the Online state.">
<polygon fill="white" stroke="#666666" points="580.75,-127.31 451.5,-127.31 451.5,-95.31 580.75,-95.31 580.75,-127.31"/>
<text text-anchor="start" x="459.5" y="-113.81" font-family="Helvetica,sans-Serif" font-size="10.00">PCS_UP_AND_RUNNING</text>
<text text-anchor="middle" x="516.12" y="-101.81" font-family="Helvetica,sans-Serif" font-size="10.00">_handler</text>
</a>
</g>
</g>
<!-- Node2&#45;&gt;Node13 -->
<g id="edge14_Node000002_Node000013" class="edge">
<title>Node2&#45;&gt;Node13</title>
<g id="a_edge14_Node000002_Node000013"><a xlink:title=" ">
<path fill="none" stroke="#63b8ff" d="M629.78,-142.03C613.32,-137.54 594.74,-132.47 577.49,-127.77"/>
<polygon fill="#63b8ff" stroke="#63b8ff" points="628.69,-145.63 639.26,-144.88 630.53,-138.88 628.69,-145.63"/>
</a>
</g>
</g>
<!-- Node14 -->
<g id="Node000014" class="node">
<title>Node14</title>
<g id="a_Node000014"><a xlink:href="a00506.html#ga2c39b57545ef7b5c79bac36ab30da7d8" target="_top" xlink:title="Initialize the power control parameters.">
<polygon fill="white" stroke="#666666" points="560.12,-77.31 472.12,-77.31 472.12,-57.31 560.12,-57.31 560.12,-77.31"/>
<text text-anchor="middle" x="516.12" y="-63.81" font-family="Helvetica,sans-Serif" font-size="10.00">PwrCtrl_Initialize</text>
</a>
</g>
</g>
<!-- Node2&#45;&gt;Node14 -->
<g id="edge16_Node000002_Node000014" class="edge">
<title>Node2&#45;&gt;Node14</title>
<g id="a_edge16_Node000002_Node000014"><a xlink:title=" ">
<path fill="none" stroke="#63b8ff" d="M659.58,-137.84C641.81,-122.29 613.84,-99.93 586,-86.31 577.98,-82.39 569.02,-79.17 560.29,-76.57"/>
<polygon fill="#63b8ff" stroke="#63b8ff" points="656.66,-139.82 666.45,-143.87 661.32,-134.6 656.66,-139.82"/>
</a>
</g>
</g>
<!-- Node4 -->
<g id="Node000004" class="node">
<title>Node4</title>
<g id="a_Node000004"><a xlink:href="a00507.html#gae32c9e5ed4d1fb98fc13b26601782c10" target="_top" xlink:title="Executes the power converter control loop.">
<polygon fill="white" stroke="#666666" points="261.5,-266.31 153.25,-266.31 153.25,-234.31 261.5,-234.31 261.5,-266.31"/>
<text text-anchor="start" x="161.25" y="-252.81" font-family="Helvetica,sans-Serif" font-size="10.00">ControlLoop_Interrupt</text>
<text text-anchor="middle" x="207.38" y="-240.81" font-family="Helvetica,sans-Serif" font-size="10.00">_CallBack</text>
</a>
</g>
</g>
<!-- Node3&#45;&gt;Node4 -->
<g id="edge3_Node000003_Node000004" class="edge">
<title>Node3&#45;&gt;Node4</title>
<g id="a_edge3_Node000003_Node000004"><a xlink:title=" ">
<path fill="none" stroke="#63b8ff" d="M303.26,-250.31C289.91,-250.31 275.42,-250.31 261.87,-250.31"/>
<polygon fill="#63b8ff" stroke="#63b8ff" points="303.15,-253.81 313.15,-250.31 303.15,-246.81 303.15,-253.81"/>
</a>
</g>
</g>
<!-- Node5&#45;&gt;Node3 -->
<g id="edge5_Node000005_Node000003" class="edge">
<title>Node5&#45;&gt;Node3</title>
<g id="a_edge5_Node000005_Node000003"><a xlink:title=" ">
<path fill="none" stroke="#63b8ff" d="M467.19,-237C443.75,-239.77 415.9,-243.08 393.79,-245.7"/>
<polygon fill="#63b8ff" stroke="#63b8ff" points="467.44,-240.37 476.96,-235.72 466.62,-233.42 467.44,-240.37"/>
</a>
</g>
</g>
<!-- Node6 -->
<g id="Node000006" class="node">
<title>Node6</title>
<g id="a_Node000006"><a xlink:href="a00515.html#ga5ba282b74826532870235580973f788e" target="_top" xlink:title="Fault evaluation for Temperature.">
<polygon fill="white" stroke="#666666" points="404.62,-219.31 303.12,-219.31 303.12,-199.31 404.62,-199.31 404.62,-219.31"/>
<text text-anchor="middle" x="353.88" y="-205.81" font-family="Helvetica,sans-Serif" font-size="10.00">Fault_Temp_100ms</text>
</a>
</g>
</g>
<!-- Node5&#45;&gt;Node6 -->
<g id="edge6_Node000005_Node000006" class="edge">
<title>Node5&#45;&gt;Node6</title>
<g id="a_edge6_Node000005_Node000006"><a xlink:title=" ">
<path fill="none" stroke="#63b8ff" d="M467.1,-224.72C447.46,-222.02 424.73,-218.9 404.89,-216.18"/>
<polygon fill="#63b8ff" stroke="#63b8ff" points="466.57,-228.32 476.96,-226.21 467.53,-221.38 466.57,-228.32"/>
</a>
</g>
</g>
<!-- Node7 -->
<g id="Node000007" class="node">
<title>Node7</title>
<g id="a_Node000007"><a xlink:href="a00517.html#ga6d5c487ee3f418e6d0432867d11adaed" target="_top" xlink:title="Tasks_100ms gets called every 100 ms, put your things in it that need to be called regularly.">
<polygon fill="white" stroke="#666666" points="245.75,-216.31 169,-216.31 169,-196.31 245.75,-196.31 245.75,-216.31"/>
<text text-anchor="middle" x="207.38" y="-202.81" font-family="Helvetica,sans-Serif" font-size="10.00">Tasks_100ms</text>
</a>
</g>
</g>
<!-- Node6&#45;&gt;Node7 -->
<g id="edge7_Node000006_Node000007" class="edge">
<title>Node6&#45;&gt;Node7</title>
<g id="a_edge7_Node000006_Node000007"><a xlink:title=" ">
<path fill="none" stroke="#63b8ff" d="M292.1,-208.05C276.5,-207.73 260.17,-207.39 246.11,-207.1"/>
<polygon fill="#63b8ff" stroke="#63b8ff" points="291.67,-211.56 301.74,-208.27 291.82,-204.56 291.67,-211.56"/>
</a>
</g>
</g>
<!-- Node9 -->
<g id="Node000009" class="node">
<title>Node9</title>
<g id="a_Node000009"><a xlink:href="a00509.html#ga2408c0b52cd2c2487f43716f261434e6" target="_top" xlink:title="Manages the power control state machine.">
<polygon fill="white" stroke="#666666" points="410.25,-140.31 297.5,-140.31 297.5,-120.31 410.25,-120.31 410.25,-140.31"/>
<text text-anchor="middle" x="353.88" y="-126.81" font-family="Helvetica,sans-Serif" font-size="10.00">PwrCtrl_StateMachine</text>
</a>
</g>
</g>
<!-- Node8&#45;&gt;Node9 -->
<g id="edge9_Node000008_Node000009" class="edge">
<title>Node8&#45;&gt;Node9</title>
<g id="a_edge9_Node000008_Node000009"><a xlink:title=" ">
<path fill="none" stroke="#63b8ff" d="M462.12,-179.73C456.72,-178.04 451.35,-176.22 446.25,-174.31 420.53,-164.66 392.23,-150.43 374.04,-140.79"/>
<polygon fill="#63b8ff" stroke="#63b8ff" points="460.91,-183.32 471.49,-182.84 462.91,-176.62 460.91,-183.32"/>
</a>
</g>
</g>
<!-- Node10 -->
<g id="Node000010" class="node">
<title>Node10</title>
<g id="a_Node000010"><a xlink:href="a00506.html#ga48dcb018afa53b60b6112cde00561c4b" target="_top" xlink:title="Executes the power control state machine.">
<polygon fill="white" stroke="#666666" points="251.75,-140.31 163,-140.31 163,-120.31 251.75,-120.31 251.75,-140.31"/>
<text text-anchor="middle" x="207.38" y="-126.81" font-family="Helvetica,sans-Serif" font-size="10.00">PwrCtrl_Execute</text>
</a>
</g>
</g>
<!-- Node9&#45;&gt;Node10 -->
<g id="edge10_Node000009_Node000010" class="edge">
<title>Node9&#45;&gt;Node10</title>
<g id="a_edge10_Node000009_Node000010"><a xlink:title=" ">
<path fill="none" stroke="#63b8ff" d="M286.02,-130.31C274.47,-130.31 262.73,-130.31 252,-130.31"/>
<polygon fill="#63b8ff" stroke="#63b8ff" points="286.01,-133.81 296.01,-130.31 286.01,-126.81 286.01,-133.81"/>
</a>
</g>
</g>
<!-- Node11 -->
<g id="Node000011" class="node">
<title>Node11</title>
<g id="a_Node000011"><a xlink:href="a00517.html#gad258f19a1b6a855fef3c71f54bb5539e" target="_top" xlink:title="Tasks_Realtime_100us gets called directly from the timer interrupt every 100 µs.">
<polygon fill="white" stroke="#666666" points="117.25,-140.31 0,-140.31 0,-120.31 117.25,-120.31 117.25,-140.31"/>
<text text-anchor="middle" x="58.62" y="-126.81" font-family="Helvetica,sans-Serif" font-size="10.00">Tasks_Realtime_100us</text>
</a>
</g>
</g>
<!-- Node10&#45;&gt;Node11 -->
<g id="edge11_Node000010_Node000011" class="edge">
<title>Node10&#45;&gt;Node11</title>
<g id="a_edge11_Node000010_Node000011"><a xlink:title=" ">
<path fill="none" stroke="#63b8ff" d="M151.8,-130.31C140.61,-130.31 128.8,-130.31 117.5,-130.31"/>
<polygon fill="#63b8ff" stroke="#63b8ff" points="151.74,-133.81 161.74,-130.31 151.74,-126.81 151.74,-133.81"/>
</a>
</g>
</g>
<!-- Node12&#45;&gt;Node9 -->
<g id="edge13_Node000012_Node000009" class="edge">
<title>Node12&#45;&gt;Node9</title>
<g id="a_edge13_Node000012_Node000009"><a xlink:title=" ">
<path fill="none" stroke="#63b8ff" d="M437.45,-143.19C428.35,-141.77 419.2,-140.35 410.48,-138.99"/>
<polygon fill="#63b8ff" stroke="#63b8ff" points="436.67,-146.77 447.09,-144.85 437.75,-139.85 436.67,-146.77"/>
</a>
</g>
</g>
<!-- Node13&#45;&gt;Node9 -->
<g id="edge15_Node000013_Node000009" class="edge">
<title>Node13&#45;&gt;Node9</title>
<g id="a_edge15_Node000013_Node000009"><a xlink:title=" ">
<path fill="none" stroke="#63b8ff" d="M440.51,-120.16C430.47,-121.35 420.32,-122.55 410.69,-123.69"/>
<polygon fill="#63b8ff" stroke="#63b8ff" points="440.81,-123.53 450.33,-118.88 439.99,-116.58 440.81,-123.53"/>
</a>
</g>
</g>
<!-- Node16 -->
<g id="Node000016" class="node">
<title>Node16</title>
<g id="a_Node000016"><a xlink:href="a00509.html#ga42f7c8f65745b2f81bb6dbd381ea8121" target="_top" xlink:title="Executes Standby State machine.">
<polygon fill="white" stroke="#666666" points="578.12,-39.31 454.12,-39.31 454.12,-19.31 578.12,-19.31 578.12,-39.31"/>
<text text-anchor="middle" x="516.12" y="-25.81" font-family="Helvetica,sans-Serif" font-size="10.00">PCS_STANDBY_handler</text>
</a>
</g>
</g>
<!-- Node15&#45;&gt;Node16 -->
<g id="edge18_Node000015_Node000016" class="edge">
<title>Node15&#45;&gt;Node16</title>
<g id="a_edge18_Node000015_Node000016"><a xlink:title=" ">
<path fill="none" stroke="#63b8ff" d="M623.36,-54.33C603.18,-49.58 580.62,-44.26 561.5,-39.76"/>
<polygon fill="#63b8ff" stroke="#63b8ff" points="622.44,-57.94 632.98,-56.83 624.04,-51.13 622.44,-57.94"/>
</a>
</g>
</g>
<!-- Node16&#45;&gt;Node9 -->
<g id="edge19_Node000016_Node000009" class="edge">
<title>Node16&#45;&gt;Node9</title>
<g id="a_edge19_Node000016_Node000009"><a xlink:title=" ">
<path fill="none" stroke="#63b8ff" d="M455.97,-43.64C452.62,-45.06 449.35,-46.62 446.25,-48.31 411.28,-67.43 378.64,-102.37 363.59,-119.82"/>
<polygon fill="#63b8ff" stroke="#63b8ff" points="457.11,-46.57 465.22,-39.76 454.63,-40.03 457.11,-46.57"/>
</a>
</g>
</g>
<!-- Node17&#45;&gt;Node4 -->
<g id="edge21_Node000017_Node000004" class="edge">
<title>Node17&#45;&gt;Node4</title>
<g id="a_edge21_Node000017_Node000004"><a xlink:title=" ">
<path fill="none" stroke="#63b8ff" d="M634.42,-16.1C586.91,-4.06 509.57,9.15 446.25,-10.31 369.87,-33.79 345.23,-47.22 297.5,-111.31 265.77,-153.93 296.47,-185.31 261.5,-225.31 258.68,-228.54 255.36,-231.37 251.77,-233.87"/>
<polygon fill="#63b8ff" stroke="#63b8ff" points="633.4,-19.72 643.96,-18.88 635.19,-12.95 633.4,-19.72"/>
</a>
</g>
</g>
<!-- Node17&#45;&gt;Node14 -->
<g id="edge23_Node000017_Node000014" class="edge">
<title>Node17&#45;&gt;Node14</title>
<g id="a_edge23_Node000017_Node000014"><a xlink:title=" ">
<path fill="none" stroke="#63b8ff" d="M623.46,-42.27C602.86,-47.12 579.78,-52.56 560.39,-57.12"/>
<polygon fill="#63b8ff" stroke="#63b8ff" points="624.04,-45.5 632.98,-39.8 622.44,-38.68 624.04,-45.5"/>
</a>
</g>
</g>
<!-- Node17&#45;&gt;Node16 -->
<g id="edge22_Node000017_Node000016" class="edge">
<title>Node17&#45;&gt;Node16</title>
<g id="a_edge22_Node000017_Node000016"><a xlink:title=" ">
<path fill="none" stroke="#63b8ff" d="M611.68,-29.31C600.7,-29.31 589.37,-29.31 578.53,-29.31"/>
<polygon fill="#63b8ff" stroke="#63b8ff" points="611.51,-32.81 621.51,-29.31 611.51,-25.81 611.51,-32.81"/>
</a>
</g>
</g>
</g>
</svg>
