<?xml version="1.0" encoding="UTF-8" standalone="no"?>
<!DOCTYPE svg PUBLIC "-//W3C//DTD SVG 1.1//EN"
 "http://www.w3.org/Graphics/SVG/1.1/DTD/svg11.dtd">
<!-- Generated by graphviz version 8.1.0 (20230707.0739)
 -->
<!-- Title: ADC1_SoftwareTriggerEnable Pages: 1 -->
<svg width="511pt" height="53pt"
 viewBox="0.00 0.00 510.50 53.00" xmlns="http://www.w3.org/2000/svg" xmlns:xlink="http://www.w3.org/1999/xlink">
<g id="graph0" class="graph" transform="scale(1 1) rotate(0) translate(4 49)">
<title>ADC1_SoftwareTriggerEnable</title>
<!-- Node1 -->
<g id="Node000001" class="node">
<title>Node1</title>
<g id="a_Node000001"><a xlink:title="This inline function sets software common trigger.">
<polygon fill="#999999" stroke="#666666" points="502.5,-39 359,-39 359,-19 502.5,-19 502.5,-39"/>
<text text-anchor="middle" x="430.75" y="-25.5" font-family="Helvetica,sans-Serif" font-size="10.00">ADC1_SoftwareTriggerEnable</text>
</a>
</g>
</g>
<!-- Node2 -->
<g id="Node000002" class="node">
<title>Node2</title>
<g id="a_Node000002"><a xlink:href="a00490.html#gae32c9e5ed4d1fb98fc13b26601782c10" target="_top" xlink:title="Executes the power conveter&#39;s control loop.">
<polygon fill="white" stroke="#666666" points="108.25,-45 0,-45 0,-13 108.25,-13 108.25,-45"/>
<text text-anchor="start" x="8" y="-31.5" font-family="Helvetica,sans-Serif" font-size="10.00">ControlLoop_Interrupt</text>
<text text-anchor="middle" x="54.12" y="-19.5" font-family="Helvetica,sans-Serif" font-size="10.00">_CallBack</text>
</a>
</g>
</g>
<!-- Node1&#45;&gt;Node2 -->
<g id="edge1_Node000001_Node000002" class="edge">
<title>Node1&#45;&gt;Node2</title>
<g id="a_edge1_Node000001_Node000002"><a xlink:title=" ">
<path fill="none" stroke="#63b8ff" d="M347.9,-29C275.17,-29 170.97,-29 108.48,-29"/>
<polygon fill="#63b8ff" stroke="#63b8ff" points="347.85,-32.5 357.85,-29 347.85,-25.5 347.85,-32.5"/>
</a>
</g>
</g>
<!-- Node3 -->
<g id="Node000003" class="node">
<title>Node3</title>
<g id="a_Node000003"><a xlink:href="a00490.html#ga4791758659b96e5cc584367e31cd3cc3" target="_top" xlink:title="This function updates the DAB data members with ADC raw values.">
<polygon fill="white" stroke="#666666" points="323,-20 144.25,-20 144.25,0 323,0 323,-20"/>
<text text-anchor="middle" x="233.62" y="-6.5" font-family="Helvetica,sans-Serif" font-size="10.00">Dev_PwrCtrl_UpdateADConverterData</text>
</a>
</g>
</g>
<!-- Node1&#45;&gt;Node3 -->
<g id="edge2_Node000001_Node000003" class="edge">
<title>Node1&#45;&gt;Node3</title>
<g id="a_edge2_Node000001_Node000003"><a xlink:title=" ">
<path fill="none" stroke="#63b8ff" d="M348.07,-21.05C339.85,-20.25 331.49,-19.43 323.21,-18.63"/>
<polygon fill="#63b8ff" stroke="#63b8ff" points="347.46,-24.6 357.75,-22.09 348.14,-17.63 347.46,-24.6"/>
</a>
</g>
</g>
<!-- Node3&#45;&gt;Node2 -->
<g id="edge3_Node000003_Node000002" class="edge">
<title>Node3&#45;&gt;Node2</title>
<g id="a_edge3_Node000003_Node000002"><a xlink:title=" ">
<path fill="none" stroke="#63b8ff" d="M133.09,-20.65C124.62,-21.56 116.27,-22.45 108.38,-23.3"/>
<polygon fill="#63b8ff" stroke="#63b8ff" points="133.3,-24.04 142.88,-19.5 132.56,-17.08 133.3,-24.04"/>
</a>
</g>
</g>
</g>
</svg>
