<?xml version="1.0" encoding="UTF-8" standalone="no"?>
<!DOCTYPE svg PUBLIC "-//W3C//DTD SVG 1.1//EN"
 "http://www.w3.org/Graphics/SVG/1.1/DTD/svg11.dtd">
<!-- Generated by graphviz version 8.1.0 (20230707.0739)
 -->
<!-- Title: PWM_OverrideHighEnable Pages: 1 -->
<svg width="802pt" height="154pt"
 viewBox="0.00 0.00 802.00 154.00" xmlns="http://www.w3.org/2000/svg" xmlns:xlink="http://www.w3.org/1999/xlink">
<g id="graph0" class="graph" transform="scale(1 1) rotate(0) translate(4 150)">
<title>PWM_OverrideHighEnable</title>
<!-- Node1 -->
<g id="Node000001" class="node">
<title>Node1</title>
<g id="a_Node000001"><a xlink:title="This inline function enables PWM override on PWMH output for specific PWM generator selected by the a...">
<polygon fill="#999999" stroke="#666666" points="794,-89 663.25,-89 663.25,-69 794,-69 794,-89"/>
<text text-anchor="middle" x="728.62" y="-75.5" font-family="Helvetica,sans-Serif" font-size="10.00">PWM_OverrideHighEnable</text>
</a>
</g>
</g>
<!-- Node2 -->
<g id="Node000002" class="node">
<title>Node2</title>
<g id="a_Node000002"><a xlink:href="a00518.html#ga1da8b184470e7693ac0467bf255272c4" target="_top" xlink:title="Disable the PWM output.">
<polygon fill="white" stroke="#666666" points="627.25,-89 491.25,-89 491.25,-69 627.25,-69 627.25,-89"/>
<text text-anchor="middle" x="559.25" y="-75.5" font-family="Helvetica,sans-Serif" font-size="10.00">Dev_PwrCtrl_PWM_Disable</text>
</a>
</g>
</g>
<!-- Node1&#45;&gt;Node2 -->
<g id="edge1_Node000001_Node000002" class="edge">
<title>Node1&#45;&gt;Node2</title>
<g id="a_edge1_Node000001_Node000002"><a xlink:title=" ">
<path fill="none" stroke="#63b8ff" d="M651.93,-79C643.8,-79 635.57,-79 627.56,-79"/>
<polygon fill="#63b8ff" stroke="#63b8ff" points="651.91,-82.5 661.91,-79 651.91,-75.5 651.91,-82.5"/>
</a>
</g>
</g>
<!-- Node3 -->
<g id="Node000003" class="node">
<title>Node3</title>
<g id="a_Node000003"><a xlink:href="a00518.html#ga6523e7af2c1c7f66d8495c072a5c7281" target="_top" xlink:title="Initialize the power control parameters.">
<polygon fill="white" stroke="#666666" points="439.88,-146 330.88,-146 330.88,-126 439.88,-126 439.88,-146"/>
<text text-anchor="middle" x="385.38" y="-132.5" font-family="Helvetica,sans-Serif" font-size="10.00">Dev_PwrCtrl_Initialize</text>
</a>
</g>
</g>
<!-- Node2&#45;&gt;Node3 -->
<g id="edge2_Node000002_Node000003" class="edge">
<title>Node2&#45;&gt;Node3</title>
<g id="a_edge2_Node000002_Node000003"><a xlink:title=" ">
<path fill="none" stroke="#63b8ff" d="M521.76,-93.31C502.18,-100.78 477.55,-109.82 455.25,-117 446.04,-119.96 436.05,-122.88 426.61,-125.51"/>
<polygon fill="#63b8ff" stroke="#63b8ff" points="522.71,-96.32 530.79,-89.46 520.2,-89.78 522.71,-96.32"/>
</a>
</g>
</g>
<!-- Node4 -->
<g id="Node000004" class="node">
<title>Node4</title>
<g id="a_Node000004"><a xlink:href="a00518.html#ga8307344d190a5459682d315fc7bfe198" target="_top" xlink:title="Executes function for initialze state machine.">
<polygon fill="white" stroke="#666666" points="432.75,-108 338,-108 338,-88 432.75,-88 432.75,-108"/>
<text text-anchor="middle" x="385.38" y="-94.5" font-family="Helvetica,sans-Serif" font-size="10.00">PCS_INIT_handler</text>
</a>
</g>
</g>
<!-- Node2&#45;&gt;Node4 -->
<g id="edge3_Node000002_Node000004" class="edge">
<title>Node2&#45;&gt;Node4</title>
<g id="a_edge3_Node000002_Node000004"><a xlink:title=" ">
<path fill="none" stroke="#63b8ff" d="M480.32,-87.61C464.23,-89.39 447.76,-91.21 433.2,-92.82"/>
<polygon fill="#63b8ff" stroke="#63b8ff" points="480.26,-91.03 489.81,-86.45 479.49,-84.07 480.26,-91.03"/>
</a>
</g>
</g>
<!-- Node7 -->
<g id="Node000007" class="node">
<title>Node7</title>
<g id="a_Node000007"><a xlink:href="a00518.html#gabda6b853bb6547821acd0ec87e0a4842" target="_top" xlink:title="Executes the power control soft start state machine.">
<polygon fill="white" stroke="#666666" points="455.25,-70 315.5,-70 315.5,-50 455.25,-50 455.25,-70"/>
<text text-anchor="middle" x="385.38" y="-56.5" font-family="Helvetica,sans-Serif" font-size="10.00">PCS_SOFT_START_handler</text>
</a>
</g>
</g>
<!-- Node2&#45;&gt;Node7 -->
<g id="edge6_Node000002_Node000007" class="edge">
<title>Node2&#45;&gt;Node7</title>
<g id="a_edge6_Node000002_Node000007"><a xlink:title=" ">
<path fill="none" stroke="#63b8ff" d="M480.13,-70.36C471.95,-69.46 463.67,-68.54 455.6,-67.65"/>
<polygon fill="#63b8ff" stroke="#63b8ff" points="479.49,-73.93 489.81,-71.55 480.26,-66.97 479.49,-73.93"/>
</a>
</g>
</g>
<!-- Node8 -->
<g id="Node000008" class="node">
<title>Node8</title>
<g id="a_Node000008"><a xlink:href="a00518.html#ga8752fbb48416e60141e205f1cbda0f98" target="_top" xlink:title="Executes the Online state.">
<polygon fill="white" stroke="#666666" points="450,-32 320.75,-32 320.75,0 450,0 450,-32"/>
<text text-anchor="start" x="328.75" y="-18.5" font-family="Helvetica,sans-Serif" font-size="10.00">PCS_UP_AND_RUNNING</text>
<text text-anchor="middle" x="385.38" y="-6.5" font-family="Helvetica,sans-Serif" font-size="10.00">_handler</text>
</a>
</g>
</g>
<!-- Node2&#45;&gt;Node8 -->
<g id="edge8_Node000002_Node000008" class="edge">
<title>Node2&#45;&gt;Node8</title>
<g id="a_edge8_Node000002_Node000008"><a xlink:title=" ">
<path fill="none" stroke="#63b8ff" d="M520.02,-64.84C500.63,-57.67 476.7,-48.85 455.25,-41 447.6,-38.2 439.48,-35.24 431.59,-32.37"/>
<polygon fill="#63b8ff" stroke="#63b8ff" points="518.69,-68.45 529.29,-68.64 521.12,-61.89 518.69,-68.45"/>
</a>
</g>
</g>
<!-- Node5 -->
<g id="Node000005" class="node">
<title>Node5</title>
<g id="a_Node000005"><a xlink:href="a00518.html#gaebef55c78d9df043c293ffcf8a06b63f" target="_top" xlink:title="Manages the power control state machine.">
<polygon fill="white" stroke="#666666" points="279.5,-70 145.75,-70 145.75,-50 279.5,-50 279.5,-70"/>
<text text-anchor="middle" x="212.62" y="-56.5" font-family="Helvetica,sans-Serif" font-size="10.00">Dev_PwrCtrl_StateMachine</text>
</a>
</g>
</g>
<!-- Node4&#45;&gt;Node5 -->
<g id="edge4_Node000004_Node000005" class="edge">
<title>Node4&#45;&gt;Node5</title>
<g id="a_edge4_Node000004_Node000005"><a xlink:title=" ">
<path fill="none" stroke="#63b8ff" d="M327.02,-85.24C305.4,-80.42 281.08,-75.01 260.52,-70.44"/>
<polygon fill="#63b8ff" stroke="#63b8ff" points="326.2,-88.86 336.72,-87.62 327.72,-82.03 326.2,-88.86"/>
</a>
</g>
</g>
<!-- Node6 -->
<g id="Node000006" class="node">
<title>Node6</title>
<g id="a_Node000006"><a xlink:href="a00518.html#gad5d6590aeda3bb06b60874802edc14f6" target="_top" xlink:title="Executes the power control state machine.">
<polygon fill="white" stroke="#666666" points="109.75,-70 0,-70 0,-50 109.75,-50 109.75,-70"/>
<text text-anchor="middle" x="54.88" y="-56.5" font-family="Helvetica,sans-Serif" font-size="10.00">Dev_PwrCtrl_Execute</text>
</a>
</g>
</g>
<!-- Node5&#45;&gt;Node6 -->
<g id="edge5_Node000005_Node000006" class="edge">
<title>Node5&#45;&gt;Node6</title>
<g id="a_edge5_Node000005_Node000006"><a xlink:title=" ">
<path fill="none" stroke="#63b8ff" d="M134.59,-60C126.2,-60 117.8,-60 109.78,-60"/>
<polygon fill="#63b8ff" stroke="#63b8ff" points="134.57,-63.5 144.57,-60 134.57,-56.5 134.57,-63.5"/>
</a>
</g>
</g>
<!-- Node7&#45;&gt;Node5 -->
<g id="edge7_Node000007_Node000005" class="edge">
<title>Node7&#45;&gt;Node5</title>
<g id="a_edge7_Node000007_Node000005"><a xlink:title=" ">
<path fill="none" stroke="#63b8ff" d="M304.58,-60C296.28,-60 287.92,-60 279.8,-60"/>
<polygon fill="#63b8ff" stroke="#63b8ff" points="304.42,-63.5 314.42,-60 304.42,-56.5 304.42,-63.5"/>
</a>
</g>
</g>
<!-- Node8&#45;&gt;Node5 -->
<g id="edge9_Node000008_Node000005" class="edge">
<title>Node8&#45;&gt;Node5</title>
<g id="a_edge9_Node000008_Node000005"><a xlink:title=" ">
<path fill="none" stroke="#63b8ff" d="M310.22,-35.11C291,-40.06 271,-45.22 254.22,-49.54"/>
<polygon fill="#63b8ff" stroke="#63b8ff" points="310.98,-38.27 319.79,-32.38 309.24,-31.49 310.98,-38.27"/>
</a>
</g>
</g>
</g>
</svg>
