<?xml version="1.0" encoding="UTF-8" standalone="no"?>
<!DOCTYPE svg PUBLIC "-//W3C//DTD SVG 1.1//EN"
 "http://www.w3.org/Graphics/SVG/1.1/DTD/svg11.dtd">
<!-- Generated by graphviz version 8.1.0 (20230707.0739)
 -->
<!-- Title: MPLABX Configurator Driver Layer Pages: 1 -->
<svg width="260pt" height="674pt"
 viewBox="0.00 0.00 259.75 674.00" xmlns="http://www.w3.org/2000/svg" xmlns:xlink="http://www.w3.org/1999/xlink">
<g id="graph0" class="graph" transform="scale(1 1) rotate(0) translate(4 670)">
<title>MPLABX Configurator Driver Layer</title>
<!-- Node2 -->
<g id="Node000002" class="node">
<title>Node2</title>
<g id="a_Node000002"><a xlink:href="a00531.html" target="_top" xlink:title="High&#45;Speed, 12&#45;Bit Multiple SARs Analog&#45;to&#45;Digital Converter driver using dsPIC MCUs.">
<polygon fill="white" stroke="#666666" points="251.75,-666 145.75,-666 145.75,-646 251.75,-646 251.75,-666"/>
<text text-anchor="middle" x="198.75" y="-652.5" font-family="Helvetica,sans-Serif" font-size="10.00">ADC Multicore Driver</text>
</a>
</g>
</g>
<!-- Node3 -->
<g id="Node000003" class="node">
<title>Node3</title>
<g id="a_Node000003"><a xlink:href="a00532.html" target="_top" xlink:title="CAN FD Driver using dsPIC MCUs.">
<polygon fill="white" stroke="#666666" points="238.25,-628 159.25,-628 159.25,-608 238.25,-608 238.25,-628"/>
<text text-anchor="middle" x="198.75" y="-614.5" font-family="Helvetica,sans-Serif" font-size="10.00">CAN FD Driver</text>
</a>
</g>
</g>
<!-- Node4 -->
<g id="Node000004" class="node">
<title>Node4</title>
<g id="a_Node000004"><a xlink:href="a00533.html" target="_top" xlink:title="Configurable Logic Cell driver allows the user to specify combinations of signals as inputs to a logi...">
<polygon fill="white" stroke="#666666" points="229.62,-590 167.88,-590 167.88,-570 229.62,-570 229.62,-590"/>
<text text-anchor="middle" x="198.75" y="-576.5" font-family="Helvetica,sans-Serif" font-size="10.00">CLC Driver</text>
</a>
</g>
</g>
<!-- Node15 -->
<g id="Node000015" class="node">
<title>Node15</title>
<g id="a_Node000015"><a xlink:href="a00544.html" target="_top" xlink:title="Clock configurator driver for System and Peripheral Clock using dsPIC MCUs.">
<polygon fill="white" stroke="#666666" points="232.62,-552 164.88,-552 164.88,-532 232.62,-532 232.62,-552"/>
<text text-anchor="middle" x="198.75" y="-538.5" font-family="Helvetica,sans-Serif" font-size="10.00">Clock Driver</text>
</a>
</g>
</g>
<!-- Node5 -->
<g id="Node000005" class="node">
<title>Node5</title>
<g id="a_Node000005"><a xlink:href="a00534.html" target="_top" xlink:title="High Speed Analog Comparator with Slope Compensation DAC driver using dsPIC MCUs.">
<polygon fill="white" stroke="#666666" points="242.75,-514 154.75,-514 154.75,-494 242.75,-494 242.75,-514"/>
<text text-anchor="middle" x="198.75" y="-500.5" font-family="Helvetica,sans-Serif" font-size="10.00">CMP DAC Driver</text>
</a>
</g>
</g>
<!-- Node19 -->
<g id="Node000019" class="node">
<title>Node19</title>
<g id="a_Node000019"><a xlink:href="a00548.html" target="_top" xlink:title="Device Configuration Bits using dsPIC MCUs.">
<polygon fill="white" stroke="#666666" points="249.12,-476 148.38,-476 148.38,-456 249.12,-456 249.12,-476"/>
<text text-anchor="middle" x="198.75" y="-462.5" font-family="Helvetica,sans-Serif" font-size="10.00">CONFIGBITS Driver</text>
</a>
</g>
</g>
<!-- Node6 -->
<g id="Node000006" class="node">
<title>Node6</title>
<g id="a_Node000006"><a xlink:href="a00535.html" target="_top" xlink:title="16&#45;bit Programmable Cyclic Redundancy Check generator using dsPIC MCUs">
<polygon fill="white" stroke="#666666" points="230.38,-438 167.12,-438 167.12,-418 230.38,-418 230.38,-438"/>
<text text-anchor="middle" x="198.75" y="-424.5" font-family="Helvetica,sans-Serif" font-size="10.00">CRC Driver</text>
</a>
</g>
</g>
<!-- Node9 -->
<g id="Node000009" class="node">
<title>Node9</title>
<g id="a_Node000009"><a xlink:href="a00538.html" target="_top" xlink:title="Deadman Timer (DMT) driver using dsPIC MCUs. The functionality is to interrupt the processor in the e...">
<polygon fill="white" stroke="#666666" points="230.38,-400 167.12,-400 167.12,-380 230.38,-380 230.38,-400"/>
<text text-anchor="middle" x="198.75" y="-386.5" font-family="Helvetica,sans-Serif" font-size="10.00">DMT Driver</text>
</a>
</g>
</g>
<!-- Node10 -->
<g id="Node000010" class="node">
<title>Node10</title>
<g id="a_Node000010"><a xlink:href="a00539.html" target="_top" xlink:title="Interrupt Priority configuration driver using dsPIC MCUs.">
<polygon fill="white" stroke="#666666" points="237.88,-362 159.62,-362 159.62,-342 237.88,-342 237.88,-362"/>
<text text-anchor="middle" x="198.75" y="-348.5" font-family="Helvetica,sans-Serif" font-size="10.00">Interrupt Driver</text>
</a>
</g>
</g>
<!-- Node1 -->
<g id="Node000001" class="node">
<title>Node1</title>
<g id="a_Node000001"><a xlink:title="Contains all the module generated by MCC for this application.">
<polygon fill="#999999" stroke="#666666" points="109.75,-349 0,-349 0,-317 109.75,-317 109.75,-349"/>
<text text-anchor="start" x="8" y="-335.5" font-family="Helvetica,sans-Serif" font-size="10.00">MPLABX Configurator</text>
<text text-anchor="middle" x="54.88" y="-323.5" font-family="Helvetica,sans-Serif" font-size="10.00"> Driver Layer</text>
</a>
</g>
</g>
<!-- Node1&#45;&gt;Node2 -->
<g id="edge1" class="edge">
<title>Node1&#45;&gt;Node2</title>
<path fill="none" stroke="black" d="M56.13,-360.21C58.14,-418.68 71.03,-557.43 145.75,-637 148.97,-640.43 152.87,-643.25 157.06,-645.56"/>
<polygon fill="black" stroke="black" points="59.6,-360.22 55.85,-350.32 52.61,-360.4 59.6,-360.22"/>
</g>
<!-- Node1&#45;&gt;Node3 -->
<g id="edge2" class="edge">
<title>Node1&#45;&gt;Node3</title>
<path fill="none" stroke="black" d="M57.49,-360.09C62.09,-413.09 79.6,-531.21 145.75,-599 149.51,-602.85 154.11,-605.93 159.01,-608.38"/>
<polygon fill="black" stroke="black" points="60.91,-359.93 56.66,-350.23 53.94,-360.47 60.91,-359.93"/>
</g>
<!-- Node1&#45;&gt;Node4 -->
<g id="edge3" class="edge">
<title>Node1&#45;&gt;Node4</title>
<path fill="none" stroke="black" d="M59.29,-360.15C66.63,-407.36 88.18,-504.86 145.75,-561 151.74,-566.84 159.66,-570.9 167.51,-573.72"/>
<polygon fill="black" stroke="black" points="62.62,-359.69 57.72,-350.29 55.69,-360.69 62.62,-359.69"/>
</g>
<!-- Node1&#45;&gt;Node15 -->
<g id="edge14" class="edge">
<title>Node1&#45;&gt;Node15</title>
<path fill="none" stroke="black" d="M61.63,-359.68C71.74,-400.4 96.47,-478.04 145.75,-523 151.08,-527.86 157.74,-531.5 164.51,-534.22"/>
<polygon fill="black" stroke="black" points="64.87,-359.16 59.16,-350.24 58.05,-360.77 64.87,-359.16"/>
</g>
<!-- Node1&#45;&gt;Node5 -->
<g id="edge4" class="edge">
<title>Node1&#45;&gt;Node5</title>
<path fill="none" stroke="black" d="M64.97,-359.21C77.91,-392.83 104.69,-450.87 145.75,-485 149.82,-488.38 154.53,-491.18 159.44,-493.5"/>
<polygon fill="black" stroke="black" points="68.02,-358.37 61.26,-350.21 61.46,-360.81 68.02,-358.37"/>
</g>
<!-- Node1&#45;&gt;Node19 -->
<g id="edge18" class="edge">
<title>Node1&#45;&gt;Node19</title>
<path fill="none" stroke="black" d="M70.34,-358.77C85.92,-384.41 112.95,-423.25 145.75,-447 150.42,-450.38 155.76,-453.22 161.19,-455.59"/>
<polygon fill="black" stroke="black" points="72.85,-357.15 64.75,-350.33 66.83,-360.71 72.85,-357.15"/>
</g>
<!-- Node1&#45;&gt;Node6 -->
<g id="edge5" class="edge">
<title>Node1&#45;&gt;Node6</title>
<path fill="none" stroke="black" d="M79.56,-357.1C96.73,-373.49 121.15,-394.71 145.75,-409 152.23,-412.76 159.59,-416 166.69,-418.68"/>
<polygon fill="black" stroke="black" points="82.36,-354.96 72.75,-350.49 77.47,-359.98 82.36,-354.96"/>
</g>
<!-- Node1&#45;&gt;Node9 -->
<g id="edge8" class="edge">
<title>Node1&#45;&gt;Node9</title>
<path fill="none" stroke="black" d="M103.43,-353.63C117.04,-359.39 131.93,-365.56 145.75,-371 152.99,-373.85 160.86,-376.8 168.23,-379.5"/>
<polygon fill="black" stroke="black" points="104.88,-350.02 94.31,-349.32 102.14,-356.46 104.88,-350.02"/>
</g>
<!-- Node1&#45;&gt;Node10 -->
<g id="edge9" class="edge">
<title>Node1&#45;&gt;Node10</title>
<path fill="none" stroke="black" d="M120.46,-341.65C133.73,-343.43 147.3,-345.24 159.29,-346.85"/>
<polygon fill="black" stroke="black" points="121.29,-338.1 110.92,-340.24 120.36,-345.03 121.29,-338.1"/>
</g>
<!-- Node12 -->
<g id="Node000012" class="node">
<title>Node12</title>
<g id="a_Node000012"><a xlink:href="a00541.html" target="_top" xlink:title="The Pin Driver directs the operation and function of the selected device pins using dsPIC MCUs.">
<polygon fill="white" stroke="#666666" points="230,-324 167.5,-324 167.5,-304 230,-304 230,-324"/>
<text text-anchor="middle" x="198.75" y="-310.5" font-family="Helvetica,sans-Serif" font-size="10.00">Pins Driver</text>
</a>
</g>
</g>
<!-- Node1&#45;&gt;Node12 -->
<g id="edge11" class="edge">
<title>Node1&#45;&gt;Node12</title>
<path fill="none" stroke="black" d="M120.52,-324.34C136.82,-322.16 153.55,-319.92 167.27,-318.08"/>
<polygon fill="black" stroke="black" points="120.36,-320.97 110.92,-325.76 121.29,-327.9 120.36,-320.97"/>
</g>
<!-- Node7 -->
<g id="Node000007" class="node">
<title>Node7</title>
<g id="a_Node000007"><a xlink:href="a00536.html" target="_top" xlink:title="Pulse Width Modulation Driver using dsPIC MCUs.">
<polygon fill="white" stroke="#666666" points="232.62,-286 164.88,-286 164.88,-266 232.62,-266 232.62,-286"/>
<text text-anchor="middle" x="198.75" y="-272.5" font-family="Helvetica,sans-Serif" font-size="10.00">PWM Driver</text>
</a>
</g>
</g>
<!-- Node1&#45;&gt;Node7 -->
<g id="edge6" class="edge">
<title>Node1&#45;&gt;Node7</title>
<path fill="none" stroke="black" d="M103.43,-312.37C117.04,-306.61 131.93,-300.44 145.75,-295 152.99,-292.15 160.86,-289.2 168.23,-286.5"/>
<polygon fill="black" stroke="black" points="102.14,-309.54 94.31,-316.68 104.88,-315.98 102.14,-309.54"/>
</g>
<!-- Node8 -->
<g id="Node000008" class="node">
<title>Node8</title>
<g id="a_Node000008"><a xlink:href="a00537.html" target="_top" xlink:title="High&#45;Resolution Pulse&#45;Width Modulated (PWM) with Fine Edge Placement using dsPIC MCUs.">
<polygon fill="white" stroke="#666666" points="240.88,-248 156.62,-248 156.62,-228 240.88,-228 240.88,-248"/>
<text text-anchor="middle" x="198.75" y="-234.5" font-family="Helvetica,sans-Serif" font-size="10.00">PWM HS Driver</text>
</a>
</g>
</g>
<!-- Node1&#45;&gt;Node8 -->
<g id="edge7" class="edge">
<title>Node1&#45;&gt;Node8</title>
<path fill="none" stroke="black" d="M79.56,-308.9C96.73,-292.51 121.15,-271.29 145.75,-257 151.32,-253.77 157.53,-250.92 163.68,-248.49"/>
<polygon fill="black" stroke="black" points="77.47,-306.02 72.75,-315.51 82.36,-311.04 77.47,-306.02"/>
</g>
<!-- Node14 -->
<g id="Node000014" class="node">
<title>Node14</title>
<g id="a_Node000014"><a xlink:href="a00543.html" target="_top" xlink:title="Reset driver using dsPIC MCUs.">
<polygon fill="white" stroke="#666666" points="233,-210 164.5,-210 164.5,-190 233,-190 233,-210"/>
<text text-anchor="middle" x="198.75" y="-196.5" font-family="Helvetica,sans-Serif" font-size="10.00">Reset Driver</text>
</a>
</g>
</g>
<!-- Node1&#45;&gt;Node14 -->
<g id="edge13" class="edge">
<title>Node1&#45;&gt;Node14</title>
<path fill="none" stroke="black" d="M70.34,-307.23C85.92,-281.59 112.95,-242.75 145.75,-219 151.28,-215 157.74,-211.75 164.19,-209.16"/>
<polygon fill="black" stroke="black" points="66.83,-305.29 64.75,-315.67 72.85,-308.85 66.83,-305.29"/>
</g>
<!-- Node13 -->
<g id="Node000013" class="node">
<title>Node13</title>
<g id="a_Node000013"><a xlink:href="a00542.html" target="_top" xlink:title="System driver using dsPIC MCUs.">
<polygon fill="white" stroke="#666666" points="237.12,-172 160.38,-172 160.38,-152 237.12,-152 237.12,-172"/>
<text text-anchor="middle" x="198.75" y="-158.5" font-family="Helvetica,sans-Serif" font-size="10.00">System Driver</text>
</a>
</g>
</g>
<!-- Node1&#45;&gt;Node13 -->
<g id="edge12" class="edge">
<title>Node1&#45;&gt;Node13</title>
<path fill="none" stroke="black" d="M64.97,-306.79C77.91,-273.17 104.69,-215.13 145.75,-181 149.96,-177.5 154.88,-174.61 159.97,-172.24"/>
<polygon fill="black" stroke="black" points="61.46,-305.19 61.26,-315.79 68.02,-307.63 61.46,-305.19"/>
</g>
<!-- Node17 -->
<g id="Node000017" class="node">
<title>Node17</title>
<g id="a_Node000017"><a xlink:href="a00546.html" target="_top" xlink:title="Timer Driver is a 16&#45;bit timer or 32&#45;bit timer that can operate as a free&#45;running interval timer usin...">
<polygon fill="white" stroke="#666666" points="232.25,-134 165.25,-134 165.25,-114 232.25,-114 232.25,-134"/>
<text text-anchor="middle" x="198.75" y="-120.5" font-family="Helvetica,sans-Serif" font-size="10.00">Timer Driver</text>
</a>
</g>
</g>
<!-- Node1&#45;&gt;Node17 -->
<g id="edge16" class="edge">
<title>Node1&#45;&gt;Node17</title>
<path fill="none" stroke="black" d="M61.63,-306.32C71.74,-265.6 96.47,-187.96 145.75,-143 151.15,-138.08 157.92,-134.4 164.78,-131.67"/>
<polygon fill="black" stroke="black" points="58.05,-305.23 59.16,-315.76 64.87,-306.84 58.05,-305.23"/>
</g>
<!-- Node16 -->
<g id="Node000016" class="node">
<title>Node16</title>
<g id="a_Node000016"><a xlink:href="a00545.html" target="_top" xlink:title="Traps driver with handler for all types of traps using dsPIC MCUs.">
<polygon fill="white" stroke="#666666" points="232.25,-96 165.25,-96 165.25,-76 232.25,-76 232.25,-96"/>
<text text-anchor="middle" x="198.75" y="-82.5" font-family="Helvetica,sans-Serif" font-size="10.00">Traps Driver</text>
</a>
</g>
</g>
<!-- Node1&#45;&gt;Node16 -->
<g id="edge15" class="edge">
<title>Node1&#45;&gt;Node16</title>
<path fill="none" stroke="black" d="M59.29,-305.85C66.63,-258.64 88.18,-161.14 145.75,-105 151.05,-99.83 157.86,-96.06 164.8,-93.3"/>
<polygon fill="black" stroke="black" points="55.69,-305.31 57.72,-315.71 62.62,-306.31 55.69,-305.31"/>
</g>
<!-- Node18 -->
<g id="Node000018" class="node">
<title>Node18</title>
<g id="a_Node000018"><a xlink:href="a00547.html" target="_top" xlink:title="Universal Asynchronous Receiver Transmitter driver using dsPIC MCUs.">
<polygon fill="white" stroke="#666666" points="233,-58 164.5,-58 164.5,-38 233,-38 233,-58"/>
<text text-anchor="middle" x="198.75" y="-44.5" font-family="Helvetica,sans-Serif" font-size="10.00">UART Driver</text>
</a>
</g>
</g>
<!-- Node1&#45;&gt;Node18 -->
<g id="edge17" class="edge">
<title>Node1&#45;&gt;Node18</title>
<path fill="none" stroke="black" d="M57.49,-305.91C62.09,-252.91 79.6,-134.79 145.75,-67 150.78,-61.84 157.33,-58.07 164.07,-55.33"/>
<polygon fill="black" stroke="black" points="53.94,-305.53 56.66,-315.77 60.91,-306.07 53.94,-305.53"/>
</g>
<!-- Node11 -->
<g id="Node000011" class="node">
<title>Node11</title>
<g id="a_Node000011"><a xlink:href="a00540.html" target="_top" xlink:title="Watchdog Timer Driver using dsPIC MCUs.">
<polygon fill="white" stroke="#666666" points="231.12,-20 166.38,-20 166.38,0 231.12,0 231.12,-20"/>
<text text-anchor="middle" x="198.75" y="-6.5" font-family="Helvetica,sans-Serif" font-size="10.00">WDT Driver</text>
</a>
</g>
</g>
<!-- Node1&#45;&gt;Node11 -->
<g id="edge10" class="edge">
<title>Node1&#45;&gt;Node11</title>
<path fill="none" stroke="black" d="M56.13,-305.79C58.14,-247.32 71.03,-108.57 145.75,-29 151.21,-23.18 158.6,-19.14 166.09,-16.34"/>
<polygon fill="black" stroke="black" points="52.61,-305.6 55.85,-315.68 59.6,-305.78 52.61,-305.6"/>
</g>
</g>
</svg>
