<?xml version="1.0" encoding="UTF-8" standalone="no"?>
<!DOCTYPE svg PUBLIC "-//W3C//DTD SVG 1.1//EN"
 "http://www.w3.org/Graphics/SVG/1.1/DTD/svg11.dtd">
<!-- Generated by graphviz version 8.1.0 (20230707.0739)
 -->
<!-- Title: CAN1_RX_FIFO_IncrementMsgPtr Pages: 1 -->
<svg width="528pt" height="66pt"
 viewBox="0.00 0.00 527.75 66.00" xmlns="http://www.w3.org/2000/svg" xmlns:xlink="http://www.w3.org/1999/xlink">
<g id="graph0" class="graph" transform="scale(1 1) rotate(0) translate(4 62)">
<title>CAN1_RX_FIFO_IncrementMsgPtr</title>
<!-- Node1 -->
<g id="Node000001" class="node">
<title>Node1</title>
<g id="a_Node000001"><a xlink:title="This function Update the receive FIFO message increment tail position.">
<polygon fill="#999999" stroke="#666666" points="519.75,-39 354.5,-39 354.5,-19 519.75,-19 519.75,-39"/>
<text text-anchor="middle" x="437.12" y="-25.5" font-family="Helvetica,sans-Serif" font-size="10.00">CAN1_RX_FIFO_IncrementMsgPtr</text>
</a>
</g>
</g>
<!-- Node2 -->
<g id="Node000002" class="node">
<title>Node2</title>
<g id="a_Node000002"><a xlink:href="a00511.html#ga4fe1df4cd9f0ce122687dcfab0713b5b" target="_top" xlink:title="Reads the received single message object.">
<polygon fill="white" stroke="#666666" points="290.75,-58 210.25,-58 210.25,-38 290.75,-38 290.75,-58"/>
<text text-anchor="middle" x="250.5" y="-44.5" font-family="Helvetica,sans-Serif" font-size="10.00">CAN1_Receive</text>
</a>
</g>
</g>
<!-- Node1&#45;&gt;Node2 -->
<g id="edge1_Node000001_Node000002" class="edge">
<title>Node1&#45;&gt;Node2</title>
<g id="a_edge1_Node000001_Node000002"><a xlink:title=" ">
<path fill="none" stroke="#63b8ff" d="M343.22,-38.56C324.77,-40.46 306.34,-42.36 290.9,-43.95"/>
<polygon fill="#63b8ff" stroke="#63b8ff" points="343.48,-41.95 353.07,-37.44 342.76,-34.99 343.48,-41.95"/>
</a>
</g>
</g>
<!-- Node4 -->
<g id="Node000004" class="node">
<title>Node4</title>
<g id="a_Node000004"><a xlink:href="a00511.html#ga2c655a58965fff8578916b59bed47297" target="_top" xlink:title="Reads the received single message object from the CAN1 receive FIFO.">
<polygon fill="white" stroke="#666666" points="318.5,-20 182.5,-20 182.5,0 318.5,0 318.5,-20"/>
<text text-anchor="middle" x="250.5" y="-6.5" font-family="Helvetica,sans-Serif" font-size="10.00">CAN1_ReceiveMessageGet</text>
</a>
</g>
</g>
<!-- Node1&#45;&gt;Node4 -->
<g id="edge3_Node000001_Node000004" class="edge">
<title>Node1&#45;&gt;Node4</title>
<g id="a_edge3_Node000001_Node000004"><a xlink:title=" ">
<path fill="none" stroke="#63b8ff" d="M343.29,-19.45C335.08,-18.6 326.87,-17.76 318.92,-16.94"/>
<polygon fill="#63b8ff" stroke="#63b8ff" points="342.76,-23.01 353.07,-20.56 343.48,-16.05 342.76,-23.01"/>
</a>
</g>
</g>
<!-- Node3 -->
<g id="Node000003" class="node">
<title>Node3</title>
<g id="a_Node000003"><a xlink:href="a00482.html#ga5fb4f1d3c69d1871c10a2c0a0ad27f8a" target="_top" xlink:title=" ">
<polygon fill="white" stroke="#666666" points="146.5,-58 0,-58 0,-38 146.5,-38 146.5,-58"/>
<text text-anchor="middle" x="73.25" y="-44.5" font-family="Helvetica,sans-Serif" font-size="10.00">PBV_CAN_Receive_from_GUI</text>
</a>
</g>
</g>
<!-- Node2&#45;&gt;Node3 -->
<g id="edge2_Node000002_Node000003" class="edge">
<title>Node2&#45;&gt;Node3</title>
<g id="a_edge2_Node000002_Node000003"><a xlink:title=" ">
<path fill="none" stroke="#63b8ff" d="M199.26,-48C182.95,-48 164.52,-48 146.91,-48"/>
<polygon fill="#63b8ff" stroke="#63b8ff" points="199.17,-51.5 209.17,-48 199.17,-44.5 199.17,-51.5"/>
</a>
</g>
</g>
</g>
</svg>
