<?xml version="1.0" encoding="UTF-8" standalone="no"?>
<!DOCTYPE svg PUBLIC "-//W3C//DTD SVG 1.1//EN"
 "http://www.w3.org/Graphics/SVG/1.1/DTD/svg11.dtd">
<!-- Generated by graphviz version 8.1.0 (20230707.0739)
 -->
<!-- Title: Tasks_100ms Pages: 1 -->
<svg width="786pt" height="256pt"
 viewBox="0.00 0.00 786.25 256.00" xmlns="http://www.w3.org/2000/svg" xmlns:xlink="http://www.w3.org/1999/xlink">
<g id="graph0" class="graph" transform="scale(1 1) rotate(0) translate(4 252)">
<title>Tasks_100ms</title>
<!-- Node1 -->
<g id="Node000001" class="node">
<title>Node1</title>
<g id="a_Node000001"><a xlink:title="Tasks_100ms gets called every 100 ms, put your things in it that need to be called regularly.">
<polygon fill="#999999" stroke="#666666" points="76.75,-162 0,-162 0,-142 76.75,-142 76.75,-162"/>
<text text-anchor="middle" x="38.38" y="-148.5" font-family="Helvetica,sans-Serif" font-size="10.00">Tasks_100ms</text>
</a>
</g>
</g>
<!-- Node2 -->
<g id="Node000002" class="node">
<title>Node2</title>
<g id="a_Node000002"><a xlink:href="a00499.html#ga1bd7dce99469a41bbb705d939ea512ad" target="_top" xlink:title="this function needs to be called every 100ms it contains the code to update the status of the fan">
<polygon fill="white" stroke="#666666" points="228.12,-205 113.88,-205 113.88,-185 228.12,-185 228.12,-205"/>
<text text-anchor="middle" x="171" y="-191.5" font-family="Helvetica,sans-Serif" font-size="10.00">Dev_Fan_Task_100ms</text>
</a>
</g>
</g>
<!-- Node1&#45;&gt;Node2 -->
<g id="edge1_Node000001_Node000002" class="edge">
<title>Node1&#45;&gt;Node2</title>
<g id="a_edge1_Node000001_Node000002"><a xlink:title=" ">
<path fill="none" stroke="#63b8ff" d="M71,-162.41C88.12,-168.05 109.49,-175.08 128,-181.17"/>
<polygon fill="#63b8ff" stroke="#63b8ff" points="126.62,-184.74 137.22,-184.54 128.81,-178.09 126.62,-184.74"/>
</a>
</g>
</g>
<!-- Node8 -->
<g id="Node000008" class="node">
<title>Node8</title>
<g id="a_Node000008"><a xlink:href="a00500.html#gad26b3effecb0675aad3bcba8993a0bb2" target="_top" xlink:title="This function needs to be called every 100ms and contains the code to update the status of the LEDs.">
<polygon fill="white" stroke="#666666" points="229.25,-162 112.75,-162 112.75,-142 229.25,-142 229.25,-162"/>
<text text-anchor="middle" x="171" y="-148.5" font-family="Helvetica,sans-Serif" font-size="10.00">Dev_LED_Task_100ms</text>
</a>
</g>
</g>
<!-- Node1&#45;&gt;Node8 -->
<g id="edge7_Node000001_Node000008" class="edge">
<title>Node1&#45;&gt;Node8</title>
<g id="a_edge7_Node000001_Node000008"><a xlink:title=" ">
<path fill="none" stroke="#63b8ff" d="M77.16,-152C84.81,-152 93.07,-152 101.41,-152"/>
<polygon fill="#63b8ff" stroke="#63b8ff" points="101.36,-155.5 111.36,-152 101.36,-148.5 101.36,-155.5"/>
</a>
</g>
</g>
<!-- Node9 -->
<g id="Node000009" class="node">
<title>Node9</title>
<g id="a_Node000009"><a xlink:href="a00515.html#ga5ba282b74826532870235580973f788e" target="_top" xlink:title="Fault evaluation for Temperature.">
<polygon fill="white" stroke="#666666" points="221.75,-115 120.25,-115 120.25,-95 221.75,-95 221.75,-115"/>
<text text-anchor="middle" x="171" y="-101.5" font-family="Helvetica,sans-Serif" font-size="10.00">Fault_Temp_100ms</text>
</a>
</g>
</g>
<!-- Node1&#45;&gt;Node9 -->
<g id="edge8_Node000001_Node000009" class="edge">
<title>Node1&#45;&gt;Node9</title>
<g id="a_edge8_Node000001_Node000009"><a xlink:title=" ">
<path fill="none" stroke="#63b8ff" d="M68.36,-141.57C86.8,-134.94 110.89,-126.27 130.99,-119.03"/>
<polygon fill="#63b8ff" stroke="#63b8ff" points="131.87,-122.08 140.09,-115.4 129.5,-115.49 131.87,-122.08"/>
</a>
</g>
</g>
<!-- Node3 -->
<g id="Node000003" class="node">
<title>Node3</title>
<g id="a_Node000003"><a xlink:href="a00499.html#ga66c5db181798514534d7f97b622ca35e" target="_top" xlink:title="Calculates the fan speed.">
<polygon fill="white" stroke="#666666" points="382.88,-248 293.38,-248 293.38,-228 382.88,-228 382.88,-248"/>
<text text-anchor="middle" x="338.12" y="-234.5" font-family="Helvetica,sans-Serif" font-size="10.00">Calculate_Speed</text>
</a>
</g>
</g>
<!-- Node2&#45;&gt;Node3 -->
<g id="edge2_Node000002_Node000003" class="edge">
<title>Node2&#45;&gt;Node3</title>
<g id="a_edge2_Node000002_Node000003"><a xlink:title=" ">
<path fill="none" stroke="#63b8ff" d="M211.97,-205.41C234.42,-211.25 262.65,-218.61 286.62,-224.85"/>
<polygon fill="#63b8ff" stroke="#63b8ff" points="285.39,-228.4 295.95,-227.54 287.15,-221.63 285.39,-228.4"/>
</a>
</g>
</g>
<!-- Node5 -->
<g id="Node000005" class="node">
<title>Node5</title>
<g id="a_Node000005"><a xlink:href="a00499.html#ga0d2b426f7411623a821415f02956aac8" target="_top" xlink:title="Override the fan speed with maximum speed.">
<polygon fill="white" stroke="#666666" points="380.25,-210 296,-210 296,-190 380.25,-190 380.25,-210"/>
<text text-anchor="middle" x="338.12" y="-196.5" font-family="Helvetica,sans-Serif" font-size="10.00">Override_Speed</text>
</a>
</g>
</g>
<!-- Node2&#45;&gt;Node5 -->
<g id="edge4_Node000002_Node000005" class="edge">
<title>Node2&#45;&gt;Node5</title>
<g id="a_edge4_Node000002_Node000005"><a xlink:title=" ">
<path fill="none" stroke="#63b8ff" d="M228.36,-196.71C246.62,-197.26 266.79,-197.87 284.75,-198.41"/>
<polygon fill="#63b8ff" stroke="#63b8ff" points="284.51,-201.94 294.61,-198.74 284.72,-194.94 284.51,-201.94"/>
</a>
</g>
</g>
<!-- Node6 -->
<g id="Node000006" class="node">
<title>Node6</title>
<g id="a_Node000006"><a xlink:href="a00499.html#gad7e38e334c2209a2a296bf3f573fed78" target="_top" xlink:title="Update the fan speed.">
<polygon fill="white" stroke="#666666" points="378,-172 298.25,-172 298.25,-152 378,-152 378,-172"/>
<text text-anchor="middle" x="338.12" y="-158.5" font-family="Helvetica,sans-Serif" font-size="10.00">Update_Speed</text>
</a>
</g>
</g>
<!-- Node2&#45;&gt;Node6 -->
<g id="edge5_Node000002_Node000006" class="edge">
<title>Node2&#45;&gt;Node6</title>
<g id="a_edge5_Node000002_Node000006"><a xlink:title=" ">
<path fill="none" stroke="#63b8ff" d="M224.25,-184.56C244.34,-180.54 267.21,-175.97 287.08,-172"/>
<polygon fill="#63b8ff" stroke="#63b8ff" points="287.66,-175.25 296.78,-169.86 286.29,-168.39 287.66,-175.25"/>
</a>
</g>
</g>
<!-- Node4 -->
<g id="Node000004" class="node">
<title>Node4</title>
<g id="a_Node000004"><a xlink:href="a00499.html#ga3ba0ef09cbd1274a9c325fc04cab411d" target="_top" xlink:title="Converts the percentage value to number of ticks.">
<polygon fill="white" stroke="#666666" points="584.88,-248 454.12,-248 454.12,-228 584.88,-228 584.88,-248"/>
<text text-anchor="middle" x="519.5" y="-234.5" font-family="Helvetica,sans-Serif" font-size="10.00">Convert_From_Percentage</text>
</a>
</g>
</g>
<!-- Node3&#45;&gt;Node4 -->
<g id="edge3_Node000003_Node000004" class="edge">
<title>Node3&#45;&gt;Node4</title>
<g id="a_edge3_Node000003_Node000004"><a xlink:title=" ">
<path fill="none" stroke="#63b8ff" d="M383.01,-238C401.03,-238 422.42,-238 442.83,-238"/>
<polygon fill="#63b8ff" stroke="#63b8ff" points="442.71,-241.5 452.71,-238 442.71,-234.5 442.71,-241.5"/>
</a>
</g>
</g>
<!-- Node7 -->
<g id="Node000007" class="node">
<title>Node7</title>
<g id="a_Node000007"><a xlink:href="a00299.html#a1adc887cf6c46c0eed096f1e8d203cae" target="_top" xlink:title=" ">
<polygon fill="white" stroke="#666666" points="569.5,-172 469.5,-172 469.5,-152 569.5,-152 569.5,-172"/>
<text text-anchor="middle" x="519.5" y="-158.5" font-family="Helvetica,sans-Serif" font-size="10.00">Convert_From_Raw</text>
</a>
</g>
</g>
<!-- Node6&#45;&gt;Node7 -->
<g id="edge6_Node000006_Node000007" class="edge">
<title>Node6&#45;&gt;Node7</title>
<g id="a_edge6_Node000006_Node000007"><a xlink:title=" ">
<path fill="none" stroke="#63b8ff" d="M378.49,-162C401.97,-162 432.24,-162 458.63,-162"/>
<polygon fill="#63b8ff" stroke="#63b8ff" points="458.29,-165.5 468.29,-162 458.29,-158.5 458.29,-165.5"/>
</a>
</g>
</g>
<!-- Node10 -->
<g id="Node000010" class="node">
<title>Node10</title>
<g id="a_Node000010"><a xlink:href="a00501.html#ga6ce3446cb43022df6a5a96c90ec70a17" target="_top" xlink:title="Gets the temperature ADC sample.">
<polygon fill="white" stroke="#666666" points="411,-134 265.25,-134 265.25,-114 411,-114 411,-134"/>
<text text-anchor="middle" x="338.12" y="-120.5" font-family="Helvetica,sans-Serif" font-size="10.00">Dev_Temp_Get_ADC_Sample</text>
</a>
</g>
</g>
<!-- Node9&#45;&gt;Node10 -->
<g id="edge9_Node000009_Node000010" class="edge">
<title>Node9&#45;&gt;Node10</title>
<g id="a_edge9_Node000009_Node000010"><a xlink:title=" ">
<path fill="none" stroke="#63b8ff" d="M221.99,-110.75C232.1,-111.92 242.99,-113.17 253.89,-114.42"/>
<polygon fill="#63b8ff" stroke="#63b8ff" points="253.43,-118.01 263.76,-115.67 254.23,-111.05 253.43,-118.01"/>
</a>
</g>
</g>
<!-- Node12 -->
<g id="Node000012" class="node">
<title>Node12</title>
<g id="a_Node000012"><a xlink:href="a00516.html#gabe4788eb1b8be3ad755eb7daf6bba295" target="_top" xlink:title="This function compares the fault source value with the threshold limits and sets (or) resets the faul...">
<polygon fill="white" stroke="#666666" points="385.5,-96 290.75,-96 290.75,-76 385.5,-76 385.5,-96"/>
<text text-anchor="middle" x="338.12" y="-82.5" font-family="Helvetica,sans-Serif" font-size="10.00">FAULT_CheckMin</text>
</a>
</g>
</g>
<!-- Node9&#45;&gt;Node12 -->
<g id="edge11_Node000009_Node000012" class="edge">
<title>Node9&#45;&gt;Node12</title>
<g id="a_edge11_Node000009_Node000012"><a xlink:title=" ">
<path fill="none" stroke="#63b8ff" d="M221.99,-99.25C240.16,-97.16 260.84,-94.78 279.61,-92.62"/>
<polygon fill="#63b8ff" stroke="#63b8ff" points="279.87,-96 289.41,-91.38 279.07,-89.04 279.87,-96"/>
</a>
</g>
</g>
<!-- Node13 -->
<g id="Node000013" class="node">
<title>Node13</title>
<g id="a_Node000013"><a xlink:href="a00515.html#gaf27f2f24932cec222273df148f8765cb" target="_top" xlink:title="Handles the fault trip by turning off the power control switching.">
<polygon fill="white" stroke="#666666" points="376.12,-58 300.12,-58 300.12,-38 376.12,-38 376.12,-58"/>
<text text-anchor="middle" x="338.12" y="-44.5" font-family="Helvetica,sans-Serif" font-size="10.00">Fault_Handler</text>
</a>
</g>
</g>
<!-- Node9&#45;&gt;Node13 -->
<g id="edge12_Node000009_Node000013" class="edge">
<title>Node9&#45;&gt;Node13</title>
<g id="a_edge12_Node000009_Node000013"><a xlink:title=" ">
<path fill="none" stroke="#63b8ff" d="M195.06,-94.63C213.75,-86.47 240.88,-75.15 265.25,-67 273,-64.41 281.3,-61.94 289.42,-59.69"/>
<polygon fill="#63b8ff" stroke="#63b8ff" points="290.17,-62.84 298.92,-56.86 288.36,-56.08 290.17,-62.84"/>
</a>
</g>
</g>
<!-- Node11 -->
<g id="Node000011" class="node">
<title>Node11</title>
<g id="a_Node000011"><a xlink:href="a00511.html#gac82d4ab7cf3f3ca8180033a4d17d789f" target="_top" xlink:title="API function to get the raw ADC value for temperature.">
<polygon fill="white" stroke="#666666" points="592,-134 447,-134 447,-114 592,-114 592,-134"/>
<text text-anchor="middle" x="519.5" y="-120.5" font-family="Helvetica,sans-Serif" font-size="10.00">PwrCtrl_GetAdc_Temperature</text>
</a>
</g>
</g>
<!-- Node10&#45;&gt;Node11 -->
<g id="edge10_Node000010_Node000011" class="edge">
<title>Node10&#45;&gt;Node11</title>
<g id="a_edge10_Node000010_Node000011"><a xlink:title=" ">
<path fill="none" stroke="#63b8ff" d="M411.31,-124C419.43,-124 427.75,-124 435.99,-124"/>
<polygon fill="#63b8ff" stroke="#63b8ff" points="435.76,-127.5 445.76,-124 435.76,-120.5 435.76,-127.5"/>
</a>
</g>
</g>
<!-- Node14 -->
<g id="Node000014" class="node">
<title>Node14</title>
<g id="a_Node000014"><a xlink:href="a00508.html#ga79ec0c0e524a03b3a3d423308b89bb99" target="_top" xlink:title="Disable the PWM output.">
<polygon fill="white" stroke="#666666" points="577,-58 462,-58 462,-38 577,-38 577,-58"/>
<text text-anchor="middle" x="519.5" y="-44.5" font-family="Helvetica,sans-Serif" font-size="10.00">PwrCtrl_PWM_Disable</text>
</a>
</g>
</g>
<!-- Node13&#45;&gt;Node14 -->
<g id="edge13_Node000013_Node000014" class="edge">
<title>Node13&#45;&gt;Node14</title>
<g id="a_edge13_Node000013_Node000014"><a xlink:title=" ">
<path fill="none" stroke="#63b8ff" d="M376.29,-48C397.75,-48 425.39,-48 450.59,-48"/>
<polygon fill="#63b8ff" stroke="#63b8ff" points="450.59,-51.5 460.59,-48 450.59,-44.5 450.59,-51.5"/>
</a>
</g>
</g>
<!-- Node15 -->
<g id="Node000015" class="node">
<title>Node15</title>
<g id="a_Node000015"><a xlink:href="a00526.html#ga531b59d8823e3ebda2da60f48582bcf3" target="_top" xlink:title="This inline function enables PWM override on PWMH output for specific PWM generator selected by the a...">
<polygon fill="white" stroke="#666666" points="768.5,-96 637.75,-96 637.75,-76 768.5,-76 768.5,-96"/>
<text text-anchor="middle" x="703.12" y="-82.5" font-family="Helvetica,sans-Serif" font-size="10.00">PWM_OverrideHighEnable</text>
</a>
</g>
</g>
<!-- Node14&#45;&gt;Node15 -->
<g id="edge14_Node000014_Node000015" class="edge">
<title>Node14&#45;&gt;Node15</title>
<g id="a_edge14_Node000014_Node000015"><a xlink:title=" ">
<path fill="none" stroke="#63b8ff" d="M570.61,-58.48C592.55,-63.07 618.48,-68.5 641.49,-73.31"/>
<polygon fill="#63b8ff" stroke="#63b8ff" points="640.67,-76.93 651.18,-75.55 642.11,-70.08 640.67,-76.93"/>
</a>
</g>
</g>
<!-- Node16 -->
<g id="Node000016" class="node">
<title>Node16</title>
<g id="a_Node000016"><a xlink:href="a00526.html#ga2548ca8feda75ba6ab784280679da6ae" target="_top" xlink:title="This inline function enables PWM override on PWML output for specific PWM generator selected by the a...">
<polygon fill="white" stroke="#666666" points="767.38,-58 638.88,-58 638.88,-38 767.38,-38 767.38,-58"/>
<text text-anchor="middle" x="703.12" y="-44.5" font-family="Helvetica,sans-Serif" font-size="10.00">PWM_OverrideLowEnable</text>
</a>
</g>
</g>
<!-- Node14&#45;&gt;Node16 -->
<g id="edge15_Node000014_Node000016" class="edge">
<title>Node14&#45;&gt;Node16</title>
<g id="a_edge15_Node000014_Node000016"><a xlink:title=" ">
<path fill="none" stroke="#63b8ff" d="M577.47,-48C593.34,-48 610.82,-48 627.55,-48"/>
<polygon fill="#63b8ff" stroke="#63b8ff" points="627.4,-51.5 637.4,-48 627.4,-44.5 627.4,-51.5"/>
</a>
</g>
</g>
<!-- Node17 -->
<g id="Node000017" class="node">
<title>Node17</title>
<g id="a_Node000017"><a xlink:href="a00526.html#ga83e780358618114f0d424ca7467cf751" target="_top" xlink:title="This inline function requests to update the data registers for specific PWM generator selected by the...">
<polygon fill="white" stroke="#666666" points="778.25,-20 628,-20 628,0 778.25,0 778.25,-20"/>
<text text-anchor="middle" x="703.12" y="-6.5" font-family="Helvetica,sans-Serif" font-size="10.00">PWM_SoftwareUpdateRequest</text>
</a>
</g>
</g>
<!-- Node14&#45;&gt;Node17 -->
<g id="edge16_Node000014_Node000017" class="edge">
<title>Node14&#45;&gt;Node17</title>
<g id="a_edge16_Node000014_Node000017"><a xlink:title=" ">
<path fill="none" stroke="#63b8ff" d="M570.61,-37.52C592.55,-32.93 618.48,-27.5 641.49,-22.69"/>
<polygon fill="#63b8ff" stroke="#63b8ff" points="642.11,-25.92 651.18,-20.45 640.67,-19.07 642.11,-25.92"/>
</a>
</g>
</g>
</g>
</svg>
