<?xml version="1.0" encoding="UTF-8" standalone="no"?>
<!DOCTYPE svg PUBLIC "-//W3C//DTD SVG 1.1//EN"
 "http://www.w3.org/Graphics/SVG/1.1/DTD/svg11.dtd">
<!-- Generated by graphviz version 8.1.0 (20230707.0739)
 -->
<!-- Title: Dev_PwrCtrl_StateMachine Pages: 1 -->
<svg width="683pt" height="204pt"
 viewBox="0.00 0.00 682.50 204.00" xmlns="http://www.w3.org/2000/svg" xmlns:xlink="http://www.w3.org/1999/xlink">
<g id="graph0" class="graph" transform="scale(1 1) rotate(0) translate(4 200)">
<title>Dev_PwrCtrl_StateMachine</title>
<!-- Node1 -->
<g id="Node000001" class="node">
<title>Node1</title>
<g id="a_Node000001"><a xlink:title="Manages the power control state machine.">
<polygon fill="#999999" stroke="#666666" points="133.75,-108 0,-108 0,-88 133.75,-88 133.75,-108"/>
<text text-anchor="middle" x="66.88" y="-94.5" font-family="Helvetica,sans-Serif" font-size="10.00">Dev_PwrCtrl_StateMachine</text>
</a>
</g>
</g>
<!-- Node2 -->
<g id="Node000002" class="node">
<title>Node2</title>
<g id="a_Node000002"><a xlink:href="a00518.html#ga8307344d190a5459682d315fc7bfe198" target="_top" xlink:title="Executes function for initialze state machine.">
<polygon fill="white" stroke="#666666" points="287,-196 192.25,-196 192.25,-176 287,-176 287,-196"/>
<text text-anchor="middle" x="239.62" y="-182.5" font-family="Helvetica,sans-Serif" font-size="10.00">PCS_INIT_handler</text>
</a>
</g>
</g>
<!-- Node1&#45;&gt;Node2 -->
<g id="edge1_Node000001_Node000002" class="edge">
<title>Node1&#45;&gt;Node2</title>
<g id="a_edge1_Node000001_Node000002"><a xlink:title=" ">
<path fill="none" stroke="#63b8ff" d="M80.25,-108.37C98.65,-123.32 134.84,-150.89 169.75,-167 173.8,-168.87 178.08,-170.59 182.44,-172.17"/>
<polygon fill="#63b8ff" stroke="#63b8ff" points="181.08,-175.74 191.68,-175.58 183.3,-169.1 181.08,-175.74"/>
</a>
</g>
</g>
<!-- Node7 -->
<g id="Node000007" class="node">
<title>Node7</title>
<g id="a_Node000007"><a xlink:href="a00518.html#gabda6b853bb6547821acd0ec87e0a4842" target="_top" xlink:title="Executes the power control soft start state machine.">
<polygon fill="white" stroke="#666666" points="309.5,-108 169.75,-108 169.75,-88 309.5,-88 309.5,-108"/>
<text text-anchor="middle" x="239.62" y="-94.5" font-family="Helvetica,sans-Serif" font-size="10.00">PCS_SOFT_START_handler</text>
</a>
</g>
</g>
<!-- Node1&#45;&gt;Node7 -->
<g id="edge6_Node000001_Node000007" class="edge">
<title>Node1&#45;&gt;Node7</title>
<g id="a_edge6_Node000001_Node000007"><a xlink:title=" ">
<path fill="none" stroke="#63b8ff" d="M133.89,-98C141.98,-98 150.32,-98 158.59,-98"/>
<polygon fill="#63b8ff" stroke="#63b8ff" points="158.39,-101.5 168.39,-98 158.39,-94.5 158.39,-101.5"/>
</a>
</g>
</g>
<!-- Node9 -->
<g id="Node000009" class="node">
<title>Node9</title>
<g id="a_Node000009"><a xlink:href="a00518.html#ga42f7c8f65745b2f81bb6dbd381ea8121" target="_top" xlink:title="Executes Standby State machine.">
<polygon fill="white" stroke="#666666" points="301.62,-70 177.62,-70 177.62,-50 301.62,-50 301.62,-70"/>
<text text-anchor="middle" x="239.62" y="-56.5" font-family="Helvetica,sans-Serif" font-size="10.00">PCS_STANDBY_handler</text>
</a>
</g>
</g>
<!-- Node1&#45;&gt;Node9 -->
<g id="edge9_Node000001_Node000009" class="edge">
<title>Node1&#45;&gt;Node9</title>
<g id="a_edge9_Node000001_Node000009"><a xlink:title=" ">
<path fill="none" stroke="#63b8ff" d="M114.99,-87.52C135.42,-82.97 159.54,-77.6 181.03,-72.82"/>
<polygon fill="#63b8ff" stroke="#63b8ff" points="181.67,-76.04 190.67,-70.45 180.15,-69.21 181.67,-76.04"/>
</a>
</g>
</g>
<!-- Node13 -->
<g id="Node000013" class="node">
<title>Node13</title>
<g id="a_Node000013"><a xlink:href="a00518.html#ga8752fbb48416e60141e205f1cbda0f98" target="_top" xlink:title="Executes the Online state.">
<polygon fill="white" stroke="#666666" points="304.25,-158 175,-158 175,-126 304.25,-126 304.25,-158"/>
<text text-anchor="start" x="183" y="-144.5" font-family="Helvetica,sans-Serif" font-size="10.00">PCS_UP_AND_RUNNING</text>
<text text-anchor="middle" x="239.62" y="-132.5" font-family="Helvetica,sans-Serif" font-size="10.00">_handler</text>
</a>
</g>
</g>
<!-- Node1&#45;&gt;Node13 -->
<g id="edge14_Node000001_Node000013" class="edge">
<title>Node1&#45;&gt;Node13</title>
<g id="a_edge14_Node000001_Node000013"><a xlink:title=" ">
<path fill="none" stroke="#63b8ff" d="M108.34,-108.43C125.07,-112.74 145.01,-117.88 164.2,-122.82"/>
<polygon fill="#63b8ff" stroke="#63b8ff" points="163.2,-126.44 173.75,-125.54 164.94,-119.66 163.2,-126.44"/>
</a>
</g>
</g>
<!-- Node14 -->
<g id="Node000014" class="node">
<title>Node14</title>
<g id="a_Node000014"><a xlink:href="a00518.html#gaad6ef2378120876a621b349c1380aef7" target="_top" xlink:title="Executes the fault handler state machine.">
<polygon fill="white" stroke="#666666" points="296.75,-32 182.5,-32 182.5,0 296.75,0 296.75,-32"/>
<text text-anchor="start" x="190.5" y="-18.5" font-family="Helvetica,sans-Serif" font-size="10.00">PCS_WAIT_IF_FAULT</text>
<text text-anchor="middle" x="239.62" y="-6.5" font-family="Helvetica,sans-Serif" font-size="10.00">_ACTIVE_handler</text>
</a>
</g>
</g>
<!-- Node1&#45;&gt;Node14 -->
<g id="edge16_Node000001_Node000014" class="edge">
<title>Node1&#45;&gt;Node14</title>
<g id="a_edge16_Node000001_Node000014"><a xlink:title=" ">
<path fill="none" stroke="#63b8ff" d="M84.38,-87.66C104.18,-75.53 138.6,-55.25 169.75,-41 173.15,-39.44 176.68,-37.92 180.26,-36.43"/>
<polygon fill="#63b8ff" stroke="#63b8ff" points="181.44,-39.33 189.43,-32.36 178.84,-32.83 181.44,-39.33"/>
</a>
</g>
</g>
<!-- Node3 -->
<g id="Node000003" class="node">
<title>Node3</title>
<g id="a_Node000003"><a xlink:href="a00518.html#ga1da8b184470e7693ac0467bf255272c4" target="_top" xlink:title="Disable the PWM output.">
<polygon fill="white" stroke="#666666" points="484.88,-149 348.88,-149 348.88,-129 484.88,-129 484.88,-149"/>
<text text-anchor="middle" x="416.88" y="-135.5" font-family="Helvetica,sans-Serif" font-size="10.00">Dev_PwrCtrl_PWM_Disable</text>
</a>
</g>
</g>
<!-- Node2&#45;&gt;Node3 -->
<g id="edge2_Node000002_Node000003" class="edge">
<title>Node2&#45;&gt;Node3</title>
<g id="a_edge2_Node000002_Node000003"><a xlink:title=" ">
<path fill="none" stroke="#63b8ff" d="M279.52,-175.57C305.07,-168.72 338.72,-159.69 366.2,-152.32"/>
<polygon fill="#63b8ff" stroke="#63b8ff" points="367.04,-155.45 375.79,-149.48 365.22,-148.69 367.04,-155.45"/>
</a>
</g>
</g>
<!-- Node4 -->
<g id="Node000004" class="node">
<title>Node4</title>
<g id="a_Node000004"><a xlink:href="a00534.html#ga531b59d8823e3ebda2da60f48582bcf3" target="_top" xlink:title="This inline function enables PWM override on PWMH output for specific PWM generator selected by the a...">
<polygon fill="white" stroke="#666666" points="664.75,-187 534,-187 534,-167 664.75,-167 664.75,-187"/>
<text text-anchor="middle" x="599.38" y="-173.5" font-family="Helvetica,sans-Serif" font-size="10.00">PWM_OverrideHighEnable</text>
</a>
</g>
</g>
<!-- Node3&#45;&gt;Node4 -->
<g id="edge3_Node000003_Node000004" class="edge">
<title>Node3&#45;&gt;Node4</title>
<g id="a_edge3_Node000003_Node000004"><a xlink:title=" ">
<path fill="none" stroke="#63b8ff" d="M467.68,-149.48C489.48,-154.07 515.25,-159.5 538.12,-164.31"/>
<polygon fill="#63b8ff" stroke="#63b8ff" points="537.23,-167.91 547.74,-166.55 538.67,-161.06 537.23,-167.91"/>
</a>
</g>
</g>
<!-- Node5 -->
<g id="Node000005" class="node">
<title>Node5</title>
<g id="a_Node000005"><a xlink:href="a00534.html#ga2548ca8feda75ba6ab784280679da6ae" target="_top" xlink:title="This inline function enables PWM override on PWML output for specific PWM generator selected by the a...">
<polygon fill="white" stroke="#666666" points="663.62,-149 535.12,-149 535.12,-129 663.62,-129 663.62,-149"/>
<text text-anchor="middle" x="599.38" y="-135.5" font-family="Helvetica,sans-Serif" font-size="10.00">PWM_OverrideLowEnable</text>
</a>
</g>
</g>
<!-- Node3&#45;&gt;Node5 -->
<g id="edge4_Node000003_Node000005" class="edge">
<title>Node3&#45;&gt;Node5</title>
<g id="a_edge4_Node000003_Node000005"><a xlink:title=" ">
<path fill="none" stroke="#63b8ff" d="M485.34,-139C498.02,-139 511.33,-139 524.2,-139"/>
<polygon fill="#63b8ff" stroke="#63b8ff" points="523.87,-142.5 533.87,-139 523.87,-135.5 523.87,-142.5"/>
</a>
</g>
</g>
<!-- Node6 -->
<g id="Node000006" class="node">
<title>Node6</title>
<g id="a_Node000006"><a xlink:href="a00534.html#ga83e780358618114f0d424ca7467cf751" target="_top" xlink:title="This inline function requests to update the data registers for specific PWM generator selected by the...">
<polygon fill="white" stroke="#666666" points="674.5,-110 524.25,-110 524.25,-90 674.5,-90 674.5,-110"/>
<text text-anchor="middle" x="599.38" y="-96.5" font-family="Helvetica,sans-Serif" font-size="10.00">PWM_SoftwareUpdateRequest</text>
</a>
</g>
</g>
<!-- Node3&#45;&gt;Node6 -->
<g id="edge5_Node000003_Node000006" class="edge">
<title>Node3&#45;&gt;Node6</title>
<g id="a_edge5_Node000003_Node000006"><a xlink:title=" ">
<path fill="none" stroke="#63b8ff" d="M466.25,-128.55C488.7,-123.7 515.61,-117.88 539.26,-112.77"/>
<polygon fill="#63b8ff" stroke="#63b8ff" points="539.84,-116.01 548.87,-110.48 538.36,-109.17 539.84,-116.01"/>
</a>
</g>
</g>
<!-- Node7&#45;&gt;Node3 -->
<g id="edge7_Node000007_Node000003" class="edge">
<title>Node7&#45;&gt;Node3</title>
<g id="a_edge7_Node000007_Node000003"><a xlink:title=" ">
<path fill="none" stroke="#63b8ff" d="M285.3,-108.45C308.27,-113.83 336.47,-120.42 360.77,-126.11"/>
<polygon fill="#63b8ff" stroke="#63b8ff" points="359.75,-129.7 370.28,-128.57 361.34,-122.88 359.75,-129.7"/>
</a>
</g>
</g>
<!-- Node8 -->
<g id="Node000008" class="node">
<title>Node8</title>
<g id="a_Node000008"><a xlink:href="a00518.html#gae958b8e13bf04622c6c67ea391639f41" target="_top" xlink:title="Softly increment / decrement to the set reference target.">
<polygon fill="white" stroke="#666666" points="488.25,-108 345.5,-108 345.5,-88 488.25,-88 488.25,-108"/>
<text text-anchor="middle" x="416.88" y="-94.5" font-family="Helvetica,sans-Serif" font-size="10.00">Dev_PwrCtrl_RampReference</text>
</a>
</g>
</g>
<!-- Node7&#45;&gt;Node8 -->
<g id="edge8_Node000007_Node000008" class="edge">
<title>Node7&#45;&gt;Node8</title>
<g id="a_edge8_Node000007_Node000008"><a xlink:title=" ">
<path fill="none" stroke="#63b8ff" d="M309.89,-98C317.85,-98 326.02,-98 334.12,-98"/>
<polygon fill="#63b8ff" stroke="#63b8ff" points="334.1,-101.5 344.1,-98 334.1,-94.5 334.1,-101.5"/>
</a>
</g>
</g>
<!-- Node10 -->
<g id="Node000010" class="node">
<title>Node10</title>
<g id="a_Node000010"><a xlink:href="a00518.html#ga785129640802350613ea99da4e099ce4" target="_top" xlink:title="Enable the PWM output.">
<polygon fill="white" stroke="#666666" points="483.75,-70 350,-70 350,-50 483.75,-50 483.75,-70"/>
<text text-anchor="middle" x="416.88" y="-56.5" font-family="Helvetica,sans-Serif" font-size="10.00">Dev_PwrCtrl_PWM_Enable</text>
</a>
</g>
</g>
<!-- Node9&#45;&gt;Node10 -->
<g id="edge10_Node000009_Node000010" class="edge">
<title>Node9&#45;&gt;Node10</title>
<g id="a_edge10_Node000009_Node000010"><a xlink:title=" ">
<path fill="none" stroke="#63b8ff" d="M301.92,-60C313.83,-60 326.45,-60 338.79,-60"/>
<polygon fill="#63b8ff" stroke="#63b8ff" points="338.54,-63.5 348.54,-60 338.54,-56.5 338.54,-63.5"/>
</a>
</g>
</g>
<!-- Node10&#45;&gt;Node6 -->
<g id="edge13_Node000010_Node000006" class="edge">
<title>Node10&#45;&gt;Node6</title>
<g id="a_edge13_Node000010_Node000006"><a xlink:title=" ">
<path fill="none" stroke="#63b8ff" d="M464.83,-70.41C487.94,-75.53 516.02,-81.75 540.45,-87.16"/>
<polygon fill="#63b8ff" stroke="#63b8ff" points="539.51,-90.76 550.03,-89.51 541.02,-83.93 539.51,-90.76"/>
</a>
</g>
</g>
<!-- Node11 -->
<g id="Node000011" class="node">
<title>Node11</title>
<g id="a_Node000011"><a xlink:href="a00534.html#ga957b002605bfb2239a26f174808b2ad8" target="_top" xlink:title="This inline function disables PWM override on PWMH output for specific PWM generator selected by the ...">
<polygon fill="white" stroke="#666666" points="665.88,-71 532.88,-71 532.88,-51 665.88,-51 665.88,-71"/>
<text text-anchor="middle" x="599.38" y="-57.5" font-family="Helvetica,sans-Serif" font-size="10.00">PWM_OverrideHighDisable</text>
</a>
</g>
</g>
<!-- Node10&#45;&gt;Node11 -->
<g id="edge11_Node000010_Node000011" class="edge">
<title>Node10&#45;&gt;Node11</title>
<g id="a_edge11_Node000010_Node000011"><a xlink:title=" ">
<path fill="none" stroke="#63b8ff" d="M484.06,-60.37C496.28,-60.43 509.13,-60.51 521.63,-60.57"/>
<polygon fill="#63b8ff" stroke="#63b8ff" points="521.48,-64.08 531.5,-60.64 521.52,-57.08 521.48,-64.08"/>
</a>
</g>
</g>
<!-- Node12 -->
<g id="Node000012" class="node">
<title>Node12</title>
<g id="a_Node000012"><a xlink:href="a00534.html#gabbedef830c43428e96c7d5125662a8a6" target="_top" xlink:title="This inline function disables PWM override on PWML output for specific PWM generator selected by the ...">
<polygon fill="white" stroke="#666666" points="664.75,-33 534,-33 534,-13 664.75,-13 664.75,-33"/>
<text text-anchor="middle" x="599.38" y="-19.5" font-family="Helvetica,sans-Serif" font-size="10.00">PWM_OverrideLowDisable</text>
</a>
</g>
</g>
<!-- Node10&#45;&gt;Node12 -->
<g id="edge12_Node000010_Node000012" class="edge">
<title>Node10&#45;&gt;Node12</title>
<g id="a_edge12_Node000010_Node000012"><a xlink:title=" ">
<path fill="none" stroke="#63b8ff" d="M468.63,-49.59C489.78,-45.26 514.53,-40.19 536.72,-35.64"/>
<polygon fill="#63b8ff" stroke="#63b8ff" points="537.28,-38.89 546.37,-33.46 535.87,-32.03 537.28,-38.89"/>
</a>
</g>
</g>
<!-- Node13&#45;&gt;Node3 -->
<g id="edge15_Node000013_Node000003" class="edge">
<title>Node13&#45;&gt;Node3</title>
<g id="a_edge15_Node000013_Node000003"><a xlink:title=" ">
<path fill="none" stroke="#63b8ff" d="M304.39,-140.91C315.29,-140.72 326.73,-140.53 337.95,-140.33"/>
<polygon fill="#63b8ff" stroke="#63b8ff" points="337.68,-143.82 347.62,-140.15 337.56,-136.82 337.68,-143.82"/>
</a>
</g>
</g>
</g>
</svg>
