<?xml version="1.0" encoding="UTF-8" standalone="no"?>
<!DOCTYPE svg PUBLIC "-//W3C//DTD SVG 1.1//EN"
 "http://www.w3.org/Graphics/SVG/1.1/DTD/svg11.dtd">
<!-- Generated by graphviz version 8.1.0 (20230707.0739)
 -->
<!-- Title: PBV_Calculate_CRC Pages: 1 -->
<svg width="507pt" height="142pt"
 viewBox="0.00 0.00 506.75 142.00" xmlns="http://www.w3.org/2000/svg" xmlns:xlink="http://www.w3.org/1999/xlink">
<g id="graph0" class="graph" transform="scale(1 1) rotate(0) translate(4 138)">
<title>PBV_Calculate_CRC</title>
<!-- Node1 -->
<g id="Node000001" class="node">
<title>Node1</title>
<g id="a_Node000001"><a xlink:title="Calculates the CRC on 16 bit stream of data.">
<polygon fill="#999999" stroke="#666666" points="107.5,-77 0,-77 0,-57 107.5,-57 107.5,-77"/>
<text text-anchor="middle" x="53.75" y="-63.5" font-family="Helvetica,sans-Serif" font-size="10.00">PBV_Calculate_CRC</text>
</a>
</g>
</g>
<!-- Node2 -->
<g id="Node000002" class="node">
<title>Node2</title>
<g id="a_Node000002"><a xlink:href="a00557.html#ga9deaccba0d18fa00991e60c07770f9d5" target="_top" xlink:title="CRC module calculation on a buffer in data space.">
<polygon fill="white" stroke="#666666" points="291.12,-134 163.38,-134 163.38,-114 291.12,-114 291.12,-134"/>
<text text-anchor="middle" x="227.25" y="-120.5" font-family="Helvetica,sans-Serif" font-size="10.00">CRC_CalculateBufferStart</text>
</a>
</g>
</g>
<!-- Node1&#45;&gt;Node2 -->
<g id="edge1_Node000001_Node000002" class="edge">
<title>Node1&#45;&gt;Node2</title>
<g id="a_edge1_Node000001_Node000002"><a xlink:title=" ">
<path fill="none" stroke="#63b8ff" d="M76.22,-77.48C93.94,-85.81 119.92,-97.31 143.5,-105 150.09,-107.15 157.05,-109.15 164.03,-110.98"/>
<polygon fill="#63b8ff" stroke="#63b8ff" points="162.66,-114.5 173.21,-113.55 164.37,-107.71 162.66,-114.5"/>
</a>
</g>
</g>
<!-- Node3 -->
<g id="Node000003" class="node">
<title>Node3</title>
<g id="a_Node000003"><a xlink:href="a00557.html#gaf55c3e382b50ab182645f68e85873e0a" target="_top" xlink:title="Returns the CRC calculation complete status">
<polygon fill="white" stroke="#666666" points="287,-96 167.5,-96 167.5,-76 287,-76 287,-96"/>
<text text-anchor="middle" x="227.25" y="-82.5" font-family="Helvetica,sans-Serif" font-size="10.00">CRC_CalculationIsDone</text>
</a>
</g>
</g>
<!-- Node1&#45;&gt;Node3 -->
<g id="edge2_Node000001_Node000003" class="edge">
<title>Node1&#45;&gt;Node3</title>
<g id="a_edge2_Node000001_Node000003"><a xlink:title=" ">
<path fill="none" stroke="#63b8ff" d="M107.61,-72.86C123.11,-74.57 140.3,-76.48 156.67,-78.29"/>
<polygon fill="#63b8ff" stroke="#63b8ff" points="155.96,-81.85 166.29,-79.47 156.74,-74.89 155.96,-81.85"/>
</a>
</g>
</g>
<!-- Node4 -->
<g id="Node000004" class="node">
<title>Node4</title>
<g id="a_Node000004"><a xlink:href="a00557.html#gae32b26f5e43c6cb51a808454b8645c3a" target="_top" xlink:title="Gets the CRC reversed value of result if the calculation is done.">
<polygon fill="white" stroke="#666666" points="311,-58 143.5,-58 143.5,-38 311,-38 311,-58"/>
<text text-anchor="middle" x="227.25" y="-44.5" font-family="Helvetica,sans-Serif" font-size="10.00">CRC_CalculationResultReverseGet</text>
</a>
</g>
</g>
<!-- Node1&#45;&gt;Node4 -->
<g id="edge3_Node000001_Node000004" class="edge">
<title>Node1&#45;&gt;Node4</title>
<g id="a_edge3_Node000001_Node000004"><a xlink:title=" ">
<path fill="none" stroke="#63b8ff" d="M107.61,-61.14C115.56,-60.26 123.97,-59.33 132.48,-58.39"/>
<polygon fill="#63b8ff" stroke="#63b8ff" points="132.73,-61.77 142.29,-57.19 131.96,-54.81 132.73,-61.77"/>
</a>
</g>
</g>
<!-- Node6 -->
<g id="Node000006" class="node">
<title>Node6</title>
<g id="a_Node000006"><a xlink:href="a00557.html#gac36ee878e4256e6b5c82e180f5196b40" target="_top" xlink:title="This function cycles through the CRC calculations. &#160;&#160;This function will load the CRC module FIFO with...">
<polygon fill="white" stroke="#666666" points="261.12,-20 193.38,-20 193.38,0 261.12,0 261.12,-20"/>
<text text-anchor="middle" x="227.25" y="-6.5" font-family="Helvetica,sans-Serif" font-size="10.00">CRC_Tasks</text>
</a>
</g>
</g>
<!-- Node1&#45;&gt;Node6 -->
<g id="edge5_Node000001_Node000006" class="edge">
<title>Node1&#45;&gt;Node6</title>
<g id="a_edge5_Node000001_Node000006"><a xlink:title=" ">
<path fill="none" stroke="#63b8ff" d="M76.22,-56.52C93.94,-48.19 119.92,-36.69 143.5,-29 156.09,-24.9 170.04,-21.33 182.83,-18.43"/>
<polygon fill="#63b8ff" stroke="#63b8ff" points="183.24,-21.71 192.26,-16.16 181.74,-14.87 183.24,-21.71"/>
</a>
</g>
</g>
<!-- Node5 -->
<g id="Node000005" class="node">
<title>Node5</title>
<g id="a_Node000005"><a xlink:href="a00557.html#ga3a06d9e9df1840cb7bda3f8c3b48f14e" target="_top" xlink:title="Gets the CRC raw result if the calculation is done.">
<polygon fill="white" stroke="#666666" points="498.75,-58 347,-58 347,-38 498.75,-38 498.75,-58"/>
<text text-anchor="middle" x="422.88" y="-44.5" font-family="Helvetica,sans-Serif" font-size="10.00">CRC_CalculationResultRawGet</text>
</a>
</g>
</g>
<!-- Node4&#45;&gt;Node5 -->
<g id="edge4_Node000004_Node000005" class="edge">
<title>Node4&#45;&gt;Node5</title>
<g id="a_edge4_Node000004_Node000005"><a xlink:title=" ">
<path fill="none" stroke="#63b8ff" d="M311.49,-48C319.52,-48 327.68,-48 335.74,-48"/>
<polygon fill="#63b8ff" stroke="#63b8ff" points="335.65,-51.5 345.65,-48 335.65,-44.5 335.65,-51.5"/>
</a>
</g>
</g>
</g>
</svg>
