<?xml version="1.0" encoding="UTF-8" standalone="no"?>
<!DOCTYPE svg PUBLIC "-//W3C//DTD SVG 1.1//EN"
 "http://www.w3.org/Graphics/SVG/1.1/DTD/svg11.dtd">
<!-- Generated by graphviz version 8.1.0 (20230707.0739)
 -->
<!-- Title: Temp_Calculate_Average Pages: 1 -->
<svg width="589pt" height="28pt"
 viewBox="0.00 0.00 588.75 28.00" xmlns="http://www.w3.org/2000/svg" xmlns:xlink="http://www.w3.org/1999/xlink">
<g id="graph0" class="graph" transform="scale(1 1) rotate(0) translate(4 24)">
<title>Temp_Calculate_Average</title>
<!-- Node1 -->
<g id="Node000001" class="node">
<title>Node1</title>
<g id="a_Node000001"><a xlink:title="Averages the temperature ADC samples.">
<polygon fill="#999999" stroke="#666666" points="580.75,-20 455.25,-20 455.25,0 580.75,0 580.75,-20"/>
<text text-anchor="middle" x="518" y="-6.5" font-family="Helvetica,sans-Serif" font-size="10.00">Temp_Calculate_Average</text>
</a>
</g>
</g>
<!-- Node2 -->
<g id="Node000002" class="node">
<title>Node2</title>
<g id="a_Node000002"><a xlink:href="a00531.html#gaed1c98bc3ba65035d1ac0bdda433d812" target="_top" xlink:title="Returns the temperature average value.">
<polygon fill="white" stroke="#666666" points="419.25,-20 270.5,-20 270.5,0 419.25,0 419.25,-20"/>
<text text-anchor="middle" x="344.88" y="-6.5" font-family="Helvetica,sans-Serif" font-size="10.00">Average_Temp_ADC_Samples</text>
</a>
</g>
</g>
<!-- Node1&#45;&gt;Node2 -->
<g id="edge1_Node000001_Node000002" class="edge">
<title>Node1&#45;&gt;Node2</title>
<g id="a_edge1_Node000001_Node000002"><a xlink:title=" ">
<path fill="none" stroke="#63b8ff" d="M444.48,-10C436.22,-10 427.79,-10 419.52,-10"/>
<polygon fill="#63b8ff" stroke="#63b8ff" points="444.22,-13.5 454.22,-10 444.22,-6.5 444.22,-13.5"/>
</a>
</g>
</g>
<!-- Node3 -->
<g id="Node000003" class="node">
<title>Node3</title>
<g id="a_Node000003"><a xlink:href="a00531.html#ga642e882a6d78b8915f39b54f7183f71f" target="_top" xlink:title="Executes the Temperature reading every 100ms.">
<polygon fill="white" stroke="#666666" points="234.5,-20 112.75,-20 112.75,0 234.5,0 234.5,-20"/>
<text text-anchor="middle" x="173.62" y="-6.5" font-family="Helvetica,sans-Serif" font-size="10.00">Dev_Temp_Task_100ms</text>
</a>
</g>
</g>
<!-- Node2&#45;&gt;Node3 -->
<g id="edge2_Node000002_Node000003" class="edge">
<title>Node2&#45;&gt;Node3</title>
<g id="a_edge2_Node000002_Node000003"><a xlink:title=" ">
<path fill="none" stroke="#63b8ff" d="M259.33,-10C251.09,-10 242.86,-10 234.93,-10"/>
<polygon fill="#63b8ff" stroke="#63b8ff" points="259.13,-13.5 269.13,-10 259.13,-6.5 259.13,-13.5"/>
</a>
</g>
</g>
<!-- Node4 -->
<g id="Node000004" class="node">
<title>Node4</title>
<g id="a_Node000004"><a xlink:href="a00547.html#ga6d5c487ee3f418e6d0432867d11adaed" target="_top" xlink:title="Tasks_100ms gets called every 100 ms, put your things in it that need to be called regularly.">
<polygon fill="white" stroke="#666666" points="76.75,-20 0,-20 0,0 76.75,0 76.75,-20"/>
<text text-anchor="middle" x="38.38" y="-6.5" font-family="Helvetica,sans-Serif" font-size="10.00">Tasks_100ms</text>
</a>
</g>
</g>
<!-- Node3&#45;&gt;Node4 -->
<g id="edge3_Node000003_Node000004" class="edge">
<title>Node3&#45;&gt;Node4</title>
<g id="a_edge3_Node000003_Node000004"><a xlink:title=" ">
<path fill="none" stroke="#63b8ff" d="M101.76,-10C93.19,-10 84.72,-10 76.9,-10"/>
<polygon fill="#63b8ff" stroke="#63b8ff" points="101.63,-13.5 111.63,-10 101.63,-6.5 101.63,-13.5"/>
</a>
</g>
</g>
</g>
</svg>
