<?xml version="1.0" encoding="UTF-8" standalone="no"?>
<!DOCTYPE svg PUBLIC "-//W3C//DTD SVG 1.1//EN"
 "http://www.w3.org/Graphics/SVG/1.1/DTD/svg11.dtd">
<!-- Generated by graphviz version 8.1.0 (20230707.0739)
 -->
<!-- Title: PwrCtrl_PWM_Update Pages: 1 -->
<svg width="318pt" height="218pt"
 viewBox="0.00 0.00 318.25 218.00" xmlns="http://www.w3.org/2000/svg" xmlns:xlink="http://www.w3.org/1999/xlink">

<svg id="main" version="1.1" xmlns="http://www.w3.org/2000/svg" xmlns:xlink="http://www.w3.org/1999/xlink" xml:space="preserve" onload="init(evt)">
<style type="text/css"><![CDATA[
.node, .edge {opacity: 0.7;}
.node.selected, .edge.selected {opacity: 1;}
.edge:hover path { stroke: red; }
.edge:hover polygon { stroke: red; fill: red; }
]]></style>
<script type="application/ecmascript" xlink:href="svg.min.js"/>
<svg id="graph" class="graph">
<g id="graph0" class="graph" transform="scale(1 1) rotate(0) translate(4 214)">
<title>PwrCtrl_PWM_Update</title>
<!-- Node1 -->
<g id="Node000001" class="node">
<title>Node1</title>
<g id="a_Node000001"><a xlink:title="PWM distribution for DAB converter.">
<polygon fill="#999999" stroke="#666666" points="113.5,-115 0,-115 0,-95 113.5,-95 113.5,-115"/>
<text text-anchor="middle" x="56.75" y="-101.5" font-family="Helvetica,sans-Serif" font-size="10.00">PwrCtrl_PWM_Update</text>
</a>
</g>
</g>
<!-- Node2 -->
<g id="Node000002" class="node">
<title>Node2</title>
<g id="a_Node000002"><a xlink:href="a00556.html#gaf368256a569a5a9e12f85f84d7d42287" target="_top" xlink:title="This inline function updates PWM Deadtime high register with the requested value for a specific PWM g...">
<polygon fill="white" stroke="#666666" points="291.88,-210 167.88,-210 167.88,-190 291.88,-190 291.88,-210"/>
<text text-anchor="middle" x="229.88" y="-196.5" font-family="Helvetica,sans-Serif" font-size="10.00">PWM_DeadTimeHighSet</text>
</a>
</g>
</g>
<!-- Node1&#45;&gt;Node2 -->
<g id="edge1_Node000001_Node000002" class="edge">
<title>Node1&#45;&gt;Node2</title>
<g id="a_edge1_Node000001_Node000002"><a xlink:title=" ">
<path fill="none" stroke="#63b8ff" d="M67.11,-115.35C82.6,-131.82 115.27,-163.9 149.5,-181 153.24,-182.87 157.18,-184.56 161.21,-186.09"/>
<polygon fill="#63b8ff" stroke="#63b8ff" points="159.8,-189.65 170.39,-189.57 162.06,-183.02 159.8,-189.65"/>
</a>
</g>
</g>
<!-- Node3 -->
<g id="Node000003" class="node">
<title>Node3</title>
<g id="a_Node000003"><a xlink:href="a00556.html#ga124426b28426beb53948e9b57319ab4b" target="_top" xlink:title="This inline function updates PWM Deadtime low register with the requested value for a specific PWM ge...">
<polygon fill="white" stroke="#666666" points="290.75,-172 169,-172 169,-152 290.75,-152 290.75,-172"/>
<text text-anchor="middle" x="229.88" y="-158.5" font-family="Helvetica,sans-Serif" font-size="10.00">PWM_DeadTimeLowSet</text>
</a>
</g>
</g>
<!-- Node1&#45;&gt;Node3 -->
<g id="edge2_Node000001_Node000003" class="edge">
<title>Node1&#45;&gt;Node3</title>
<g id="a_edge2_Node000001_Node000003"><a xlink:title=" ">
<path fill="none" stroke="#63b8ff" d="M80,-115.38C98.36,-123.65 125.23,-135.12 149.5,-143 155.87,-145.07 162.59,-147.02 169.32,-148.83"/>
<polygon fill="#63b8ff" stroke="#63b8ff" points="168.29,-152.43 178.84,-151.54 170.04,-145.65 168.29,-152.43"/>
</a>
</g>
</g>
<!-- Node4 -->
<g id="Node000004" class="node">
<title>Node4</title>
<g id="a_Node000004"><a xlink:href="a00556.html#ga37968a783e44cd80643478d2b559dbf4" target="_top" xlink:title="This inline function sets the PWM generator specific duty cycle register.">
<polygon fill="white" stroke="#666666" points="282.88,-134 176.88,-134 176.88,-114 282.88,-114 282.88,-134"/>
<text text-anchor="middle" x="229.88" y="-120.5" font-family="Helvetica,sans-Serif" font-size="10.00">PWM_DutyCycleSet</text>
</a>
</g>
</g>
<!-- Node1&#45;&gt;Node4 -->
<g id="edge3_Node000001_Node000004" class="edge">
<title>Node1&#45;&gt;Node4</title>
<g id="a_edge3_Node000001_Node000004"><a xlink:title=" ">
<path fill="none" stroke="#63b8ff" d="M113.78,-111.22C130.49,-113.08 148.91,-115.12 166.03,-117.02"/>
<polygon fill="#63b8ff" stroke="#63b8ff" points="165.16,-120.56 175.49,-118.18 165.94,-113.6 165.16,-120.56"/>
</a>
</g>
</g>
<!-- Node5 -->
<g id="Node000005" class="node">
<title>Node5</title>
<g id="a_Node000005"><a xlink:href="a00556.html#gada46160823b0892a1af14a17c5ab516e" target="_top" xlink:title="This inline function sets the period value in count for the PWM generator specific Time Base.">
<polygon fill="white" stroke="#666666" points="274.25,-96 185.5,-96 185.5,-76 274.25,-76 274.25,-96"/>
<text text-anchor="middle" x="229.88" y="-82.5" font-family="Helvetica,sans-Serif" font-size="10.00">PWM_PeriodSet</text>
</a>
</g>
</g>
<!-- Node1&#45;&gt;Node5 -->
<g id="edge4_Node000001_Node000005" class="edge">
<title>Node1&#45;&gt;Node5</title>
<g id="a_edge4_Node000001_Node000005"><a xlink:title=" ">
<path fill="none" stroke="#63b8ff" d="M113.78,-98.78C133.27,-96.62 155.08,-94.19 174.43,-92.04"/>
<polygon fill="#63b8ff" stroke="#63b8ff" points="174.65,-95.43 184.2,-90.85 173.88,-88.47 174.65,-95.43"/>
</a>
</g>
</g>
<!-- Node6 -->
<g id="Node000006" class="node">
<title>Node6</title>
<g id="a_Node000006"><a xlink:href="a00556.html#ga83e780358618114f0d424ca7467cf751" target="_top" xlink:title="This inline function requests to update the data registers for specific PWM generator selected by the...">
<polygon fill="white" stroke="#666666" points="305,-58 154.75,-58 154.75,-38 305,-38 305,-58"/>
<text text-anchor="middle" x="229.88" y="-44.5" font-family="Helvetica,sans-Serif" font-size="10.00">PWM_SoftwareUpdateRequest</text>
</a>
</g>
</g>
<!-- Node1&#45;&gt;Node6 -->
<g id="edge5_Node000001_Node000006" class="edge">
<title>Node1&#45;&gt;Node6</title>
<g id="a_edge5_Node000001_Node000006"><a xlink:title=" ">
<path fill="none" stroke="#63b8ff" d="M80,-94.62C98.36,-86.35 125.23,-74.88 149.5,-67 155.87,-64.93 162.59,-62.98 169.32,-61.17"/>
<polygon fill="#63b8ff" stroke="#63b8ff" points="170.04,-64.35 178.84,-58.46 168.29,-57.57 170.04,-64.35"/>
</a>
</g>
</g>
<!-- Node7 -->
<g id="Node000007" class="node">
<title>Node7</title>
<g id="a_Node000007"><a xlink:href="a00556.html#gacc5575148a6e8da6577d9be9e20541ce" target="_top" xlink:title="This inline function sets the Trigger C compare value in count for a specific PWM generator selected ...">
<polygon fill="white" stroke="#666666" points="310.25,-20 149.5,-20 149.5,0 310.25,0 310.25,-20"/>
<text text-anchor="middle" x="229.88" y="-6.5" font-family="Helvetica,sans-Serif" font-size="10.00">PWM_TriggerCCompareValueSet</text>
</a>
</g>
</g>
<!-- Node1&#45;&gt;Node7 -->
<g id="edge6_Node000001_Node000007" class="edge">
<title>Node1&#45;&gt;Node7</title>
<g id="a_edge6_Node000001_Node000007"><a xlink:title=" ">
<path fill="none" stroke="#63b8ff" d="M67.11,-94.65C82.6,-78.18 115.27,-46.1 149.5,-29 153.24,-27.13 157.18,-25.44 161.21,-23.91"/>
<polygon fill="#63b8ff" stroke="#63b8ff" points="162.06,-26.98 170.39,-20.43 159.8,-20.35 162.06,-26.98"/>
</a>
</g>
</g>
</g>
</svg>
</svg>

<style type='text/css'>
<![CDATA[
[data-mouse-over-selected='false'] { opacity: 0.7; }
[data-mouse-over-selected='true']  { opacity: 1.0; }
]]>
</style>
<script type="application/ecmascript"><![CDATA[
document.addEventListener('DOMContentLoaded', (event) => {
  highlightEdges();
  highlightAdjacentNodes();
});
]]></script>
</svg>
