<?xml version="1.0" encoding="UTF-8" standalone="no"?>
<!DOCTYPE svg PUBLIC "-//W3C//DTD SVG 1.1//EN"
 "http://www.w3.org/Graphics/SVG/1.1/DTD/svg11.dtd">
<!-- Generated by graphviz version 8.1.0 (20230707.0739)
 -->
<!-- Title: App_PBV_Task Pages: 1 -->
<svg width="353pt" height="66pt"
 viewBox="0.00 0.00 353.00 66.00" xmlns="http://www.w3.org/2000/svg" xmlns:xlink="http://www.w3.org/1999/xlink">
<g id="graph0" class="graph" transform="scale(1 1) rotate(0) translate(4 62)">
<title>App_PBV_Task</title>
<!-- Node1 -->
<g id="Node000001" class="node">
<title>Node1</title>
<g id="a_Node000001"><a xlink:title="Main application task for Power Board Visualizer.">
<polygon fill="#999999" stroke="#666666" points="345,-39 260,-39 260,-19 345,-19 345,-39"/>
<text text-anchor="middle" x="302.5" y="-25.5" font-family="Helvetica,sans-Serif" font-size="10.00">App_PBV_Task</text>
</a>
</g>
</g>
<!-- Node2 -->
<g id="Node000002" class="node">
<title>Node2</title>
<g id="a_Node000002"><a xlink:href="a00505.html#ga148dc2088cd891c3b3fbf77229504f3f" target="_top" xlink:title="Task to be executed every 100 us.">
<polygon fill="white" stroke="#666666" points="224,-58 107.5,-58 107.5,-38 224,-38 224,-58"/>
<text text-anchor="middle" x="165.75" y="-44.5" font-family="Helvetica,sans-Serif" font-size="10.00">App_PBV_Task_100us</text>
</a>
</g>
</g>
<!-- Node1&#45;&gt;Node2 -->
<g id="edge1_Node000001_Node000002" class="edge">
<title>Node1&#45;&gt;Node2</title>
<g id="a_edge1_Node000001_Node000002"><a xlink:title=" ">
<path fill="none" stroke="#63b8ff" d="M248.9,-36.42C240.88,-37.55 232.58,-38.72 224.46,-39.86"/>
<polygon fill="#63b8ff" stroke="#63b8ff" points="249.19,-39.77 258.6,-34.91 248.21,-32.84 249.19,-39.77"/>
</a>
</g>
</g>
<!-- Node3 -->
<g id="Node000003" class="node">
<title>Node3</title>
<g id="a_Node000003"><a xlink:href="a00505.html#ga29c25924bdc76c615288681bf1b17893" target="_top" xlink:title="task to be executed every 10ms">
<polygon fill="white" stroke="#666666" points="222.88,-20 108.62,-20 108.62,0 222.88,0 222.88,-20"/>
<text text-anchor="middle" x="165.75" y="-6.5" font-family="Helvetica,sans-Serif" font-size="10.00">App_PBV_Task_10ms</text>
</a>
</g>
</g>
<!-- Node1&#45;&gt;Node3 -->
<g id="edge2_Node000001_Node000003" class="edge">
<title>Node1&#45;&gt;Node3</title>
<g id="a_edge2_Node000001_Node000003"><a xlink:title=" ">
<path fill="none" stroke="#63b8ff" d="M248.73,-21.56C240.28,-20.37 231.51,-19.13 222.98,-17.93"/>
<polygon fill="#63b8ff" stroke="#63b8ff" points="248.21,-25.16 258.6,-23.09 249.19,-18.23 248.21,-25.16"/>
</a>
</g>
</g>
<!-- Node4 -->
<g id="Node000004" class="node">
<title>Node4</title>
<g id="a_Node000004"><a xlink:href="a00529.html#ga05751024e03719cbe14d88fb0af408dd" target="_top" xlink:title="Tasks_10ms gets called every 10ms, put your things in it that need to be called regularly.">
<polygon fill="white" stroke="#666666" points="71.5,-20 0,-20 0,0 71.5,0 71.5,-20"/>
<text text-anchor="middle" x="35.75" y="-6.5" font-family="Helvetica,sans-Serif" font-size="10.00">Tasks_10ms</text>
</a>
</g>
</g>
<!-- Node3&#45;&gt;Node4 -->
<g id="edge3_Node000003_Node000004" class="edge">
<title>Node3&#45;&gt;Node4</title>
<g id="a_edge3_Node000003_Node000004"><a xlink:title=" ">
<path fill="none" stroke="#63b8ff" d="M97.38,-10C88.48,-10 79.67,-10 71.64,-10"/>
<polygon fill="#63b8ff" stroke="#63b8ff" points="97.23,-13.5 107.23,-10 97.23,-6.5 97.23,-13.5"/>
</a>
</g>
</g>
</g>
</svg>
