<?xml version="1.0" encoding="UTF-8" standalone="no"?>
<!DOCTYPE svg PUBLIC "-//W3C//DTD SVG 1.1//EN"
 "http://www.w3.org/Graphics/SVG/1.1/DTD/svg11.dtd">
<!-- Generated by graphviz version 8.1.0 (20230707.0739)
 -->
<!-- Title: CAN1_FIFO_InfoGet Pages: 1 -->
<svg width="315pt" height="142pt"
 viewBox="0.00 0.00 315.25 142.00" xmlns="http://www.w3.org/2000/svg" xmlns:xlink="http://www.w3.org/1999/xlink">

<svg id="main" version="1.1" xmlns="http://www.w3.org/2000/svg" xmlns:xlink="http://www.w3.org/1999/xlink" xml:space="preserve" onload="init(evt)">
<style type="text/css"><![CDATA[
.node, .edge {opacity: 0.7;}
.node.selected, .edge.selected {opacity: 1;}
.edge:hover path { stroke: red; }
.edge:hover polygon { stroke: red; fill: red; }
]]></style>
<script type="application/ecmascript" xlink:href="svg.min.js"/>
<svg id="graph" class="graph">
<g id="graph0" class="graph" transform="scale(1 1) rotate(0) translate(4 138)">
<title>CAN1_FIFO_InfoGet</title>
<!-- Node1 -->
<g id="Node000001" class="node">
<title>Node1</title>
<g id="a_Node000001"><a xlink:title="This function get the FIFO user address, message depth and payload size information.">
<polygon fill="#999999" stroke="#666666" points="307.25,-77 202.75,-77 202.75,-57 307.25,-57 307.25,-77"/>
<text text-anchor="middle" x="255" y="-63.5" font-family="Helvetica,sans-Serif" font-size="10.00">CAN1_FIFO_InfoGet</text>
</a>
</g>
</g>
<!-- Node2 -->
<g id="Node000002" class="node">
<title>Node2</title>
<g id="a_Node000002"><a xlink:href="a00529.html#ga4fe1df4cd9f0ce122687dcfab0713b5b" target="_top" xlink:title="Reads the received single message object.">
<polygon fill="white" stroke="#666666" points="123.62,-134 43.12,-134 43.12,-114 123.62,-114 123.62,-134"/>
<text text-anchor="middle" x="83.38" y="-120.5" font-family="Helvetica,sans-Serif" font-size="10.00">CAN1_Receive</text>
</a>
</g>
</g>
<!-- Node1&#45;&gt;Node2 -->
<g id="edge1_Node000001_Node000002" class="edge">
<title>Node1&#45;&gt;Node2</title>
<g id="a_edge1_Node000001_Node000002"><a xlink:title=" ">
<path fill="none" stroke="#63b8ff" d="M223.27,-82.04C206.8,-89.68 185.98,-98.65 166.75,-105 152.95,-109.55 137.51,-113.43 123.75,-116.46"/>
<polygon fill="#63b8ff" stroke="#63b8ff" points="224.36,-84.92 231.91,-77.49 221.38,-78.59 224.36,-84.92"/>
</a>
</g>
</g>
<!-- Node3 -->
<g id="Node000003" class="node">
<title>Node3</title>
<g id="a_Node000003"><a xlink:href="a00529.html#gac27e97593d8d9bd7787d116910adc40d" target="_top" xlink:title="Returns the number of CAN messages received in all the FIFO.">
<polygon fill="white" stroke="#666666" points="166.75,-96 0,-96 0,-76 166.75,-76 166.75,-96"/>
<text text-anchor="middle" x="83.38" y="-82.5" font-family="Helvetica,sans-Serif" font-size="10.00">CAN1_ReceivedMessageCountGet</text>
</a>
</g>
</g>
<!-- Node1&#45;&gt;Node3 -->
<g id="edge2_Node000001_Node000003" class="edge">
<title>Node1&#45;&gt;Node3</title>
<g id="a_edge2_Node000001_Node000003"><a xlink:title=" ">
<path fill="none" stroke="#63b8ff" d="M191.89,-73.96C183.85,-74.86 175.51,-75.79 167.2,-76.72"/>
<polygon fill="#63b8ff" stroke="#63b8ff" points="192.1,-77.34 201.65,-72.75 191.32,-70.39 192.1,-77.34"/>
</a>
</g>
</g>
<!-- Node4 -->
<g id="Node000004" class="node">
<title>Node4</title>
<g id="a_Node000004"><a xlink:href="a00529.html#ga2c655a58965fff8578916b59bed47297" target="_top" xlink:title="Reads the received single message object from the CAN1 receive FIFO.">
<polygon fill="white" stroke="#666666" points="151.38,-58 15.38,-58 15.38,-38 151.38,-38 151.38,-58"/>
<text text-anchor="middle" x="83.38" y="-44.5" font-family="Helvetica,sans-Serif" font-size="10.00">CAN1_ReceiveMessageGet</text>
</a>
</g>
</g>
<!-- Node1&#45;&gt;Node4 -->
<g id="edge3_Node000001_Node000004" class="edge">
<title>Node1&#45;&gt;Node4</title>
<g id="a_edge3_Node000001_Node000004"><a xlink:title=" ">
<path fill="none" stroke="#63b8ff" d="M191.91,-60.05C178.88,-58.59 165.07,-57.04 151.85,-55.56"/>
<polygon fill="#63b8ff" stroke="#63b8ff" points="191.32,-63.61 201.65,-61.25 192.1,-56.66 191.32,-63.61"/>
</a>
</g>
</g>
<!-- Node5 -->
<g id="Node000005" class="node">
<title>Node5</title>
<g id="a_Node000005"><a xlink:href="a00529.html#gad99c960d1ed589ce80aca873a90e068e" target="_top" xlink:title="Writes the CAN message object to specified transmit FIFO channel.">
<polygon fill="white" stroke="#666666" points="125.5,-20 41.25,-20 41.25,0 125.5,0 125.5,-20"/>
<text text-anchor="middle" x="83.38" y="-6.5" font-family="Helvetica,sans-Serif" font-size="10.00">CAN1_Transmit</text>
</a>
</g>
</g>
<!-- Node1&#45;&gt;Node5 -->
<g id="edge4_Node000001_Node000005" class="edge">
<title>Node1&#45;&gt;Node5</title>
<g id="a_edge4_Node000001_Node000005"><a xlink:title=" ">
<path fill="none" stroke="#63b8ff" d="M223.27,-51.96C206.8,-44.32 185.98,-35.35 166.75,-29 153.65,-24.68 139.06,-20.97 125.85,-18"/>
<polygon fill="#63b8ff" stroke="#63b8ff" points="221.38,-55.41 231.91,-56.51 224.36,-49.08 221.38,-55.41"/>
</a>
</g>
</g>
</g>
</svg>
</svg>

<style type='text/css'>
<![CDATA[
[data-mouse-over-selected='false'] { opacity: 0.7; }
[data-mouse-over-selected='true']  { opacity: 1.0; }
]]>
</style>
<script type="application/ecmascript"><![CDATA[
document.addEventListener('DOMContentLoaded', (event) => {
  highlightEdges();
  highlightAdjacentNodes();
});
]]></script>
</svg>
