<?xml version="1.0" encoding="UTF-8" standalone="no"?>
<!DOCTYPE svg PUBLIC "-//W3C//DTD SVG 1.1//EN"
 "http://www.w3.org/Graphics/SVG/1.1/DTD/svg11.dtd">
<!-- Generated by graphviz version 8.1.0 (20230707.0739)
 -->
<!-- Title: PWM_Disable Pages: 1 -->
<svg width="702pt" height="105pt"
 viewBox="0.00 0.00 702.25 105.00" xmlns="http://www.w3.org/2000/svg" xmlns:xlink="http://www.w3.org/1999/xlink">
<g id="graph0" class="graph" transform="scale(1 1) rotate(0) translate(4 101)">
<title>PWM_Disable</title>
<!-- Node1 -->
<g id="Node000001" class="node">
<title>Node1</title>
<g id="a_Node000001"><a xlink:title="This inline function will disable all the generators of PWM module.">
<polygon fill="#999999" stroke="#666666" points="694.25,-70 616,-70 616,-50 694.25,-50 694.25,-70"/>
<text text-anchor="middle" x="655.12" y="-56.5" font-family="Helvetica,sans-Serif" font-size="10.00">PWM_Disable</text>
</a>
</g>
</g>
<!-- Node2 -->
<g id="Node000002" class="node">
<title>Node2</title>
<g id="a_Node000002"><a xlink:href="a00539.html#ga8307344d190a5459682d315fc7bfe198" target="_top" xlink:title="Executes function for initialze state machine.">
<polygon fill="white" stroke="#666666" points="382.88,-97 288.12,-97 288.12,-77 382.88,-77 382.88,-97"/>
<text text-anchor="middle" x="335.5" y="-83.5" font-family="Helvetica,sans-Serif" font-size="10.00">PCS_INIT_handler</text>
</a>
</g>
</g>
<!-- Node1&#45;&gt;Node2 -->
<g id="edge1_Node000001_Node000002" class="edge">
<title>Node1&#45;&gt;Node2</title>
<g id="a_edge1_Node000001_Node000002"><a xlink:title=" ">
<path fill="none" stroke="#63b8ff" d="M609.23,-73.18C599.66,-75.51 589.56,-77.64 580,-79 511.96,-88.72 432.18,-89.32 382.99,-88.47"/>
<polygon fill="#63b8ff" stroke="#63b8ff" points="609.93,-76.35 618.75,-70.47 608.19,-69.57 609.93,-76.35"/>
</a>
</g>
</g>
<!-- Node5 -->
<g id="Node000005" class="node">
<title>Node5</title>
<g id="a_Node000005"><a xlink:href="a00556.html#ga3ec1e3d2d4ba199e07f31f46e5f58a02" target="_top" xlink:title="Deinitializes the PWM to POR values.">
<polygon fill="white" stroke="#666666" points="553.38,-70 460.12,-70 460.12,-50 553.38,-50 553.38,-70"/>
<text text-anchor="middle" x="506.75" y="-56.5" font-family="Helvetica,sans-Serif" font-size="10.00">PWM_Deinitialize</text>
</a>
</g>
</g>
<!-- Node1&#45;&gt;Node5 -->
<g id="edge4_Node000001_Node000005" class="edge">
<title>Node1&#45;&gt;Node5</title>
<g id="a_edge4_Node000001_Node000005"><a xlink:title=" ">
<path fill="none" stroke="#63b8ff" d="M605.09,-60C588.52,-60 570.09,-60 553.76,-60"/>
<polygon fill="#63b8ff" stroke="#63b8ff" points="604.67,-63.5 614.67,-60 604.67,-56.5 604.67,-63.5"/>
</a>
</g>
</g>
<!-- Node6 -->
<g id="Node000006" class="node">
<title>Node6</title>
<g id="a_Node000006"><a xlink:href="a00538.html#ga09cbca9d9eea8e033ba27cb0f77417c3" target="_top" xlink:title="Forward/Reverse Direction related swap pattern on PWM output.">
<polygon fill="white" stroke="#666666" points="580,-32 433.5,-32 433.5,0 580,0 580,-32"/>
<text text-anchor="start" x="441.5" y="-18.5" font-family="Helvetica,sans-Serif" font-size="10.00">PwrCtrl_PWM_DAB_Direction</text>
<text text-anchor="middle" x="506.75" y="-6.5" font-family="Helvetica,sans-Serif" font-size="10.00">SpecificSwapCfg</text>
</a>
</g>
</g>
<!-- Node1&#45;&gt;Node6 -->
<g id="edge5_Node000001_Node000006" class="edge">
<title>Node1&#45;&gt;Node6</title>
<g id="a_edge5_Node000001_Node000006"><a xlink:title=" ">
<path fill="none" stroke="#63b8ff" d="M609.08,-46.46C594.36,-42.04 577.85,-37.07 562.5,-32.46"/>
<polygon fill="#63b8ff" stroke="#63b8ff" points="607.85,-50.05 618.44,-49.57 609.87,-43.34 607.85,-50.05"/>
</a>
</g>
</g>
<!-- Node3 -->
<g id="Node000003" class="node">
<title>Node3</title>
<g id="a_Node000003"><a xlink:href="a00539.html#ga2408c0b52cd2c2487f43716f261434e6" target="_top" xlink:title="Manages the power control state machine.">
<polygon fill="white" stroke="#666666" points="237.5,-67 124.75,-67 124.75,-47 237.5,-47 237.5,-67"/>
<text text-anchor="middle" x="181.12" y="-53.5" font-family="Helvetica,sans-Serif" font-size="10.00">PwrCtrl_StateMachine</text>
</a>
</g>
</g>
<!-- Node2&#45;&gt;Node3 -->
<g id="edge2_Node000002_Node000003" class="edge">
<title>Node2&#45;&gt;Node3</title>
<g id="a_edge2_Node000002_Node000003"><a xlink:title=" ">
<path fill="none" stroke="#63b8ff" d="M277.17,-75.71C263.44,-73.01 248.85,-70.14 235.32,-67.47"/>
<polygon fill="#63b8ff" stroke="#63b8ff" points="276.47,-79.34 286.95,-77.84 277.82,-72.47 276.47,-79.34"/>
</a>
</g>
</g>
<!-- Node4 -->
<g id="Node000004" class="node">
<title>Node4</title>
<g id="a_Node000004"><a xlink:href="a00536.html#ga48dcb018afa53b60b6112cde00561c4b" target="_top" xlink:title="Executes the power control state machine.">
<polygon fill="white" stroke="#666666" points="88.75,-67 0,-67 0,-47 88.75,-47 88.75,-67"/>
<text text-anchor="middle" x="44.38" y="-53.5" font-family="Helvetica,sans-Serif" font-size="10.00">PwrCtrl_Execute</text>
</a>
</g>
</g>
<!-- Node3&#45;&gt;Node4 -->
<g id="edge3_Node000003_Node000004" class="edge">
<title>Node3&#45;&gt;Node4</title>
<g id="a_edge3_Node000003_Node000004"><a xlink:title=" ">
<path fill="none" stroke="#63b8ff" d="M113.57,-57C105.19,-57 96.79,-57 88.9,-57"/>
<polygon fill="#63b8ff" stroke="#63b8ff" points="113.54,-60.5 123.54,-57 113.54,-53.5 113.54,-60.5"/>
</a>
</g>
</g>
<!-- Node7 -->
<g id="Node000007" class="node">
<title>Node7</title>
<g id="a_Node000007"><a xlink:href="a00539.html#ga42f7c8f65745b2f81bb6dbd381ea8121" target="_top" xlink:title="Executes Standby State machine.">
<polygon fill="white" stroke="#666666" points="397.5,-48 273.5,-48 273.5,-28 397.5,-28 397.5,-48"/>
<text text-anchor="middle" x="335.5" y="-34.5" font-family="Helvetica,sans-Serif" font-size="10.00">PCS_STANDBY_handler</text>
</a>
</g>
</g>
<!-- Node6&#45;&gt;Node7 -->
<g id="edge6_Node000006_Node000007" class="edge">
<title>Node6&#45;&gt;Node7</title>
<g id="a_edge6_Node000006_Node000007"><a xlink:title=" ">
<path fill="none" stroke="#63b8ff" d="M422.58,-26.81C414.25,-27.89 405.91,-28.98 397.87,-30.02"/>
<polygon fill="#63b8ff" stroke="#63b8ff" points="423.02,-30.15 432.48,-25.39 422.11,-23.21 423.02,-30.15"/>
</a>
</g>
</g>
<!-- Node7&#45;&gt;Node3 -->
<g id="edge7_Node000007_Node000003" class="edge">
<title>Node7&#45;&gt;Node3</title>
<g id="a_edge7_Node000007_Node000003"><a xlink:title=" ">
<path fill="none" stroke="#63b8ff" d="M262.55,-46.97C254.24,-48.01 245.86,-49.05 237.81,-50.06"/>
<polygon fill="#63b8ff" stroke="#63b8ff" points="262.91,-50.33 272.4,-45.62 262.04,-43.38 262.91,-50.33"/>
</a>
</g>
</g>
</g>
</svg>
