<?xml version="1.0" encoding="UTF-8" standalone="no"?>
<!DOCTYPE svg PUBLIC "-//W3C//DTD SVG 1.1//EN"
 "http://www.w3.org/Graphics/SVG/1.1/DTD/svg11.dtd">
<!-- Generated by graphviz version 8.1.0 (20230707.0739)
 -->
<!-- Title: PwrCtrl_UpdateADConverterData Pages: 1 -->
<svg width="345pt" height="104pt"
 viewBox="0.00 0.00 345.25 104.00" xmlns="http://www.w3.org/2000/svg" xmlns:xlink="http://www.w3.org/1999/xlink">
<g id="graph0" class="graph" transform="scale(1 1) rotate(0) translate(4 100)">
<title>PwrCtrl_UpdateADConverterData</title>
<!-- Node1 -->
<g id="Node000001" class="node">
<title>Node1</title>
<g id="a_Node000001"><a xlink:title="This function updates the DAB data members with ADC raw values.">
<polygon fill="#999999" stroke="#666666" points="157.75,-58 0,-58 0,-38 157.75,-38 157.75,-58"/>
<text text-anchor="middle" x="78.88" y="-44.5" font-family="Helvetica,sans-Serif" font-size="10.00">PwrCtrl_UpdateADConverterData</text>
</a>
</g>
</g>
<!-- Node2 -->
<g id="Node000002" class="node">
<title>Node2</title>
<g id="a_Node000002"><a xlink:href="a00532.html#gaf4b6f81a05012533b633a78dad7b6a98" target="_top" xlink:title="Returns the conversion value for the channel selected.">
<polygon fill="white" stroke="#666666" points="334.25,-96 196.75,-96 196.75,-76 334.25,-76 334.25,-96"/>
<text text-anchor="middle" x="265.5" y="-82.5" font-family="Helvetica,sans-Serif" font-size="10.00">ADC1_ConversionResultGet</text>
</a>
</g>
</g>
<!-- Node1&#45;&gt;Node2 -->
<g id="edge1_Node000001_Node000002" class="edge">
<title>Node1&#45;&gt;Node2</title>
<g id="a_edge1_Node000001_Node000002"><a xlink:title=" ">
<path fill="none" stroke="#63b8ff" d="M130.81,-58.48C153.21,-63.09 179.71,-68.55 203.18,-73.38"/>
<polygon fill="#63b8ff" stroke="#63b8ff" points="202.23,-76.96 212.73,-75.55 203.64,-70.11 202.23,-76.96"/>
</a>
</g>
</g>
<!-- Node3 -->
<g id="Node000003" class="node">
<title>Node3</title>
<g id="a_Node000003"><a xlink:href="a00532.html#ga0a80bc862861bd96a1034b39589adf9f" target="_top" xlink:title="This inline function returns the status of conversion.This function is used to determine if conversio...">
<polygon fill="white" stroke="#666666" points="336.88,-58 194.12,-58 194.12,-38 336.88,-38 336.88,-58"/>
<text text-anchor="middle" x="265.5" y="-44.5" font-family="Helvetica,sans-Serif" font-size="10.00">ADC1_IsConversionComplete</text>
</a>
</g>
</g>
<!-- Node1&#45;&gt;Node3 -->
<g id="edge2_Node000001_Node000003" class="edge">
<title>Node1&#45;&gt;Node3</title>
<g id="a_edge2_Node000001_Node000003"><a xlink:title=" ">
<path fill="none" stroke="#63b8ff" d="M158.17,-48C166.37,-48 174.72,-48 182.96,-48"/>
<polygon fill="#63b8ff" stroke="#63b8ff" points="182.7,-51.5 192.7,-48 182.7,-44.5 182.7,-51.5"/>
</a>
</g>
</g>
<!-- Node4 -->
<g id="Node000004" class="node">
<title>Node4</title>
<g id="a_Node000004"><a xlink:href="a00532.html#gaebc385db92ab49c593f635282b8491db" target="_top" xlink:title="This inline function sets software common trigger.">
<polygon fill="white" stroke="#666666" points="337.25,-20 193.75,-20 193.75,0 337.25,0 337.25,-20"/>
<text text-anchor="middle" x="265.5" y="-6.5" font-family="Helvetica,sans-Serif" font-size="10.00">ADC1_SoftwareTriggerEnable</text>
</a>
</g>
</g>
<!-- Node1&#45;&gt;Node4 -->
<g id="edge3_Node000001_Node000004" class="edge">
<title>Node1&#45;&gt;Node4</title>
<g id="a_edge3_Node000001_Node000004"><a xlink:title=" ">
<path fill="none" stroke="#63b8ff" d="M130.81,-37.52C153.21,-32.91 179.71,-27.45 203.18,-22.62"/>
<polygon fill="#63b8ff" stroke="#63b8ff" points="203.64,-25.89 212.73,-20.45 202.23,-19.04 203.64,-25.89"/>
</a>
</g>
</g>
</g>
</svg>
