<?xml version="1.0" encoding="UTF-8" standalone="no"?>
<!DOCTYPE svg PUBLIC "-//W3C//DTD SVG 1.1//EN"
 "http://www.w3.org/Graphics/SVG/1.1/DTD/svg11.dtd">
<!-- Generated by graphviz version 8.1.0 (20230707.0739)
 -->
<!-- Title: CRC_CalculationResultGet Pages: 1 -->
<svg width="532pt" height="47pt"
 viewBox="0.00 0.00 532.25 47.00" xmlns="http://www.w3.org/2000/svg" xmlns:xlink="http://www.w3.org/1999/xlink">
<g id="graph0" class="graph" transform="scale(1 1) rotate(0) translate(4 43)">
<title>CRC_CalculationResultGet</title>
<!-- Node1 -->
<g id="Node000001" class="node">
<title>Node1</title>
<g id="a_Node000001"><a xlink:title="Gets the CRC result if the calculation is done.">
<polygon fill="#999999" stroke="#666666" points="133,-39 0,-39 0,-19 133,-19 133,-39"/>
<text text-anchor="middle" x="66.5" y="-25.5" font-family="Helvetica,sans-Serif" font-size="10.00">CRC_CalculationResultGet</text>
</a>
</g>
</g>
<!-- Node2 -->
<g id="Node000002" class="node">
<title>Node2</title>
<g id="a_Node000002"><a xlink:href="a00524.html#ga3a06d9e9df1840cb7bda3f8c3b48f14e" target="_top" xlink:title="Gets the CRC raw result if the calculation is done.">
<polygon fill="white" stroke="#666666" points="524.25,-39 372.5,-39 372.5,-19 524.25,-19 524.25,-39"/>
<text text-anchor="middle" x="448.38" y="-25.5" font-family="Helvetica,sans-Serif" font-size="10.00">CRC_CalculationResultRawGet</text>
</a>
</g>
</g>
<!-- Node1&#45;&gt;Node2 -->
<g id="edge1_Node000001_Node000002" class="edge">
<title>Node1&#45;&gt;Node2</title>
<g id="a_edge1_Node000001_Node000002"><a xlink:title=" ">
<path fill="none" stroke="#63b8ff" d="M133.24,-29C196.33,-29 291.98,-29 361.15,-29"/>
<polygon fill="#63b8ff" stroke="#63b8ff" points="361.02,-32.5 371.02,-29 361.02,-25.5 361.02,-32.5"/>
</a>
</g>
</g>
<!-- Node3 -->
<g id="Node000003" class="node">
<title>Node3</title>
<g id="a_Node000003"><a xlink:href="a00524.html#gae32b26f5e43c6cb51a808454b8645c3a" target="_top" xlink:title="Gets the CRC reversed value of result if the calculation is done.">
<polygon fill="white" stroke="#666666" points="336.5,-20 169,-20 169,0 336.5,0 336.5,-20"/>
<text text-anchor="middle" x="252.75" y="-6.5" font-family="Helvetica,sans-Serif" font-size="10.00">CRC_CalculationResultReverseGet</text>
</a>
</g>
</g>
<!-- Node1&#45;&gt;Node3 -->
<g id="edge2_Node000001_Node000003" class="edge">
<title>Node1&#45;&gt;Node3</title>
<g id="a_edge2_Node000001_Node000003"><a xlink:title=" ">
<path fill="none" stroke="#63b8ff" d="M133.5,-22.19C141.4,-21.38 149.57,-20.54 157.77,-19.69"/>
<polygon fill="#63b8ff" stroke="#63b8ff" points="157.95,-23.09 167.53,-18.58 157.23,-16.13 157.95,-23.09"/>
</a>
</g>
</g>
<!-- Node3&#45;&gt;Node2 -->
<g id="edge3_Node000003_Node000002" class="edge">
<title>Node3&#45;&gt;Node2</title>
<g id="a_edge3_Node000003_Node000002"><a xlink:title=" ">
<path fill="none" stroke="#63b8ff" d="M336.99,-18.17C345.02,-18.96 353.18,-19.76 361.24,-20.55"/>
<polygon fill="#63b8ff" stroke="#63b8ff" points="360.86,-24.13 371.15,-21.62 361.54,-17.16 360.86,-24.13"/>
</a>
</g>
</g>
</g>
</svg>
