<?xml version="1.0" encoding="UTF-8" standalone="no"?>
<!DOCTYPE svg PUBLIC "-//W3C//DTD SVG 1.1//EN"
 "http://www.w3.org/Graphics/SVG/1.1/DTD/svg11.dtd">
<!-- Generated by graphviz version 8.1.0 (20230707.0739)
 -->
<!-- Title: Convert_From_Percentage Pages: 1 -->
<svg width="419pt" height="66pt"
 viewBox="0.00 0.00 419.00 66.00" xmlns="http://www.w3.org/2000/svg" xmlns:xlink="http://www.w3.org/1999/xlink">
<g id="graph0" class="graph" transform="scale(1 1) rotate(0) translate(4 62)">
<title>Convert_From_Percentage</title>
<!-- Node1 -->
<g id="Node000001" class="node">
<title>Node1</title>
<g id="a_Node000001"><a xlink:title="Converts the percentage value to number of ticks.">
<polygon fill="#999999" stroke="#666666" points="411,-39 280.25,-39 280.25,-19 411,-19 411,-39"/>
<text text-anchor="middle" x="345.62" y="-25.5" font-family="Helvetica,sans-Serif" font-size="10.00">Convert_From_Percentage</text>
</a>
</g>
</g>
<!-- Node2 -->
<g id="Node000002" class="node">
<title>Node2</title>
<g id="a_Node000002"><a xlink:href="a00500.html#ga66c5db181798514534d7f97b622ca35e" target="_top" xlink:title="Calculates the fan speed.">
<polygon fill="white" stroke="#666666" points="242,-58 152.5,-58 152.5,-38 242,-38 242,-58"/>
<text text-anchor="middle" x="197.25" y="-44.5" font-family="Helvetica,sans-Serif" font-size="10.00">Calculate_Speed</text>
</a>
</g>
</g>
<!-- Node1&#45;&gt;Node2 -->
<g id="edge1_Node000001_Node000002" class="edge">
<title>Node1&#45;&gt;Node2</title>
<g id="a_edge1_Node000001_Node000002"><a xlink:title=" ">
<path fill="none" stroke="#63b8ff" d="M269.22,-38.79C260.03,-39.98 250.89,-41.17 242.37,-42.27"/>
<polygon fill="#63b8ff" stroke="#63b8ff" points="269.53,-42.15 279,-37.39 268.63,-35.21 269.53,-42.15"/>
</a>
</g>
</g>
<!-- Node4 -->
<g id="Node000004" class="node">
<title>Node4</title>
<g id="a_Node000004"><a xlink:href="a00500.html#gad4274efc956bcca058565b186c2fd1a0" target="_top" xlink:title="This function initializes the fan object.">
<polygon fill="white" stroke="#666666" points="244.25,-20 150.25,-20 150.25,0 244.25,0 244.25,-20"/>
<text text-anchor="middle" x="197.25" y="-6.5" font-family="Helvetica,sans-Serif" font-size="10.00">Dev_Fan_Initialize</text>
</a>
</g>
</g>
<!-- Node1&#45;&gt;Node4 -->
<g id="edge3_Node000001_Node000004" class="edge">
<title>Node1&#45;&gt;Node4</title>
<g id="a_edge3_Node000001_Node000004"><a xlink:title=" ">
<path fill="none" stroke="#63b8ff" d="M269.31,-19.22C260.86,-18.13 252.45,-17.04 244.53,-16.01"/>
<polygon fill="#63b8ff" stroke="#63b8ff" points="268.63,-22.79 279,-20.61 269.53,-15.85 268.63,-22.79"/>
</a>
</g>
</g>
<!-- Node3 -->
<g id="Node000003" class="node">
<title>Node3</title>
<g id="a_Node000003"><a xlink:href="a00500.html#ga1bd7dce99469a41bbb705d939ea512ad" target="_top" xlink:title="this function needs to be called every 100ms it contains the code to update the status of the fan">
<polygon fill="white" stroke="#666666" points="114.25,-58 0,-58 0,-38 114.25,-38 114.25,-58"/>
<text text-anchor="middle" x="57.13" y="-44.5" font-family="Helvetica,sans-Serif" font-size="10.00">Dev_Fan_Task_100ms</text>
</a>
</g>
</g>
<!-- Node2&#45;&gt;Node3 -->
<g id="edge2_Node000002_Node000003" class="edge">
<title>Node2&#45;&gt;Node3</title>
<g id="a_edge2_Node000002_Node000003"><a xlink:title=" ">
<path fill="none" stroke="#63b8ff" d="M141.22,-48C132.4,-48 123.27,-48 114.42,-48"/>
<polygon fill="#63b8ff" stroke="#63b8ff" points="141.17,-51.5 151.17,-48 141.17,-44.5 141.17,-51.5"/>
</a>
</g>
</g>
</g>
</svg>
