<?xml version="1.0" encoding="UTF-8" standalone="no"?>
<!DOCTYPE svg PUBLIC "-//W3C//DTD SVG 1.1//EN"
 "http://www.w3.org/Graphics/SVG/1.1/DTD/svg11.dtd">
<!-- Generated by graphviz version 8.1.0 (20230707.0739)
 -->
<!-- Title: DRV_Config_Custom_ADC Pages: 1 -->
<svg width="288pt" height="142pt"
 viewBox="0.00 0.00 287.50 142.00" xmlns="http://www.w3.org/2000/svg" xmlns:xlink="http://www.w3.org/1999/xlink">
<g id="graph0" class="graph" transform="scale(1 1) rotate(0) translate(4 138)">
<title>DRV_Config_Custom_ADC</title>
<!-- Node1 -->
<g id="Node000001" class="node">
<title>Node1</title>
<g id="a_Node000001"><a xlink:title="Customize configuration for ADC.">
<polygon fill="#999999" stroke="#666666" points="133,-77 0,-77 0,-57 133,-57 133,-77"/>
<text text-anchor="middle" x="66.5" y="-63.5" font-family="Helvetica,sans-Serif" font-size="10.00">DRV_Config_Custom_ADC</text>
</a>
</g>
</g>
<!-- Node2 -->
<g id="Node000002" class="node">
<title>Node2</title>
<g id="a_Node000002"><a xlink:href="a00540.html#ga7475de7e65b22a255c8587d7535359b3" target="_top" xlink:title="Sets the ADC instance number of samples to average.">
<polygon fill="white" stroke="#666666" points="279.5,-134 169,-134 169,-114 279.5,-114 279.5,-134"/>
<text text-anchor="middle" x="224.25" y="-120.5" font-family="Helvetica,sans-Serif" font-size="10.00">ADC_Filter_Averaging</text>
</a>
</g>
</g>
<!-- Node1&#45;&gt;Node2 -->
<g id="edge1_Node000001_Node000002" class="edge">
<title>Node1&#45;&gt;Node2</title>
<g id="a_edge1_Node000001_Node000002"><a xlink:title=" ">
<path fill="none" stroke="#63b8ff" d="M95.01,-77.48C115.4,-85.2 143.88,-95.9 169,-105 173.5,-106.63 178.22,-108.32 182.92,-109.98"/>
<polygon fill="#63b8ff" stroke="#63b8ff" points="181.48,-113.54 192.08,-113.56 183.81,-106.94 181.48,-113.54"/>
</a>
</g>
</g>
<!-- Node3 -->
<g id="Node000003" class="node">
<title>Node3</title>
<g id="a_Node000003"><a xlink:href="a00540.html#ga71c6250f386033c07dae0150d67b100f" target="_top" xlink:title="Enables the ADC filter feature of the ADC.">
<polygon fill="white" stroke="#666666" points="273.5,-96 175,-96 175,-76 273.5,-76 273.5,-96"/>
<text text-anchor="middle" x="224.25" y="-82.5" font-family="Helvetica,sans-Serif" font-size="10.00">ADC_Filter_Enable</text>
</a>
</g>
</g>
<!-- Node1&#45;&gt;Node3 -->
<g id="edge2_Node000001_Node000003" class="edge">
<title>Node1&#45;&gt;Node3</title>
<g id="a_edge2_Node000001_Node000003"><a xlink:title=" ">
<path fill="none" stroke="#63b8ff" d="M133.1,-75C143.36,-76.25 153.91,-77.54 164.01,-78.77"/>
<polygon fill="#63b8ff" stroke="#63b8ff" points="163.41,-82.35 173.76,-80.09 164.26,-75.4 163.41,-82.35"/>
</a>
</g>
</g>
<!-- Node4 -->
<g id="Node000004" class="node">
<title>Node4</title>
<g id="a_Node000004"><a xlink:href="a00540.html#ga0645000c951ca217ee18beb7233da254" target="_top" xlink:title="Sets the ADC instance to be filtered.">
<polygon fill="white" stroke="#666666" points="269,-58 179.5,-58 179.5,-38 269,-38 269,-58"/>
<text text-anchor="middle" x="224.25" y="-44.5" font-family="Helvetica,sans-Serif" font-size="10.00">ADC_Filter_Input</text>
</a>
</g>
</g>
<!-- Node1&#45;&gt;Node4 -->
<g id="edge3_Node000001_Node000004" class="edge">
<title>Node1&#45;&gt;Node4</title>
<g id="a_edge3_Node000001_Node000004"><a xlink:title=" ">
<path fill="none" stroke="#63b8ff" d="M133.1,-59C144.94,-57.55 157.18,-56.06 168.67,-54.66"/>
<polygon fill="#63b8ff" stroke="#63b8ff" points="168.91,-58.03 178.41,-53.35 168.06,-51.08 168.91,-58.03"/>
</a>
</g>
</g>
<!-- Node5 -->
<g id="Node000005" class="node">
<title>Node5</title>
<g id="a_Node000005"><a xlink:href="a00540.html#ga6ef63752d3c218e541d437721a3559fa" target="_top" xlink:title="Sets the ADC instance filter mode.">
<polygon fill="white" stroke="#666666" points="270.5,-20 178,-20 178,0 270.5,0 270.5,-20"/>
<text text-anchor="middle" x="224.25" y="-6.5" font-family="Helvetica,sans-Serif" font-size="10.00">ADC_Filter_Mode</text>
</a>
</g>
</g>
<!-- Node1&#45;&gt;Node5 -->
<g id="edge4_Node000001_Node000005" class="edge">
<title>Node1&#45;&gt;Node5</title>
<g id="a_edge4_Node000001_Node000005"><a xlink:title=" ">
<path fill="none" stroke="#63b8ff" d="M95.01,-56.52C115.4,-48.8 143.88,-38.1 169,-29 173.5,-27.37 178.22,-25.68 182.92,-24.02"/>
<polygon fill="#63b8ff" stroke="#63b8ff" points="183.81,-27.06 192.08,-20.44 181.48,-20.46 183.81,-27.06"/>
</a>
</g>
</g>
</g>
</svg>
