<?xml version="1.0" encoding="UTF-8" standalone="no"?>
<!DOCTYPE svg PUBLIC "-//W3C//DTD SVG 1.1//EN"
 "http://www.w3.org/Graphics/SVG/1.1/DTD/svg11.dtd">
<!-- Generated by graphviz version 8.1.0 (20230707.0739)
 -->
<!-- Title: CAN1_MessageWriteToFifo Pages: 1 -->
<svg width="440pt" height="78pt"
 viewBox="0.00 0.00 440.00 78.00" xmlns="http://www.w3.org/2000/svg" xmlns:xlink="http://www.w3.org/1999/xlink">
<g id="graph0" class="graph" transform="scale(1 1) rotate(0) translate(4 74)">
<title>CAN1_MessageWriteToFifo</title>
<!-- Node1 -->
<g id="Node000001" class="node">
<title>Node1</title>
<g id="a_Node000001"><a xlink:title="This function Read the message object from user input and update to the CAN1 TX FIFO.">
<polygon fill="#999999" stroke="#666666" points="432,-42 296,-42 296,-22 432,-22 432,-42"/>
<text text-anchor="middle" x="364" y="-28.5" font-family="Helvetica,sans-Serif" font-size="10.00">CAN1_MessageWriteToFifo</text>
</a>
</g>
</g>
<!-- Node2 -->
<g id="Node000002" class="node">
<title>Node2</title>
<g id="a_Node000002"><a xlink:href="a00554.html#gad99c960d1ed589ce80aca873a90e068e" target="_top" xlink:title="Writes the CAN message object to specified transmit FIFO channel.">
<polygon fill="white" stroke="#666666" points="260,-42 175.75,-42 175.75,-22 260,-22 260,-42"/>
<text text-anchor="middle" x="217.88" y="-28.5" font-family="Helvetica,sans-Serif" font-size="10.00">CAN1_Transmit</text>
</a>
</g>
</g>
<!-- Node1&#45;&gt;Node2 -->
<g id="edge1_Node000001_Node000002" class="edge">
<title>Node1&#45;&gt;Node2</title>
<g id="a_edge1_Node000001_Node000002"><a xlink:title=" ">
<path fill="none" stroke="#63b8ff" d="M284.59,-32C276.25,-32 268.02,-32 260.36,-32"/>
<polygon fill="#63b8ff" stroke="#63b8ff" points="284.58,-35.5 294.58,-32 284.58,-28.5 284.58,-35.5"/>
</a>
</g>
</g>
<!-- Node3 -->
<g id="Node000003" class="node">
<title>Node3</title>
<g id="a_Node000003"><a xlink:href="a00524.html#ga8a1a918272c7acb8edadb6686bdf7410" target="_top" xlink:title="transmits the Ascii msg to PBV">
<polygon fill="white" stroke="#666666" points="135.62,-70 4.12,-70 4.12,-38 135.62,-38 135.62,-70"/>
<text text-anchor="start" x="12.12" y="-56.5" font-family="Helvetica,sans-Serif" font-size="10.00">PBV_CAN_Transmit_Ascii</text>
<text text-anchor="middle" x="69.88" y="-44.5" font-family="Helvetica,sans-Serif" font-size="10.00">_to_GUI</text>
</a>
</g>
</g>
<!-- Node2&#45;&gt;Node3 -->
<g id="edge2_Node000002_Node000003" class="edge">
<title>Node2&#45;&gt;Node3</title>
<g id="a_edge2_Node000002_Node000003"><a xlink:title=" ">
<path fill="none" stroke="#63b8ff" d="M164.73,-39.86C155.39,-41.26 145.55,-42.75 135.9,-44.2"/>
<polygon fill="#63b8ff" stroke="#63b8ff" points="165.06,-43.2 174.43,-38.25 164.02,-36.27 165.06,-43.2"/>
</a>
</g>
</g>
<!-- Node4 -->
<g id="Node000004" class="node">
<title>Node4</title>
<g id="a_Node000004"><a xlink:href="a00524.html#gae06ebd7cad07c3a104d5b46c6f6323dc" target="_top" xlink:title="Transmits the numerical msg to PBV.">
<polygon fill="white" stroke="#666666" points="139.75,-20 0,-20 0,0 139.75,0 139.75,-20"/>
<text text-anchor="middle" x="69.88" y="-6.5" font-family="Helvetica,sans-Serif" font-size="10.00">PBV_CAN_Transmit_to_GUI</text>
</a>
</g>
</g>
<!-- Node2&#45;&gt;Node4 -->
<g id="edge3_Node000002_Node000004" class="edge">
<title>Node2&#45;&gt;Node4</title>
<g id="a_edge3_Node000002_Node000004"><a xlink:title=" ">
<path fill="none" stroke="#63b8ff" d="M164.77,-24.15C156.75,-22.94 148.37,-21.68 140.05,-20.42"/>
<polygon fill="#63b8ff" stroke="#63b8ff" points="164.02,-27.73 174.43,-25.75 165.06,-20.8 164.02,-27.73"/>
</a>
</g>
</g>
</g>
</svg>
