<?xml version="1.0" encoding="UTF-8" standalone="no"?>
<!DOCTYPE svg PUBLIC "-//W3C//DTD SVG 1.1//EN"
 "http://www.w3.org/Graphics/SVG/1.1/DTD/svg11.dtd">
<!-- Generated by graphviz version 8.1.0 (20230707.0739)
 -->
<!-- Title: MPLABX MCC Melody Code Generator Pages: 1 -->
<!--zoomable 674 -->

<svg id="main" version="1.1" xmlns="http://www.w3.org/2000/svg" xmlns:xlink="http://www.w3.org/1999/xlink" xml:space="preserve" onload="init(evt)">
<style type="text/css"><![CDATA[
.node, .edge {opacity: 0.7;}
.node.selected, .edge.selected {opacity: 1;}
.edge:hover path { stroke: red; }
.edge:hover polygon { stroke: red; fill: red; }
]]></style>

<defs>
  <circle id="rim" cx="0" cy="0" r="7"/>
  <circle id="rim2" cx="0" cy="0" r="3.5"/>
  <g id="zoomPlus">
    <use xlink:href="#rim" fill="#404040"><set attributeName="fill" to="#808080" begin="zoomplus.mouseover" end="zoomplus.mouseout"/></use>
    <path d="M-4,0h8M0,-4v8" fill="none" stroke="white" stroke-width="1.5" pointer-events="none"/>
  </g>
  <g id="zoomMin">
    <use xlink:href="#rim" fill="#404040"><set attributeName="fill" to="#808080" begin="zoomminus.mouseover" end="zoomminus.mouseout"/></use>
    <path d="M-4,0h8" fill="none" stroke="white" stroke-width="1.5" pointer-events="none"/>
  </g>
  <g id="arrowUp" transform="translate(30 24)">
    <use xlink:href="#rim"/>
    <path pointer-events="none" fill="none" stroke="white" stroke-width="1.5" d="M0,-3.0v7 M-2.5,-0.5L0,-3.0L2.5,-0.5"/>
  </g>
  <g id="arrowRight" transform="rotate(90) translate(36 -43)">
    <use xlink:href="#rim"/>
    <path pointer-events="none" fill="none" stroke="white" stroke-width="1.5" d="M0,-3.0v7 M-2.5,-0.5L0,-3.0L2.5,-0.5"/>
  </g>
  <g id="arrowDown" transform="rotate(180) translate(-30 -48)">
    <use xlink:href="#rim"/>
    <path pointer-events="none" fill="none" stroke="white" stroke-width="1.5" d="M0,-3.0v7 M-2.5,-0.5L0,-3.0L2.5,-0.5"/>
  </g>
  <g id="arrowLeft" transform="rotate(270) translate(-36 17)">
    <use xlink:href="#rim"/>
    <path pointer-events="none" fill="none" stroke="white" stroke-width="1.5" d="M0,-3.0v7 M-2.5,-0.5L0,-3.0L2.5,-0.5"/>
  </g>
  <g id="resetDef">
    <use xlink:href="#rim2" fill="#404040"><set attributeName="fill" to="#808080" begin="reset.mouseover" end="reset.mouseout"/></use>
  </g>
</defs>
<script type="application/ecmascript">
var viewWidth = 264;
var viewHeight = 674;
var sectionId = 'dynsection-0';
</script>
<script type="application/ecmascript" xlink:href="svg.min.js"/>
<svg id="graph" class="graph">
<g id="viewport">
<title>MPLABX MCC Melody Code Generator</title>
<!-- Node2 -->
<g id="Node000002" class="node">
<title>Node2</title>
<g id="a_Node000002"><a xlink:href="a00532.html" target="_top" xlink:title="High&#45;Speed, 12&#45;Bit Multiple SARs Analog&#45;to&#45;Digital Converter driver using dsPIC MCUs.">
<polygon fill="white" stroke="#666666" points="256.25,-666 150.25,-666 150.25,-646 256.25,-646 256.25,-666"/>
<text text-anchor="middle" x="203.25" y="-652.5" font-family="Helvetica,sans-Serif" font-size="10.00">ADC Multicore Driver</text>
</a>
</g>
</g>
<!-- Node3 -->
<g id="Node000003" class="node">
<title>Node3</title>
<g id="a_Node000003"><a xlink:href="a00533.html" target="_top" xlink:title="CAN FD Driver using dsPIC MCUs.">
<polygon fill="white" stroke="#666666" points="242.75,-628 163.75,-628 163.75,-608 242.75,-608 242.75,-628"/>
<text text-anchor="middle" x="203.25" y="-614.5" font-family="Helvetica,sans-Serif" font-size="10.00">CAN FD Driver</text>
</a>
</g>
</g>
<!-- Node4 -->
<g id="Node000004" class="node">
<title>Node4</title>
<g id="a_Node000004"><a xlink:href="a00534.html" target="_top" xlink:title="Configurable Logic Cell driver allows the user to specify combinations of signals as inputs to a logi...">
<polygon fill="white" stroke="#666666" points="234.12,-590 172.38,-590 172.38,-570 234.12,-570 234.12,-590"/>
<text text-anchor="middle" x="203.25" y="-576.5" font-family="Helvetica,sans-Serif" font-size="10.00">CLC Driver</text>
</a>
</g>
</g>
<!-- Node15 -->
<g id="Node000015" class="node">
<title>Node15</title>
<g id="a_Node000015"><a xlink:href="a00545.html" target="_top" xlink:title="Clock configurator driver for System and Peripheral Clock using dsPIC MCUs.">
<polygon fill="white" stroke="#666666" points="237.12,-552 169.38,-552 169.38,-532 237.12,-532 237.12,-552"/>
<text text-anchor="middle" x="203.25" y="-538.5" font-family="Helvetica,sans-Serif" font-size="10.00">Clock Driver</text>
</a>
</g>
</g>
<!-- Node5 -->
<g id="Node000005" class="node">
<title>Node5</title>
<g id="a_Node000005"><a xlink:href="a00535.html" target="_top" xlink:title="High Speed Analog Comparator with Slope Compensation DAC driver using dsPIC MCUs.">
<polygon fill="white" stroke="#666666" points="247.25,-514 159.25,-514 159.25,-494 247.25,-494 247.25,-514"/>
<text text-anchor="middle" x="203.25" y="-500.5" font-family="Helvetica,sans-Serif" font-size="10.00">CMP DAC Driver</text>
</a>
</g>
</g>
<!-- Node19 -->
<g id="Node000019" class="node">
<title>Node19</title>
<g id="a_Node000019"><a xlink:href="a00549.html" target="_top" xlink:title="Device Configuration Bits using dsPIC MCUs.">
<polygon fill="white" stroke="#666666" points="253.62,-476 152.88,-476 152.88,-456 253.62,-456 253.62,-476"/>
<text text-anchor="middle" x="203.25" y="-462.5" font-family="Helvetica,sans-Serif" font-size="10.00">CONFIGBITS Driver</text>
</a>
</g>
</g>
<!-- Node6 -->
<g id="Node000006" class="node">
<title>Node6</title>
<g id="a_Node000006"><a xlink:href="a00536.html" target="_top" xlink:title="16&#45;bit Programmable Cyclic Redundancy Check generator using dsPIC MCUs">
<polygon fill="white" stroke="#666666" points="234.88,-438 171.62,-438 171.62,-418 234.88,-418 234.88,-438"/>
<text text-anchor="middle" x="203.25" y="-424.5" font-family="Helvetica,sans-Serif" font-size="10.00">CRC Driver</text>
</a>
</g>
</g>
<!-- Node9 -->
<g id="Node000009" class="node">
<title>Node9</title>
<g id="a_Node000009"><a xlink:href="a00539.html" target="_top" xlink:title="Deadman Timer (DMT) driver using dsPIC MCUs. The functionality is to interrupt the processor in the e...">
<polygon fill="white" stroke="#666666" points="234.88,-400 171.62,-400 171.62,-380 234.88,-380 234.88,-400"/>
<text text-anchor="middle" x="203.25" y="-386.5" font-family="Helvetica,sans-Serif" font-size="10.00">DMT Driver</text>
</a>
</g>
</g>
<!-- Node10 -->
<g id="Node000010" class="node">
<title>Node10</title>
<g id="a_Node000010"><a xlink:href="a00540.html" target="_top" xlink:title="Interrupt Priority configuration driver using dsPIC MCUs.">
<polygon fill="white" stroke="#666666" points="242.38,-362 164.12,-362 164.12,-342 242.38,-342 242.38,-362"/>
<text text-anchor="middle" x="203.25" y="-348.5" font-family="Helvetica,sans-Serif" font-size="10.00">Interrupt Driver</text>
</a>
</g>
</g>
<!-- Node1 -->
<g id="Node000001" class="node">
<title>Node1</title>
<g id="a_Node000001"><a xlink:title="Contains all the module generated by MCC for this application.">
<polygon fill="#999999" stroke="#666666" points="114.25,-349 0,-349 0,-317 114.25,-317 114.25,-349"/>
<text text-anchor="start" x="8" y="-335.5" font-family="Helvetica,sans-Serif" font-size="10.00">MPLABX MCC Melody</text>
<text text-anchor="middle" x="57.12" y="-323.5" font-family="Helvetica,sans-Serif" font-size="10.00"> Code Generator</text>
</a>
</g>
</g>
<!-- Node1&#45;&gt;Node2 -->
<g id="edge1" class="edge">
<title>Node1&#45;&gt;Node2</title>
<path fill="none" stroke="black" d="M58.6,-360.23C61.1,-418.72 75.11,-557.52 150.25,-637 153.49,-640.42 157.39,-643.23 161.58,-645.53"/>
<polygon fill="black" stroke="black" points="62.07,-360.2 58.24,-350.33 55.08,-360.44 62.07,-360.2"/>
</g>
<!-- Node1&#45;&gt;Node3 -->
<g id="edge2" class="edge">
<title>Node1&#45;&gt;Node3</title>
<path fill="none" stroke="black" d="M60,-360.1C65.09,-413.12 83.67,-531.29 150.25,-599 153.96,-602.77 158.47,-605.8 163.27,-608.23"/>
<polygon fill="black" stroke="black" points="63.41,-359.9 59.06,-350.24 56.43,-360.51 63.41,-359.9"/>
</g>
<!-- Node1&#45;&gt;Node4 -->
<g id="edge3" class="edge">
<title>Node1&#45;&gt;Node4</title>
<path fill="none" stroke="black" d="M61.83,-360.16C69.68,-407.38 92.25,-504.92 150.25,-561 156.26,-566.81 164.19,-570.87 172.04,-573.69"/>
<polygon fill="black" stroke="black" points="65.14,-359.64 60.15,-350.3 58.22,-360.72 65.14,-359.64"/>
</g>
<!-- Node1&#45;&gt;Node15 -->
<g id="edge14" class="edge">
<title>Node1&#45;&gt;Node15</title>
<path fill="none" stroke="black" d="M64.22,-359.69C74.84,-400.42 100.53,-478.07 150.25,-523 155.6,-527.83 162.28,-531.47 169.05,-534.18"/>
<polygon fill="black" stroke="black" points="67.43,-359.1 61.61,-350.24 60.63,-360.79 67.43,-359.1"/>
</g>
<!-- Node1&#45;&gt;Node5 -->
<g id="edge4" class="edge">
<title>Node1&#45;&gt;Node5</title>
<path fill="none" stroke="black" d="M67.62,-359.21C81.07,-392.83 108.74,-450.87 150.25,-485 154.41,-488.42 159.23,-491.25 164.24,-493.59"/>
<polygon fill="black" stroke="black" points="70.63,-358.28 63.76,-350.21 64.1,-360.8 70.63,-358.28"/>
</g>
<!-- Node1&#45;&gt;Node19 -->
<g id="edge18" class="edge">
<title>Node1&#45;&gt;Node19</title>
<path fill="none" stroke="black" d="M72.89,-358.42C88.95,-384.04 116.84,-423.12 150.25,-447 154.94,-450.35 160.29,-453.18 165.73,-455.54"/>
<polygon fill="black" stroke="black" points="75.53,-357.03 67.32,-350.32 69.55,-360.68 75.53,-357.03"/>
</g>
<!-- Node1&#45;&gt;Node6 -->
<g id="edge5" class="edge">
<title>Node1&#45;&gt;Node6</title>
<path fill="none" stroke="black" d="M82.03,-356.62C99.7,-373.05 124.97,-394.53 150.25,-409 156.76,-412.73 164.12,-415.94 171.23,-418.62"/>
<polygon fill="black" stroke="black" points="85.14,-354.8 75.48,-350.46 80.33,-359.88 85.14,-354.8"/>
</g>
<!-- Node1&#45;&gt;Node9 -->
<g id="edge8" class="edge">
<title>Node1&#45;&gt;Node9</title>
<path fill="none" stroke="black" d="M106.88,-353.55C120.84,-359.31 136.11,-365.5 150.25,-371 157.6,-373.86 165.57,-376.83 173.02,-379.56"/>
<polygon fill="black" stroke="black" points="108.56,-350.04 97.98,-349.44 105.88,-356.5 108.56,-350.04"/>
</g>
<!-- Node1&#45;&gt;Node10 -->
<g id="edge9" class="edge">
<title>Node1&#45;&gt;Node10</title>
<path fill="none" stroke="black" d="M125.56,-341.89C138.63,-343.61 151.89,-345.36 163.64,-346.91"/>
<polygon fill="black" stroke="black" points="126.05,-338.29 115.67,-340.45 125.13,-345.23 126.05,-338.29"/>
</g>
<!-- Node12 -->
<g id="Node000012" class="node">
<title>Node12</title>
<g id="a_Node000012"><a xlink:href="a00542.html" target="_top" xlink:title="The Pin Driver directs the operation and function of the selected device pins using dsPIC MCUs.">
<polygon fill="white" stroke="#666666" points="234.5,-324 172,-324 172,-304 234.5,-304 234.5,-324"/>
<text text-anchor="middle" x="203.25" y="-310.5" font-family="Helvetica,sans-Serif" font-size="10.00">Pins Driver</text>
</a>
</g>
</g>
<!-- Node1&#45;&gt;Node12 -->
<g id="edge11" class="edge">
<title>Node1&#45;&gt;Node12</title>
<path fill="none" stroke="black" d="M125.25,-324.15C141.47,-322.01 158.02,-319.83 171.61,-318.04"/>
<polygon fill="black" stroke="black" points="125.13,-320.77 115.67,-325.55 126.05,-327.71 125.13,-320.77"/>
</g>
<!-- Node7 -->
<g id="Node000007" class="node">
<title>Node7</title>
<g id="a_Node000007"><a xlink:href="a00537.html" target="_top" xlink:title="Pulse Width Modulation Driver using dsPIC MCUs.">
<polygon fill="white" stroke="#666666" points="237.12,-286 169.38,-286 169.38,-266 237.12,-266 237.12,-286"/>
<text text-anchor="middle" x="203.25" y="-272.5" font-family="Helvetica,sans-Serif" font-size="10.00">PWM Driver</text>
</a>
</g>
</g>
<!-- Node1&#45;&gt;Node7 -->
<g id="edge6" class="edge">
<title>Node1&#45;&gt;Node7</title>
<path fill="none" stroke="black" d="M106.88,-312.45C120.84,-306.69 136.11,-300.5 150.25,-295 157.6,-292.14 165.57,-289.17 173.02,-286.44"/>
<polygon fill="black" stroke="black" points="105.88,-309.5 97.98,-316.56 108.56,-315.96 105.88,-309.5"/>
</g>
<!-- Node8 -->
<g id="Node000008" class="node">
<title>Node8</title>
<g id="a_Node000008"><a xlink:href="a00538.html" target="_top" xlink:title="High&#45;Resolution Pulse&#45;Width Modulated (PWM) with Fine Edge Placement using dsPIC MCUs.">
<polygon fill="white" stroke="#666666" points="245.38,-248 161.12,-248 161.12,-228 245.38,-228 245.38,-248"/>
<text text-anchor="middle" x="203.25" y="-234.5" font-family="Helvetica,sans-Serif" font-size="10.00">PWM HS Driver</text>
</a>
</g>
</g>
<!-- Node1&#45;&gt;Node8 -->
<g id="edge7" class="edge">
<title>Node1&#45;&gt;Node8</title>
<path fill="none" stroke="black" d="M82.03,-309.38C99.7,-292.95 124.97,-271.47 150.25,-257 155.92,-253.75 162.25,-250.89 168.48,-248.44"/>
<polygon fill="black" stroke="black" points="80.33,-306.12 75.48,-315.54 85.14,-311.2 80.33,-306.12"/>
</g>
<!-- Node14 -->
<g id="Node000014" class="node">
<title>Node14</title>
<g id="a_Node000014"><a xlink:href="a00544.html" target="_top" xlink:title="Reset driver using dsPIC MCUs.">
<polygon fill="white" stroke="#666666" points="237.5,-210 169,-210 169,-190 237.5,-190 237.5,-210"/>
<text text-anchor="middle" x="203.25" y="-196.5" font-family="Helvetica,sans-Serif" font-size="10.00">Reset Driver</text>
</a>
</g>
</g>
<!-- Node1&#45;&gt;Node14 -->
<g id="edge13" class="edge">
<title>Node1&#45;&gt;Node14</title>
<path fill="none" stroke="black" d="M72.89,-307.58C88.95,-281.96 116.84,-242.88 150.25,-219 155.8,-215.03 162.27,-211.8 168.73,-209.21"/>
<polygon fill="black" stroke="black" points="69.55,-305.32 67.32,-315.68 75.53,-308.97 69.55,-305.32"/>
</g>
<!-- Node13 -->
<g id="Node000013" class="node">
<title>Node13</title>
<g id="a_Node000013"><a xlink:href="a00543.html" target="_top" xlink:title="System driver using dsPIC MCUs.">
<polygon fill="white" stroke="#666666" points="241.62,-172 164.88,-172 164.88,-152 241.62,-152 241.62,-172"/>
<text text-anchor="middle" x="203.25" y="-158.5" font-family="Helvetica,sans-Serif" font-size="10.00">System Driver</text>
</a>
</g>
</g>
<!-- Node1&#45;&gt;Node13 -->
<g id="edge12" class="edge">
<title>Node1&#45;&gt;Node13</title>
<path fill="none" stroke="black" d="M67.62,-306.79C81.07,-273.17 108.74,-215.13 150.25,-181 154.48,-177.52 159.41,-174.65 164.51,-172.29"/>
<polygon fill="black" stroke="black" points="64.1,-305.2 63.76,-315.79 70.63,-307.72 64.1,-305.2"/>
</g>
<!-- Node17 -->
<g id="Node000017" class="node">
<title>Node17</title>
<g id="a_Node000017"><a xlink:href="a00547.html" target="_top" xlink:title="Timer Driver is a 16&#45;bit timer or 32&#45;bit timer that can operate as a free&#45;running interval timer usin...">
<polygon fill="white" stroke="#666666" points="236.75,-134 169.75,-134 169.75,-114 236.75,-114 236.75,-134"/>
<text text-anchor="middle" x="203.25" y="-120.5" font-family="Helvetica,sans-Serif" font-size="10.00">Timer Driver</text>
</a>
</g>
</g>
<!-- Node1&#45;&gt;Node17 -->
<g id="edge16" class="edge">
<title>Node1&#45;&gt;Node17</title>
<path fill="none" stroke="black" d="M64.22,-306.31C74.84,-265.58 100.53,-187.93 150.25,-143 155.67,-138.1 162.45,-134.44 169.32,-131.71"/>
<polygon fill="black" stroke="black" points="60.63,-305.21 61.61,-315.76 67.43,-306.9 60.63,-305.21"/>
</g>
<!-- Node16 -->
<g id="Node000016" class="node">
<title>Node16</title>
<g id="a_Node000016"><a xlink:href="a00546.html" target="_top" xlink:title="Traps driver with handler for all types of traps using dsPIC MCUs.">
<polygon fill="white" stroke="#666666" points="236.75,-96 169.75,-96 169.75,-76 236.75,-76 236.75,-96"/>
<text text-anchor="middle" x="203.25" y="-82.5" font-family="Helvetica,sans-Serif" font-size="10.00">Traps Driver</text>
</a>
</g>
</g>
<!-- Node1&#45;&gt;Node16 -->
<g id="edge15" class="edge">
<title>Node1&#45;&gt;Node16</title>
<path fill="none" stroke="black" d="M61.83,-305.84C69.68,-258.62 92.25,-161.08 150.25,-105 155.57,-99.86 162.39,-96.09 169.34,-93.33"/>
<polygon fill="black" stroke="black" points="58.22,-305.28 60.15,-315.7 65.14,-306.36 58.22,-305.28"/>
</g>
<!-- Node18 -->
<g id="Node000018" class="node">
<title>Node18</title>
<g id="a_Node000018"><a xlink:href="a00548.html" target="_top" xlink:title="Universal Asynchronous Receiver Transmitter driver using dsPIC MCUs.">
<polygon fill="white" stroke="#666666" points="237.5,-58 169,-58 169,-38 237.5,-38 237.5,-58"/>
<text text-anchor="middle" x="203.25" y="-44.5" font-family="Helvetica,sans-Serif" font-size="10.00">UART Driver</text>
</a>
</g>
</g>
<!-- Node1&#45;&gt;Node18 -->
<g id="edge17" class="edge">
<title>Node1&#45;&gt;Node18</title>
<path fill="none" stroke="black" d="M60,-305.9C65.09,-252.88 83.67,-134.71 150.25,-67 155.3,-61.86 161.86,-58.1 168.6,-55.35"/>
<polygon fill="black" stroke="black" points="56.43,-305.49 59.06,-315.76 63.41,-306.1 56.43,-305.49"/>
</g>
<!-- Node11 -->
<g id="Node000011" class="node">
<title>Node11</title>
<g id="a_Node000011"><a xlink:href="a00541.html" target="_top" xlink:title="Watchdog Timer Driver using dsPIC MCUs.">
<polygon fill="white" stroke="#666666" points="235.62,-20 170.88,-20 170.88,0 235.62,0 235.62,-20"/>
<text text-anchor="middle" x="203.25" y="-6.5" font-family="Helvetica,sans-Serif" font-size="10.00">WDT Driver</text>
</a>
</g>
</g>
<!-- Node1&#45;&gt;Node11 -->
<g id="edge10" class="edge">
<title>Node1&#45;&gt;Node11</title>
<path fill="none" stroke="black" d="M58.6,-305.77C61.1,-247.28 75.11,-108.48 150.25,-29 155.73,-23.2 163.12,-19.17 170.61,-16.36"/>
<polygon fill="black" stroke="black" points="55.08,-305.56 58.24,-315.67 62.07,-305.8 55.08,-305.56"/>
</g>
</g>
</svg>

<g id="navigator" transform="translate(0 0)" fill="#404254">
  <rect fill="#f2f5e9" fill-opacity="0.5" stroke="#606060" stroke-width=".5" x="0" y="0" width="60" height="60"/>
  <use id="zoomplus" xlink:href="#zoomPlus" x="17" y="9" onmousedown="handleZoom(evt,'in')"/>
  <use id="zoomminus" xlink:href="#zoomMin" x="42" y="9" onmousedown="handleZoom(evt,'out')"/>
  <use id="reset" xlink:href="#resetDef" x="30" y="36" onmousedown="handleReset()"/>
   <use id="arrowup" xlink:href="#arrowUp" x="0" y="0" onmousedown="handlePan(0,-1)"/>
  <use id="arrowright" xlink:href="#arrowRight" x="0" y="0" onmousedown="handlePan(1,0)"/>
  <use id="arrowdown" xlink:href="#arrowDown" x="0" y="0" onmousedown="handlePan(0,1)"/>
  <use id="arrowleft" xlink:href="#arrowLeft" x="0" y="0" onmousedown="handlePan(-1,0)"/>
</g>
<svg viewBox="0 0 15 15" width="100%" height="30px" preserveAspectRatio="xMaxYMin meet">
 <g id="arrow_out" transform="scale(0.3 0.3)">
  <a xlink:href="a00530_org.svg" target="_base">
   <rect id="button" ry="5" rx="5" y="6" x="6" height="38" width="38"
        fill="#f2f5e9" fill-opacity="0.5" stroke="#606060" stroke-width="1.0"/>
   <path id="arrow"
     d="M 11.500037,31.436501 C 11.940474,20.09759 22.043105,11.32322 32.158766,21.979434 L 37.068811,17.246167 C 37.068811,17.246167 37.088388,32 37.088388,32 L 22.160133,31.978069 C 22.160133,31.978069 26.997745,27.140456 26.997745,27.140456 C 18.528582,18.264221 13.291696,25.230495 11.500037,31.436501 z"
     style="fill:#404040;"/>
  </a>
 </g>
</svg>

<style type='text/css'>
<![CDATA[
[data-mouse-over-selected='false'] { opacity: 0.7; }
[data-mouse-over-selected='true']  { opacity: 1.0; }
]]>
</style>
<script type="application/ecmascript"><![CDATA[
document.addEventListener('DOMContentLoaded', (event) => {
  highlightEdges();
  highlightAdjacentNodes();
});
]]></script>
</svg>
