<?xml version="1.0" encoding="UTF-8" standalone="no"?>
<!DOCTYPE svg PUBLIC "-//W3C//DTD SVG 1.1//EN"
 "http://www.w3.org/Graphics/SVG/1.1/DTD/svg11.dtd">
<!-- Generated by graphviz version 8.1.0 (20230707.0739)
 -->
<!-- Title: ADC1_ConversionResultGet Pages: 1 -->
<!--zoomable 116 -->

<svg id="main" version="1.1" xmlns="http://www.w3.org/2000/svg" xmlns:xlink="http://www.w3.org/1999/xlink" xml:space="preserve" onload="init(evt)">
<style type="text/css"><![CDATA[
.node, .edge {opacity: 0.7;}
.node.selected, .edge.selected {opacity: 1;}
.edge:hover path { stroke: red; }
.edge:hover polygon { stroke: red; fill: red; }
]]></style>

<defs>
  <circle id="rim" cx="0" cy="0" r="7"/>
  <circle id="rim2" cx="0" cy="0" r="3.5"/>
  <g id="zoomPlus">
    <use xlink:href="#rim" fill="#404040"><set attributeName="fill" to="#808080" begin="zoomplus.mouseover" end="zoomplus.mouseout"/></use>
    <path d="M-4,0h8M0,-4v8" fill="none" stroke="white" stroke-width="1.5" pointer-events="none"/>
  </g>
  <g id="zoomMin">
    <use xlink:href="#rim" fill="#404040"><set attributeName="fill" to="#808080" begin="zoomminus.mouseover" end="zoomminus.mouseout"/></use>
    <path d="M-4,0h8" fill="none" stroke="white" stroke-width="1.5" pointer-events="none"/>
  </g>
  <g id="arrowUp" transform="translate(30 24)">
    <use xlink:href="#rim"/>
    <path pointer-events="none" fill="none" stroke="white" stroke-width="1.5" d="M0,-3.0v7 M-2.5,-0.5L0,-3.0L2.5,-0.5"/>
  </g>
  <g id="arrowRight" transform="rotate(90) translate(36 -43)">
    <use xlink:href="#rim"/>
    <path pointer-events="none" fill="none" stroke="white" stroke-width="1.5" d="M0,-3.0v7 M-2.5,-0.5L0,-3.0L2.5,-0.5"/>
  </g>
  <g id="arrowDown" transform="rotate(180) translate(-30 -48)">
    <use xlink:href="#rim"/>
    <path pointer-events="none" fill="none" stroke="white" stroke-width="1.5" d="M0,-3.0v7 M-2.5,-0.5L0,-3.0L2.5,-0.5"/>
  </g>
  <g id="arrowLeft" transform="rotate(270) translate(-36 17)">
    <use xlink:href="#rim"/>
    <path pointer-events="none" fill="none" stroke="white" stroke-width="1.5" d="M0,-3.0v7 M-2.5,-0.5L0,-3.0L2.5,-0.5"/>
  </g>
  <g id="resetDef">
    <use xlink:href="#rim2" fill="#404040"><set attributeName="fill" to="#808080" begin="reset.mouseover" end="reset.mouseout"/></use>
  </g>
</defs>
<script type="application/ecmascript">
var viewWidth = 989;
var viewHeight = 116;
var sectionId = 'dynsection-7';
</script>
<script type="application/ecmascript" xlink:href="svg.min.js"/>
<svg id="graph" class="graph">
<g id="viewport">
<title>ADC1_ConversionResultGet</title>
<!-- Node1 -->
<g id="Node000001" class="node">
<title>Node1</title>
<g id="a_Node000001"><a xlink:title="Returns the conversion value for the channel selected.">
<polygon fill="#999999" stroke="#666666" points="981,-48 843.5,-48 843.5,-28 981,-28 981,-48"/>
<text text-anchor="middle" x="912.25" y="-34.5" font-family="Helvetica,sans-Serif" font-size="10.00">ADC1_ConversionResultGet</text>
</a>
</g>
</g>
<!-- Node2 -->
<g id="Node000002" class="node">
<title>Node2</title>
<g id="a_Node000002"><a xlink:href="a00500.html#gaaa75855922e60913d443c6203475256f" target="_top" xlink:title="Measures the currents sensor offset.">
<polygon fill="white" stroke="#666666" points="787.62,-70 648.62,-70 648.62,-50 787.62,-50 787.62,-70"/>
<text text-anchor="middle" x="718.12" y="-56.5" font-family="Helvetica,sans-Serif" font-size="10.00">Dev_CurrentSensorOffsetCal</text>
</a>
</g>
</g>
<!-- Node1&#45;&gt;Node2 -->
<g id="edge1_Node000001_Node000002" class="edge">
<title>Node1&#45;&gt;Node2</title>
<g id="a_edge1_Node000001_Node000002"><a xlink:title=" ">
<path fill="none" stroke="#63b8ff" d="M832.6,-47.01C817.82,-48.7 802.47,-50.46 788.01,-52.11"/>
<polygon fill="#63b8ff" stroke="#63b8ff" points="832.71,-50.4 842.24,-45.79 831.91,-43.45 832.71,-50.4"/>
</a>
</g>
</g>
<!-- Node8 -->
<g id="Node000008" class="node">
<title>Node8</title>
<g id="a_Node000008"><a xlink:href="a00490.html#ga4791758659b96e5cc584367e31cd3cc3" target="_top" xlink:title="This function updates the DAB data members with ADC raw values.">
<polygon fill="white" stroke="#666666" points="807.5,-29 628.75,-29 628.75,-9 807.5,-9 807.5,-29"/>
<text text-anchor="middle" x="718.12" y="-15.5" font-family="Helvetica,sans-Serif" font-size="10.00">Dev_PwrCtrl_UpdateADConverterData</text>
</a>
</g>
</g>
<!-- Node1&#45;&gt;Node8 -->
<g id="edge8_Node000001_Node000008" class="edge">
<title>Node1&#45;&gt;Node8</title>
<g id="a_edge8_Node000001_Node000008"><a xlink:title=" ">
<path fill="none" stroke="#63b8ff" d="M832.37,-30.2C824.3,-29.4 816.07,-28.59 807.9,-27.78"/>
<polygon fill="#63b8ff" stroke="#63b8ff" points="831.95,-33.77 842.24,-31.27 832.64,-26.81 831.95,-33.77"/>
</a>
</g>
</g>
<!-- Node3 -->
<g id="Node000003" class="node">
<title>Node3</title>
<g id="a_Node000003"><a xlink:href="a00492.html#ga8307344d190a5459682d315fc7bfe198" target="_top" xlink:title="Executes function for initialze state machine.">
<polygon fill="white" stroke="#666666" points="578.12,-108 483.38,-108 483.38,-88 578.12,-88 578.12,-108"/>
<text text-anchor="middle" x="530.75" y="-94.5" font-family="Helvetica,sans-Serif" font-size="10.00">PCS_INIT_handler</text>
</a>
</g>
</g>
<!-- Node2&#45;&gt;Node3 -->
<g id="edge2_Node000002_Node000003" class="edge">
<title>Node2&#45;&gt;Node3</title>
<g id="a_edge2_Node000002_Node000003"><a xlink:title=" ">
<path fill="none" stroke="#63b8ff" d="M655.47,-72.64C630.41,-77.78 601.92,-83.62 578.6,-88.4"/>
<polygon fill="#63b8ff" stroke="#63b8ff" points="655.89,-75.92 664.98,-70.48 654.48,-69.06 655.89,-75.92"/>
</a>
</g>
</g>
<!-- Node7 -->
<g id="Node000007" class="node">
<title>Node7</title>
<g id="a_Node000007"><a xlink:href="a00492.html#ga42f7c8f65745b2f81bb6dbd381ea8121" target="_top" xlink:title="Executes Standby State machine.">
<polygon fill="white" stroke="#666666" points="592.75,-70 468.75,-70 468.75,-50 592.75,-50 592.75,-70"/>
<text text-anchor="middle" x="530.75" y="-56.5" font-family="Helvetica,sans-Serif" font-size="10.00">PCS_STANDBY_handler</text>
</a>
</g>
</g>
<!-- Node2&#45;&gt;Node7 -->
<g id="edge6_Node000002_Node000007" class="edge">
<title>Node2&#45;&gt;Node7</title>
<g id="a_edge6_Node000002_Node000007"><a xlink:title=" ">
<path fill="none" stroke="#63b8ff" d="M637.61,-60C622.7,-60 607.32,-60 593.07,-60"/>
<polygon fill="#63b8ff" stroke="#63b8ff" points="637.36,-63.5 647.36,-60 637.36,-56.5 637.36,-63.5"/>
</a>
</g>
</g>
<!-- Node4 -->
<g id="Node000004" class="node">
<title>Node4</title>
<g id="a_Node000004"><a xlink:href="a00492.html#gaebef55c78d9df043c293ffcf8a06b63f" target="_top" xlink:title="Manages the power control state machine.">
<polygon fill="white" stroke="#666666" points="432.75,-89 299,-89 299,-69 432.75,-69 432.75,-89"/>
<text text-anchor="middle" x="365.88" y="-75.5" font-family="Helvetica,sans-Serif" font-size="10.00">Dev_PwrCtrl_StateMachine</text>
</a>
</g>
</g>
<!-- Node3&#45;&gt;Node4 -->
<g id="edge3_Node000003_Node000004" class="edge">
<title>Node3&#45;&gt;Node4</title>
<g id="a_edge3_Node000003_Node000004"><a xlink:title=" ">
<path fill="none" stroke="#63b8ff" d="M472.18,-91.28C459.5,-89.8 445.97,-88.23 432.97,-86.71"/>
<polygon fill="#63b8ff" stroke="#63b8ff" points="471.74,-94.87 482.08,-92.56 472.55,-87.92 471.74,-94.87"/>
</a>
</g>
</g>
<!-- Node5 -->
<g id="Node000005" class="node">
<title>Node5</title>
<g id="a_Node000005"><a xlink:href="a00489.html#gad5d6590aeda3bb06b60874802edc14f6" target="_top" xlink:title="Executes the power control state machine.">
<polygon fill="white" stroke="#666666" points="263,-89 153.25,-89 153.25,-69 263,-69 263,-89"/>
<text text-anchor="middle" x="208.12" y="-75.5" font-family="Helvetica,sans-Serif" font-size="10.00">Dev_PwrCtrl_Execute</text>
</a>
</g>
</g>
<!-- Node4&#45;&gt;Node5 -->
<g id="edge4_Node000004_Node000005" class="edge">
<title>Node4&#45;&gt;Node5</title>
<g id="a_edge4_Node000004_Node000005"><a xlink:title=" ">
<path fill="none" stroke="#63b8ff" d="M287.84,-79C279.45,-79 271.05,-79 263.03,-79"/>
<polygon fill="#63b8ff" stroke="#63b8ff" points="287.82,-82.5 297.82,-79 287.82,-75.5 287.82,-82.5"/>
</a>
</g>
</g>
<!-- Node6 -->
<g id="Node000006" class="node">
<title>Node6</title>
<g id="a_Node000006"><a xlink:href="a00507.html#gad258f19a1b6a855fef3c71f54bb5539e" target="_top" xlink:title="Tasks_Realtime_100us gets called directly from the timer interrupt every 100 µs.">
<polygon fill="white" stroke="#666666" points="117.25,-89 0,-89 0,-69 117.25,-69 117.25,-89"/>
<text text-anchor="middle" x="58.62" y="-75.5" font-family="Helvetica,sans-Serif" font-size="10.00">Tasks_Realtime_100us</text>
</a>
</g>
</g>
<!-- Node5&#45;&gt;Node6 -->
<g id="edge5_Node000005_Node000006" class="edge">
<title>Node5&#45;&gt;Node6</title>
<g id="a_edge5_Node000005_Node000006"><a xlink:title=" ">
<path fill="none" stroke="#63b8ff" d="M142.08,-79C133.96,-79 125.69,-79 117.68,-79"/>
<polygon fill="#63b8ff" stroke="#63b8ff" points="142.04,-82.5 152.04,-79 142.04,-75.5 142.04,-82.5"/>
</a>
</g>
</g>
<!-- Node7&#45;&gt;Node4 -->
<g id="edge7_Node000007_Node000004" class="edge">
<title>Node7&#45;&gt;Node4</title>
<g id="a_edge7_Node000007_Node000004"><a xlink:title=" ">
<path fill="none" stroke="#63b8ff" d="M457.94,-68.38C449.73,-69.33 441.38,-70.31 433.24,-71.26"/>
<polygon fill="#63b8ff" stroke="#63b8ff" points="458.11,-71.76 467.64,-67.13 457.3,-64.81 458.11,-71.76"/>
</a>
</g>
</g>
<!-- Node9 -->
<g id="Node000009" class="node">
<title>Node9</title>
<g id="a_Node000009"><a xlink:href="a00490.html#gae32c9e5ed4d1fb98fc13b26601782c10" target="_top" xlink:title="Executes the power conveter&#39;s control loop.">
<polygon fill="white" stroke="#666666" points="584.88,-32 476.62,-32 476.62,0 584.88,0 584.88,-32"/>
<text text-anchor="start" x="484.62" y="-18.5" font-family="Helvetica,sans-Serif" font-size="10.00">ControlLoop_Interrupt</text>
<text text-anchor="middle" x="530.75" y="-6.5" font-family="Helvetica,sans-Serif" font-size="10.00">_CallBack</text>
</a>
</g>
</g>
<!-- Node8&#45;&gt;Node9 -->
<g id="edge9_Node000008_Node000009" class="edge">
<title>Node8&#45;&gt;Node9</title>
<g id="a_edge9_Node000008_Node000009"><a xlink:title=" ">
<path fill="none" stroke="#63b8ff" d="M617.75,-17.39C606.55,-17.21 595.48,-17.03 585.2,-16.87"/>
<polygon fill="#63b8ff" stroke="#63b8ff" points="617.45,-20.9 627.51,-17.57 617.57,-13.9 617.45,-20.9"/>
</a>
</g>
</g>
</g>
</svg>

<g id="navigator" transform="translate(0 0)" fill="#404254">
  <rect fill="#f2f5e9" fill-opacity="0.5" stroke="#606060" stroke-width=".5" x="0" y="0" width="60" height="60"/>
  <use id="zoomplus" xlink:href="#zoomPlus" x="17" y="9" onmousedown="handleZoom(evt,'in')"/>
  <use id="zoomminus" xlink:href="#zoomMin" x="42" y="9" onmousedown="handleZoom(evt,'out')"/>
  <use id="reset" xlink:href="#resetDef" x="30" y="36" onmousedown="handleReset()"/>
   <use id="arrowup" xlink:href="#arrowUp" x="0" y="0" onmousedown="handlePan(0,-1)"/>
  <use id="arrowright" xlink:href="#arrowRight" x="0" y="0" onmousedown="handlePan(1,0)"/>
  <use id="arrowdown" xlink:href="#arrowDown" x="0" y="0" onmousedown="handlePan(0,1)"/>
  <use id="arrowleft" xlink:href="#arrowLeft" x="0" y="0" onmousedown="handlePan(-1,0)"/>
</g>
<svg viewBox="0 0 15 15" width="100%" height="30px" preserveAspectRatio="xMaxYMin meet">
 <g id="arrow_out" transform="scale(0.3 0.3)">
  <a xlink:href="a00510_gaf4b6f81a05012533b633a78dad7b6a98_icgraph_org.svg" target="_base">
   <rect id="button" ry="5" rx="5" y="6" x="6" height="38" width="38"
        fill="#f2f5e9" fill-opacity="0.5" stroke="#606060" stroke-width="1.0"/>
   <path id="arrow"
     d="M 11.500037,31.436501 C 11.940474,20.09759 22.043105,11.32322 32.158766,21.979434 L 37.068811,17.246167 C 37.068811,17.246167 37.088388,32 37.088388,32 L 22.160133,31.978069 C 22.160133,31.978069 26.997745,27.140456 26.997745,27.140456 C 18.528582,18.264221 13.291696,25.230495 11.500037,31.436501 z"
     style="fill:#404040;"/>
  </a>
 </g>
</svg>

<style type='text/css'>
<![CDATA[
[data-mouse-over-selected='false'] { opacity: 0.7; }
[data-mouse-over-selected='true']  { opacity: 1.0; }
]]>
</style>
<script type="application/ecmascript"><![CDATA[
document.addEventListener('DOMContentLoaded', (event) => {
  highlightEdges();
  highlightAdjacentNodes();
});
]]></script>
</svg>
