<?xml version="1.0" encoding="UTF-8" standalone="no"?>
<!DOCTYPE svg PUBLIC "-//W3C//DTD SVG 1.1//EN"
 "http://www.w3.org/Graphics/SVG/1.1/DTD/svg11.dtd">
<!-- Generated by graphviz version 8.1.0 (20230707.0739)
 -->
<!-- Title: ADC1_IsConversionComplete Pages: 1 -->
<svg width="489pt" height="40pt"
 viewBox="0.00 0.00 488.75 40.00" xmlns="http://www.w3.org/2000/svg" xmlns:xlink="http://www.w3.org/1999/xlink">
<g id="graph0" class="graph" transform="scale(1 1) rotate(0) translate(4 36)">
<title>ADC1_IsConversionComplete</title>
<!-- Node1 -->
<g id="Node000001" class="node">
<title>Node1</title>
<g id="a_Node000001"><a xlink:title="This inline function returns the status of conversion.This function is used to determine if conversio...">
<polygon fill="#999999" stroke="#666666" points="480.75,-26 338,-26 338,-6 480.75,-6 480.75,-26"/>
<text text-anchor="middle" x="409.38" y="-12.5" font-family="Helvetica,sans-Serif" font-size="10.00">ADC1_IsConversionComplete</text>
</a>
</g>
</g>
<!-- Node2 -->
<g id="Node000002" class="node">
<title>Node2</title>
<g id="a_Node000002"><a xlink:href="a00519.html#gaa34c5b66d8f20f01daef50d0e88cf20e" target="_top" xlink:title="This function updates the DAB data members with ADC raw values.">
<polygon fill="white" stroke="#666666" points="302,-26 144.25,-26 144.25,-6 302,-6 302,-26"/>
<text text-anchor="middle" x="223.12" y="-12.5" font-family="Helvetica,sans-Serif" font-size="10.00">PwrCtrl_UpdateADConverterData</text>
</a>
</g>
</g>
<!-- Node1&#45;&gt;Node2 -->
<g id="edge1_Node000001_Node000002" class="edge">
<title>Node1&#45;&gt;Node2</title>
<g id="a_edge1_Node000001_Node000002"><a xlink:title=" ">
<path fill="none" stroke="#63b8ff" d="M326.7,-16C318.6,-16 310.38,-16 302.31,-16"/>
<polygon fill="#63b8ff" stroke="#63b8ff" points="326.67,-19.5 336.67,-16 326.67,-12.5 326.67,-19.5"/>
</a>
</g>
</g>
<!-- Node3 -->
<g id="Node000003" class="node">
<title>Node3</title>
<g id="a_Node000003"><a xlink:href="a00519.html#gae32c9e5ed4d1fb98fc13b26601782c10" target="_top" xlink:title="Executes the power converter control loop.">
<polygon fill="white" stroke="#666666" points="108.25,-32 0,-32 0,0 108.25,0 108.25,-32"/>
<text text-anchor="start" x="8" y="-18.5" font-family="Helvetica,sans-Serif" font-size="10.00">ControlLoop_Interrupt</text>
<text text-anchor="middle" x="54.12" y="-6.5" font-family="Helvetica,sans-Serif" font-size="10.00">_CallBack</text>
</a>
</g>
</g>
<!-- Node2&#45;&gt;Node3 -->
<g id="edge2_Node000002_Node000003" class="edge">
<title>Node2&#45;&gt;Node3</title>
<g id="a_edge2_Node000002_Node000003"><a xlink:title=" ">
<path fill="none" stroke="#63b8ff" d="M133.25,-16C124.78,-16 116.38,-16 108.4,-16"/>
<polygon fill="#63b8ff" stroke="#63b8ff" points="133,-19.5 143,-16 133,-12.5 133,-19.5"/>
</a>
</g>
</g>
</g>
</svg>
