<?xml version="1.0" encoding="UTF-8" standalone="no"?>
<!DOCTYPE svg PUBLIC "-//W3C//DTD SVG 1.1//EN"
 "http://www.w3.org/Graphics/SVG/1.1/DTD/svg11.dtd">
<!-- Generated by graphviz version 8.1.0 (20230707.0739)
 -->
<!-- Title: CRC_CalculationResultRawGet Pages: 1 -->
<svg width="532pt" height="85pt"
 viewBox="0.00 0.00 532.25 85.00" xmlns="http://www.w3.org/2000/svg" xmlns:xlink="http://www.w3.org/1999/xlink">
<g id="graph0" class="graph" transform="scale(1 1) rotate(0) translate(4 81)">
<title>CRC_CalculationResultRawGet</title>
<!-- Node1 -->
<g id="Node000001" class="node">
<title>Node1</title>
<g id="a_Node000001"><a xlink:title="Gets the CRC raw result if the calculation is done.">
<polygon fill="#999999" stroke="#666666" points="524.25,-58 372.5,-58 372.5,-38 524.25,-38 524.25,-58"/>
<text text-anchor="middle" x="448.38" y="-44.5" font-family="Helvetica,sans-Serif" font-size="10.00">CRC_CalculationResultRawGet</text>
</a>
</g>
</g>
<!-- Node2 -->
<g id="Node000002" class="node">
<title>Node2</title>
<g id="a_Node000002"><a xlink:href="a00524.html#ga595814562acde8c6c22c92af9c33ca16" target="_top" xlink:title="Gets the CRC result if the calculation is done.">
<polygon fill="white" stroke="#666666" points="133,-77 0,-77 0,-57 133,-57 133,-77"/>
<text text-anchor="middle" x="66.5" y="-63.5" font-family="Helvetica,sans-Serif" font-size="10.00">CRC_CalculationResultGet</text>
</a>
</g>
</g>
<!-- Node1&#45;&gt;Node2 -->
<g id="edge1_Node000001_Node000002" class="edge">
<title>Node1&#45;&gt;Node2</title>
<g id="a_edge1_Node000001_Node000002"><a xlink:title=" ">
<path fill="none" stroke="#63b8ff" d="M386.66,-60.31C370.44,-63.08 352.86,-65.61 336.5,-67 267.4,-72.88 187.95,-71.94 133.41,-70.11"/>
<polygon fill="#63b8ff" stroke="#63b8ff" points="386.86,-63.66 396.1,-58.47 385.65,-56.76 386.86,-63.66"/>
</a>
</g>
</g>
<!-- Node3 -->
<g id="Node000003" class="node">
<title>Node3</title>
<g id="a_Node000003"><a xlink:href="a00524.html#gae32b26f5e43c6cb51a808454b8645c3a" target="_top" xlink:title="Gets the CRC reversed value of result if the calculation is done.">
<polygon fill="white" stroke="#666666" points="336.5,-58 169,-58 169,-38 336.5,-38 336.5,-58"/>
<text text-anchor="middle" x="252.75" y="-44.5" font-family="Helvetica,sans-Serif" font-size="10.00">CRC_CalculationResultReverseGet</text>
</a>
</g>
</g>
<!-- Node1&#45;&gt;Node3 -->
<g id="edge2_Node000001_Node000003" class="edge">
<title>Node1&#45;&gt;Node3</title>
<g id="a_edge2_Node000001_Node000003"><a xlink:title=" ">
<path fill="none" stroke="#63b8ff" d="M361.27,-48C353.16,-48 344.96,-48 336.88,-48"/>
<polygon fill="#63b8ff" stroke="#63b8ff" points="361.24,-51.5 371.24,-48 361.24,-44.5 361.24,-51.5"/>
</a>
</g>
</g>
<!-- Node4 -->
<g id="Node000004" class="node">
<title>Node4</title>
<g id="a_Node000004"><a xlink:href="a00524.html#gad79b80b3d8a690fbfa807ce0a3a7d399" target="_top" xlink:title="Gets the CRC XOR&#39;d value of the result if the calculation is done.">
<polygon fill="white" stroke="#666666" points="329,-20 176.5,-20 176.5,0 329,0 329,-20"/>
<text text-anchor="middle" x="252.75" y="-6.5" font-family="Helvetica,sans-Serif" font-size="10.00">CRC_CalculationResultXORGet</text>
</a>
</g>
</g>
<!-- Node1&#45;&gt;Node4 -->
<g id="edge4_Node000001_Node000004" class="edge">
<title>Node1&#45;&gt;Node4</title>
<g id="a_edge4_Node000001_Node000004"><a xlink:title=" ">
<path fill="none" stroke="#63b8ff" d="M383.22,-35.41C358.5,-30.56 330.57,-25.08 307,-20.45"/>
<polygon fill="#63b8ff" stroke="#63b8ff" points="382.47,-39.02 392.95,-37.52 383.81,-32.16 382.47,-39.02"/>
</a>
</g>
</g>
<!-- Node3&#45;&gt;Node2 -->
<g id="edge3_Node000003_Node000002" class="edge">
<title>Node3&#45;&gt;Node2</title>
<g id="a_edge3_Node000003_Node000002"><a xlink:title=" ">
<path fill="none" stroke="#63b8ff" d="M157.68,-57.7C149.42,-58.55 141.19,-59.4 133.24,-60.22"/>
<polygon fill="#63b8ff" stroke="#63b8ff" points="157.93,-61.09 167.52,-56.58 157.21,-54.13 157.93,-61.09"/>
</a>
</g>
</g>
</g>
</svg>
