<?xml version="1.0" encoding="UTF-8" standalone="no"?>
<!DOCTYPE svg PUBLIC "-//W3C//DTD SVG 1.1//EN"
 "http://www.w3.org/Graphics/SVG/1.1/DTD/svg11.dtd">
<!-- Generated by graphviz version 8.1.0 (20230707.0739)
 -->
<!-- Title: CLC1_Initialize Pages: 1 -->
<svg width="267pt" height="204pt"
 viewBox="0.00 0.00 266.50 204.00" xmlns="http://www.w3.org/2000/svg" xmlns:xlink="http://www.w3.org/1999/xlink">
<g id="graph0" class="graph" transform="scale(1 1) rotate(0) translate(4 200)">
<title>CLC1_Initialize</title>
<!-- Node1 -->
<g id="Node000001" class="node">
<title>Node1</title>
<g id="a_Node000001"><a xlink:title="Initializes the CLC1 module.">
<polygon fill="#999999" stroke="#666666" points="80.5,-114 0,-114 0,-94 80.5,-94 80.5,-114"/>
<text text-anchor="middle" x="40.25" y="-100.5" font-family="Helvetica,sans-Serif" font-size="10.00">CLC1_Initialize</text>
</a>
</g>
</g>
<!-- Node2 -->
<g id="Node000002" class="node">
<title>Node2</title>
<g id="a_Node000002"><a xlink:href="a00555.html#ga7c85f3e09616a9a2855839d4b45c0e43" target="_top" xlink:title="This inline function enables the CLC1 module.">
<polygon fill="white" stroke="#666666" points="225.12,-196 149.88,-196 149.88,-176 225.12,-176 225.12,-196"/>
<text text-anchor="middle" x="187.5" y="-182.5" font-family="Helvetica,sans-Serif" font-size="10.00">CLC1_Enable</text>
</a>
</g>
</g>
<!-- Node1&#45;&gt;Node2 -->
<g id="edge1_Node000001_Node000002" class="edge">
<title>Node1&#45;&gt;Node2</title>
<g id="a_edge1_Node000001_Node000002"><a xlink:title=" ">
<path fill="none" stroke="#63b8ff" d="M50.46,-114.07C63.74,-127.99 89.61,-152.97 116.5,-167 123.48,-170.65 131.24,-173.64 138.96,-176.09"/>
<polygon fill="#63b8ff" stroke="#63b8ff" points="137.83,-179.7 148.41,-179.1 139.77,-172.97 137.83,-179.7"/>
</a>
</g>
</g>
<!-- Node3 -->
<g id="Node000003" class="node">
<title>Node3</title>
<g id="a_Node000003"><a xlink:href="a00555.html#gaf25cf35f34affb5c7832814688a02873" target="_top" xlink:title="This is the default callback with weak attribute. The user can override and implement the default cal...">
<polygon fill="white" stroke="#666666" points="258.5,-158 116.5,-158 116.5,-138 258.5,-138 258.5,-158"/>
<text text-anchor="middle" x="187.5" y="-144.5" font-family="Helvetica,sans-Serif" font-size="10.00">CLC1_NegativeEdgeCallback</text>
</a>
</g>
</g>
<!-- Node1&#45;&gt;Node3 -->
<g id="edge2_Node000001_Node000003" class="edge">
<title>Node1&#45;&gt;Node3</title>
<g id="a_edge2_Node000001_Node000003"><a xlink:title=" ">
<path fill="none" stroke="#63b8ff" d="M71.52,-114.48C85.2,-119.11 101.61,-124.51 116.5,-129 122.83,-130.91 129.51,-132.83 136.12,-134.69"/>
<polygon fill="#63b8ff" stroke="#63b8ff" points="134.84,-138.24 145.41,-137.53 136.71,-131.49 134.84,-138.24"/>
</a>
</g>
</g>
<!-- Node4 -->
<g id="Node000004" class="node">
<title>Node4</title>
<g id="a_Node000004"><a xlink:href="a00555.html#gab37490b9172b07cf29c311b7501d04f6" target="_top" xlink:title="This function can be used to override default callback and to define custom callback for CLC1 Negativ...">
<polygon fill="white" stroke="#666666" points="258.5,-120 116.5,-120 116.5,-88 258.5,-88 258.5,-120"/>
<text text-anchor="start" x="124.5" y="-106.5" font-family="Helvetica,sans-Serif" font-size="10.00">CLC1_NegativeEdgeCallback</text>
<text text-anchor="middle" x="187.5" y="-94.5" font-family="Helvetica,sans-Serif" font-size="10.00">Register</text>
</a>
</g>
</g>
<!-- Node1&#45;&gt;Node4 -->
<g id="edge3_Node000001_Node000004" class="edge">
<title>Node1&#45;&gt;Node4</title>
<g id="a_edge3_Node000001_Node000004"><a xlink:title=" ">
<path fill="none" stroke="#63b8ff" d="M80.94,-104C88.62,-104 96.92,-104 105.38,-104"/>
<polygon fill="#63b8ff" stroke="#63b8ff" points="105.14,-107.5 115.14,-104 105.14,-100.5 105.14,-107.5"/>
</a>
</g>
</g>
<!-- Node5 -->
<g id="Node000005" class="node">
<title>Node5</title>
<g id="a_Node000005"><a xlink:href="a00555.html#ga055481a146c113692385b653e64331f8" target="_top" xlink:title="This is the default callback with weak attribute. The user can override and implement the default cal...">
<polygon fill="white" stroke="#666666" points="257,-70 118,-70 118,-50 257,-50 257,-70"/>
<text text-anchor="middle" x="187.5" y="-56.5" font-family="Helvetica,sans-Serif" font-size="10.00">CLC1_PositiveEdgeCallback</text>
</a>
</g>
</g>
<!-- Node1&#45;&gt;Node5 -->
<g id="edge4_Node000001_Node000005" class="edge">
<title>Node1&#45;&gt;Node5</title>
<g id="a_edge4_Node000001_Node000005"><a xlink:title=" ">
<path fill="none" stroke="#63b8ff" d="M71.52,-93.52C85.2,-88.89 101.61,-83.49 116.5,-79 122.83,-77.09 129.51,-75.17 136.12,-73.31"/>
<polygon fill="#63b8ff" stroke="#63b8ff" points="136.71,-76.51 145.41,-70.47 134.84,-69.76 136.71,-76.51"/>
</a>
</g>
</g>
<!-- Node6 -->
<g id="Node000006" class="node">
<title>Node6</title>
<g id="a_Node000006"><a xlink:href="a00555.html#gaecad61896990ca955aab640a8609a74d" target="_top" xlink:title="This function can be used to override default callback and to define custom callback for CLC1 Positiv...">
<polygon fill="white" stroke="#666666" points="257,-32 118,-32 118,0 257,0 257,-32"/>
<text text-anchor="start" x="126" y="-18.5" font-family="Helvetica,sans-Serif" font-size="10.00">CLC1_PositiveEdgeCallback</text>
<text text-anchor="middle" x="187.5" y="-6.5" font-family="Helvetica,sans-Serif" font-size="10.00">Register</text>
</a>
</g>
</g>
<!-- Node1&#45;&gt;Node6 -->
<g id="edge5_Node000001_Node000006" class="edge">
<title>Node1&#45;&gt;Node6</title>
<g id="a_edge5_Node000001_Node000006"><a xlink:title=" ">
<path fill="none" stroke="#63b8ff" d="M51.08,-93.75C64.67,-80.09 90.48,-55.9 116.5,-41 118.99,-39.58 121.57,-38.21 124.21,-36.91"/>
<polygon fill="#63b8ff" stroke="#63b8ff" points="125.34,-39.78 132.98,-32.44 122.43,-33.42 125.34,-39.78"/>
</a>
</g>
</g>
</g>
</svg>
