<?xml version="1.0" encoding="UTF-8" standalone="no"?>
<!DOCTYPE svg PUBLIC "-//W3C//DTD SVG 1.1//EN"
 "http://www.w3.org/Graphics/SVG/1.1/DTD/svg11.dtd">
<!-- Generated by graphviz version 8.1.0 (20230707.0739)
 -->
<!-- Title: CAN1_OperationModeGet Pages: 1 -->
<svg width="609pt" height="192pt"
 viewBox="0.00 0.00 609.00 192.00" xmlns="http://www.w3.org/2000/svg" xmlns:xlink="http://www.w3.org/1999/xlink">
<g id="graph0" class="graph" transform="scale(1 1) rotate(0) translate(4 188)">
<title>CAN1_OperationModeGet</title>
<!-- Node1 -->
<g id="Node000001" class="node">
<title>Node1</title>
<g id="a_Node000001"><a xlink:title="Get the CAN1 operation mode.">
<polygon fill="#999999" stroke="#666666" points="601,-86 472.5,-86 472.5,-66 601,-66 601,-86"/>
<text text-anchor="middle" x="536.75" y="-72.5" font-family="Helvetica,sans-Serif" font-size="10.00">CAN1_OperationModeGet</text>
</a>
</g>
</g>
<!-- Node2 -->
<g id="Node000002" class="node">
<title>Node2</title>
<g id="a_Node000002"><a xlink:href="a00533.html#gaf5fa07221c88fc4aadfb447301ebfb0e" target="_top" xlink:title="Sets the CAN1 operation mode.">
<polygon fill="white" stroke="#666666" points="436.5,-127 308.75,-127 308.75,-107 436.5,-107 436.5,-127"/>
<text text-anchor="middle" x="372.62" y="-113.5" font-family="Helvetica,sans-Serif" font-size="10.00">CAN1_OperationModeSet</text>
</a>
</g>
</g>
<!-- Node1&#45;&gt;Node2 -->
<g id="edge1_Node000001_Node000002" class="edge">
<title>Node1&#45;&gt;Node2</title>
<g id="a_edge1_Node000001_Node000002"><a xlink:title=" ">
<path fill="none" stroke="#63b8ff" d="M483.79,-89.14C461.5,-94.78 435.83,-101.27 414.88,-106.57"/>
<polygon fill="#63b8ff" stroke="#63b8ff" points="484.58,-92.3 493.42,-86.45 482.87,-85.51 484.58,-92.3"/>
</a>
</g>
</g>
<!-- Node7 -->
<g id="Node000007" class="node">
<title>Node7</title>
<g id="a_Node000007"><a xlink:href="a00533.html#gad99c960d1ed589ce80aca873a90e068e" target="_top" xlink:title="Writes the CAN message object to specified transmit FIFO channel.">
<polygon fill="white" stroke="#666666" points="414.75,-64 330.5,-64 330.5,-44 414.75,-44 414.75,-64"/>
<text text-anchor="middle" x="372.62" y="-50.5" font-family="Helvetica,sans-Serif" font-size="10.00">CAN1_Transmit</text>
</a>
</g>
</g>
<!-- Node1&#45;&gt;Node7 -->
<g id="edge6_Node000001_Node000007" class="edge">
<title>Node1&#45;&gt;Node7</title>
<g id="a_edge6_Node000001_Node000007"><a xlink:title=" ">
<path fill="none" stroke="#63b8ff" d="M461.25,-65.89C445.39,-63.74 429.2,-61.54 415.12,-59.63"/>
<polygon fill="#63b8ff" stroke="#63b8ff" points="460.76,-69.49 471.14,-67.37 461.7,-62.56 460.76,-69.49"/>
</a>
</g>
</g>
<!-- Node3 -->
<g id="Node000003" class="node">
<title>Node3</title>
<g id="a_Node000003"><a xlink:href="a00533.html#gaeb50d539a3c66d129458ae0927c3ba34" target="_top" xlink:title="Deinitializes CAN1 to POR values.">
<polygon fill="white" stroke="#666666" points="249.88,-184 155.88,-184 155.88,-164 249.88,-164 249.88,-184"/>
<text text-anchor="middle" x="202.88" y="-170.5" font-family="Helvetica,sans-Serif" font-size="10.00">CAN1_Deinitialize</text>
</a>
</g>
</g>
<!-- Node2&#45;&gt;Node3 -->
<g id="edge2_Node000002_Node000003" class="edge">
<title>Node2&#45;&gt;Node3</title>
<g id="a_edge2_Node000002_Node000003"><a xlink:title=" ">
<path fill="none" stroke="#63b8ff" d="M336.51,-131.46C317.75,-138.93 294.17,-147.95 272.75,-155 263.68,-157.99 253.83,-160.9 244.5,-163.5"/>
<polygon fill="#63b8ff" stroke="#63b8ff" points="337.7,-134.35 345.67,-127.37 335.09,-127.85 337.7,-134.35"/>
</a>
</g>
</g>
<!-- Node4 -->
<g id="Node000004" class="node">
<title>Node4</title>
<g id="a_Node000004"><a xlink:href="a00533.html#gadd8850a15e40f5316f9e614fd70ec956" target="_top" xlink:title="Initializes CAN1 module.">
<polygon fill="white" stroke="#666666" points="243.88,-146 161.88,-146 161.88,-126 243.88,-126 243.88,-146"/>
<text text-anchor="middle" x="202.88" y="-132.5" font-family="Helvetica,sans-Serif" font-size="10.00">CAN1_Initialize</text>
</a>
</g>
</g>
<!-- Node2&#45;&gt;Node4 -->
<g id="edge3_Node000002_Node000004" class="edge">
<title>Node2&#45;&gt;Node4</title>
<g id="a_edge3_Node000002_Node000004"><a xlink:title=" ">
<path fill="none" stroke="#63b8ff" d="M297.94,-125.35C279.5,-127.43 260.41,-129.6 244.28,-131.42"/>
<polygon fill="#63b8ff" stroke="#63b8ff" points="298.14,-128.73 307.68,-124.13 297.35,-121.78 298.14,-128.73"/>
</a>
</g>
</g>
<!-- Node6 -->
<g id="Node000006" class="node">
<title>Node6</title>
<g id="a_Node000006"><a xlink:href="a00533.html#ga41d9a27d9d5e04efcb58c31006f43f98" target="_top" xlink:title="Sets the CAN node in sleep mode.">
<polygon fill="white" stroke="#666666" points="238.62,-108 167.12,-108 167.12,-88 238.62,-88 238.62,-108"/>
<text text-anchor="middle" x="202.88" y="-94.5" font-family="Helvetica,sans-Serif" font-size="10.00">CAN1_Sleep</text>
</a>
</g>
</g>
<!-- Node2&#45;&gt;Node6 -->
<g id="edge5_Node000002_Node000006" class="edge">
<title>Node2&#45;&gt;Node6</title>
<g id="a_edge5_Node000002_Node000006"><a xlink:title=" ">
<path fill="none" stroke="#63b8ff" d="M297.76,-108.63C277.29,-106.32 256.02,-103.91 238.91,-101.97"/>
<polygon fill="#63b8ff" stroke="#63b8ff" points="297.35,-112.22 307.68,-109.87 298.14,-105.27 297.35,-112.22"/>
</a>
</g>
</g>
<!-- Node5 -->
<g id="Node000005" class="node">
<title>Node5</title>
<g id="a_Node000005"><a xlink:href="a00543.html#ga5e8391114a0cf91ac20002be25e3d352" target="_top" xlink:title="Initializes the System module.">
<polygon fill="white" stroke="#666666" points="97,-146 0,-146 0,-126 97,-126 97,-146"/>
<text text-anchor="middle" x="48.5" y="-132.5" font-family="Helvetica,sans-Serif" font-size="10.00">SYSTEM_Initialize</text>
</a>
</g>
</g>
<!-- Node4&#45;&gt;Node5 -->
<g id="edge4_Node000004_Node000005" class="edge">
<title>Node4&#45;&gt;Node5</title>
<g id="a_edge4_Node000004_Node000005"><a xlink:title=" ">
<path fill="none" stroke="#63b8ff" d="M150.49,-136C133.34,-136 114.31,-136 97.44,-136"/>
<polygon fill="#63b8ff" stroke="#63b8ff" points="150.44,-139.5 160.44,-136 150.44,-132.5 150.44,-139.5"/>
</a>
</g>
</g>
<!-- Node8 -->
<g id="Node000008" class="node">
<title>Node8</title>
<g id="a_Node000008"><a xlink:href="a00503.html#ga8a1a918272c7acb8edadb6686bdf7410" target="_top" xlink:title="transmits the Ascii msg to PBV">
<polygon fill="white" stroke="#666666" points="268.62,-70 137.12,-70 137.12,-38 268.62,-38 268.62,-70"/>
<text text-anchor="start" x="145.12" y="-56.5" font-family="Helvetica,sans-Serif" font-size="10.00">PBV_CAN_Transmit_Ascii</text>
<text text-anchor="middle" x="202.88" y="-44.5" font-family="Helvetica,sans-Serif" font-size="10.00">_to_GUI</text>
</a>
</g>
</g>
<!-- Node7&#45;&gt;Node8 -->
<g id="edge7_Node000007_Node000008" class="edge">
<title>Node7&#45;&gt;Node8</title>
<g id="a_edge7_Node000007_Node000008"><a xlink:title=" ">
<path fill="none" stroke="#63b8ff" d="M319.43,-54C303.48,-54 285.73,-54 269.02,-54"/>
<polygon fill="#63b8ff" stroke="#63b8ff" points="319.16,-57.5 329.16,-54 319.16,-50.5 319.16,-57.5"/>
</a>
</g>
</g>
<!-- Node9 -->
<g id="Node000009" class="node">
<title>Node9</title>
<g id="a_Node000009"><a xlink:href="a00503.html#gae06ebd7cad07c3a104d5b46c6f6323dc" target="_top" xlink:title="Transmits the numerical msg to PBV.">
<polygon fill="white" stroke="#666666" points="272.75,-20 133,-20 133,0 272.75,0 272.75,-20"/>
<text text-anchor="middle" x="202.88" y="-6.5" font-family="Helvetica,sans-Serif" font-size="10.00">PBV_CAN_Transmit_to_GUI</text>
</a>
</g>
</g>
<!-- Node7&#45;&gt;Node9 -->
<g id="edge8_Node000007_Node000009" class="edge">
<title>Node7&#45;&gt;Node9</title>
<g id="a_edge8_Node000007_Node000009"><a xlink:title=" ">
<path fill="none" stroke="#63b8ff" d="M321.52,-40.86C296.62,-34.33 266.95,-26.54 243.63,-20.43"/>
<polygon fill="#63b8ff" stroke="#63b8ff" points="320.31,-44.42 330.87,-43.57 322.09,-37.65 320.31,-44.42"/>
</a>
</g>
</g>
</g>
</svg>
