<?xml version="1.0" encoding="UTF-8" standalone="no"?>
<!DOCTYPE svg PUBLIC "-//W3C//DTD SVG 1.1//EN"
 "http://www.w3.org/Graphics/SVG/1.1/DTD/svg11.dtd">
<!-- Generated by graphviz version 8.1.0 (20230707.0739)
 -->
<!-- Title: Power Control Pages: 1 -->
<svg width="325pt" height="142pt"
 viewBox="0.00 0.00 325.25 142.00" xmlns="http://www.w3.org/2000/svg" xmlns:xlink="http://www.w3.org/1999/xlink">

<svg id="main" version="1.1" xmlns="http://www.w3.org/2000/svg" xmlns:xlink="http://www.w3.org/1999/xlink" xml:space="preserve" onload="init(evt)">
<style type="text/css"><![CDATA[
.node, .edge {opacity: 0.7;}
.node.selected, .edge.selected {opacity: 1;}
.edge:hover path { stroke: red; }
.edge:hover polygon { stroke: red; fill: red; }
]]></style>
<script type="application/ecmascript" xlink:href="svg.min.js"/>
<svg id="graph" class="graph">
<g id="graph0" class="graph" transform="scale(1 1) rotate(0) translate(4 138)">
<title>Power Control</title>
<!-- Node2 -->
<g id="Node000002" class="node">
<title>Node2</title>
<g id="a_Node000002"><a xlink:href="a00516.html" target="_top" xlink:title="Contains all the application tasks that will be executed.">
<polygon fill="white" stroke="#666666" points="71.5,-77 0,-77 0,-57 71.5,-57 71.5,-77"/>
<text text-anchor="middle" x="35.75" y="-63.5" font-family="Helvetica,sans-Serif" font-size="10.00">Device Layer</text>
</a>
</g>
</g>
<!-- Node1 -->
<g id="Node000001" class="node">
<title>Node1</title>
<g id="a_Node000001"><a xlink:title="The Power Control layer contains the state machine managing the power converter.">
<polygon fill="#999999" stroke="#666666" points="184.25,-77 107.5,-77 107.5,-57 184.25,-57 184.25,-77"/>
<text text-anchor="middle" x="145.88" y="-63.5" font-family="Helvetica,sans-Serif" font-size="10.00">Power Control</text>
</a>
</g>
</g>
<!-- Node2&#45;&gt;Node1 -->
<g id="edge1" class="edge">
<title>Node2&#45;&gt;Node1</title>
<path fill="none" stroke="black" d="M82.79,-67C90.98,-67 99.42,-67 107.34,-67"/>
<polygon fill="black" stroke="black" points="82.86,-63.5 72.86,-67 82.86,-70.5 82.86,-63.5"/>
</g>
<!-- Node4 -->
<g id="Node000004" class="node">
<title>Node4</title>
<g id="a_Node000004"><a xlink:href="a00519.html" target="_top" xlink:title="API functions of the Power Control Device layer.">
<polygon fill="white" stroke="#666666" points="307.5,-134 230,-134 230,-114 307.5,-114 307.5,-134"/>
<text text-anchor="middle" x="268.75" y="-120.5" font-family="Helvetica,sans-Serif" font-size="10.00">API Functions</text>
</a>
</g>
</g>
<!-- Node1&#45;&gt;Node4 -->
<g id="edge3" class="edge">
<title>Node1&#45;&gt;Node4</title>
<path fill="none" stroke="black" d="M175.29,-82.54C188.76,-89.69 205.18,-98.1 220.25,-105 226.71,-107.96 233.77,-110.92 240.43,-113.6"/>
<polygon fill="black" stroke="black" points="177.1,-79 166.63,-77.36 173.79,-85.17 177.1,-79"/>
</g>
<!-- Node5 -->
<g id="Node000005" class="node">
<title>Node5</title>
<g id="a_Node000005"><a xlink:href="a00520.html" target="_top" xlink:title="Interrupt public functions of Power Control Device layer.">
<polygon fill="white" stroke="#666666" points="317.25,-96 220.25,-96 220.25,-76 317.25,-76 317.25,-96"/>
<text text-anchor="middle" x="268.75" y="-82.5" font-family="Helvetica,sans-Serif" font-size="10.00">Interrupt Functions</text>
</a>
</g>
</g>
<!-- Node1&#45;&gt;Node5 -->
<g id="edge4" class="edge">
<title>Node1&#45;&gt;Node5</title>
<path fill="none" stroke="black" d="M195.29,-74.61C203.41,-75.89 211.83,-77.21 219.94,-78.48"/>
<polygon fill="black" stroke="black" points="195.88,-71 185.46,-72.91 194.79,-77.92 195.88,-71"/>
</g>
<!-- Node3 -->
<g id="Node000003" class="node">
<title>Node3</title>
<g id="a_Node000003"><a xlink:href="a00518.html" target="_top" xlink:title="Public functions of the Power Control Device layer.">
<polygon fill="white" stroke="#666666" points="313.12,-58 224.38,-58 224.38,-38 313.12,-38 313.12,-58"/>
<text text-anchor="middle" x="268.75" y="-44.5" font-family="Helvetica,sans-Serif" font-size="10.00">Public Functions</text>
</a>
</g>
</g>
<!-- Node1&#45;&gt;Node3 -->
<g id="edge2" class="edge">
<title>Node1&#45;&gt;Node3</title>
<path fill="none" stroke="black" d="M195.1,-59.42C204.74,-57.91 214.8,-56.32 224.27,-54.83"/>
<polygon fill="black" stroke="black" points="194.79,-56.08 185.46,-61.09 195.88,-63 194.79,-56.08"/>
</g>
<!-- Node6 -->
<g id="Node000006" class="node">
<title>Node6</title>
<g id="a_Node000006"><a xlink:href="a00521.html" target="_top" xlink:title="Public properties of the Power Control Device layer.">
<polygon fill="white" stroke="#666666" points="313.88,-20 223.62,-20 223.62,0 313.88,0 313.88,-20"/>
<text text-anchor="middle" x="268.75" y="-6.5" font-family="Helvetica,sans-Serif" font-size="10.00">Public Properties</text>
</a>
</g>
</g>
<!-- Node1&#45;&gt;Node6 -->
<g id="edge5" class="edge">
<title>Node1&#45;&gt;Node6</title>
<path fill="none" stroke="black" d="M175.29,-51.46C188.76,-44.31 205.18,-35.9 220.25,-29 226.71,-26.04 233.77,-23.08 240.43,-20.4"/>
<polygon fill="black" stroke="black" points="173.79,-48.83 166.63,-56.64 177.1,-55 173.79,-48.83"/>
</g>
</g>
</svg>
</svg>

<style type='text/css'>
<![CDATA[
[data-mouse-over-selected='false'] { opacity: 0.7; }
[data-mouse-over-selected='true']  { opacity: 1.0; }
]]>
</style>
<script type="application/ecmascript"><![CDATA[
document.addEventListener('DOMContentLoaded', (event) => {
  highlightEdges();
  highlightAdjacentNodes();
});
]]></script>
</svg>
