<?xml version="1.0" encoding="UTF-8" standalone="no"?>
<!DOCTYPE svg PUBLIC "-//W3C//DTD SVG 1.1//EN"
 "http://www.w3.org/Graphics/SVG/1.1/DTD/svg11.dtd">
<!-- Generated by graphviz version 8.1.0 (20230707.0739)
 -->
<!-- Title: CAN1_RX_FIFO_OverflowStatusFlagClear Pages: 1 -->
<svg width="518pt" height="66pt"
 viewBox="0.00 0.00 518.00 66.00" xmlns="http://www.w3.org/2000/svg" xmlns:xlink="http://www.w3.org/1999/xlink">
<g id="graph0" class="graph" transform="scale(1 1) rotate(0) translate(4 62)">
<title>CAN1_RX_FIFO_OverflowStatusFlagClear</title>
<!-- Node1 -->
<g id="Node000001" class="node">
<title>Node1</title>
<g id="a_Node000001"><a xlink:title="This function is used to clear the CAN1 receive FIFO overflow status bit.">
<polygon fill="#999999" stroke="#666666" points="510,-45 354.5,-45 354.5,-13 510,-13 510,-45"/>
<text text-anchor="start" x="362.5" y="-31.5" font-family="Helvetica,sans-Serif" font-size="10.00">CAN1_RX_FIFO_OverflowStatus</text>
<text text-anchor="middle" x="432.25" y="-19.5" font-family="Helvetica,sans-Serif" font-size="10.00">FlagClear</text>
</a>
</g>
</g>
<!-- Node2 -->
<g id="Node000002" class="node">
<title>Node2</title>
<g id="a_Node000002"><a xlink:href="a00551.html#ga4fe1df4cd9f0ce122687dcfab0713b5b" target="_top" xlink:title="Reads the received single message object.">
<polygon fill="white" stroke="#666666" points="290.75,-58 210.25,-58 210.25,-38 290.75,-38 290.75,-58"/>
<text text-anchor="middle" x="250.5" y="-44.5" font-family="Helvetica,sans-Serif" font-size="10.00">CAN1_Receive</text>
</a>
</g>
</g>
<!-- Node1&#45;&gt;Node2 -->
<g id="edge1_Node000001_Node000002" class="edge">
<title>Node1&#45;&gt;Node2</title>
<g id="a_edge1_Node000001_Node000002"><a xlink:title=" ">
<path fill="none" stroke="#63b8ff" d="M343.48,-38.28C325.16,-40.21 306.72,-42.16 291.21,-43.8"/>
<polygon fill="#63b8ff" stroke="#63b8ff" points="343.66,-41.67 353.24,-37.14 342.93,-34.71 343.66,-41.67"/>
</a>
</g>
</g>
<!-- Node4 -->
<g id="Node000004" class="node">
<title>Node4</title>
<g id="a_Node000004"><a xlink:href="a00551.html#ga2c655a58965fff8578916b59bed47297" target="_top" xlink:title="Reads the received single message object from the CAN1 receive FIFO.">
<polygon fill="white" stroke="#666666" points="318.5,-20 182.5,-20 182.5,0 318.5,0 318.5,-20"/>
<text text-anchor="middle" x="250.5" y="-6.5" font-family="Helvetica,sans-Serif" font-size="10.00">CAN1_ReceiveMessageGet</text>
</a>
</g>
</g>
<!-- Node1&#45;&gt;Node4 -->
<g id="edge3_Node000001_Node000004" class="edge">
<title>Node1&#45;&gt;Node4</title>
<g id="a_edge3_Node000001_Node000004"><a xlink:title=" ">
<path fill="none" stroke="#63b8ff" d="M343.38,-19.71C335.09,-18.84 326.77,-17.96 318.72,-17.11"/>
<polygon fill="#63b8ff" stroke="#63b8ff" points="342.93,-23.29 353.24,-20.86 343.66,-16.33 342.93,-23.29"/>
</a>
</g>
</g>
<!-- Node3 -->
<g id="Node000003" class="node">
<title>Node3</title>
<g id="a_Node000003"><a xlink:href="a00521.html#ga5fb4f1d3c69d1871c10a2c0a0ad27f8a" target="_top" xlink:title="Checks the queue and if a message is received then links the data pointer to can object.">
<polygon fill="white" stroke="#666666" points="146.5,-58 0,-58 0,-38 146.5,-38 146.5,-58"/>
<text text-anchor="middle" x="73.25" y="-44.5" font-family="Helvetica,sans-Serif" font-size="10.00">PBV_CAN_Receive_from_GUI</text>
</a>
</g>
</g>
<!-- Node2&#45;&gt;Node3 -->
<g id="edge2_Node000002_Node000003" class="edge">
<title>Node2&#45;&gt;Node3</title>
<g id="a_edge2_Node000002_Node000003"><a xlink:title=" ">
<path fill="none" stroke="#63b8ff" d="M199.26,-48C182.95,-48 164.52,-48 146.91,-48"/>
<polygon fill="#63b8ff" stroke="#63b8ff" points="199.17,-51.5 209.17,-48 199.17,-44.5 199.17,-51.5"/>
</a>
</g>
</g>
</g>
</svg>
