<?xml version="1.0" encoding="UTF-8" standalone="no"?>
<!DOCTYPE svg PUBLIC "-//W3C//DTD SVG 1.1//EN"
 "http://www.w3.org/Graphics/SVG/1.1/DTD/svg11.dtd">
<!-- Generated by graphviz version 8.1.0 (20230707.0739)
 -->
<!-- Title: PCS_STANDBY_handler Pages: 1 -->
<svg width="698pt" height="709pt"
 viewBox="0.00 0.00 697.50 709.00" xmlns="http://www.w3.org/2000/svg" xmlns:xlink="http://www.w3.org/1999/xlink">
<g id="graph0" class="graph" transform="scale(1 1) rotate(0) translate(4 705)">
<title>PCS_STANDBY_handler</title>
<!-- Node1 -->
<g id="Node000001" class="node">
<title>Node1</title>
<g id="a_Node000001"><a xlink:title="Executes Standby State machine.">
<polygon fill="#999999" stroke="#666666" points="124,-513 0,-513 0,-493 124,-493 124,-513"/>
<text text-anchor="middle" x="62" y="-499.5" font-family="Helvetica,sans-Serif" font-size="10.00">PCS_STANDBY_handler</text>
</a>
</g>
</g>
<!-- Node2 -->
<g id="Node000002" class="node">
<title>Node2</title>
<g id="a_Node000002"><a xlink:href="a00528.html#ga494b4a948891fd5757ccc647f9962529" target="_top" xlink:title="API function to clear the sensor offset.">
<polygon fill="white" stroke="#666666" points="282.88,-701 183.62,-701 183.62,-669 282.88,-669 282.88,-701"/>
<text text-anchor="start" x="191.62" y="-687.5" font-family="Helvetica,sans-Serif" font-size="10.00">Dev_CurrentSensor</text>
<text text-anchor="middle" x="233.25" y="-675.5" font-family="Helvetica,sans-Serif" font-size="10.00">_Clr_Offset</text>
</a>
</g>
</g>
<!-- Node1&#45;&gt;Node2 -->
<g id="edge1_Node000001_Node000002" class="edge">
<title>Node1&#45;&gt;Node2</title>
<g id="a_edge1_Node000001_Node000002"><a xlink:title=" ">
<path fill="none" stroke="#63b8ff" d="M66.61,-513.5C76.76,-541.48 108.23,-618.54 160,-660 164.06,-663.25 168.57,-666.09 173.3,-668.57"/>
<polygon fill="#63b8ff" stroke="#63b8ff" points="171.69,-672.15 182.23,-673.18 174.63,-665.8 171.69,-672.15"/>
</a>
</g>
</g>
<!-- Node3 -->
<g id="Node000003" class="node">
<title>Node3</title>
<g id="a_Node000003"><a xlink:href="a00528.html#ga218632f9814c3bf20c40cea0794ffc7d" target="_top" xlink:title="API function to get the calibration status.">
<polygon fill="white" stroke="#666666" points="291.5,-651 175,-651 175,-619 291.5,-619 291.5,-651"/>
<text text-anchor="start" x="183" y="-637.5" font-family="Helvetica,sans-Serif" font-size="10.00">Dev_CurrentSensor</text>
<text text-anchor="middle" x="233.25" y="-625.5" font-family="Helvetica,sans-Serif" font-size="10.00">_Get_CalibrationStatus</text>
</a>
</g>
</g>
<!-- Node1&#45;&gt;Node3 -->
<g id="edge2_Node000001_Node000003" class="edge">
<title>Node1&#45;&gt;Node3</title>
<g id="a_edge2_Node000001_Node000003"><a xlink:title=" ">
<path fill="none" stroke="#63b8ff" d="M69.73,-513.41C83.92,-534.58 118.99,-582.91 160,-610 161.98,-611.31 164.04,-612.55 166.15,-613.74"/>
<polygon fill="#63b8ff" stroke="#63b8ff" points="164.19,-617.18 174.69,-618.58 167.36,-610.94 164.19,-617.18"/>
</a>
</g>
</g>
<!-- Node4 -->
<g id="Node000004" class="node">
<title>Node4</title>
<g id="a_Node000004"><a xlink:href="a00528.html#ga9f581abf52dc00ba320faafa189fafb9" target="_top" xlink:title="API function to get the sensor offset.">
<polygon fill="white" stroke="#666666" points="282.88,-601 183.62,-601 183.62,-569 282.88,-569 282.88,-601"/>
<text text-anchor="start" x="191.62" y="-587.5" font-family="Helvetica,sans-Serif" font-size="10.00">Dev_CurrentSensor</text>
<text text-anchor="middle" x="233.25" y="-575.5" font-family="Helvetica,sans-Serif" font-size="10.00">_Get_Offset</text>
</a>
</g>
</g>
<!-- Node1&#45;&gt;Node4 -->
<g id="edge3_Node000001_Node000004" class="edge">
<title>Node1&#45;&gt;Node4</title>
<g id="a_edge3_Node000001_Node000004"><a xlink:title=" ">
<path fill="none" stroke="#63b8ff" d="M78.61,-513.48C97.35,-525.76 130.03,-546.17 160,-560 164.25,-561.96 168.7,-563.86 173.22,-565.67"/>
<polygon fill="#63b8ff" stroke="#63b8ff" points="171.56,-569.16 182.15,-569.49 174.07,-562.63 171.56,-569.16"/>
</a>
</g>
</g>
<!-- Node5 -->
<g id="Node000005" class="node">
<title>Node5</title>
<g id="a_Node000005"><a xlink:href="a00528.html#gaaa75855922e60913d443c6203475256f" target="_top" xlink:title="Measures the currents sensor offset.">
<polygon fill="white" stroke="#666666" points="302.75,-551 163.75,-551 163.75,-531 302.75,-531 302.75,-551"/>
<text text-anchor="middle" x="233.25" y="-537.5" font-family="Helvetica,sans-Serif" font-size="10.00">Dev_CurrentSensorOffsetCal</text>
</a>
</g>
</g>
<!-- Node1&#45;&gt;Node5 -->
<g id="edge4_Node000001_Node000005" class="edge">
<title>Node1&#45;&gt;Node5</title>
<g id="a_edge4_Node000001_Node000005"><a xlink:title=" ">
<path fill="none" stroke="#63b8ff" d="M109.7,-513.48C129.95,-518.03 153.86,-523.4 175.16,-528.18"/>
<polygon fill="#63b8ff" stroke="#63b8ff" points="174.18,-531.77 184.71,-530.55 175.72,-524.94 174.18,-531.77"/>
</a>
</g>
</g>
<!-- Node8 -->
<g id="Node000008" class="node">
<title>Node8</title>
<g id="a_Node000008"><a xlink:href="a00545.html#ga8ed0fee0d3aff71d49470aab1728a6ae" target="_top" xlink:title="Clears the fault object flag bits.">
<polygon fill="white" stroke="#666666" points="267.5,-513 199,-513 199,-493 267.5,-493 267.5,-513"/>
<text text-anchor="middle" x="233.25" y="-499.5" font-family="Helvetica,sans-Serif" font-size="10.00">Fault_Reset</text>
</a>
</g>
</g>
<!-- Node1&#45;&gt;Node8 -->
<g id="edge7_Node000001_Node000008" class="edge">
<title>Node1&#45;&gt;Node8</title>
<g id="a_edge7_Node000001_Node000008"><a xlink:title=" ">
<path fill="none" stroke="#63b8ff" d="M124.1,-503C145.16,-503 168.32,-503 187.79,-503"/>
<polygon fill="#63b8ff" stroke="#63b8ff" points="187.79,-506.5 197.79,-503 187.79,-499.5 187.79,-506.5"/>
</a>
</g>
</g>
<!-- Node9 -->
<g id="Node000009" class="node">
<title>Node9</title>
<g id="a_Node000009"><a xlink:href="a00538.html#ga09cbca9d9eea8e033ba27cb0f77417c3" target="_top" xlink:title="Forward/Reverse Direction related swap pattern on PWM output.">
<polygon fill="white" stroke="#666666" points="306.5,-475 160,-475 160,-443 306.5,-443 306.5,-475"/>
<text text-anchor="start" x="168" y="-461.5" font-family="Helvetica,sans-Serif" font-size="10.00">PwrCtrl_PWM_DAB_Direction</text>
<text text-anchor="middle" x="233.25" y="-449.5" font-family="Helvetica,sans-Serif" font-size="10.00">SpecificSwapCfg</text>
</a>
</g>
</g>
<!-- Node1&#45;&gt;Node9 -->
<g id="edge8_Node000001_Node000009" class="edge">
<title>Node1&#45;&gt;Node9</title>
<g id="a_edge8_Node000001_Node000009"><a xlink:title=" ">
<path fill="none" stroke="#63b8ff" d="M103.11,-492.57C119.69,-488.26 139.45,-483.12 158.47,-478.18"/>
<polygon fill="#63b8ff" stroke="#63b8ff" points="159.14,-481.36 167.94,-475.46 157.38,-474.59 159.14,-481.36"/>
</a>
</g>
</g>
<!-- Node17 -->
<g id="Node000017" class="node">
<title>Node17</title>
<g id="a_Node000017"><a xlink:href="a00538.html#gae20d34fb8fc7fbaa57f6c68b2907807f" target="_top" xlink:title="Enable the PWM output.">
<polygon fill="white" stroke="#666666" points="289.62,-355 176.88,-355 176.88,-335 289.62,-335 289.62,-355"/>
<text text-anchor="middle" x="233.25" y="-341.5" font-family="Helvetica,sans-Serif" font-size="10.00">PwrCtrl_PWM_Enable</text>
</a>
</g>
</g>
<!-- Node1&#45;&gt;Node17 -->
<g id="edge17_Node000001_Node000017" class="edge">
<title>Node1&#45;&gt;Node17</title>
<g id="a_edge17_Node000001_Node000017"><a xlink:title=" ">
<path fill="none" stroke="#63b8ff" d="M74.1,-492.63C102.56,-466.07 178.34,-395.32 213.66,-362.36"/>
<polygon fill="#63b8ff" stroke="#63b8ff" points="215.4,-365.58 220.32,-356.2 210.63,-360.47 215.4,-365.58"/>
</a>
</g>
</g>
<!-- Node20 -->
<g id="Node000020" class="node">
<title>Node20</title>
<g id="a_Node000020"><a xlink:href="a00538.html#ga73f526371cadb7674354635462e836cc" target="_top" xlink:title="PWM distribution for DAB converter.">
<polygon fill="white" stroke="#666666" points="290,-184 176.5,-184 176.5,-164 290,-164 290,-184"/>
<text text-anchor="middle" x="233.25" y="-170.5" font-family="Helvetica,sans-Serif" font-size="10.00">PwrCtrl_PWM_Update</text>
</a>
</g>
</g>
<!-- Node1&#45;&gt;Node20 -->
<g id="edge21_Node000001_Node000020" class="edge">
<title>Node1&#45;&gt;Node20</title>
<g id="a_edge21_Node000001_Node000020"><a xlink:title=" ">
<path fill="none" stroke="#63b8ff" d="M68.25,-492.79C92.04,-446.55 189.92,-256.28 222.01,-193.9"/>
<polygon fill="#63b8ff" stroke="#63b8ff" points="225.43,-195.91 226.89,-185.41 219.21,-192.71 225.43,-195.91"/>
</a>
</g>
</g>
<!-- Node26 -->
<g id="Node000026" class="node">
<title>Node26</title>
<g id="a_Node000026"><a xlink:href="a00536.html#ga8c07187b0c96b5916e4b46daa47500c5" target="_top" xlink:title="Resets the power control properties.">
<polygon fill="white" stroke="#666666" points="272.38,-86 194.12,-86 194.12,-66 272.38,-66 272.38,-86"/>
<text text-anchor="middle" x="233.25" y="-72.5" font-family="Helvetica,sans-Serif" font-size="10.00">PwrCtrl_Reset</text>
</a>
</g>
</g>
<!-- Node1&#45;&gt;Node26 -->
<g id="edge28_Node000001_Node000026" class="edge">
<title>Node1&#45;&gt;Node26</title>
<g id="a_edge28_Node000001_Node000026"><a xlink:title=" ">
<path fill="none" stroke="#63b8ff" d="M64.11,-492.66C69.12,-449.05 92.48,-276.77 160,-155 173.36,-130.92 195.45,-108.25 211.7,-93.42"/>
<polygon fill="#63b8ff" stroke="#63b8ff" points="213.43,-96.68 218.59,-87.42 208.79,-91.44 213.43,-96.68"/>
</a>
</g>
</g>
<!-- Node6 -->
<g id="Node000006" class="node">
<title>Node6</title>
<g id="a_Node000006"><a xlink:href="a00550.html#gaf4b6f81a05012533b633a78dad7b6a98" target="_top" xlink:title="Returns the conversion value for the channel selected.">
<polygon fill="white" stroke="#666666" points="491.62,-614 354.12,-614 354.12,-594 491.62,-594 491.62,-614"/>
<text text-anchor="middle" x="422.88" y="-600.5" font-family="Helvetica,sans-Serif" font-size="10.00">ADC1_ConversionResultGet</text>
</a>
</g>
</g>
<!-- Node5&#45;&gt;Node6 -->
<g id="edge5_Node000005_Node000006" class="edge">
<title>Node5&#45;&gt;Node6</title>
<g id="a_edge5_Node000005_Node000006"><a xlink:title=" ">
<path fill="none" stroke="#63b8ff" d="M283.26,-551.4C291.19,-553.78 299.2,-556.63 306.5,-560 324.19,-568.16 324.72,-577.04 342.5,-585 346.84,-586.94 351.4,-588.7 356.05,-590.29"/>
<polygon fill="#63b8ff" stroke="#63b8ff" points="354.75,-593.86 365.34,-593.51 356.84,-587.18 354.75,-593.86"/>
</a>
</g>
</g>
<!-- Node7 -->
<g id="Node000007" class="node">
<title>Node7</title>
<g id="a_Node000007"><a xlink:href="a00528.html#ga03e8d61bbc0f4b686c400440f80dcf69" target="_top" xlink:title="Measure the sensor offset.">
<polygon fill="white" stroke="#666666" points="476.62,-652 369.12,-652 369.12,-632 476.62,-632 476.62,-652"/>
<text text-anchor="middle" x="422.88" y="-638.5" font-family="Helvetica,sans-Serif" font-size="10.00">Dev_SensorOffsetCal</text>
</a>
</g>
</g>
<!-- Node5&#45;&gt;Node7 -->
<g id="edge6_Node000005_Node000007" class="edge">
<title>Node5&#45;&gt;Node7</title>
<g id="a_edge6_Node000005_Node000007"><a xlink:title=" ">
<path fill="none" stroke="#63b8ff" d="M291.52,-551.36C296.87,-553.69 301.97,-556.53 306.5,-560 332.09,-579.63 316.7,-603.66 342.5,-623 347.44,-626.7 353,-629.7 358.82,-632.11"/>
<polygon fill="#63b8ff" stroke="#63b8ff" points="357.2,-635.61 367.8,-635.66 359.55,-629.01 357.2,-635.61"/>
</a>
</g>
</g>
<!-- Node10 -->
<g id="Node000010" class="node">
<title>Node10</title>
<g id="a_Node000010"><a xlink:href="a00556.html#ga5a3ef0885c3937caeb4107df9fb91e81" target="_top" xlink:title="This inline function will disable all the generators of PWM module.">
<polygon fill="white" stroke="#666666" points="462,-488 383.75,-488 383.75,-468 462,-468 462,-488"/>
<text text-anchor="middle" x="422.88" y="-474.5" font-family="Helvetica,sans-Serif" font-size="10.00">PWM_Disable</text>
</a>
</g>
</g>
<!-- Node9&#45;&gt;Node10 -->
<g id="edge9_Node000009_Node000010" class="edge">
<title>Node9&#45;&gt;Node10</title>
<g id="a_edge9_Node000009_Node000010"><a xlink:title=" ">
<path fill="none" stroke="#63b8ff" d="M306.79,-466.35C328.8,-468.58 352.47,-470.97 372.58,-473.01"/>
<polygon fill="#63b8ff" stroke="#63b8ff" points="372.05,-476.57 382.35,-474.1 372.75,-469.61 372.05,-476.57"/>
</a>
</g>
</g>
<!-- Node11 -->
<g id="Node000011" class="node">
<title>Node11</title>
<g id="a_Node000011"><a xlink:href="a00556.html#gaf61d06e6e907cd4dfcef3a40792ee82f" target="_top" xlink:title="This inline function will enable all the generators of PWM module.">
<polygon fill="white" stroke="#666666" points="460.88,-450 384.88,-450 384.88,-430 460.88,-430 460.88,-450"/>
<text text-anchor="middle" x="422.88" y="-436.5" font-family="Helvetica,sans-Serif" font-size="10.00">PWM_Enable</text>
</a>
</g>
</g>
<!-- Node9&#45;&gt;Node11 -->
<g id="edge10_Node000009_Node000011" class="edge">
<title>Node9&#45;&gt;Node11</title>
<g id="a_edge10_Node000009_Node000011"><a xlink:title=" ">
<path fill="none" stroke="#63b8ff" d="M306.79,-451.65C329.15,-449.39 353.21,-446.95 373.53,-444.9"/>
<polygon fill="#63b8ff" stroke="#63b8ff" points="373.8,-448.29 383.39,-443.8 373.09,-441.32 373.8,-448.29"/>
</a>
</g>
</g>
<!-- Node12 -->
<g id="Node000012" class="node">
<title>Node12</title>
<g id="a_Node000012"><a xlink:href="a00556.html#ga83e780358618114f0d424ca7467cf751" target="_top" xlink:title="This inline function requests to update the data registers for specific PWM generator selected by the...">
<polygon fill="white" stroke="#666666" points="689.5,-374 539.25,-374 539.25,-354 689.5,-354 689.5,-374"/>
<text text-anchor="middle" x="614.38" y="-360.5" font-family="Helvetica,sans-Serif" font-size="10.00">PWM_SoftwareUpdateRequest</text>
</a>
</g>
</g>
<!-- Node9&#45;&gt;Node12 -->
<g id="edge11_Node000009_Node000012" class="edge">
<title>Node9&#45;&gt;Node12</title>
<g id="a_edge11_Node000009_Node000012"><a xlink:title=" ">
<path fill="none" stroke="#63b8ff" d="M277.03,-442.54C296.77,-435.32 320.63,-427.11 342.5,-421 409.21,-402.36 486.67,-386.64 541.63,-376.46"/>
<polygon fill="#63b8ff" stroke="#63b8ff" points="542.11,-379.75 551.31,-374.5 540.85,-372.86 542.11,-379.75"/>
</a>
</g>
</g>
<!-- Node13 -->
<g id="Node000013" class="node">
<title>Node13</title>
<g id="a_Node000013"><a xlink:href="a00533.html#gaab156f2b7ad138cf32e734bbf7145ef4" target="_top" xlink:title="Enable/Disable the PWM instance output swap bit.">
<polygon fill="white" stroke="#666666" points="488.62,-576 357.12,-576 357.12,-544 488.62,-544 488.62,-576"/>
<text text-anchor="start" x="365.12" y="-562.5" font-family="Helvetica,sans-Serif" font-size="10.00">PWM_Swap_PWMxL_and</text>
<text text-anchor="middle" x="422.88" y="-550.5" font-family="Helvetica,sans-Serif" font-size="10.00">_PWMxH</text>
</a>
</g>
</g>
<!-- Node9&#45;&gt;Node13 -->
<g id="edge12_Node000009_Node000013" class="edge">
<title>Node9&#45;&gt;Node13</title>
<g id="a_edge12_Node000009_Node000013"><a xlink:title=" ">
<path fill="none" stroke="#63b8ff" d="M292.33,-475.36C297.34,-477.87 302.15,-480.73 306.5,-484 328.68,-500.67 320.09,-518.64 342.5,-535 344.16,-536.21 345.89,-537.37 347.66,-538.47"/>
<polygon fill="#63b8ff" stroke="#63b8ff" points="345.42,-541.79 355.87,-543.53 348.79,-535.65 345.42,-541.79"/>
</a>
</g>
</g>
<!-- Node14 -->
<g id="Node000014" class="node">
<title>Node14</title>
<g id="a_Node000014"><a xlink:href="a00538.html#ga79ec0c0e524a03b3a3d423308b89bb99" target="_top" xlink:title="Disable the PWM output.">
<polygon fill="white" stroke="#666666" points="480.38,-526 365.38,-526 365.38,-506 480.38,-506 480.38,-526"/>
<text text-anchor="middle" x="422.88" y="-512.5" font-family="Helvetica,sans-Serif" font-size="10.00">PwrCtrl_PWM_Disable</text>
</a>
</g>
</g>
<!-- Node9&#45;&gt;Node14 -->
<g id="edge13_Node000009_Node000014" class="edge">
<title>Node9&#45;&gt;Node14</title>
<g id="a_edge13_Node000009_Node000014"><a xlink:title=" ">
<path fill="none" stroke="#63b8ff" d="M282.08,-475.45C290.24,-478.28 298.62,-481.21 306.5,-484 322.54,-489.67 326.2,-492.12 342.5,-497 349.34,-499.05 356.56,-501.02 363.75,-502.88"/>
<polygon fill="#63b8ff" stroke="#63b8ff" points="362.66,-506.47 373.22,-505.51 364.37,-499.68 362.66,-506.47"/>
</a>
</g>
</g>
<!-- Node14&#45;&gt;Node12 -->
<g id="edge16_Node000014_Node000012" class="edge">
<title>Node14&#45;&gt;Node12</title>
<g id="a_edge16_Node000014_Node000012"><a xlink:title=" ">
<path fill="none" stroke="#63b8ff" d="M480.77,-507.15C488.66,-504.58 496.39,-501.27 503.25,-497 549.68,-468.08 585.88,-412.81 602.83,-383.45"/>
<polygon fill="#63b8ff" stroke="#63b8ff" points="606.17,-385.66 608.01,-375.23 600.06,-382.23 606.17,-385.66"/>
</a>
</g>
</g>
<!-- Node15 -->
<g id="Node000015" class="node">
<title>Node15</title>
<g id="a_Node000015"><a xlink:href="a00556.html#ga531b59d8823e3ebda2da60f48582bcf3" target="_top" xlink:title="This inline function enables PWM override on PWMH output for specific PWM generator selected by the a...">
<polygon fill="white" stroke="#666666" points="679.75,-507 549,-507 549,-487 679.75,-487 679.75,-507"/>
<text text-anchor="middle" x="614.38" y="-493.5" font-family="Helvetica,sans-Serif" font-size="10.00">PWM_OverrideHighEnable</text>
</a>
</g>
</g>
<!-- Node14&#45;&gt;Node15 -->
<g id="edge14_Node000014_Node000015" class="edge">
<title>Node14&#45;&gt;Node15</title>
<g id="a_edge14_Node000014_Node000015"><a xlink:title=" ">
<path fill="none" stroke="#63b8ff" d="M480.73,-510.3C498.68,-508.5 518.79,-506.48 537.83,-504.57"/>
<polygon fill="#63b8ff" stroke="#63b8ff" points="537.98,-507.98 547.58,-503.5 537.28,-501.01 537.98,-507.98"/>
</a>
</g>
</g>
<!-- Node16 -->
<g id="Node000016" class="node">
<title>Node16</title>
<g id="a_Node000016"><a xlink:href="a00556.html#ga2548ca8feda75ba6ab784280679da6ae" target="_top" xlink:title="This inline function enables PWM override on PWML output for specific PWM generator selected by the a...">
<polygon fill="white" stroke="#666666" points="678.62,-545 550.12,-545 550.12,-525 678.62,-525 678.62,-545"/>
<text text-anchor="middle" x="614.38" y="-531.5" font-family="Helvetica,sans-Serif" font-size="10.00">PWM_OverrideLowEnable</text>
</a>
</g>
</g>
<!-- Node14&#45;&gt;Node16 -->
<g id="edge15_Node000014_Node000016" class="edge">
<title>Node14&#45;&gt;Node16</title>
<g id="a_edge15_Node000014_Node000016"><a xlink:title=" ">
<path fill="none" stroke="#63b8ff" d="M480.73,-521.7C499.04,-523.54 519.62,-525.6 539,-527.54"/>
<polygon fill="#63b8ff" stroke="#63b8ff" points="538.63,-531.12 548.93,-528.64 539.33,-524.16 538.63,-531.12"/>
</a>
</g>
</g>
<!-- Node17&#45;&gt;Node12 -->
<g id="edge20_Node000017_Node000012" class="edge">
<title>Node17&#45;&gt;Node12</title>
<g id="a_edge20_Node000017_Node000012"><a xlink:title=" ">
<path fill="none" stroke="#63b8ff" d="M290.01,-342.23C344.49,-340.18 429.73,-338.7 503.25,-345 519.5,-346.39 536.96,-348.92 553.08,-351.69"/>
<polygon fill="#63b8ff" stroke="#63b8ff" points="551.99,-355.22 562.45,-353.53 553.21,-348.33 551.99,-355.22"/>
</a>
</g>
</g>
<!-- Node18 -->
<g id="Node000018" class="node">
<title>Node18</title>
<g id="a_Node000018"><a xlink:href="a00556.html#ga957b002605bfb2239a26f174808b2ad8" target="_top" xlink:title="This inline function disables PWM override on PWMH output for specific PWM generator selected by the ...">
<polygon fill="white" stroke="#666666" points="489.38,-374 356.38,-374 356.38,-354 489.38,-354 489.38,-374"/>
<text text-anchor="middle" x="422.88" y="-360.5" font-family="Helvetica,sans-Serif" font-size="10.00">PWM_OverrideHighDisable</text>
</a>
</g>
</g>
<!-- Node17&#45;&gt;Node18 -->
<g id="edge18_Node000017_Node000018" class="edge">
<title>Node17&#45;&gt;Node18</title>
<g id="a_edge18_Node000017_Node000018"><a xlink:title=" ">
<path fill="none" stroke="#63b8ff" d="M290.04,-350.65C307.37,-352.4 326.8,-354.37 345.29,-356.24"/>
<polygon fill="#63b8ff" stroke="#63b8ff" points="344.75,-359.81 355.06,-357.33 345.46,-352.84 344.75,-359.81"/>
</a>
</g>
</g>
<!-- Node19 -->
<g id="Node000019" class="node">
<title>Node19</title>
<g id="a_Node000019"><a xlink:href="a00556.html#gabbedef830c43428e96c7d5125662a8a6" target="_top" xlink:title="This inline function disables PWM override on PWML output for specific PWM generator selected by the ...">
<polygon fill="white" stroke="#666666" points="488.25,-298 357.5,-298 357.5,-278 488.25,-278 488.25,-298"/>
<text text-anchor="middle" x="422.88" y="-284.5" font-family="Helvetica,sans-Serif" font-size="10.00">PWM_OverrideLowDisable</text>
</a>
</g>
</g>
<!-- Node17&#45;&gt;Node19 -->
<g id="edge19_Node000017_Node000019" class="edge">
<title>Node17&#45;&gt;Node19</title>
<g id="a_edge19_Node000017_Node000019"><a xlink:title=" ">
<path fill="none" stroke="#63b8ff" d="M268.37,-334.58C289.68,-328.07 317.68,-319.53 342.5,-312 353.57,-308.64 365.5,-305.03 376.67,-301.65"/>
<polygon fill="#63b8ff" stroke="#63b8ff" points="377.54,-304.74 386.1,-298.5 375.51,-298.04 377.54,-304.74"/>
</a>
</g>
</g>
<!-- Node20&#45;&gt;Node12 -->
<g id="edge26_Node000020_Node000012" class="edge">
<title>Node20&#45;&gt;Node12</title>
<g id="a_edge26_Node000020_Node000012"><a xlink:title=" ">
<path fill="none" stroke="#63b8ff" d="M241.74,-163.64C257.55,-142.78 296.64,-96.27 342.5,-79 409.36,-53.82 444.33,-38.6 503.25,-79 593.54,-140.91 609.82,-288.24 612.74,-343.01"/>
<polygon fill="#63b8ff" stroke="#63b8ff" points="609.28,-342.94 613.2,-352.78 616.27,-342.64 609.28,-342.94"/>
</a>
</g>
</g>
<!-- Node21 -->
<g id="Node000021" class="node">
<title>Node21</title>
<g id="a_Node000021"><a xlink:href="a00556.html#gaf368256a569a5a9e12f85f84d7d42287" target="_top" xlink:title="This inline function updates PWM Deadtime high register with the requested value for a specific PWM g...">
<polygon fill="white" stroke="#666666" points="484.88,-260 360.88,-260 360.88,-240 484.88,-240 484.88,-260"/>
<text text-anchor="middle" x="422.88" y="-246.5" font-family="Helvetica,sans-Serif" font-size="10.00">PWM_DeadTimeHighSet</text>
</a>
</g>
</g>
<!-- Node20&#45;&gt;Node21 -->
<g id="edge22_Node000020_Node000021" class="edge">
<title>Node20&#45;&gt;Node21</title>
<g id="a_edge22_Node000020_Node000021"><a xlink:title=" ">
<path fill="none" stroke="#63b8ff" d="M250.88,-184.45C271.63,-197.08 308.51,-218.21 342.5,-231 347.97,-233.06 353.74,-234.95 359.57,-236.67"/>
<polygon fill="#63b8ff" stroke="#63b8ff" points="358.5,-240.28 369.07,-239.58 360.37,-233.53 358.5,-240.28"/>
</a>
</g>
</g>
<!-- Node22 -->
<g id="Node000022" class="node">
<title>Node22</title>
<g id="a_Node000022"><a xlink:href="a00556.html#ga124426b28426beb53948e9b57319ab4b" target="_top" xlink:title="This inline function updates PWM Deadtime low register with the requested value for a specific PWM ge...">
<polygon fill="white" stroke="#666666" points="483.75,-222 362,-222 362,-202 483.75,-202 483.75,-222"/>
<text text-anchor="middle" x="422.88" y="-208.5" font-family="Helvetica,sans-Serif" font-size="10.00">PWM_DeadTimeLowSet</text>
</a>
</g>
</g>
<!-- Node20&#45;&gt;Node22 -->
<g id="edge23_Node000020_Node000022" class="edge">
<title>Node20&#45;&gt;Node22</title>
<g id="a_edge23_Node000020_Node000022"><a xlink:title=" ">
<path fill="none" stroke="#63b8ff" d="M286.02,-184.48C308.78,-189.09 335.71,-194.55 359.56,-199.38"/>
<polygon fill="#63b8ff" stroke="#63b8ff" points="358.78,-203 369.28,-201.55 360.17,-196.13 358.78,-203"/>
</a>
</g>
</g>
<!-- Node23 -->
<g id="Node000023" class="node">
<title>Node23</title>
<g id="a_Node000023"><a xlink:href="a00556.html#ga37968a783e44cd80643478d2b559dbf4" target="_top" xlink:title="This inline function sets the PWM generator specific duty cycle register.">
<polygon fill="white" stroke="#666666" points="475.88,-184 369.88,-184 369.88,-164 475.88,-164 475.88,-184"/>
<text text-anchor="middle" x="422.88" y="-170.5" font-family="Helvetica,sans-Serif" font-size="10.00">PWM_DutyCycleSet</text>
</a>
</g>
</g>
<!-- Node20&#45;&gt;Node23 -->
<g id="edge24_Node000020_Node000023" class="edge">
<title>Node20&#45;&gt;Node23</title>
<g id="a_edge24_Node000020_Node000023"><a xlink:title=" ">
<path fill="none" stroke="#63b8ff" d="M290.29,-174C311.81,-174 336.52,-174 358.67,-174"/>
<polygon fill="#63b8ff" stroke="#63b8ff" points="358.65,-177.5 368.65,-174 358.65,-170.5 358.65,-177.5"/>
</a>
</g>
</g>
<!-- Node24 -->
<g id="Node000024" class="node">
<title>Node24</title>
<g id="a_Node000024"><a xlink:href="a00556.html#gada46160823b0892a1af14a17c5ab516e" target="_top" xlink:title="This inline function sets the period value in count for the PWM generator specific Time Base.">
<polygon fill="white" stroke="#666666" points="467.25,-146 378.5,-146 378.5,-126 467.25,-126 467.25,-146"/>
<text text-anchor="middle" x="422.88" y="-132.5" font-family="Helvetica,sans-Serif" font-size="10.00">PWM_PeriodSet</text>
</a>
</g>
</g>
<!-- Node20&#45;&gt;Node24 -->
<g id="edge25_Node000020_Node000024" class="edge">
<title>Node20&#45;&gt;Node24</title>
<g id="a_edge25_Node000020_Node000024"><a xlink:title=" ">
<path fill="none" stroke="#63b8ff" d="M286.02,-163.52C311.36,-158.38 341.86,-152.21 367.54,-147.01"/>
<polygon fill="#63b8ff" stroke="#63b8ff" points="368.11,-150.26 377.22,-144.84 366.72,-143.4 368.11,-150.26"/>
</a>
</g>
</g>
<!-- Node25 -->
<g id="Node000025" class="node">
<title>Node25</title>
<g id="a_Node000025"><a xlink:href="a00556.html#gacc5575148a6e8da6577d9be9e20541ce" target="_top" xlink:title="This inline function sets the Trigger C compare value in count for a specific PWM generator selected ...">
<polygon fill="white" stroke="#666666" points="503.25,-108 342.5,-108 342.5,-88 503.25,-88 503.25,-108"/>
<text text-anchor="middle" x="422.88" y="-94.5" font-family="Helvetica,sans-Serif" font-size="10.00">PWM_TriggerCCompareValueSet</text>
</a>
</g>
</g>
<!-- Node20&#45;&gt;Node25 -->
<g id="edge27_Node000020_Node000025" class="edge">
<title>Node20&#45;&gt;Node25</title>
<g id="a_edge27_Node000020_Node000025"><a xlink:title=" ">
<path fill="none" stroke="#63b8ff" d="M250.88,-163.55C271.63,-150.92 308.51,-129.79 342.5,-117 347.97,-114.94 353.74,-113.05 359.57,-111.33"/>
<polygon fill="#63b8ff" stroke="#63b8ff" points="360.37,-114.47 369.07,-108.42 358.5,-107.72 360.37,-114.47"/>
</a>
</g>
</g>
<!-- Node27 -->
<g id="Node000027" class="node">
<title>Node27</title>
<g id="a_Node000027"><a xlink:href="a00540.html#gae5d978249e235e284da922df5ec4363a" target="_top" xlink:title="Clear the control and error histories of the control loops.">
<polygon fill="white" stroke="#666666" points="487.88,-32 357.88,-32 357.88,0 487.88,0 487.88,-32"/>
<text text-anchor="start" x="365.88" y="-18.5" font-family="Helvetica,sans-Serif" font-size="10.00">PwrCtrl_ResetControlLoop</text>
<text text-anchor="middle" x="422.88" y="-6.5" font-family="Helvetica,sans-Serif" font-size="10.00">Histories</text>
</a>
</g>
</g>
<!-- Node26&#45;&gt;Node27 -->
<g id="edge29_Node000026_Node000027" class="edge">
<title>Node26&#45;&gt;Node27</title>
<g id="a_edge29_Node000026_Node000027"><a xlink:title=" ">
<path fill="none" stroke="#63b8ff" d="M266.93,-65.55C292.59,-57.34 329.05,-45.68 360.16,-35.74"/>
<polygon fill="#63b8ff" stroke="#63b8ff" points="361.02,-38.81 369.48,-32.43 358.89,-32.15 361.02,-38.81"/>
</a>
</g>
</g>
</g>
</svg>
