<?xml version="1.0" encoding="UTF-8" standalone="no"?>
<!DOCTYPE svg PUBLIC "-//W3C//DTD SVG 1.1//EN"
 "http://www.w3.org/Graphics/SVG/1.1/DTD/svg11.dtd">
<!-- Generated by graphviz version 8.1.0 (20230707.0739)
 -->
<!-- Title: ADC1_ConversionResultGet Pages: 1 -->
<svg width="926pt" height="116pt"
 viewBox="0.00 0.00 926.00 116.00" xmlns="http://www.w3.org/2000/svg" xmlns:xlink="http://www.w3.org/1999/xlink">
<g id="graph0" class="graph" transform="scale(1 1) rotate(0) translate(4 112)">
<title>ADC1_ConversionResultGet</title>
<!-- Node1 -->
<g id="Node000001" class="node">
<title>Node1</title>
<g id="a_Node000001"><a xlink:title="Returns the conversion value for the channel selected.">
<polygon fill="#999999" stroke="#666666" points="918,-48 780.5,-48 780.5,-28 918,-28 918,-48"/>
<text text-anchor="middle" x="849.25" y="-34.5" font-family="Helvetica,sans-Serif" font-size="10.00">ADC1_ConversionResultGet</text>
</a>
</g>
</g>
<!-- Node2 -->
<g id="Node000002" class="node">
<title>Node2</title>
<g id="a_Node000002"><a xlink:href="a00498.html#gaaa75855922e60913d443c6203475256f" target="_top" xlink:title="Measures the currents sensor offset.">
<polygon fill="white" stroke="#666666" points="735.12,-70 596.12,-70 596.12,-50 735.12,-50 735.12,-70"/>
<text text-anchor="middle" x="665.62" y="-56.5" font-family="Helvetica,sans-Serif" font-size="10.00">Dev_CurrentSensorOffsetCal</text>
</a>
</g>
</g>
<!-- Node1&#45;&gt;Node2 -->
<g id="edge1_Node000001_Node000002" class="edge">
<title>Node1&#45;&gt;Node2</title>
<g id="a_edge1_Node000001_Node000002"><a xlink:title=" ">
<path fill="none" stroke="#63b8ff" d="M769.37,-47.55C758.08,-48.92 746.54,-50.32 735.46,-51.66"/>
<polygon fill="#63b8ff" stroke="#63b8ff" points="769.6,-50.93 779.1,-46.25 768.75,-43.98 769.6,-50.93"/>
</a>
</g>
</g>
<!-- Node8 -->
<g id="Node000008" class="node">
<title>Node8</title>
<g id="a_Node000008"><a xlink:href="a00507.html#gaa34c5b66d8f20f01daef50d0e88cf20e" target="_top" xlink:title="This function updates the DAB data members with ADC raw values.">
<polygon fill="white" stroke="#666666" points="744.5,-29 586.75,-29 586.75,-9 744.5,-9 744.5,-29"/>
<text text-anchor="middle" x="665.62" y="-15.5" font-family="Helvetica,sans-Serif" font-size="10.00">PwrCtrl_UpdateADConverterData</text>
</a>
</g>
</g>
<!-- Node1&#45;&gt;Node8 -->
<g id="edge8_Node000001_Node000008" class="edge">
<title>Node1&#45;&gt;Node8</title>
<g id="a_edge8_Node000001_Node000008"><a xlink:title=" ">
<path fill="none" stroke="#63b8ff" d="M769.22,-29.73C761.16,-28.89 752.98,-28.03 744.93,-27.19"/>
<polygon fill="#63b8ff" stroke="#63b8ff" points="768.79,-33.31 779.1,-30.87 769.52,-26.35 768.79,-33.31"/>
</a>
</g>
</g>
<!-- Node3 -->
<g id="Node000003" class="node">
<title>Node3</title>
<g id="a_Node000003"><a xlink:href="a00509.html#ga8307344d190a5459682d315fc7bfe198" target="_top" xlink:title="Executes function for initialze state machine.">
<polygon fill="white" stroke="#666666" points="536.12,-108 441.38,-108 441.38,-88 536.12,-88 536.12,-108"/>
<text text-anchor="middle" x="488.75" y="-94.5" font-family="Helvetica,sans-Serif" font-size="10.00">PCS_INIT_handler</text>
</a>
</g>
</g>
<!-- Node2&#45;&gt;Node3 -->
<g id="edge2_Node000002_Node000003" class="edge">
<title>Node2&#45;&gt;Node3</title>
<g id="a_edge2_Node000002_Node000003"><a xlink:title=" ">
<path fill="none" stroke="#63b8ff" d="M605.86,-72.77C583.21,-77.69 557.68,-83.24 536.33,-87.88"/>
<polygon fill="#63b8ff" stroke="#63b8ff" points="606.35,-76.03 615.38,-70.48 604.86,-69.19 606.35,-76.03"/>
</a>
</g>
</g>
<!-- Node7 -->
<g id="Node000007" class="node">
<title>Node7</title>
<g id="a_Node000007"><a xlink:href="a00509.html#ga42f7c8f65745b2f81bb6dbd381ea8121" target="_top" xlink:title="Executes Standby State machine.">
<polygon fill="white" stroke="#666666" points="550.75,-70 426.75,-70 426.75,-50 550.75,-50 550.75,-70"/>
<text text-anchor="middle" x="488.75" y="-56.5" font-family="Helvetica,sans-Serif" font-size="10.00">PCS_STANDBY_handler</text>
</a>
</g>
</g>
<!-- Node2&#45;&gt;Node7 -->
<g id="edge6_Node000002_Node000007" class="edge">
<title>Node2&#45;&gt;Node7</title>
<g id="a_edge6_Node000002_Node000007"><a xlink:title=" ">
<path fill="none" stroke="#63b8ff" d="M584.96,-60C573.62,-60 562.09,-60 551.17,-60"/>
<polygon fill="#63b8ff" stroke="#63b8ff" points="584.76,-63.5 594.76,-60 584.76,-56.5 584.76,-63.5"/>
</a>
</g>
</g>
<!-- Node4 -->
<g id="Node000004" class="node">
<title>Node4</title>
<g id="a_Node000004"><a xlink:href="a00509.html#ga2408c0b52cd2c2487f43716f261434e6" target="_top" xlink:title="Manages the power control state machine.">
<polygon fill="white" stroke="#666666" points="390.75,-89 278,-89 278,-69 390.75,-69 390.75,-89"/>
<text text-anchor="middle" x="334.38" y="-75.5" font-family="Helvetica,sans-Serif" font-size="10.00">PwrCtrl_StateMachine</text>
</a>
</g>
</g>
<!-- Node3&#45;&gt;Node4 -->
<g id="edge3_Node000003_Node000004" class="edge">
<title>Node3&#45;&gt;Node4</title>
<g id="a_edge3_Node000003_Node000004"><a xlink:title=" ">
<path fill="none" stroke="#63b8ff" d="M430.55,-90.87C417.61,-89.25 403.89,-87.54 391.02,-85.94"/>
<polygon fill="#63b8ff" stroke="#63b8ff" points="429.85,-94.43 440.2,-92.2 430.71,-87.49 429.85,-94.43"/>
</a>
</g>
</g>
<!-- Node5 -->
<g id="Node000005" class="node">
<title>Node5</title>
<g id="a_Node000005"><a xlink:href="a00506.html#ga48dcb018afa53b60b6112cde00561c4b" target="_top" xlink:title="Executes the power control state machine.">
<polygon fill="white" stroke="#666666" points="242,-89 153.25,-89 153.25,-69 242,-69 242,-89"/>
<text text-anchor="middle" x="197.62" y="-75.5" font-family="Helvetica,sans-Serif" font-size="10.00">PwrCtrl_Execute</text>
</a>
</g>
</g>
<!-- Node4&#45;&gt;Node5 -->
<g id="edge4_Node000004_Node000005" class="edge">
<title>Node4&#45;&gt;Node5</title>
<g id="a_edge4_Node000004_Node000005"><a xlink:title=" ">
<path fill="none" stroke="#63b8ff" d="M266.82,-79C258.44,-79 250.04,-79 242.15,-79"/>
<polygon fill="#63b8ff" stroke="#63b8ff" points="266.79,-82.5 276.79,-79 266.79,-75.5 266.79,-82.5"/>
</a>
</g>
</g>
<!-- Node6 -->
<g id="Node000006" class="node">
<title>Node6</title>
<g id="a_Node000006"><a xlink:href="a00517.html#gad258f19a1b6a855fef3c71f54bb5539e" target="_top" xlink:title="Tasks_Realtime_100us gets called directly from the timer interrupt every 100 µs.">
<polygon fill="white" stroke="#666666" points="117.25,-89 0,-89 0,-69 117.25,-69 117.25,-89"/>
<text text-anchor="middle" x="58.62" y="-75.5" font-family="Helvetica,sans-Serif" font-size="10.00">Tasks_Realtime_100us</text>
</a>
</g>
</g>
<!-- Node5&#45;&gt;Node6 -->
<g id="edge5_Node000005_Node000006" class="edge">
<title>Node5&#45;&gt;Node6</title>
<g id="a_edge5_Node000005_Node000006"><a xlink:title=" ">
<path fill="none" stroke="#63b8ff" d="M142.07,-79C133.97,-79 125.6,-79 117.44,-79"/>
<polygon fill="#63b8ff" stroke="#63b8ff" points="141.9,-82.5 151.9,-79 141.9,-75.5 141.9,-82.5"/>
</a>
</g>
</g>
<!-- Node7&#45;&gt;Node4 -->
<g id="edge7_Node000007_Node000004" class="edge">
<title>Node7&#45;&gt;Node4</title>
<g id="a_edge7_Node000007_Node000004"><a xlink:title=" ">
<path fill="none" stroke="#63b8ff" d="M415.8,-68.97C407.49,-70.01 399.11,-71.05 391.06,-72.06"/>
<polygon fill="#63b8ff" stroke="#63b8ff" points="416.16,-72.33 425.65,-67.62 415.29,-65.38 416.16,-72.33"/>
</a>
</g>
</g>
<!-- Node9 -->
<g id="Node000009" class="node">
<title>Node9</title>
<g id="a_Node000009"><a xlink:href="a00507.html#gae32c9e5ed4d1fb98fc13b26601782c10" target="_top" xlink:title="Executes the power converter control loop.">
<polygon fill="white" stroke="#666666" points="542.88,-32 434.62,-32 434.62,0 542.88,0 542.88,-32"/>
<text text-anchor="start" x="442.62" y="-18.5" font-family="Helvetica,sans-Serif" font-size="10.00">ControlLoop_Interrupt</text>
<text text-anchor="middle" x="488.75" y="-6.5" font-family="Helvetica,sans-Serif" font-size="10.00">_CallBack</text>
</a>
</g>
</g>
<!-- Node8&#45;&gt;Node9 -->
<g id="edge9_Node000008_Node000009" class="edge">
<title>Node8&#45;&gt;Node9</title>
<g id="a_edge9_Node000008_Node000009"><a xlink:title=" ">
<path fill="none" stroke="#63b8ff" d="M575.44,-17.47C564.48,-17.28 553.55,-17.09 543.35,-16.92"/>
<polygon fill="#63b8ff" stroke="#63b8ff" points="575.34,-20.99 585.39,-17.66 575.46,-13.99 575.34,-20.99"/>
</a>
</g>
</g>
</g>
</svg>
