<?xml version="1.0" encoding="UTF-8" standalone="no"?>
<!DOCTYPE svg PUBLIC "-//W3C//DTD SVG 1.1//EN"
 "http://www.w3.org/Graphics/SVG/1.1/DTD/svg11.dtd">
<!-- Generated by graphviz version 8.1.0 (20230707.0739)
 -->
<!-- Title: FAULT_SETTINGS_s Pages: 1 -->
<svg width="142pt" height="476pt"
 viewBox="0.00 0.00 142.00 476.00" xmlns="http://www.w3.org/2000/svg" xmlns:xlink="http://www.w3.org/1999/xlink">
<g id="graph0" class="graph" transform="scale(1 1) rotate(0) translate(4 472)">
<title>FAULT_SETTINGS_s</title>
<!-- Node1 -->
<g id="Node000001" class="node">
<title>Node1</title>
<g id="a_Node000001"><a xlink:title="Contains Fault settings.">
<polygon fill="#999999" stroke="none" points="103,-52 0,-52 0,0 103,0 103,-52"/>
<text text-anchor="start" x="5" y="-38.5" font-family="Helvetica,sans-Serif" font-size="10.00">FAULT_SETTINGS_s</text>
<text text-anchor="start" x="10" y="-22.5" font-family="Helvetica,sans-Serif" font-size="10.00">+</text>
<text text-anchor="start" x="26" y="-22.5" font-family="Helvetica,sans-Serif" font-size="10.00">FaultDetected</text>
<text text-anchor="start" x="50" y="-6.5" font-family="Helvetica,sans-Serif" font-size="10.00"> </text>
<polygon fill="#666666" stroke="#666666" points="0,-34 0,-34 103,-34 103,-34 0,-34"/>
<polygon fill="#666666" stroke="#666666" points="0,-18 0,-18 24,-18 24,-18 0,-18"/>
<polygon fill="#666666" stroke="#666666" points="24,-18 24,-18 103,-18 103,-18 24,-18"/>
<polygon fill="none" stroke="#666666" points="0,0 0,-52 103,-52 103,0 0,0"/>
</a>
</g>
</g>
<!-- Node2 -->
<g id="Node000002" class="node">
<title>Node2</title>
<g id="a_Node000002"><a xlink:href="a00651.html" target="_top" xlink:title="Collection of faults to be monitored.">
<polygon fill="white" stroke="none" points="76.5,-152 26.5,-152 26.5,-100 76.5,-100 76.5,-152"/>
<text text-anchor="start" x="31.25" y="-138.5" font-family="Helvetica,sans-Serif" font-size="10.00">FAULT_s</text>
<text text-anchor="start" x="50" y="-122.5" font-family="Helvetica,sans-Serif" font-size="10.00"> </text>
<text text-anchor="start" x="50" y="-106.5" font-family="Helvetica,sans-Serif" font-size="10.00"> </text>
<polygon fill="#666666" stroke="#666666" points="26.5,-134 26.5,-134 76.5,-134 76.5,-134 26.5,-134"/>
<polygon fill="#666666" stroke="#666666" points="26.5,-118 26.5,-118 76.5,-118 76.5,-118 26.5,-118"/>
<polygon fill="none" stroke="#666666" points="26.5,-100 26.5,-152 76.5,-152 76.5,-100 26.5,-100"/>
</a>
</g>
</g>
<!-- Node2&#45;&gt;Node1 -->
<g id="edge1_Node000001_Node000002" class="edge">
<title>Node2&#45;&gt;Node1</title>
<g id="a_edge1_Node000001_Node000002"><a xlink:title=" ">
<path fill="none" stroke="#63b8ff" d="M51.5,-100.02C51.5,-89.3 51.5,-76.56 51.5,-64.73"/>
<polygon fill="none" stroke="#63b8ff" points="51.5,-64.84 47.5,-58.84 51.5,-52.84 55.5,-58.84 51.5,-64.84"/>
</a>
</g>
<text text-anchor="middle" x="70.25" y="-72.5" font-family="Helvetica,sans-Serif" font-size="10.00" fill="grey"> +Object</text>
</g>
<!-- Node3 -->
<g id="Node000003" class="node">
<title>Node3</title>
<g id="a_Node000003"><a xlink:href="a00647.html" target="_top" xlink:title="The Fault object data structure contains a list of elements/variables that are used to detect/check a...">
<polygon fill="white" stroke="none" points="96,-468 7,-468 7,-272 96,-272 96,-468"/>
<text text-anchor="start" x="19.25" y="-454.5" font-family="Helvetica,sans-Serif" font-size="10.00">FAULT_OBJ_T</text>
<text text-anchor="start" x="11" y="-438.5" font-family="Helvetica,sans-Serif" font-size="10.00">+</text>
<text text-anchor="start" x="21" y="-438.5" font-family="Helvetica,sans-Serif" font-size="10.00">Val1_Threshold</text>
<text text-anchor="start" x="11" y="-422.5" font-family="Helvetica,sans-Serif" font-size="10.00">+</text>
<text text-anchor="start" x="21" y="-422.5" font-family="Helvetica,sans-Serif" font-size="10.00">Val1_Hysteresis</text>
<text text-anchor="start" x="11" y="-406.5" font-family="Helvetica,sans-Serif" font-size="10.00">+</text>
<text text-anchor="start" x="21" y="-406.5" font-family="Helvetica,sans-Serif" font-size="10.00">Val2_Threshold</text>
<text text-anchor="start" x="11" y="-390.5" font-family="Helvetica,sans-Serif" font-size="10.00">+</text>
<text text-anchor="start" x="21" y="-390.5" font-family="Helvetica,sans-Serif" font-size="10.00">Val2_Hysteresis</text>
<text text-anchor="start" x="11" y="-374.5" font-family="Helvetica,sans-Serif" font-size="10.00">+</text>
<text text-anchor="start" x="21" y="-374.5" font-family="Helvetica,sans-Serif" font-size="10.00">CounterSet</text>
<text text-anchor="start" x="11" y="-358.5" font-family="Helvetica,sans-Serif" font-size="10.00">+</text>
<text text-anchor="start" x="21" y="-358.5" font-family="Helvetica,sans-Serif" font-size="10.00">CounterReset</text>
<text text-anchor="start" x="11" y="-342.5" font-family="Helvetica,sans-Serif" font-size="10.00">+</text>
<text text-anchor="start" x="21" y="-342.5" font-family="Helvetica,sans-Serif" font-size="10.00">FaultCounter</text>
<text text-anchor="start" x="11" y="-326.5" font-family="Helvetica,sans-Serif" font-size="10.00">+</text>
<text text-anchor="start" x="21" y="-326.5" font-family="Helvetica,sans-Serif" font-size="10.00">FaultCode</text>
<text text-anchor="start" x="11" y="-310.5" font-family="Helvetica,sans-Serif" font-size="10.00">+</text>
<text text-anchor="start" x="21" y="-310.5" font-family="Helvetica,sans-Serif" font-size="10.00">FaultActive</text>
<text text-anchor="start" x="11" y="-294.5" font-family="Helvetica,sans-Serif" font-size="10.00">+</text>
<text text-anchor="start" x="21" y="-294.5" font-family="Helvetica,sans-Serif" font-size="10.00">FaultLatch</text>
<text text-anchor="start" x="50" y="-278.5" font-family="Helvetica,sans-Serif" font-size="10.00"> </text>
<polygon fill="#666666" stroke="#666666" points="7,-450 7,-450 96,-450 96,-450 7,-450"/>
<polygon fill="#666666" stroke="#666666" points="7,-290 7,-290 19,-290 19,-290 7,-290"/>
<polygon fill="#666666" stroke="#666666" points="19,-290 19,-290 96,-290 96,-290 19,-290"/>
<polygon fill="none" stroke="#666666" points="7,-272 7,-468 96,-468 96,-272 7,-272"/>
</a>
</g>
</g>
<!-- Node3&#45;&gt;Node2 -->
<g id="edge2_Node000002_Node000003" class="edge">
<title>Node3&#45;&gt;Node2</title>
<g id="a_edge2_Node000002_Node000003"><a xlink:title=" ">
<path fill="none" stroke="#63b8ff" d="M51.5,-272.31C51.5,-234.47 51.5,-193.31 51.5,-164.49"/>
<polygon fill="none" stroke="#63b8ff" points="51.5,-164.69 47.5,-158.69 51.5,-152.69 55.5,-158.69 51.5,-164.69"/>
</a>
</g>
<text text-anchor="middle" x="92.75" y="-244.5" font-family="Helvetica,sans-Serif" font-size="10.00" fill="grey"> +IPrimaryOCP</text>
<text text-anchor="middle" x="92.75" y="-232.5" font-family="Helvetica,sans-Serif" font-size="10.00" fill="grey">+ISecondaryOCP</text>
<text text-anchor="middle" x="92.75" y="-220.5" font-family="Helvetica,sans-Serif" font-size="10.00" fill="grey">+ISenseSCP</text>
<text text-anchor="middle" x="92.75" y="-208.5" font-family="Helvetica,sans-Serif" font-size="10.00" fill="grey">+PowerSupplyOTP</text>
<text text-anchor="middle" x="92.75" y="-196.5" font-family="Helvetica,sans-Serif" font-size="10.00" fill="grey">+VPrimaryOVP</text>
<text text-anchor="middle" x="92.75" y="-184.5" font-family="Helvetica,sans-Serif" font-size="10.00" fill="grey">+VRail_5V</text>
<text text-anchor="middle" x="92.75" y="-172.5" font-family="Helvetica,sans-Serif" font-size="10.00" fill="grey">+VSecondaryOVP</text>
</g>
</g>
</svg>
