<?xml version="1.0" encoding="UTF-8" standalone="no"?>
<!DOCTYPE svg PUBLIC "-//W3C//DTD SVG 1.1//EN"
 "http://www.w3.org/Graphics/SVG/1.1/DTD/svg11.dtd">
<!-- Generated by graphviz version 8.1.0 (20230707.0739)
 -->
<!-- Title: PBV_Datatype_TX_t Pages: 1 -->
<svg width="119pt" height="124pt"
 viewBox="0.00 0.00 119.00 124.00" xmlns="http://www.w3.org/2000/svg" xmlns:xlink="http://www.w3.org/1999/xlink">
<g id="graph0" class="graph" transform="scale(1 1) rotate(0) translate(4 120)">
<title>PBV_Datatype_TX_t</title>
<!-- Node1 -->
<g id="Node000001" class="node">
<title>Node1</title>
<g id="a_Node000001"><a xlink:title=" ">
<polygon fill="#999999" stroke="none" points="111,-116 0,-116 0,0 111,0 111,-116"/>
<text text-anchor="start" x="11.25" y="-102.5" font-family="Helvetica,sans-Serif" font-size="10.00">PBV_Datatype_TX_t</text>
<text text-anchor="start" x="4" y="-86.5" font-family="Helvetica,sans-Serif" font-size="10.00">+</text>
<text text-anchor="start" x="14" y="-86.5" font-family="Helvetica,sans-Serif" font-size="10.00">Length</text>
<text text-anchor="start" x="4" y="-70.5" font-family="Helvetica,sans-Serif" font-size="10.00">+</text>
<text text-anchor="start" x="14" y="-70.5" font-family="Helvetica,sans-Serif" font-size="10.00">PBV_Protcol_ID</text>
<text text-anchor="start" x="4" y="-54.5" font-family="Helvetica,sans-Serif" font-size="10.00">+</text>
<text text-anchor="start" x="14" y="-54.5" font-family="Helvetica,sans-Serif" font-size="10.00">PBV_Signal_Ascii</text>
<text text-anchor="start" x="4" y="-38.5" font-family="Helvetica,sans-Serif" font-size="10.00">+</text>
<text text-anchor="start" x="14" y="-38.5" font-family="Helvetica,sans-Serif" font-size="10.00">PBV_Message_State</text>
<text text-anchor="start" x="4" y="-22.5" font-family="Helvetica,sans-Serif" font-size="10.00">+</text>
<text text-anchor="start" x="14" y="-22.5" font-family="Helvetica,sans-Serif" font-size="10.00">Data_Buffer</text>
<text text-anchor="start" x="54" y="-6.5" font-family="Helvetica,sans-Serif" font-size="10.00"> </text>
<polygon fill="#666666" stroke="#666666" points="0,-98 0,-98 111,-98 111,-98 0,-98"/>
<polygon fill="#666666" stroke="#666666" points="0,-18 0,-18 12,-18 12,-18 0,-18"/>
<polygon fill="#666666" stroke="#666666" points="12,-18 12,-18 111,-18 111,-18 12,-18"/>
<polygon fill="none" stroke="#666666" points="0,0 0,-116 111,-116 111,0 0,0"/>
</a>
</g>
</g>
</g>
</svg>
