<?xml version="1.0" encoding="UTF-8" standalone="no"?>
<!DOCTYPE svg PUBLIC "-//W3C//DTD SVG 1.1//EN"
 "http://www.w3.org/Graphics/SVG/1.1/DTD/svg11.dtd">
<!-- Generated by graphviz version 8.1.0 (20230707.0739)
 -->
<!-- Title: FAULT_s Pages: 1 -->
<svg width="135pt" height="400pt"
 viewBox="0.00 0.00 135.00 400.00" xmlns="http://www.w3.org/2000/svg" xmlns:xlink="http://www.w3.org/1999/xlink">
<g id="graph0" class="graph" transform="scale(1 1) rotate(0) translate(4 396)">
<title>FAULT_s</title>
<!-- Node1 -->
<g id="Node000001" class="node">
<title>Node1</title>
<g id="a_Node000001"><a xlink:title="Collection of faults to be monitored.">
<polygon fill="#999999" stroke="none" points="69.5,-52 19.5,-52 19.5,0 69.5,0 69.5,-52"/>
<text text-anchor="start" x="24.25" y="-38.5" font-family="Helvetica,sans-Serif" font-size="10.00">FAULT_s</text>
<text text-anchor="start" x="43" y="-22.5" font-family="Helvetica,sans-Serif" font-size="10.00"> </text>
<text text-anchor="start" x="43" y="-6.5" font-family="Helvetica,sans-Serif" font-size="10.00"> </text>
<polygon fill="#666666" stroke="#666666" points="19.5,-34 19.5,-34 69.5,-34 69.5,-34 19.5,-34"/>
<polygon fill="#666666" stroke="#666666" points="19.5,-18 19.5,-18 69.5,-18 69.5,-18 19.5,-18"/>
<polygon fill="none" stroke="#666666" points="19.5,0 19.5,-52 69.5,-52 69.5,0 19.5,0"/>
</a>
</g>
</g>
<!-- Node2 -->
<g id="Node000002" class="node">
<title>Node2</title>
<g id="a_Node000002"><a xlink:href="a00682.html" target="_top" xlink:title="The Fault object data structure contains a list of elements/variables that are used to detect/check a...">
<polygon fill="white" stroke="none" points="89,-392 0,-392 0,-196 89,-196 89,-392"/>
<text text-anchor="start" x="12.25" y="-378.5" font-family="Helvetica,sans-Serif" font-size="10.00">FAULT_OBJ_T</text>
<text text-anchor="start" x="4" y="-362.5" font-family="Helvetica,sans-Serif" font-size="10.00">+</text>
<text text-anchor="start" x="14" y="-362.5" font-family="Helvetica,sans-Serif" font-size="10.00">Val1_Threshold</text>
<text text-anchor="start" x="4" y="-346.5" font-family="Helvetica,sans-Serif" font-size="10.00">+</text>
<text text-anchor="start" x="14" y="-346.5" font-family="Helvetica,sans-Serif" font-size="10.00">Val1_Hysteresis</text>
<text text-anchor="start" x="4" y="-330.5" font-family="Helvetica,sans-Serif" font-size="10.00">+</text>
<text text-anchor="start" x="14" y="-330.5" font-family="Helvetica,sans-Serif" font-size="10.00">Val2_Threshold</text>
<text text-anchor="start" x="4" y="-314.5" font-family="Helvetica,sans-Serif" font-size="10.00">+</text>
<text text-anchor="start" x="14" y="-314.5" font-family="Helvetica,sans-Serif" font-size="10.00">Val2_Hysteresis</text>
<text text-anchor="start" x="4" y="-298.5" font-family="Helvetica,sans-Serif" font-size="10.00">+</text>
<text text-anchor="start" x="14" y="-298.5" font-family="Helvetica,sans-Serif" font-size="10.00">CounterSet</text>
<text text-anchor="start" x="4" y="-282.5" font-family="Helvetica,sans-Serif" font-size="10.00">+</text>
<text text-anchor="start" x="14" y="-282.5" font-family="Helvetica,sans-Serif" font-size="10.00">CounterReset</text>
<text text-anchor="start" x="4" y="-266.5" font-family="Helvetica,sans-Serif" font-size="10.00">+</text>
<text text-anchor="start" x="14" y="-266.5" font-family="Helvetica,sans-Serif" font-size="10.00">FaultCounter</text>
<text text-anchor="start" x="4" y="-250.5" font-family="Helvetica,sans-Serif" font-size="10.00">+</text>
<text text-anchor="start" x="14" y="-250.5" font-family="Helvetica,sans-Serif" font-size="10.00">FaultCode</text>
<text text-anchor="start" x="4" y="-234.5" font-family="Helvetica,sans-Serif" font-size="10.00">+</text>
<text text-anchor="start" x="14" y="-234.5" font-family="Helvetica,sans-Serif" font-size="10.00">FaultActive</text>
<text text-anchor="start" x="4" y="-218.5" font-family="Helvetica,sans-Serif" font-size="10.00">+</text>
<text text-anchor="start" x="14" y="-218.5" font-family="Helvetica,sans-Serif" font-size="10.00">FaultLatch</text>
<text text-anchor="start" x="43" y="-202.5" font-family="Helvetica,sans-Serif" font-size="10.00"> </text>
<polygon fill="#666666" stroke="#666666" points="0,-374 0,-374 89,-374 89,-374 0,-374"/>
<polygon fill="#666666" stroke="#666666" points="0,-214 0,-214 12,-214 12,-214 0,-214"/>
<polygon fill="#666666" stroke="#666666" points="12,-214 12,-214 89,-214 89,-214 12,-214"/>
<polygon fill="none" stroke="#666666" points="0,-196 0,-392 89,-392 89,-196 0,-196"/>
</a>
</g>
</g>
<!-- Node2&#45;&gt;Node1 -->
<g id="edge1_Node000001_Node000002" class="edge">
<title>Node2&#45;&gt;Node1</title>
<g id="a_edge1_Node000001_Node000002"><a xlink:title=" ">
<path fill="none" stroke="#63b8ff" d="M44.5,-196.22C44.5,-150.65 44.5,-98.95 44.5,-64.81"/>
<polygon fill="none" stroke="#63b8ff" points="44.5,-64.67 40.5,-58.67 44.5,-52.67 48.5,-58.67 44.5,-64.67"/>
</a>
</g>
<text text-anchor="middle" x="85.75" y="-168.5" font-family="Helvetica,sans-Serif" font-size="10.00" fill="grey"> +IPrimaryOCP</text>
<text text-anchor="middle" x="85.75" y="-156.5" font-family="Helvetica,sans-Serif" font-size="10.00" fill="grey">+ISecondaryOCP</text>
<text text-anchor="middle" x="85.75" y="-144.5" font-family="Helvetica,sans-Serif" font-size="10.00" fill="grey">+ISenseSCP</text>
<text text-anchor="middle" x="85.75" y="-132.5" font-family="Helvetica,sans-Serif" font-size="10.00" fill="grey">+PowerSupplyOTP</text>
<text text-anchor="middle" x="85.75" y="-120.5" font-family="Helvetica,sans-Serif" font-size="10.00" fill="grey">+VPrimaryOVP</text>
<text text-anchor="middle" x="85.75" y="-108.5" font-family="Helvetica,sans-Serif" font-size="10.00" fill="grey">+VPrimaryUVP</text>
<text text-anchor="middle" x="85.75" y="-96.5" font-family="Helvetica,sans-Serif" font-size="10.00" fill="grey">+VRail_5V</text>
<text text-anchor="middle" x="85.75" y="-84.5" font-family="Helvetica,sans-Serif" font-size="10.00" fill="grey">+VSecondaryOVP</text>
<text text-anchor="middle" x="85.75" y="-72.5" font-family="Helvetica,sans-Serif" font-size="10.00" fill="grey">+VSecondaryUVP</text>
</g>
</g>
</svg>
