<?xml version="1.0" encoding="UTF-8" standalone="no"?>
<!DOCTYPE svg PUBLIC "-//W3C//DTD SVG 1.1//EN"
 "http://www.w3.org/Graphics/SVG/1.1/DTD/svg11.dtd">
<!-- Generated by graphviz version 8.1.0 (20230707.0739)
 -->
<!-- Title: FAULT_SETTINGS_s Pages: 1 -->
<!--zoomable 476 -->

<svg id="main" version="1.1" xmlns="http://www.w3.org/2000/svg" xmlns:xlink="http://www.w3.org/1999/xlink" xml:space="preserve" onload="init(evt)">
<style type="text/css"><![CDATA[
.node, .edge {opacity: 0.7;}
.node.selected, .edge.selected {opacity: 1;}
.edge:hover path { stroke: red; }
.edge:hover polygon { stroke: red; fill: red; }
]]></style>

<defs>
  <circle id="rim" cx="0" cy="0" r="7"/>
  <circle id="rim2" cx="0" cy="0" r="3.5"/>
  <g id="zoomPlus">
    <use xlink:href="#rim" fill="#404040"><set attributeName="fill" to="#808080" begin="zoomplus.mouseover" end="zoomplus.mouseout"/></use>
    <path d="M-4,0h8M0,-4v8" fill="none" stroke="white" stroke-width="1.5" pointer-events="none"/>
  </g>
  <g id="zoomMin">
    <use xlink:href="#rim" fill="#404040"><set attributeName="fill" to="#808080" begin="zoomminus.mouseover" end="zoomminus.mouseout"/></use>
    <path d="M-4,0h8" fill="none" stroke="white" stroke-width="1.5" pointer-events="none"/>
  </g>
  <g id="arrowUp" transform="translate(30 24)">
    <use xlink:href="#rim"/>
    <path pointer-events="none" fill="none" stroke="white" stroke-width="1.5" d="M0,-3.0v7 M-2.5,-0.5L0,-3.0L2.5,-0.5"/>
  </g>
  <g id="arrowRight" transform="rotate(90) translate(36 -43)">
    <use xlink:href="#rim"/>
    <path pointer-events="none" fill="none" stroke="white" stroke-width="1.5" d="M0,-3.0v7 M-2.5,-0.5L0,-3.0L2.5,-0.5"/>
  </g>
  <g id="arrowDown" transform="rotate(180) translate(-30 -48)">
    <use xlink:href="#rim"/>
    <path pointer-events="none" fill="none" stroke="white" stroke-width="1.5" d="M0,-3.0v7 M-2.5,-0.5L0,-3.0L2.5,-0.5"/>
  </g>
  <g id="arrowLeft" transform="rotate(270) translate(-36 17)">
    <use xlink:href="#rim"/>
    <path pointer-events="none" fill="none" stroke="white" stroke-width="1.5" d="M0,-3.0v7 M-2.5,-0.5L0,-3.0L2.5,-0.5"/>
  </g>
  <g id="resetDef">
    <use xlink:href="#rim2" fill="#404040"><set attributeName="fill" to="#808080" begin="reset.mouseover" end="reset.mouseout"/></use>
  </g>
</defs>
<script type="application/ecmascript">
var viewWidth = 142;
var viewHeight = 476;
var sectionId = 'dynsection-0';
</script>
<script type="application/ecmascript" xlink:href="svg.min.js"/>
<svg id="graph" class="graph">
<g id="viewport">
<title>FAULT_SETTINGS_s</title>
<!-- Node1 -->
<g id="Node000001" class="node">
<title>Node1</title>
<g id="a_Node000001"><a xlink:title="Contains Fault settings.">
<polygon fill="#999999" stroke="none" points="103,-52 0,-52 0,0 103,0 103,-52"/>
<text text-anchor="start" x="5" y="-38.5" font-family="Helvetica,sans-Serif" font-size="10.00">FAULT_SETTINGS_s</text>
<text text-anchor="start" x="10" y="-22.5" font-family="Helvetica,sans-Serif" font-size="10.00">+</text>
<text text-anchor="start" x="26" y="-22.5" font-family="Helvetica,sans-Serif" font-size="10.00">FaultDetected</text>
<text text-anchor="start" x="50" y="-6.5" font-family="Helvetica,sans-Serif" font-size="10.00"> </text>
<polygon fill="#666666" stroke="#666666" points="0,-34 0,-34 103,-34 103,-34 0,-34"/>
<polygon fill="#666666" stroke="#666666" points="0,-18 0,-18 24,-18 24,-18 0,-18"/>
<polygon fill="#666666" stroke="#666666" points="24,-18 24,-18 103,-18 103,-18 24,-18"/>
<polygon fill="none" stroke="#666666" points="0,0 0,-52 103,-52 103,0 0,0"/>
</a>
</g>
</g>
<!-- Node2 -->
<g id="Node000002" class="node">
<title>Node2</title>
<g id="a_Node000002"><a xlink:href="a00661.html" target="_top" xlink:title="Collection of faults to be monitored.">
<polygon fill="white" stroke="none" points="76.5,-152 26.5,-152 26.5,-100 76.5,-100 76.5,-152"/>
<text text-anchor="start" x="31.25" y="-138.5" font-family="Helvetica,sans-Serif" font-size="10.00">FAULT_s</text>
<text text-anchor="start" x="50" y="-122.5" font-family="Helvetica,sans-Serif" font-size="10.00"> </text>
<text text-anchor="start" x="50" y="-106.5" font-family="Helvetica,sans-Serif" font-size="10.00"> </text>
<polygon fill="#666666" stroke="#666666" points="26.5,-134 26.5,-134 76.5,-134 76.5,-134 26.5,-134"/>
<polygon fill="#666666" stroke="#666666" points="26.5,-118 26.5,-118 76.5,-118 76.5,-118 26.5,-118"/>
<polygon fill="none" stroke="#666666" points="26.5,-100 26.5,-152 76.5,-152 76.5,-100 26.5,-100"/>
</a>
</g>
</g>
<!-- Node2&#45;&gt;Node1 -->
<g id="edge1_Node000001_Node000002" class="edge">
<title>Node2&#45;&gt;Node1</title>
<g id="a_edge1_Node000001_Node000002"><a xlink:title=" ">
<path fill="none" stroke="#63b8ff" d="M51.5,-100.02C51.5,-89.3 51.5,-76.56 51.5,-64.73"/>
<polygon fill="none" stroke="#63b8ff" points="51.5,-64.84 47.5,-58.84 51.5,-52.84 55.5,-58.84 51.5,-64.84"/>
</a>
</g>
<text text-anchor="middle" x="70.25" y="-72.5" font-family="Helvetica,sans-Serif" font-size="10.00" fill="grey"> +Object</text>
</g>
<!-- Node3 -->
<g id="Node000003" class="node">
<title>Node3</title>
<g id="a_Node000003"><a xlink:href="a00657.html" target="_top" xlink:title="The Fault object data structure contains a list of elements/variables that are used to detect/check a...">
<polygon fill="white" stroke="none" points="96,-468 7,-468 7,-272 96,-272 96,-468"/>
<text text-anchor="start" x="19.25" y="-454.5" font-family="Helvetica,sans-Serif" font-size="10.00">FAULT_OBJ_T</text>
<text text-anchor="start" x="11" y="-438.5" font-family="Helvetica,sans-Serif" font-size="10.00">+</text>
<text text-anchor="start" x="21" y="-438.5" font-family="Helvetica,sans-Serif" font-size="10.00">Val1_Threshold</text>
<text text-anchor="start" x="11" y="-422.5" font-family="Helvetica,sans-Serif" font-size="10.00">+</text>
<text text-anchor="start" x="21" y="-422.5" font-family="Helvetica,sans-Serif" font-size="10.00">Val1_Hysteresis</text>
<text text-anchor="start" x="11" y="-406.5" font-family="Helvetica,sans-Serif" font-size="10.00">+</text>
<text text-anchor="start" x="21" y="-406.5" font-family="Helvetica,sans-Serif" font-size="10.00">Val2_Threshold</text>
<text text-anchor="start" x="11" y="-390.5" font-family="Helvetica,sans-Serif" font-size="10.00">+</text>
<text text-anchor="start" x="21" y="-390.5" font-family="Helvetica,sans-Serif" font-size="10.00">Val2_Hysteresis</text>
<text text-anchor="start" x="11" y="-374.5" font-family="Helvetica,sans-Serif" font-size="10.00">+</text>
<text text-anchor="start" x="21" y="-374.5" font-family="Helvetica,sans-Serif" font-size="10.00">CounterSet</text>
<text text-anchor="start" x="11" y="-358.5" font-family="Helvetica,sans-Serif" font-size="10.00">+</text>
<text text-anchor="start" x="21" y="-358.5" font-family="Helvetica,sans-Serif" font-size="10.00">CounterReset</text>
<text text-anchor="start" x="11" y="-342.5" font-family="Helvetica,sans-Serif" font-size="10.00">+</text>
<text text-anchor="start" x="21" y="-342.5" font-family="Helvetica,sans-Serif" font-size="10.00">FaultCounter</text>
<text text-anchor="start" x="11" y="-326.5" font-family="Helvetica,sans-Serif" font-size="10.00">+</text>
<text text-anchor="start" x="21" y="-326.5" font-family="Helvetica,sans-Serif" font-size="10.00">FaultCode</text>
<text text-anchor="start" x="11" y="-310.5" font-family="Helvetica,sans-Serif" font-size="10.00">+</text>
<text text-anchor="start" x="21" y="-310.5" font-family="Helvetica,sans-Serif" font-size="10.00">FaultActive</text>
<text text-anchor="start" x="11" y="-294.5" font-family="Helvetica,sans-Serif" font-size="10.00">+</text>
<text text-anchor="start" x="21" y="-294.5" font-family="Helvetica,sans-Serif" font-size="10.00">FaultLatch</text>
<text text-anchor="start" x="50" y="-278.5" font-family="Helvetica,sans-Serif" font-size="10.00"> </text>
<polygon fill="#666666" stroke="#666666" points="7,-450 7,-450 96,-450 96,-450 7,-450"/>
<polygon fill="#666666" stroke="#666666" points="7,-290 7,-290 19,-290 19,-290 7,-290"/>
<polygon fill="#666666" stroke="#666666" points="19,-290 19,-290 96,-290 96,-290 19,-290"/>
<polygon fill="none" stroke="#666666" points="7,-272 7,-468 96,-468 96,-272 7,-272"/>
</a>
</g>
</g>
<!-- Node3&#45;&gt;Node2 -->
<g id="edge2_Node000002_Node000003" class="edge">
<title>Node3&#45;&gt;Node2</title>
<g id="a_edge2_Node000002_Node000003"><a xlink:title=" ">
<path fill="none" stroke="#63b8ff" d="M51.5,-272.31C51.5,-234.47 51.5,-193.31 51.5,-164.49"/>
<polygon fill="none" stroke="#63b8ff" points="51.5,-164.69 47.5,-158.69 51.5,-152.69 55.5,-158.69 51.5,-164.69"/>
</a>
</g>
<text text-anchor="middle" x="92.75" y="-244.5" font-family="Helvetica,sans-Serif" font-size="10.00" fill="grey"> +IPrimaryOCP</text>
<text text-anchor="middle" x="92.75" y="-232.5" font-family="Helvetica,sans-Serif" font-size="10.00" fill="grey">+ISecondaryOCP</text>
<text text-anchor="middle" x="92.75" y="-220.5" font-family="Helvetica,sans-Serif" font-size="10.00" fill="grey">+ISenseSCP</text>
<text text-anchor="middle" x="92.75" y="-208.5" font-family="Helvetica,sans-Serif" font-size="10.00" fill="grey">+PowerSupplyOTP</text>
<text text-anchor="middle" x="92.75" y="-196.5" font-family="Helvetica,sans-Serif" font-size="10.00" fill="grey">+VPrimaryOVP</text>
<text text-anchor="middle" x="92.75" y="-184.5" font-family="Helvetica,sans-Serif" font-size="10.00" fill="grey">+VRail_5V</text>
<text text-anchor="middle" x="92.75" y="-172.5" font-family="Helvetica,sans-Serif" font-size="10.00" fill="grey">+VSecondaryOVP</text>
</g>
</g>
</svg>

<g id="navigator" transform="translate(0 0)" fill="#404254">
  <rect fill="#f2f5e9" fill-opacity="0.5" stroke="#606060" stroke-width=".5" x="0" y="0" width="60" height="60"/>
  <use id="zoomplus" xlink:href="#zoomPlus" x="17" y="9" onmousedown="handleZoom(evt,'in')"/>
  <use id="zoomminus" xlink:href="#zoomMin" x="42" y="9" onmousedown="handleZoom(evt,'out')"/>
  <use id="reset" xlink:href="#resetDef" x="30" y="36" onmousedown="handleReset()"/>
   <use id="arrowup" xlink:href="#arrowUp" x="0" y="0" onmousedown="handlePan(0,-1)"/>
  <use id="arrowright" xlink:href="#arrowRight" x="0" y="0" onmousedown="handlePan(1,0)"/>
  <use id="arrowdown" xlink:href="#arrowDown" x="0" y="0" onmousedown="handlePan(0,1)"/>
  <use id="arrowleft" xlink:href="#arrowLeft" x="0" y="0" onmousedown="handlePan(-1,0)"/>
</g>
<svg viewBox="0 0 15 15" width="100%" height="30px" preserveAspectRatio="xMaxYMin meet">
 <g id="arrow_out" transform="scale(0.3 0.3)">
  <a xlink:href="a00663_org.svg" target="_base">
   <rect id="button" ry="5" rx="5" y="6" x="6" height="38" width="38"
        fill="#f2f5e9" fill-opacity="0.5" stroke="#606060" stroke-width="1.0"/>
   <path id="arrow"
     d="M 11.500037,31.436501 C 11.940474,20.09759 22.043105,11.32322 32.158766,21.979434 L 37.068811,17.246167 C 37.068811,17.246167 37.088388,32 37.088388,32 L 22.160133,31.978069 C 22.160133,31.978069 26.997745,27.140456 26.997745,27.140456 C 18.528582,18.264221 13.291696,25.230495 11.500037,31.436501 z"
     style="fill:#404040;"/>
  </a>
 </g>
</svg>

<style type='text/css'>
<![CDATA[
[data-mouse-over-selected='false'] { opacity: 0.7; }
[data-mouse-over-selected='true']  { opacity: 1.0; }
]]>
</style>
<script type="application/ecmascript"><![CDATA[
document.addEventListener('DOMContentLoaded', (event) => {
  highlightEdges();
  highlightAdjacentNodes();
});
]]></script>
</svg>
