<?xml version="1.0" encoding="UTF-8" standalone="no"?>
<!DOCTYPE svg PUBLIC "-//W3C//DTD SVG 1.1//EN"
 "http://www.w3.org/Graphics/SVG/1.1/DTD/svg11.dtd">
<!-- Generated by graphviz version 8.1.0 (20230707.0739)
 -->
<!-- Title: OS_RESET_RESETCAUSEBITS_t Pages: 1 -->
<svg width="170pt" height="76pt"
 viewBox="0.00 0.00 170.00 76.00" xmlns="http://www.w3.org/2000/svg" xmlns:xlink="http://www.w3.org/1999/xlink">
<g id="graph0" class="graph" transform="scale(1 1) rotate(0) translate(4 72)">
<title>OS_RESET_RESETCAUSEBITS_t</title>
<!-- Node1 -->
<g id="Node000001" class="node">
<title>Node1</title>
<g id="a_Node000001"><a xlink:title=" ">
<polygon fill="#999999" stroke="none" points="162,-68 0,-68 0,0 162,0 162,-68"/>
<text text-anchor="start" x="4.88" y="-54.5" font-family="Helvetica,sans-Serif" font-size="10.00">OS_RESET_RESETCAUSEBITS_t</text>
<text text-anchor="start" x="19" y="-38.5" font-family="Helvetica,sans-Serif" font-size="10.00">+</text>
<text text-anchor="start" x="44" y="-38.5" font-family="Helvetica,sans-Serif" font-size="10.00">reset_by_watchdog</text>
<text text-anchor="start" x="19" y="-22.5" font-family="Helvetica,sans-Serif" font-size="10.00">+</text>
<text text-anchor="start" x="44" y="-22.5" font-family="Helvetica,sans-Serif" font-size="10.00">__pad0__</text>
<text text-anchor="start" x="79.5" y="-6.5" font-family="Helvetica,sans-Serif" font-size="10.00"> </text>
<polygon fill="#666666" stroke="#666666" points="0,-50 0,-50 162,-50 162,-50 0,-50"/>
<polygon fill="#666666" stroke="#666666" points="0,-18 0,-18 42,-18 42,-18 0,-18"/>
<polygon fill="#666666" stroke="#666666" points="42,-18 42,-18 162,-18 162,-18 42,-18"/>
<polygon fill="none" stroke="#666666" points="0,0 0,-68 162,-68 162,0 0,0"/>
</a>
</g>
</g>
</g>
</svg>
