<?xml version="1.0" encoding="UTF-8" standalone="no"?>
<!DOCTYPE svg PUBLIC "-//W3C//DTD SVG 1.1//EN"
 "http://www.w3.org/Graphics/SVG/1.1/DTD/svg11.dtd">
<!-- Generated by graphviz version 8.1.0 (20230707.0739)
 -->
<!-- Title: POWER_CONTROL_s Pages: 1 -->
<!--zoomable 784 -->

<svg id="main" version="1.1" xmlns="http://www.w3.org/2000/svg" xmlns:xlink="http://www.w3.org/1999/xlink" xml:space="preserve" onload="init(evt)">
<style type="text/css"><![CDATA[
.node, .edge {opacity: 0.7;}
.node.selected, .edge.selected {opacity: 1;}
.edge:hover path { stroke: red; }
.edge:hover polygon { stroke: red; fill: red; }
]]></style>

<defs>
  <circle id="rim" cx="0" cy="0" r="7"/>
  <circle id="rim2" cx="0" cy="0" r="3.5"/>
  <g id="zoomPlus">
    <use xlink:href="#rim" fill="#404040"><set attributeName="fill" to="#808080" begin="zoomplus.mouseover" end="zoomplus.mouseout"/></use>
    <path d="M-4,0h8M0,-4v8" fill="none" stroke="white" stroke-width="1.5" pointer-events="none"/>
  </g>
  <g id="zoomMin">
    <use xlink:href="#rim" fill="#404040"><set attributeName="fill" to="#808080" begin="zoomminus.mouseover" end="zoomminus.mouseout"/></use>
    <path d="M-4,0h8" fill="none" stroke="white" stroke-width="1.5" pointer-events="none"/>
  </g>
  <g id="arrowUp" transform="translate(30 24)">
    <use xlink:href="#rim"/>
    <path pointer-events="none" fill="none" stroke="white" stroke-width="1.5" d="M0,-3.0v7 M-2.5,-0.5L0,-3.0L2.5,-0.5"/>
  </g>
  <g id="arrowRight" transform="rotate(90) translate(36 -43)">
    <use xlink:href="#rim"/>
    <path pointer-events="none" fill="none" stroke="white" stroke-width="1.5" d="M0,-3.0v7 M-2.5,-0.5L0,-3.0L2.5,-0.5"/>
  </g>
  <g id="arrowDown" transform="rotate(180) translate(-30 -48)">
    <use xlink:href="#rim"/>
    <path pointer-events="none" fill="none" stroke="white" stroke-width="1.5" d="M0,-3.0v7 M-2.5,-0.5L0,-3.0L2.5,-0.5"/>
  </g>
  <g id="arrowLeft" transform="rotate(270) translate(-36 17)">
    <use xlink:href="#rim"/>
    <path pointer-events="none" fill="none" stroke="white" stroke-width="1.5" d="M0,-3.0v7 M-2.5,-0.5L0,-3.0L2.5,-0.5"/>
  </g>
  <g id="resetDef">
    <use xlink:href="#rim2" fill="#404040"><set attributeName="fill" to="#808080" begin="reset.mouseover" end="reset.mouseout"/></use>
  </g>
</defs>
<script type="application/ecmascript">
var viewWidth = 921;
var viewHeight = 784;
var sectionId = 'dynsection-0';
</script>
<script type="application/ecmascript" xlink:href="svg.min.js"/>
<svg id="graph" class="graph">
<g id="viewport">
<title>POWER_CONTROL_s</title>
<!-- Node1 -->
<g id="Node000001" class="node">
<title>Node1</title>
<g id="a_Node000001"><a xlink:title="Power control API structure.">
<polygon fill="#999999" stroke="none" points="559,-68 450,-68 450,0 559,0 559,-68"/>
<text text-anchor="start" x="455" y="-54.5" font-family="Helvetica,sans-Serif" font-size="10.00">POWER_CONTROL_s</text>
<text text-anchor="start" x="460.5" y="-38.5" font-family="Helvetica,sans-Serif" font-size="10.00">+</text>
<text text-anchor="start" x="477" y="-38.5" font-family="Helvetica,sans-Serif" font-size="10.00">State</text>
<text text-anchor="start" x="460.5" y="-22.5" font-family="Helvetica,sans-Serif" font-size="10.00">+</text>
<text text-anchor="start" x="477" y="-22.5" font-family="Helvetica,sans-Serif" font-size="10.00">PowerDirection</text>
<text text-anchor="start" x="503" y="-6.5" font-family="Helvetica,sans-Serif" font-size="10.00"> </text>
<polygon fill="#666666" stroke="#666666" points="450,-50 450,-50 559,-50 559,-50 450,-50"/>
<polygon fill="#666666" stroke="#666666" points="450,-18 450,-18 475,-18 475,-18 450,-18"/>
<polygon fill="#666666" stroke="#666666" points="475,-18 475,-18 559,-18 559,-18 475,-18"/>
<polygon fill="none" stroke="#666666" points="450,0 450,-68 559,-68 559,0 450,0"/>
</a>
</g>
</g>
<!-- Node2 -->
<g id="Node000002" class="node">
<title>Node2</title>
<g id="a_Node000002"><a xlink:href="a00731.html" target="_top" xlink:title="Power converter status flags.">
<polygon fill="white" stroke="none" points="95,-296 0,-296 0,-180 95,-180 95,-296"/>
<text text-anchor="start" x="4.75" y="-282.5" font-family="Helvetica,sans-Serif" font-size="10.00">STATUS_FLAGS_s</text>
<text text-anchor="start" x="11" y="-266.5" font-family="Helvetica,sans-Serif" font-size="10.00">+</text>
<text text-anchor="start" x="28" y="-266.5" font-family="Helvetica,sans-Serif" font-size="10.00">Running</text>
<text text-anchor="start" x="11" y="-250.5" font-family="Helvetica,sans-Serif" font-size="10.00">+</text>
<text text-anchor="start" x="28" y="-250.5" font-family="Helvetica,sans-Serif" font-size="10.00">FaultActive</text>
<text text-anchor="start" x="11" y="-234.5" font-family="Helvetica,sans-Serif" font-size="10.00">+</text>
<text text-anchor="start" x="28" y="-234.5" font-family="Helvetica,sans-Serif" font-size="10.00">notUsed</text>
<text text-anchor="start" x="11" y="-218.5" font-family="Helvetica,sans-Serif" font-size="10.00">+</text>
<text text-anchor="start" x="28" y="-218.5" font-family="Helvetica,sans-Serif" font-size="10.00">value</text>
<text text-anchor="start" x="11" y="-202.5" font-family="Helvetica,sans-Serif" font-size="10.00">+</text>
<text text-anchor="start" x="28" y="-202.5" font-family="Helvetica,sans-Serif" font-size="10.00">@5</text>
<text text-anchor="start" x="46" y="-186.5" font-family="Helvetica,sans-Serif" font-size="10.00"> </text>
<polygon fill="#666666" stroke="#666666" points="0,-278 0,-278 95,-278 95,-278 0,-278"/>
<polygon fill="#666666" stroke="#666666" points="0,-198 0,-198 26,-198 26,-198 0,-198"/>
<polygon fill="#666666" stroke="#666666" points="26,-198 26,-198 95,-198 95,-198 26,-198"/>
<polygon fill="none" stroke="#666666" points="0,-180 0,-296 95,-296 95,-180 0,-180"/>
</a>
</g>
</g>
<!-- Node2&#45;&gt;Node1 -->
<g id="edge1_Node000001_Node000002" class="edge">
<title>Node2&#45;&gt;Node1</title>
<g id="a_edge1_Node000001_Node000002"><a xlink:title=" ">
<path fill="none" stroke="#63b8ff" d="M72.18,-180.24C80.7,-165.59 91.46,-150.9 104.5,-140 200.38,-59.84 350.8,-40.15 437.27,-35.75"/>
<polygon fill="none" stroke="#63b8ff" points="437.17,-35.75 442.99,-31.49 449.16,-35.23 443.34,-39.49 437.17,-35.75"/>
</a>
</g>
<text text-anchor="middle" x="209.25" y="-100.5" font-family="Helvetica,sans-Serif" font-size="10.00" fill="grey"> +Status</text>
</g>
<!-- Node3 -->
<g id="Node000003" class="node">
<title>Node3</title>
<g id="a_Node000003"><a xlink:href="a00751.html" target="_top" xlink:title="Collection of power control properties.">
<polygon fill="white" stroke="none" points="253.5,-296 113.5,-296 113.5,-180 253.5,-180 253.5,-296"/>
<text text-anchor="start" x="118.25" y="-282.5" font-family="Helvetica,sans-Serif" font-size="10.00">PWR_CTRL_PROPERTIES_s</text>
<text text-anchor="start" x="131" y="-266.5" font-family="Helvetica,sans-Serif" font-size="10.00">+</text>
<text text-anchor="start" x="154.5" y="-266.5" font-family="Helvetica,sans-Serif" font-size="10.00">VSecReference</text>
<text text-anchor="start" x="131" y="-250.5" font-family="Helvetica,sans-Serif" font-size="10.00">+</text>
<text text-anchor="start" x="154.5" y="-250.5" font-family="Helvetica,sans-Serif" font-size="10.00">VPriReference</text>
<text text-anchor="start" x="131" y="-234.5" font-family="Helvetica,sans-Serif" font-size="10.00">+</text>
<text text-anchor="start" x="154.5" y="-234.5" font-family="Helvetica,sans-Serif" font-size="10.00">IReference</text>
<text text-anchor="start" x="131" y="-218.5" font-family="Helvetica,sans-Serif" font-size="10.00">+</text>
<text text-anchor="start" x="154.5" y="-218.5" font-family="Helvetica,sans-Serif" font-size="10.00">PwrReference</text>
<text text-anchor="start" x="131" y="-202.5" font-family="Helvetica,sans-Serif" font-size="10.00">+</text>
<text text-anchor="start" x="154.5" y="-202.5" font-family="Helvetica,sans-Serif" font-size="10.00">Enable</text>
<text text-anchor="start" x="182" y="-186.5" font-family="Helvetica,sans-Serif" font-size="10.00"> </text>
<polygon fill="#666666" stroke="#666666" points="113.5,-278 113.5,-278 253.5,-278 253.5,-278 113.5,-278"/>
<polygon fill="#666666" stroke="#666666" points="113.5,-198 113.5,-198 152.5,-198 152.5,-198 113.5,-198"/>
<polygon fill="#666666" stroke="#666666" points="152.5,-198 152.5,-198 253.5,-198 253.5,-198 152.5,-198"/>
<polygon fill="none" stroke="#666666" points="113.5,-180 113.5,-296 253.5,-296 253.5,-180 113.5,-180"/>
</a>
</g>
</g>
<!-- Node3&#45;&gt;Node1 -->
<g id="edge2_Node000001_Node000003" class="edge">
<title>Node3&#45;&gt;Node1</title>
<g id="a_edge2_Node000001_Node000003"><a xlink:title=" ">
<path fill="none" stroke="#63b8ff" d="M222.54,-180.01C234.22,-165.7 247.85,-151.23 262.5,-140 315.39,-99.46 386.34,-71.09 437.73,-54.14"/>
<polygon fill="none" stroke="#63b8ff" points="437.74,-54.14 442.22,-48.49 449.16,-50.46 444.67,-56.11 437.74,-54.14"/>
</a>
</g>
<text text-anchor="middle" x="376.12" y="-100.5" font-family="Helvetica,sans-Serif" font-size="10.00" fill="grey"> +Properties</text>
</g>
<!-- Node4 -->
<g id="Node000004" class="node">
<title>Node4</title>
<g id="a_Node000004"><a xlink:href="a00723.html" target="_top" xlink:title="Power converter switch&#45;node specifications.">
<polygon fill="white" stroke="none" points="423.5,-336 271.5,-336 271.5,-140 423.5,-140 423.5,-336"/>
<text text-anchor="start" x="307" y="-322.5" font-family="Helvetica,sans-Serif" font-size="10.00">SWITCH_NODE_s</text>
<text text-anchor="start" x="275.5" y="-306.5" font-family="Helvetica,sans-Serif" font-size="10.00">+</text>
<text text-anchor="start" x="285.5" y="-306.5" font-family="Helvetica,sans-Serif" font-size="10.00">ControlPeriod</text>
<text text-anchor="start" x="275.5" y="-290.5" font-family="Helvetica,sans-Serif" font-size="10.00">+</text>
<text text-anchor="start" x="285.5" y="-290.5" font-family="Helvetica,sans-Serif" font-size="10.00">ControlDutyCycle</text>
<text text-anchor="start" x="275.5" y="-274.5" font-family="Helvetica,sans-Serif" font-size="10.00">+</text>
<text text-anchor="start" x="285.5" y="-274.5" font-family="Helvetica,sans-Serif" font-size="10.00">ControlPhase</text>
<text text-anchor="start" x="275.5" y="-258.5" font-family="Helvetica,sans-Serif" font-size="10.00">+</text>
<text text-anchor="start" x="285.5" y="-258.5" font-family="Helvetica,sans-Serif" font-size="10.00">ControlPhase_P2S_Degreex10</text>
<text text-anchor="start" x="275.5" y="-242.5" font-family="Helvetica,sans-Serif" font-size="10.00">+</text>
<text text-anchor="start" x="285.5" y="-242.5" font-family="Helvetica,sans-Serif" font-size="10.00">ControlPhase_P2S_Target</text>
<text text-anchor="start" x="275.5" y="-226.5" font-family="Helvetica,sans-Serif" font-size="10.00">+</text>
<text text-anchor="start" x="285.5" y="-226.5" font-family="Helvetica,sans-Serif" font-size="10.00">DeadTimeHigh</text>
<text text-anchor="start" x="275.5" y="-210.5" font-family="Helvetica,sans-Serif" font-size="10.00">+</text>
<text text-anchor="start" x="285.5" y="-210.5" font-family="Helvetica,sans-Serif" font-size="10.00">DeadTimeLow</text>
<text text-anchor="start" x="275.5" y="-194.5" font-family="Helvetica,sans-Serif" font-size="10.00">+</text>
<text text-anchor="start" x="285.5" y="-194.5" font-family="Helvetica,sans-Serif" font-size="10.00">PBVPeriodTarget</text>
<text text-anchor="start" x="275.5" y="-178.5" font-family="Helvetica,sans-Serif" font-size="10.00">+</text>
<text text-anchor="start" x="285.5" y="-178.5" font-family="Helvetica,sans-Serif" font-size="10.00">PBVControlPhaseTarget</text>
<text text-anchor="start" x="275.5" y="-162.5" font-family="Helvetica,sans-Serif" font-size="10.00">+</text>
<text text-anchor="start" x="285.5" y="-162.5" font-family="Helvetica,sans-Serif" font-size="10.00">LowPowerSlowMode</text>
<text text-anchor="start" x="346" y="-146.5" font-family="Helvetica,sans-Serif" font-size="10.00"> </text>
<polygon fill="#666666" stroke="#666666" points="271.5,-318 271.5,-318 423.5,-318 423.5,-318 271.5,-318"/>
<polygon fill="#666666" stroke="#666666" points="271.5,-158 271.5,-158 283.5,-158 283.5,-158 271.5,-158"/>
<polygon fill="#666666" stroke="#666666" points="283.5,-158 283.5,-158 423.5,-158 423.5,-158 283.5,-158"/>
<polygon fill="none" stroke="#666666" points="271.5,-140 271.5,-336 423.5,-336 423.5,-140 271.5,-140"/>
</a>
</g>
</g>
<!-- Node4&#45;&gt;Node1 -->
<g id="edge3_Node000001_Node000004" class="edge">
<title>Node4&#45;&gt;Node1</title>
<g id="a_edge3_Node000001_Node000004"><a xlink:title=" ">
<path fill="none" stroke="#63b8ff" d="M422.78,-140.14C439.75,-118.3 456.93,-96.21 471.12,-77.95"/>
<polygon fill="none" stroke="#63b8ff" points="471.19,-77.85 471.72,-70.66 478.56,-68.38 478.03,-75.57 471.19,-77.85"/>
</a>
</g>
<text text-anchor="middle" x="477.88" y="-100.5" font-family="Helvetica,sans-Serif" font-size="10.00" fill="grey"> +Pwm</text>
</g>
<!-- Node5 -->
<g id="Node000005" class="node">
<title>Node5</title>
<g id="a_Node000005"><a xlink:href="a00727.html" target="_top" xlink:title="Publicly accessible data buffer of most recent runtime data values.">
<polygon fill="white" stroke="none" points="567.5,-336 441.5,-336 441.5,-140 567.5,-140 567.5,-336"/>
<text text-anchor="start" x="446.38" y="-322.5" font-family="Helvetica,sans-Serif" font-size="10.00">FEEDBACK_SETTINGS_s</text>
<text text-anchor="start" x="449.5" y="-306.5" font-family="Helvetica,sans-Serif" font-size="10.00">+</text>
<text text-anchor="start" x="463.5" y="-306.5" font-family="Helvetica,sans-Serif" font-size="10.00">VPriVoltage</text>
<text text-anchor="start" x="449.5" y="-290.5" font-family="Helvetica,sans-Serif" font-size="10.00">+</text>
<text text-anchor="start" x="463.5" y="-290.5" font-family="Helvetica,sans-Serif" font-size="10.00">VSecVoltage</text>
<text text-anchor="start" x="449.5" y="-274.5" font-family="Helvetica,sans-Serif" font-size="10.00">+</text>
<text text-anchor="start" x="463.5" y="-274.5" font-family="Helvetica,sans-Serif" font-size="10.00">ISensePrimary</text>
<text text-anchor="start" x="449.5" y="-258.5" font-family="Helvetica,sans-Serif" font-size="10.00">+</text>
<text text-anchor="start" x="463.5" y="-258.5" font-family="Helvetica,sans-Serif" font-size="10.00">ISenseSecondary</text>
<text text-anchor="start" x="449.5" y="-242.5" font-family="Helvetica,sans-Serif" font-size="10.00">+</text>
<text text-anchor="start" x="463.5" y="-242.5" font-family="Helvetica,sans-Serif" font-size="10.00">ISecAverage</text>
<text text-anchor="start" x="449.5" y="-226.5" font-family="Helvetica,sans-Serif" font-size="10.00">+</text>
<text text-anchor="start" x="463.5" y="-226.5" font-family="Helvetica,sans-Serif" font-size="10.00">ISecAverageRectified</text>
<text text-anchor="start" x="449.5" y="-210.5" font-family="Helvetica,sans-Serif" font-size="10.00">+</text>
<text text-anchor="start" x="463.5" y="-210.5" font-family="Helvetica,sans-Serif" font-size="10.00">SecPower</text>
<text text-anchor="start" x="449.5" y="-194.5" font-family="Helvetica,sans-Serif" font-size="10.00">+</text>
<text text-anchor="start" x="463.5" y="-194.5" font-family="Helvetica,sans-Serif" font-size="10.00">Temperature</text>
<text text-anchor="start" x="449.5" y="-178.5" font-family="Helvetica,sans-Serif" font-size="10.00">+</text>
<text text-anchor="start" x="463.5" y="-178.5" font-family="Helvetica,sans-Serif" font-size="10.00">VRail_5V</text>
<text text-anchor="start" x="449.5" y="-162.5" font-family="Helvetica,sans-Serif" font-size="10.00">+</text>
<text text-anchor="start" x="463.5" y="-162.5" font-family="Helvetica,sans-Serif" font-size="10.00">ISecSensorOffset</text>
<text text-anchor="start" x="503" y="-146.5" font-family="Helvetica,sans-Serif" font-size="10.00"> </text>
<polygon fill="#666666" stroke="#666666" points="441.5,-318 441.5,-318 567.5,-318 567.5,-318 441.5,-318"/>
<polygon fill="#666666" stroke="#666666" points="441.5,-158 441.5,-158 461.5,-158 461.5,-158 441.5,-158"/>
<polygon fill="#666666" stroke="#666666" points="461.5,-158 461.5,-158 567.5,-158 567.5,-158 461.5,-158"/>
<polygon fill="none" stroke="#666666" points="441.5,-140 441.5,-336 567.5,-336 567.5,-140 441.5,-140"/>
</a>
</g>
</g>
<!-- Node5&#45;&gt;Node1 -->
<g id="edge4_Node000001_Node000005" class="edge">
<title>Node5&#45;&gt;Node1</title>
<g id="a_edge4_Node000001_Node000005"><a xlink:title=" ">
<path fill="none" stroke="#63b8ff" d="M504.5,-140.14C504.5,-119.32 504.5,-98.27 504.5,-80.53"/>
<polygon fill="none" stroke="#63b8ff" points="504.5,-80.57 500.5,-74.57 504.5,-68.57 508.5,-74.57 504.5,-80.57"/>
</a>
</g>
<text text-anchor="middle" x="519.12" y="-100.5" font-family="Helvetica,sans-Serif" font-size="10.00" fill="grey"> +Data</text>
</g>
<!-- Node6 -->
<g id="Node000006" class="node">
<title>Node6</title>
<g id="a_Node000006"><a xlink:href="a00687.html" target="_top" xlink:title="Contains Fault settings.">
<polygon fill="white" stroke="none" points="689,-264 586,-264 586,-212 689,-212 689,-264"/>
<text text-anchor="start" x="591" y="-250.5" font-family="Helvetica,sans-Serif" font-size="10.00">FAULT_SETTINGS_s</text>
<text text-anchor="start" x="596" y="-234.5" font-family="Helvetica,sans-Serif" font-size="10.00">+</text>
<text text-anchor="start" x="612" y="-234.5" font-family="Helvetica,sans-Serif" font-size="10.00">FaultDetected</text>
<text text-anchor="start" x="636" y="-218.5" font-family="Helvetica,sans-Serif" font-size="10.00"> </text>
<polygon fill="#666666" stroke="#666666" points="586,-246 586,-246 689,-246 689,-246 586,-246"/>
<polygon fill="#666666" stroke="#666666" points="586,-230 586,-230 610,-230 610,-230 586,-230"/>
<polygon fill="#666666" stroke="#666666" points="610,-230 610,-230 689,-230 689,-230 610,-230"/>
<polygon fill="none" stroke="#666666" points="586,-212 586,-264 689,-264 689,-212 586,-212"/>
</a>
</g>
</g>
<!-- Node6&#45;&gt;Node1 -->
<g id="edge5_Node000001_Node000006" class="edge">
<title>Node6&#45;&gt;Node1</title>
<g id="a_edge5_Node000001_Node000006"><a xlink:title=" ">
<path fill="none" stroke="#63b8ff" d="M622.22,-212.11C610.04,-192.41 592.45,-164.28 576.5,-140 563.11,-119.62 547.89,-97.3 534.9,-78.5"/>
<polygon fill="none" stroke="#63b8ff" points="534.89,-78.48 528.18,-75.83 528.05,-68.62 534.76,-71.27 534.89,-78.48"/>
</a>
</g>
<text text-anchor="middle" x="578.88" y="-100.5" font-family="Helvetica,sans-Serif" font-size="10.00" fill="grey"> +Fault</text>
</g>
<!-- Node7 -->
<g id="Node000007" class="node">
<title>Node7</title>
<g id="a_Node000007"><a xlink:href="a00683.html" target="_top" xlink:title="Collection of faults to be monitored.">
<polygon fill="white" stroke="none" points="662.5,-436 612.5,-436 612.5,-384 662.5,-384 662.5,-436"/>
<text text-anchor="start" x="617.25" y="-422.5" font-family="Helvetica,sans-Serif" font-size="10.00">FAULT_s</text>
<text text-anchor="start" x="636" y="-406.5" font-family="Helvetica,sans-Serif" font-size="10.00"> </text>
<text text-anchor="start" x="636" y="-390.5" font-family="Helvetica,sans-Serif" font-size="10.00"> </text>
<polygon fill="#666666" stroke="#666666" points="612.5,-418 612.5,-418 662.5,-418 662.5,-418 612.5,-418"/>
<polygon fill="#666666" stroke="#666666" points="612.5,-402 612.5,-402 662.5,-402 662.5,-402 612.5,-402"/>
<polygon fill="none" stroke="#666666" points="612.5,-384 612.5,-436 662.5,-436 662.5,-384 612.5,-384"/>
</a>
</g>
</g>
<!-- Node7&#45;&gt;Node6 -->
<g id="edge6_Node000006_Node000007" class="edge">
<title>Node7&#45;&gt;Node6</title>
<g id="a_edge6_Node000006_Node000007"><a xlink:title=" ">
<path fill="none" stroke="#63b8ff" d="M637.5,-384.28C637.5,-355.95 637.5,-309.22 637.5,-276.43"/>
<polygon fill="none" stroke="#63b8ff" points="637.5,-276.65 633.5,-270.65 637.5,-264.65 641.5,-270.65 637.5,-276.65"/>
</a>
</g>
<text text-anchor="middle" x="656.25" y="-356.5" font-family="Helvetica,sans-Serif" font-size="10.00" fill="grey"> +Object</text>
</g>
<!-- Node8 -->
<g id="Node000008" class="node">
<title>Node8</title>
<g id="a_Node000008"><a xlink:href="a00679.html" target="_top" xlink:title="The Fault object data structure contains a list of elements/variables that are used to detect/check a...">
<polygon fill="white" stroke="none" points="682,-776 593,-776 593,-580 682,-580 682,-776"/>
<text text-anchor="start" x="605.25" y="-762.5" font-family="Helvetica,sans-Serif" font-size="10.00">FAULT_OBJ_T</text>
<text text-anchor="start" x="597" y="-746.5" font-family="Helvetica,sans-Serif" font-size="10.00">+</text>
<text text-anchor="start" x="607" y="-746.5" font-family="Helvetica,sans-Serif" font-size="10.00">Val1_Threshold</text>
<text text-anchor="start" x="597" y="-730.5" font-family="Helvetica,sans-Serif" font-size="10.00">+</text>
<text text-anchor="start" x="607" y="-730.5" font-family="Helvetica,sans-Serif" font-size="10.00">Val1_Hysteresis</text>
<text text-anchor="start" x="597" y="-714.5" font-family="Helvetica,sans-Serif" font-size="10.00">+</text>
<text text-anchor="start" x="607" y="-714.5" font-family="Helvetica,sans-Serif" font-size="10.00">Val2_Threshold</text>
<text text-anchor="start" x="597" y="-698.5" font-family="Helvetica,sans-Serif" font-size="10.00">+</text>
<text text-anchor="start" x="607" y="-698.5" font-family="Helvetica,sans-Serif" font-size="10.00">Val2_Hysteresis</text>
<text text-anchor="start" x="597" y="-682.5" font-family="Helvetica,sans-Serif" font-size="10.00">+</text>
<text text-anchor="start" x="607" y="-682.5" font-family="Helvetica,sans-Serif" font-size="10.00">CounterSet</text>
<text text-anchor="start" x="597" y="-666.5" font-family="Helvetica,sans-Serif" font-size="10.00">+</text>
<text text-anchor="start" x="607" y="-666.5" font-family="Helvetica,sans-Serif" font-size="10.00">CounterReset</text>
<text text-anchor="start" x="597" y="-650.5" font-family="Helvetica,sans-Serif" font-size="10.00">+</text>
<text text-anchor="start" x="607" y="-650.5" font-family="Helvetica,sans-Serif" font-size="10.00">FaultCounter</text>
<text text-anchor="start" x="597" y="-634.5" font-family="Helvetica,sans-Serif" font-size="10.00">+</text>
<text text-anchor="start" x="607" y="-634.5" font-family="Helvetica,sans-Serif" font-size="10.00">FaultCode</text>
<text text-anchor="start" x="597" y="-618.5" font-family="Helvetica,sans-Serif" font-size="10.00">+</text>
<text text-anchor="start" x="607" y="-618.5" font-family="Helvetica,sans-Serif" font-size="10.00">FaultActive</text>
<text text-anchor="start" x="597" y="-602.5" font-family="Helvetica,sans-Serif" font-size="10.00">+</text>
<text text-anchor="start" x="607" y="-602.5" font-family="Helvetica,sans-Serif" font-size="10.00">FaultLatch</text>
<text text-anchor="start" x="636" y="-586.5" font-family="Helvetica,sans-Serif" font-size="10.00"> </text>
<polygon fill="#666666" stroke="#666666" points="593,-758 593,-758 682,-758 682,-758 593,-758"/>
<polygon fill="#666666" stroke="#666666" points="593,-598 593,-598 605,-598 605,-598 593,-598"/>
<polygon fill="#666666" stroke="#666666" points="605,-598 605,-598 682,-598 682,-598 605,-598"/>
<polygon fill="none" stroke="#666666" points="593,-580 593,-776 682,-776 682,-580 593,-580"/>
</a>
</g>
</g>
<!-- Node8&#45;&gt;Node7 -->
<g id="edge7_Node000007_Node000008" class="edge">
<title>Node8&#45;&gt;Node7</title>
<g id="a_edge7_Node000007_Node000008"><a xlink:title=" ">
<path fill="none" stroke="#63b8ff" d="M637.5,-580.22C637.5,-534.65 637.5,-482.95 637.5,-448.81"/>
<polygon fill="none" stroke="#63b8ff" points="637.5,-448.67 633.5,-442.67 637.5,-436.67 641.5,-442.67 637.5,-448.67"/>
</a>
</g>
<text text-anchor="middle" x="678.75" y="-552.5" font-family="Helvetica,sans-Serif" font-size="10.00" fill="grey"> +IPrimaryOCP</text>
<text text-anchor="middle" x="678.75" y="-540.5" font-family="Helvetica,sans-Serif" font-size="10.00" fill="grey">+ISecondaryOCP</text>
<text text-anchor="middle" x="678.75" y="-528.5" font-family="Helvetica,sans-Serif" font-size="10.00" fill="grey">+ISenseSCP</text>
<text text-anchor="middle" x="678.75" y="-516.5" font-family="Helvetica,sans-Serif" font-size="10.00" fill="grey">+PowerSupplyOTP</text>
<text text-anchor="middle" x="678.75" y="-504.5" font-family="Helvetica,sans-Serif" font-size="10.00" fill="grey">+VPrimaryOVP</text>
<text text-anchor="middle" x="678.75" y="-492.5" font-family="Helvetica,sans-Serif" font-size="10.00" fill="grey">+VPrimaryUVP</text>
<text text-anchor="middle" x="678.75" y="-480.5" font-family="Helvetica,sans-Serif" font-size="10.00" fill="grey">+VRail_5V</text>
<text text-anchor="middle" x="678.75" y="-468.5" font-family="Helvetica,sans-Serif" font-size="10.00" fill="grey">+VSecondaryOVP</text>
<text text-anchor="middle" x="678.75" y="-456.5" font-family="Helvetica,sans-Serif" font-size="10.00" fill="grey">+VSecondaryUVP</text>
</g>
<!-- Node9 -->
<g id="Node000009" class="node">
<title>Node9</title>
<g id="a_Node000009"><a xlink:href="a00743.html" target="_top" xlink:title="Stores data related to the ramping up/down of the reference.">
<polygon fill="white" stroke="none" points="810,-304 707,-304 707,-172 810,-172 810,-304"/>
<text text-anchor="start" x="711.62" y="-290.5" font-family="Helvetica,sans-Serif" font-size="10.00">START_UP_RAMP_s</text>
<text text-anchor="start" x="712" y="-274.5" font-family="Helvetica,sans-Serif" font-size="10.00">+</text>
<text text-anchor="start" x="723" y="-274.5" font-family="Helvetica,sans-Serif" font-size="10.00">Counter</text>
<text text-anchor="start" x="712" y="-258.5" font-family="Helvetica,sans-Serif" font-size="10.00">+</text>
<text text-anchor="start" x="723" y="-258.5" font-family="Helvetica,sans-Serif" font-size="10.00">Delay</text>
<text text-anchor="start" x="712" y="-242.5" font-family="Helvetica,sans-Serif" font-size="10.00">+</text>
<text text-anchor="start" x="723" y="-242.5" font-family="Helvetica,sans-Serif" font-size="10.00">StepSize</text>
<text text-anchor="start" x="712" y="-226.5" font-family="Helvetica,sans-Serif" font-size="10.00">+</text>
<text text-anchor="start" x="723" y="-226.5" font-family="Helvetica,sans-Serif" font-size="10.00">ptrReference</text>
<text text-anchor="start" x="712" y="-210.5" font-family="Helvetica,sans-Serif" font-size="10.00">+</text>
<text text-anchor="start" x="723" y="-210.5" font-family="Helvetica,sans-Serif" font-size="10.00">ptrReferenceTarget</text>
<text text-anchor="start" x="712" y="-194.5" font-family="Helvetica,sans-Serif" font-size="10.00">+</text>
<text text-anchor="start" x="723" y="-194.5" font-family="Helvetica,sans-Serif" font-size="10.00">RampComplete</text>
<text text-anchor="start" x="757" y="-178.5" font-family="Helvetica,sans-Serif" font-size="10.00"> </text>
<polygon fill="#666666" stroke="#666666" points="707,-286 707,-286 810,-286 810,-286 707,-286"/>
<polygon fill="#666666" stroke="#666666" points="707,-190 707,-190 721,-190 721,-190 707,-190"/>
<polygon fill="#666666" stroke="#666666" points="721,-190 721,-190 810,-190 810,-190 721,-190"/>
<polygon fill="none" stroke="#666666" points="707,-172 707,-304 810,-304 810,-172 707,-172"/>
</a>
</g>
</g>
<!-- Node9&#45;&gt;Node1 -->
<g id="edge8_Node000001_Node000009" class="edge">
<title>Node9&#45;&gt;Node1</title>
<g id="a_edge8_Node000001_Node000009"><a xlink:title=" ">
<path fill="none" stroke="#63b8ff" d="M724.25,-172.14C716.41,-160.62 707.43,-149.33 697.5,-140 660.77,-105.48 610.53,-78.62 570.52,-60.71"/>
<polygon fill="none" stroke="#63b8ff" points="570.55,-60.72 563.45,-61.98 559.55,-55.92 566.65,-54.65 570.55,-60.72"/>
</a>
</g>
<text text-anchor="middle" x="694.62" y="-112.5" font-family="Helvetica,sans-Serif" font-size="10.00" fill="grey"> +IRamp</text>
<text text-anchor="middle" x="694.62" y="-100.5" font-family="Helvetica,sans-Serif" font-size="10.00" fill="grey">+PRamp</text>
<text text-anchor="middle" x="694.62" y="-88.5" font-family="Helvetica,sans-Serif" font-size="10.00" fill="grey">+VRamp</text>
</g>
<!-- Node10 -->
<g id="Node000010" class="node">
<title>Node10</title>
<g id="a_Node000010"><a xlink:href="a00747.html" target="_top" xlink:title="Stores data related to the control loop properties.">
<polygon fill="white" stroke="none" points="913,-296 828,-296 828,-180 913,-180 913,-296"/>
<text text-anchor="start" x="833" y="-282.5" font-family="Helvetica,sans-Serif" font-size="10.00">CONTROLLER_s</text>
<text text-anchor="start" x="837.5" y="-266.5" font-family="Helvetica,sans-Serif" font-size="10.00">+</text>
<text text-anchor="start" x="853" y="-266.5" font-family="Helvetica,sans-Serif" font-size="10.00">Reference</text>
<text text-anchor="start" x="837.5" y="-250.5" font-family="Helvetica,sans-Serif" font-size="10.00">+</text>
<text text-anchor="start" x="853" y="-250.5" font-family="Helvetica,sans-Serif" font-size="10.00">Feedback</text>
<text text-anchor="start" x="837.5" y="-234.5" font-family="Helvetica,sans-Serif" font-size="10.00">+</text>
<text text-anchor="start" x="853" y="-234.5" font-family="Helvetica,sans-Serif" font-size="10.00">Output</text>
<text text-anchor="start" x="837.5" y="-218.5" font-family="Helvetica,sans-Serif" font-size="10.00">+</text>
<text text-anchor="start" x="853" y="-218.5" font-family="Helvetica,sans-Serif" font-size="10.00">AgcFactor</text>
<text text-anchor="start" x="837.5" y="-202.5" font-family="Helvetica,sans-Serif" font-size="10.00">+</text>
<text text-anchor="start" x="853" y="-202.5" font-family="Helvetica,sans-Serif" font-size="10.00">Enable</text>
<text text-anchor="start" x="869" y="-186.5" font-family="Helvetica,sans-Serif" font-size="10.00"> </text>
<polygon fill="#666666" stroke="#666666" points="828,-278 828,-278 913,-278 913,-278 828,-278"/>
<polygon fill="#666666" stroke="#666666" points="828,-198 828,-198 851,-198 851,-198 828,-198"/>
<polygon fill="#666666" stroke="#666666" points="851,-198 851,-198 913,-198 913,-198 851,-198"/>
<polygon fill="none" stroke="#666666" points="828,-180 828,-296 913,-296 913,-180 828,-180"/>
</a>
</g>
</g>
<!-- Node10&#45;&gt;Node1 -->
<g id="edge9_Node000001_Node000010" class="edge">
<title>Node10&#45;&gt;Node1</title>
<g id="a_edge9_Node000001_Node000010"><a xlink:title=" ">
<path fill="none" stroke="#63b8ff" d="M847.79,-180.06C840.27,-165.82 830.85,-151.38 819.5,-140 752.83,-73.14 642.51,-48.85 571.7,-40.03"/>
<polygon fill="none" stroke="#63b8ff" points="571.77,-40.04 565.35,-43.32 559.85,-38.66 566.27,-35.38 571.77,-40.04"/>
</a>
</g>
<text text-anchor="middle" x="809.38" y="-112.5" font-family="Helvetica,sans-Serif" font-size="10.00" fill="grey"> +ILoop</text>
<text text-anchor="middle" x="809.38" y="-100.5" font-family="Helvetica,sans-Serif" font-size="10.00" fill="grey">+PLoop</text>
<text text-anchor="middle" x="809.38" y="-88.5" font-family="Helvetica,sans-Serif" font-size="10.00" fill="grey">+VLoop</text>
</g>
</g>
</svg>

<g id="navigator" transform="translate(0 0)" fill="#404254">
  <rect fill="#f2f5e9" fill-opacity="0.5" stroke="#606060" stroke-width=".5" x="0" y="0" width="60" height="60"/>
  <use id="zoomplus" xlink:href="#zoomPlus" x="17" y="9" onmousedown="handleZoom(evt,'in')"/>
  <use id="zoomminus" xlink:href="#zoomMin" x="42" y="9" onmousedown="handleZoom(evt,'out')"/>
  <use id="reset" xlink:href="#resetDef" x="30" y="36" onmousedown="handleReset()"/>
   <use id="arrowup" xlink:href="#arrowUp" x="0" y="0" onmousedown="handlePan(0,-1)"/>
  <use id="arrowright" xlink:href="#arrowRight" x="0" y="0" onmousedown="handlePan(1,0)"/>
  <use id="arrowdown" xlink:href="#arrowDown" x="0" y="0" onmousedown="handlePan(0,1)"/>
  <use id="arrowleft" xlink:href="#arrowLeft" x="0" y="0" onmousedown="handlePan(-1,0)"/>
</g>
<svg viewBox="0 0 15 15" width="100%" height="30px" preserveAspectRatio="xMaxYMin meet">
 <g id="arrow_out" transform="scale(0.3 0.3)">
  <a xlink:href="a00753_org.svg" target="_base">
   <rect id="button" ry="5" rx="5" y="6" x="6" height="38" width="38"
        fill="#f2f5e9" fill-opacity="0.5" stroke="#606060" stroke-width="1.0"/>
   <path id="arrow"
     d="M 11.500037,31.436501 C 11.940474,20.09759 22.043105,11.32322 32.158766,21.979434 L 37.068811,17.246167 C 37.068811,17.246167 37.088388,32 37.088388,32 L 22.160133,31.978069 C 22.160133,31.978069 26.997745,27.140456 26.997745,27.140456 C 18.528582,18.264221 13.291696,25.230495 11.500037,31.436501 z"
     style="fill:#404040;"/>
  </a>
 </g>
</svg>

<style type='text/css'>
<![CDATA[
[data-mouse-over-selected='false'] { opacity: 0.7; }
[data-mouse-over-selected='true']  { opacity: 1.0; }
]]>
</style>
<script type="application/ecmascript"><![CDATA[
document.addEventListener('DOMContentLoaded', (event) => {
  highlightEdges();
  highlightAdjacentNodes();
});
]]></script>
</svg>
