<?xml version="1.0" encoding="UTF-8" standalone="no"?>
<!DOCTYPE svg PUBLIC "-//W3C//DTD SVG 1.1//EN"
 "http://www.w3.org/Graphics/SVG/1.1/DTD/svg11.dtd">
<!-- Generated by graphviz version 8.1.0 (20230707.0739)
 -->
<!-- Title: POWER_CONTROL_s Pages: 1 -->
<svg width="893pt" height="776pt"
 viewBox="0.00 0.00 893.00 776.00" xmlns="http://www.w3.org/2000/svg" xmlns:xlink="http://www.w3.org/1999/xlink">
<g id="graph0" class="graph" transform="scale(1 1) rotate(0) translate(4 772)">
<title>POWER_CONTROL_s</title>
<!-- Node1 -->
<g id="Node000001" class="node">
<title>Node1</title>
<g id="a_Node000001"><a xlink:title=" ">
<polygon fill="#999999" stroke="none" points="531,-68 422,-68 422,0 531,0 531,-68"/>
<text text-anchor="start" x="427" y="-54.5" font-family="Helvetica,sans-Serif" font-size="10.00">POWER_CONTROL_s</text>
<text text-anchor="start" x="432.5" y="-38.5" font-family="Helvetica,sans-Serif" font-size="10.00">+</text>
<text text-anchor="start" x="449" y="-38.5" font-family="Helvetica,sans-Serif" font-size="10.00">State</text>
<text text-anchor="start" x="432.5" y="-22.5" font-family="Helvetica,sans-Serif" font-size="10.00">+</text>
<text text-anchor="start" x="449" y="-22.5" font-family="Helvetica,sans-Serif" font-size="10.00">PowerDirection</text>
<text text-anchor="start" x="475" y="-6.5" font-family="Helvetica,sans-Serif" font-size="10.00"> </text>
<polygon fill="#666666" stroke="#666666" points="422,-50 422,-50 531,-50 531,-50 422,-50"/>
<polygon fill="#666666" stroke="#666666" points="422,-18 422,-18 447,-18 447,-18 422,-18"/>
<polygon fill="#666666" stroke="#666666" points="447,-18 447,-18 531,-18 531,-18 447,-18"/>
<polygon fill="none" stroke="#666666" points="422,0 422,-68 531,-68 531,0 422,0"/>
</a>
</g>
</g>
<!-- Node2 -->
<g id="Node000002" class="node">
<title>Node2</title>
<g id="a_Node000002"><a xlink:href="a00705.html" target="_top" xlink:title="Power converter status flags.">
<polygon fill="white" stroke="none" points="95,-312 0,-312 0,-180 95,-180 95,-312"/>
<text text-anchor="start" x="4.75" y="-298.5" font-family="Helvetica,sans-Serif" font-size="10.00">STATUS_FLAGS_s</text>
<text text-anchor="start" x="11" y="-282.5" font-family="Helvetica,sans-Serif" font-size="10.00">+</text>
<text text-anchor="start" x="28" y="-282.5" font-family="Helvetica,sans-Serif" font-size="10.00">Running</text>
<text text-anchor="start" x="11" y="-266.5" font-family="Helvetica,sans-Serif" font-size="10.00">+</text>
<text text-anchor="start" x="28" y="-266.5" font-family="Helvetica,sans-Serif" font-size="10.00">FaultActive</text>
<text text-anchor="start" x="11" y="-250.5" font-family="Helvetica,sans-Serif" font-size="10.00">+</text>
<text text-anchor="start" x="28" y="-250.5" font-family="Helvetica,sans-Serif" font-size="10.00">notUsed</text>
<text text-anchor="start" x="11" y="-234.5" font-family="Helvetica,sans-Serif" font-size="10.00">+</text>
<text text-anchor="start" x="28" y="-234.5" font-family="Helvetica,sans-Serif" font-size="10.00">bits</text>
<text text-anchor="start" x="11" y="-218.5" font-family="Helvetica,sans-Serif" font-size="10.00">+</text>
<text text-anchor="start" x="28" y="-218.5" font-family="Helvetica,sans-Serif" font-size="10.00">value</text>
<text text-anchor="start" x="11" y="-202.5" font-family="Helvetica,sans-Serif" font-size="10.00">+</text>
<text text-anchor="start" x="28" y="-202.5" font-family="Helvetica,sans-Serif" font-size="10.00">@5</text>
<text text-anchor="start" x="46" y="-186.5" font-family="Helvetica,sans-Serif" font-size="10.00"> </text>
<polygon fill="#666666" stroke="#666666" points="0,-294 0,-294 95,-294 95,-294 0,-294"/>
<polygon fill="#666666" stroke="#666666" points="0,-198 0,-198 26,-198 26,-198 0,-198"/>
<polygon fill="#666666" stroke="#666666" points="26,-198 26,-198 95,-198 95,-198 26,-198"/>
<polygon fill="none" stroke="#666666" points="0,-180 0,-312 95,-312 95,-180 0,-180"/>
</a>
</g>
</g>
<!-- Node2&#45;&gt;Node1 -->
<g id="edge1_Node000001_Node000002" class="edge">
<title>Node2&#45;&gt;Node1</title>
<g id="a_edge1_Node000001_Node000002"><a xlink:title=" ">
<path fill="none" stroke="#63b8ff" d="M73.4,-180.1C81.62,-165.44 91.92,-150.98 104.5,-140 191.01,-64.45 328.13,-42.99 409.51,-37.06"/>
<polygon fill="none" stroke="#63b8ff" points="409.45,-37.06 415.18,-32.68 421.42,-36.28 415.7,-40.66 409.45,-37.06"/>
</a>
</g>
<text text-anchor="middle" x="202.25" y="-100.5" font-family="Helvetica,sans-Serif" font-size="10.00" fill="grey"> +Status</text>
</g>
<!-- Node3 -->
<g id="Node000003" class="node">
<title>Node3</title>
<g id="a_Node000003"><a xlink:href="a00725.html" target="_top" xlink:title=" ">
<polygon fill="white" stroke="none" points="253.5,-312 113.5,-312 113.5,-180 253.5,-180 253.5,-312"/>
<text text-anchor="start" x="118.25" y="-298.5" font-family="Helvetica,sans-Serif" font-size="10.00">PWR_CTRL_PROPERTIES_s</text>
<text text-anchor="start" x="131" y="-282.5" font-family="Helvetica,sans-Serif" font-size="10.00">+</text>
<text text-anchor="start" x="154.5" y="-282.5" font-family="Helvetica,sans-Serif" font-size="10.00">VSecReference</text>
<text text-anchor="start" x="131" y="-266.5" font-family="Helvetica,sans-Serif" font-size="10.00">+</text>
<text text-anchor="start" x="154.5" y="-266.5" font-family="Helvetica,sans-Serif" font-size="10.00">VPriReference</text>
<text text-anchor="start" x="131" y="-250.5" font-family="Helvetica,sans-Serif" font-size="10.00">+</text>
<text text-anchor="start" x="154.5" y="-250.5" font-family="Helvetica,sans-Serif" font-size="10.00">IReference</text>
<text text-anchor="start" x="131" y="-234.5" font-family="Helvetica,sans-Serif" font-size="10.00">+</text>
<text text-anchor="start" x="154.5" y="-234.5" font-family="Helvetica,sans-Serif" font-size="10.00">PwrReference</text>
<text text-anchor="start" x="131" y="-218.5" font-family="Helvetica,sans-Serif" font-size="10.00">+</text>
<text text-anchor="start" x="154.5" y="-218.5" font-family="Helvetica,sans-Serif" font-size="10.00">ChargingState</text>
<text text-anchor="start" x="131" y="-202.5" font-family="Helvetica,sans-Serif" font-size="10.00">+</text>
<text text-anchor="start" x="154.5" y="-202.5" font-family="Helvetica,sans-Serif" font-size="10.00">Enable</text>
<text text-anchor="start" x="182" y="-186.5" font-family="Helvetica,sans-Serif" font-size="10.00"> </text>
<polygon fill="#666666" stroke="#666666" points="113.5,-294 113.5,-294 253.5,-294 253.5,-294 113.5,-294"/>
<polygon fill="#666666" stroke="#666666" points="113.5,-198 113.5,-198 152.5,-198 152.5,-198 113.5,-198"/>
<polygon fill="#666666" stroke="#666666" points="152.5,-198 152.5,-198 253.5,-198 253.5,-198 152.5,-198"/>
<polygon fill="none" stroke="#666666" points="113.5,-180 113.5,-312 253.5,-312 253.5,-180 113.5,-180"/>
</a>
</g>
</g>
<!-- Node3&#45;&gt;Node1 -->
<g id="edge2_Node000001_Node000003" class="edge">
<title>Node3&#45;&gt;Node1</title>
<g id="a_edge2_Node000001_Node000003"><a xlink:title=" ">
<path fill="none" stroke="#63b8ff" d="M225.45,-180.19C236.45,-165.93 249.04,-151.64 262.5,-140 305.94,-102.43 365.17,-74.74 410.3,-57.25"/>
<polygon fill="none" stroke="#63b8ff" points="410.27,-57.26 414.47,-51.4 421.5,-53.02 417.3,-58.88 410.27,-57.26"/>
</a>
</g>
<text text-anchor="middle" x="371.12" y="-100.5" font-family="Helvetica,sans-Serif" font-size="10.00" fill="grey"> +Properties</text>
</g>
<!-- Node4 -->
<g id="Node000004" class="node">
<title>Node4</title>
<g id="a_Node000004"><a xlink:href="a00697.html" target="_top" xlink:title="Power converter switch&#45;node specifications.">
<polygon fill="white" stroke="none" points="395,-352 272,-352 272,-140 395,-140 395,-352"/>
<text text-anchor="start" x="293" y="-338.5" font-family="Helvetica,sans-Serif" font-size="10.00">SWITCH_NODE_s</text>
<text text-anchor="start" x="276" y="-322.5" font-family="Helvetica,sans-Serif" font-size="10.00">+</text>
<text text-anchor="start" x="286" y="-322.5" font-family="Helvetica,sans-Serif" font-size="10.00">Primary_1</text>
<text text-anchor="start" x="276" y="-306.5" font-family="Helvetica,sans-Serif" font-size="10.00">+</text>
<text text-anchor="start" x="286" y="-306.5" font-family="Helvetica,sans-Serif" font-size="10.00">Primary_2</text>
<text text-anchor="start" x="276" y="-290.5" font-family="Helvetica,sans-Serif" font-size="10.00">+</text>
<text text-anchor="start" x="286" y="-290.5" font-family="Helvetica,sans-Serif" font-size="10.00">Secondary_1</text>
<text text-anchor="start" x="276" y="-274.5" font-family="Helvetica,sans-Serif" font-size="10.00">+</text>
<text text-anchor="start" x="286" y="-274.5" font-family="Helvetica,sans-Serif" font-size="10.00">Secondary_2</text>
<text text-anchor="start" x="276" y="-258.5" font-family="Helvetica,sans-Serif" font-size="10.00">+</text>
<text text-anchor="start" x="286" y="-258.5" font-family="Helvetica,sans-Serif" font-size="10.00">ControlPeriod</text>
<text text-anchor="start" x="276" y="-242.5" font-family="Helvetica,sans-Serif" font-size="10.00">+</text>
<text text-anchor="start" x="286" y="-242.5" font-family="Helvetica,sans-Serif" font-size="10.00">ControlDutyCycle</text>
<text text-anchor="start" x="276" y="-226.5" font-family="Helvetica,sans-Serif" font-size="10.00">+</text>
<text text-anchor="start" x="286" y="-226.5" font-family="Helvetica,sans-Serif" font-size="10.00">ControlPhase</text>
<text text-anchor="start" x="276" y="-210.5" font-family="Helvetica,sans-Serif" font-size="10.00">+</text>
<text text-anchor="start" x="286" y="-210.5" font-family="Helvetica,sans-Serif" font-size="10.00">DeadTimeHigh</text>
<text text-anchor="start" x="276" y="-194.5" font-family="Helvetica,sans-Serif" font-size="10.00">+</text>
<text text-anchor="start" x="286" y="-194.5" font-family="Helvetica,sans-Serif" font-size="10.00">DeadTimeLow</text>
<text text-anchor="start" x="276" y="-178.5" font-family="Helvetica,sans-Serif" font-size="10.00">+</text>
<text text-anchor="start" x="286" y="-178.5" font-family="Helvetica,sans-Serif" font-size="10.00">PBVPeriodTarget</text>
<text text-anchor="start" x="276" y="-162.5" font-family="Helvetica,sans-Serif" font-size="10.00">+</text>
<text text-anchor="start" x="286" y="-162.5" font-family="Helvetica,sans-Serif" font-size="10.00">PBVControlPhaseTarget</text>
<text text-anchor="start" x="332" y="-146.5" font-family="Helvetica,sans-Serif" font-size="10.00"> </text>
<polygon fill="#666666" stroke="#666666" points="272,-334 272,-334 395,-334 395,-334 272,-334"/>
<polygon fill="#666666" stroke="#666666" points="272,-158 272,-158 284,-158 284,-158 272,-158"/>
<polygon fill="#666666" stroke="#666666" points="284,-158 284,-158 395,-158 395,-158 284,-158"/>
<polygon fill="none" stroke="#666666" points="272,-140 272,-352 395,-352 395,-140 272,-140"/>
</a>
</g>
</g>
<!-- Node4&#45;&gt;Node1 -->
<g id="edge3_Node000001_Node000004" class="edge">
<title>Node4&#45;&gt;Node1</title>
<g id="a_edge3_Node000001_Node000004"><a xlink:title=" ">
<path fill="none" stroke="#63b8ff" d="M394.85,-154.2C398.11,-149.39 401.34,-144.64 404.5,-140 418.33,-119.69 433.73,-97.21 446.72,-78.29"/>
<polygon fill="none" stroke="#63b8ff" points="446.76,-78.23 446.86,-71.02 453.56,-68.34 453.46,-75.55 446.76,-78.23"/>
</a>
</g>
<text text-anchor="middle" x="455.88" y="-100.5" font-family="Helvetica,sans-Serif" font-size="10.00" fill="grey"> +Pwm</text>
</g>
<!-- Node5 -->
<g id="Node000005" class="node">
<title>Node5</title>
<g id="a_Node000005"><a xlink:href="a00701.html" target="_top" xlink:title="Publicly accessible data buffer of most recent runtime data values.">
<polygon fill="white" stroke="none" points="539.5,-344 413.5,-344 413.5,-148 539.5,-148 539.5,-344"/>
<text text-anchor="start" x="418.38" y="-330.5" font-family="Helvetica,sans-Serif" font-size="10.00">FEEDBACK_SETTINGS_s</text>
<text text-anchor="start" x="421.5" y="-314.5" font-family="Helvetica,sans-Serif" font-size="10.00">+</text>
<text text-anchor="start" x="435.5" y="-314.5" font-family="Helvetica,sans-Serif" font-size="10.00">VPriVoltage</text>
<text text-anchor="start" x="421.5" y="-298.5" font-family="Helvetica,sans-Serif" font-size="10.00">+</text>
<text text-anchor="start" x="435.5" y="-298.5" font-family="Helvetica,sans-Serif" font-size="10.00">VSecVoltage</text>
<text text-anchor="start" x="421.5" y="-282.5" font-family="Helvetica,sans-Serif" font-size="10.00">+</text>
<text text-anchor="start" x="435.5" y="-282.5" font-family="Helvetica,sans-Serif" font-size="10.00">ISensePrimary</text>
<text text-anchor="start" x="421.5" y="-266.5" font-family="Helvetica,sans-Serif" font-size="10.00">+</text>
<text text-anchor="start" x="435.5" y="-266.5" font-family="Helvetica,sans-Serif" font-size="10.00">ISenseSecondary</text>
<text text-anchor="start" x="421.5" y="-250.5" font-family="Helvetica,sans-Serif" font-size="10.00">+</text>
<text text-anchor="start" x="435.5" y="-250.5" font-family="Helvetica,sans-Serif" font-size="10.00">ISecAverage</text>
<text text-anchor="start" x="421.5" y="-234.5" font-family="Helvetica,sans-Serif" font-size="10.00">+</text>
<text text-anchor="start" x="435.5" y="-234.5" font-family="Helvetica,sans-Serif" font-size="10.00">ISecAverageRectified</text>
<text text-anchor="start" x="421.5" y="-218.5" font-family="Helvetica,sans-Serif" font-size="10.00">+</text>
<text text-anchor="start" x="435.5" y="-218.5" font-family="Helvetica,sans-Serif" font-size="10.00">SecPower</text>
<text text-anchor="start" x="421.5" y="-202.5" font-family="Helvetica,sans-Serif" font-size="10.00">+</text>
<text text-anchor="start" x="435.5" y="-202.5" font-family="Helvetica,sans-Serif" font-size="10.00">Temperature</text>
<text text-anchor="start" x="421.5" y="-186.5" font-family="Helvetica,sans-Serif" font-size="10.00">+</text>
<text text-anchor="start" x="435.5" y="-186.5" font-family="Helvetica,sans-Serif" font-size="10.00">VRail_5V</text>
<text text-anchor="start" x="421.5" y="-170.5" font-family="Helvetica,sans-Serif" font-size="10.00">+</text>
<text text-anchor="start" x="435.5" y="-170.5" font-family="Helvetica,sans-Serif" font-size="10.00">ISecSensorOffset</text>
<text text-anchor="start" x="475" y="-154.5" font-family="Helvetica,sans-Serif" font-size="10.00"> </text>
<polygon fill="#666666" stroke="#666666" points="413.5,-326 413.5,-326 539.5,-326 539.5,-326 413.5,-326"/>
<polygon fill="#666666" stroke="#666666" points="413.5,-166 413.5,-166 433.5,-166 433.5,-166 413.5,-166"/>
<polygon fill="#666666" stroke="#666666" points="433.5,-166 433.5,-166 539.5,-166 539.5,-166 433.5,-166"/>
<polygon fill="none" stroke="#666666" points="413.5,-148 413.5,-344 539.5,-344 539.5,-148 413.5,-148"/>
</a>
</g>
</g>
<!-- Node5&#45;&gt;Node1 -->
<g id="edge4_Node000001_Node000005" class="edge">
<title>Node5&#45;&gt;Node1</title>
<g id="a_edge4_Node000001_Node000005"><a xlink:title=" ">
<path fill="none" stroke="#63b8ff" d="M476.5,-148.3C476.5,-124.57 476.5,-100.27 476.5,-80.29"/>
<polygon fill="none" stroke="#63b8ff" points="476.5,-80.43 472.5,-74.43 476.5,-68.43 480.5,-74.43 476.5,-80.43"/>
</a>
</g>
<text text-anchor="middle" x="491.12" y="-100.5" font-family="Helvetica,sans-Serif" font-size="10.00" fill="grey"> +Data</text>
</g>
<!-- Node6 -->
<g id="Node000006" class="node">
<title>Node6</title>
<g id="a_Node000006"><a xlink:href="a00673.html" target="_top" xlink:title=" ">
<polygon fill="white" stroke="none" points="661,-272 558,-272 558,-220 661,-220 661,-272"/>
<text text-anchor="start" x="563" y="-258.5" font-family="Helvetica,sans-Serif" font-size="10.00">FAULT_SETTINGS_s</text>
<text text-anchor="start" x="568" y="-242.5" font-family="Helvetica,sans-Serif" font-size="10.00">+</text>
<text text-anchor="start" x="584" y="-242.5" font-family="Helvetica,sans-Serif" font-size="10.00">FaultDetected</text>
<text text-anchor="start" x="608" y="-226.5" font-family="Helvetica,sans-Serif" font-size="10.00"> </text>
<polygon fill="#666666" stroke="#666666" points="558,-254 558,-254 661,-254 661,-254 558,-254"/>
<polygon fill="#666666" stroke="#666666" points="558,-238 558,-238 582,-238 582,-238 558,-238"/>
<polygon fill="#666666" stroke="#666666" points="582,-238 582,-238 661,-238 661,-238 582,-238"/>
<polygon fill="none" stroke="#666666" points="558,-220 558,-272 661,-272 661,-220 558,-220"/>
</a>
</g>
</g>
<!-- Node6&#45;&gt;Node1 -->
<g id="edge5_Node000001_Node000006" class="edge">
<title>Node6&#45;&gt;Node1</title>
<g id="a_edge5_Node000001_Node000006"><a xlink:title=" ">
<path fill="none" stroke="#63b8ff" d="M595.72,-220.08C583.68,-198.6 565.51,-166.91 548.5,-140 535.47,-119.38 520.29,-97.03 507.25,-78.27"/>
<polygon fill="none" stroke="#63b8ff" points="507.23,-78.25 500.52,-75.63 500.36,-68.42 507.07,-71.04 507.23,-78.25"/>
</a>
</g>
<text text-anchor="middle" x="550.88" y="-100.5" font-family="Helvetica,sans-Serif" font-size="10.00" fill="grey"> +Fault</text>
</g>
<!-- Node7 -->
<g id="Node000007" class="node">
<title>Node7</title>
<g id="a_Node000007"><a xlink:href="a00669.html" target="_top" xlink:title=" ">
<polygon fill="white" stroke="none" points="634.5,-452 584.5,-452 584.5,-400 634.5,-400 634.5,-452"/>
<text text-anchor="start" x="589.25" y="-438.5" font-family="Helvetica,sans-Serif" font-size="10.00">FAULT_s</text>
<text text-anchor="start" x="608" y="-422.5" font-family="Helvetica,sans-Serif" font-size="10.00"> </text>
<text text-anchor="start" x="608" y="-406.5" font-family="Helvetica,sans-Serif" font-size="10.00"> </text>
<polygon fill="#666666" stroke="#666666" points="584.5,-434 584.5,-434 634.5,-434 634.5,-434 584.5,-434"/>
<polygon fill="#666666" stroke="#666666" points="584.5,-418 584.5,-418 634.5,-418 634.5,-418 584.5,-418"/>
<polygon fill="none" stroke="#666666" points="584.5,-400 584.5,-452 634.5,-452 634.5,-400 584.5,-400"/>
</a>
</g>
</g>
<!-- Node7&#45;&gt;Node6 -->
<g id="edge6_Node000006_Node000007" class="edge">
<title>Node7&#45;&gt;Node6</title>
<g id="a_edge6_Node000006_Node000007"><a xlink:title=" ">
<path fill="none" stroke="#63b8ff" d="M609.5,-400.25C609.5,-370.31 609.5,-319.61 609.5,-284.77"/>
<polygon fill="none" stroke="#63b8ff" points="609.5,-284.73 605.5,-278.73 609.5,-272.73 613.5,-278.73 609.5,-284.73"/>
</a>
</g>
<text text-anchor="middle" x="628.25" y="-372.5" font-family="Helvetica,sans-Serif" font-size="10.00" fill="grey"> +Object</text>
</g>
<!-- Node8 -->
<g id="Node000008" class="node">
<title>Node8</title>
<g id="a_Node000008"><a xlink:href="a00665.html" target="_top" xlink:title="The Fault object data structure contains a list of elements/variables that are used to detect/check a...">
<polygon fill="white" stroke="none" points="654,-768 565,-768 565,-572 654,-572 654,-768"/>
<text text-anchor="start" x="577.25" y="-754.5" font-family="Helvetica,sans-Serif" font-size="10.00">FAULT_OBJ_T</text>
<text text-anchor="start" x="569" y="-738.5" font-family="Helvetica,sans-Serif" font-size="10.00">+</text>
<text text-anchor="start" x="579" y="-738.5" font-family="Helvetica,sans-Serif" font-size="10.00">Val1_Threshold</text>
<text text-anchor="start" x="569" y="-722.5" font-family="Helvetica,sans-Serif" font-size="10.00">+</text>
<text text-anchor="start" x="579" y="-722.5" font-family="Helvetica,sans-Serif" font-size="10.00">Val1_Hysteresis</text>
<text text-anchor="start" x="569" y="-706.5" font-family="Helvetica,sans-Serif" font-size="10.00">+</text>
<text text-anchor="start" x="579" y="-706.5" font-family="Helvetica,sans-Serif" font-size="10.00">Val2_Threshold</text>
<text text-anchor="start" x="569" y="-690.5" font-family="Helvetica,sans-Serif" font-size="10.00">+</text>
<text text-anchor="start" x="579" y="-690.5" font-family="Helvetica,sans-Serif" font-size="10.00">Val2_Hysteresis</text>
<text text-anchor="start" x="569" y="-674.5" font-family="Helvetica,sans-Serif" font-size="10.00">+</text>
<text text-anchor="start" x="579" y="-674.5" font-family="Helvetica,sans-Serif" font-size="10.00">CounterSet</text>
<text text-anchor="start" x="569" y="-658.5" font-family="Helvetica,sans-Serif" font-size="10.00">+</text>
<text text-anchor="start" x="579" y="-658.5" font-family="Helvetica,sans-Serif" font-size="10.00">CounterReset</text>
<text text-anchor="start" x="569" y="-642.5" font-family="Helvetica,sans-Serif" font-size="10.00">+</text>
<text text-anchor="start" x="579" y="-642.5" font-family="Helvetica,sans-Serif" font-size="10.00">FaultCounter</text>
<text text-anchor="start" x="569" y="-626.5" font-family="Helvetica,sans-Serif" font-size="10.00">+</text>
<text text-anchor="start" x="579" y="-626.5" font-family="Helvetica,sans-Serif" font-size="10.00">FaultCode</text>
<text text-anchor="start" x="569" y="-610.5" font-family="Helvetica,sans-Serif" font-size="10.00">+</text>
<text text-anchor="start" x="579" y="-610.5" font-family="Helvetica,sans-Serif" font-size="10.00">FaultActive</text>
<text text-anchor="start" x="569" y="-594.5" font-family="Helvetica,sans-Serif" font-size="10.00">+</text>
<text text-anchor="start" x="579" y="-594.5" font-family="Helvetica,sans-Serif" font-size="10.00">FaultLatch</text>
<text text-anchor="start" x="608" y="-578.5" font-family="Helvetica,sans-Serif" font-size="10.00"> </text>
<polygon fill="#666666" stroke="#666666" points="565,-750 565,-750 654,-750 654,-750 565,-750"/>
<polygon fill="#666666" stroke="#666666" points="565,-590 565,-590 577,-590 577,-590 565,-590"/>
<polygon fill="#666666" stroke="#666666" points="577,-590 577,-590 654,-590 654,-590 577,-590"/>
<polygon fill="none" stroke="#666666" points="565,-572 565,-768 654,-768 654,-572 565,-572"/>
</a>
</g>
</g>
<!-- Node8&#45;&gt;Node7 -->
<g id="edge7_Node000007_Node000008" class="edge">
<title>Node8&#45;&gt;Node7</title>
<g id="a_edge7_Node000007_Node000008"><a xlink:title=" ">
<path fill="none" stroke="#63b8ff" d="M609.5,-572.31C609.5,-534.47 609.5,-493.31 609.5,-464.49"/>
<polygon fill="none" stroke="#63b8ff" points="609.5,-464.69 605.5,-458.69 609.5,-452.69 613.5,-458.69 609.5,-464.69"/>
</a>
</g>
<text text-anchor="middle" x="650.75" y="-544.5" font-family="Helvetica,sans-Serif" font-size="10.00" fill="grey"> +IPrimaryOCP</text>
<text text-anchor="middle" x="650.75" y="-532.5" font-family="Helvetica,sans-Serif" font-size="10.00" fill="grey">+ISecondaryOCP</text>
<text text-anchor="middle" x="650.75" y="-520.5" font-family="Helvetica,sans-Serif" font-size="10.00" fill="grey">+ISenseSCP</text>
<text text-anchor="middle" x="650.75" y="-508.5" font-family="Helvetica,sans-Serif" font-size="10.00" fill="grey">+PowerSupplyOTP</text>
<text text-anchor="middle" x="650.75" y="-496.5" font-family="Helvetica,sans-Serif" font-size="10.00" fill="grey">+VPrimaryOVP</text>
<text text-anchor="middle" x="650.75" y="-484.5" font-family="Helvetica,sans-Serif" font-size="10.00" fill="grey">+VRail_5V</text>
<text text-anchor="middle" x="650.75" y="-472.5" font-family="Helvetica,sans-Serif" font-size="10.00" fill="grey">+VSecondaryOVP</text>
</g>
<!-- Node9 -->
<g id="Node000009" class="node">
<title>Node9</title>
<g id="a_Node000009"><a xlink:href="a00717.html" target="_top" xlink:title="stores data related to controller">
<polygon fill="white" stroke="none" points="782,-312 679,-312 679,-180 782,-180 782,-312"/>
<text text-anchor="start" x="683.62" y="-298.5" font-family="Helvetica,sans-Serif" font-size="10.00">START_UP_RAMP_s</text>
<text text-anchor="start" x="684" y="-282.5" font-family="Helvetica,sans-Serif" font-size="10.00">+</text>
<text text-anchor="start" x="695" y="-282.5" font-family="Helvetica,sans-Serif" font-size="10.00">Counter</text>
<text text-anchor="start" x="684" y="-266.5" font-family="Helvetica,sans-Serif" font-size="10.00">+</text>
<text text-anchor="start" x="695" y="-266.5" font-family="Helvetica,sans-Serif" font-size="10.00">Delay</text>
<text text-anchor="start" x="684" y="-250.5" font-family="Helvetica,sans-Serif" font-size="10.00">+</text>
<text text-anchor="start" x="695" y="-250.5" font-family="Helvetica,sans-Serif" font-size="10.00">StepSize</text>
<text text-anchor="start" x="684" y="-234.5" font-family="Helvetica,sans-Serif" font-size="10.00">+</text>
<text text-anchor="start" x="695" y="-234.5" font-family="Helvetica,sans-Serif" font-size="10.00">ptrReference</text>
<text text-anchor="start" x="684" y="-218.5" font-family="Helvetica,sans-Serif" font-size="10.00">+</text>
<text text-anchor="start" x="695" y="-218.5" font-family="Helvetica,sans-Serif" font-size="10.00">ptrReferenceTarget</text>
<text text-anchor="start" x="684" y="-202.5" font-family="Helvetica,sans-Serif" font-size="10.00">+</text>
<text text-anchor="start" x="695" y="-202.5" font-family="Helvetica,sans-Serif" font-size="10.00">RampComplete</text>
<text text-anchor="start" x="729" y="-186.5" font-family="Helvetica,sans-Serif" font-size="10.00"> </text>
<polygon fill="#666666" stroke="#666666" points="679,-294 679,-294 782,-294 782,-294 679,-294"/>
<polygon fill="#666666" stroke="#666666" points="679,-198 679,-198 693,-198 693,-198 679,-198"/>
<polygon fill="#666666" stroke="#666666" points="693,-198 693,-198 782,-198 782,-198 693,-198"/>
<polygon fill="none" stroke="#666666" points="679,-180 679,-312 782,-312 782,-180 679,-180"/>
</a>
</g>
</g>
<!-- Node9&#45;&gt;Node1 -->
<g id="edge8_Node000001_Node000009" class="edge">
<title>Node9&#45;&gt;Node1</title>
<g id="a_edge8_Node000001_Node000009"><a xlink:title=" ">
<path fill="none" stroke="#63b8ff" d="M700.29,-180.21C691.68,-165.88 681.36,-151.54 669.5,-140 633.26,-104.72 582.78,-77.82 542.54,-60.08"/>
<polygon fill="none" stroke="#63b8ff" points="542.53,-60.08 535.44,-61.38 531.5,-55.34 538.59,-54.03 542.53,-60.08"/>
</a>
</g>
<text text-anchor="middle" x="666.62" y="-112.5" font-family="Helvetica,sans-Serif" font-size="10.00" fill="grey"> +IRamp</text>
<text text-anchor="middle" x="666.62" y="-100.5" font-family="Helvetica,sans-Serif" font-size="10.00" fill="grey">+PRamp</text>
<text text-anchor="middle" x="666.62" y="-88.5" font-family="Helvetica,sans-Serif" font-size="10.00" fill="grey">+VRamp</text>
</g>
<!-- Node10 -->
<g id="Node000010" class="node">
<title>Node10</title>
<g id="a_Node000010"><a xlink:href="a00721.html" target="_top" xlink:title="stores data related to controller">
<polygon fill="white" stroke="none" points="885,-304 800,-304 800,-188 885,-188 885,-304"/>
<text text-anchor="start" x="805" y="-290.5" font-family="Helvetica,sans-Serif" font-size="10.00">CONTROLLER_s</text>
<text text-anchor="start" x="809.5" y="-274.5" font-family="Helvetica,sans-Serif" font-size="10.00">+</text>
<text text-anchor="start" x="825" y="-274.5" font-family="Helvetica,sans-Serif" font-size="10.00">Reference</text>
<text text-anchor="start" x="809.5" y="-258.5" font-family="Helvetica,sans-Serif" font-size="10.00">+</text>
<text text-anchor="start" x="825" y="-258.5" font-family="Helvetica,sans-Serif" font-size="10.00">Feedback</text>
<text text-anchor="start" x="809.5" y="-242.5" font-family="Helvetica,sans-Serif" font-size="10.00">+</text>
<text text-anchor="start" x="825" y="-242.5" font-family="Helvetica,sans-Serif" font-size="10.00">Output</text>
<text text-anchor="start" x="809.5" y="-226.5" font-family="Helvetica,sans-Serif" font-size="10.00">+</text>
<text text-anchor="start" x="825" y="-226.5" font-family="Helvetica,sans-Serif" font-size="10.00">AgcFactor</text>
<text text-anchor="start" x="809.5" y="-210.5" font-family="Helvetica,sans-Serif" font-size="10.00">+</text>
<text text-anchor="start" x="825" y="-210.5" font-family="Helvetica,sans-Serif" font-size="10.00">Enable</text>
<text text-anchor="start" x="841" y="-194.5" font-family="Helvetica,sans-Serif" font-size="10.00"> </text>
<polygon fill="#666666" stroke="#666666" points="800,-286 800,-286 885,-286 885,-286 800,-286"/>
<polygon fill="#666666" stroke="#666666" points="800,-206 800,-206 823,-206 823,-206 800,-206"/>
<polygon fill="#666666" stroke="#666666" points="823,-206 823,-206 885,-206 885,-206 823,-206"/>
<polygon fill="none" stroke="#666666" points="800,-188 800,-304 885,-304 885,-188 800,-188"/>
</a>
</g>
</g>
<!-- Node10&#45;&gt;Node1 -->
<g id="edge9_Node000001_Node000010" class="edge">
<title>Node10&#45;&gt;Node1</title>
<g id="a_edge9_Node000001_Node000010"><a xlink:title=" ">
<path fill="none" stroke="#63b8ff" d="M822.85,-188.26C815.02,-171.31 804.66,-153.63 791.5,-140 725.71,-71.89 614.65,-47.95 543.5,-39.55"/>
<polygon fill="none" stroke="#63b8ff" points="543.53,-39.55 537.13,-42.88 531.6,-38.25 538,-34.92 543.53,-39.55"/>
</a>
</g>
<text text-anchor="middle" x="781.38" y="-112.5" font-family="Helvetica,sans-Serif" font-size="10.00" fill="grey"> +ILoop</text>
<text text-anchor="middle" x="781.38" y="-100.5" font-family="Helvetica,sans-Serif" font-size="10.00" fill="grey">+PLoop</text>
<text text-anchor="middle" x="781.38" y="-88.5" font-family="Helvetica,sans-Serif" font-size="10.00" fill="grey">+VLoop</text>
</g>
</g>
</svg>
