<?xml version="1.0" encoding="UTF-8" standalone="no"?>
<!DOCTYPE svg PUBLIC "-//W3C//DTD SVG 1.1//EN"
 "http://www.w3.org/Graphics/SVG/1.1/DTD/svg11.dtd">
<!-- Generated by graphviz version 8.1.0 (20230707.0739)
 -->
<!-- Title: SWITCH_NODE_s Pages: 1 -->
<svg width="160pt" height="204pt"
 viewBox="0.00 0.00 160.00 204.00" xmlns="http://www.w3.org/2000/svg" xmlns:xlink="http://www.w3.org/1999/xlink">
<g id="graph0" class="graph" transform="scale(1 1) rotate(0) translate(4 200)">
<title>SWITCH_NODE_s</title>
<!-- Node1 -->
<g id="Node000001" class="node">
<title>Node1</title>
<g id="a_Node000001"><a xlink:title="Power converter switch&#45;node specifications.">
<polygon fill="#999999" stroke="none" points="152,-196 0,-196 0,0 152,0 152,-196"/>
<text text-anchor="start" x="35.5" y="-182.5" font-family="Helvetica,sans-Serif" font-size="10.00">SWITCH_NODE_s</text>
<text text-anchor="start" x="4" y="-166.5" font-family="Helvetica,sans-Serif" font-size="10.00">+</text>
<text text-anchor="start" x="14" y="-166.5" font-family="Helvetica,sans-Serif" font-size="10.00">ControlPeriod</text>
<text text-anchor="start" x="4" y="-150.5" font-family="Helvetica,sans-Serif" font-size="10.00">+</text>
<text text-anchor="start" x="14" y="-150.5" font-family="Helvetica,sans-Serif" font-size="10.00">ControlDutyCycle</text>
<text text-anchor="start" x="4" y="-134.5" font-family="Helvetica,sans-Serif" font-size="10.00">+</text>
<text text-anchor="start" x="14" y="-134.5" font-family="Helvetica,sans-Serif" font-size="10.00">ControlPhase</text>
<text text-anchor="start" x="4" y="-118.5" font-family="Helvetica,sans-Serif" font-size="10.00">+</text>
<text text-anchor="start" x="14" y="-118.5" font-family="Helvetica,sans-Serif" font-size="10.00">ControlPhase_P2S_Degreex10</text>
<text text-anchor="start" x="4" y="-102.5" font-family="Helvetica,sans-Serif" font-size="10.00">+</text>
<text text-anchor="start" x="14" y="-102.5" font-family="Helvetica,sans-Serif" font-size="10.00">ControlPhase_P2S_Target</text>
<text text-anchor="start" x="4" y="-86.5" font-family="Helvetica,sans-Serif" font-size="10.00">+</text>
<text text-anchor="start" x="14" y="-86.5" font-family="Helvetica,sans-Serif" font-size="10.00">DeadTimeHigh</text>
<text text-anchor="start" x="4" y="-70.5" font-family="Helvetica,sans-Serif" font-size="10.00">+</text>
<text text-anchor="start" x="14" y="-70.5" font-family="Helvetica,sans-Serif" font-size="10.00">DeadTimeLow</text>
<text text-anchor="start" x="4" y="-54.5" font-family="Helvetica,sans-Serif" font-size="10.00">+</text>
<text text-anchor="start" x="14" y="-54.5" font-family="Helvetica,sans-Serif" font-size="10.00">PBVPeriodTarget</text>
<text text-anchor="start" x="4" y="-38.5" font-family="Helvetica,sans-Serif" font-size="10.00">+</text>
<text text-anchor="start" x="14" y="-38.5" font-family="Helvetica,sans-Serif" font-size="10.00">PBVControlPhaseTarget</text>
<text text-anchor="start" x="4" y="-22.5" font-family="Helvetica,sans-Serif" font-size="10.00">+</text>
<text text-anchor="start" x="14" y="-22.5" font-family="Helvetica,sans-Serif" font-size="10.00">LowPowerSlowMode</text>
<text text-anchor="start" x="74.5" y="-6.5" font-family="Helvetica,sans-Serif" font-size="10.00"> </text>
<polygon fill="#666666" stroke="#666666" points="0,-178 0,-178 152,-178 152,-178 0,-178"/>
<polygon fill="#666666" stroke="#666666" points="0,-18 0,-18 12,-18 12,-18 0,-18"/>
<polygon fill="#666666" stroke="#666666" points="12,-18 12,-18 152,-18 152,-18 12,-18"/>
<polygon fill="none" stroke="#666666" points="0,0 0,-196 152,-196 152,0 0,0"/>
</a>
</g>
</g>
</g>
</svg>
