<?xml version="1.0" encoding="UTF-8" standalone="no"?>
<!DOCTYPE svg PUBLIC "-//W3C//DTD SVG 1.1//EN"
 "http://www.w3.org/Graphics/SVG/1.1/DTD/svg11.dtd">
<!-- Generated by graphviz version 8.1.0 (20230707.0739)
 -->
<!-- Title: POWER_CONTROL_s Pages: 1 -->
<svg width="921pt" height="776pt"
 viewBox="0.00 0.00 921.00 776.00" xmlns="http://www.w3.org/2000/svg" xmlns:xlink="http://www.w3.org/1999/xlink">
<g id="graph0" class="graph" transform="scale(1 1) rotate(0) translate(4 772)">
<title>POWER_CONTROL_s</title>
<!-- Node1 -->
<g id="Node000001" class="node">
<title>Node1</title>
<g id="a_Node000001"><a xlink:title="Power control API structure.">
<polygon fill="#999999" stroke="none" points="559,-84 450,-84 450,0 559,0 559,-84"/>
<text text-anchor="start" x="455" y="-70.5" font-family="Helvetica,sans-Serif" font-size="10.00">POWER_CONTROL_s</text>
<text text-anchor="start" x="460.5" y="-54.5" font-family="Helvetica,sans-Serif" font-size="10.00">+</text>
<text text-anchor="start" x="477" y="-54.5" font-family="Helvetica,sans-Serif" font-size="10.00">State</text>
<text text-anchor="start" x="460.5" y="-38.5" font-family="Helvetica,sans-Serif" font-size="10.00">+</text>
<text text-anchor="start" x="477" y="-38.5" font-family="Helvetica,sans-Serif" font-size="10.00">PowerDirection</text>
<text text-anchor="start" x="460.5" y="-22.5" font-family="Helvetica,sans-Serif" font-size="10.00">+</text>
<text text-anchor="start" x="477" y="-22.5" font-family="Helvetica,sans-Serif" font-size="10.00">dbg</text>
<text text-anchor="start" x="503" y="-6.5" font-family="Helvetica,sans-Serif" font-size="10.00"> </text>
<polygon fill="#666666" stroke="#666666" points="450,-66 450,-66 559,-66 559,-66 450,-66"/>
<polygon fill="#666666" stroke="#666666" points="450,-18 450,-18 475,-18 475,-18 450,-18"/>
<polygon fill="#666666" stroke="#666666" points="475,-18 475,-18 559,-18 559,-18 475,-18"/>
<polygon fill="none" stroke="#666666" points="450,0 450,-84 559,-84 559,0 450,0"/>
</a>
</g>
</g>
<!-- Node2 -->
<g id="Node000002" class="node">
<title>Node2</title>
<g id="a_Node000002"><a xlink:href="a00683.html" target="_top" xlink:title="Power converter status flags.">
<polygon fill="white" stroke="none" points="95,-320 0,-320 0,-188 95,-188 95,-320"/>
<text text-anchor="start" x="4.75" y="-306.5" font-family="Helvetica,sans-Serif" font-size="10.00">STATUS_FLAGS_s</text>
<text text-anchor="start" x="11" y="-290.5" font-family="Helvetica,sans-Serif" font-size="10.00">+</text>
<text text-anchor="start" x="28" y="-290.5" font-family="Helvetica,sans-Serif" font-size="10.00">Running</text>
<text text-anchor="start" x="11" y="-274.5" font-family="Helvetica,sans-Serif" font-size="10.00">+</text>
<text text-anchor="start" x="28" y="-274.5" font-family="Helvetica,sans-Serif" font-size="10.00">FaultActive</text>
<text text-anchor="start" x="11" y="-258.5" font-family="Helvetica,sans-Serif" font-size="10.00">+</text>
<text text-anchor="start" x="28" y="-258.5" font-family="Helvetica,sans-Serif" font-size="10.00">notUsed</text>
<text text-anchor="start" x="11" y="-242.5" font-family="Helvetica,sans-Serif" font-size="10.00">+</text>
<text text-anchor="start" x="28" y="-242.5" font-family="Helvetica,sans-Serif" font-size="10.00">bits</text>
<text text-anchor="start" x="11" y="-226.5" font-family="Helvetica,sans-Serif" font-size="10.00">+</text>
<text text-anchor="start" x="28" y="-226.5" font-family="Helvetica,sans-Serif" font-size="10.00">value</text>
<text text-anchor="start" x="11" y="-210.5" font-family="Helvetica,sans-Serif" font-size="10.00">+</text>
<text text-anchor="start" x="28" y="-210.5" font-family="Helvetica,sans-Serif" font-size="10.00">@5</text>
<text text-anchor="start" x="46" y="-194.5" font-family="Helvetica,sans-Serif" font-size="10.00"> </text>
<polygon fill="#666666" stroke="#666666" points="0,-302 0,-302 95,-302 95,-302 0,-302"/>
<polygon fill="#666666" stroke="#666666" points="0,-206 0,-206 26,-206 26,-206 0,-206"/>
<polygon fill="#666666" stroke="#666666" points="26,-206 26,-206 95,-206 95,-206 26,-206"/>
<polygon fill="none" stroke="#666666" points="0,-188 0,-320 95,-320 95,-188 0,-188"/>
</a>
</g>
</g>
<!-- Node2&#45;&gt;Node1 -->
<g id="edge1_Node000001_Node000002" class="edge">
<title>Node2&#45;&gt;Node1</title>
<g id="a_edge1_Node000001_Node000002"><a xlink:title=" ">
<path fill="none" stroke="#63b8ff" d="M77.11,-188.18C84.74,-176.32 93.86,-164.9 104.5,-156 200.87,-75.43 351.11,-52.19 437.42,-45.56"/>
<polygon fill="none" stroke="#63b8ff" points="437.32,-45.56 443.02,-41.15 449.29,-44.73 443.58,-49.14 437.32,-45.56"/>
</a>
</g>
<text text-anchor="middle" x="209.25" y="-116.5" font-family="Helvetica,sans-Serif" font-size="10.00" fill="grey"> +Status</text>
</g>
<!-- Node3 -->
<g id="Node000003" class="node">
<title>Node3</title>
<g id="a_Node000003"><a xlink:href="a00703.html" target="_top" xlink:title="Collection of power control properties.">
<polygon fill="white" stroke="none" points="253.5,-320 113.5,-320 113.5,-188 253.5,-188 253.5,-320"/>
<text text-anchor="start" x="118.25" y="-306.5" font-family="Helvetica,sans-Serif" font-size="10.00">PWR_CTRL_PROPERTIES_s</text>
<text text-anchor="start" x="131" y="-290.5" font-family="Helvetica,sans-Serif" font-size="10.00">+</text>
<text text-anchor="start" x="154.5" y="-290.5" font-family="Helvetica,sans-Serif" font-size="10.00">VSecReference</text>
<text text-anchor="start" x="131" y="-274.5" font-family="Helvetica,sans-Serif" font-size="10.00">+</text>
<text text-anchor="start" x="154.5" y="-274.5" font-family="Helvetica,sans-Serif" font-size="10.00">VPriReference</text>
<text text-anchor="start" x="131" y="-258.5" font-family="Helvetica,sans-Serif" font-size="10.00">+</text>
<text text-anchor="start" x="154.5" y="-258.5" font-family="Helvetica,sans-Serif" font-size="10.00">IReference</text>
<text text-anchor="start" x="131" y="-242.5" font-family="Helvetica,sans-Serif" font-size="10.00">+</text>
<text text-anchor="start" x="154.5" y="-242.5" font-family="Helvetica,sans-Serif" font-size="10.00">PwrReference</text>
<text text-anchor="start" x="131" y="-226.5" font-family="Helvetica,sans-Serif" font-size="10.00">+</text>
<text text-anchor="start" x="154.5" y="-226.5" font-family="Helvetica,sans-Serif" font-size="10.00">ChargingState</text>
<text text-anchor="start" x="131" y="-210.5" font-family="Helvetica,sans-Serif" font-size="10.00">+</text>
<text text-anchor="start" x="154.5" y="-210.5" font-family="Helvetica,sans-Serif" font-size="10.00">Enable</text>
<text text-anchor="start" x="182" y="-194.5" font-family="Helvetica,sans-Serif" font-size="10.00"> </text>
<polygon fill="#666666" stroke="#666666" points="113.5,-302 113.5,-302 253.5,-302 253.5,-302 113.5,-302"/>
<polygon fill="#666666" stroke="#666666" points="113.5,-206 113.5,-206 152.5,-206 152.5,-206 113.5,-206"/>
<polygon fill="#666666" stroke="#666666" points="152.5,-206 152.5,-206 253.5,-206 253.5,-206 152.5,-206"/>
<polygon fill="none" stroke="#666666" points="113.5,-188 113.5,-320 253.5,-320 253.5,-188 113.5,-188"/>
</a>
</g>
</g>
<!-- Node3&#45;&gt;Node1 -->
<g id="edge2_Node000001_Node000003" class="edge">
<title>Node3&#45;&gt;Node1</title>
<g id="a_edge2_Node000001_Node000003"><a xlink:title=" ">
<path fill="none" stroke="#63b8ff" d="M229.46,-188.09C239.49,-176.51 250.68,-165.21 262.5,-156 315.71,-114.52 386.61,-83.69 437.9,-64.8"/>
<polygon fill="none" stroke="#63b8ff" points="438.04,-64.75 442.32,-58.95 449.32,-60.68 445.04,-66.48 438.04,-64.75"/>
</a>
</g>
<text text-anchor="middle" x="377.12" y="-116.5" font-family="Helvetica,sans-Serif" font-size="10.00" fill="grey"> +Properties</text>
</g>
<!-- Node4 -->
<g id="Node000004" class="node">
<title>Node4</title>
<g id="a_Node000004"><a xlink:href="a00675.html" target="_top" xlink:title="Power converter switch&#45;node specifications.">
<polygon fill="white" stroke="none" points="423.5,-352 271.5,-352 271.5,-156 423.5,-156 423.5,-352"/>
<text text-anchor="start" x="307" y="-338.5" font-family="Helvetica,sans-Serif" font-size="10.00">SWITCH_NODE_s</text>
<text text-anchor="start" x="275.5" y="-322.5" font-family="Helvetica,sans-Serif" font-size="10.00">+</text>
<text text-anchor="start" x="285.5" y="-322.5" font-family="Helvetica,sans-Serif" font-size="10.00">ControlPeriod</text>
<text text-anchor="start" x="275.5" y="-306.5" font-family="Helvetica,sans-Serif" font-size="10.00">+</text>
<text text-anchor="start" x="285.5" y="-306.5" font-family="Helvetica,sans-Serif" font-size="10.00">ControlDutyCycle</text>
<text text-anchor="start" x="275.5" y="-290.5" font-family="Helvetica,sans-Serif" font-size="10.00">+</text>
<text text-anchor="start" x="285.5" y="-290.5" font-family="Helvetica,sans-Serif" font-size="10.00">ControlPhase</text>
<text text-anchor="start" x="275.5" y="-274.5" font-family="Helvetica,sans-Serif" font-size="10.00">+</text>
<text text-anchor="start" x="285.5" y="-274.5" font-family="Helvetica,sans-Serif" font-size="10.00">ControlPhase_P2S_Degreex10</text>
<text text-anchor="start" x="275.5" y="-258.5" font-family="Helvetica,sans-Serif" font-size="10.00">+</text>
<text text-anchor="start" x="285.5" y="-258.5" font-family="Helvetica,sans-Serif" font-size="10.00">ControlPhase_P2S_Target</text>
<text text-anchor="start" x="275.5" y="-242.5" font-family="Helvetica,sans-Serif" font-size="10.00">+</text>
<text text-anchor="start" x="285.5" y="-242.5" font-family="Helvetica,sans-Serif" font-size="10.00">DeadTimeHigh</text>
<text text-anchor="start" x="275.5" y="-226.5" font-family="Helvetica,sans-Serif" font-size="10.00">+</text>
<text text-anchor="start" x="285.5" y="-226.5" font-family="Helvetica,sans-Serif" font-size="10.00">DeadTimeLow</text>
<text text-anchor="start" x="275.5" y="-210.5" font-family="Helvetica,sans-Serif" font-size="10.00">+</text>
<text text-anchor="start" x="285.5" y="-210.5" font-family="Helvetica,sans-Serif" font-size="10.00">PBVPeriodTarget</text>
<text text-anchor="start" x="275.5" y="-194.5" font-family="Helvetica,sans-Serif" font-size="10.00">+</text>
<text text-anchor="start" x="285.5" y="-194.5" font-family="Helvetica,sans-Serif" font-size="10.00">PBVControlPhaseTarget</text>
<text text-anchor="start" x="275.5" y="-178.5" font-family="Helvetica,sans-Serif" font-size="10.00">+</text>
<text text-anchor="start" x="285.5" y="-178.5" font-family="Helvetica,sans-Serif" font-size="10.00">LowPowerSlowMode</text>
<text text-anchor="start" x="346" y="-162.5" font-family="Helvetica,sans-Serif" font-size="10.00"> </text>
<polygon fill="#666666" stroke="#666666" points="271.5,-334 271.5,-334 423.5,-334 423.5,-334 271.5,-334"/>
<polygon fill="#666666" stroke="#666666" points="271.5,-174 271.5,-174 283.5,-174 283.5,-174 271.5,-174"/>
<polygon fill="#666666" stroke="#666666" points="283.5,-174 283.5,-174 423.5,-174 423.5,-174 283.5,-174"/>
<polygon fill="none" stroke="#666666" points="271.5,-156 271.5,-352 423.5,-352 423.5,-156 271.5,-156"/>
</a>
</g>
</g>
<!-- Node4&#45;&gt;Node1 -->
<g id="edge3_Node000001_Node000004" class="edge">
<title>Node4&#45;&gt;Node1</title>
<g id="a_edge3_Node000001_Node000004"><a xlink:title=" ">
<path fill="none" stroke="#63b8ff" d="M419.8,-156.3C435.81,-134.87 452.18,-112.98 466.2,-94.23"/>
<polygon fill="none" stroke="#63b8ff" points="466.22,-94.2 466.61,-87 473.41,-84.59 473.02,-91.79 466.22,-94.2"/>
</a>
</g>
<text text-anchor="middle" x="473.88" y="-116.5" font-family="Helvetica,sans-Serif" font-size="10.00" fill="grey"> +Pwm</text>
</g>
<!-- Node5 -->
<g id="Node000005" class="node">
<title>Node5</title>
<g id="a_Node000005"><a xlink:href="a00679.html" target="_top" xlink:title="Publicly accessible data buffer of most recent runtime data values.">
<polygon fill="white" stroke="none" points="567.5,-352 441.5,-352 441.5,-156 567.5,-156 567.5,-352"/>
<text text-anchor="start" x="446.38" y="-338.5" font-family="Helvetica,sans-Serif" font-size="10.00">FEEDBACK_SETTINGS_s</text>
<text text-anchor="start" x="449.5" y="-322.5" font-family="Helvetica,sans-Serif" font-size="10.00">+</text>
<text text-anchor="start" x="463.5" y="-322.5" font-family="Helvetica,sans-Serif" font-size="10.00">VPriVoltage</text>
<text text-anchor="start" x="449.5" y="-306.5" font-family="Helvetica,sans-Serif" font-size="10.00">+</text>
<text text-anchor="start" x="463.5" y="-306.5" font-family="Helvetica,sans-Serif" font-size="10.00">VSecVoltage</text>
<text text-anchor="start" x="449.5" y="-290.5" font-family="Helvetica,sans-Serif" font-size="10.00">+</text>
<text text-anchor="start" x="463.5" y="-290.5" font-family="Helvetica,sans-Serif" font-size="10.00">ISensePrimary</text>
<text text-anchor="start" x="449.5" y="-274.5" font-family="Helvetica,sans-Serif" font-size="10.00">+</text>
<text text-anchor="start" x="463.5" y="-274.5" font-family="Helvetica,sans-Serif" font-size="10.00">ISenseSecondary</text>
<text text-anchor="start" x="449.5" y="-258.5" font-family="Helvetica,sans-Serif" font-size="10.00">+</text>
<text text-anchor="start" x="463.5" y="-258.5" font-family="Helvetica,sans-Serif" font-size="10.00">ISecAverage</text>
<text text-anchor="start" x="449.5" y="-242.5" font-family="Helvetica,sans-Serif" font-size="10.00">+</text>
<text text-anchor="start" x="463.5" y="-242.5" font-family="Helvetica,sans-Serif" font-size="10.00">ISecAverageRectified</text>
<text text-anchor="start" x="449.5" y="-226.5" font-family="Helvetica,sans-Serif" font-size="10.00">+</text>
<text text-anchor="start" x="463.5" y="-226.5" font-family="Helvetica,sans-Serif" font-size="10.00">SecPower</text>
<text text-anchor="start" x="449.5" y="-210.5" font-family="Helvetica,sans-Serif" font-size="10.00">+</text>
<text text-anchor="start" x="463.5" y="-210.5" font-family="Helvetica,sans-Serif" font-size="10.00">Temperature</text>
<text text-anchor="start" x="449.5" y="-194.5" font-family="Helvetica,sans-Serif" font-size="10.00">+</text>
<text text-anchor="start" x="463.5" y="-194.5" font-family="Helvetica,sans-Serif" font-size="10.00">VRail_5V</text>
<text text-anchor="start" x="449.5" y="-178.5" font-family="Helvetica,sans-Serif" font-size="10.00">+</text>
<text text-anchor="start" x="463.5" y="-178.5" font-family="Helvetica,sans-Serif" font-size="10.00">ISecSensorOffset</text>
<text text-anchor="start" x="503" y="-162.5" font-family="Helvetica,sans-Serif" font-size="10.00"> </text>
<polygon fill="#666666" stroke="#666666" points="441.5,-334 441.5,-334 567.5,-334 567.5,-334 441.5,-334"/>
<polygon fill="#666666" stroke="#666666" points="441.5,-174 441.5,-174 461.5,-174 461.5,-174 441.5,-174"/>
<polygon fill="#666666" stroke="#666666" points="461.5,-174 461.5,-174 567.5,-174 567.5,-174 461.5,-174"/>
<polygon fill="none" stroke="#666666" points="441.5,-156 441.5,-352 567.5,-352 567.5,-156 441.5,-156"/>
</a>
</g>
</g>
<!-- Node5&#45;&gt;Node1 -->
<g id="edge4_Node000001_Node000005" class="edge">
<title>Node5&#45;&gt;Node1</title>
<g id="a_edge4_Node000001_Node000005"><a xlink:title=" ">
<path fill="none" stroke="#63b8ff" d="M504.5,-156.3C504.5,-135.87 504.5,-115.02 504.5,-96.86"/>
<polygon fill="none" stroke="#63b8ff" points="504.5,-96.77 500.5,-90.77 504.5,-84.77 508.5,-90.77 504.5,-96.77"/>
</a>
</g>
<text text-anchor="middle" x="519.12" y="-116.5" font-family="Helvetica,sans-Serif" font-size="10.00" fill="grey"> +Data</text>
</g>
<!-- Node6 -->
<g id="Node000006" class="node">
<title>Node6</title>
<g id="a_Node000006"><a xlink:href="a00651.html" target="_top" xlink:title="Contains Fault settings.">
<polygon fill="white" stroke="none" points="689,-280 586,-280 586,-228 689,-228 689,-280"/>
<text text-anchor="start" x="591" y="-266.5" font-family="Helvetica,sans-Serif" font-size="10.00">FAULT_SETTINGS_s</text>
<text text-anchor="start" x="596" y="-250.5" font-family="Helvetica,sans-Serif" font-size="10.00">+</text>
<text text-anchor="start" x="612" y="-250.5" font-family="Helvetica,sans-Serif" font-size="10.00">FaultDetected</text>
<text text-anchor="start" x="636" y="-234.5" font-family="Helvetica,sans-Serif" font-size="10.00"> </text>
<polygon fill="#666666" stroke="#666666" points="586,-262 586,-262 689,-262 689,-262 586,-262"/>
<polygon fill="#666666" stroke="#666666" points="586,-246 586,-246 610,-246 610,-246 586,-246"/>
<polygon fill="#666666" stroke="#666666" points="610,-246 610,-246 689,-246 689,-246 610,-246"/>
<polygon fill="none" stroke="#666666" points="586,-228 586,-280 689,-280 689,-228 586,-228"/>
</a>
</g>
</g>
<!-- Node6&#45;&gt;Node1 -->
<g id="edge5_Node000001_Node000006" class="edge">
<title>Node6&#45;&gt;Node1</title>
<g id="a_edge5_Node000001_Node000006"><a xlink:title=" ">
<path fill="none" stroke="#63b8ff" d="M622,-228.26C609.69,-208.64 592.03,-180.54 576.5,-156 563.81,-135.95 549.81,-113.95 537.55,-94.72"/>
<polygon fill="none" stroke="#63b8ff" points="537.49,-94.64 530.89,-91.73 531.04,-84.52 537.64,-87.43 537.49,-94.64"/>
</a>
</g>
<text text-anchor="middle" x="580.88" y="-116.5" font-family="Helvetica,sans-Serif" font-size="10.00" fill="grey"> +Fault</text>
</g>
<!-- Node7 -->
<g id="Node000007" class="node">
<title>Node7</title>
<g id="a_Node000007"><a xlink:href="a00647.html" target="_top" xlink:title="Collection of faults to be monitored.">
<polygon fill="white" stroke="none" points="662.5,-452 612.5,-452 612.5,-400 662.5,-400 662.5,-452"/>
<text text-anchor="start" x="617.25" y="-438.5" font-family="Helvetica,sans-Serif" font-size="10.00">FAULT_s</text>
<text text-anchor="start" x="636" y="-422.5" font-family="Helvetica,sans-Serif" font-size="10.00"> </text>
<text text-anchor="start" x="636" y="-406.5" font-family="Helvetica,sans-Serif" font-size="10.00"> </text>
<polygon fill="#666666" stroke="#666666" points="612.5,-434 612.5,-434 662.5,-434 662.5,-434 612.5,-434"/>
<polygon fill="#666666" stroke="#666666" points="612.5,-418 612.5,-418 662.5,-418 662.5,-418 612.5,-418"/>
<polygon fill="none" stroke="#666666" points="612.5,-400 612.5,-452 662.5,-452 662.5,-400 612.5,-400"/>
</a>
</g>
</g>
<!-- Node7&#45;&gt;Node6 -->
<g id="edge6_Node000006_Node000007" class="edge">
<title>Node7&#45;&gt;Node6</title>
<g id="a_edge6_Node000006_Node000007"><a xlink:title=" ">
<path fill="none" stroke="#63b8ff" d="M637.5,-400.28C637.5,-371.95 637.5,-325.22 637.5,-292.43"/>
<polygon fill="none" stroke="#63b8ff" points="637.5,-292.65 633.5,-286.65 637.5,-280.65 641.5,-286.65 637.5,-292.65"/>
</a>
</g>
<text text-anchor="middle" x="656.25" y="-372.5" font-family="Helvetica,sans-Serif" font-size="10.00" fill="grey"> +Object</text>
</g>
<!-- Node8 -->
<g id="Node000008" class="node">
<title>Node8</title>
<g id="a_Node000008"><a xlink:href="a00643.html" target="_top" xlink:title="The Fault object data structure contains a list of elements/variables that are used to detect/check a...">
<polygon fill="white" stroke="none" points="682,-768 593,-768 593,-572 682,-572 682,-768"/>
<text text-anchor="start" x="605.25" y="-754.5" font-family="Helvetica,sans-Serif" font-size="10.00">FAULT_OBJ_T</text>
<text text-anchor="start" x="597" y="-738.5" font-family="Helvetica,sans-Serif" font-size="10.00">+</text>
<text text-anchor="start" x="607" y="-738.5" font-family="Helvetica,sans-Serif" font-size="10.00">Val1_Threshold</text>
<text text-anchor="start" x="597" y="-722.5" font-family="Helvetica,sans-Serif" font-size="10.00">+</text>
<text text-anchor="start" x="607" y="-722.5" font-family="Helvetica,sans-Serif" font-size="10.00">Val1_Hysteresis</text>
<text text-anchor="start" x="597" y="-706.5" font-family="Helvetica,sans-Serif" font-size="10.00">+</text>
<text text-anchor="start" x="607" y="-706.5" font-family="Helvetica,sans-Serif" font-size="10.00">Val2_Threshold</text>
<text text-anchor="start" x="597" y="-690.5" font-family="Helvetica,sans-Serif" font-size="10.00">+</text>
<text text-anchor="start" x="607" y="-690.5" font-family="Helvetica,sans-Serif" font-size="10.00">Val2_Hysteresis</text>
<text text-anchor="start" x="597" y="-674.5" font-family="Helvetica,sans-Serif" font-size="10.00">+</text>
<text text-anchor="start" x="607" y="-674.5" font-family="Helvetica,sans-Serif" font-size="10.00">CounterSet</text>
<text text-anchor="start" x="597" y="-658.5" font-family="Helvetica,sans-Serif" font-size="10.00">+</text>
<text text-anchor="start" x="607" y="-658.5" font-family="Helvetica,sans-Serif" font-size="10.00">CounterReset</text>
<text text-anchor="start" x="597" y="-642.5" font-family="Helvetica,sans-Serif" font-size="10.00">+</text>
<text text-anchor="start" x="607" y="-642.5" font-family="Helvetica,sans-Serif" font-size="10.00">FaultCounter</text>
<text text-anchor="start" x="597" y="-626.5" font-family="Helvetica,sans-Serif" font-size="10.00">+</text>
<text text-anchor="start" x="607" y="-626.5" font-family="Helvetica,sans-Serif" font-size="10.00">FaultCode</text>
<text text-anchor="start" x="597" y="-610.5" font-family="Helvetica,sans-Serif" font-size="10.00">+</text>
<text text-anchor="start" x="607" y="-610.5" font-family="Helvetica,sans-Serif" font-size="10.00">FaultActive</text>
<text text-anchor="start" x="597" y="-594.5" font-family="Helvetica,sans-Serif" font-size="10.00">+</text>
<text text-anchor="start" x="607" y="-594.5" font-family="Helvetica,sans-Serif" font-size="10.00">FaultLatch</text>
<text text-anchor="start" x="636" y="-578.5" font-family="Helvetica,sans-Serif" font-size="10.00"> </text>
<polygon fill="#666666" stroke="#666666" points="593,-750 593,-750 682,-750 682,-750 593,-750"/>
<polygon fill="#666666" stroke="#666666" points="593,-590 593,-590 605,-590 605,-590 593,-590"/>
<polygon fill="#666666" stroke="#666666" points="605,-590 605,-590 682,-590 682,-590 605,-590"/>
<polygon fill="none" stroke="#666666" points="593,-572 593,-768 682,-768 682,-572 593,-572"/>
</a>
</g>
</g>
<!-- Node8&#45;&gt;Node7 -->
<g id="edge7_Node000007_Node000008" class="edge">
<title>Node8&#45;&gt;Node7</title>
<g id="a_edge7_Node000007_Node000008"><a xlink:title=" ">
<path fill="none" stroke="#63b8ff" d="M637.5,-572.31C637.5,-534.47 637.5,-493.31 637.5,-464.49"/>
<polygon fill="none" stroke="#63b8ff" points="637.5,-464.69 633.5,-458.69 637.5,-452.69 641.5,-458.69 637.5,-464.69"/>
</a>
</g>
<text text-anchor="middle" x="678.75" y="-544.5" font-family="Helvetica,sans-Serif" font-size="10.00" fill="grey"> +IPrimaryOCP</text>
<text text-anchor="middle" x="678.75" y="-532.5" font-family="Helvetica,sans-Serif" font-size="10.00" fill="grey">+ISecondaryOCP</text>
<text text-anchor="middle" x="678.75" y="-520.5" font-family="Helvetica,sans-Serif" font-size="10.00" fill="grey">+ISenseSCP</text>
<text text-anchor="middle" x="678.75" y="-508.5" font-family="Helvetica,sans-Serif" font-size="10.00" fill="grey">+PowerSupplyOTP</text>
<text text-anchor="middle" x="678.75" y="-496.5" font-family="Helvetica,sans-Serif" font-size="10.00" fill="grey">+VPrimaryOVP</text>
<text text-anchor="middle" x="678.75" y="-484.5" font-family="Helvetica,sans-Serif" font-size="10.00" fill="grey">+VRail_5V</text>
<text text-anchor="middle" x="678.75" y="-472.5" font-family="Helvetica,sans-Serif" font-size="10.00" fill="grey">+VSecondaryOVP</text>
</g>
<!-- Node9 -->
<g id="Node000009" class="node">
<title>Node9</title>
<g id="a_Node000009"><a xlink:href="a00695.html" target="_top" xlink:title="Stores data related to the ramping up/down of the reference.">
<polygon fill="white" stroke="none" points="810,-320 707,-320 707,-188 810,-188 810,-320"/>
<text text-anchor="start" x="711.62" y="-306.5" font-family="Helvetica,sans-Serif" font-size="10.00">START_UP_RAMP_s</text>
<text text-anchor="start" x="712" y="-290.5" font-family="Helvetica,sans-Serif" font-size="10.00">+</text>
<text text-anchor="start" x="723" y="-290.5" font-family="Helvetica,sans-Serif" font-size="10.00">Counter</text>
<text text-anchor="start" x="712" y="-274.5" font-family="Helvetica,sans-Serif" font-size="10.00">+</text>
<text text-anchor="start" x="723" y="-274.5" font-family="Helvetica,sans-Serif" font-size="10.00">Delay</text>
<text text-anchor="start" x="712" y="-258.5" font-family="Helvetica,sans-Serif" font-size="10.00">+</text>
<text text-anchor="start" x="723" y="-258.5" font-family="Helvetica,sans-Serif" font-size="10.00">StepSize</text>
<text text-anchor="start" x="712" y="-242.5" font-family="Helvetica,sans-Serif" font-size="10.00">+</text>
<text text-anchor="start" x="723" y="-242.5" font-family="Helvetica,sans-Serif" font-size="10.00">ptrReference</text>
<text text-anchor="start" x="712" y="-226.5" font-family="Helvetica,sans-Serif" font-size="10.00">+</text>
<text text-anchor="start" x="723" y="-226.5" font-family="Helvetica,sans-Serif" font-size="10.00">ptrReferenceTarget</text>
<text text-anchor="start" x="712" y="-210.5" font-family="Helvetica,sans-Serif" font-size="10.00">+</text>
<text text-anchor="start" x="723" y="-210.5" font-family="Helvetica,sans-Serif" font-size="10.00">RampComplete</text>
<text text-anchor="start" x="757" y="-194.5" font-family="Helvetica,sans-Serif" font-size="10.00"> </text>
<polygon fill="#666666" stroke="#666666" points="707,-302 707,-302 810,-302 810,-302 707,-302"/>
<polygon fill="#666666" stroke="#666666" points="707,-206 707,-206 721,-206 721,-206 707,-206"/>
<polygon fill="#666666" stroke="#666666" points="721,-206 721,-206 810,-206 810,-206 721,-206"/>
<polygon fill="none" stroke="#666666" points="707,-188 707,-320 810,-320 810,-188 707,-188"/>
</a>
</g>
</g>
<!-- Node9&#45;&gt;Node1 -->
<g id="edge8_Node000001_Node000009" class="edge">
<title>Node9&#45;&gt;Node1</title>
<g id="a_edge8_Node000001_Node000009"><a xlink:title=" ">
<path fill="none" stroke="#63b8ff" d="M723.84,-188.13C716.07,-176.67 707.22,-165.41 697.5,-156 660.57,-120.22 610.2,-91.22 570.18,-71.56"/>
<polygon fill="none" stroke="#63b8ff" points="570.28,-71.61 563.14,-72.61 559.47,-66.4 566.61,-65.4 570.28,-71.61"/>
</a>
</g>
<text text-anchor="middle" x="694.62" y="-128.5" font-family="Helvetica,sans-Serif" font-size="10.00" fill="grey"> +IRamp</text>
<text text-anchor="middle" x="694.62" y="-116.5" font-family="Helvetica,sans-Serif" font-size="10.00" fill="grey">+PRamp</text>
<text text-anchor="middle" x="694.62" y="-104.5" font-family="Helvetica,sans-Serif" font-size="10.00" fill="grey">+VRamp</text>
</g>
<!-- Node10 -->
<g id="Node000010" class="node">
<title>Node10</title>
<g id="a_Node000010"><a xlink:href="a00699.html" target="_top" xlink:title="Stores data related to the control loop properties.">
<polygon fill="white" stroke="none" points="913,-312 828,-312 828,-196 913,-196 913,-312"/>
<text text-anchor="start" x="833" y="-298.5" font-family="Helvetica,sans-Serif" font-size="10.00">CONTROLLER_s</text>
<text text-anchor="start" x="837.5" y="-282.5" font-family="Helvetica,sans-Serif" font-size="10.00">+</text>
<text text-anchor="start" x="853" y="-282.5" font-family="Helvetica,sans-Serif" font-size="10.00">Reference</text>
<text text-anchor="start" x="837.5" y="-266.5" font-family="Helvetica,sans-Serif" font-size="10.00">+</text>
<text text-anchor="start" x="853" y="-266.5" font-family="Helvetica,sans-Serif" font-size="10.00">Feedback</text>
<text text-anchor="start" x="837.5" y="-250.5" font-family="Helvetica,sans-Serif" font-size="10.00">+</text>
<text text-anchor="start" x="853" y="-250.5" font-family="Helvetica,sans-Serif" font-size="10.00">Output</text>
<text text-anchor="start" x="837.5" y="-234.5" font-family="Helvetica,sans-Serif" font-size="10.00">+</text>
<text text-anchor="start" x="853" y="-234.5" font-family="Helvetica,sans-Serif" font-size="10.00">AgcFactor</text>
<text text-anchor="start" x="837.5" y="-218.5" font-family="Helvetica,sans-Serif" font-size="10.00">+</text>
<text text-anchor="start" x="853" y="-218.5" font-family="Helvetica,sans-Serif" font-size="10.00">Enable</text>
<text text-anchor="start" x="869" y="-202.5" font-family="Helvetica,sans-Serif" font-size="10.00"> </text>
<polygon fill="#666666" stroke="#666666" points="828,-294 828,-294 913,-294 913,-294 828,-294"/>
<polygon fill="#666666" stroke="#666666" points="828,-214 828,-214 851,-214 851,-214 828,-214"/>
<polygon fill="#666666" stroke="#666666" points="851,-214 851,-214 913,-214 913,-214 851,-214"/>
<polygon fill="none" stroke="#666666" points="828,-196 828,-312 913,-312 913,-196 828,-196"/>
</a>
</g>
</g>
<!-- Node10&#45;&gt;Node1 -->
<g id="edge9_Node000001_Node000010" class="edge">
<title>Node10&#45;&gt;Node1</title>
<g id="a_edge9_Node000001_Node000010"><a xlink:title=" ">
<path fill="none" stroke="#63b8ff" d="M847.79,-196.06C840.27,-181.82 830.85,-167.38 819.5,-156 752.3,-88.61 642.13,-61.19 571.49,-50.19"/>
<polygon fill="none" stroke="#63b8ff" points="571.55,-50.2 565.03,-53.28 559.67,-48.45 566.19,-45.37 571.55,-50.2"/>
</a>
</g>
<text text-anchor="middle" x="808.38" y="-128.5" font-family="Helvetica,sans-Serif" font-size="10.00" fill="grey"> +ILoop</text>
<text text-anchor="middle" x="808.38" y="-116.5" font-family="Helvetica,sans-Serif" font-size="10.00" fill="grey">+PLoop</text>
<text text-anchor="middle" x="808.38" y="-104.5" font-family="Helvetica,sans-Serif" font-size="10.00" fill="grey">+VLoop</text>
</g>
</g>
</svg>
