<?xml version="1.0" encoding="UTF-8" standalone="no"?>
<!DOCTYPE svg PUBLIC "-//W3C//DTD SVG 1.1//EN"
 "http://www.w3.org/Graphics/SVG/1.1/DTD/svg11.dtd">
<!-- Generated by graphviz version 8.1.0 (20230707.0739)
 -->
<!-- Title: FEEDBACK_SETTINGS_s Pages: 1 -->
<svg width="134pt" height="204pt"
 viewBox="0.00 0.00 134.00 204.00" xmlns="http://www.w3.org/2000/svg" xmlns:xlink="http://www.w3.org/1999/xlink">
<g id="graph0" class="graph" transform="scale(1 1) rotate(0) translate(4 200)">
<title>FEEDBACK_SETTINGS_s</title>
<!-- Node1 -->
<g id="Node000001" class="node">
<title>Node1</title>
<g id="a_Node000001"><a xlink:title="Publicly accessible data buffer of most recent runtime data values.">
<polygon fill="#999999" stroke="none" points="126,-196 0,-196 0,0 126,0 126,-196"/>
<text text-anchor="start" x="4.88" y="-182.5" font-family="Helvetica,sans-Serif" font-size="10.00">FEEDBACK_SETTINGS_s</text>
<text text-anchor="start" x="8" y="-166.5" font-family="Helvetica,sans-Serif" font-size="10.00">+</text>
<text text-anchor="start" x="22" y="-166.5" font-family="Helvetica,sans-Serif" font-size="10.00">VPriVoltage</text>
<text text-anchor="start" x="8" y="-150.5" font-family="Helvetica,sans-Serif" font-size="10.00">+</text>
<text text-anchor="start" x="22" y="-150.5" font-family="Helvetica,sans-Serif" font-size="10.00">VSecVoltage</text>
<text text-anchor="start" x="8" y="-134.5" font-family="Helvetica,sans-Serif" font-size="10.00">+</text>
<text text-anchor="start" x="22" y="-134.5" font-family="Helvetica,sans-Serif" font-size="10.00">ISensePrimary</text>
<text text-anchor="start" x="8" y="-118.5" font-family="Helvetica,sans-Serif" font-size="10.00">+</text>
<text text-anchor="start" x="22" y="-118.5" font-family="Helvetica,sans-Serif" font-size="10.00">ISenseSecondary</text>
<text text-anchor="start" x="8" y="-102.5" font-family="Helvetica,sans-Serif" font-size="10.00">+</text>
<text text-anchor="start" x="22" y="-102.5" font-family="Helvetica,sans-Serif" font-size="10.00">ISecAverage</text>
<text text-anchor="start" x="8" y="-86.5" font-family="Helvetica,sans-Serif" font-size="10.00">+</text>
<text text-anchor="start" x="22" y="-86.5" font-family="Helvetica,sans-Serif" font-size="10.00">ISecAverageRectified</text>
<text text-anchor="start" x="8" y="-70.5" font-family="Helvetica,sans-Serif" font-size="10.00">+</text>
<text text-anchor="start" x="22" y="-70.5" font-family="Helvetica,sans-Serif" font-size="10.00">SecPower</text>
<text text-anchor="start" x="8" y="-54.5" font-family="Helvetica,sans-Serif" font-size="10.00">+</text>
<text text-anchor="start" x="22" y="-54.5" font-family="Helvetica,sans-Serif" font-size="10.00">Temperature</text>
<text text-anchor="start" x="8" y="-38.5" font-family="Helvetica,sans-Serif" font-size="10.00">+</text>
<text text-anchor="start" x="22" y="-38.5" font-family="Helvetica,sans-Serif" font-size="10.00">VRail_5V</text>
<text text-anchor="start" x="8" y="-22.5" font-family="Helvetica,sans-Serif" font-size="10.00">+</text>
<text text-anchor="start" x="22" y="-22.5" font-family="Helvetica,sans-Serif" font-size="10.00">ISecSensorOffset</text>
<text text-anchor="start" x="61.5" y="-6.5" font-family="Helvetica,sans-Serif" font-size="10.00"> </text>
<polygon fill="#666666" stroke="#666666" points="0,-178 0,-178 126,-178 126,-178 0,-178"/>
<polygon fill="#666666" stroke="#666666" points="0,-18 0,-18 20,-18 20,-18 0,-18"/>
<polygon fill="#666666" stroke="#666666" points="20,-18 20,-18 126,-18 126,-18 20,-18"/>
<polygon fill="none" stroke="#666666" points="0,0 0,-196 126,-196 126,0 0,0"/>
</a>
</g>
</g>
</g>
</svg>
