<?xml version="1.0" encoding="UTF-8" standalone="no"?>
<!DOCTYPE svg PUBLIC "-//W3C//DTD SVG 1.1//EN"
 "http://www.w3.org/Graphics/SVG/1.1/DTD/svg11.dtd">
<!-- Generated by graphviz version 8.1.0 (20230707.0739)
 -->
<!-- Title: dspic33ck&#45;dab.X/sources Pages: 1 -->
<svg width="330pt" height="312pt"
 viewBox="0.00 0.00 330.00 312.00" xmlns="http://www.w3.org/2000/svg" xmlns:xlink="http://www.w3.org/1999/xlink">

<svg id="main" version="1.1" xmlns="http://www.w3.org/2000/svg" xmlns:xlink="http://www.w3.org/1999/xlink" xml:space="preserve" onload="init(evt)">
<style type="text/css"><![CDATA[
.node, .edge {opacity: 0.7;}
.node.selected, .edge.selected {opacity: 1;}
.edge:hover path { stroke: red; }
.edge:hover polygon { stroke: red; fill: red; }
]]></style>
<script type="application/ecmascript" xlink:href="svg.min.js"/>
<svg id="graph" class="graph">
<g id="graph0" class="graph" transform="scale(1 1) rotate(0) translate(4 308)">
<title>dspic33ck&#45;dab.X/sources</title>
<g id="clust1" class="cluster">
<title>clusterdir_2a88d4bf3010a9a317e26b5e05d2cacc</title>
<g id="a_clust1"><a xlink:href="dir_2a88d4bf3010a9a317e26b5e05d2cacc.html" target="_top" xlink:title="dspic33ck&#45;dab.X">
<polygon fill="#edf0f7" stroke="#404040" stroke-dasharray="5,2" points="8,-8 8,-296 314,-296 314,-8 8,-8"/>
<text text-anchor="middle" x="161" y="-282.5" font-family="Helvetica,sans-Serif" font-size="10.00">dspic33ck&#45;dab.X</text>
</a>
</g>
</g>
<g id="clust2" class="cluster">
<title>clusterdir_0c85c1034e829fcd1461f64b5ba79455</title>
<g id="a_clust2"><a xlink:href="dir_0c85c1034e829fcd1461f64b5ba79455.html" target="_top">
<polygon fill="#edf0f7" stroke="#404040" stroke-width="2" points="16,-64 16,-268 306,-268 306,-64 16,-64"/>
</a>
</g>
</g>
<!-- dir_1a88c24452b650a0a27632dbf7692fad -->
<g id="node1" class="node">
<title>dir_1a88c24452b650a0a27632dbf7692fad</title>
<g id="a_node1"><a xlink:href="dir_1a88c24452b650a0a27632dbf7692fad.html" target="_top" xlink:title="dcdt">
<polygon fill="#a2b4d6" stroke="red" points="80.38,-36 45.62,-36 45.62,-16 80.38,-16 80.38,-36"/>
<text text-anchor="middle" x="63" y="-22.5" font-family="Helvetica,sans-Serif" font-size="10.00">dcdt</text>
</a>
</g>
</g>
<!-- dir_c46d2619ca51eda3bcfbc029920b54e1 -->
<g id="node2" class="node">
<title>dir_c46d2619ca51eda3bcfbc029920b54e1</title>
<g id="a_node2"><a xlink:href="dir_c46d2619ca51eda3bcfbc029920b54e1.html" target="_top" xlink:title="mcc_generated_files">
<polygon fill="#a2b4d6" stroke="red" points="203.62,-36 98.38,-36 98.38,-16 203.62,-16 203.62,-36"/>
<text text-anchor="middle" x="151" y="-22.5" font-family="Helvetica,sans-Serif" font-size="10.00">mcc_generated_files</text>
</a>
</g>
</g>
<!-- dir_0c85c1034e829fcd1461f64b5ba79455 -->
<g id="node3" class="node">
<title>dir_0c85c1034e829fcd1461f64b5ba79455</title>
<text text-anchor="middle" x="273" y="-246.5" font-family="Helvetica,sans-Serif" font-size="10.00">sources</text>
</g>
<!-- dir_f32f993f0eeec40702e09e10dd24f2c6 -->
<g id="node4" class="node">
<title>dir_f32f993f0eeec40702e09e10dd24f2c6</title>
<g id="a_node4"><a xlink:href="dir_f32f993f0eeec40702e09e10dd24f2c6.html" target="_top" xlink:title="comm">
<polygon fill="#a2b4d6" stroke="#404040" points="113.5,-260 70.5,-260 70.5,-240 113.5,-240 113.5,-260"/>
<text text-anchor="middle" x="92" y="-246.5" font-family="Helvetica,sans-Serif" font-size="10.00">comm</text>
</a>
</g>
</g>
<!-- dir_f32f993f0eeec40702e09e10dd24f2c6&#45;&gt;dir_c46d2619ca51eda3bcfbc029920b54e1 -->
<g id="edge4" class="edge">
<title>dir_f32f993f0eeec40702e09e10dd24f2c6&#45;&gt;dir_c46d2619ca51eda3bcfbc029920b54e1</title>
<g id="a_edge4"><a xlink:href="dir_000005_000025.html" target="_top">
<path fill="none" stroke="#63b8ff" d="M101.71,-239.53C109.92,-230.98 121.37,-217.68 128,-204 155.61,-147.05 156.56,-127.23 154,-64 153.78,-58.56 153.38,-52.69 152.94,-47.26"/>
<polygon fill="#63b8ff" stroke="#63b8ff" points="156.35,-47.07 151.97,-37.42 149.38,-47.69 156.35,-47.07"/>
</a>
</g>
<g id="a_edge4&#45;headlabel"><a xlink:href="dir_000005_000025.html" target="_top" xlink:title="3">
<text text-anchor="middle" x="159.49" y="-45.89" font-family="Helvetica,sans-Serif" font-size="10.00" fill="#63b8ff">3</text>
</a>
</g>
</g>
<!-- dir_906bcbbe38848504ae53d9f2d85d0e5c -->
<g id="node6" class="node">
<title>dir_906bcbbe38848504ae53d9f2d85d0e5c</title>
<g id="a_node6"><a xlink:href="dir_906bcbbe38848504ae53d9f2d85d0e5c.html" target="_top" xlink:title="device">
<polygon fill="#a2b4d6" stroke="#404040" points="113.5,-204 70.5,-204 70.5,-184 113.5,-184 113.5,-204"/>
<text text-anchor="middle" x="92" y="-190.5" font-family="Helvetica,sans-Serif" font-size="10.00">device</text>
</a>
</g>
</g>
<!-- dir_f32f993f0eeec40702e09e10dd24f2c6&#45;&gt;dir_906bcbbe38848504ae53d9f2d85d0e5c -->
<g id="edge2" class="edge">
<title>dir_f32f993f0eeec40702e09e10dd24f2c6&#45;&gt;dir_906bcbbe38848504ae53d9f2d85d0e5c</title>
<g id="a_edge2"><a xlink:href="dir_000005_000017.html" target="_top">
<path fill="none" stroke="#63b8ff" d="M92,-239.59C92,-232.86 92,-223.53 92,-215.15"/>
<polygon fill="#63b8ff" stroke="#63b8ff" points="95.5,-215.3 92,-205.3 88.5,-215.3 95.5,-215.3"/>
</a>
</g>
<g id="a_edge2&#45;headlabel"><a xlink:href="dir_000005_000017.html" target="_top" xlink:title="1">
<text text-anchor="middle" x="98.34" y="-214.39" font-family="Helvetica,sans-Serif" font-size="10.00" fill="#63b8ff">1</text>
</a>
</g>
</g>
<!-- dir_06cf4eb54185625c35ddef42b22844f1 -->
<g id="node8" class="node">
<title>dir_06cf4eb54185625c35ddef42b22844f1</title>
<g id="a_node8"><a xlink:href="dir_06cf4eb54185625c35ddef42b22844f1.html" target="_top" xlink:title="fault">
<polygon fill="#a2b4d6" stroke="#404040" points="124,-148 90,-148 90,-128 124,-128 124,-148"/>
<text text-anchor="middle" x="107" y="-134.5" font-family="Helvetica,sans-Serif" font-size="10.00">fault</text>
</a>
</g>
</g>
<!-- dir_f32f993f0eeec40702e09e10dd24f2c6&#45;&gt;dir_06cf4eb54185625c35ddef42b22844f1 -->
<g id="edge1" class="edge">
<title>dir_f32f993f0eeec40702e09e10dd24f2c6&#45;&gt;dir_06cf4eb54185625c35ddef42b22844f1</title>
<g id="a_edge1"><a xlink:href="dir_000005_000022.html" target="_top">
<path fill="none" stroke="#63b8ff" d="M100.78,-239.52C108.06,-230.96 117.86,-217.66 122,-204 126.61,-188.76 121.94,-171.14 116.63,-158.09"/>
<polygon fill="#63b8ff" stroke="#63b8ff" points="119.53,-157.02 112.21,-149.36 113.16,-159.91 119.53,-157.02"/>
</a>
</g>
<g id="a_edge1&#45;headlabel"><a xlink:href="dir_000005_000022.html" target="_top" xlink:title="1">
<text text-anchor="middle" x="123.61" y="-154.61" font-family="Helvetica,sans-Serif" font-size="10.00" fill="#63b8ff">1</text>
</a>
</g>
</g>
<!-- dir_bcf70896ed3e36f2db4975414825655f -->
<g id="node10" class="node">
<title>dir_bcf70896ed3e36f2db4975414825655f</title>
<g id="a_node10"><a xlink:href="dir_bcf70896ed3e36f2db4975414825655f.html" target="_top" xlink:title="pwrctrl">
<polygon fill="#a2b4d6" stroke="#404040" points="93.25,-92 48.75,-92 48.75,-72 93.25,-72 93.25,-92"/>
<text text-anchor="middle" x="71" y="-78.5" font-family="Helvetica,sans-Serif" font-size="10.00">pwrctrl</text>
</a>
</g>
</g>
<!-- dir_f32f993f0eeec40702e09e10dd24f2c6&#45;&gt;dir_bcf70896ed3e36f2db4975414825655f -->
<g id="edge3" class="edge">
<title>dir_f32f993f0eeec40702e09e10dd24f2c6&#45;&gt;dir_bcf70896ed3e36f2db4975414825655f</title>
<g id="a_edge3"><a xlink:href="dir_000005_000029.html" target="_top">
<path fill="none" stroke="#63b8ff" d="M82.93,-239.57C75.41,-231.05 65.28,-217.77 61,-204 50.29,-169.58 58.35,-127.15 64.89,-102.77"/>
<polygon fill="#63b8ff" stroke="#63b8ff" points="68.48,-103.95 67.88,-93.37 61.75,-102.01 68.48,-103.95"/>
</a>
</g>
<g id="a_edge3&#45;headlabel"><a xlink:href="dir_000005_000029.html" target="_top" xlink:title="1">
<text text-anchor="middle" x="70.21" y="-103.69" font-family="Helvetica,sans-Serif" font-size="10.00" fill="#63b8ff">1</text>
</a>
</g>
</g>
<!-- dir_73d77e360d8a42bdd964ea14e9da6f2f -->
<g id="node5" class="node">
<title>dir_73d77e360d8a42bdd964ea14e9da6f2f</title>
<g id="a_node5"><a xlink:href="dir_73d77e360d8a42bdd964ea14e9da6f2f.html" target="_top" xlink:title="config">
<polygon fill="#a2b4d6" stroke="#404040" points="172.75,-260 131.25,-260 131.25,-240 172.75,-240 172.75,-260"/>
<text text-anchor="middle" x="152" y="-246.5" font-family="Helvetica,sans-Serif" font-size="10.00">config</text>
</a>
</g>
</g>
<!-- dir_906bcbbe38848504ae53d9f2d85d0e5c&#45;&gt;dir_c46d2619ca51eda3bcfbc029920b54e1 -->
<g id="edge7" class="edge">
<title>dir_906bcbbe38848504ae53d9f2d85d0e5c&#45;&gt;dir_c46d2619ca51eda3bcfbc029920b54e1</title>
<g id="a_edge7"><a xlink:href="dir_000017_000025.html" target="_top">
<path fill="none" stroke="#63b8ff" d="M103.77,-183.61C113.29,-175.31 126.2,-162.32 133,-148 148.59,-115.18 151.38,-72.18 151.52,-47.27"/>
<polygon fill="#63b8ff" stroke="#63b8ff" points="155.01,-47.29 151.41,-37.33 148.01,-47.36 155.01,-47.29"/>
</a>
</g>
<g id="a_edge7&#45;headlabel"><a xlink:href="dir_000017_000025.html" target="_top" xlink:title="3">
<text text-anchor="middle" x="157.88" y="-46.36" font-family="Helvetica,sans-Serif" font-size="10.00" fill="#63b8ff">3</text>
</a>
</g>
</g>
<!-- dir_906bcbbe38848504ae53d9f2d85d0e5c&#45;&gt;dir_06cf4eb54185625c35ddef42b22844f1 -->
<g id="edge5" class="edge">
<title>dir_906bcbbe38848504ae53d9f2d85d0e5c&#45;&gt;dir_06cf4eb54185625c35ddef42b22844f1</title>
<g id="a_edge5"><a xlink:href="dir_000017_000022.html" target="_top">
<path fill="none" stroke="#63b8ff" d="M89.35,-183.59C89.89,-176.63 92.18,-166.89 95.14,-158.29"/>
<polygon fill="#63b8ff" stroke="#63b8ff" points="98.68,-159.88 99.17,-149.3 92.19,-157.26 98.68,-159.88"/>
</a>
</g>
<g id="a_edge5&#45;headlabel"><a xlink:href="dir_000017_000022.html" target="_top" xlink:title="1">
<text text-anchor="middle" x="99.97" y="-159.78" font-family="Helvetica,sans-Serif" font-size="10.00" fill="#63b8ff">1</text>
</a>
</g>
</g>
<!-- dir_906bcbbe38848504ae53d9f2d85d0e5c&#45;&gt;dir_bcf70896ed3e36f2db4975414825655f -->
<g id="edge6" class="edge">
<title>dir_906bcbbe38848504ae53d9f2d85d0e5c&#45;&gt;dir_bcf70896ed3e36f2db4975414825655f</title>
<g id="a_edge6"><a xlink:href="dir_000017_000029.html" target="_top">
<path fill="none" stroke="#63b8ff" d="M82.6,-183.74C78.09,-174.68 74.48,-160.46 72,-148 69.03,-133.06 66.44,-116.05 65.91,-103.17"/>
<polygon fill="#63b8ff" stroke="#63b8ff" points="69.43,-103.36 66.1,-93.3 62.43,-103.24 69.43,-103.36"/>
</a>
</g>
<g id="a_edge6&#45;headlabel"><a xlink:href="dir_000017_000029.html" target="_top" xlink:title="1">
<text text-anchor="middle" x="72.21" y="-102.5" font-family="Helvetica,sans-Serif" font-size="10.00" fill="#63b8ff">1</text>
</a>
</g>
</g>
<!-- dir_f05eb2cb4d2f67fc50957245660a2660 -->
<g id="node7" class="node">
<title>dir_f05eb2cb4d2f67fc50957245660a2660</title>
<g id="a_node7"><a xlink:href="dir_f05eb2cb4d2f67fc50957245660a2660.html" target="_top" xlink:title="driver">
<polygon fill="#a2b4d6" stroke="#404040" points="229.25,-260 190.75,-260 190.75,-240 229.25,-240 229.25,-260"/>
<text text-anchor="middle" x="210" y="-246.5" font-family="Helvetica,sans-Serif" font-size="10.00">driver</text>
</a>
</g>
</g>
<!-- dir_f05eb2cb4d2f67fc50957245660a2660&#45;&gt;dir_c46d2619ca51eda3bcfbc029920b54e1 -->
<g id="edge8" class="edge">
<title>dir_f05eb2cb4d2f67fc50957245660a2660&#45;&gt;dir_c46d2619ca51eda3bcfbc029920b54e1</title>
<g id="a_edge8"><a xlink:href="dir_000020_000025.html" target="_top">
<path fill="none" stroke="#63b8ff" d="M207.54,-239.74C198.71,-206.53 168.51,-92.87 156.24,-46.72"/>
<polygon fill="#63b8ff" stroke="#63b8ff" points="159.42,-46.06 153.47,-37.3 152.66,-47.86 159.42,-46.06"/>
</a>
</g>
<g id="a_edge8&#45;headlabel"><a xlink:href="dir_000020_000025.html" target="_top" xlink:title="2">
<text text-anchor="middle" x="163.09" y="-44.31" font-family="Helvetica,sans-Serif" font-size="10.00" fill="#63b8ff">2</text>
</a>
</g>
</g>
<!-- dir_06cf4eb54185625c35ddef42b22844f1&#45;&gt;dir_c46d2619ca51eda3bcfbc029920b54e1 -->
<g id="edge11" class="edge">
<title>dir_06cf4eb54185625c35ddef42b22844f1&#45;&gt;dir_c46d2619ca51eda3bcfbc029920b54e1</title>
<g id="a_edge11"><a xlink:href="dir_000022_000025.html" target="_top">
<path fill="none" stroke="#63b8ff" d="M110.75,-127.62C117.93,-109.68 133.73,-70.17 143.26,-46.35"/>
<polygon fill="#63b8ff" stroke="#63b8ff" points="146.79,-47.94 147.26,-37.35 140.29,-45.34 146.79,-47.94"/>
</a>
</g>
<g id="a_edge11&#45;headlabel"><a xlink:href="dir_000022_000025.html" target="_top" xlink:title="5">
<text text-anchor="middle" x="148.1" y="-47.83" font-family="Helvetica,sans-Serif" font-size="10.00" fill="#63b8ff">5</text>
</a>
</g>
</g>
<!-- dir_06cf4eb54185625c35ddef42b22844f1&#45;&gt;dir_906bcbbe38848504ae53d9f2d85d0e5c -->
<g id="edge9" class="edge">
<title>dir_06cf4eb54185625c35ddef42b22844f1&#45;&gt;dir_906bcbbe38848504ae53d9f2d85d0e5c</title>
<g id="a_edge9"><a xlink:href="dir_000022_000017.html" target="_top">
<path fill="none" stroke="#63b8ff" d="M109.66,-148.3C109.14,-155.24 106.86,-164.97 103.9,-173.58"/>
<polygon fill="#63b8ff" stroke="#63b8ff" points="100.36,-172.01 99.88,-182.59 106.85,-174.62 100.36,-172.01"/>
</a>
</g>
<g id="a_edge9&#45;headlabel"><a xlink:href="dir_000022_000017.html" target="_top" xlink:title="1">
<text text-anchor="middle" x="99.06" y="-165.12" font-family="Helvetica,sans-Serif" font-size="10.00" fill="#63b8ff">1</text>
</a>
</g>
</g>
<!-- dir_06cf4eb54185625c35ddef42b22844f1&#45;&gt;dir_bcf70896ed3e36f2db4975414825655f -->
<g id="edge10" class="edge">
<title>dir_06cf4eb54185625c35ddef42b22844f1&#45;&gt;dir_bcf70896ed3e36f2db4975414825655f</title>
<g id="a_edge10"><a xlink:href="dir_000022_000029.html" target="_top">
<path fill="none" stroke="#63b8ff" d="M95.46,-127.59C89.29,-120.47 82.21,-110.45 77.02,-101.72"/>
<polygon fill="#63b8ff" stroke="#63b8ff" points="79.77,-100.45 71.95,-93.3 73.61,-103.76 79.77,-100.45"/>
</a>
</g>
<g id="a_edge10&#45;headlabel"><a xlink:href="dir_000022_000029.html" target="_top" xlink:title="2">
<text text-anchor="middle" x="83.98" y="-97.77" font-family="Helvetica,sans-Serif" font-size="10.00" fill="#63b8ff">2</text>
</a>
</g>
</g>
<!-- dir_6b912e9cb7e796f7b771bafbeee1680d -->
<g id="node9" class="node">
<title>dir_6b912e9cb7e796f7b771bafbeee1680d</title>
<g id="a_node9"><a xlink:href="dir_6b912e9cb7e796f7b771bafbeee1680d.html" target="_top" xlink:title="os">
<polygon fill="#a2b4d6" stroke="#404040" points="52.4,-260 23.6,-260 23.6,-240 52.4,-240 52.4,-260"/>
<text text-anchor="middle" x="38" y="-246.5" font-family="Helvetica,sans-Serif" font-size="10.00">os</text>
</a>
</g>
</g>
<!-- dir_bcf70896ed3e36f2db4975414825655f&#45;&gt;dir_1a88c24452b650a0a27632dbf7692fad -->
<g id="edge13" class="edge">
<title>dir_bcf70896ed3e36f2db4975414825655f&#45;&gt;dir_1a88c24452b650a0a27632dbf7692fad</title>
<g id="a_edge13"><a xlink:href="dir_000029_000012.html" target="_top">
<path fill="none" stroke="#63b8ff" d="M69.61,-71.59C68.61,-64.86 67.23,-55.53 65.99,-47.15"/>
<polygon fill="#63b8ff" stroke="#63b8ff" points="69.31,-46.68 64.38,-37.3 62.38,-47.7 69.31,-46.68"/>
</a>
</g>
<g id="a_edge13&#45;headlabel"><a xlink:href="dir_000029_000012.html" target="_top" xlink:title="3">
<text text-anchor="middle" x="72.64" y="-45.32" font-family="Helvetica,sans-Serif" font-size="10.00" fill="#63b8ff">3</text>
</a>
</g>
</g>
<!-- dir_bcf70896ed3e36f2db4975414825655f&#45;&gt;dir_c46d2619ca51eda3bcfbc029920b54e1 -->
<g id="edge15" class="edge">
<title>dir_bcf70896ed3e36f2db4975414825655f&#45;&gt;dir_c46d2619ca51eda3bcfbc029920b54e1</title>
<g id="a_edge15"><a xlink:href="dir_000029_000025.html" target="_top">
<path fill="none" stroke="#63b8ff" d="M84.93,-71.59C96.79,-63.59 114.06,-51.93 127.97,-42.54"/>
<polygon fill="#63b8ff" stroke="#63b8ff" points="129.63,-44.98 135.96,-36.48 125.71,-39.17 129.63,-44.98"/>
</a>
</g>
<g id="a_edge15&#45;headlabel"><a xlink:href="dir_000029_000025.html" target="_top" xlink:title="7">
<text text-anchor="middle" x="129.24" y="-45.84" font-family="Helvetica,sans-Serif" font-size="10.00" fill="#63b8ff">7</text>
</a>
</g>
</g>
<!-- dir_bcf70896ed3e36f2db4975414825655f&#45;&gt;dir_906bcbbe38848504ae53d9f2d85d0e5c -->
<g id="edge14" class="edge">
<title>dir_bcf70896ed3e36f2db4975414825655f&#45;&gt;dir_906bcbbe38848504ae53d9f2d85d0e5c</title>
<g id="a_edge14"><a xlink:href="dir_000029_000017.html" target="_top">
<path fill="none" stroke="#63b8ff" d="M78.25,-92.3C82.83,-104.96 86.08,-128.29 90,-148 91.63,-156.18 93.74,-165.11 95.08,-172.85"/>
<polygon fill="#63b8ff" stroke="#63b8ff" points="91.72,-173.23 96.37,-182.74 98.67,-172.4 91.72,-173.23"/>
</a>
</g>
<g id="a_edge14&#45;headlabel"><a xlink:href="dir_000029_000017.html" target="_top" xlink:title="1">
<text text-anchor="middle" x="88.48" y="-167.49" font-family="Helvetica,sans-Serif" font-size="10.00" fill="#63b8ff">1</text>
</a>
</g>
</g>
<!-- dir_bcf70896ed3e36f2db4975414825655f&#45;&gt;dir_06cf4eb54185625c35ddef42b22844f1 -->
<g id="edge12" class="edge">
<title>dir_bcf70896ed3e36f2db4975414825655f&#45;&gt;dir_06cf4eb54185625c35ddef42b22844f1</title>
<g id="a_edge12"><a xlink:href="dir_000029_000022.html" target="_top">
<path fill="none" stroke="#63b8ff" d="M82.44,-92.3C88.61,-99.39 95.69,-109.4 100.9,-118.15"/>
<polygon fill="#63b8ff" stroke="#63b8ff" points="98.17,-119.45 106,-126.59 104.33,-116.13 98.17,-119.45"/>
</a>
</g>
<g id="a_edge12&#45;headlabel"><a xlink:href="dir_000029_000022.html" target="_top" xlink:title="5">
<text text-anchor="middle" x="93.96" y="-115.14" font-family="Helvetica,sans-Serif" font-size="10.00" fill="#63b8ff">5</text>
</a>
</g>
</g>
</g>
</svg>
</svg>

<style type='text/css'>
<![CDATA[
[data-mouse-over-selected='false'] { opacity: 0.7; }
[data-mouse-over-selected='true']  { opacity: 1.0; }
]]>
</style>
<script type="application/ecmascript"><![CDATA[
document.addEventListener('DOMContentLoaded', (event) => {
  highlightEdges();
  highlightAdjacentNodes();
});
]]></script>
</svg>
