<?xml version="1.0" encoding="UTF-8" standalone="no"?>
<!DOCTYPE svg PUBLIC "-//W3C//DTD SVG 1.1//EN"
 "http://www.w3.org/Graphics/SVG/1.1/DTD/svg11.dtd">
<!-- Generated by graphviz version 8.1.0 (20230707.0739)
 -->
<!-- Title: dspic33ck&#45;dab.X/sources Pages: 1 -->
<svg width="375pt" height="368pt"
 viewBox="0.00 0.00 375.00 368.00" xmlns="http://www.w3.org/2000/svg" xmlns:xlink="http://www.w3.org/1999/xlink">

<svg id="main" version="1.1" xmlns="http://www.w3.org/2000/svg" xmlns:xlink="http://www.w3.org/1999/xlink" xml:space="preserve" onload="init(evt)">
<style type="text/css"><![CDATA[
.node, .edge {opacity: 0.7;}
.node.selected, .edge.selected {opacity: 1;}
.edge:hover path { stroke: red; }
.edge:hover polygon { stroke: red; fill: red; }
]]></style>
<script type="application/ecmascript" xlink:href="svg.min.js"/>
<svg id="graph" class="graph">
<g id="graph0" class="graph" transform="scale(1 1) rotate(0) translate(4 364)">
<title>dspic33ck&#45;dab.X/sources</title>
<g id="clust1" class="cluster">
<title>clusterdir_2a88d4bf3010a9a317e26b5e05d2cacc</title>
<g id="a_clust1"><a xlink:href="dir_2a88d4bf3010a9a317e26b5e05d2cacc.html" target="_top" xlink:title="dspic33ck&#45;dab.X">
<polygon fill="#edf0f7" stroke="#404040" stroke-dasharray="5,2" points="8,-8 8,-352 359,-352 359,-8 8,-8"/>
<text text-anchor="middle" x="183.5" y="-338.5" font-family="Helvetica,sans-Serif" font-size="10.00">dspic33ck&#45;dab.X</text>
</a>
</g>
</g>
<g id="clust2" class="cluster">
<title>clusterdir_0c85c1034e829fcd1461f64b5ba79455</title>
<g id="a_clust2"><a xlink:href="dir_0c85c1034e829fcd1461f64b5ba79455.html" target="_top">
<polygon fill="#edf0f7" stroke="#404040" stroke-width="2" points="16,-64 16,-324 249,-324 249,-64 16,-64"/>
</a>
</g>
</g>
<!-- dir_1a88c24452b650a0a27632dbf7692fad -->
<g id="node1" class="node">
<title>dir_1a88c24452b650a0a27632dbf7692fad</title>
<g id="a_node1"><a xlink:href="dir_1a88c24452b650a0a27632dbf7692fad.html" target="_top" xlink:title="dcdt">
<polygon fill="#a2b4d6" stroke="red" points="291.38,-148 256.62,-148 256.62,-128 291.38,-128 291.38,-148"/>
<text text-anchor="middle" x="274" y="-134.5" font-family="Helvetica,sans-Serif" font-size="10.00">dcdt</text>
</a>
</g>
</g>
<!-- dir_c46d2619ca51eda3bcfbc029920b54e1 -->
<g id="node2" class="node">
<title>dir_c46d2619ca51eda3bcfbc029920b54e1</title>
<g id="a_node2"><a xlink:href="dir_c46d2619ca51eda3bcfbc029920b54e1.html" target="_top" xlink:title="mcc_generated_files">
<polygon fill="#a2b4d6" stroke="red" points="350.62,-36 245.38,-36 245.38,-16 350.62,-16 350.62,-36"/>
<text text-anchor="middle" x="298" y="-22.5" font-family="Helvetica,sans-Serif" font-size="10.00">mcc_generated_files</text>
</a>
</g>
</g>
<!-- dir_0c85c1034e829fcd1461f64b5ba79455 -->
<g id="node3" class="node">
<title>dir_0c85c1034e829fcd1461f64b5ba79455</title>
<text text-anchor="middle" x="216" y="-302.5" font-family="Helvetica,sans-Serif" font-size="10.00">sources</text>
</g>
<!-- dir_f32f993f0eeec40702e09e10dd24f2c6 -->
<g id="node4" class="node">
<title>dir_f32f993f0eeec40702e09e10dd24f2c6</title>
<g id="a_node4"><a xlink:href="dir_f32f993f0eeec40702e09e10dd24f2c6.html" target="_top" xlink:title="comm">
<polygon fill="#a2b4d6" stroke="#404040" points="172.5,-316 129.5,-316 129.5,-296 172.5,-296 172.5,-316"/>
<text text-anchor="middle" x="151" y="-302.5" font-family="Helvetica,sans-Serif" font-size="10.00">comm</text>
</a>
</g>
</g>
<!-- dir_f32f993f0eeec40702e09e10dd24f2c6&#45;&gt;dir_c46d2619ca51eda3bcfbc029920b54e1 -->
<g id="edge4" class="edge">
<title>dir_f32f993f0eeec40702e09e10dd24f2c6&#45;&gt;dir_c46d2619ca51eda3bcfbc029920b54e1</title>
<g id="a_edge4"><a xlink:href="dir_000005_000031.html" target="_top">
<path fill="none" stroke="#63b8ff" d="M172.68,-298.09C224.25,-280.98 350,-235.17 350,-195 350,-195 350,-195 350,-137 350,-101.81 327.97,-65.83 312.59,-44.99"/>
<polygon fill="#63b8ff" stroke="#63b8ff" points="314.77,-43.09 305.9,-37.3 309.22,-47.36 314.77,-43.09"/>
</a>
</g>
<g id="a_edge4&#45;headlabel"><a xlink:href="dir_000005_000031.html" target="_top" xlink:title="3">
<text text-anchor="middle" x="319.21" y="-39.7" font-family="Helvetica,sans-Serif" font-size="10.00" fill="#63b8ff">3</text>
</a>
</g>
</g>
<!-- dir_906bcbbe38848504ae53d9f2d85d0e5c -->
<g id="node6" class="node">
<title>dir_906bcbbe38848504ae53d9f2d85d0e5c</title>
<g id="a_node6"><a xlink:href="dir_906bcbbe38848504ae53d9f2d85d0e5c.html" target="_top" xlink:title="device">
<polygon fill="#a2b4d6" stroke="#404040" points="213.5,-260 170.5,-260 170.5,-240 213.5,-240 213.5,-260"/>
<text text-anchor="middle" x="192" y="-246.5" font-family="Helvetica,sans-Serif" font-size="10.00">device</text>
</a>
</g>
</g>
<!-- dir_f32f993f0eeec40702e09e10dd24f2c6&#45;&gt;dir_906bcbbe38848504ae53d9f2d85d0e5c -->
<g id="edge2" class="edge">
<title>dir_f32f993f0eeec40702e09e10dd24f2c6&#45;&gt;dir_906bcbbe38848504ae53d9f2d85d0e5c</title>
<g id="a_edge2"><a xlink:href="dir_000005_000023.html" target="_top">
<path fill="none" stroke="#63b8ff" d="M158.14,-295.59C163.73,-288.24 171.66,-277.8 178.44,-268.87"/>
<polygon fill="#63b8ff" stroke="#63b8ff" points="181.68,-271.38 184.94,-261.3 176.11,-267.15 181.68,-271.38"/>
</a>
</g>
<g id="a_edge2&#45;headlabel"><a xlink:href="dir_000005_000023.html" target="_top" xlink:title="1">
<text text-anchor="middle" x="181.77" y="-271.46" font-family="Helvetica,sans-Serif" font-size="10.00" fill="#63b8ff">1</text>
</a>
</g>
</g>
<!-- dir_06cf4eb54185625c35ddef42b22844f1 -->
<g id="node8" class="node">
<title>dir_06cf4eb54185625c35ddef42b22844f1</title>
<g id="a_node8"><a xlink:href="dir_06cf4eb54185625c35ddef42b22844f1.html" target="_top" xlink:title="fault">
<polygon fill="#a2b4d6" stroke="#404040" points="211,-148 177,-148 177,-128 211,-128 211,-148"/>
<text text-anchor="middle" x="194" y="-134.5" font-family="Helvetica,sans-Serif" font-size="10.00">fault</text>
</a>
</g>
</g>
<!-- dir_f32f993f0eeec40702e09e10dd24f2c6&#45;&gt;dir_06cf4eb54185625c35ddef42b22844f1 -->
<g id="edge1" class="edge">
<title>dir_f32f993f0eeec40702e09e10dd24f2c6&#45;&gt;dir_06cf4eb54185625c35ddef42b22844f1</title>
<g id="a_edge1"><a xlink:href="dir_000005_000028.html" target="_top">
<path fill="none" stroke="#63b8ff" d="M152.16,-295.66C153.84,-282.96 157.27,-259.58 162,-240 168.94,-211.3 179.75,-178.89 186.86,-158.7"/>
<polygon fill="#63b8ff" stroke="#63b8ff" points="190.49,-159.94 190.56,-149.34 183.9,-157.59 190.49,-159.94"/>
</a>
</g>
<g id="a_edge1&#45;headlabel"><a xlink:href="dir_000005_000028.html" target="_top" xlink:title="1">
<text text-anchor="middle" x="191.96" y="-159.78" font-family="Helvetica,sans-Serif" font-size="10.00" fill="#63b8ff">1</text>
</a>
</g>
</g>
<!-- dir_bcf70896ed3e36f2db4975414825655f -->
<g id="node10" class="node">
<title>dir_bcf70896ed3e36f2db4975414825655f</title>
<g id="a_node10"><a xlink:href="dir_bcf70896ed3e36f2db4975414825655f.html" target="_top" xlink:title="pwrctrl">
<polygon fill="#a2b4d6" stroke="#404040" points="241.25,-204 196.75,-204 196.75,-184 241.25,-184 241.25,-204"/>
<text text-anchor="middle" x="219" y="-190.5" font-family="Helvetica,sans-Serif" font-size="10.00">pwrctrl</text>
</a>
</g>
</g>
<!-- dir_f32f993f0eeec40702e09e10dd24f2c6&#45;&gt;dir_bcf70896ed3e36f2db4975414825655f -->
<g id="edge3" class="edge">
<title>dir_f32f993f0eeec40702e09e10dd24f2c6&#45;&gt;dir_bcf70896ed3e36f2db4975414825655f</title>
<g id="a_edge3"><a xlink:href="dir_000005_000035.html" target="_top">
<path fill="none" stroke="#63b8ff" d="M172.98,-297.92C190.01,-291.14 212.42,-279.08 223,-260 230.63,-246.23 228.78,-228.22 225.5,-214.64"/>
<polygon fill="#63b8ff" stroke="#63b8ff" points="228.59,-213.72 222.46,-205.08 221.86,-215.66 228.59,-213.72"/>
</a>
</g>
<g id="a_edge3&#45;headlabel"><a xlink:href="dir_000005_000035.html" target="_top" xlink:title="1">
<text text-anchor="middle" x="232.31" y="-211.89" font-family="Helvetica,sans-Serif" font-size="10.00" fill="#63b8ff">1</text>
</a>
</g>
</g>
<!-- dir_73d77e360d8a42bdd964ea14e9da6f2f -->
<g id="node5" class="node">
<title>dir_73d77e360d8a42bdd964ea14e9da6f2f</title>
<g id="a_node5"><a xlink:href="dir_73d77e360d8a42bdd964ea14e9da6f2f.html" target="_top" xlink:title="config">
<polygon fill="#a2b4d6" stroke="#404040" points="111.75,-316 70.25,-316 70.25,-296 111.75,-296 111.75,-316"/>
<text text-anchor="middle" x="91" y="-302.5" font-family="Helvetica,sans-Serif" font-size="10.00">config</text>
</a>
</g>
</g>
<!-- dir_906bcbbe38848504ae53d9f2d85d0e5c&#45;&gt;dir_c46d2619ca51eda3bcfbc029920b54e1 -->
<g id="edge6" class="edge">
<title>dir_906bcbbe38848504ae53d9f2d85d0e5c&#45;&gt;dir_c46d2619ca51eda3bcfbc029920b54e1</title>
<g id="a_edge6"><a xlink:href="dir_000023_000031.html" target="_top">
<path fill="none" stroke="#63b8ff" d="M210.12,-239.51C237.03,-224.29 286.65,-191.66 308,-148 324.44,-114.38 321.59,-100.65 314,-64 312.76,-57.99 310.48,-51.75 308.04,-46.15"/>
<polygon fill="#63b8ff" stroke="#63b8ff" points="310.83,-44.87 303.34,-37.38 304.52,-47.91 310.83,-44.87"/>
</a>
</g>
<g id="a_edge6&#45;headlabel"><a xlink:href="dir_000023_000031.html" target="_top" xlink:title="3">
<text text-anchor="middle" x="314.94" y="-42.38" font-family="Helvetica,sans-Serif" font-size="10.00" fill="#63b8ff">3</text>
</a>
</g>
</g>
<!-- dir_906bcbbe38848504ae53d9f2d85d0e5c&#45;&gt;dir_bcf70896ed3e36f2db4975414825655f -->
<g id="edge5" class="edge">
<title>dir_906bcbbe38848504ae53d9f2d85d0e5c&#45;&gt;dir_bcf70896ed3e36f2db4975414825655f</title>
<g id="a_edge5"><a xlink:href="dir_000023_000035.html" target="_top">
<path fill="none" stroke="#63b8ff" d="M191.44,-239.59C193.59,-232.39 198.28,-222.23 203.35,-213.43"/>
<polygon fill="#63b8ff" stroke="#63b8ff" points="206.73,-215.62 209.11,-205.3 200.81,-211.89 206.73,-215.62"/>
</a>
</g>
<g id="a_edge5&#45;headlabel"><a xlink:href="dir_000023_000035.html" target="_top" xlink:title="1">
<text text-anchor="middle" x="207.22" y="-215.68" font-family="Helvetica,sans-Serif" font-size="10.00" fill="#63b8ff">1</text>
</a>
</g>
</g>
<!-- dir_f05eb2cb4d2f67fc50957245660a2660 -->
<g id="node7" class="node">
<title>dir_f05eb2cb4d2f67fc50957245660a2660</title>
<g id="a_node7"><a xlink:href="dir_f05eb2cb4d2f67fc50957245660a2660.html" target="_top" xlink:title="driver">
<polygon fill="#a2b4d6" stroke="#404040" points="241.25,-92 202.75,-92 202.75,-72 241.25,-72 241.25,-92"/>
<text text-anchor="middle" x="222" y="-78.5" font-family="Helvetica,sans-Serif" font-size="10.00">driver</text>
</a>
</g>
</g>
<!-- dir_f05eb2cb4d2f67fc50957245660a2660&#45;&gt;dir_c46d2619ca51eda3bcfbc029920b54e1 -->
<g id="edge7" class="edge">
<title>dir_f05eb2cb4d2f67fc50957245660a2660&#45;&gt;dir_c46d2619ca51eda3bcfbc029920b54e1</title>
<g id="a_edge7"><a xlink:href="dir_000026_000031.html" target="_top">
<path fill="none" stroke="#63b8ff" d="M234.61,-71.59C237.97,-69.1 241.61,-66.43 245,-64 254.98,-56.83 266.12,-49.02 275.6,-42.44"/>
<polygon fill="#63b8ff" stroke="#63b8ff" points="277.19,-44.9 283.42,-36.33 273.21,-39.14 277.19,-44.9"/>
</a>
</g>
<g id="a_edge7&#45;headlabel"><a xlink:href="dir_000026_000031.html" target="_top" xlink:title="2">
<text text-anchor="middle" x="276.86" y="-45.78" font-family="Helvetica,sans-Serif" font-size="10.00" fill="#63b8ff">2</text>
</a>
</g>
</g>
<!-- dir_06cf4eb54185625c35ddef42b22844f1&#45;&gt;dir_c46d2619ca51eda3bcfbc029920b54e1 -->
<g id="edge10" class="edge">
<title>dir_06cf4eb54185625c35ddef42b22844f1&#45;&gt;dir_c46d2619ca51eda3bcfbc029920b54e1</title>
<g id="a_edge10"><a xlink:href="dir_000028_000031.html" target="_top">
<path fill="none" stroke="#63b8ff" d="M207.72,-127.53C219.59,-118.98 236.87,-105.68 250,-92 263.91,-77.5 277.29,-58.88 286.36,-45.29"/>
<polygon fill="#63b8ff" stroke="#63b8ff" points="289.63,-47.7 292.16,-37.41 283.76,-43.87 289.63,-47.7"/>
</a>
</g>
<g id="a_edge10&#45;headlabel"><a xlink:href="dir_000028_000031.html" target="_top" xlink:title="5">
<text text-anchor="middle" x="290.04" y="-47.76" font-family="Helvetica,sans-Serif" font-size="10.00" fill="#63b8ff">5</text>
</a>
</g>
</g>
<!-- dir_06cf4eb54185625c35ddef42b22844f1&#45;&gt;dir_906bcbbe38848504ae53d9f2d85d0e5c -->
<g id="edge8" class="edge">
<title>dir_06cf4eb54185625c35ddef42b22844f1&#45;&gt;dir_906bcbbe38848504ae53d9f2d85d0e5c</title>
<g id="a_edge8"><a xlink:href="dir_000028_000023.html" target="_top">
<path fill="none" stroke="#63b8ff" d="M192.4,-148.27C190.92,-157.35 188.82,-171.57 188,-184 187,-199.05 188.13,-216.06 189.44,-228.9"/>
<polygon fill="#63b8ff" stroke="#63b8ff" points="186.07,-229.21 190.69,-238.74 193.02,-228.41 186.07,-229.21"/>
</a>
</g>
<g id="a_edge8&#45;headlabel"><a xlink:href="dir_000028_000023.html" target="_top" xlink:title="1">
<text text-anchor="middle" x="182.83" y="-223.46" font-family="Helvetica,sans-Serif" font-size="10.00" fill="#63b8ff">1</text>
</a>
</g>
</g>
<!-- dir_06cf4eb54185625c35ddef42b22844f1&#45;&gt;dir_f05eb2cb4d2f67fc50957245660a2660 -->
<g id="edge11" class="edge">
<title>dir_06cf4eb54185625c35ddef42b22844f1&#45;&gt;dir_f05eb2cb4d2f67fc50957245660a2660</title>
<g id="a_edge11"><a xlink:href="dir_000028_000026.html" target="_top">
<path fill="none" stroke="#63b8ff" d="M198.88,-127.59C202.53,-120.55 207.65,-110.67 212.15,-102"/>
<polygon fill="#63b8ff" stroke="#63b8ff" points="215.68,-103.79 217.18,-93.3 209.47,-100.56 215.68,-103.79"/>
</a>
</g>
<g id="a_edge11&#45;headlabel"><a xlink:href="dir_000028_000026.html" target="_top" xlink:title="1">
<text text-anchor="middle" x="216.55" y="-103.79" font-family="Helvetica,sans-Serif" font-size="10.00" fill="#63b8ff">1</text>
</a>
</g>
</g>
<!-- dir_06cf4eb54185625c35ddef42b22844f1&#45;&gt;dir_bcf70896ed3e36f2db4975414825655f -->
<g id="edge9" class="edge">
<title>dir_06cf4eb54185625c35ddef42b22844f1&#45;&gt;dir_bcf70896ed3e36f2db4975414825655f</title>
<g id="a_edge9"><a xlink:href="dir_000028_000035.html" target="_top">
<path fill="none" stroke="#63b8ff" d="M203.55,-148.3C208.12,-155.16 212.98,-164.75 216.4,-173.29"/>
<polygon fill="#63b8ff" stroke="#63b8ff" points="213.37,-174.26 219.91,-182.59 220,-172 213.37,-174.26"/>
</a>
</g>
<g id="a_edge9&#45;headlabel"><a xlink:href="dir_000028_000035.html" target="_top" xlink:title="2">
<text text-anchor="middle" x="209.53" y="-169.27" font-family="Helvetica,sans-Serif" font-size="10.00" fill="#63b8ff">2</text>
</a>
</g>
</g>
<!-- dir_6b912e9cb7e796f7b771bafbeee1680d -->
<g id="node9" class="node">
<title>dir_6b912e9cb7e796f7b771bafbeee1680d</title>
<g id="a_node9"><a xlink:href="dir_6b912e9cb7e796f7b771bafbeee1680d.html" target="_top" xlink:title="os">
<polygon fill="#a2b4d6" stroke="#404040" points="52.4,-316 23.6,-316 23.6,-296 52.4,-296 52.4,-316"/>
<text text-anchor="middle" x="38" y="-302.5" font-family="Helvetica,sans-Serif" font-size="10.00">os</text>
</a>
</g>
</g>
<!-- dir_bcf70896ed3e36f2db4975414825655f&#45;&gt;dir_1a88c24452b650a0a27632dbf7692fad -->
<g id="edge13" class="edge">
<title>dir_bcf70896ed3e36f2db4975414825655f&#45;&gt;dir_1a88c24452b650a0a27632dbf7692fad</title>
<g id="a_edge13"><a xlink:href="dir_000035_000015.html" target="_top">
<path fill="none" stroke="#63b8ff" d="M228.58,-183.59C236.39,-175.93 247.61,-164.91 256.94,-155.75"/>
<polygon fill="#63b8ff" stroke="#63b8ff" points="258.85,-158.8 263.53,-149.3 253.94,-153.81 258.85,-158.8"/>
</a>
</g>
<g id="a_edge13&#45;headlabel"><a xlink:href="dir_000035_000015.html" target="_top" xlink:title="3">
<text text-anchor="middle" x="259.27" y="-158.85" font-family="Helvetica,sans-Serif" font-size="10.00" fill="#63b8ff">3</text>
</a>
</g>
</g>
<!-- dir_bcf70896ed3e36f2db4975414825655f&#45;&gt;dir_c46d2619ca51eda3bcfbc029920b54e1 -->
<g id="edge15" class="edge">
<title>dir_bcf70896ed3e36f2db4975414825655f&#45;&gt;dir_c46d2619ca51eda3bcfbc029920b54e1</title>
<g id="a_edge15"><a xlink:href="dir_000035_000031.html" target="_top">
<path fill="none" stroke="#63b8ff" d="M241.47,-183.62C263.09,-174.08 293.43,-159.16 300,-148 318.49,-116.58 310.99,-72.16 304.25,-46.8"/>
<polygon fill="#63b8ff" stroke="#63b8ff" points="307.35,-45.94 301.2,-37.32 300.63,-47.89 307.35,-45.94"/>
</a>
</g>
<g id="a_edge15&#45;headlabel"><a xlink:href="dir_000035_000031.html" target="_top" xlink:title="8">
<text text-anchor="middle" x="311.08" y="-44.1" font-family="Helvetica,sans-Serif" font-size="10.00" fill="#63b8ff">8</text>
</a>
</g>
</g>
<!-- dir_bcf70896ed3e36f2db4975414825655f&#45;&gt;dir_906bcbbe38848504ae53d9f2d85d0e5c -->
<g id="edge14" class="edge">
<title>dir_bcf70896ed3e36f2db4975414825655f&#45;&gt;dir_906bcbbe38848504ae53d9f2d85d0e5c</title>
<g id="a_edge14"><a xlink:href="dir_000035_000023.html" target="_top">
<path fill="none" stroke="#63b8ff" d="M219.6,-204.3C217.46,-211.47 212.79,-221.62 207.73,-230.44"/>
<polygon fill="#63b8ff" stroke="#63b8ff" points="204.33,-228.27 201.97,-238.59 210.26,-231.99 204.33,-228.27"/>
</a>
</g>
<g id="a_edge14&#45;headlabel"><a xlink:href="dir_000035_000023.html" target="_top" xlink:title="1">
<text text-anchor="middle" x="203.84" y="-221.21" font-family="Helvetica,sans-Serif" font-size="10.00" fill="#63b8ff">1</text>
</a>
</g>
</g>
<!-- dir_bcf70896ed3e36f2db4975414825655f&#45;&gt;dir_f05eb2cb4d2f67fc50957245660a2660 -->
<g id="edge16" class="edge">
<title>dir_bcf70896ed3e36f2db4975414825655f&#45;&gt;dir_f05eb2cb4d2f67fc50957245660a2660</title>
<g id="a_edge16"><a xlink:href="dir_000035_000026.html" target="_top">
<path fill="none" stroke="#63b8ff" d="M219.26,-183.62C219.74,-165.92 220.79,-127.24 221.45,-103.32"/>
<polygon fill="#63b8ff" stroke="#63b8ff" points="224.97,-103.45 221.74,-93.35 217.97,-103.26 224.97,-103.45"/>
</a>
</g>
<g id="a_edge16&#45;headlabel"><a xlink:href="dir_000035_000026.html" target="_top" xlink:title="1">
<text text-anchor="middle" x="227.71" y="-102.62" font-family="Helvetica,sans-Serif" font-size="10.00" fill="#63b8ff">1</text>
</a>
</g>
</g>
<!-- dir_bcf70896ed3e36f2db4975414825655f&#45;&gt;dir_06cf4eb54185625c35ddef42b22844f1 -->
<g id="edge12" class="edge">
<title>dir_bcf70896ed3e36f2db4975414825655f&#45;&gt;dir_06cf4eb54185625c35ddef42b22844f1</title>
<g id="a_edge12"><a xlink:href="dir_000035_000028.html" target="_top">
<path fill="none" stroke="#63b8ff" d="M209.38,-183.59C204.81,-176.7 199.95,-167.1 196.54,-158.57"/>
<polygon fill="#63b8ff" stroke="#63b8ff" points="199.59,-157.64 193.06,-149.3 192.96,-159.89 199.59,-157.64"/>
</a>
</g>
<g id="a_edge12&#45;headlabel"><a xlink:href="dir_000035_000028.html" target="_top" xlink:title="5">
<text text-anchor="middle" x="203.43" y="-155.64" font-family="Helvetica,sans-Serif" font-size="10.00" fill="#63b8ff">5</text>
</a>
</g>
</g>
</g>
</svg>
</svg>

<style type='text/css'>
<![CDATA[
[data-mouse-over-selected='false'] { opacity: 0.7; }
[data-mouse-over-selected='true']  { opacity: 1.0; }
]]>
</style>
<script type="application/ecmascript"><![CDATA[
document.addEventListener('DOMContentLoaded', (event) => {
  highlightEdges();
  highlightAdjacentNodes();
});
]]></script>
</svg>
