<?xml version="1.0" encoding="UTF-8" standalone="no"?>
<!DOCTYPE svg PUBLIC "-//W3C//DTD SVG 1.1//EN"
 "http://www.w3.org/Graphics/SVG/1.1/DTD/svg11.dtd">
<!-- Generated by graphviz version 8.1.0 (20230707.0739)
 -->
<!-- Title: dab&#45;pwm&#45;configuration.X/mcc_generated_files/system Pages: 1 -->
<svg width="498pt" height="144pt"
 viewBox="0.00 0.00 498.00 144.00" xmlns="http://www.w3.org/2000/svg" xmlns:xlink="http://www.w3.org/1999/xlink">
<g id="graph0" class="graph" transform="scale(1 1) rotate(0) translate(4 140)">
<title>dab&#45;pwm&#45;configuration.X/mcc_generated_files/system</title>
<g id="clust1" class="cluster">
<title>clusterdir_f28365b143566f99bb5bb020caed50c6</title>
<g id="a_clust1"><a xlink:href="dir_f28365b143566f99bb5bb020caed50c6.html" target="_top" xlink:title="mcc_generated_files">
<polygon fill="#edf0f7" stroke="#7f7f7f" stroke-dasharray="5,2" points="8,-8 8,-128 482,-128 482,-8 8,-8"/>
<text text-anchor="middle" x="245" y="-114.5" font-family="Helvetica,sans-Serif" font-size="10.00">mcc_generated_files</text>
</a>
</g>
</g>
<g id="clust2" class="cluster">
<title>clusterdir_099b2ec23cd3c9c691d6919bf295e8f8</title>
<g id="a_clust2"><a xlink:href="dir_099b2ec23cd3c9c691d6919bf295e8f8.html" target="_top">
<polygon fill="#edf0f7" stroke="#404040" stroke-width="2" points="232,-64 232,-100 344,-100 344,-64 232,-64"/>
</a>
</g>
</g>
<!-- dir_02e755565b11eea6321da4e3d47ab3d6 -->
<g id="node1" class="node">
<title>dir_02e755565b11eea6321da4e3d47ab3d6</title>
<g id="a_node1"><a xlink:href="dir_02e755565b11eea6321da4e3d47ab3d6.html" target="_top" xlink:title="cmp">
<polygon fill="#a2b4d6" stroke="red" points="50.38,-36 15.62,-36 15.62,-16 50.38,-16 50.38,-36"/>
<text text-anchor="middle" x="33" y="-22.5" font-family="Helvetica,sans-Serif" font-size="10.00">cmp</text>
</a>
</g>
</g>
<!-- dir_f84683fdb381acfe24681f78d570a8ec -->
<g id="node2" class="node">
<title>dir_f84683fdb381acfe24681f78d570a8ec</title>
<g id="a_node2"><a xlink:href="dir_f84683fdb381acfe24681f78d570a8ec.html" target="_top" xlink:title="pwm_hs">
<polygon fill="#a2b4d6" stroke="red" points="120,-36 68,-36 68,-16 120,-16 120,-36"/>
<text text-anchor="middle" x="94" y="-22.5" font-family="Helvetica,sans-Serif" font-size="10.00">pwm_hs</text>
</a>
</g>
</g>
<!-- dir_1aecfa62d2ae3671c3fc1d68a128b25b -->
<g id="node3" class="node">
<title>dir_1aecfa62d2ae3671c3fc1d68a128b25b</title>
<g id="a_node3"><a xlink:href="dir_1aecfa62d2ae3671c3fc1d68a128b25b.html" target="_top" xlink:title="adc">
<polygon fill="#a2b4d6" stroke="red" points="169.88,-36 138.12,-36 138.12,-16 169.88,-16 169.88,-36"/>
<text text-anchor="middle" x="154" y="-22.5" font-family="Helvetica,sans-Serif" font-size="10.00">adc</text>
</a>
</g>
</g>
<!-- dir_301b91c62122e717d32c661ed344663f -->
<g id="node4" class="node">
<title>dir_301b91c62122e717d32c661ed344663f</title>
<g id="a_node4"><a xlink:href="dir_301b91c62122e717d32c661ed344663f.html" target="_top" xlink:title="crc">
<polygon fill="#a2b4d6" stroke="red" points="217.75,-36 188.25,-36 188.25,-16 217.75,-16 217.75,-36"/>
<text text-anchor="middle" x="203" y="-22.5" font-family="Helvetica,sans-Serif" font-size="10.00">crc</text>
</a>
</g>
</g>
<!-- dir_3f182ecf0352bf0ac55e2b0d317efb21 -->
<g id="node5" class="node">
<title>dir_3f182ecf0352bf0ac55e2b0d317efb21</title>
<g id="a_node5"><a xlink:href="dir_3f182ecf0352bf0ac55e2b0d317efb21.html" target="_top" xlink:title="timer">
<polygon fill="#a2b4d6" stroke="red" points="273.88,-36 236.12,-36 236.12,-16 273.88,-16 273.88,-36"/>
<text text-anchor="middle" x="255" y="-22.5" font-family="Helvetica,sans-Serif" font-size="10.00">timer</text>
</a>
</g>
</g>
<!-- dir_67b66e6a9ffe6255f1477248ef3f6ff9 -->
<g id="node6" class="node">
<title>dir_67b66e6a9ffe6255f1477248ef3f6ff9</title>
<g id="a_node6"><a xlink:href="dir_67b66e6a9ffe6255f1477248ef3f6ff9.html" target="_top" xlink:title="pwm">
<polygon fill="#a2b4d6" stroke="red" points="328.12,-36 291.88,-36 291.88,-16 328.12,-16 328.12,-36"/>
<text text-anchor="middle" x="310" y="-22.5" font-family="Helvetica,sans-Serif" font-size="10.00">pwm</text>
</a>
</g>
</g>
<!-- dir_a06c7dc54d2bc42bb4523010b1cc07b6 -->
<g id="node7" class="node">
<title>dir_a06c7dc54d2bc42bb4523010b1cc07b6</title>
<g id="a_node7"><a xlink:href="dir_a06c7dc54d2bc42bb4523010b1cc07b6.html" target="_top" xlink:title="uart">
<polygon fill="#a2b4d6" stroke="red" points="378.25,-36 345.75,-36 345.75,-16 378.25,-16 378.25,-36"/>
<text text-anchor="middle" x="362" y="-22.5" font-family="Helvetica,sans-Serif" font-size="10.00">uart</text>
</a>
</g>
</g>
<!-- dir_adc6e28d7131635cc5bbcff911172ba9 -->
<g id="node8" class="node">
<title>dir_adc6e28d7131635cc5bbcff911172ba9</title>
<g id="a_node8"><a xlink:href="dir_adc6e28d7131635cc5bbcff911172ba9.html" target="_top" xlink:title="can">
<polygon fill="#a2b4d6" stroke="red" points="427.88,-36 396.12,-36 396.12,-16 427.88,-16 427.88,-36"/>
<text text-anchor="middle" x="412" y="-22.5" font-family="Helvetica,sans-Serif" font-size="10.00">can</text>
</a>
</g>
</g>
<!-- dir_f067220b63bbc6a5a42724f64ceccd11 -->
<g id="node9" class="node">
<title>dir_f067220b63bbc6a5a42724f64ceccd11</title>
<g id="a_node9"><a xlink:href="dir_f067220b63bbc6a5a42724f64ceccd11.html" target="_top" xlink:title="clc">
<polygon fill="#a2b4d6" stroke="red" points="474.4,-36 445.6,-36 445.6,-16 474.4,-16 474.4,-36"/>
<text text-anchor="middle" x="460" y="-22.5" font-family="Helvetica,sans-Serif" font-size="10.00">clc</text>
</a>
</g>
</g>
<!-- dir_099b2ec23cd3c9c691d6919bf295e8f8 -->
<g id="node10" class="node">
<title>dir_099b2ec23cd3c9c691d6919bf295e8f8</title>
<text text-anchor="middle" x="312" y="-78.5" font-family="Helvetica,sans-Serif" font-size="10.00">system</text>
</g>
<!-- dir_0aa754a8b86401b0f95d1a899e04150d -->
<g id="node11" class="node">
<title>dir_0aa754a8b86401b0f95d1a899e04150d</title>
<g id="a_node11"><a xlink:href="dir_0aa754a8b86401b0f95d1a899e04150d.html" target="_top" xlink:title="src">
<polygon fill="#a2b4d6" stroke="#404040" points="269.75,-92 240.25,-92 240.25,-72 269.75,-72 269.75,-92"/>
<text text-anchor="middle" x="255" y="-78.5" font-family="Helvetica,sans-Serif" font-size="10.00">src</text>
</a>
</g>
</g>
<!-- dir_0aa754a8b86401b0f95d1a899e04150d&#45;&gt;dir_02e755565b11eea6321da4e3d47ab3d6 -->
<g id="edge1" class="edge">
<title>dir_0aa754a8b86401b0f95d1a899e04150d&#45;&gt;dir_02e755565b11eea6321da4e3d47ab3d6</title>
<g id="a_edge1"><a xlink:href="dir_000038_000005.html" target="_top">
<path fill="none" stroke="#63b8ff" d="M239.86,-78.1C208.32,-71.95 133.12,-56.64 61.38,-36.46"/>
<polygon fill="#63b8ff" stroke="#63b8ff" points="62.4,-32.83 51.82,-33.45 60.48,-39.56 62.4,-32.83"/>
</a>
</g>
<g id="a_edge1&#45;headlabel"><a xlink:href="dir_000038_000005.html" target="_top" xlink:title="3">
<text text-anchor="middle" x="65.63" y="-27.59" font-family="Helvetica,sans-Serif" font-size="10.00" fill="#63b8ff">3</text>
</a>
</g>
</g>
<!-- dir_0aa754a8b86401b0f95d1a899e04150d&#45;&gt;dir_f84683fdb381acfe24681f78d570a8ec -->
<g id="edge9" class="edge">
<title>dir_0aa754a8b86401b0f95d1a899e04150d&#45;&gt;dir_f84683fdb381acfe24681f78d570a8ec</title>
<g id="a_edge9"><a xlink:href="dir_000038_000028.html" target="_top">
<path fill="none" stroke="#63b8ff" d="M239.85,-75.92C215.02,-67.59 164.98,-50.81 130.5,-39.24"/>
<polygon fill="#63b8ff" stroke="#63b8ff" points="131.93,-35.7 121.34,-35.83 129.7,-42.33 131.93,-35.7"/>
</a>
</g>
<g id="a_edge9&#45;headlabel"><a xlink:href="dir_000038_000028.html" target="_top" xlink:title="1">
<text text-anchor="middle" x="135.24" y="-30.65" font-family="Helvetica,sans-Serif" font-size="10.00" fill="#63b8ff">1</text>
</a>
</g>
</g>
<!-- dir_0aa754a8b86401b0f95d1a899e04150d&#45;&gt;dir_1aecfa62d2ae3671c3fc1d68a128b25b -->
<g id="edge2" class="edge">
<title>dir_0aa754a8b86401b0f95d1a899e04150d&#45;&gt;dir_1aecfa62d2ae3671c3fc1d68a128b25b</title>
<g id="a_edge2"><a xlink:href="dir_000038_000001.html" target="_top">
<path fill="none" stroke="#63b8ff" d="M240.1,-73.03C224.28,-64.58 198.99,-51.06 179.9,-40.85"/>
<polygon fill="#63b8ff" stroke="#63b8ff" points="181.77,-37.35 171.3,-35.72 178.47,-43.52 181.77,-37.35"/>
</a>
</g>
<g id="a_edge2&#45;headlabel"><a xlink:href="dir_000038_000001.html" target="_top" xlink:title="1">
<text text-anchor="middle" x="185.28" y="-33.04" font-family="Helvetica,sans-Serif" font-size="10.00" fill="#63b8ff">1</text>
</a>
</g>
</g>
<!-- dir_0aa754a8b86401b0f95d1a899e04150d&#45;&gt;dir_301b91c62122e717d32c661ed344663f -->
<g id="edge3" class="edge">
<title>dir_0aa754a8b86401b0f95d1a899e04150d&#45;&gt;dir_301b91c62122e717d32c661ed344663f</title>
<g id="a_edge3"><a xlink:href="dir_000038_000008.html" target="_top">
<path fill="none" stroke="#63b8ff" d="M245.94,-71.59C238.63,-64.01 228.17,-53.13 219.39,-44.02"/>
<polygon fill="#63b8ff" stroke="#63b8ff" points="222.41,-42.07 212.95,-37.3 217.37,-46.93 222.41,-42.07"/>
</a>
</g>
<g id="a_edge3&#45;headlabel"><a xlink:href="dir_000038_000008.html" target="_top" xlink:title="1">
<text text-anchor="middle" x="225.95" y="-38.19" font-family="Helvetica,sans-Serif" font-size="10.00" fill="#63b8ff">1</text>
</a>
</g>
</g>
<!-- dir_0aa754a8b86401b0f95d1a899e04150d&#45;&gt;dir_3f182ecf0352bf0ac55e2b0d317efb21 -->
<g id="edge4" class="edge">
<title>dir_0aa754a8b86401b0f95d1a899e04150d&#45;&gt;dir_3f182ecf0352bf0ac55e2b0d317efb21</title>
<g id="a_edge4"><a xlink:href="dir_000038_000042.html" target="_top">
<path fill="none" stroke="#63b8ff" d="M255,-71.59C255,-64.86 255,-55.53 255,-47.15"/>
<polygon fill="#63b8ff" stroke="#63b8ff" points="258.5,-47.3 255,-37.3 251.5,-47.3 258.5,-47.3"/>
</a>
</g>
<g id="a_edge4&#45;headlabel"><a xlink:href="dir_000038_000042.html" target="_top" xlink:title="2">
<text text-anchor="middle" x="261.34" y="-46.39" font-family="Helvetica,sans-Serif" font-size="10.00" fill="#63b8ff">2</text>
</a>
</g>
</g>
<!-- dir_0aa754a8b86401b0f95d1a899e04150d&#45;&gt;dir_67b66e6a9ffe6255f1477248ef3f6ff9 -->
<g id="edge5" class="edge">
<title>dir_0aa754a8b86401b0f95d1a899e04150d&#45;&gt;dir_67b66e6a9ffe6255f1477248ef3f6ff9</title>
<g id="a_edge5"><a xlink:href="dir_000038_000027.html" target="_top">
<path fill="none" stroke="#63b8ff" d="M264.58,-71.59C272.39,-63.93 283.61,-52.91 292.94,-43.75"/>
<polygon fill="#63b8ff" stroke="#63b8ff" points="294.85,-46.8 299.53,-37.3 289.94,-41.81 294.85,-46.8"/>
</a>
</g>
<g id="a_edge5&#45;headlabel"><a xlink:href="dir_000038_000027.html" target="_top" xlink:title="1">
<text text-anchor="middle" x="295.27" y="-46.85" font-family="Helvetica,sans-Serif" font-size="10.00" fill="#63b8ff">1</text>
</a>
</g>
</g>
<!-- dir_0aa754a8b86401b0f95d1a899e04150d&#45;&gt;dir_a06c7dc54d2bc42bb4523010b1cc07b6 -->
<g id="edge6" class="edge">
<title>dir_0aa754a8b86401b0f95d1a899e04150d&#45;&gt;dir_a06c7dc54d2bc42bb4523010b1cc07b6</title>
<g id="a_edge6"><a xlink:href="dir_000038_000043.html" target="_top">
<path fill="none" stroke="#63b8ff" d="M267.4,-71.52C271.04,-68.93 275.1,-66.22 279,-64 297.1,-53.69 318.62,-44.17 335.21,-37.37"/>
<polygon fill="#63b8ff" stroke="#63b8ff" points="336.34,-40.28 344.31,-33.31 333.73,-33.79 336.34,-40.28"/>
</a>
</g>
<g id="a_edge6&#45;headlabel"><a xlink:href="dir_000038_000043.html" target="_top" xlink:title="1">
<text text-anchor="middle" x="335.06" y="-40.76" font-family="Helvetica,sans-Serif" font-size="10.00" fill="#63b8ff">1</text>
</a>
</g>
</g>
<!-- dir_0aa754a8b86401b0f95d1a899e04150d&#45;&gt;dir_adc6e28d7131635cc5bbcff911172ba9 -->
<g id="edge7" class="edge">
<title>dir_0aa754a8b86401b0f95d1a899e04150d&#45;&gt;dir_adc6e28d7131635cc5bbcff911172ba9</title>
<g id="a_edge7"><a xlink:href="dir_000038_000003.html" target="_top">
<path fill="none" stroke="#63b8ff" d="M266.2,-71.8C270.07,-68.97 274.55,-66.07 279,-64 321.07,-44.45 337.48,-49.78 385.31,-36.21"/>
<polygon fill="#63b8ff" stroke="#63b8ff" points="386.08,-39.34 394.67,-33.12 384.08,-32.63 386.08,-39.34"/>
</a>
</g>
<g id="a_edge7&#45;headlabel"><a xlink:href="dir_000038_000003.html" target="_top" xlink:title="1">
<text text-anchor="middle" x="384.45" y="-39.58" font-family="Helvetica,sans-Serif" font-size="10.00" fill="#63b8ff">1</text>
</a>
</g>
</g>
<!-- dir_0aa754a8b86401b0f95d1a899e04150d&#45;&gt;dir_f067220b63bbc6a5a42724f64ceccd11 -->
<g id="edge8" class="edge">
<title>dir_0aa754a8b86401b0f95d1a899e04150d&#45;&gt;dir_f067220b63bbc6a5a42724f64ceccd11</title>
<g id="a_edge8"><a xlink:href="dir_000038_000004.html" target="_top">
<path fill="none" stroke="#63b8ff" d="M266.11,-71.59C269.97,-68.75 274.48,-65.89 279,-64 341.72,-37.79 366.05,-53.65 435.04,-36.01"/>
<polygon fill="#63b8ff" stroke="#63b8ff" points="435.81,-39.15 444.55,-33.15 433.98,-32.4 435.81,-39.15"/>
</a>
</g>
<g id="a_edge8&#45;headlabel"><a xlink:href="dir_000038_000004.html" target="_top" xlink:title="1">
<text text-anchor="middle" x="434.09" y="-39.34" font-family="Helvetica,sans-Serif" font-size="10.00" fill="#63b8ff">1</text>
</a>
</g>
</g>
</g>
</svg>
