<?xml version="1.0" encoding="UTF-8" standalone="no"?>
<!DOCTYPE svg PUBLIC "-//W3C//DTD SVG 1.1//EN"
 "http://www.w3.org/Graphics/SVG/1.1/DTD/svg11.dtd">
<!-- Generated by graphviz version 8.1.0 (20230707.0739)
 -->
<!-- Title: dspic33ck&#45;dab.X/sources Pages: 1 -->
<svg width="452pt" height="312pt"
 viewBox="0.00 0.00 452.00 312.00" xmlns="http://www.w3.org/2000/svg" xmlns:xlink="http://www.w3.org/1999/xlink">
<g id="graph0" class="graph" transform="scale(1 1) rotate(0) translate(4 308)">
<title>dspic33ck&#45;dab.X/sources</title>
<g id="clust1" class="cluster">
<title>clusterdir_2a88d4bf3010a9a317e26b5e05d2cacc</title>
<g id="a_clust1"><a xlink:href="dir_2a88d4bf3010a9a317e26b5e05d2cacc.html" target="_top" xlink:title="dspic33ck&#45;dab.X">
<polygon fill="#edf0f7" stroke="#404040" stroke-dasharray="5,2" points="8,-8 8,-296 436,-296 436,-8 8,-8"/>
<text text-anchor="middle" x="222" y="-282.5" font-family="Helvetica,sans-Serif" font-size="10.00">dspic33ck&#45;dab.X</text>
</a>
</g>
</g>
<g id="clust2" class="cluster">
<title>clusterdir_0c85c1034e829fcd1461f64b5ba79455</title>
<g id="a_clust2"><a xlink:href="dir_0c85c1034e829fcd1461f64b5ba79455.html" target="_top">
<polygon fill="#edf0f7" stroke="#404040" stroke-width="2" points="16,-64 16,-268 306,-268 306,-64 16,-64"/>
</a>
</g>
</g>
<!-- dir_1a88c24452b650a0a27632dbf7692fad -->
<g id="node1" class="node">
<title>dir_1a88c24452b650a0a27632dbf7692fad</title>
<g id="a_node1"><a xlink:href="dir_1a88c24452b650a0a27632dbf7692fad.html" target="_top" xlink:title="dcdt">
<polygon fill="#a2b4d6" stroke="red" points="348.38,-92 313.62,-92 313.62,-72 348.38,-72 348.38,-92"/>
<text text-anchor="middle" x="331" y="-78.5" font-family="Helvetica,sans-Serif" font-size="10.00">dcdt</text>
</a>
</g>
</g>
<!-- dir_c46d2619ca51eda3bcfbc029920b54e1 -->
<g id="node2" class="node">
<title>dir_c46d2619ca51eda3bcfbc029920b54e1</title>
<g id="a_node2"><a xlink:href="dir_c46d2619ca51eda3bcfbc029920b54e1.html" target="_top" xlink:title="mcc_generated_files">
<polygon fill="#a2b4d6" stroke="red" points="427.62,-36 322.38,-36 322.38,-16 427.62,-16 427.62,-36"/>
<text text-anchor="middle" x="375" y="-22.5" font-family="Helvetica,sans-Serif" font-size="10.00">mcc_generated_files</text>
</a>
</g>
</g>
<!-- dir_0c85c1034e829fcd1461f64b5ba79455 -->
<g id="node3" class="node">
<title>dir_0c85c1034e829fcd1461f64b5ba79455</title>
<text text-anchor="middle" x="273" y="-246.5" font-family="Helvetica,sans-Serif" font-size="10.00">sources</text>
</g>
<!-- dir_f32f993f0eeec40702e09e10dd24f2c6 -->
<g id="node4" class="node">
<title>dir_f32f993f0eeec40702e09e10dd24f2c6</title>
<g id="a_node4"><a xlink:href="dir_f32f993f0eeec40702e09e10dd24f2c6.html" target="_top" xlink:title="comm">
<polygon fill="#a2b4d6" stroke="#404040" points="113.5,-260 70.5,-260 70.5,-240 113.5,-240 113.5,-260"/>
<text text-anchor="middle" x="92" y="-246.5" font-family="Helvetica,sans-Serif" font-size="10.00">comm</text>
</a>
</g>
</g>
<!-- dir_f32f993f0eeec40702e09e10dd24f2c6&#45;&gt;dir_c46d2619ca51eda3bcfbc029920b54e1 -->
<g id="edge4" class="edge">
<title>dir_f32f993f0eeec40702e09e10dd24f2c6&#45;&gt;dir_c46d2619ca51eda3bcfbc029920b54e1</title>
<g id="a_edge4"><a xlink:href="dir_000005_000025.html" target="_top">
<path fill="none" stroke="#63b8ff" d="M113.89,-242.16C116.61,-241.39 119.36,-240.65 122,-240 203.33,-219.94 238.12,-251.67 307,-204 355.07,-170.73 360.06,-148.25 376,-92 380.15,-77.37 379.65,-60.13 378.25,-47.08"/>
<polygon fill="#63b8ff" stroke="#63b8ff" points="381.62,-46.92 376.82,-37.48 374.69,-47.86 381.62,-46.92"/>
</a>
</g>
<g id="a_edge4&#45;headlabel"><a xlink:href="dir_000005_000025.html" target="_top" xlink:title="3">
<text text-anchor="middle" x="384.92" y="-45.6" font-family="Helvetica,sans-Serif" font-size="10.00" fill="#63b8ff">3</text>
</a>
</g>
</g>
<!-- dir_906bcbbe38848504ae53d9f2d85d0e5c -->
<g id="node6" class="node">
<title>dir_906bcbbe38848504ae53d9f2d85d0e5c</title>
<g id="a_node6"><a xlink:href="dir_906bcbbe38848504ae53d9f2d85d0e5c.html" target="_top" xlink:title="device">
<polygon fill="#a2b4d6" stroke="#404040" points="297.5,-204 254.5,-204 254.5,-184 297.5,-184 297.5,-204"/>
<text text-anchor="middle" x="276" y="-190.5" font-family="Helvetica,sans-Serif" font-size="10.00">device</text>
</a>
</g>
</g>
<!-- dir_f32f993f0eeec40702e09e10dd24f2c6&#45;&gt;dir_906bcbbe38848504ae53d9f2d85d0e5c -->
<g id="edge2" class="edge">
<title>dir_f32f993f0eeec40702e09e10dd24f2c6&#45;&gt;dir_906bcbbe38848504ae53d9f2d85d0e5c</title>
<g id="a_edge2"><a xlink:href="dir_000005_000017.html" target="_top">
<path fill="none" stroke="#63b8ff" d="M113.95,-242.4C116.66,-241.59 119.39,-240.77 122,-240 164.05,-227.55 212.62,-213.39 243.79,-204.34"/>
<polygon fill="#63b8ff" stroke="#63b8ff" points="244.43,-207.51 253.05,-201.36 242.47,-200.79 244.43,-207.51"/>
</a>
</g>
<g id="a_edge2&#45;headlabel"><a xlink:href="dir_000005_000017.html" target="_top" xlink:title="1">
<text text-anchor="middle" x="242.77" y="-207.74" font-family="Helvetica,sans-Serif" font-size="10.00" fill="#63b8ff">1</text>
</a>
</g>
</g>
<!-- dir_06cf4eb54185625c35ddef42b22844f1 -->
<g id="node8" class="node">
<title>dir_06cf4eb54185625c35ddef42b22844f1</title>
<g id="a_node8"><a xlink:href="dir_06cf4eb54185625c35ddef42b22844f1.html" target="_top" xlink:title="fault">
<polygon fill="#a2b4d6" stroke="#404040" points="293,-92 259,-92 259,-72 293,-72 293,-92"/>
<text text-anchor="middle" x="276" y="-78.5" font-family="Helvetica,sans-Serif" font-size="10.00">fault</text>
</a>
</g>
</g>
<!-- dir_f32f993f0eeec40702e09e10dd24f2c6&#45;&gt;dir_06cf4eb54185625c35ddef42b22844f1 -->
<g id="edge1" class="edge">
<title>dir_f32f993f0eeec40702e09e10dd24f2c6&#45;&gt;dir_06cf4eb54185625c35ddef42b22844f1</title>
<g id="a_edge1"><a xlink:href="dir_000005_000022.html" target="_top">
<path fill="none" stroke="#63b8ff" d="M102.08,-239.7C115.81,-227.05 141.19,-203.73 163,-184 196.07,-154.08 234.89,-119.5 257.34,-99.55"/>
<polygon fill="#63b8ff" stroke="#63b8ff" points="259.22,-102.68 264.37,-93.43 254.57,-97.45 259.22,-102.68"/>
</a>
</g>
<g id="a_edge1&#45;headlabel"><a xlink:href="dir_000005_000022.html" target="_top" xlink:title="1">
<text text-anchor="middle" x="259.41" y="-102.69" font-family="Helvetica,sans-Serif" font-size="10.00" fill="#63b8ff">1</text>
</a>
</g>
</g>
<!-- dir_bcf70896ed3e36f2db4975414825655f -->
<g id="node10" class="node">
<title>dir_bcf70896ed3e36f2db4975414825655f</title>
<g id="a_node10"><a xlink:href="dir_bcf70896ed3e36f2db4975414825655f.html" target="_top" xlink:title="pwrctrl">
<polygon fill="#a2b4d6" stroke="#404040" points="298.25,-148 253.75,-148 253.75,-128 298.25,-128 298.25,-148"/>
<text text-anchor="middle" x="276" y="-134.5" font-family="Helvetica,sans-Serif" font-size="10.00">pwrctrl</text>
</a>
</g>
</g>
<!-- dir_f32f993f0eeec40702e09e10dd24f2c6&#45;&gt;dir_bcf70896ed3e36f2db4975414825655f -->
<g id="edge3" class="edge">
<title>dir_f32f993f0eeec40702e09e10dd24f2c6&#45;&gt;dir_bcf70896ed3e36f2db4975414825655f</title>
<g id="a_edge3"><a xlink:href="dir_000005_000029.html" target="_top">
<path fill="none" stroke="#63b8ff" d="M107.69,-239.62C139.73,-220.46 212.93,-176.71 251.37,-153.72"/>
<polygon fill="#63b8ff" stroke="#63b8ff" points="252.56,-156.49 259.35,-148.35 248.97,-150.48 252.56,-156.49"/>
</a>
</g>
<g id="a_edge3&#45;headlabel"><a xlink:href="dir_000005_000029.html" target="_top" xlink:title="1">
<text text-anchor="middle" x="251.94" y="-157.27" font-family="Helvetica,sans-Serif" font-size="10.00" fill="#63b8ff">1</text>
</a>
</g>
</g>
<!-- dir_73d77e360d8a42bdd964ea14e9da6f2f -->
<g id="node5" class="node">
<title>dir_73d77e360d8a42bdd964ea14e9da6f2f</title>
<g id="a_node5"><a xlink:href="dir_73d77e360d8a42bdd964ea14e9da6f2f.html" target="_top" xlink:title="config">
<polygon fill="#a2b4d6" stroke="#404040" points="172.75,-260 131.25,-260 131.25,-240 172.75,-240 172.75,-260"/>
<text text-anchor="middle" x="152" y="-246.5" font-family="Helvetica,sans-Serif" font-size="10.00">config</text>
</a>
</g>
</g>
<!-- dir_906bcbbe38848504ae53d9f2d85d0e5c&#45;&gt;dir_c46d2619ca51eda3bcfbc029920b54e1 -->
<g id="edge6" class="edge">
<title>dir_906bcbbe38848504ae53d9f2d85d0e5c&#45;&gt;dir_c46d2619ca51eda3bcfbc029920b54e1</title>
<g id="a_edge6"><a xlink:href="dir_000017_000025.html" target="_top">
<path fill="none" stroke="#63b8ff" d="M288.48,-183.76C309.09,-167.69 349.79,-132.44 368,-92 374.35,-77.9 375.92,-60.39 376.01,-47.1"/>
<polygon fill="#63b8ff" stroke="#63b8ff" points="379.49,-47.21 375.76,-37.3 372.49,-47.37 379.49,-47.21"/>
</a>
</g>
<g id="a_edge6&#45;headlabel"><a xlink:href="dir_000017_000025.html" target="_top" xlink:title="3">
<text text-anchor="middle" x="382.41" y="-46.24" font-family="Helvetica,sans-Serif" font-size="10.00" fill="#63b8ff">3</text>
</a>
</g>
</g>
<!-- dir_906bcbbe38848504ae53d9f2d85d0e5c&#45;&gt;dir_bcf70896ed3e36f2db4975414825655f -->
<g id="edge5" class="edge">
<title>dir_906bcbbe38848504ae53d9f2d85d0e5c&#45;&gt;dir_bcf70896ed3e36f2db4975414825655f</title>
<g id="a_edge5"><a xlink:href="dir_000017_000029.html" target="_top">
<path fill="none" stroke="#63b8ff" d="M270.73,-183.59C269.38,-176.86 268.96,-167.53 269.45,-159.15"/>
<polygon fill="#63b8ff" stroke="#63b8ff" points="273.03,-159.65 270.75,-149.3 266.08,-158.81 273.03,-159.65"/>
</a>
</g>
<g id="a_edge5&#45;headlabel"><a xlink:href="dir_000017_000029.html" target="_top" xlink:title="1">
<text text-anchor="middle" x="275.42" y="-159.05" font-family="Helvetica,sans-Serif" font-size="10.00" fill="#63b8ff">1</text>
</a>
</g>
</g>
<!-- dir_f05eb2cb4d2f67fc50957245660a2660 -->
<g id="node7" class="node">
<title>dir_f05eb2cb4d2f67fc50957245660a2660</title>
<g id="a_node7"><a xlink:href="dir_f05eb2cb4d2f67fc50957245660a2660.html" target="_top" xlink:title="driver">
<polygon fill="#a2b4d6" stroke="#404040" points="229.25,-260 190.75,-260 190.75,-240 229.25,-240 229.25,-260"/>
<text text-anchor="middle" x="210" y="-246.5" font-family="Helvetica,sans-Serif" font-size="10.00">driver</text>
</a>
</g>
</g>
<!-- dir_f05eb2cb4d2f67fc50957245660a2660&#45;&gt;dir_c46d2619ca51eda3bcfbc029920b54e1 -->
<g id="edge7" class="edge">
<title>dir_f05eb2cb4d2f67fc50957245660a2660&#45;&gt;dir_c46d2619ca51eda3bcfbc029920b54e1</title>
<g id="a_edge7"><a xlink:href="dir_000020_000025.html" target="_top">
<path fill="none" stroke="#63b8ff" d="M229.58,-242.64C232.72,-241.71 235.94,-240.79 239,-240 315.04,-220.34 362.45,-264.93 412,-204 451.26,-155.73 435.81,-121.49 412,-64 408.75,-56.15 402.94,-49.1 396.87,-43.31"/>
<polygon fill="#63b8ff" stroke="#63b8ff" points="399.51,-40.11 389.65,-36.24 394.95,-45.42 399.51,-40.11"/>
</a>
</g>
<g id="a_edge7&#45;headlabel"><a xlink:href="dir_000020_000025.html" target="_top" xlink:title="2">
<text text-anchor="middle" x="403.09" y="-36.8" font-family="Helvetica,sans-Serif" font-size="10.00" fill="#63b8ff">2</text>
</a>
</g>
</g>
<!-- dir_06cf4eb54185625c35ddef42b22844f1&#45;&gt;dir_c46d2619ca51eda3bcfbc029920b54e1 -->
<g id="edge10" class="edge">
<title>dir_06cf4eb54185625c35ddef42b22844f1&#45;&gt;dir_c46d2619ca51eda3bcfbc029920b54e1</title>
<g id="a_edge10"><a xlink:href="dir_000022_000025.html" target="_top">
<path fill="none" stroke="#63b8ff" d="M286.32,-71.84C289.61,-69.14 293.35,-66.3 297,-64 310.98,-55.2 327.39,-47.12 341.54,-40.77"/>
<polygon fill="#63b8ff" stroke="#63b8ff" points="342.61,-43.68 350.37,-36.46 339.81,-37.26 342.61,-43.68"/>
</a>
</g>
<g id="a_edge10&#45;headlabel"><a xlink:href="dir_000022_000025.html" target="_top" xlink:title="5">
<text text-anchor="middle" x="341.46" y="-44.22" font-family="Helvetica,sans-Serif" font-size="10.00" fill="#63b8ff">5</text>
</a>
</g>
</g>
<!-- dir_06cf4eb54185625c35ddef42b22844f1&#45;&gt;dir_906bcbbe38848504ae53d9f2d85d0e5c -->
<g id="edge8" class="edge">
<title>dir_06cf4eb54185625c35ddef42b22844f1&#45;&gt;dir_906bcbbe38848504ae53d9f2d85d0e5c</title>
<g id="a_edge8"><a xlink:href="dir_000022_000017.html" target="_top">
<path fill="none" stroke="#63b8ff" d="M266.51,-92.34C255.18,-104.66 238.54,-127.23 245,-148 248.05,-157.79 254.04,-167.33 259.96,-175.09"/>
<polygon fill="#63b8ff" stroke="#63b8ff" points="257.88,-177.07 266.93,-182.57 263.28,-172.62 257.88,-177.07"/>
</a>
</g>
<g id="a_edge8&#45;headlabel"><a xlink:href="dir_000022_000017.html" target="_top" xlink:title="1">
<text text-anchor="middle" x="253.4" y="-173.6" font-family="Helvetica,sans-Serif" font-size="10.00" fill="#63b8ff">1</text>
</a>
</g>
</g>
<!-- dir_06cf4eb54185625c35ddef42b22844f1&#45;&gt;dir_bcf70896ed3e36f2db4975414825655f -->
<g id="edge9" class="edge">
<title>dir_06cf4eb54185625c35ddef42b22844f1&#45;&gt;dir_bcf70896ed3e36f2db4975414825655f</title>
<g id="a_edge9"><a xlink:href="dir_000022_000029.html" target="_top">
<path fill="none" stroke="#63b8ff" d="M281.25,-92.3C282.6,-99.01 283.04,-108.32 282.56,-116.71"/>
<polygon fill="#63b8ff" stroke="#63b8ff" points="278.97,-116.25 281.27,-126.59 285.92,-117.08 278.97,-116.25"/>
</a>
</g>
<g id="a_edge9&#45;headlabel"><a xlink:href="dir_000022_000029.html" target="_top" xlink:title="2">
<text text-anchor="middle" x="276.58" y="-109.85" font-family="Helvetica,sans-Serif" font-size="10.00" fill="#63b8ff">2</text>
</a>
</g>
</g>
<!-- dir_6b912e9cb7e796f7b771bafbeee1680d -->
<g id="node9" class="node">
<title>dir_6b912e9cb7e796f7b771bafbeee1680d</title>
<g id="a_node9"><a xlink:href="dir_6b912e9cb7e796f7b771bafbeee1680d.html" target="_top" xlink:title="os">
<polygon fill="#a2b4d6" stroke="#404040" points="52.4,-260 23.6,-260 23.6,-240 52.4,-240 52.4,-260"/>
<text text-anchor="middle" x="38" y="-246.5" font-family="Helvetica,sans-Serif" font-size="10.00">os</text>
</a>
</g>
</g>
<!-- dir_bcf70896ed3e36f2db4975414825655f&#45;&gt;dir_1a88c24452b650a0a27632dbf7692fad -->
<g id="edge12" class="edge">
<title>dir_bcf70896ed3e36f2db4975414825655f&#45;&gt;dir_1a88c24452b650a0a27632dbf7692fad</title>
<g id="a_edge12"><a xlink:href="dir_000029_000012.html" target="_top">
<path fill="none" stroke="#63b8ff" d="M285.58,-127.59C293.39,-119.93 304.61,-108.91 313.94,-99.75"/>
<polygon fill="#63b8ff" stroke="#63b8ff" points="315.85,-102.8 320.53,-93.3 310.94,-97.81 315.85,-102.8"/>
</a>
</g>
<g id="a_edge12&#45;headlabel"><a xlink:href="dir_000029_000012.html" target="_top" xlink:title="3">
<text text-anchor="middle" x="316.27" y="-102.85" font-family="Helvetica,sans-Serif" font-size="10.00" fill="#63b8ff">3</text>
</a>
</g>
</g>
<!-- dir_bcf70896ed3e36f2db4975414825655f&#45;&gt;dir_c46d2619ca51eda3bcfbc029920b54e1 -->
<g id="edge14" class="edge">
<title>dir_bcf70896ed3e36f2db4975414825655f&#45;&gt;dir_c46d2619ca51eda3bcfbc029920b54e1</title>
<g id="a_edge14"><a xlink:href="dir_000029_000025.html" target="_top">
<path fill="none" stroke="#63b8ff" d="M297.09,-127.58C318.27,-117.73 348.89,-102.3 357,-92 367.08,-79.19 371.52,-61.09 373.48,-47.24"/>
<polygon fill="#63b8ff" stroke="#63b8ff" points="377.05,-47.72 374.63,-37.41 370.09,-46.98 377.05,-47.72"/>
</a>
</g>
<g id="a_edge14&#45;headlabel"><a xlink:href="dir_000029_000025.html" target="_top" xlink:title="7">
<text text-anchor="middle" x="379.49" y="-47.1" font-family="Helvetica,sans-Serif" font-size="10.00" fill="#63b8ff">7</text>
</a>
</g>
</g>
<!-- dir_bcf70896ed3e36f2db4975414825655f&#45;&gt;dir_906bcbbe38848504ae53d9f2d85d0e5c -->
<g id="edge13" class="edge">
<title>dir_bcf70896ed3e36f2db4975414825655f&#45;&gt;dir_906bcbbe38848504ae53d9f2d85d0e5c</title>
<g id="a_edge13"><a xlink:href="dir_000029_000017.html" target="_top">
<path fill="none" stroke="#63b8ff" d="M281.25,-148.3C282.6,-155.01 283.04,-164.32 282.56,-172.71"/>
<polygon fill="#63b8ff" stroke="#63b8ff" points="278.97,-172.25 281.27,-182.59 285.92,-173.08 278.97,-172.25"/>
</a>
</g>
<g id="a_edge13&#45;headlabel"><a xlink:href="dir_000029_000017.html" target="_top" xlink:title="1">
<text text-anchor="middle" x="276.58" y="-165.85" font-family="Helvetica,sans-Serif" font-size="10.00" fill="#63b8ff">1</text>
</a>
</g>
</g>
<!-- dir_bcf70896ed3e36f2db4975414825655f&#45;&gt;dir_06cf4eb54185625c35ddef42b22844f1 -->
<g id="edge11" class="edge">
<title>dir_bcf70896ed3e36f2db4975414825655f&#45;&gt;dir_06cf4eb54185625c35ddef42b22844f1</title>
<g id="a_edge11"><a xlink:href="dir_000029_000022.html" target="_top">
<path fill="none" stroke="#63b8ff" d="M270.73,-127.59C269.38,-120.86 268.96,-111.53 269.45,-103.15"/>
<polygon fill="#63b8ff" stroke="#63b8ff" points="273.03,-103.65 270.75,-93.3 266.08,-102.81 273.03,-103.65"/>
</a>
</g>
<g id="a_edge11&#45;headlabel"><a xlink:href="dir_000029_000022.html" target="_top" xlink:title="5">
<text text-anchor="middle" x="275.42" y="-103.05" font-family="Helvetica,sans-Serif" font-size="10.00" fill="#63b8ff">5</text>
</a>
</g>
</g>
</g>
</svg>
