<?xml version="1.0" encoding="UTF-8" standalone="no"?>
<!DOCTYPE svg PUBLIC "-//W3C//DTD SVG 1.1//EN"
 "http://www.w3.org/Graphics/SVG/1.1/DTD/svg11.dtd">
<!-- Generated by graphviz version 8.1.0 (20230707.0739)
 -->
<!-- Title: dspic33ck&#45;dab.X/dcdt Pages: 1 -->
<!--zoomable 96 -->

<svg id="main" version="1.1" xmlns="http://www.w3.org/2000/svg" xmlns:xlink="http://www.w3.org/1999/xlink" xml:space="preserve" onload="init(evt)">
<style type="text/css"><![CDATA[
.node, .edge {opacity: 0.7;}
.node.selected, .edge.selected {opacity: 1;}
.edge:hover path { stroke: red; }
.edge:hover polygon { stroke: red; fill: red; }
]]></style>

<defs>
  <circle id="rim" cx="0" cy="0" r="7"/>
  <circle id="rim2" cx="0" cy="0" r="3.5"/>
  <g id="zoomPlus">
    <use xlink:href="#rim" fill="#404040"><set attributeName="fill" to="#808080" begin="zoomplus.mouseover" end="zoomplus.mouseout"/></use>
    <path d="M-4,0h8M0,-4v8" fill="none" stroke="white" stroke-width="1.5" pointer-events="none"/>
  </g>
  <g id="zoomMin">
    <use xlink:href="#rim" fill="#404040"><set attributeName="fill" to="#808080" begin="zoomminus.mouseover" end="zoomminus.mouseout"/></use>
    <path d="M-4,0h8" fill="none" stroke="white" stroke-width="1.5" pointer-events="none"/>
  </g>
  <g id="arrowUp" transform="translate(30 24)">
    <use xlink:href="#rim"/>
    <path pointer-events="none" fill="none" stroke="white" stroke-width="1.5" d="M0,-3.0v7 M-2.5,-0.5L0,-3.0L2.5,-0.5"/>
  </g>
  <g id="arrowRight" transform="rotate(90) translate(36 -43)">
    <use xlink:href="#rim"/>
    <path pointer-events="none" fill="none" stroke="white" stroke-width="1.5" d="M0,-3.0v7 M-2.5,-0.5L0,-3.0L2.5,-0.5"/>
  </g>
  <g id="arrowDown" transform="rotate(180) translate(-30 -48)">
    <use xlink:href="#rim"/>
    <path pointer-events="none" fill="none" stroke="white" stroke-width="1.5" d="M0,-3.0v7 M-2.5,-0.5L0,-3.0L2.5,-0.5"/>
  </g>
  <g id="arrowLeft" transform="rotate(270) translate(-36 17)">
    <use xlink:href="#rim"/>
    <path pointer-events="none" fill="none" stroke="white" stroke-width="1.5" d="M0,-3.0v7 M-2.5,-0.5L0,-3.0L2.5,-0.5"/>
  </g>
  <g id="resetDef">
    <use xlink:href="#rim2" fill="#404040"><set attributeName="fill" to="#808080" begin="reset.mouseover" end="reset.mouseout"/></use>
  </g>
</defs>
<script type="application/ecmascript">
var viewWidth = 538;
var viewHeight = 96;
var sectionId = 'dynsection-0';
</script>
<script type="application/ecmascript" xlink:href="svg.min.js"/>
<svg id="graph" class="graph">
<g id="viewport">
<title>dspic33ck&#45;dab.X/dcdt</title>
<g id="clust1" class="cluster">
<title>clusterdir_2a88d4bf3010a9a317e26b5e05d2cacc</title>
<g id="a_clust1"><a xlink:href="dir_2a88d4bf3010a9a317e26b5e05d2cacc.html" target="_top" xlink:title="dspic33ck&#45;dab.X">
<polygon fill="#edf0f7" stroke="#404040" stroke-dasharray="5,2" points="8,-8 8,-80 522,-80 522,-8 8,-8"/>
<text text-anchor="middle" x="265" y="-66.5" font-family="Helvetica,sans-Serif" font-size="10.00">dspic33ck&#45;dab.X</text>
</a>
</g>
</g>
<g id="clust2" class="cluster">
<title>clusterdir_1a88c24452b650a0a27632dbf7692fad</title>
<g id="a_clust2"><a xlink:href="dir_1a88c24452b650a0a27632dbf7692fad.html" target="_top">
<polygon fill="#edf0f7" stroke="#404040" stroke-width="2" points="16,-16 16,-52 514,-52 514,-16 16,-16"/>
</a>
</g>
</g>
<!-- dir_1a88c24452b650a0a27632dbf7692fad -->
<g id="node1" class="node">
<title>dir_1a88c24452b650a0a27632dbf7692fad</title>
<text text-anchor="middle" x="489" y="-30.5" font-family="Helvetica,sans-Serif" font-size="10.00">dcdt</text>
</g>
<!-- dir_8b330d81738475de27e82aa6ed304525 -->
<g id="node2" class="node">
<title>dir_8b330d81738475de27e82aa6ed304525</title>
<g id="a_node2"><a xlink:href="dir_8b330d81738475de27e82aa6ed304525.html" target="_top" xlink:title="dab_psio">
<polygon fill="#a2b4d6" stroke="#404040" points="453.5,-44 398.5,-44 398.5,-24 453.5,-24 453.5,-44"/>
<text text-anchor="middle" x="426" y="-30.5" font-family="Helvetica,sans-Serif" font-size="10.00">dab_psio</text>
</a>
</g>
</g>
<!-- dir_dee163437fbb8e3e7948325f52dd0139 -->
<g id="node3" class="node">
<title>dir_dee163437fbb8e3e7948325f52dd0139</title>
<g id="a_node3"><a xlink:href="dir_dee163437fbb8e3e7948325f52dd0139.html" target="_top" xlink:title="dab_pspo">
<polygon fill="#a2b4d6" stroke="#404040" points="380,-44 322,-44 322,-24 380,-24 380,-44"/>
<text text-anchor="middle" x="351" y="-30.5" font-family="Helvetica,sans-Serif" font-size="10.00">dab_pspo</text>
</a>
</g>
</g>
<!-- dir_028fe484d34a9ffc2f238a7408394276 -->
<g id="node4" class="node">
<title>dir_028fe484d34a9ffc2f238a7408394276</title>
<g id="a_node4"><a xlink:href="dir_028fe484d34a9ffc2f238a7408394276.html" target="_top" xlink:title="dab_psvo">
<polygon fill="#a2b4d6" stroke="#404040" points="304.25,-44 247.75,-44 247.75,-24 304.25,-24 304.25,-44"/>
<text text-anchor="middle" x="276" y="-30.5" font-family="Helvetica,sans-Serif" font-size="10.00">dab_psvo</text>
</a>
</g>
</g>
<!-- dir_acbf48b9efc987666c9a619f413fa907 -->
<g id="node5" class="node">
<title>dir_acbf48b9efc987666c9a619f413fa907</title>
<g id="a_node5"><a xlink:href="dir_acbf48b9efc987666c9a619f413fa907.html" target="_top" xlink:title="dab_spio">
<polygon fill="#a2b4d6" stroke="#404040" points="229.5,-44 174.5,-44 174.5,-24 229.5,-24 229.5,-44"/>
<text text-anchor="middle" x="202" y="-30.5" font-family="Helvetica,sans-Serif" font-size="10.00">dab_spio</text>
</a>
</g>
</g>
<!-- dir_9dbd28cba70a7d692fe88d41a9192f1e -->
<g id="node6" class="node">
<title>dir_9dbd28cba70a7d692fe88d41a9192f1e</title>
<g id="a_node6"><a xlink:href="dir_9dbd28cba70a7d692fe88d41a9192f1e.html" target="_top" xlink:title="dab_sppo">
<polygon fill="#a2b4d6" stroke="#404040" points="156,-44 98,-44 98,-24 156,-24 156,-44"/>
<text text-anchor="middle" x="127" y="-30.5" font-family="Helvetica,sans-Serif" font-size="10.00">dab_sppo</text>
</a>
</g>
</g>
<!-- dir_058018f4a2e1c85db515ac475a6cb9ad -->
<g id="node7" class="node">
<title>dir_058018f4a2e1c85db515ac475a6cb9ad</title>
<g id="a_node7"><a xlink:href="dir_058018f4a2e1c85db515ac475a6cb9ad.html" target="_top" xlink:title="dab_spvo">
<polygon fill="#a2b4d6" stroke="#404040" points="80.25,-44 23.75,-44 23.75,-24 80.25,-24 80.25,-44"/>
<text text-anchor="middle" x="52" y="-30.5" font-family="Helvetica,sans-Serif" font-size="10.00">dab_spvo</text>
</a>
</g>
</g>
</g>
</svg>

<g id="navigator" transform="translate(0 0)" fill="#404254">
  <rect fill="#f2f5e9" fill-opacity="0.5" stroke="#606060" stroke-width=".5" x="0" y="0" width="60" height="60"/>
  <use id="zoomplus" xlink:href="#zoomPlus" x="17" y="9" onmousedown="handleZoom(evt,'in')"/>
  <use id="zoomminus" xlink:href="#zoomMin" x="42" y="9" onmousedown="handleZoom(evt,'out')"/>
  <use id="reset" xlink:href="#resetDef" x="30" y="36" onmousedown="handleReset()"/>
   <use id="arrowup" xlink:href="#arrowUp" x="0" y="0" onmousedown="handlePan(0,-1)"/>
  <use id="arrowright" xlink:href="#arrowRight" x="0" y="0" onmousedown="handlePan(1,0)"/>
  <use id="arrowdown" xlink:href="#arrowDown" x="0" y="0" onmousedown="handlePan(0,1)"/>
  <use id="arrowleft" xlink:href="#arrowLeft" x="0" y="0" onmousedown="handlePan(-1,0)"/>
</g>
<svg viewBox="0 0 15 15" width="100%" height="30px" preserveAspectRatio="xMaxYMin meet">
 <g id="arrow_out" transform="scale(0.3 0.3)">
  <a xlink:href="dir_1a88c24452b650a0a27632dbf7692fad_dep_org.svg" target="_base">
   <rect id="button" ry="5" rx="5" y="6" x="6" height="38" width="38"
        fill="#f2f5e9" fill-opacity="0.5" stroke="#606060" stroke-width="1.0"/>
   <path id="arrow"
     d="M 11.500037,31.436501 C 11.940474,20.09759 22.043105,11.32322 32.158766,21.979434 L 37.068811,17.246167 C 37.068811,17.246167 37.088388,32 37.088388,32 L 22.160133,31.978069 C 22.160133,31.978069 26.997745,27.140456 26.997745,27.140456 C 18.528582,18.264221 13.291696,25.230495 11.500037,31.436501 z"
     style="fill:#404040;"/>
  </a>
 </g>
</svg>

<style type='text/css'>
<![CDATA[
[data-mouse-over-selected='false'] { opacity: 0.7; }
[data-mouse-over-selected='true']  { opacity: 1.0; }
]]>
</style>
<script type="application/ecmascript"><![CDATA[
document.addEventListener('DOMContentLoaded', (event) => {
  highlightEdges();
  highlightAdjacentNodes();
});
]]></script>
</svg>
