<?xml version="1.0" encoding="UTF-8" standalone="no"?>
<!DOCTYPE svg PUBLIC "-//W3C//DTD SVG 1.1//EN"
 "http://www.w3.org/Graphics/SVG/1.1/DTD/svg11.dtd">
<!-- Generated by graphviz version 8.1.0 (20230707.0739)
 -->
<!-- Title: dab&#45;pwm&#45;configuration.X/sources/device Pages: 1 -->
<svg width="157pt" height="184pt"
 viewBox="0.00 0.00 156.62 184.00" xmlns="http://www.w3.org/2000/svg" xmlns:xlink="http://www.w3.org/1999/xlink">
<g id="graph0" class="graph" transform="scale(1 1) rotate(0) translate(4 180)">
<title>dab&#45;pwm&#45;configuration.X/sources/device</title>
<g id="clust1" class="cluster">
<title>clusterdir_1c0b0a0bc1de0f236bb6d58b5f78dcb1</title>
<g id="a_clust1"><a xlink:href="dir_1c0b0a0bc1de0f236bb6d58b5f78dcb1.html" target="_top" xlink:title="sources">
<polygon fill="#edf0f7" stroke="#7f7f7f" stroke-dasharray="5,2" points="8,-40 8,-168 136,-168 136,-40 8,-40"/>
<text text-anchor="middle" x="72" y="-154.5" font-family="Helvetica,sans-Serif" font-size="10.00">sources</text>
</a>
</g>
</g>
<g id="clust2" class="cluster">
<title>clusterdir_58b48c3794575126885a26d505619548</title>
<g id="a_clust2"><a xlink:href="dir_58b48c3794575126885a26d505619548.html" target="_top">
<polygon fill="#edf0f7" stroke="#404040" stroke-width="2" points="16,-48 16,-140 128,-140 128,-48 16,-48"/>
</a>
</g>
</g>
<!-- dir_58b48c3794575126885a26d505619548 -->
<g id="node1" class="node">
<title>dir_58b48c3794575126885a26d505619548</title>
<text text-anchor="middle" x="46" y="-118.5" font-family="Helvetica,sans-Serif" font-size="10.00">device</text>
</g>
<!-- dir_af1542be5aa20d85f858e7780b3b9992 -->
<g id="node3" class="node">
<title>dir_af1542be5aa20d85f858e7780b3b9992</title>
<g id="a_node3"><a xlink:href="dir_af1542be5aa20d85f858e7780b3b9992.html" target="_top" xlink:title="pwrctrl">
<polygon fill="#a2b4d6" stroke="#404040" points="68.25,-76 23.75,-76 23.75,-56 68.25,-56 68.25,-76"/>
<text text-anchor="middle" x="46" y="-62.5" font-family="Helvetica,sans-Serif" font-size="10.00">pwrctrl</text>
</a>
</g>
</g>
<!-- dir_58b48c3794575126885a26d505619548&#45;&gt;dir_af1542be5aa20d85f858e7780b3b9992 -->
<g id="edge1" class="edge">
<title>dir_58b48c3794575126885a26d505619548&#45;&gt;dir_af1542be5aa20d85f858e7780b3b9992</title>
<g id="a_edge1"><a xlink:href="dir_000018_000029.html" target="_top">
<path fill="none" stroke="#63b8ff" d="M46,-112.08C46,-105.33 46,-95.78 46,-87.21"/>
<polygon fill="#63b8ff" stroke="#63b8ff" points="49.5,-87.48 46,-77.48 42.5,-87.48 49.5,-87.48"/>
</a>
</g>
<g id="a_edge1&#45;headlabel"><a xlink:href="dir_000018_000029.html" target="_top" xlink:title="10">
<text text-anchor="middle" x="52.34" y="-86.57" font-family="Helvetica,sans-Serif" font-size="10.00" fill="#63b8ff">10</text>
</a>
</g>
</g>
<!-- dir_f28365b143566f99bb5bb020caed50c6 -->
<g id="node4" class="node">
<title>dir_f28365b143566f99bb5bb020caed50c6</title>
<g id="a_node4"><a xlink:href="dir_f28365b143566f99bb5bb020caed50c6.html" target="_top" xlink:title="mcc_generated_files">
<polygon fill="#edf0f7" stroke="red" stroke-dasharray="5,2" points="148.62,-20 43.38,-20 43.38,0 148.62,0 148.62,-20"/>
<text text-anchor="middle" x="96" y="-6.5" font-family="Helvetica,sans-Serif" font-size="10.00">mcc_generated_files</text>
</a>
</g>
</g>
<!-- dir_58b48c3794575126885a26d505619548&#45;&gt;dir_f28365b143566f99bb5bb020caed50c6 -->
<g id="edge2" class="edge">
<title>dir_58b48c3794575126885a26d505619548&#45;&gt;dir_f28365b143566f99bb5bb020caed50c6</title>
<g id="a_edge2"><a xlink:href="dir_000018_000025.html" target="_top">
<path fill="none" stroke="#63b8ff" d="M53.32,-112.22C60.26,-103.51 70.56,-89.54 77,-76 83.88,-61.53 88.82,-44.05 91.93,-30.86"/>
<polygon fill="#63b8ff" stroke="#63b8ff" points="95.56,-31.68 94.29,-21.16 88.72,-30.18 95.56,-31.68"/>
</a>
</g>
<g id="a_edge2&#45;headlabel"><a xlink:href="dir_000018_000025.html" target="_top" xlink:title="16">
<text text-anchor="middle" x="97.56" y="-31.3" font-family="Helvetica,sans-Serif" font-size="10.00" fill="#63b8ff">16</text>
</a>
</g>
</g>
<!-- dir_45b03aa72861f370248b6dd9039c6f1d -->
<g id="node2" class="node">
<title>dir_45b03aa72861f370248b6dd9039c6f1d</title>
<g id="a_node2"><a xlink:href="dir_45b03aa72861f370248b6dd9039c6f1d.html" target="_top" xlink:title="fault">
<polygon fill="#a2b4d6" stroke="#404040" points="120,-132 86,-132 86,-112 120,-112 120,-132"/>
<text text-anchor="middle" x="103" y="-118.5" font-family="Helvetica,sans-Serif" font-size="10.00">fault</text>
</a>
</g>
</g>
<!-- dir_45b03aa72861f370248b6dd9039c6f1d&#45;&gt;dir_af1542be5aa20d85f858e7780b3b9992 -->
<g id="edge3" class="edge">
<title>dir_45b03aa72861f370248b6dd9039c6f1d&#45;&gt;dir_af1542be5aa20d85f858e7780b3b9992</title>
<g id="a_edge3"><a xlink:href="dir_000022_000029.html" target="_top">
<path fill="none" stroke="#63b8ff" d="M93.07,-111.59C84.98,-103.93 73.35,-92.91 63.68,-83.75"/>
<polygon fill="#63b8ff" stroke="#63b8ff" points="66.48,-81.63 56.81,-77.3 61.67,-86.72 66.48,-81.63"/>
</a>
</g>
<g id="a_edge3&#45;headlabel"><a xlink:href="dir_000022_000029.html" target="_top" xlink:title="4">
<text text-anchor="middle" x="70.04" y="-77.55" font-family="Helvetica,sans-Serif" font-size="10.00" fill="#63b8ff">4</text>
</a>
</g>
</g>
<!-- dir_45b03aa72861f370248b6dd9039c6f1d&#45;&gt;dir_f28365b143566f99bb5bb020caed50c6 -->
<g id="edge4" class="edge">
<title>dir_45b03aa72861f370248b6dd9039c6f1d&#45;&gt;dir_f28365b143566f99bb5bb020caed50c6</title>
<g id="a_edge4"><a xlink:href="dir_000022_000025.html" target="_top">
<path fill="none" stroke="#63b8ff" d="M105.6,-111.88C109.51,-96.76 115.85,-65.59 110,-40 109.23,-36.62 108.01,-33.18 106.6,-29.9"/>
<polygon fill="#63b8ff" stroke="#63b8ff" points="109.4,-28.66 101.8,-21.27 103.13,-31.78 109.4,-28.66"/>
</a>
</g>
<g id="a_edge4&#45;headlabel"><a xlink:href="dir_000022_000025.html" target="_top" xlink:title="5">
<text text-anchor="middle" x="113.54" y="-26.11" font-family="Helvetica,sans-Serif" font-size="10.00" fill="#63b8ff">5</text>
</a>
</g>
</g>
<!-- dir_af1542be5aa20d85f858e7780b3b9992&#45;&gt;dir_f28365b143566f99bb5bb020caed50c6 -->
<g id="edge5" class="edge">
<title>dir_af1542be5aa20d85f858e7780b3b9992&#45;&gt;dir_f28365b143566f99bb5bb020caed50c6</title>
<g id="a_edge5"><a xlink:href="dir_000029_000025.html" target="_top">
<path fill="none" stroke="#63b8ff" d="M54.71,-55.59C61.66,-48.08 71.6,-37.35 79.98,-28.3"/>
<polygon fill="#63b8ff" stroke="#63b8ff" points="82.16,-31.01 86.39,-21.3 77.03,-26.26 82.16,-31.01"/>
</a>
</g>
<g id="a_edge5&#45;headlabel"><a xlink:href="dir_000029_000025.html" target="_top" xlink:title="8">
<text text-anchor="middle" x="82.81" y="-31.08" font-family="Helvetica,sans-Serif" font-size="10.00" fill="#63b8ff">8</text>
</a>
</g>
</g>
</g>
</svg>
