<?xml version="1.0" encoding="UTF-8" standalone="no"?>
<!DOCTYPE svg PUBLIC "-//W3C//DTD SVG 1.1//EN"
 "http://www.w3.org/Graphics/SVG/1.1/DTD/svg11.dtd">
<!-- Generated by graphviz version 8.1.0 (20230707.0739)
 -->
<!-- Title: dab&#45;pwm&#45;configuration.X/mcc_generated_files Pages: 1 -->
<!--zoomable 152 -->

<svg id="main" version="1.1" xmlns="http://www.w3.org/2000/svg" xmlns:xlink="http://www.w3.org/1999/xlink" xml:space="preserve" onload="init(evt)">
<style type="text/css"><![CDATA[
.node, .edge {opacity: 0.7;}
.node.selected, .edge.selected {opacity: 1;}
.edge:hover path { stroke: red; }
.edge:hover polygon { stroke: red; fill: red; }
]]></style>

<defs>
  <circle id="rim" cx="0" cy="0" r="7"/>
  <circle id="rim2" cx="0" cy="0" r="3.5"/>
  <g id="zoomPlus">
    <use xlink:href="#rim" fill="#404040"><set attributeName="fill" to="#808080" begin="zoomplus.mouseover" end="zoomplus.mouseout"/></use>
    <path d="M-4,0h8M0,-4v8" fill="none" stroke="white" stroke-width="1.5" pointer-events="none"/>
  </g>
  <g id="zoomMin">
    <use xlink:href="#rim" fill="#404040"><set attributeName="fill" to="#808080" begin="zoomminus.mouseover" end="zoomminus.mouseout"/></use>
    <path d="M-4,0h8" fill="none" stroke="white" stroke-width="1.5" pointer-events="none"/>
  </g>
  <g id="arrowUp" transform="translate(30 24)">
    <use xlink:href="#rim"/>
    <path pointer-events="none" fill="none" stroke="white" stroke-width="1.5" d="M0,-3.0v7 M-2.5,-0.5L0,-3.0L2.5,-0.5"/>
  </g>
  <g id="arrowRight" transform="rotate(90) translate(36 -43)">
    <use xlink:href="#rim"/>
    <path pointer-events="none" fill="none" stroke="white" stroke-width="1.5" d="M0,-3.0v7 M-2.5,-0.5L0,-3.0L2.5,-0.5"/>
  </g>
  <g id="arrowDown" transform="rotate(180) translate(-30 -48)">
    <use xlink:href="#rim"/>
    <path pointer-events="none" fill="none" stroke="white" stroke-width="1.5" d="M0,-3.0v7 M-2.5,-0.5L0,-3.0L2.5,-0.5"/>
  </g>
  <g id="arrowLeft" transform="rotate(270) translate(-36 17)">
    <use xlink:href="#rim"/>
    <path pointer-events="none" fill="none" stroke="white" stroke-width="1.5" d="M0,-3.0v7 M-2.5,-0.5L0,-3.0L2.5,-0.5"/>
  </g>
  <g id="resetDef">
    <use xlink:href="#rim2" fill="#404040"><set attributeName="fill" to="#808080" begin="reset.mouseover" end="reset.mouseout"/></use>
  </g>
</defs>
<script type="application/ecmascript">
var viewWidth = 515;
var viewHeight = 152;
var sectionId = 'dynsection-0';
</script>
<script type="application/ecmascript" xlink:href="svg.min.js"/>
<svg id="graph" class="graph">
<g id="viewport">
<title>dab&#45;pwm&#45;configuration.X/mcc_generated_files</title>
<g id="clust1" class="cluster">
<title>clusterdir_631ca297c654d94c39f4f3043e00cda9</title>
<g id="a_clust1"><a xlink:href="dir_631ca297c654d94c39f4f3043e00cda9.html" target="_top" xlink:title="dab&#45;pwm&#45;configuration.X">
<polygon fill="#edf0f7" stroke="#404040" stroke-dasharray="5,2" points="8,-8 8,-136 499,-136 499,-8 8,-8"/>
<text text-anchor="middle" x="253.5" y="-122.5" font-family="Helvetica,sans-Serif" font-size="10.00">dab&#45;pwm&#45;configuration.X</text>
</a>
</g>
</g>
<g id="clust2" class="cluster">
<title>clusterdir_f28365b143566f99bb5bb020caed50c6</title>
<g id="a_clust2"><a xlink:href="dir_f28365b143566f99bb5bb020caed50c6.html" target="_top">
<polygon fill="#edf0f7" stroke="#404040" stroke-width="2" points="16,-16 16,-108 491,-108 491,-16 16,-16"/>
</a>
</g>
</g>
<!-- dir_f28365b143566f99bb5bb020caed50c6 -->
<g id="node1" class="node">
<title>dir_f28365b143566f99bb5bb020caed50c6</title>
<text text-anchor="middle" x="381" y="-86.5" font-family="Helvetica,sans-Serif" font-size="10.00">mcc_generated_files</text>
</g>
<!-- dir_1aecfa62d2ae3671c3fc1d68a128b25b -->
<g id="node2" class="node">
<title>dir_1aecfa62d2ae3671c3fc1d68a128b25b</title>
<g id="a_node2"><a xlink:href="dir_1aecfa62d2ae3671c3fc1d68a128b25b.html" target="_top" xlink:title="adc">
<polygon fill="#a2b4d6" stroke="#404040" points="55.88,-44 24.12,-44 24.12,-24 55.88,-24 55.88,-44"/>
<text text-anchor="middle" x="40" y="-30.5" font-family="Helvetica,sans-Serif" font-size="10.00">adc</text>
</a>
</g>
</g>
<!-- dir_adc6e28d7131635cc5bbcff911172ba9 -->
<g id="node3" class="node">
<title>dir_adc6e28d7131635cc5bbcff911172ba9</title>
<g id="a_node3"><a xlink:href="dir_adc6e28d7131635cc5bbcff911172ba9.html" target="_top" xlink:title="can">
<polygon fill="#a2b4d6" stroke="#404040" points="105.88,-44 74.12,-44 74.12,-24 105.88,-24 105.88,-44"/>
<text text-anchor="middle" x="90" y="-30.5" font-family="Helvetica,sans-Serif" font-size="10.00">can</text>
</a>
</g>
</g>
<!-- dir_f067220b63bbc6a5a42724f64ceccd11 -->
<g id="node4" class="node">
<title>dir_f067220b63bbc6a5a42724f64ceccd11</title>
<g id="a_node4"><a xlink:href="dir_f067220b63bbc6a5a42724f64ceccd11.html" target="_top" xlink:title="clc">
<polygon fill="#a2b4d6" stroke="#404040" points="152.4,-44 123.6,-44 123.6,-24 152.4,-24 152.4,-44"/>
<text text-anchor="middle" x="138" y="-30.5" font-family="Helvetica,sans-Serif" font-size="10.00">clc</text>
</a>
</g>
</g>
<!-- dir_02e755565b11eea6321da4e3d47ab3d6 -->
<g id="node5" class="node">
<title>dir_02e755565b11eea6321da4e3d47ab3d6</title>
<g id="a_node5"><a xlink:href="dir_02e755565b11eea6321da4e3d47ab3d6.html" target="_top" xlink:title="cmp">
<polygon fill="#a2b4d6" stroke="#404040" points="205.38,-44 170.62,-44 170.62,-24 205.38,-24 205.38,-44"/>
<text text-anchor="middle" x="188" y="-30.5" font-family="Helvetica,sans-Serif" font-size="10.00">cmp</text>
</a>
</g>
</g>
<!-- dir_301b91c62122e717d32c661ed344663f -->
<g id="node6" class="node">
<title>dir_301b91c62122e717d32c661ed344663f</title>
<g id="a_node6"><a xlink:href="dir_301b91c62122e717d32c661ed344663f.html" target="_top" xlink:title="crc">
<polygon fill="#a2b4d6" stroke="#404040" points="252.75,-44 223.25,-44 223.25,-24 252.75,-24 252.75,-44"/>
<text text-anchor="middle" x="238" y="-30.5" font-family="Helvetica,sans-Serif" font-size="10.00">crc</text>
</a>
</g>
</g>
<!-- dir_67b66e6a9ffe6255f1477248ef3f6ff9 -->
<g id="node7" class="node">
<title>dir_67b66e6a9ffe6255f1477248ef3f6ff9</title>
<g id="a_node7"><a xlink:href="dir_67b66e6a9ffe6255f1477248ef3f6ff9.html" target="_top" xlink:title="pwm">
<polygon fill="#a2b4d6" stroke="#404040" points="307.12,-44 270.88,-44 270.88,-24 307.12,-24 307.12,-44"/>
<text text-anchor="middle" x="289" y="-30.5" font-family="Helvetica,sans-Serif" font-size="10.00">pwm</text>
</a>
</g>
</g>
<!-- dir_f84683fdb381acfe24681f78d570a8ec -->
<g id="node8" class="node">
<title>dir_f84683fdb381acfe24681f78d570a8ec</title>
<g id="a_node8"><a xlink:href="dir_f84683fdb381acfe24681f78d570a8ec.html" target="_top" xlink:title="pwm_hs">
<polygon fill="#a2b4d6" stroke="#404040" points="377,-44 325,-44 325,-24 377,-24 377,-44"/>
<text text-anchor="middle" x="351" y="-30.5" font-family="Helvetica,sans-Serif" font-size="10.00">pwm_hs</text>
</a>
</g>
</g>
<!-- dir_099b2ec23cd3c9c691d6919bf295e8f8 -->
<g id="node9" class="node">
<title>dir_099b2ec23cd3c9c691d6919bf295e8f8</title>
<g id="a_node9"><a xlink:href="dir_099b2ec23cd3c9c691d6919bf295e8f8.html" target="_top" xlink:title="system">
<polygon fill="#a2b4d6" stroke="#404040" points="262.12,-100 213.88,-100 213.88,-80 262.12,-80 262.12,-100"/>
<text text-anchor="middle" x="238" y="-86.5" font-family="Helvetica,sans-Serif" font-size="10.00">system</text>
</a>
</g>
</g>
<!-- dir_099b2ec23cd3c9c691d6919bf295e8f8&#45;&gt;dir_1aecfa62d2ae3671c3fc1d68a128b25b -->
<g id="edge2" class="edge">
<title>dir_099b2ec23cd3c9c691d6919bf295e8f8&#45;&gt;dir_1aecfa62d2ae3671c3fc1d68a128b25b</title>
<g id="a_edge2"><a xlink:href="dir_000040_000001.html" target="_top">
<path fill="none" stroke="#63b8ff" d="M213.45,-83.36C181.65,-75.89 124.31,-61.89 66.71,-44.32"/>
<polygon fill="#63b8ff" stroke="#63b8ff" points="67.92,-40.73 57.33,-41.12 65.86,-47.42 67.92,-40.73"/>
</a>
</g>
<g id="a_edge2&#45;headlabel"><a xlink:href="dir_000040_000001.html" target="_top" xlink:title="1">
<text text-anchor="middle" x="71.19" y="-35.57" font-family="Helvetica,sans-Serif" font-size="10.00" fill="#63b8ff">1</text>
</a>
</g>
</g>
<!-- dir_099b2ec23cd3c9c691d6919bf295e8f8&#45;&gt;dir_adc6e28d7131635cc5bbcff911172ba9 -->
<g id="edge7" class="edge">
<title>dir_099b2ec23cd3c9c691d6919bf295e8f8&#45;&gt;dir_adc6e28d7131635cc5bbcff911172ba9</title>
<g id="a_edge7"><a xlink:href="dir_000040_000003.html" target="_top">
<path fill="none" stroke="#63b8ff" d="M213.56,-80.08C186.74,-70.3 143.85,-54.65 116.31,-44.6"/>
<polygon fill="#63b8ff" stroke="#63b8ff" points="117.82,-41.06 107.23,-40.92 115.43,-47.64 117.82,-41.06"/>
</a>
</g>
<g id="a_edge7&#45;headlabel"><a xlink:href="dir_000040_000003.html" target="_top" xlink:title="1">
<text text-anchor="middle" x="121.17" y="-36.13" font-family="Helvetica,sans-Serif" font-size="10.00" fill="#63b8ff">1</text>
</a>
</g>
</g>
<!-- dir_099b2ec23cd3c9c691d6919bf295e8f8&#45;&gt;dir_f067220b63bbc6a5a42724f64ceccd11 -->
<g id="edge8" class="edge">
<title>dir_099b2ec23cd3c9c691d6919bf295e8f8&#45;&gt;dir_f067220b63bbc6a5a42724f64ceccd11</title>
<g id="a_edge8"><a xlink:href="dir_000040_000004.html" target="_top">
<path fill="none" stroke="#63b8ff" d="M220.58,-79.59C204.41,-70.86 180.2,-57.79 162.16,-48.05"/>
<polygon fill="#63b8ff" stroke="#63b8ff" points="164.08,-44.57 153.62,-42.9 160.76,-50.73 164.08,-44.57"/>
</a>
</g>
<g id="a_edge8&#45;headlabel"><a xlink:href="dir_000040_000004.html" target="_top" xlink:title="2">
<text text-anchor="middle" x="167.6" y="-40.28" font-family="Helvetica,sans-Serif" font-size="10.00" fill="#63b8ff">2</text>
</a>
</g>
</g>
<!-- dir_099b2ec23cd3c9c691d6919bf295e8f8&#45;&gt;dir_02e755565b11eea6321da4e3d47ab3d6 -->
<g id="edge1" class="edge">
<title>dir_099b2ec23cd3c9c691d6919bf295e8f8&#45;&gt;dir_02e755565b11eea6321da4e3d47ab3d6</title>
<g id="a_edge1"><a xlink:href="dir_000040_000005.html" target="_top">
<path fill="none" stroke="#63b8ff" d="M229.29,-79.59C222.34,-72.08 212.4,-61.35 204.02,-52.3"/>
<polygon fill="#63b8ff" stroke="#63b8ff" points="206.97,-50.26 197.61,-45.3 201.84,-55.01 206.97,-50.26"/>
</a>
</g>
<g id="a_edge1&#45;headlabel"><a xlink:href="dir_000040_000005.html" target="_top" xlink:title="3">
<text text-anchor="middle" x="210.5" y="-46.47" font-family="Helvetica,sans-Serif" font-size="10.00" fill="#63b8ff">3</text>
</a>
</g>
</g>
<!-- dir_099b2ec23cd3c9c691d6919bf295e8f8&#45;&gt;dir_301b91c62122e717d32c661ed344663f -->
<g id="edge3" class="edge">
<title>dir_099b2ec23cd3c9c691d6919bf295e8f8&#45;&gt;dir_301b91c62122e717d32c661ed344663f</title>
<g id="a_edge3"><a xlink:href="dir_000040_000008.html" target="_top">
<path fill="none" stroke="#63b8ff" d="M238,-79.59C238,-72.86 238,-63.53 238,-55.15"/>
<polygon fill="#63b8ff" stroke="#63b8ff" points="241.5,-55.3 238,-45.3 234.5,-55.3 241.5,-55.3"/>
</a>
</g>
<g id="a_edge3&#45;headlabel"><a xlink:href="dir_000040_000008.html" target="_top" xlink:title="1">
<text text-anchor="middle" x="244.34" y="-54.39" font-family="Helvetica,sans-Serif" font-size="10.00" fill="#63b8ff">1</text>
</a>
</g>
</g>
<!-- dir_099b2ec23cd3c9c691d6919bf295e8f8&#45;&gt;dir_67b66e6a9ffe6255f1477248ef3f6ff9 -->
<g id="edge5" class="edge">
<title>dir_099b2ec23cd3c9c691d6919bf295e8f8&#45;&gt;dir_67b66e6a9ffe6255f1477248ef3f6ff9</title>
<g id="a_edge5"><a xlink:href="dir_000040_000026.html" target="_top">
<path fill="none" stroke="#63b8ff" d="M246.88,-79.59C254.05,-72.01 264.32,-61.13 272.92,-52.02"/>
<polygon fill="#63b8ff" stroke="#63b8ff" points="274.9,-54.97 279.22,-45.3 269.81,-50.17 274.9,-54.97"/>
</a>
</g>
<g id="a_edge5&#45;headlabel"><a xlink:href="dir_000040_000026.html" target="_top" xlink:title="1">
<text text-anchor="middle" x="275.49" y="-55.03" font-family="Helvetica,sans-Serif" font-size="10.00" fill="#63b8ff">1</text>
</a>
</g>
</g>
<!-- dir_099b2ec23cd3c9c691d6919bf295e8f8&#45;&gt;dir_f84683fdb381acfe24681f78d570a8ec -->
<g id="edge9" class="edge">
<title>dir_099b2ec23cd3c9c691d6919bf295e8f8&#45;&gt;dir_f84683fdb381acfe24681f78d570a8ec</title>
<g id="a_edge9"><a xlink:href="dir_000040_000027.html" target="_top">
<path fill="none" stroke="#63b8ff" d="M257.68,-79.59C275.24,-71.21 301.19,-58.8 321.27,-49.21"/>
<polygon fill="#63b8ff" stroke="#63b8ff" points="322.65,-51.95 330.16,-44.48 319.63,-45.63 322.65,-51.95"/>
</a>
</g>
<g id="a_edge9&#45;headlabel"><a xlink:href="dir_000040_000027.html" target="_top" xlink:title="1">
<text text-anchor="middle" x="321.63" y="-52.56" font-family="Helvetica,sans-Serif" font-size="10.00" fill="#63b8ff">1</text>
</a>
</g>
</g>
<!-- dir_3f182ecf0352bf0ac55e2b0d317efb21 -->
<g id="node10" class="node">
<title>dir_3f182ecf0352bf0ac55e2b0d317efb21</title>
<g id="a_node10"><a xlink:href="dir_3f182ecf0352bf0ac55e2b0d317efb21.html" target="_top" xlink:title="timer">
<polygon fill="#a2b4d6" stroke="#404040" points="432.88,-44 395.12,-44 395.12,-24 432.88,-24 432.88,-44"/>
<text text-anchor="middle" x="414" y="-30.5" font-family="Helvetica,sans-Serif" font-size="10.00">timer</text>
</a>
</g>
</g>
<!-- dir_099b2ec23cd3c9c691d6919bf295e8f8&#45;&gt;dir_3f182ecf0352bf0ac55e2b0d317efb21 -->
<g id="edge4" class="edge">
<title>dir_099b2ec23cd3c9c691d6919bf295e8f8&#45;&gt;dir_3f182ecf0352bf0ac55e2b0d317efb21</title>
<g id="a_edge4"><a xlink:href="dir_000040_000041.html" target="_top">
<path fill="none" stroke="#63b8ff" d="M262.39,-81.71C289.81,-73.49 335.9,-59.59 384.36,-44.48"/>
<polygon fill="#63b8ff" stroke="#63b8ff" points="385.23,-47.56 393.73,-41.24 383.14,-40.88 385.23,-47.56"/>
</a>
</g>
<g id="a_edge4&#45;headlabel"><a xlink:href="dir_000040_000041.html" target="_top" xlink:title="2">
<text text-anchor="middle" x="383.65" y="-47.84" font-family="Helvetica,sans-Serif" font-size="10.00" fill="#63b8ff">2</text>
</a>
</g>
</g>
<!-- dir_a06c7dc54d2bc42bb4523010b1cc07b6 -->
<g id="node11" class="node">
<title>dir_a06c7dc54d2bc42bb4523010b1cc07b6</title>
<g id="a_node11"><a xlink:href="dir_a06c7dc54d2bc42bb4523010b1cc07b6.html" target="_top" xlink:title="uart">
<polygon fill="#a2b4d6" stroke="#404040" points="483.25,-44 450.75,-44 450.75,-24 483.25,-24 483.25,-44"/>
<text text-anchor="middle" x="467" y="-30.5" font-family="Helvetica,sans-Serif" font-size="10.00">uart</text>
</a>
</g>
</g>
<!-- dir_099b2ec23cd3c9c691d6919bf295e8f8&#45;&gt;dir_a06c7dc54d2bc42bb4523010b1cc07b6 -->
<g id="edge6" class="edge">
<title>dir_099b2ec23cd3c9c691d6919bf295e8f8&#45;&gt;dir_a06c7dc54d2bc42bb4523010b1cc07b6</title>
<g id="a_edge6"><a xlink:href="dir_000040_000042.html" target="_top">
<path fill="none" stroke="#63b8ff" d="M262.43,-84.66C299.17,-77.92 370.92,-63.88 440.22,-44.24"/>
<polygon fill="#63b8ff" stroke="#63b8ff" points="440.78,-47.43 449.42,-41.3 438.84,-40.71 440.78,-47.43"/>
</a>
</g>
<g id="a_edge6&#45;headlabel"><a xlink:href="dir_000040_000042.html" target="_top" xlink:title="1">
<text text-anchor="middle" x="439.11" y="-47.66" font-family="Helvetica,sans-Serif" font-size="10.00" fill="#63b8ff">1</text>
</a>
</g>
</g>
</g>
</svg>

<g id="navigator" transform="translate(0 0)" fill="#404254">
  <rect fill="#f2f5e9" fill-opacity="0.5" stroke="#606060" stroke-width=".5" x="0" y="0" width="60" height="60"/>
  <use id="zoomplus" xlink:href="#zoomPlus" x="17" y="9" onmousedown="handleZoom(evt,'in')"/>
  <use id="zoomminus" xlink:href="#zoomMin" x="42" y="9" onmousedown="handleZoom(evt,'out')"/>
  <use id="reset" xlink:href="#resetDef" x="30" y="36" onmousedown="handleReset()"/>
   <use id="arrowup" xlink:href="#arrowUp" x="0" y="0" onmousedown="handlePan(0,-1)"/>
  <use id="arrowright" xlink:href="#arrowRight" x="0" y="0" onmousedown="handlePan(1,0)"/>
  <use id="arrowdown" xlink:href="#arrowDown" x="0" y="0" onmousedown="handlePan(0,1)"/>
  <use id="arrowleft" xlink:href="#arrowLeft" x="0" y="0" onmousedown="handlePan(-1,0)"/>
</g>
<svg viewBox="0 0 15 15" width="100%" height="30px" preserveAspectRatio="xMaxYMin meet">
 <g id="arrow_out" transform="scale(0.3 0.3)">
  <a xlink:href="dir_f28365b143566f99bb5bb020caed50c6_dep_org.svg" target="_base">
   <rect id="button" ry="5" rx="5" y="6" x="6" height="38" width="38"
        fill="#f2f5e9" fill-opacity="0.5" stroke="#606060" stroke-width="1.0"/>
   <path id="arrow"
     d="M 11.500037,31.436501 C 11.940474,20.09759 22.043105,11.32322 32.158766,21.979434 L 37.068811,17.246167 C 37.068811,17.246167 37.088388,32 37.088388,32 L 22.160133,31.978069 C 22.160133,31.978069 26.997745,27.140456 26.997745,27.140456 C 18.528582,18.264221 13.291696,25.230495 11.500037,31.436501 z"
     style="fill:#404040;"/>
  </a>
 </g>
</svg>

<style type='text/css'>
<![CDATA[
[data-mouse-over-selected='false'] { opacity: 0.7; }
[data-mouse-over-selected='true']  { opacity: 1.0; }
]]>
</style>
<script type="application/ecmascript"><![CDATA[
document.addEventListener('DOMContentLoaded', (event) => {
  highlightEdges();
  highlightAdjacentNodes();
});
]]></script>
</svg>
