<?xml version="1.0" encoding="UTF-8" standalone="no"?>
<!DOCTYPE svg PUBLIC "-//W3C//DTD SVG 1.1//EN"
 "http://www.w3.org/Graphics/SVG/1.1/DTD/svg11.dtd">
<!-- Generated by graphviz version 8.1.0 (20230707.0739)
 -->
<!-- Title: dspic33ck&#45;dab.X/sources Pages: 1 -->
<svg width="375pt" height="312pt"
 viewBox="0.00 0.00 375.00 312.00" xmlns="http://www.w3.org/2000/svg" xmlns:xlink="http://www.w3.org/1999/xlink">

<svg id="main" version="1.1" xmlns="http://www.w3.org/2000/svg" xmlns:xlink="http://www.w3.org/1999/xlink" xml:space="preserve" onload="init(evt)">
<style type="text/css"><![CDATA[
.node, .edge {opacity: 0.7;}
.node.selected, .edge.selected {opacity: 1;}
.edge:hover path { stroke: red; }
.edge:hover polygon { stroke: red; fill: red; }
]]></style>
<script type="application/ecmascript" xlink:href="svg.min.js"/>
<svg id="graph" class="graph">
<g id="graph0" class="graph" transform="scale(1 1) rotate(0) translate(4 308)">
<title>dspic33ck&#45;dab.X/sources</title>
<g id="clust1" class="cluster">
<title>clusterdir_2a88d4bf3010a9a317e26b5e05d2cacc</title>
<g id="a_clust1"><a xlink:href="dir_2a88d4bf3010a9a317e26b5e05d2cacc.html" target="_top" xlink:title="dspic33ck&#45;dab.X">
<polygon fill="#edf0f7" stroke="#404040" stroke-dasharray="5,2" points="8,-8 8,-296 359,-296 359,-8 8,-8"/>
<text text-anchor="middle" x="183.5" y="-282.5" font-family="Helvetica,sans-Serif" font-size="10.00">dspic33ck&#45;dab.X</text>
</a>
</g>
</g>
<g id="clust2" class="cluster">
<title>clusterdir_0c85c1034e829fcd1461f64b5ba79455</title>
<g id="a_clust2"><a xlink:href="dir_0c85c1034e829fcd1461f64b5ba79455.html" target="_top">
<polygon fill="#edf0f7" stroke="#404040" stroke-width="2" points="16,-64 16,-268 249,-268 249,-64 16,-64"/>
</a>
</g>
</g>
<!-- dir_1a88c24452b650a0a27632dbf7692fad -->
<g id="node1" class="node">
<title>dir_1a88c24452b650a0a27632dbf7692fad</title>
<g id="a_node1"><a xlink:href="dir_1a88c24452b650a0a27632dbf7692fad.html" target="_top" xlink:title="dcdt">
<polygon fill="#a2b4d6" stroke="red" points="291.38,-92 256.62,-92 256.62,-72 291.38,-72 291.38,-92"/>
<text text-anchor="middle" x="274" y="-78.5" font-family="Helvetica,sans-Serif" font-size="10.00">dcdt</text>
</a>
</g>
</g>
<!-- dir_c46d2619ca51eda3bcfbc029920b54e1 -->
<g id="node2" class="node">
<title>dir_c46d2619ca51eda3bcfbc029920b54e1</title>
<g id="a_node2"><a xlink:href="dir_c46d2619ca51eda3bcfbc029920b54e1.html" target="_top" xlink:title="mcc_generated_files">
<polygon fill="#a2b4d6" stroke="red" points="350.62,-36 245.38,-36 245.38,-16 350.62,-16 350.62,-36"/>
<text text-anchor="middle" x="298" y="-22.5" font-family="Helvetica,sans-Serif" font-size="10.00">mcc_generated_files</text>
</a>
</g>
</g>
<!-- dir_0c85c1034e829fcd1461f64b5ba79455 -->
<g id="node3" class="node">
<title>dir_0c85c1034e829fcd1461f64b5ba79455</title>
<text text-anchor="middle" x="216" y="-246.5" font-family="Helvetica,sans-Serif" font-size="10.00">sources</text>
</g>
<!-- dir_f32f993f0eeec40702e09e10dd24f2c6 -->
<g id="node4" class="node">
<title>dir_f32f993f0eeec40702e09e10dd24f2c6</title>
<g id="a_node4"><a xlink:href="dir_f32f993f0eeec40702e09e10dd24f2c6.html" target="_top" xlink:title="comm">
<polygon fill="#a2b4d6" stroke="#404040" points="172.5,-260 129.5,-260 129.5,-240 172.5,-240 172.5,-260"/>
<text text-anchor="middle" x="151" y="-246.5" font-family="Helvetica,sans-Serif" font-size="10.00">comm</text>
</a>
</g>
</g>
<!-- dir_f32f993f0eeec40702e09e10dd24f2c6&#45;&gt;dir_c46d2619ca51eda3bcfbc029920b54e1 -->
<g id="edge4" class="edge">
<title>dir_f32f993f0eeec40702e09e10dd24f2c6&#45;&gt;dir_c46d2619ca51eda3bcfbc029920b54e1</title>
<g id="a_edge4"><a xlink:href="dir_000005_000032.html" target="_top">
<path fill="none" stroke="#63b8ff" d="M172.04,-239.51C188.71,-231.41 212.1,-218.77 230,-204 277.99,-164.39 296.47,-151.7 314,-92 317.51,-80.06 316.52,-76.19 314,-64 312.76,-57.99 310.48,-51.75 308.04,-46.15"/>
<polygon fill="#63b8ff" stroke="#63b8ff" points="310.83,-44.87 303.34,-37.38 304.52,-47.91 310.83,-44.87"/>
</a>
</g>
<g id="a_edge4&#45;headlabel"><a xlink:href="dir_000005_000032.html" target="_top" xlink:title="3">
<text text-anchor="middle" x="314.94" y="-42.38" font-family="Helvetica,sans-Serif" font-size="10.00" fill="#63b8ff">3</text>
</a>
</g>
</g>
<!-- dir_906bcbbe38848504ae53d9f2d85d0e5c -->
<g id="node6" class="node">
<title>dir_906bcbbe38848504ae53d9f2d85d0e5c</title>
<g id="a_node6"><a xlink:href="dir_906bcbbe38848504ae53d9f2d85d0e5c.html" target="_top" xlink:title="device">
<polygon fill="#a2b4d6" stroke="#404040" points="213.5,-204 170.5,-204 170.5,-184 213.5,-184 213.5,-204"/>
<text text-anchor="middle" x="192" y="-190.5" font-family="Helvetica,sans-Serif" font-size="10.00">device</text>
</a>
</g>
</g>
<!-- dir_f32f993f0eeec40702e09e10dd24f2c6&#45;&gt;dir_906bcbbe38848504ae53d9f2d85d0e5c -->
<g id="edge2" class="edge">
<title>dir_f32f993f0eeec40702e09e10dd24f2c6&#45;&gt;dir_906bcbbe38848504ae53d9f2d85d0e5c</title>
<g id="a_edge2"><a xlink:href="dir_000005_000024.html" target="_top">
<path fill="none" stroke="#63b8ff" d="M158.14,-239.59C163.73,-232.24 171.66,-221.8 178.44,-212.87"/>
<polygon fill="#63b8ff" stroke="#63b8ff" points="181.68,-215.38 184.94,-205.3 176.11,-211.15 181.68,-215.38"/>
</a>
</g>
<g id="a_edge2&#45;headlabel"><a xlink:href="dir_000005_000024.html" target="_top" xlink:title="1">
<text text-anchor="middle" x="181.77" y="-215.46" font-family="Helvetica,sans-Serif" font-size="10.00" fill="#63b8ff">1</text>
</a>
</g>
</g>
<!-- dir_06cf4eb54185625c35ddef42b22844f1 -->
<g id="node8" class="node">
<title>dir_06cf4eb54185625c35ddef42b22844f1</title>
<g id="a_node8"><a xlink:href="dir_06cf4eb54185625c35ddef42b22844f1.html" target="_top" xlink:title="fault">
<polygon fill="#a2b4d6" stroke="#404040" points="182,-92 148,-92 148,-72 182,-72 182,-92"/>
<text text-anchor="middle" x="165" y="-78.5" font-family="Helvetica,sans-Serif" font-size="10.00">fault</text>
</a>
</g>
</g>
<!-- dir_f32f993f0eeec40702e09e10dd24f2c6&#45;&gt;dir_06cf4eb54185625c35ddef42b22844f1 -->
<g id="edge1" class="edge">
<title>dir_f32f993f0eeec40702e09e10dd24f2c6&#45;&gt;dir_06cf4eb54185625c35ddef42b22844f1</title>
<g id="a_edge1"><a xlink:href="dir_000005_000029.html" target="_top">
<path fill="none" stroke="#63b8ff" d="M151.79,-239.6C154.01,-213.35 160.29,-138.84 163.32,-102.89"/>
<polygon fill="#63b8ff" stroke="#63b8ff" points="166.86,-103.56 164.22,-93.3 159.89,-102.97 166.86,-103.56"/>
</a>
</g>
<g id="a_edge1&#45;headlabel"><a xlink:href="dir_000005_000029.html" target="_top" xlink:title="1">
<text text-anchor="middle" x="169.39" y="-102.88" font-family="Helvetica,sans-Serif" font-size="10.00" fill="#63b8ff">1</text>
</a>
</g>
</g>
<!-- dir_bcf70896ed3e36f2db4975414825655f -->
<g id="node10" class="node">
<title>dir_bcf70896ed3e36f2db4975414825655f</title>
<g id="a_node10"><a xlink:href="dir_bcf70896ed3e36f2db4975414825655f.html" target="_top" xlink:title="pwrctrl">
<polygon fill="#a2b4d6" stroke="#404040" points="238.25,-148 193.75,-148 193.75,-128 238.25,-128 238.25,-148"/>
<text text-anchor="middle" x="216" y="-134.5" font-family="Helvetica,sans-Serif" font-size="10.00">pwrctrl</text>
</a>
</g>
</g>
<!-- dir_f32f993f0eeec40702e09e10dd24f2c6&#45;&gt;dir_bcf70896ed3e36f2db4975414825655f -->
<g id="edge3" class="edge">
<title>dir_f32f993f0eeec40702e09e10dd24f2c6&#45;&gt;dir_bcf70896ed3e36f2db4975414825655f</title>
<g id="a_edge3"><a xlink:href="dir_000005_000036.html" target="_top">
<path fill="none" stroke="#63b8ff" d="M172.98,-241.92C190.01,-235.14 212.42,-223.08 223,-204 230.74,-190.04 227.86,-171.8 223.7,-158.2"/>
<polygon fill="#63b8ff" stroke="#63b8ff" points="226.74,-157.32 220.1,-149.06 220.15,-159.65 226.74,-157.32"/>
</a>
</g>
<g id="a_edge3&#45;headlabel"><a xlink:href="dir_000005_000036.html" target="_top" xlink:title="1">
<text text-anchor="middle" x="230.62" y="-155.25" font-family="Helvetica,sans-Serif" font-size="10.00" fill="#63b8ff">1</text>
</a>
</g>
</g>
<!-- dir_73d77e360d8a42bdd964ea14e9da6f2f -->
<g id="node5" class="node">
<title>dir_73d77e360d8a42bdd964ea14e9da6f2f</title>
<g id="a_node5"><a xlink:href="dir_73d77e360d8a42bdd964ea14e9da6f2f.html" target="_top" xlink:title="config">
<polygon fill="#a2b4d6" stroke="#404040" points="111.75,-260 70.25,-260 70.25,-240 111.75,-240 111.75,-260"/>
<text text-anchor="middle" x="91" y="-246.5" font-family="Helvetica,sans-Serif" font-size="10.00">config</text>
</a>
</g>
</g>
<!-- dir_906bcbbe38848504ae53d9f2d85d0e5c&#45;&gt;dir_c46d2619ca51eda3bcfbc029920b54e1 -->
<g id="edge6" class="edge">
<title>dir_906bcbbe38848504ae53d9f2d85d0e5c&#45;&gt;dir_c46d2619ca51eda3bcfbc029920b54e1</title>
<g id="a_edge6"><a xlink:href="dir_000024_000032.html" target="_top">
<path fill="none" stroke="#63b8ff" d="M210.57,-183.71C238.07,-168.77 288.45,-136.49 308,-92 314.39,-77.46 310.88,-59.54 306.35,-46.2"/>
<polygon fill="#63b8ff" stroke="#63b8ff" points="309.37,-45.3 302.5,-37.24 302.84,-47.83 309.37,-45.3"/>
</a>
</g>
<g id="a_edge6&#45;headlabel"><a xlink:href="dir_000024_000032.html" target="_top" xlink:title="3">
<text text-anchor="middle" x="313.32" y="-43.13" font-family="Helvetica,sans-Serif" font-size="10.00" fill="#63b8ff">3</text>
</a>
</g>
</g>
<!-- dir_906bcbbe38848504ae53d9f2d85d0e5c&#45;&gt;dir_bcf70896ed3e36f2db4975414825655f -->
<g id="edge5" class="edge">
<title>dir_906bcbbe38848504ae53d9f2d85d0e5c&#45;&gt;dir_bcf70896ed3e36f2db4975414825655f</title>
<g id="a_edge5"><a xlink:href="dir_000024_000036.html" target="_top">
<path fill="none" stroke="#63b8ff" d="M190.91,-183.59C192.65,-176.47 196.71,-166.45 201.22,-157.72"/>
<polygon fill="#63b8ff" stroke="#63b8ff" points="204.68,-159.71 206.62,-149.3 198.61,-156.23 204.68,-159.71"/>
</a>
</g>
<g id="a_edge5&#45;headlabel"><a xlink:href="dir_000024_000036.html" target="_top" xlink:title="1">
<text text-anchor="middle" x="205.36" y="-159.75" font-family="Helvetica,sans-Serif" font-size="10.00" fill="#63b8ff">1</text>
</a>
</g>
</g>
<!-- dir_f05eb2cb4d2f67fc50957245660a2660 -->
<g id="node7" class="node">
<title>dir_f05eb2cb4d2f67fc50957245660a2660</title>
<g id="a_node7"><a xlink:href="dir_f05eb2cb4d2f67fc50957245660a2660.html" target="_top" xlink:title="driver">
<polygon fill="#a2b4d6" stroke="#404040" points="238.25,-92 199.75,-92 199.75,-72 238.25,-72 238.25,-92"/>
<text text-anchor="middle" x="219" y="-78.5" font-family="Helvetica,sans-Serif" font-size="10.00">driver</text>
</a>
</g>
</g>
<!-- dir_f05eb2cb4d2f67fc50957245660a2660&#45;&gt;dir_c46d2619ca51eda3bcfbc029920b54e1 -->
<g id="edge7" class="edge">
<title>dir_f05eb2cb4d2f67fc50957245660a2660&#45;&gt;dir_c46d2619ca51eda3bcfbc029920b54e1</title>
<g id="a_edge7"><a xlink:href="dir_000027_000032.html" target="_top">
<path fill="none" stroke="#63b8ff" d="M231.57,-71.53C234.93,-69.04 238.58,-66.39 242,-64 252.57,-56.61 264.46,-48.7 274.56,-42.09"/>
<polygon fill="#63b8ff" stroke="#63b8ff" points="276.11,-44.61 282.59,-36.22 272.3,-38.74 276.11,-44.61"/>
</a>
</g>
<g id="a_edge7&#45;headlabel"><a xlink:href="dir_000027_000032.html" target="_top" xlink:title="2">
<text text-anchor="middle" x="275.65" y="-45.45" font-family="Helvetica,sans-Serif" font-size="10.00" fill="#63b8ff">2</text>
</a>
</g>
</g>
<!-- dir_06cf4eb54185625c35ddef42b22844f1&#45;&gt;dir_c46d2619ca51eda3bcfbc029920b54e1 -->
<g id="edge10" class="edge">
<title>dir_06cf4eb54185625c35ddef42b22844f1&#45;&gt;dir_c46d2619ca51eda3bcfbc029920b54e1</title>
<g id="a_edge10"><a xlink:href="dir_000029_000032.html" target="_top">
<path fill="none" stroke="#63b8ff" d="M178.12,-71.52C182.13,-68.87 186.64,-66.14 191,-64 210.8,-54.29 233.81,-45.98 253.4,-39.71"/>
<polygon fill="#63b8ff" stroke="#63b8ff" points="254.38,-42.76 262.89,-36.44 252.3,-36.08 254.38,-42.76"/>
</a>
</g>
<g id="a_edge10&#45;headlabel"><a xlink:href="dir_000029_000032.html" target="_top" xlink:title="5">
<text text-anchor="middle" x="252.79" y="-43.04" font-family="Helvetica,sans-Serif" font-size="10.00" fill="#63b8ff">5</text>
</a>
</g>
</g>
<!-- dir_06cf4eb54185625c35ddef42b22844f1&#45;&gt;dir_906bcbbe38848504ae53d9f2d85d0e5c -->
<g id="edge8" class="edge">
<title>dir_06cf4eb54185625c35ddef42b22844f1&#45;&gt;dir_906bcbbe38848504ae53d9f2d85d0e5c</title>
<g id="a_edge8"><a xlink:href="dir_000029_000024.html" target="_top">
<path fill="none" stroke="#63b8ff" d="M167.3,-92.35C171.66,-110.11 181.22,-149.07 187.08,-172.97"/>
<polygon fill="#63b8ff" stroke="#63b8ff" points="183.92,-173.74 189.7,-182.62 190.71,-172.08 183.92,-173.74"/>
</a>
</g>
<g id="a_edge8&#45;headlabel"><a xlink:href="dir_000029_000024.html" target="_top" xlink:title="1">
<text text-anchor="middle" x="180.3" y="-168.43" font-family="Helvetica,sans-Serif" font-size="10.00" fill="#63b8ff">1</text>
</a>
</g>
</g>
<!-- dir_06cf4eb54185625c35ddef42b22844f1&#45;&gt;dir_bcf70896ed3e36f2db4975414825655f -->
<g id="edge9" class="edge">
<title>dir_06cf4eb54185625c35ddef42b22844f1&#45;&gt;dir_bcf70896ed3e36f2db4975414825655f</title>
<g id="a_edge9"><a xlink:href="dir_000029_000036.html" target="_top">
<path fill="none" stroke="#63b8ff" d="M179.03,-92.3C187.52,-99.7 197.89,-110.28 205.65,-119.29"/>
<polygon fill="#63b8ff" stroke="#63b8ff" points="203.37,-121.03 212.38,-126.59 208.81,-116.62 203.37,-121.03"/>
</a>
</g>
<g id="a_edge9&#45;headlabel"><a xlink:href="dir_000029_000036.html" target="_top" xlink:title="2">
<text text-anchor="middle" x="198.9" y="-117.52" font-family="Helvetica,sans-Serif" font-size="10.00" fill="#63b8ff">2</text>
</a>
</g>
</g>
<!-- dir_6b912e9cb7e796f7b771bafbeee1680d -->
<g id="node9" class="node">
<title>dir_6b912e9cb7e796f7b771bafbeee1680d</title>
<g id="a_node9"><a xlink:href="dir_6b912e9cb7e796f7b771bafbeee1680d.html" target="_top" xlink:title="os">
<polygon fill="#a2b4d6" stroke="#404040" points="52.4,-260 23.6,-260 23.6,-240 52.4,-240 52.4,-260"/>
<text text-anchor="middle" x="38" y="-246.5" font-family="Helvetica,sans-Serif" font-size="10.00">os</text>
</a>
</g>
</g>
<!-- dir_bcf70896ed3e36f2db4975414825655f&#45;&gt;dir_1a88c24452b650a0a27632dbf7692fad -->
<g id="edge12" class="edge">
<title>dir_bcf70896ed3e36f2db4975414825655f&#45;&gt;dir_1a88c24452b650a0a27632dbf7692fad</title>
<g id="a_edge12"><a xlink:href="dir_000036_000015.html" target="_top">
<path fill="none" stroke="#63b8ff" d="M226.1,-127.59C234.34,-119.93 246.17,-108.91 256.01,-99.75"/>
<polygon fill="#63b8ff" stroke="#63b8ff" points="258.08,-102.67 263.01,-93.3 253.31,-97.55 258.08,-102.67"/>
</a>
</g>
<g id="a_edge12&#45;headlabel"><a xlink:href="dir_000036_000015.html" target="_top" xlink:title="3">
<text text-anchor="middle" x="258.38" y="-102.7" font-family="Helvetica,sans-Serif" font-size="10.00" fill="#63b8ff">3</text>
</a>
</g>
</g>
<!-- dir_bcf70896ed3e36f2db4975414825655f&#45;&gt;dir_c46d2619ca51eda3bcfbc029920b54e1 -->
<g id="edge14" class="edge">
<title>dir_bcf70896ed3e36f2db4975414825655f&#45;&gt;dir_c46d2619ca51eda3bcfbc029920b54e1</title>
<g id="a_edge14"><a xlink:href="dir_000036_000032.html" target="_top">
<path fill="none" stroke="#63b8ff" d="M238.46,-128.08C260.91,-118.65 293.07,-103.57 300,-92 308.07,-78.51 306.78,-60.47 303.91,-46.82"/>
<polygon fill="#63b8ff" stroke="#63b8ff" points="307.06,-45.99 301.18,-37.17 300.27,-47.73 307.06,-45.99"/>
</a>
</g>
<g id="a_edge14&#45;headlabel"><a xlink:href="dir_000036_000032.html" target="_top" xlink:title="8">
<text text-anchor="middle" x="310.7" y="-44.27" font-family="Helvetica,sans-Serif" font-size="10.00" fill="#63b8ff">8</text>
</a>
</g>
</g>
<!-- dir_bcf70896ed3e36f2db4975414825655f&#45;&gt;dir_906bcbbe38848504ae53d9f2d85d0e5c -->
<g id="edge13" class="edge">
<title>dir_bcf70896ed3e36f2db4975414825655f&#45;&gt;dir_906bcbbe38848504ae53d9f2d85d0e5c</title>
<g id="a_edge13"><a xlink:href="dir_000036_000024.html" target="_top">
<path fill="none" stroke="#63b8ff" d="M217.11,-148.3C215.4,-155.39 211.36,-165.4 206.85,-174.15"/>
<polygon fill="#63b8ff" stroke="#63b8ff" points="203.37,-172.18 201.45,-182.59 209.45,-175.65 203.37,-172.18"/>
</a>
</g>
<g id="a_edge13&#45;headlabel"><a xlink:href="dir_000036_000024.html" target="_top" xlink:title="1">
<text text-anchor="middle" x="202.69" y="-165.15" font-family="Helvetica,sans-Serif" font-size="10.00" fill="#63b8ff">1</text>
</a>
</g>
</g>
<!-- dir_bcf70896ed3e36f2db4975414825655f&#45;&gt;dir_f05eb2cb4d2f67fc50957245660a2660 -->
<g id="edge15" class="edge">
<title>dir_bcf70896ed3e36f2db4975414825655f&#45;&gt;dir_f05eb2cb4d2f67fc50957245660a2660</title>
<g id="a_edge15"><a xlink:href="dir_000036_000027.html" target="_top">
<path fill="none" stroke="#63b8ff" d="M216.52,-127.59C216.9,-120.86 217.41,-111.53 217.88,-103.15"/>
<polygon fill="#63b8ff" stroke="#63b8ff" points="221.42,-103.48 218.48,-93.3 214.43,-103.09 221.42,-103.48"/>
</a>
</g>
<g id="a_edge15&#45;headlabel"><a xlink:href="dir_000036_000027.html" target="_top" xlink:title="1">
<text text-anchor="middle" x="224.06" y="-102.72" font-family="Helvetica,sans-Serif" font-size="10.00" fill="#63b8ff">1</text>
</a>
</g>
</g>
<!-- dir_bcf70896ed3e36f2db4975414825655f&#45;&gt;dir_06cf4eb54185625c35ddef42b22844f1 -->
<g id="edge11" class="edge">
<title>dir_bcf70896ed3e36f2db4975414825655f&#45;&gt;dir_06cf4eb54185625c35ddef42b22844f1</title>
<g id="a_edge11"><a xlink:href="dir_000036_000029.html" target="_top">
<path fill="none" stroke="#63b8ff" d="M201.85,-127.59C193.34,-120.16 182.98,-109.58 175.24,-100.58"/>
<polygon fill="#63b8ff" stroke="#63b8ff" points="177.55,-98.87 168.54,-93.3 172.1,-103.28 177.55,-98.87"/>
</a>
</g>
<g id="a_edge11&#45;headlabel"><a xlink:href="dir_000036_000029.html" target="_top" xlink:title="5">
<text text-anchor="middle" x="182.01" y="-95.38" font-family="Helvetica,sans-Serif" font-size="10.00" fill="#63b8ff">5</text>
</a>
</g>
</g>
</g>
</svg>
</svg>

<style type='text/css'>
<![CDATA[
[data-mouse-over-selected='false'] { opacity: 0.7; }
[data-mouse-over-selected='true']  { opacity: 1.0; }
]]>
</style>
<script type="application/ecmascript"><![CDATA[
document.addEventListener('DOMContentLoaded', (event) => {
  highlightEdges();
  highlightAdjacentNodes();
});
]]></script>
</svg>
